<?xml version="1.0" encoding="UTF-8" standalone="no"?>
<!DOCTYPE svg PUBLIC "-//W3C//DTD SVG 1.1//EN"
 "http://www.w3.org/Graphics/SVG/1.1/DTD/svg11.dtd">
<!-- Generated by graphviz version 12.1.2 (20240928.0832)
 -->
<!-- Pages: 1 -->
<svg width="179pt" height="1370pt"
 viewBox="0.00 0.00 179.25 1370.00" xmlns="http://www.w3.org/2000/svg" xmlns:xlink="http://www.w3.org/1999/xlink">
<g id="graph0" class="graph" transform="scale(1 1) rotate(0) translate(4 1366)">
<!-- ゴドルフィンバルブ_0_1 -->
<g id="node1" class="node">
<title>ゴドルフィンバルブ_0_1</title>
<g id="a_node1"><a xlink:href="https://www.google.com/search?q=%E3%82%B4%E3%83%89%E3%83%AB%E3%83%95%E3%82%A3%E3%83%B3%E3%83%90%E3%83%AB%E3%83%96%20%28netkeiba%20OR%20wikipedia%29" xlink:title="ゴドルフィンバルブ">
<polygon fill="none" stroke="black" points="171.25,-77 0,-77 0,0 171.25,0 171.25,-77"/>
<image xlink:href="https://channkenn.github.io/uma_blood/img/godoruhuinbarubu.png" width="100px" height="77px" preserveAspectRatio="xMinYMin meet" x="35.625" y="-77"/>
<text text-anchor="middle" x="85.62" y="-32.33" font-family="Times New Roman,serif" font-size="14.00">ゴドルフィンバルブ</text>
</a>
</g>
</g>
<!-- unknown_1_1 -->
<g id="node2" class="node">
<title>unknown_1_1</title>
<g id="a_node2"><a xlink:href="https://www.google.com/search?q=unknown%20%28netkeiba%20OR%20wikipedia%29" xlink:title="unknown">
<polygon fill="lightcoral" stroke="lightcoral" points="124.12,-334 47.12,-334 47.12,-257 124.12,-257 124.12,-334"/>
<image xlink:href="https://channkenn.github.io/uma_blood/img/mob.png" width="77px" height="77px" preserveAspectRatio="xMinYMin meet" x="47.125" y="-334"/>
<text text-anchor="middle" x="85.62" y="-289.7" font-family="MS Gothic" font-size="14.00">unknown</text>
</a>
</g>
</g>
<!-- unknown_1_1&#45;&gt;ゴドルフィンバルブ_0_1 -->
<g id="edge1" class="edge">
<title>unknown_1_1&#45;&gt;ゴドルフィンバルブ_0_1</title>
<path fill="none" stroke="lightblue" stroke-width="5" d="M85.62,-256.6C85.62,-213.32 85.62,-142.17 85.62,-93.2"/>
<polygon fill="lightblue" stroke="lightblue" stroke-width="5" points="90,-93.43 85.63,-83.43 81.25,-93.43 90,-93.43"/>
</g>
<!-- unknown_2_2 -->
<g id="node3" class="node">
<title>unknown_2_2</title>
<g id="a_node3"><a xlink:href="https://www.google.com/search?q=unknown%20%28netkeiba%20OR%20wikipedia%29" xlink:title="unknown">
<polygon fill="lightcoral" stroke="lightcoral" points="124.12,-591 47.12,-591 47.12,-514 124.12,-514 124.12,-591"/>
<image xlink:href="https://channkenn.github.io/uma_blood/img/mob.png" width="77px" height="77px" preserveAspectRatio="xMinYMin meet" x="47.125" y="-591"/>
<text text-anchor="middle" x="85.62" y="-546.7" font-family="MS Gothic" font-size="14.00">unknown</text>
</a>
</g>
</g>
<!-- unknown_2_2&#45;&gt;unknown_1_1 -->
<g id="edge2" class="edge">
<title>unknown_2_2&#45;&gt;unknown_1_1</title>
<path fill="none" stroke="lightblue" stroke-width="5" d="M85.62,-513.6C85.62,-470.32 85.62,-399.17 85.62,-350.2"/>
<polygon fill="lightblue" stroke="lightblue" stroke-width="5" points="90,-350.43 85.63,-340.43 81.25,-350.43 90,-350.43"/>
</g>
<!-- unknown_3_3 -->
<g id="node4" class="node">
<title>unknown_3_3</title>
<g id="a_node4"><a xlink:href="https://www.google.com/search?q=unknown%20%28netkeiba%20OR%20wikipedia%29" xlink:title="unknown">
<polygon fill="lightcoral" stroke="lightcoral" points="124.12,-848 47.12,-848 47.12,-771 124.12,-771 124.12,-848"/>
<image xlink:href="https://channkenn.github.io/uma_blood/img/mob.png" width="77px" height="77px" preserveAspectRatio="xMinYMin meet" x="47.125" y="-848"/>
<text text-anchor="middle" x="85.62" y="-803.7" font-family="MS Gothic" font-size="14.00">unknown</text>
</a>
</g>
</g>
<!-- unknown_3_3&#45;&gt;unknown_2_2 -->
<g id="edge3" class="edge">
<title>unknown_3_3&#45;&gt;unknown_2_2</title>
<path fill="none" stroke="lightblue" stroke-width="5" d="M85.62,-770.6C85.62,-727.32 85.62,-656.17 85.62,-607.2"/>
<polygon fill="lightblue" stroke="lightblue" stroke-width="5" points="90,-607.43 85.63,-597.43 81.25,-607.43 90,-607.43"/>
</g>
<!-- unknown_4_4 -->
<g id="node5" class="node">
<title>unknown_4_4</title>
<g id="a_node5"><a xlink:href="https://www.google.com/search?q=unknown%20%28netkeiba%20OR%20wikipedia%29" xlink:title="unknown">
<polygon fill="lightcoral" stroke="lightcoral" points="124.12,-1105 47.12,-1105 47.12,-1028 124.12,-1028 124.12,-1105"/>
<image xlink:href="https://channkenn.github.io/uma_blood/img/mob.png" width="77px" height="77px" preserveAspectRatio="xMinYMin meet" x="47.125" y="-1105"/>
<text text-anchor="middle" x="85.62" y="-1060.7" font-family="MS Gothic" font-size="14.00">unknown</text>
</a>
</g>
</g>
<!-- unknown_4_4&#45;&gt;unknown_3_3 -->
<g id="edge4" class="edge">
<title>unknown_4_4&#45;&gt;unknown_3_3</title>
<path fill="none" stroke="lightblue" stroke-width="5" d="M85.62,-1027.6C85.62,-984.32 85.62,-913.17 85.62,-864.2"/>
<polygon fill="lightblue" stroke="lightblue" stroke-width="5" points="90,-864.43 85.63,-854.43 81.25,-864.43 90,-864.43"/>
</g>
<!-- unknown_5_5 -->
<g id="node6" class="node">
<title>unknown_5_5</title>
<g id="a_node6"><a xlink:href="https://www.google.com/search?q=unknown%20%28netkeiba%20OR%20wikipedia%29" xlink:title="unknown">
<polygon fill="lightcoral" stroke="lightcoral" points="124.12,-1362 47.12,-1362 47.12,-1285 124.12,-1285 124.12,-1362"/>
<image xlink:href="https://channkenn.github.io/uma_blood/img/mob.png" width="77px" height="77px" preserveAspectRatio="xMinYMin meet" x="47.125" y="-1362"/>
<text text-anchor="middle" x="85.62" y="-1317.7" font-family="MS Gothic" font-size="14.00">unknown</text>
</a>
</g>
</g>
<!-- unknown_5_5&#45;&gt;unknown_4_4 -->
<g id="edge5" class="edge">
<title>unknown_5_5&#45;&gt;unknown_4_4</title>
<path fill="none" stroke="lightblue" stroke-width="5" d="M85.62,-1284.6C85.62,-1241.32 85.62,-1170.17 85.62,-1121.2"/>
<polygon fill="lightblue" stroke="lightblue" stroke-width="5" points="90,-1121.43 85.63,-1111.43 81.25,-1121.43 90,-1121.43"/>
</g>
</g>
</svg>
