<?xml version="1.0" encoding="UTF-8" standalone="no"?>
<!DOCTYPE svg PUBLIC "-//W3C//DTD SVG 1.1//EN"
 "http://www.w3.org/Graphics/SVG/1.1/DTD/svg11.dtd">
<!-- Generated by graphviz version 12.1.2 (20240928.0832)
 -->
<!-- Pages: 1 -->
<svg width="162pt" height="1370pt"
 viewBox="0.00 0.00 162.00 1370.00" xmlns="http://www.w3.org/2000/svg" xmlns:xlink="http://www.w3.org/1999/xlink">
<g id="graph0" class="graph" transform="scale(1 1) rotate(0) translate(4 1366)">
<!-- バイアリーターク_0_1 -->
<g id="node1" class="node">
<title>バイアリーターク_0_1</title>
<g id="a_node1"><a xlink:href="https://www.google.com/search?q=%E3%83%90%E3%82%A4%E3%82%A2%E3%83%AA%E3%83%BC%E3%82%BF%E3%83%BC%E3%82%AF%20%28netkeiba%20OR%20wikipedia%29" xlink:title="バイアリーターク">
<polygon fill="none" stroke="black" points="154,-77 0,-77 0,0 154,0 154,-77"/>
<image xlink:href="https://channkenn.github.io/uma_blood/img/baiaritaku.png" width="100px" height="77px" preserveAspectRatio="xMinYMin meet" x="27" y="-77"/>
<text text-anchor="middle" x="77" y="-32.33" font-family="Times New Roman,serif" font-size="14.00">バイアリーターク</text>
</a>
</g>
</g>
<!-- unknown_1_1 -->
<g id="node2" class="node">
<title>unknown_1_1</title>
<g id="a_node2"><a xlink:href="https://www.google.com/search?q=unknown%20%28netkeiba%20OR%20wikipedia%29" xlink:title="unknown">
<polygon fill="lightcoral" stroke="lightcoral" points="115.5,-334 38.5,-334 38.5,-257 115.5,-257 115.5,-334"/>
<image xlink:href="https://channkenn.github.io/uma_blood/img/mob.png" width="77px" height="77px" preserveAspectRatio="xMinYMin meet" x="38.5" y="-334"/>
<text text-anchor="middle" x="77" y="-289.7" font-family="MS Gothic" font-size="14.00">unknown</text>
</a>
</g>
</g>
<!-- unknown_1_1&#45;&gt;バイアリーターク_0_1 -->
<g id="edge1" class="edge">
<title>unknown_1_1&#45;&gt;バイアリーターク_0_1</title>
<path fill="none" stroke="lightblue" stroke-width="5" d="M77,-256.6C77,-213.32 77,-142.17 77,-93.2"/>
<polygon fill="lightblue" stroke="lightblue" stroke-width="5" points="81.38,-93.43 77,-83.43 72.63,-93.43 81.38,-93.43"/>
</g>
<!-- unknown_2_2 -->
<g id="node3" class="node">
<title>unknown_2_2</title>
<g id="a_node3"><a xlink:href="https://www.google.com/search?q=unknown%20%28netkeiba%20OR%20wikipedia%29" xlink:title="unknown">
<polygon fill="lightcoral" stroke="lightcoral" points="115.5,-591 38.5,-591 38.5,-514 115.5,-514 115.5,-591"/>
<image xlink:href="https://channkenn.github.io/uma_blood/img/mob.png" width="77px" height="77px" preserveAspectRatio="xMinYMin meet" x="38.5" y="-591"/>
<text text-anchor="middle" x="77" y="-546.7" font-family="MS Gothic" font-size="14.00">unknown</text>
</a>
</g>
</g>
<!-- unknown_2_2&#45;&gt;unknown_1_1 -->
<g id="edge2" class="edge">
<title>unknown_2_2&#45;&gt;unknown_1_1</title>
<path fill="none" stroke="lightblue" stroke-width="5" d="M77,-513.6C77,-470.32 77,-399.17 77,-350.2"/>
<polygon fill="lightblue" stroke="lightblue" stroke-width="5" points="81.38,-350.43 77,-340.43 72.63,-350.43 81.38,-350.43"/>
</g>
<!-- unknown_3_3 -->
<g id="node4" class="node">
<title>unknown_3_3</title>
<g id="a_node4"><a xlink:href="https://www.google.com/search?q=unknown%20%28netkeiba%20OR%20wikipedia%29" xlink:title="unknown">
<polygon fill="lightcoral" stroke="lightcoral" points="115.5,-848 38.5,-848 38.5,-771 115.5,-771 115.5,-848"/>
<image xlink:href="https://channkenn.github.io/uma_blood/img/mob.png" width="77px" height="77px" preserveAspectRatio="xMinYMin meet" x="38.5" y="-848"/>
<text text-anchor="middle" x="77" y="-803.7" font-family="MS Gothic" font-size="14.00">unknown</text>
</a>
</g>
</g>
<!-- unknown_3_3&#45;&gt;unknown_2_2 -->
<g id="edge3" class="edge">
<title>unknown_3_3&#45;&gt;unknown_2_2</title>
<path fill="none" stroke="lightblue" stroke-width="5" d="M77,-770.6C77,-727.32 77,-656.17 77,-607.2"/>
<polygon fill="lightblue" stroke="lightblue" stroke-width="5" points="81.38,-607.43 77,-597.43 72.63,-607.43 81.38,-607.43"/>
</g>
<!-- unknown_4_4 -->
<g id="node5" class="node">
<title>unknown_4_4</title>
<g id="a_node5"><a xlink:href="https://www.google.com/search?q=unknown%20%28netkeiba%20OR%20wikipedia%29" xlink:title="unknown">
<polygon fill="lightcoral" stroke="lightcoral" points="115.5,-1105 38.5,-1105 38.5,-1028 115.5,-1028 115.5,-1105"/>
<image xlink:href="https://channkenn.github.io/uma_blood/img/mob.png" width="77px" height="77px" preserveAspectRatio="xMinYMin meet" x="38.5" y="-1105"/>
<text text-anchor="middle" x="77" y="-1060.7" font-family="MS Gothic" font-size="14.00">unknown</text>
</a>
</g>
</g>
<!-- unknown_4_4&#45;&gt;unknown_3_3 -->
<g id="edge4" class="edge">
<title>unknown_4_4&#45;&gt;unknown_3_3</title>
<path fill="none" stroke="lightblue" stroke-width="5" d="M77,-1027.6C77,-984.32 77,-913.17 77,-864.2"/>
<polygon fill="lightblue" stroke="lightblue" stroke-width="5" points="81.38,-864.43 77,-854.43 72.63,-864.43 81.38,-864.43"/>
</g>
<!-- unknown_5_5 -->
<g id="node6" class="node">
<title>unknown_5_5</title>
<g id="a_node6"><a xlink:href="https://www.google.com/search?q=unknown%20%28netkeiba%20OR%20wikipedia%29" xlink:title="unknown">
<polygon fill="lightcoral" stroke="lightcoral" points="115.5,-1362 38.5,-1362 38.5,-1285 115.5,-1285 115.5,-1362"/>
<image xlink:href="https://channkenn.github.io/uma_blood/img/mob.png" width="77px" height="77px" preserveAspectRatio="xMinYMin meet" x="38.5" y="-1362"/>
<text text-anchor="middle" x="77" y="-1317.7" font-family="MS Gothic" font-size="14.00">unknown</text>
</a>
</g>
</g>
<!-- unknown_5_5&#45;&gt;unknown_4_4 -->
<g id="edge5" class="edge">
<title>unknown_5_5&#45;&gt;unknown_4_4</title>
<path fill="none" stroke="lightblue" stroke-width="5" d="M77,-1284.6C77,-1241.32 77,-1170.17 77,-1121.2"/>
<polygon fill="lightblue" stroke="lightblue" stroke-width="5" points="81.38,-1121.43 77,-1111.43 72.63,-1121.43 81.38,-1121.43"/>
</g>
</g>
</svg>
