<?xml version="1.0" encoding="UTF-8" standalone="no"?>
<!DOCTYPE svg PUBLIC "-//W3C//DTD SVG 1.1//EN"
 "http://www.w3.org/Graphics/SVG/1.1/DTD/svg11.dtd">
<!-- Generated by graphviz version 12.1.2 (20240928.0832)
 -->
<!-- Pages: 1 -->
<svg width="1274pt" height="1441pt"
 viewBox="0.00 0.00 1273.50 1441.00" xmlns="http://www.w3.org/2000/svg" xmlns:xlink="http://www.w3.org/1999/xlink">
<g id="graph0" class="graph" transform="scale(1 1) rotate(0) translate(4 1437)">
<polygon fill="white" stroke="none" points="-4,4 -4,-1437 1269.5,-1437 1269.5,4 -4,4"/>
<!-- Androcles -->
<g id="node1" class="node">
<title>Androcles</title>
<polygon fill="none" stroke="black" points="1122.5,-77 1045.5,-77 1045.5,0 1122.5,0 1122.5,-77"/>
<image xlink:href="img/mob.png" width="77px" height="77px" preserveAspectRatio="xMinYMin meet" x="1045.5" y="-77"/>
<text text-anchor="middle" x="1084" y="-33.45" font-family="Times New Roman,serif" font-size="14.00">Androcles</text>
</g>
<!-- Dollar -->
<g id="node2" class="node">
<title>Dollar</title>
<polygon fill="lightblue" stroke="lightblue" points="1075.5,-190 998.5,-190 998.5,-113 1075.5,-113 1075.5,-190"/>
<image xlink:href="img/mob.png" width="77px" height="77px" preserveAspectRatio="xMinYMin meet" x="998.5" y="-190"/>
<text text-anchor="middle" x="1037" y="-145.7" font-family="MS Gothic" font-size="14.00">Dollar</text>
</g>
<!-- Dollar&#45;&gt;Androcles -->
<g id="edge1" class="edge">
<title>Dollar&#45;&gt;Androcles</title>
<path fill="none" stroke="black" d="M1053.04,-112.61C1056.45,-104.57 1060.08,-95.99 1063.62,-87.63"/>
<polygon fill="black" stroke="black" points="1066.76,-89.19 1067.44,-78.61 1060.32,-86.46 1066.76,-89.19"/>
</g>
<!-- Alabama -->
<g id="node3" class="node">
<title>Alabama</title>
<polygon fill="lightcoral" stroke="lightcoral" points="1170.5,-190 1093.5,-190 1093.5,-113 1170.5,-113 1170.5,-190"/>
<image xlink:href="img/mob.png" width="77px" height="77px" preserveAspectRatio="xMinYMin meet" x="1093.5" y="-190"/>
<text text-anchor="middle" x="1132" y="-145.7" font-family="MS Gothic" font-size="14.00">Alabama</text>
</g>
<!-- Alabama&#45;&gt;Androcles -->
<g id="edge2" class="edge">
<title>Alabama&#45;&gt;Androcles</title>
<path fill="none" stroke="black" d="M1115.62,-112.61C1112.14,-104.57 1108.43,-95.99 1104.81,-87.63"/>
<polygon fill="black" stroke="black" points="1108.09,-86.4 1100.91,-78.61 1101.67,-89.18 1108.09,-86.4"/>
</g>
<!-- The Flying Dutchman -->
<g id="node4" class="node">
<title>The Flying Dutchman</title>
<polygon fill="lightblue" stroke="lightblue" points="980.12,-303 835.88,-303 835.88,-226 980.12,-226 980.12,-303"/>
<image xlink:href="img/mob.png" width="100px" height="77px" preserveAspectRatio="xMinYMin meet" x="858" y="-303"/>
<text text-anchor="middle" x="908" y="-258.7" font-family="MS Gothic" font-size="14.00">The Flying Dutchman</text>
</g>
<!-- The Flying Dutchman&#45;&gt;Dollar -->
<g id="edge3" class="edge">
<title>The Flying Dutchman&#45;&gt;Dollar</title>
<path fill="none" stroke="black" d="M952.03,-225.61C964.25,-215.1 977.56,-203.65 989.94,-192.99"/>
<polygon fill="black" stroke="black" points="991.9,-195.93 997.19,-186.75 987.33,-190.62 991.9,-195.93"/>
</g>
<!-- Payment -->
<g id="node5" class="node">
<title>Payment</title>
<polygon fill="lightcoral" stroke="lightcoral" points="1075.5,-303 998.5,-303 998.5,-226 1075.5,-226 1075.5,-303"/>
<image xlink:href="img/mob.png" width="77px" height="77px" preserveAspectRatio="xMinYMin meet" x="998.5" y="-303"/>
<text text-anchor="middle" x="1037" y="-258.7" font-family="MS Gothic" font-size="14.00">Payment</text>
</g>
<!-- Payment&#45;&gt;Dollar -->
<g id="edge4" class="edge">
<title>Payment&#45;&gt;Dollar</title>
<path fill="none" stroke="black" d="M1037,-225.61C1037,-217.84 1037,-209.56 1037,-201.46"/>
<polygon fill="black" stroke="black" points="1040.5,-201.73 1037,-191.73 1033.5,-201.73 1040.5,-201.73"/>
</g>
<!-- Serious -->
<g id="node6" class="node">
<title>Serious</title>
<polygon fill="lightblue" stroke="lightblue" points="1170.5,-303 1093.5,-303 1093.5,-226 1170.5,-226 1170.5,-303"/>
<image xlink:href="img/mob.png" width="77px" height="77px" preserveAspectRatio="xMinYMin meet" x="1093.5" y="-303"/>
<text text-anchor="middle" x="1132" y="-258.7" font-family="MS Gothic" font-size="14.00">Serious</text>
</g>
<!-- Serious&#45;&gt;Alabama -->
<g id="edge5" class="edge">
<title>Serious&#45;&gt;Alabama</title>
<path fill="none" stroke="black" d="M1132,-225.61C1132,-217.84 1132,-209.56 1132,-201.46"/>
<polygon fill="black" stroke="black" points="1135.5,-201.73 1132,-191.73 1128.5,-201.73 1135.5,-201.73"/>
</g>
<!-- Admiralty -->
<g id="node7" class="node">
<title>Admiralty</title>
<polygon fill="lightcoral" stroke="lightcoral" points="1265.5,-303 1188.5,-303 1188.5,-226 1265.5,-226 1265.5,-303"/>
<image xlink:href="img/mob.png" width="77px" height="77px" preserveAspectRatio="xMinYMin meet" x="1188.5" y="-303"/>
<text text-anchor="middle" x="1227" y="-258.7" font-family="MS Gothic" font-size="14.00">Admiralty</text>
</g>
<!-- Admiralty&#45;&gt;Alabama -->
<g id="edge6" class="edge">
<title>Admiralty&#45;&gt;Alabama</title>
<path fill="none" stroke="black" d="M1194.57,-225.61C1187.24,-217.04 1179.36,-207.84 1171.76,-198.96"/>
<polygon fill="black" stroke="black" points="1174.43,-196.69 1165.27,-191.37 1169.11,-201.24 1174.43,-196.69"/>
</g>
<!-- Bay Middleton -->
<g id="node8" class="node">
<title>Bay Middleton</title>
<polygon fill="lightblue" stroke="lightblue" points="905.88,-416 802.12,-416 802.12,-339 905.88,-339 905.88,-416"/>
<image xlink:href="img/mob.png" width="100px" height="77px" preserveAspectRatio="xMinYMin meet" x="804" y="-416"/>
<text text-anchor="middle" x="854" y="-371.7" font-family="MS Gothic" font-size="14.00">Bay Middleton</text>
</g>
<!-- Bay Middleton&#45;&gt;The Flying Dutchman -->
<g id="edge7" class="edge">
<title>Bay Middleton&#45;&gt;The Flying Dutchman</title>
<path fill="none" stroke="black" d="M872.43,-338.61C876.39,-330.48 880.61,-321.8 884.72,-313.35"/>
<polygon fill="black" stroke="black" points="887.76,-315.1 888.99,-304.58 881.47,-312.04 887.76,-315.1"/>
</g>
<!-- Barbelle -->
<g id="node9" class="node">
<title>Barbelle</title>
<polygon fill="lightcoral" stroke="lightcoral" points="1000.5,-416 923.5,-416 923.5,-339 1000.5,-339 1000.5,-416"/>
<image xlink:href="img/mob.png" width="77px" height="77px" preserveAspectRatio="xMinYMin meet" x="923.5" y="-416"/>
<text text-anchor="middle" x="962" y="-371.7" font-family="MS Gothic" font-size="14.00">Barbelle</text>
</g>
<!-- Barbelle&#45;&gt;The Flying Dutchman -->
<g id="edge8" class="edge">
<title>Barbelle&#45;&gt;The Flying Dutchman</title>
<path fill="none" stroke="black" d="M943.57,-338.61C939.61,-330.48 935.39,-321.8 931.28,-313.35"/>
<polygon fill="black" stroke="black" points="934.53,-312.04 927.01,-304.58 928.24,-315.1 934.53,-312.04"/>
</g>
<!-- Sultan -->
<g id="node10" class="node">
<title>Sultan</title>
<polygon fill="lightblue" stroke="lightblue" points="801.5,-529 724.5,-529 724.5,-452 801.5,-452 801.5,-529"/>
<image xlink:href="img/mob.png" width="77px" height="77px" preserveAspectRatio="xMinYMin meet" x="724.5" y="-529"/>
<text text-anchor="middle" x="763" y="-484.7" font-family="MS Gothic" font-size="14.00">Sultan</text>
</g>
<!-- Sultan&#45;&gt;Bay Middleton -->
<g id="edge9" class="edge">
<title>Sultan&#45;&gt;Bay Middleton</title>
<path fill="none" stroke="black" d="M794.06,-451.61C801.09,-443.04 808.63,-433.84 815.91,-424.96"/>
<polygon fill="black" stroke="black" points="818.48,-427.34 822.12,-417.39 813.07,-422.9 818.48,-427.34"/>
</g>
<!-- Cobweb -->
<g id="node11" class="node">
<title>Cobweb</title>
<polygon fill="lightcoral" stroke="lightcoral" points="896.5,-529 819.5,-529 819.5,-452 896.5,-452 896.5,-529"/>
<image xlink:href="img/mob.png" width="77px" height="77px" preserveAspectRatio="xMinYMin meet" x="819.5" y="-529"/>
<text text-anchor="middle" x="858" y="-484.7" font-family="MS Gothic" font-size="14.00">Cobweb</text>
</g>
<!-- Cobweb&#45;&gt;Bay Middleton -->
<g id="edge10" class="edge">
<title>Cobweb&#45;&gt;Bay Middleton</title>
<path fill="none" stroke="black" d="M856.63,-451.61C856.35,-443.84 856.06,-435.56 855.76,-427.46"/>
<polygon fill="black" stroke="black" points="859.27,-427.6 855.41,-417.73 852.28,-427.85 859.27,-427.6"/>
</g>
<!-- Sandbeck -->
<g id="node12" class="node">
<title>Sandbeck</title>
<polygon fill="lightblue" stroke="lightblue" points="997.5,-529 920.5,-529 920.5,-452 997.5,-452 997.5,-529"/>
<image xlink:href="img/mob.png" width="77px" height="77px" preserveAspectRatio="xMinYMin meet" x="920.5" y="-529"/>
<text text-anchor="middle" x="959" y="-484.7" font-family="MS Gothic" font-size="14.00">Sandbeck</text>
</g>
<!-- Sandbeck&#45;&gt;Barbelle -->
<g id="edge11" class="edge">
<title>Sandbeck&#45;&gt;Barbelle</title>
<path fill="none" stroke="black" d="M960.02,-451.61C960.23,-443.84 960.46,-435.56 960.68,-427.46"/>
<polygon fill="black" stroke="black" points="964.17,-427.82 960.94,-417.73 957.17,-427.63 964.17,-427.82"/>
</g>
<!-- Darioletta -->
<g id="node13" class="node">
<title>Darioletta</title>
<polygon fill="lightcoral" stroke="lightcoral" points="1098.75,-529 1015.25,-529 1015.25,-452 1098.75,-452 1098.75,-529"/>
<image xlink:href="img/mob.png" width="83.5px" height="77px" preserveAspectRatio="xMinYMin meet" x="1015.25" y="-529"/>
<text text-anchor="middle" x="1057" y="-484.7" font-family="MS Gothic" font-size="14.00">Darioletta</text>
</g>
<!-- Darioletta&#45;&gt;Barbelle -->
<g id="edge12" class="edge">
<title>Darioletta&#45;&gt;Barbelle</title>
<path fill="none" stroke="black" d="M1024.57,-451.61C1017.24,-443.04 1009.36,-433.84 1001.76,-424.96"/>
<polygon fill="black" stroke="black" points="1004.43,-422.69 995.27,-417.37 999.11,-427.24 1004.43,-422.69"/>
</g>
<!-- Selim -->
<g id="node14" class="node">
<title>Selim</title>
<polygon fill="lightblue" stroke="lightblue" points="730.5,-642 653.5,-642 653.5,-565 730.5,-565 730.5,-642"/>
<image xlink:href="img/mob.png" width="77px" height="77px" preserveAspectRatio="xMinYMin meet" x="653.5" y="-642"/>
<text text-anchor="middle" x="692" y="-597.7" font-family="MS Gothic" font-size="14.00">Selim</text>
</g>
<!-- Selim&#45;&gt;Sultan -->
<g id="edge13" class="edge">
<title>Selim&#45;&gt;Sultan</title>
<path fill="none" stroke="black" d="M716.24,-564.61C721.55,-556.31 727.24,-547.41 732.75,-538.79"/>
<polygon fill="black" stroke="black" points="735.62,-540.8 738.06,-530.49 729.72,-537.03 735.62,-540.8"/>
</g>
<!-- Bacchante -->
<g id="node15" class="node">
<title>Bacchante</title>
<polygon fill="lightcoral" stroke="lightcoral" points="872.5,-642 795.5,-642 795.5,-565 872.5,-565 872.5,-642"/>
<image xlink:href="img/mob.png" width="77px" height="77px" preserveAspectRatio="xMinYMin meet" x="795.5" y="-642"/>
<text text-anchor="middle" x="834" y="-597.7" font-family="MS Gothic" font-size="14.00">Bacchante</text>
</g>
<!-- Bacchante&#45;&gt;Sultan -->
<g id="edge14" class="edge">
<title>Bacchante&#45;&gt;Sultan</title>
<path fill="none" stroke="black" d="M809.76,-564.61C804.45,-556.31 798.76,-547.41 793.25,-538.79"/>
<polygon fill="black" stroke="black" points="796.28,-537.03 787.94,-530.49 790.38,-540.8 796.28,-537.03"/>
</g>
<!-- Buzzard -->
<g id="node16" class="node">
<title>Buzzard</title>
<polygon fill="lightblue" stroke="lightblue" points="618.5,-755 541.5,-755 541.5,-678 618.5,-678 618.5,-755"/>
<image xlink:href="img/mob.png" width="77px" height="77px" preserveAspectRatio="xMinYMin meet" x="541.5" y="-755"/>
<text text-anchor="middle" x="580" y="-710.7" font-family="MS Gothic" font-size="14.00">Buzzard</text>
</g>
<!-- Buzzard&#45;&gt;Selim -->
<g id="edge15" class="edge">
<title>Buzzard&#45;&gt;Selim</title>
<path fill="none" stroke="black" d="M618.23,-677.61C627.15,-668.77 636.74,-659.26 645.96,-650.13"/>
<polygon fill="black" stroke="black" points="648.23,-652.81 652.87,-643.28 643.3,-647.84 648.23,-652.81"/>
</g>
<!-- Alexander Mare -->
<g id="node17" class="node">
<title>Alexander Mare</title>
<polygon fill="lightcoral" stroke="lightcoral" points="747.25,-755 636.75,-755 636.75,-678 747.25,-678 747.25,-755"/>
<image xlink:href="img/mob.png" width="100px" height="77px" preserveAspectRatio="xMinYMin meet" x="642" y="-755"/>
<text text-anchor="middle" x="692" y="-710.7" font-family="MS Gothic" font-size="14.00">Alexander Mare</text>
</g>
<!-- Alexander Mare&#45;&gt;Selim -->
<g id="edge16" class="edge">
<title>Alexander Mare&#45;&gt;Selim</title>
<path fill="none" stroke="black" d="M692,-677.61C692,-669.84 692,-661.56 692,-653.46"/>
<polygon fill="black" stroke="black" points="695.5,-653.73 692,-643.73 688.5,-653.73 695.5,-653.73"/>
</g>
<!-- Williamson&#39;s Ditto -->
<g id="node18" class="node">
<title>Williamson&#39;s Ditto</title>
<polygon fill="lightblue" stroke="lightblue" points="902.75,-755 765.25,-755 765.25,-678 902.75,-678 902.75,-755"/>
<image xlink:href="img/mob.png" width="100px" height="77px" preserveAspectRatio="xMinYMin meet" x="784" y="-755"/>
<text text-anchor="middle" x="834" y="-710.7" font-family="MS Gothic" font-size="14.00">Williamson&#39;s Ditto</text>
</g>
<!-- Williamson&#39;s Ditto&#45;&gt;Bacchante -->
<g id="edge17" class="edge">
<title>Williamson&#39;s Ditto&#45;&gt;Bacchante</title>
<path fill="none" stroke="black" d="M834,-677.61C834,-669.84 834,-661.56 834,-653.46"/>
<polygon fill="black" stroke="black" points="837.5,-653.73 834,-643.73 830.5,-653.73 837.5,-653.73"/>
</g>
<!-- Mercury Mare -->
<g id="node19" class="node">
<title>Mercury Mare</title>
<polygon fill="lightcoral" stroke="lightcoral" points="1017.5,-755 920.5,-755 920.5,-678 1017.5,-678 1017.5,-755"/>
<image xlink:href="img/mob.png" width="97px" height="77px" preserveAspectRatio="xMinYMin meet" x="920.5" y="-755"/>
<text text-anchor="middle" x="969" y="-710.7" font-family="MS Gothic" font-size="14.00">Mercury Mare</text>
</g>
<!-- Mercury Mare&#45;&gt;Bacchante -->
<g id="edge18" class="edge">
<title>Mercury Mare&#45;&gt;Bacchante</title>
<path fill="none" stroke="black" d="M922.92,-677.61C909.51,-666.59 894.84,-654.53 881.36,-643.44"/>
<polygon fill="black" stroke="black" points="883.81,-640.92 873.86,-637.27 879.36,-646.33 883.81,-640.92"/>
</g>
<!-- Woodpecker -->
<g id="node20" class="node">
<title>Woodpecker</title>
<polygon fill="lightblue" stroke="lightblue" points="569.75,-868 486.25,-868 486.25,-791 569.75,-791 569.75,-868"/>
<image xlink:href="img/mob.png" width="83.5px" height="77px" preserveAspectRatio="xMinYMin meet" x="486.25" y="-868"/>
<text text-anchor="middle" x="528" y="-823.7" font-family="MS Gothic" font-size="14.00">Woodpecker</text>
</g>
<!-- Woodpecker&#45;&gt;Buzzard -->
<g id="edge19" class="edge">
<title>Woodpecker&#45;&gt;Buzzard</title>
<path fill="none" stroke="black" d="M545.75,-790.61C549.52,-782.57 553.54,-773.99 557.45,-765.63"/>
<polygon fill="black" stroke="black" points="560.62,-767.13 561.69,-756.59 554.28,-764.16 560.62,-767.13"/>
</g>
<!-- Misfortune -->
<g id="node21" class="node">
<title>Misfortune</title>
<polygon fill="lightcoral" stroke="lightcoral" points="674.75,-868 591.25,-868 591.25,-791 674.75,-791 674.75,-868"/>
<image xlink:href="img/mob.png" width="83.5px" height="77px" preserveAspectRatio="xMinYMin meet" x="591.25" y="-868"/>
<text text-anchor="middle" x="633" y="-823.7" font-family="MS Gothic" font-size="14.00">Misfortune</text>
</g>
<!-- Misfortune&#45;&gt;Buzzard -->
<g id="edge20" class="edge">
<title>Misfortune&#45;&gt;Buzzard</title>
<path fill="none" stroke="black" d="M614.91,-790.61C611.03,-782.48 606.88,-773.8 602.85,-765.35"/>
<polygon fill="black" stroke="black" points="606.13,-764.1 598.66,-756.58 599.81,-767.12 606.13,-764.1"/>
</g>
<!-- Herod -->
<g id="node22" class="node">
<title>Herod</title>
<polygon fill="lightblue" stroke="lightblue" points="461.5,-981 384.5,-981 384.5,-904 461.5,-904 461.5,-981"/>
<image xlink:href="img/mob.png" width="77px" height="77px" preserveAspectRatio="xMinYMin meet" x="384.5" y="-981"/>
<text text-anchor="middle" x="423" y="-936.7" font-family="MS Gothic" font-size="14.00">Herod</text>
</g>
<!-- Herod&#45;&gt;Woodpecker -->
<g id="edge21" class="edge">
<title>Herod&#45;&gt;Woodpecker</title>
<path fill="none" stroke="black" d="M458.84,-903.61C467.12,-894.86 476.01,-885.46 484.58,-876.4"/>
<polygon fill="black" stroke="black" points="486.95,-878.99 491.28,-869.32 481.87,-874.18 486.95,-878.99"/>
</g>
<!-- Miss Ramsden -->
<g id="node23" class="node">
<title>Miss Ramsden</title>
<polygon fill="lightcoral" stroke="lightcoral" points="576.5,-981 479.5,-981 479.5,-904 576.5,-904 576.5,-981"/>
<image xlink:href="img/mob.png" width="97px" height="77px" preserveAspectRatio="xMinYMin meet" x="479.5" y="-981"/>
<text text-anchor="middle" x="528" y="-936.7" font-family="MS Gothic" font-size="14.00">Miss Ramsden</text>
</g>
<!-- Miss Ramsden&#45;&gt;Woodpecker -->
<g id="edge22" class="edge">
<title>Miss Ramsden&#45;&gt;Woodpecker</title>
<path fill="none" stroke="black" d="M528,-903.61C528,-895.84 528,-887.56 528,-879.46"/>
<polygon fill="black" stroke="black" points="531.5,-879.73 528,-869.73 524.5,-879.73 531.5,-879.73"/>
</g>
<!-- Dux -->
<g id="node24" class="node">
<title>Dux</title>
<polygon fill="lightblue" stroke="lightblue" points="671.5,-981 594.5,-981 594.5,-904 671.5,-904 671.5,-981"/>
<image xlink:href="img/mob.png" width="77px" height="77px" preserveAspectRatio="xMinYMin meet" x="594.5" y="-981"/>
<text text-anchor="middle" x="633" y="-936.7" font-family="MS Gothic" font-size="14.00">Dux</text>
</g>
<!-- Dux&#45;&gt;Misfortune -->
<g id="edge23" class="edge">
<title>Dux&#45;&gt;Misfortune</title>
<path fill="none" stroke="black" d="M633,-903.61C633,-895.84 633,-887.56 633,-879.46"/>
<polygon fill="black" stroke="black" points="636.5,-879.73 633,-869.73 629.5,-879.73 636.5,-879.73"/>
</g>
<!-- Curiosity -->
<g id="node25" class="node">
<title>Curiosity</title>
<polygon fill="lightcoral" stroke="lightcoral" points="766.5,-981 689.5,-981 689.5,-904 766.5,-904 766.5,-981"/>
<image xlink:href="img/mob.png" width="77px" height="77px" preserveAspectRatio="xMinYMin meet" x="689.5" y="-981"/>
<text text-anchor="middle" x="728" y="-936.7" font-family="MS Gothic" font-size="14.00">Curiosity</text>
</g>
<!-- Curiosity&#45;&gt;Misfortune -->
<g id="edge24" class="edge">
<title>Curiosity&#45;&gt;Misfortune</title>
<path fill="none" stroke="black" d="M695.57,-903.61C688.24,-895.04 680.36,-885.84 672.76,-876.96"/>
<polygon fill="black" stroke="black" points="675.43,-874.69 666.27,-869.37 670.11,-879.24 675.43,-874.69"/>
</g>
<!-- Tartar -->
<g id="node26" class="node">
<title>Tartar</title>
<polygon fill="lightblue" stroke="lightblue" points="414.5,-1094 337.5,-1094 337.5,-1017 414.5,-1017 414.5,-1094"/>
<image xlink:href="img/mob.png" width="77px" height="77px" preserveAspectRatio="xMinYMin meet" x="337.5" y="-1094"/>
<text text-anchor="middle" x="376" y="-1049.7" font-family="MS Gothic" font-size="14.00">Tartar</text>
</g>
<!-- Tartar&#45;&gt;Herod -->
<g id="edge25" class="edge">
<title>Tartar&#45;&gt;Herod</title>
<path fill="none" stroke="black" d="M392.04,-1016.61C395.45,-1008.57 399.08,-999.99 402.62,-991.63"/>
<polygon fill="black" stroke="black" points="405.76,-993.19 406.44,-982.61 399.32,-990.46 405.76,-993.19"/>
</g>
<!-- Cypron -->
<g id="node27" class="node">
<title>Cypron</title>
<polygon fill="lightcoral" stroke="lightcoral" points="509.5,-1094 432.5,-1094 432.5,-1017 509.5,-1017 509.5,-1094"/>
<image xlink:href="img/mob.png" width="77px" height="77px" preserveAspectRatio="xMinYMin meet" x="432.5" y="-1094"/>
<text text-anchor="middle" x="471" y="-1049.7" font-family="MS Gothic" font-size="14.00">Cypron</text>
</g>
<!-- Cypron&#45;&gt;Herod -->
<g id="edge26" class="edge">
<title>Cypron&#45;&gt;Herod</title>
<path fill="none" stroke="black" d="M454.62,-1016.61C451.14,-1008.57 447.43,-999.99 443.81,-991.63"/>
<polygon fill="black" stroke="black" points="447.09,-990.4 439.91,-982.61 440.67,-993.18 447.09,-990.4"/>
</g>
<!-- Croft&#39;s Partner -->
<g id="node28" class="node">
<title>Croft&#39;s Partner</title>
<polygon fill="lightblue" stroke="lightblue" points="319.62,-1207 202.38,-1207 202.38,-1130 319.62,-1130 319.62,-1207"/>
<image xlink:href="img/mob.png" width="100px" height="77px" preserveAspectRatio="xMinYMin meet" x="211" y="-1207"/>
<text text-anchor="middle" x="261" y="-1162.7" font-family="MS Gothic" font-size="14.00">Croft&#39;s Partner</text>
</g>
<!-- Croft&#39;s Partner&#45;&gt;Tartar -->
<g id="edge27" class="edge">
<title>Croft&#39;s Partner&#45;&gt;Tartar</title>
<path fill="none" stroke="black" d="M300.25,-1129.61C309.51,-1120.67 319.48,-1111.06 329.04,-1101.83"/>
<polygon fill="black" stroke="black" points="331.46,-1104.36 336.22,-1094.89 326.6,-1099.32 331.46,-1104.36"/>
</g>
<!-- Meliora -->
<g id="node29" class="node">
<title>Meliora</title>
<polygon fill="lightcoral" stroke="lightcoral" points="414.5,-1207 337.5,-1207 337.5,-1130 414.5,-1130 414.5,-1207"/>
<image xlink:href="img/mob.png" width="77px" height="77px" preserveAspectRatio="xMinYMin meet" x="337.5" y="-1207"/>
<text text-anchor="middle" x="376" y="-1162.7" font-family="MS Gothic" font-size="14.00">Meliora</text>
</g>
<!-- Meliora&#45;&gt;Tartar -->
<g id="edge28" class="edge">
<title>Meliora&#45;&gt;Tartar</title>
<path fill="none" stroke="black" d="M376,-1129.61C376,-1121.84 376,-1113.56 376,-1105.46"/>
<polygon fill="black" stroke="black" points="379.5,-1105.73 376,-1095.73 372.5,-1105.73 379.5,-1105.73"/>
</g>
<!-- Blaze -->
<g id="node30" class="node">
<title>Blaze</title>
<polygon fill="lightblue" stroke="lightblue" points="509.5,-1207 432.5,-1207 432.5,-1130 509.5,-1130 509.5,-1207"/>
<image xlink:href="img/mob.png" width="77px" height="77px" preserveAspectRatio="xMinYMin meet" x="432.5" y="-1207"/>
<text text-anchor="middle" x="471" y="-1162.7" font-family="MS Gothic" font-size="14.00">Blaze</text>
</g>
<!-- Blaze&#45;&gt;Cypron -->
<g id="edge29" class="edge">
<title>Blaze&#45;&gt;Cypron</title>
<path fill="none" stroke="black" d="M471,-1129.61C471,-1121.84 471,-1113.56 471,-1105.46"/>
<polygon fill="black" stroke="black" points="474.5,-1105.73 471,-1095.73 467.5,-1105.73 474.5,-1105.73"/>
</g>
<!-- Salome -->
<g id="node31" class="node">
<title>Salome</title>
<polygon fill="lightcoral" stroke="lightcoral" points="604.5,-1207 527.5,-1207 527.5,-1130 604.5,-1130 604.5,-1207"/>
<image xlink:href="img/mob.png" width="77px" height="77px" preserveAspectRatio="xMinYMin meet" x="527.5" y="-1207"/>
<text text-anchor="middle" x="566" y="-1162.7" font-family="MS Gothic" font-size="14.00">Salome</text>
</g>
<!-- Salome&#45;&gt;Cypron -->
<g id="edge30" class="edge">
<title>Salome&#45;&gt;Cypron</title>
<path fill="none" stroke="black" d="M533.57,-1129.61C526.24,-1121.04 518.36,-1111.84 510.76,-1102.96"/>
<polygon fill="black" stroke="black" points="513.43,-1100.69 504.27,-1095.37 508.11,-1105.24 513.43,-1100.69"/>
</g>
<!-- Jigg -->
<g id="node32" class="node">
<title>Jigg</title>
<polygon fill="lightblue" stroke="lightblue" points="232.5,-1320 155.5,-1320 155.5,-1243 232.5,-1243 232.5,-1320"/>
<image xlink:href="img/mob.png" width="77px" height="77px" preserveAspectRatio="xMinYMin meet" x="155.5" y="-1320"/>
<text text-anchor="middle" x="194" y="-1275.7" font-family="MS Gothic" font-size="14.00">Jigg</text>
</g>
<!-- Jigg&#45;&gt;Croft&#39;s Partner -->
<g id="edge31" class="edge">
<title>Jigg&#45;&gt;Croft&#39;s Partner</title>
<path fill="none" stroke="black" d="M216.87,-1242.61C221.83,-1234.39 227.13,-1225.6 232.29,-1217.07"/>
<polygon fill="black" stroke="black" points="235.28,-1218.88 237.45,-1208.51 229.29,-1215.27 235.28,-1218.88"/>
</g>
<!-- Sister One to Mixbury -->
<g id="node33" class="node">
<title>Sister One to Mixbury</title>
<polygon fill="lightcoral" stroke="lightcoral" points="407.88,-1320 250.12,-1320 250.12,-1243 407.88,-1243 407.88,-1320"/>
<image xlink:href="img/mob.png" width="100px" height="77px" preserveAspectRatio="xMinYMin meet" x="279" y="-1320"/>
<text text-anchor="middle" x="329" y="-1275.7" font-family="MS Gothic" font-size="14.00">Sister One to Mixbury</text>
</g>
<!-- Sister One to Mixbury&#45;&gt;Croft&#39;s Partner -->
<g id="edge32" class="edge">
<title>Sister One to Mixbury&#45;&gt;Croft&#39;s Partner</title>
<path fill="none" stroke="black" d="M305.79,-1242.61C300.7,-1234.31 295.25,-1225.41 289.97,-1216.79"/>
<polygon fill="black" stroke="black" points="293.11,-1215.21 284.9,-1208.51 287.14,-1218.86 293.11,-1215.21"/>
</g>
<!-- バイアリーターク -->
<g id="node34" class="node">
<title>バイアリーターク</title>
<polygon fill="lightblue" stroke="lightblue" points="130,-1433 0,-1433 0,-1356 130,-1356 130,-1433"/>
<image xlink:href="img/baiaritaku.png" width="100px" height="77px" preserveAspectRatio="xMinYMin meet" x="15" y="-1433"/>
<text text-anchor="middle" x="65" y="-1388.7" font-family="MS Gothic" font-size="14.00">バイアリーターク</text>
</g>
<!-- バイアリーターク&#45;&gt;Jigg -->
<g id="edge33" class="edge">
<title>バイアリーターク&#45;&gt;Jigg</title>
<path fill="none" stroke="black" d="M109.03,-1355.61C121.25,-1345.1 134.56,-1333.65 146.94,-1322.99"/>
<polygon fill="black" stroke="black" points="148.9,-1325.93 154.19,-1316.75 144.33,-1320.62 148.9,-1325.93"/>
</g>
<!-- Spanker Mare -->
<g id="node35" class="node">
<title>Spanker Mare</title>
<polygon fill="lightcoral" stroke="lightcoral" points="245.5,-1433 148.5,-1433 148.5,-1356 245.5,-1356 245.5,-1433"/>
<image xlink:href="img/mob.png" width="97px" height="77px" preserveAspectRatio="xMinYMin meet" x="148.5" y="-1433"/>
<text text-anchor="middle" x="197" y="-1388.7" font-family="MS Gothic" font-size="14.00">Spanker Mare</text>
</g>
<!-- Spanker Mare&#45;&gt;Jigg -->
<g id="edge34" class="edge">
<title>Spanker Mare&#45;&gt;Jigg</title>
<path fill="none" stroke="black" d="M195.98,-1355.61C195.77,-1347.84 195.54,-1339.56 195.32,-1331.46"/>
<polygon fill="black" stroke="black" points="198.83,-1331.63 195.06,-1321.73 191.83,-1331.82 198.83,-1331.63"/>
</g>
<!-- Curwen Bay Barb -->
<g id="node36" class="node">
<title>Curwen Bay Barb</title>
<polygon fill="lightblue" stroke="lightblue" points="385.62,-1433 268.38,-1433 268.38,-1356 385.62,-1356 385.62,-1433"/>
<image xlink:href="img/mob.png" width="100px" height="77px" preserveAspectRatio="xMinYMin meet" x="277" y="-1433"/>
<text text-anchor="middle" x="327" y="-1388.7" font-family="MS Gothic" font-size="14.00">Curwen Bay Barb</text>
</g>
<!-- Curwen Bay Barb&#45;&gt;Sister One to Mixbury -->
<g id="edge35" class="edge">
<title>Curwen Bay Barb&#45;&gt;Sister One to Mixbury</title>
<path fill="none" stroke="black" d="M327.68,-1355.61C327.82,-1347.84 327.97,-1339.56 328.12,-1331.46"/>
<polygon fill="black" stroke="black" points="331.61,-1331.79 328.29,-1321.73 324.61,-1331.67 331.61,-1331.79"/>
</g>
<!-- Curwen Spot Mare -->
<g id="node37" class="node">
<title>Curwen Spot Mare</title>
<polygon fill="lightcoral" stroke="lightcoral" points="528,-1433 404,-1433 404,-1356 528,-1356 528,-1433"/>
<image xlink:href="img/mob.png" width="100px" height="77px" preserveAspectRatio="xMinYMin meet" x="416" y="-1433"/>
<text text-anchor="middle" x="466" y="-1388.7" font-family="MS Gothic" font-size="14.00">Curwen Spot Mare</text>
</g>
<!-- Curwen Spot Mare&#45;&gt;Sister One to Mixbury -->
<g id="edge36" class="edge">
<title>Curwen Spot Mare&#45;&gt;Sister One to Mixbury</title>
<path fill="none" stroke="black" d="M419.24,-1355.61C407.99,-1346.5 395.88,-1336.69 384.29,-1327.3"/>
<polygon fill="black" stroke="black" points="386.7,-1324.75 376.73,-1321.17 382.3,-1330.19 386.7,-1324.75"/>
</g>
</g>
</svg>
