<?xml version="1.0" encoding="UTF-8" standalone="no"?>
<!DOCTYPE svg PUBLIC "-//W3C//DTD SVG 1.1//EN"
 "http://www.w3.org/Graphics/SVG/1.1/DTD/svg11.dtd">
<!-- Generated by graphviz version 12.1.2 (20240928.0832)
 -->
<!-- Pages: 1 -->
<svg width="1095pt" height="1102pt"
 viewBox="0.00 0.00 1095.12 1101.50" xmlns="http://www.w3.org/2000/svg" xmlns:xlink="http://www.w3.org/1999/xlink">
<g id="graph0" class="graph" transform="scale(1 1) rotate(0) translate(4 1097.5)">
<!-- Bartlet&#39;s Childers_0_1 -->
<g id="node1" class="node">
<title>Bartlet&#39;s Childers_0_1</title>
<g id="a_node1"><a xlink:href="https://www.google.com/search?q=Bartlet%27s%20Childers%20%28netkeiba%20OR%20wikipedia%29" xlink:title="Bartlet&#39;s Childers">
<polygon fill="none" stroke="black" points="307.5,-24.5 197.75,-24.5 197.75,0 307.5,0 307.5,-24.5"/>
<text text-anchor="middle" x="252.62" y="-7.2" font-family="Times New Roman,serif" font-size="14.00">Bartlet&#39;s Childers</text>
</a>
</g>
</g>
<!-- ダーレーアラビアン_1_1 -->
<g id="node2" class="node">
<title>ダーレーアラビアン_1_1</title>
<g id="a_node2"><a xlink:href="https://www.google.com/search?q=%E3%83%80%E3%83%BC%E3%83%AC%E3%83%BC%E3%82%A2%E3%83%A9%E3%83%93%E3%82%A2%E3%83%B3%20%28netkeiba%20OR%20wikipedia%29" xlink:title="ダーレーアラビアン">
<polygon fill="lightblue" stroke="lightblue" points="260.75,-281.5 116.5,-281.5 116.5,-204.5 260.75,-204.5 260.75,-281.5"/>
<image xlink:href="img/darearabian.png" width="100px" height="77px" preserveAspectRatio="xMinYMin meet" x="138.625" y="-281.5"/>
<text text-anchor="middle" x="188.62" y="-237.2" font-family="MS Gothic" font-size="14.00">ダーレーアラビアン</text>
</a>
</g>
</g>
<!-- ダーレーアラビアン_1_1&#45;&gt;Bartlet&#39;s Childers_0_1 -->
<g id="edge1" class="edge">
<title>ダーレーアラビアン_1_1&#45;&gt;Bartlet&#39;s Childers_0_1</title>
<path fill="none" stroke="lightblue" stroke-width="5" d="M199.19,-204.23C212.12,-158.02 233.68,-80.95 245.06,-40.28"/>
<polygon fill="lightblue" stroke="lightblue" stroke-width="5" points="249.22,-41.65 247.7,-30.84 240.8,-39.29 249.22,-41.65"/>
</g>
<!-- unknown_2_1 -->
<g id="node3" class="node">
<title>unknown_2_1</title>
<g id="a_node3"><a xlink:href="https://www.google.com/search?q=unknown%20%28netkeiba%20OR%20wikipedia%29" xlink:title="unknown">
<polygon fill="lightcoral" stroke="lightcoral" points="177.25,-484.5 114,-484.5 114,-461.5 177.25,-461.5 177.25,-484.5"/>
<text text-anchor="middle" x="145.62" y="-467.2" font-family="MS Gothic" font-size="14.00">unknown</text>
</a>
</g>
</g>
<!-- unknown_2_1&#45;&gt;ダーレーアラビアン_1_1 -->
<g id="edge2" class="edge">
<title>unknown_2_1&#45;&gt;ダーレーアラビアン_1_1</title>
<path fill="none" stroke="lightblue" stroke-width="5" d="M147.7,-461C153.17,-432 168.27,-351.94 178.52,-297.6"/>
<polygon fill="lightblue" stroke="lightblue" stroke-width="5" points="182.75,-298.76 180.3,-288.13 174.15,-297.14 182.75,-298.76"/>
</g>
<!-- unknown_3_2 -->
<g id="node4" class="node">
<title>unknown_3_2</title>
<g id="a_node4"><a xlink:href="https://www.google.com/search?q=unknown%20%28netkeiba%20OR%20wikipedia%29" xlink:title="unknown">
<polygon fill="lightcoral" stroke="lightcoral" points="173.25,-687.5 110,-687.5 110,-664.5 173.25,-664.5 173.25,-687.5"/>
<text text-anchor="middle" x="141.62" y="-670.2" font-family="MS Gothic" font-size="14.00">unknown</text>
</a>
</g>
</g>
<!-- unknown_3_2&#45;&gt;unknown_2_1 -->
<g id="edge3" class="edge">
<title>unknown_3_2&#45;&gt;unknown_2_1</title>
<path fill="none" stroke="lightblue" stroke-width="5" d="M141.84,-664.19C142.45,-633.59 144.2,-545.64 145.09,-500.88"/>
<polygon fill="lightblue" stroke="lightblue" stroke-width="5" points="149.46,-501.18 145.28,-491.1 140.71,-501.01 149.46,-501.18"/>
</g>
<!-- unknown_4_3 -->
<g id="node5" class="node">
<title>unknown_4_3</title>
<g id="a_node5"><a xlink:href="https://www.google.com/search?q=unknown%20%28netkeiba%20OR%20wikipedia%29" xlink:title="unknown">
<polygon fill="lightcoral" stroke="lightcoral" points="67.25,-890.5 4,-890.5 4,-867.5 67.25,-867.5 67.25,-890.5"/>
<text text-anchor="middle" x="35.62" y="-873.2" font-family="MS Gothic" font-size="14.00">unknown</text>
</a>
</g>
</g>
<!-- unknown_4_3&#45;&gt;unknown_3_2 -->
<g id="edge4" class="edge">
<title>unknown_4_3&#45;&gt;unknown_3_2</title>
<path fill="none" stroke="lightblue" stroke-width="5" d="M41.32,-867.19C57.68,-836.18 105.09,-746.28 128.39,-702.11"/>
<polygon fill="lightblue" stroke="lightblue" stroke-width="5" points="132.19,-704.26 132.99,-693.38 124.45,-700.18 132.19,-704.26"/>
</g>
<!-- unknown_5_4 -->
<g id="node6" class="node">
<title>unknown_5_4</title>
<g id="a_node6"><a xlink:href="https://www.google.com/search?q=unknown%20%28netkeiba%20OR%20wikipedia%29" xlink:title="unknown">
<polygon fill="lightcoral" stroke="lightcoral" points="63.25,-1093.5 0,-1093.5 0,-1070.5 63.25,-1070.5 63.25,-1093.5"/>
<text text-anchor="middle" x="31.62" y="-1076.2" font-family="MS Gothic" font-size="14.00">unknown</text>
</a>
</g>
</g>
<!-- unknown_5_4&#45;&gt;unknown_4_3 -->
<g id="edge5" class="edge">
<title>unknown_5_4&#45;&gt;unknown_4_3</title>
<path fill="none" stroke="lightblue" stroke-width="5" d="M31.84,-1070.19C32.45,-1039.59 34.2,-951.64 35.09,-906.88"/>
<polygon fill="lightblue" stroke="lightblue" stroke-width="5" points="39.46,-907.18 35.28,-897.1 30.71,-907.01 39.46,-907.18"/>
</g>
<!-- Betty Leedes_1_1 -->
<g id="node7" class="node">
<title>Betty Leedes_1_1</title>
<g id="a_node7"><a xlink:href="https://www.google.com/search?q=Betty%20Leedes%20%28netkeiba%20OR%20wikipedia%29" xlink:title="Betty Leedes">
<polygon fill="lightcoral" stroke="lightcoral" points="407.12,-254.5 310.12,-254.5 310.12,-231.5 407.12,-231.5 407.12,-254.5"/>
<text text-anchor="middle" x="358.62" y="-237.2" font-family="MS Gothic" font-size="14.00">Betty Leedes</text>
</a>
</g>
</g>
<!-- Betty Leedes_1_1&#45;&gt;Bartlet&#39;s Childers_0_1 -->
<g id="edge6" class="edge">
<title>Betty Leedes_1_1&#45;&gt;Bartlet&#39;s Childers_0_1</title>
<path fill="none" stroke="lightcoral" stroke-width="5" d="M353.65,-231.27C337.77,-196.99 287.91,-89.4 264.72,-39.34"/>
<polygon fill="lightcoral" stroke="lightcoral" stroke-width="5" points="268.76,-37.65 260.58,-30.42 260.82,-41.33 268.76,-37.65"/>
</g>
<!-- Old Careless_2_1 -->
<g id="node8" class="node">
<title>Old Careless_2_1</title>
<g id="a_node8"><a xlink:href="https://www.google.com/search?q=Old%20Careless%20%28netkeiba%20OR%20wikipedia%29" xlink:title="Old Careless">
<polygon fill="lightblue" stroke="lightblue" points="407.12,-484.5 310.12,-484.5 310.12,-461.5 407.12,-461.5 407.12,-484.5"/>
<text text-anchor="middle" x="358.62" y="-467.2" font-family="MS Gothic" font-size="14.00">Old Careless</text>
</a>
</g>
</g>
<!-- Old Careless_2_1&#45;&gt;Betty Leedes_1_1 -->
<g id="edge7" class="edge">
<title>Old Careless_2_1&#45;&gt;Betty Leedes_1_1</title>
<path fill="none" stroke="lightblue" stroke-width="5" d="M358.62,-461C358.62,-426.7 358.62,-320.94 358.62,-270.84"/>
<polygon fill="lightblue" stroke="lightblue" stroke-width="5" points="363,-271.12 358.63,-261.12 354.25,-271.12 363,-271.12"/>
</g>
<!-- Spanker_3_1 -->
<g id="node9" class="node">
<title>Spanker_3_1</title>
<g id="a_node9"><a xlink:href="https://www.google.com/search?q=Spanker%20%28netkeiba%20OR%20wikipedia%29" xlink:title="Spanker">
<polygon fill="lightblue" stroke="lightblue" points="348.25,-687.5 285,-687.5 285,-664.5 348.25,-664.5 348.25,-687.5"/>
<text text-anchor="middle" x="316.62" y="-670.2" font-family="MS Gothic" font-size="14.00">Spanker</text>
</a>
</g>
</g>
<!-- Spanker_3_1&#45;&gt;Old Careless_2_1 -->
<g id="edge8" class="edge">
<title>Spanker_3_1&#45;&gt;Old Careless_2_1</title>
<path fill="none" stroke="lightblue" stroke-width="5" d="M318.88,-664.19C325.29,-633.52 343.74,-545.25 353.07,-500.58"/>
<polygon fill="lightblue" stroke="lightblue" stroke-width="5" points="357.32,-501.65 355.08,-490.97 348.75,-499.86 357.32,-501.65"/>
</g>
<!-- D&#39;Arcy&#39;s Yellow Turk_4_1 -->
<g id="node10" class="node">
<title>D&#39;Arcy&#39;s Yellow Turk_4_1</title>
<g id="a_node10"><a xlink:href="https://www.google.com/search?q=D%27Arcy%27s%20Yellow%20Turk%20%28netkeiba%20OR%20wikipedia%29" xlink:title="D&#39;Arcy&#39;s Yellow Turk">
<polygon fill="lightblue" stroke="lightblue" points="240.12,-890.5 89.12,-890.5 89.12,-867.5 240.12,-867.5 240.12,-890.5"/>
<text text-anchor="middle" x="164.62" y="-873.2" font-family="MS Gothic" font-size="14.00">D&#39;Arcy&#39;s Yellow Turk</text>
</a>
</g>
</g>
<!-- D&#39;Arcy&#39;s Yellow Turk_4_1&#45;&gt;Spanker_3_1 -->
<g id="edge9" class="edge">
<title>D&#39;Arcy&#39;s Yellow Turk_4_1&#45;&gt;Spanker_3_1</title>
<path fill="none" stroke="lightblue" stroke-width="5" d="M172.8,-867.19C196.51,-835.84 265.73,-744.3 298.73,-700.67"/>
<polygon fill="lightblue" stroke="lightblue" stroke-width="5" points="302.11,-703.45 304.65,-692.83 295.13,-698.17 302.11,-703.45"/>
</g>
<!-- unknown_5_5 -->
<g id="node11" class="node">
<title>unknown_5_5</title>
<g id="a_node11"><a xlink:href="https://www.google.com/search?q=unknown%20%28netkeiba%20OR%20wikipedia%29" xlink:title="unknown">
<polygon fill="lightcoral" stroke="lightcoral" points="133.25,-1093.5 70,-1093.5 70,-1070.5 133.25,-1070.5 133.25,-1093.5"/>
<text text-anchor="middle" x="101.62" y="-1076.2" font-family="MS Gothic" font-size="14.00">unknown</text>
</a>
</g>
</g>
<!-- unknown_5_5&#45;&gt;D&#39;Arcy&#39;s Yellow Turk_4_1 -->
<g id="edge10" class="edge">
<title>unknown_5_5&#45;&gt;D&#39;Arcy&#39;s Yellow Turk_4_1</title>
<path fill="none" stroke="lightblue" stroke-width="5" d="M105.01,-1070.19C114.65,-1039.45 142.42,-950.86 156.39,-906.28"/>
<polygon fill="lightblue" stroke="lightblue" stroke-width="5" points="160.54,-907.66 159.36,-896.81 152.19,-905.05 160.54,-907.66"/>
</g>
<!-- Old Morocco Mare_4_1 -->
<g id="node12" class="node">
<title>Old Morocco Mare_4_1</title>
<g id="a_node12"><a xlink:href="https://www.google.com/search?q=Old%20Morocco%20Mare%20%28netkeiba%20OR%20wikipedia%29" xlink:title="Old Morocco Mare">
<polygon fill="lightcoral" stroke="lightcoral" points="378.62,-890.5 254.62,-890.5 254.62,-867.5 378.62,-867.5 378.62,-890.5"/>
<text text-anchor="middle" x="316.62" y="-873.2" font-family="MS Gothic" font-size="14.00">Old Morocco Mare</text>
</a>
</g>
</g>
<!-- Old Morocco Mare_4_1&#45;&gt;Spanker_3_1 -->
<g id="edge11" class="edge">
<title>Old Morocco Mare_4_1&#45;&gt;Spanker_3_1</title>
<path fill="none" stroke="lightcoral" stroke-width="5" d="M316.62,-867.19C316.62,-836.59 316.62,-748.64 316.62,-703.88"/>
<polygon fill="lightcoral" stroke="lightcoral" stroke-width="5" points="321,-704.1 316.63,-694.1 312.25,-704.1 321,-704.1"/>
</g>
<!-- Fairfax Morocco Barb_5_1 -->
<g id="node13" class="node">
<title>Fairfax Morocco Barb_5_1</title>
<g id="a_node13"><a xlink:href="https://www.google.com/search?q=Fairfax%20Morocco%20Barb%20%28netkeiba%20OR%20wikipedia%29" xlink:title="Fairfax Morocco Barb">
<polygon fill="lightblue" stroke="lightblue" points="291.12,-1093.5 140.12,-1093.5 140.12,-1070.5 291.12,-1070.5 291.12,-1093.5"/>
<text text-anchor="middle" x="215.62" y="-1076.2" font-family="MS Gothic" font-size="14.00">Fairfax Morocco Barb</text>
</a>
</g>
</g>
<!-- Fairfax Morocco Barb_5_1&#45;&gt;Old Morocco Mare_4_1 -->
<g id="edge12" class="edge">
<title>Fairfax Morocco Barb_5_1&#45;&gt;Old Morocco Mare_4_1</title>
<path fill="none" stroke="lightblue" stroke-width="5" d="M221.06,-1070.19C236.64,-1039.18 281.81,-949.28 304.01,-905.11"/>
<polygon fill="lightblue" stroke="lightblue" stroke-width="5" points="307.79,-907.33 308.37,-896.43 299.97,-903.4 307.79,-907.33"/>
</g>
<!-- Old Bald Peg_5_1 -->
<g id="node14" class="node">
<title>Old Bald Peg_5_1</title>
<g id="a_node14"><a xlink:href="https://www.google.com/search?q=Old%20Bald%20Peg%20%28netkeiba%20OR%20wikipedia%29" xlink:title="Old Bald Peg">
<polygon fill="lightcoral" stroke="lightcoral" points="395.12,-1093.5 298.12,-1093.5 298.12,-1070.5 395.12,-1070.5 395.12,-1093.5"/>
<text text-anchor="middle" x="346.62" y="-1076.2" font-family="MS Gothic" font-size="14.00">Old Bald Peg</text>
</a>
</g>
</g>
<!-- Old Bald Peg_5_1&#45;&gt;Old Morocco Mare_4_1 -->
<g id="edge13" class="edge">
<title>Old Bald Peg_5_1&#45;&gt;Old Morocco Mare_4_1</title>
<path fill="none" stroke="lightcoral" stroke-width="5" d="M345.01,-1070.19C340.44,-1039.59 327.32,-951.64 320.64,-906.88"/>
<polygon fill="lightcoral" stroke="lightcoral" stroke-width="5" points="324.97,-906.27 319.17,-897.03 316.32,-907.57 324.97,-906.27"/>
</g>
<!-- unknown_3_6 -->
<g id="node15" class="node">
<title>unknown_3_6</title>
<g id="a_node15"><a xlink:href="https://www.google.com/search?q=unknown%20%28netkeiba%20OR%20wikipedia%29" xlink:title="unknown">
<polygon fill="lightcoral" stroke="lightcoral" points="436.25,-687.5 373,-687.5 373,-664.5 436.25,-664.5 436.25,-687.5"/>
<text text-anchor="middle" x="404.62" y="-670.2" font-family="MS Gothic" font-size="14.00">unknown</text>
</a>
</g>
</g>
<!-- unknown_3_6&#45;&gt;Old Careless_2_1 -->
<g id="edge14" class="edge">
<title>unknown_3_6&#45;&gt;Old Careless_2_1</title>
<path fill="none" stroke="lightcoral" stroke-width="5" d="M402.15,-664.19C395.13,-633.52 374.93,-545.25 364.71,-500.58"/>
<polygon fill="lightcoral" stroke="lightcoral" stroke-width="5" points="369,-499.71 362.5,-490.94 360.47,-501.66 369,-499.71"/>
</g>
<!-- unknown_4_7 -->
<g id="node16" class="node">
<title>unknown_4_7</title>
<g id="a_node16"><a xlink:href="https://www.google.com/search?q=unknown%20%28netkeiba%20OR%20wikipedia%29" xlink:title="unknown">
<polygon fill="lightcoral" stroke="lightcoral" points="453.25,-890.5 390,-890.5 390,-867.5 453.25,-867.5 453.25,-890.5"/>
<text text-anchor="middle" x="421.62" y="-873.2" font-family="MS Gothic" font-size="14.00">unknown</text>
</a>
</g>
</g>
<!-- unknown_4_7&#45;&gt;unknown_3_6 -->
<g id="edge15" class="edge">
<title>unknown_4_7&#45;&gt;unknown_3_6</title>
<path fill="none" stroke="lightblue" stroke-width="5" d="M420.71,-867.19C418.12,-836.59 410.68,-748.64 406.9,-703.88"/>
<polygon fill="lightblue" stroke="lightblue" stroke-width="5" points="411.27,-703.67 406.07,-694.08 402.55,-704.41 411.27,-703.67"/>
</g>
<!-- unknown_5_8 -->
<g id="node17" class="node">
<title>unknown_5_8</title>
<g id="a_node17"><a xlink:href="https://www.google.com/search?q=unknown%20%28netkeiba%20OR%20wikipedia%29" xlink:title="unknown">
<polygon fill="lightcoral" stroke="lightcoral" points="465.25,-1093.5 402,-1093.5 402,-1070.5 465.25,-1070.5 465.25,-1093.5"/>
<text text-anchor="middle" x="433.62" y="-1076.2" font-family="MS Gothic" font-size="14.00">unknown</text>
</a>
</g>
</g>
<!-- unknown_5_8&#45;&gt;unknown_4_7 -->
<g id="edge16" class="edge">
<title>unknown_5_8&#45;&gt;unknown_4_7</title>
<path fill="none" stroke="lightblue" stroke-width="5" d="M432.98,-1070.19C431.15,-1039.59 425.9,-951.64 423.23,-906.88"/>
<polygon fill="lightblue" stroke="lightblue" stroke-width="5" points="427.61,-906.81 422.65,-897.09 418.87,-907.33 427.61,-906.81"/>
</g>
<!-- Cream Cheeks_2_1 -->
<g id="node18" class="node">
<title>Cream Cheeks_2_1</title>
<g id="a_node18"><a xlink:href="https://www.google.com/search?q=Cream%20Cheeks%20%28netkeiba%20OR%20wikipedia%29" xlink:title="Cream Cheeks">
<polygon fill="lightcoral" stroke="lightcoral" points="552.12,-484.5 455.12,-484.5 455.12,-461.5 552.12,-461.5 552.12,-484.5"/>
<text text-anchor="middle" x="503.62" y="-467.2" font-family="MS Gothic" font-size="14.00">Cream Cheeks</text>
</a>
</g>
</g>
<!-- Cream Cheeks_2_1&#45;&gt;Betty Leedes_1_1 -->
<g id="edge17" class="edge">
<title>Cream Cheeks_2_1&#45;&gt;Betty Leedes_1_1</title>
<path fill="none" stroke="lightcoral" stroke-width="5" d="M496.63,-461C474.48,-426.17 405.47,-317.67 374.25,-268.57"/>
<polygon fill="lightcoral" stroke="lightcoral" stroke-width="5" points="377.95,-266.24 368.9,-260.15 370.57,-270.94 377.95,-266.24"/>
</g>
<!-- Leedes Arabian_3_1 -->
<g id="node19" class="node">
<title>Leedes Arabian_3_1</title>
<g id="a_node19"><a xlink:href="https://www.google.com/search?q=Leedes%20Arabian%20%28netkeiba%20OR%20wikipedia%29" xlink:title="Leedes Arabian">
<polygon fill="lightblue" stroke="lightblue" points="558.88,-687.5 448.38,-687.5 448.38,-664.5 558.88,-664.5 558.88,-687.5"/>
<text text-anchor="middle" x="503.62" y="-670.2" font-family="MS Gothic" font-size="14.00">Leedes Arabian</text>
</a>
</g>
</g>
<!-- Leedes Arabian_3_1&#45;&gt;Cream Cheeks_2_1 -->
<g id="edge18" class="edge">
<title>Leedes Arabian_3_1&#45;&gt;Cream Cheeks_2_1</title>
<path fill="none" stroke="lightblue" stroke-width="5" d="M503.62,-664.19C503.62,-633.59 503.62,-545.64 503.62,-500.88"/>
<polygon fill="lightblue" stroke="lightblue" stroke-width="5" points="508,-501.1 503.63,-491.1 499.25,-501.1 508,-501.1"/>
</g>
<!-- unknown_4_9 -->
<g id="node20" class="node">
<title>unknown_4_9</title>
<g id="a_node20"><a xlink:href="https://www.google.com/search?q=unknown%20%28netkeiba%20OR%20wikipedia%29" xlink:title="unknown">
<polygon fill="lightcoral" stroke="lightcoral" points="535.25,-890.5 472,-890.5 472,-867.5 535.25,-867.5 535.25,-890.5"/>
<text text-anchor="middle" x="503.62" y="-873.2" font-family="MS Gothic" font-size="14.00">unknown</text>
</a>
</g>
</g>
<!-- unknown_4_9&#45;&gt;Leedes Arabian_3_1 -->
<g id="edge19" class="edge">
<title>unknown_4_9&#45;&gt;Leedes Arabian_3_1</title>
<path fill="none" stroke="lightblue" stroke-width="5" d="M503.62,-867.19C503.62,-836.59 503.62,-748.64 503.62,-703.88"/>
<polygon fill="lightblue" stroke="lightblue" stroke-width="5" points="508,-704.1 503.63,-694.1 499.25,-704.1 508,-704.1"/>
</g>
<!-- unknown_5_10 -->
<g id="node21" class="node">
<title>unknown_5_10</title>
<g id="a_node21"><a xlink:href="https://www.google.com/search?q=unknown%20%28netkeiba%20OR%20wikipedia%29" xlink:title="unknown">
<polygon fill="lightcoral" stroke="lightcoral" points="535.25,-1093.5 472,-1093.5 472,-1070.5 535.25,-1070.5 535.25,-1093.5"/>
<text text-anchor="middle" x="503.62" y="-1076.2" font-family="MS Gothic" font-size="14.00">unknown</text>
</a>
</g>
</g>
<!-- unknown_5_10&#45;&gt;unknown_4_9 -->
<g id="edge20" class="edge">
<title>unknown_5_10&#45;&gt;unknown_4_9</title>
<path fill="none" stroke="lightblue" stroke-width="5" d="M503.62,-1070.19C503.62,-1039.59 503.62,-951.64 503.62,-906.88"/>
<polygon fill="lightblue" stroke="lightblue" stroke-width="5" points="508,-907.1 503.63,-897.1 499.25,-907.1 508,-907.1"/>
</g>
<!-- Spanker Mare_3_1 -->
<g id="node22" class="node">
<title>Spanker Mare_3_1</title>
<g id="a_node22"><a xlink:href="https://www.google.com/search?q=Spanker%20Mare%20%28netkeiba%20OR%20wikipedia%29" xlink:title="Spanker Mare">
<polygon fill="lightcoral" stroke="lightcoral" points="738.12,-687.5 641.12,-687.5 641.12,-664.5 738.12,-664.5 738.12,-687.5"/>
<text text-anchor="middle" x="689.62" y="-670.2" font-family="MS Gothic" font-size="14.00">Spanker Mare</text>
</a>
</g>
</g>
<!-- Spanker Mare_3_1&#45;&gt;Cream Cheeks_2_1 -->
<g id="edge21" class="edge">
<title>Spanker Mare_3_1&#45;&gt;Cream Cheeks_2_1</title>
<path fill="none" stroke="lightcoral" stroke-width="5" d="M679.62,-664.19C650.36,-632.57 564.43,-539.7 524.48,-496.54"/>
<polygon fill="lightcoral" stroke="lightcoral" stroke-width="5" points="527.91,-493.81 517.91,-489.44 521.49,-499.75 527.91,-493.81"/>
</g>
<!-- Spanker_4_2 -->
<g id="node23" class="node">
<title>Spanker_4_2</title>
<g id="a_node23"><a xlink:href="https://www.google.com/search?q=Spanker%20%28netkeiba%20OR%20wikipedia%29" xlink:title="Spanker">
<polygon fill="lightblue" stroke="lightblue" points="721.25,-890.5 658,-890.5 658,-867.5 721.25,-867.5 721.25,-890.5"/>
<text text-anchor="middle" x="689.62" y="-873.2" font-family="MS Gothic" font-size="14.00">Spanker</text>
</a>
</g>
</g>
<!-- Spanker_4_2&#45;&gt;Spanker Mare_3_1 -->
<g id="edge22" class="edge">
<title>Spanker_4_2&#45;&gt;Spanker Mare_3_1</title>
<path fill="none" stroke="lightblue" stroke-width="5" d="M689.62,-867.19C689.62,-836.59 689.62,-748.64 689.62,-703.88"/>
<polygon fill="lightblue" stroke="lightblue" stroke-width="5" points="694,-704.1 689.63,-694.1 685.25,-704.1 694,-704.1"/>
</g>
<!-- D&#39;Arcy&#39;s Yellow Turk_5_2 -->
<g id="node24" class="node">
<title>D&#39;Arcy&#39;s Yellow Turk_5_2</title>
<g id="a_node24"><a xlink:href="https://www.google.com/search?q=D%27Arcy%27s%20Yellow%20Turk%20%28netkeiba%20OR%20wikipedia%29" xlink:title="D&#39;Arcy&#39;s Yellow Turk">
<polygon fill="lightblue" stroke="lightblue" points="693.12,-1093.5 542.12,-1093.5 542.12,-1070.5 693.12,-1070.5 693.12,-1093.5"/>
<text text-anchor="middle" x="617.62" y="-1076.2" font-family="MS Gothic" font-size="14.00">D&#39;Arcy&#39;s Yellow Turk</text>
</a>
</g>
</g>
<!-- D&#39;Arcy&#39;s Yellow Turk_5_2&#45;&gt;Spanker_4_2 -->
<g id="edge23" class="edge">
<title>D&#39;Arcy&#39;s Yellow Turk_5_2&#45;&gt;Spanker_4_2</title>
<path fill="none" stroke="lightblue" stroke-width="5" d="M621.5,-1070.19C632.53,-1039.38 664.38,-950.47 680.32,-905.99"/>
<polygon fill="lightblue" stroke="lightblue" stroke-width="5" points="684.38,-907.62 683.63,-896.73 676.14,-904.67 684.38,-907.62"/>
</g>
<!-- Old Morocco Mare_5_2 -->
<g id="node25" class="node">
<title>Old Morocco Mare_5_2</title>
<g id="a_node25"><a xlink:href="https://www.google.com/search?q=Old%20Morocco%20Mare%20%28netkeiba%20OR%20wikipedia%29" xlink:title="Old Morocco Mare">
<polygon fill="lightcoral" stroke="lightcoral" points="824.62,-1093.5 700.62,-1093.5 700.62,-1070.5 824.62,-1070.5 824.62,-1093.5"/>
<text text-anchor="middle" x="762.62" y="-1076.2" font-family="MS Gothic" font-size="14.00">Old Morocco Mare</text>
</a>
</g>
</g>
<!-- Old Morocco Mare_5_2&#45;&gt;Spanker_4_2 -->
<g id="edge24" class="edge">
<title>Old Morocco Mare_5_2&#45;&gt;Spanker_4_2</title>
<path fill="none" stroke="lightcoral" stroke-width="5" d="M758.7,-1070.19C747.51,-1039.38 715.22,-950.47 699.06,-905.99"/>
<polygon fill="lightcoral" stroke="lightcoral" stroke-width="5" points="703.22,-904.63 695.7,-896.72 695,-907.62 703.22,-904.63"/>
</g>
<!-- Old Morocco Mare_4_3 -->
<g id="node26" class="node">
<title>Old Morocco Mare_4_3</title>
<g id="a_node26"><a xlink:href="https://www.google.com/search?q=Old%20Morocco%20Mare%20%28netkeiba%20OR%20wikipedia%29" xlink:title="Old Morocco Mare">
<polygon fill="lightcoral" stroke="lightcoral" points="969.62,-890.5 845.62,-890.5 845.62,-867.5 969.62,-867.5 969.62,-890.5"/>
<text text-anchor="middle" x="907.62" y="-873.2" font-family="MS Gothic" font-size="14.00">Old Morocco Mare</text>
</a>
</g>
</g>
<!-- Old Morocco Mare_4_3&#45;&gt;Spanker Mare_3_1 -->
<g id="edge25" class="edge">
<title>Old Morocco Mare_4_3&#45;&gt;Spanker Mare_3_1</title>
<path fill="none" stroke="lightcoral" stroke-width="5" d="M895.9,-867.19C861.38,-835.36 759.58,-741.5 713.17,-698.71"/>
<polygon fill="lightcoral" stroke="lightcoral" stroke-width="5" points="716.31,-695.65 705.99,-692.09 710.38,-702.08 716.31,-695.65"/>
</g>
<!-- Fairfax Morocco Barb_5_2 -->
<g id="node27" class="node">
<title>Fairfax Morocco Barb_5_2</title>
<g id="a_node27"><a xlink:href="https://www.google.com/search?q=Fairfax%20Morocco%20Barb%20%28netkeiba%20OR%20wikipedia%29" xlink:title="Fairfax Morocco Barb">
<polygon fill="lightblue" stroke="lightblue" points="983.12,-1093.5 832.12,-1093.5 832.12,-1070.5 983.12,-1070.5 983.12,-1093.5"/>
<text text-anchor="middle" x="907.62" y="-1076.2" font-family="MS Gothic" font-size="14.00">Fairfax Morocco Barb</text>
</a>
</g>
</g>
<!-- Fairfax Morocco Barb_5_2&#45;&gt;Old Morocco Mare_4_3 -->
<g id="edge26" class="edge">
<title>Fairfax Morocco Barb_5_2&#45;&gt;Old Morocco Mare_4_3</title>
<path fill="none" stroke="lightblue" stroke-width="5" d="M907.62,-1070.19C907.62,-1039.59 907.62,-951.64 907.62,-906.88"/>
<polygon fill="lightblue" stroke="lightblue" stroke-width="5" points="912,-907.1 907.63,-897.1 903.25,-907.1 912,-907.1"/>
</g>
<!-- Old Bald Peg_5_2 -->
<g id="node28" class="node">
<title>Old Bald Peg_5_2</title>
<g id="a_node28"><a xlink:href="https://www.google.com/search?q=Old%20Bald%20Peg%20%28netkeiba%20OR%20wikipedia%29" xlink:title="Old Bald Peg">
<polygon fill="lightcoral" stroke="lightcoral" points="1087.12,-1093.5 990.12,-1093.5 990.12,-1070.5 1087.12,-1070.5 1087.12,-1093.5"/>
<text text-anchor="middle" x="1038.62" y="-1076.2" font-family="MS Gothic" font-size="14.00">Old Bald Peg</text>
</a>
</g>
</g>
<!-- Old Bald Peg_5_2&#45;&gt;Old Morocco Mare_4_3 -->
<g id="edge27" class="edge">
<title>Old Bald Peg_5_2&#45;&gt;Old Morocco Mare_4_3</title>
<path fill="none" stroke="lightcoral" stroke-width="5" d="M1031.58,-1070.19C1011.23,-1038.97 952.01,-948.1 923.42,-904.24"/>
<polygon fill="lightcoral" stroke="lightcoral" stroke-width="5" points="927.23,-902.07 918.11,-896.09 919.9,-906.85 927.23,-902.07"/>
</g>
</g>
</svg>
