<?xml version="1.0" encoding="UTF-8" standalone="no"?>
<!DOCTYPE svg PUBLIC "-//W3C//DTD SVG 1.1//EN"
 "http://www.w3.org/Graphics/SVG/1.1/DTD/svg11.dtd">
<!-- Generated by graphviz version 12.1.2 (20240928.0832)
 -->
<!-- Pages: 1 -->
<svg width="325pt" height="311pt"
 viewBox="0.00 0.00 324.62 311.00" xmlns="http://www.w3.org/2000/svg" xmlns:xlink="http://www.w3.org/1999/xlink">
<g id="graph0" class="graph" transform="scale(1 1) rotate(0) translate(4 307)">
<polygon fill="white" stroke="none" points="-4,4 -4,-307 320.62,-307 320.62,4 -4,4"/>
<!-- Bartlet&#39;s Childers -->
<g id="node1" class="node">
<title>Bartlet&#39;s Childers</title>
<polygon fill="none" stroke="black" points="196,-77 86.25,-77 86.25,0 196,0 196,-77"/>
<image xlink:href="img/mob.png" width="100px" height="77px" preserveAspectRatio="xMinYMin meet" x="91.125" y="-77"/>
<text text-anchor="middle" x="141.12" y="-33.45" font-family="Times New Roman,serif" font-size="14.00">Bartlet&#39;s Childers</text>
</g>
<!-- ダーレーアラビアン -->
<g id="node2" class="node">
<title>ダーレーアラビアン</title>
<polygon fill="lightblue" stroke="lightblue" points="144.25,-190 0,-190 0,-113 144.25,-113 144.25,-190"/>
<image xlink:href="img/darearabian.png" width="100px" height="77px" preserveAspectRatio="xMinYMin meet" x="22.125" y="-190"/>
<text text-anchor="middle" x="72.12" y="-145.7" font-family="MS Gothic" font-size="14.00">ダーレーアラビアン</text>
</g>
<!-- ダーレーアラビアン&#45;&gt;Bartlet&#39;s Childers -->
<g id="edge1" class="edge">
<title>ダーレーアラビアン&#45;&gt;Bartlet&#39;s Childers</title>
<path fill="none" stroke="black" d="M95.68,-112.61C100.84,-104.31 106.37,-95.41 111.73,-86.79"/>
<polygon fill="black" stroke="black" points="114.57,-88.84 116.88,-78.5 108.63,-85.15 114.57,-88.84"/>
</g>
<!-- Betty Leedes -->
<g id="node3" class="node">
<title>Betty Leedes</title>
<polygon fill="lightcoral" stroke="lightcoral" points="259.62,-190 162.62,-190 162.62,-113 259.62,-113 259.62,-190"/>
<image xlink:href="img/mob.png" width="97px" height="77px" preserveAspectRatio="xMinYMin meet" x="162.625" y="-190"/>
<text text-anchor="middle" x="211.12" y="-145.7" font-family="MS Gothic" font-size="14.00">Betty Leedes</text>
</g>
<!-- Betty Leedes&#45;&gt;Bartlet&#39;s Childers -->
<g id="edge2" class="edge">
<title>Betty Leedes&#45;&gt;Bartlet&#39;s Childers</title>
<path fill="none" stroke="black" d="M187.23,-112.61C181.99,-104.31 176.39,-95.41 170.95,-86.79"/>
<polygon fill="black" stroke="black" points="174.01,-85.09 165.72,-78.5 168.09,-88.82 174.01,-85.09"/>
</g>
<!-- Old Careless -->
<g id="node4" class="node">
<title>Old Careless</title>
<polygon fill="lightblue" stroke="lightblue" points="201.62,-303 104.62,-303 104.62,-226 201.62,-226 201.62,-303"/>
<image xlink:href="img/mob.png" width="97px" height="77px" preserveAspectRatio="xMinYMin meet" x="104.625" y="-303"/>
<text text-anchor="middle" x="153.12" y="-258.7" font-family="MS Gothic" font-size="14.00">Old Careless</text>
</g>
<!-- Old Careless&#45;&gt;Betty Leedes -->
<g id="edge3" class="edge">
<title>Old Careless&#45;&gt;Betty Leedes</title>
<path fill="none" stroke="black" d="M172.92,-225.61C177.17,-217.48 181.71,-208.8 186.12,-200.35"/>
<polygon fill="black" stroke="black" points="189.19,-202.04 190.72,-191.56 182.98,-198.8 189.19,-202.04"/>
</g>
<!-- Cream Cheeks -->
<g id="node5" class="node">
<title>Cream Cheeks</title>
<polygon fill="lightcoral" stroke="lightcoral" points="316.62,-303 219.62,-303 219.62,-226 316.62,-226 316.62,-303"/>
<image xlink:href="img/mob.png" width="97px" height="77px" preserveAspectRatio="xMinYMin meet" x="219.625" y="-303"/>
<text text-anchor="middle" x="268.12" y="-258.7" font-family="MS Gothic" font-size="14.00">Cream Cheeks</text>
</g>
<!-- Cream Cheeks&#45;&gt;Betty Leedes -->
<g id="edge4" class="edge">
<title>Cream Cheeks&#45;&gt;Betty Leedes</title>
<path fill="none" stroke="black" d="M248.67,-225.61C244.5,-217.48 240.03,-208.8 235.7,-200.35"/>
<polygon fill="black" stroke="black" points="238.87,-198.86 231.19,-191.57 232.64,-202.06 238.87,-198.86"/>
</g>
</g>
</svg>
