<?xml version="1.0" encoding="UTF-8" standalone="no"?>
<!DOCTYPE svg PUBLIC "-//W3C//DTD SVG 1.1//EN"
 "http://www.w3.org/Graphics/SVG/1.1/DTD/svg11.dtd">
<!-- Generated by graphviz version 12.1.2 (20240928.0832)
 -->
<!-- Pages: 1 -->
<svg width="1151pt" height="1370pt"
 viewBox="0.00 0.00 1151.00 1370.00" xmlns="http://www.w3.org/2000/svg" xmlns:xlink="http://www.w3.org/1999/xlink">
<g id="graph0" class="graph" transform="scale(1 1) rotate(0) translate(4 1366)">
<!-- Bartlet&#39;s Childers_0_1 -->
<g id="node1" class="node">
<title>Bartlet&#39;s Childers_0_1</title>
<g id="a_node1"><a xlink:href="https://www.google.com/search?q=Bartlet%27s%20Childers%20%28netkeiba%20OR%20wikipedia%29" xlink:title="Bartlet&#39;s Childers">
<polygon fill="none" stroke="black" points="345.38,-77 235.62,-77 235.62,0 345.38,0 345.38,-77"/>
<image xlink:href="img/mob.png" width="100px" height="77px" preserveAspectRatio="xMinYMin meet" x="240.5" y="-77"/>
<text text-anchor="middle" x="290.5" y="-33.45" font-family="Times New Roman,serif" font-size="14.00">Bartlet&#39;s Childers</text>
</a>
</g>
</g>
<!-- Darley Arabian_1_1 -->
<g id="node2" class="node">
<title>Darley Arabian_1_1</title>
<g id="a_node2"><a xlink:href="https://www.google.com/search?q=Darley%20Arabian%20%28netkeiba%20OR%20wikipedia%29" xlink:title="Darley Arabian">
<polygon fill="lightblue" stroke="lightblue" points="290.75,-334 180.25,-334 180.25,-257 290.75,-257 290.75,-334"/>
<image xlink:href="img/mob.png" width="100px" height="77px" preserveAspectRatio="xMinYMin meet" x="185.5" y="-334"/>
<text text-anchor="middle" x="235.5" y="-289.7" font-family="MS Gothic" font-size="14.00">Darley Arabian</text>
</a>
</g>
</g>
<!-- Darley Arabian_1_1&#45;&gt;Bartlet&#39;s Childers_0_1 -->
<g id="edge1" class="edge">
<title>Darley Arabian_1_1&#45;&gt;Bartlet&#39;s Childers_0_1</title>
<path fill="none" stroke="lightblue" stroke-width="5" d="M243.67,-256.6C253.03,-213.22 268.42,-141.86 278.99,-92.88"/>
<polygon fill="lightblue" stroke="lightblue" stroke-width="5" points="283.22,-93.99 281.06,-83.29 274.67,-92.14 283.22,-93.99"/>
</g>
<!-- unknown_2_1 -->
<g id="node3" class="node">
<title>unknown_2_1</title>
<g id="a_node3"><a xlink:href="https://www.google.com/search?q=unknown%20%28netkeiba%20OR%20wikipedia%29" xlink:title="unknown">
<polygon fill="lightcoral" stroke="lightcoral" points="222,-591 145,-591 145,-514 222,-514 222,-591"/>
<image xlink:href="img/mob.png" width="77px" height="77px" preserveAspectRatio="xMinYMin meet" x="145" y="-591"/>
<text text-anchor="middle" x="183.5" y="-546.7" font-family="MS Gothic" font-size="14.00">unknown</text>
</a>
</g>
</g>
<!-- unknown_2_1&#45;&gt;Darley Arabian_1_1 -->
<g id="edge2" class="edge">
<title>unknown_2_1&#45;&gt;Darley Arabian_1_1</title>
<path fill="none" stroke="lightblue" stroke-width="5" d="M191.23,-513.6C200.07,-470.22 214.63,-398.86 224.62,-349.88"/>
<polygon fill="lightblue" stroke="lightblue" stroke-width="5" points="228.86,-350.98 226.57,-340.3 220.28,-349.23 228.86,-350.98"/>
</g>
<!-- unknown_3_2 -->
<g id="node4" class="node">
<title>unknown_3_2</title>
<g id="a_node4"><a xlink:href="https://www.google.com/search?q=unknown%20%28netkeiba%20OR%20wikipedia%29" xlink:title="unknown">
<polygon fill="lightcoral" stroke="lightcoral" points="192,-848 115,-848 115,-771 192,-771 192,-848"/>
<image xlink:href="img/mob.png" width="77px" height="77px" preserveAspectRatio="xMinYMin meet" x="115" y="-848"/>
<text text-anchor="middle" x="153.5" y="-803.7" font-family="MS Gothic" font-size="14.00">unknown</text>
</a>
</g>
</g>
<!-- unknown_3_2&#45;&gt;unknown_2_1 -->
<g id="edge3" class="edge">
<title>unknown_3_2&#45;&gt;unknown_2_1</title>
<path fill="none" stroke="lightblue" stroke-width="5" d="M157.96,-770.6C163.05,-727.32 171.42,-656.17 177.18,-607.2"/>
<polygon fill="lightblue" stroke="lightblue" stroke-width="5" points="181.51,-607.83 178.34,-597.39 172.82,-606.81 181.51,-607.83"/>
</g>
<!-- unknown_4_3 -->
<g id="node5" class="node">
<title>unknown_4_3</title>
<g id="a_node5"><a xlink:href="https://www.google.com/search?q=unknown%20%28netkeiba%20OR%20wikipedia%29" xlink:title="unknown">
<polygon fill="lightcoral" stroke="lightcoral" points="83,-1105 6,-1105 6,-1028 83,-1028 83,-1105"/>
<image xlink:href="img/mob.png" width="77px" height="77px" preserveAspectRatio="xMinYMin meet" x="6" y="-1105"/>
<text text-anchor="middle" x="44.5" y="-1060.7" font-family="MS Gothic" font-size="14.00">unknown</text>
</a>
</g>
</g>
<!-- unknown_4_3&#45;&gt;unknown_3_2 -->
<g id="edge4" class="edge">
<title>unknown_4_3&#45;&gt;unknown_3_2</title>
<path fill="none" stroke="lightblue" stroke-width="5" d="M60.7,-1027.6C79.36,-983.94 110.14,-911.93 131.09,-862.92"/>
<polygon fill="lightblue" stroke="lightblue" stroke-width="5" points="135.03,-864.84 134.94,-853.93 126.98,-861.4 135.03,-864.84"/>
</g>
<!-- unknown_5_4 -->
<g id="node6" class="node">
<title>unknown_5_4</title>
<g id="a_node6"><a xlink:href="https://www.google.com/search?q=unknown%20%28netkeiba%20OR%20wikipedia%29" xlink:title="unknown">
<polygon fill="lightcoral" stroke="lightcoral" points="77,-1362 0,-1362 0,-1285 77,-1285 77,-1362"/>
<image xlink:href="img/mob.png" width="77px" height="77px" preserveAspectRatio="xMinYMin meet" x="0" y="-1362"/>
<text text-anchor="middle" x="38.5" y="-1317.7" font-family="MS Gothic" font-size="14.00">unknown</text>
</a>
</g>
</g>
<!-- unknown_5_4&#45;&gt;unknown_4_3 -->
<g id="edge5" class="edge">
<title>unknown_5_4&#45;&gt;unknown_4_3</title>
<path fill="none" stroke="lightblue" stroke-width="5" d="M39.39,-1284.6C40.41,-1241.32 42.08,-1170.17 43.24,-1121.2"/>
<polygon fill="lightblue" stroke="lightblue" stroke-width="5" points="47.6,-1121.53 43.47,-1111.43 38.86,-1121.32 47.6,-1121.53"/>
</g>
<!-- Betty Leedes_1_1 -->
<g id="node7" class="node">
<title>Betty Leedes_1_1</title>
<g id="a_node7"><a xlink:href="https://www.google.com/search?q=Betty%20Leedes%20%28netkeiba%20OR%20wikipedia%29" xlink:title="Betty Leedes">
<polygon fill="lightcoral" stroke="lightcoral" points="446,-334 349,-334 349,-257 446,-257 446,-334"/>
<image xlink:href="img/mob.png" width="97px" height="77px" preserveAspectRatio="xMinYMin meet" x="349" y="-334"/>
<text text-anchor="middle" x="397.5" y="-289.7" font-family="MS Gothic" font-size="14.00">Betty Leedes</text>
</a>
</g>
</g>
<!-- Betty Leedes_1_1&#45;&gt;Bartlet&#39;s Childers_0_1 -->
<g id="edge6" class="edge">
<title>Betty Leedes_1_1&#45;&gt;Bartlet&#39;s Childers_0_1</title>
<path fill="none" stroke="lightcoral" stroke-width="5" d="M381.6,-256.6C363.28,-212.94 333.06,-140.93 312.5,-91.92"/>
<polygon fill="lightcoral" stroke="lightcoral" stroke-width="5" points="316.63,-90.47 308.73,-82.94 308.56,-93.86 316.63,-90.47"/>
</g>
<!-- Old Careless_2_1 -->
<g id="node8" class="node">
<title>Old Careless_2_1</title>
<g id="a_node8"><a xlink:href="https://www.google.com/search?q=Old%20Careless%20%28netkeiba%20OR%20wikipedia%29" xlink:title="Old Careless">
<polygon fill="lightblue" stroke="lightblue" points="446,-591 349,-591 349,-514 446,-514 446,-591"/>
<image xlink:href="img/mob.png" width="97px" height="77px" preserveAspectRatio="xMinYMin meet" x="349" y="-591"/>
<text text-anchor="middle" x="397.5" y="-546.7" font-family="MS Gothic" font-size="14.00">Old Careless</text>
</a>
</g>
</g>
<!-- Old Careless_2_1&#45;&gt;Betty Leedes_1_1 -->
<g id="edge7" class="edge">
<title>Old Careless_2_1&#45;&gt;Betty Leedes_1_1</title>
<path fill="none" stroke="lightblue" stroke-width="5" d="M397.5,-513.6C397.5,-470.32 397.5,-399.17 397.5,-350.2"/>
<polygon fill="lightblue" stroke="lightblue" stroke-width="5" points="401.88,-350.43 397.5,-340.43 393.13,-350.43 401.88,-350.43"/>
</g>
<!-- Spanker_3_1 -->
<g id="node9" class="node">
<title>Spanker_3_1</title>
<g id="a_node9"><a xlink:href="https://www.google.com/search?q=Spanker%20%28netkeiba%20OR%20wikipedia%29" xlink:title="Spanker">
<polygon fill="lightblue" stroke="lightblue" points="385,-848 308,-848 308,-771 385,-771 385,-848"/>
<image xlink:href="img/mob.png" width="77px" height="77px" preserveAspectRatio="xMinYMin meet" x="308" y="-848"/>
<text text-anchor="middle" x="346.5" y="-803.7" font-family="MS Gothic" font-size="14.00">Spanker</text>
</a>
</g>
</g>
<!-- Spanker_3_1&#45;&gt;Old Careless_2_1 -->
<g id="edge8" class="edge">
<title>Spanker_3_1&#45;&gt;Old Careless_2_1</title>
<path fill="none" stroke="lightblue" stroke-width="5" d="M354.08,-770.6C362.76,-727.22 377.03,-655.86 386.82,-606.88"/>
<polygon fill="lightblue" stroke="lightblue" stroke-width="5" points="391.07,-607.97 388.74,-597.31 382.49,-606.26 391.07,-607.97"/>
</g>
<!-- D&#39;Arcy&#39;s Yellow Turk_4_1 -->
<g id="node10" class="node">
<title>D&#39;Arcy&#39;s Yellow Turk_4_1</title>
<g id="a_node10"><a xlink:href="https://www.google.com/search?q=D%27Arcy%27s%20Yellow%20Turk%20%28netkeiba%20OR%20wikipedia%29" xlink:title="D&#39;Arcy&#39;s Yellow Turk">
<polygon fill="lightblue" stroke="lightblue" points="265,-1105 114,-1105 114,-1028 265,-1028 265,-1105"/>
<image xlink:href="img/mob.png" width="100px" height="77px" preserveAspectRatio="xMinYMin meet" x="139.5" y="-1105"/>
<text text-anchor="middle" x="189.5" y="-1060.7" font-family="MS Gothic" font-size="14.00">D&#39;Arcy&#39;s Yellow Turk</text>
</a>
</g>
</g>
<!-- D&#39;Arcy&#39;s Yellow Turk_4_1&#45;&gt;Spanker_3_1 -->
<g id="edge9" class="edge">
<title>D&#39;Arcy&#39;s Yellow Turk_4_1&#45;&gt;Spanker_3_1</title>
<path fill="none" stroke="lightblue" stroke-width="5" d="M212.83,-1027.6C239.89,-983.66 284.62,-911 314.81,-861.97"/>
<polygon fill="lightblue" stroke="lightblue" stroke-width="5" points="318.51,-864.31 320.02,-853.5 311.05,-859.73 318.51,-864.31"/>
</g>
<!-- unknown_5_5 -->
<g id="node11" class="node">
<title>unknown_5_5</title>
<g id="a_node11"><a xlink:href="https://www.google.com/search?q=unknown%20%28netkeiba%20OR%20wikipedia%29" xlink:title="unknown">
<polygon fill="lightcoral" stroke="lightcoral" points="161,-1362 84,-1362 84,-1285 161,-1285 161,-1362"/>
<image xlink:href="img/mob.png" width="77px" height="77px" preserveAspectRatio="xMinYMin meet" x="84" y="-1362"/>
<text text-anchor="middle" x="122.5" y="-1317.7" font-family="MS Gothic" font-size="14.00">unknown</text>
</a>
</g>
</g>
<!-- unknown_5_5&#45;&gt;D&#39;Arcy&#39;s Yellow Turk_4_1 -->
<g id="edge10" class="edge">
<title>unknown_5_5&#45;&gt;D&#39;Arcy&#39;s Yellow Turk_4_1</title>
<path fill="none" stroke="lightblue" stroke-width="5" d="M132.46,-1284.6C143.86,-1241.22 162.6,-1169.86 175.48,-1120.88"/>
<polygon fill="lightblue" stroke="lightblue" stroke-width="5" points="179.7,-1122.01 178.01,-1111.23 171.24,-1119.78 179.7,-1122.01"/>
</g>
<!-- Old Morocco Mare_4_1 -->
<g id="node12" class="node">
<title>Old Morocco Mare_4_1</title>
<g id="a_node12"><a xlink:href="https://www.google.com/search?q=Old%20Morocco%20Mare%20%28netkeiba%20OR%20wikipedia%29" xlink:title="Old Morocco Mare">
<polygon fill="lightcoral" stroke="lightcoral" points="408.5,-1105 284.5,-1105 284.5,-1028 408.5,-1028 408.5,-1105"/>
<image xlink:href="img/mob.png" width="100px" height="77px" preserveAspectRatio="xMinYMin meet" x="296.5" y="-1105"/>
<text text-anchor="middle" x="346.5" y="-1060.7" font-family="MS Gothic" font-size="14.00">Old Morocco Mare</text>
</a>
</g>
</g>
<!-- Old Morocco Mare_4_1&#45;&gt;Spanker_3_1 -->
<g id="edge11" class="edge">
<title>Old Morocco Mare_4_1&#45;&gt;Spanker_3_1</title>
<path fill="none" stroke="lightcoral" stroke-width="5" d="M346.5,-1027.6C346.5,-984.32 346.5,-913.17 346.5,-864.2"/>
<polygon fill="lightcoral" stroke="lightcoral" stroke-width="5" points="350.88,-864.43 346.5,-854.43 342.13,-864.43 350.88,-864.43"/>
</g>
<!-- Fairfax Morocco Barb_5_1 -->
<g id="node13" class="node">
<title>Fairfax Morocco Barb_5_1</title>
<g id="a_node13"><a xlink:href="https://www.google.com/search?q=Fairfax%20Morocco%20Barb%20%28netkeiba%20OR%20wikipedia%29" xlink:title="Fairfax Morocco Barb">
<polygon fill="lightblue" stroke="lightblue" points="319,-1362 168,-1362 168,-1285 319,-1285 319,-1362"/>
<image xlink:href="img/mob.png" width="100px" height="77px" preserveAspectRatio="xMinYMin meet" x="193.5" y="-1362"/>
<text text-anchor="middle" x="243.5" y="-1317.7" font-family="MS Gothic" font-size="14.00">Fairfax Morocco Barb</text>
</a>
</g>
</g>
<!-- Fairfax Morocco Barb_5_1&#45;&gt;Old Morocco Mare_4_1 -->
<g id="edge12" class="edge">
<title>Fairfax Morocco Barb_5_1&#45;&gt;Old Morocco Mare_4_1</title>
<path fill="none" stroke="lightblue" stroke-width="5" d="M258.81,-1284.6C276.41,-1241.03 305.4,-1169.24 325.2,-1120.24"/>
<polygon fill="lightblue" stroke="lightblue" stroke-width="5" points="329.25,-1121.89 328.94,-1110.98 321.14,-1118.61 329.25,-1121.89"/>
</g>
<!-- Old Bald Peg_5_1 -->
<g id="node14" class="node">
<title>Old Bald Peg_5_1</title>
<g id="a_node14"><a xlink:href="https://www.google.com/search?q=Old%20Bald%20Peg%20%28netkeiba%20OR%20wikipedia%29" xlink:title="Old Bald Peg">
<polygon fill="lightcoral" stroke="lightcoral" points="423,-1362 326,-1362 326,-1285 423,-1285 423,-1362"/>
<image xlink:href="img/mob.png" width="97px" height="77px" preserveAspectRatio="xMinYMin meet" x="326" y="-1362"/>
<text text-anchor="middle" x="374.5" y="-1317.7" font-family="MS Gothic" font-size="14.00">Old Bald Peg</text>
</a>
</g>
</g>
<!-- Old Bald Peg_5_1&#45;&gt;Old Morocco Mare_4_1 -->
<g id="edge13" class="edge">
<title>Old Bald Peg_5_1&#45;&gt;Old Morocco Mare_4_1</title>
<path fill="none" stroke="lightcoral" stroke-width="5" d="M370.34,-1284.6C365.59,-1241.32 357.77,-1170.17 352.4,-1121.2"/>
<polygon fill="lightcoral" stroke="lightcoral" stroke-width="5" points="356.76,-1120.86 351.32,-1111.39 348.06,-1121.81 356.76,-1120.86"/>
</g>
<!-- unknown_3_6 -->
<g id="node15" class="node">
<title>unknown_3_6</title>
<g id="a_node15"><a xlink:href="https://www.google.com/search?q=unknown%20%28netkeiba%20OR%20wikipedia%29" xlink:title="unknown">
<polygon fill="lightcoral" stroke="lightcoral" points="489,-848 412,-848 412,-771 489,-771 489,-848"/>
<image xlink:href="img/mob.png" width="77px" height="77px" preserveAspectRatio="xMinYMin meet" x="412" y="-848"/>
<text text-anchor="middle" x="450.5" y="-803.7" font-family="MS Gothic" font-size="14.00">unknown</text>
</a>
</g>
</g>
<!-- unknown_3_6&#45;&gt;Old Careless_2_1 -->
<g id="edge14" class="edge">
<title>unknown_3_6&#45;&gt;Old Careless_2_1</title>
<path fill="none" stroke="lightcoral" stroke-width="5" d="M442.62,-770.6C433.61,-727.22 418.78,-655.86 408.59,-606.88"/>
<polygon fill="lightcoral" stroke="lightcoral" stroke-width="5" points="412.92,-606.2 406.6,-597.3 404.35,-607.98 412.92,-606.2"/>
</g>
<!-- unknown_4_7 -->
<g id="node16" class="node">
<title>unknown_4_7</title>
<g id="a_node16"><a xlink:href="https://www.google.com/search?q=unknown%20%28netkeiba%20OR%20wikipedia%29" xlink:title="unknown">
<polygon fill="lightcoral" stroke="lightcoral" points="499,-1105 422,-1105 422,-1028 499,-1028 499,-1105"/>
<image xlink:href="img/mob.png" width="77px" height="77px" preserveAspectRatio="xMinYMin meet" x="422" y="-1105"/>
<text text-anchor="middle" x="460.5" y="-1060.7" font-family="MS Gothic" font-size="14.00">unknown</text>
</a>
</g>
</g>
<!-- unknown_4_7&#45;&gt;unknown_3_6 -->
<g id="edge15" class="edge">
<title>unknown_4_7&#45;&gt;unknown_3_6</title>
<path fill="none" stroke="lightblue" stroke-width="5" d="M459.01,-1027.6C457.32,-984.32 454.53,-913.17 452.61,-864.2"/>
<polygon fill="lightblue" stroke="lightblue" stroke-width="5" points="456.99,-864.25 452.22,-854.43 448.24,-864.59 456.99,-864.25"/>
</g>
<!-- unknown_5_8 -->
<g id="node17" class="node">
<title>unknown_5_8</title>
<g id="a_node17"><a xlink:href="https://www.google.com/search?q=unknown%20%28netkeiba%20OR%20wikipedia%29" xlink:title="unknown">
<polygon fill="lightcoral" stroke="lightcoral" points="507,-1362 430,-1362 430,-1285 507,-1285 507,-1362"/>
<image xlink:href="img/mob.png" width="77px" height="77px" preserveAspectRatio="xMinYMin meet" x="430" y="-1362"/>
<text text-anchor="middle" x="468.5" y="-1317.7" font-family="MS Gothic" font-size="14.00">unknown</text>
</a>
</g>
</g>
<!-- unknown_5_8&#45;&gt;unknown_4_7 -->
<g id="edge16" class="edge">
<title>unknown_5_8&#45;&gt;unknown_4_7</title>
<path fill="none" stroke="lightblue" stroke-width="5" d="M467.31,-1284.6C465.95,-1241.32 463.72,-1170.17 462.18,-1121.2"/>
<polygon fill="lightblue" stroke="lightblue" stroke-width="5" points="466.56,-1121.28 461.88,-1111.43 457.82,-1121.56 466.56,-1121.28"/>
</g>
<!-- Cream Cheeks_2_1 -->
<g id="node18" class="node">
<title>Cream Cheeks_2_1</title>
<g id="a_node18"><a xlink:href="https://www.google.com/search?q=Cream%20Cheeks%20%28netkeiba%20OR%20wikipedia%29" xlink:title="Cream Cheeks">
<polygon fill="lightcoral" stroke="lightcoral" points="601,-591 504,-591 504,-514 601,-514 601,-591"/>
<image xlink:href="img/mob.png" width="97px" height="77px" preserveAspectRatio="xMinYMin meet" x="504" y="-591"/>
<text text-anchor="middle" x="552.5" y="-546.7" font-family="MS Gothic" font-size="14.00">Cream Cheeks</text>
</a>
</g>
</g>
<!-- Cream Cheeks_2_1&#45;&gt;Betty Leedes_1_1 -->
<g id="edge17" class="edge">
<title>Cream Cheeks_2_1&#45;&gt;Betty Leedes_1_1</title>
<path fill="none" stroke="lightcoral" stroke-width="5" d="M529.46,-513.6C502.75,-469.66 458.59,-397 428.79,-347.97"/>
<polygon fill="lightcoral" stroke="lightcoral" stroke-width="5" points="432.58,-345.8 423.65,-339.52 425.11,-350.34 432.58,-345.8"/>
</g>
<!-- Leedes Arabian_3_1 -->
<g id="node19" class="node">
<title>Leedes Arabian_3_1</title>
<g id="a_node19"><a xlink:href="https://www.google.com/search?q=Leedes%20Arabian%20%28netkeiba%20OR%20wikipedia%29" xlink:title="Leedes Arabian">
<polygon fill="lightblue" stroke="lightblue" points="607.75,-848 497.25,-848 497.25,-771 607.75,-771 607.75,-848"/>
<image xlink:href="img/mob.png" width="100px" height="77px" preserveAspectRatio="xMinYMin meet" x="502.5" y="-848"/>
<text text-anchor="middle" x="552.5" y="-803.7" font-family="MS Gothic" font-size="14.00">Leedes Arabian</text>
</a>
</g>
</g>
<!-- Leedes Arabian_3_1&#45;&gt;Cream Cheeks_2_1 -->
<g id="edge18" class="edge">
<title>Leedes Arabian_3_1&#45;&gt;Cream Cheeks_2_1</title>
<path fill="none" stroke="lightblue" stroke-width="5" d="M552.5,-770.6C552.5,-727.32 552.5,-656.17 552.5,-607.2"/>
<polygon fill="lightblue" stroke="lightblue" stroke-width="5" points="556.88,-607.43 552.5,-597.43 548.13,-607.43 556.88,-607.43"/>
</g>
<!-- unknown_4_9 -->
<g id="node20" class="node">
<title>unknown_4_9</title>
<g id="a_node20"><a xlink:href="https://www.google.com/search?q=unknown%20%28netkeiba%20OR%20wikipedia%29" xlink:title="unknown">
<polygon fill="lightcoral" stroke="lightcoral" points="591,-1105 514,-1105 514,-1028 591,-1028 591,-1105"/>
<image xlink:href="img/mob.png" width="77px" height="77px" preserveAspectRatio="xMinYMin meet" x="514" y="-1105"/>
<text text-anchor="middle" x="552.5" y="-1060.7" font-family="MS Gothic" font-size="14.00">unknown</text>
</a>
</g>
</g>
<!-- unknown_4_9&#45;&gt;Leedes Arabian_3_1 -->
<g id="edge19" class="edge">
<title>unknown_4_9&#45;&gt;Leedes Arabian_3_1</title>
<path fill="none" stroke="lightblue" stroke-width="5" d="M552.5,-1027.6C552.5,-984.32 552.5,-913.17 552.5,-864.2"/>
<polygon fill="lightblue" stroke="lightblue" stroke-width="5" points="556.88,-864.43 552.5,-854.43 548.13,-864.43 556.88,-864.43"/>
</g>
<!-- unknown_5_10 -->
<g id="node21" class="node">
<title>unknown_5_10</title>
<g id="a_node21"><a xlink:href="https://www.google.com/search?q=unknown%20%28netkeiba%20OR%20wikipedia%29" xlink:title="unknown">
<polygon fill="lightcoral" stroke="lightcoral" points="591,-1362 514,-1362 514,-1285 591,-1285 591,-1362"/>
<image xlink:href="img/mob.png" width="77px" height="77px" preserveAspectRatio="xMinYMin meet" x="514" y="-1362"/>
<text text-anchor="middle" x="552.5" y="-1317.7" font-family="MS Gothic" font-size="14.00">unknown</text>
</a>
</g>
</g>
<!-- unknown_5_10&#45;&gt;unknown_4_9 -->
<g id="edge20" class="edge">
<title>unknown_5_10&#45;&gt;unknown_4_9</title>
<path fill="none" stroke="lightblue" stroke-width="5" d="M552.5,-1284.6C552.5,-1241.32 552.5,-1170.17 552.5,-1121.2"/>
<polygon fill="lightblue" stroke="lightblue" stroke-width="5" points="556.88,-1121.43 552.5,-1111.43 548.13,-1121.43 556.88,-1121.43"/>
</g>
<!-- Spanker Mare_3_1 -->
<g id="node22" class="node">
<title>Spanker Mare_3_1</title>
<g id="a_node22"><a xlink:href="https://www.google.com/search?q=Spanker%20Mare%20%28netkeiba%20OR%20wikipedia%29" xlink:title="Spanker Mare">
<polygon fill="lightcoral" stroke="lightcoral" points="794,-848 697,-848 697,-771 794,-771 794,-848"/>
<image xlink:href="img/mob.png" width="97px" height="77px" preserveAspectRatio="xMinYMin meet" x="697" y="-848"/>
<text text-anchor="middle" x="745.5" y="-803.7" font-family="MS Gothic" font-size="14.00">Spanker Mare</text>
</a>
</g>
</g>
<!-- Spanker Mare_3_1&#45;&gt;Cream Cheeks_2_1 -->
<g id="edge21" class="edge">
<title>Spanker Mare_3_1&#45;&gt;Cream Cheeks_2_1</title>
<path fill="none" stroke="lightcoral" stroke-width="5" d="M716.81,-770.6C683.34,-726.37 627.85,-653.06 590.74,-604.03"/>
<polygon fill="lightcoral" stroke="lightcoral" stroke-width="5" points="594.32,-601.5 584.79,-596.17 587.34,-606.78 594.32,-601.5"/>
</g>
<!-- Spanker_4_2 -->
<g id="node23" class="node">
<title>Spanker_4_2</title>
<g id="a_node23"><a xlink:href="https://www.google.com/search?q=Spanker%20%28netkeiba%20OR%20wikipedia%29" xlink:title="Spanker">
<polygon fill="lightblue" stroke="lightblue" points="784,-1105 707,-1105 707,-1028 784,-1028 784,-1105"/>
<image xlink:href="img/mob.png" width="77px" height="77px" preserveAspectRatio="xMinYMin meet" x="707" y="-1105"/>
<text text-anchor="middle" x="745.5" y="-1060.7" font-family="MS Gothic" font-size="14.00">Spanker</text>
</a>
</g>
</g>
<!-- Spanker_4_2&#45;&gt;Spanker Mare_3_1 -->
<g id="edge22" class="edge">
<title>Spanker_4_2&#45;&gt;Spanker Mare_3_1</title>
<path fill="none" stroke="lightblue" stroke-width="5" d="M745.5,-1027.6C745.5,-984.32 745.5,-913.17 745.5,-864.2"/>
<polygon fill="lightblue" stroke="lightblue" stroke-width="5" points="749.88,-864.43 745.5,-854.43 741.13,-864.43 749.88,-864.43"/>
</g>
<!-- D&#39;Arcy&#39;s Yellow Turk_5_2 -->
<g id="node24" class="node">
<title>D&#39;Arcy&#39;s Yellow Turk_5_2</title>
<g id="a_node24"><a xlink:href="https://www.google.com/search?q=D%27Arcy%27s%20Yellow%20Turk%20%28netkeiba%20OR%20wikipedia%29" xlink:title="D&#39;Arcy&#39;s Yellow Turk">
<polygon fill="lightblue" stroke="lightblue" points="749,-1362 598,-1362 598,-1285 749,-1285 749,-1362"/>
<image xlink:href="img/mob.png" width="100px" height="77px" preserveAspectRatio="xMinYMin meet" x="623.5" y="-1362"/>
<text text-anchor="middle" x="673.5" y="-1317.7" font-family="MS Gothic" font-size="14.00">D&#39;Arcy&#39;s Yellow Turk</text>
</a>
</g>
</g>
<!-- D&#39;Arcy&#39;s Yellow Turk_5_2&#45;&gt;Spanker_4_2 -->
<g id="edge23" class="edge">
<title>D&#39;Arcy&#39;s Yellow Turk_5_2&#45;&gt;Spanker_4_2</title>
<path fill="none" stroke="lightblue" stroke-width="5" d="M684.2,-1284.6C696.48,-1241.13 716.68,-1169.55 730.52,-1120.56"/>
<polygon fill="lightblue" stroke="lightblue" stroke-width="5" points="734.66,-1122.01 733.16,-1111.2 726.23,-1119.63 734.66,-1122.01"/>
</g>
<!-- Old Morocco Mare_5_2 -->
<g id="node25" class="node">
<title>Old Morocco Mare_5_2</title>
<g id="a_node25"><a xlink:href="https://www.google.com/search?q=Old%20Morocco%20Mare%20%28netkeiba%20OR%20wikipedia%29" xlink:title="Old Morocco Mare">
<polygon fill="lightcoral" stroke="lightcoral" points="880.5,-1362 756.5,-1362 756.5,-1285 880.5,-1285 880.5,-1362"/>
<image xlink:href="img/mob.png" width="100px" height="77px" preserveAspectRatio="xMinYMin meet" x="768.5" y="-1362"/>
<text text-anchor="middle" x="818.5" y="-1317.7" font-family="MS Gothic" font-size="14.00">Old Morocco Mare</text>
</a>
</g>
</g>
<!-- Old Morocco Mare_5_2&#45;&gt;Spanker_4_2 -->
<g id="edge24" class="edge">
<title>Old Morocco Mare_5_2&#45;&gt;Spanker_4_2</title>
<path fill="none" stroke="lightcoral" stroke-width="5" d="M807.65,-1284.6C795.2,-1241.13 774.72,-1169.55 760.69,-1120.56"/>
<polygon fill="lightcoral" stroke="lightcoral" stroke-width="5" points="764.97,-1119.6 758.01,-1111.19 756.55,-1122.01 764.97,-1119.6"/>
</g>
<!-- Old Morocco Mare_4_3 -->
<g id="node26" class="node">
<title>Old Morocco Mare_4_3</title>
<g id="a_node26"><a xlink:href="https://www.google.com/search?q=Old%20Morocco%20Mare%20%28netkeiba%20OR%20wikipedia%29" xlink:title="Old Morocco Mare">
<polygon fill="lightcoral" stroke="lightcoral" points="1025.5,-1105 901.5,-1105 901.5,-1028 1025.5,-1028 1025.5,-1105"/>
<image xlink:href="img/mob.png" width="100px" height="77px" preserveAspectRatio="xMinYMin meet" x="913.5" y="-1105"/>
<text text-anchor="middle" x="963.5" y="-1060.7" font-family="MS Gothic" font-size="14.00">Old Morocco Mare</text>
</a>
</g>
</g>
<!-- Old Morocco Mare_4_3&#45;&gt;Spanker Mare_3_1 -->
<g id="edge25" class="edge">
<title>Old Morocco Mare_4_3&#45;&gt;Spanker Mare_3_1</title>
<path fill="none" stroke="lightcoral" stroke-width="5" d="M931.1,-1027.6C893.13,-983.18 830.08,-909.44 788.16,-860.4"/>
<polygon fill="lightcoral" stroke="lightcoral" stroke-width="5" points="791.6,-857.69 781.78,-852.93 784.95,-863.38 791.6,-857.69"/>
</g>
<!-- Fairfax Morocco Barb_5_2 -->
<g id="node27" class="node">
<title>Fairfax Morocco Barb_5_2</title>
<g id="a_node27"><a xlink:href="https://www.google.com/search?q=Fairfax%20Morocco%20Barb%20%28netkeiba%20OR%20wikipedia%29" xlink:title="Fairfax Morocco Barb">
<polygon fill="lightblue" stroke="lightblue" points="1039,-1362 888,-1362 888,-1285 1039,-1285 1039,-1362"/>
<image xlink:href="img/mob.png" width="100px" height="77px" preserveAspectRatio="xMinYMin meet" x="913.5" y="-1362"/>
<text text-anchor="middle" x="963.5" y="-1317.7" font-family="MS Gothic" font-size="14.00">Fairfax Morocco Barb</text>
</a>
</g>
</g>
<!-- Fairfax Morocco Barb_5_2&#45;&gt;Old Morocco Mare_4_3 -->
<g id="edge26" class="edge">
<title>Fairfax Morocco Barb_5_2&#45;&gt;Old Morocco Mare_4_3</title>
<path fill="none" stroke="lightblue" stroke-width="5" d="M963.5,-1284.6C963.5,-1241.32 963.5,-1170.17 963.5,-1121.2"/>
<polygon fill="lightblue" stroke="lightblue" stroke-width="5" points="967.88,-1121.43 963.5,-1111.43 959.13,-1121.43 967.88,-1121.43"/>
</g>
<!-- Old Bald Peg_5_2 -->
<g id="node28" class="node">
<title>Old Bald Peg_5_2</title>
<g id="a_node28"><a xlink:href="https://www.google.com/search?q=Old%20Bald%20Peg%20%28netkeiba%20OR%20wikipedia%29" xlink:title="Old Bald Peg">
<polygon fill="lightcoral" stroke="lightcoral" points="1143,-1362 1046,-1362 1046,-1285 1143,-1285 1143,-1362"/>
<image xlink:href="img/mob.png" width="97px" height="77px" preserveAspectRatio="xMinYMin meet" x="1046" y="-1362"/>
<text text-anchor="middle" x="1094.5" y="-1317.7" font-family="MS Gothic" font-size="14.00">Old Bald Peg</text>
</a>
</g>
</g>
<!-- Old Bald Peg_5_2&#45;&gt;Old Morocco Mare_4_3 -->
<g id="edge27" class="edge">
<title>Old Bald Peg_5_2&#45;&gt;Old Morocco Mare_4_3</title>
<path fill="none" stroke="lightcoral" stroke-width="5" d="M1075.03,-1284.6C1052.55,-1240.84 1015.45,-1168.62 990.27,-1119.6"/>
<polygon fill="lightcoral" stroke="lightcoral" stroke-width="5" points="994.17,-1117.64 985.71,-1110.74 986.39,-1121.63 994.17,-1117.64"/>
</g>
</g>
</svg>
