<?xml version="1.0" encoding="UTF-8" standalone="no"?>
<!DOCTYPE svg PUBLIC "-//W3C//DTD SVG 1.1//EN"
 "http://www.w3.org/Graphics/SVG/1.1/DTD/svg11.dtd">
<!-- Generated by graphviz version 12.1.2 (20240928.0832)
 -->
<!-- Pages: 1 -->
<svg width="1306pt" height="1667pt"
 viewBox="0.00 0.00 1305.62 1667.00" xmlns="http://www.w3.org/2000/svg" xmlns:xlink="http://www.w3.org/1999/xlink">
<g id="graph0" class="graph" transform="scale(1 1) rotate(0) translate(4 1663)">
<polygon fill="white" stroke="none" points="-4,4 -4,-1663 1301.62,-1663 1301.62,4 -4,4"/>
<!-- Bay Ronald -->
<g id="node1" class="node">
<title>Bay Ronald</title>
<polygon fill="none" stroke="black" points="1131.38,-77 1050.88,-77 1050.88,0 1131.38,0 1131.38,-77"/>
<image xlink:href="img/mob.png" width="80.5px" height="77px" preserveAspectRatio="xMinYMin meet" x="1050.88" y="-77"/>
<text text-anchor="middle" x="1091.12" y="-33.45" font-family="Times New Roman,serif" font-size="14.00">Bay Ronald</text>
</g>
<!-- Hampton -->
<g id="node2" class="node">
<title>Hampton</title>
<polygon fill="lightblue" stroke="lightblue" points="1075.62,-190 998.62,-190 998.62,-113 1075.62,-113 1075.62,-190"/>
<image xlink:href="img/mob.png" width="77px" height="77px" preserveAspectRatio="xMinYMin meet" x="998.625" y="-190"/>
<text text-anchor="middle" x="1037.12" y="-145.7" font-family="MS Gothic" font-size="14.00">Hampton</text>
</g>
<!-- Hampton&#45;&gt;Bay Ronald -->
<g id="edge1" class="edge">
<title>Hampton&#45;&gt;Bay Ronald</title>
<path fill="none" stroke="black" d="M1055.56,-112.61C1059.51,-104.48 1063.74,-95.8 1067.85,-87.35"/>
<polygon fill="black" stroke="black" points="1070.89,-89.1 1072.11,-78.58 1064.59,-86.04 1070.89,-89.1"/>
</g>
<!-- Black Duchess -->
<g id="node3" class="node">
<title>Black Duchess</title>
<polygon fill="lightcoral" stroke="lightcoral" points="1197,-190 1093.25,-190 1093.25,-113 1197,-113 1197,-190"/>
<image xlink:href="img/mob.png" width="100px" height="77px" preserveAspectRatio="xMinYMin meet" x="1095.12" y="-190"/>
<text text-anchor="middle" x="1145.12" y="-145.7" font-family="MS Gothic" font-size="14.00">Black Duchess</text>
</g>
<!-- Black Duchess&#45;&gt;Bay Ronald -->
<g id="edge2" class="edge">
<title>Black Duchess&#45;&gt;Bay Ronald</title>
<path fill="none" stroke="black" d="M1126.69,-112.61C1122.74,-104.48 1118.51,-95.8 1114.4,-87.35"/>
<polygon fill="black" stroke="black" points="1117.66,-86.04 1110.14,-78.58 1111.36,-89.1 1117.66,-86.04"/>
</g>
<!-- Lord Clifden -->
<g id="node4" class="node">
<title>Lord Clifden</title>
<polygon fill="lightblue" stroke="lightblue" points="971.62,-303 874.62,-303 874.62,-226 971.62,-226 971.62,-303"/>
<image xlink:href="img/mob.png" width="97px" height="77px" preserveAspectRatio="xMinYMin meet" x="874.625" y="-303"/>
<text text-anchor="middle" x="923.12" y="-258.7" font-family="MS Gothic" font-size="14.00">Lord Clifden</text>
</g>
<!-- Lord Clifden&#45;&gt;Hampton -->
<g id="edge3" class="edge">
<title>Lord Clifden&#45;&gt;Hampton</title>
<path fill="none" stroke="black" d="M962.04,-225.61C971.12,-216.77 980.88,-207.26 990.26,-198.13"/>
<polygon fill="black" stroke="black" points="992.58,-200.76 997.3,-191.27 987.7,-195.74 992.58,-200.76"/>
</g>
<!-- Lady Langden -->
<g id="node5" class="node">
<title>Lady Langden</title>
<polygon fill="lightcoral" stroke="lightcoral" points="1086.62,-303 989.62,-303 989.62,-226 1086.62,-226 1086.62,-303"/>
<image xlink:href="img/mob.png" width="97px" height="77px" preserveAspectRatio="xMinYMin meet" x="989.625" y="-303"/>
<text text-anchor="middle" x="1038.12" y="-258.7" font-family="MS Gothic" font-size="14.00">Lady Langden</text>
</g>
<!-- Lady Langden&#45;&gt;Hampton -->
<g id="edge4" class="edge">
<title>Lady Langden&#45;&gt;Hampton</title>
<path fill="none" stroke="black" d="M1037.78,-225.61C1037.71,-217.84 1037.64,-209.56 1037.57,-201.46"/>
<polygon fill="black" stroke="black" points="1041.07,-201.7 1037.48,-191.73 1034.07,-201.76 1041.07,-201.7"/>
</g>
<!-- Galliard -->
<g id="node6" class="node">
<title>Galliard</title>
<polygon fill="lightblue" stroke="lightblue" points="1182.62,-303 1105.62,-303 1105.62,-226 1182.62,-226 1182.62,-303"/>
<image xlink:href="img/mob.png" width="77px" height="77px" preserveAspectRatio="xMinYMin meet" x="1105.62" y="-303"/>
<text text-anchor="middle" x="1144.12" y="-258.7" font-family="MS Gothic" font-size="14.00">Galliard</text>
</g>
<!-- Galliard&#45;&gt;Black Duchess -->
<g id="edge5" class="edge">
<title>Galliard&#45;&gt;Black Duchess</title>
<path fill="none" stroke="black" d="M1144.47,-225.61C1144.54,-217.84 1144.61,-209.56 1144.68,-201.46"/>
<polygon fill="black" stroke="black" points="1148.18,-201.76 1144.77,-191.73 1141.18,-201.7 1148.18,-201.76"/>
</g>
<!-- Black Corrie -->
<g id="node7" class="node">
<title>Black Corrie</title>
<polygon fill="lightcoral" stroke="lightcoral" points="1297.62,-303 1200.62,-303 1200.62,-226 1297.62,-226 1297.62,-303"/>
<image xlink:href="img/mob.png" width="97px" height="77px" preserveAspectRatio="xMinYMin meet" x="1200.62" y="-303"/>
<text text-anchor="middle" x="1249.12" y="-258.7" font-family="MS Gothic" font-size="14.00">Black Corrie</text>
</g>
<!-- Black Corrie&#45;&gt;Black Duchess -->
<g id="edge6" class="edge">
<title>Black Corrie&#45;&gt;Black Duchess</title>
<path fill="none" stroke="black" d="M1213.62,-225.61C1205.43,-216.86 1196.62,-207.46 1188.13,-198.4"/>
<polygon fill="black" stroke="black" points="1190.89,-196.23 1181.5,-191.32 1185.78,-201.01 1190.89,-196.23"/>
</g>
<!-- Newminster -->
<g id="node8" class="node">
<title>Newminster</title>
<polygon fill="lightblue" stroke="lightblue" points="915.88,-416 832.38,-416 832.38,-339 915.88,-339 915.88,-416"/>
<image xlink:href="img/mob.png" width="83.5px" height="77px" preserveAspectRatio="xMinYMin meet" x="832.375" y="-416"/>
<text text-anchor="middle" x="874.12" y="-371.7" font-family="MS Gothic" font-size="14.00">Newminster</text>
</g>
<!-- Newminster&#45;&gt;Lord Clifden -->
<g id="edge7" class="edge">
<title>Newminster&#45;&gt;Lord Clifden</title>
<path fill="none" stroke="black" d="M890.85,-338.61C894.4,-330.57 898.19,-321.99 901.88,-313.63"/>
<polygon fill="black" stroke="black" points="905.03,-315.17 905.86,-304.6 898.62,-312.34 905.03,-315.17"/>
</g>
<!-- The Slave -->
<g id="node9" class="node">
<title>The Slave</title>
<polygon fill="lightcoral" stroke="lightcoral" points="1010.62,-416 933.62,-416 933.62,-339 1010.62,-339 1010.62,-416"/>
<image xlink:href="img/mob.png" width="77px" height="77px" preserveAspectRatio="xMinYMin meet" x="933.625" y="-416"/>
<text text-anchor="middle" x="972.12" y="-371.7" font-family="MS Gothic" font-size="14.00">The Slave</text>
</g>
<!-- The Slave&#45;&gt;Lord Clifden -->
<g id="edge8" class="edge">
<title>The Slave&#45;&gt;Lord Clifden</title>
<path fill="none" stroke="black" d="M955.4,-338.61C951.85,-330.57 948.06,-321.99 944.37,-313.63"/>
<polygon fill="black" stroke="black" points="947.63,-312.34 940.39,-304.6 941.22,-315.17 947.63,-312.34"/>
</g>
<!-- Touchstone -->
<g id="node10" class="node">
<title>Touchstone</title>
<polygon fill="lightblue" stroke="lightblue" points="818.88,-529 735.38,-529 735.38,-452 818.88,-452 818.88,-529"/>
<image xlink:href="img/mob.png" width="83.5px" height="77px" preserveAspectRatio="xMinYMin meet" x="735.375" y="-529"/>
<text text-anchor="middle" x="777.12" y="-484.7" font-family="MS Gothic" font-size="14.00">Touchstone</text>
</g>
<!-- Touchstone&#45;&gt;Newminster -->
<g id="edge9" class="edge">
<title>Touchstone&#45;&gt;Newminster</title>
<path fill="none" stroke="black" d="M810.24,-451.61C817.81,-442.95 825.93,-433.65 833.77,-424.68"/>
<polygon fill="black" stroke="black" points="836.22,-427.19 840.17,-417.36 830.95,-422.59 836.22,-427.19"/>
</g>
<!-- Beeswing -->
<g id="node11" class="node">
<title>Beeswing</title>
<polygon fill="lightcoral" stroke="lightcoral" points="913.62,-529 836.62,-529 836.62,-452 913.62,-452 913.62,-529"/>
<image xlink:href="img/mob.png" width="77px" height="77px" preserveAspectRatio="xMinYMin meet" x="836.625" y="-529"/>
<text text-anchor="middle" x="875.12" y="-484.7" font-family="MS Gothic" font-size="14.00">Beeswing</text>
</g>
<!-- Beeswing&#45;&gt;Newminster -->
<g id="edge10" class="edge">
<title>Beeswing&#45;&gt;Newminster</title>
<path fill="none" stroke="black" d="M874.78,-451.61C874.71,-443.84 874.64,-435.56 874.57,-427.46"/>
<polygon fill="black" stroke="black" points="878.07,-427.7 874.48,-417.73 871.07,-427.76 878.07,-427.7"/>
</g>
<!-- Melbourne -->
<g id="node12" class="node">
<title>Melbourne</title>
<polygon fill="lightblue" stroke="lightblue" points="1009.62,-529 932.62,-529 932.62,-452 1009.62,-452 1009.62,-529"/>
<image xlink:href="img/mob.png" width="77px" height="77px" preserveAspectRatio="xMinYMin meet" x="932.625" y="-529"/>
<text text-anchor="middle" x="971.12" y="-484.7" font-family="MS Gothic" font-size="14.00">Melbourne</text>
</g>
<!-- Melbourne&#45;&gt;The Slave -->
<g id="edge11" class="edge">
<title>Melbourne&#45;&gt;The Slave</title>
<path fill="none" stroke="black" d="M971.47,-451.61C971.54,-443.84 971.61,-435.56 971.68,-427.46"/>
<polygon fill="black" stroke="black" points="975.18,-427.76 971.77,-417.73 968.18,-427.7 975.18,-427.76"/>
</g>
<!-- Volley -->
<g id="node13" class="node">
<title>Volley</title>
<polygon fill="lightcoral" stroke="lightcoral" points="1104.62,-529 1027.62,-529 1027.62,-452 1104.62,-452 1104.62,-529"/>
<image xlink:href="img/mob.png" width="77px" height="77px" preserveAspectRatio="xMinYMin meet" x="1027.62" y="-529"/>
<text text-anchor="middle" x="1066.12" y="-484.7" font-family="MS Gothic" font-size="14.00">Volley</text>
</g>
<!-- Volley&#45;&gt;The Slave -->
<g id="edge12" class="edge">
<title>Volley&#45;&gt;The Slave</title>
<path fill="none" stroke="black" d="M1034.04,-451.61C1026.78,-443.04 1018.99,-433.84 1011.47,-424.96"/>
<polygon fill="black" stroke="black" points="1014.18,-422.74 1005.05,-417.37 1008.84,-427.27 1014.18,-422.74"/>
</g>
<!-- Camel -->
<g id="node14" class="node">
<title>Camel</title>
<polygon fill="lightblue" stroke="lightblue" points="761.62,-642 684.62,-642 684.62,-565 761.62,-565 761.62,-642"/>
<image xlink:href="img/mob.png" width="77px" height="77px" preserveAspectRatio="xMinYMin meet" x="684.625" y="-642"/>
<text text-anchor="middle" x="723.12" y="-597.7" font-family="MS Gothic" font-size="14.00">Camel</text>
</g>
<!-- Camel&#45;&gt;Touchstone -->
<g id="edge13" class="edge">
<title>Camel&#45;&gt;Touchstone</title>
<path fill="none" stroke="black" d="M741.56,-564.61C745.51,-556.48 749.74,-547.8 753.85,-539.35"/>
<polygon fill="black" stroke="black" points="756.89,-541.1 758.11,-530.58 750.59,-538.04 756.89,-541.1"/>
</g>
<!-- Banter -->
<g id="node15" class="node">
<title>Banter</title>
<polygon fill="lightcoral" stroke="lightcoral" points="869.62,-642 792.62,-642 792.62,-565 869.62,-565 869.62,-642"/>
<image xlink:href="img/mob.png" width="77px" height="77px" preserveAspectRatio="xMinYMin meet" x="792.625" y="-642"/>
<text text-anchor="middle" x="831.12" y="-597.7" font-family="MS Gothic" font-size="14.00">Banter</text>
</g>
<!-- Banter&#45;&gt;Touchstone -->
<g id="edge14" class="edge">
<title>Banter&#45;&gt;Touchstone</title>
<path fill="none" stroke="black" d="M812.69,-564.61C808.74,-556.48 804.51,-547.8 800.4,-539.35"/>
<polygon fill="black" stroke="black" points="803.66,-538.04 796.14,-530.58 797.36,-541.1 803.66,-538.04"/>
</g>
<!-- Whalebone -->
<g id="node16" class="node">
<title>Whalebone</title>
<polygon fill="lightblue" stroke="lightblue" points="663.62,-755 586.62,-755 586.62,-678 663.62,-678 663.62,-755"/>
<image xlink:href="img/mob.png" width="77px" height="77px" preserveAspectRatio="xMinYMin meet" x="586.625" y="-755"/>
<text text-anchor="middle" x="625.12" y="-710.7" font-family="MS Gothic" font-size="14.00">Whalebone</text>
</g>
<!-- Whalebone&#45;&gt;Camel -->
<g id="edge15" class="edge">
<title>Whalebone&#45;&gt;Camel</title>
<path fill="none" stroke="black" d="M658.58,-677.61C666.22,-668.95 674.44,-659.65 682.35,-650.68"/>
<polygon fill="black" stroke="black" points="684.83,-653.17 688.82,-643.35 679.58,-648.53 684.83,-653.17"/>
</g>
<!-- Selim Mare -->
<g id="node17" class="node">
<title>Selim Mare</title>
<polygon fill="lightcoral" stroke="lightcoral" points="764.88,-755 681.38,-755 681.38,-678 764.88,-678 764.88,-755"/>
<image xlink:href="img/mob.png" width="83.5px" height="77px" preserveAspectRatio="xMinYMin meet" x="681.375" y="-755"/>
<text text-anchor="middle" x="723.12" y="-710.7" font-family="MS Gothic" font-size="14.00">Selim Mare</text>
</g>
<!-- Selim Mare&#45;&gt;Camel -->
<g id="edge16" class="edge">
<title>Selim Mare&#45;&gt;Camel</title>
<path fill="none" stroke="black" d="M723.12,-677.61C723.12,-669.84 723.12,-661.56 723.12,-653.46"/>
<polygon fill="black" stroke="black" points="726.63,-653.73 723.13,-643.73 719.63,-653.73 726.63,-653.73"/>
</g>
<!-- Master Henry -->
<g id="node18" class="node">
<title>Master Henry</title>
<polygon fill="lightblue" stroke="lightblue" points="879.62,-755 782.62,-755 782.62,-678 879.62,-678 879.62,-755"/>
<image xlink:href="img/mob.png" width="97px" height="77px" preserveAspectRatio="xMinYMin meet" x="782.625" y="-755"/>
<text text-anchor="middle" x="831.12" y="-710.7" font-family="MS Gothic" font-size="14.00">Master Henry</text>
</g>
<!-- Master Henry&#45;&gt;Banter -->
<g id="edge17" class="edge">
<title>Master Henry&#45;&gt;Banter</title>
<path fill="none" stroke="black" d="M831.12,-677.61C831.12,-669.84 831.12,-661.56 831.12,-653.46"/>
<polygon fill="black" stroke="black" points="834.63,-653.73 831.13,-643.73 827.63,-653.73 834.63,-653.73"/>
</g>
<!-- Boadicea -->
<g id="node19" class="node">
<title>Boadicea</title>
<polygon fill="lightcoral" stroke="lightcoral" points="974.62,-755 897.62,-755 897.62,-678 974.62,-678 974.62,-755"/>
<image xlink:href="img/mob.png" width="77px" height="77px" preserveAspectRatio="xMinYMin meet" x="897.625" y="-755"/>
<text text-anchor="middle" x="936.12" y="-710.7" font-family="MS Gothic" font-size="14.00">Boadicea</text>
</g>
<!-- Boadicea&#45;&gt;Banter -->
<g id="edge18" class="edge">
<title>Boadicea&#45;&gt;Banter</title>
<path fill="none" stroke="black" d="M900.28,-677.61C892.01,-668.86 883.11,-659.46 874.55,-650.4"/>
<polygon fill="black" stroke="black" points="877.26,-648.18 867.84,-643.32 872.17,-652.99 877.26,-648.18"/>
</g>
<!-- Waxy -->
<g id="node20" class="node">
<title>Waxy</title>
<polygon fill="lightblue" stroke="lightblue" points="616.62,-868 539.62,-868 539.62,-791 616.62,-791 616.62,-868"/>
<image xlink:href="img/mob.png" width="77px" height="77px" preserveAspectRatio="xMinYMin meet" x="539.625" y="-868"/>
<text text-anchor="middle" x="578.12" y="-823.7" font-family="MS Gothic" font-size="14.00">Waxy</text>
</g>
<!-- Waxy&#45;&gt;Whalebone -->
<g id="edge19" class="edge">
<title>Waxy&#45;&gt;Whalebone</title>
<path fill="none" stroke="black" d="M594.17,-790.61C597.57,-782.57 601.21,-773.99 604.75,-765.63"/>
<polygon fill="black" stroke="black" points="607.89,-767.19 608.56,-756.61 601.44,-764.46 607.89,-767.19"/>
</g>
<!-- Penelope -->
<g id="node21" class="node">
<title>Penelope</title>
<polygon fill="lightcoral" stroke="lightcoral" points="711.62,-868 634.62,-868 634.62,-791 711.62,-791 711.62,-868"/>
<image xlink:href="img/mob.png" width="77px" height="77px" preserveAspectRatio="xMinYMin meet" x="634.625" y="-868"/>
<text text-anchor="middle" x="673.12" y="-823.7" font-family="MS Gothic" font-size="14.00">Penelope</text>
</g>
<!-- Penelope&#45;&gt;Whalebone -->
<g id="edge20" class="edge">
<title>Penelope&#45;&gt;Whalebone</title>
<path fill="none" stroke="black" d="M656.74,-790.61C653.26,-782.57 649.55,-773.99 645.94,-765.63"/>
<polygon fill="black" stroke="black" points="649.22,-764.4 642.04,-756.61 642.79,-767.18 649.22,-764.4"/>
</g>
<!-- Pot&#45;8&#45;Os -->
<g id="node22" class="node">
<title>Pot&#45;8&#45;Os</title>
<polygon fill="lightblue" stroke="lightblue" points="521.62,-981 444.62,-981 444.62,-904 521.62,-904 521.62,-981"/>
<image xlink:href="img/mob.png" width="77px" height="77px" preserveAspectRatio="xMinYMin meet" x="444.625" y="-981"/>
<text text-anchor="middle" x="483.12" y="-936.7" font-family="MS Gothic" font-size="14.00">Pot&#45;8&#45;Os</text>
</g>
<!-- Pot&#45;8&#45;Os&#45;&gt;Waxy -->
<g id="edge21" class="edge">
<title>Pot&#45;8&#45;Os&#45;&gt;Waxy</title>
<path fill="none" stroke="black" d="M515.55,-903.61C522.89,-895.04 530.76,-885.84 538.36,-876.96"/>
<polygon fill="black" stroke="black" points="541.02,-879.24 544.86,-869.37 535.7,-874.69 541.02,-879.24"/>
</g>
<!-- Maria III -->
<g id="node23" class="node">
<title>Maria III</title>
<polygon fill="lightcoral" stroke="lightcoral" points="616.62,-981 539.62,-981 539.62,-904 616.62,-904 616.62,-981"/>
<image xlink:href="img/mob.png" width="77px" height="77px" preserveAspectRatio="xMinYMin meet" x="539.625" y="-981"/>
<text text-anchor="middle" x="578.12" y="-936.7" font-family="MS Gothic" font-size="14.00">Maria III</text>
</g>
<!-- Maria III&#45;&gt;Waxy -->
<g id="edge22" class="edge">
<title>Maria III&#45;&gt;Waxy</title>
<path fill="none" stroke="black" d="M578.12,-903.61C578.12,-895.84 578.12,-887.56 578.12,-879.46"/>
<polygon fill="black" stroke="black" points="581.63,-879.73 578.13,-869.73 574.63,-879.73 581.63,-879.73"/>
</g>
<!-- Trumpator -->
<g id="node24" class="node">
<title>Trumpator</title>
<polygon fill="lightblue" stroke="lightblue" points="711.62,-981 634.62,-981 634.62,-904 711.62,-904 711.62,-981"/>
<image xlink:href="img/mob.png" width="77px" height="77px" preserveAspectRatio="xMinYMin meet" x="634.625" y="-981"/>
<text text-anchor="middle" x="673.12" y="-936.7" font-family="MS Gothic" font-size="14.00">Trumpator</text>
</g>
<!-- Trumpator&#45;&gt;Penelope -->
<g id="edge23" class="edge">
<title>Trumpator&#45;&gt;Penelope</title>
<path fill="none" stroke="black" d="M673.12,-903.61C673.12,-895.84 673.12,-887.56 673.12,-879.46"/>
<polygon fill="black" stroke="black" points="676.63,-879.73 673.13,-869.73 669.63,-879.73 676.63,-879.73"/>
</g>
<!-- Prunella -->
<g id="node25" class="node">
<title>Prunella</title>
<polygon fill="lightcoral" stroke="lightcoral" points="806.62,-981 729.62,-981 729.62,-904 806.62,-904 806.62,-981"/>
<image xlink:href="img/mob.png" width="77px" height="77px" preserveAspectRatio="xMinYMin meet" x="729.625" y="-981"/>
<text text-anchor="middle" x="768.12" y="-936.7" font-family="MS Gothic" font-size="14.00">Prunella</text>
</g>
<!-- Prunella&#45;&gt;Penelope -->
<g id="edge24" class="edge">
<title>Prunella&#45;&gt;Penelope</title>
<path fill="none" stroke="black" d="M735.7,-903.61C728.36,-895.04 720.49,-885.84 712.89,-876.96"/>
<polygon fill="black" stroke="black" points="715.55,-874.69 706.39,-869.37 710.23,-879.24 715.55,-874.69"/>
</g>
<!-- Eclipse -->
<g id="node26" class="node">
<title>Eclipse</title>
<polygon fill="lightblue" stroke="lightblue" points="465.62,-1094 388.62,-1094 388.62,-1017 465.62,-1017 465.62,-1094"/>
<image xlink:href="img/mob.png" width="77px" height="77px" preserveAspectRatio="xMinYMin meet" x="388.625" y="-1094"/>
<text text-anchor="middle" x="427.12" y="-1049.7" font-family="MS Gothic" font-size="14.00">Eclipse</text>
</g>
<!-- Eclipse&#45;&gt;Pot&#45;8&#45;Os -->
<g id="edge25" class="edge">
<title>Eclipse&#45;&gt;Pot&#45;8&#45;Os</title>
<path fill="none" stroke="black" d="M446.24,-1016.61C450.34,-1008.48 454.72,-999.8 458.99,-991.35"/>
<polygon fill="black" stroke="black" points="462.03,-993.07 463.41,-982.57 455.78,-989.92 462.03,-993.07"/>
</g>
<!-- Sportsmistress -->
<g id="node27" class="node">
<title>Sportsmistress</title>
<polygon fill="lightcoral" stroke="lightcoral" points="594.38,-1094 483.88,-1094 483.88,-1017 594.38,-1017 594.38,-1094"/>
<image xlink:href="img/mob.png" width="100px" height="77px" preserveAspectRatio="xMinYMin meet" x="489.125" y="-1094"/>
<text text-anchor="middle" x="539.12" y="-1049.7" font-family="MS Gothic" font-size="14.00">Sportsmistress</text>
</g>
<!-- Sportsmistress&#45;&gt;Pot&#45;8&#45;Os -->
<g id="edge26" class="edge">
<title>Sportsmistress&#45;&gt;Pot&#45;8&#45;Os</title>
<path fill="none" stroke="black" d="M520.01,-1016.61C515.91,-1008.48 511.53,-999.8 507.26,-991.35"/>
<polygon fill="black" stroke="black" points="510.47,-989.92 502.84,-982.57 504.22,-993.07 510.47,-989.92"/>
</g>
<!-- Marske -->
<g id="node28" class="node">
<title>Marske</title>
<polygon fill="lightblue" stroke="lightblue" points="375.62,-1207 298.62,-1207 298.62,-1130 375.62,-1130 375.62,-1207"/>
<image xlink:href="img/mob.png" width="77px" height="77px" preserveAspectRatio="xMinYMin meet" x="298.625" y="-1207"/>
<text text-anchor="middle" x="337.12" y="-1162.7" font-family="MS Gothic" font-size="14.00">Marske</text>
</g>
<!-- Marske&#45;&gt;Eclipse -->
<g id="edge27" class="edge">
<title>Marske&#45;&gt;Eclipse</title>
<path fill="none" stroke="black" d="M367.85,-1129.61C374.8,-1121.04 382.26,-1111.84 389.46,-1102.96"/>
<polygon fill="black" stroke="black" points="392.01,-1105.37 395.59,-1095.39 386.57,-1100.96 392.01,-1105.37"/>
</g>
<!-- Spilletta -->
<g id="node29" class="node">
<title>Spilletta</title>
<polygon fill="lightcoral" stroke="lightcoral" points="470.62,-1207 393.62,-1207 393.62,-1130 470.62,-1130 470.62,-1207"/>
<image xlink:href="img/mob.png" width="77px" height="77px" preserveAspectRatio="xMinYMin meet" x="393.625" y="-1207"/>
<text text-anchor="middle" x="432.12" y="-1162.7" font-family="MS Gothic" font-size="14.00">Spilletta</text>
</g>
<!-- Spilletta&#45;&gt;Eclipse -->
<g id="edge28" class="edge">
<title>Spilletta&#45;&gt;Eclipse</title>
<path fill="none" stroke="black" d="M430.42,-1129.61C430.07,-1121.84 429.7,-1113.56 429.33,-1105.46"/>
<polygon fill="black" stroke="black" points="432.84,-1105.56 428.89,-1095.73 425.85,-1105.88 432.84,-1105.56"/>
</g>
<!-- Sportsman -->
<g id="node30" class="node">
<title>Sportsman</title>
<polygon fill="lightblue" stroke="lightblue" points="573.62,-1207 496.62,-1207 496.62,-1130 573.62,-1130 573.62,-1207"/>
<image xlink:href="img/mob.png" width="77px" height="77px" preserveAspectRatio="xMinYMin meet" x="496.625" y="-1207"/>
<text text-anchor="middle" x="535.12" y="-1162.7" font-family="MS Gothic" font-size="14.00">Sportsman</text>
</g>
<!-- Sportsman&#45;&gt;Sportsmistress -->
<g id="edge29" class="edge">
<title>Sportsman&#45;&gt;Sportsmistress</title>
<path fill="none" stroke="black" d="M536.49,-1129.61C536.77,-1121.84 537.07,-1113.56 537.36,-1105.46"/>
<polygon fill="black" stroke="black" points="540.85,-1105.85 537.71,-1095.73 533.85,-1105.6 540.85,-1105.85"/>
</g>
<!-- Golden Locks -->
<g id="node31" class="node">
<title>Golden Locks</title>
<polygon fill="lightcoral" stroke="lightcoral" points="688.62,-1207 591.62,-1207 591.62,-1130 688.62,-1130 688.62,-1207"/>
<image xlink:href="img/mob.png" width="97px" height="77px" preserveAspectRatio="xMinYMin meet" x="591.625" y="-1207"/>
<text text-anchor="middle" x="640.12" y="-1162.7" font-family="MS Gothic" font-size="14.00">Golden Locks</text>
</g>
<!-- Golden Locks&#45;&gt;Sportsmistress -->
<g id="edge30" class="edge">
<title>Golden Locks&#45;&gt;Sportsmistress</title>
<path fill="none" stroke="black" d="M605.65,-1129.61C597.77,-1120.95 589.3,-1111.65 581.15,-1102.68"/>
<polygon fill="black" stroke="black" points="583.78,-1100.38 574.46,-1095.34 578.61,-1105.09 583.78,-1100.38"/>
</g>
<!-- Squirt -->
<g id="node32" class="node">
<title>Squirt</title>
<polygon fill="lightblue" stroke="lightblue" points="304.62,-1320 227.62,-1320 227.62,-1243 304.62,-1243 304.62,-1320"/>
<image xlink:href="img/mob.png" width="77px" height="77px" preserveAspectRatio="xMinYMin meet" x="227.625" y="-1320"/>
<text text-anchor="middle" x="266.12" y="-1275.7" font-family="MS Gothic" font-size="14.00">Squirt</text>
</g>
<!-- Squirt&#45;&gt;Marske -->
<g id="edge31" class="edge">
<title>Squirt&#45;&gt;Marske</title>
<path fill="none" stroke="black" d="M290.36,-1242.61C295.67,-1234.31 301.36,-1225.41 306.88,-1216.79"/>
<polygon fill="black" stroke="black" points="309.74,-1218.8 312.18,-1208.49 303.85,-1215.03 309.74,-1218.8"/>
</g>
<!-- Hutton&#39;s Blacklegs Mare -->
<g id="node33" class="node">
<title>Hutton&#39;s Blacklegs Mare</title>
<polygon fill="lightcoral" stroke="lightcoral" points="493.75,-1320 322.5,-1320 322.5,-1243 493.75,-1243 493.75,-1320"/>
<image xlink:href="img/mob.png" width="100px" height="77px" preserveAspectRatio="xMinYMin meet" x="358.125" y="-1320"/>
<text text-anchor="middle" x="408.12" y="-1275.7" font-family="MS Gothic" font-size="14.00">Hutton&#39;s Blacklegs Mare</text>
</g>
<!-- Hutton&#39;s Blacklegs Mare&#45;&gt;Marske -->
<g id="edge32" class="edge">
<title>Hutton&#39;s Blacklegs Mare&#45;&gt;Marske</title>
<path fill="none" stroke="black" d="M383.89,-1242.61C378.58,-1234.31 372.89,-1225.41 367.37,-1216.79"/>
<polygon fill="black" stroke="black" points="370.4,-1215.03 362.07,-1208.49 364.51,-1218.8 370.4,-1215.03"/>
</g>
<!-- Bartlet&#39;s Childers -->
<g id="node34" class="node">
<title>Bartlet&#39;s Childers</title>
<polygon fill="lightblue" stroke="lightblue" points="209.88,-1433 72.38,-1433 72.38,-1356 209.88,-1356 209.88,-1433"/>
<image xlink:href="img/mob.png" width="100px" height="77px" preserveAspectRatio="xMinYMin meet" x="91.125" y="-1433"/>
<text text-anchor="middle" x="141.12" y="-1388.7" font-family="MS Gothic" font-size="14.00">Bartlet&#39;s Childers</text>
</g>
<!-- Bartlet&#39;s Childers&#45;&gt;Squirt -->
<g id="edge33" class="edge">
<title>Bartlet&#39;s Childers&#45;&gt;Squirt</title>
<path fill="none" stroke="black" d="M183.79,-1355.61C195.18,-1345.5 207.54,-1334.53 219.14,-1324.22"/>
<polygon fill="black" stroke="black" points="221.14,-1327.13 226.29,-1317.87 216.49,-1321.89 221.14,-1327.13"/>
</g>
<!-- Snake Mare -->
<g id="node35" class="node">
<title>Snake Mare</title>
<polygon fill="lightcoral" stroke="lightcoral" points="311.88,-1433 228.38,-1433 228.38,-1356 311.88,-1356 311.88,-1433"/>
<image xlink:href="img/mob.png" width="83.5px" height="77px" preserveAspectRatio="xMinYMin meet" x="228.375" y="-1433"/>
<text text-anchor="middle" x="270.12" y="-1388.7" font-family="MS Gothic" font-size="14.00">Snake Mare</text>
</g>
<!-- Snake Mare&#45;&gt;Squirt -->
<g id="edge34" class="edge">
<title>Snake Mare&#45;&gt;Squirt</title>
<path fill="none" stroke="black" d="M268.76,-1355.61C268.48,-1347.84 268.18,-1339.56 267.89,-1331.46"/>
<polygon fill="black" stroke="black" points="271.4,-1331.6 267.54,-1321.73 264.4,-1331.85 271.4,-1331.6"/>
</g>
<!-- Hutton&#39;s Blacklegs -->
<g id="node36" class="node">
<title>Hutton&#39;s Blacklegs</title>
<polygon fill="lightblue" stroke="lightblue" points="473.88,-1433 336.38,-1433 336.38,-1356 473.88,-1356 473.88,-1433"/>
<image xlink:href="img/mob.png" width="100px" height="77px" preserveAspectRatio="xMinYMin meet" x="355.125" y="-1433"/>
<text text-anchor="middle" x="405.12" y="-1388.7" font-family="MS Gothic" font-size="14.00">Hutton&#39;s Blacklegs</text>
</g>
<!-- Hutton&#39;s Blacklegs&#45;&gt;Hutton&#39;s Blacklegs Mare -->
<g id="edge35" class="edge">
<title>Hutton&#39;s Blacklegs&#45;&gt;Hutton&#39;s Blacklegs Mare</title>
<path fill="none" stroke="black" d="M406.15,-1355.61C406.36,-1347.84 406.58,-1339.56 406.8,-1331.46"/>
<polygon fill="black" stroke="black" points="410.29,-1331.82 407.06,-1321.73 403.3,-1331.63 410.29,-1331.82"/>
</g>
<!-- Bay Bolton Mare -->
<g id="node37" class="node">
<title>Bay Bolton Mare</title>
<polygon fill="lightcoral" stroke="lightcoral" points="608.75,-1433 491.5,-1433 491.5,-1356 608.75,-1356 608.75,-1433"/>
<image xlink:href="img/mob.png" width="100px" height="77px" preserveAspectRatio="xMinYMin meet" x="500.125" y="-1433"/>
<text text-anchor="middle" x="550.12" y="-1388.7" font-family="MS Gothic" font-size="14.00">Bay Bolton Mare</text>
</g>
<!-- Bay Bolton Mare&#45;&gt;Hutton&#39;s Blacklegs Mare -->
<g id="edge36" class="edge">
<title>Bay Bolton Mare&#45;&gt;Hutton&#39;s Blacklegs Mare</title>
<path fill="none" stroke="black" d="M501.65,-1355.61C490,-1346.5 477.45,-1336.69 465.43,-1327.3"/>
<polygon fill="black" stroke="black" points="467.6,-1324.55 457.57,-1321.15 463.29,-1330.07 467.6,-1324.55"/>
</g>
<!-- ダーレーアラビアン -->
<g id="node38" class="node">
<title>ダーレーアラビアン</title>
<polygon fill="lightblue" stroke="lightblue" points="144.25,-1546 0,-1546 0,-1469 144.25,-1469 144.25,-1546"/>
<image xlink:href="img/darearabian.png" width="100px" height="77px" preserveAspectRatio="xMinYMin meet" x="22.125" y="-1546"/>
<text text-anchor="middle" x="72.12" y="-1501.7" font-family="MS Gothic" font-size="14.00">ダーレーアラビアン</text>
</g>
<!-- ダーレーアラビアン&#45;&gt;Bartlet&#39;s Childers -->
<g id="edge37" class="edge">
<title>ダーレーアラビアン&#45;&gt;Bartlet&#39;s Childers</title>
<path fill="none" stroke="black" d="M95.68,-1468.61C100.84,-1460.31 106.37,-1451.41 111.73,-1442.79"/>
<polygon fill="black" stroke="black" points="114.57,-1444.84 116.88,-1434.5 108.63,-1441.15 114.57,-1444.84"/>
</g>
<!-- Betty Leedes -->
<g id="node39" class="node">
<title>Betty Leedes</title>
<polygon fill="lightcoral" stroke="lightcoral" points="259.62,-1546 162.62,-1546 162.62,-1469 259.62,-1469 259.62,-1546"/>
<image xlink:href="img/mob.png" width="97px" height="77px" preserveAspectRatio="xMinYMin meet" x="162.625" y="-1546"/>
<text text-anchor="middle" x="211.12" y="-1501.7" font-family="MS Gothic" font-size="14.00">Betty Leedes</text>
</g>
<!-- Betty Leedes&#45;&gt;Bartlet&#39;s Childers -->
<g id="edge38" class="edge">
<title>Betty Leedes&#45;&gt;Bartlet&#39;s Childers</title>
<path fill="none" stroke="black" d="M187.23,-1468.61C181.99,-1460.31 176.39,-1451.41 170.95,-1442.79"/>
<polygon fill="black" stroke="black" points="174.01,-1441.09 165.72,-1434.5 168.09,-1444.82 174.01,-1441.09"/>
</g>
<!-- Old Careless -->
<g id="node40" class="node">
<title>Old Careless</title>
<polygon fill="lightblue" stroke="lightblue" points="201.62,-1659 104.62,-1659 104.62,-1582 201.62,-1582 201.62,-1659"/>
<image xlink:href="img/mob.png" width="97px" height="77px" preserveAspectRatio="xMinYMin meet" x="104.625" y="-1659"/>
<text text-anchor="middle" x="153.12" y="-1614.7" font-family="MS Gothic" font-size="14.00">Old Careless</text>
</g>
<!-- Old Careless&#45;&gt;Betty Leedes -->
<g id="edge39" class="edge">
<title>Old Careless&#45;&gt;Betty Leedes</title>
<path fill="none" stroke="black" d="M172.92,-1581.61C177.17,-1573.48 181.71,-1564.8 186.12,-1556.35"/>
<polygon fill="black" stroke="black" points="189.19,-1558.04 190.72,-1547.56 182.98,-1554.8 189.19,-1558.04"/>
</g>
<!-- Cream Cheeks -->
<g id="node41" class="node">
<title>Cream Cheeks</title>
<polygon fill="lightcoral" stroke="lightcoral" points="316.62,-1659 219.62,-1659 219.62,-1582 316.62,-1582 316.62,-1659"/>
<image xlink:href="img/mob.png" width="97px" height="77px" preserveAspectRatio="xMinYMin meet" x="219.625" y="-1659"/>
<text text-anchor="middle" x="268.12" y="-1614.7" font-family="MS Gothic" font-size="14.00">Cream Cheeks</text>
</g>
<!-- Cream Cheeks&#45;&gt;Betty Leedes -->
<g id="edge40" class="edge">
<title>Cream Cheeks&#45;&gt;Betty Leedes</title>
<path fill="none" stroke="black" d="M248.67,-1581.61C244.5,-1573.48 240.03,-1564.8 235.7,-1556.35"/>
<polygon fill="black" stroke="black" points="238.87,-1554.86 231.19,-1547.57 232.64,-1558.06 238.87,-1554.86"/>
</g>
</g>
</svg>
