<?xml version="1.0" encoding="UTF-8" standalone="no"?>
<!DOCTYPE svg PUBLIC "-//W3C//DTD SVG 1.1//EN"
 "http://www.w3.org/Graphics/SVG/1.1/DTD/svg11.dtd">
<!-- Generated by graphviz version 12.1.2 (20240928.0832)
 -->
<!-- Pages: 1 -->
<svg width="1382pt" height="1667pt"
 viewBox="0.00 0.00 1382.25 1667.00" xmlns="http://www.w3.org/2000/svg" xmlns:xlink="http://www.w3.org/1999/xlink">
<g id="graph0" class="graph" transform="scale(1 1) rotate(0) translate(4 1663)">
<polygon fill="white" stroke="none" points="-4,4 -4,-1663 1378.25,-1663 1378.25,4 -4,4"/>
<!-- Bend Or -->
<g id="node1" class="node">
<title>Bend Or</title>
<polygon fill="none" stroke="black" points="1217.62,-77 1140.62,-77 1140.62,0 1217.62,0 1217.62,-77"/>
<image xlink:href="img/mob.png" width="77px" height="77px" preserveAspectRatio="xMinYMin meet" x="1140.62" y="-77"/>
<text text-anchor="middle" x="1179.12" y="-33.45" font-family="Times New Roman,serif" font-size="14.00">Bend Or</text>
</g>
<!-- Doncaster -->
<g id="node2" class="node">
<title>Doncaster</title>
<polygon fill="lightblue" stroke="lightblue" points="1168.62,-190 1091.62,-190 1091.62,-113 1168.62,-113 1168.62,-190"/>
<image xlink:href="img/mob.png" width="77px" height="77px" preserveAspectRatio="xMinYMin meet" x="1091.62" y="-190"/>
<text text-anchor="middle" x="1130.12" y="-145.7" font-family="MS Gothic" font-size="14.00">Doncaster</text>
</g>
<!-- Doncaster&#45;&gt;Bend Or -->
<g id="edge1" class="edge">
<title>Doncaster&#45;&gt;Bend Or</title>
<path fill="none" stroke="black" d="M1146.85,-112.61C1150.4,-104.57 1154.19,-95.99 1157.88,-87.63"/>
<polygon fill="black" stroke="black" points="1161.03,-89.17 1161.86,-78.6 1154.62,-86.34 1161.03,-89.17"/>
</g>
<!-- Rouge Rose -->
<g id="node3" class="node">
<title>Rouge Rose</title>
<polygon fill="lightcoral" stroke="lightcoral" points="1269.88,-190 1186.38,-190 1186.38,-113 1269.88,-113 1269.88,-190"/>
<image xlink:href="img/mob.png" width="83.5px" height="77px" preserveAspectRatio="xMinYMin meet" x="1186.38" y="-190"/>
<text text-anchor="middle" x="1228.12" y="-145.7" font-family="MS Gothic" font-size="14.00">Rouge Rose</text>
</g>
<!-- Rouge Rose&#45;&gt;Bend Or -->
<g id="edge2" class="edge">
<title>Rouge Rose&#45;&gt;Bend Or</title>
<path fill="none" stroke="black" d="M1211.4,-112.61C1207.85,-104.57 1204.06,-95.99 1200.37,-87.63"/>
<polygon fill="black" stroke="black" points="1203.63,-86.34 1196.39,-78.6 1197.22,-89.17 1203.63,-86.34"/>
</g>
<!-- Stockwell -->
<g id="node4" class="node">
<title>Stockwell</title>
<polygon fill="lightblue" stroke="lightblue" points="1074.62,-303 997.62,-303 997.62,-226 1074.62,-226 1074.62,-303"/>
<image xlink:href="img/mob.png" width="77px" height="77px" preserveAspectRatio="xMinYMin meet" x="997.625" y="-303"/>
<text text-anchor="middle" x="1036.12" y="-258.7" font-family="MS Gothic" font-size="14.00">Stockwell</text>
</g>
<!-- Stockwell&#45;&gt;Doncaster -->
<g id="edge3" class="edge">
<title>Stockwell&#45;&gt;Doncaster</title>
<path fill="none" stroke="black" d="M1068.21,-225.61C1075.47,-217.04 1083.26,-207.84 1090.78,-198.96"/>
<polygon fill="black" stroke="black" points="1093.41,-201.27 1097.2,-191.37 1088.07,-196.74 1093.41,-201.27"/>
</g>
<!-- Marigold -->
<g id="node5" class="node">
<title>Marigold</title>
<polygon fill="lightcoral" stroke="lightcoral" points="1169.62,-303 1092.62,-303 1092.62,-226 1169.62,-226 1169.62,-303"/>
<image xlink:href="img/mob.png" width="77px" height="77px" preserveAspectRatio="xMinYMin meet" x="1092.62" y="-303"/>
<text text-anchor="middle" x="1131.12" y="-258.7" font-family="MS Gothic" font-size="14.00">Marigold</text>
</g>
<!-- Marigold&#45;&gt;Doncaster -->
<g id="edge4" class="edge">
<title>Marigold&#45;&gt;Doncaster</title>
<path fill="none" stroke="black" d="M1130.78,-225.61C1130.71,-217.84 1130.64,-209.56 1130.57,-201.46"/>
<polygon fill="black" stroke="black" points="1134.07,-201.7 1130.48,-191.73 1127.07,-201.76 1134.07,-201.7"/>
</g>
<!-- Thormanby -->
<g id="node6" class="node">
<title>Thormanby</title>
<polygon fill="lightblue" stroke="lightblue" points="1265.62,-303 1188.62,-303 1188.62,-226 1265.62,-226 1265.62,-303"/>
<image xlink:href="img/mob.png" width="77px" height="77px" preserveAspectRatio="xMinYMin meet" x="1188.62" y="-303"/>
<text text-anchor="middle" x="1227.12" y="-258.7" font-family="MS Gothic" font-size="14.00">Thormanby</text>
</g>
<!-- Thormanby&#45;&gt;Rouge Rose -->
<g id="edge5" class="edge">
<title>Thormanby&#45;&gt;Rouge Rose</title>
<path fill="none" stroke="black" d="M1227.47,-225.61C1227.54,-217.84 1227.61,-209.56 1227.68,-201.46"/>
<polygon fill="black" stroke="black" points="1231.18,-201.76 1227.77,-191.73 1224.18,-201.7 1231.18,-201.76"/>
</g>
<!-- Ellen Horne -->
<g id="node7" class="node">
<title>Ellen Horne</title>
<polygon fill="lightcoral" stroke="lightcoral" points="1374.25,-303 1284,-303 1284,-226 1374.25,-226 1374.25,-303"/>
<image xlink:href="img/mob.png" width="90.25px" height="77px" preserveAspectRatio="xMinYMin meet" x="1284" y="-303"/>
<text text-anchor="middle" x="1329.12" y="-258.7" font-family="MS Gothic" font-size="14.00">Ellen Horne</text>
</g>
<!-- Ellen Horne&#45;&gt;Rouge Rose -->
<g id="edge6" class="edge">
<title>Ellen Horne&#45;&gt;Rouge Rose</title>
<path fill="none" stroke="black" d="M1294.65,-225.61C1286.77,-216.95 1278.3,-207.65 1270.15,-198.68"/>
<polygon fill="black" stroke="black" points="1272.78,-196.38 1263.46,-191.34 1267.61,-201.09 1272.78,-196.38"/>
</g>
<!-- The Baron -->
<g id="node8" class="node">
<title>The Baron</title>
<polygon fill="lightblue" stroke="lightblue" points="1025.62,-416 948.62,-416 948.62,-339 1025.62,-339 1025.62,-416"/>
<image xlink:href="img/mob.png" width="77px" height="77px" preserveAspectRatio="xMinYMin meet" x="948.625" y="-416"/>
<text text-anchor="middle" x="987.12" y="-371.7" font-family="MS Gothic" font-size="14.00">The Baron</text>
</g>
<!-- The Baron&#45;&gt;Stockwell -->
<g id="edge7" class="edge">
<title>The Baron&#45;&gt;Stockwell</title>
<path fill="none" stroke="black" d="M1003.85,-338.61C1007.4,-330.57 1011.19,-321.99 1014.88,-313.63"/>
<polygon fill="black" stroke="black" points="1018.03,-315.17 1018.86,-304.6 1011.62,-312.34 1018.03,-315.17"/>
</g>
<!-- Pocahontas -->
<g id="node9" class="node">
<title>Pocahontas</title>
<polygon fill="lightcoral" stroke="lightcoral" points="1126.88,-416 1043.38,-416 1043.38,-339 1126.88,-339 1126.88,-416"/>
<image xlink:href="img/mob.png" width="83.5px" height="77px" preserveAspectRatio="xMinYMin meet" x="1043.38" y="-416"/>
<text text-anchor="middle" x="1085.12" y="-371.7" font-family="MS Gothic" font-size="14.00">Pocahontas</text>
</g>
<!-- Pocahontas&#45;&gt;Stockwell -->
<g id="edge8" class="edge">
<title>Pocahontas&#45;&gt;Stockwell</title>
<path fill="none" stroke="black" d="M1068.4,-338.61C1064.85,-330.57 1061.06,-321.99 1057.37,-313.63"/>
<polygon fill="black" stroke="black" points="1060.63,-312.34 1053.39,-304.6 1054.22,-315.17 1060.63,-312.34"/>
</g>
<!-- Birdcatcher -->
<g id="node10" class="node">
<title>Birdcatcher</title>
<polygon fill="lightblue" stroke="lightblue" points="931.25,-529 841,-529 841,-452 931.25,-452 931.25,-529"/>
<image xlink:href="img/mob.png" width="90.25px" height="77px" preserveAspectRatio="xMinYMin meet" x="841" y="-529"/>
<text text-anchor="middle" x="886.12" y="-484.7" font-family="MS Gothic" font-size="14.00">Birdcatcher</text>
</g>
<!-- Birdcatcher&#45;&gt;The Baron -->
<g id="edge9" class="edge">
<title>Birdcatcher&#45;&gt;The Baron</title>
<path fill="none" stroke="black" d="M920.6,-451.61C928.48,-442.95 936.95,-433.65 945.1,-424.68"/>
<polygon fill="black" stroke="black" points="947.64,-427.09 951.79,-417.34 942.47,-422.38 947.64,-427.09"/>
</g>
<!-- Echidna -->
<g id="node11" class="node">
<title>Echidna</title>
<polygon fill="lightcoral" stroke="lightcoral" points="1026.62,-529 949.62,-529 949.62,-452 1026.62,-452 1026.62,-529"/>
<image xlink:href="img/mob.png" width="77px" height="77px" preserveAspectRatio="xMinYMin meet" x="949.625" y="-529"/>
<text text-anchor="middle" x="988.12" y="-484.7" font-family="MS Gothic" font-size="14.00">Echidna</text>
</g>
<!-- Echidna&#45;&gt;The Baron -->
<g id="edge10" class="edge">
<title>Echidna&#45;&gt;The Baron</title>
<path fill="none" stroke="black" d="M987.78,-451.61C987.71,-443.84 987.64,-435.56 987.57,-427.46"/>
<polygon fill="black" stroke="black" points="991.07,-427.7 987.48,-417.73 984.07,-427.76 991.07,-427.7"/>
</g>
<!-- Glencoe -->
<g id="node12" class="node">
<title>Glencoe</title>
<polygon fill="lightblue" stroke="lightblue" points="1122.62,-529 1045.62,-529 1045.62,-452 1122.62,-452 1122.62,-529"/>
<image xlink:href="img/mob.png" width="77px" height="77px" preserveAspectRatio="xMinYMin meet" x="1045.62" y="-529"/>
<text text-anchor="middle" x="1084.12" y="-484.7" font-family="MS Gothic" font-size="14.00">Glencoe</text>
</g>
<!-- Glencoe&#45;&gt;Pocahontas -->
<g id="edge11" class="edge">
<title>Glencoe&#45;&gt;Pocahontas</title>
<path fill="none" stroke="black" d="M1084.47,-451.61C1084.54,-443.84 1084.61,-435.56 1084.68,-427.46"/>
<polygon fill="black" stroke="black" points="1088.18,-427.76 1084.77,-417.73 1081.18,-427.7 1088.18,-427.76"/>
</g>
<!-- Marpessa -->
<g id="node13" class="node">
<title>Marpessa</title>
<polygon fill="lightcoral" stroke="lightcoral" points="1217.62,-529 1140.62,-529 1140.62,-452 1217.62,-452 1217.62,-529"/>
<image xlink:href="img/mob.png" width="77px" height="77px" preserveAspectRatio="xMinYMin meet" x="1140.62" y="-529"/>
<text text-anchor="middle" x="1179.12" y="-484.7" font-family="MS Gothic" font-size="14.00">Marpessa</text>
</g>
<!-- Marpessa&#45;&gt;Pocahontas -->
<g id="edge12" class="edge">
<title>Marpessa&#45;&gt;Pocahontas</title>
<path fill="none" stroke="black" d="M1147.04,-451.61C1139.78,-443.04 1131.99,-433.84 1124.47,-424.96"/>
<polygon fill="black" stroke="black" points="1127.18,-422.74 1118.05,-417.37 1121.84,-427.27 1127.18,-422.74"/>
</g>
<!-- Sir Hercules -->
<g id="node14" class="node">
<title>Sir Hercules</title>
<polygon fill="lightblue" stroke="lightblue" points="882.62,-642 785.62,-642 785.62,-565 882.62,-565 882.62,-642"/>
<image xlink:href="img/mob.png" width="97px" height="77px" preserveAspectRatio="xMinYMin meet" x="785.625" y="-642"/>
<text text-anchor="middle" x="834.12" y="-597.7" font-family="MS Gothic" font-size="14.00">Sir Hercules</text>
</g>
<!-- Sir Hercules&#45;&gt;Birdcatcher -->
<g id="edge13" class="edge">
<title>Sir Hercules&#45;&gt;Birdcatcher</title>
<path fill="none" stroke="black" d="M851.88,-564.61C855.64,-556.57 859.66,-547.99 863.58,-539.63"/>
<polygon fill="black" stroke="black" points="866.74,-541.13 867.81,-530.59 860.4,-538.16 866.74,-541.13"/>
</g>
<!-- Guiccioli -->
<g id="node15" class="node">
<title>Guiccioli</title>
<polygon fill="lightcoral" stroke="lightcoral" points="977.62,-642 900.62,-642 900.62,-565 977.62,-565 977.62,-642"/>
<image xlink:href="img/mob.png" width="77px" height="77px" preserveAspectRatio="xMinYMin meet" x="900.625" y="-642"/>
<text text-anchor="middle" x="939.12" y="-597.7" font-family="MS Gothic" font-size="14.00">Guiccioli</text>
</g>
<!-- Guiccioli&#45;&gt;Birdcatcher -->
<g id="edge14" class="edge">
<title>Guiccioli&#45;&gt;Birdcatcher</title>
<path fill="none" stroke="black" d="M921.03,-564.61C917.15,-556.48 913.01,-547.8 908.97,-539.35"/>
<polygon fill="black" stroke="black" points="912.25,-538.1 904.79,-530.58 905.94,-541.12 912.25,-538.1"/>
</g>
<!-- Whalebone -->
<g id="node16" class="node">
<title>Whalebone</title>
<polygon fill="lightblue" stroke="lightblue" points="780.62,-755 703.62,-755 703.62,-678 780.62,-678 780.62,-755"/>
<image xlink:href="img/mob.png" width="77px" height="77px" preserveAspectRatio="xMinYMin meet" x="703.625" y="-755"/>
<text text-anchor="middle" x="742.12" y="-710.7" font-family="MS Gothic" font-size="14.00">Whalebone</text>
</g>
<!-- Whalebone&#45;&gt;Sir Hercules -->
<g id="edge15" class="edge">
<title>Whalebone&#45;&gt;Sir Hercules</title>
<path fill="none" stroke="black" d="M773.53,-677.61C780.63,-669.04 788.26,-659.84 795.62,-650.96"/>
<polygon fill="black" stroke="black" points="798.21,-653.32 801.9,-643.38 792.82,-648.85 798.21,-653.32"/>
</g>
<!-- Peri -->
<g id="node17" class="node">
<title>Peri</title>
<polygon fill="lightcoral" stroke="lightcoral" points="875.62,-755 798.62,-755 798.62,-678 875.62,-678 875.62,-755"/>
<image xlink:href="img/mob.png" width="77px" height="77px" preserveAspectRatio="xMinYMin meet" x="798.625" y="-755"/>
<text text-anchor="middle" x="837.12" y="-710.7" font-family="MS Gothic" font-size="14.00">Peri</text>
</g>
<!-- Peri&#45;&gt;Sir Hercules -->
<g id="edge16" class="edge">
<title>Peri&#45;&gt;Sir Hercules</title>
<path fill="none" stroke="black" d="M836.1,-677.61C835.89,-669.84 835.67,-661.56 835.45,-653.46"/>
<polygon fill="black" stroke="black" points="838.95,-653.63 835.19,-643.73 831.96,-653.82 838.95,-653.63"/>
</g>
<!-- Bob Booty -->
<g id="node18" class="node">
<title>Bob Booty</title>
<polygon fill="lightblue" stroke="lightblue" points="975.62,-755 898.62,-755 898.62,-678 975.62,-678 975.62,-755"/>
<image xlink:href="img/mob.png" width="77px" height="77px" preserveAspectRatio="xMinYMin meet" x="898.625" y="-755"/>
<text text-anchor="middle" x="937.12" y="-710.7" font-family="MS Gothic" font-size="14.00">Bob Booty</text>
</g>
<!-- Bob Booty&#45;&gt;Guiccioli -->
<g id="edge17" class="edge">
<title>Bob Booty&#45;&gt;Guiccioli</title>
<path fill="none" stroke="black" d="M937.81,-677.61C937.95,-669.84 938.1,-661.56 938.24,-653.46"/>
<polygon fill="black" stroke="black" points="941.74,-653.79 938.42,-643.73 934.74,-653.67 941.74,-653.79"/>
</g>
<!-- Flight -->
<g id="node19" class="node">
<title>Flight</title>
<polygon fill="lightcoral" stroke="lightcoral" points="1070.62,-755 993.62,-755 993.62,-678 1070.62,-678 1070.62,-755"/>
<image xlink:href="img/mob.png" width="77px" height="77px" preserveAspectRatio="xMinYMin meet" x="993.625" y="-755"/>
<text text-anchor="middle" x="1032.12" y="-710.7" font-family="MS Gothic" font-size="14.00">Flight</text>
</g>
<!-- Flight&#45;&gt;Guiccioli -->
<g id="edge18" class="edge">
<title>Flight&#45;&gt;Guiccioli</title>
<path fill="none" stroke="black" d="M1000.38,-677.61C993.2,-669.04 985.49,-659.84 978.05,-650.96"/>
<polygon fill="black" stroke="black" points="980.8,-648.8 971.7,-643.38 975.44,-653.29 980.8,-648.8"/>
</g>
<!-- Waxy -->
<g id="node20" class="node">
<title>Waxy</title>
<polygon fill="lightblue" stroke="lightblue" points="733.62,-868 656.62,-868 656.62,-791 733.62,-791 733.62,-868"/>
<image xlink:href="img/mob.png" width="77px" height="77px" preserveAspectRatio="xMinYMin meet" x="656.625" y="-868"/>
<text text-anchor="middle" x="695.12" y="-823.7" font-family="MS Gothic" font-size="14.00">Waxy</text>
</g>
<!-- Waxy&#45;&gt;Whalebone -->
<g id="edge19" class="edge">
<title>Waxy&#45;&gt;Whalebone</title>
<path fill="none" stroke="black" d="M711.17,-790.61C714.57,-782.57 718.21,-773.99 721.75,-765.63"/>
<polygon fill="black" stroke="black" points="724.89,-767.19 725.56,-756.61 718.44,-764.46 724.89,-767.19"/>
</g>
<!-- Penelope -->
<g id="node21" class="node">
<title>Penelope</title>
<polygon fill="lightcoral" stroke="lightcoral" points="828.62,-868 751.62,-868 751.62,-791 828.62,-791 828.62,-868"/>
<image xlink:href="img/mob.png" width="77px" height="77px" preserveAspectRatio="xMinYMin meet" x="751.625" y="-868"/>
<text text-anchor="middle" x="790.12" y="-823.7" font-family="MS Gothic" font-size="14.00">Penelope</text>
</g>
<!-- Penelope&#45;&gt;Whalebone -->
<g id="edge20" class="edge">
<title>Penelope&#45;&gt;Whalebone</title>
<path fill="none" stroke="black" d="M773.74,-790.61C770.26,-782.57 766.55,-773.99 762.94,-765.63"/>
<polygon fill="black" stroke="black" points="766.22,-764.4 759.04,-756.61 759.79,-767.18 766.22,-764.4"/>
</g>
<!-- Pot&#45;8&#45;Os -->
<g id="node22" class="node">
<title>Pot&#45;8&#45;Os</title>
<polygon fill="lightblue" stroke="lightblue" points="638.62,-981 561.62,-981 561.62,-904 638.62,-904 638.62,-981"/>
<image xlink:href="img/mob.png" width="77px" height="77px" preserveAspectRatio="xMinYMin meet" x="561.625" y="-981"/>
<text text-anchor="middle" x="600.12" y="-936.7" font-family="MS Gothic" font-size="14.00">Pot&#45;8&#45;Os</text>
</g>
<!-- Pot&#45;8&#45;Os&#45;&gt;Waxy -->
<g id="edge21" class="edge">
<title>Pot&#45;8&#45;Os&#45;&gt;Waxy</title>
<path fill="none" stroke="black" d="M632.55,-903.61C639.89,-895.04 647.76,-885.84 655.36,-876.96"/>
<polygon fill="black" stroke="black" points="658.02,-879.24 661.86,-869.37 652.7,-874.69 658.02,-879.24"/>
</g>
<!-- Maria III -->
<g id="node23" class="node">
<title>Maria III</title>
<polygon fill="lightcoral" stroke="lightcoral" points="733.62,-981 656.62,-981 656.62,-904 733.62,-904 733.62,-981"/>
<image xlink:href="img/mob.png" width="77px" height="77px" preserveAspectRatio="xMinYMin meet" x="656.625" y="-981"/>
<text text-anchor="middle" x="695.12" y="-936.7" font-family="MS Gothic" font-size="14.00">Maria III</text>
</g>
<!-- Maria III&#45;&gt;Waxy -->
<g id="edge22" class="edge">
<title>Maria III&#45;&gt;Waxy</title>
<path fill="none" stroke="black" d="M695.12,-903.61C695.12,-895.84 695.12,-887.56 695.12,-879.46"/>
<polygon fill="black" stroke="black" points="698.63,-879.73 695.13,-869.73 691.63,-879.73 698.63,-879.73"/>
</g>
<!-- Trumpator -->
<g id="node24" class="node">
<title>Trumpator</title>
<polygon fill="lightblue" stroke="lightblue" points="828.62,-981 751.62,-981 751.62,-904 828.62,-904 828.62,-981"/>
<image xlink:href="img/mob.png" width="77px" height="77px" preserveAspectRatio="xMinYMin meet" x="751.625" y="-981"/>
<text text-anchor="middle" x="790.12" y="-936.7" font-family="MS Gothic" font-size="14.00">Trumpator</text>
</g>
<!-- Trumpator&#45;&gt;Penelope -->
<g id="edge23" class="edge">
<title>Trumpator&#45;&gt;Penelope</title>
<path fill="none" stroke="black" d="M790.12,-903.61C790.12,-895.84 790.12,-887.56 790.12,-879.46"/>
<polygon fill="black" stroke="black" points="793.63,-879.73 790.13,-869.73 786.63,-879.73 793.63,-879.73"/>
</g>
<!-- Prunella -->
<g id="node25" class="node">
<title>Prunella</title>
<polygon fill="lightcoral" stroke="lightcoral" points="923.62,-981 846.62,-981 846.62,-904 923.62,-904 923.62,-981"/>
<image xlink:href="img/mob.png" width="77px" height="77px" preserveAspectRatio="xMinYMin meet" x="846.625" y="-981"/>
<text text-anchor="middle" x="885.12" y="-936.7" font-family="MS Gothic" font-size="14.00">Prunella</text>
</g>
<!-- Prunella&#45;&gt;Penelope -->
<g id="edge24" class="edge">
<title>Prunella&#45;&gt;Penelope</title>
<path fill="none" stroke="black" d="M852.7,-903.61C845.36,-895.04 837.49,-885.84 829.89,-876.96"/>
<polygon fill="black" stroke="black" points="832.55,-874.69 823.39,-869.37 827.23,-879.24 832.55,-874.69"/>
</g>
<!-- Eclipse -->
<g id="node26" class="node">
<title>Eclipse</title>
<polygon fill="lightblue" stroke="lightblue" points="582.62,-1094 505.62,-1094 505.62,-1017 582.62,-1017 582.62,-1094"/>
<image xlink:href="img/mob.png" width="77px" height="77px" preserveAspectRatio="xMinYMin meet" x="505.625" y="-1094"/>
<text text-anchor="middle" x="544.12" y="-1049.7" font-family="MS Gothic" font-size="14.00">Eclipse</text>
</g>
<!-- Eclipse&#45;&gt;Pot&#45;8&#45;Os -->
<g id="edge25" class="edge">
<title>Eclipse&#45;&gt;Pot&#45;8&#45;Os</title>
<path fill="none" stroke="black" d="M563.24,-1016.61C567.34,-1008.48 571.72,-999.8 575.99,-991.35"/>
<polygon fill="black" stroke="black" points="579.03,-993.07 580.41,-982.57 572.78,-989.92 579.03,-993.07"/>
</g>
<!-- Sportsmistress -->
<g id="node27" class="node">
<title>Sportsmistress</title>
<polygon fill="lightcoral" stroke="lightcoral" points="711.38,-1094 600.88,-1094 600.88,-1017 711.38,-1017 711.38,-1094"/>
<image xlink:href="img/mob.png" width="100px" height="77px" preserveAspectRatio="xMinYMin meet" x="606.125" y="-1094"/>
<text text-anchor="middle" x="656.12" y="-1049.7" font-family="MS Gothic" font-size="14.00">Sportsmistress</text>
</g>
<!-- Sportsmistress&#45;&gt;Pot&#45;8&#45;Os -->
<g id="edge26" class="edge">
<title>Sportsmistress&#45;&gt;Pot&#45;8&#45;Os</title>
<path fill="none" stroke="black" d="M637.01,-1016.61C632.91,-1008.48 628.53,-999.8 624.26,-991.35"/>
<polygon fill="black" stroke="black" points="627.47,-989.92 619.84,-982.57 621.22,-993.07 627.47,-989.92"/>
</g>
<!-- Marske -->
<g id="node28" class="node">
<title>Marske</title>
<polygon fill="lightblue" stroke="lightblue" points="492.62,-1207 415.62,-1207 415.62,-1130 492.62,-1130 492.62,-1207"/>
<image xlink:href="img/mob.png" width="77px" height="77px" preserveAspectRatio="xMinYMin meet" x="415.625" y="-1207"/>
<text text-anchor="middle" x="454.12" y="-1162.7" font-family="MS Gothic" font-size="14.00">Marske</text>
</g>
<!-- Marske&#45;&gt;Eclipse -->
<g id="edge27" class="edge">
<title>Marske&#45;&gt;Eclipse</title>
<path fill="none" stroke="black" d="M484.85,-1129.61C491.8,-1121.04 499.26,-1111.84 506.46,-1102.96"/>
<polygon fill="black" stroke="black" points="509.01,-1105.37 512.59,-1095.39 503.57,-1100.96 509.01,-1105.37"/>
</g>
<!-- Spilletta -->
<g id="node29" class="node">
<title>Spilletta</title>
<polygon fill="lightcoral" stroke="lightcoral" points="587.62,-1207 510.62,-1207 510.62,-1130 587.62,-1130 587.62,-1207"/>
<image xlink:href="img/mob.png" width="77px" height="77px" preserveAspectRatio="xMinYMin meet" x="510.625" y="-1207"/>
<text text-anchor="middle" x="549.12" y="-1162.7" font-family="MS Gothic" font-size="14.00">Spilletta</text>
</g>
<!-- Spilletta&#45;&gt;Eclipse -->
<g id="edge28" class="edge">
<title>Spilletta&#45;&gt;Eclipse</title>
<path fill="none" stroke="black" d="M547.42,-1129.61C547.07,-1121.84 546.7,-1113.56 546.33,-1105.46"/>
<polygon fill="black" stroke="black" points="549.84,-1105.56 545.89,-1095.73 542.85,-1105.88 549.84,-1105.56"/>
</g>
<!-- Sportsman -->
<g id="node30" class="node">
<title>Sportsman</title>
<polygon fill="lightblue" stroke="lightblue" points="690.62,-1207 613.62,-1207 613.62,-1130 690.62,-1130 690.62,-1207"/>
<image xlink:href="img/mob.png" width="77px" height="77px" preserveAspectRatio="xMinYMin meet" x="613.625" y="-1207"/>
<text text-anchor="middle" x="652.12" y="-1162.7" font-family="MS Gothic" font-size="14.00">Sportsman</text>
</g>
<!-- Sportsman&#45;&gt;Sportsmistress -->
<g id="edge29" class="edge">
<title>Sportsman&#45;&gt;Sportsmistress</title>
<path fill="none" stroke="black" d="M653.49,-1129.61C653.77,-1121.84 654.07,-1113.56 654.36,-1105.46"/>
<polygon fill="black" stroke="black" points="657.85,-1105.85 654.71,-1095.73 650.85,-1105.6 657.85,-1105.85"/>
</g>
<!-- Golden Locks -->
<g id="node31" class="node">
<title>Golden Locks</title>
<polygon fill="lightcoral" stroke="lightcoral" points="805.62,-1207 708.62,-1207 708.62,-1130 805.62,-1130 805.62,-1207"/>
<image xlink:href="img/mob.png" width="97px" height="77px" preserveAspectRatio="xMinYMin meet" x="708.625" y="-1207"/>
<text text-anchor="middle" x="757.12" y="-1162.7" font-family="MS Gothic" font-size="14.00">Golden Locks</text>
</g>
<!-- Golden Locks&#45;&gt;Sportsmistress -->
<g id="edge30" class="edge">
<title>Golden Locks&#45;&gt;Sportsmistress</title>
<path fill="none" stroke="black" d="M722.65,-1129.61C714.77,-1120.95 706.3,-1111.65 698.15,-1102.68"/>
<polygon fill="black" stroke="black" points="700.78,-1100.38 691.46,-1095.34 695.61,-1105.09 700.78,-1100.38"/>
</g>
<!-- Squirt -->
<g id="node32" class="node">
<title>Squirt</title>
<polygon fill="lightblue" stroke="lightblue" points="421.62,-1320 344.62,-1320 344.62,-1243 421.62,-1243 421.62,-1320"/>
<image xlink:href="img/mob.png" width="77px" height="77px" preserveAspectRatio="xMinYMin meet" x="344.625" y="-1320"/>
<text text-anchor="middle" x="383.12" y="-1275.7" font-family="MS Gothic" font-size="14.00">Squirt</text>
</g>
<!-- Squirt&#45;&gt;Marske -->
<g id="edge31" class="edge">
<title>Squirt&#45;&gt;Marske</title>
<path fill="none" stroke="black" d="M407.36,-1242.61C412.67,-1234.31 418.36,-1225.41 423.88,-1216.79"/>
<polygon fill="black" stroke="black" points="426.74,-1218.8 429.18,-1208.49 420.85,-1215.03 426.74,-1218.8"/>
</g>
<!-- Hutton&#39;s Blacklegs Mare -->
<g id="node33" class="node">
<title>Hutton&#39;s Blacklegs Mare</title>
<polygon fill="lightcoral" stroke="lightcoral" points="610.75,-1320 439.5,-1320 439.5,-1243 610.75,-1243 610.75,-1320"/>
<image xlink:href="img/mob.png" width="100px" height="77px" preserveAspectRatio="xMinYMin meet" x="475.125" y="-1320"/>
<text text-anchor="middle" x="525.12" y="-1275.7" font-family="MS Gothic" font-size="14.00">Hutton&#39;s Blacklegs Mare</text>
</g>
<!-- Hutton&#39;s Blacklegs Mare&#45;&gt;Marske -->
<g id="edge32" class="edge">
<title>Hutton&#39;s Blacklegs Mare&#45;&gt;Marske</title>
<path fill="none" stroke="black" d="M500.89,-1242.61C495.58,-1234.31 489.89,-1225.41 484.37,-1216.79"/>
<polygon fill="black" stroke="black" points="487.4,-1215.03 479.07,-1208.49 481.51,-1218.8 487.4,-1215.03"/>
</g>
<!-- Bartlet&#39;s Childers -->
<g id="node34" class="node">
<title>Bartlet&#39;s Childers</title>
<polygon fill="lightblue" stroke="lightblue" points="279.88,-1433 142.38,-1433 142.38,-1356 279.88,-1356 279.88,-1433"/>
<image xlink:href="img/mob.png" width="100px" height="77px" preserveAspectRatio="xMinYMin meet" x="161.125" y="-1433"/>
<text text-anchor="middle" x="211.12" y="-1388.7" font-family="MS Gothic" font-size="14.00">Bartlet&#39;s Childers</text>
</g>
<!-- Bartlet&#39;s Childers&#45;&gt;Squirt -->
<g id="edge33" class="edge">
<title>Bartlet&#39;s Childers&#45;&gt;Squirt</title>
<path fill="none" stroke="black" d="M269.84,-1355.61C290.91,-1342.01 314.43,-1326.83 334.55,-1313.85"/>
<polygon fill="black" stroke="black" points="336.35,-1316.85 342.85,-1308.49 332.55,-1310.97 336.35,-1316.85"/>
</g>
<!-- Snake Mare -->
<g id="node35" class="node">
<title>Snake Mare</title>
<polygon fill="lightcoral" stroke="lightcoral" points="428.88,-1433 345.38,-1433 345.38,-1356 428.88,-1356 428.88,-1433"/>
<image xlink:href="img/mob.png" width="83.5px" height="77px" preserveAspectRatio="xMinYMin meet" x="345.375" y="-1433"/>
<text text-anchor="middle" x="387.12" y="-1388.7" font-family="MS Gothic" font-size="14.00">Snake Mare</text>
</g>
<!-- Snake Mare&#45;&gt;Squirt -->
<g id="edge34" class="edge">
<title>Snake Mare&#45;&gt;Squirt</title>
<path fill="none" stroke="black" d="M385.76,-1355.61C385.48,-1347.84 385.18,-1339.56 384.89,-1331.46"/>
<polygon fill="black" stroke="black" points="388.4,-1331.6 384.54,-1321.73 381.4,-1331.85 388.4,-1331.6"/>
</g>
<!-- Hutton&#39;s Blacklegs -->
<g id="node36" class="node">
<title>Hutton&#39;s Blacklegs</title>
<polygon fill="lightblue" stroke="lightblue" points="590.88,-1433 453.38,-1433 453.38,-1356 590.88,-1356 590.88,-1433"/>
<image xlink:href="img/mob.png" width="100px" height="77px" preserveAspectRatio="xMinYMin meet" x="472.125" y="-1433"/>
<text text-anchor="middle" x="522.12" y="-1388.7" font-family="MS Gothic" font-size="14.00">Hutton&#39;s Blacklegs</text>
</g>
<!-- Hutton&#39;s Blacklegs&#45;&gt;Hutton&#39;s Blacklegs Mare -->
<g id="edge35" class="edge">
<title>Hutton&#39;s Blacklegs&#45;&gt;Hutton&#39;s Blacklegs Mare</title>
<path fill="none" stroke="black" d="M523.15,-1355.61C523.36,-1347.84 523.58,-1339.56 523.8,-1331.46"/>
<polygon fill="black" stroke="black" points="527.29,-1331.82 524.06,-1321.73 520.3,-1331.63 527.29,-1331.82"/>
</g>
<!-- Bay Bolton Mare -->
<g id="node37" class="node">
<title>Bay Bolton Mare</title>
<polygon fill="lightcoral" stroke="lightcoral" points="725.75,-1433 608.5,-1433 608.5,-1356 725.75,-1356 725.75,-1433"/>
<image xlink:href="img/mob.png" width="100px" height="77px" preserveAspectRatio="xMinYMin meet" x="617.125" y="-1433"/>
<text text-anchor="middle" x="667.12" y="-1388.7" font-family="MS Gothic" font-size="14.00">Bay Bolton Mare</text>
</g>
<!-- Bay Bolton Mare&#45;&gt;Hutton&#39;s Blacklegs Mare -->
<g id="edge36" class="edge">
<title>Bay Bolton Mare&#45;&gt;Hutton&#39;s Blacklegs Mare</title>
<path fill="none" stroke="black" d="M618.65,-1355.61C607,-1346.5 594.45,-1336.69 582.43,-1327.3"/>
<polygon fill="black" stroke="black" points="584.6,-1324.55 574.57,-1321.15 580.29,-1330.07 584.6,-1324.55"/>
</g>
<!-- ダーレーアラビアン -->
<g id="node38" class="node">
<title>ダーレーアラビアン</title>
<polygon fill="lightblue" stroke="lightblue" points="144.25,-1546 0,-1546 0,-1469 144.25,-1469 144.25,-1546"/>
<image xlink:href="img/darearabian.png" width="100px" height="77px" preserveAspectRatio="xMinYMin meet" x="22.125" y="-1546"/>
<text text-anchor="middle" x="72.12" y="-1501.7" font-family="MS Gothic" font-size="14.00">ダーレーアラビアン</text>
</g>
<!-- ダーレーアラビアン&#45;&gt;Bartlet&#39;s Childers -->
<g id="edge37" class="edge">
<title>ダーレーアラビアン&#45;&gt;Bartlet&#39;s Childers</title>
<path fill="none" stroke="black" d="M119.57,-1468.61C130.98,-1459.5 143.27,-1449.69 155.03,-1440.3"/>
<polygon fill="black" stroke="black" points="157.08,-1443.14 162.71,-1434.16 152.71,-1437.67 157.08,-1443.14"/>
</g>
<!-- Betty Leedes -->
<g id="node39" class="node">
<title>Betty Leedes</title>
<polygon fill="lightcoral" stroke="lightcoral" points="259.62,-1546 162.62,-1546 162.62,-1469 259.62,-1469 259.62,-1546"/>
<image xlink:href="img/mob.png" width="97px" height="77px" preserveAspectRatio="xMinYMin meet" x="162.625" y="-1546"/>
<text text-anchor="middle" x="211.12" y="-1501.7" font-family="MS Gothic" font-size="14.00">Betty Leedes</text>
</g>
<!-- Betty Leedes&#45;&gt;Bartlet&#39;s Childers -->
<g id="edge38" class="edge">
<title>Betty Leedes&#45;&gt;Bartlet&#39;s Childers</title>
<path fill="none" stroke="black" d="M211.12,-1468.61C211.12,-1460.84 211.12,-1452.56 211.12,-1444.46"/>
<polygon fill="black" stroke="black" points="214.63,-1444.73 211.13,-1434.73 207.63,-1444.73 214.63,-1444.73"/>
</g>
<!-- Old Careless -->
<g id="node40" class="node">
<title>Old Careless</title>
<polygon fill="lightblue" stroke="lightblue" points="144.62,-1659 47.62,-1659 47.62,-1582 144.62,-1582 144.62,-1659"/>
<image xlink:href="img/mob.png" width="97px" height="77px" preserveAspectRatio="xMinYMin meet" x="47.625" y="-1659"/>
<text text-anchor="middle" x="96.12" y="-1614.7" font-family="MS Gothic" font-size="14.00">Old Careless</text>
</g>
<!-- Old Careless&#45;&gt;Betty Leedes -->
<g id="edge39" class="edge">
<title>Old Careless&#45;&gt;Betty Leedes</title>
<path fill="none" stroke="black" d="M135.38,-1581.61C144.54,-1572.77 154.39,-1563.26 163.85,-1554.13"/>
<polygon fill="black" stroke="black" points="166.19,-1556.73 170.96,-1547.27 161.33,-1551.7 166.19,-1556.73"/>
</g>
<!-- Cream Cheeks -->
<g id="node41" class="node">
<title>Cream Cheeks</title>
<polygon fill="lightcoral" stroke="lightcoral" points="259.62,-1659 162.62,-1659 162.62,-1582 259.62,-1582 259.62,-1659"/>
<image xlink:href="img/mob.png" width="97px" height="77px" preserveAspectRatio="xMinYMin meet" x="162.625" y="-1659"/>
<text text-anchor="middle" x="211.12" y="-1614.7" font-family="MS Gothic" font-size="14.00">Cream Cheeks</text>
</g>
<!-- Cream Cheeks&#45;&gt;Betty Leedes -->
<g id="edge40" class="edge">
<title>Cream Cheeks&#45;&gt;Betty Leedes</title>
<path fill="none" stroke="black" d="M211.12,-1581.61C211.12,-1573.84 211.12,-1565.56 211.12,-1557.46"/>
<polygon fill="black" stroke="black" points="214.63,-1557.73 211.13,-1547.73 207.63,-1557.73 214.63,-1557.73"/>
</g>
<!-- Snake -->
<g id="node42" class="node">
<title>Snake</title>
<polygon fill="lightblue" stroke="lightblue" points="425.62,-1546 348.62,-1546 348.62,-1469 425.62,-1469 425.62,-1546"/>
<image xlink:href="img/mob.png" width="77px" height="77px" preserveAspectRatio="xMinYMin meet" x="348.625" y="-1546"/>
<text text-anchor="middle" x="387.12" y="-1501.7" font-family="MS Gothic" font-size="14.00">Snake</text>
</g>
<!-- Snake&#45;&gt;Snake Mare -->
<g id="edge41" class="edge">
<title>Snake&#45;&gt;Snake Mare</title>
<path fill="none" stroke="black" d="M387.12,-1468.61C387.12,-1460.84 387.12,-1452.56 387.12,-1444.46"/>
<polygon fill="black" stroke="black" points="390.63,-1444.73 387.13,-1434.73 383.63,-1444.73 390.63,-1444.73"/>
</g>
<!-- Grey Wilkes -->
<g id="node43" class="node">
<title>Grey Wilkes</title>
<polygon fill="lightcoral" stroke="lightcoral" points="585.25,-1546 495,-1546 495,-1469 585.25,-1469 585.25,-1546"/>
<image xlink:href="img/mob.png" width="90.25px" height="77px" preserveAspectRatio="xMinYMin meet" x="495" y="-1546"/>
<text text-anchor="middle" x="540.12" y="-1501.7" font-family="MS Gothic" font-size="14.00">Grey Wilkes</text>
</g>
<!-- Grey Wilkes&#45;&gt;Snake Mare -->
<g id="edge42" class="edge">
<title>Grey Wilkes&#45;&gt;Snake Mare</title>
<path fill="none" stroke="black" d="M494.63,-1473.5C477.01,-1460.71 456.73,-1446 438.58,-1432.83"/>
<polygon fill="black" stroke="black" points="440.68,-1430.03 430.53,-1426.99 436.57,-1435.69 440.68,-1430.03"/>
</g>
<!-- Lister Turk -->
<g id="node44" class="node">
<title>Lister Turk</title>
<polygon fill="lightblue" stroke="lightblue" points="368.25,-1659 278,-1659 278,-1582 368.25,-1582 368.25,-1659"/>
<image xlink:href="img/mob.png" width="90.25px" height="77px" preserveAspectRatio="xMinYMin meet" x="278" y="-1659"/>
<text text-anchor="middle" x="323.12" y="-1614.7" font-family="MS Gothic" font-size="14.00">Lister Turk</text>
</g>
<!-- Lister Turk&#45;&gt;Snake -->
<g id="edge43" class="edge">
<title>Lister Turk&#45;&gt;Snake</title>
<path fill="none" stroke="black" d="M344.97,-1581.61C349.71,-1573.39 354.78,-1564.6 359.7,-1556.07"/>
<polygon fill="black" stroke="black" points="362.66,-1557.94 364.62,-1547.53 356.59,-1554.44 362.66,-1557.94"/>
</g>
<!-- Hautboy Mare -->
<g id="node45" class="node">
<title>Hautboy Mare</title>
<polygon fill="lightcoral" stroke="lightcoral" points="483.62,-1659 386.62,-1659 386.62,-1582 483.62,-1582 483.62,-1659"/>
<image xlink:href="img/mob.png" width="97px" height="77px" preserveAspectRatio="xMinYMin meet" x="386.625" y="-1659"/>
<text text-anchor="middle" x="435.12" y="-1614.7" font-family="MS Gothic" font-size="14.00">Hautboy Mare</text>
</g>
<!-- Hautboy Mare&#45;&gt;Snake -->
<g id="edge44" class="edge">
<title>Hautboy Mare&#45;&gt;Snake</title>
<path fill="none" stroke="black" d="M418.74,-1581.61C415.26,-1573.57 411.55,-1564.99 407.94,-1556.63"/>
<polygon fill="black" stroke="black" points="411.22,-1555.4 404.04,-1547.61 404.79,-1558.18 411.22,-1555.4"/>
</g>
<!-- Hautboy -->
<g id="node46" class="node">
<title>Hautboy</title>
<polygon fill="lightblue" stroke="lightblue" points="578.62,-1659 501.62,-1659 501.62,-1582 578.62,-1582 578.62,-1659"/>
<image xlink:href="img/mob.png" width="77px" height="77px" preserveAspectRatio="xMinYMin meet" x="501.625" y="-1659"/>
<text text-anchor="middle" x="540.12" y="-1614.7" font-family="MS Gothic" font-size="14.00">Hautboy</text>
</g>
<!-- Hautboy&#45;&gt;Grey Wilkes -->
<g id="edge45" class="edge">
<title>Hautboy&#45;&gt;Grey Wilkes</title>
<path fill="none" stroke="black" d="M540.12,-1581.61C540.12,-1573.84 540.12,-1565.56 540.12,-1557.46"/>
<polygon fill="black" stroke="black" points="543.63,-1557.73 540.13,-1547.73 536.63,-1557.73 543.63,-1557.73"/>
</g>
<!-- Miss Darcys Pet Mare -->
<g id="node47" class="node">
<title>Miss Darcys Pet Mare</title>
<polygon fill="lightcoral" stroke="lightcoral" points="747.62,-1659 596.62,-1659 596.62,-1582 747.62,-1582 747.62,-1659"/>
<image xlink:href="img/mob.png" width="100px" height="77px" preserveAspectRatio="xMinYMin meet" x="622.125" y="-1659"/>
<text text-anchor="middle" x="672.12" y="-1614.7" font-family="MS Gothic" font-size="14.00">Miss Darcys Pet Mare</text>
</g>
<!-- Miss Darcys Pet Mare&#45;&gt;Grey Wilkes -->
<g id="edge46" class="edge">
<title>Miss Darcys Pet Mare&#45;&gt;Grey Wilkes</title>
<path fill="none" stroke="black" d="M627.07,-1581.61C616.34,-1572.59 604.79,-1562.88 593.73,-1553.57"/>
<polygon fill="black" stroke="black" points="596.04,-1550.95 586.14,-1547.19 591.54,-1556.31 596.04,-1550.95"/>
</g>
</g>
</svg>
