<?xml version="1.0" encoding="UTF-8" standalone="no"?>
<!DOCTYPE svg PUBLIC "-//W3C//DTD SVG 1.1//EN"
 "http://www.w3.org/Graphics/SVG/1.1/DTD/svg11.dtd">
<!-- Generated by graphviz version 12.1.2 (20240928.0832)
 -->
<!-- Pages: 1 -->
<svg width="1265pt" height="1667pt"
 viewBox="0.00 0.00 1265.25 1667.00" xmlns="http://www.w3.org/2000/svg" xmlns:xlink="http://www.w3.org/1999/xlink">
<g id="graph0" class="graph" transform="scale(1 1) rotate(0) translate(4 1663)">
<polygon fill="white" stroke="none" points="-4,4 -4,-1663 1261.25,-1663 1261.25,4 -4,4"/>
<!-- Bend Or -->
<g id="node1" class="node">
<title>Bend Or</title>
<polygon fill="none" stroke="black" points="1100.62,-77 1023.62,-77 1023.62,0 1100.62,0 1100.62,-77"/>
<image xlink:href="img/mob.png" width="77px" height="77px" preserveAspectRatio="xMinYMin meet" x="1023.62" y="-77"/>
<text text-anchor="middle" x="1062.12" y="-33.45" font-family="Times New Roman,serif" font-size="14.00">Bend Or</text>
</g>
<!-- Doncaster -->
<g id="node2" class="node">
<title>Doncaster</title>
<polygon fill="lightblue" stroke="lightblue" points="1051.62,-190 974.62,-190 974.62,-113 1051.62,-113 1051.62,-190"/>
<image xlink:href="img/mob.png" width="77px" height="77px" preserveAspectRatio="xMinYMin meet" x="974.625" y="-190"/>
<text text-anchor="middle" x="1013.12" y="-145.7" font-family="MS Gothic" font-size="14.00">Doncaster</text>
</g>
<!-- Doncaster&#45;&gt;Bend Or -->
<g id="edge1" class="edge">
<title>Doncaster&#45;&gt;Bend Or</title>
<path fill="none" stroke="black" d="M1029.85,-112.61C1033.4,-104.57 1037.19,-95.99 1040.88,-87.63"/>
<polygon fill="black" stroke="black" points="1044.03,-89.17 1044.86,-78.6 1037.62,-86.34 1044.03,-89.17"/>
</g>
<!-- Rouge Rose -->
<g id="node3" class="node">
<title>Rouge Rose</title>
<polygon fill="lightcoral" stroke="lightcoral" points="1152.88,-190 1069.38,-190 1069.38,-113 1152.88,-113 1152.88,-190"/>
<image xlink:href="img/mob.png" width="83.5px" height="77px" preserveAspectRatio="xMinYMin meet" x="1069.38" y="-190"/>
<text text-anchor="middle" x="1111.12" y="-145.7" font-family="MS Gothic" font-size="14.00">Rouge Rose</text>
</g>
<!-- Rouge Rose&#45;&gt;Bend Or -->
<g id="edge2" class="edge">
<title>Rouge Rose&#45;&gt;Bend Or</title>
<path fill="none" stroke="black" d="M1094.4,-112.61C1090.85,-104.57 1087.06,-95.99 1083.37,-87.63"/>
<polygon fill="black" stroke="black" points="1086.63,-86.34 1079.39,-78.6 1080.22,-89.17 1086.63,-86.34"/>
</g>
<!-- Stockwell -->
<g id="node4" class="node">
<title>Stockwell</title>
<polygon fill="lightblue" stroke="lightblue" points="957.62,-303 880.62,-303 880.62,-226 957.62,-226 957.62,-303"/>
<image xlink:href="img/mob.png" width="77px" height="77px" preserveAspectRatio="xMinYMin meet" x="880.625" y="-303"/>
<text text-anchor="middle" x="919.12" y="-258.7" font-family="MS Gothic" font-size="14.00">Stockwell</text>
</g>
<!-- Stockwell&#45;&gt;Doncaster -->
<g id="edge3" class="edge">
<title>Stockwell&#45;&gt;Doncaster</title>
<path fill="none" stroke="black" d="M951.21,-225.61C958.47,-217.04 966.26,-207.84 973.78,-198.96"/>
<polygon fill="black" stroke="black" points="976.41,-201.27 980.2,-191.37 971.07,-196.74 976.41,-201.27"/>
</g>
<!-- Marigold -->
<g id="node5" class="node">
<title>Marigold</title>
<polygon fill="lightcoral" stroke="lightcoral" points="1052.62,-303 975.62,-303 975.62,-226 1052.62,-226 1052.62,-303"/>
<image xlink:href="img/mob.png" width="77px" height="77px" preserveAspectRatio="xMinYMin meet" x="975.625" y="-303"/>
<text text-anchor="middle" x="1014.12" y="-258.7" font-family="MS Gothic" font-size="14.00">Marigold</text>
</g>
<!-- Marigold&#45;&gt;Doncaster -->
<g id="edge4" class="edge">
<title>Marigold&#45;&gt;Doncaster</title>
<path fill="none" stroke="black" d="M1013.78,-225.61C1013.71,-217.84 1013.64,-209.56 1013.57,-201.46"/>
<polygon fill="black" stroke="black" points="1017.07,-201.7 1013.48,-191.73 1010.07,-201.76 1017.07,-201.7"/>
</g>
<!-- Thormanby -->
<g id="node6" class="node">
<title>Thormanby</title>
<polygon fill="lightblue" stroke="lightblue" points="1148.62,-303 1071.62,-303 1071.62,-226 1148.62,-226 1148.62,-303"/>
<image xlink:href="img/mob.png" width="77px" height="77px" preserveAspectRatio="xMinYMin meet" x="1071.62" y="-303"/>
<text text-anchor="middle" x="1110.12" y="-258.7" font-family="MS Gothic" font-size="14.00">Thormanby</text>
</g>
<!-- Thormanby&#45;&gt;Rouge Rose -->
<g id="edge5" class="edge">
<title>Thormanby&#45;&gt;Rouge Rose</title>
<path fill="none" stroke="black" d="M1110.47,-225.61C1110.54,-217.84 1110.61,-209.56 1110.68,-201.46"/>
<polygon fill="black" stroke="black" points="1114.18,-201.76 1110.77,-191.73 1107.18,-201.7 1114.18,-201.76"/>
</g>
<!-- Ellen Horne -->
<g id="node7" class="node">
<title>Ellen Horne</title>
<polygon fill="lightcoral" stroke="lightcoral" points="1257.25,-303 1167,-303 1167,-226 1257.25,-226 1257.25,-303"/>
<image xlink:href="img/mob.png" width="90.25px" height="77px" preserveAspectRatio="xMinYMin meet" x="1167" y="-303"/>
<text text-anchor="middle" x="1212.12" y="-258.7" font-family="MS Gothic" font-size="14.00">Ellen Horne</text>
</g>
<!-- Ellen Horne&#45;&gt;Rouge Rose -->
<g id="edge6" class="edge">
<title>Ellen Horne&#45;&gt;Rouge Rose</title>
<path fill="none" stroke="black" d="M1177.65,-225.61C1169.77,-216.95 1161.3,-207.65 1153.15,-198.68"/>
<polygon fill="black" stroke="black" points="1155.78,-196.38 1146.46,-191.34 1150.61,-201.09 1155.78,-196.38"/>
</g>
<!-- The Baron -->
<g id="node8" class="node">
<title>The Baron</title>
<polygon fill="lightblue" stroke="lightblue" points="908.62,-416 831.62,-416 831.62,-339 908.62,-339 908.62,-416"/>
<image xlink:href="img/mob.png" width="77px" height="77px" preserveAspectRatio="xMinYMin meet" x="831.625" y="-416"/>
<text text-anchor="middle" x="870.12" y="-371.7" font-family="MS Gothic" font-size="14.00">The Baron</text>
</g>
<!-- The Baron&#45;&gt;Stockwell -->
<g id="edge7" class="edge">
<title>The Baron&#45;&gt;Stockwell</title>
<path fill="none" stroke="black" d="M886.85,-338.61C890.4,-330.57 894.19,-321.99 897.88,-313.63"/>
<polygon fill="black" stroke="black" points="901.03,-315.17 901.86,-304.6 894.62,-312.34 901.03,-315.17"/>
</g>
<!-- Pocahontas -->
<g id="node9" class="node">
<title>Pocahontas</title>
<polygon fill="lightcoral" stroke="lightcoral" points="1009.88,-416 926.38,-416 926.38,-339 1009.88,-339 1009.88,-416"/>
<image xlink:href="img/mob.png" width="83.5px" height="77px" preserveAspectRatio="xMinYMin meet" x="926.375" y="-416"/>
<text text-anchor="middle" x="968.12" y="-371.7" font-family="MS Gothic" font-size="14.00">Pocahontas</text>
</g>
<!-- Pocahontas&#45;&gt;Stockwell -->
<g id="edge8" class="edge">
<title>Pocahontas&#45;&gt;Stockwell</title>
<path fill="none" stroke="black" d="M951.4,-338.61C947.85,-330.57 944.06,-321.99 940.37,-313.63"/>
<polygon fill="black" stroke="black" points="943.63,-312.34 936.39,-304.6 937.22,-315.17 943.63,-312.34"/>
</g>
<!-- Birdcatcher -->
<g id="node10" class="node">
<title>Birdcatcher</title>
<polygon fill="lightblue" stroke="lightblue" points="814.25,-529 724,-529 724,-452 814.25,-452 814.25,-529"/>
<image xlink:href="img/mob.png" width="90.25px" height="77px" preserveAspectRatio="xMinYMin meet" x="724" y="-529"/>
<text text-anchor="middle" x="769.12" y="-484.7" font-family="MS Gothic" font-size="14.00">Birdcatcher</text>
</g>
<!-- Birdcatcher&#45;&gt;The Baron -->
<g id="edge9" class="edge">
<title>Birdcatcher&#45;&gt;The Baron</title>
<path fill="none" stroke="black" d="M803.6,-451.61C811.48,-442.95 819.95,-433.65 828.1,-424.68"/>
<polygon fill="black" stroke="black" points="830.64,-427.09 834.79,-417.34 825.47,-422.38 830.64,-427.09"/>
</g>
<!-- Echidna -->
<g id="node11" class="node">
<title>Echidna</title>
<polygon fill="lightcoral" stroke="lightcoral" points="909.62,-529 832.62,-529 832.62,-452 909.62,-452 909.62,-529"/>
<image xlink:href="img/mob.png" width="77px" height="77px" preserveAspectRatio="xMinYMin meet" x="832.625" y="-529"/>
<text text-anchor="middle" x="871.12" y="-484.7" font-family="MS Gothic" font-size="14.00">Echidna</text>
</g>
<!-- Echidna&#45;&gt;The Baron -->
<g id="edge10" class="edge">
<title>Echidna&#45;&gt;The Baron</title>
<path fill="none" stroke="black" d="M870.78,-451.61C870.71,-443.84 870.64,-435.56 870.57,-427.46"/>
<polygon fill="black" stroke="black" points="874.07,-427.7 870.48,-417.73 867.07,-427.76 874.07,-427.7"/>
</g>
<!-- Glencoe -->
<g id="node12" class="node">
<title>Glencoe</title>
<polygon fill="lightblue" stroke="lightblue" points="1005.62,-529 928.62,-529 928.62,-452 1005.62,-452 1005.62,-529"/>
<image xlink:href="img/mob.png" width="77px" height="77px" preserveAspectRatio="xMinYMin meet" x="928.625" y="-529"/>
<text text-anchor="middle" x="967.12" y="-484.7" font-family="MS Gothic" font-size="14.00">Glencoe</text>
</g>
<!-- Glencoe&#45;&gt;Pocahontas -->
<g id="edge11" class="edge">
<title>Glencoe&#45;&gt;Pocahontas</title>
<path fill="none" stroke="black" d="M967.47,-451.61C967.54,-443.84 967.61,-435.56 967.68,-427.46"/>
<polygon fill="black" stroke="black" points="971.18,-427.76 967.77,-417.73 964.18,-427.7 971.18,-427.76"/>
</g>
<!-- Marpessa -->
<g id="node13" class="node">
<title>Marpessa</title>
<polygon fill="lightcoral" stroke="lightcoral" points="1100.62,-529 1023.62,-529 1023.62,-452 1100.62,-452 1100.62,-529"/>
<image xlink:href="img/mob.png" width="77px" height="77px" preserveAspectRatio="xMinYMin meet" x="1023.62" y="-529"/>
<text text-anchor="middle" x="1062.12" y="-484.7" font-family="MS Gothic" font-size="14.00">Marpessa</text>
</g>
<!-- Marpessa&#45;&gt;Pocahontas -->
<g id="edge12" class="edge">
<title>Marpessa&#45;&gt;Pocahontas</title>
<path fill="none" stroke="black" d="M1030.04,-451.61C1022.78,-443.04 1014.99,-433.84 1007.47,-424.96"/>
<polygon fill="black" stroke="black" points="1010.18,-422.74 1001.05,-417.37 1004.84,-427.27 1010.18,-422.74"/>
</g>
<!-- Sir Hercules -->
<g id="node14" class="node">
<title>Sir Hercules</title>
<polygon fill="lightblue" stroke="lightblue" points="765.62,-642 668.62,-642 668.62,-565 765.62,-565 765.62,-642"/>
<image xlink:href="img/mob.png" width="97px" height="77px" preserveAspectRatio="xMinYMin meet" x="668.625" y="-642"/>
<text text-anchor="middle" x="717.12" y="-597.7" font-family="MS Gothic" font-size="14.00">Sir Hercules</text>
</g>
<!-- Sir Hercules&#45;&gt;Birdcatcher -->
<g id="edge13" class="edge">
<title>Sir Hercules&#45;&gt;Birdcatcher</title>
<path fill="none" stroke="black" d="M734.88,-564.61C738.64,-556.57 742.66,-547.99 746.58,-539.63"/>
<polygon fill="black" stroke="black" points="749.74,-541.13 750.81,-530.59 743.4,-538.16 749.74,-541.13"/>
</g>
<!-- Guiccioli -->
<g id="node15" class="node">
<title>Guiccioli</title>
<polygon fill="lightcoral" stroke="lightcoral" points="860.62,-642 783.62,-642 783.62,-565 860.62,-565 860.62,-642"/>
<image xlink:href="img/mob.png" width="77px" height="77px" preserveAspectRatio="xMinYMin meet" x="783.625" y="-642"/>
<text text-anchor="middle" x="822.12" y="-597.7" font-family="MS Gothic" font-size="14.00">Guiccioli</text>
</g>
<!-- Guiccioli&#45;&gt;Birdcatcher -->
<g id="edge14" class="edge">
<title>Guiccioli&#45;&gt;Birdcatcher</title>
<path fill="none" stroke="black" d="M804.03,-564.61C800.15,-556.48 796.01,-547.8 791.97,-539.35"/>
<polygon fill="black" stroke="black" points="795.25,-538.1 787.79,-530.58 788.94,-541.12 795.25,-538.1"/>
</g>
<!-- Whalebone -->
<g id="node16" class="node">
<title>Whalebone</title>
<polygon fill="lightblue" stroke="lightblue" points="663.62,-755 586.62,-755 586.62,-678 663.62,-678 663.62,-755"/>
<image xlink:href="img/mob.png" width="77px" height="77px" preserveAspectRatio="xMinYMin meet" x="586.625" y="-755"/>
<text text-anchor="middle" x="625.12" y="-710.7" font-family="MS Gothic" font-size="14.00">Whalebone</text>
</g>
<!-- Whalebone&#45;&gt;Sir Hercules -->
<g id="edge15" class="edge">
<title>Whalebone&#45;&gt;Sir Hercules</title>
<path fill="none" stroke="black" d="M656.53,-677.61C663.63,-669.04 671.26,-659.84 678.62,-650.96"/>
<polygon fill="black" stroke="black" points="681.21,-653.32 684.9,-643.38 675.82,-648.85 681.21,-653.32"/>
</g>
<!-- Peri -->
<g id="node17" class="node">
<title>Peri</title>
<polygon fill="lightcoral" stroke="lightcoral" points="758.62,-755 681.62,-755 681.62,-678 758.62,-678 758.62,-755"/>
<image xlink:href="img/mob.png" width="77px" height="77px" preserveAspectRatio="xMinYMin meet" x="681.625" y="-755"/>
<text text-anchor="middle" x="720.12" y="-710.7" font-family="MS Gothic" font-size="14.00">Peri</text>
</g>
<!-- Peri&#45;&gt;Sir Hercules -->
<g id="edge16" class="edge">
<title>Peri&#45;&gt;Sir Hercules</title>
<path fill="none" stroke="black" d="M719.1,-677.61C718.89,-669.84 718.67,-661.56 718.45,-653.46"/>
<polygon fill="black" stroke="black" points="721.95,-653.63 718.19,-643.73 714.96,-653.82 721.95,-653.63"/>
</g>
<!-- Bob Booty -->
<g id="node18" class="node">
<title>Bob Booty</title>
<polygon fill="lightblue" stroke="lightblue" points="858.62,-755 781.62,-755 781.62,-678 858.62,-678 858.62,-755"/>
<image xlink:href="img/mob.png" width="77px" height="77px" preserveAspectRatio="xMinYMin meet" x="781.625" y="-755"/>
<text text-anchor="middle" x="820.12" y="-710.7" font-family="MS Gothic" font-size="14.00">Bob Booty</text>
</g>
<!-- Bob Booty&#45;&gt;Guiccioli -->
<g id="edge17" class="edge">
<title>Bob Booty&#45;&gt;Guiccioli</title>
<path fill="none" stroke="black" d="M820.81,-677.61C820.95,-669.84 821.1,-661.56 821.24,-653.46"/>
<polygon fill="black" stroke="black" points="824.74,-653.79 821.42,-643.73 817.74,-653.67 824.74,-653.79"/>
</g>
<!-- Flight -->
<g id="node19" class="node">
<title>Flight</title>
<polygon fill="lightcoral" stroke="lightcoral" points="953.62,-755 876.62,-755 876.62,-678 953.62,-678 953.62,-755"/>
<image xlink:href="img/mob.png" width="77px" height="77px" preserveAspectRatio="xMinYMin meet" x="876.625" y="-755"/>
<text text-anchor="middle" x="915.12" y="-710.7" font-family="MS Gothic" font-size="14.00">Flight</text>
</g>
<!-- Flight&#45;&gt;Guiccioli -->
<g id="edge18" class="edge">
<title>Flight&#45;&gt;Guiccioli</title>
<path fill="none" stroke="black" d="M883.38,-677.61C876.2,-669.04 868.49,-659.84 861.05,-650.96"/>
<polygon fill="black" stroke="black" points="863.8,-648.8 854.7,-643.38 858.44,-653.29 863.8,-648.8"/>
</g>
<!-- Waxy -->
<g id="node20" class="node">
<title>Waxy</title>
<polygon fill="lightblue" stroke="lightblue" points="616.62,-868 539.62,-868 539.62,-791 616.62,-791 616.62,-868"/>
<image xlink:href="img/mob.png" width="77px" height="77px" preserveAspectRatio="xMinYMin meet" x="539.625" y="-868"/>
<text text-anchor="middle" x="578.12" y="-823.7" font-family="MS Gothic" font-size="14.00">Waxy</text>
</g>
<!-- Waxy&#45;&gt;Whalebone -->
<g id="edge19" class="edge">
<title>Waxy&#45;&gt;Whalebone</title>
<path fill="none" stroke="black" d="M594.17,-790.61C597.57,-782.57 601.21,-773.99 604.75,-765.63"/>
<polygon fill="black" stroke="black" points="607.89,-767.19 608.56,-756.61 601.44,-764.46 607.89,-767.19"/>
</g>
<!-- Penelope -->
<g id="node21" class="node">
<title>Penelope</title>
<polygon fill="lightcoral" stroke="lightcoral" points="711.62,-868 634.62,-868 634.62,-791 711.62,-791 711.62,-868"/>
<image xlink:href="img/mob.png" width="77px" height="77px" preserveAspectRatio="xMinYMin meet" x="634.625" y="-868"/>
<text text-anchor="middle" x="673.12" y="-823.7" font-family="MS Gothic" font-size="14.00">Penelope</text>
</g>
<!-- Penelope&#45;&gt;Whalebone -->
<g id="edge20" class="edge">
<title>Penelope&#45;&gt;Whalebone</title>
<path fill="none" stroke="black" d="M656.74,-790.61C653.26,-782.57 649.55,-773.99 645.94,-765.63"/>
<polygon fill="black" stroke="black" points="649.22,-764.4 642.04,-756.61 642.79,-767.18 649.22,-764.4"/>
</g>
<!-- Pot&#45;8&#45;Os -->
<g id="node22" class="node">
<title>Pot&#45;8&#45;Os</title>
<polygon fill="lightblue" stroke="lightblue" points="521.62,-981 444.62,-981 444.62,-904 521.62,-904 521.62,-981"/>
<image xlink:href="img/mob.png" width="77px" height="77px" preserveAspectRatio="xMinYMin meet" x="444.625" y="-981"/>
<text text-anchor="middle" x="483.12" y="-936.7" font-family="MS Gothic" font-size="14.00">Pot&#45;8&#45;Os</text>
</g>
<!-- Pot&#45;8&#45;Os&#45;&gt;Waxy -->
<g id="edge21" class="edge">
<title>Pot&#45;8&#45;Os&#45;&gt;Waxy</title>
<path fill="none" stroke="black" d="M515.55,-903.61C522.89,-895.04 530.76,-885.84 538.36,-876.96"/>
<polygon fill="black" stroke="black" points="541.02,-879.24 544.86,-869.37 535.7,-874.69 541.02,-879.24"/>
</g>
<!-- Maria III -->
<g id="node23" class="node">
<title>Maria III</title>
<polygon fill="lightcoral" stroke="lightcoral" points="616.62,-981 539.62,-981 539.62,-904 616.62,-904 616.62,-981"/>
<image xlink:href="img/mob.png" width="77px" height="77px" preserveAspectRatio="xMinYMin meet" x="539.625" y="-981"/>
<text text-anchor="middle" x="578.12" y="-936.7" font-family="MS Gothic" font-size="14.00">Maria III</text>
</g>
<!-- Maria III&#45;&gt;Waxy -->
<g id="edge22" class="edge">
<title>Maria III&#45;&gt;Waxy</title>
<path fill="none" stroke="black" d="M578.12,-903.61C578.12,-895.84 578.12,-887.56 578.12,-879.46"/>
<polygon fill="black" stroke="black" points="581.63,-879.73 578.13,-869.73 574.63,-879.73 581.63,-879.73"/>
</g>
<!-- Trumpator -->
<g id="node24" class="node">
<title>Trumpator</title>
<polygon fill="lightblue" stroke="lightblue" points="711.62,-981 634.62,-981 634.62,-904 711.62,-904 711.62,-981"/>
<image xlink:href="img/mob.png" width="77px" height="77px" preserveAspectRatio="xMinYMin meet" x="634.625" y="-981"/>
<text text-anchor="middle" x="673.12" y="-936.7" font-family="MS Gothic" font-size="14.00">Trumpator</text>
</g>
<!-- Trumpator&#45;&gt;Penelope -->
<g id="edge23" class="edge">
<title>Trumpator&#45;&gt;Penelope</title>
<path fill="none" stroke="black" d="M673.12,-903.61C673.12,-895.84 673.12,-887.56 673.12,-879.46"/>
<polygon fill="black" stroke="black" points="676.63,-879.73 673.13,-869.73 669.63,-879.73 676.63,-879.73"/>
</g>
<!-- Prunella -->
<g id="node25" class="node">
<title>Prunella</title>
<polygon fill="lightcoral" stroke="lightcoral" points="806.62,-981 729.62,-981 729.62,-904 806.62,-904 806.62,-981"/>
<image xlink:href="img/mob.png" width="77px" height="77px" preserveAspectRatio="xMinYMin meet" x="729.625" y="-981"/>
<text text-anchor="middle" x="768.12" y="-936.7" font-family="MS Gothic" font-size="14.00">Prunella</text>
</g>
<!-- Prunella&#45;&gt;Penelope -->
<g id="edge24" class="edge">
<title>Prunella&#45;&gt;Penelope</title>
<path fill="none" stroke="black" d="M735.7,-903.61C728.36,-895.04 720.49,-885.84 712.89,-876.96"/>
<polygon fill="black" stroke="black" points="715.55,-874.69 706.39,-869.37 710.23,-879.24 715.55,-874.69"/>
</g>
<!-- Eclipse -->
<g id="node26" class="node">
<title>Eclipse</title>
<polygon fill="lightblue" stroke="lightblue" points="465.62,-1094 388.62,-1094 388.62,-1017 465.62,-1017 465.62,-1094"/>
<image xlink:href="img/mob.png" width="77px" height="77px" preserveAspectRatio="xMinYMin meet" x="388.625" y="-1094"/>
<text text-anchor="middle" x="427.12" y="-1049.7" font-family="MS Gothic" font-size="14.00">Eclipse</text>
</g>
<!-- Eclipse&#45;&gt;Pot&#45;8&#45;Os -->
<g id="edge25" class="edge">
<title>Eclipse&#45;&gt;Pot&#45;8&#45;Os</title>
<path fill="none" stroke="black" d="M446.24,-1016.61C450.34,-1008.48 454.72,-999.8 458.99,-991.35"/>
<polygon fill="black" stroke="black" points="462.03,-993.07 463.41,-982.57 455.78,-989.92 462.03,-993.07"/>
</g>
<!-- Sportsmistress -->
<g id="node27" class="node">
<title>Sportsmistress</title>
<polygon fill="lightcoral" stroke="lightcoral" points="594.38,-1094 483.88,-1094 483.88,-1017 594.38,-1017 594.38,-1094"/>
<image xlink:href="img/mob.png" width="100px" height="77px" preserveAspectRatio="xMinYMin meet" x="489.125" y="-1094"/>
<text text-anchor="middle" x="539.12" y="-1049.7" font-family="MS Gothic" font-size="14.00">Sportsmistress</text>
</g>
<!-- Sportsmistress&#45;&gt;Pot&#45;8&#45;Os -->
<g id="edge26" class="edge">
<title>Sportsmistress&#45;&gt;Pot&#45;8&#45;Os</title>
<path fill="none" stroke="black" d="M520.01,-1016.61C515.91,-1008.48 511.53,-999.8 507.26,-991.35"/>
<polygon fill="black" stroke="black" points="510.47,-989.92 502.84,-982.57 504.22,-993.07 510.47,-989.92"/>
</g>
<!-- Marske -->
<g id="node28" class="node">
<title>Marske</title>
<polygon fill="lightblue" stroke="lightblue" points="375.62,-1207 298.62,-1207 298.62,-1130 375.62,-1130 375.62,-1207"/>
<image xlink:href="img/mob.png" width="77px" height="77px" preserveAspectRatio="xMinYMin meet" x="298.625" y="-1207"/>
<text text-anchor="middle" x="337.12" y="-1162.7" font-family="MS Gothic" font-size="14.00">Marske</text>
</g>
<!-- Marske&#45;&gt;Eclipse -->
<g id="edge27" class="edge">
<title>Marske&#45;&gt;Eclipse</title>
<path fill="none" stroke="black" d="M367.85,-1129.61C374.8,-1121.04 382.26,-1111.84 389.46,-1102.96"/>
<polygon fill="black" stroke="black" points="392.01,-1105.37 395.59,-1095.39 386.57,-1100.96 392.01,-1105.37"/>
</g>
<!-- Spilletta -->
<g id="node29" class="node">
<title>Spilletta</title>
<polygon fill="lightcoral" stroke="lightcoral" points="470.62,-1207 393.62,-1207 393.62,-1130 470.62,-1130 470.62,-1207"/>
<image xlink:href="img/mob.png" width="77px" height="77px" preserveAspectRatio="xMinYMin meet" x="393.625" y="-1207"/>
<text text-anchor="middle" x="432.12" y="-1162.7" font-family="MS Gothic" font-size="14.00">Spilletta</text>
</g>
<!-- Spilletta&#45;&gt;Eclipse -->
<g id="edge28" class="edge">
<title>Spilletta&#45;&gt;Eclipse</title>
<path fill="none" stroke="black" d="M430.42,-1129.61C430.07,-1121.84 429.7,-1113.56 429.33,-1105.46"/>
<polygon fill="black" stroke="black" points="432.84,-1105.56 428.89,-1095.73 425.85,-1105.88 432.84,-1105.56"/>
</g>
<!-- Sportsman -->
<g id="node30" class="node">
<title>Sportsman</title>
<polygon fill="lightblue" stroke="lightblue" points="573.62,-1207 496.62,-1207 496.62,-1130 573.62,-1130 573.62,-1207"/>
<image xlink:href="img/mob.png" width="77px" height="77px" preserveAspectRatio="xMinYMin meet" x="496.625" y="-1207"/>
<text text-anchor="middle" x="535.12" y="-1162.7" font-family="MS Gothic" font-size="14.00">Sportsman</text>
</g>
<!-- Sportsman&#45;&gt;Sportsmistress -->
<g id="edge29" class="edge">
<title>Sportsman&#45;&gt;Sportsmistress</title>
<path fill="none" stroke="black" d="M536.49,-1129.61C536.77,-1121.84 537.07,-1113.56 537.36,-1105.46"/>
<polygon fill="black" stroke="black" points="540.85,-1105.85 537.71,-1095.73 533.85,-1105.6 540.85,-1105.85"/>
</g>
<!-- Golden Locks -->
<g id="node31" class="node">
<title>Golden Locks</title>
<polygon fill="lightcoral" stroke="lightcoral" points="688.62,-1207 591.62,-1207 591.62,-1130 688.62,-1130 688.62,-1207"/>
<image xlink:href="img/mob.png" width="97px" height="77px" preserveAspectRatio="xMinYMin meet" x="591.625" y="-1207"/>
<text text-anchor="middle" x="640.12" y="-1162.7" font-family="MS Gothic" font-size="14.00">Golden Locks</text>
</g>
<!-- Golden Locks&#45;&gt;Sportsmistress -->
<g id="edge30" class="edge">
<title>Golden Locks&#45;&gt;Sportsmistress</title>
<path fill="none" stroke="black" d="M605.65,-1129.61C597.77,-1120.95 589.3,-1111.65 581.15,-1102.68"/>
<polygon fill="black" stroke="black" points="583.78,-1100.38 574.46,-1095.34 578.61,-1105.09 583.78,-1100.38"/>
</g>
<!-- Squirt -->
<g id="node32" class="node">
<title>Squirt</title>
<polygon fill="lightblue" stroke="lightblue" points="304.62,-1320 227.62,-1320 227.62,-1243 304.62,-1243 304.62,-1320"/>
<image xlink:href="img/mob.png" width="77px" height="77px" preserveAspectRatio="xMinYMin meet" x="227.625" y="-1320"/>
<text text-anchor="middle" x="266.12" y="-1275.7" font-family="MS Gothic" font-size="14.00">Squirt</text>
</g>
<!-- Squirt&#45;&gt;Marske -->
<g id="edge31" class="edge">
<title>Squirt&#45;&gt;Marske</title>
<path fill="none" stroke="black" d="M290.36,-1242.61C295.67,-1234.31 301.36,-1225.41 306.88,-1216.79"/>
<polygon fill="black" stroke="black" points="309.74,-1218.8 312.18,-1208.49 303.85,-1215.03 309.74,-1218.8"/>
</g>
<!-- Hutton&#39;s Blacklegs Mare -->
<g id="node33" class="node">
<title>Hutton&#39;s Blacklegs Mare</title>
<polygon fill="lightcoral" stroke="lightcoral" points="493.75,-1320 322.5,-1320 322.5,-1243 493.75,-1243 493.75,-1320"/>
<image xlink:href="img/mob.png" width="100px" height="77px" preserveAspectRatio="xMinYMin meet" x="358.125" y="-1320"/>
<text text-anchor="middle" x="408.12" y="-1275.7" font-family="MS Gothic" font-size="14.00">Hutton&#39;s Blacklegs Mare</text>
</g>
<!-- Hutton&#39;s Blacklegs Mare&#45;&gt;Marske -->
<g id="edge32" class="edge">
<title>Hutton&#39;s Blacklegs Mare&#45;&gt;Marske</title>
<path fill="none" stroke="black" d="M383.89,-1242.61C378.58,-1234.31 372.89,-1225.41 367.37,-1216.79"/>
<polygon fill="black" stroke="black" points="370.4,-1215.03 362.07,-1208.49 364.51,-1218.8 370.4,-1215.03"/>
</g>
<!-- Bartlet&#39;s Childers -->
<g id="node34" class="node">
<title>Bartlet&#39;s Childers</title>
<polygon fill="lightblue" stroke="lightblue" points="209.88,-1433 72.38,-1433 72.38,-1356 209.88,-1356 209.88,-1433"/>
<image xlink:href="img/mob.png" width="100px" height="77px" preserveAspectRatio="xMinYMin meet" x="91.125" y="-1433"/>
<text text-anchor="middle" x="141.12" y="-1388.7" font-family="MS Gothic" font-size="14.00">Bartlet&#39;s Childers</text>
</g>
<!-- Bartlet&#39;s Childers&#45;&gt;Squirt -->
<g id="edge33" class="edge">
<title>Bartlet&#39;s Childers&#45;&gt;Squirt</title>
<path fill="none" stroke="black" d="M183.79,-1355.61C195.18,-1345.5 207.54,-1334.53 219.14,-1324.22"/>
<polygon fill="black" stroke="black" points="221.14,-1327.13 226.29,-1317.87 216.49,-1321.89 221.14,-1327.13"/>
</g>
<!-- Snake Mare -->
<g id="node35" class="node">
<title>Snake Mare</title>
<polygon fill="lightcoral" stroke="lightcoral" points="311.88,-1433 228.38,-1433 228.38,-1356 311.88,-1356 311.88,-1433"/>
<image xlink:href="img/mob.png" width="83.5px" height="77px" preserveAspectRatio="xMinYMin meet" x="228.375" y="-1433"/>
<text text-anchor="middle" x="270.12" y="-1388.7" font-family="MS Gothic" font-size="14.00">Snake Mare</text>
</g>
<!-- Snake Mare&#45;&gt;Squirt -->
<g id="edge34" class="edge">
<title>Snake Mare&#45;&gt;Squirt</title>
<path fill="none" stroke="black" d="M268.76,-1355.61C268.48,-1347.84 268.18,-1339.56 267.89,-1331.46"/>
<polygon fill="black" stroke="black" points="271.4,-1331.6 267.54,-1321.73 264.4,-1331.85 271.4,-1331.6"/>
</g>
<!-- Hutton&#39;s Blacklegs -->
<g id="node36" class="node">
<title>Hutton&#39;s Blacklegs</title>
<polygon fill="lightblue" stroke="lightblue" points="473.88,-1433 336.38,-1433 336.38,-1356 473.88,-1356 473.88,-1433"/>
<image xlink:href="img/mob.png" width="100px" height="77px" preserveAspectRatio="xMinYMin meet" x="355.125" y="-1433"/>
<text text-anchor="middle" x="405.12" y="-1388.7" font-family="MS Gothic" font-size="14.00">Hutton&#39;s Blacklegs</text>
</g>
<!-- Hutton&#39;s Blacklegs&#45;&gt;Hutton&#39;s Blacklegs Mare -->
<g id="edge35" class="edge">
<title>Hutton&#39;s Blacklegs&#45;&gt;Hutton&#39;s Blacklegs Mare</title>
<path fill="none" stroke="black" d="M406.15,-1355.61C406.36,-1347.84 406.58,-1339.56 406.8,-1331.46"/>
<polygon fill="black" stroke="black" points="410.29,-1331.82 407.06,-1321.73 403.3,-1331.63 410.29,-1331.82"/>
</g>
<!-- Bay Bolton Mare -->
<g id="node37" class="node">
<title>Bay Bolton Mare</title>
<polygon fill="lightcoral" stroke="lightcoral" points="608.75,-1433 491.5,-1433 491.5,-1356 608.75,-1356 608.75,-1433"/>
<image xlink:href="img/mob.png" width="100px" height="77px" preserveAspectRatio="xMinYMin meet" x="500.125" y="-1433"/>
<text text-anchor="middle" x="550.12" y="-1388.7" font-family="MS Gothic" font-size="14.00">Bay Bolton Mare</text>
</g>
<!-- Bay Bolton Mare&#45;&gt;Hutton&#39;s Blacklegs Mare -->
<g id="edge36" class="edge">
<title>Bay Bolton Mare&#45;&gt;Hutton&#39;s Blacklegs Mare</title>
<path fill="none" stroke="black" d="M501.65,-1355.61C490,-1346.5 477.45,-1336.69 465.43,-1327.3"/>
<polygon fill="black" stroke="black" points="467.6,-1324.55 457.57,-1321.15 463.29,-1330.07 467.6,-1324.55"/>
</g>
<!-- ダーレーアラビアン -->
<g id="node38" class="node">
<title>ダーレーアラビアン</title>
<polygon fill="lightblue" stroke="lightblue" points="144.25,-1546 0,-1546 0,-1469 144.25,-1469 144.25,-1546"/>
<image xlink:href="img/darearabian.png" width="100px" height="77px" preserveAspectRatio="xMinYMin meet" x="22.125" y="-1546"/>
<text text-anchor="middle" x="72.12" y="-1501.7" font-family="MS Gothic" font-size="14.00">ダーレーアラビアン</text>
</g>
<!-- ダーレーアラビアン&#45;&gt;Bartlet&#39;s Childers -->
<g id="edge37" class="edge">
<title>ダーレーアラビアン&#45;&gt;Bartlet&#39;s Childers</title>
<path fill="none" stroke="black" d="M95.68,-1468.61C100.84,-1460.31 106.37,-1451.41 111.73,-1442.79"/>
<polygon fill="black" stroke="black" points="114.57,-1444.84 116.88,-1434.5 108.63,-1441.15 114.57,-1444.84"/>
</g>
<!-- Betty Leedes -->
<g id="node39" class="node">
<title>Betty Leedes</title>
<polygon fill="lightcoral" stroke="lightcoral" points="259.62,-1546 162.62,-1546 162.62,-1469 259.62,-1469 259.62,-1546"/>
<image xlink:href="img/mob.png" width="97px" height="77px" preserveAspectRatio="xMinYMin meet" x="162.625" y="-1546"/>
<text text-anchor="middle" x="211.12" y="-1501.7" font-family="MS Gothic" font-size="14.00">Betty Leedes</text>
</g>
<!-- Betty Leedes&#45;&gt;Bartlet&#39;s Childers -->
<g id="edge38" class="edge">
<title>Betty Leedes&#45;&gt;Bartlet&#39;s Childers</title>
<path fill="none" stroke="black" d="M187.23,-1468.61C181.99,-1460.31 176.39,-1451.41 170.95,-1442.79"/>
<polygon fill="black" stroke="black" points="174.01,-1441.09 165.72,-1434.5 168.09,-1444.82 174.01,-1441.09"/>
</g>
<!-- Old Careless -->
<g id="node40" class="node">
<title>Old Careless</title>
<polygon fill="lightblue" stroke="lightblue" points="201.62,-1659 104.62,-1659 104.62,-1582 201.62,-1582 201.62,-1659"/>
<image xlink:href="img/mob.png" width="97px" height="77px" preserveAspectRatio="xMinYMin meet" x="104.625" y="-1659"/>
<text text-anchor="middle" x="153.12" y="-1614.7" font-family="MS Gothic" font-size="14.00">Old Careless</text>
</g>
<!-- Old Careless&#45;&gt;Betty Leedes -->
<g id="edge39" class="edge">
<title>Old Careless&#45;&gt;Betty Leedes</title>
<path fill="none" stroke="black" d="M172.92,-1581.61C177.17,-1573.48 181.71,-1564.8 186.12,-1556.35"/>
<polygon fill="black" stroke="black" points="189.19,-1558.04 190.72,-1547.56 182.98,-1554.8 189.19,-1558.04"/>
</g>
<!-- Cream Cheeks -->
<g id="node41" class="node">
<title>Cream Cheeks</title>
<polygon fill="lightcoral" stroke="lightcoral" points="316.62,-1659 219.62,-1659 219.62,-1582 316.62,-1582 316.62,-1659"/>
<image xlink:href="img/mob.png" width="97px" height="77px" preserveAspectRatio="xMinYMin meet" x="219.625" y="-1659"/>
<text text-anchor="middle" x="268.12" y="-1614.7" font-family="MS Gothic" font-size="14.00">Cream Cheeks</text>
</g>
<!-- Cream Cheeks&#45;&gt;Betty Leedes -->
<g id="edge40" class="edge">
<title>Cream Cheeks&#45;&gt;Betty Leedes</title>
<path fill="none" stroke="black" d="M248.67,-1581.61C244.5,-1573.48 240.03,-1564.8 235.7,-1556.35"/>
<polygon fill="black" stroke="black" points="238.87,-1554.86 231.19,-1547.57 232.64,-1558.06 238.87,-1554.86"/>
</g>
</g>
</svg>
