<?xml version="1.0" encoding="UTF-8" standalone="no"?>
<!DOCTYPE svg PUBLIC "-//W3C//DTD SVG 1.1//EN"
 "http://www.w3.org/Graphics/SVG/1.1/DTD/svg11.dtd">
<!-- Generated by graphviz version 12.1.2 (20240928.0832)
 -->
<!-- Pages: 1 -->
<svg width="1079pt" height="1215pt"
 viewBox="0.00 0.00 1078.62 1215.00" xmlns="http://www.w3.org/2000/svg" xmlns:xlink="http://www.w3.org/1999/xlink">
<g id="graph0" class="graph" transform="scale(1 1) rotate(0) translate(4 1211)">
<polygon fill="white" stroke="none" points="-4,4 -4,-1211 1074.62,-1211 1074.62,4 -4,4"/>
<!-- Birdcatcher -->
<g id="node1" class="node">
<title>Birdcatcher</title>
<polygon fill="none" stroke="black" points="925.62,-77 846.62,-77 846.62,0 925.62,0 925.62,-77"/>
<image xlink:href="img/mob.png" width="79px" height="77px" preserveAspectRatio="xMinYMin meet" x="846.625" y="-77"/>
<text text-anchor="middle" x="886.12" y="-33.45" font-family="Times New Roman,serif" font-size="14.00">Birdcatcher</text>
</g>
<!-- Sir Hercules -->
<g id="node2" class="node">
<title>Sir Hercules</title>
<polygon fill="lightblue" stroke="lightblue" points="882.62,-190 785.62,-190 785.62,-113 882.62,-113 882.62,-190"/>
<image xlink:href="img/mob.png" width="97px" height="77px" preserveAspectRatio="xMinYMin meet" x="785.625" y="-190"/>
<text text-anchor="middle" x="834.12" y="-145.7" font-family="MS Gothic" font-size="14.00">Sir Hercules</text>
</g>
<!-- Sir Hercules&#45;&gt;Birdcatcher -->
<g id="edge1" class="edge">
<title>Sir Hercules&#45;&gt;Birdcatcher</title>
<path fill="none" stroke="black" d="M851.88,-112.61C855.64,-104.57 859.66,-95.99 863.58,-87.63"/>
<polygon fill="black" stroke="black" points="866.74,-89.13 867.81,-78.59 860.4,-86.16 866.74,-89.13"/>
</g>
<!-- Guiccioli -->
<g id="node3" class="node">
<title>Guiccioli</title>
<polygon fill="lightcoral" stroke="lightcoral" points="977.62,-190 900.62,-190 900.62,-113 977.62,-113 977.62,-190"/>
<image xlink:href="img/mob.png" width="77px" height="77px" preserveAspectRatio="xMinYMin meet" x="900.625" y="-190"/>
<text text-anchor="middle" x="939.12" y="-145.7" font-family="MS Gothic" font-size="14.00">Guiccioli</text>
</g>
<!-- Guiccioli&#45;&gt;Birdcatcher -->
<g id="edge2" class="edge">
<title>Guiccioli&#45;&gt;Birdcatcher</title>
<path fill="none" stroke="black" d="M921.03,-112.61C917.15,-104.48 913.01,-95.8 908.97,-87.35"/>
<polygon fill="black" stroke="black" points="912.25,-86.1 904.79,-78.58 905.94,-89.12 912.25,-86.1"/>
</g>
<!-- Whalebone -->
<g id="node4" class="node">
<title>Whalebone</title>
<polygon fill="lightblue" stroke="lightblue" points="780.62,-303 703.62,-303 703.62,-226 780.62,-226 780.62,-303"/>
<image xlink:href="img/mob.png" width="77px" height="77px" preserveAspectRatio="xMinYMin meet" x="703.625" y="-303"/>
<text text-anchor="middle" x="742.12" y="-258.7" font-family="MS Gothic" font-size="14.00">Whalebone</text>
</g>
<!-- Whalebone&#45;&gt;Sir Hercules -->
<g id="edge3" class="edge">
<title>Whalebone&#45;&gt;Sir Hercules</title>
<path fill="none" stroke="black" d="M773.53,-225.61C780.63,-217.04 788.26,-207.84 795.62,-198.96"/>
<polygon fill="black" stroke="black" points="798.21,-201.32 801.9,-191.38 792.82,-196.85 798.21,-201.32"/>
</g>
<!-- Peri -->
<g id="node5" class="node">
<title>Peri</title>
<polygon fill="lightcoral" stroke="lightcoral" points="875.62,-303 798.62,-303 798.62,-226 875.62,-226 875.62,-303"/>
<image xlink:href="img/mob.png" width="77px" height="77px" preserveAspectRatio="xMinYMin meet" x="798.625" y="-303"/>
<text text-anchor="middle" x="837.12" y="-258.7" font-family="MS Gothic" font-size="14.00">Peri</text>
</g>
<!-- Peri&#45;&gt;Sir Hercules -->
<g id="edge4" class="edge">
<title>Peri&#45;&gt;Sir Hercules</title>
<path fill="none" stroke="black" d="M836.1,-225.61C835.89,-217.84 835.67,-209.56 835.45,-201.46"/>
<polygon fill="black" stroke="black" points="838.95,-201.63 835.19,-191.73 831.96,-201.82 838.95,-201.63"/>
</g>
<!-- Bob Booty -->
<g id="node6" class="node">
<title>Bob Booty</title>
<polygon fill="lightblue" stroke="lightblue" points="975.62,-303 898.62,-303 898.62,-226 975.62,-226 975.62,-303"/>
<image xlink:href="img/mob.png" width="77px" height="77px" preserveAspectRatio="xMinYMin meet" x="898.625" y="-303"/>
<text text-anchor="middle" x="937.12" y="-258.7" font-family="MS Gothic" font-size="14.00">Bob Booty</text>
</g>
<!-- Bob Booty&#45;&gt;Guiccioli -->
<g id="edge5" class="edge">
<title>Bob Booty&#45;&gt;Guiccioli</title>
<path fill="none" stroke="black" d="M937.81,-225.61C937.95,-217.84 938.1,-209.56 938.24,-201.46"/>
<polygon fill="black" stroke="black" points="941.74,-201.79 938.42,-191.73 934.74,-201.67 941.74,-201.79"/>
</g>
<!-- Flight -->
<g id="node7" class="node">
<title>Flight</title>
<polygon fill="lightcoral" stroke="lightcoral" points="1070.62,-303 993.62,-303 993.62,-226 1070.62,-226 1070.62,-303"/>
<image xlink:href="img/mob.png" width="77px" height="77px" preserveAspectRatio="xMinYMin meet" x="993.625" y="-303"/>
<text text-anchor="middle" x="1032.12" y="-258.7" font-family="MS Gothic" font-size="14.00">Flight</text>
</g>
<!-- Flight&#45;&gt;Guiccioli -->
<g id="edge6" class="edge">
<title>Flight&#45;&gt;Guiccioli</title>
<path fill="none" stroke="black" d="M1000.38,-225.61C993.2,-217.04 985.49,-207.84 978.05,-198.96"/>
<polygon fill="black" stroke="black" points="980.8,-196.8 971.7,-191.38 975.44,-201.29 980.8,-196.8"/>
</g>
<!-- Waxy -->
<g id="node8" class="node">
<title>Waxy</title>
<polygon fill="lightblue" stroke="lightblue" points="733.62,-416 656.62,-416 656.62,-339 733.62,-339 733.62,-416"/>
<image xlink:href="img/mob.png" width="77px" height="77px" preserveAspectRatio="xMinYMin meet" x="656.625" y="-416"/>
<text text-anchor="middle" x="695.12" y="-371.7" font-family="MS Gothic" font-size="14.00">Waxy</text>
</g>
<!-- Waxy&#45;&gt;Whalebone -->
<g id="edge7" class="edge">
<title>Waxy&#45;&gt;Whalebone</title>
<path fill="none" stroke="black" d="M711.17,-338.61C714.57,-330.57 718.21,-321.99 721.75,-313.63"/>
<polygon fill="black" stroke="black" points="724.89,-315.19 725.56,-304.61 718.44,-312.46 724.89,-315.19"/>
</g>
<!-- Penelope -->
<g id="node9" class="node">
<title>Penelope</title>
<polygon fill="lightcoral" stroke="lightcoral" points="828.62,-416 751.62,-416 751.62,-339 828.62,-339 828.62,-416"/>
<image xlink:href="img/mob.png" width="77px" height="77px" preserveAspectRatio="xMinYMin meet" x="751.625" y="-416"/>
<text text-anchor="middle" x="790.12" y="-371.7" font-family="MS Gothic" font-size="14.00">Penelope</text>
</g>
<!-- Penelope&#45;&gt;Whalebone -->
<g id="edge8" class="edge">
<title>Penelope&#45;&gt;Whalebone</title>
<path fill="none" stroke="black" d="M773.74,-338.61C770.26,-330.57 766.55,-321.99 762.94,-313.63"/>
<polygon fill="black" stroke="black" points="766.22,-312.4 759.04,-304.61 759.79,-315.18 766.22,-312.4"/>
</g>
<!-- Pot&#45;8&#45;Os -->
<g id="node10" class="node">
<title>Pot&#45;8&#45;Os</title>
<polygon fill="lightblue" stroke="lightblue" points="638.62,-529 561.62,-529 561.62,-452 638.62,-452 638.62,-529"/>
<image xlink:href="img/mob.png" width="77px" height="77px" preserveAspectRatio="xMinYMin meet" x="561.625" y="-529"/>
<text text-anchor="middle" x="600.12" y="-484.7" font-family="MS Gothic" font-size="14.00">Pot&#45;8&#45;Os</text>
</g>
<!-- Pot&#45;8&#45;Os&#45;&gt;Waxy -->
<g id="edge9" class="edge">
<title>Pot&#45;8&#45;Os&#45;&gt;Waxy</title>
<path fill="none" stroke="black" d="M632.55,-451.61C639.89,-443.04 647.76,-433.84 655.36,-424.96"/>
<polygon fill="black" stroke="black" points="658.02,-427.24 661.86,-417.37 652.7,-422.69 658.02,-427.24"/>
</g>
<!-- Maria III -->
<g id="node11" class="node">
<title>Maria III</title>
<polygon fill="lightcoral" stroke="lightcoral" points="733.62,-529 656.62,-529 656.62,-452 733.62,-452 733.62,-529"/>
<image xlink:href="img/mob.png" width="77px" height="77px" preserveAspectRatio="xMinYMin meet" x="656.625" y="-529"/>
<text text-anchor="middle" x="695.12" y="-484.7" font-family="MS Gothic" font-size="14.00">Maria III</text>
</g>
<!-- Maria III&#45;&gt;Waxy -->
<g id="edge10" class="edge">
<title>Maria III&#45;&gt;Waxy</title>
<path fill="none" stroke="black" d="M695.12,-451.61C695.12,-443.84 695.12,-435.56 695.12,-427.46"/>
<polygon fill="black" stroke="black" points="698.63,-427.73 695.13,-417.73 691.63,-427.73 698.63,-427.73"/>
</g>
<!-- Trumpator -->
<g id="node12" class="node">
<title>Trumpator</title>
<polygon fill="lightblue" stroke="lightblue" points="828.62,-529 751.62,-529 751.62,-452 828.62,-452 828.62,-529"/>
<image xlink:href="img/mob.png" width="77px" height="77px" preserveAspectRatio="xMinYMin meet" x="751.625" y="-529"/>
<text text-anchor="middle" x="790.12" y="-484.7" font-family="MS Gothic" font-size="14.00">Trumpator</text>
</g>
<!-- Trumpator&#45;&gt;Penelope -->
<g id="edge11" class="edge">
<title>Trumpator&#45;&gt;Penelope</title>
<path fill="none" stroke="black" d="M790.12,-451.61C790.12,-443.84 790.12,-435.56 790.12,-427.46"/>
<polygon fill="black" stroke="black" points="793.63,-427.73 790.13,-417.73 786.63,-427.73 793.63,-427.73"/>
</g>
<!-- Prunella -->
<g id="node13" class="node">
<title>Prunella</title>
<polygon fill="lightcoral" stroke="lightcoral" points="923.62,-529 846.62,-529 846.62,-452 923.62,-452 923.62,-529"/>
<image xlink:href="img/mob.png" width="77px" height="77px" preserveAspectRatio="xMinYMin meet" x="846.625" y="-529"/>
<text text-anchor="middle" x="885.12" y="-484.7" font-family="MS Gothic" font-size="14.00">Prunella</text>
</g>
<!-- Prunella&#45;&gt;Penelope -->
<g id="edge12" class="edge">
<title>Prunella&#45;&gt;Penelope</title>
<path fill="none" stroke="black" d="M852.7,-451.61C845.36,-443.04 837.49,-433.84 829.89,-424.96"/>
<polygon fill="black" stroke="black" points="832.55,-422.69 823.39,-417.37 827.23,-427.24 832.55,-422.69"/>
</g>
<!-- Eclipse -->
<g id="node14" class="node">
<title>Eclipse</title>
<polygon fill="lightblue" stroke="lightblue" points="582.62,-642 505.62,-642 505.62,-565 582.62,-565 582.62,-642"/>
<image xlink:href="img/mob.png" width="77px" height="77px" preserveAspectRatio="xMinYMin meet" x="505.625" y="-642"/>
<text text-anchor="middle" x="544.12" y="-597.7" font-family="MS Gothic" font-size="14.00">Eclipse</text>
</g>
<!-- Eclipse&#45;&gt;Pot&#45;8&#45;Os -->
<g id="edge13" class="edge">
<title>Eclipse&#45;&gt;Pot&#45;8&#45;Os</title>
<path fill="none" stroke="black" d="M563.24,-564.61C567.34,-556.48 571.72,-547.8 575.99,-539.35"/>
<polygon fill="black" stroke="black" points="579.03,-541.07 580.41,-530.57 572.78,-537.92 579.03,-541.07"/>
</g>
<!-- Sportsmistress -->
<g id="node15" class="node">
<title>Sportsmistress</title>
<polygon fill="lightcoral" stroke="lightcoral" points="711.38,-642 600.88,-642 600.88,-565 711.38,-565 711.38,-642"/>
<image xlink:href="img/mob.png" width="100px" height="77px" preserveAspectRatio="xMinYMin meet" x="606.125" y="-642"/>
<text text-anchor="middle" x="656.12" y="-597.7" font-family="MS Gothic" font-size="14.00">Sportsmistress</text>
</g>
<!-- Sportsmistress&#45;&gt;Pot&#45;8&#45;Os -->
<g id="edge14" class="edge">
<title>Sportsmistress&#45;&gt;Pot&#45;8&#45;Os</title>
<path fill="none" stroke="black" d="M637.01,-564.61C632.91,-556.48 628.53,-547.8 624.26,-539.35"/>
<polygon fill="black" stroke="black" points="627.47,-537.92 619.84,-530.57 621.22,-541.07 627.47,-537.92"/>
</g>
<!-- Marske -->
<g id="node16" class="node">
<title>Marske</title>
<polygon fill="lightblue" stroke="lightblue" points="492.62,-755 415.62,-755 415.62,-678 492.62,-678 492.62,-755"/>
<image xlink:href="img/mob.png" width="77px" height="77px" preserveAspectRatio="xMinYMin meet" x="415.625" y="-755"/>
<text text-anchor="middle" x="454.12" y="-710.7" font-family="MS Gothic" font-size="14.00">Marske</text>
</g>
<!-- Marske&#45;&gt;Eclipse -->
<g id="edge15" class="edge">
<title>Marske&#45;&gt;Eclipse</title>
<path fill="none" stroke="black" d="M484.85,-677.61C491.8,-669.04 499.26,-659.84 506.46,-650.96"/>
<polygon fill="black" stroke="black" points="509.01,-653.37 512.59,-643.39 503.57,-648.96 509.01,-653.37"/>
</g>
<!-- Spilletta -->
<g id="node17" class="node">
<title>Spilletta</title>
<polygon fill="lightcoral" stroke="lightcoral" points="587.62,-755 510.62,-755 510.62,-678 587.62,-678 587.62,-755"/>
<image xlink:href="img/mob.png" width="77px" height="77px" preserveAspectRatio="xMinYMin meet" x="510.625" y="-755"/>
<text text-anchor="middle" x="549.12" y="-710.7" font-family="MS Gothic" font-size="14.00">Spilletta</text>
</g>
<!-- Spilletta&#45;&gt;Eclipse -->
<g id="edge16" class="edge">
<title>Spilletta&#45;&gt;Eclipse</title>
<path fill="none" stroke="black" d="M547.42,-677.61C547.07,-669.84 546.7,-661.56 546.33,-653.46"/>
<polygon fill="black" stroke="black" points="549.84,-653.56 545.89,-643.73 542.85,-653.88 549.84,-653.56"/>
</g>
<!-- Sportsman -->
<g id="node18" class="node">
<title>Sportsman</title>
<polygon fill="lightblue" stroke="lightblue" points="690.62,-755 613.62,-755 613.62,-678 690.62,-678 690.62,-755"/>
<image xlink:href="img/mob.png" width="77px" height="77px" preserveAspectRatio="xMinYMin meet" x="613.625" y="-755"/>
<text text-anchor="middle" x="652.12" y="-710.7" font-family="MS Gothic" font-size="14.00">Sportsman</text>
</g>
<!-- Sportsman&#45;&gt;Sportsmistress -->
<g id="edge17" class="edge">
<title>Sportsman&#45;&gt;Sportsmistress</title>
<path fill="none" stroke="black" d="M653.49,-677.61C653.77,-669.84 654.07,-661.56 654.36,-653.46"/>
<polygon fill="black" stroke="black" points="657.85,-653.85 654.71,-643.73 650.85,-653.6 657.85,-653.85"/>
</g>
<!-- Golden Locks -->
<g id="node19" class="node">
<title>Golden Locks</title>
<polygon fill="lightcoral" stroke="lightcoral" points="805.62,-755 708.62,-755 708.62,-678 805.62,-678 805.62,-755"/>
<image xlink:href="img/mob.png" width="97px" height="77px" preserveAspectRatio="xMinYMin meet" x="708.625" y="-755"/>
<text text-anchor="middle" x="757.12" y="-710.7" font-family="MS Gothic" font-size="14.00">Golden Locks</text>
</g>
<!-- Golden Locks&#45;&gt;Sportsmistress -->
<g id="edge18" class="edge">
<title>Golden Locks&#45;&gt;Sportsmistress</title>
<path fill="none" stroke="black" d="M722.65,-677.61C714.77,-668.95 706.3,-659.65 698.15,-650.68"/>
<polygon fill="black" stroke="black" points="700.78,-648.38 691.46,-643.34 695.61,-653.09 700.78,-648.38"/>
</g>
<!-- Squirt -->
<g id="node20" class="node">
<title>Squirt</title>
<polygon fill="lightblue" stroke="lightblue" points="421.62,-868 344.62,-868 344.62,-791 421.62,-791 421.62,-868"/>
<image xlink:href="img/mob.png" width="77px" height="77px" preserveAspectRatio="xMinYMin meet" x="344.625" y="-868"/>
<text text-anchor="middle" x="383.12" y="-823.7" font-family="MS Gothic" font-size="14.00">Squirt</text>
</g>
<!-- Squirt&#45;&gt;Marske -->
<g id="edge19" class="edge">
<title>Squirt&#45;&gt;Marske</title>
<path fill="none" stroke="black" d="M407.36,-790.61C412.67,-782.31 418.36,-773.41 423.88,-764.79"/>
<polygon fill="black" stroke="black" points="426.74,-766.8 429.18,-756.49 420.85,-763.03 426.74,-766.8"/>
</g>
<!-- Hutton&#39;s Blacklegs Mare -->
<g id="node21" class="node">
<title>Hutton&#39;s Blacklegs Mare</title>
<polygon fill="lightcoral" stroke="lightcoral" points="610.75,-868 439.5,-868 439.5,-791 610.75,-791 610.75,-868"/>
<image xlink:href="img/mob.png" width="100px" height="77px" preserveAspectRatio="xMinYMin meet" x="475.125" y="-868"/>
<text text-anchor="middle" x="525.12" y="-823.7" font-family="MS Gothic" font-size="14.00">Hutton&#39;s Blacklegs Mare</text>
</g>
<!-- Hutton&#39;s Blacklegs Mare&#45;&gt;Marske -->
<g id="edge20" class="edge">
<title>Hutton&#39;s Blacklegs Mare&#45;&gt;Marske</title>
<path fill="none" stroke="black" d="M500.89,-790.61C495.58,-782.31 489.89,-773.41 484.37,-764.79"/>
<polygon fill="black" stroke="black" points="487.4,-763.03 479.07,-756.49 481.51,-766.8 487.4,-763.03"/>
</g>
<!-- Bartlet&#39;s Childers -->
<g id="node22" class="node">
<title>Bartlet&#39;s Childers</title>
<polygon fill="lightblue" stroke="lightblue" points="279.88,-981 142.38,-981 142.38,-904 279.88,-904 279.88,-981"/>
<image xlink:href="img/mob.png" width="100px" height="77px" preserveAspectRatio="xMinYMin meet" x="161.125" y="-981"/>
<text text-anchor="middle" x="211.12" y="-936.7" font-family="MS Gothic" font-size="14.00">Bartlet&#39;s Childers</text>
</g>
<!-- Bartlet&#39;s Childers&#45;&gt;Squirt -->
<g id="edge21" class="edge">
<title>Bartlet&#39;s Childers&#45;&gt;Squirt</title>
<path fill="none" stroke="black" d="M269.84,-903.61C290.91,-890.01 314.43,-874.83 334.55,-861.85"/>
<polygon fill="black" stroke="black" points="336.35,-864.85 342.85,-856.49 332.55,-858.97 336.35,-864.85"/>
</g>
<!-- Snake Mare -->
<g id="node23" class="node">
<title>Snake Mare</title>
<polygon fill="lightcoral" stroke="lightcoral" points="428.88,-981 345.38,-981 345.38,-904 428.88,-904 428.88,-981"/>
<image xlink:href="img/mob.png" width="83.5px" height="77px" preserveAspectRatio="xMinYMin meet" x="345.375" y="-981"/>
<text text-anchor="middle" x="387.12" y="-936.7" font-family="MS Gothic" font-size="14.00">Snake Mare</text>
</g>
<!-- Snake Mare&#45;&gt;Squirt -->
<g id="edge22" class="edge">
<title>Snake Mare&#45;&gt;Squirt</title>
<path fill="none" stroke="black" d="M385.76,-903.61C385.48,-895.84 385.18,-887.56 384.89,-879.46"/>
<polygon fill="black" stroke="black" points="388.4,-879.6 384.54,-869.73 381.4,-879.85 388.4,-879.6"/>
</g>
<!-- Hutton&#39;s Blacklegs -->
<g id="node24" class="node">
<title>Hutton&#39;s Blacklegs</title>
<polygon fill="lightblue" stroke="lightblue" points="590.88,-981 453.38,-981 453.38,-904 590.88,-904 590.88,-981"/>
<image xlink:href="img/mob.png" width="100px" height="77px" preserveAspectRatio="xMinYMin meet" x="472.125" y="-981"/>
<text text-anchor="middle" x="522.12" y="-936.7" font-family="MS Gothic" font-size="14.00">Hutton&#39;s Blacklegs</text>
</g>
<!-- Hutton&#39;s Blacklegs&#45;&gt;Hutton&#39;s Blacklegs Mare -->
<g id="edge23" class="edge">
<title>Hutton&#39;s Blacklegs&#45;&gt;Hutton&#39;s Blacklegs Mare</title>
<path fill="none" stroke="black" d="M523.15,-903.61C523.36,-895.84 523.58,-887.56 523.8,-879.46"/>
<polygon fill="black" stroke="black" points="527.29,-879.82 524.06,-869.73 520.3,-879.63 527.29,-879.82"/>
</g>
<!-- Bay Bolton Mare -->
<g id="node25" class="node">
<title>Bay Bolton Mare</title>
<polygon fill="lightcoral" stroke="lightcoral" points="725.75,-981 608.5,-981 608.5,-904 725.75,-904 725.75,-981"/>
<image xlink:href="img/mob.png" width="100px" height="77px" preserveAspectRatio="xMinYMin meet" x="617.125" y="-981"/>
<text text-anchor="middle" x="667.12" y="-936.7" font-family="MS Gothic" font-size="14.00">Bay Bolton Mare</text>
</g>
<!-- Bay Bolton Mare&#45;&gt;Hutton&#39;s Blacklegs Mare -->
<g id="edge24" class="edge">
<title>Bay Bolton Mare&#45;&gt;Hutton&#39;s Blacklegs Mare</title>
<path fill="none" stroke="black" d="M618.65,-903.61C607,-894.5 594.45,-884.69 582.43,-875.3"/>
<polygon fill="black" stroke="black" points="584.6,-872.55 574.57,-869.15 580.29,-878.07 584.6,-872.55"/>
</g>
<!-- ダーレーアラビアン -->
<g id="node26" class="node">
<title>ダーレーアラビアン</title>
<polygon fill="lightblue" stroke="lightblue" points="144.25,-1094 0,-1094 0,-1017 144.25,-1017 144.25,-1094"/>
<image xlink:href="img/darearabian.png" width="100px" height="77px" preserveAspectRatio="xMinYMin meet" x="22.125" y="-1094"/>
<text text-anchor="middle" x="72.12" y="-1049.7" font-family="MS Gothic" font-size="14.00">ダーレーアラビアン</text>
</g>
<!-- ダーレーアラビアン&#45;&gt;Bartlet&#39;s Childers -->
<g id="edge25" class="edge">
<title>ダーレーアラビアン&#45;&gt;Bartlet&#39;s Childers</title>
<path fill="none" stroke="black" d="M119.57,-1016.61C130.98,-1007.5 143.27,-997.69 155.03,-988.3"/>
<polygon fill="black" stroke="black" points="157.08,-991.14 162.71,-982.16 152.71,-985.67 157.08,-991.14"/>
</g>
<!-- Betty Leedes -->
<g id="node27" class="node">
<title>Betty Leedes</title>
<polygon fill="lightcoral" stroke="lightcoral" points="259.62,-1094 162.62,-1094 162.62,-1017 259.62,-1017 259.62,-1094"/>
<image xlink:href="img/mob.png" width="97px" height="77px" preserveAspectRatio="xMinYMin meet" x="162.625" y="-1094"/>
<text text-anchor="middle" x="211.12" y="-1049.7" font-family="MS Gothic" font-size="14.00">Betty Leedes</text>
</g>
<!-- Betty Leedes&#45;&gt;Bartlet&#39;s Childers -->
<g id="edge26" class="edge">
<title>Betty Leedes&#45;&gt;Bartlet&#39;s Childers</title>
<path fill="none" stroke="black" d="M211.12,-1016.61C211.12,-1008.84 211.12,-1000.56 211.12,-992.46"/>
<polygon fill="black" stroke="black" points="214.63,-992.73 211.13,-982.73 207.63,-992.73 214.63,-992.73"/>
</g>
<!-- Old Careless -->
<g id="node28" class="node">
<title>Old Careless</title>
<polygon fill="lightblue" stroke="lightblue" points="144.62,-1207 47.62,-1207 47.62,-1130 144.62,-1130 144.62,-1207"/>
<image xlink:href="img/mob.png" width="97px" height="77px" preserveAspectRatio="xMinYMin meet" x="47.625" y="-1207"/>
<text text-anchor="middle" x="96.12" y="-1162.7" font-family="MS Gothic" font-size="14.00">Old Careless</text>
</g>
<!-- Old Careless&#45;&gt;Betty Leedes -->
<g id="edge27" class="edge">
<title>Old Careless&#45;&gt;Betty Leedes</title>
<path fill="none" stroke="black" d="M135.38,-1129.61C144.54,-1120.77 154.39,-1111.26 163.85,-1102.13"/>
<polygon fill="black" stroke="black" points="166.19,-1104.73 170.96,-1095.27 161.33,-1099.7 166.19,-1104.73"/>
</g>
<!-- Cream Cheeks -->
<g id="node29" class="node">
<title>Cream Cheeks</title>
<polygon fill="lightcoral" stroke="lightcoral" points="259.62,-1207 162.62,-1207 162.62,-1130 259.62,-1130 259.62,-1207"/>
<image xlink:href="img/mob.png" width="97px" height="77px" preserveAspectRatio="xMinYMin meet" x="162.625" y="-1207"/>
<text text-anchor="middle" x="211.12" y="-1162.7" font-family="MS Gothic" font-size="14.00">Cream Cheeks</text>
</g>
<!-- Cream Cheeks&#45;&gt;Betty Leedes -->
<g id="edge28" class="edge">
<title>Cream Cheeks&#45;&gt;Betty Leedes</title>
<path fill="none" stroke="black" d="M211.12,-1129.61C211.12,-1121.84 211.12,-1113.56 211.12,-1105.46"/>
<polygon fill="black" stroke="black" points="214.63,-1105.73 211.13,-1095.73 207.63,-1105.73 214.63,-1105.73"/>
</g>
<!-- Snake -->
<g id="node30" class="node">
<title>Snake</title>
<polygon fill="lightblue" stroke="lightblue" points="425.62,-1094 348.62,-1094 348.62,-1017 425.62,-1017 425.62,-1094"/>
<image xlink:href="img/mob.png" width="77px" height="77px" preserveAspectRatio="xMinYMin meet" x="348.625" y="-1094"/>
<text text-anchor="middle" x="387.12" y="-1049.7" font-family="MS Gothic" font-size="14.00">Snake</text>
</g>
<!-- Snake&#45;&gt;Snake Mare -->
<g id="edge29" class="edge">
<title>Snake&#45;&gt;Snake Mare</title>
<path fill="none" stroke="black" d="M387.12,-1016.61C387.12,-1008.84 387.12,-1000.56 387.12,-992.46"/>
<polygon fill="black" stroke="black" points="390.63,-992.73 387.13,-982.73 383.63,-992.73 390.63,-992.73"/>
</g>
<!-- Grey Wilkes -->
<g id="node31" class="node">
<title>Grey Wilkes</title>
<polygon fill="lightcoral" stroke="lightcoral" points="585.25,-1094 495,-1094 495,-1017 585.25,-1017 585.25,-1094"/>
<image xlink:href="img/mob.png" width="90.25px" height="77px" preserveAspectRatio="xMinYMin meet" x="495" y="-1094"/>
<text text-anchor="middle" x="540.12" y="-1049.7" font-family="MS Gothic" font-size="14.00">Grey Wilkes</text>
</g>
<!-- Grey Wilkes&#45;&gt;Snake Mare -->
<g id="edge30" class="edge">
<title>Grey Wilkes&#45;&gt;Snake Mare</title>
<path fill="none" stroke="black" d="M494.63,-1021.5C477.01,-1008.71 456.73,-994 438.58,-980.83"/>
<polygon fill="black" stroke="black" points="440.68,-978.03 430.53,-974.99 436.57,-983.69 440.68,-978.03"/>
</g>
<!-- Lister Turk -->
<g id="node32" class="node">
<title>Lister Turk</title>
<polygon fill="lightblue" stroke="lightblue" points="368.25,-1207 278,-1207 278,-1130 368.25,-1130 368.25,-1207"/>
<image xlink:href="img/mob.png" width="90.25px" height="77px" preserveAspectRatio="xMinYMin meet" x="278" y="-1207"/>
<text text-anchor="middle" x="323.12" y="-1162.7" font-family="MS Gothic" font-size="14.00">Lister Turk</text>
</g>
<!-- Lister Turk&#45;&gt;Snake -->
<g id="edge31" class="edge">
<title>Lister Turk&#45;&gt;Snake</title>
<path fill="none" stroke="black" d="M344.97,-1129.61C349.71,-1121.39 354.78,-1112.6 359.7,-1104.07"/>
<polygon fill="black" stroke="black" points="362.66,-1105.94 364.62,-1095.53 356.59,-1102.44 362.66,-1105.94"/>
</g>
<!-- Hautboy Mare -->
<g id="node33" class="node">
<title>Hautboy Mare</title>
<polygon fill="lightcoral" stroke="lightcoral" points="483.62,-1207 386.62,-1207 386.62,-1130 483.62,-1130 483.62,-1207"/>
<image xlink:href="img/mob.png" width="97px" height="77px" preserveAspectRatio="xMinYMin meet" x="386.625" y="-1207"/>
<text text-anchor="middle" x="435.12" y="-1162.7" font-family="MS Gothic" font-size="14.00">Hautboy Mare</text>
</g>
<!-- Hautboy Mare&#45;&gt;Snake -->
<g id="edge32" class="edge">
<title>Hautboy Mare&#45;&gt;Snake</title>
<path fill="none" stroke="black" d="M418.74,-1129.61C415.26,-1121.57 411.55,-1112.99 407.94,-1104.63"/>
<polygon fill="black" stroke="black" points="411.22,-1103.4 404.04,-1095.61 404.79,-1106.18 411.22,-1103.4"/>
</g>
<!-- Hautboy -->
<g id="node34" class="node">
<title>Hautboy</title>
<polygon fill="lightblue" stroke="lightblue" points="578.62,-1207 501.62,-1207 501.62,-1130 578.62,-1130 578.62,-1207"/>
<image xlink:href="img/mob.png" width="77px" height="77px" preserveAspectRatio="xMinYMin meet" x="501.625" y="-1207"/>
<text text-anchor="middle" x="540.12" y="-1162.7" font-family="MS Gothic" font-size="14.00">Hautboy</text>
</g>
<!-- Hautboy&#45;&gt;Grey Wilkes -->
<g id="edge33" class="edge">
<title>Hautboy&#45;&gt;Grey Wilkes</title>
<path fill="none" stroke="black" d="M540.12,-1129.61C540.12,-1121.84 540.12,-1113.56 540.12,-1105.46"/>
<polygon fill="black" stroke="black" points="543.63,-1105.73 540.13,-1095.73 536.63,-1105.73 543.63,-1105.73"/>
</g>
<!-- Miss Darcys Pet Mare -->
<g id="node35" class="node">
<title>Miss Darcys Pet Mare</title>
<polygon fill="lightcoral" stroke="lightcoral" points="747.62,-1207 596.62,-1207 596.62,-1130 747.62,-1130 747.62,-1207"/>
<image xlink:href="img/mob.png" width="100px" height="77px" preserveAspectRatio="xMinYMin meet" x="622.125" y="-1207"/>
<text text-anchor="middle" x="672.12" y="-1162.7" font-family="MS Gothic" font-size="14.00">Miss Darcys Pet Mare</text>
</g>
<!-- Miss Darcys Pet Mare&#45;&gt;Grey Wilkes -->
<g id="edge34" class="edge">
<title>Miss Darcys Pet Mare&#45;&gt;Grey Wilkes</title>
<path fill="none" stroke="black" d="M627.07,-1129.61C616.34,-1120.59 604.79,-1110.88 593.73,-1101.57"/>
<polygon fill="black" stroke="black" points="596.04,-1098.95 586.14,-1095.19 591.54,-1104.31 596.04,-1098.95"/>
</g>
</g>
</svg>
