<?xml version="1.0" encoding="UTF-8" standalone="no"?>
<!DOCTYPE svg PUBLIC "-//W3C//DTD SVG 1.1//EN"
 "http://www.w3.org/Graphics/SVG/1.1/DTD/svg11.dtd">
<!-- Generated by graphviz version 12.1.2 (20240928.0832)
 -->
<!-- Pages: 1 -->
<svg width="1433pt" height="1667pt"
 viewBox="0.00 0.00 1432.62 1667.00" xmlns="http://www.w3.org/2000/svg" xmlns:xlink="http://www.w3.org/1999/xlink">
<g id="graph0" class="graph" transform="scale(1 1) rotate(0) translate(4 1663)">
<polygon fill="white" stroke="none" points="-4,4 -4,-1663 1428.62,-1663 1428.62,4 -4,4"/>
<!-- Bona Vista -->
<g id="node1" class="node">
<title>Bona Vista</title>
<polygon fill="none" stroke="black" points="1280.62,-77 1203.62,-77 1203.62,0 1280.62,0 1280.62,-77"/>
<image xlink:href="img/mob.png" width="77px" height="77px" preserveAspectRatio="xMinYMin meet" x="1203.62" y="-77"/>
<text text-anchor="middle" x="1242.12" y="-33.45" font-family="Times New Roman,serif" font-size="14.00">Bona Vista</text>
</g>
<!-- Bend Or -->
<g id="node2" class="node">
<title>Bend Or</title>
<polygon fill="lightblue" stroke="lightblue" points="1231.62,-190 1154.62,-190 1154.62,-113 1231.62,-113 1231.62,-190"/>
<image xlink:href="img/mob.png" width="77px" height="77px" preserveAspectRatio="xMinYMin meet" x="1154.62" y="-190"/>
<text text-anchor="middle" x="1193.12" y="-145.7" font-family="MS Gothic" font-size="14.00">Bend Or</text>
</g>
<!-- Bend Or&#45;&gt;Bona Vista -->
<g id="edge1" class="edge">
<title>Bend Or&#45;&gt;Bona Vista</title>
<path fill="none" stroke="black" d="M1209.85,-112.61C1213.4,-104.57 1217.19,-95.99 1220.88,-87.63"/>
<polygon fill="black" stroke="black" points="1224.03,-89.17 1224.86,-78.6 1217.62,-86.34 1224.03,-89.17"/>
</g>
<!-- Vista -->
<g id="node3" class="node">
<title>Vista</title>
<polygon fill="lightcoral" stroke="lightcoral" points="1329.62,-190 1252.62,-190 1252.62,-113 1329.62,-113 1329.62,-190"/>
<image xlink:href="img/mob.png" width="77px" height="77px" preserveAspectRatio="xMinYMin meet" x="1252.62" y="-190"/>
<text text-anchor="middle" x="1291.12" y="-145.7" font-family="MS Gothic" font-size="14.00">Vista</text>
</g>
<!-- Vista&#45;&gt;Bona Vista -->
<g id="edge2" class="edge">
<title>Vista&#45;&gt;Bona Vista</title>
<path fill="none" stroke="black" d="M1274.4,-112.61C1270.85,-104.57 1267.06,-95.99 1263.37,-87.63"/>
<polygon fill="black" stroke="black" points="1266.63,-86.34 1259.39,-78.6 1260.22,-89.17 1266.63,-86.34"/>
</g>
<!-- Doncaster -->
<g id="node4" class="node">
<title>Doncaster</title>
<polygon fill="lightblue" stroke="lightblue" points="1133.62,-303 1056.62,-303 1056.62,-226 1133.62,-226 1133.62,-303"/>
<image xlink:href="img/mob.png" width="77px" height="77px" preserveAspectRatio="xMinYMin meet" x="1056.62" y="-303"/>
<text text-anchor="middle" x="1095.12" y="-258.7" font-family="MS Gothic" font-size="14.00">Doncaster</text>
</g>
<!-- Doncaster&#45;&gt;Bend Or -->
<g id="edge3" class="edge">
<title>Doncaster&#45;&gt;Bend Or</title>
<path fill="none" stroke="black" d="M1128.58,-225.61C1136.22,-216.95 1144.44,-207.65 1152.35,-198.68"/>
<polygon fill="black" stroke="black" points="1154.83,-201.17 1158.82,-191.35 1149.58,-196.53 1154.83,-201.17"/>
</g>
<!-- Rouge Rose -->
<g id="node5" class="node">
<title>Rouge Rose</title>
<polygon fill="lightcoral" stroke="lightcoral" points="1234.88,-303 1151.38,-303 1151.38,-226 1234.88,-226 1234.88,-303"/>
<image xlink:href="img/mob.png" width="83.5px" height="77px" preserveAspectRatio="xMinYMin meet" x="1151.38" y="-303"/>
<text text-anchor="middle" x="1193.12" y="-258.7" font-family="MS Gothic" font-size="14.00">Rouge Rose</text>
</g>
<!-- Rouge Rose&#45;&gt;Bend Or -->
<g id="edge4" class="edge">
<title>Rouge Rose&#45;&gt;Bend Or</title>
<path fill="none" stroke="black" d="M1193.12,-225.61C1193.12,-217.84 1193.12,-209.56 1193.12,-201.46"/>
<polygon fill="black" stroke="black" points="1196.63,-201.73 1193.13,-191.73 1189.63,-201.73 1196.63,-201.73"/>
</g>
<!-- Macaroni -->
<g id="node6" class="node">
<title>Macaroni</title>
<polygon fill="lightblue" stroke="lightblue" points="1329.62,-303 1252.62,-303 1252.62,-226 1329.62,-226 1329.62,-303"/>
<image xlink:href="img/mob.png" width="77px" height="77px" preserveAspectRatio="xMinYMin meet" x="1252.62" y="-303"/>
<text text-anchor="middle" x="1291.12" y="-258.7" font-family="MS Gothic" font-size="14.00">Macaroni</text>
</g>
<!-- Macaroni&#45;&gt;Vista -->
<g id="edge5" class="edge">
<title>Macaroni&#45;&gt;Vista</title>
<path fill="none" stroke="black" d="M1291.12,-225.61C1291.12,-217.84 1291.12,-209.56 1291.12,-201.46"/>
<polygon fill="black" stroke="black" points="1294.63,-201.73 1291.13,-191.73 1287.63,-201.73 1294.63,-201.73"/>
</g>
<!-- Verdure -->
<g id="node7" class="node">
<title>Verdure</title>
<polygon fill="lightcoral" stroke="lightcoral" points="1424.62,-303 1347.62,-303 1347.62,-226 1424.62,-226 1424.62,-303"/>
<image xlink:href="img/mob.png" width="77px" height="77px" preserveAspectRatio="xMinYMin meet" x="1347.62" y="-303"/>
<text text-anchor="middle" x="1386.12" y="-258.7" font-family="MS Gothic" font-size="14.00">Verdure</text>
</g>
<!-- Verdure&#45;&gt;Vista -->
<g id="edge6" class="edge">
<title>Verdure&#45;&gt;Vista</title>
<path fill="none" stroke="black" d="M1353.7,-225.61C1346.36,-217.04 1338.49,-207.84 1330.89,-198.96"/>
<polygon fill="black" stroke="black" points="1333.55,-196.69 1324.39,-191.37 1328.23,-201.24 1333.55,-196.69"/>
</g>
<!-- Stockwell -->
<g id="node8" class="node">
<title>Stockwell</title>
<polygon fill="lightblue" stroke="lightblue" points="1082.62,-416 1005.62,-416 1005.62,-339 1082.62,-339 1082.62,-416"/>
<image xlink:href="img/mob.png" width="77px" height="77px" preserveAspectRatio="xMinYMin meet" x="1005.62" y="-416"/>
<text text-anchor="middle" x="1044.12" y="-371.7" font-family="MS Gothic" font-size="14.00">Stockwell</text>
</g>
<!-- Stockwell&#45;&gt;Doncaster -->
<g id="edge7" class="edge">
<title>Stockwell&#45;&gt;Doncaster</title>
<path fill="none" stroke="black" d="M1061.53,-338.61C1065.23,-330.57 1069.17,-321.99 1073.01,-313.63"/>
<polygon fill="black" stroke="black" points="1076.17,-315.14 1077.16,-304.59 1069.81,-312.22 1076.17,-315.14"/>
</g>
<!-- Marigold -->
<g id="node9" class="node">
<title>Marigold</title>
<polygon fill="lightcoral" stroke="lightcoral" points="1184.62,-416 1107.62,-416 1107.62,-339 1184.62,-339 1184.62,-416"/>
<image xlink:href="img/mob.png" width="77px" height="77px" preserveAspectRatio="xMinYMin meet" x="1107.62" y="-416"/>
<text text-anchor="middle" x="1146.12" y="-371.7" font-family="MS Gothic" font-size="14.00">Marigold</text>
</g>
<!-- Marigold&#45;&gt;Doncaster -->
<g id="edge8" class="edge">
<title>Marigold&#45;&gt;Doncaster</title>
<path fill="none" stroke="black" d="M1128.72,-338.61C1125.02,-330.57 1121.08,-321.99 1117.24,-313.63"/>
<polygon fill="black" stroke="black" points="1120.44,-312.22 1113.09,-304.59 1114.08,-315.14 1120.44,-312.22"/>
</g>
<!-- The Baron -->
<g id="node10" class="node">
<title>The Baron</title>
<polygon fill="lightblue" stroke="lightblue" points="984.62,-529 907.62,-529 907.62,-452 984.62,-452 984.62,-529"/>
<image xlink:href="img/mob.png" width="77px" height="77px" preserveAspectRatio="xMinYMin meet" x="907.625" y="-529"/>
<text text-anchor="middle" x="946.12" y="-484.7" font-family="MS Gothic" font-size="14.00">The Baron</text>
</g>
<!-- The Baron&#45;&gt;Stockwell -->
<g id="edge9" class="edge">
<title>The Baron&#45;&gt;Stockwell</title>
<path fill="none" stroke="black" d="M979.58,-451.61C987.22,-442.95 995.44,-433.65 1003.35,-424.68"/>
<polygon fill="black" stroke="black" points="1005.83,-427.17 1009.82,-417.35 1000.58,-422.53 1005.83,-427.17"/>
</g>
<!-- Pocahontas -->
<g id="node11" class="node">
<title>Pocahontas</title>
<polygon fill="lightcoral" stroke="lightcoral" points="1085.88,-529 1002.38,-529 1002.38,-452 1085.88,-452 1085.88,-529"/>
<image xlink:href="img/mob.png" width="83.5px" height="77px" preserveAspectRatio="xMinYMin meet" x="1002.38" y="-529"/>
<text text-anchor="middle" x="1044.12" y="-484.7" font-family="MS Gothic" font-size="14.00">Pocahontas</text>
</g>
<!-- Pocahontas&#45;&gt;Stockwell -->
<g id="edge10" class="edge">
<title>Pocahontas&#45;&gt;Stockwell</title>
<path fill="none" stroke="black" d="M1044.12,-451.61C1044.12,-443.84 1044.12,-435.56 1044.12,-427.46"/>
<polygon fill="black" stroke="black" points="1047.63,-427.73 1044.13,-417.73 1040.63,-427.73 1047.63,-427.73"/>
</g>
<!-- Teddington -->
<g id="node12" class="node">
<title>Teddington</title>
<polygon fill="lightblue" stroke="lightblue" points="1187.88,-529 1104.38,-529 1104.38,-452 1187.88,-452 1187.88,-529"/>
<image xlink:href="img/mob.png" width="83.5px" height="77px" preserveAspectRatio="xMinYMin meet" x="1104.38" y="-529"/>
<text text-anchor="middle" x="1146.12" y="-484.7" font-family="MS Gothic" font-size="14.00">Teddington</text>
</g>
<!-- Teddington&#45;&gt;Marigold -->
<g id="edge11" class="edge">
<title>Teddington&#45;&gt;Marigold</title>
<path fill="none" stroke="black" d="M1146.12,-451.61C1146.12,-443.84 1146.12,-435.56 1146.12,-427.46"/>
<polygon fill="black" stroke="black" points="1149.63,-427.73 1146.13,-417.73 1142.63,-427.73 1149.63,-427.73"/>
</g>
<!-- Ratan Mare -->
<g id="node13" class="node">
<title>Ratan Mare</title>
<polygon fill="lightcoral" stroke="lightcoral" points="1289.88,-529 1206.38,-529 1206.38,-452 1289.88,-452 1289.88,-529"/>
<image xlink:href="img/mob.png" width="83.5px" height="77px" preserveAspectRatio="xMinYMin meet" x="1206.38" y="-529"/>
<text text-anchor="middle" x="1248.12" y="-484.7" font-family="MS Gothic" font-size="14.00">Ratan Mare</text>
</g>
<!-- Ratan Mare&#45;&gt;Marigold -->
<g id="edge12" class="edge">
<title>Ratan Mare&#45;&gt;Marigold</title>
<path fill="none" stroke="black" d="M1213.31,-451.61C1205.35,-442.95 1196.8,-433.65 1188.56,-424.68"/>
<polygon fill="black" stroke="black" points="1191.15,-422.33 1181.81,-417.33 1186,-427.06 1191.15,-422.33"/>
</g>
<!-- Birdcatcher -->
<g id="node14" class="node">
<title>Birdcatcher</title>
<polygon fill="lightblue" stroke="lightblue" points="940.25,-642 850,-642 850,-565 940.25,-565 940.25,-642"/>
<image xlink:href="img/mob.png" width="90.25px" height="77px" preserveAspectRatio="xMinYMin meet" x="850" y="-642"/>
<text text-anchor="middle" x="895.12" y="-597.7" font-family="MS Gothic" font-size="14.00">Birdcatcher</text>
</g>
<!-- Birdcatcher&#45;&gt;The Baron -->
<g id="edge13" class="edge">
<title>Birdcatcher&#45;&gt;The Baron</title>
<path fill="none" stroke="black" d="M912.53,-564.61C916.23,-556.57 920.17,-547.99 924.01,-539.63"/>
<polygon fill="black" stroke="black" points="927.17,-541.14 928.16,-530.59 920.81,-538.22 927.17,-541.14"/>
</g>
<!-- Echidna -->
<g id="node15" class="node">
<title>Echidna</title>
<polygon fill="lightcoral" stroke="lightcoral" points="1035.62,-642 958.62,-642 958.62,-565 1035.62,-565 1035.62,-642"/>
<image xlink:href="img/mob.png" width="77px" height="77px" preserveAspectRatio="xMinYMin meet" x="958.625" y="-642"/>
<text text-anchor="middle" x="997.12" y="-597.7" font-family="MS Gothic" font-size="14.00">Echidna</text>
</g>
<!-- Echidna&#45;&gt;The Baron -->
<g id="edge14" class="edge">
<title>Echidna&#45;&gt;The Baron</title>
<path fill="none" stroke="black" d="M979.72,-564.61C976.02,-556.57 972.08,-547.99 968.24,-539.63"/>
<polygon fill="black" stroke="black" points="971.44,-538.22 964.09,-530.59 965.08,-541.14 971.44,-538.22"/>
</g>
<!-- Sir Hercules -->
<g id="node16" class="node">
<title>Sir Hercules</title>
<polygon fill="lightblue" stroke="lightblue" points="840.62,-755 743.62,-755 743.62,-678 840.62,-678 840.62,-755"/>
<image xlink:href="img/mob.png" width="97px" height="77px" preserveAspectRatio="xMinYMin meet" x="743.625" y="-755"/>
<text text-anchor="middle" x="792.12" y="-710.7" font-family="MS Gothic" font-size="14.00">Sir Hercules</text>
</g>
<!-- Sir Hercules&#45;&gt;Birdcatcher -->
<g id="edge15" class="edge">
<title>Sir Hercules&#45;&gt;Birdcatcher</title>
<path fill="none" stroke="black" d="M827.28,-677.61C835.4,-668.86 844.13,-659.46 852.53,-650.4"/>
<polygon fill="black" stroke="black" points="854.86,-653.04 859.1,-643.33 849.73,-648.28 854.86,-653.04"/>
</g>
<!-- Guiccioli -->
<g id="node17" class="node">
<title>Guiccioli</title>
<polygon fill="lightcoral" stroke="lightcoral" points="935.62,-755 858.62,-755 858.62,-678 935.62,-678 935.62,-755"/>
<image xlink:href="img/mob.png" width="77px" height="77px" preserveAspectRatio="xMinYMin meet" x="858.625" y="-755"/>
<text text-anchor="middle" x="897.12" y="-710.7" font-family="MS Gothic" font-size="14.00">Guiccioli</text>
</g>
<!-- Guiccioli&#45;&gt;Birdcatcher -->
<g id="edge16" class="edge">
<title>Guiccioli&#45;&gt;Birdcatcher</title>
<path fill="none" stroke="black" d="M896.44,-677.61C896.3,-669.84 896.15,-661.56 896.01,-653.46"/>
<polygon fill="black" stroke="black" points="899.51,-653.67 895.83,-643.73 892.51,-653.79 899.51,-653.67"/>
</g>
<!-- Economist -->
<g id="node18" class="node">
<title>Economist</title>
<polygon fill="lightblue" stroke="lightblue" points="1033.62,-755 956.62,-755 956.62,-678 1033.62,-678 1033.62,-755"/>
<image xlink:href="img/mob.png" width="77px" height="77px" preserveAspectRatio="xMinYMin meet" x="956.625" y="-755"/>
<text text-anchor="middle" x="995.12" y="-710.7" font-family="MS Gothic" font-size="14.00">Economist</text>
</g>
<!-- Economist&#45;&gt;Echidna -->
<g id="edge17" class="edge">
<title>Economist&#45;&gt;Echidna</title>
<path fill="none" stroke="black" d="M995.81,-677.61C995.95,-669.84 996.1,-661.56 996.24,-653.46"/>
<polygon fill="black" stroke="black" points="999.74,-653.79 996.42,-643.73 992.74,-653.67 999.74,-653.79"/>
</g>
<!-- Miss Pratt -->
<g id="node19" class="node">
<title>Miss Pratt</title>
<polygon fill="lightcoral" stroke="lightcoral" points="1134.88,-755 1051.38,-755 1051.38,-678 1134.88,-678 1134.88,-755"/>
<image xlink:href="img/mob.png" width="83.5px" height="77px" preserveAspectRatio="xMinYMin meet" x="1051.38" y="-755"/>
<text text-anchor="middle" x="1093.12" y="-710.7" font-family="MS Gothic" font-size="14.00">Miss Pratt</text>
</g>
<!-- Miss Pratt&#45;&gt;Echidna -->
<g id="edge18" class="edge">
<title>Miss Pratt&#45;&gt;Echidna</title>
<path fill="none" stroke="black" d="M1060.36,-677.61C1052.86,-668.95 1044.82,-659.65 1037.07,-650.68"/>
<polygon fill="black" stroke="black" points="1039.93,-648.64 1030.74,-643.36 1034.63,-653.22 1039.93,-648.64"/>
</g>
<!-- Whalebone -->
<g id="node20" class="node">
<title>Whalebone</title>
<polygon fill="lightblue" stroke="lightblue" points="783.62,-868 706.62,-868 706.62,-791 783.62,-791 783.62,-868"/>
<image xlink:href="img/mob.png" width="77px" height="77px" preserveAspectRatio="xMinYMin meet" x="706.625" y="-868"/>
<text text-anchor="middle" x="745.12" y="-823.7" font-family="MS Gothic" font-size="14.00">Whalebone</text>
</g>
<!-- Whalebone&#45;&gt;Sir Hercules -->
<g id="edge19" class="edge">
<title>Whalebone&#45;&gt;Sir Hercules</title>
<path fill="none" stroke="black" d="M761.17,-790.61C764.57,-782.57 768.21,-773.99 771.75,-765.63"/>
<polygon fill="black" stroke="black" points="774.89,-767.19 775.56,-756.61 768.44,-764.46 774.89,-767.19"/>
</g>
<!-- Peri -->
<g id="node21" class="node">
<title>Peri</title>
<polygon fill="lightcoral" stroke="lightcoral" points="878.62,-868 801.62,-868 801.62,-791 878.62,-791 878.62,-868"/>
<image xlink:href="img/mob.png" width="77px" height="77px" preserveAspectRatio="xMinYMin meet" x="801.625" y="-868"/>
<text text-anchor="middle" x="840.12" y="-823.7" font-family="MS Gothic" font-size="14.00">Peri</text>
</g>
<!-- Peri&#45;&gt;Sir Hercules -->
<g id="edge20" class="edge">
<title>Peri&#45;&gt;Sir Hercules</title>
<path fill="none" stroke="black" d="M823.74,-790.61C820.26,-782.57 816.55,-773.99 812.94,-765.63"/>
<polygon fill="black" stroke="black" points="816.22,-764.4 809.04,-756.61 809.79,-767.18 816.22,-764.4"/>
</g>
<!-- Waxy -->
<g id="node22" class="node">
<title>Waxy</title>
<polygon fill="lightblue" stroke="lightblue" points="688.62,-981 611.62,-981 611.62,-904 688.62,-904 688.62,-981"/>
<image xlink:href="img/mob.png" width="77px" height="77px" preserveAspectRatio="xMinYMin meet" x="611.625" y="-981"/>
<text text-anchor="middle" x="650.12" y="-936.7" font-family="MS Gothic" font-size="14.00">Waxy</text>
</g>
<!-- Waxy&#45;&gt;Whalebone -->
<g id="edge21" class="edge">
<title>Waxy&#45;&gt;Whalebone</title>
<path fill="none" stroke="black" d="M682.55,-903.61C689.89,-895.04 697.76,-885.84 705.36,-876.96"/>
<polygon fill="black" stroke="black" points="708.02,-879.24 711.86,-869.37 702.7,-874.69 708.02,-879.24"/>
</g>
<!-- Penelope -->
<g id="node23" class="node">
<title>Penelope</title>
<polygon fill="lightcoral" stroke="lightcoral" points="783.62,-981 706.62,-981 706.62,-904 783.62,-904 783.62,-981"/>
<image xlink:href="img/mob.png" width="77px" height="77px" preserveAspectRatio="xMinYMin meet" x="706.625" y="-981"/>
<text text-anchor="middle" x="745.12" y="-936.7" font-family="MS Gothic" font-size="14.00">Penelope</text>
</g>
<!-- Penelope&#45;&gt;Whalebone -->
<g id="edge22" class="edge">
<title>Penelope&#45;&gt;Whalebone</title>
<path fill="none" stroke="black" d="M745.12,-903.61C745.12,-895.84 745.12,-887.56 745.12,-879.46"/>
<polygon fill="black" stroke="black" points="748.63,-879.73 745.13,-869.73 741.63,-879.73 748.63,-879.73"/>
</g>
<!-- Wanderer -->
<g id="node24" class="node">
<title>Wanderer</title>
<polygon fill="lightblue" stroke="lightblue" points="878.62,-981 801.62,-981 801.62,-904 878.62,-904 878.62,-981"/>
<image xlink:href="img/mob.png" width="77px" height="77px" preserveAspectRatio="xMinYMin meet" x="801.625" y="-981"/>
<text text-anchor="middle" x="840.12" y="-936.7" font-family="MS Gothic" font-size="14.00">Wanderer</text>
</g>
<!-- Wanderer&#45;&gt;Peri -->
<g id="edge23" class="edge">
<title>Wanderer&#45;&gt;Peri</title>
<path fill="none" stroke="black" d="M840.12,-903.61C840.12,-895.84 840.12,-887.56 840.12,-879.46"/>
<polygon fill="black" stroke="black" points="843.63,-879.73 840.13,-869.73 836.63,-879.73 843.63,-879.73"/>
</g>
<!-- Thalestris -->
<g id="node25" class="node">
<title>Thalestris</title>
<polygon fill="lightcoral" stroke="lightcoral" points="979.88,-981 896.38,-981 896.38,-904 979.88,-904 979.88,-981"/>
<image xlink:href="img/mob.png" width="83.5px" height="77px" preserveAspectRatio="xMinYMin meet" x="896.375" y="-981"/>
<text text-anchor="middle" x="938.12" y="-936.7" font-family="MS Gothic" font-size="14.00">Thalestris</text>
</g>
<!-- Thalestris&#45;&gt;Peri -->
<g id="edge24" class="edge">
<title>Thalestris&#45;&gt;Peri</title>
<path fill="none" stroke="black" d="M904.67,-903.61C897.03,-894.95 888.81,-885.65 880.9,-876.68"/>
<polygon fill="black" stroke="black" points="883.67,-874.53 874.43,-869.35 878.42,-879.17 883.67,-874.53"/>
</g>
<!-- Pot&#45;8&#45;Os -->
<g id="node26" class="node">
<title>Pot&#45;8&#45;Os</title>
<polygon fill="lightblue" stroke="lightblue" points="632.62,-1094 555.62,-1094 555.62,-1017 632.62,-1017 632.62,-1094"/>
<image xlink:href="img/mob.png" width="77px" height="77px" preserveAspectRatio="xMinYMin meet" x="555.625" y="-1094"/>
<text text-anchor="middle" x="594.12" y="-1049.7" font-family="MS Gothic" font-size="14.00">Pot&#45;8&#45;Os</text>
</g>
<!-- Pot&#45;8&#45;Os&#45;&gt;Waxy -->
<g id="edge25" class="edge">
<title>Pot&#45;8&#45;Os&#45;&gt;Waxy</title>
<path fill="none" stroke="black" d="M613.24,-1016.61C617.34,-1008.48 621.72,-999.8 625.99,-991.35"/>
<polygon fill="black" stroke="black" points="629.03,-993.07 630.41,-982.57 622.78,-989.92 629.03,-993.07"/>
</g>
<!-- Maria III -->
<g id="node27" class="node">
<title>Maria III</title>
<polygon fill="lightcoral" stroke="lightcoral" points="744.62,-1094 667.62,-1094 667.62,-1017 744.62,-1017 744.62,-1094"/>
<image xlink:href="img/mob.png" width="77px" height="77px" preserveAspectRatio="xMinYMin meet" x="667.625" y="-1094"/>
<text text-anchor="middle" x="706.12" y="-1049.7" font-family="MS Gothic" font-size="14.00">Maria III</text>
</g>
<!-- Maria III&#45;&gt;Waxy -->
<g id="edge26" class="edge">
<title>Maria III&#45;&gt;Waxy</title>
<path fill="none" stroke="black" d="M687.01,-1016.61C682.91,-1008.48 678.53,-999.8 674.26,-991.35"/>
<polygon fill="black" stroke="black" points="677.47,-989.92 669.84,-982.57 671.22,-993.07 677.47,-989.92"/>
</g>
<!-- Eclipse -->
<g id="node28" class="node">
<title>Eclipse</title>
<polygon fill="lightblue" stroke="lightblue" points="520.62,-1207 443.62,-1207 443.62,-1130 520.62,-1130 520.62,-1207"/>
<image xlink:href="img/mob.png" width="77px" height="77px" preserveAspectRatio="xMinYMin meet" x="443.625" y="-1207"/>
<text text-anchor="middle" x="482.12" y="-1162.7" font-family="MS Gothic" font-size="14.00">Eclipse</text>
</g>
<!-- Eclipse&#45;&gt;Pot&#45;8&#45;Os -->
<g id="edge27" class="edge">
<title>Eclipse&#45;&gt;Pot&#45;8&#45;Os</title>
<path fill="none" stroke="black" d="M520.36,-1129.61C529.28,-1120.77 538.87,-1111.26 548.09,-1102.13"/>
<polygon fill="black" stroke="black" points="550.35,-1104.81 554.99,-1095.28 545.42,-1099.84 550.35,-1104.81"/>
</g>
<!-- Sportsmistress -->
<g id="node29" class="node">
<title>Sportsmistress</title>
<polygon fill="lightcoral" stroke="lightcoral" points="649.38,-1207 538.88,-1207 538.88,-1130 649.38,-1130 649.38,-1207"/>
<image xlink:href="img/mob.png" width="100px" height="77px" preserveAspectRatio="xMinYMin meet" x="544.125" y="-1207"/>
<text text-anchor="middle" x="594.12" y="-1162.7" font-family="MS Gothic" font-size="14.00">Sportsmistress</text>
</g>
<!-- Sportsmistress&#45;&gt;Pot&#45;8&#45;Os -->
<g id="edge28" class="edge">
<title>Sportsmistress&#45;&gt;Pot&#45;8&#45;Os</title>
<path fill="none" stroke="black" d="M594.12,-1129.61C594.12,-1121.84 594.12,-1113.56 594.12,-1105.46"/>
<polygon fill="black" stroke="black" points="597.63,-1105.73 594.13,-1095.73 590.63,-1105.73 597.63,-1105.73"/>
</g>
<!-- Herod -->
<g id="node30" class="node">
<title>Herod</title>
<polygon fill="lightblue" stroke="lightblue" points="744.62,-1207 667.62,-1207 667.62,-1130 744.62,-1130 744.62,-1207"/>
<image xlink:href="img/mob.png" width="77px" height="77px" preserveAspectRatio="xMinYMin meet" x="667.625" y="-1207"/>
<text text-anchor="middle" x="706.12" y="-1162.7" font-family="MS Gothic" font-size="14.00">Herod</text>
</g>
<!-- Herod&#45;&gt;Maria III -->
<g id="edge29" class="edge">
<title>Herod&#45;&gt;Maria III</title>
<path fill="none" stroke="black" d="M706.12,-1129.61C706.12,-1121.84 706.12,-1113.56 706.12,-1105.46"/>
<polygon fill="black" stroke="black" points="709.63,-1105.73 706.13,-1095.73 702.63,-1105.73 709.63,-1105.73"/>
</g>
<!-- Lisette -->
<g id="node31" class="node">
<title>Lisette</title>
<polygon fill="lightcoral" stroke="lightcoral" points="839.62,-1207 762.62,-1207 762.62,-1130 839.62,-1130 839.62,-1207"/>
<image xlink:href="img/mob.png" width="77px" height="77px" preserveAspectRatio="xMinYMin meet" x="762.625" y="-1207"/>
<text text-anchor="middle" x="801.12" y="-1162.7" font-family="MS Gothic" font-size="14.00">Lisette</text>
</g>
<!-- Lisette&#45;&gt;Maria III -->
<g id="edge30" class="edge">
<title>Lisette&#45;&gt;Maria III</title>
<path fill="none" stroke="black" d="M768.7,-1129.61C761.36,-1121.04 753.49,-1111.84 745.89,-1102.96"/>
<polygon fill="black" stroke="black" points="748.55,-1100.69 739.39,-1095.37 743.23,-1105.24 748.55,-1100.69"/>
</g>
<!-- Marske -->
<g id="node32" class="node">
<title>Marske</title>
<polygon fill="lightblue" stroke="lightblue" points="449.62,-1320 372.62,-1320 372.62,-1243 449.62,-1243 449.62,-1320"/>
<image xlink:href="img/mob.png" width="77px" height="77px" preserveAspectRatio="xMinYMin meet" x="372.625" y="-1320"/>
<text text-anchor="middle" x="411.12" y="-1275.7" font-family="MS Gothic" font-size="14.00">Marske</text>
</g>
<!-- Marske&#45;&gt;Eclipse -->
<g id="edge31" class="edge">
<title>Marske&#45;&gt;Eclipse</title>
<path fill="none" stroke="black" d="M435.36,-1242.61C440.67,-1234.31 446.36,-1225.41 451.88,-1216.79"/>
<polygon fill="black" stroke="black" points="454.74,-1218.8 457.18,-1208.49 448.85,-1215.03 454.74,-1218.8"/>
</g>
<!-- Spilletta -->
<g id="node33" class="node">
<title>Spilletta</title>
<polygon fill="lightcoral" stroke="lightcoral" points="591.62,-1320 514.62,-1320 514.62,-1243 591.62,-1243 591.62,-1320"/>
<image xlink:href="img/mob.png" width="77px" height="77px" preserveAspectRatio="xMinYMin meet" x="514.625" y="-1320"/>
<text text-anchor="middle" x="553.12" y="-1275.7" font-family="MS Gothic" font-size="14.00">Spilletta</text>
</g>
<!-- Spilletta&#45;&gt;Eclipse -->
<g id="edge32" class="edge">
<title>Spilletta&#45;&gt;Eclipse</title>
<path fill="none" stroke="black" d="M528.89,-1242.61C523.58,-1234.31 517.89,-1225.41 512.37,-1216.79"/>
<polygon fill="black" stroke="black" points="515.4,-1215.03 507.07,-1208.49 509.51,-1218.8 515.4,-1215.03"/>
</g>
<!-- Squirt -->
<g id="node34" class="node">
<title>Squirt</title>
<polygon fill="lightblue" stroke="lightblue" points="307.62,-1433 230.62,-1433 230.62,-1356 307.62,-1356 307.62,-1433"/>
<image xlink:href="img/mob.png" width="77px" height="77px" preserveAspectRatio="xMinYMin meet" x="230.625" y="-1433"/>
<text text-anchor="middle" x="269.12" y="-1388.7" font-family="MS Gothic" font-size="14.00">Squirt</text>
</g>
<!-- Squirt&#45;&gt;Marske -->
<g id="edge33" class="edge">
<title>Squirt&#45;&gt;Marske</title>
<path fill="none" stroke="black" d="M308.07,-1362.35C310.79,-1360.2 313.5,-1358.06 316.12,-1356 331.48,-1343.94 348.31,-1330.87 363.48,-1319.14"/>
<polygon fill="black" stroke="black" points="365.22,-1322.22 371,-1313.33 360.95,-1316.67 365.22,-1322.22"/>
</g>
<!-- Hutton&#39;s Blacklegs Mare -->
<g id="node35" class="node">
<title>Hutton&#39;s Blacklegs Mare</title>
<polygon fill="lightcoral" stroke="lightcoral" points="496.75,-1433 325.5,-1433 325.5,-1356 496.75,-1356 496.75,-1433"/>
<image xlink:href="img/mob.png" width="100px" height="77px" preserveAspectRatio="xMinYMin meet" x="361.125" y="-1433"/>
<text text-anchor="middle" x="411.12" y="-1388.7" font-family="MS Gothic" font-size="14.00">Hutton&#39;s Blacklegs Mare</text>
</g>
<!-- Hutton&#39;s Blacklegs Mare&#45;&gt;Marske -->
<g id="edge34" class="edge">
<title>Hutton&#39;s Blacklegs Mare&#45;&gt;Marske</title>
<path fill="none" stroke="black" d="M411.12,-1355.61C411.12,-1347.84 411.12,-1339.56 411.12,-1331.46"/>
<polygon fill="black" stroke="black" points="414.63,-1331.73 411.13,-1321.73 407.63,-1331.73 414.63,-1331.73"/>
</g>
<!-- Regulus -->
<g id="node36" class="node">
<title>Regulus</title>
<polygon fill="lightblue" stroke="lightblue" points="591.62,-1433 514.62,-1433 514.62,-1356 591.62,-1356 591.62,-1433"/>
<image xlink:href="img/mob.png" width="77px" height="77px" preserveAspectRatio="xMinYMin meet" x="514.625" y="-1433"/>
<text text-anchor="middle" x="553.12" y="-1388.7" font-family="MS Gothic" font-size="14.00">Regulus</text>
</g>
<!-- Regulus&#45;&gt;Spilletta -->
<g id="edge35" class="edge">
<title>Regulus&#45;&gt;Spilletta</title>
<path fill="none" stroke="black" d="M553.12,-1355.61C553.12,-1347.84 553.12,-1339.56 553.12,-1331.46"/>
<polygon fill="black" stroke="black" points="556.63,-1331.73 553.13,-1321.73 549.63,-1331.73 556.63,-1331.73"/>
</g>
<!-- Mother Western -->
<g id="node37" class="node">
<title>Mother Western</title>
<polygon fill="lightcoral" stroke="lightcoral" points="720.38,-1433 609.88,-1433 609.88,-1356 720.38,-1356 720.38,-1433"/>
<image xlink:href="img/mob.png" width="100px" height="77px" preserveAspectRatio="xMinYMin meet" x="615.125" y="-1433"/>
<text text-anchor="middle" x="665.12" y="-1388.7" font-family="MS Gothic" font-size="14.00">Mother Western</text>
</g>
<!-- Mother Western&#45;&gt;Spilletta -->
<g id="edge36" class="edge">
<title>Mother Western&#45;&gt;Spilletta</title>
<path fill="none" stroke="black" d="M626.89,-1355.61C617.97,-1346.77 608.38,-1337.26 599.16,-1328.13"/>
<polygon fill="black" stroke="black" points="601.83,-1325.84 592.26,-1321.28 596.9,-1330.81 601.83,-1325.84"/>
</g>
<!-- Bartlet&#39;s Childers -->
<g id="node38" class="node">
<title>Bartlet&#39;s Childers</title>
<polygon fill="lightblue" stroke="lightblue" points="273.88,-1546 136.38,-1546 136.38,-1469 273.88,-1469 273.88,-1546"/>
<image xlink:href="img/mob.png" width="100px" height="77px" preserveAspectRatio="xMinYMin meet" x="155.125" y="-1546"/>
<text text-anchor="middle" x="205.12" y="-1501.7" font-family="MS Gothic" font-size="14.00">Bartlet&#39;s Childers</text>
</g>
<!-- Bartlet&#39;s Childers&#45;&gt;Squirt -->
<g id="edge37" class="edge">
<title>Bartlet&#39;s Childers&#45;&gt;Squirt</title>
<path fill="none" stroke="black" d="M226.97,-1468.61C231.71,-1460.39 236.78,-1451.6 241.7,-1443.07"/>
<polygon fill="black" stroke="black" points="244.66,-1444.94 246.62,-1434.53 238.59,-1441.44 244.66,-1444.94"/>
</g>
<!-- Snake Mare -->
<g id="node39" class="node">
<title>Snake Mare</title>
<polygon fill="lightcoral" stroke="lightcoral" points="375.88,-1546 292.38,-1546 292.38,-1469 375.88,-1469 375.88,-1546"/>
<image xlink:href="img/mob.png" width="83.5px" height="77px" preserveAspectRatio="xMinYMin meet" x="292.375" y="-1546"/>
<text text-anchor="middle" x="334.12" y="-1501.7" font-family="MS Gothic" font-size="14.00">Snake Mare</text>
</g>
<!-- Snake Mare&#45;&gt;Squirt -->
<g id="edge38" class="edge">
<title>Snake Mare&#45;&gt;Squirt</title>
<path fill="none" stroke="black" d="M311.94,-1468.61C307.13,-1460.39 301.98,-1451.6 296.98,-1443.07"/>
<polygon fill="black" stroke="black" points="300.05,-1441.39 291.98,-1434.52 294.01,-1444.92 300.05,-1441.39"/>
</g>
<!-- ダーレーアラビアン -->
<g id="node40" class="node">
<title>ダーレーアラビアン</title>
<polygon fill="lightblue" stroke="lightblue" points="144.25,-1659 0,-1659 0,-1582 144.25,-1582 144.25,-1659"/>
<image xlink:href="img/darearabian.png" width="100px" height="77px" preserveAspectRatio="xMinYMin meet" x="22.125" y="-1659"/>
<text text-anchor="middle" x="72.12" y="-1614.7" font-family="MS Gothic" font-size="14.00">ダーレーアラビアン</text>
</g>
<!-- ダーレーアラビアン&#45;&gt;Bartlet&#39;s Childers -->
<g id="edge39" class="edge">
<title>ダーレーアラビアン&#45;&gt;Bartlet&#39;s Childers</title>
<path fill="none" stroke="black" d="M117.52,-1581.61C128.33,-1572.59 139.97,-1562.88 151.12,-1553.57"/>
<polygon fill="black" stroke="black" points="153.33,-1556.28 158.77,-1547.19 148.85,-1550.91 153.33,-1556.28"/>
</g>
<!-- Betty Leedes -->
<g id="node41" class="node">
<title>Betty Leedes</title>
<polygon fill="lightcoral" stroke="lightcoral" points="259.62,-1659 162.62,-1659 162.62,-1582 259.62,-1582 259.62,-1659"/>
<image xlink:href="img/mob.png" width="97px" height="77px" preserveAspectRatio="xMinYMin meet" x="162.625" y="-1659"/>
<text text-anchor="middle" x="211.12" y="-1614.7" font-family="MS Gothic" font-size="14.00">Betty Leedes</text>
</g>
<!-- Betty Leedes&#45;&gt;Bartlet&#39;s Childers -->
<g id="edge40" class="edge">
<title>Betty Leedes&#45;&gt;Bartlet&#39;s Childers</title>
<path fill="none" stroke="black" d="M209.08,-1581.61C208.66,-1573.84 208.21,-1565.56 207.77,-1557.46"/>
<polygon fill="black" stroke="black" points="211.28,-1557.53 207.25,-1547.73 204.29,-1557.9 211.28,-1557.53"/>
</g>
<!-- Snake -->
<g id="node42" class="node">
<title>Snake</title>
<polygon fill="lightblue" stroke="lightblue" points="366.62,-1659 289.62,-1659 289.62,-1582 366.62,-1582 366.62,-1659"/>
<image xlink:href="img/mob.png" width="77px" height="77px" preserveAspectRatio="xMinYMin meet" x="289.625" y="-1659"/>
<text text-anchor="middle" x="328.12" y="-1614.7" font-family="MS Gothic" font-size="14.00">Snake</text>
</g>
<!-- Snake&#45;&gt;Snake Mare -->
<g id="edge41" class="edge">
<title>Snake&#45;&gt;Snake Mare</title>
<path fill="none" stroke="black" d="M330.17,-1581.61C330.59,-1573.84 331.04,-1565.56 331.48,-1557.46"/>
<polygon fill="black" stroke="black" points="334.96,-1557.9 332,-1547.73 327.97,-1557.53 334.96,-1557.9"/>
</g>
<!-- Grey Wilkes -->
<g id="node43" class="node">
<title>Grey Wilkes</title>
<polygon fill="lightcoral" stroke="lightcoral" points="475.25,-1659 385,-1659 385,-1582 475.25,-1582 475.25,-1659"/>
<image xlink:href="img/mob.png" width="90.25px" height="77px" preserveAspectRatio="xMinYMin meet" x="385" y="-1659"/>
<text text-anchor="middle" x="430.12" y="-1614.7" font-family="MS Gothic" font-size="14.00">Grey Wilkes</text>
</g>
<!-- Grey Wilkes&#45;&gt;Snake Mare -->
<g id="edge42" class="edge">
<title>Grey Wilkes&#45;&gt;Snake Mare</title>
<path fill="none" stroke="black" d="M397.36,-1581.61C389.86,-1572.95 381.82,-1563.65 374.07,-1554.68"/>
<polygon fill="black" stroke="black" points="376.93,-1552.64 367.74,-1547.36 371.63,-1557.22 376.93,-1552.64"/>
</g>
</g>
</svg>
