<?xml version="1.0" encoding="UTF-8" standalone="no"?>
<!DOCTYPE svg PUBLIC "-//W3C//DTD SVG 1.1//EN"
 "http://www.w3.org/Graphics/SVG/1.1/DTD/svg11.dtd">
<!-- Generated by graphviz version 12.1.2 (20240928.0832)
 -->
<!-- Pages: 1 -->
<svg width="1563pt" height="1893pt"
 viewBox="0.00 0.00 1562.50 1893.00" xmlns="http://www.w3.org/2000/svg" xmlns:xlink="http://www.w3.org/1999/xlink">
<g id="graph0" class="graph" transform="scale(1 1) rotate(0) translate(4 1889)">
<polygon fill="white" stroke="none" points="-4,4 -4,-1889 1558.5,-1889 1558.5,4 -4,4"/>
<!-- Bruleur -->
<g id="node1" class="node">
<title>Bruleur</title>
<polygon fill="none" stroke="black" points="1408.5,-77 1331.5,-77 1331.5,0 1408.5,0 1408.5,-77"/>
<image xlink:href="img/mob.png" width="77px" height="77px" preserveAspectRatio="xMinYMin meet" x="1331.5" y="-77"/>
<text text-anchor="middle" x="1370" y="-33.45" font-family="Times New Roman,serif" font-size="14.00">Bruleur</text>
</g>
<!-- Chouberski -->
<g id="node2" class="node">
<title>Chouberski</title>
<polygon fill="lightblue" stroke="lightblue" points="1359.75,-190 1276.25,-190 1276.25,-113 1359.75,-113 1359.75,-190"/>
<image xlink:href="img/mob.png" width="83.5px" height="77px" preserveAspectRatio="xMinYMin meet" x="1276.25" y="-190"/>
<text text-anchor="middle" x="1318" y="-145.7" font-family="MS Gothic" font-size="14.00">Chouberski</text>
</g>
<!-- Chouberski&#45;&gt;Bruleur -->
<g id="edge1" class="edge">
<title>Chouberski&#45;&gt;Bruleur</title>
<path fill="none" stroke="black" d="M1335.75,-112.61C1339.52,-104.57 1343.54,-95.99 1347.45,-87.63"/>
<polygon fill="black" stroke="black" points="1350.62,-89.13 1351.69,-78.59 1344.28,-86.16 1350.62,-89.13"/>
</g>
<!-- Basse Terre -->
<g id="node3" class="node">
<title>Basse Terre</title>
<polygon fill="lightcoral" stroke="lightcoral" points="1468.12,-190 1377.88,-190 1377.88,-113 1468.12,-113 1468.12,-190"/>
<image xlink:href="img/mob.png" width="90.25px" height="77px" preserveAspectRatio="xMinYMin meet" x="1377.88" y="-190"/>
<text text-anchor="middle" x="1423" y="-145.7" font-family="MS Gothic" font-size="14.00">Basse Terre</text>
</g>
<!-- Basse Terre&#45;&gt;Bruleur -->
<g id="edge2" class="edge">
<title>Basse Terre&#45;&gt;Bruleur</title>
<path fill="none" stroke="black" d="M1404.91,-112.61C1401.03,-104.48 1396.88,-95.8 1392.85,-87.35"/>
<polygon fill="black" stroke="black" points="1396.13,-86.1 1388.66,-78.58 1389.81,-89.12 1396.13,-86.1"/>
</g>
<!-- Gardefeu -->
<g id="node4" class="node">
<title>Gardefeu</title>
<polygon fill="lightblue" stroke="lightblue" points="1264.5,-303 1187.5,-303 1187.5,-226 1264.5,-226 1264.5,-303"/>
<image xlink:href="img/mob.png" width="77px" height="77px" preserveAspectRatio="xMinYMin meet" x="1187.5" y="-303"/>
<text text-anchor="middle" x="1226" y="-258.7" font-family="MS Gothic" font-size="14.00">Gardefeu</text>
</g>
<!-- Gardefeu&#45;&gt;Chouberski -->
<g id="edge3" class="edge">
<title>Gardefeu&#45;&gt;Chouberski</title>
<path fill="none" stroke="black" d="M1257.4,-225.61C1264.51,-217.04 1272.13,-207.84 1279.49,-198.96"/>
<polygon fill="black" stroke="black" points="1282.09,-201.32 1285.77,-191.38 1276.7,-196.85 1282.09,-201.32"/>
</g>
<!-- Campanule -->
<g id="node5" class="node">
<title>Campanule</title>
<polygon fill="lightcoral" stroke="lightcoral" points="1359.5,-303 1282.5,-303 1282.5,-226 1359.5,-226 1359.5,-303"/>
<image xlink:href="img/mob.png" width="77px" height="77px" preserveAspectRatio="xMinYMin meet" x="1282.5" y="-303"/>
<text text-anchor="middle" x="1321" y="-258.7" font-family="MS Gothic" font-size="14.00">Campanule</text>
</g>
<!-- Campanule&#45;&gt;Chouberski -->
<g id="edge4" class="edge">
<title>Campanule&#45;&gt;Chouberski</title>
<path fill="none" stroke="black" d="M1319.98,-225.61C1319.77,-217.84 1319.54,-209.56 1319.32,-201.46"/>
<polygon fill="black" stroke="black" points="1322.83,-201.63 1319.06,-191.73 1315.83,-201.82 1322.83,-201.63"/>
</g>
<!-- Omnium -->
<g id="node6" class="node">
<title>Omnium</title>
<polygon fill="lightblue" stroke="lightblue" points="1459.5,-303 1382.5,-303 1382.5,-226 1459.5,-226 1459.5,-303"/>
<image xlink:href="img/mob.png" width="77px" height="77px" preserveAspectRatio="xMinYMin meet" x="1382.5" y="-303"/>
<text text-anchor="middle" x="1421" y="-258.7" font-family="MS Gothic" font-size="14.00">Omnium</text>
</g>
<!-- Omnium&#45;&gt;Basse Terre -->
<g id="edge5" class="edge">
<title>Omnium&#45;&gt;Basse Terre</title>
<path fill="none" stroke="black" d="M1421.68,-225.61C1421.82,-217.84 1421.97,-209.56 1422.12,-201.46"/>
<polygon fill="black" stroke="black" points="1425.61,-201.79 1422.29,-191.73 1418.61,-201.67 1425.61,-201.79"/>
</g>
<!-- Bijou -->
<g id="node7" class="node">
<title>Bijou</title>
<polygon fill="lightcoral" stroke="lightcoral" points="1554.5,-303 1477.5,-303 1477.5,-226 1554.5,-226 1554.5,-303"/>
<image xlink:href="img/mob.png" width="77px" height="77px" preserveAspectRatio="xMinYMin meet" x="1477.5" y="-303"/>
<text text-anchor="middle" x="1516" y="-258.7" font-family="MS Gothic" font-size="14.00">Bijou</text>
</g>
<!-- Bijou&#45;&gt;Basse Terre -->
<g id="edge6" class="edge">
<title>Bijou&#45;&gt;Basse Terre</title>
<path fill="none" stroke="black" d="M1484.25,-225.61C1477.07,-217.04 1469.37,-207.84 1461.92,-198.96"/>
<polygon fill="black" stroke="black" points="1464.68,-196.8 1455.57,-191.38 1459.31,-201.29 1464.68,-196.8"/>
</g>
<!-- Cambyse -->
<g id="node8" class="node">
<title>Cambyse</title>
<polygon fill="lightblue" stroke="lightblue" points="1217.5,-416 1140.5,-416 1140.5,-339 1217.5,-339 1217.5,-416"/>
<image xlink:href="img/mob.png" width="77px" height="77px" preserveAspectRatio="xMinYMin meet" x="1140.5" y="-416"/>
<text text-anchor="middle" x="1179" y="-371.7" font-family="MS Gothic" font-size="14.00">Cambyse</text>
</g>
<!-- Cambyse&#45;&gt;Gardefeu -->
<g id="edge7" class="edge">
<title>Cambyse&#45;&gt;Gardefeu</title>
<path fill="none" stroke="black" d="M1195.04,-338.61C1198.45,-330.57 1202.08,-321.99 1205.62,-313.63"/>
<polygon fill="black" stroke="black" points="1208.76,-315.19 1209.44,-304.61 1202.32,-312.46 1208.76,-315.19"/>
</g>
<!-- Bougie -->
<g id="node9" class="node">
<title>Bougie</title>
<polygon fill="lightcoral" stroke="lightcoral" points="1312.5,-416 1235.5,-416 1235.5,-339 1312.5,-339 1312.5,-416"/>
<image xlink:href="img/mob.png" width="77px" height="77px" preserveAspectRatio="xMinYMin meet" x="1235.5" y="-416"/>
<text text-anchor="middle" x="1274" y="-371.7" font-family="MS Gothic" font-size="14.00">Bougie</text>
</g>
<!-- Bougie&#45;&gt;Gardefeu -->
<g id="edge8" class="edge">
<title>Bougie&#45;&gt;Gardefeu</title>
<path fill="none" stroke="black" d="M1257.62,-338.61C1254.14,-330.57 1250.43,-321.99 1246.81,-313.63"/>
<polygon fill="black" stroke="black" points="1250.09,-312.4 1242.91,-304.61 1243.67,-315.18 1250.09,-312.4"/>
</g>
<!-- Androcles -->
<g id="node10" class="node">
<title>Androcles</title>
<polygon fill="lightblue" stroke="lightblue" points="1122.5,-529 1045.5,-529 1045.5,-452 1122.5,-452 1122.5,-529"/>
<image xlink:href="img/mob.png" width="77px" height="77px" preserveAspectRatio="xMinYMin meet" x="1045.5" y="-529"/>
<text text-anchor="middle" x="1084" y="-484.7" font-family="MS Gothic" font-size="14.00">Androcles</text>
</g>
<!-- Androcles&#45;&gt;Cambyse -->
<g id="edge9" class="edge">
<title>Androcles&#45;&gt;Cambyse</title>
<path fill="none" stroke="black" d="M1116.43,-451.61C1123.76,-443.04 1131.64,-433.84 1139.24,-424.96"/>
<polygon fill="black" stroke="black" points="1141.89,-427.24 1145.73,-417.37 1136.57,-422.69 1141.89,-427.24"/>
</g>
<!-- Cambuse -->
<g id="node11" class="node">
<title>Cambuse</title>
<polygon fill="lightcoral" stroke="lightcoral" points="1217.5,-529 1140.5,-529 1140.5,-452 1217.5,-452 1217.5,-529"/>
<image xlink:href="img/mob.png" width="77px" height="77px" preserveAspectRatio="xMinYMin meet" x="1140.5" y="-529"/>
<text text-anchor="middle" x="1179" y="-484.7" font-family="MS Gothic" font-size="14.00">Cambuse</text>
</g>
<!-- Cambuse&#45;&gt;Cambyse -->
<g id="edge10" class="edge">
<title>Cambuse&#45;&gt;Cambyse</title>
<path fill="none" stroke="black" d="M1179,-451.61C1179,-443.84 1179,-435.56 1179,-427.46"/>
<polygon fill="black" stroke="black" points="1182.5,-427.73 1179,-417.73 1175.5,-427.73 1182.5,-427.73"/>
</g>
<!-- Bruce -->
<g id="node12" class="node">
<title>Bruce</title>
<polygon fill="lightblue" stroke="lightblue" points="1312.5,-529 1235.5,-529 1235.5,-452 1312.5,-452 1312.5,-529"/>
<image xlink:href="img/mob.png" width="77px" height="77px" preserveAspectRatio="xMinYMin meet" x="1235.5" y="-529"/>
<text text-anchor="middle" x="1274" y="-484.7" font-family="MS Gothic" font-size="14.00">Bruce</text>
</g>
<!-- Bruce&#45;&gt;Bougie -->
<g id="edge11" class="edge">
<title>Bruce&#45;&gt;Bougie</title>
<path fill="none" stroke="black" d="M1274,-451.61C1274,-443.84 1274,-435.56 1274,-427.46"/>
<polygon fill="black" stroke="black" points="1277.5,-427.73 1274,-417.73 1270.5,-427.73 1277.5,-427.73"/>
</g>
<!-- La Lumiere -->
<g id="node13" class="node">
<title>La Lumiere</title>
<polygon fill="lightcoral" stroke="lightcoral" points="1413.75,-529 1330.25,-529 1330.25,-452 1413.75,-452 1413.75,-529"/>
<image xlink:href="img/mob.png" width="83.5px" height="77px" preserveAspectRatio="xMinYMin meet" x="1330.25" y="-529"/>
<text text-anchor="middle" x="1372" y="-484.7" font-family="MS Gothic" font-size="14.00">La Lumiere</text>
</g>
<!-- La Lumiere&#45;&gt;Bougie -->
<g id="edge12" class="edge">
<title>La Lumiere&#45;&gt;Bougie</title>
<path fill="none" stroke="black" d="M1338.55,-451.61C1330.9,-442.95 1322.69,-433.65 1314.77,-424.68"/>
<polygon fill="black" stroke="black" points="1317.55,-422.53 1308.3,-417.35 1312.3,-427.17 1317.55,-422.53"/>
</g>
<!-- Dollar -->
<g id="node14" class="node">
<title>Dollar</title>
<polygon fill="lightblue" stroke="lightblue" points="1075.5,-642 998.5,-642 998.5,-565 1075.5,-565 1075.5,-642"/>
<image xlink:href="img/mob.png" width="77px" height="77px" preserveAspectRatio="xMinYMin meet" x="998.5" y="-642"/>
<text text-anchor="middle" x="1037" y="-597.7" font-family="MS Gothic" font-size="14.00">Dollar</text>
</g>
<!-- Dollar&#45;&gt;Androcles -->
<g id="edge13" class="edge">
<title>Dollar&#45;&gt;Androcles</title>
<path fill="none" stroke="black" d="M1053.04,-564.61C1056.45,-556.57 1060.08,-547.99 1063.62,-539.63"/>
<polygon fill="black" stroke="black" points="1066.76,-541.19 1067.44,-530.61 1060.32,-538.46 1066.76,-541.19"/>
</g>
<!-- Alabama -->
<g id="node15" class="node">
<title>Alabama</title>
<polygon fill="lightcoral" stroke="lightcoral" points="1170.5,-642 1093.5,-642 1093.5,-565 1170.5,-565 1170.5,-642"/>
<image xlink:href="img/mob.png" width="77px" height="77px" preserveAspectRatio="xMinYMin meet" x="1093.5" y="-642"/>
<text text-anchor="middle" x="1132" y="-597.7" font-family="MS Gothic" font-size="14.00">Alabama</text>
</g>
<!-- Alabama&#45;&gt;Androcles -->
<g id="edge14" class="edge">
<title>Alabama&#45;&gt;Androcles</title>
<path fill="none" stroke="black" d="M1115.62,-564.61C1112.14,-556.57 1108.43,-547.99 1104.81,-539.63"/>
<polygon fill="black" stroke="black" points="1108.09,-538.4 1100.91,-530.61 1101.67,-541.18 1108.09,-538.4"/>
</g>
<!-- The Flying Dutchman -->
<g id="node16" class="node">
<title>The Flying Dutchman</title>
<polygon fill="lightblue" stroke="lightblue" points="980.12,-755 835.88,-755 835.88,-678 980.12,-678 980.12,-755"/>
<image xlink:href="img/mob.png" width="100px" height="77px" preserveAspectRatio="xMinYMin meet" x="858" y="-755"/>
<text text-anchor="middle" x="908" y="-710.7" font-family="MS Gothic" font-size="14.00">The Flying Dutchman</text>
</g>
<!-- The Flying Dutchman&#45;&gt;Dollar -->
<g id="edge15" class="edge">
<title>The Flying Dutchman&#45;&gt;Dollar</title>
<path fill="none" stroke="black" d="M952.03,-677.61C964.25,-667.1 977.56,-655.65 989.94,-644.99"/>
<polygon fill="black" stroke="black" points="991.9,-647.93 997.19,-638.75 987.33,-642.62 991.9,-647.93"/>
</g>
<!-- Payment -->
<g id="node17" class="node">
<title>Payment</title>
<polygon fill="lightcoral" stroke="lightcoral" points="1075.5,-755 998.5,-755 998.5,-678 1075.5,-678 1075.5,-755"/>
<image xlink:href="img/mob.png" width="77px" height="77px" preserveAspectRatio="xMinYMin meet" x="998.5" y="-755"/>
<text text-anchor="middle" x="1037" y="-710.7" font-family="MS Gothic" font-size="14.00">Payment</text>
</g>
<!-- Payment&#45;&gt;Dollar -->
<g id="edge16" class="edge">
<title>Payment&#45;&gt;Dollar</title>
<path fill="none" stroke="black" d="M1037,-677.61C1037,-669.84 1037,-661.56 1037,-653.46"/>
<polygon fill="black" stroke="black" points="1040.5,-653.73 1037,-643.73 1033.5,-653.73 1040.5,-653.73"/>
</g>
<!-- Serious -->
<g id="node18" class="node">
<title>Serious</title>
<polygon fill="lightblue" stroke="lightblue" points="1170.5,-755 1093.5,-755 1093.5,-678 1170.5,-678 1170.5,-755"/>
<image xlink:href="img/mob.png" width="77px" height="77px" preserveAspectRatio="xMinYMin meet" x="1093.5" y="-755"/>
<text text-anchor="middle" x="1132" y="-710.7" font-family="MS Gothic" font-size="14.00">Serious</text>
</g>
<!-- Serious&#45;&gt;Alabama -->
<g id="edge17" class="edge">
<title>Serious&#45;&gt;Alabama</title>
<path fill="none" stroke="black" d="M1132,-677.61C1132,-669.84 1132,-661.56 1132,-653.46"/>
<polygon fill="black" stroke="black" points="1135.5,-653.73 1132,-643.73 1128.5,-653.73 1135.5,-653.73"/>
</g>
<!-- Admiralty -->
<g id="node19" class="node">
<title>Admiralty</title>
<polygon fill="lightcoral" stroke="lightcoral" points="1265.5,-755 1188.5,-755 1188.5,-678 1265.5,-678 1265.5,-755"/>
<image xlink:href="img/mob.png" width="77px" height="77px" preserveAspectRatio="xMinYMin meet" x="1188.5" y="-755"/>
<text text-anchor="middle" x="1227" y="-710.7" font-family="MS Gothic" font-size="14.00">Admiralty</text>
</g>
<!-- Admiralty&#45;&gt;Alabama -->
<g id="edge18" class="edge">
<title>Admiralty&#45;&gt;Alabama</title>
<path fill="none" stroke="black" d="M1194.57,-677.61C1187.24,-669.04 1179.36,-659.84 1171.76,-650.96"/>
<polygon fill="black" stroke="black" points="1174.43,-648.69 1165.27,-643.37 1169.11,-653.24 1174.43,-648.69"/>
</g>
<!-- Bay Middleton -->
<g id="node20" class="node">
<title>Bay Middleton</title>
<polygon fill="lightblue" stroke="lightblue" points="905.88,-868 802.12,-868 802.12,-791 905.88,-791 905.88,-868"/>
<image xlink:href="img/mob.png" width="100px" height="77px" preserveAspectRatio="xMinYMin meet" x="804" y="-868"/>
<text text-anchor="middle" x="854" y="-823.7" font-family="MS Gothic" font-size="14.00">Bay Middleton</text>
</g>
<!-- Bay Middleton&#45;&gt;The Flying Dutchman -->
<g id="edge19" class="edge">
<title>Bay Middleton&#45;&gt;The Flying Dutchman</title>
<path fill="none" stroke="black" d="M872.43,-790.61C876.39,-782.48 880.61,-773.8 884.72,-765.35"/>
<polygon fill="black" stroke="black" points="887.76,-767.1 888.99,-756.58 881.47,-764.04 887.76,-767.1"/>
</g>
<!-- Barbelle -->
<g id="node21" class="node">
<title>Barbelle</title>
<polygon fill="lightcoral" stroke="lightcoral" points="1000.5,-868 923.5,-868 923.5,-791 1000.5,-791 1000.5,-868"/>
<image xlink:href="img/mob.png" width="77px" height="77px" preserveAspectRatio="xMinYMin meet" x="923.5" y="-868"/>
<text text-anchor="middle" x="962" y="-823.7" font-family="MS Gothic" font-size="14.00">Barbelle</text>
</g>
<!-- Barbelle&#45;&gt;The Flying Dutchman -->
<g id="edge20" class="edge">
<title>Barbelle&#45;&gt;The Flying Dutchman</title>
<path fill="none" stroke="black" d="M943.57,-790.61C939.61,-782.48 935.39,-773.8 931.28,-765.35"/>
<polygon fill="black" stroke="black" points="934.53,-764.04 927.01,-756.58 928.24,-767.1 934.53,-764.04"/>
</g>
<!-- Sultan -->
<g id="node22" class="node">
<title>Sultan</title>
<polygon fill="lightblue" stroke="lightblue" points="801.5,-981 724.5,-981 724.5,-904 801.5,-904 801.5,-981"/>
<image xlink:href="img/mob.png" width="77px" height="77px" preserveAspectRatio="xMinYMin meet" x="724.5" y="-981"/>
<text text-anchor="middle" x="763" y="-936.7" font-family="MS Gothic" font-size="14.00">Sultan</text>
</g>
<!-- Sultan&#45;&gt;Bay Middleton -->
<g id="edge21" class="edge">
<title>Sultan&#45;&gt;Bay Middleton</title>
<path fill="none" stroke="black" d="M794.06,-903.61C801.09,-895.04 808.63,-885.84 815.91,-876.96"/>
<polygon fill="black" stroke="black" points="818.48,-879.34 822.12,-869.39 813.07,-874.9 818.48,-879.34"/>
</g>
<!-- Cobweb -->
<g id="node23" class="node">
<title>Cobweb</title>
<polygon fill="lightcoral" stroke="lightcoral" points="896.5,-981 819.5,-981 819.5,-904 896.5,-904 896.5,-981"/>
<image xlink:href="img/mob.png" width="77px" height="77px" preserveAspectRatio="xMinYMin meet" x="819.5" y="-981"/>
<text text-anchor="middle" x="858" y="-936.7" font-family="MS Gothic" font-size="14.00">Cobweb</text>
</g>
<!-- Cobweb&#45;&gt;Bay Middleton -->
<g id="edge22" class="edge">
<title>Cobweb&#45;&gt;Bay Middleton</title>
<path fill="none" stroke="black" d="M856.63,-903.61C856.35,-895.84 856.06,-887.56 855.76,-879.46"/>
<polygon fill="black" stroke="black" points="859.27,-879.6 855.41,-869.73 852.28,-879.85 859.27,-879.6"/>
</g>
<!-- Sandbeck -->
<g id="node24" class="node">
<title>Sandbeck</title>
<polygon fill="lightblue" stroke="lightblue" points="997.5,-981 920.5,-981 920.5,-904 997.5,-904 997.5,-981"/>
<image xlink:href="img/mob.png" width="77px" height="77px" preserveAspectRatio="xMinYMin meet" x="920.5" y="-981"/>
<text text-anchor="middle" x="959" y="-936.7" font-family="MS Gothic" font-size="14.00">Sandbeck</text>
</g>
<!-- Sandbeck&#45;&gt;Barbelle -->
<g id="edge23" class="edge">
<title>Sandbeck&#45;&gt;Barbelle</title>
<path fill="none" stroke="black" d="M960.02,-903.61C960.23,-895.84 960.46,-887.56 960.68,-879.46"/>
<polygon fill="black" stroke="black" points="964.17,-879.82 960.94,-869.73 957.17,-879.63 964.17,-879.82"/>
</g>
<!-- Darioletta -->
<g id="node25" class="node">
<title>Darioletta</title>
<polygon fill="lightcoral" stroke="lightcoral" points="1098.75,-981 1015.25,-981 1015.25,-904 1098.75,-904 1098.75,-981"/>
<image xlink:href="img/mob.png" width="83.5px" height="77px" preserveAspectRatio="xMinYMin meet" x="1015.25" y="-981"/>
<text text-anchor="middle" x="1057" y="-936.7" font-family="MS Gothic" font-size="14.00">Darioletta</text>
</g>
<!-- Darioletta&#45;&gt;Barbelle -->
<g id="edge24" class="edge">
<title>Darioletta&#45;&gt;Barbelle</title>
<path fill="none" stroke="black" d="M1024.57,-903.61C1017.24,-895.04 1009.36,-885.84 1001.76,-876.96"/>
<polygon fill="black" stroke="black" points="1004.43,-874.69 995.27,-869.37 999.11,-879.24 1004.43,-874.69"/>
</g>
<!-- Selim -->
<g id="node26" class="node">
<title>Selim</title>
<polygon fill="lightblue" stroke="lightblue" points="730.5,-1094 653.5,-1094 653.5,-1017 730.5,-1017 730.5,-1094"/>
<image xlink:href="img/mob.png" width="77px" height="77px" preserveAspectRatio="xMinYMin meet" x="653.5" y="-1094"/>
<text text-anchor="middle" x="692" y="-1049.7" font-family="MS Gothic" font-size="14.00">Selim</text>
</g>
<!-- Selim&#45;&gt;Sultan -->
<g id="edge25" class="edge">
<title>Selim&#45;&gt;Sultan</title>
<path fill="none" stroke="black" d="M716.24,-1016.61C721.55,-1008.31 727.24,-999.41 732.75,-990.79"/>
<polygon fill="black" stroke="black" points="735.62,-992.8 738.06,-982.49 729.72,-989.03 735.62,-992.8"/>
</g>
<!-- Bacchante -->
<g id="node27" class="node">
<title>Bacchante</title>
<polygon fill="lightcoral" stroke="lightcoral" points="872.5,-1094 795.5,-1094 795.5,-1017 872.5,-1017 872.5,-1094"/>
<image xlink:href="img/mob.png" width="77px" height="77px" preserveAspectRatio="xMinYMin meet" x="795.5" y="-1094"/>
<text text-anchor="middle" x="834" y="-1049.7" font-family="MS Gothic" font-size="14.00">Bacchante</text>
</g>
<!-- Bacchante&#45;&gt;Sultan -->
<g id="edge26" class="edge">
<title>Bacchante&#45;&gt;Sultan</title>
<path fill="none" stroke="black" d="M809.76,-1016.61C804.45,-1008.31 798.76,-999.41 793.25,-990.79"/>
<polygon fill="black" stroke="black" points="796.28,-989.03 787.94,-982.49 790.38,-992.8 796.28,-989.03"/>
</g>
<!-- Buzzard -->
<g id="node28" class="node">
<title>Buzzard</title>
<polygon fill="lightblue" stroke="lightblue" points="618.5,-1207 541.5,-1207 541.5,-1130 618.5,-1130 618.5,-1207"/>
<image xlink:href="img/mob.png" width="77px" height="77px" preserveAspectRatio="xMinYMin meet" x="541.5" y="-1207"/>
<text text-anchor="middle" x="580" y="-1162.7" font-family="MS Gothic" font-size="14.00">Buzzard</text>
</g>
<!-- Buzzard&#45;&gt;Selim -->
<g id="edge27" class="edge">
<title>Buzzard&#45;&gt;Selim</title>
<path fill="none" stroke="black" d="M618.23,-1129.61C627.15,-1120.77 636.74,-1111.26 645.96,-1102.13"/>
<polygon fill="black" stroke="black" points="648.23,-1104.81 652.87,-1095.28 643.3,-1099.84 648.23,-1104.81"/>
</g>
<!-- Alexander Mare -->
<g id="node29" class="node">
<title>Alexander Mare</title>
<polygon fill="lightcoral" stroke="lightcoral" points="747.25,-1207 636.75,-1207 636.75,-1130 747.25,-1130 747.25,-1207"/>
<image xlink:href="img/mob.png" width="100px" height="77px" preserveAspectRatio="xMinYMin meet" x="642" y="-1207"/>
<text text-anchor="middle" x="692" y="-1162.7" font-family="MS Gothic" font-size="14.00">Alexander Mare</text>
</g>
<!-- Alexander Mare&#45;&gt;Selim -->
<g id="edge28" class="edge">
<title>Alexander Mare&#45;&gt;Selim</title>
<path fill="none" stroke="black" d="M692,-1129.61C692,-1121.84 692,-1113.56 692,-1105.46"/>
<polygon fill="black" stroke="black" points="695.5,-1105.73 692,-1095.73 688.5,-1105.73 695.5,-1105.73"/>
</g>
<!-- Williamson&#39;s Ditto -->
<g id="node30" class="node">
<title>Williamson&#39;s Ditto</title>
<polygon fill="lightblue" stroke="lightblue" points="902.75,-1207 765.25,-1207 765.25,-1130 902.75,-1130 902.75,-1207"/>
<image xlink:href="img/mob.png" width="100px" height="77px" preserveAspectRatio="xMinYMin meet" x="784" y="-1207"/>
<text text-anchor="middle" x="834" y="-1162.7" font-family="MS Gothic" font-size="14.00">Williamson&#39;s Ditto</text>
</g>
<!-- Williamson&#39;s Ditto&#45;&gt;Bacchante -->
<g id="edge29" class="edge">
<title>Williamson&#39;s Ditto&#45;&gt;Bacchante</title>
<path fill="none" stroke="black" d="M834,-1129.61C834,-1121.84 834,-1113.56 834,-1105.46"/>
<polygon fill="black" stroke="black" points="837.5,-1105.73 834,-1095.73 830.5,-1105.73 837.5,-1105.73"/>
</g>
<!-- Mercury Mare -->
<g id="node31" class="node">
<title>Mercury Mare</title>
<polygon fill="lightcoral" stroke="lightcoral" points="1017.5,-1207 920.5,-1207 920.5,-1130 1017.5,-1130 1017.5,-1207"/>
<image xlink:href="img/mob.png" width="97px" height="77px" preserveAspectRatio="xMinYMin meet" x="920.5" y="-1207"/>
<text text-anchor="middle" x="969" y="-1162.7" font-family="MS Gothic" font-size="14.00">Mercury Mare</text>
</g>
<!-- Mercury Mare&#45;&gt;Bacchante -->
<g id="edge30" class="edge">
<title>Mercury Mare&#45;&gt;Bacchante</title>
<path fill="none" stroke="black" d="M922.92,-1129.61C909.51,-1118.59 894.84,-1106.53 881.36,-1095.44"/>
<polygon fill="black" stroke="black" points="883.81,-1092.92 873.86,-1089.27 879.36,-1098.33 883.81,-1092.92"/>
</g>
<!-- Woodpecker -->
<g id="node32" class="node">
<title>Woodpecker</title>
<polygon fill="lightblue" stroke="lightblue" points="569.75,-1320 486.25,-1320 486.25,-1243 569.75,-1243 569.75,-1320"/>
<image xlink:href="img/mob.png" width="83.5px" height="77px" preserveAspectRatio="xMinYMin meet" x="486.25" y="-1320"/>
<text text-anchor="middle" x="528" y="-1275.7" font-family="MS Gothic" font-size="14.00">Woodpecker</text>
</g>
<!-- Woodpecker&#45;&gt;Buzzard -->
<g id="edge31" class="edge">
<title>Woodpecker&#45;&gt;Buzzard</title>
<path fill="none" stroke="black" d="M545.75,-1242.61C549.52,-1234.57 553.54,-1225.99 557.45,-1217.63"/>
<polygon fill="black" stroke="black" points="560.62,-1219.13 561.69,-1208.59 554.28,-1216.16 560.62,-1219.13"/>
</g>
<!-- Misfortune -->
<g id="node33" class="node">
<title>Misfortune</title>
<polygon fill="lightcoral" stroke="lightcoral" points="674.75,-1320 591.25,-1320 591.25,-1243 674.75,-1243 674.75,-1320"/>
<image xlink:href="img/mob.png" width="83.5px" height="77px" preserveAspectRatio="xMinYMin meet" x="591.25" y="-1320"/>
<text text-anchor="middle" x="633" y="-1275.7" font-family="MS Gothic" font-size="14.00">Misfortune</text>
</g>
<!-- Misfortune&#45;&gt;Buzzard -->
<g id="edge32" class="edge">
<title>Misfortune&#45;&gt;Buzzard</title>
<path fill="none" stroke="black" d="M614.91,-1242.61C611.03,-1234.48 606.88,-1225.8 602.85,-1217.35"/>
<polygon fill="black" stroke="black" points="606.13,-1216.1 598.66,-1208.58 599.81,-1219.12 606.13,-1216.1"/>
</g>
<!-- Herod -->
<g id="node34" class="node">
<title>Herod</title>
<polygon fill="lightblue" stroke="lightblue" points="461.5,-1433 384.5,-1433 384.5,-1356 461.5,-1356 461.5,-1433"/>
<image xlink:href="img/mob.png" width="77px" height="77px" preserveAspectRatio="xMinYMin meet" x="384.5" y="-1433"/>
<text text-anchor="middle" x="423" y="-1388.7" font-family="MS Gothic" font-size="14.00">Herod</text>
</g>
<!-- Herod&#45;&gt;Woodpecker -->
<g id="edge33" class="edge">
<title>Herod&#45;&gt;Woodpecker</title>
<path fill="none" stroke="black" d="M458.84,-1355.61C467.12,-1346.86 476.01,-1337.46 484.58,-1328.4"/>
<polygon fill="black" stroke="black" points="486.95,-1330.99 491.28,-1321.32 481.87,-1326.18 486.95,-1330.99"/>
</g>
<!-- Miss Ramsden -->
<g id="node35" class="node">
<title>Miss Ramsden</title>
<polygon fill="lightcoral" stroke="lightcoral" points="576.5,-1433 479.5,-1433 479.5,-1356 576.5,-1356 576.5,-1433"/>
<image xlink:href="img/mob.png" width="97px" height="77px" preserveAspectRatio="xMinYMin meet" x="479.5" y="-1433"/>
<text text-anchor="middle" x="528" y="-1388.7" font-family="MS Gothic" font-size="14.00">Miss Ramsden</text>
</g>
<!-- Miss Ramsden&#45;&gt;Woodpecker -->
<g id="edge34" class="edge">
<title>Miss Ramsden&#45;&gt;Woodpecker</title>
<path fill="none" stroke="black" d="M528,-1355.61C528,-1347.84 528,-1339.56 528,-1331.46"/>
<polygon fill="black" stroke="black" points="531.5,-1331.73 528,-1321.73 524.5,-1331.73 531.5,-1331.73"/>
</g>
<!-- Dux -->
<g id="node36" class="node">
<title>Dux</title>
<polygon fill="lightblue" stroke="lightblue" points="671.5,-1433 594.5,-1433 594.5,-1356 671.5,-1356 671.5,-1433"/>
<image xlink:href="img/mob.png" width="77px" height="77px" preserveAspectRatio="xMinYMin meet" x="594.5" y="-1433"/>
<text text-anchor="middle" x="633" y="-1388.7" font-family="MS Gothic" font-size="14.00">Dux</text>
</g>
<!-- Dux&#45;&gt;Misfortune -->
<g id="edge35" class="edge">
<title>Dux&#45;&gt;Misfortune</title>
<path fill="none" stroke="black" d="M633,-1355.61C633,-1347.84 633,-1339.56 633,-1331.46"/>
<polygon fill="black" stroke="black" points="636.5,-1331.73 633,-1321.73 629.5,-1331.73 636.5,-1331.73"/>
</g>
<!-- Curiosity -->
<g id="node37" class="node">
<title>Curiosity</title>
<polygon fill="lightcoral" stroke="lightcoral" points="766.5,-1433 689.5,-1433 689.5,-1356 766.5,-1356 766.5,-1433"/>
<image xlink:href="img/mob.png" width="77px" height="77px" preserveAspectRatio="xMinYMin meet" x="689.5" y="-1433"/>
<text text-anchor="middle" x="728" y="-1388.7" font-family="MS Gothic" font-size="14.00">Curiosity</text>
</g>
<!-- Curiosity&#45;&gt;Misfortune -->
<g id="edge36" class="edge">
<title>Curiosity&#45;&gt;Misfortune</title>
<path fill="none" stroke="black" d="M695.57,-1355.61C688.24,-1347.04 680.36,-1337.84 672.76,-1328.96"/>
<polygon fill="black" stroke="black" points="675.43,-1326.69 666.27,-1321.37 670.11,-1331.24 675.43,-1326.69"/>
</g>
<!-- Tartar -->
<g id="node38" class="node">
<title>Tartar</title>
<polygon fill="lightblue" stroke="lightblue" points="414.5,-1546 337.5,-1546 337.5,-1469 414.5,-1469 414.5,-1546"/>
<image xlink:href="img/mob.png" width="77px" height="77px" preserveAspectRatio="xMinYMin meet" x="337.5" y="-1546"/>
<text text-anchor="middle" x="376" y="-1501.7" font-family="MS Gothic" font-size="14.00">Tartar</text>
</g>
<!-- Tartar&#45;&gt;Herod -->
<g id="edge37" class="edge">
<title>Tartar&#45;&gt;Herod</title>
<path fill="none" stroke="black" d="M392.04,-1468.61C395.45,-1460.57 399.08,-1451.99 402.62,-1443.63"/>
<polygon fill="black" stroke="black" points="405.76,-1445.19 406.44,-1434.61 399.32,-1442.46 405.76,-1445.19"/>
</g>
<!-- Cypron -->
<g id="node39" class="node">
<title>Cypron</title>
<polygon fill="lightcoral" stroke="lightcoral" points="509.5,-1546 432.5,-1546 432.5,-1469 509.5,-1469 509.5,-1546"/>
<image xlink:href="img/mob.png" width="77px" height="77px" preserveAspectRatio="xMinYMin meet" x="432.5" y="-1546"/>
<text text-anchor="middle" x="471" y="-1501.7" font-family="MS Gothic" font-size="14.00">Cypron</text>
</g>
<!-- Cypron&#45;&gt;Herod -->
<g id="edge38" class="edge">
<title>Cypron&#45;&gt;Herod</title>
<path fill="none" stroke="black" d="M454.62,-1468.61C451.14,-1460.57 447.43,-1451.99 443.81,-1443.63"/>
<polygon fill="black" stroke="black" points="447.09,-1442.4 439.91,-1434.61 440.67,-1445.18 447.09,-1442.4"/>
</g>
<!-- Croft&#39;s Partner -->
<g id="node40" class="node">
<title>Croft&#39;s Partner</title>
<polygon fill="lightblue" stroke="lightblue" points="319.62,-1659 202.38,-1659 202.38,-1582 319.62,-1582 319.62,-1659"/>
<image xlink:href="img/mob.png" width="100px" height="77px" preserveAspectRatio="xMinYMin meet" x="211" y="-1659"/>
<text text-anchor="middle" x="261" y="-1614.7" font-family="MS Gothic" font-size="14.00">Croft&#39;s Partner</text>
</g>
<!-- Croft&#39;s Partner&#45;&gt;Tartar -->
<g id="edge39" class="edge">
<title>Croft&#39;s Partner&#45;&gt;Tartar</title>
<path fill="none" stroke="black" d="M300.25,-1581.61C309.51,-1572.67 319.48,-1563.06 329.04,-1553.83"/>
<polygon fill="black" stroke="black" points="331.46,-1556.36 336.22,-1546.89 326.6,-1551.32 331.46,-1556.36"/>
</g>
<!-- Meliora -->
<g id="node41" class="node">
<title>Meliora</title>
<polygon fill="lightcoral" stroke="lightcoral" points="414.5,-1659 337.5,-1659 337.5,-1582 414.5,-1582 414.5,-1659"/>
<image xlink:href="img/mob.png" width="77px" height="77px" preserveAspectRatio="xMinYMin meet" x="337.5" y="-1659"/>
<text text-anchor="middle" x="376" y="-1614.7" font-family="MS Gothic" font-size="14.00">Meliora</text>
</g>
<!-- Meliora&#45;&gt;Tartar -->
<g id="edge40" class="edge">
<title>Meliora&#45;&gt;Tartar</title>
<path fill="none" stroke="black" d="M376,-1581.61C376,-1573.84 376,-1565.56 376,-1557.46"/>
<polygon fill="black" stroke="black" points="379.5,-1557.73 376,-1547.73 372.5,-1557.73 379.5,-1557.73"/>
</g>
<!-- Blaze -->
<g id="node42" class="node">
<title>Blaze</title>
<polygon fill="lightblue" stroke="lightblue" points="509.5,-1659 432.5,-1659 432.5,-1582 509.5,-1582 509.5,-1659"/>
<image xlink:href="img/mob.png" width="77px" height="77px" preserveAspectRatio="xMinYMin meet" x="432.5" y="-1659"/>
<text text-anchor="middle" x="471" y="-1614.7" font-family="MS Gothic" font-size="14.00">Blaze</text>
</g>
<!-- Blaze&#45;&gt;Cypron -->
<g id="edge41" class="edge">
<title>Blaze&#45;&gt;Cypron</title>
<path fill="none" stroke="black" d="M471,-1581.61C471,-1573.84 471,-1565.56 471,-1557.46"/>
<polygon fill="black" stroke="black" points="474.5,-1557.73 471,-1547.73 467.5,-1557.73 474.5,-1557.73"/>
</g>
<!-- Salome -->
<g id="node43" class="node">
<title>Salome</title>
<polygon fill="lightcoral" stroke="lightcoral" points="604.5,-1659 527.5,-1659 527.5,-1582 604.5,-1582 604.5,-1659"/>
<image xlink:href="img/mob.png" width="77px" height="77px" preserveAspectRatio="xMinYMin meet" x="527.5" y="-1659"/>
<text text-anchor="middle" x="566" y="-1614.7" font-family="MS Gothic" font-size="14.00">Salome</text>
</g>
<!-- Salome&#45;&gt;Cypron -->
<g id="edge42" class="edge">
<title>Salome&#45;&gt;Cypron</title>
<path fill="none" stroke="black" d="M533.57,-1581.61C526.24,-1573.04 518.36,-1563.84 510.76,-1554.96"/>
<polygon fill="black" stroke="black" points="513.43,-1552.69 504.27,-1547.37 508.11,-1557.24 513.43,-1552.69"/>
</g>
<!-- Jigg -->
<g id="node44" class="node">
<title>Jigg</title>
<polygon fill="lightblue" stroke="lightblue" points="232.5,-1772 155.5,-1772 155.5,-1695 232.5,-1695 232.5,-1772"/>
<image xlink:href="img/mob.png" width="77px" height="77px" preserveAspectRatio="xMinYMin meet" x="155.5" y="-1772"/>
<text text-anchor="middle" x="194" y="-1727.7" font-family="MS Gothic" font-size="14.00">Jigg</text>
</g>
<!-- Jigg&#45;&gt;Croft&#39;s Partner -->
<g id="edge43" class="edge">
<title>Jigg&#45;&gt;Croft&#39;s Partner</title>
<path fill="none" stroke="black" d="M216.87,-1694.61C221.83,-1686.39 227.13,-1677.6 232.29,-1669.07"/>
<polygon fill="black" stroke="black" points="235.28,-1670.88 237.45,-1660.51 229.29,-1667.27 235.28,-1670.88"/>
</g>
<!-- Sister One to Mixbury -->
<g id="node45" class="node">
<title>Sister One to Mixbury</title>
<polygon fill="lightcoral" stroke="lightcoral" points="407.88,-1772 250.12,-1772 250.12,-1695 407.88,-1695 407.88,-1772"/>
<image xlink:href="img/mob.png" width="100px" height="77px" preserveAspectRatio="xMinYMin meet" x="279" y="-1772"/>
<text text-anchor="middle" x="329" y="-1727.7" font-family="MS Gothic" font-size="14.00">Sister One to Mixbury</text>
</g>
<!-- Sister One to Mixbury&#45;&gt;Croft&#39;s Partner -->
<g id="edge44" class="edge">
<title>Sister One to Mixbury&#45;&gt;Croft&#39;s Partner</title>
<path fill="none" stroke="black" d="M305.79,-1694.61C300.7,-1686.31 295.25,-1677.41 289.97,-1668.79"/>
<polygon fill="black" stroke="black" points="293.11,-1667.21 284.9,-1660.51 287.14,-1670.86 293.11,-1667.21"/>
</g>
<!-- バイアリーターク -->
<g id="node46" class="node">
<title>バイアリーターク</title>
<polygon fill="lightblue" stroke="lightblue" points="130,-1885 0,-1885 0,-1808 130,-1808 130,-1885"/>
<image xlink:href="img/baiaritaku.png" width="100px" height="77px" preserveAspectRatio="xMinYMin meet" x="15" y="-1885"/>
<text text-anchor="middle" x="65" y="-1840.7" font-family="MS Gothic" font-size="14.00">バイアリーターク</text>
</g>
<!-- バイアリーターク&#45;&gt;Jigg -->
<g id="edge45" class="edge">
<title>バイアリーターク&#45;&gt;Jigg</title>
<path fill="none" stroke="black" d="M109.03,-1807.61C121.25,-1797.1 134.56,-1785.65 146.94,-1774.99"/>
<polygon fill="black" stroke="black" points="148.9,-1777.93 154.19,-1768.75 144.33,-1772.62 148.9,-1777.93"/>
</g>
<!-- Spanker Mare -->
<g id="node47" class="node">
<title>Spanker Mare</title>
<polygon fill="lightcoral" stroke="lightcoral" points="245.5,-1885 148.5,-1885 148.5,-1808 245.5,-1808 245.5,-1885"/>
<image xlink:href="img/mob.png" width="97px" height="77px" preserveAspectRatio="xMinYMin meet" x="148.5" y="-1885"/>
<text text-anchor="middle" x="197" y="-1840.7" font-family="MS Gothic" font-size="14.00">Spanker Mare</text>
</g>
<!-- Spanker Mare&#45;&gt;Jigg -->
<g id="edge46" class="edge">
<title>Spanker Mare&#45;&gt;Jigg</title>
<path fill="none" stroke="black" d="M195.98,-1807.61C195.77,-1799.84 195.54,-1791.56 195.32,-1783.46"/>
<polygon fill="black" stroke="black" points="198.83,-1783.63 195.06,-1773.73 191.83,-1783.82 198.83,-1783.63"/>
</g>
<!-- Curwen Bay Barb -->
<g id="node48" class="node">
<title>Curwen Bay Barb</title>
<polygon fill="lightblue" stroke="lightblue" points="385.62,-1885 268.38,-1885 268.38,-1808 385.62,-1808 385.62,-1885"/>
<image xlink:href="img/mob.png" width="100px" height="77px" preserveAspectRatio="xMinYMin meet" x="277" y="-1885"/>
<text text-anchor="middle" x="327" y="-1840.7" font-family="MS Gothic" font-size="14.00">Curwen Bay Barb</text>
</g>
<!-- Curwen Bay Barb&#45;&gt;Sister One to Mixbury -->
<g id="edge47" class="edge">
<title>Curwen Bay Barb&#45;&gt;Sister One to Mixbury</title>
<path fill="none" stroke="black" d="M327.68,-1807.61C327.82,-1799.84 327.97,-1791.56 328.12,-1783.46"/>
<polygon fill="black" stroke="black" points="331.61,-1783.79 328.29,-1773.73 324.61,-1783.67 331.61,-1783.79"/>
</g>
<!-- Curwen Spot Mare -->
<g id="node49" class="node">
<title>Curwen Spot Mare</title>
<polygon fill="lightcoral" stroke="lightcoral" points="528,-1885 404,-1885 404,-1808 528,-1808 528,-1885"/>
<image xlink:href="img/mob.png" width="100px" height="77px" preserveAspectRatio="xMinYMin meet" x="416" y="-1885"/>
<text text-anchor="middle" x="466" y="-1840.7" font-family="MS Gothic" font-size="14.00">Curwen Spot Mare</text>
</g>
<!-- Curwen Spot Mare&#45;&gt;Sister One to Mixbury -->
<g id="edge48" class="edge">
<title>Curwen Spot Mare&#45;&gt;Sister One to Mixbury</title>
<path fill="none" stroke="black" d="M419.24,-1807.61C407.99,-1798.5 395.88,-1788.69 384.29,-1779.3"/>
<polygon fill="black" stroke="black" points="386.7,-1776.75 376.73,-1773.17 382.3,-1782.19 386.7,-1776.75"/>
</g>
</g>
</svg>
