<?xml version="1.0" encoding="UTF-8" standalone="no"?>
<!DOCTYPE svg PUBLIC "-//W3C//DTD SVG 1.1//EN"
 "http://www.w3.org/Graphics/SVG/1.1/DTD/svg11.dtd">
<!-- Generated by graphviz version 12.1.2 (20240928.0832)
 -->
<!-- Pages: 1 -->
<svg width="775pt" height="763pt"
 viewBox="0.00 0.00 774.50 763.00" xmlns="http://www.w3.org/2000/svg" xmlns:xlink="http://www.w3.org/1999/xlink">
<g id="graph0" class="graph" transform="scale(1 1) rotate(0) translate(4 759)">
<polygon fill="white" stroke="none" points="-4,4 -4,-759 770.5,-759 770.5,4 -4,4"/>
<!-- Buzzard -->
<g id="node1" class="node">
<title>Buzzard</title>
<polygon fill="none" stroke="black" points="618.5,-77 541.5,-77 541.5,0 618.5,0 618.5,-77"/>
<image xlink:href="img/mob.png" width="77px" height="77px" preserveAspectRatio="xMinYMin meet" x="541.5" y="-77"/>
<text text-anchor="middle" x="580" y="-33.45" font-family="Times New Roman,serif" font-size="14.00">Buzzard</text>
</g>
<!-- Woodpecker -->
<g id="node2" class="node">
<title>Woodpecker</title>
<polygon fill="lightblue" stroke="lightblue" points="569.75,-190 486.25,-190 486.25,-113 569.75,-113 569.75,-190"/>
<image xlink:href="img/mob.png" width="83.5px" height="77px" preserveAspectRatio="xMinYMin meet" x="486.25" y="-190"/>
<text text-anchor="middle" x="528" y="-145.7" font-family="MS Gothic" font-size="14.00">Woodpecker</text>
</g>
<!-- Woodpecker&#45;&gt;Buzzard -->
<g id="edge1" class="edge">
<title>Woodpecker&#45;&gt;Buzzard</title>
<path fill="none" stroke="black" d="M545.75,-112.61C549.52,-104.57 553.54,-95.99 557.45,-87.63"/>
<polygon fill="black" stroke="black" points="560.62,-89.13 561.69,-78.59 554.28,-86.16 560.62,-89.13"/>
</g>
<!-- Misfortune -->
<g id="node3" class="node">
<title>Misfortune</title>
<polygon fill="lightcoral" stroke="lightcoral" points="674.75,-190 591.25,-190 591.25,-113 674.75,-113 674.75,-190"/>
<image xlink:href="img/mob.png" width="83.5px" height="77px" preserveAspectRatio="xMinYMin meet" x="591.25" y="-190"/>
<text text-anchor="middle" x="633" y="-145.7" font-family="MS Gothic" font-size="14.00">Misfortune</text>
</g>
<!-- Misfortune&#45;&gt;Buzzard -->
<g id="edge2" class="edge">
<title>Misfortune&#45;&gt;Buzzard</title>
<path fill="none" stroke="black" d="M614.91,-112.61C611.03,-104.48 606.88,-95.8 602.85,-87.35"/>
<polygon fill="black" stroke="black" points="606.13,-86.1 598.66,-78.58 599.81,-89.12 606.13,-86.1"/>
</g>
<!-- Herod -->
<g id="node4" class="node">
<title>Herod</title>
<polygon fill="lightblue" stroke="lightblue" points="461.5,-303 384.5,-303 384.5,-226 461.5,-226 461.5,-303"/>
<image xlink:href="img/mob.png" width="77px" height="77px" preserveAspectRatio="xMinYMin meet" x="384.5" y="-303"/>
<text text-anchor="middle" x="423" y="-258.7" font-family="MS Gothic" font-size="14.00">Herod</text>
</g>
<!-- Herod&#45;&gt;Woodpecker -->
<g id="edge3" class="edge">
<title>Herod&#45;&gt;Woodpecker</title>
<path fill="none" stroke="black" d="M458.84,-225.61C467.12,-216.86 476.01,-207.46 484.58,-198.4"/>
<polygon fill="black" stroke="black" points="486.95,-200.99 491.28,-191.32 481.87,-196.18 486.95,-200.99"/>
</g>
<!-- Miss Ramsden -->
<g id="node5" class="node">
<title>Miss Ramsden</title>
<polygon fill="lightcoral" stroke="lightcoral" points="576.5,-303 479.5,-303 479.5,-226 576.5,-226 576.5,-303"/>
<image xlink:href="img/mob.png" width="97px" height="77px" preserveAspectRatio="xMinYMin meet" x="479.5" y="-303"/>
<text text-anchor="middle" x="528" y="-258.7" font-family="MS Gothic" font-size="14.00">Miss Ramsden</text>
</g>
<!-- Miss Ramsden&#45;&gt;Woodpecker -->
<g id="edge4" class="edge">
<title>Miss Ramsden&#45;&gt;Woodpecker</title>
<path fill="none" stroke="black" d="M528,-225.61C528,-217.84 528,-209.56 528,-201.46"/>
<polygon fill="black" stroke="black" points="531.5,-201.73 528,-191.73 524.5,-201.73 531.5,-201.73"/>
</g>
<!-- Dux -->
<g id="node6" class="node">
<title>Dux</title>
<polygon fill="lightblue" stroke="lightblue" points="671.5,-303 594.5,-303 594.5,-226 671.5,-226 671.5,-303"/>
<image xlink:href="img/mob.png" width="77px" height="77px" preserveAspectRatio="xMinYMin meet" x="594.5" y="-303"/>
<text text-anchor="middle" x="633" y="-258.7" font-family="MS Gothic" font-size="14.00">Dux</text>
</g>
<!-- Dux&#45;&gt;Misfortune -->
<g id="edge5" class="edge">
<title>Dux&#45;&gt;Misfortune</title>
<path fill="none" stroke="black" d="M633,-225.61C633,-217.84 633,-209.56 633,-201.46"/>
<polygon fill="black" stroke="black" points="636.5,-201.73 633,-191.73 629.5,-201.73 636.5,-201.73"/>
</g>
<!-- Curiosity -->
<g id="node7" class="node">
<title>Curiosity</title>
<polygon fill="lightcoral" stroke="lightcoral" points="766.5,-303 689.5,-303 689.5,-226 766.5,-226 766.5,-303"/>
<image xlink:href="img/mob.png" width="77px" height="77px" preserveAspectRatio="xMinYMin meet" x="689.5" y="-303"/>
<text text-anchor="middle" x="728" y="-258.7" font-family="MS Gothic" font-size="14.00">Curiosity</text>
</g>
<!-- Curiosity&#45;&gt;Misfortune -->
<g id="edge6" class="edge">
<title>Curiosity&#45;&gt;Misfortune</title>
<path fill="none" stroke="black" d="M695.57,-225.61C688.24,-217.04 680.36,-207.84 672.76,-198.96"/>
<polygon fill="black" stroke="black" points="675.43,-196.69 666.27,-191.37 670.11,-201.24 675.43,-196.69"/>
</g>
<!-- Tartar -->
<g id="node8" class="node">
<title>Tartar</title>
<polygon fill="lightblue" stroke="lightblue" points="414.5,-416 337.5,-416 337.5,-339 414.5,-339 414.5,-416"/>
<image xlink:href="img/mob.png" width="77px" height="77px" preserveAspectRatio="xMinYMin meet" x="337.5" y="-416"/>
<text text-anchor="middle" x="376" y="-371.7" font-family="MS Gothic" font-size="14.00">Tartar</text>
</g>
<!-- Tartar&#45;&gt;Herod -->
<g id="edge7" class="edge">
<title>Tartar&#45;&gt;Herod</title>
<path fill="none" stroke="black" d="M392.04,-338.61C395.45,-330.57 399.08,-321.99 402.62,-313.63"/>
<polygon fill="black" stroke="black" points="405.76,-315.19 406.44,-304.61 399.32,-312.46 405.76,-315.19"/>
</g>
<!-- Cypron -->
<g id="node9" class="node">
<title>Cypron</title>
<polygon fill="lightcoral" stroke="lightcoral" points="509.5,-416 432.5,-416 432.5,-339 509.5,-339 509.5,-416"/>
<image xlink:href="img/mob.png" width="77px" height="77px" preserveAspectRatio="xMinYMin meet" x="432.5" y="-416"/>
<text text-anchor="middle" x="471" y="-371.7" font-family="MS Gothic" font-size="14.00">Cypron</text>
</g>
<!-- Cypron&#45;&gt;Herod -->
<g id="edge8" class="edge">
<title>Cypron&#45;&gt;Herod</title>
<path fill="none" stroke="black" d="M454.62,-338.61C451.14,-330.57 447.43,-321.99 443.81,-313.63"/>
<polygon fill="black" stroke="black" points="447.09,-312.4 439.91,-304.61 440.67,-315.18 447.09,-312.4"/>
</g>
<!-- Croft&#39;s Partner -->
<g id="node10" class="node">
<title>Croft&#39;s Partner</title>
<polygon fill="lightblue" stroke="lightblue" points="319.62,-529 202.38,-529 202.38,-452 319.62,-452 319.62,-529"/>
<image xlink:href="img/mob.png" width="100px" height="77px" preserveAspectRatio="xMinYMin meet" x="211" y="-529"/>
<text text-anchor="middle" x="261" y="-484.7" font-family="MS Gothic" font-size="14.00">Croft&#39;s Partner</text>
</g>
<!-- Croft&#39;s Partner&#45;&gt;Tartar -->
<g id="edge9" class="edge">
<title>Croft&#39;s Partner&#45;&gt;Tartar</title>
<path fill="none" stroke="black" d="M300.25,-451.61C309.51,-442.67 319.48,-433.06 329.04,-423.83"/>
<polygon fill="black" stroke="black" points="331.46,-426.36 336.22,-416.89 326.6,-421.32 331.46,-426.36"/>
</g>
<!-- Meliora -->
<g id="node11" class="node">
<title>Meliora</title>
<polygon fill="lightcoral" stroke="lightcoral" points="414.5,-529 337.5,-529 337.5,-452 414.5,-452 414.5,-529"/>
<image xlink:href="img/mob.png" width="77px" height="77px" preserveAspectRatio="xMinYMin meet" x="337.5" y="-529"/>
<text text-anchor="middle" x="376" y="-484.7" font-family="MS Gothic" font-size="14.00">Meliora</text>
</g>
<!-- Meliora&#45;&gt;Tartar -->
<g id="edge10" class="edge">
<title>Meliora&#45;&gt;Tartar</title>
<path fill="none" stroke="black" d="M376,-451.61C376,-443.84 376,-435.56 376,-427.46"/>
<polygon fill="black" stroke="black" points="379.5,-427.73 376,-417.73 372.5,-427.73 379.5,-427.73"/>
</g>
<!-- Blaze -->
<g id="node12" class="node">
<title>Blaze</title>
<polygon fill="lightblue" stroke="lightblue" points="509.5,-529 432.5,-529 432.5,-452 509.5,-452 509.5,-529"/>
<image xlink:href="img/mob.png" width="77px" height="77px" preserveAspectRatio="xMinYMin meet" x="432.5" y="-529"/>
<text text-anchor="middle" x="471" y="-484.7" font-family="MS Gothic" font-size="14.00">Blaze</text>
</g>
<!-- Blaze&#45;&gt;Cypron -->
<g id="edge11" class="edge">
<title>Blaze&#45;&gt;Cypron</title>
<path fill="none" stroke="black" d="M471,-451.61C471,-443.84 471,-435.56 471,-427.46"/>
<polygon fill="black" stroke="black" points="474.5,-427.73 471,-417.73 467.5,-427.73 474.5,-427.73"/>
</g>
<!-- Salome -->
<g id="node13" class="node">
<title>Salome</title>
<polygon fill="lightcoral" stroke="lightcoral" points="604.5,-529 527.5,-529 527.5,-452 604.5,-452 604.5,-529"/>
<image xlink:href="img/mob.png" width="77px" height="77px" preserveAspectRatio="xMinYMin meet" x="527.5" y="-529"/>
<text text-anchor="middle" x="566" y="-484.7" font-family="MS Gothic" font-size="14.00">Salome</text>
</g>
<!-- Salome&#45;&gt;Cypron -->
<g id="edge12" class="edge">
<title>Salome&#45;&gt;Cypron</title>
<path fill="none" stroke="black" d="M533.57,-451.61C526.24,-443.04 518.36,-433.84 510.76,-424.96"/>
<polygon fill="black" stroke="black" points="513.43,-422.69 504.27,-417.37 508.11,-427.24 513.43,-422.69"/>
</g>
<!-- Jigg -->
<g id="node14" class="node">
<title>Jigg</title>
<polygon fill="lightblue" stroke="lightblue" points="232.5,-642 155.5,-642 155.5,-565 232.5,-565 232.5,-642"/>
<image xlink:href="img/mob.png" width="77px" height="77px" preserveAspectRatio="xMinYMin meet" x="155.5" y="-642"/>
<text text-anchor="middle" x="194" y="-597.7" font-family="MS Gothic" font-size="14.00">Jigg</text>
</g>
<!-- Jigg&#45;&gt;Croft&#39;s Partner -->
<g id="edge13" class="edge">
<title>Jigg&#45;&gt;Croft&#39;s Partner</title>
<path fill="none" stroke="black" d="M216.87,-564.61C221.83,-556.39 227.13,-547.6 232.29,-539.07"/>
<polygon fill="black" stroke="black" points="235.28,-540.88 237.45,-530.51 229.29,-537.27 235.28,-540.88"/>
</g>
<!-- Sister One to Mixbury -->
<g id="node15" class="node">
<title>Sister One to Mixbury</title>
<polygon fill="lightcoral" stroke="lightcoral" points="407.88,-642 250.12,-642 250.12,-565 407.88,-565 407.88,-642"/>
<image xlink:href="img/mob.png" width="100px" height="77px" preserveAspectRatio="xMinYMin meet" x="279" y="-642"/>
<text text-anchor="middle" x="329" y="-597.7" font-family="MS Gothic" font-size="14.00">Sister One to Mixbury</text>
</g>
<!-- Sister One to Mixbury&#45;&gt;Croft&#39;s Partner -->
<g id="edge14" class="edge">
<title>Sister One to Mixbury&#45;&gt;Croft&#39;s Partner</title>
<path fill="none" stroke="black" d="M305.79,-564.61C300.7,-556.31 295.25,-547.41 289.97,-538.79"/>
<polygon fill="black" stroke="black" points="293.11,-537.21 284.9,-530.51 287.14,-540.86 293.11,-537.21"/>
</g>
<!-- バイアリーターク -->
<g id="node16" class="node">
<title>バイアリーターク</title>
<polygon fill="lightblue" stroke="lightblue" points="130,-755 0,-755 0,-678 130,-678 130,-755"/>
<image xlink:href="img/baiaritaku.png" width="100px" height="77px" preserveAspectRatio="xMinYMin meet" x="15" y="-755"/>
<text text-anchor="middle" x="65" y="-710.7" font-family="MS Gothic" font-size="14.00">バイアリーターク</text>
</g>
<!-- バイアリーターク&#45;&gt;Jigg -->
<g id="edge15" class="edge">
<title>バイアリーターク&#45;&gt;Jigg</title>
<path fill="none" stroke="black" d="M109.03,-677.61C121.25,-667.1 134.56,-655.65 146.94,-644.99"/>
<polygon fill="black" stroke="black" points="148.9,-647.93 154.19,-638.75 144.33,-642.62 148.9,-647.93"/>
</g>
<!-- Spanker Mare -->
<g id="node17" class="node">
<title>Spanker Mare</title>
<polygon fill="lightcoral" stroke="lightcoral" points="245.5,-755 148.5,-755 148.5,-678 245.5,-678 245.5,-755"/>
<image xlink:href="img/mob.png" width="97px" height="77px" preserveAspectRatio="xMinYMin meet" x="148.5" y="-755"/>
<text text-anchor="middle" x="197" y="-710.7" font-family="MS Gothic" font-size="14.00">Spanker Mare</text>
</g>
<!-- Spanker Mare&#45;&gt;Jigg -->
<g id="edge16" class="edge">
<title>Spanker Mare&#45;&gt;Jigg</title>
<path fill="none" stroke="black" d="M195.98,-677.61C195.77,-669.84 195.54,-661.56 195.32,-653.46"/>
<polygon fill="black" stroke="black" points="198.83,-653.63 195.06,-643.73 191.83,-653.82 198.83,-653.63"/>
</g>
<!-- Curwen Bay Barb -->
<g id="node18" class="node">
<title>Curwen Bay Barb</title>
<polygon fill="lightblue" stroke="lightblue" points="385.62,-755 268.38,-755 268.38,-678 385.62,-678 385.62,-755"/>
<image xlink:href="img/mob.png" width="100px" height="77px" preserveAspectRatio="xMinYMin meet" x="277" y="-755"/>
<text text-anchor="middle" x="327" y="-710.7" font-family="MS Gothic" font-size="14.00">Curwen Bay Barb</text>
</g>
<!-- Curwen Bay Barb&#45;&gt;Sister One to Mixbury -->
<g id="edge17" class="edge">
<title>Curwen Bay Barb&#45;&gt;Sister One to Mixbury</title>
<path fill="none" stroke="black" d="M327.68,-677.61C327.82,-669.84 327.97,-661.56 328.12,-653.46"/>
<polygon fill="black" stroke="black" points="331.61,-653.79 328.29,-643.73 324.61,-653.67 331.61,-653.79"/>
</g>
<!-- Curwen Spot Mare -->
<g id="node19" class="node">
<title>Curwen Spot Mare</title>
<polygon fill="lightcoral" stroke="lightcoral" points="528,-755 404,-755 404,-678 528,-678 528,-755"/>
<image xlink:href="img/mob.png" width="100px" height="77px" preserveAspectRatio="xMinYMin meet" x="416" y="-755"/>
<text text-anchor="middle" x="466" y="-710.7" font-family="MS Gothic" font-size="14.00">Curwen Spot Mare</text>
</g>
<!-- Curwen Spot Mare&#45;&gt;Sister One to Mixbury -->
<g id="edge18" class="edge">
<title>Curwen Spot Mare&#45;&gt;Sister One to Mixbury</title>
<path fill="none" stroke="black" d="M419.24,-677.61C407.99,-668.5 395.88,-658.69 384.29,-649.3"/>
<polygon fill="black" stroke="black" points="386.7,-646.75 376.73,-643.17 382.3,-652.19 386.7,-646.75"/>
</g>
</g>
</svg>
