<?xml version="1.0" encoding="UTF-8" standalone="no"?>
<!DOCTYPE svg PUBLIC "-//W3C//DTD SVG 1.1//EN"
 "http://www.w3.org/Graphics/SVG/1.1/DTD/svg11.dtd">
<!-- Generated by graphviz version 12.1.2 (20240928.0832)
 -->
<!-- Pages: 1 -->
<svg width="347pt" height="311pt"
 viewBox="0.00 0.00 346.88 311.00" xmlns="http://www.w3.org/2000/svg" xmlns:xlink="http://www.w3.org/1999/xlink">
<g id="graph0" class="graph" transform="scale(1 1) rotate(0) translate(4 307)">
<polygon fill="white" stroke="none" points="-4,4 -4,-307 342.88,-307 342.88,4 -4,4"/>
<!-- Cade -->
<g id="node1" class="node">
<title>Cade</title>
<polygon fill="none" stroke="black" points="174.62,-77 97.62,-77 97.62,0 174.62,0 174.62,-77"/>
<image xlink:href="img/mob.png" width="77px" height="77px" preserveAspectRatio="xMinYMin meet" x="97.625" y="-77"/>
<text text-anchor="middle" x="136.12" y="-33.45" font-family="Times New Roman,serif" font-size="14.00">Cade</text>
</g>
<!-- ゴドルフィンバルブ -->
<g id="node2" class="node">
<title>ゴドルフィンバルブ</title>
<polygon fill="lightblue" stroke="lightblue" points="144.25,-190 0,-190 0,-113 144.25,-113 144.25,-190"/>
<image xlink:href="img/mob.png" width="100px" height="77px" preserveAspectRatio="xMinYMin meet" x="22.125" y="-190"/>
<text text-anchor="middle" x="72.12" y="-145.7" font-family="MS Gothic" font-size="14.00">ゴドルフィンバルブ</text>
</g>
<!-- ゴドルフィンバルブ&#45;&gt;Cade -->
<g id="edge1" class="edge">
<title>ゴドルフィンバルブ&#45;&gt;Cade</title>
<path fill="none" stroke="black" d="M93.97,-112.61C98.71,-104.39 103.78,-95.6 108.7,-87.07"/>
<polygon fill="black" stroke="black" points="111.66,-88.94 113.62,-78.53 105.59,-85.44 111.66,-88.94"/>
</g>
<!-- Roxana -->
<g id="node3" class="node">
<title>Roxana</title>
<polygon fill="lightcoral" stroke="lightcoral" points="239.62,-190 162.62,-190 162.62,-113 239.62,-113 239.62,-190"/>
<image xlink:href="img/mob.png" width="77px" height="77px" preserveAspectRatio="xMinYMin meet" x="162.625" y="-190"/>
<text text-anchor="middle" x="201.12" y="-145.7" font-family="MS Gothic" font-size="14.00">Roxana</text>
</g>
<!-- Roxana&#45;&gt;Cade -->
<g id="edge2" class="edge">
<title>Roxana&#45;&gt;Cade</title>
<path fill="none" stroke="black" d="M178.94,-112.61C174.13,-104.39 168.98,-95.6 163.98,-87.07"/>
<polygon fill="black" stroke="black" points="167.05,-85.39 158.98,-78.52 161.01,-88.92 167.05,-85.39"/>
</g>
<!-- Bald Galloway -->
<g id="node4" class="node">
<title>Bald Galloway</title>
<polygon fill="lightblue" stroke="lightblue" points="183,-303 79.25,-303 79.25,-226 183,-226 183,-303"/>
<image xlink:href="img/mob.png" width="100px" height="77px" preserveAspectRatio="xMinYMin meet" x="81.125" y="-303"/>
<text text-anchor="middle" x="131.12" y="-258.7" font-family="MS Gothic" font-size="14.00">Bald Galloway</text>
</g>
<!-- Bald Galloway&#45;&gt;Roxana -->
<g id="edge3" class="edge">
<title>Bald Galloway&#45;&gt;Roxana</title>
<path fill="none" stroke="black" d="M155.02,-225.61C160.26,-217.31 165.86,-208.41 171.3,-199.79"/>
<polygon fill="black" stroke="black" points="174.16,-201.82 176.53,-191.5 168.24,-198.09 174.16,-201.82"/>
</g>
<!-- Sister to Chaunter -->
<g id="node5" class="node">
<title>Sister to Chaunter</title>
<polygon fill="lightcoral" stroke="lightcoral" points="338.88,-303 201.38,-303 201.38,-226 338.88,-226 338.88,-303"/>
<image xlink:href="img/mob.png" width="100px" height="77px" preserveAspectRatio="xMinYMin meet" x="220.125" y="-303"/>
<text text-anchor="middle" x="270.12" y="-258.7" font-family="MS Gothic" font-size="14.00">Sister to Chaunter</text>
</g>
<!-- Sister to Chaunter&#45;&gt;Roxana -->
<g id="edge4" class="edge">
<title>Sister to Chaunter&#45;&gt;Roxana</title>
<path fill="none" stroke="black" d="M246.57,-225.61C241.41,-217.31 235.88,-208.41 230.52,-199.79"/>
<polygon fill="black" stroke="black" points="233.62,-198.15 225.37,-191.5 227.68,-201.84 233.62,-198.15"/>
</g>
</g>
</svg>
