<?xml version="1.0" encoding="UTF-8" standalone="no"?>
<!DOCTYPE svg PUBLIC "-//W3C//DTD SVG 1.1//EN"
 "http://www.w3.org/Graphics/SVG/1.1/DTD/svg11.dtd">
<!-- Generated by graphviz version 12.1.2 (20240928.0832)
 -->
<!-- Pages: 1 -->
<svg width="488pt" height="537pt"
 viewBox="0.00 0.00 487.62 537.00" xmlns="http://www.w3.org/2000/svg" xmlns:xlink="http://www.w3.org/1999/xlink">
<g id="graph0" class="graph" transform="scale(1 1) rotate(0) translate(4 533)">
<polygon fill="white" stroke="none" points="-4,4 -4,-533 483.62,-533 483.62,4 -4,4"/>
<!-- Conductor -->
<g id="node1" class="node">
<title>Conductor</title>
<polygon fill="none" stroke="black" points="331.62,-77 254.62,-77 254.62,0 331.62,0 331.62,-77"/>
<image xlink:href="img/mob.png" width="77px" height="77px" preserveAspectRatio="xMinYMin meet" x="254.625" y="-77"/>
<text text-anchor="middle" x="293.12" y="-33.45" font-family="Times New Roman,serif" font-size="14.00">Conductor</text>
</g>
<!-- Matchem -->
<g id="node2" class="node">
<title>Matchem</title>
<polygon fill="lightblue" stroke="lightblue" points="279.62,-190 202.62,-190 202.62,-113 279.62,-113 279.62,-190"/>
<image xlink:href="img/mob.png" width="77px" height="77px" preserveAspectRatio="xMinYMin meet" x="202.625" y="-190"/>
<text text-anchor="middle" x="241.12" y="-145.7" font-family="MS Gothic" font-size="14.00">Matchem</text>
</g>
<!-- Matchem&#45;&gt;Conductor -->
<g id="edge1" class="edge">
<title>Matchem&#45;&gt;Conductor</title>
<path fill="none" stroke="black" d="M258.88,-112.61C262.64,-104.57 266.66,-95.99 270.58,-87.63"/>
<polygon fill="black" stroke="black" points="273.74,-89.13 274.81,-78.59 267.4,-86.16 273.74,-89.13"/>
</g>
<!-- Snap Mare -->
<g id="node3" class="node">
<title>Snap Mare</title>
<polygon fill="lightcoral" stroke="lightcoral" points="384.62,-190 307.62,-190 307.62,-113 384.62,-113 384.62,-190"/>
<image xlink:href="img/mob.png" width="77px" height="77px" preserveAspectRatio="xMinYMin meet" x="307.625" y="-190"/>
<text text-anchor="middle" x="346.12" y="-145.7" font-family="MS Gothic" font-size="14.00">Snap Mare</text>
</g>
<!-- Snap Mare&#45;&gt;Conductor -->
<g id="edge2" class="edge">
<title>Snap Mare&#45;&gt;Conductor</title>
<path fill="none" stroke="black" d="M328.03,-112.61C324.15,-104.48 320.01,-95.8 315.97,-87.35"/>
<polygon fill="black" stroke="black" points="319.25,-86.1 311.79,-78.58 312.94,-89.12 319.25,-86.1"/>
</g>
<!-- Cade -->
<g id="node4" class="node">
<title>Cade</title>
<polygon fill="lightblue" stroke="lightblue" points="174.62,-303 97.62,-303 97.62,-226 174.62,-226 174.62,-303"/>
<image xlink:href="img/mob.png" width="77px" height="77px" preserveAspectRatio="xMinYMin meet" x="97.625" y="-303"/>
<text text-anchor="middle" x="136.12" y="-258.7" font-family="MS Gothic" font-size="14.00">Cade</text>
</g>
<!-- Cade&#45;&gt;Matchem -->
<g id="edge3" class="edge">
<title>Cade&#45;&gt;Matchem</title>
<path fill="none" stroke="black" d="M171.97,-225.61C180.24,-216.86 189.14,-207.46 197.7,-198.4"/>
<polygon fill="black" stroke="black" points="200.08,-200.99 204.41,-191.32 194.99,-196.18 200.08,-200.99"/>
</g>
<!-- Partner Mare -->
<g id="node5" class="node">
<title>Partner Mare</title>
<polygon fill="lightcoral" stroke="lightcoral" points="289.62,-303 192.62,-303 192.62,-226 289.62,-226 289.62,-303"/>
<image xlink:href="img/mob.png" width="97px" height="77px" preserveAspectRatio="xMinYMin meet" x="192.625" y="-303"/>
<text text-anchor="middle" x="241.12" y="-258.7" font-family="MS Gothic" font-size="14.00">Partner Mare</text>
</g>
<!-- Partner Mare&#45;&gt;Matchem -->
<g id="edge4" class="edge">
<title>Partner Mare&#45;&gt;Matchem</title>
<path fill="none" stroke="black" d="M241.12,-225.61C241.12,-217.84 241.12,-209.56 241.12,-201.46"/>
<polygon fill="black" stroke="black" points="244.63,-201.73 241.13,-191.73 237.63,-201.73 244.63,-201.73"/>
</g>
<!-- Snap -->
<g id="node6" class="node">
<title>Snap</title>
<polygon fill="lightblue" stroke="lightblue" points="384.62,-303 307.62,-303 307.62,-226 384.62,-226 384.62,-303"/>
<image xlink:href="img/mob.png" width="77px" height="77px" preserveAspectRatio="xMinYMin meet" x="307.625" y="-303"/>
<text text-anchor="middle" x="346.12" y="-258.7" font-family="MS Gothic" font-size="14.00">Snap</text>
</g>
<!-- Snap&#45;&gt;Snap Mare -->
<g id="edge5" class="edge">
<title>Snap&#45;&gt;Snap Mare</title>
<path fill="none" stroke="black" d="M346.12,-225.61C346.12,-217.84 346.12,-209.56 346.12,-201.46"/>
<polygon fill="black" stroke="black" points="349.63,-201.73 346.13,-191.73 342.63,-201.73 349.63,-201.73"/>
</g>
<!-- Diana -->
<g id="node7" class="node">
<title>Diana</title>
<polygon fill="lightcoral" stroke="lightcoral" points="479.62,-303 402.62,-303 402.62,-226 479.62,-226 479.62,-303"/>
<image xlink:href="img/mob.png" width="77px" height="77px" preserveAspectRatio="xMinYMin meet" x="402.625" y="-303"/>
<text text-anchor="middle" x="441.12" y="-258.7" font-family="MS Gothic" font-size="14.00">Diana</text>
</g>
<!-- Diana&#45;&gt;Snap Mare -->
<g id="edge6" class="edge">
<title>Diana&#45;&gt;Snap Mare</title>
<path fill="none" stroke="black" d="M408.7,-225.61C401.36,-217.04 393.49,-207.84 385.89,-198.96"/>
<polygon fill="black" stroke="black" points="388.55,-196.69 379.39,-191.37 383.23,-201.24 388.55,-196.69"/>
</g>
<!-- ゴドルフィンバルブ -->
<g id="node8" class="node">
<title>ゴドルフィンバルブ</title>
<polygon fill="lightblue" stroke="lightblue" points="144.25,-416 0,-416 0,-339 144.25,-339 144.25,-416"/>
<image xlink:href="img/mob.png" width="100px" height="77px" preserveAspectRatio="xMinYMin meet" x="22.125" y="-416"/>
<text text-anchor="middle" x="72.12" y="-371.7" font-family="MS Gothic" font-size="14.00">ゴドルフィンバルブ</text>
</g>
<!-- ゴドルフィンバルブ&#45;&gt;Cade -->
<g id="edge7" class="edge">
<title>ゴドルフィンバルブ&#45;&gt;Cade</title>
<path fill="none" stroke="black" d="M93.97,-338.61C98.71,-330.39 103.78,-321.6 108.7,-313.07"/>
<polygon fill="black" stroke="black" points="111.66,-314.94 113.62,-304.53 105.59,-311.44 111.66,-314.94"/>
</g>
<!-- Roxana -->
<g id="node9" class="node">
<title>Roxana</title>
<polygon fill="lightcoral" stroke="lightcoral" points="239.62,-416 162.62,-416 162.62,-339 239.62,-339 239.62,-416"/>
<image xlink:href="img/mob.png" width="77px" height="77px" preserveAspectRatio="xMinYMin meet" x="162.625" y="-416"/>
<text text-anchor="middle" x="201.12" y="-371.7" font-family="MS Gothic" font-size="14.00">Roxana</text>
</g>
<!-- Roxana&#45;&gt;Cade -->
<g id="edge8" class="edge">
<title>Roxana&#45;&gt;Cade</title>
<path fill="none" stroke="black" d="M178.94,-338.61C174.13,-330.39 168.98,-321.6 163.98,-313.07"/>
<polygon fill="black" stroke="black" points="167.05,-311.39 158.98,-304.52 161.01,-314.92 167.05,-311.39"/>
</g>
<!-- Bald Galloway -->
<g id="node10" class="node">
<title>Bald Galloway</title>
<polygon fill="lightblue" stroke="lightblue" points="183,-529 79.25,-529 79.25,-452 183,-452 183,-529"/>
<image xlink:href="img/mob.png" width="100px" height="77px" preserveAspectRatio="xMinYMin meet" x="81.125" y="-529"/>
<text text-anchor="middle" x="131.12" y="-484.7" font-family="MS Gothic" font-size="14.00">Bald Galloway</text>
</g>
<!-- Bald Galloway&#45;&gt;Roxana -->
<g id="edge9" class="edge">
<title>Bald Galloway&#45;&gt;Roxana</title>
<path fill="none" stroke="black" d="M155.02,-451.61C160.26,-443.31 165.86,-434.41 171.3,-425.79"/>
<polygon fill="black" stroke="black" points="174.16,-427.82 176.53,-417.5 168.24,-424.09 174.16,-427.82"/>
</g>
<!-- Sister to Chaunter -->
<g id="node11" class="node">
<title>Sister to Chaunter</title>
<polygon fill="lightcoral" stroke="lightcoral" points="338.88,-529 201.38,-529 201.38,-452 338.88,-452 338.88,-529"/>
<image xlink:href="img/mob.png" width="100px" height="77px" preserveAspectRatio="xMinYMin meet" x="220.125" y="-529"/>
<text text-anchor="middle" x="270.12" y="-484.7" font-family="MS Gothic" font-size="14.00">Sister to Chaunter</text>
</g>
<!-- Sister to Chaunter&#45;&gt;Roxana -->
<g id="edge10" class="edge">
<title>Sister to Chaunter&#45;&gt;Roxana</title>
<path fill="none" stroke="black" d="M246.57,-451.61C241.41,-443.31 235.88,-434.41 230.52,-425.79"/>
<polygon fill="black" stroke="black" points="233.62,-424.15 225.37,-417.5 227.68,-427.84 233.62,-424.15"/>
</g>
</g>
</svg>
