<?xml version="1.0" encoding="UTF-8" standalone="no"?>
<!DOCTYPE svg PUBLIC "-//W3C//DTD SVG 1.1//EN"
 "http://www.w3.org/Graphics/SVG/1.1/DTD/svg11.dtd">
<!-- Generated by graphviz version 12.1.2 (20240928.0832)
 -->
<!-- Pages: 1 -->
<svg width="536pt" height="311pt"
 viewBox="0.00 0.00 536.00 311.00" xmlns="http://www.w3.org/2000/svg" xmlns:xlink="http://www.w3.org/1999/xlink">
<g id="graph0" class="graph" transform="scale(1 1) rotate(0) translate(4 307)">
<polygon fill="white" stroke="none" points="-4,4 -4,-307 532,-307 532,4 -4,4"/>
<!-- Croft&#39;s Partner -->
<g id="node1" class="node">
<title>Croft&#39;s Partner</title>
<polygon fill="none" stroke="black" points="308.38,-77 213.62,-77 213.62,0 308.38,0 308.38,-77"/>
<image xlink:href="img/mob.png" width="94.75px" height="77px" preserveAspectRatio="xMinYMin meet" x="213.625" y="-77"/>
<text text-anchor="middle" x="261" y="-33.45" font-family="Times New Roman,serif" font-size="14.00">Croft&#39;s Partner</text>
</g>
<!-- Jigg -->
<g id="node2" class="node">
<title>Jigg</title>
<polygon fill="lightblue" stroke="lightblue" points="232.5,-190 155.5,-190 155.5,-113 232.5,-113 232.5,-190"/>
<image xlink:href="img/mob.png" width="77px" height="77px" preserveAspectRatio="xMinYMin meet" x="155.5" y="-190"/>
<text text-anchor="middle" x="194" y="-145.7" font-family="MS Gothic" font-size="14.00">Jigg</text>
</g>
<!-- Jigg&#45;&gt;Croft&#39;s Partner -->
<g id="edge1" class="edge">
<title>Jigg&#45;&gt;Croft&#39;s Partner</title>
<path fill="none" stroke="black" d="M216.87,-112.61C221.83,-104.39 227.13,-95.6 232.29,-87.07"/>
<polygon fill="black" stroke="black" points="235.28,-88.88 237.45,-78.51 229.29,-85.27 235.28,-88.88"/>
</g>
<!-- Sister One to Mixbury -->
<g id="node3" class="node">
<title>Sister One to Mixbury</title>
<polygon fill="lightcoral" stroke="lightcoral" points="407.88,-190 250.12,-190 250.12,-113 407.88,-113 407.88,-190"/>
<image xlink:href="img/mob.png" width="100px" height="77px" preserveAspectRatio="xMinYMin meet" x="279" y="-190"/>
<text text-anchor="middle" x="329" y="-145.7" font-family="MS Gothic" font-size="14.00">Sister One to Mixbury</text>
</g>
<!-- Sister One to Mixbury&#45;&gt;Croft&#39;s Partner -->
<g id="edge2" class="edge">
<title>Sister One to Mixbury&#45;&gt;Croft&#39;s Partner</title>
<path fill="none" stroke="black" d="M305.79,-112.61C300.7,-104.31 295.25,-95.41 289.97,-86.79"/>
<polygon fill="black" stroke="black" points="293.11,-85.21 284.9,-78.51 287.14,-88.86 293.11,-85.21"/>
</g>
<!-- バイアリーターク -->
<g id="node4" class="node">
<title>バイアリーターク</title>
<polygon fill="lightblue" stroke="lightblue" points="130,-303 0,-303 0,-226 130,-226 130,-303"/>
<image xlink:href="img/baiaritaku.png" width="100px" height="77px" preserveAspectRatio="xMinYMin meet" x="15" y="-303"/>
<text text-anchor="middle" x="65" y="-258.7" font-family="MS Gothic" font-size="14.00">バイアリーターク</text>
</g>
<!-- バイアリーターク&#45;&gt;Jigg -->
<g id="edge3" class="edge">
<title>バイアリーターク&#45;&gt;Jigg</title>
<path fill="none" stroke="black" d="M109.03,-225.61C121.25,-215.1 134.56,-203.65 146.94,-192.99"/>
<polygon fill="black" stroke="black" points="148.9,-195.93 154.19,-186.75 144.33,-190.62 148.9,-195.93"/>
</g>
<!-- Spanker Mare -->
<g id="node5" class="node">
<title>Spanker Mare</title>
<polygon fill="lightcoral" stroke="lightcoral" points="245.5,-303 148.5,-303 148.5,-226 245.5,-226 245.5,-303"/>
<image xlink:href="img/mob.png" width="97px" height="77px" preserveAspectRatio="xMinYMin meet" x="148.5" y="-303"/>
<text text-anchor="middle" x="197" y="-258.7" font-family="MS Gothic" font-size="14.00">Spanker Mare</text>
</g>
<!-- Spanker Mare&#45;&gt;Jigg -->
<g id="edge4" class="edge">
<title>Spanker Mare&#45;&gt;Jigg</title>
<path fill="none" stroke="black" d="M195.98,-225.61C195.77,-217.84 195.54,-209.56 195.32,-201.46"/>
<polygon fill="black" stroke="black" points="198.83,-201.63 195.06,-191.73 191.83,-201.82 198.83,-201.63"/>
</g>
<!-- Curwen Bay Barb -->
<g id="node6" class="node">
<title>Curwen Bay Barb</title>
<polygon fill="lightblue" stroke="lightblue" points="385.62,-303 268.38,-303 268.38,-226 385.62,-226 385.62,-303"/>
<image xlink:href="img/mob.png" width="100px" height="77px" preserveAspectRatio="xMinYMin meet" x="277" y="-303"/>
<text text-anchor="middle" x="327" y="-258.7" font-family="MS Gothic" font-size="14.00">Curwen Bay Barb</text>
</g>
<!-- Curwen Bay Barb&#45;&gt;Sister One to Mixbury -->
<g id="edge5" class="edge">
<title>Curwen Bay Barb&#45;&gt;Sister One to Mixbury</title>
<path fill="none" stroke="black" d="M327.68,-225.61C327.82,-217.84 327.97,-209.56 328.12,-201.46"/>
<polygon fill="black" stroke="black" points="331.61,-201.79 328.29,-191.73 324.61,-201.67 331.61,-201.79"/>
</g>
<!-- Curwen Spot Mare -->
<g id="node7" class="node">
<title>Curwen Spot Mare</title>
<polygon fill="lightcoral" stroke="lightcoral" points="528,-303 404,-303 404,-226 528,-226 528,-303"/>
<image xlink:href="img/mob.png" width="100px" height="77px" preserveAspectRatio="xMinYMin meet" x="416" y="-303"/>
<text text-anchor="middle" x="466" y="-258.7" font-family="MS Gothic" font-size="14.00">Curwen Spot Mare</text>
</g>
<!-- Curwen Spot Mare&#45;&gt;Sister One to Mixbury -->
<g id="edge6" class="edge">
<title>Curwen Spot Mare&#45;&gt;Sister One to Mixbury</title>
<path fill="none" stroke="black" d="M419.24,-225.61C407.99,-216.5 395.88,-206.69 384.29,-197.3"/>
<polygon fill="black" stroke="black" points="386.7,-194.75 376.73,-191.17 382.3,-200.19 386.7,-194.75"/>
</g>
</g>
</svg>
