<?xml version="1.0" encoding="UTF-8" standalone="no"?>
<!DOCTYPE svg PUBLIC "-//W3C//DTD SVG 1.1//EN"
 "http://www.w3.org/Graphics/SVG/1.1/DTD/svg11.dtd">
<!-- Generated by graphviz version 12.1.2 (20240928.0832)
 -->
<!-- Pages: 1 -->
<svg width="1538pt" height="1893pt"
 viewBox="0.00 0.00 1538.00 1893.00" xmlns="http://www.w3.org/2000/svg" xmlns:xlink="http://www.w3.org/1999/xlink">
<g id="graph0" class="graph" transform="scale(1 1) rotate(0) translate(4 1889)">
<polygon fill="white" stroke="none" points="-4,4 -4,-1889 1534,-1889 1534,4 -4,4"/>
<!-- Cyllene -->
<g id="node1" class="node">
<title>Cyllene</title>
<polygon fill="none" stroke="black" points="1360.62,-77 1283.62,-77 1283.62,0 1360.62,0 1360.62,-77"/>
<image xlink:href="img/mob.png" width="77px" height="77px" preserveAspectRatio="xMinYMin meet" x="1283.62" y="-77"/>
<text text-anchor="middle" x="1322.12" y="-33.45" font-family="Times New Roman,serif" font-size="14.00">Cyllene</text>
</g>
<!-- Bona Vista -->
<g id="node2" class="node">
<title>Bona Vista</title>
<polygon fill="lightblue" stroke="lightblue" points="1314.88,-190 1231.38,-190 1231.38,-113 1314.88,-113 1314.88,-190"/>
<image xlink:href="img/mob.png" width="83.5px" height="77px" preserveAspectRatio="xMinYMin meet" x="1231.38" y="-190"/>
<text text-anchor="middle" x="1273.12" y="-145.7" font-family="MS Gothic" font-size="14.00">Bona Vista</text>
</g>
<!-- Bona Vista&#45;&gt;Cyllene -->
<g id="edge1" class="edge">
<title>Bona Vista&#45;&gt;Cyllene</title>
<path fill="none" stroke="black" d="M1289.85,-112.61C1293.4,-104.57 1297.19,-95.99 1300.88,-87.63"/>
<polygon fill="black" stroke="black" points="1304.03,-89.17 1304.86,-78.6 1297.62,-86.34 1304.03,-89.17"/>
</g>
<!-- Arcadia -->
<g id="node3" class="node">
<title>Arcadia</title>
<polygon fill="lightcoral" stroke="lightcoral" points="1409.62,-190 1332.62,-190 1332.62,-113 1409.62,-113 1409.62,-190"/>
<image xlink:href="img/mob.png" width="77px" height="77px" preserveAspectRatio="xMinYMin meet" x="1332.62" y="-190"/>
<text text-anchor="middle" x="1371.12" y="-145.7" font-family="MS Gothic" font-size="14.00">Arcadia</text>
</g>
<!-- Arcadia&#45;&gt;Cyllene -->
<g id="edge2" class="edge">
<title>Arcadia&#45;&gt;Cyllene</title>
<path fill="none" stroke="black" d="M1354.4,-112.61C1350.85,-104.57 1347.06,-95.99 1343.37,-87.63"/>
<polygon fill="black" stroke="black" points="1346.63,-86.34 1339.39,-78.6 1340.22,-89.17 1346.63,-86.34"/>
</g>
<!-- Bend Or -->
<g id="node4" class="node">
<title>Bend Or</title>
<polygon fill="lightblue" stroke="lightblue" points="1217.62,-303 1140.62,-303 1140.62,-226 1217.62,-226 1217.62,-303"/>
<image xlink:href="img/mob.png" width="77px" height="77px" preserveAspectRatio="xMinYMin meet" x="1140.62" y="-303"/>
<text text-anchor="middle" x="1179.12" y="-258.7" font-family="MS Gothic" font-size="14.00">Bend Or</text>
</g>
<!-- Bend Or&#45;&gt;Bona Vista -->
<g id="edge3" class="edge">
<title>Bend Or&#45;&gt;Bona Vista</title>
<path fill="none" stroke="black" d="M1211.21,-225.61C1218.47,-217.04 1226.26,-207.84 1233.78,-198.96"/>
<polygon fill="black" stroke="black" points="1236.41,-201.27 1240.2,-191.37 1231.07,-196.74 1236.41,-201.27"/>
</g>
<!-- Vista -->
<g id="node5" class="node">
<title>Vista</title>
<polygon fill="lightcoral" stroke="lightcoral" points="1312.62,-303 1235.62,-303 1235.62,-226 1312.62,-226 1312.62,-303"/>
<image xlink:href="img/mob.png" width="77px" height="77px" preserveAspectRatio="xMinYMin meet" x="1235.62" y="-303"/>
<text text-anchor="middle" x="1274.12" y="-258.7" font-family="MS Gothic" font-size="14.00">Vista</text>
</g>
<!-- Vista&#45;&gt;Bona Vista -->
<g id="edge4" class="edge">
<title>Vista&#45;&gt;Bona Vista</title>
<path fill="none" stroke="black" d="M1273.78,-225.61C1273.71,-217.84 1273.64,-209.56 1273.57,-201.46"/>
<polygon fill="black" stroke="black" points="1277.07,-201.7 1273.48,-191.73 1270.07,-201.76 1277.07,-201.7"/>
</g>
<!-- Isonomy -->
<g id="node6" class="node">
<title>Isonomy</title>
<polygon fill="lightblue" stroke="lightblue" points="1408.62,-303 1331.62,-303 1331.62,-226 1408.62,-226 1408.62,-303"/>
<image xlink:href="img/mob.png" width="77px" height="77px" preserveAspectRatio="xMinYMin meet" x="1331.62" y="-303"/>
<text text-anchor="middle" x="1370.12" y="-258.7" font-family="MS Gothic" font-size="14.00">Isonomy</text>
</g>
<!-- Isonomy&#45;&gt;Arcadia -->
<g id="edge5" class="edge">
<title>Isonomy&#45;&gt;Arcadia</title>
<path fill="none" stroke="black" d="M1370.47,-225.61C1370.54,-217.84 1370.61,-209.56 1370.68,-201.46"/>
<polygon fill="black" stroke="black" points="1374.18,-201.76 1370.77,-191.73 1367.18,-201.7 1374.18,-201.76"/>
</g>
<!-- Distant Shore -->
<g id="node7" class="node">
<title>Distant Shore</title>
<polygon fill="lightcoral" stroke="lightcoral" points="1530,-303 1426.25,-303 1426.25,-226 1530,-226 1530,-303"/>
<image xlink:href="img/mob.png" width="100px" height="77px" preserveAspectRatio="xMinYMin meet" x="1428.12" y="-303"/>
<text text-anchor="middle" x="1478.12" y="-258.7" font-family="MS Gothic" font-size="14.00">Distant Shore</text>
</g>
<!-- Distant Shore&#45;&gt;Arcadia -->
<g id="edge6" class="edge">
<title>Distant Shore&#45;&gt;Arcadia</title>
<path fill="none" stroke="black" d="M1441.6,-225.61C1433.16,-216.86 1424.1,-207.46 1415.37,-198.4"/>
<polygon fill="black" stroke="black" points="1417.99,-196.08 1408.53,-191.31 1412.96,-200.94 1417.99,-196.08"/>
</g>
<!-- Doncaster -->
<g id="node8" class="node">
<title>Doncaster</title>
<polygon fill="lightblue" stroke="lightblue" points="1168.62,-416 1091.62,-416 1091.62,-339 1168.62,-339 1168.62,-416"/>
<image xlink:href="img/mob.png" width="77px" height="77px" preserveAspectRatio="xMinYMin meet" x="1091.62" y="-416"/>
<text text-anchor="middle" x="1130.12" y="-371.7" font-family="MS Gothic" font-size="14.00">Doncaster</text>
</g>
<!-- Doncaster&#45;&gt;Bend Or -->
<g id="edge7" class="edge">
<title>Doncaster&#45;&gt;Bend Or</title>
<path fill="none" stroke="black" d="M1146.85,-338.61C1150.4,-330.57 1154.19,-321.99 1157.88,-313.63"/>
<polygon fill="black" stroke="black" points="1161.03,-315.17 1161.86,-304.6 1154.62,-312.34 1161.03,-315.17"/>
</g>
<!-- Rouge Rose -->
<g id="node9" class="node">
<title>Rouge Rose</title>
<polygon fill="lightcoral" stroke="lightcoral" points="1269.88,-416 1186.38,-416 1186.38,-339 1269.88,-339 1269.88,-416"/>
<image xlink:href="img/mob.png" width="83.5px" height="77px" preserveAspectRatio="xMinYMin meet" x="1186.38" y="-416"/>
<text text-anchor="middle" x="1228.12" y="-371.7" font-family="MS Gothic" font-size="14.00">Rouge Rose</text>
</g>
<!-- Rouge Rose&#45;&gt;Bend Or -->
<g id="edge8" class="edge">
<title>Rouge Rose&#45;&gt;Bend Or</title>
<path fill="none" stroke="black" d="M1211.4,-338.61C1207.85,-330.57 1204.06,-321.99 1200.37,-313.63"/>
<polygon fill="black" stroke="black" points="1203.63,-312.34 1196.39,-304.6 1197.22,-315.17 1203.63,-312.34"/>
</g>
<!-- Stockwell -->
<g id="node10" class="node">
<title>Stockwell</title>
<polygon fill="lightblue" stroke="lightblue" points="1074.62,-529 997.62,-529 997.62,-452 1074.62,-452 1074.62,-529"/>
<image xlink:href="img/mob.png" width="77px" height="77px" preserveAspectRatio="xMinYMin meet" x="997.625" y="-529"/>
<text text-anchor="middle" x="1036.12" y="-484.7" font-family="MS Gothic" font-size="14.00">Stockwell</text>
</g>
<!-- Stockwell&#45;&gt;Doncaster -->
<g id="edge9" class="edge">
<title>Stockwell&#45;&gt;Doncaster</title>
<path fill="none" stroke="black" d="M1068.21,-451.61C1075.47,-443.04 1083.26,-433.84 1090.78,-424.96"/>
<polygon fill="black" stroke="black" points="1093.41,-427.27 1097.2,-417.37 1088.07,-422.74 1093.41,-427.27"/>
</g>
<!-- Marigold -->
<g id="node11" class="node">
<title>Marigold</title>
<polygon fill="lightcoral" stroke="lightcoral" points="1169.62,-529 1092.62,-529 1092.62,-452 1169.62,-452 1169.62,-529"/>
<image xlink:href="img/mob.png" width="77px" height="77px" preserveAspectRatio="xMinYMin meet" x="1092.62" y="-529"/>
<text text-anchor="middle" x="1131.12" y="-484.7" font-family="MS Gothic" font-size="14.00">Marigold</text>
</g>
<!-- Marigold&#45;&gt;Doncaster -->
<g id="edge10" class="edge">
<title>Marigold&#45;&gt;Doncaster</title>
<path fill="none" stroke="black" d="M1130.78,-451.61C1130.71,-443.84 1130.64,-435.56 1130.57,-427.46"/>
<polygon fill="black" stroke="black" points="1134.07,-427.7 1130.48,-417.73 1127.07,-427.76 1134.07,-427.7"/>
</g>
<!-- Thormanby -->
<g id="node12" class="node">
<title>Thormanby</title>
<polygon fill="lightblue" stroke="lightblue" points="1265.62,-529 1188.62,-529 1188.62,-452 1265.62,-452 1265.62,-529"/>
<image xlink:href="img/mob.png" width="77px" height="77px" preserveAspectRatio="xMinYMin meet" x="1188.62" y="-529"/>
<text text-anchor="middle" x="1227.12" y="-484.7" font-family="MS Gothic" font-size="14.00">Thormanby</text>
</g>
<!-- Thormanby&#45;&gt;Rouge Rose -->
<g id="edge11" class="edge">
<title>Thormanby&#45;&gt;Rouge Rose</title>
<path fill="none" stroke="black" d="M1227.47,-451.61C1227.54,-443.84 1227.61,-435.56 1227.68,-427.46"/>
<polygon fill="black" stroke="black" points="1231.18,-427.76 1227.77,-417.73 1224.18,-427.7 1231.18,-427.76"/>
</g>
<!-- Ellen Horne -->
<g id="node13" class="node">
<title>Ellen Horne</title>
<polygon fill="lightcoral" stroke="lightcoral" points="1374.25,-529 1284,-529 1284,-452 1374.25,-452 1374.25,-529"/>
<image xlink:href="img/mob.png" width="90.25px" height="77px" preserveAspectRatio="xMinYMin meet" x="1284" y="-529"/>
<text text-anchor="middle" x="1329.12" y="-484.7" font-family="MS Gothic" font-size="14.00">Ellen Horne</text>
</g>
<!-- Ellen Horne&#45;&gt;Rouge Rose -->
<g id="edge12" class="edge">
<title>Ellen Horne&#45;&gt;Rouge Rose</title>
<path fill="none" stroke="black" d="M1294.65,-451.61C1286.77,-442.95 1278.3,-433.65 1270.15,-424.68"/>
<polygon fill="black" stroke="black" points="1272.78,-422.38 1263.46,-417.34 1267.61,-427.09 1272.78,-422.38"/>
</g>
<!-- The Baron -->
<g id="node14" class="node">
<title>The Baron</title>
<polygon fill="lightblue" stroke="lightblue" points="1025.62,-642 948.62,-642 948.62,-565 1025.62,-565 1025.62,-642"/>
<image xlink:href="img/mob.png" width="77px" height="77px" preserveAspectRatio="xMinYMin meet" x="948.625" y="-642"/>
<text text-anchor="middle" x="987.12" y="-597.7" font-family="MS Gothic" font-size="14.00">The Baron</text>
</g>
<!-- The Baron&#45;&gt;Stockwell -->
<g id="edge13" class="edge">
<title>The Baron&#45;&gt;Stockwell</title>
<path fill="none" stroke="black" d="M1003.85,-564.61C1007.4,-556.57 1011.19,-547.99 1014.88,-539.63"/>
<polygon fill="black" stroke="black" points="1018.03,-541.17 1018.86,-530.6 1011.62,-538.34 1018.03,-541.17"/>
</g>
<!-- Pocahontas -->
<g id="node15" class="node">
<title>Pocahontas</title>
<polygon fill="lightcoral" stroke="lightcoral" points="1126.88,-642 1043.38,-642 1043.38,-565 1126.88,-565 1126.88,-642"/>
<image xlink:href="img/mob.png" width="83.5px" height="77px" preserveAspectRatio="xMinYMin meet" x="1043.38" y="-642"/>
<text text-anchor="middle" x="1085.12" y="-597.7" font-family="MS Gothic" font-size="14.00">Pocahontas</text>
</g>
<!-- Pocahontas&#45;&gt;Stockwell -->
<g id="edge14" class="edge">
<title>Pocahontas&#45;&gt;Stockwell</title>
<path fill="none" stroke="black" d="M1068.4,-564.61C1064.85,-556.57 1061.06,-547.99 1057.37,-539.63"/>
<polygon fill="black" stroke="black" points="1060.63,-538.34 1053.39,-530.6 1054.22,-541.17 1060.63,-538.34"/>
</g>
<!-- Birdcatcher -->
<g id="node16" class="node">
<title>Birdcatcher</title>
<polygon fill="lightblue" stroke="lightblue" points="931.25,-755 841,-755 841,-678 931.25,-678 931.25,-755"/>
<image xlink:href="img/mob.png" width="90.25px" height="77px" preserveAspectRatio="xMinYMin meet" x="841" y="-755"/>
<text text-anchor="middle" x="886.12" y="-710.7" font-family="MS Gothic" font-size="14.00">Birdcatcher</text>
</g>
<!-- Birdcatcher&#45;&gt;The Baron -->
<g id="edge15" class="edge">
<title>Birdcatcher&#45;&gt;The Baron</title>
<path fill="none" stroke="black" d="M920.6,-677.61C928.48,-668.95 936.95,-659.65 945.1,-650.68"/>
<polygon fill="black" stroke="black" points="947.64,-653.09 951.79,-643.34 942.47,-648.38 947.64,-653.09"/>
</g>
<!-- Echidna -->
<g id="node17" class="node">
<title>Echidna</title>
<polygon fill="lightcoral" stroke="lightcoral" points="1026.62,-755 949.62,-755 949.62,-678 1026.62,-678 1026.62,-755"/>
<image xlink:href="img/mob.png" width="77px" height="77px" preserveAspectRatio="xMinYMin meet" x="949.625" y="-755"/>
<text text-anchor="middle" x="988.12" y="-710.7" font-family="MS Gothic" font-size="14.00">Echidna</text>
</g>
<!-- Echidna&#45;&gt;The Baron -->
<g id="edge16" class="edge">
<title>Echidna&#45;&gt;The Baron</title>
<path fill="none" stroke="black" d="M987.78,-677.61C987.71,-669.84 987.64,-661.56 987.57,-653.46"/>
<polygon fill="black" stroke="black" points="991.07,-653.7 987.48,-643.73 984.07,-653.76 991.07,-653.7"/>
</g>
<!-- Glencoe -->
<g id="node18" class="node">
<title>Glencoe</title>
<polygon fill="lightblue" stroke="lightblue" points="1122.62,-755 1045.62,-755 1045.62,-678 1122.62,-678 1122.62,-755"/>
<image xlink:href="img/mob.png" width="77px" height="77px" preserveAspectRatio="xMinYMin meet" x="1045.62" y="-755"/>
<text text-anchor="middle" x="1084.12" y="-710.7" font-family="MS Gothic" font-size="14.00">Glencoe</text>
</g>
<!-- Glencoe&#45;&gt;Pocahontas -->
<g id="edge17" class="edge">
<title>Glencoe&#45;&gt;Pocahontas</title>
<path fill="none" stroke="black" d="M1084.47,-677.61C1084.54,-669.84 1084.61,-661.56 1084.68,-653.46"/>
<polygon fill="black" stroke="black" points="1088.18,-653.76 1084.77,-643.73 1081.18,-653.7 1088.18,-653.76"/>
</g>
<!-- Marpessa -->
<g id="node19" class="node">
<title>Marpessa</title>
<polygon fill="lightcoral" stroke="lightcoral" points="1217.62,-755 1140.62,-755 1140.62,-678 1217.62,-678 1217.62,-755"/>
<image xlink:href="img/mob.png" width="77px" height="77px" preserveAspectRatio="xMinYMin meet" x="1140.62" y="-755"/>
<text text-anchor="middle" x="1179.12" y="-710.7" font-family="MS Gothic" font-size="14.00">Marpessa</text>
</g>
<!-- Marpessa&#45;&gt;Pocahontas -->
<g id="edge18" class="edge">
<title>Marpessa&#45;&gt;Pocahontas</title>
<path fill="none" stroke="black" d="M1147.04,-677.61C1139.78,-669.04 1131.99,-659.84 1124.47,-650.96"/>
<polygon fill="black" stroke="black" points="1127.18,-648.74 1118.05,-643.37 1121.84,-653.27 1127.18,-648.74"/>
</g>
<!-- Sir Hercules -->
<g id="node20" class="node">
<title>Sir Hercules</title>
<polygon fill="lightblue" stroke="lightblue" points="882.62,-868 785.62,-868 785.62,-791 882.62,-791 882.62,-868"/>
<image xlink:href="img/mob.png" width="97px" height="77px" preserveAspectRatio="xMinYMin meet" x="785.625" y="-868"/>
<text text-anchor="middle" x="834.12" y="-823.7" font-family="MS Gothic" font-size="14.00">Sir Hercules</text>
</g>
<!-- Sir Hercules&#45;&gt;Birdcatcher -->
<g id="edge19" class="edge">
<title>Sir Hercules&#45;&gt;Birdcatcher</title>
<path fill="none" stroke="black" d="M851.88,-790.61C855.64,-782.57 859.66,-773.99 863.58,-765.63"/>
<polygon fill="black" stroke="black" points="866.74,-767.13 867.81,-756.59 860.4,-764.16 866.74,-767.13"/>
</g>
<!-- Guiccioli -->
<g id="node21" class="node">
<title>Guiccioli</title>
<polygon fill="lightcoral" stroke="lightcoral" points="977.62,-868 900.62,-868 900.62,-791 977.62,-791 977.62,-868"/>
<image xlink:href="img/mob.png" width="77px" height="77px" preserveAspectRatio="xMinYMin meet" x="900.625" y="-868"/>
<text text-anchor="middle" x="939.12" y="-823.7" font-family="MS Gothic" font-size="14.00">Guiccioli</text>
</g>
<!-- Guiccioli&#45;&gt;Birdcatcher -->
<g id="edge20" class="edge">
<title>Guiccioli&#45;&gt;Birdcatcher</title>
<path fill="none" stroke="black" d="M921.03,-790.61C917.15,-782.48 913.01,-773.8 908.97,-765.35"/>
<polygon fill="black" stroke="black" points="912.25,-764.1 904.79,-756.58 905.94,-767.12 912.25,-764.1"/>
</g>
<!-- Whalebone -->
<g id="node22" class="node">
<title>Whalebone</title>
<polygon fill="lightblue" stroke="lightblue" points="780.62,-981 703.62,-981 703.62,-904 780.62,-904 780.62,-981"/>
<image xlink:href="img/mob.png" width="77px" height="77px" preserveAspectRatio="xMinYMin meet" x="703.625" y="-981"/>
<text text-anchor="middle" x="742.12" y="-936.7" font-family="MS Gothic" font-size="14.00">Whalebone</text>
</g>
<!-- Whalebone&#45;&gt;Sir Hercules -->
<g id="edge21" class="edge">
<title>Whalebone&#45;&gt;Sir Hercules</title>
<path fill="none" stroke="black" d="M773.53,-903.61C780.63,-895.04 788.26,-885.84 795.62,-876.96"/>
<polygon fill="black" stroke="black" points="798.21,-879.32 801.9,-869.38 792.82,-874.85 798.21,-879.32"/>
</g>
<!-- Peri -->
<g id="node23" class="node">
<title>Peri</title>
<polygon fill="lightcoral" stroke="lightcoral" points="875.62,-981 798.62,-981 798.62,-904 875.62,-904 875.62,-981"/>
<image xlink:href="img/mob.png" width="77px" height="77px" preserveAspectRatio="xMinYMin meet" x="798.625" y="-981"/>
<text text-anchor="middle" x="837.12" y="-936.7" font-family="MS Gothic" font-size="14.00">Peri</text>
</g>
<!-- Peri&#45;&gt;Sir Hercules -->
<g id="edge22" class="edge">
<title>Peri&#45;&gt;Sir Hercules</title>
<path fill="none" stroke="black" d="M836.1,-903.61C835.89,-895.84 835.67,-887.56 835.45,-879.46"/>
<polygon fill="black" stroke="black" points="838.95,-879.63 835.19,-869.73 831.96,-879.82 838.95,-879.63"/>
</g>
<!-- Bob Booty -->
<g id="node24" class="node">
<title>Bob Booty</title>
<polygon fill="lightblue" stroke="lightblue" points="975.62,-981 898.62,-981 898.62,-904 975.62,-904 975.62,-981"/>
<image xlink:href="img/mob.png" width="77px" height="77px" preserveAspectRatio="xMinYMin meet" x="898.625" y="-981"/>
<text text-anchor="middle" x="937.12" y="-936.7" font-family="MS Gothic" font-size="14.00">Bob Booty</text>
</g>
<!-- Bob Booty&#45;&gt;Guiccioli -->
<g id="edge23" class="edge">
<title>Bob Booty&#45;&gt;Guiccioli</title>
<path fill="none" stroke="black" d="M937.81,-903.61C937.95,-895.84 938.1,-887.56 938.24,-879.46"/>
<polygon fill="black" stroke="black" points="941.74,-879.79 938.42,-869.73 934.74,-879.67 941.74,-879.79"/>
</g>
<!-- Flight -->
<g id="node25" class="node">
<title>Flight</title>
<polygon fill="lightcoral" stroke="lightcoral" points="1070.62,-981 993.62,-981 993.62,-904 1070.62,-904 1070.62,-981"/>
<image xlink:href="img/mob.png" width="77px" height="77px" preserveAspectRatio="xMinYMin meet" x="993.625" y="-981"/>
<text text-anchor="middle" x="1032.12" y="-936.7" font-family="MS Gothic" font-size="14.00">Flight</text>
</g>
<!-- Flight&#45;&gt;Guiccioli -->
<g id="edge24" class="edge">
<title>Flight&#45;&gt;Guiccioli</title>
<path fill="none" stroke="black" d="M1000.38,-903.61C993.2,-895.04 985.49,-885.84 978.05,-876.96"/>
<polygon fill="black" stroke="black" points="980.8,-874.8 971.7,-869.38 975.44,-879.29 980.8,-874.8"/>
</g>
<!-- Waxy -->
<g id="node26" class="node">
<title>Waxy</title>
<polygon fill="lightblue" stroke="lightblue" points="733.62,-1094 656.62,-1094 656.62,-1017 733.62,-1017 733.62,-1094"/>
<image xlink:href="img/mob.png" width="77px" height="77px" preserveAspectRatio="xMinYMin meet" x="656.625" y="-1094"/>
<text text-anchor="middle" x="695.12" y="-1049.7" font-family="MS Gothic" font-size="14.00">Waxy</text>
</g>
<!-- Waxy&#45;&gt;Whalebone -->
<g id="edge25" class="edge">
<title>Waxy&#45;&gt;Whalebone</title>
<path fill="none" stroke="black" d="M711.17,-1016.61C714.57,-1008.57 718.21,-999.99 721.75,-991.63"/>
<polygon fill="black" stroke="black" points="724.89,-993.19 725.56,-982.61 718.44,-990.46 724.89,-993.19"/>
</g>
<!-- Penelope -->
<g id="node27" class="node">
<title>Penelope</title>
<polygon fill="lightcoral" stroke="lightcoral" points="828.62,-1094 751.62,-1094 751.62,-1017 828.62,-1017 828.62,-1094"/>
<image xlink:href="img/mob.png" width="77px" height="77px" preserveAspectRatio="xMinYMin meet" x="751.625" y="-1094"/>
<text text-anchor="middle" x="790.12" y="-1049.7" font-family="MS Gothic" font-size="14.00">Penelope</text>
</g>
<!-- Penelope&#45;&gt;Whalebone -->
<g id="edge26" class="edge">
<title>Penelope&#45;&gt;Whalebone</title>
<path fill="none" stroke="black" d="M773.74,-1016.61C770.26,-1008.57 766.55,-999.99 762.94,-991.63"/>
<polygon fill="black" stroke="black" points="766.22,-990.4 759.04,-982.61 759.79,-993.18 766.22,-990.4"/>
</g>
<!-- Pot&#45;8&#45;Os -->
<g id="node28" class="node">
<title>Pot&#45;8&#45;Os</title>
<polygon fill="lightblue" stroke="lightblue" points="638.62,-1207 561.62,-1207 561.62,-1130 638.62,-1130 638.62,-1207"/>
<image xlink:href="img/mob.png" width="77px" height="77px" preserveAspectRatio="xMinYMin meet" x="561.625" y="-1207"/>
<text text-anchor="middle" x="600.12" y="-1162.7" font-family="MS Gothic" font-size="14.00">Pot&#45;8&#45;Os</text>
</g>
<!-- Pot&#45;8&#45;Os&#45;&gt;Waxy -->
<g id="edge27" class="edge">
<title>Pot&#45;8&#45;Os&#45;&gt;Waxy</title>
<path fill="none" stroke="black" d="M632.55,-1129.61C639.89,-1121.04 647.76,-1111.84 655.36,-1102.96"/>
<polygon fill="black" stroke="black" points="658.02,-1105.24 661.86,-1095.37 652.7,-1100.69 658.02,-1105.24"/>
</g>
<!-- Maria III -->
<g id="node29" class="node">
<title>Maria III</title>
<polygon fill="lightcoral" stroke="lightcoral" points="733.62,-1207 656.62,-1207 656.62,-1130 733.62,-1130 733.62,-1207"/>
<image xlink:href="img/mob.png" width="77px" height="77px" preserveAspectRatio="xMinYMin meet" x="656.625" y="-1207"/>
<text text-anchor="middle" x="695.12" y="-1162.7" font-family="MS Gothic" font-size="14.00">Maria III</text>
</g>
<!-- Maria III&#45;&gt;Waxy -->
<g id="edge28" class="edge">
<title>Maria III&#45;&gt;Waxy</title>
<path fill="none" stroke="black" d="M695.12,-1129.61C695.12,-1121.84 695.12,-1113.56 695.12,-1105.46"/>
<polygon fill="black" stroke="black" points="698.63,-1105.73 695.13,-1095.73 691.63,-1105.73 698.63,-1105.73"/>
</g>
<!-- Trumpator -->
<g id="node30" class="node">
<title>Trumpator</title>
<polygon fill="lightblue" stroke="lightblue" points="828.62,-1207 751.62,-1207 751.62,-1130 828.62,-1130 828.62,-1207"/>
<image xlink:href="img/mob.png" width="77px" height="77px" preserveAspectRatio="xMinYMin meet" x="751.625" y="-1207"/>
<text text-anchor="middle" x="790.12" y="-1162.7" font-family="MS Gothic" font-size="14.00">Trumpator</text>
</g>
<!-- Trumpator&#45;&gt;Penelope -->
<g id="edge29" class="edge">
<title>Trumpator&#45;&gt;Penelope</title>
<path fill="none" stroke="black" d="M790.12,-1129.61C790.12,-1121.84 790.12,-1113.56 790.12,-1105.46"/>
<polygon fill="black" stroke="black" points="793.63,-1105.73 790.13,-1095.73 786.63,-1105.73 793.63,-1105.73"/>
</g>
<!-- Prunella -->
<g id="node31" class="node">
<title>Prunella</title>
<polygon fill="lightcoral" stroke="lightcoral" points="923.62,-1207 846.62,-1207 846.62,-1130 923.62,-1130 923.62,-1207"/>
<image xlink:href="img/mob.png" width="77px" height="77px" preserveAspectRatio="xMinYMin meet" x="846.625" y="-1207"/>
<text text-anchor="middle" x="885.12" y="-1162.7" font-family="MS Gothic" font-size="14.00">Prunella</text>
</g>
<!-- Prunella&#45;&gt;Penelope -->
<g id="edge30" class="edge">
<title>Prunella&#45;&gt;Penelope</title>
<path fill="none" stroke="black" d="M852.7,-1129.61C845.36,-1121.04 837.49,-1111.84 829.89,-1102.96"/>
<polygon fill="black" stroke="black" points="832.55,-1100.69 823.39,-1095.37 827.23,-1105.24 832.55,-1100.69"/>
</g>
<!-- Eclipse -->
<g id="node32" class="node">
<title>Eclipse</title>
<polygon fill="lightblue" stroke="lightblue" points="582.62,-1320 505.62,-1320 505.62,-1243 582.62,-1243 582.62,-1320"/>
<image xlink:href="img/mob.png" width="77px" height="77px" preserveAspectRatio="xMinYMin meet" x="505.625" y="-1320"/>
<text text-anchor="middle" x="544.12" y="-1275.7" font-family="MS Gothic" font-size="14.00">Eclipse</text>
</g>
<!-- Eclipse&#45;&gt;Pot&#45;8&#45;Os -->
<g id="edge31" class="edge">
<title>Eclipse&#45;&gt;Pot&#45;8&#45;Os</title>
<path fill="none" stroke="black" d="M563.24,-1242.61C567.34,-1234.48 571.72,-1225.8 575.99,-1217.35"/>
<polygon fill="black" stroke="black" points="579.03,-1219.07 580.41,-1208.57 572.78,-1215.92 579.03,-1219.07"/>
</g>
<!-- Sportsmistress -->
<g id="node33" class="node">
<title>Sportsmistress</title>
<polygon fill="lightcoral" stroke="lightcoral" points="711.38,-1320 600.88,-1320 600.88,-1243 711.38,-1243 711.38,-1320"/>
<image xlink:href="img/mob.png" width="100px" height="77px" preserveAspectRatio="xMinYMin meet" x="606.125" y="-1320"/>
<text text-anchor="middle" x="656.12" y="-1275.7" font-family="MS Gothic" font-size="14.00">Sportsmistress</text>
</g>
<!-- Sportsmistress&#45;&gt;Pot&#45;8&#45;Os -->
<g id="edge32" class="edge">
<title>Sportsmistress&#45;&gt;Pot&#45;8&#45;Os</title>
<path fill="none" stroke="black" d="M637.01,-1242.61C632.91,-1234.48 628.53,-1225.8 624.26,-1217.35"/>
<polygon fill="black" stroke="black" points="627.47,-1215.92 619.84,-1208.57 621.22,-1219.07 627.47,-1215.92"/>
</g>
<!-- Marske -->
<g id="node34" class="node">
<title>Marske</title>
<polygon fill="lightblue" stroke="lightblue" points="492.62,-1433 415.62,-1433 415.62,-1356 492.62,-1356 492.62,-1433"/>
<image xlink:href="img/mob.png" width="77px" height="77px" preserveAspectRatio="xMinYMin meet" x="415.625" y="-1433"/>
<text text-anchor="middle" x="454.12" y="-1388.7" font-family="MS Gothic" font-size="14.00">Marske</text>
</g>
<!-- Marske&#45;&gt;Eclipse -->
<g id="edge33" class="edge">
<title>Marske&#45;&gt;Eclipse</title>
<path fill="none" stroke="black" d="M484.85,-1355.61C491.8,-1347.04 499.26,-1337.84 506.46,-1328.96"/>
<polygon fill="black" stroke="black" points="509.01,-1331.37 512.59,-1321.39 503.57,-1326.96 509.01,-1331.37"/>
</g>
<!-- Spilletta -->
<g id="node35" class="node">
<title>Spilletta</title>
<polygon fill="lightcoral" stroke="lightcoral" points="587.62,-1433 510.62,-1433 510.62,-1356 587.62,-1356 587.62,-1433"/>
<image xlink:href="img/mob.png" width="77px" height="77px" preserveAspectRatio="xMinYMin meet" x="510.625" y="-1433"/>
<text text-anchor="middle" x="549.12" y="-1388.7" font-family="MS Gothic" font-size="14.00">Spilletta</text>
</g>
<!-- Spilletta&#45;&gt;Eclipse -->
<g id="edge34" class="edge">
<title>Spilletta&#45;&gt;Eclipse</title>
<path fill="none" stroke="black" d="M547.42,-1355.61C547.07,-1347.84 546.7,-1339.56 546.33,-1331.46"/>
<polygon fill="black" stroke="black" points="549.84,-1331.56 545.89,-1321.73 542.85,-1331.88 549.84,-1331.56"/>
</g>
<!-- Sportsman -->
<g id="node36" class="node">
<title>Sportsman</title>
<polygon fill="lightblue" stroke="lightblue" points="690.62,-1433 613.62,-1433 613.62,-1356 690.62,-1356 690.62,-1433"/>
<image xlink:href="img/mob.png" width="77px" height="77px" preserveAspectRatio="xMinYMin meet" x="613.625" y="-1433"/>
<text text-anchor="middle" x="652.12" y="-1388.7" font-family="MS Gothic" font-size="14.00">Sportsman</text>
</g>
<!-- Sportsman&#45;&gt;Sportsmistress -->
<g id="edge35" class="edge">
<title>Sportsman&#45;&gt;Sportsmistress</title>
<path fill="none" stroke="black" d="M653.49,-1355.61C653.77,-1347.84 654.07,-1339.56 654.36,-1331.46"/>
<polygon fill="black" stroke="black" points="657.85,-1331.85 654.71,-1321.73 650.85,-1331.6 657.85,-1331.85"/>
</g>
<!-- Golden Locks -->
<g id="node37" class="node">
<title>Golden Locks</title>
<polygon fill="lightcoral" stroke="lightcoral" points="805.62,-1433 708.62,-1433 708.62,-1356 805.62,-1356 805.62,-1433"/>
<image xlink:href="img/mob.png" width="97px" height="77px" preserveAspectRatio="xMinYMin meet" x="708.625" y="-1433"/>
<text text-anchor="middle" x="757.12" y="-1388.7" font-family="MS Gothic" font-size="14.00">Golden Locks</text>
</g>
<!-- Golden Locks&#45;&gt;Sportsmistress -->
<g id="edge36" class="edge">
<title>Golden Locks&#45;&gt;Sportsmistress</title>
<path fill="none" stroke="black" d="M722.65,-1355.61C714.77,-1346.95 706.3,-1337.65 698.15,-1328.68"/>
<polygon fill="black" stroke="black" points="700.78,-1326.38 691.46,-1321.34 695.61,-1331.09 700.78,-1326.38"/>
</g>
<!-- Squirt -->
<g id="node38" class="node">
<title>Squirt</title>
<polygon fill="lightblue" stroke="lightblue" points="421.62,-1546 344.62,-1546 344.62,-1469 421.62,-1469 421.62,-1546"/>
<image xlink:href="img/mob.png" width="77px" height="77px" preserveAspectRatio="xMinYMin meet" x="344.625" y="-1546"/>
<text text-anchor="middle" x="383.12" y="-1501.7" font-family="MS Gothic" font-size="14.00">Squirt</text>
</g>
<!-- Squirt&#45;&gt;Marske -->
<g id="edge37" class="edge">
<title>Squirt&#45;&gt;Marske</title>
<path fill="none" stroke="black" d="M407.36,-1468.61C412.67,-1460.31 418.36,-1451.41 423.88,-1442.79"/>
<polygon fill="black" stroke="black" points="426.74,-1444.8 429.18,-1434.49 420.85,-1441.03 426.74,-1444.8"/>
</g>
<!-- Hutton&#39;s Blacklegs Mare -->
<g id="node39" class="node">
<title>Hutton&#39;s Blacklegs Mare</title>
<polygon fill="lightcoral" stroke="lightcoral" points="610.75,-1546 439.5,-1546 439.5,-1469 610.75,-1469 610.75,-1546"/>
<image xlink:href="img/mob.png" width="100px" height="77px" preserveAspectRatio="xMinYMin meet" x="475.125" y="-1546"/>
<text text-anchor="middle" x="525.12" y="-1501.7" font-family="MS Gothic" font-size="14.00">Hutton&#39;s Blacklegs Mare</text>
</g>
<!-- Hutton&#39;s Blacklegs Mare&#45;&gt;Marske -->
<g id="edge38" class="edge">
<title>Hutton&#39;s Blacklegs Mare&#45;&gt;Marske</title>
<path fill="none" stroke="black" d="M500.89,-1468.61C495.58,-1460.31 489.89,-1451.41 484.37,-1442.79"/>
<polygon fill="black" stroke="black" points="487.4,-1441.03 479.07,-1434.49 481.51,-1444.8 487.4,-1441.03"/>
</g>
<!-- Bartlet&#39;s Childers -->
<g id="node40" class="node">
<title>Bartlet&#39;s Childers</title>
<polygon fill="lightblue" stroke="lightblue" points="279.88,-1659 142.38,-1659 142.38,-1582 279.88,-1582 279.88,-1659"/>
<image xlink:href="img/mob.png" width="100px" height="77px" preserveAspectRatio="xMinYMin meet" x="161.125" y="-1659"/>
<text text-anchor="middle" x="211.12" y="-1614.7" font-family="MS Gothic" font-size="14.00">Bartlet&#39;s Childers</text>
</g>
<!-- Bartlet&#39;s Childers&#45;&gt;Squirt -->
<g id="edge39" class="edge">
<title>Bartlet&#39;s Childers&#45;&gt;Squirt</title>
<path fill="none" stroke="black" d="M269.84,-1581.61C290.91,-1568.01 314.43,-1552.83 334.55,-1539.85"/>
<polygon fill="black" stroke="black" points="336.35,-1542.85 342.85,-1534.49 332.55,-1536.97 336.35,-1542.85"/>
</g>
<!-- Snake Mare -->
<g id="node41" class="node">
<title>Snake Mare</title>
<polygon fill="lightcoral" stroke="lightcoral" points="428.88,-1659 345.38,-1659 345.38,-1582 428.88,-1582 428.88,-1659"/>
<image xlink:href="img/mob.png" width="83.5px" height="77px" preserveAspectRatio="xMinYMin meet" x="345.375" y="-1659"/>
<text text-anchor="middle" x="387.12" y="-1614.7" font-family="MS Gothic" font-size="14.00">Snake Mare</text>
</g>
<!-- Snake Mare&#45;&gt;Squirt -->
<g id="edge40" class="edge">
<title>Snake Mare&#45;&gt;Squirt</title>
<path fill="none" stroke="black" d="M385.76,-1581.61C385.48,-1573.84 385.18,-1565.56 384.89,-1557.46"/>
<polygon fill="black" stroke="black" points="388.4,-1557.6 384.54,-1547.73 381.4,-1557.85 388.4,-1557.6"/>
</g>
<!-- Hutton&#39;s Blacklegs -->
<g id="node42" class="node">
<title>Hutton&#39;s Blacklegs</title>
<polygon fill="lightblue" stroke="lightblue" points="590.88,-1659 453.38,-1659 453.38,-1582 590.88,-1582 590.88,-1659"/>
<image xlink:href="img/mob.png" width="100px" height="77px" preserveAspectRatio="xMinYMin meet" x="472.125" y="-1659"/>
<text text-anchor="middle" x="522.12" y="-1614.7" font-family="MS Gothic" font-size="14.00">Hutton&#39;s Blacklegs</text>
</g>
<!-- Hutton&#39;s Blacklegs&#45;&gt;Hutton&#39;s Blacklegs Mare -->
<g id="edge41" class="edge">
<title>Hutton&#39;s Blacklegs&#45;&gt;Hutton&#39;s Blacklegs Mare</title>
<path fill="none" stroke="black" d="M523.15,-1581.61C523.36,-1573.84 523.58,-1565.56 523.8,-1557.46"/>
<polygon fill="black" stroke="black" points="527.29,-1557.82 524.06,-1547.73 520.3,-1557.63 527.29,-1557.82"/>
</g>
<!-- Bay Bolton Mare -->
<g id="node43" class="node">
<title>Bay Bolton Mare</title>
<polygon fill="lightcoral" stroke="lightcoral" points="725.75,-1659 608.5,-1659 608.5,-1582 725.75,-1582 725.75,-1659"/>
<image xlink:href="img/mob.png" width="100px" height="77px" preserveAspectRatio="xMinYMin meet" x="617.125" y="-1659"/>
<text text-anchor="middle" x="667.12" y="-1614.7" font-family="MS Gothic" font-size="14.00">Bay Bolton Mare</text>
</g>
<!-- Bay Bolton Mare&#45;&gt;Hutton&#39;s Blacklegs Mare -->
<g id="edge42" class="edge">
<title>Bay Bolton Mare&#45;&gt;Hutton&#39;s Blacklegs Mare</title>
<path fill="none" stroke="black" d="M618.65,-1581.61C607,-1572.5 594.45,-1562.69 582.43,-1553.3"/>
<polygon fill="black" stroke="black" points="584.6,-1550.55 574.57,-1547.15 580.29,-1556.07 584.6,-1550.55"/>
</g>
<!-- ダーレーアラビアン -->
<g id="node44" class="node">
<title>ダーレーアラビアン</title>
<polygon fill="lightblue" stroke="lightblue" points="144.25,-1772 0,-1772 0,-1695 144.25,-1695 144.25,-1772"/>
<image xlink:href="img/darearabian.png" width="100px" height="77px" preserveAspectRatio="xMinYMin meet" x="22.125" y="-1772"/>
<text text-anchor="middle" x="72.12" y="-1727.7" font-family="MS Gothic" font-size="14.00">ダーレーアラビアン</text>
</g>
<!-- ダーレーアラビアン&#45;&gt;Bartlet&#39;s Childers -->
<g id="edge43" class="edge">
<title>ダーレーアラビアン&#45;&gt;Bartlet&#39;s Childers</title>
<path fill="none" stroke="black" d="M119.57,-1694.61C130.98,-1685.5 143.27,-1675.69 155.03,-1666.3"/>
<polygon fill="black" stroke="black" points="157.08,-1669.14 162.71,-1660.16 152.71,-1663.67 157.08,-1669.14"/>
</g>
<!-- Betty Leedes -->
<g id="node45" class="node">
<title>Betty Leedes</title>
<polygon fill="lightcoral" stroke="lightcoral" points="259.62,-1772 162.62,-1772 162.62,-1695 259.62,-1695 259.62,-1772"/>
<image xlink:href="img/mob.png" width="97px" height="77px" preserveAspectRatio="xMinYMin meet" x="162.625" y="-1772"/>
<text text-anchor="middle" x="211.12" y="-1727.7" font-family="MS Gothic" font-size="14.00">Betty Leedes</text>
</g>
<!-- Betty Leedes&#45;&gt;Bartlet&#39;s Childers -->
<g id="edge44" class="edge">
<title>Betty Leedes&#45;&gt;Bartlet&#39;s Childers</title>
<path fill="none" stroke="black" d="M211.12,-1694.61C211.12,-1686.84 211.12,-1678.56 211.12,-1670.46"/>
<polygon fill="black" stroke="black" points="214.63,-1670.73 211.13,-1660.73 207.63,-1670.73 214.63,-1670.73"/>
</g>
<!-- Old Careless -->
<g id="node46" class="node">
<title>Old Careless</title>
<polygon fill="lightblue" stroke="lightblue" points="144.62,-1885 47.62,-1885 47.62,-1808 144.62,-1808 144.62,-1885"/>
<image xlink:href="img/mob.png" width="97px" height="77px" preserveAspectRatio="xMinYMin meet" x="47.625" y="-1885"/>
<text text-anchor="middle" x="96.12" y="-1840.7" font-family="MS Gothic" font-size="14.00">Old Careless</text>
</g>
<!-- Old Careless&#45;&gt;Betty Leedes -->
<g id="edge45" class="edge">
<title>Old Careless&#45;&gt;Betty Leedes</title>
<path fill="none" stroke="black" d="M135.38,-1807.61C144.54,-1798.77 154.39,-1789.26 163.85,-1780.13"/>
<polygon fill="black" stroke="black" points="166.19,-1782.73 170.96,-1773.27 161.33,-1777.7 166.19,-1782.73"/>
</g>
<!-- Cream Cheeks -->
<g id="node47" class="node">
<title>Cream Cheeks</title>
<polygon fill="lightcoral" stroke="lightcoral" points="259.62,-1885 162.62,-1885 162.62,-1808 259.62,-1808 259.62,-1885"/>
<image xlink:href="img/mob.png" width="97px" height="77px" preserveAspectRatio="xMinYMin meet" x="162.625" y="-1885"/>
<text text-anchor="middle" x="211.12" y="-1840.7" font-family="MS Gothic" font-size="14.00">Cream Cheeks</text>
</g>
<!-- Cream Cheeks&#45;&gt;Betty Leedes -->
<g id="edge46" class="edge">
<title>Cream Cheeks&#45;&gt;Betty Leedes</title>
<path fill="none" stroke="black" d="M211.12,-1807.61C211.12,-1799.84 211.12,-1791.56 211.12,-1783.46"/>
<polygon fill="black" stroke="black" points="214.63,-1783.73 211.13,-1773.73 207.63,-1783.73 214.63,-1783.73"/>
</g>
<!-- Snake -->
<g id="node48" class="node">
<title>Snake</title>
<polygon fill="lightblue" stroke="lightblue" points="425.62,-1772 348.62,-1772 348.62,-1695 425.62,-1695 425.62,-1772"/>
<image xlink:href="img/mob.png" width="77px" height="77px" preserveAspectRatio="xMinYMin meet" x="348.625" y="-1772"/>
<text text-anchor="middle" x="387.12" y="-1727.7" font-family="MS Gothic" font-size="14.00">Snake</text>
</g>
<!-- Snake&#45;&gt;Snake Mare -->
<g id="edge47" class="edge">
<title>Snake&#45;&gt;Snake Mare</title>
<path fill="none" stroke="black" d="M387.12,-1694.61C387.12,-1686.84 387.12,-1678.56 387.12,-1670.46"/>
<polygon fill="black" stroke="black" points="390.63,-1670.73 387.13,-1660.73 383.63,-1670.73 390.63,-1670.73"/>
</g>
<!-- Grey Wilkes -->
<g id="node49" class="node">
<title>Grey Wilkes</title>
<polygon fill="lightcoral" stroke="lightcoral" points="585.25,-1772 495,-1772 495,-1695 585.25,-1695 585.25,-1772"/>
<image xlink:href="img/mob.png" width="90.25px" height="77px" preserveAspectRatio="xMinYMin meet" x="495" y="-1772"/>
<text text-anchor="middle" x="540.12" y="-1727.7" font-family="MS Gothic" font-size="14.00">Grey Wilkes</text>
</g>
<!-- Grey Wilkes&#45;&gt;Snake Mare -->
<g id="edge48" class="edge">
<title>Grey Wilkes&#45;&gt;Snake Mare</title>
<path fill="none" stroke="black" d="M494.63,-1699.5C477.01,-1686.71 456.73,-1672 438.58,-1658.83"/>
<polygon fill="black" stroke="black" points="440.68,-1656.03 430.53,-1652.99 436.57,-1661.69 440.68,-1656.03"/>
</g>
<!-- Lister Turk -->
<g id="node50" class="node">
<title>Lister Turk</title>
<polygon fill="lightblue" stroke="lightblue" points="368.25,-1885 278,-1885 278,-1808 368.25,-1808 368.25,-1885"/>
<image xlink:href="img/mob.png" width="90.25px" height="77px" preserveAspectRatio="xMinYMin meet" x="278" y="-1885"/>
<text text-anchor="middle" x="323.12" y="-1840.7" font-family="MS Gothic" font-size="14.00">Lister Turk</text>
</g>
<!-- Lister Turk&#45;&gt;Snake -->
<g id="edge49" class="edge">
<title>Lister Turk&#45;&gt;Snake</title>
<path fill="none" stroke="black" d="M344.97,-1807.61C349.71,-1799.39 354.78,-1790.6 359.7,-1782.07"/>
<polygon fill="black" stroke="black" points="362.66,-1783.94 364.62,-1773.53 356.59,-1780.44 362.66,-1783.94"/>
</g>
<!-- Hautboy Mare -->
<g id="node51" class="node">
<title>Hautboy Mare</title>
<polygon fill="lightcoral" stroke="lightcoral" points="483.62,-1885 386.62,-1885 386.62,-1808 483.62,-1808 483.62,-1885"/>
<image xlink:href="img/mob.png" width="97px" height="77px" preserveAspectRatio="xMinYMin meet" x="386.625" y="-1885"/>
<text text-anchor="middle" x="435.12" y="-1840.7" font-family="MS Gothic" font-size="14.00">Hautboy Mare</text>
</g>
<!-- Hautboy Mare&#45;&gt;Snake -->
<g id="edge50" class="edge">
<title>Hautboy Mare&#45;&gt;Snake</title>
<path fill="none" stroke="black" d="M418.74,-1807.61C415.26,-1799.57 411.55,-1790.99 407.94,-1782.63"/>
<polygon fill="black" stroke="black" points="411.22,-1781.4 404.04,-1773.61 404.79,-1784.18 411.22,-1781.4"/>
</g>
<!-- Hautboy -->
<g id="node52" class="node">
<title>Hautboy</title>
<polygon fill="lightblue" stroke="lightblue" points="578.62,-1885 501.62,-1885 501.62,-1808 578.62,-1808 578.62,-1885"/>
<image xlink:href="img/mob.png" width="77px" height="77px" preserveAspectRatio="xMinYMin meet" x="501.625" y="-1885"/>
<text text-anchor="middle" x="540.12" y="-1840.7" font-family="MS Gothic" font-size="14.00">Hautboy</text>
</g>
<!-- Hautboy&#45;&gt;Grey Wilkes -->
<g id="edge51" class="edge">
<title>Hautboy&#45;&gt;Grey Wilkes</title>
<path fill="none" stroke="black" d="M540.12,-1807.61C540.12,-1799.84 540.12,-1791.56 540.12,-1783.46"/>
<polygon fill="black" stroke="black" points="543.63,-1783.73 540.13,-1773.73 536.63,-1783.73 543.63,-1783.73"/>
</g>
<!-- Miss Darcys Pet Mare -->
<g id="node53" class="node">
<title>Miss Darcys Pet Mare</title>
<polygon fill="lightcoral" stroke="lightcoral" points="747.62,-1885 596.62,-1885 596.62,-1808 747.62,-1808 747.62,-1885"/>
<image xlink:href="img/mob.png" width="100px" height="77px" preserveAspectRatio="xMinYMin meet" x="622.125" y="-1885"/>
<text text-anchor="middle" x="672.12" y="-1840.7" font-family="MS Gothic" font-size="14.00">Miss Darcys Pet Mare</text>
</g>
<!-- Miss Darcys Pet Mare&#45;&gt;Grey Wilkes -->
<g id="edge52" class="edge">
<title>Miss Darcys Pet Mare&#45;&gt;Grey Wilkes</title>
<path fill="none" stroke="black" d="M627.07,-1807.61C616.34,-1798.59 604.79,-1788.88 593.73,-1779.57"/>
<polygon fill="black" stroke="black" points="596.04,-1776.95 586.14,-1773.19 591.54,-1782.31 596.04,-1776.95"/>
</g>
</g>
</svg>
