<?xml version="1.0" encoding="UTF-8" standalone="no"?>
<!DOCTYPE svg PUBLIC "-//W3C//DTD SVG 1.1//EN"
 "http://www.w3.org/Graphics/SVG/1.1/DTD/svg11.dtd">
<!-- Generated by graphviz version 12.1.2 (20240928.0832)
 -->
<!-- Pages: 1 -->
<svg width="681pt" height="763pt"
 viewBox="0.00 0.00 680.62 763.00" xmlns="http://www.w3.org/2000/svg" xmlns:xlink="http://www.w3.org/1999/xlink">
<g id="graph0" class="graph" transform="scale(1 1) rotate(0) translate(4 759)">
<polygon fill="white" stroke="none" points="-4,4 -4,-759 676.62,-759 676.62,4 -4,4"/>
<!-- Eclipse -->
<g id="node1" class="node">
<title>Eclipse</title>
<polygon fill="none" stroke="black" points="353.62,-77 276.62,-77 276.62,0 353.62,0 353.62,-77"/>
<image xlink:href="img/mob.png" width="77px" height="77px" preserveAspectRatio="xMinYMin meet" x="276.625" y="-77"/>
<text text-anchor="middle" x="315.12" y="-33.45" font-family="Times New Roman,serif" font-size="14.00">Eclipse</text>
</g>
<!-- Marske -->
<g id="node2" class="node">
<title>Marske</title>
<polygon fill="lightblue" stroke="lightblue" points="297.62,-303 220.62,-303 220.62,-226 297.62,-226 297.62,-303"/>
<image xlink:href="img/mob.png" width="77px" height="77px" preserveAspectRatio="xMinYMin meet" x="220.625" y="-303"/>
<text text-anchor="middle" x="259.12" y="-258.7" font-family="MS Gothic" font-size="14.00">Marske</text>
</g>
<!-- Marske&#45;&gt;Eclipse -->
<g id="edge1" class="edge">
<title>Marske&#45;&gt;Eclipse</title>
<path fill="none" stroke="black" d="M268.62,-225.5C278.07,-187.74 292.59,-129.65 302.89,-88.45"/>
<polygon fill="black" stroke="black" points="306.28,-89.33 305.31,-78.78 299.48,-87.63 306.28,-89.33"/>
</g>
<!-- Spilletta -->
<g id="node3" class="node">
<title>Spilletta</title>
<polygon fill="lightcoral" stroke="lightcoral" points="409.62,-190 332.62,-190 332.62,-113 409.62,-113 409.62,-190"/>
<image xlink:href="img/mob.png" width="77px" height="77px" preserveAspectRatio="xMinYMin meet" x="332.625" y="-190"/>
<text text-anchor="middle" x="371.12" y="-145.7" font-family="MS Gothic" font-size="14.00">Spilletta</text>
</g>
<!-- Spilletta&#45;&gt;Eclipse -->
<g id="edge2" class="edge">
<title>Spilletta&#45;&gt;Eclipse</title>
<path fill="none" stroke="black" d="M352.01,-112.61C347.91,-104.48 343.53,-95.8 339.26,-87.35"/>
<polygon fill="black" stroke="black" points="342.47,-85.92 334.84,-78.57 336.22,-89.07 342.47,-85.92"/>
</g>
<!-- Squirt -->
<g id="node4" class="node">
<title>Squirt</title>
<polygon fill="lightblue" stroke="lightblue" points="179.62,-416 102.62,-416 102.62,-339 179.62,-339 179.62,-416"/>
<image xlink:href="img/mob.png" width="77px" height="77px" preserveAspectRatio="xMinYMin meet" x="102.625" y="-416"/>
<text text-anchor="middle" x="141.12" y="-371.7" font-family="MS Gothic" font-size="14.00">Squirt</text>
</g>
<!-- Squirt&#45;&gt;Marske -->
<g id="edge3" class="edge">
<title>Squirt&#45;&gt;Marske</title>
<path fill="none" stroke="black" d="M180.09,-339.85C190.26,-330.28 201.33,-319.87 211.88,-309.94"/>
<polygon fill="black" stroke="black" points="214.21,-312.55 219.1,-303.15 209.42,-307.45 214.21,-312.55"/>
</g>
<!-- Hutton&#39;s Blacklegs Mare -->
<g id="node5" class="node">
<title>Hutton&#39;s Blacklegs Mare</title>
<polygon fill="lightcoral" stroke="lightcoral" points="368.75,-416 197.5,-416 197.5,-339 368.75,-339 368.75,-416"/>
<image xlink:href="img/mob.png" width="100px" height="77px" preserveAspectRatio="xMinYMin meet" x="233.125" y="-416"/>
<text text-anchor="middle" x="283.12" y="-371.7" font-family="MS Gothic" font-size="14.00">Hutton&#39;s Blacklegs Mare</text>
</g>
<!-- Hutton&#39;s Blacklegs Mare&#45;&gt;Marske -->
<g id="edge4" class="edge">
<title>Hutton&#39;s Blacklegs Mare&#45;&gt;Marske</title>
<path fill="none" stroke="black" d="M274.93,-338.61C273.25,-330.84 271.46,-322.56 269.71,-314.46"/>
<polygon fill="black" stroke="black" points="273.13,-313.73 267.6,-304.7 266.29,-315.21 273.13,-313.73"/>
</g>
<!-- Regulus -->
<g id="node6" class="node">
<title>Regulus</title>
<polygon fill="lightblue" stroke="lightblue" points="521.62,-303 444.62,-303 444.62,-226 521.62,-226 521.62,-303"/>
<image xlink:href="img/mob.png" width="77px" height="77px" preserveAspectRatio="xMinYMin meet" x="444.625" y="-303"/>
<text text-anchor="middle" x="483.12" y="-258.7" font-family="MS Gothic" font-size="14.00">Regulus</text>
</g>
<!-- Regulus&#45;&gt;Spilletta -->
<g id="edge5" class="edge">
<title>Regulus&#45;&gt;Spilletta</title>
<path fill="none" stroke="black" d="M444.89,-225.61C435.97,-216.77 426.38,-207.26 417.16,-198.13"/>
<polygon fill="black" stroke="black" points="419.83,-195.84 410.26,-191.28 414.9,-200.81 419.83,-195.84"/>
</g>
<!-- Mother Western -->
<g id="node7" class="node">
<title>Mother Western</title>
<polygon fill="lightcoral" stroke="lightcoral" points="426.38,-303 315.88,-303 315.88,-226 426.38,-226 426.38,-303"/>
<image xlink:href="img/mob.png" width="100px" height="77px" preserveAspectRatio="xMinYMin meet" x="321.125" y="-303"/>
<text text-anchor="middle" x="371.12" y="-258.7" font-family="MS Gothic" font-size="14.00">Mother Western</text>
</g>
<!-- Mother Western&#45;&gt;Spilletta -->
<g id="edge6" class="edge">
<title>Mother Western&#45;&gt;Spilletta</title>
<path fill="none" stroke="black" d="M371.12,-225.61C371.12,-217.84 371.12,-209.56 371.12,-201.46"/>
<polygon fill="black" stroke="black" points="374.63,-201.73 371.13,-191.73 367.63,-201.73 374.63,-201.73"/>
</g>
<!-- Bartlet&#39;s Childers -->
<g id="node8" class="node">
<title>Bartlet&#39;s Childers</title>
<polygon fill="lightblue" stroke="lightblue" points="209.88,-529 72.38,-529 72.38,-452 209.88,-452 209.88,-529"/>
<image xlink:href="img/mob.png" width="100px" height="77px" preserveAspectRatio="xMinYMin meet" x="91.125" y="-529"/>
<text text-anchor="middle" x="141.12" y="-484.7" font-family="MS Gothic" font-size="14.00">Bartlet&#39;s Childers</text>
</g>
<!-- Bartlet&#39;s Childers&#45;&gt;Squirt -->
<g id="edge7" class="edge">
<title>Bartlet&#39;s Childers&#45;&gt;Squirt</title>
<path fill="none" stroke="black" d="M141.12,-451.61C141.12,-443.84 141.12,-435.56 141.12,-427.46"/>
<polygon fill="black" stroke="black" points="144.63,-427.73 141.13,-417.73 137.63,-427.73 144.63,-427.73"/>
</g>
<!-- Snake Mare -->
<g id="node9" class="node">
<title>Snake Mare</title>
<polygon fill="lightcoral" stroke="lightcoral" points="444.88,-529 361.38,-529 361.38,-452 444.88,-452 444.88,-529"/>
<image xlink:href="img/mob.png" width="83.5px" height="77px" preserveAspectRatio="xMinYMin meet" x="361.375" y="-529"/>
<text text-anchor="middle" x="403.12" y="-484.7" font-family="MS Gothic" font-size="14.00">Snake Mare</text>
</g>
<!-- Snake Mare&#45;&gt;Squirt -->
<g id="edge8" class="edge">
<title>Snake Mare&#45;&gt;Squirt</title>
<path fill="none" stroke="black" d="M360.94,-479.68C318.52,-468.83 251.73,-449.05 189.81,-416.41"/>
<polygon fill="black" stroke="black" points="191.71,-413.46 181.25,-411.78 188.38,-419.61 191.71,-413.46"/>
</g>
<!-- Grey Robinson -->
<g id="node15" class="node">
<title>Grey Robinson</title>
<polygon fill="lightcoral" stroke="lightcoral" points="653,-416 549.25,-416 549.25,-339 653,-339 653,-416"/>
<image xlink:href="img/mob.png" width="100px" height="77px" preserveAspectRatio="xMinYMin meet" x="551.125" y="-416"/>
<text text-anchor="middle" x="601.12" y="-371.7" font-family="MS Gothic" font-size="14.00">Grey Robinson</text>
</g>
<!-- Snake Mare&#45;&gt;Grey Robinson -->
<g id="edge16" class="edge">
<title>Snake Mare&#45;&gt;Grey Robinson</title>
<path fill="none" stroke="black" d="M445.14,-467.78C470.2,-454.64 502.77,-437.24 539.16,-416.47"/>
<polygon fill="black" stroke="black" points="540.76,-419.59 547.69,-411.57 537.27,-413.51 540.76,-419.59"/>
</g>
<!-- ダーレーアラビアン -->
<g id="node10" class="node">
<title>ダーレーアラビアン</title>
<polygon fill="lightblue" stroke="lightblue" points="144.25,-642 0,-642 0,-565 144.25,-565 144.25,-642"/>
<image xlink:href="img/darearabian.png" width="100px" height="77px" preserveAspectRatio="xMinYMin meet" x="22.125" y="-642"/>
<text text-anchor="middle" x="72.12" y="-597.7" font-family="MS Gothic" font-size="14.00">ダーレーアラビアン</text>
</g>
<!-- ダーレーアラビアン&#45;&gt;Bartlet&#39;s Childers -->
<g id="edge9" class="edge">
<title>ダーレーアラビアン&#45;&gt;Bartlet&#39;s Childers</title>
<path fill="none" stroke="black" d="M95.68,-564.61C100.84,-556.31 106.37,-547.41 111.73,-538.79"/>
<polygon fill="black" stroke="black" points="114.57,-540.84 116.88,-530.5 108.63,-537.15 114.57,-540.84"/>
</g>
<!-- Betty Leedes -->
<g id="node11" class="node">
<title>Betty Leedes</title>
<polygon fill="lightcoral" stroke="lightcoral" points="259.62,-642 162.62,-642 162.62,-565 259.62,-565 259.62,-642"/>
<image xlink:href="img/mob.png" width="97px" height="77px" preserveAspectRatio="xMinYMin meet" x="162.625" y="-642"/>
<text text-anchor="middle" x="211.12" y="-597.7" font-family="MS Gothic" font-size="14.00">Betty Leedes</text>
</g>
<!-- Betty Leedes&#45;&gt;Bartlet&#39;s Childers -->
<g id="edge10" class="edge">
<title>Betty Leedes&#45;&gt;Bartlet&#39;s Childers</title>
<path fill="none" stroke="black" d="M187.23,-564.61C181.99,-556.31 176.39,-547.41 170.95,-538.79"/>
<polygon fill="black" stroke="black" points="174.01,-537.09 165.72,-530.5 168.09,-540.82 174.01,-537.09"/>
</g>
<!-- Snake -->
<g id="node12" class="node">
<title>Snake</title>
<polygon fill="lightblue" stroke="lightblue" points="398.62,-642 321.62,-642 321.62,-565 398.62,-565 398.62,-642"/>
<image xlink:href="img/mob.png" width="77px" height="77px" preserveAspectRatio="xMinYMin meet" x="321.625" y="-642"/>
<text text-anchor="middle" x="360.12" y="-597.7" font-family="MS Gothic" font-size="14.00">Snake</text>
</g>
<!-- Snake&#45;&gt;Snake Mare -->
<g id="edge11" class="edge">
<title>Snake&#45;&gt;Snake Mare</title>
<path fill="none" stroke="black" d="M374.8,-564.61C377.88,-556.66 381.17,-548.18 384.37,-539.91"/>
<polygon fill="black" stroke="black" points="387.62,-541.22 387.97,-530.63 381.09,-538.69 387.62,-541.22"/>
</g>
<!-- Grey Wilkes -->
<g id="node13" class="node">
<title>Grey Wilkes</title>
<polygon fill="lightcoral" stroke="lightcoral" points="510.25,-642 420,-642 420,-565 510.25,-565 510.25,-642"/>
<image xlink:href="img/mob.png" width="90.25px" height="77px" preserveAspectRatio="xMinYMin meet" x="420" y="-642"/>
<text text-anchor="middle" x="465.12" y="-597.7" font-family="MS Gothic" font-size="14.00">Grey Wilkes</text>
</g>
<!-- Grey Wilkes&#45;&gt;Snake Mare -->
<g id="edge12" class="edge">
<title>Grey Wilkes&#45;&gt;Snake Mare</title>
<path fill="none" stroke="black" d="M443.96,-564.61C439.37,-556.39 434.46,-547.6 429.7,-539.07"/>
<polygon fill="black" stroke="black" points="432.86,-537.56 424.93,-530.54 426.75,-540.98 432.86,-537.56"/>
</g>
<!-- ゴドルフィンバルブ -->
<g id="node14" class="node">
<title>ゴドルフィンバルブ</title>
<polygon fill="lightblue" stroke="lightblue" points="531.25,-416 387,-416 387,-339 531.25,-339 531.25,-416"/>
<image xlink:href="img/godoruhuinbarubu.png" width="100px" height="77px" preserveAspectRatio="xMinYMin meet" x="409.125" y="-416"/>
<text text-anchor="middle" x="459.12" y="-371.7" font-family="MS Gothic" font-size="14.00">ゴドルフィンバルブ</text>
</g>
<!-- ゴドルフィンバルブ&#45;&gt;Regulus -->
<g id="edge13" class="edge">
<title>ゴドルフィンバルブ&#45;&gt;Regulus</title>
<path fill="none" stroke="black" d="M467.32,-338.61C469,-330.84 470.79,-322.56 472.54,-314.46"/>
<polygon fill="black" stroke="black" points="475.96,-315.21 474.65,-304.7 469.12,-313.73 475.96,-315.21"/>
</g>
<!-- Grey Robinson&#45;&gt;Regulus -->
<g id="edge14" class="edge">
<title>Grey Robinson&#45;&gt;Regulus</title>
<path fill="none" stroke="black" d="M560.85,-338.61C551.04,-329.39 540.46,-319.44 530.37,-309.94"/>
<polygon fill="black" stroke="black" points="532.81,-307.43 523.13,-303.13 528.01,-312.53 532.81,-307.43"/>
</g>
<!-- Bald Galloway -->
<g id="node16" class="node">
<title>Bald Galloway</title>
<polygon fill="lightblue" stroke="lightblue" points="653,-529 549.25,-529 549.25,-452 653,-452 653,-529"/>
<image xlink:href="img/mob.png" width="100px" height="77px" preserveAspectRatio="xMinYMin meet" x="551.125" y="-529"/>
<text text-anchor="middle" x="601.12" y="-484.7" font-family="MS Gothic" font-size="14.00">Bald Galloway</text>
</g>
<!-- Bald Galloway&#45;&gt;Grey Robinson -->
<g id="edge15" class="edge">
<title>Bald Galloway&#45;&gt;Grey Robinson</title>
<path fill="none" stroke="black" d="M601.12,-451.61C601.12,-443.84 601.12,-435.56 601.12,-427.46"/>
<polygon fill="black" stroke="black" points="604.63,-427.73 601.13,-417.73 597.63,-427.73 604.63,-427.73"/>
</g>
<!-- Lister Turk -->
<g id="node17" class="node">
<title>Lister Turk</title>
<polygon fill="lightblue" stroke="lightblue" points="293.25,-755 203,-755 203,-678 293.25,-678 293.25,-755"/>
<image xlink:href="img/mob.png" width="90.25px" height="77px" preserveAspectRatio="xMinYMin meet" x="203" y="-755"/>
<text text-anchor="middle" x="248.12" y="-710.7" font-family="MS Gothic" font-size="14.00">Lister Turk</text>
</g>
<!-- Lister Turk&#45;&gt;Snake -->
<g id="edge17" class="edge">
<title>Lister Turk&#45;&gt;Snake</title>
<path fill="none" stroke="black" d="M286.36,-677.61C295.28,-668.77 304.87,-659.26 314.09,-650.13"/>
<polygon fill="black" stroke="black" points="316.35,-652.81 320.99,-643.28 311.42,-647.84 316.35,-652.81"/>
</g>
<!-- Hautboy Mare -->
<g id="node18" class="node">
<title>Hautboy Mare</title>
<polygon fill="lightcoral" stroke="lightcoral" points="408.62,-755 311.62,-755 311.62,-678 408.62,-678 408.62,-755"/>
<image xlink:href="img/mob.png" width="97px" height="77px" preserveAspectRatio="xMinYMin meet" x="311.625" y="-755"/>
<text text-anchor="middle" x="360.12" y="-710.7" font-family="MS Gothic" font-size="14.00">Hautboy Mare</text>
</g>
<!-- Hautboy Mare&#45;&gt;Snake -->
<g id="edge18" class="edge">
<title>Hautboy Mare&#45;&gt;Snake</title>
<path fill="none" stroke="black" d="M360.12,-677.61C360.12,-669.84 360.12,-661.56 360.12,-653.46"/>
<polygon fill="black" stroke="black" points="363.63,-653.73 360.13,-643.73 356.63,-653.73 363.63,-653.73"/>
</g>
<!-- Hautboy -->
<g id="node19" class="node">
<title>Hautboy</title>
<polygon fill="lightblue" stroke="lightblue" points="503.62,-755 426.62,-755 426.62,-678 503.62,-678 503.62,-755"/>
<image xlink:href="img/mob.png" width="77px" height="77px" preserveAspectRatio="xMinYMin meet" x="426.625" y="-755"/>
<text text-anchor="middle" x="465.12" y="-710.7" font-family="MS Gothic" font-size="14.00">Hautboy</text>
</g>
<!-- Hautboy&#45;&gt;Grey Wilkes -->
<g id="edge19" class="edge">
<title>Hautboy&#45;&gt;Grey Wilkes</title>
<path fill="none" stroke="black" d="M465.12,-677.61C465.12,-669.84 465.12,-661.56 465.12,-653.46"/>
<polygon fill="black" stroke="black" points="468.63,-653.73 465.13,-643.73 461.63,-653.73 468.63,-653.73"/>
</g>
<!-- Miss Darcys Pet Mare -->
<g id="node20" class="node">
<title>Miss Darcys Pet Mare</title>
<polygon fill="lightcoral" stroke="lightcoral" points="672.62,-755 521.62,-755 521.62,-678 672.62,-678 672.62,-755"/>
<image xlink:href="img/mob.png" width="100px" height="77px" preserveAspectRatio="xMinYMin meet" x="547.125" y="-755"/>
<text text-anchor="middle" x="597.12" y="-710.7" font-family="MS Gothic" font-size="14.00">Miss Darcys Pet Mare</text>
</g>
<!-- Miss Darcys Pet Mare&#45;&gt;Grey Wilkes -->
<g id="edge20" class="edge">
<title>Miss Darcys Pet Mare&#45;&gt;Grey Wilkes</title>
<path fill="none" stroke="black" d="M552.07,-677.61C541.34,-668.59 529.79,-658.88 518.73,-649.57"/>
<polygon fill="black" stroke="black" points="521.04,-646.95 511.14,-643.19 516.54,-652.31 521.04,-646.95"/>
</g>
</g>
</svg>
