<?xml version="1.0" encoding="UTF-8" standalone="no"?>
<!DOCTYPE svg PUBLIC "-//W3C//DTD SVG 1.1//EN"
 "http://www.w3.org/Graphics/SVG/1.1/DTD/svg11.dtd">
<!-- Generated by graphviz version 12.1.2 (20240928.0832)
 -->
<!-- Pages: 1 -->
<svg width="728pt" height="537pt"
 viewBox="0.00 0.00 728.38 537.00" xmlns="http://www.w3.org/2000/svg" xmlns:xlink="http://www.w3.org/1999/xlink">
<g id="graph0" class="graph" transform="scale(1 1) rotate(0) translate(4 533)">
<polygon fill="white" stroke="none" points="-4,4 -4,-533 724.38,-533 724.38,4 -4,4"/>
<!-- Eclipse -->
<g id="node1" class="node">
<title>Eclipse</title>
<polygon fill="none" stroke="black" points="520.62,-77 443.62,-77 443.62,0 520.62,0 520.62,-77"/>
<image xlink:href="img/mob.png" width="77px" height="77px" preserveAspectRatio="xMinYMin meet" x="443.625" y="-77"/>
<text text-anchor="middle" x="482.12" y="-33.45" font-family="Times New Roman,serif" font-size="14.00">Eclipse</text>
</g>
<!-- Marske -->
<g id="node2" class="node">
<title>Marske</title>
<polygon fill="lightblue" stroke="lightblue" points="449.62,-190 372.62,-190 372.62,-113 449.62,-113 449.62,-190"/>
<image xlink:href="img/mob.png" width="77px" height="77px" preserveAspectRatio="xMinYMin meet" x="372.625" y="-190"/>
<text text-anchor="middle" x="411.12" y="-145.7" font-family="MS Gothic" font-size="14.00">Marske</text>
</g>
<!-- Marske&#45;&gt;Eclipse -->
<g id="edge1" class="edge">
<title>Marske&#45;&gt;Eclipse</title>
<path fill="none" stroke="black" d="M435.36,-112.61C440.67,-104.31 446.36,-95.41 451.88,-86.79"/>
<polygon fill="black" stroke="black" points="454.74,-88.8 457.18,-78.49 448.85,-85.03 454.74,-88.8"/>
</g>
<!-- Spilletta -->
<g id="node3" class="node">
<title>Spilletta</title>
<polygon fill="lightcoral" stroke="lightcoral" points="591.62,-190 514.62,-190 514.62,-113 591.62,-113 591.62,-190"/>
<image xlink:href="img/mob.png" width="77px" height="77px" preserveAspectRatio="xMinYMin meet" x="514.625" y="-190"/>
<text text-anchor="middle" x="553.12" y="-145.7" font-family="MS Gothic" font-size="14.00">Spilletta</text>
</g>
<!-- Spilletta&#45;&gt;Eclipse -->
<g id="edge2" class="edge">
<title>Spilletta&#45;&gt;Eclipse</title>
<path fill="none" stroke="black" d="M528.89,-112.61C523.58,-104.31 517.89,-95.41 512.37,-86.79"/>
<polygon fill="black" stroke="black" points="515.4,-85.03 507.07,-78.49 509.51,-88.8 515.4,-85.03"/>
</g>
<!-- Squirt -->
<g id="node4" class="node">
<title>Squirt</title>
<polygon fill="lightblue" stroke="lightblue" points="307.62,-303 230.62,-303 230.62,-226 307.62,-226 307.62,-303"/>
<image xlink:href="img/mob.png" width="77px" height="77px" preserveAspectRatio="xMinYMin meet" x="230.625" y="-303"/>
<text text-anchor="middle" x="269.12" y="-258.7" font-family="MS Gothic" font-size="14.00">Squirt</text>
</g>
<!-- Squirt&#45;&gt;Marske -->
<g id="edge3" class="edge">
<title>Squirt&#45;&gt;Marske</title>
<path fill="none" stroke="black" d="M308.07,-232.35C310.79,-230.2 313.5,-228.06 316.12,-226 331.48,-213.94 348.31,-200.87 363.48,-189.14"/>
<polygon fill="black" stroke="black" points="365.22,-192.22 371,-183.33 360.95,-186.67 365.22,-192.22"/>
</g>
<!-- Hutton&#39;s Blacklegs Mare -->
<g id="node5" class="node">
<title>Hutton&#39;s Blacklegs Mare</title>
<polygon fill="lightcoral" stroke="lightcoral" points="496.75,-303 325.5,-303 325.5,-226 496.75,-226 496.75,-303"/>
<image xlink:href="img/mob.png" width="100px" height="77px" preserveAspectRatio="xMinYMin meet" x="361.125" y="-303"/>
<text text-anchor="middle" x="411.12" y="-258.7" font-family="MS Gothic" font-size="14.00">Hutton&#39;s Blacklegs Mare</text>
</g>
<!-- Hutton&#39;s Blacklegs Mare&#45;&gt;Marske -->
<g id="edge4" class="edge">
<title>Hutton&#39;s Blacklegs Mare&#45;&gt;Marske</title>
<path fill="none" stroke="black" d="M411.12,-225.61C411.12,-217.84 411.12,-209.56 411.12,-201.46"/>
<polygon fill="black" stroke="black" points="414.63,-201.73 411.13,-191.73 407.63,-201.73 414.63,-201.73"/>
</g>
<!-- Regulus -->
<g id="node6" class="node">
<title>Regulus</title>
<polygon fill="lightblue" stroke="lightblue" points="591.62,-303 514.62,-303 514.62,-226 591.62,-226 591.62,-303"/>
<image xlink:href="img/mob.png" width="77px" height="77px" preserveAspectRatio="xMinYMin meet" x="514.625" y="-303"/>
<text text-anchor="middle" x="553.12" y="-258.7" font-family="MS Gothic" font-size="14.00">Regulus</text>
</g>
<!-- Regulus&#45;&gt;Spilletta -->
<g id="edge5" class="edge">
<title>Regulus&#45;&gt;Spilletta</title>
<path fill="none" stroke="black" d="M553.12,-225.61C553.12,-217.84 553.12,-209.56 553.12,-201.46"/>
<polygon fill="black" stroke="black" points="556.63,-201.73 553.13,-191.73 549.63,-201.73 556.63,-201.73"/>
</g>
<!-- Mother Western -->
<g id="node7" class="node">
<title>Mother Western</title>
<polygon fill="lightcoral" stroke="lightcoral" points="720.38,-303 609.88,-303 609.88,-226 720.38,-226 720.38,-303"/>
<image xlink:href="img/mob.png" width="100px" height="77px" preserveAspectRatio="xMinYMin meet" x="615.125" y="-303"/>
<text text-anchor="middle" x="665.12" y="-258.7" font-family="MS Gothic" font-size="14.00">Mother Western</text>
</g>
<!-- Mother Western&#45;&gt;Spilletta -->
<g id="edge6" class="edge">
<title>Mother Western&#45;&gt;Spilletta</title>
<path fill="none" stroke="black" d="M626.89,-225.61C617.97,-216.77 608.38,-207.26 599.16,-198.13"/>
<polygon fill="black" stroke="black" points="601.83,-195.84 592.26,-191.28 596.9,-200.81 601.83,-195.84"/>
</g>
<!-- Bartlet&#39;s Childers -->
<g id="node8" class="node">
<title>Bartlet&#39;s Childers</title>
<polygon fill="lightblue" stroke="lightblue" points="273.88,-416 136.38,-416 136.38,-339 273.88,-339 273.88,-416"/>
<image xlink:href="img/mob.png" width="100px" height="77px" preserveAspectRatio="xMinYMin meet" x="155.125" y="-416"/>
<text text-anchor="middle" x="205.12" y="-371.7" font-family="MS Gothic" font-size="14.00">Bartlet&#39;s Childers</text>
</g>
<!-- Bartlet&#39;s Childers&#45;&gt;Squirt -->
<g id="edge7" class="edge">
<title>Bartlet&#39;s Childers&#45;&gt;Squirt</title>
<path fill="none" stroke="black" d="M226.97,-338.61C231.71,-330.39 236.78,-321.6 241.7,-313.07"/>
<polygon fill="black" stroke="black" points="244.66,-314.94 246.62,-304.53 238.59,-311.44 244.66,-314.94"/>
</g>
<!-- Snake Mare -->
<g id="node9" class="node">
<title>Snake Mare</title>
<polygon fill="lightcoral" stroke="lightcoral" points="375.88,-416 292.38,-416 292.38,-339 375.88,-339 375.88,-416"/>
<image xlink:href="img/mob.png" width="83.5px" height="77px" preserveAspectRatio="xMinYMin meet" x="292.375" y="-416"/>
<text text-anchor="middle" x="334.12" y="-371.7" font-family="MS Gothic" font-size="14.00">Snake Mare</text>
</g>
<!-- Snake Mare&#45;&gt;Squirt -->
<g id="edge8" class="edge">
<title>Snake Mare&#45;&gt;Squirt</title>
<path fill="none" stroke="black" d="M311.94,-338.61C307.13,-330.39 301.98,-321.6 296.98,-313.07"/>
<polygon fill="black" stroke="black" points="300.05,-311.39 291.98,-304.52 294.01,-314.92 300.05,-311.39"/>
</g>
<!-- ダーレーアラビアン -->
<g id="node10" class="node">
<title>ダーレーアラビアン</title>
<polygon fill="lightblue" stroke="lightblue" points="144.25,-529 0,-529 0,-452 144.25,-452 144.25,-529"/>
<image xlink:href="img/darearabian.png" width="100px" height="77px" preserveAspectRatio="xMinYMin meet" x="22.125" y="-529"/>
<text text-anchor="middle" x="72.12" y="-484.7" font-family="MS Gothic" font-size="14.00">ダーレーアラビアン</text>
</g>
<!-- ダーレーアラビアン&#45;&gt;Bartlet&#39;s Childers -->
<g id="edge9" class="edge">
<title>ダーレーアラビアン&#45;&gt;Bartlet&#39;s Childers</title>
<path fill="none" stroke="black" d="M117.52,-451.61C128.33,-442.59 139.97,-432.88 151.12,-423.57"/>
<polygon fill="black" stroke="black" points="153.33,-426.28 158.77,-417.19 148.85,-420.91 153.33,-426.28"/>
</g>
<!-- Betty Leedes -->
<g id="node11" class="node">
<title>Betty Leedes</title>
<polygon fill="lightcoral" stroke="lightcoral" points="259.62,-529 162.62,-529 162.62,-452 259.62,-452 259.62,-529"/>
<image xlink:href="img/mob.png" width="97px" height="77px" preserveAspectRatio="xMinYMin meet" x="162.625" y="-529"/>
<text text-anchor="middle" x="211.12" y="-484.7" font-family="MS Gothic" font-size="14.00">Betty Leedes</text>
</g>
<!-- Betty Leedes&#45;&gt;Bartlet&#39;s Childers -->
<g id="edge10" class="edge">
<title>Betty Leedes&#45;&gt;Bartlet&#39;s Childers</title>
<path fill="none" stroke="black" d="M209.08,-451.61C208.66,-443.84 208.21,-435.56 207.77,-427.46"/>
<polygon fill="black" stroke="black" points="211.28,-427.53 207.25,-417.73 204.29,-427.9 211.28,-427.53"/>
</g>
<!-- Snake -->
<g id="node12" class="node">
<title>Snake</title>
<polygon fill="lightblue" stroke="lightblue" points="366.62,-529 289.62,-529 289.62,-452 366.62,-452 366.62,-529"/>
<image xlink:href="img/mob.png" width="77px" height="77px" preserveAspectRatio="xMinYMin meet" x="289.625" y="-529"/>
<text text-anchor="middle" x="328.12" y="-484.7" font-family="MS Gothic" font-size="14.00">Snake</text>
</g>
<!-- Snake&#45;&gt;Snake Mare -->
<g id="edge11" class="edge">
<title>Snake&#45;&gt;Snake Mare</title>
<path fill="none" stroke="black" d="M330.17,-451.61C330.59,-443.84 331.04,-435.56 331.48,-427.46"/>
<polygon fill="black" stroke="black" points="334.96,-427.9 332,-417.73 327.97,-427.53 334.96,-427.9"/>
</g>
<!-- Grey Wilkes -->
<g id="node13" class="node">
<title>Grey Wilkes</title>
<polygon fill="lightcoral" stroke="lightcoral" points="475.25,-529 385,-529 385,-452 475.25,-452 475.25,-529"/>
<image xlink:href="img/mob.png" width="90.25px" height="77px" preserveAspectRatio="xMinYMin meet" x="385" y="-529"/>
<text text-anchor="middle" x="430.12" y="-484.7" font-family="MS Gothic" font-size="14.00">Grey Wilkes</text>
</g>
<!-- Grey Wilkes&#45;&gt;Snake Mare -->
<g id="edge12" class="edge">
<title>Grey Wilkes&#45;&gt;Snake Mare</title>
<path fill="none" stroke="black" d="M397.36,-451.61C389.86,-442.95 381.82,-433.65 374.07,-424.68"/>
<polygon fill="black" stroke="black" points="376.93,-422.64 367.74,-417.36 371.63,-427.22 376.93,-422.64"/>
</g>
</g>
</svg>
