<?xml version="1.0" encoding="UTF-8" standalone="no"?>
<!DOCTYPE svg PUBLIC "-//W3C//DTD SVG 1.1//EN"
 "http://www.w3.org/Graphics/SVG/1.1/DTD/svg11.dtd">
<!-- Generated by graphviz version 12.1.2 (20240928.0832)
 -->
<!-- Pages: 1 -->
<svg width="1314pt" height="1667pt"
 viewBox="0.00 0.00 1314.25 1667.00" xmlns="http://www.w3.org/2000/svg" xmlns:xlink="http://www.w3.org/1999/xlink">
<g id="graph0" class="graph" transform="scale(1 1) rotate(0) translate(4 1663)">
<polygon fill="white" stroke="none" points="-4,4 -4,-1663 1310.25,-1663 1310.25,4 -4,4"/>
<!-- Fair Play -->
<g id="node1" class="node">
<title>Fair Play</title>
<polygon fill="none" stroke="black" points="1148.62,-77 1071.62,-77 1071.62,0 1148.62,0 1148.62,-77"/>
<image xlink:href="img/mob.png" width="77px" height="77px" preserveAspectRatio="xMinYMin meet" x="1071.62" y="-77"/>
<text text-anchor="middle" x="1110.12" y="-33.45" font-family="Times New Roman,serif" font-size="14.00">Fair Play</text>
</g>
<!-- Hastings -->
<g id="node2" class="node">
<title>Hastings</title>
<polygon fill="lightblue" stroke="lightblue" points="1099.62,-190 1022.62,-190 1022.62,-113 1099.62,-113 1099.62,-190"/>
<image xlink:href="img/mob.png" width="77px" height="77px" preserveAspectRatio="xMinYMin meet" x="1022.62" y="-190"/>
<text text-anchor="middle" x="1061.12" y="-145.7" font-family="MS Gothic" font-size="14.00">Hastings</text>
</g>
<!-- Hastings&#45;&gt;Fair Play -->
<g id="edge1" class="edge">
<title>Hastings&#45;&gt;Fair Play</title>
<path fill="none" stroke="black" d="M1077.85,-112.61C1081.4,-104.57 1085.19,-95.99 1088.88,-87.63"/>
<polygon fill="black" stroke="black" points="1092.03,-89.17 1092.86,-78.6 1085.62,-86.34 1092.03,-89.17"/>
</g>
<!-- Fairy Gold -->
<g id="node3" class="node">
<title>Fairy Gold</title>
<polygon fill="lightcoral" stroke="lightcoral" points="1200.88,-190 1117.38,-190 1117.38,-113 1200.88,-113 1200.88,-190"/>
<image xlink:href="img/mob.png" width="83.5px" height="77px" preserveAspectRatio="xMinYMin meet" x="1117.38" y="-190"/>
<text text-anchor="middle" x="1159.12" y="-145.7" font-family="MS Gothic" font-size="14.00">Fairy Gold</text>
</g>
<!-- Fairy Gold&#45;&gt;Fair Play -->
<g id="edge2" class="edge">
<title>Fairy Gold&#45;&gt;Fair Play</title>
<path fill="none" stroke="black" d="M1142.4,-112.61C1138.85,-104.57 1135.06,-95.99 1131.37,-87.63"/>
<polygon fill="black" stroke="black" points="1134.63,-86.34 1127.39,-78.6 1128.22,-89.17 1134.63,-86.34"/>
</g>
<!-- Spendthrift -->
<g id="node4" class="node">
<title>Spendthrift</title>
<polygon fill="lightblue" stroke="lightblue" points="1001.25,-303 911,-303 911,-226 1001.25,-226 1001.25,-303"/>
<image xlink:href="img/mob.png" width="90.25px" height="77px" preserveAspectRatio="xMinYMin meet" x="911" y="-303"/>
<text text-anchor="middle" x="956.12" y="-258.7" font-family="MS Gothic" font-size="14.00">Spendthrift</text>
</g>
<!-- Spendthrift&#45;&gt;Hastings -->
<g id="edge3" class="edge">
<title>Spendthrift&#45;&gt;Hastings</title>
<path fill="none" stroke="black" d="M991.97,-225.61C1000.24,-216.86 1009.14,-207.46 1017.7,-198.4"/>
<polygon fill="black" stroke="black" points="1020.08,-200.99 1024.41,-191.32 1014.99,-196.18 1020.08,-200.99"/>
</g>
<!-- Cinderella -->
<g id="node5" class="node">
<title>Cinderella</title>
<polygon fill="lightcoral" stroke="lightcoral" points="1102.88,-303 1019.38,-303 1019.38,-226 1102.88,-226 1102.88,-303"/>
<image xlink:href="img/mob.png" width="83.5px" height="77px" preserveAspectRatio="xMinYMin meet" x="1019.38" y="-303"/>
<text text-anchor="middle" x="1061.12" y="-258.7" font-family="MS Gothic" font-size="14.00">Cinderella</text>
</g>
<!-- Cinderella&#45;&gt;Hastings -->
<g id="edge4" class="edge">
<title>Cinderella&#45;&gt;Hastings</title>
<path fill="none" stroke="black" d="M1061.12,-225.61C1061.12,-217.84 1061.12,-209.56 1061.12,-201.46"/>
<polygon fill="black" stroke="black" points="1064.63,-201.73 1061.13,-191.73 1057.63,-201.73 1064.63,-201.73"/>
</g>
<!-- Bend Or -->
<g id="node6" class="node">
<title>Bend Or</title>
<polygon fill="lightblue" stroke="lightblue" points="1197.62,-303 1120.62,-303 1120.62,-226 1197.62,-226 1197.62,-303"/>
<image xlink:href="img/mob.png" width="77px" height="77px" preserveAspectRatio="xMinYMin meet" x="1120.62" y="-303"/>
<text text-anchor="middle" x="1159.12" y="-258.7" font-family="MS Gothic" font-size="14.00">Bend Or</text>
</g>
<!-- Bend Or&#45;&gt;Fairy Gold -->
<g id="edge5" class="edge">
<title>Bend Or&#45;&gt;Fairy Gold</title>
<path fill="none" stroke="black" d="M1159.12,-225.61C1159.12,-217.84 1159.12,-209.56 1159.12,-201.46"/>
<polygon fill="black" stroke="black" points="1162.63,-201.73 1159.13,-191.73 1155.63,-201.73 1162.63,-201.73"/>
</g>
<!-- Dame Masham -->
<g id="node7" class="node">
<title>Dame Masham</title>
<polygon fill="lightcoral" stroke="lightcoral" points="1306.25,-303 1216,-303 1216,-226 1306.25,-226 1306.25,-303"/>
<image xlink:href="img/mob.png" width="90.25px" height="77px" preserveAspectRatio="xMinYMin meet" x="1216" y="-303"/>
<text text-anchor="middle" x="1261.12" y="-258.7" font-family="MS Gothic" font-size="14.00">Dame Masham</text>
</g>
<!-- Dame Masham&#45;&gt;Fairy Gold -->
<g id="edge6" class="edge">
<title>Dame Masham&#45;&gt;Fairy Gold</title>
<path fill="none" stroke="black" d="M1226.31,-225.61C1218.35,-216.95 1209.8,-207.65 1201.56,-198.68"/>
<polygon fill="black" stroke="black" points="1204.15,-196.33 1194.81,-191.33 1199,-201.06 1204.15,-196.33"/>
</g>
<!-- Australian -->
<g id="node8" class="node">
<title>Australian</title>
<polygon fill="lightblue" stroke="lightblue" points="948.88,-416 865.38,-416 865.38,-339 948.88,-339 948.88,-416"/>
<image xlink:href="img/mob.png" width="83.5px" height="77px" preserveAspectRatio="xMinYMin meet" x="865.375" y="-416"/>
<text text-anchor="middle" x="907.12" y="-371.7" font-family="MS Gothic" font-size="14.00">Australian</text>
</g>
<!-- Australian&#45;&gt;Spendthrift -->
<g id="edge7" class="edge">
<title>Australian&#45;&gt;Spendthrift</title>
<path fill="none" stroke="black" d="M923.85,-338.61C927.4,-330.57 931.19,-321.99 934.88,-313.63"/>
<polygon fill="black" stroke="black" points="938.03,-315.17 938.86,-304.6 931.62,-312.34 938.03,-315.17"/>
</g>
<!-- Aerolite -->
<g id="node9" class="node">
<title>Aerolite</title>
<polygon fill="lightcoral" stroke="lightcoral" points="1043.62,-416 966.62,-416 966.62,-339 1043.62,-339 1043.62,-416"/>
<image xlink:href="img/mob.png" width="77px" height="77px" preserveAspectRatio="xMinYMin meet" x="966.625" y="-416"/>
<text text-anchor="middle" x="1005.12" y="-371.7" font-family="MS Gothic" font-size="14.00">Aerolite</text>
</g>
<!-- Aerolite&#45;&gt;Spendthrift -->
<g id="edge8" class="edge">
<title>Aerolite&#45;&gt;Spendthrift</title>
<path fill="none" stroke="black" d="M988.4,-338.61C984.85,-330.57 981.06,-321.99 977.37,-313.63"/>
<polygon fill="black" stroke="black" points="980.63,-312.34 973.39,-304.6 974.22,-315.17 980.63,-312.34"/>
</g>
<!-- West Australian -->
<g id="node10" class="node">
<title>West Australian</title>
<polygon fill="lightblue" stroke="lightblue" points="851.75,-529 734.5,-529 734.5,-452 851.75,-452 851.75,-529"/>
<image xlink:href="img/mob.png" width="100px" height="77px" preserveAspectRatio="xMinYMin meet" x="743.125" y="-529"/>
<text text-anchor="middle" x="793.12" y="-484.7" font-family="MS Gothic" font-size="14.00">West Australian</text>
</g>
<!-- West Australian&#45;&gt;Australian -->
<g id="edge9" class="edge">
<title>West Australian&#45;&gt;Australian</title>
<path fill="none" stroke="black" d="M832.04,-451.61C841.12,-442.77 850.88,-433.26 860.26,-424.13"/>
<polygon fill="black" stroke="black" points="862.58,-426.76 867.3,-417.27 857.7,-421.74 862.58,-426.76"/>
</g>
<!-- Emilia -->
<g id="node11" class="node">
<title>Emilia</title>
<polygon fill="lightcoral" stroke="lightcoral" points="946.62,-529 869.62,-529 869.62,-452 946.62,-452 946.62,-529"/>
<image xlink:href="img/mob.png" width="77px" height="77px" preserveAspectRatio="xMinYMin meet" x="869.625" y="-529"/>
<text text-anchor="middle" x="908.12" y="-484.7" font-family="MS Gothic" font-size="14.00">Emilia</text>
</g>
<!-- Emilia&#45;&gt;Australian -->
<g id="edge10" class="edge">
<title>Emilia&#45;&gt;Australian</title>
<path fill="none" stroke="black" d="M907.78,-451.61C907.71,-443.84 907.64,-435.56 907.57,-427.46"/>
<polygon fill="black" stroke="black" points="911.07,-427.7 907.48,-417.73 904.07,-427.76 911.07,-427.7"/>
</g>
<!-- Lexington -->
<g id="node12" class="node">
<title>Lexington</title>
<polygon fill="lightblue" stroke="lightblue" points="1042.62,-529 965.62,-529 965.62,-452 1042.62,-452 1042.62,-529"/>
<image xlink:href="img/mob.png" width="77px" height="77px" preserveAspectRatio="xMinYMin meet" x="965.625" y="-529"/>
<text text-anchor="middle" x="1004.12" y="-484.7" font-family="MS Gothic" font-size="14.00">Lexington</text>
</g>
<!-- Lexington&#45;&gt;Aerolite -->
<g id="edge11" class="edge">
<title>Lexington&#45;&gt;Aerolite</title>
<path fill="none" stroke="black" d="M1004.47,-451.61C1004.54,-443.84 1004.61,-435.56 1004.68,-427.46"/>
<polygon fill="black" stroke="black" points="1008.18,-427.76 1004.77,-417.73 1001.18,-427.7 1008.18,-427.76"/>
</g>
<!-- Florine -->
<g id="node13" class="node">
<title>Florine</title>
<polygon fill="lightcoral" stroke="lightcoral" points="1137.62,-529 1060.62,-529 1060.62,-452 1137.62,-452 1137.62,-529"/>
<image xlink:href="img/mob.png" width="77px" height="77px" preserveAspectRatio="xMinYMin meet" x="1060.62" y="-529"/>
<text text-anchor="middle" x="1099.12" y="-484.7" font-family="MS Gothic" font-size="14.00">Florine</text>
</g>
<!-- Florine&#45;&gt;Aerolite -->
<g id="edge12" class="edge">
<title>Florine&#45;&gt;Aerolite</title>
<path fill="none" stroke="black" d="M1067.04,-451.61C1059.78,-443.04 1051.99,-433.84 1044.47,-424.96"/>
<polygon fill="black" stroke="black" points="1047.18,-422.74 1038.05,-417.37 1041.84,-427.27 1047.18,-422.74"/>
</g>
<!-- Melbourne -->
<g id="node14" class="node">
<title>Melbourne</title>
<polygon fill="lightblue" stroke="lightblue" points="774.62,-642 697.62,-642 697.62,-565 774.62,-565 774.62,-642"/>
<image xlink:href="img/mob.png" width="77px" height="77px" preserveAspectRatio="xMinYMin meet" x="697.625" y="-642"/>
<text text-anchor="middle" x="736.12" y="-597.7" font-family="MS Gothic" font-size="14.00">Melbourne</text>
</g>
<!-- Melbourne&#45;&gt;West Australian -->
<g id="edge13" class="edge">
<title>Melbourne&#45;&gt;West Australian</title>
<path fill="none" stroke="black" d="M755.58,-564.61C759.75,-556.48 764.22,-547.8 768.55,-539.35"/>
<polygon fill="black" stroke="black" points="771.61,-541.06 773.06,-530.57 765.38,-537.86 771.61,-541.06"/>
</g>
<!-- Mowerina -->
<g id="node15" class="node">
<title>Mowerina</title>
<polygon fill="lightcoral" stroke="lightcoral" points="889.62,-642 812.62,-642 812.62,-565 889.62,-565 889.62,-642"/>
<image xlink:href="img/mob.png" width="77px" height="77px" preserveAspectRatio="xMinYMin meet" x="812.625" y="-642"/>
<text text-anchor="middle" x="851.12" y="-597.7" font-family="MS Gothic" font-size="14.00">Mowerina</text>
</g>
<!-- Mowerina&#45;&gt;West Australian -->
<g id="edge14" class="edge">
<title>Mowerina&#45;&gt;West Australian</title>
<path fill="none" stroke="black" d="M831.33,-564.61C827.08,-556.48 822.54,-547.8 818.13,-539.35"/>
<polygon fill="black" stroke="black" points="821.27,-537.8 813.53,-530.56 815.06,-541.04 821.27,-537.8"/>
</g>
<!-- Humphrey Clinker -->
<g id="node16" class="node">
<title>Humphrey Clinker</title>
<polygon fill="lightblue" stroke="lightblue" points="663.12,-755 539.12,-755 539.12,-678 663.12,-678 663.12,-755"/>
<image xlink:href="img/mob.png" width="100px" height="77px" preserveAspectRatio="xMinYMin meet" x="551.125" y="-755"/>
<text text-anchor="middle" x="601.12" y="-710.7" font-family="MS Gothic" font-size="14.00">Humphrey Clinker</text>
</g>
<!-- Humphrey Clinker&#45;&gt;Melbourne -->
<g id="edge15" class="edge">
<title>Humphrey Clinker&#45;&gt;Melbourne</title>
<path fill="none" stroke="black" d="M647.21,-677.61C660.62,-666.59 675.28,-654.53 688.77,-643.44"/>
<polygon fill="black" stroke="black" points="690.76,-646.33 696.27,-637.27 686.32,-640.92 690.76,-646.33"/>
</g>
<!-- Cervantes Mare -->
<g id="node17" class="node">
<title>Cervantes Mare</title>
<polygon fill="lightcoral" stroke="lightcoral" points="791.38,-755 680.88,-755 680.88,-678 791.38,-678 791.38,-755"/>
<image xlink:href="img/mob.png" width="100px" height="77px" preserveAspectRatio="xMinYMin meet" x="686.125" y="-755"/>
<text text-anchor="middle" x="736.12" y="-710.7" font-family="MS Gothic" font-size="14.00">Cervantes Mare</text>
</g>
<!-- Cervantes Mare&#45;&gt;Melbourne -->
<g id="edge16" class="edge">
<title>Cervantes Mare&#45;&gt;Melbourne</title>
<path fill="none" stroke="black" d="M736.12,-677.61C736.12,-669.84 736.12,-661.56 736.12,-653.46"/>
<polygon fill="black" stroke="black" points="739.63,-653.73 736.13,-643.73 732.63,-653.73 739.63,-653.73"/>
</g>
<!-- Touchstone -->
<g id="node18" class="node">
<title>Touchstone</title>
<polygon fill="lightblue" stroke="lightblue" points="892.88,-755 809.38,-755 809.38,-678 892.88,-678 892.88,-755"/>
<image xlink:href="img/mob.png" width="83.5px" height="77px" preserveAspectRatio="xMinYMin meet" x="809.375" y="-755"/>
<text text-anchor="middle" x="851.12" y="-710.7" font-family="MS Gothic" font-size="14.00">Touchstone</text>
</g>
<!-- Touchstone&#45;&gt;Mowerina -->
<g id="edge17" class="edge">
<title>Touchstone&#45;&gt;Mowerina</title>
<path fill="none" stroke="black" d="M851.12,-677.61C851.12,-669.84 851.12,-661.56 851.12,-653.46"/>
<polygon fill="black" stroke="black" points="854.63,-653.73 851.13,-643.73 847.63,-653.73 854.63,-653.73"/>
</g>
<!-- Emma -->
<g id="node19" class="node">
<title>Emma</title>
<polygon fill="lightcoral" stroke="lightcoral" points="987.62,-755 910.62,-755 910.62,-678 987.62,-678 987.62,-755"/>
<image xlink:href="img/mob.png" width="77px" height="77px" preserveAspectRatio="xMinYMin meet" x="910.625" y="-755"/>
<text text-anchor="middle" x="949.12" y="-710.7" font-family="MS Gothic" font-size="14.00">Emma</text>
</g>
<!-- Emma&#45;&gt;Mowerina -->
<g id="edge18" class="edge">
<title>Emma&#45;&gt;Mowerina</title>
<path fill="none" stroke="black" d="M915.67,-677.61C908.03,-668.95 899.81,-659.65 891.9,-650.68"/>
<polygon fill="black" stroke="black" points="894.67,-648.53 885.43,-643.35 889.42,-653.17 894.67,-648.53"/>
</g>
<!-- Comus -->
<g id="node20" class="node">
<title>Comus</title>
<polygon fill="lightblue" stroke="lightblue" points="585.62,-868 508.62,-868 508.62,-791 585.62,-791 585.62,-868"/>
<image xlink:href="img/mob.png" width="77px" height="77px" preserveAspectRatio="xMinYMin meet" x="508.625" y="-868"/>
<text text-anchor="middle" x="547.12" y="-823.7" font-family="MS Gothic" font-size="14.00">Comus</text>
</g>
<!-- Comus&#45;&gt;Humphrey Clinker -->
<g id="edge19" class="edge">
<title>Comus&#45;&gt;Humphrey Clinker</title>
<path fill="none" stroke="black" d="M565.56,-790.61C569.51,-782.48 573.74,-773.8 577.85,-765.35"/>
<polygon fill="black" stroke="black" points="580.89,-767.1 582.11,-756.58 574.59,-764.04 580.89,-767.1"/>
</g>
<!-- Clinkerina -->
<g id="node21" class="node">
<title>Clinkerina</title>
<polygon fill="lightcoral" stroke="lightcoral" points="696.88,-868 613.38,-868 613.38,-791 696.88,-791 696.88,-868"/>
<image xlink:href="img/mob.png" width="83.5px" height="77px" preserveAspectRatio="xMinYMin meet" x="613.375" y="-868"/>
<text text-anchor="middle" x="655.12" y="-823.7" font-family="MS Gothic" font-size="14.00">Clinkerina</text>
</g>
<!-- Clinkerina&#45;&gt;Humphrey Clinker -->
<g id="edge20" class="edge">
<title>Clinkerina&#45;&gt;Humphrey Clinker</title>
<path fill="none" stroke="black" d="M636.69,-790.61C632.74,-782.48 628.51,-773.8 624.4,-765.35"/>
<polygon fill="black" stroke="black" points="627.66,-764.04 620.14,-756.58 621.36,-767.1 627.66,-764.04"/>
</g>
<!-- Sorcerer -->
<g id="node22" class="node">
<title>Sorcerer</title>
<polygon fill="lightblue" stroke="lightblue" points="477.62,-981 400.62,-981 400.62,-904 477.62,-904 477.62,-981"/>
<image xlink:href="img/mob.png" width="77px" height="77px" preserveAspectRatio="xMinYMin meet" x="400.625" y="-981"/>
<text text-anchor="middle" x="439.12" y="-936.7" font-family="MS Gothic" font-size="14.00">Sorcerer</text>
</g>
<!-- Sorcerer&#45;&gt;Comus -->
<g id="edge21" class="edge">
<title>Sorcerer&#45;&gt;Comus</title>
<path fill="none" stroke="black" d="M475.99,-903.61C484.51,-894.86 493.65,-885.46 502.46,-876.4"/>
<polygon fill="black" stroke="black" points="504.91,-878.91 509.37,-869.3 499.89,-874.03 504.91,-878.91"/>
</g>
<!-- Houghton Lass -->
<g id="node23" class="node">
<title>Houghton Lass</title>
<polygon fill="lightcoral" stroke="lightcoral" points="599,-981 495.25,-981 495.25,-904 599,-904 599,-981"/>
<image xlink:href="img/mob.png" width="100px" height="77px" preserveAspectRatio="xMinYMin meet" x="497.125" y="-981"/>
<text text-anchor="middle" x="547.12" y="-936.7" font-family="MS Gothic" font-size="14.00">Houghton Lass</text>
</g>
<!-- Houghton Lass&#45;&gt;Comus -->
<g id="edge22" class="edge">
<title>Houghton Lass&#45;&gt;Comus</title>
<path fill="none" stroke="black" d="M547.12,-903.61C547.12,-895.84 547.12,-887.56 547.12,-879.46"/>
<polygon fill="black" stroke="black" points="550.63,-879.73 547.13,-869.73 543.63,-879.73 550.63,-879.73"/>
</g>
<!-- Clinker -->
<g id="node24" class="node">
<title>Clinker</title>
<polygon fill="lightblue" stroke="lightblue" points="693.62,-981 616.62,-981 616.62,-904 693.62,-904 693.62,-981"/>
<image xlink:href="img/mob.png" width="77px" height="77px" preserveAspectRatio="xMinYMin meet" x="616.625" y="-981"/>
<text text-anchor="middle" x="655.12" y="-936.7" font-family="MS Gothic" font-size="14.00">Clinker</text>
</g>
<!-- Clinker&#45;&gt;Clinkerina -->
<g id="edge23" class="edge">
<title>Clinker&#45;&gt;Clinkerina</title>
<path fill="none" stroke="black" d="M655.12,-903.61C655.12,-895.84 655.12,-887.56 655.12,-879.46"/>
<polygon fill="black" stroke="black" points="658.63,-879.73 655.13,-869.73 651.63,-879.73 658.63,-879.73"/>
</g>
<!-- Pewet -->
<g id="node25" class="node">
<title>Pewet</title>
<polygon fill="lightcoral" stroke="lightcoral" points="788.62,-981 711.62,-981 711.62,-904 788.62,-904 788.62,-981"/>
<image xlink:href="img/mob.png" width="77px" height="77px" preserveAspectRatio="xMinYMin meet" x="711.625" y="-981"/>
<text text-anchor="middle" x="750.12" y="-936.7" font-family="MS Gothic" font-size="14.00">Pewet</text>
</g>
<!-- Pewet&#45;&gt;Clinkerina -->
<g id="edge24" class="edge">
<title>Pewet&#45;&gt;Clinkerina</title>
<path fill="none" stroke="black" d="M717.7,-903.61C710.36,-895.04 702.49,-885.84 694.89,-876.96"/>
<polygon fill="black" stroke="black" points="697.55,-874.69 688.39,-869.37 692.23,-879.24 697.55,-874.69"/>
</g>
<!-- Trumpator -->
<g id="node26" class="node">
<title>Trumpator</title>
<polygon fill="lightblue" stroke="lightblue" points="421.62,-1094 344.62,-1094 344.62,-1017 421.62,-1017 421.62,-1094"/>
<image xlink:href="img/mob.png" width="77px" height="77px" preserveAspectRatio="xMinYMin meet" x="344.625" y="-1094"/>
<text text-anchor="middle" x="383.12" y="-1049.7" font-family="MS Gothic" font-size="14.00">Trumpator</text>
</g>
<!-- Trumpator&#45;&gt;Sorcerer -->
<g id="edge25" class="edge">
<title>Trumpator&#45;&gt;Sorcerer</title>
<path fill="none" stroke="black" d="M402.24,-1016.61C406.34,-1008.48 410.72,-999.8 414.99,-991.35"/>
<polygon fill="black" stroke="black" points="418.03,-993.07 419.41,-982.57 411.78,-989.92 418.03,-993.07"/>
</g>
<!-- Young Giantess -->
<g id="node27" class="node">
<title>Young Giantess</title>
<polygon fill="lightcoral" stroke="lightcoral" points="550.38,-1094 439.88,-1094 439.88,-1017 550.38,-1017 550.38,-1094"/>
<image xlink:href="img/mob.png" width="100px" height="77px" preserveAspectRatio="xMinYMin meet" x="445.125" y="-1094"/>
<text text-anchor="middle" x="495.12" y="-1049.7" font-family="MS Gothic" font-size="14.00">Young Giantess</text>
</g>
<!-- Young Giantess&#45;&gt;Sorcerer -->
<g id="edge26" class="edge">
<title>Young Giantess&#45;&gt;Sorcerer</title>
<path fill="none" stroke="black" d="M476.01,-1016.61C471.91,-1008.48 467.53,-999.8 463.26,-991.35"/>
<polygon fill="black" stroke="black" points="466.47,-989.92 458.84,-982.57 460.22,-993.07 466.47,-989.92"/>
</g>
<!-- Conductor -->
<g id="node28" class="node">
<title>Conductor</title>
<polygon fill="lightblue" stroke="lightblue" points="331.62,-1207 254.62,-1207 254.62,-1130 331.62,-1130 331.62,-1207"/>
<image xlink:href="img/mob.png" width="77px" height="77px" preserveAspectRatio="xMinYMin meet" x="254.625" y="-1207"/>
<text text-anchor="middle" x="293.12" y="-1162.7" font-family="MS Gothic" font-size="14.00">Conductor</text>
</g>
<!-- Conductor&#45;&gt;Trumpator -->
<g id="edge27" class="edge">
<title>Conductor&#45;&gt;Trumpator</title>
<path fill="none" stroke="black" d="M323.85,-1129.61C330.8,-1121.04 338.26,-1111.84 345.46,-1102.96"/>
<polygon fill="black" stroke="black" points="348.01,-1105.37 351.59,-1095.39 342.57,-1100.96 348.01,-1105.37"/>
</g>
<!-- Brunette -->
<g id="node29" class="node">
<title>Brunette</title>
<polygon fill="lightcoral" stroke="lightcoral" points="426.62,-1207 349.62,-1207 349.62,-1130 426.62,-1130 426.62,-1207"/>
<image xlink:href="img/mob.png" width="77px" height="77px" preserveAspectRatio="xMinYMin meet" x="349.625" y="-1207"/>
<text text-anchor="middle" x="388.12" y="-1162.7" font-family="MS Gothic" font-size="14.00">Brunette</text>
</g>
<!-- Brunette&#45;&gt;Trumpator -->
<g id="edge28" class="edge">
<title>Brunette&#45;&gt;Trumpator</title>
<path fill="none" stroke="black" d="M386.42,-1129.61C386.07,-1121.84 385.7,-1113.56 385.33,-1105.46"/>
<polygon fill="black" stroke="black" points="388.84,-1105.56 384.89,-1095.73 381.85,-1105.88 388.84,-1105.56"/>
</g>
<!-- Diomed -->
<g id="node30" class="node">
<title>Diomed</title>
<polygon fill="lightblue" stroke="lightblue" points="529.62,-1207 452.62,-1207 452.62,-1130 529.62,-1130 529.62,-1207"/>
<image xlink:href="img/mob.png" width="77px" height="77px" preserveAspectRatio="xMinYMin meet" x="452.625" y="-1207"/>
<text text-anchor="middle" x="491.12" y="-1162.7" font-family="MS Gothic" font-size="14.00">Diomed</text>
</g>
<!-- Diomed&#45;&gt;Young Giantess -->
<g id="edge29" class="edge">
<title>Diomed&#45;&gt;Young Giantess</title>
<path fill="none" stroke="black" d="M492.49,-1129.61C492.77,-1121.84 493.07,-1113.56 493.36,-1105.46"/>
<polygon fill="black" stroke="black" points="496.85,-1105.85 493.71,-1095.73 489.85,-1105.6 496.85,-1105.85"/>
</g>
<!-- Giantess -->
<g id="node31" class="node">
<title>Giantess</title>
<polygon fill="lightcoral" stroke="lightcoral" points="624.62,-1207 547.62,-1207 547.62,-1130 624.62,-1130 624.62,-1207"/>
<image xlink:href="img/mob.png" width="77px" height="77px" preserveAspectRatio="xMinYMin meet" x="547.625" y="-1207"/>
<text text-anchor="middle" x="586.12" y="-1162.7" font-family="MS Gothic" font-size="14.00">Giantess</text>
</g>
<!-- Giantess&#45;&gt;Young Giantess -->
<g id="edge30" class="edge">
<title>Giantess&#45;&gt;Young Giantess</title>
<path fill="none" stroke="black" d="M555.06,-1129.61C548.03,-1121.04 540.49,-1111.84 533.21,-1102.96"/>
<polygon fill="black" stroke="black" points="536.05,-1100.9 527.01,-1095.39 530.64,-1105.34 536.05,-1100.9"/>
</g>
<!-- Matchem -->
<g id="node32" class="node">
<title>Matchem</title>
<polygon fill="lightblue" stroke="lightblue" points="279.62,-1320 202.62,-1320 202.62,-1243 279.62,-1243 279.62,-1320"/>
<image xlink:href="img/mob.png" width="77px" height="77px" preserveAspectRatio="xMinYMin meet" x="202.625" y="-1320"/>
<text text-anchor="middle" x="241.12" y="-1275.7" font-family="MS Gothic" font-size="14.00">Matchem</text>
</g>
<!-- Matchem&#45;&gt;Conductor -->
<g id="edge31" class="edge">
<title>Matchem&#45;&gt;Conductor</title>
<path fill="none" stroke="black" d="M258.88,-1242.61C262.64,-1234.57 266.66,-1225.99 270.58,-1217.63"/>
<polygon fill="black" stroke="black" points="273.74,-1219.13 274.81,-1208.59 267.4,-1216.16 273.74,-1219.13"/>
</g>
<!-- Snap Mare -->
<g id="node33" class="node">
<title>Snap Mare</title>
<polygon fill="lightcoral" stroke="lightcoral" points="384.62,-1320 307.62,-1320 307.62,-1243 384.62,-1243 384.62,-1320"/>
<image xlink:href="img/mob.png" width="77px" height="77px" preserveAspectRatio="xMinYMin meet" x="307.625" y="-1320"/>
<text text-anchor="middle" x="346.12" y="-1275.7" font-family="MS Gothic" font-size="14.00">Snap Mare</text>
</g>
<!-- Snap Mare&#45;&gt;Conductor -->
<g id="edge32" class="edge">
<title>Snap Mare&#45;&gt;Conductor</title>
<path fill="none" stroke="black" d="M328.03,-1242.61C324.15,-1234.48 320.01,-1225.8 315.97,-1217.35"/>
<polygon fill="black" stroke="black" points="319.25,-1216.1 311.79,-1208.58 312.94,-1219.12 319.25,-1216.1"/>
</g>
<!-- Cade -->
<g id="node34" class="node">
<title>Cade</title>
<polygon fill="lightblue" stroke="lightblue" points="174.62,-1433 97.62,-1433 97.62,-1356 174.62,-1356 174.62,-1433"/>
<image xlink:href="img/mob.png" width="77px" height="77px" preserveAspectRatio="xMinYMin meet" x="97.625" y="-1433"/>
<text text-anchor="middle" x="136.12" y="-1388.7" font-family="MS Gothic" font-size="14.00">Cade</text>
</g>
<!-- Cade&#45;&gt;Matchem -->
<g id="edge33" class="edge">
<title>Cade&#45;&gt;Matchem</title>
<path fill="none" stroke="black" d="M171.97,-1355.61C180.24,-1346.86 189.14,-1337.46 197.7,-1328.4"/>
<polygon fill="black" stroke="black" points="200.08,-1330.99 204.41,-1321.32 194.99,-1326.18 200.08,-1330.99"/>
</g>
<!-- Partner Mare -->
<g id="node35" class="node">
<title>Partner Mare</title>
<polygon fill="lightcoral" stroke="lightcoral" points="289.62,-1433 192.62,-1433 192.62,-1356 289.62,-1356 289.62,-1433"/>
<image xlink:href="img/mob.png" width="97px" height="77px" preserveAspectRatio="xMinYMin meet" x="192.625" y="-1433"/>
<text text-anchor="middle" x="241.12" y="-1388.7" font-family="MS Gothic" font-size="14.00">Partner Mare</text>
</g>
<!-- Partner Mare&#45;&gt;Matchem -->
<g id="edge34" class="edge">
<title>Partner Mare&#45;&gt;Matchem</title>
<path fill="none" stroke="black" d="M241.12,-1355.61C241.12,-1347.84 241.12,-1339.56 241.12,-1331.46"/>
<polygon fill="black" stroke="black" points="244.63,-1331.73 241.13,-1321.73 237.63,-1331.73 244.63,-1331.73"/>
</g>
<!-- Snap -->
<g id="node36" class="node">
<title>Snap</title>
<polygon fill="lightblue" stroke="lightblue" points="384.62,-1433 307.62,-1433 307.62,-1356 384.62,-1356 384.62,-1433"/>
<image xlink:href="img/mob.png" width="77px" height="77px" preserveAspectRatio="xMinYMin meet" x="307.625" y="-1433"/>
<text text-anchor="middle" x="346.12" y="-1388.7" font-family="MS Gothic" font-size="14.00">Snap</text>
</g>
<!-- Snap&#45;&gt;Snap Mare -->
<g id="edge35" class="edge">
<title>Snap&#45;&gt;Snap Mare</title>
<path fill="none" stroke="black" d="M346.12,-1355.61C346.12,-1347.84 346.12,-1339.56 346.12,-1331.46"/>
<polygon fill="black" stroke="black" points="349.63,-1331.73 346.13,-1321.73 342.63,-1331.73 349.63,-1331.73"/>
</g>
<!-- Diana -->
<g id="node37" class="node">
<title>Diana</title>
<polygon fill="lightcoral" stroke="lightcoral" points="479.62,-1433 402.62,-1433 402.62,-1356 479.62,-1356 479.62,-1433"/>
<image xlink:href="img/mob.png" width="77px" height="77px" preserveAspectRatio="xMinYMin meet" x="402.625" y="-1433"/>
<text text-anchor="middle" x="441.12" y="-1388.7" font-family="MS Gothic" font-size="14.00">Diana</text>
</g>
<!-- Diana&#45;&gt;Snap Mare -->
<g id="edge36" class="edge">
<title>Diana&#45;&gt;Snap Mare</title>
<path fill="none" stroke="black" d="M408.7,-1355.61C401.36,-1347.04 393.49,-1337.84 385.89,-1328.96"/>
<polygon fill="black" stroke="black" points="388.55,-1326.69 379.39,-1321.37 383.23,-1331.24 388.55,-1326.69"/>
</g>
<!-- ゴドルフィンバルブ -->
<g id="node38" class="node">
<title>ゴドルフィンバルブ</title>
<polygon fill="lightblue" stroke="lightblue" points="144.25,-1546 0,-1546 0,-1469 144.25,-1469 144.25,-1546"/>
<image xlink:href="img/mob.png" width="100px" height="77px" preserveAspectRatio="xMinYMin meet" x="22.125" y="-1546"/>
<text text-anchor="middle" x="72.12" y="-1501.7" font-family="MS Gothic" font-size="14.00">ゴドルフィンバルブ</text>
</g>
<!-- ゴドルフィンバルブ&#45;&gt;Cade -->
<g id="edge37" class="edge">
<title>ゴドルフィンバルブ&#45;&gt;Cade</title>
<path fill="none" stroke="black" d="M93.97,-1468.61C98.71,-1460.39 103.78,-1451.6 108.7,-1443.07"/>
<polygon fill="black" stroke="black" points="111.66,-1444.94 113.62,-1434.53 105.59,-1441.44 111.66,-1444.94"/>
</g>
<!-- Roxana -->
<g id="node39" class="node">
<title>Roxana</title>
<polygon fill="lightcoral" stroke="lightcoral" points="239.62,-1546 162.62,-1546 162.62,-1469 239.62,-1469 239.62,-1546"/>
<image xlink:href="img/mob.png" width="77px" height="77px" preserveAspectRatio="xMinYMin meet" x="162.625" y="-1546"/>
<text text-anchor="middle" x="201.12" y="-1501.7" font-family="MS Gothic" font-size="14.00">Roxana</text>
</g>
<!-- Roxana&#45;&gt;Cade -->
<g id="edge38" class="edge">
<title>Roxana&#45;&gt;Cade</title>
<path fill="none" stroke="black" d="M178.94,-1468.61C174.13,-1460.39 168.98,-1451.6 163.98,-1443.07"/>
<polygon fill="black" stroke="black" points="167.05,-1441.39 158.98,-1434.52 161.01,-1444.92 167.05,-1441.39"/>
</g>
<!-- Bald Galloway -->
<g id="node40" class="node">
<title>Bald Galloway</title>
<polygon fill="lightblue" stroke="lightblue" points="183,-1659 79.25,-1659 79.25,-1582 183,-1582 183,-1659"/>
<image xlink:href="img/mob.png" width="100px" height="77px" preserveAspectRatio="xMinYMin meet" x="81.125" y="-1659"/>
<text text-anchor="middle" x="131.12" y="-1614.7" font-family="MS Gothic" font-size="14.00">Bald Galloway</text>
</g>
<!-- Bald Galloway&#45;&gt;Roxana -->
<g id="edge39" class="edge">
<title>Bald Galloway&#45;&gt;Roxana</title>
<path fill="none" stroke="black" d="M155.02,-1581.61C160.26,-1573.31 165.86,-1564.41 171.3,-1555.79"/>
<polygon fill="black" stroke="black" points="174.16,-1557.82 176.53,-1547.5 168.24,-1554.09 174.16,-1557.82"/>
</g>
<!-- Sister to Chaunter -->
<g id="node41" class="node">
<title>Sister to Chaunter</title>
<polygon fill="lightcoral" stroke="lightcoral" points="338.88,-1659 201.38,-1659 201.38,-1582 338.88,-1582 338.88,-1659"/>
<image xlink:href="img/mob.png" width="100px" height="77px" preserveAspectRatio="xMinYMin meet" x="220.125" y="-1659"/>
<text text-anchor="middle" x="270.12" y="-1614.7" font-family="MS Gothic" font-size="14.00">Sister to Chaunter</text>
</g>
<!-- Sister to Chaunter&#45;&gt;Roxana -->
<g id="edge40" class="edge">
<title>Sister to Chaunter&#45;&gt;Roxana</title>
<path fill="none" stroke="black" d="M246.57,-1581.61C241.41,-1573.31 235.88,-1564.41 230.52,-1555.79"/>
<polygon fill="black" stroke="black" points="233.62,-1554.15 225.37,-1547.5 227.68,-1557.84 233.62,-1554.15"/>
</g>
</g>
</svg>
