<?xml version="1.0" encoding="UTF-8" standalone="no"?>
<!DOCTYPE svg PUBLIC "-//W3C//DTD SVG 1.1//EN"
 "http://www.w3.org/Graphics/SVG/1.1/DTD/svg11.dtd">
<!-- Generated by graphviz version 12.1.2 (20240928.0832)
 -->
<!-- Pages: 1 -->
<svg width="466pt" height="537pt"
 viewBox="0.00 0.00 466.38 537.00" xmlns="http://www.w3.org/2000/svg" xmlns:xlink="http://www.w3.org/1999/xlink">
<g id="graph0" class="graph" transform="scale(1 1) rotate(0) translate(4 533)">
<polygon fill="white" stroke="none" points="-4,4 -4,-533 462.38,-533 462.38,4 -4,4"/>
<!-- Flaming Page -->
<g id="node1" class="node">
<title>Flaming Page</title>
<polygon fill="none" stroke="black" points="228.38,-77 136.62,-77 136.62,0 228.38,0 228.38,-77"/>
<image xlink:href="img/mob.png" width="91.75px" height="77px" preserveAspectRatio="xMinYMin meet" x="136.625" y="-77"/>
<text text-anchor="middle" x="182.5" y="-33.45" font-family="Times New Roman,serif" font-size="14.00">Flaming Page</text>
</g>
<!-- Bull Page -->
<g id="node2" class="node">
<title>Bull Page</title>
<polygon fill="lightblue" stroke="lightblue" points="170,-190 93,-190 93,-113 170,-113 170,-190"/>
<image xlink:href="img/mob.png" width="77px" height="77px" preserveAspectRatio="xMinYMin meet" x="93" y="-190"/>
<text text-anchor="middle" x="131.5" y="-145.7" font-family="MS Gothic" font-size="14.00">Bull Page</text>
</g>
<!-- Bull Page&#45;&gt;Flaming Page -->
<g id="edge1" class="edge">
<title>Bull Page&#45;&gt;Flaming Page</title>
<path fill="none" stroke="black" d="M148.91,-112.61C152.6,-104.57 156.55,-95.99 160.39,-87.63"/>
<polygon fill="black" stroke="black" points="163.54,-89.14 164.54,-78.59 157.18,-86.22 163.54,-89.14"/>
</g>
<!-- Flaring Top -->
<g id="node3" class="node">
<title>Flaring Top</title>
<polygon fill="lightcoral" stroke="lightcoral" points="278.62,-190 188.38,-190 188.38,-113 278.62,-113 278.62,-190"/>
<image xlink:href="img/mob.png" width="90.25px" height="77px" preserveAspectRatio="xMinYMin meet" x="188.375" y="-190"/>
<text text-anchor="middle" x="233.5" y="-145.7" font-family="MS Gothic" font-size="14.00">Flaring Top</text>
</g>
<!-- Flaring Top&#45;&gt;Flaming Page -->
<g id="edge2" class="edge">
<title>Flaring Top&#45;&gt;Flaming Page</title>
<path fill="none" stroke="black" d="M216.09,-112.61C212.4,-104.57 208.45,-95.99 204.61,-87.63"/>
<polygon fill="black" stroke="black" points="207.82,-86.22 200.46,-78.59 201.46,-89.14 207.82,-86.22"/>
</g>
<!-- Bull Lea -->
<g id="node4" class="node">
<title>Bull Lea</title>
<polygon fill="lightblue" stroke="lightblue" points="77,-303 0,-303 0,-226 77,-226 77,-303"/>
<image xlink:href="img/mob.png" width="77px" height="77px" preserveAspectRatio="xMinYMin meet" x="0" y="-303"/>
<text text-anchor="middle" x="38.5" y="-258.7" font-family="MS Gothic" font-size="14.00">Bull Lea</text>
</g>
<!-- Bull Lea&#45;&gt;Bull Page -->
<g id="edge3" class="edge">
<title>Bull Lea&#45;&gt;Bull Page</title>
<path fill="none" stroke="black" d="M70.25,-225.61C77.43,-217.04 85.13,-207.84 92.58,-198.96"/>
<polygon fill="black" stroke="black" points="95.19,-201.29 98.93,-191.38 89.82,-196.8 95.19,-201.29"/>
</g>
<!-- Our Page -->
<g id="node5" class="node">
<title>Our Page</title>
<polygon fill="lightcoral" stroke="lightcoral" points="172,-303 95,-303 95,-226 172,-226 172,-303"/>
<image xlink:href="img/mob.png" width="77px" height="77px" preserveAspectRatio="xMinYMin meet" x="95" y="-303"/>
<text text-anchor="middle" x="133.5" y="-258.7" font-family="MS Gothic" font-size="14.00">Our Page</text>
</g>
<!-- Our Page&#45;&gt;Bull Page -->
<g id="edge4" class="edge">
<title>Our Page&#45;&gt;Bull Page</title>
<path fill="none" stroke="black" d="M132.82,-225.61C132.68,-217.84 132.53,-209.56 132.38,-201.46"/>
<polygon fill="black" stroke="black" points="135.89,-201.67 132.21,-191.73 128.89,-201.79 135.89,-201.67"/>
</g>
<!-- Menow -->
<g id="node6" class="node">
<title>Menow</title>
<polygon fill="lightblue" stroke="lightblue" points="270,-303 193,-303 193,-226 270,-226 270,-303"/>
<image xlink:href="img/mob.png" width="77px" height="77px" preserveAspectRatio="xMinYMin meet" x="193" y="-303"/>
<text text-anchor="middle" x="231.5" y="-258.7" font-family="MS Gothic" font-size="14.00">Menow</text>
</g>
<!-- Menow&#45;&gt;Flaring Top -->
<g id="edge5" class="edge">
<title>Menow&#45;&gt;Flaring Top</title>
<path fill="none" stroke="black" d="M232.18,-225.61C232.32,-217.84 232.47,-209.56 232.62,-201.46"/>
<polygon fill="black" stroke="black" points="236.11,-201.79 232.79,-191.73 229.11,-201.67 236.11,-201.79"/>
</g>
<!-- Flaming Top -->
<g id="node7" class="node">
<title>Flaming Top</title>
<polygon fill="lightcoral" stroke="lightcoral" points="378.62,-303 288.38,-303 288.38,-226 378.62,-226 378.62,-303"/>
<image xlink:href="img/mob.png" width="90.25px" height="77px" preserveAspectRatio="xMinYMin meet" x="288.375" y="-303"/>
<text text-anchor="middle" x="333.5" y="-258.7" font-family="MS Gothic" font-size="14.00">Flaming Top</text>
</g>
<!-- Flaming Top&#45;&gt;Flaring Top -->
<g id="edge6" class="edge">
<title>Flaming Top&#45;&gt;Flaring Top</title>
<path fill="none" stroke="black" d="M299.37,-225.61C291.56,-216.95 283.18,-207.65 275.1,-198.68"/>
<polygon fill="black" stroke="black" points="277.79,-196.43 268.49,-191.34 272.59,-201.12 277.79,-196.43"/>
</g>
<!-- Blossom Time -->
<g id="node8" class="node">
<title>Blossom Time</title>
<polygon fill="lightcoral" stroke="lightcoral" points="182,-416 85,-416 85,-339 182,-339 182,-416"/>
<image xlink:href="img/mob.png" width="97px" height="77px" preserveAspectRatio="xMinYMin meet" x="85" y="-416"/>
<text text-anchor="middle" x="133.5" y="-371.7" font-family="MS Gothic" font-size="14.00">Blossom Time</text>
</g>
<!-- Blossom Time&#45;&gt;Our Page -->
<g id="edge7" class="edge">
<title>Blossom Time&#45;&gt;Our Page</title>
<path fill="none" stroke="black" d="M133.5,-338.61C133.5,-330.84 133.5,-322.56 133.5,-314.46"/>
<polygon fill="black" stroke="black" points="137,-314.73 133.5,-304.73 130,-314.73 137,-314.73"/>
</g>
<!-- Blue Larkspur -->
<g id="node9" class="node">
<title>Blue Larkspur</title>
<polygon fill="lightblue" stroke="lightblue" points="336.38,-529 232.62,-529 232.62,-452 336.38,-452 336.38,-529"/>
<image xlink:href="img/mob.png" width="100px" height="77px" preserveAspectRatio="xMinYMin meet" x="234.5" y="-529"/>
<text text-anchor="middle" x="284.5" y="-484.7" font-family="MS Gothic" font-size="14.00">Blue Larkspur</text>
</g>
<!-- unknown_father -->
<g id="node10" class="node">
<title>unknown_father</title>
<ellipse fill="none" stroke="black" cx="311.5" cy="-377.5" rx="71.31" ry="18"/>
<text text-anchor="middle" x="311.5" y="-372.45" font-family="Times New Roman,serif" font-size="14.00">unknown_father</text>
</g>
<!-- Blue Larkspur&#45;&gt;unknown_father -->
<g id="edge8" class="edge">
<title>Blue Larkspur&#45;&gt;unknown_father</title>
<path fill="none" stroke="black" d="M293.72,-451.61C297.28,-436.94 301.3,-420.44 304.61,-406.83"/>
<polygon fill="black" stroke="black" points="307.99,-407.75 306.95,-397.21 301.19,-406.1 307.99,-407.75"/>
</g>
<!-- Black Servant -->
<g id="node11" class="node">
<title>Black Servant</title>
<polygon fill="lightcoral" stroke="lightcoral" points="458.38,-529 354.62,-529 354.62,-452 458.38,-452 458.38,-529"/>
<image xlink:href="img/mob.png" width="100px" height="77px" preserveAspectRatio="xMinYMin meet" x="356.5" y="-529"/>
<text text-anchor="middle" x="406.5" y="-484.7" font-family="MS Gothic" font-size="14.00">Black Servant</text>
</g>
<!-- Black Servant&#45;&gt;unknown_father -->
<g id="edge9" class="edge">
<title>Black Servant&#45;&gt;unknown_father</title>
<path fill="none" stroke="black" d="M374.07,-451.61C360.67,-435.95 345.48,-418.2 333.42,-404.11"/>
<polygon fill="black" stroke="black" points="336.15,-401.91 326.98,-396.59 330.83,-406.46 336.15,-401.91"/>
</g>
<!-- Occult -->
<g id="node12" class="node">
<title>Occult</title>
<polygon fill="lightblue" stroke="lightblue" points="105,-529 28,-529 28,-452 105,-452 105,-529"/>
<image xlink:href="img/mob.png" width="77px" height="77px" preserveAspectRatio="xMinYMin meet" x="28" y="-529"/>
<text text-anchor="middle" x="66.5" y="-484.7" font-family="MS Gothic" font-size="14.00">Occult</text>
</g>
<!-- Occult&#45;&gt;Blossom Time -->
<g id="edge10" class="edge">
<title>Occult&#45;&gt;Blossom Time</title>
<path fill="none" stroke="black" d="M89.37,-451.61C94.33,-443.39 99.63,-434.6 104.79,-426.07"/>
<polygon fill="black" stroke="black" points="107.78,-427.88 109.95,-417.51 101.79,-424.27 107.78,-427.88"/>
</g>
<!-- Dis Donc -->
<g id="node13" class="node">
<title>Dis Donc</title>
<polygon fill="lightcoral" stroke="lightcoral" points="200,-529 123,-529 123,-452 200,-452 200,-529"/>
<image xlink:href="img/mob.png" width="77px" height="77px" preserveAspectRatio="xMinYMin meet" x="123" y="-529"/>
<text text-anchor="middle" x="161.5" y="-484.7" font-family="MS Gothic" font-size="14.00">Dis Donc</text>
</g>
<!-- Dis Donc&#45;&gt;Blossom Time -->
<g id="edge11" class="edge">
<title>Dis Donc&#45;&gt;Blossom Time</title>
<path fill="none" stroke="black" d="M151.94,-451.61C149.96,-443.75 147.85,-435.37 145.78,-427.19"/>
<polygon fill="black" stroke="black" points="149.22,-426.53 143.38,-417.69 142.44,-428.24 149.22,-426.53"/>
</g>
</g>
</svg>
