<?xml version="1.0" encoding="UTF-8" standalone="no"?>
<!DOCTYPE svg PUBLIC "-//W3C//DTD SVG 1.1//EN"
 "http://www.w3.org/Graphics/SVG/1.1/DTD/svg11.dtd">
<!-- Generated by graphviz version 12.1.2 (20240928.0832)
 -->
<!-- Pages: 1 -->
<svg width="1422pt" height="1667pt"
 viewBox="0.00 0.00 1421.75 1667.00" xmlns="http://www.w3.org/2000/svg" xmlns:xlink="http://www.w3.org/1999/xlink">
<g id="graph0" class="graph" transform="scale(1 1) rotate(0) translate(4 1663)">
<polygon fill="white" stroke="none" points="-4,4 -4,-1663 1417.75,-1663 1417.75,4 -4,4"/>
<!-- Gardefeu -->
<g id="node1" class="node">
<title>Gardefeu</title>
<polygon fill="none" stroke="black" points="1264.5,-77 1187.5,-77 1187.5,0 1264.5,0 1264.5,-77"/>
<image xlink:href="img/mob.png" width="77px" height="77px" preserveAspectRatio="xMinYMin meet" x="1187.5" y="-77"/>
<text text-anchor="middle" x="1226" y="-33.45" font-family="Times New Roman,serif" font-size="14.00">Gardefeu</text>
</g>
<!-- Cambyse -->
<g id="node2" class="node">
<title>Cambyse</title>
<polygon fill="lightblue" stroke="lightblue" points="1217.5,-190 1140.5,-190 1140.5,-113 1217.5,-113 1217.5,-190"/>
<image xlink:href="img/mob.png" width="77px" height="77px" preserveAspectRatio="xMinYMin meet" x="1140.5" y="-190"/>
<text text-anchor="middle" x="1179" y="-145.7" font-family="MS Gothic" font-size="14.00">Cambyse</text>
</g>
<!-- Cambyse&#45;&gt;Gardefeu -->
<g id="edge1" class="edge">
<title>Cambyse&#45;&gt;Gardefeu</title>
<path fill="none" stroke="black" d="M1195.04,-112.61C1198.45,-104.57 1202.08,-95.99 1205.62,-87.63"/>
<polygon fill="black" stroke="black" points="1208.76,-89.19 1209.44,-78.61 1202.32,-86.46 1208.76,-89.19"/>
</g>
<!-- Bougie -->
<g id="node3" class="node">
<title>Bougie</title>
<polygon fill="lightcoral" stroke="lightcoral" points="1312.5,-190 1235.5,-190 1235.5,-113 1312.5,-113 1312.5,-190"/>
<image xlink:href="img/mob.png" width="77px" height="77px" preserveAspectRatio="xMinYMin meet" x="1235.5" y="-190"/>
<text text-anchor="middle" x="1274" y="-145.7" font-family="MS Gothic" font-size="14.00">Bougie</text>
</g>
<!-- Bougie&#45;&gt;Gardefeu -->
<g id="edge2" class="edge">
<title>Bougie&#45;&gt;Gardefeu</title>
<path fill="none" stroke="black" d="M1257.62,-112.61C1254.14,-104.57 1250.43,-95.99 1246.81,-87.63"/>
<polygon fill="black" stroke="black" points="1250.09,-86.4 1242.91,-78.61 1243.67,-89.18 1250.09,-86.4"/>
</g>
<!-- Androcles -->
<g id="node4" class="node">
<title>Androcles</title>
<polygon fill="lightblue" stroke="lightblue" points="1122.5,-303 1045.5,-303 1045.5,-226 1122.5,-226 1122.5,-303"/>
<image xlink:href="img/mob.png" width="77px" height="77px" preserveAspectRatio="xMinYMin meet" x="1045.5" y="-303"/>
<text text-anchor="middle" x="1084" y="-258.7" font-family="MS Gothic" font-size="14.00">Androcles</text>
</g>
<!-- Androcles&#45;&gt;Cambyse -->
<g id="edge3" class="edge">
<title>Androcles&#45;&gt;Cambyse</title>
<path fill="none" stroke="black" d="M1116.43,-225.61C1123.76,-217.04 1131.64,-207.84 1139.24,-198.96"/>
<polygon fill="black" stroke="black" points="1141.89,-201.24 1145.73,-191.37 1136.57,-196.69 1141.89,-201.24"/>
</g>
<!-- Cambuse -->
<g id="node5" class="node">
<title>Cambuse</title>
<polygon fill="lightcoral" stroke="lightcoral" points="1217.5,-303 1140.5,-303 1140.5,-226 1217.5,-226 1217.5,-303"/>
<image xlink:href="img/mob.png" width="77px" height="77px" preserveAspectRatio="xMinYMin meet" x="1140.5" y="-303"/>
<text text-anchor="middle" x="1179" y="-258.7" font-family="MS Gothic" font-size="14.00">Cambuse</text>
</g>
<!-- Cambuse&#45;&gt;Cambyse -->
<g id="edge4" class="edge">
<title>Cambuse&#45;&gt;Cambyse</title>
<path fill="none" stroke="black" d="M1179,-225.61C1179,-217.84 1179,-209.56 1179,-201.46"/>
<polygon fill="black" stroke="black" points="1182.5,-201.73 1179,-191.73 1175.5,-201.73 1182.5,-201.73"/>
</g>
<!-- Bruce -->
<g id="node6" class="node">
<title>Bruce</title>
<polygon fill="lightblue" stroke="lightblue" points="1312.5,-303 1235.5,-303 1235.5,-226 1312.5,-226 1312.5,-303"/>
<image xlink:href="img/mob.png" width="77px" height="77px" preserveAspectRatio="xMinYMin meet" x="1235.5" y="-303"/>
<text text-anchor="middle" x="1274" y="-258.7" font-family="MS Gothic" font-size="14.00">Bruce</text>
</g>
<!-- Bruce&#45;&gt;Bougie -->
<g id="edge5" class="edge">
<title>Bruce&#45;&gt;Bougie</title>
<path fill="none" stroke="black" d="M1274,-225.61C1274,-217.84 1274,-209.56 1274,-201.46"/>
<polygon fill="black" stroke="black" points="1277.5,-201.73 1274,-191.73 1270.5,-201.73 1277.5,-201.73"/>
</g>
<!-- La Lumiere -->
<g id="node7" class="node">
<title>La Lumiere</title>
<polygon fill="lightcoral" stroke="lightcoral" points="1413.75,-303 1330.25,-303 1330.25,-226 1413.75,-226 1413.75,-303"/>
<image xlink:href="img/mob.png" width="83.5px" height="77px" preserveAspectRatio="xMinYMin meet" x="1330.25" y="-303"/>
<text text-anchor="middle" x="1372" y="-258.7" font-family="MS Gothic" font-size="14.00">La Lumiere</text>
</g>
<!-- La Lumiere&#45;&gt;Bougie -->
<g id="edge6" class="edge">
<title>La Lumiere&#45;&gt;Bougie</title>
<path fill="none" stroke="black" d="M1338.55,-225.61C1330.9,-216.95 1322.69,-207.65 1314.77,-198.68"/>
<polygon fill="black" stroke="black" points="1317.55,-196.53 1308.3,-191.35 1312.3,-201.17 1317.55,-196.53"/>
</g>
<!-- Dollar -->
<g id="node8" class="node">
<title>Dollar</title>
<polygon fill="lightblue" stroke="lightblue" points="1075.5,-416 998.5,-416 998.5,-339 1075.5,-339 1075.5,-416"/>
<image xlink:href="img/mob.png" width="77px" height="77px" preserveAspectRatio="xMinYMin meet" x="998.5" y="-416"/>
<text text-anchor="middle" x="1037" y="-371.7" font-family="MS Gothic" font-size="14.00">Dollar</text>
</g>
<!-- Dollar&#45;&gt;Androcles -->
<g id="edge7" class="edge">
<title>Dollar&#45;&gt;Androcles</title>
<path fill="none" stroke="black" d="M1053.04,-338.61C1056.45,-330.57 1060.08,-321.99 1063.62,-313.63"/>
<polygon fill="black" stroke="black" points="1066.76,-315.19 1067.44,-304.61 1060.32,-312.46 1066.76,-315.19"/>
</g>
<!-- Alabama -->
<g id="node9" class="node">
<title>Alabama</title>
<polygon fill="lightcoral" stroke="lightcoral" points="1170.5,-416 1093.5,-416 1093.5,-339 1170.5,-339 1170.5,-416"/>
<image xlink:href="img/mob.png" width="77px" height="77px" preserveAspectRatio="xMinYMin meet" x="1093.5" y="-416"/>
<text text-anchor="middle" x="1132" y="-371.7" font-family="MS Gothic" font-size="14.00">Alabama</text>
</g>
<!-- Alabama&#45;&gt;Androcles -->
<g id="edge8" class="edge">
<title>Alabama&#45;&gt;Androcles</title>
<path fill="none" stroke="black" d="M1115.62,-338.61C1112.14,-330.57 1108.43,-321.99 1104.81,-313.63"/>
<polygon fill="black" stroke="black" points="1108.09,-312.4 1100.91,-304.61 1101.67,-315.18 1108.09,-312.4"/>
</g>
<!-- The Flying Dutchman -->
<g id="node10" class="node">
<title>The Flying Dutchman</title>
<polygon fill="lightblue" stroke="lightblue" points="980.12,-529 835.88,-529 835.88,-452 980.12,-452 980.12,-529"/>
<image xlink:href="img/mob.png" width="100px" height="77px" preserveAspectRatio="xMinYMin meet" x="858" y="-529"/>
<text text-anchor="middle" x="908" y="-484.7" font-family="MS Gothic" font-size="14.00">The Flying Dutchman</text>
</g>
<!-- The Flying Dutchman&#45;&gt;Dollar -->
<g id="edge9" class="edge">
<title>The Flying Dutchman&#45;&gt;Dollar</title>
<path fill="none" stroke="black" d="M952.03,-451.61C964.25,-441.1 977.56,-429.65 989.94,-418.99"/>
<polygon fill="black" stroke="black" points="991.9,-421.93 997.19,-412.75 987.33,-416.62 991.9,-421.93"/>
</g>
<!-- Payment -->
<g id="node11" class="node">
<title>Payment</title>
<polygon fill="lightcoral" stroke="lightcoral" points="1075.5,-529 998.5,-529 998.5,-452 1075.5,-452 1075.5,-529"/>
<image xlink:href="img/mob.png" width="77px" height="77px" preserveAspectRatio="xMinYMin meet" x="998.5" y="-529"/>
<text text-anchor="middle" x="1037" y="-484.7" font-family="MS Gothic" font-size="14.00">Payment</text>
</g>
<!-- Payment&#45;&gt;Dollar -->
<g id="edge10" class="edge">
<title>Payment&#45;&gt;Dollar</title>
<path fill="none" stroke="black" d="M1037,-451.61C1037,-443.84 1037,-435.56 1037,-427.46"/>
<polygon fill="black" stroke="black" points="1040.5,-427.73 1037,-417.73 1033.5,-427.73 1040.5,-427.73"/>
</g>
<!-- Serious -->
<g id="node12" class="node">
<title>Serious</title>
<polygon fill="lightblue" stroke="lightblue" points="1170.5,-529 1093.5,-529 1093.5,-452 1170.5,-452 1170.5,-529"/>
<image xlink:href="img/mob.png" width="77px" height="77px" preserveAspectRatio="xMinYMin meet" x="1093.5" y="-529"/>
<text text-anchor="middle" x="1132" y="-484.7" font-family="MS Gothic" font-size="14.00">Serious</text>
</g>
<!-- Serious&#45;&gt;Alabama -->
<g id="edge11" class="edge">
<title>Serious&#45;&gt;Alabama</title>
<path fill="none" stroke="black" d="M1132,-451.61C1132,-443.84 1132,-435.56 1132,-427.46"/>
<polygon fill="black" stroke="black" points="1135.5,-427.73 1132,-417.73 1128.5,-427.73 1135.5,-427.73"/>
</g>
<!-- Admiralty -->
<g id="node13" class="node">
<title>Admiralty</title>
<polygon fill="lightcoral" stroke="lightcoral" points="1265.5,-529 1188.5,-529 1188.5,-452 1265.5,-452 1265.5,-529"/>
<image xlink:href="img/mob.png" width="77px" height="77px" preserveAspectRatio="xMinYMin meet" x="1188.5" y="-529"/>
<text text-anchor="middle" x="1227" y="-484.7" font-family="MS Gothic" font-size="14.00">Admiralty</text>
</g>
<!-- Admiralty&#45;&gt;Alabama -->
<g id="edge12" class="edge">
<title>Admiralty&#45;&gt;Alabama</title>
<path fill="none" stroke="black" d="M1194.57,-451.61C1187.24,-443.04 1179.36,-433.84 1171.76,-424.96"/>
<polygon fill="black" stroke="black" points="1174.43,-422.69 1165.27,-417.37 1169.11,-427.24 1174.43,-422.69"/>
</g>
<!-- Bay Middleton -->
<g id="node14" class="node">
<title>Bay Middleton</title>
<polygon fill="lightblue" stroke="lightblue" points="905.88,-642 802.12,-642 802.12,-565 905.88,-565 905.88,-642"/>
<image xlink:href="img/mob.png" width="100px" height="77px" preserveAspectRatio="xMinYMin meet" x="804" y="-642"/>
<text text-anchor="middle" x="854" y="-597.7" font-family="MS Gothic" font-size="14.00">Bay Middleton</text>
</g>
<!-- Bay Middleton&#45;&gt;The Flying Dutchman -->
<g id="edge13" class="edge">
<title>Bay Middleton&#45;&gt;The Flying Dutchman</title>
<path fill="none" stroke="black" d="M872.43,-564.61C876.39,-556.48 880.61,-547.8 884.72,-539.35"/>
<polygon fill="black" stroke="black" points="887.76,-541.1 888.99,-530.58 881.47,-538.04 887.76,-541.1"/>
</g>
<!-- Barbelle -->
<g id="node15" class="node">
<title>Barbelle</title>
<polygon fill="lightcoral" stroke="lightcoral" points="1000.5,-642 923.5,-642 923.5,-565 1000.5,-565 1000.5,-642"/>
<image xlink:href="img/mob.png" width="77px" height="77px" preserveAspectRatio="xMinYMin meet" x="923.5" y="-642"/>
<text text-anchor="middle" x="962" y="-597.7" font-family="MS Gothic" font-size="14.00">Barbelle</text>
</g>
<!-- Barbelle&#45;&gt;The Flying Dutchman -->
<g id="edge14" class="edge">
<title>Barbelle&#45;&gt;The Flying Dutchman</title>
<path fill="none" stroke="black" d="M943.57,-564.61C939.61,-556.48 935.39,-547.8 931.28,-539.35"/>
<polygon fill="black" stroke="black" points="934.53,-538.04 927.01,-530.58 928.24,-541.1 934.53,-538.04"/>
</g>
<!-- Sultan -->
<g id="node16" class="node">
<title>Sultan</title>
<polygon fill="lightblue" stroke="lightblue" points="801.5,-755 724.5,-755 724.5,-678 801.5,-678 801.5,-755"/>
<image xlink:href="img/mob.png" width="77px" height="77px" preserveAspectRatio="xMinYMin meet" x="724.5" y="-755"/>
<text text-anchor="middle" x="763" y="-710.7" font-family="MS Gothic" font-size="14.00">Sultan</text>
</g>
<!-- Sultan&#45;&gt;Bay Middleton -->
<g id="edge15" class="edge">
<title>Sultan&#45;&gt;Bay Middleton</title>
<path fill="none" stroke="black" d="M794.06,-677.61C801.09,-669.04 808.63,-659.84 815.91,-650.96"/>
<polygon fill="black" stroke="black" points="818.48,-653.34 822.12,-643.39 813.07,-648.9 818.48,-653.34"/>
</g>
<!-- Cobweb -->
<g id="node17" class="node">
<title>Cobweb</title>
<polygon fill="lightcoral" stroke="lightcoral" points="896.5,-755 819.5,-755 819.5,-678 896.5,-678 896.5,-755"/>
<image xlink:href="img/mob.png" width="77px" height="77px" preserveAspectRatio="xMinYMin meet" x="819.5" y="-755"/>
<text text-anchor="middle" x="858" y="-710.7" font-family="MS Gothic" font-size="14.00">Cobweb</text>
</g>
<!-- Cobweb&#45;&gt;Bay Middleton -->
<g id="edge16" class="edge">
<title>Cobweb&#45;&gt;Bay Middleton</title>
<path fill="none" stroke="black" d="M856.63,-677.61C856.35,-669.84 856.06,-661.56 855.76,-653.46"/>
<polygon fill="black" stroke="black" points="859.27,-653.6 855.41,-643.73 852.28,-653.85 859.27,-653.6"/>
</g>
<!-- Sandbeck -->
<g id="node18" class="node">
<title>Sandbeck</title>
<polygon fill="lightblue" stroke="lightblue" points="997.5,-755 920.5,-755 920.5,-678 997.5,-678 997.5,-755"/>
<image xlink:href="img/mob.png" width="77px" height="77px" preserveAspectRatio="xMinYMin meet" x="920.5" y="-755"/>
<text text-anchor="middle" x="959" y="-710.7" font-family="MS Gothic" font-size="14.00">Sandbeck</text>
</g>
<!-- Sandbeck&#45;&gt;Barbelle -->
<g id="edge17" class="edge">
<title>Sandbeck&#45;&gt;Barbelle</title>
<path fill="none" stroke="black" d="M960.02,-677.61C960.23,-669.84 960.46,-661.56 960.68,-653.46"/>
<polygon fill="black" stroke="black" points="964.17,-653.82 960.94,-643.73 957.17,-653.63 964.17,-653.82"/>
</g>
<!-- Darioletta -->
<g id="node19" class="node">
<title>Darioletta</title>
<polygon fill="lightcoral" stroke="lightcoral" points="1098.75,-755 1015.25,-755 1015.25,-678 1098.75,-678 1098.75,-755"/>
<image xlink:href="img/mob.png" width="83.5px" height="77px" preserveAspectRatio="xMinYMin meet" x="1015.25" y="-755"/>
<text text-anchor="middle" x="1057" y="-710.7" font-family="MS Gothic" font-size="14.00">Darioletta</text>
</g>
<!-- Darioletta&#45;&gt;Barbelle -->
<g id="edge18" class="edge">
<title>Darioletta&#45;&gt;Barbelle</title>
<path fill="none" stroke="black" d="M1024.57,-677.61C1017.24,-669.04 1009.36,-659.84 1001.76,-650.96"/>
<polygon fill="black" stroke="black" points="1004.43,-648.69 995.27,-643.37 999.11,-653.24 1004.43,-648.69"/>
</g>
<!-- Selim -->
<g id="node20" class="node">
<title>Selim</title>
<polygon fill="lightblue" stroke="lightblue" points="730.5,-868 653.5,-868 653.5,-791 730.5,-791 730.5,-868"/>
<image xlink:href="img/mob.png" width="77px" height="77px" preserveAspectRatio="xMinYMin meet" x="653.5" y="-868"/>
<text text-anchor="middle" x="692" y="-823.7" font-family="MS Gothic" font-size="14.00">Selim</text>
</g>
<!-- Selim&#45;&gt;Sultan -->
<g id="edge19" class="edge">
<title>Selim&#45;&gt;Sultan</title>
<path fill="none" stroke="black" d="M716.24,-790.61C721.55,-782.31 727.24,-773.41 732.75,-764.79"/>
<polygon fill="black" stroke="black" points="735.62,-766.8 738.06,-756.49 729.72,-763.03 735.62,-766.8"/>
</g>
<!-- Bacchante -->
<g id="node21" class="node">
<title>Bacchante</title>
<polygon fill="lightcoral" stroke="lightcoral" points="872.5,-868 795.5,-868 795.5,-791 872.5,-791 872.5,-868"/>
<image xlink:href="img/mob.png" width="77px" height="77px" preserveAspectRatio="xMinYMin meet" x="795.5" y="-868"/>
<text text-anchor="middle" x="834" y="-823.7" font-family="MS Gothic" font-size="14.00">Bacchante</text>
</g>
<!-- Bacchante&#45;&gt;Sultan -->
<g id="edge20" class="edge">
<title>Bacchante&#45;&gt;Sultan</title>
<path fill="none" stroke="black" d="M809.76,-790.61C804.45,-782.31 798.76,-773.41 793.25,-764.79"/>
<polygon fill="black" stroke="black" points="796.28,-763.03 787.94,-756.49 790.38,-766.8 796.28,-763.03"/>
</g>
<!-- Buzzard -->
<g id="node22" class="node">
<title>Buzzard</title>
<polygon fill="lightblue" stroke="lightblue" points="618.5,-981 541.5,-981 541.5,-904 618.5,-904 618.5,-981"/>
<image xlink:href="img/mob.png" width="77px" height="77px" preserveAspectRatio="xMinYMin meet" x="541.5" y="-981"/>
<text text-anchor="middle" x="580" y="-936.7" font-family="MS Gothic" font-size="14.00">Buzzard</text>
</g>
<!-- Buzzard&#45;&gt;Selim -->
<g id="edge21" class="edge">
<title>Buzzard&#45;&gt;Selim</title>
<path fill="none" stroke="black" d="M618.23,-903.61C627.15,-894.77 636.74,-885.26 645.96,-876.13"/>
<polygon fill="black" stroke="black" points="648.23,-878.81 652.87,-869.28 643.3,-873.84 648.23,-878.81"/>
</g>
<!-- Alexander Mare -->
<g id="node23" class="node">
<title>Alexander Mare</title>
<polygon fill="lightcoral" stroke="lightcoral" points="747.25,-981 636.75,-981 636.75,-904 747.25,-904 747.25,-981"/>
<image xlink:href="img/mob.png" width="100px" height="77px" preserveAspectRatio="xMinYMin meet" x="642" y="-981"/>
<text text-anchor="middle" x="692" y="-936.7" font-family="MS Gothic" font-size="14.00">Alexander Mare</text>
</g>
<!-- Alexander Mare&#45;&gt;Selim -->
<g id="edge22" class="edge">
<title>Alexander Mare&#45;&gt;Selim</title>
<path fill="none" stroke="black" d="M692,-903.61C692,-895.84 692,-887.56 692,-879.46"/>
<polygon fill="black" stroke="black" points="695.5,-879.73 692,-869.73 688.5,-879.73 695.5,-879.73"/>
</g>
<!-- Williamson&#39;s Ditto -->
<g id="node24" class="node">
<title>Williamson&#39;s Ditto</title>
<polygon fill="lightblue" stroke="lightblue" points="902.75,-981 765.25,-981 765.25,-904 902.75,-904 902.75,-981"/>
<image xlink:href="img/mob.png" width="100px" height="77px" preserveAspectRatio="xMinYMin meet" x="784" y="-981"/>
<text text-anchor="middle" x="834" y="-936.7" font-family="MS Gothic" font-size="14.00">Williamson&#39;s Ditto</text>
</g>
<!-- Williamson&#39;s Ditto&#45;&gt;Bacchante -->
<g id="edge23" class="edge">
<title>Williamson&#39;s Ditto&#45;&gt;Bacchante</title>
<path fill="none" stroke="black" d="M834,-903.61C834,-895.84 834,-887.56 834,-879.46"/>
<polygon fill="black" stroke="black" points="837.5,-879.73 834,-869.73 830.5,-879.73 837.5,-879.73"/>
</g>
<!-- Mercury Mare -->
<g id="node25" class="node">
<title>Mercury Mare</title>
<polygon fill="lightcoral" stroke="lightcoral" points="1017.5,-981 920.5,-981 920.5,-904 1017.5,-904 1017.5,-981"/>
<image xlink:href="img/mob.png" width="97px" height="77px" preserveAspectRatio="xMinYMin meet" x="920.5" y="-981"/>
<text text-anchor="middle" x="969" y="-936.7" font-family="MS Gothic" font-size="14.00">Mercury Mare</text>
</g>
<!-- Mercury Mare&#45;&gt;Bacchante -->
<g id="edge24" class="edge">
<title>Mercury Mare&#45;&gt;Bacchante</title>
<path fill="none" stroke="black" d="M922.92,-903.61C909.51,-892.59 894.84,-880.53 881.36,-869.44"/>
<polygon fill="black" stroke="black" points="883.81,-866.92 873.86,-863.27 879.36,-872.33 883.81,-866.92"/>
</g>
<!-- Woodpecker -->
<g id="node26" class="node">
<title>Woodpecker</title>
<polygon fill="lightblue" stroke="lightblue" points="569.75,-1094 486.25,-1094 486.25,-1017 569.75,-1017 569.75,-1094"/>
<image xlink:href="img/mob.png" width="83.5px" height="77px" preserveAspectRatio="xMinYMin meet" x="486.25" y="-1094"/>
<text text-anchor="middle" x="528" y="-1049.7" font-family="MS Gothic" font-size="14.00">Woodpecker</text>
</g>
<!-- Woodpecker&#45;&gt;Buzzard -->
<g id="edge25" class="edge">
<title>Woodpecker&#45;&gt;Buzzard</title>
<path fill="none" stroke="black" d="M545.75,-1016.61C549.52,-1008.57 553.54,-999.99 557.45,-991.63"/>
<polygon fill="black" stroke="black" points="560.62,-993.13 561.69,-982.59 554.28,-990.16 560.62,-993.13"/>
</g>
<!-- Misfortune -->
<g id="node27" class="node">
<title>Misfortune</title>
<polygon fill="lightcoral" stroke="lightcoral" points="674.75,-1094 591.25,-1094 591.25,-1017 674.75,-1017 674.75,-1094"/>
<image xlink:href="img/mob.png" width="83.5px" height="77px" preserveAspectRatio="xMinYMin meet" x="591.25" y="-1094"/>
<text text-anchor="middle" x="633" y="-1049.7" font-family="MS Gothic" font-size="14.00">Misfortune</text>
</g>
<!-- Misfortune&#45;&gt;Buzzard -->
<g id="edge26" class="edge">
<title>Misfortune&#45;&gt;Buzzard</title>
<path fill="none" stroke="black" d="M614.91,-1016.61C611.03,-1008.48 606.88,-999.8 602.85,-991.35"/>
<polygon fill="black" stroke="black" points="606.13,-990.1 598.66,-982.58 599.81,-993.12 606.13,-990.1"/>
</g>
<!-- Herod -->
<g id="node28" class="node">
<title>Herod</title>
<polygon fill="lightblue" stroke="lightblue" points="461.5,-1207 384.5,-1207 384.5,-1130 461.5,-1130 461.5,-1207"/>
<image xlink:href="img/mob.png" width="77px" height="77px" preserveAspectRatio="xMinYMin meet" x="384.5" y="-1207"/>
<text text-anchor="middle" x="423" y="-1162.7" font-family="MS Gothic" font-size="14.00">Herod</text>
</g>
<!-- Herod&#45;&gt;Woodpecker -->
<g id="edge27" class="edge">
<title>Herod&#45;&gt;Woodpecker</title>
<path fill="none" stroke="black" d="M458.84,-1129.61C467.12,-1120.86 476.01,-1111.46 484.58,-1102.4"/>
<polygon fill="black" stroke="black" points="486.95,-1104.99 491.28,-1095.32 481.87,-1100.18 486.95,-1104.99"/>
</g>
<!-- Miss Ramsden -->
<g id="node29" class="node">
<title>Miss Ramsden</title>
<polygon fill="lightcoral" stroke="lightcoral" points="576.5,-1207 479.5,-1207 479.5,-1130 576.5,-1130 576.5,-1207"/>
<image xlink:href="img/mob.png" width="97px" height="77px" preserveAspectRatio="xMinYMin meet" x="479.5" y="-1207"/>
<text text-anchor="middle" x="528" y="-1162.7" font-family="MS Gothic" font-size="14.00">Miss Ramsden</text>
</g>
<!-- Miss Ramsden&#45;&gt;Woodpecker -->
<g id="edge28" class="edge">
<title>Miss Ramsden&#45;&gt;Woodpecker</title>
<path fill="none" stroke="black" d="M528,-1129.61C528,-1121.84 528,-1113.56 528,-1105.46"/>
<polygon fill="black" stroke="black" points="531.5,-1105.73 528,-1095.73 524.5,-1105.73 531.5,-1105.73"/>
</g>
<!-- Dux -->
<g id="node30" class="node">
<title>Dux</title>
<polygon fill="lightblue" stroke="lightblue" points="671.5,-1207 594.5,-1207 594.5,-1130 671.5,-1130 671.5,-1207"/>
<image xlink:href="img/mob.png" width="77px" height="77px" preserveAspectRatio="xMinYMin meet" x="594.5" y="-1207"/>
<text text-anchor="middle" x="633" y="-1162.7" font-family="MS Gothic" font-size="14.00">Dux</text>
</g>
<!-- Dux&#45;&gt;Misfortune -->
<g id="edge29" class="edge">
<title>Dux&#45;&gt;Misfortune</title>
<path fill="none" stroke="black" d="M633,-1129.61C633,-1121.84 633,-1113.56 633,-1105.46"/>
<polygon fill="black" stroke="black" points="636.5,-1105.73 633,-1095.73 629.5,-1105.73 636.5,-1105.73"/>
</g>
<!-- Curiosity -->
<g id="node31" class="node">
<title>Curiosity</title>
<polygon fill="lightcoral" stroke="lightcoral" points="766.5,-1207 689.5,-1207 689.5,-1130 766.5,-1130 766.5,-1207"/>
<image xlink:href="img/mob.png" width="77px" height="77px" preserveAspectRatio="xMinYMin meet" x="689.5" y="-1207"/>
<text text-anchor="middle" x="728" y="-1162.7" font-family="MS Gothic" font-size="14.00">Curiosity</text>
</g>
<!-- Curiosity&#45;&gt;Misfortune -->
<g id="edge30" class="edge">
<title>Curiosity&#45;&gt;Misfortune</title>
<path fill="none" stroke="black" d="M695.57,-1129.61C688.24,-1121.04 680.36,-1111.84 672.76,-1102.96"/>
<polygon fill="black" stroke="black" points="675.43,-1100.69 666.27,-1095.37 670.11,-1105.24 675.43,-1100.69"/>
</g>
<!-- Tartar -->
<g id="node32" class="node">
<title>Tartar</title>
<polygon fill="lightblue" stroke="lightblue" points="414.5,-1320 337.5,-1320 337.5,-1243 414.5,-1243 414.5,-1320"/>
<image xlink:href="img/mob.png" width="77px" height="77px" preserveAspectRatio="xMinYMin meet" x="337.5" y="-1320"/>
<text text-anchor="middle" x="376" y="-1275.7" font-family="MS Gothic" font-size="14.00">Tartar</text>
</g>
<!-- Tartar&#45;&gt;Herod -->
<g id="edge31" class="edge">
<title>Tartar&#45;&gt;Herod</title>
<path fill="none" stroke="black" d="M392.04,-1242.61C395.45,-1234.57 399.08,-1225.99 402.62,-1217.63"/>
<polygon fill="black" stroke="black" points="405.76,-1219.19 406.44,-1208.61 399.32,-1216.46 405.76,-1219.19"/>
</g>
<!-- Cypron -->
<g id="node33" class="node">
<title>Cypron</title>
<polygon fill="lightcoral" stroke="lightcoral" points="509.5,-1320 432.5,-1320 432.5,-1243 509.5,-1243 509.5,-1320"/>
<image xlink:href="img/mob.png" width="77px" height="77px" preserveAspectRatio="xMinYMin meet" x="432.5" y="-1320"/>
<text text-anchor="middle" x="471" y="-1275.7" font-family="MS Gothic" font-size="14.00">Cypron</text>
</g>
<!-- Cypron&#45;&gt;Herod -->
<g id="edge32" class="edge">
<title>Cypron&#45;&gt;Herod</title>
<path fill="none" stroke="black" d="M454.62,-1242.61C451.14,-1234.57 447.43,-1225.99 443.81,-1217.63"/>
<polygon fill="black" stroke="black" points="447.09,-1216.4 439.91,-1208.61 440.67,-1219.18 447.09,-1216.4"/>
</g>
<!-- Croft&#39;s Partner -->
<g id="node34" class="node">
<title>Croft&#39;s Partner</title>
<polygon fill="lightblue" stroke="lightblue" points="319.62,-1433 202.38,-1433 202.38,-1356 319.62,-1356 319.62,-1433"/>
<image xlink:href="img/mob.png" width="100px" height="77px" preserveAspectRatio="xMinYMin meet" x="211" y="-1433"/>
<text text-anchor="middle" x="261" y="-1388.7" font-family="MS Gothic" font-size="14.00">Croft&#39;s Partner</text>
</g>
<!-- Croft&#39;s Partner&#45;&gt;Tartar -->
<g id="edge33" class="edge">
<title>Croft&#39;s Partner&#45;&gt;Tartar</title>
<path fill="none" stroke="black" d="M300.25,-1355.61C309.51,-1346.67 319.48,-1337.06 329.04,-1327.83"/>
<polygon fill="black" stroke="black" points="331.46,-1330.36 336.22,-1320.89 326.6,-1325.32 331.46,-1330.36"/>
</g>
<!-- Meliora -->
<g id="node35" class="node">
<title>Meliora</title>
<polygon fill="lightcoral" stroke="lightcoral" points="414.5,-1433 337.5,-1433 337.5,-1356 414.5,-1356 414.5,-1433"/>
<image xlink:href="img/mob.png" width="77px" height="77px" preserveAspectRatio="xMinYMin meet" x="337.5" y="-1433"/>
<text text-anchor="middle" x="376" y="-1388.7" font-family="MS Gothic" font-size="14.00">Meliora</text>
</g>
<!-- Meliora&#45;&gt;Tartar -->
<g id="edge34" class="edge">
<title>Meliora&#45;&gt;Tartar</title>
<path fill="none" stroke="black" d="M376,-1355.61C376,-1347.84 376,-1339.56 376,-1331.46"/>
<polygon fill="black" stroke="black" points="379.5,-1331.73 376,-1321.73 372.5,-1331.73 379.5,-1331.73"/>
</g>
<!-- Blaze -->
<g id="node36" class="node">
<title>Blaze</title>
<polygon fill="lightblue" stroke="lightblue" points="509.5,-1433 432.5,-1433 432.5,-1356 509.5,-1356 509.5,-1433"/>
<image xlink:href="img/mob.png" width="77px" height="77px" preserveAspectRatio="xMinYMin meet" x="432.5" y="-1433"/>
<text text-anchor="middle" x="471" y="-1388.7" font-family="MS Gothic" font-size="14.00">Blaze</text>
</g>
<!-- Blaze&#45;&gt;Cypron -->
<g id="edge35" class="edge">
<title>Blaze&#45;&gt;Cypron</title>
<path fill="none" stroke="black" d="M471,-1355.61C471,-1347.84 471,-1339.56 471,-1331.46"/>
<polygon fill="black" stroke="black" points="474.5,-1331.73 471,-1321.73 467.5,-1331.73 474.5,-1331.73"/>
</g>
<!-- Salome -->
<g id="node37" class="node">
<title>Salome</title>
<polygon fill="lightcoral" stroke="lightcoral" points="604.5,-1433 527.5,-1433 527.5,-1356 604.5,-1356 604.5,-1433"/>
<image xlink:href="img/mob.png" width="77px" height="77px" preserveAspectRatio="xMinYMin meet" x="527.5" y="-1433"/>
<text text-anchor="middle" x="566" y="-1388.7" font-family="MS Gothic" font-size="14.00">Salome</text>
</g>
<!-- Salome&#45;&gt;Cypron -->
<g id="edge36" class="edge">
<title>Salome&#45;&gt;Cypron</title>
<path fill="none" stroke="black" d="M533.57,-1355.61C526.24,-1347.04 518.36,-1337.84 510.76,-1328.96"/>
<polygon fill="black" stroke="black" points="513.43,-1326.69 504.27,-1321.37 508.11,-1331.24 513.43,-1326.69"/>
</g>
<!-- Jigg -->
<g id="node38" class="node">
<title>Jigg</title>
<polygon fill="lightblue" stroke="lightblue" points="232.5,-1546 155.5,-1546 155.5,-1469 232.5,-1469 232.5,-1546"/>
<image xlink:href="img/mob.png" width="77px" height="77px" preserveAspectRatio="xMinYMin meet" x="155.5" y="-1546"/>
<text text-anchor="middle" x="194" y="-1501.7" font-family="MS Gothic" font-size="14.00">Jigg</text>
</g>
<!-- Jigg&#45;&gt;Croft&#39;s Partner -->
<g id="edge37" class="edge">
<title>Jigg&#45;&gt;Croft&#39;s Partner</title>
<path fill="none" stroke="black" d="M216.87,-1468.61C221.83,-1460.39 227.13,-1451.6 232.29,-1443.07"/>
<polygon fill="black" stroke="black" points="235.28,-1444.88 237.45,-1434.51 229.29,-1441.27 235.28,-1444.88"/>
</g>
<!-- Sister One to Mixbury -->
<g id="node39" class="node">
<title>Sister One to Mixbury</title>
<polygon fill="lightcoral" stroke="lightcoral" points="407.88,-1546 250.12,-1546 250.12,-1469 407.88,-1469 407.88,-1546"/>
<image xlink:href="img/mob.png" width="100px" height="77px" preserveAspectRatio="xMinYMin meet" x="279" y="-1546"/>
<text text-anchor="middle" x="329" y="-1501.7" font-family="MS Gothic" font-size="14.00">Sister One to Mixbury</text>
</g>
<!-- Sister One to Mixbury&#45;&gt;Croft&#39;s Partner -->
<g id="edge38" class="edge">
<title>Sister One to Mixbury&#45;&gt;Croft&#39;s Partner</title>
<path fill="none" stroke="black" d="M305.79,-1468.61C300.7,-1460.31 295.25,-1451.41 289.97,-1442.79"/>
<polygon fill="black" stroke="black" points="293.11,-1441.21 284.9,-1434.51 287.14,-1444.86 293.11,-1441.21"/>
</g>
<!-- バイアリーターク -->
<g id="node40" class="node">
<title>バイアリーターク</title>
<polygon fill="lightblue" stroke="lightblue" points="130,-1659 0,-1659 0,-1582 130,-1582 130,-1659"/>
<image xlink:href="img/baiaritaku.png" width="100px" height="77px" preserveAspectRatio="xMinYMin meet" x="15" y="-1659"/>
<text text-anchor="middle" x="65" y="-1614.7" font-family="MS Gothic" font-size="14.00">バイアリーターク</text>
</g>
<!-- バイアリーターク&#45;&gt;Jigg -->
<g id="edge39" class="edge">
<title>バイアリーターク&#45;&gt;Jigg</title>
<path fill="none" stroke="black" d="M109.03,-1581.61C121.25,-1571.1 134.56,-1559.65 146.94,-1548.99"/>
<polygon fill="black" stroke="black" points="148.9,-1551.93 154.19,-1542.75 144.33,-1546.62 148.9,-1551.93"/>
</g>
<!-- Spanker Mare -->
<g id="node41" class="node">
<title>Spanker Mare</title>
<polygon fill="lightcoral" stroke="lightcoral" points="245.5,-1659 148.5,-1659 148.5,-1582 245.5,-1582 245.5,-1659"/>
<image xlink:href="img/mob.png" width="97px" height="77px" preserveAspectRatio="xMinYMin meet" x="148.5" y="-1659"/>
<text text-anchor="middle" x="197" y="-1614.7" font-family="MS Gothic" font-size="14.00">Spanker Mare</text>
</g>
<!-- Spanker Mare&#45;&gt;Jigg -->
<g id="edge40" class="edge">
<title>Spanker Mare&#45;&gt;Jigg</title>
<path fill="none" stroke="black" d="M195.98,-1581.61C195.77,-1573.84 195.54,-1565.56 195.32,-1557.46"/>
<polygon fill="black" stroke="black" points="198.83,-1557.63 195.06,-1547.73 191.83,-1557.82 198.83,-1557.63"/>
</g>
<!-- Curwen Bay Barb -->
<g id="node42" class="node">
<title>Curwen Bay Barb</title>
<polygon fill="lightblue" stroke="lightblue" points="385.62,-1659 268.38,-1659 268.38,-1582 385.62,-1582 385.62,-1659"/>
<image xlink:href="img/mob.png" width="100px" height="77px" preserveAspectRatio="xMinYMin meet" x="277" y="-1659"/>
<text text-anchor="middle" x="327" y="-1614.7" font-family="MS Gothic" font-size="14.00">Curwen Bay Barb</text>
</g>
<!-- Curwen Bay Barb&#45;&gt;Sister One to Mixbury -->
<g id="edge41" class="edge">
<title>Curwen Bay Barb&#45;&gt;Sister One to Mixbury</title>
<path fill="none" stroke="black" d="M327.68,-1581.61C327.82,-1573.84 327.97,-1565.56 328.12,-1557.46"/>
<polygon fill="black" stroke="black" points="331.61,-1557.79 328.29,-1547.73 324.61,-1557.67 331.61,-1557.79"/>
</g>
<!-- Curwen Spot Mare -->
<g id="node43" class="node">
<title>Curwen Spot Mare</title>
<polygon fill="lightcoral" stroke="lightcoral" points="528,-1659 404,-1659 404,-1582 528,-1582 528,-1659"/>
<image xlink:href="img/mob.png" width="100px" height="77px" preserveAspectRatio="xMinYMin meet" x="416" y="-1659"/>
<text text-anchor="middle" x="466" y="-1614.7" font-family="MS Gothic" font-size="14.00">Curwen Spot Mare</text>
</g>
<!-- Curwen Spot Mare&#45;&gt;Sister One to Mixbury -->
<g id="edge42" class="edge">
<title>Curwen Spot Mare&#45;&gt;Sister One to Mixbury</title>
<path fill="none" stroke="black" d="M419.24,-1581.61C407.99,-1572.5 395.88,-1562.69 384.29,-1553.3"/>
<polygon fill="black" stroke="black" points="386.7,-1550.75 376.73,-1547.17 382.3,-1556.19 386.7,-1550.75"/>
</g>
</g>
</svg>
