<?xml version="1.0" encoding="UTF-8" standalone="no"?>
<!DOCTYPE svg PUBLIC "-//W3C//DTD SVG 1.1//EN"
 "http://www.w3.org/Graphics/SVG/1.1/DTD/svg11.dtd">
<!-- Generated by graphviz version 12.1.2 (20240928.0832)
 -->
<!-- Pages: 1 -->
<svg width="1857pt" height="2571pt"
 viewBox="0.00 0.00 1856.62 2571.00" xmlns="http://www.w3.org/2000/svg" xmlns:xlink="http://www.w3.org/1999/xlink">
<g id="graph0" class="graph" transform="scale(1 1) rotate(0) translate(4 2567)">
<polygon fill="white" stroke="none" points="-4,4 -4,-2567 1852.62,-2567 1852.62,4 -4,4"/>
<!-- Grey Sovereign -->
<g id="node1" class="node">
<title>Grey Sovereign</title>
<polygon fill="none" stroke="black" points="1712.88,-77 1611.38,-77 1611.38,0 1712.88,0 1712.88,-77"/>
<image xlink:href="img/mob.png" width="100px" height="77px" preserveAspectRatio="xMinYMin meet" x="1612.12" y="-77"/>
<text text-anchor="middle" x="1662.12" y="-33.45" font-family="Times New Roman,serif" font-size="14.00">Grey Sovereign</text>
</g>
<!-- Nasrullah -->
<g id="node2" class="node">
<title>Nasrullah</title>
<polygon fill="lightblue" stroke="lightblue" points="1648.62,-190 1571.62,-190 1571.62,-113 1648.62,-113 1648.62,-190"/>
<image xlink:href="img/mob.png" width="77px" height="77px" preserveAspectRatio="xMinYMin meet" x="1571.62" y="-190"/>
<text text-anchor="middle" x="1610.12" y="-145.7" font-family="MS Gothic" font-size="14.00">Nasrullah</text>
</g>
<!-- Nasrullah&#45;&gt;Grey Sovereign -->
<g id="edge1" class="edge">
<title>Nasrullah&#45;&gt;Grey Sovereign</title>
<path fill="none" stroke="black" d="M1627.88,-112.61C1631.64,-104.57 1635.66,-95.99 1639.58,-87.63"/>
<polygon fill="black" stroke="black" points="1642.74,-89.13 1643.81,-78.59 1636.4,-86.16 1642.74,-89.13"/>
</g>
<!-- Kong -->
<g id="node3" class="node">
<title>Kong</title>
<polygon fill="lightcoral" stroke="lightcoral" points="1753.62,-190 1676.62,-190 1676.62,-113 1753.62,-113 1753.62,-190"/>
<image xlink:href="img/mob.png" width="77px" height="77px" preserveAspectRatio="xMinYMin meet" x="1676.62" y="-190"/>
<text text-anchor="middle" x="1715.12" y="-145.7" font-family="MS Gothic" font-size="14.00">Kong</text>
</g>
<!-- Kong&#45;&gt;Grey Sovereign -->
<g id="edge2" class="edge">
<title>Kong&#45;&gt;Grey Sovereign</title>
<path fill="none" stroke="black" d="M1697.03,-112.61C1693.15,-104.48 1689.01,-95.8 1684.97,-87.35"/>
<polygon fill="black" stroke="black" points="1688.25,-86.1 1680.79,-78.58 1681.94,-89.12 1688.25,-86.1"/>
</g>
<!-- Nearco -->
<g id="node4" class="node">
<title>Nearco</title>
<polygon fill="lightblue" stroke="lightblue" points="1543.62,-303 1466.62,-303 1466.62,-226 1543.62,-226 1543.62,-303"/>
<image xlink:href="img/mob.png" width="77px" height="77px" preserveAspectRatio="xMinYMin meet" x="1466.62" y="-303"/>
<text text-anchor="middle" x="1505.12" y="-258.7" font-family="MS Gothic" font-size="14.00">Nearco</text>
</g>
<!-- Nearco&#45;&gt;Nasrullah -->
<g id="edge3" class="edge">
<title>Nearco&#45;&gt;Nasrullah</title>
<path fill="none" stroke="black" d="M1540.97,-225.61C1549.24,-216.86 1558.14,-207.46 1566.7,-198.4"/>
<polygon fill="black" stroke="black" points="1569.08,-200.99 1573.41,-191.32 1563.99,-196.18 1569.08,-200.99"/>
</g>
<!-- Mumtaz Begum -->
<g id="node5" class="node">
<title>Mumtaz Begum</title>
<polygon fill="lightcoral" stroke="lightcoral" points="1658.62,-303 1561.62,-303 1561.62,-226 1658.62,-226 1658.62,-303"/>
<image xlink:href="img/mob.png" width="97px" height="77px" preserveAspectRatio="xMinYMin meet" x="1561.62" y="-303"/>
<text text-anchor="middle" x="1610.12" y="-258.7" font-family="MS Gothic" font-size="14.00">Mumtaz Begum</text>
</g>
<!-- Mumtaz Begum&#45;&gt;Nasrullah -->
<g id="edge4" class="edge">
<title>Mumtaz Begum&#45;&gt;Nasrullah</title>
<path fill="none" stroke="black" d="M1610.12,-225.61C1610.12,-217.84 1610.12,-209.56 1610.12,-201.46"/>
<polygon fill="black" stroke="black" points="1613.63,-201.73 1610.13,-191.73 1606.63,-201.73 1613.63,-201.73"/>
</g>
<!-- Baytown -->
<g id="node6" class="node">
<title>Baytown</title>
<polygon fill="lightblue" stroke="lightblue" points="1753.62,-303 1676.62,-303 1676.62,-226 1753.62,-226 1753.62,-303"/>
<image xlink:href="img/mob.png" width="77px" height="77px" preserveAspectRatio="xMinYMin meet" x="1676.62" y="-303"/>
<text text-anchor="middle" x="1715.12" y="-258.7" font-family="MS Gothic" font-size="14.00">Baytown</text>
</g>
<!-- Baytown&#45;&gt;Kong -->
<g id="edge5" class="edge">
<title>Baytown&#45;&gt;Kong</title>
<path fill="none" stroke="black" d="M1715.12,-225.61C1715.12,-217.84 1715.12,-209.56 1715.12,-201.46"/>
<polygon fill="black" stroke="black" points="1718.63,-201.73 1715.13,-191.73 1711.63,-201.73 1718.63,-201.73"/>
</g>
<!-- Clang -->
<g id="node7" class="node">
<title>Clang</title>
<polygon fill="lightcoral" stroke="lightcoral" points="1848.62,-303 1771.62,-303 1771.62,-226 1848.62,-226 1848.62,-303"/>
<image xlink:href="img/mob.png" width="77px" height="77px" preserveAspectRatio="xMinYMin meet" x="1771.62" y="-303"/>
<text text-anchor="middle" x="1810.12" y="-258.7" font-family="MS Gothic" font-size="14.00">Clang</text>
</g>
<!-- Clang&#45;&gt;Kong -->
<g id="edge6" class="edge">
<title>Clang&#45;&gt;Kong</title>
<path fill="none" stroke="black" d="M1777.7,-225.61C1770.36,-217.04 1762.49,-207.84 1754.89,-198.96"/>
<polygon fill="black" stroke="black" points="1757.55,-196.69 1748.39,-191.37 1752.23,-201.24 1757.55,-196.69"/>
</g>
<!-- Pharos -->
<g id="node8" class="node">
<title>Pharos</title>
<polygon fill="lightblue" stroke="lightblue" points="1494.62,-416 1417.62,-416 1417.62,-339 1494.62,-339 1494.62,-416"/>
<image xlink:href="img/mob.png" width="77px" height="77px" preserveAspectRatio="xMinYMin meet" x="1417.62" y="-416"/>
<text text-anchor="middle" x="1456.12" y="-371.7" font-family="MS Gothic" font-size="14.00">Pharos</text>
</g>
<!-- Pharos&#45;&gt;Nearco -->
<g id="edge7" class="edge">
<title>Pharos&#45;&gt;Nearco</title>
<path fill="none" stroke="black" d="M1472.85,-338.61C1476.4,-330.57 1480.19,-321.99 1483.88,-313.63"/>
<polygon fill="black" stroke="black" points="1487.03,-315.17 1487.86,-304.6 1480.62,-312.34 1487.03,-315.17"/>
</g>
<!-- Nogara -->
<g id="node9" class="node">
<title>Nogara</title>
<polygon fill="lightcoral" stroke="lightcoral" points="1592.62,-416 1515.62,-416 1515.62,-339 1592.62,-339 1592.62,-416"/>
<image xlink:href="img/mob.png" width="77px" height="77px" preserveAspectRatio="xMinYMin meet" x="1515.62" y="-416"/>
<text text-anchor="middle" x="1554.12" y="-371.7" font-family="MS Gothic" font-size="14.00">Nogara</text>
</g>
<!-- Nogara&#45;&gt;Nearco -->
<g id="edge8" class="edge">
<title>Nogara&#45;&gt;Nearco</title>
<path fill="none" stroke="black" d="M1537.4,-338.61C1533.85,-330.57 1530.06,-321.99 1526.37,-313.63"/>
<polygon fill="black" stroke="black" points="1529.63,-312.34 1522.39,-304.6 1523.22,-315.17 1529.63,-312.34"/>
</g>
<!-- Phalaris -->
<g id="node10" class="node">
<title>Phalaris</title>
<polygon fill="lightblue" stroke="lightblue" points="1396.62,-529 1319.62,-529 1319.62,-452 1396.62,-452 1396.62,-529"/>
<image xlink:href="img/mob.png" width="77px" height="77px" preserveAspectRatio="xMinYMin meet" x="1319.62" y="-529"/>
<text text-anchor="middle" x="1358.12" y="-484.7" font-family="MS Gothic" font-size="14.00">Phalaris</text>
</g>
<!-- Phalaris&#45;&gt;Pharos -->
<g id="edge9" class="edge">
<title>Phalaris&#45;&gt;Pharos</title>
<path fill="none" stroke="black" d="M1391.58,-451.61C1399.22,-442.95 1407.44,-433.65 1415.35,-424.68"/>
<polygon fill="black" stroke="black" points="1417.83,-427.17 1421.82,-417.35 1412.58,-422.53 1417.83,-427.17"/>
</g>
<!-- Scapa Flow -->
<g id="node11" class="node">
<title>Scapa Flow</title>
<polygon fill="lightcoral" stroke="lightcoral" points="1497.88,-529 1414.38,-529 1414.38,-452 1497.88,-452 1497.88,-529"/>
<image xlink:href="img/mob.png" width="83.5px" height="77px" preserveAspectRatio="xMinYMin meet" x="1414.38" y="-529"/>
<text text-anchor="middle" x="1456.12" y="-484.7" font-family="MS Gothic" font-size="14.00">Scapa Flow</text>
</g>
<!-- Scapa Flow&#45;&gt;Pharos -->
<g id="edge10" class="edge">
<title>Scapa Flow&#45;&gt;Pharos</title>
<path fill="none" stroke="black" d="M1456.12,-451.61C1456.12,-443.84 1456.12,-435.56 1456.12,-427.46"/>
<polygon fill="black" stroke="black" points="1459.63,-427.73 1456.13,-417.73 1452.63,-427.73 1459.63,-427.73"/>
</g>
<!-- Havresac -->
<g id="node12" class="node">
<title>Havresac</title>
<polygon fill="lightblue" stroke="lightblue" points="1592.62,-529 1515.62,-529 1515.62,-452 1592.62,-452 1592.62,-529"/>
<image xlink:href="img/mob.png" width="77px" height="77px" preserveAspectRatio="xMinYMin meet" x="1515.62" y="-529"/>
<text text-anchor="middle" x="1554.12" y="-484.7" font-family="MS Gothic" font-size="14.00">Havresac</text>
</g>
<!-- Havresac&#45;&gt;Nogara -->
<g id="edge11" class="edge">
<title>Havresac&#45;&gt;Nogara</title>
<path fill="none" stroke="black" d="M1554.12,-451.61C1554.12,-443.84 1554.12,-435.56 1554.12,-427.46"/>
<polygon fill="black" stroke="black" points="1557.63,-427.73 1554.13,-417.73 1550.63,-427.73 1557.63,-427.73"/>
</g>
<!-- Catnip -->
<g id="node13" class="node">
<title>Catnip</title>
<polygon fill="lightcoral" stroke="lightcoral" points="1687.62,-529 1610.62,-529 1610.62,-452 1687.62,-452 1687.62,-529"/>
<image xlink:href="img/mob.png" width="77px" height="77px" preserveAspectRatio="xMinYMin meet" x="1610.62" y="-529"/>
<text text-anchor="middle" x="1649.12" y="-484.7" font-family="MS Gothic" font-size="14.00">Catnip</text>
</g>
<!-- Catnip&#45;&gt;Nogara -->
<g id="edge12" class="edge">
<title>Catnip&#45;&gt;Nogara</title>
<path fill="none" stroke="black" d="M1616.7,-451.61C1609.36,-443.04 1601.49,-433.84 1593.89,-424.96"/>
<polygon fill="black" stroke="black" points="1596.55,-422.69 1587.39,-417.37 1591.23,-427.24 1596.55,-422.69"/>
</g>
<!-- Polymelus -->
<g id="node14" class="node">
<title>Polymelus</title>
<polygon fill="lightblue" stroke="lightblue" points="1345.62,-642 1268.62,-642 1268.62,-565 1345.62,-565 1345.62,-642"/>
<image xlink:href="img/mob.png" width="77px" height="77px" preserveAspectRatio="xMinYMin meet" x="1268.62" y="-642"/>
<text text-anchor="middle" x="1307.12" y="-597.7" font-family="MS Gothic" font-size="14.00">Polymelus</text>
</g>
<!-- Polymelus&#45;&gt;Phalaris -->
<g id="edge13" class="edge">
<title>Polymelus&#45;&gt;Phalaris</title>
<path fill="none" stroke="black" d="M1324.53,-564.61C1328.23,-556.57 1332.17,-547.99 1336.01,-539.63"/>
<polygon fill="black" stroke="black" points="1339.17,-541.14 1340.16,-530.59 1332.81,-538.22 1339.17,-541.14"/>
</g>
<!-- Bromus -->
<g id="node15" class="node">
<title>Bromus</title>
<polygon fill="lightcoral" stroke="lightcoral" points="1447.62,-642 1370.62,-642 1370.62,-565 1447.62,-565 1447.62,-642"/>
<image xlink:href="img/mob.png" width="77px" height="77px" preserveAspectRatio="xMinYMin meet" x="1370.62" y="-642"/>
<text text-anchor="middle" x="1409.12" y="-597.7" font-family="MS Gothic" font-size="14.00">Bromus</text>
</g>
<!-- Bromus&#45;&gt;Phalaris -->
<g id="edge14" class="edge">
<title>Bromus&#45;&gt;Phalaris</title>
<path fill="none" stroke="black" d="M1391.72,-564.61C1388.02,-556.57 1384.08,-547.99 1380.24,-539.63"/>
<polygon fill="black" stroke="black" points="1383.44,-538.22 1376.09,-530.59 1377.08,-541.14 1383.44,-538.22"/>
</g>
<!-- Cyllene -->
<g id="node16" class="node">
<title>Cyllene</title>
<polygon fill="lightblue" stroke="lightblue" points="1243.62,-755 1166.62,-755 1166.62,-678 1243.62,-678 1243.62,-755"/>
<image xlink:href="img/mob.png" width="77px" height="77px" preserveAspectRatio="xMinYMin meet" x="1166.62" y="-755"/>
<text text-anchor="middle" x="1205.12" y="-710.7" font-family="MS Gothic" font-size="14.00">Cyllene</text>
</g>
<!-- Cyllene&#45;&gt;Polymelus -->
<g id="edge15" class="edge">
<title>Cyllene&#45;&gt;Polymelus</title>
<path fill="none" stroke="black" d="M1239.94,-677.61C1247.9,-668.95 1256.45,-659.65 1264.69,-650.68"/>
<polygon fill="black" stroke="black" points="1267.25,-653.06 1271.44,-643.33 1262.1,-648.33 1267.25,-653.06"/>
</g>
<!-- Maid Marian -->
<g id="node17" class="node">
<title>Maid Marian</title>
<polygon fill="lightcoral" stroke="lightcoral" points="1352.25,-755 1262,-755 1262,-678 1352.25,-678 1352.25,-755"/>
<image xlink:href="img/mob.png" width="90.25px" height="77px" preserveAspectRatio="xMinYMin meet" x="1262" y="-755"/>
<text text-anchor="middle" x="1307.12" y="-710.7" font-family="MS Gothic" font-size="14.00">Maid Marian</text>
</g>
<!-- Maid Marian&#45;&gt;Polymelus -->
<g id="edge16" class="edge">
<title>Maid Marian&#45;&gt;Polymelus</title>
<path fill="none" stroke="black" d="M1307.12,-677.61C1307.12,-669.84 1307.12,-661.56 1307.12,-653.46"/>
<polygon fill="black" stroke="black" points="1310.63,-653.73 1307.13,-643.73 1303.63,-653.73 1310.63,-653.73"/>
</g>
<!-- Sainfoin -->
<g id="node18" class="node">
<title>Sainfoin</title>
<polygon fill="lightblue" stroke="lightblue" points="1447.62,-755 1370.62,-755 1370.62,-678 1447.62,-678 1447.62,-755"/>
<image xlink:href="img/mob.png" width="77px" height="77px" preserveAspectRatio="xMinYMin meet" x="1370.62" y="-755"/>
<text text-anchor="middle" x="1409.12" y="-710.7" font-family="MS Gothic" font-size="14.00">Sainfoin</text>
</g>
<!-- Sainfoin&#45;&gt;Bromus -->
<g id="edge17" class="edge">
<title>Sainfoin&#45;&gt;Bromus</title>
<path fill="none" stroke="black" d="M1409.12,-677.61C1409.12,-669.84 1409.12,-661.56 1409.12,-653.46"/>
<polygon fill="black" stroke="black" points="1412.63,-653.73 1409.13,-643.73 1405.63,-653.73 1412.63,-653.73"/>
</g>
<!-- Cheery -->
<g id="node19" class="node">
<title>Cheery</title>
<polygon fill="lightcoral" stroke="lightcoral" points="1542.62,-755 1465.62,-755 1465.62,-678 1542.62,-678 1542.62,-755"/>
<image xlink:href="img/mob.png" width="77px" height="77px" preserveAspectRatio="xMinYMin meet" x="1465.62" y="-755"/>
<text text-anchor="middle" x="1504.12" y="-710.7" font-family="MS Gothic" font-size="14.00">Cheery</text>
</g>
<!-- Cheery&#45;&gt;Bromus -->
<g id="edge18" class="edge">
<title>Cheery&#45;&gt;Bromus</title>
<path fill="none" stroke="black" d="M1471.7,-677.61C1464.36,-669.04 1456.49,-659.84 1448.89,-650.96"/>
<polygon fill="black" stroke="black" points="1451.55,-648.69 1442.39,-643.37 1446.23,-653.24 1451.55,-648.69"/>
</g>
<!-- Bona Vista -->
<g id="node20" class="node">
<title>Bona Vista</title>
<polygon fill="lightblue" stroke="lightblue" points="1197.88,-868 1114.38,-868 1114.38,-791 1197.88,-791 1197.88,-868"/>
<image xlink:href="img/mob.png" width="83.5px" height="77px" preserveAspectRatio="xMinYMin meet" x="1114.38" y="-868"/>
<text text-anchor="middle" x="1156.12" y="-823.7" font-family="MS Gothic" font-size="14.00">Bona Vista</text>
</g>
<!-- Bona Vista&#45;&gt;Cyllene -->
<g id="edge19" class="edge">
<title>Bona Vista&#45;&gt;Cyllene</title>
<path fill="none" stroke="black" d="M1172.85,-790.61C1176.4,-782.57 1180.19,-773.99 1183.88,-765.63"/>
<polygon fill="black" stroke="black" points="1187.03,-767.17 1187.86,-756.6 1180.62,-764.34 1187.03,-767.17"/>
</g>
<!-- Arcadia -->
<g id="node21" class="node">
<title>Arcadia</title>
<polygon fill="lightcoral" stroke="lightcoral" points="1292.62,-868 1215.62,-868 1215.62,-791 1292.62,-791 1292.62,-868"/>
<image xlink:href="img/mob.png" width="77px" height="77px" preserveAspectRatio="xMinYMin meet" x="1215.62" y="-868"/>
<text text-anchor="middle" x="1254.12" y="-823.7" font-family="MS Gothic" font-size="14.00">Arcadia</text>
</g>
<!-- Arcadia&#45;&gt;Cyllene -->
<g id="edge20" class="edge">
<title>Arcadia&#45;&gt;Cyllene</title>
<path fill="none" stroke="black" d="M1237.4,-790.61C1233.85,-782.57 1230.06,-773.99 1226.37,-765.63"/>
<polygon fill="black" stroke="black" points="1229.63,-764.34 1222.39,-756.6 1223.22,-767.17 1229.63,-764.34"/>
</g>
<!-- Bend Or -->
<g id="node22" class="node">
<title>Bend Or</title>
<polygon fill="lightblue" stroke="lightblue" points="1100.62,-981 1023.62,-981 1023.62,-904 1100.62,-904 1100.62,-981"/>
<image xlink:href="img/mob.png" width="77px" height="77px" preserveAspectRatio="xMinYMin meet" x="1023.62" y="-981"/>
<text text-anchor="middle" x="1062.12" y="-936.7" font-family="MS Gothic" font-size="14.00">Bend Or</text>
</g>
<!-- Bend Or&#45;&gt;Bona Vista -->
<g id="edge21" class="edge">
<title>Bend Or&#45;&gt;Bona Vista</title>
<path fill="none" stroke="black" d="M1094.21,-903.61C1101.47,-895.04 1109.26,-885.84 1116.78,-876.96"/>
<polygon fill="black" stroke="black" points="1119.41,-879.27 1123.2,-869.37 1114.07,-874.74 1119.41,-879.27"/>
</g>
<!-- Vista -->
<g id="node23" class="node">
<title>Vista</title>
<polygon fill="lightcoral" stroke="lightcoral" points="1195.62,-981 1118.62,-981 1118.62,-904 1195.62,-904 1195.62,-981"/>
<image xlink:href="img/mob.png" width="77px" height="77px" preserveAspectRatio="xMinYMin meet" x="1118.62" y="-981"/>
<text text-anchor="middle" x="1157.12" y="-936.7" font-family="MS Gothic" font-size="14.00">Vista</text>
</g>
<!-- Vista&#45;&gt;Bona Vista -->
<g id="edge22" class="edge">
<title>Vista&#45;&gt;Bona Vista</title>
<path fill="none" stroke="black" d="M1156.78,-903.61C1156.71,-895.84 1156.64,-887.56 1156.57,-879.46"/>
<polygon fill="black" stroke="black" points="1160.07,-879.7 1156.48,-869.73 1153.07,-879.76 1160.07,-879.7"/>
</g>
<!-- Isonomy -->
<g id="node24" class="node">
<title>Isonomy</title>
<polygon fill="lightblue" stroke="lightblue" points="1291.62,-981 1214.62,-981 1214.62,-904 1291.62,-904 1291.62,-981"/>
<image xlink:href="img/mob.png" width="77px" height="77px" preserveAspectRatio="xMinYMin meet" x="1214.62" y="-981"/>
<text text-anchor="middle" x="1253.12" y="-936.7" font-family="MS Gothic" font-size="14.00">Isonomy</text>
</g>
<!-- Isonomy&#45;&gt;Arcadia -->
<g id="edge23" class="edge">
<title>Isonomy&#45;&gt;Arcadia</title>
<path fill="none" stroke="black" d="M1253.47,-903.61C1253.54,-895.84 1253.61,-887.56 1253.68,-879.46"/>
<polygon fill="black" stroke="black" points="1257.18,-879.76 1253.77,-869.73 1250.18,-879.7 1257.18,-879.76"/>
</g>
<!-- Distant Shore -->
<g id="node25" class="node">
<title>Distant Shore</title>
<polygon fill="lightcoral" stroke="lightcoral" points="1413,-981 1309.25,-981 1309.25,-904 1413,-904 1413,-981"/>
<image xlink:href="img/mob.png" width="100px" height="77px" preserveAspectRatio="xMinYMin meet" x="1311.12" y="-981"/>
<text text-anchor="middle" x="1361.12" y="-936.7" font-family="MS Gothic" font-size="14.00">Distant Shore</text>
</g>
<!-- Distant Shore&#45;&gt;Arcadia -->
<g id="edge24" class="edge">
<title>Distant Shore&#45;&gt;Arcadia</title>
<path fill="none" stroke="black" d="M1324.6,-903.61C1316.16,-894.86 1307.1,-885.46 1298.37,-876.4"/>
<polygon fill="black" stroke="black" points="1300.99,-874.08 1291.53,-869.31 1295.96,-878.94 1300.99,-874.08"/>
</g>
<!-- Doncaster -->
<g id="node26" class="node">
<title>Doncaster</title>
<polygon fill="lightblue" stroke="lightblue" points="1051.62,-1094 974.62,-1094 974.62,-1017 1051.62,-1017 1051.62,-1094"/>
<image xlink:href="img/mob.png" width="77px" height="77px" preserveAspectRatio="xMinYMin meet" x="974.625" y="-1094"/>
<text text-anchor="middle" x="1013.12" y="-1049.7" font-family="MS Gothic" font-size="14.00">Doncaster</text>
</g>
<!-- Doncaster&#45;&gt;Bend Or -->
<g id="edge25" class="edge">
<title>Doncaster&#45;&gt;Bend Or</title>
<path fill="none" stroke="black" d="M1029.85,-1016.61C1033.4,-1008.57 1037.19,-999.99 1040.88,-991.63"/>
<polygon fill="black" stroke="black" points="1044.03,-993.17 1044.86,-982.6 1037.62,-990.34 1044.03,-993.17"/>
</g>
<!-- Rouge Rose -->
<g id="node27" class="node">
<title>Rouge Rose</title>
<polygon fill="lightcoral" stroke="lightcoral" points="1152.88,-1094 1069.38,-1094 1069.38,-1017 1152.88,-1017 1152.88,-1094"/>
<image xlink:href="img/mob.png" width="83.5px" height="77px" preserveAspectRatio="xMinYMin meet" x="1069.38" y="-1094"/>
<text text-anchor="middle" x="1111.12" y="-1049.7" font-family="MS Gothic" font-size="14.00">Rouge Rose</text>
</g>
<!-- Rouge Rose&#45;&gt;Bend Or -->
<g id="edge26" class="edge">
<title>Rouge Rose&#45;&gt;Bend Or</title>
<path fill="none" stroke="black" d="M1094.4,-1016.61C1090.85,-1008.57 1087.06,-999.99 1083.37,-991.63"/>
<polygon fill="black" stroke="black" points="1086.63,-990.34 1079.39,-982.6 1080.22,-993.17 1086.63,-990.34"/>
</g>
<!-- Stockwell -->
<g id="node28" class="node">
<title>Stockwell</title>
<polygon fill="lightblue" stroke="lightblue" points="957.62,-1207 880.62,-1207 880.62,-1130 957.62,-1130 957.62,-1207"/>
<image xlink:href="img/mob.png" width="77px" height="77px" preserveAspectRatio="xMinYMin meet" x="880.625" y="-1207"/>
<text text-anchor="middle" x="919.12" y="-1162.7" font-family="MS Gothic" font-size="14.00">Stockwell</text>
</g>
<!-- Stockwell&#45;&gt;Doncaster -->
<g id="edge27" class="edge">
<title>Stockwell&#45;&gt;Doncaster</title>
<path fill="none" stroke="black" d="M951.21,-1129.61C958.47,-1121.04 966.26,-1111.84 973.78,-1102.96"/>
<polygon fill="black" stroke="black" points="976.41,-1105.27 980.2,-1095.37 971.07,-1100.74 976.41,-1105.27"/>
</g>
<!-- Marigold -->
<g id="node29" class="node">
<title>Marigold</title>
<polygon fill="lightcoral" stroke="lightcoral" points="1052.62,-1207 975.62,-1207 975.62,-1130 1052.62,-1130 1052.62,-1207"/>
<image xlink:href="img/mob.png" width="77px" height="77px" preserveAspectRatio="xMinYMin meet" x="975.625" y="-1207"/>
<text text-anchor="middle" x="1014.12" y="-1162.7" font-family="MS Gothic" font-size="14.00">Marigold</text>
</g>
<!-- Marigold&#45;&gt;Doncaster -->
<g id="edge28" class="edge">
<title>Marigold&#45;&gt;Doncaster</title>
<path fill="none" stroke="black" d="M1013.78,-1129.61C1013.71,-1121.84 1013.64,-1113.56 1013.57,-1105.46"/>
<polygon fill="black" stroke="black" points="1017.07,-1105.7 1013.48,-1095.73 1010.07,-1105.76 1017.07,-1105.7"/>
</g>
<!-- Thormanby -->
<g id="node30" class="node">
<title>Thormanby</title>
<polygon fill="lightblue" stroke="lightblue" points="1148.62,-1207 1071.62,-1207 1071.62,-1130 1148.62,-1130 1148.62,-1207"/>
<image xlink:href="img/mob.png" width="77px" height="77px" preserveAspectRatio="xMinYMin meet" x="1071.62" y="-1207"/>
<text text-anchor="middle" x="1110.12" y="-1162.7" font-family="MS Gothic" font-size="14.00">Thormanby</text>
</g>
<!-- Thormanby&#45;&gt;Rouge Rose -->
<g id="edge29" class="edge">
<title>Thormanby&#45;&gt;Rouge Rose</title>
<path fill="none" stroke="black" d="M1110.47,-1129.61C1110.54,-1121.84 1110.61,-1113.56 1110.68,-1105.46"/>
<polygon fill="black" stroke="black" points="1114.18,-1105.76 1110.77,-1095.73 1107.18,-1105.7 1114.18,-1105.76"/>
</g>
<!-- Ellen Horne -->
<g id="node31" class="node">
<title>Ellen Horne</title>
<polygon fill="lightcoral" stroke="lightcoral" points="1257.25,-1207 1167,-1207 1167,-1130 1257.25,-1130 1257.25,-1207"/>
<image xlink:href="img/mob.png" width="90.25px" height="77px" preserveAspectRatio="xMinYMin meet" x="1167" y="-1207"/>
<text text-anchor="middle" x="1212.12" y="-1162.7" font-family="MS Gothic" font-size="14.00">Ellen Horne</text>
</g>
<!-- Ellen Horne&#45;&gt;Rouge Rose -->
<g id="edge30" class="edge">
<title>Ellen Horne&#45;&gt;Rouge Rose</title>
<path fill="none" stroke="black" d="M1177.65,-1129.61C1169.77,-1120.95 1161.3,-1111.65 1153.15,-1102.68"/>
<polygon fill="black" stroke="black" points="1155.78,-1100.38 1146.46,-1095.34 1150.61,-1105.09 1155.78,-1100.38"/>
</g>
<!-- The Baron -->
<g id="node32" class="node">
<title>The Baron</title>
<polygon fill="lightblue" stroke="lightblue" points="908.62,-1320 831.62,-1320 831.62,-1243 908.62,-1243 908.62,-1320"/>
<image xlink:href="img/mob.png" width="77px" height="77px" preserveAspectRatio="xMinYMin meet" x="831.625" y="-1320"/>
<text text-anchor="middle" x="870.12" y="-1275.7" font-family="MS Gothic" font-size="14.00">The Baron</text>
</g>
<!-- The Baron&#45;&gt;Stockwell -->
<g id="edge31" class="edge">
<title>The Baron&#45;&gt;Stockwell</title>
<path fill="none" stroke="black" d="M886.85,-1242.61C890.4,-1234.57 894.19,-1225.99 897.88,-1217.63"/>
<polygon fill="black" stroke="black" points="901.03,-1219.17 901.86,-1208.6 894.62,-1216.34 901.03,-1219.17"/>
</g>
<!-- Pocahontas -->
<g id="node33" class="node">
<title>Pocahontas</title>
<polygon fill="lightcoral" stroke="lightcoral" points="1009.88,-1320 926.38,-1320 926.38,-1243 1009.88,-1243 1009.88,-1320"/>
<image xlink:href="img/mob.png" width="83.5px" height="77px" preserveAspectRatio="xMinYMin meet" x="926.375" y="-1320"/>
<text text-anchor="middle" x="968.12" y="-1275.7" font-family="MS Gothic" font-size="14.00">Pocahontas</text>
</g>
<!-- Pocahontas&#45;&gt;Stockwell -->
<g id="edge32" class="edge">
<title>Pocahontas&#45;&gt;Stockwell</title>
<path fill="none" stroke="black" d="M951.4,-1242.61C947.85,-1234.57 944.06,-1225.99 940.37,-1217.63"/>
<polygon fill="black" stroke="black" points="943.63,-1216.34 936.39,-1208.6 937.22,-1219.17 943.63,-1216.34"/>
</g>
<!-- Birdcatcher -->
<g id="node34" class="node">
<title>Birdcatcher</title>
<polygon fill="lightblue" stroke="lightblue" points="814.25,-1433 724,-1433 724,-1356 814.25,-1356 814.25,-1433"/>
<image xlink:href="img/mob.png" width="90.25px" height="77px" preserveAspectRatio="xMinYMin meet" x="724" y="-1433"/>
<text text-anchor="middle" x="769.12" y="-1388.7" font-family="MS Gothic" font-size="14.00">Birdcatcher</text>
</g>
<!-- Birdcatcher&#45;&gt;The Baron -->
<g id="edge33" class="edge">
<title>Birdcatcher&#45;&gt;The Baron</title>
<path fill="none" stroke="black" d="M803.6,-1355.61C811.48,-1346.95 819.95,-1337.65 828.1,-1328.68"/>
<polygon fill="black" stroke="black" points="830.64,-1331.09 834.79,-1321.34 825.47,-1326.38 830.64,-1331.09"/>
</g>
<!-- Echidna -->
<g id="node35" class="node">
<title>Echidna</title>
<polygon fill="lightcoral" stroke="lightcoral" points="909.62,-1433 832.62,-1433 832.62,-1356 909.62,-1356 909.62,-1433"/>
<image xlink:href="img/mob.png" width="77px" height="77px" preserveAspectRatio="xMinYMin meet" x="832.625" y="-1433"/>
<text text-anchor="middle" x="871.12" y="-1388.7" font-family="MS Gothic" font-size="14.00">Echidna</text>
</g>
<!-- Echidna&#45;&gt;The Baron -->
<g id="edge34" class="edge">
<title>Echidna&#45;&gt;The Baron</title>
<path fill="none" stroke="black" d="M870.78,-1355.61C870.71,-1347.84 870.64,-1339.56 870.57,-1331.46"/>
<polygon fill="black" stroke="black" points="874.07,-1331.7 870.48,-1321.73 867.07,-1331.76 874.07,-1331.7"/>
</g>
<!-- Glencoe -->
<g id="node36" class="node">
<title>Glencoe</title>
<polygon fill="lightblue" stroke="lightblue" points="1005.62,-1433 928.62,-1433 928.62,-1356 1005.62,-1356 1005.62,-1433"/>
<image xlink:href="img/mob.png" width="77px" height="77px" preserveAspectRatio="xMinYMin meet" x="928.625" y="-1433"/>
<text text-anchor="middle" x="967.12" y="-1388.7" font-family="MS Gothic" font-size="14.00">Glencoe</text>
</g>
<!-- Glencoe&#45;&gt;Pocahontas -->
<g id="edge35" class="edge">
<title>Glencoe&#45;&gt;Pocahontas</title>
<path fill="none" stroke="black" d="M967.47,-1355.61C967.54,-1347.84 967.61,-1339.56 967.68,-1331.46"/>
<polygon fill="black" stroke="black" points="971.18,-1331.76 967.77,-1321.73 964.18,-1331.7 971.18,-1331.76"/>
</g>
<!-- Marpessa -->
<g id="node37" class="node">
<title>Marpessa</title>
<polygon fill="lightcoral" stroke="lightcoral" points="1100.62,-1433 1023.62,-1433 1023.62,-1356 1100.62,-1356 1100.62,-1433"/>
<image xlink:href="img/mob.png" width="77px" height="77px" preserveAspectRatio="xMinYMin meet" x="1023.62" y="-1433"/>
<text text-anchor="middle" x="1062.12" y="-1388.7" font-family="MS Gothic" font-size="14.00">Marpessa</text>
</g>
<!-- Marpessa&#45;&gt;Pocahontas -->
<g id="edge36" class="edge">
<title>Marpessa&#45;&gt;Pocahontas</title>
<path fill="none" stroke="black" d="M1030.04,-1355.61C1022.78,-1347.04 1014.99,-1337.84 1007.47,-1328.96"/>
<polygon fill="black" stroke="black" points="1010.18,-1326.74 1001.05,-1321.37 1004.84,-1331.27 1010.18,-1326.74"/>
</g>
<!-- Sir Hercules -->
<g id="node38" class="node">
<title>Sir Hercules</title>
<polygon fill="lightblue" stroke="lightblue" points="765.62,-1546 668.62,-1546 668.62,-1469 765.62,-1469 765.62,-1546"/>
<image xlink:href="img/mob.png" width="97px" height="77px" preserveAspectRatio="xMinYMin meet" x="668.625" y="-1546"/>
<text text-anchor="middle" x="717.12" y="-1501.7" font-family="MS Gothic" font-size="14.00">Sir Hercules</text>
</g>
<!-- Sir Hercules&#45;&gt;Birdcatcher -->
<g id="edge37" class="edge">
<title>Sir Hercules&#45;&gt;Birdcatcher</title>
<path fill="none" stroke="black" d="M734.88,-1468.61C738.64,-1460.57 742.66,-1451.99 746.58,-1443.63"/>
<polygon fill="black" stroke="black" points="749.74,-1445.13 750.81,-1434.59 743.4,-1442.16 749.74,-1445.13"/>
</g>
<!-- Guiccioli -->
<g id="node39" class="node">
<title>Guiccioli</title>
<polygon fill="lightcoral" stroke="lightcoral" points="860.62,-1546 783.62,-1546 783.62,-1469 860.62,-1469 860.62,-1546"/>
<image xlink:href="img/mob.png" width="77px" height="77px" preserveAspectRatio="xMinYMin meet" x="783.625" y="-1546"/>
<text text-anchor="middle" x="822.12" y="-1501.7" font-family="MS Gothic" font-size="14.00">Guiccioli</text>
</g>
<!-- Guiccioli&#45;&gt;Birdcatcher -->
<g id="edge38" class="edge">
<title>Guiccioli&#45;&gt;Birdcatcher</title>
<path fill="none" stroke="black" d="M804.03,-1468.61C800.15,-1460.48 796.01,-1451.8 791.97,-1443.35"/>
<polygon fill="black" stroke="black" points="795.25,-1442.1 787.79,-1434.58 788.94,-1445.12 795.25,-1442.1"/>
</g>
<!-- Whalebone -->
<g id="node40" class="node">
<title>Whalebone</title>
<polygon fill="lightblue" stroke="lightblue" points="663.62,-1659 586.62,-1659 586.62,-1582 663.62,-1582 663.62,-1659"/>
<image xlink:href="img/mob.png" width="77px" height="77px" preserveAspectRatio="xMinYMin meet" x="586.625" y="-1659"/>
<text text-anchor="middle" x="625.12" y="-1614.7" font-family="MS Gothic" font-size="14.00">Whalebone</text>
</g>
<!-- Whalebone&#45;&gt;Sir Hercules -->
<g id="edge39" class="edge">
<title>Whalebone&#45;&gt;Sir Hercules</title>
<path fill="none" stroke="black" d="M656.53,-1581.61C663.63,-1573.04 671.26,-1563.84 678.62,-1554.96"/>
<polygon fill="black" stroke="black" points="681.21,-1557.32 684.9,-1547.38 675.82,-1552.85 681.21,-1557.32"/>
</g>
<!-- Peri -->
<g id="node41" class="node">
<title>Peri</title>
<polygon fill="lightcoral" stroke="lightcoral" points="758.62,-1659 681.62,-1659 681.62,-1582 758.62,-1582 758.62,-1659"/>
<image xlink:href="img/mob.png" width="77px" height="77px" preserveAspectRatio="xMinYMin meet" x="681.625" y="-1659"/>
<text text-anchor="middle" x="720.12" y="-1614.7" font-family="MS Gothic" font-size="14.00">Peri</text>
</g>
<!-- Peri&#45;&gt;Sir Hercules -->
<g id="edge40" class="edge">
<title>Peri&#45;&gt;Sir Hercules</title>
<path fill="none" stroke="black" d="M719.1,-1581.61C718.89,-1573.84 718.67,-1565.56 718.45,-1557.46"/>
<polygon fill="black" stroke="black" points="721.95,-1557.63 718.19,-1547.73 714.96,-1557.82 721.95,-1557.63"/>
</g>
<!-- Bob Booty -->
<g id="node42" class="node">
<title>Bob Booty</title>
<polygon fill="lightblue" stroke="lightblue" points="858.62,-1659 781.62,-1659 781.62,-1582 858.62,-1582 858.62,-1659"/>
<image xlink:href="img/mob.png" width="77px" height="77px" preserveAspectRatio="xMinYMin meet" x="781.625" y="-1659"/>
<text text-anchor="middle" x="820.12" y="-1614.7" font-family="MS Gothic" font-size="14.00">Bob Booty</text>
</g>
<!-- Bob Booty&#45;&gt;Guiccioli -->
<g id="edge41" class="edge">
<title>Bob Booty&#45;&gt;Guiccioli</title>
<path fill="none" stroke="black" d="M820.81,-1581.61C820.95,-1573.84 821.1,-1565.56 821.24,-1557.46"/>
<polygon fill="black" stroke="black" points="824.74,-1557.79 821.42,-1547.73 817.74,-1557.67 824.74,-1557.79"/>
</g>
<!-- Flight -->
<g id="node43" class="node">
<title>Flight</title>
<polygon fill="lightcoral" stroke="lightcoral" points="953.62,-1659 876.62,-1659 876.62,-1582 953.62,-1582 953.62,-1659"/>
<image xlink:href="img/mob.png" width="77px" height="77px" preserveAspectRatio="xMinYMin meet" x="876.625" y="-1659"/>
<text text-anchor="middle" x="915.12" y="-1614.7" font-family="MS Gothic" font-size="14.00">Flight</text>
</g>
<!-- Flight&#45;&gt;Guiccioli -->
<g id="edge42" class="edge">
<title>Flight&#45;&gt;Guiccioli</title>
<path fill="none" stroke="black" d="M883.38,-1581.61C876.2,-1573.04 868.49,-1563.84 861.05,-1554.96"/>
<polygon fill="black" stroke="black" points="863.8,-1552.8 854.7,-1547.38 858.44,-1557.29 863.8,-1552.8"/>
</g>
<!-- Waxy -->
<g id="node44" class="node">
<title>Waxy</title>
<polygon fill="lightblue" stroke="lightblue" points="616.62,-1772 539.62,-1772 539.62,-1695 616.62,-1695 616.62,-1772"/>
<image xlink:href="img/mob.png" width="77px" height="77px" preserveAspectRatio="xMinYMin meet" x="539.625" y="-1772"/>
<text text-anchor="middle" x="578.12" y="-1727.7" font-family="MS Gothic" font-size="14.00">Waxy</text>
</g>
<!-- Waxy&#45;&gt;Whalebone -->
<g id="edge43" class="edge">
<title>Waxy&#45;&gt;Whalebone</title>
<path fill="none" stroke="black" d="M594.17,-1694.61C597.57,-1686.57 601.21,-1677.99 604.75,-1669.63"/>
<polygon fill="black" stroke="black" points="607.89,-1671.19 608.56,-1660.61 601.44,-1668.46 607.89,-1671.19"/>
</g>
<!-- Penelope -->
<g id="node45" class="node">
<title>Penelope</title>
<polygon fill="lightcoral" stroke="lightcoral" points="711.62,-1772 634.62,-1772 634.62,-1695 711.62,-1695 711.62,-1772"/>
<image xlink:href="img/mob.png" width="77px" height="77px" preserveAspectRatio="xMinYMin meet" x="634.625" y="-1772"/>
<text text-anchor="middle" x="673.12" y="-1727.7" font-family="MS Gothic" font-size="14.00">Penelope</text>
</g>
<!-- Penelope&#45;&gt;Whalebone -->
<g id="edge44" class="edge">
<title>Penelope&#45;&gt;Whalebone</title>
<path fill="none" stroke="black" d="M656.74,-1694.61C653.26,-1686.57 649.55,-1677.99 645.94,-1669.63"/>
<polygon fill="black" stroke="black" points="649.22,-1668.4 642.04,-1660.61 642.79,-1671.18 649.22,-1668.4"/>
</g>
<!-- Pot&#45;8&#45;Os -->
<g id="node46" class="node">
<title>Pot&#45;8&#45;Os</title>
<polygon fill="lightblue" stroke="lightblue" points="521.62,-1885 444.62,-1885 444.62,-1808 521.62,-1808 521.62,-1885"/>
<image xlink:href="img/mob.png" width="77px" height="77px" preserveAspectRatio="xMinYMin meet" x="444.625" y="-1885"/>
<text text-anchor="middle" x="483.12" y="-1840.7" font-family="MS Gothic" font-size="14.00">Pot&#45;8&#45;Os</text>
</g>
<!-- Pot&#45;8&#45;Os&#45;&gt;Waxy -->
<g id="edge45" class="edge">
<title>Pot&#45;8&#45;Os&#45;&gt;Waxy</title>
<path fill="none" stroke="black" d="M515.55,-1807.61C522.89,-1799.04 530.76,-1789.84 538.36,-1780.96"/>
<polygon fill="black" stroke="black" points="541.02,-1783.24 544.86,-1773.37 535.7,-1778.69 541.02,-1783.24"/>
</g>
<!-- Maria III -->
<g id="node47" class="node">
<title>Maria III</title>
<polygon fill="lightcoral" stroke="lightcoral" points="616.62,-1885 539.62,-1885 539.62,-1808 616.62,-1808 616.62,-1885"/>
<image xlink:href="img/mob.png" width="77px" height="77px" preserveAspectRatio="xMinYMin meet" x="539.625" y="-1885"/>
<text text-anchor="middle" x="578.12" y="-1840.7" font-family="MS Gothic" font-size="14.00">Maria III</text>
</g>
<!-- Maria III&#45;&gt;Waxy -->
<g id="edge46" class="edge">
<title>Maria III&#45;&gt;Waxy</title>
<path fill="none" stroke="black" d="M578.12,-1807.61C578.12,-1799.84 578.12,-1791.56 578.12,-1783.46"/>
<polygon fill="black" stroke="black" points="581.63,-1783.73 578.13,-1773.73 574.63,-1783.73 581.63,-1783.73"/>
</g>
<!-- Trumpator -->
<g id="node48" class="node">
<title>Trumpator</title>
<polygon fill="lightblue" stroke="lightblue" points="711.62,-1885 634.62,-1885 634.62,-1808 711.62,-1808 711.62,-1885"/>
<image xlink:href="img/mob.png" width="77px" height="77px" preserveAspectRatio="xMinYMin meet" x="634.625" y="-1885"/>
<text text-anchor="middle" x="673.12" y="-1840.7" font-family="MS Gothic" font-size="14.00">Trumpator</text>
</g>
<!-- Trumpator&#45;&gt;Penelope -->
<g id="edge47" class="edge">
<title>Trumpator&#45;&gt;Penelope</title>
<path fill="none" stroke="black" d="M673.12,-1807.61C673.12,-1799.84 673.12,-1791.56 673.12,-1783.46"/>
<polygon fill="black" stroke="black" points="676.63,-1783.73 673.13,-1773.73 669.63,-1783.73 676.63,-1783.73"/>
</g>
<!-- Prunella -->
<g id="node49" class="node">
<title>Prunella</title>
<polygon fill="lightcoral" stroke="lightcoral" points="806.62,-1885 729.62,-1885 729.62,-1808 806.62,-1808 806.62,-1885"/>
<image xlink:href="img/mob.png" width="77px" height="77px" preserveAspectRatio="xMinYMin meet" x="729.625" y="-1885"/>
<text text-anchor="middle" x="768.12" y="-1840.7" font-family="MS Gothic" font-size="14.00">Prunella</text>
</g>
<!-- Prunella&#45;&gt;Penelope -->
<g id="edge48" class="edge">
<title>Prunella&#45;&gt;Penelope</title>
<path fill="none" stroke="black" d="M735.7,-1807.61C728.36,-1799.04 720.49,-1789.84 712.89,-1780.96"/>
<polygon fill="black" stroke="black" points="715.55,-1778.69 706.39,-1773.37 710.23,-1783.24 715.55,-1778.69"/>
</g>
<!-- Eclipse -->
<g id="node50" class="node">
<title>Eclipse</title>
<polygon fill="lightblue" stroke="lightblue" points="465.62,-1998 388.62,-1998 388.62,-1921 465.62,-1921 465.62,-1998"/>
<image xlink:href="img/mob.png" width="77px" height="77px" preserveAspectRatio="xMinYMin meet" x="388.625" y="-1998"/>
<text text-anchor="middle" x="427.12" y="-1953.7" font-family="MS Gothic" font-size="14.00">Eclipse</text>
</g>
<!-- Eclipse&#45;&gt;Pot&#45;8&#45;Os -->
<g id="edge49" class="edge">
<title>Eclipse&#45;&gt;Pot&#45;8&#45;Os</title>
<path fill="none" stroke="black" d="M446.24,-1920.61C450.34,-1912.48 454.72,-1903.8 458.99,-1895.35"/>
<polygon fill="black" stroke="black" points="462.03,-1897.07 463.41,-1886.57 455.78,-1893.92 462.03,-1897.07"/>
</g>
<!-- Sportsmistress -->
<g id="node51" class="node">
<title>Sportsmistress</title>
<polygon fill="lightcoral" stroke="lightcoral" points="594.38,-1998 483.88,-1998 483.88,-1921 594.38,-1921 594.38,-1998"/>
<image xlink:href="img/mob.png" width="100px" height="77px" preserveAspectRatio="xMinYMin meet" x="489.125" y="-1998"/>
<text text-anchor="middle" x="539.12" y="-1953.7" font-family="MS Gothic" font-size="14.00">Sportsmistress</text>
</g>
<!-- Sportsmistress&#45;&gt;Pot&#45;8&#45;Os -->
<g id="edge50" class="edge">
<title>Sportsmistress&#45;&gt;Pot&#45;8&#45;Os</title>
<path fill="none" stroke="black" d="M520.01,-1920.61C515.91,-1912.48 511.53,-1903.8 507.26,-1895.35"/>
<polygon fill="black" stroke="black" points="510.47,-1893.92 502.84,-1886.57 504.22,-1897.07 510.47,-1893.92"/>
</g>
<!-- Marske -->
<g id="node52" class="node">
<title>Marske</title>
<polygon fill="lightblue" stroke="lightblue" points="375.62,-2111 298.62,-2111 298.62,-2034 375.62,-2034 375.62,-2111"/>
<image xlink:href="img/mob.png" width="77px" height="77px" preserveAspectRatio="xMinYMin meet" x="298.625" y="-2111"/>
<text text-anchor="middle" x="337.12" y="-2066.7" font-family="MS Gothic" font-size="14.00">Marske</text>
</g>
<!-- Marske&#45;&gt;Eclipse -->
<g id="edge51" class="edge">
<title>Marske&#45;&gt;Eclipse</title>
<path fill="none" stroke="black" d="M367.85,-2033.61C374.8,-2025.04 382.26,-2015.84 389.46,-2006.96"/>
<polygon fill="black" stroke="black" points="392.01,-2009.37 395.59,-1999.39 386.57,-2004.96 392.01,-2009.37"/>
</g>
<!-- Spilletta -->
<g id="node53" class="node">
<title>Spilletta</title>
<polygon fill="lightcoral" stroke="lightcoral" points="470.62,-2111 393.62,-2111 393.62,-2034 470.62,-2034 470.62,-2111"/>
<image xlink:href="img/mob.png" width="77px" height="77px" preserveAspectRatio="xMinYMin meet" x="393.625" y="-2111"/>
<text text-anchor="middle" x="432.12" y="-2066.7" font-family="MS Gothic" font-size="14.00">Spilletta</text>
</g>
<!-- Spilletta&#45;&gt;Eclipse -->
<g id="edge52" class="edge">
<title>Spilletta&#45;&gt;Eclipse</title>
<path fill="none" stroke="black" d="M430.42,-2033.61C430.07,-2025.84 429.7,-2017.56 429.33,-2009.46"/>
<polygon fill="black" stroke="black" points="432.84,-2009.56 428.89,-1999.73 425.85,-2009.88 432.84,-2009.56"/>
</g>
<!-- Sportsman -->
<g id="node54" class="node">
<title>Sportsman</title>
<polygon fill="lightblue" stroke="lightblue" points="573.62,-2111 496.62,-2111 496.62,-2034 573.62,-2034 573.62,-2111"/>
<image xlink:href="img/mob.png" width="77px" height="77px" preserveAspectRatio="xMinYMin meet" x="496.625" y="-2111"/>
<text text-anchor="middle" x="535.12" y="-2066.7" font-family="MS Gothic" font-size="14.00">Sportsman</text>
</g>
<!-- Sportsman&#45;&gt;Sportsmistress -->
<g id="edge53" class="edge">
<title>Sportsman&#45;&gt;Sportsmistress</title>
<path fill="none" stroke="black" d="M536.49,-2033.61C536.77,-2025.84 537.07,-2017.56 537.36,-2009.46"/>
<polygon fill="black" stroke="black" points="540.85,-2009.85 537.71,-1999.73 533.85,-2009.6 540.85,-2009.85"/>
</g>
<!-- Golden Locks -->
<g id="node55" class="node">
<title>Golden Locks</title>
<polygon fill="lightcoral" stroke="lightcoral" points="688.62,-2111 591.62,-2111 591.62,-2034 688.62,-2034 688.62,-2111"/>
<image xlink:href="img/mob.png" width="97px" height="77px" preserveAspectRatio="xMinYMin meet" x="591.625" y="-2111"/>
<text text-anchor="middle" x="640.12" y="-2066.7" font-family="MS Gothic" font-size="14.00">Golden Locks</text>
</g>
<!-- Golden Locks&#45;&gt;Sportsmistress -->
<g id="edge54" class="edge">
<title>Golden Locks&#45;&gt;Sportsmistress</title>
<path fill="none" stroke="black" d="M605.65,-2033.61C597.77,-2024.95 589.3,-2015.65 581.15,-2006.68"/>
<polygon fill="black" stroke="black" points="583.78,-2004.38 574.46,-1999.34 578.61,-2009.09 583.78,-2004.38"/>
</g>
<!-- Squirt -->
<g id="node56" class="node">
<title>Squirt</title>
<polygon fill="lightblue" stroke="lightblue" points="304.62,-2224 227.62,-2224 227.62,-2147 304.62,-2147 304.62,-2224"/>
<image xlink:href="img/mob.png" width="77px" height="77px" preserveAspectRatio="xMinYMin meet" x="227.625" y="-2224"/>
<text text-anchor="middle" x="266.12" y="-2179.7" font-family="MS Gothic" font-size="14.00">Squirt</text>
</g>
<!-- Squirt&#45;&gt;Marske -->
<g id="edge55" class="edge">
<title>Squirt&#45;&gt;Marske</title>
<path fill="none" stroke="black" d="M290.36,-2146.61C295.67,-2138.31 301.36,-2129.41 306.88,-2120.79"/>
<polygon fill="black" stroke="black" points="309.74,-2122.8 312.18,-2112.49 303.85,-2119.03 309.74,-2122.8"/>
</g>
<!-- Hutton&#39;s Blacklegs Mare -->
<g id="node57" class="node">
<title>Hutton&#39;s Blacklegs Mare</title>
<polygon fill="lightcoral" stroke="lightcoral" points="493.75,-2224 322.5,-2224 322.5,-2147 493.75,-2147 493.75,-2224"/>
<image xlink:href="img/mob.png" width="100px" height="77px" preserveAspectRatio="xMinYMin meet" x="358.125" y="-2224"/>
<text text-anchor="middle" x="408.12" y="-2179.7" font-family="MS Gothic" font-size="14.00">Hutton&#39;s Blacklegs Mare</text>
</g>
<!-- Hutton&#39;s Blacklegs Mare&#45;&gt;Marske -->
<g id="edge56" class="edge">
<title>Hutton&#39;s Blacklegs Mare&#45;&gt;Marske</title>
<path fill="none" stroke="black" d="M383.89,-2146.61C378.58,-2138.31 372.89,-2129.41 367.37,-2120.79"/>
<polygon fill="black" stroke="black" points="370.4,-2119.03 362.07,-2112.49 364.51,-2122.8 370.4,-2119.03"/>
</g>
<!-- Bartlet&#39;s Childers -->
<g id="node58" class="node">
<title>Bartlet&#39;s Childers</title>
<polygon fill="lightblue" stroke="lightblue" points="209.88,-2337 72.38,-2337 72.38,-2260 209.88,-2260 209.88,-2337"/>
<image xlink:href="img/mob.png" width="100px" height="77px" preserveAspectRatio="xMinYMin meet" x="91.125" y="-2337"/>
<text text-anchor="middle" x="141.12" y="-2292.7" font-family="MS Gothic" font-size="14.00">Bartlet&#39;s Childers</text>
</g>
<!-- Bartlet&#39;s Childers&#45;&gt;Squirt -->
<g id="edge57" class="edge">
<title>Bartlet&#39;s Childers&#45;&gt;Squirt</title>
<path fill="none" stroke="black" d="M183.79,-2259.61C195.18,-2249.5 207.54,-2238.53 219.14,-2228.22"/>
<polygon fill="black" stroke="black" points="221.14,-2231.13 226.29,-2221.87 216.49,-2225.89 221.14,-2231.13"/>
</g>
<!-- Snake Mare -->
<g id="node59" class="node">
<title>Snake Mare</title>
<polygon fill="lightcoral" stroke="lightcoral" points="311.88,-2337 228.38,-2337 228.38,-2260 311.88,-2260 311.88,-2337"/>
<image xlink:href="img/mob.png" width="83.5px" height="77px" preserveAspectRatio="xMinYMin meet" x="228.375" y="-2337"/>
<text text-anchor="middle" x="270.12" y="-2292.7" font-family="MS Gothic" font-size="14.00">Snake Mare</text>
</g>
<!-- Snake Mare&#45;&gt;Squirt -->
<g id="edge58" class="edge">
<title>Snake Mare&#45;&gt;Squirt</title>
<path fill="none" stroke="black" d="M268.76,-2259.61C268.48,-2251.84 268.18,-2243.56 267.89,-2235.46"/>
<polygon fill="black" stroke="black" points="271.4,-2235.6 267.54,-2225.73 264.4,-2235.85 271.4,-2235.6"/>
</g>
<!-- Hutton&#39;s Blacklegs -->
<g id="node60" class="node">
<title>Hutton&#39;s Blacklegs</title>
<polygon fill="lightblue" stroke="lightblue" points="473.88,-2337 336.38,-2337 336.38,-2260 473.88,-2260 473.88,-2337"/>
<image xlink:href="img/mob.png" width="100px" height="77px" preserveAspectRatio="xMinYMin meet" x="355.125" y="-2337"/>
<text text-anchor="middle" x="405.12" y="-2292.7" font-family="MS Gothic" font-size="14.00">Hutton&#39;s Blacklegs</text>
</g>
<!-- Hutton&#39;s Blacklegs&#45;&gt;Hutton&#39;s Blacklegs Mare -->
<g id="edge59" class="edge">
<title>Hutton&#39;s Blacklegs&#45;&gt;Hutton&#39;s Blacklegs Mare</title>
<path fill="none" stroke="black" d="M406.15,-2259.61C406.36,-2251.84 406.58,-2243.56 406.8,-2235.46"/>
<polygon fill="black" stroke="black" points="410.29,-2235.82 407.06,-2225.73 403.3,-2235.63 410.29,-2235.82"/>
</g>
<!-- Bay Bolton Mare -->
<g id="node61" class="node">
<title>Bay Bolton Mare</title>
<polygon fill="lightcoral" stroke="lightcoral" points="608.75,-2337 491.5,-2337 491.5,-2260 608.75,-2260 608.75,-2337"/>
<image xlink:href="img/mob.png" width="100px" height="77px" preserveAspectRatio="xMinYMin meet" x="500.125" y="-2337"/>
<text text-anchor="middle" x="550.12" y="-2292.7" font-family="MS Gothic" font-size="14.00">Bay Bolton Mare</text>
</g>
<!-- Bay Bolton Mare&#45;&gt;Hutton&#39;s Blacklegs Mare -->
<g id="edge60" class="edge">
<title>Bay Bolton Mare&#45;&gt;Hutton&#39;s Blacklegs Mare</title>
<path fill="none" stroke="black" d="M501.65,-2259.61C490,-2250.5 477.45,-2240.69 465.43,-2231.3"/>
<polygon fill="black" stroke="black" points="467.6,-2228.55 457.57,-2225.15 463.29,-2234.07 467.6,-2228.55"/>
</g>
<!-- ダーレーアラビアン -->
<g id="node62" class="node">
<title>ダーレーアラビアン</title>
<polygon fill="lightblue" stroke="lightblue" points="144.25,-2450 0,-2450 0,-2373 144.25,-2373 144.25,-2450"/>
<image xlink:href="img/darearabian.png" width="100px" height="77px" preserveAspectRatio="xMinYMin meet" x="22.125" y="-2450"/>
<text text-anchor="middle" x="72.12" y="-2405.7" font-family="MS Gothic" font-size="14.00">ダーレーアラビアン</text>
</g>
<!-- ダーレーアラビアン&#45;&gt;Bartlet&#39;s Childers -->
<g id="edge61" class="edge">
<title>ダーレーアラビアン&#45;&gt;Bartlet&#39;s Childers</title>
<path fill="none" stroke="black" d="M95.68,-2372.61C100.84,-2364.31 106.37,-2355.41 111.73,-2346.79"/>
<polygon fill="black" stroke="black" points="114.57,-2348.84 116.88,-2338.5 108.63,-2345.15 114.57,-2348.84"/>
</g>
<!-- Betty Leedes -->
<g id="node63" class="node">
<title>Betty Leedes</title>
<polygon fill="lightcoral" stroke="lightcoral" points="259.62,-2450 162.62,-2450 162.62,-2373 259.62,-2373 259.62,-2450"/>
<image xlink:href="img/mob.png" width="97px" height="77px" preserveAspectRatio="xMinYMin meet" x="162.625" y="-2450"/>
<text text-anchor="middle" x="211.12" y="-2405.7" font-family="MS Gothic" font-size="14.00">Betty Leedes</text>
</g>
<!-- Betty Leedes&#45;&gt;Bartlet&#39;s Childers -->
<g id="edge62" class="edge">
<title>Betty Leedes&#45;&gt;Bartlet&#39;s Childers</title>
<path fill="none" stroke="black" d="M187.23,-2372.61C181.99,-2364.31 176.39,-2355.41 170.95,-2346.79"/>
<polygon fill="black" stroke="black" points="174.01,-2345.09 165.72,-2338.5 168.09,-2348.82 174.01,-2345.09"/>
</g>
<!-- Old Careless -->
<g id="node64" class="node">
<title>Old Careless</title>
<polygon fill="lightblue" stroke="lightblue" points="201.62,-2563 104.62,-2563 104.62,-2486 201.62,-2486 201.62,-2563"/>
<image xlink:href="img/mob.png" width="97px" height="77px" preserveAspectRatio="xMinYMin meet" x="104.625" y="-2563"/>
<text text-anchor="middle" x="153.12" y="-2518.7" font-family="MS Gothic" font-size="14.00">Old Careless</text>
</g>
<!-- Old Careless&#45;&gt;Betty Leedes -->
<g id="edge63" class="edge">
<title>Old Careless&#45;&gt;Betty Leedes</title>
<path fill="none" stroke="black" d="M172.92,-2485.61C177.17,-2477.48 181.71,-2468.8 186.12,-2460.35"/>
<polygon fill="black" stroke="black" points="189.19,-2462.04 190.72,-2451.56 182.98,-2458.8 189.19,-2462.04"/>
</g>
<!-- Cream Cheeks -->
<g id="node65" class="node">
<title>Cream Cheeks</title>
<polygon fill="lightcoral" stroke="lightcoral" points="316.62,-2563 219.62,-2563 219.62,-2486 316.62,-2486 316.62,-2563"/>
<image xlink:href="img/mob.png" width="97px" height="77px" preserveAspectRatio="xMinYMin meet" x="219.625" y="-2563"/>
<text text-anchor="middle" x="268.12" y="-2518.7" font-family="MS Gothic" font-size="14.00">Cream Cheeks</text>
</g>
<!-- Cream Cheeks&#45;&gt;Betty Leedes -->
<g id="edge64" class="edge">
<title>Cream Cheeks&#45;&gt;Betty Leedes</title>
<path fill="none" stroke="black" d="M248.67,-2485.61C244.5,-2477.48 240.03,-2468.8 235.7,-2460.35"/>
<polygon fill="black" stroke="black" points="238.87,-2458.86 231.19,-2451.57 232.64,-2462.06 238.87,-2458.86"/>
</g>
</g>
</svg>
