<?xml version="1.0" encoding="UTF-8" standalone="no"?>
<!DOCTYPE svg PUBLIC "-//W3C//DTD SVG 1.1//EN"
 "http://www.w3.org/Graphics/SVG/1.1/DTD/svg11.dtd">
<!-- Generated by graphviz version 12.1.2 (20240928.0832)
 -->
<!-- Pages: 1 -->
<svg width="613pt" height="537pt"
 viewBox="0.00 0.00 612.50 537.00" xmlns="http://www.w3.org/2000/svg" xmlns:xlink="http://www.w3.org/1999/xlink">
<g id="graph0" class="graph" transform="scale(1 1) rotate(0) translate(4 533)">
<polygon fill="white" stroke="none" points="-4,4 -4,-533 608.5,-533 608.5,4 -4,4"/>
<!-- Herod -->
<g id="node1" class="node">
<title>Herod</title>
<polygon fill="none" stroke="black" points="461.5,-77 384.5,-77 384.5,0 461.5,0 461.5,-77"/>
<image xlink:href="img/mob.png" width="77px" height="77px" preserveAspectRatio="xMinYMin meet" x="384.5" y="-77"/>
<text text-anchor="middle" x="423" y="-33.45" font-family="Times New Roman,serif" font-size="14.00">Herod</text>
</g>
<!-- Tartar -->
<g id="node2" class="node">
<title>Tartar</title>
<polygon fill="lightblue" stroke="lightblue" points="414.5,-190 337.5,-190 337.5,-113 414.5,-113 414.5,-190"/>
<image xlink:href="img/mob.png" width="77px" height="77px" preserveAspectRatio="xMinYMin meet" x="337.5" y="-190"/>
<text text-anchor="middle" x="376" y="-145.7" font-family="MS Gothic" font-size="14.00">Tartar</text>
</g>
<!-- Tartar&#45;&gt;Herod -->
<g id="edge1" class="edge">
<title>Tartar&#45;&gt;Herod</title>
<path fill="none" stroke="black" d="M392.04,-112.61C395.45,-104.57 399.08,-95.99 402.62,-87.63"/>
<polygon fill="black" stroke="black" points="405.76,-89.19 406.44,-78.61 399.32,-86.46 405.76,-89.19"/>
</g>
<!-- Cypron -->
<g id="node3" class="node">
<title>Cypron</title>
<polygon fill="lightcoral" stroke="lightcoral" points="509.5,-190 432.5,-190 432.5,-113 509.5,-113 509.5,-190"/>
<image xlink:href="img/mob.png" width="77px" height="77px" preserveAspectRatio="xMinYMin meet" x="432.5" y="-190"/>
<text text-anchor="middle" x="471" y="-145.7" font-family="MS Gothic" font-size="14.00">Cypron</text>
</g>
<!-- Cypron&#45;&gt;Herod -->
<g id="edge2" class="edge">
<title>Cypron&#45;&gt;Herod</title>
<path fill="none" stroke="black" d="M454.62,-112.61C451.14,-104.57 447.43,-95.99 443.81,-87.63"/>
<polygon fill="black" stroke="black" points="447.09,-86.4 439.91,-78.61 440.67,-89.18 447.09,-86.4"/>
</g>
<!-- Croft&#39;s Partner -->
<g id="node4" class="node">
<title>Croft&#39;s Partner</title>
<polygon fill="lightblue" stroke="lightblue" points="319.62,-303 202.38,-303 202.38,-226 319.62,-226 319.62,-303"/>
<image xlink:href="img/mob.png" width="100px" height="77px" preserveAspectRatio="xMinYMin meet" x="211" y="-303"/>
<text text-anchor="middle" x="261" y="-258.7" font-family="MS Gothic" font-size="14.00">Croft&#39;s Partner</text>
</g>
<!-- Croft&#39;s Partner&#45;&gt;Tartar -->
<g id="edge3" class="edge">
<title>Croft&#39;s Partner&#45;&gt;Tartar</title>
<path fill="none" stroke="black" d="M300.25,-225.61C309.51,-216.67 319.48,-207.06 329.04,-197.83"/>
<polygon fill="black" stroke="black" points="331.46,-200.36 336.22,-190.89 326.6,-195.32 331.46,-200.36"/>
</g>
<!-- Meliora -->
<g id="node5" class="node">
<title>Meliora</title>
<polygon fill="lightcoral" stroke="lightcoral" points="414.5,-303 337.5,-303 337.5,-226 414.5,-226 414.5,-303"/>
<image xlink:href="img/mob.png" width="77px" height="77px" preserveAspectRatio="xMinYMin meet" x="337.5" y="-303"/>
<text text-anchor="middle" x="376" y="-258.7" font-family="MS Gothic" font-size="14.00">Meliora</text>
</g>
<!-- Meliora&#45;&gt;Tartar -->
<g id="edge4" class="edge">
<title>Meliora&#45;&gt;Tartar</title>
<path fill="none" stroke="black" d="M376,-225.61C376,-217.84 376,-209.56 376,-201.46"/>
<polygon fill="black" stroke="black" points="379.5,-201.73 376,-191.73 372.5,-201.73 379.5,-201.73"/>
</g>
<!-- Blaze -->
<g id="node6" class="node">
<title>Blaze</title>
<polygon fill="lightblue" stroke="lightblue" points="509.5,-303 432.5,-303 432.5,-226 509.5,-226 509.5,-303"/>
<image xlink:href="img/mob.png" width="77px" height="77px" preserveAspectRatio="xMinYMin meet" x="432.5" y="-303"/>
<text text-anchor="middle" x="471" y="-258.7" font-family="MS Gothic" font-size="14.00">Blaze</text>
</g>
<!-- Blaze&#45;&gt;Cypron -->
<g id="edge5" class="edge">
<title>Blaze&#45;&gt;Cypron</title>
<path fill="none" stroke="black" d="M471,-225.61C471,-217.84 471,-209.56 471,-201.46"/>
<polygon fill="black" stroke="black" points="474.5,-201.73 471,-191.73 467.5,-201.73 474.5,-201.73"/>
</g>
<!-- Salome -->
<g id="node7" class="node">
<title>Salome</title>
<polygon fill="lightcoral" stroke="lightcoral" points="604.5,-303 527.5,-303 527.5,-226 604.5,-226 604.5,-303"/>
<image xlink:href="img/mob.png" width="77px" height="77px" preserveAspectRatio="xMinYMin meet" x="527.5" y="-303"/>
<text text-anchor="middle" x="566" y="-258.7" font-family="MS Gothic" font-size="14.00">Salome</text>
</g>
<!-- Salome&#45;&gt;Cypron -->
<g id="edge6" class="edge">
<title>Salome&#45;&gt;Cypron</title>
<path fill="none" stroke="black" d="M533.57,-225.61C526.24,-217.04 518.36,-207.84 510.76,-198.96"/>
<polygon fill="black" stroke="black" points="513.43,-196.69 504.27,-191.37 508.11,-201.24 513.43,-196.69"/>
</g>
<!-- Jigg -->
<g id="node8" class="node">
<title>Jigg</title>
<polygon fill="lightblue" stroke="lightblue" points="232.5,-416 155.5,-416 155.5,-339 232.5,-339 232.5,-416"/>
<image xlink:href="img/mob.png" width="77px" height="77px" preserveAspectRatio="xMinYMin meet" x="155.5" y="-416"/>
<text text-anchor="middle" x="194" y="-371.7" font-family="MS Gothic" font-size="14.00">Jigg</text>
</g>
<!-- Jigg&#45;&gt;Croft&#39;s Partner -->
<g id="edge7" class="edge">
<title>Jigg&#45;&gt;Croft&#39;s Partner</title>
<path fill="none" stroke="black" d="M216.87,-338.61C221.83,-330.39 227.13,-321.6 232.29,-313.07"/>
<polygon fill="black" stroke="black" points="235.28,-314.88 237.45,-304.51 229.29,-311.27 235.28,-314.88"/>
</g>
<!-- Sister One to Mixbury -->
<g id="node9" class="node">
<title>Sister One to Mixbury</title>
<polygon fill="lightcoral" stroke="lightcoral" points="407.88,-416 250.12,-416 250.12,-339 407.88,-339 407.88,-416"/>
<image xlink:href="img/mob.png" width="100px" height="77px" preserveAspectRatio="xMinYMin meet" x="279" y="-416"/>
<text text-anchor="middle" x="329" y="-371.7" font-family="MS Gothic" font-size="14.00">Sister One to Mixbury</text>
</g>
<!-- Sister One to Mixbury&#45;&gt;Croft&#39;s Partner -->
<g id="edge8" class="edge">
<title>Sister One to Mixbury&#45;&gt;Croft&#39;s Partner</title>
<path fill="none" stroke="black" d="M305.79,-338.61C300.7,-330.31 295.25,-321.41 289.97,-312.79"/>
<polygon fill="black" stroke="black" points="293.11,-311.21 284.9,-304.51 287.14,-314.86 293.11,-311.21"/>
</g>
<!-- バイアリーターク -->
<g id="node10" class="node">
<title>バイアリーターク</title>
<polygon fill="lightblue" stroke="lightblue" points="130,-529 0,-529 0,-452 130,-452 130,-529"/>
<image xlink:href="img/baiaritaku.png" width="100px" height="77px" preserveAspectRatio="xMinYMin meet" x="15" y="-529"/>
<text text-anchor="middle" x="65" y="-484.7" font-family="MS Gothic" font-size="14.00">バイアリーターク</text>
</g>
<!-- バイアリーターク&#45;&gt;Jigg -->
<g id="edge9" class="edge">
<title>バイアリーターク&#45;&gt;Jigg</title>
<path fill="none" stroke="black" d="M109.03,-451.61C121.25,-441.1 134.56,-429.65 146.94,-418.99"/>
<polygon fill="black" stroke="black" points="148.9,-421.93 154.19,-412.75 144.33,-416.62 148.9,-421.93"/>
</g>
<!-- Spanker Mare -->
<g id="node11" class="node">
<title>Spanker Mare</title>
<polygon fill="lightcoral" stroke="lightcoral" points="245.5,-529 148.5,-529 148.5,-452 245.5,-452 245.5,-529"/>
<image xlink:href="img/mob.png" width="97px" height="77px" preserveAspectRatio="xMinYMin meet" x="148.5" y="-529"/>
<text text-anchor="middle" x="197" y="-484.7" font-family="MS Gothic" font-size="14.00">Spanker Mare</text>
</g>
<!-- Spanker Mare&#45;&gt;Jigg -->
<g id="edge10" class="edge">
<title>Spanker Mare&#45;&gt;Jigg</title>
<path fill="none" stroke="black" d="M195.98,-451.61C195.77,-443.84 195.54,-435.56 195.32,-427.46"/>
<polygon fill="black" stroke="black" points="198.83,-427.63 195.06,-417.73 191.83,-427.82 198.83,-427.63"/>
</g>
<!-- Curwen Bay Barb -->
<g id="node12" class="node">
<title>Curwen Bay Barb</title>
<polygon fill="lightblue" stroke="lightblue" points="385.62,-529 268.38,-529 268.38,-452 385.62,-452 385.62,-529"/>
<image xlink:href="img/mob.png" width="100px" height="77px" preserveAspectRatio="xMinYMin meet" x="277" y="-529"/>
<text text-anchor="middle" x="327" y="-484.7" font-family="MS Gothic" font-size="14.00">Curwen Bay Barb</text>
</g>
<!-- Curwen Bay Barb&#45;&gt;Sister One to Mixbury -->
<g id="edge11" class="edge">
<title>Curwen Bay Barb&#45;&gt;Sister One to Mixbury</title>
<path fill="none" stroke="black" d="M327.68,-451.61C327.82,-443.84 327.97,-435.56 328.12,-427.46"/>
<polygon fill="black" stroke="black" points="331.61,-427.79 328.29,-417.73 324.61,-427.67 331.61,-427.79"/>
</g>
<!-- Curwen Spot Mare -->
<g id="node13" class="node">
<title>Curwen Spot Mare</title>
<polygon fill="lightcoral" stroke="lightcoral" points="528,-529 404,-529 404,-452 528,-452 528,-529"/>
<image xlink:href="img/mob.png" width="100px" height="77px" preserveAspectRatio="xMinYMin meet" x="416" y="-529"/>
<text text-anchor="middle" x="466" y="-484.7" font-family="MS Gothic" font-size="14.00">Curwen Spot Mare</text>
</g>
<!-- Curwen Spot Mare&#45;&gt;Sister One to Mixbury -->
<g id="edge12" class="edge">
<title>Curwen Spot Mare&#45;&gt;Sister One to Mixbury</title>
<path fill="none" stroke="black" d="M419.24,-451.61C407.99,-442.5 395.88,-432.69 384.29,-423.3"/>
<polygon fill="black" stroke="black" points="386.7,-420.75 376.73,-417.17 382.3,-426.19 386.7,-420.75"/>
</g>
</g>
</svg>
