<?xml version="1.0" encoding="UTF-8" standalone="no"?>
<!DOCTYPE svg PUBLIC "-//W3C//DTD SVG 1.1//EN"
 "http://www.w3.org/Graphics/SVG/1.1/DTD/svg11.dtd">
<!-- Generated by graphviz version 12.1.2 (20240928.0832)
 -->
<!-- Pages: 1 -->
<svg width="797pt" height="989pt"
 viewBox="0.00 0.00 796.62 989.00" xmlns="http://www.w3.org/2000/svg" xmlns:xlink="http://www.w3.org/1999/xlink">
<g id="graph0" class="graph" transform="scale(1 1) rotate(0) translate(4 985)">
<polygon fill="white" stroke="none" points="-4,4 -4,-985 792.62,-985 792.62,4 -4,4"/>
<!-- Humphrey Clinker -->
<g id="node1" class="node">
<title>Humphrey Clinker</title>
<polygon fill="none" stroke="black" points="660.5,-77 541.75,-77 541.75,0 660.5,0 660.5,-77"/>
<image xlink:href="img/mob.png" width="100px" height="77px" preserveAspectRatio="xMinYMin meet" x="551.125" y="-77"/>
<text text-anchor="middle" x="601.12" y="-33.45" font-family="Times New Roman,serif" font-size="14.00">Humphrey Clinker</text>
</g>
<!-- Comus -->
<g id="node2" class="node">
<title>Comus</title>
<polygon fill="lightblue" stroke="lightblue" points="585.62,-190 508.62,-190 508.62,-113 585.62,-113 585.62,-190"/>
<image xlink:href="img/mob.png" width="77px" height="77px" preserveAspectRatio="xMinYMin meet" x="508.625" y="-190"/>
<text text-anchor="middle" x="547.12" y="-145.7" font-family="MS Gothic" font-size="14.00">Comus</text>
</g>
<!-- Comus&#45;&gt;Humphrey Clinker -->
<g id="edge1" class="edge">
<title>Comus&#45;&gt;Humphrey Clinker</title>
<path fill="none" stroke="black" d="M565.56,-112.61C569.51,-104.48 573.74,-95.8 577.85,-87.35"/>
<polygon fill="black" stroke="black" points="580.89,-89.1 582.11,-78.58 574.59,-86.04 580.89,-89.1"/>
</g>
<!-- Clinkerina -->
<g id="node3" class="node">
<title>Clinkerina</title>
<polygon fill="lightcoral" stroke="lightcoral" points="696.88,-190 613.38,-190 613.38,-113 696.88,-113 696.88,-190"/>
<image xlink:href="img/mob.png" width="83.5px" height="77px" preserveAspectRatio="xMinYMin meet" x="613.375" y="-190"/>
<text text-anchor="middle" x="655.12" y="-145.7" font-family="MS Gothic" font-size="14.00">Clinkerina</text>
</g>
<!-- Clinkerina&#45;&gt;Humphrey Clinker -->
<g id="edge2" class="edge">
<title>Clinkerina&#45;&gt;Humphrey Clinker</title>
<path fill="none" stroke="black" d="M636.69,-112.61C632.74,-104.48 628.51,-95.8 624.4,-87.35"/>
<polygon fill="black" stroke="black" points="627.66,-86.04 620.14,-78.58 621.36,-89.1 627.66,-86.04"/>
</g>
<!-- Sorcerer -->
<g id="node4" class="node">
<title>Sorcerer</title>
<polygon fill="lightblue" stroke="lightblue" points="477.62,-303 400.62,-303 400.62,-226 477.62,-226 477.62,-303"/>
<image xlink:href="img/mob.png" width="77px" height="77px" preserveAspectRatio="xMinYMin meet" x="400.625" y="-303"/>
<text text-anchor="middle" x="439.12" y="-258.7" font-family="MS Gothic" font-size="14.00">Sorcerer</text>
</g>
<!-- Sorcerer&#45;&gt;Comus -->
<g id="edge3" class="edge">
<title>Sorcerer&#45;&gt;Comus</title>
<path fill="none" stroke="black" d="M475.99,-225.61C484.51,-216.86 493.65,-207.46 502.46,-198.4"/>
<polygon fill="black" stroke="black" points="504.91,-200.91 509.37,-191.3 499.89,-196.03 504.91,-200.91"/>
</g>
<!-- Houghton Lass -->
<g id="node5" class="node">
<title>Houghton Lass</title>
<polygon fill="lightcoral" stroke="lightcoral" points="599,-303 495.25,-303 495.25,-226 599,-226 599,-303"/>
<image xlink:href="img/mob.png" width="100px" height="77px" preserveAspectRatio="xMinYMin meet" x="497.125" y="-303"/>
<text text-anchor="middle" x="547.12" y="-258.7" font-family="MS Gothic" font-size="14.00">Houghton Lass</text>
</g>
<!-- Houghton Lass&#45;&gt;Comus -->
<g id="edge4" class="edge">
<title>Houghton Lass&#45;&gt;Comus</title>
<path fill="none" stroke="black" d="M547.12,-225.61C547.12,-217.84 547.12,-209.56 547.12,-201.46"/>
<polygon fill="black" stroke="black" points="550.63,-201.73 547.13,-191.73 543.63,-201.73 550.63,-201.73"/>
</g>
<!-- Clinker -->
<g id="node6" class="node">
<title>Clinker</title>
<polygon fill="lightblue" stroke="lightblue" points="693.62,-303 616.62,-303 616.62,-226 693.62,-226 693.62,-303"/>
<image xlink:href="img/mob.png" width="77px" height="77px" preserveAspectRatio="xMinYMin meet" x="616.625" y="-303"/>
<text text-anchor="middle" x="655.12" y="-258.7" font-family="MS Gothic" font-size="14.00">Clinker</text>
</g>
<!-- Clinker&#45;&gt;Clinkerina -->
<g id="edge5" class="edge">
<title>Clinker&#45;&gt;Clinkerina</title>
<path fill="none" stroke="black" d="M655.12,-225.61C655.12,-217.84 655.12,-209.56 655.12,-201.46"/>
<polygon fill="black" stroke="black" points="658.63,-201.73 655.13,-191.73 651.63,-201.73 658.63,-201.73"/>
</g>
<!-- Pewet -->
<g id="node7" class="node">
<title>Pewet</title>
<polygon fill="lightcoral" stroke="lightcoral" points="788.62,-303 711.62,-303 711.62,-226 788.62,-226 788.62,-303"/>
<image xlink:href="img/mob.png" width="77px" height="77px" preserveAspectRatio="xMinYMin meet" x="711.625" y="-303"/>
<text text-anchor="middle" x="750.12" y="-258.7" font-family="MS Gothic" font-size="14.00">Pewet</text>
</g>
<!-- Pewet&#45;&gt;Clinkerina -->
<g id="edge6" class="edge">
<title>Pewet&#45;&gt;Clinkerina</title>
<path fill="none" stroke="black" d="M717.7,-225.61C710.36,-217.04 702.49,-207.84 694.89,-198.96"/>
<polygon fill="black" stroke="black" points="697.55,-196.69 688.39,-191.37 692.23,-201.24 697.55,-196.69"/>
</g>
<!-- Trumpator -->
<g id="node8" class="node">
<title>Trumpator</title>
<polygon fill="lightblue" stroke="lightblue" points="421.62,-416 344.62,-416 344.62,-339 421.62,-339 421.62,-416"/>
<image xlink:href="img/mob.png" width="77px" height="77px" preserveAspectRatio="xMinYMin meet" x="344.625" y="-416"/>
<text text-anchor="middle" x="383.12" y="-371.7" font-family="MS Gothic" font-size="14.00">Trumpator</text>
</g>
<!-- Trumpator&#45;&gt;Sorcerer -->
<g id="edge7" class="edge">
<title>Trumpator&#45;&gt;Sorcerer</title>
<path fill="none" stroke="black" d="M402.24,-338.61C406.34,-330.48 410.72,-321.8 414.99,-313.35"/>
<polygon fill="black" stroke="black" points="418.03,-315.07 419.41,-304.57 411.78,-311.92 418.03,-315.07"/>
</g>
<!-- Young Giantess -->
<g id="node9" class="node">
<title>Young Giantess</title>
<polygon fill="lightcoral" stroke="lightcoral" points="550.38,-416 439.88,-416 439.88,-339 550.38,-339 550.38,-416"/>
<image xlink:href="img/mob.png" width="100px" height="77px" preserveAspectRatio="xMinYMin meet" x="445.125" y="-416"/>
<text text-anchor="middle" x="495.12" y="-371.7" font-family="MS Gothic" font-size="14.00">Young Giantess</text>
</g>
<!-- Young Giantess&#45;&gt;Sorcerer -->
<g id="edge8" class="edge">
<title>Young Giantess&#45;&gt;Sorcerer</title>
<path fill="none" stroke="black" d="M476.01,-338.61C471.91,-330.48 467.53,-321.8 463.26,-313.35"/>
<polygon fill="black" stroke="black" points="466.47,-311.92 458.84,-304.57 460.22,-315.07 466.47,-311.92"/>
</g>
<!-- Conductor -->
<g id="node10" class="node">
<title>Conductor</title>
<polygon fill="lightblue" stroke="lightblue" points="331.62,-529 254.62,-529 254.62,-452 331.62,-452 331.62,-529"/>
<image xlink:href="img/mob.png" width="77px" height="77px" preserveAspectRatio="xMinYMin meet" x="254.625" y="-529"/>
<text text-anchor="middle" x="293.12" y="-484.7" font-family="MS Gothic" font-size="14.00">Conductor</text>
</g>
<!-- Conductor&#45;&gt;Trumpator -->
<g id="edge9" class="edge">
<title>Conductor&#45;&gt;Trumpator</title>
<path fill="none" stroke="black" d="M323.85,-451.61C330.8,-443.04 338.26,-433.84 345.46,-424.96"/>
<polygon fill="black" stroke="black" points="348.01,-427.37 351.59,-417.39 342.57,-422.96 348.01,-427.37"/>
</g>
<!-- Brunette -->
<g id="node11" class="node">
<title>Brunette</title>
<polygon fill="lightcoral" stroke="lightcoral" points="426.62,-529 349.62,-529 349.62,-452 426.62,-452 426.62,-529"/>
<image xlink:href="img/mob.png" width="77px" height="77px" preserveAspectRatio="xMinYMin meet" x="349.625" y="-529"/>
<text text-anchor="middle" x="388.12" y="-484.7" font-family="MS Gothic" font-size="14.00">Brunette</text>
</g>
<!-- Brunette&#45;&gt;Trumpator -->
<g id="edge10" class="edge">
<title>Brunette&#45;&gt;Trumpator</title>
<path fill="none" stroke="black" d="M386.42,-451.61C386.07,-443.84 385.7,-435.56 385.33,-427.46"/>
<polygon fill="black" stroke="black" points="388.84,-427.56 384.89,-417.73 381.85,-427.88 388.84,-427.56"/>
</g>
<!-- Diomed -->
<g id="node12" class="node">
<title>Diomed</title>
<polygon fill="lightblue" stroke="lightblue" points="529.62,-529 452.62,-529 452.62,-452 529.62,-452 529.62,-529"/>
<image xlink:href="img/mob.png" width="77px" height="77px" preserveAspectRatio="xMinYMin meet" x="452.625" y="-529"/>
<text text-anchor="middle" x="491.12" y="-484.7" font-family="MS Gothic" font-size="14.00">Diomed</text>
</g>
<!-- Diomed&#45;&gt;Young Giantess -->
<g id="edge11" class="edge">
<title>Diomed&#45;&gt;Young Giantess</title>
<path fill="none" stroke="black" d="M492.49,-451.61C492.77,-443.84 493.07,-435.56 493.36,-427.46"/>
<polygon fill="black" stroke="black" points="496.85,-427.85 493.71,-417.73 489.85,-427.6 496.85,-427.85"/>
</g>
<!-- Giantess -->
<g id="node13" class="node">
<title>Giantess</title>
<polygon fill="lightcoral" stroke="lightcoral" points="624.62,-529 547.62,-529 547.62,-452 624.62,-452 624.62,-529"/>
<image xlink:href="img/mob.png" width="77px" height="77px" preserveAspectRatio="xMinYMin meet" x="547.625" y="-529"/>
<text text-anchor="middle" x="586.12" y="-484.7" font-family="MS Gothic" font-size="14.00">Giantess</text>
</g>
<!-- Giantess&#45;&gt;Young Giantess -->
<g id="edge12" class="edge">
<title>Giantess&#45;&gt;Young Giantess</title>
<path fill="none" stroke="black" d="M555.06,-451.61C548.03,-443.04 540.49,-433.84 533.21,-424.96"/>
<polygon fill="black" stroke="black" points="536.05,-422.9 527.01,-417.39 530.64,-427.34 536.05,-422.9"/>
</g>
<!-- Matchem -->
<g id="node14" class="node">
<title>Matchem</title>
<polygon fill="lightblue" stroke="lightblue" points="279.62,-642 202.62,-642 202.62,-565 279.62,-565 279.62,-642"/>
<image xlink:href="img/mob.png" width="77px" height="77px" preserveAspectRatio="xMinYMin meet" x="202.625" y="-642"/>
<text text-anchor="middle" x="241.12" y="-597.7" font-family="MS Gothic" font-size="14.00">Matchem</text>
</g>
<!-- Matchem&#45;&gt;Conductor -->
<g id="edge13" class="edge">
<title>Matchem&#45;&gt;Conductor</title>
<path fill="none" stroke="black" d="M258.88,-564.61C262.64,-556.57 266.66,-547.99 270.58,-539.63"/>
<polygon fill="black" stroke="black" points="273.74,-541.13 274.81,-530.59 267.4,-538.16 273.74,-541.13"/>
</g>
<!-- Snap Mare -->
<g id="node15" class="node">
<title>Snap Mare</title>
<polygon fill="lightcoral" stroke="lightcoral" points="384.62,-642 307.62,-642 307.62,-565 384.62,-565 384.62,-642"/>
<image xlink:href="img/mob.png" width="77px" height="77px" preserveAspectRatio="xMinYMin meet" x="307.625" y="-642"/>
<text text-anchor="middle" x="346.12" y="-597.7" font-family="MS Gothic" font-size="14.00">Snap Mare</text>
</g>
<!-- Snap Mare&#45;&gt;Conductor -->
<g id="edge14" class="edge">
<title>Snap Mare&#45;&gt;Conductor</title>
<path fill="none" stroke="black" d="M328.03,-564.61C324.15,-556.48 320.01,-547.8 315.97,-539.35"/>
<polygon fill="black" stroke="black" points="319.25,-538.1 311.79,-530.58 312.94,-541.12 319.25,-538.1"/>
</g>
<!-- Cade -->
<g id="node16" class="node">
<title>Cade</title>
<polygon fill="lightblue" stroke="lightblue" points="174.62,-755 97.62,-755 97.62,-678 174.62,-678 174.62,-755"/>
<image xlink:href="img/mob.png" width="77px" height="77px" preserveAspectRatio="xMinYMin meet" x="97.625" y="-755"/>
<text text-anchor="middle" x="136.12" y="-710.7" font-family="MS Gothic" font-size="14.00">Cade</text>
</g>
<!-- Cade&#45;&gt;Matchem -->
<g id="edge15" class="edge">
<title>Cade&#45;&gt;Matchem</title>
<path fill="none" stroke="black" d="M171.97,-677.61C180.24,-668.86 189.14,-659.46 197.7,-650.4"/>
<polygon fill="black" stroke="black" points="200.08,-652.99 204.41,-643.32 194.99,-648.18 200.08,-652.99"/>
</g>
<!-- Partner Mare -->
<g id="node17" class="node">
<title>Partner Mare</title>
<polygon fill="lightcoral" stroke="lightcoral" points="289.62,-755 192.62,-755 192.62,-678 289.62,-678 289.62,-755"/>
<image xlink:href="img/mob.png" width="97px" height="77px" preserveAspectRatio="xMinYMin meet" x="192.625" y="-755"/>
<text text-anchor="middle" x="241.12" y="-710.7" font-family="MS Gothic" font-size="14.00">Partner Mare</text>
</g>
<!-- Partner Mare&#45;&gt;Matchem -->
<g id="edge16" class="edge">
<title>Partner Mare&#45;&gt;Matchem</title>
<path fill="none" stroke="black" d="M241.12,-677.61C241.12,-669.84 241.12,-661.56 241.12,-653.46"/>
<polygon fill="black" stroke="black" points="244.63,-653.73 241.13,-643.73 237.63,-653.73 244.63,-653.73"/>
</g>
<!-- Snap -->
<g id="node18" class="node">
<title>Snap</title>
<polygon fill="lightblue" stroke="lightblue" points="384.62,-755 307.62,-755 307.62,-678 384.62,-678 384.62,-755"/>
<image xlink:href="img/mob.png" width="77px" height="77px" preserveAspectRatio="xMinYMin meet" x="307.625" y="-755"/>
<text text-anchor="middle" x="346.12" y="-710.7" font-family="MS Gothic" font-size="14.00">Snap</text>
</g>
<!-- Snap&#45;&gt;Snap Mare -->
<g id="edge17" class="edge">
<title>Snap&#45;&gt;Snap Mare</title>
<path fill="none" stroke="black" d="M346.12,-677.61C346.12,-669.84 346.12,-661.56 346.12,-653.46"/>
<polygon fill="black" stroke="black" points="349.63,-653.73 346.13,-643.73 342.63,-653.73 349.63,-653.73"/>
</g>
<!-- Diana -->
<g id="node19" class="node">
<title>Diana</title>
<polygon fill="lightcoral" stroke="lightcoral" points="479.62,-755 402.62,-755 402.62,-678 479.62,-678 479.62,-755"/>
<image xlink:href="img/mob.png" width="77px" height="77px" preserveAspectRatio="xMinYMin meet" x="402.625" y="-755"/>
<text text-anchor="middle" x="441.12" y="-710.7" font-family="MS Gothic" font-size="14.00">Diana</text>
</g>
<!-- Diana&#45;&gt;Snap Mare -->
<g id="edge18" class="edge">
<title>Diana&#45;&gt;Snap Mare</title>
<path fill="none" stroke="black" d="M408.7,-677.61C401.36,-669.04 393.49,-659.84 385.89,-650.96"/>
<polygon fill="black" stroke="black" points="388.55,-648.69 379.39,-643.37 383.23,-653.24 388.55,-648.69"/>
</g>
<!-- ゴドルフィンバルブ -->
<g id="node20" class="node">
<title>ゴドルフィンバルブ</title>
<polygon fill="lightblue" stroke="lightblue" points="144.25,-868 0,-868 0,-791 144.25,-791 144.25,-868"/>
<image xlink:href="img/mob.png" width="100px" height="77px" preserveAspectRatio="xMinYMin meet" x="22.125" y="-868"/>
<text text-anchor="middle" x="72.12" y="-823.7" font-family="MS Gothic" font-size="14.00">ゴドルフィンバルブ</text>
</g>
<!-- ゴドルフィンバルブ&#45;&gt;Cade -->
<g id="edge19" class="edge">
<title>ゴドルフィンバルブ&#45;&gt;Cade</title>
<path fill="none" stroke="black" d="M93.97,-790.61C98.71,-782.39 103.78,-773.6 108.7,-765.07"/>
<polygon fill="black" stroke="black" points="111.66,-766.94 113.62,-756.53 105.59,-763.44 111.66,-766.94"/>
</g>
<!-- Roxana -->
<g id="node21" class="node">
<title>Roxana</title>
<polygon fill="lightcoral" stroke="lightcoral" points="239.62,-868 162.62,-868 162.62,-791 239.62,-791 239.62,-868"/>
<image xlink:href="img/mob.png" width="77px" height="77px" preserveAspectRatio="xMinYMin meet" x="162.625" y="-868"/>
<text text-anchor="middle" x="201.12" y="-823.7" font-family="MS Gothic" font-size="14.00">Roxana</text>
</g>
<!-- Roxana&#45;&gt;Cade -->
<g id="edge20" class="edge">
<title>Roxana&#45;&gt;Cade</title>
<path fill="none" stroke="black" d="M178.94,-790.61C174.13,-782.39 168.98,-773.6 163.98,-765.07"/>
<polygon fill="black" stroke="black" points="167.05,-763.39 158.98,-756.52 161.01,-766.92 167.05,-763.39"/>
</g>
<!-- Bald Galloway -->
<g id="node22" class="node">
<title>Bald Galloway</title>
<polygon fill="lightblue" stroke="lightblue" points="183,-981 79.25,-981 79.25,-904 183,-904 183,-981"/>
<image xlink:href="img/mob.png" width="100px" height="77px" preserveAspectRatio="xMinYMin meet" x="81.125" y="-981"/>
<text text-anchor="middle" x="131.12" y="-936.7" font-family="MS Gothic" font-size="14.00">Bald Galloway</text>
</g>
<!-- Bald Galloway&#45;&gt;Roxana -->
<g id="edge21" class="edge">
<title>Bald Galloway&#45;&gt;Roxana</title>
<path fill="none" stroke="black" d="M155.02,-903.61C160.26,-895.31 165.86,-886.41 171.3,-877.79"/>
<polygon fill="black" stroke="black" points="174.16,-879.82 176.53,-869.5 168.24,-876.09 174.16,-879.82"/>
</g>
<!-- Sister to Chaunter -->
<g id="node23" class="node">
<title>Sister to Chaunter</title>
<polygon fill="lightcoral" stroke="lightcoral" points="338.88,-981 201.38,-981 201.38,-904 338.88,-904 338.88,-981"/>
<image xlink:href="img/mob.png" width="100px" height="77px" preserveAspectRatio="xMinYMin meet" x="220.125" y="-981"/>
<text text-anchor="middle" x="270.12" y="-936.7" font-family="MS Gothic" font-size="14.00">Sister to Chaunter</text>
</g>
<!-- Sister to Chaunter&#45;&gt;Roxana -->
<g id="edge22" class="edge">
<title>Sister to Chaunter&#45;&gt;Roxana</title>
<path fill="none" stroke="black" d="M246.57,-903.61C241.41,-895.31 235.88,-886.41 230.52,-877.79"/>
<polygon fill="black" stroke="black" points="233.62,-876.15 225.37,-869.5 227.68,-879.84 233.62,-876.15"/>
</g>
</g>
</svg>
