<?xml version="1.0" encoding="UTF-8" standalone="no"?>
<!DOCTYPE svg PUBLIC "-//W3C//DTD SVG 1.1//EN"
 "http://www.w3.org/Graphics/SVG/1.1/DTD/svg11.dtd">
<!-- Generated by graphviz version 12.1.2 (20240928.0832)
 -->
<!-- Pages: 1 -->
<svg width="1588pt" height="2119pt"
 viewBox="0.00 0.00 1587.62 2119.00" xmlns="http://www.w3.org/2000/svg" xmlns:xlink="http://www.w3.org/1999/xlink">
<g id="graph0" class="graph" transform="scale(1 1) rotate(0) translate(4 2115)">
<polygon fill="white" stroke="none" points="-4,4 -4,-2115 1583.62,-2115 1583.62,4 -4,4"/>
<!-- Intentionally -->
<g id="node1" class="node">
<title>Intentionally</title>
<polygon fill="none" stroke="black" points="1440.62,-77 1355.62,-77 1355.62,0 1440.62,0 1440.62,-77"/>
<image xlink:href="img/mob.png" width="85px" height="77px" preserveAspectRatio="xMinYMin meet" x="1355.62" y="-77"/>
<text text-anchor="middle" x="1398.12" y="-33.45" font-family="Times New Roman,serif" font-size="14.00">Intentionally</text>
</g>
<!-- Intent -->
<g id="node2" class="node">
<title>Intent</title>
<polygon fill="lightblue" stroke="lightblue" points="1389.62,-190 1312.62,-190 1312.62,-113 1389.62,-113 1389.62,-190"/>
<image xlink:href="img/mob.png" width="77px" height="77px" preserveAspectRatio="xMinYMin meet" x="1312.62" y="-190"/>
<text text-anchor="middle" x="1351.12" y="-145.7" font-family="MS Gothic" font-size="14.00">Intent</text>
</g>
<!-- Intent&#45;&gt;Intentionally -->
<g id="edge1" class="edge">
<title>Intent&#45;&gt;Intentionally</title>
<path fill="none" stroke="black" d="M1367.17,-112.61C1370.57,-104.57 1374.21,-95.99 1377.75,-87.63"/>
<polygon fill="black" stroke="black" points="1380.89,-89.19 1381.56,-78.61 1374.44,-86.46 1380.89,-89.19"/>
</g>
<!-- My Recipe -->
<g id="node3" class="node">
<title>My Recipe</title>
<polygon fill="lightcoral" stroke="lightcoral" points="1484.62,-190 1407.62,-190 1407.62,-113 1484.62,-113 1484.62,-190"/>
<image xlink:href="img/mob.png" width="77px" height="77px" preserveAspectRatio="xMinYMin meet" x="1407.62" y="-190"/>
<text text-anchor="middle" x="1446.12" y="-145.7" font-family="MS Gothic" font-size="14.00">My Recipe</text>
</g>
<!-- My Recipe&#45;&gt;Intentionally -->
<g id="edge2" class="edge">
<title>My Recipe&#45;&gt;Intentionally</title>
<path fill="none" stroke="black" d="M1429.74,-112.61C1426.26,-104.57 1422.55,-95.99 1418.94,-87.63"/>
<polygon fill="black" stroke="black" points="1422.22,-86.4 1415.04,-78.61 1415.79,-89.18 1422.22,-86.4"/>
</g>
<!-- War Relic -->
<g id="node4" class="node">
<title>War Relic</title>
<polygon fill="lightblue" stroke="lightblue" points="1294.62,-303 1217.62,-303 1217.62,-226 1294.62,-226 1294.62,-303"/>
<image xlink:href="img/mob.png" width="77px" height="77px" preserveAspectRatio="xMinYMin meet" x="1217.62" y="-303"/>
<text text-anchor="middle" x="1256.12" y="-258.7" font-family="MS Gothic" font-size="14.00">War Relic</text>
</g>
<!-- War Relic&#45;&gt;Intent -->
<g id="edge3" class="edge">
<title>War Relic&#45;&gt;Intent</title>
<path fill="none" stroke="black" d="M1288.55,-225.61C1295.89,-217.04 1303.76,-207.84 1311.36,-198.96"/>
<polygon fill="black" stroke="black" points="1314.02,-201.24 1317.86,-191.37 1308.7,-196.69 1314.02,-201.24"/>
</g>
<!-- Liz F. -->
<g id="node5" class="node">
<title>Liz F.</title>
<polygon fill="lightcoral" stroke="lightcoral" points="1389.62,-303 1312.62,-303 1312.62,-226 1389.62,-226 1389.62,-303"/>
<image xlink:href="img/mob.png" width="77px" height="77px" preserveAspectRatio="xMinYMin meet" x="1312.62" y="-303"/>
<text text-anchor="middle" x="1351.12" y="-258.7" font-family="MS Gothic" font-size="14.00">Liz F.</text>
</g>
<!-- Liz F.&#45;&gt;Intent -->
<g id="edge4" class="edge">
<title>Liz F.&#45;&gt;Intent</title>
<path fill="none" stroke="black" d="M1351.12,-225.61C1351.12,-217.84 1351.12,-209.56 1351.12,-201.46"/>
<polygon fill="black" stroke="black" points="1354.63,-201.73 1351.13,-191.73 1347.63,-201.73 1354.63,-201.73"/>
</g>
<!-- Discovery -->
<g id="node6" class="node">
<title>Discovery</title>
<polygon fill="lightblue" stroke="lightblue" points="1484.62,-303 1407.62,-303 1407.62,-226 1484.62,-226 1484.62,-303"/>
<image xlink:href="img/mob.png" width="77px" height="77px" preserveAspectRatio="xMinYMin meet" x="1407.62" y="-303"/>
<text text-anchor="middle" x="1446.12" y="-258.7" font-family="MS Gothic" font-size="14.00">Discovery</text>
</g>
<!-- Discovery&#45;&gt;My Recipe -->
<g id="edge5" class="edge">
<title>Discovery&#45;&gt;My Recipe</title>
<path fill="none" stroke="black" d="M1446.12,-225.61C1446.12,-217.84 1446.12,-209.56 1446.12,-201.46"/>
<polygon fill="black" stroke="black" points="1449.63,-201.73 1446.13,-191.73 1442.63,-201.73 1449.63,-201.73"/>
</g>
<!-- Perlette -->
<g id="node7" class="node">
<title>Perlette</title>
<polygon fill="lightcoral" stroke="lightcoral" points="1579.62,-303 1502.62,-303 1502.62,-226 1579.62,-226 1579.62,-303"/>
<image xlink:href="img/mob.png" width="77px" height="77px" preserveAspectRatio="xMinYMin meet" x="1502.62" y="-303"/>
<text text-anchor="middle" x="1541.12" y="-258.7" font-family="MS Gothic" font-size="14.00">Perlette</text>
</g>
<!-- Perlette&#45;&gt;My Recipe -->
<g id="edge6" class="edge">
<title>Perlette&#45;&gt;My Recipe</title>
<path fill="none" stroke="black" d="M1508.7,-225.61C1501.36,-217.04 1493.49,-207.84 1485.89,-198.96"/>
<polygon fill="black" stroke="black" points="1488.55,-196.69 1479.39,-191.37 1483.23,-201.24 1488.55,-196.69"/>
</g>
<!-- Man o&#39;War -->
<g id="node8" class="node">
<title>Man o&#39;War</title>
<polygon fill="lightblue" stroke="lightblue" points="1240.62,-416 1163.62,-416 1163.62,-339 1240.62,-339 1240.62,-416"/>
<image xlink:href="img/mob.png" width="77px" height="77px" preserveAspectRatio="xMinYMin meet" x="1163.62" y="-416"/>
<text text-anchor="middle" x="1202.12" y="-371.7" font-family="MS Gothic" font-size="14.00">Man o&#39;War</text>
</g>
<!-- Man o&#39;War&#45;&gt;War Relic -->
<g id="edge7" class="edge">
<title>Man o&#39;War&#45;&gt;War Relic</title>
<path fill="none" stroke="black" d="M1220.56,-338.61C1224.51,-330.48 1228.74,-321.8 1232.85,-313.35"/>
<polygon fill="black" stroke="black" points="1235.89,-315.1 1237.11,-304.58 1229.59,-312.04 1235.89,-315.1"/>
</g>
<!-- Friar&#39;s Carse -->
<g id="node9" class="node">
<title>Friar&#39;s Carse</title>
<polygon fill="lightcoral" stroke="lightcoral" points="1362,-416 1258.25,-416 1258.25,-339 1362,-339 1362,-416"/>
<image xlink:href="img/mob.png" width="100px" height="77px" preserveAspectRatio="xMinYMin meet" x="1260.12" y="-416"/>
<text text-anchor="middle" x="1310.12" y="-371.7" font-family="MS Gothic" font-size="14.00">Friar&#39;s Carse</text>
</g>
<!-- Friar&#39;s Carse&#45;&gt;War Relic -->
<g id="edge8" class="edge">
<title>Friar&#39;s Carse&#45;&gt;War Relic</title>
<path fill="none" stroke="black" d="M1291.69,-338.61C1287.74,-330.48 1283.51,-321.8 1279.4,-313.35"/>
<polygon fill="black" stroke="black" points="1282.66,-312.04 1275.14,-304.58 1276.36,-315.1 1282.66,-312.04"/>
</g>
<!-- Fair Play -->
<g id="node10" class="node">
<title>Fair Play</title>
<polygon fill="lightblue" stroke="lightblue" points="1148.62,-529 1071.62,-529 1071.62,-452 1148.62,-452 1148.62,-529"/>
<image xlink:href="img/mob.png" width="77px" height="77px" preserveAspectRatio="xMinYMin meet" x="1071.62" y="-529"/>
<text text-anchor="middle" x="1110.12" y="-484.7" font-family="MS Gothic" font-size="14.00">Fair Play</text>
</g>
<!-- Fair Play&#45;&gt;Man o&#39;War -->
<g id="edge9" class="edge">
<title>Fair Play&#45;&gt;Man o&#39;War</title>
<path fill="none" stroke="black" d="M1141.53,-451.61C1148.63,-443.04 1156.26,-433.84 1163.62,-424.96"/>
<polygon fill="black" stroke="black" points="1166.21,-427.32 1169.9,-417.38 1160.82,-422.85 1166.21,-427.32"/>
</g>
<!-- Mahubah -->
<g id="node11" class="node">
<title>Mahubah</title>
<polygon fill="lightcoral" stroke="lightcoral" points="1243.62,-529 1166.62,-529 1166.62,-452 1243.62,-452 1243.62,-529"/>
<image xlink:href="img/mob.png" width="77px" height="77px" preserveAspectRatio="xMinYMin meet" x="1166.62" y="-529"/>
<text text-anchor="middle" x="1205.12" y="-484.7" font-family="MS Gothic" font-size="14.00">Mahubah</text>
</g>
<!-- Mahubah&#45;&gt;Man o&#39;War -->
<g id="edge10" class="edge">
<title>Mahubah&#45;&gt;Man o&#39;War</title>
<path fill="none" stroke="black" d="M1204.1,-451.61C1203.89,-443.84 1203.67,-435.56 1203.45,-427.46"/>
<polygon fill="black" stroke="black" points="1206.95,-427.63 1203.19,-417.73 1199.96,-427.82 1206.95,-427.63"/>
</g>
<!-- Friar Rock -->
<g id="node12" class="node">
<title>Friar Rock</title>
<polygon fill="lightblue" stroke="lightblue" points="1349.88,-529 1266.38,-529 1266.38,-452 1349.88,-452 1349.88,-529"/>
<image xlink:href="img/mob.png" width="83.5px" height="77px" preserveAspectRatio="xMinYMin meet" x="1266.38" y="-529"/>
<text text-anchor="middle" x="1308.12" y="-484.7" font-family="MS Gothic" font-size="14.00">Friar Rock</text>
</g>
<!-- Friar Rock&#45;&gt;Friar&#39;s Carse -->
<g id="edge11" class="edge">
<title>Friar Rock&#45;&gt;Friar&#39;s Carse</title>
<path fill="none" stroke="black" d="M1308.81,-451.61C1308.95,-443.84 1309.1,-435.56 1309.24,-427.46"/>
<polygon fill="black" stroke="black" points="1312.74,-427.79 1309.42,-417.73 1305.74,-427.67 1312.74,-427.79"/>
</g>
<!-- Problem -->
<g id="node13" class="node">
<title>Problem</title>
<polygon fill="lightcoral" stroke="lightcoral" points="1444.62,-529 1367.62,-529 1367.62,-452 1444.62,-452 1444.62,-529"/>
<image xlink:href="img/mob.png" width="77px" height="77px" preserveAspectRatio="xMinYMin meet" x="1367.62" y="-529"/>
<text text-anchor="middle" x="1406.12" y="-484.7" font-family="MS Gothic" font-size="14.00">Problem</text>
</g>
<!-- Problem&#45;&gt;Friar&#39;s Carse -->
<g id="edge12" class="edge">
<title>Problem&#45;&gt;Friar&#39;s Carse</title>
<path fill="none" stroke="black" d="M1373.36,-451.61C1365.86,-442.95 1357.82,-433.65 1350.07,-424.68"/>
<polygon fill="black" stroke="black" points="1352.93,-422.64 1343.74,-417.36 1347.63,-427.22 1352.93,-422.64"/>
</g>
<!-- Hastings -->
<g id="node14" class="node">
<title>Hastings</title>
<polygon fill="lightblue" stroke="lightblue" points="1099.62,-642 1022.62,-642 1022.62,-565 1099.62,-565 1099.62,-642"/>
<image xlink:href="img/mob.png" width="77px" height="77px" preserveAspectRatio="xMinYMin meet" x="1022.62" y="-642"/>
<text text-anchor="middle" x="1061.12" y="-597.7" font-family="MS Gothic" font-size="14.00">Hastings</text>
</g>
<!-- Hastings&#45;&gt;Fair Play -->
<g id="edge13" class="edge">
<title>Hastings&#45;&gt;Fair Play</title>
<path fill="none" stroke="black" d="M1077.85,-564.61C1081.4,-556.57 1085.19,-547.99 1088.88,-539.63"/>
<polygon fill="black" stroke="black" points="1092.03,-541.17 1092.86,-530.6 1085.62,-538.34 1092.03,-541.17"/>
</g>
<!-- Fairy Gold -->
<g id="node15" class="node">
<title>Fairy Gold</title>
<polygon fill="lightcoral" stroke="lightcoral" points="1200.88,-642 1117.38,-642 1117.38,-565 1200.88,-565 1200.88,-642"/>
<image xlink:href="img/mob.png" width="83.5px" height="77px" preserveAspectRatio="xMinYMin meet" x="1117.38" y="-642"/>
<text text-anchor="middle" x="1159.12" y="-597.7" font-family="MS Gothic" font-size="14.00">Fairy Gold</text>
</g>
<!-- Fairy Gold&#45;&gt;Fair Play -->
<g id="edge14" class="edge">
<title>Fairy Gold&#45;&gt;Fair Play</title>
<path fill="none" stroke="black" d="M1142.4,-564.61C1138.85,-556.57 1135.06,-547.99 1131.37,-539.63"/>
<polygon fill="black" stroke="black" points="1134.63,-538.34 1127.39,-530.6 1128.22,-541.17 1134.63,-538.34"/>
</g>
<!-- Spendthrift -->
<g id="node16" class="node">
<title>Spendthrift</title>
<polygon fill="lightblue" stroke="lightblue" points="1001.25,-755 911,-755 911,-678 1001.25,-678 1001.25,-755"/>
<image xlink:href="img/mob.png" width="90.25px" height="77px" preserveAspectRatio="xMinYMin meet" x="911" y="-755"/>
<text text-anchor="middle" x="956.12" y="-710.7" font-family="MS Gothic" font-size="14.00">Spendthrift</text>
</g>
<!-- Spendthrift&#45;&gt;Hastings -->
<g id="edge15" class="edge">
<title>Spendthrift&#45;&gt;Hastings</title>
<path fill="none" stroke="black" d="M991.97,-677.61C1000.24,-668.86 1009.14,-659.46 1017.7,-650.4"/>
<polygon fill="black" stroke="black" points="1020.08,-652.99 1024.41,-643.32 1014.99,-648.18 1020.08,-652.99"/>
</g>
<!-- Cinderella -->
<g id="node17" class="node">
<title>Cinderella</title>
<polygon fill="lightcoral" stroke="lightcoral" points="1102.88,-755 1019.38,-755 1019.38,-678 1102.88,-678 1102.88,-755"/>
<image xlink:href="img/mob.png" width="83.5px" height="77px" preserveAspectRatio="xMinYMin meet" x="1019.38" y="-755"/>
<text text-anchor="middle" x="1061.12" y="-710.7" font-family="MS Gothic" font-size="14.00">Cinderella</text>
</g>
<!-- Cinderella&#45;&gt;Hastings -->
<g id="edge16" class="edge">
<title>Cinderella&#45;&gt;Hastings</title>
<path fill="none" stroke="black" d="M1061.12,-677.61C1061.12,-669.84 1061.12,-661.56 1061.12,-653.46"/>
<polygon fill="black" stroke="black" points="1064.63,-653.73 1061.13,-643.73 1057.63,-653.73 1064.63,-653.73"/>
</g>
<!-- Bend Or -->
<g id="node18" class="node">
<title>Bend Or</title>
<polygon fill="lightblue" stroke="lightblue" points="1197.62,-755 1120.62,-755 1120.62,-678 1197.62,-678 1197.62,-755"/>
<image xlink:href="img/mob.png" width="77px" height="77px" preserveAspectRatio="xMinYMin meet" x="1120.62" y="-755"/>
<text text-anchor="middle" x="1159.12" y="-710.7" font-family="MS Gothic" font-size="14.00">Bend Or</text>
</g>
<!-- Bend Or&#45;&gt;Fairy Gold -->
<g id="edge17" class="edge">
<title>Bend Or&#45;&gt;Fairy Gold</title>
<path fill="none" stroke="black" d="M1159.12,-677.61C1159.12,-669.84 1159.12,-661.56 1159.12,-653.46"/>
<polygon fill="black" stroke="black" points="1162.63,-653.73 1159.13,-643.73 1155.63,-653.73 1162.63,-653.73"/>
</g>
<!-- Dame Masham -->
<g id="node19" class="node">
<title>Dame Masham</title>
<polygon fill="lightcoral" stroke="lightcoral" points="1306.25,-755 1216,-755 1216,-678 1306.25,-678 1306.25,-755"/>
<image xlink:href="img/mob.png" width="90.25px" height="77px" preserveAspectRatio="xMinYMin meet" x="1216" y="-755"/>
<text text-anchor="middle" x="1261.12" y="-710.7" font-family="MS Gothic" font-size="14.00">Dame Masham</text>
</g>
<!-- Dame Masham&#45;&gt;Fairy Gold -->
<g id="edge18" class="edge">
<title>Dame Masham&#45;&gt;Fairy Gold</title>
<path fill="none" stroke="black" d="M1226.31,-677.61C1218.35,-668.95 1209.8,-659.65 1201.56,-650.68"/>
<polygon fill="black" stroke="black" points="1204.15,-648.33 1194.81,-643.33 1199,-653.06 1204.15,-648.33"/>
</g>
<!-- Australian -->
<g id="node20" class="node">
<title>Australian</title>
<polygon fill="lightblue" stroke="lightblue" points="948.88,-868 865.38,-868 865.38,-791 948.88,-791 948.88,-868"/>
<image xlink:href="img/mob.png" width="83.5px" height="77px" preserveAspectRatio="xMinYMin meet" x="865.375" y="-868"/>
<text text-anchor="middle" x="907.12" y="-823.7" font-family="MS Gothic" font-size="14.00">Australian</text>
</g>
<!-- Australian&#45;&gt;Spendthrift -->
<g id="edge19" class="edge">
<title>Australian&#45;&gt;Spendthrift</title>
<path fill="none" stroke="black" d="M923.85,-790.61C927.4,-782.57 931.19,-773.99 934.88,-765.63"/>
<polygon fill="black" stroke="black" points="938.03,-767.17 938.86,-756.6 931.62,-764.34 938.03,-767.17"/>
</g>
<!-- Aerolite -->
<g id="node21" class="node">
<title>Aerolite</title>
<polygon fill="lightcoral" stroke="lightcoral" points="1043.62,-868 966.62,-868 966.62,-791 1043.62,-791 1043.62,-868"/>
<image xlink:href="img/mob.png" width="77px" height="77px" preserveAspectRatio="xMinYMin meet" x="966.625" y="-868"/>
<text text-anchor="middle" x="1005.12" y="-823.7" font-family="MS Gothic" font-size="14.00">Aerolite</text>
</g>
<!-- Aerolite&#45;&gt;Spendthrift -->
<g id="edge20" class="edge">
<title>Aerolite&#45;&gt;Spendthrift</title>
<path fill="none" stroke="black" d="M988.4,-790.61C984.85,-782.57 981.06,-773.99 977.37,-765.63"/>
<polygon fill="black" stroke="black" points="980.63,-764.34 973.39,-756.6 974.22,-767.17 980.63,-764.34"/>
</g>
<!-- West Australian -->
<g id="node22" class="node">
<title>West Australian</title>
<polygon fill="lightblue" stroke="lightblue" points="851.75,-981 734.5,-981 734.5,-904 851.75,-904 851.75,-981"/>
<image xlink:href="img/mob.png" width="100px" height="77px" preserveAspectRatio="xMinYMin meet" x="743.125" y="-981"/>
<text text-anchor="middle" x="793.12" y="-936.7" font-family="MS Gothic" font-size="14.00">West Australian</text>
</g>
<!-- West Australian&#45;&gt;Australian -->
<g id="edge21" class="edge">
<title>West Australian&#45;&gt;Australian</title>
<path fill="none" stroke="black" d="M832.04,-903.61C841.12,-894.77 850.88,-885.26 860.26,-876.13"/>
<polygon fill="black" stroke="black" points="862.58,-878.76 867.3,-869.27 857.7,-873.74 862.58,-878.76"/>
</g>
<!-- Emilia -->
<g id="node23" class="node">
<title>Emilia</title>
<polygon fill="lightcoral" stroke="lightcoral" points="946.62,-981 869.62,-981 869.62,-904 946.62,-904 946.62,-981"/>
<image xlink:href="img/mob.png" width="77px" height="77px" preserveAspectRatio="xMinYMin meet" x="869.625" y="-981"/>
<text text-anchor="middle" x="908.12" y="-936.7" font-family="MS Gothic" font-size="14.00">Emilia</text>
</g>
<!-- Emilia&#45;&gt;Australian -->
<g id="edge22" class="edge">
<title>Emilia&#45;&gt;Australian</title>
<path fill="none" stroke="black" d="M907.78,-903.61C907.71,-895.84 907.64,-887.56 907.57,-879.46"/>
<polygon fill="black" stroke="black" points="911.07,-879.7 907.48,-869.73 904.07,-879.76 911.07,-879.7"/>
</g>
<!-- Lexington -->
<g id="node24" class="node">
<title>Lexington</title>
<polygon fill="lightblue" stroke="lightblue" points="1042.62,-981 965.62,-981 965.62,-904 1042.62,-904 1042.62,-981"/>
<image xlink:href="img/mob.png" width="77px" height="77px" preserveAspectRatio="xMinYMin meet" x="965.625" y="-981"/>
<text text-anchor="middle" x="1004.12" y="-936.7" font-family="MS Gothic" font-size="14.00">Lexington</text>
</g>
<!-- Lexington&#45;&gt;Aerolite -->
<g id="edge23" class="edge">
<title>Lexington&#45;&gt;Aerolite</title>
<path fill="none" stroke="black" d="M1004.47,-903.61C1004.54,-895.84 1004.61,-887.56 1004.68,-879.46"/>
<polygon fill="black" stroke="black" points="1008.18,-879.76 1004.77,-869.73 1001.18,-879.7 1008.18,-879.76"/>
</g>
<!-- Florine -->
<g id="node25" class="node">
<title>Florine</title>
<polygon fill="lightcoral" stroke="lightcoral" points="1137.62,-981 1060.62,-981 1060.62,-904 1137.62,-904 1137.62,-981"/>
<image xlink:href="img/mob.png" width="77px" height="77px" preserveAspectRatio="xMinYMin meet" x="1060.62" y="-981"/>
<text text-anchor="middle" x="1099.12" y="-936.7" font-family="MS Gothic" font-size="14.00">Florine</text>
</g>
<!-- Florine&#45;&gt;Aerolite -->
<g id="edge24" class="edge">
<title>Florine&#45;&gt;Aerolite</title>
<path fill="none" stroke="black" d="M1067.04,-903.61C1059.78,-895.04 1051.99,-885.84 1044.47,-876.96"/>
<polygon fill="black" stroke="black" points="1047.18,-874.74 1038.05,-869.37 1041.84,-879.27 1047.18,-874.74"/>
</g>
<!-- Melbourne -->
<g id="node26" class="node">
<title>Melbourne</title>
<polygon fill="lightblue" stroke="lightblue" points="774.62,-1094 697.62,-1094 697.62,-1017 774.62,-1017 774.62,-1094"/>
<image xlink:href="img/mob.png" width="77px" height="77px" preserveAspectRatio="xMinYMin meet" x="697.625" y="-1094"/>
<text text-anchor="middle" x="736.12" y="-1049.7" font-family="MS Gothic" font-size="14.00">Melbourne</text>
</g>
<!-- Melbourne&#45;&gt;West Australian -->
<g id="edge25" class="edge">
<title>Melbourne&#45;&gt;West Australian</title>
<path fill="none" stroke="black" d="M755.58,-1016.61C759.75,-1008.48 764.22,-999.8 768.55,-991.35"/>
<polygon fill="black" stroke="black" points="771.61,-993.06 773.06,-982.57 765.38,-989.86 771.61,-993.06"/>
</g>
<!-- Mowerina -->
<g id="node27" class="node">
<title>Mowerina</title>
<polygon fill="lightcoral" stroke="lightcoral" points="889.62,-1094 812.62,-1094 812.62,-1017 889.62,-1017 889.62,-1094"/>
<image xlink:href="img/mob.png" width="77px" height="77px" preserveAspectRatio="xMinYMin meet" x="812.625" y="-1094"/>
<text text-anchor="middle" x="851.12" y="-1049.7" font-family="MS Gothic" font-size="14.00">Mowerina</text>
</g>
<!-- Mowerina&#45;&gt;West Australian -->
<g id="edge26" class="edge">
<title>Mowerina&#45;&gt;West Australian</title>
<path fill="none" stroke="black" d="M831.33,-1016.61C827.08,-1008.48 822.54,-999.8 818.13,-991.35"/>
<polygon fill="black" stroke="black" points="821.27,-989.8 813.53,-982.56 815.06,-993.04 821.27,-989.8"/>
</g>
<!-- Humphrey Clinker -->
<g id="node28" class="node">
<title>Humphrey Clinker</title>
<polygon fill="lightblue" stroke="lightblue" points="663.12,-1207 539.12,-1207 539.12,-1130 663.12,-1130 663.12,-1207"/>
<image xlink:href="img/mob.png" width="100px" height="77px" preserveAspectRatio="xMinYMin meet" x="551.125" y="-1207"/>
<text text-anchor="middle" x="601.12" y="-1162.7" font-family="MS Gothic" font-size="14.00">Humphrey Clinker</text>
</g>
<!-- Humphrey Clinker&#45;&gt;Melbourne -->
<g id="edge27" class="edge">
<title>Humphrey Clinker&#45;&gt;Melbourne</title>
<path fill="none" stroke="black" d="M647.21,-1129.61C660.62,-1118.59 675.28,-1106.53 688.77,-1095.44"/>
<polygon fill="black" stroke="black" points="690.76,-1098.33 696.27,-1089.27 686.32,-1092.92 690.76,-1098.33"/>
</g>
<!-- Cervantes Mare -->
<g id="node29" class="node">
<title>Cervantes Mare</title>
<polygon fill="lightcoral" stroke="lightcoral" points="791.38,-1207 680.88,-1207 680.88,-1130 791.38,-1130 791.38,-1207"/>
<image xlink:href="img/mob.png" width="100px" height="77px" preserveAspectRatio="xMinYMin meet" x="686.125" y="-1207"/>
<text text-anchor="middle" x="736.12" y="-1162.7" font-family="MS Gothic" font-size="14.00">Cervantes Mare</text>
</g>
<!-- Cervantes Mare&#45;&gt;Melbourne -->
<g id="edge28" class="edge">
<title>Cervantes Mare&#45;&gt;Melbourne</title>
<path fill="none" stroke="black" d="M736.12,-1129.61C736.12,-1121.84 736.12,-1113.56 736.12,-1105.46"/>
<polygon fill="black" stroke="black" points="739.63,-1105.73 736.13,-1095.73 732.63,-1105.73 739.63,-1105.73"/>
</g>
<!-- Touchstone -->
<g id="node30" class="node">
<title>Touchstone</title>
<polygon fill="lightblue" stroke="lightblue" points="892.88,-1207 809.38,-1207 809.38,-1130 892.88,-1130 892.88,-1207"/>
<image xlink:href="img/mob.png" width="83.5px" height="77px" preserveAspectRatio="xMinYMin meet" x="809.375" y="-1207"/>
<text text-anchor="middle" x="851.12" y="-1162.7" font-family="MS Gothic" font-size="14.00">Touchstone</text>
</g>
<!-- Touchstone&#45;&gt;Mowerina -->
<g id="edge29" class="edge">
<title>Touchstone&#45;&gt;Mowerina</title>
<path fill="none" stroke="black" d="M851.12,-1129.61C851.12,-1121.84 851.12,-1113.56 851.12,-1105.46"/>
<polygon fill="black" stroke="black" points="854.63,-1105.73 851.13,-1095.73 847.63,-1105.73 854.63,-1105.73"/>
</g>
<!-- Emma -->
<g id="node31" class="node">
<title>Emma</title>
<polygon fill="lightcoral" stroke="lightcoral" points="987.62,-1207 910.62,-1207 910.62,-1130 987.62,-1130 987.62,-1207"/>
<image xlink:href="img/mob.png" width="77px" height="77px" preserveAspectRatio="xMinYMin meet" x="910.625" y="-1207"/>
<text text-anchor="middle" x="949.12" y="-1162.7" font-family="MS Gothic" font-size="14.00">Emma</text>
</g>
<!-- Emma&#45;&gt;Mowerina -->
<g id="edge30" class="edge">
<title>Emma&#45;&gt;Mowerina</title>
<path fill="none" stroke="black" d="M915.67,-1129.61C908.03,-1120.95 899.81,-1111.65 891.9,-1102.68"/>
<polygon fill="black" stroke="black" points="894.67,-1100.53 885.43,-1095.35 889.42,-1105.17 894.67,-1100.53"/>
</g>
<!-- Comus -->
<g id="node32" class="node">
<title>Comus</title>
<polygon fill="lightblue" stroke="lightblue" points="585.62,-1320 508.62,-1320 508.62,-1243 585.62,-1243 585.62,-1320"/>
<image xlink:href="img/mob.png" width="77px" height="77px" preserveAspectRatio="xMinYMin meet" x="508.625" y="-1320"/>
<text text-anchor="middle" x="547.12" y="-1275.7" font-family="MS Gothic" font-size="14.00">Comus</text>
</g>
<!-- Comus&#45;&gt;Humphrey Clinker -->
<g id="edge31" class="edge">
<title>Comus&#45;&gt;Humphrey Clinker</title>
<path fill="none" stroke="black" d="M565.56,-1242.61C569.51,-1234.48 573.74,-1225.8 577.85,-1217.35"/>
<polygon fill="black" stroke="black" points="580.89,-1219.1 582.11,-1208.58 574.59,-1216.04 580.89,-1219.1"/>
</g>
<!-- Clinkerina -->
<g id="node33" class="node">
<title>Clinkerina</title>
<polygon fill="lightcoral" stroke="lightcoral" points="696.88,-1320 613.38,-1320 613.38,-1243 696.88,-1243 696.88,-1320"/>
<image xlink:href="img/mob.png" width="83.5px" height="77px" preserveAspectRatio="xMinYMin meet" x="613.375" y="-1320"/>
<text text-anchor="middle" x="655.12" y="-1275.7" font-family="MS Gothic" font-size="14.00">Clinkerina</text>
</g>
<!-- Clinkerina&#45;&gt;Humphrey Clinker -->
<g id="edge32" class="edge">
<title>Clinkerina&#45;&gt;Humphrey Clinker</title>
<path fill="none" stroke="black" d="M636.69,-1242.61C632.74,-1234.48 628.51,-1225.8 624.4,-1217.35"/>
<polygon fill="black" stroke="black" points="627.66,-1216.04 620.14,-1208.58 621.36,-1219.1 627.66,-1216.04"/>
</g>
<!-- Sorcerer -->
<g id="node34" class="node">
<title>Sorcerer</title>
<polygon fill="lightblue" stroke="lightblue" points="477.62,-1433 400.62,-1433 400.62,-1356 477.62,-1356 477.62,-1433"/>
<image xlink:href="img/mob.png" width="77px" height="77px" preserveAspectRatio="xMinYMin meet" x="400.625" y="-1433"/>
<text text-anchor="middle" x="439.12" y="-1388.7" font-family="MS Gothic" font-size="14.00">Sorcerer</text>
</g>
<!-- Sorcerer&#45;&gt;Comus -->
<g id="edge33" class="edge">
<title>Sorcerer&#45;&gt;Comus</title>
<path fill="none" stroke="black" d="M475.99,-1355.61C484.51,-1346.86 493.65,-1337.46 502.46,-1328.4"/>
<polygon fill="black" stroke="black" points="504.91,-1330.91 509.37,-1321.3 499.89,-1326.03 504.91,-1330.91"/>
</g>
<!-- Houghton Lass -->
<g id="node35" class="node">
<title>Houghton Lass</title>
<polygon fill="lightcoral" stroke="lightcoral" points="599,-1433 495.25,-1433 495.25,-1356 599,-1356 599,-1433"/>
<image xlink:href="img/mob.png" width="100px" height="77px" preserveAspectRatio="xMinYMin meet" x="497.125" y="-1433"/>
<text text-anchor="middle" x="547.12" y="-1388.7" font-family="MS Gothic" font-size="14.00">Houghton Lass</text>
</g>
<!-- Houghton Lass&#45;&gt;Comus -->
<g id="edge34" class="edge">
<title>Houghton Lass&#45;&gt;Comus</title>
<path fill="none" stroke="black" d="M547.12,-1355.61C547.12,-1347.84 547.12,-1339.56 547.12,-1331.46"/>
<polygon fill="black" stroke="black" points="550.63,-1331.73 547.13,-1321.73 543.63,-1331.73 550.63,-1331.73"/>
</g>
<!-- Clinker -->
<g id="node36" class="node">
<title>Clinker</title>
<polygon fill="lightblue" stroke="lightblue" points="693.62,-1433 616.62,-1433 616.62,-1356 693.62,-1356 693.62,-1433"/>
<image xlink:href="img/mob.png" width="77px" height="77px" preserveAspectRatio="xMinYMin meet" x="616.625" y="-1433"/>
<text text-anchor="middle" x="655.12" y="-1388.7" font-family="MS Gothic" font-size="14.00">Clinker</text>
</g>
<!-- Clinker&#45;&gt;Clinkerina -->
<g id="edge35" class="edge">
<title>Clinker&#45;&gt;Clinkerina</title>
<path fill="none" stroke="black" d="M655.12,-1355.61C655.12,-1347.84 655.12,-1339.56 655.12,-1331.46"/>
<polygon fill="black" stroke="black" points="658.63,-1331.73 655.13,-1321.73 651.63,-1331.73 658.63,-1331.73"/>
</g>
<!-- Pewet -->
<g id="node37" class="node">
<title>Pewet</title>
<polygon fill="lightcoral" stroke="lightcoral" points="788.62,-1433 711.62,-1433 711.62,-1356 788.62,-1356 788.62,-1433"/>
<image xlink:href="img/mob.png" width="77px" height="77px" preserveAspectRatio="xMinYMin meet" x="711.625" y="-1433"/>
<text text-anchor="middle" x="750.12" y="-1388.7" font-family="MS Gothic" font-size="14.00">Pewet</text>
</g>
<!-- Pewet&#45;&gt;Clinkerina -->
<g id="edge36" class="edge">
<title>Pewet&#45;&gt;Clinkerina</title>
<path fill="none" stroke="black" d="M717.7,-1355.61C710.36,-1347.04 702.49,-1337.84 694.89,-1328.96"/>
<polygon fill="black" stroke="black" points="697.55,-1326.69 688.39,-1321.37 692.23,-1331.24 697.55,-1326.69"/>
</g>
<!-- Trumpator -->
<g id="node38" class="node">
<title>Trumpator</title>
<polygon fill="lightblue" stroke="lightblue" points="421.62,-1546 344.62,-1546 344.62,-1469 421.62,-1469 421.62,-1546"/>
<image xlink:href="img/mob.png" width="77px" height="77px" preserveAspectRatio="xMinYMin meet" x="344.625" y="-1546"/>
<text text-anchor="middle" x="383.12" y="-1501.7" font-family="MS Gothic" font-size="14.00">Trumpator</text>
</g>
<!-- Trumpator&#45;&gt;Sorcerer -->
<g id="edge37" class="edge">
<title>Trumpator&#45;&gt;Sorcerer</title>
<path fill="none" stroke="black" d="M402.24,-1468.61C406.34,-1460.48 410.72,-1451.8 414.99,-1443.35"/>
<polygon fill="black" stroke="black" points="418.03,-1445.07 419.41,-1434.57 411.78,-1441.92 418.03,-1445.07"/>
</g>
<!-- Young Giantess -->
<g id="node39" class="node">
<title>Young Giantess</title>
<polygon fill="lightcoral" stroke="lightcoral" points="550.38,-1546 439.88,-1546 439.88,-1469 550.38,-1469 550.38,-1546"/>
<image xlink:href="img/mob.png" width="100px" height="77px" preserveAspectRatio="xMinYMin meet" x="445.125" y="-1546"/>
<text text-anchor="middle" x="495.12" y="-1501.7" font-family="MS Gothic" font-size="14.00">Young Giantess</text>
</g>
<!-- Young Giantess&#45;&gt;Sorcerer -->
<g id="edge38" class="edge">
<title>Young Giantess&#45;&gt;Sorcerer</title>
<path fill="none" stroke="black" d="M476.01,-1468.61C471.91,-1460.48 467.53,-1451.8 463.26,-1443.35"/>
<polygon fill="black" stroke="black" points="466.47,-1441.92 458.84,-1434.57 460.22,-1445.07 466.47,-1441.92"/>
</g>
<!-- Conductor -->
<g id="node40" class="node">
<title>Conductor</title>
<polygon fill="lightblue" stroke="lightblue" points="331.62,-1659 254.62,-1659 254.62,-1582 331.62,-1582 331.62,-1659"/>
<image xlink:href="img/mob.png" width="77px" height="77px" preserveAspectRatio="xMinYMin meet" x="254.625" y="-1659"/>
<text text-anchor="middle" x="293.12" y="-1614.7" font-family="MS Gothic" font-size="14.00">Conductor</text>
</g>
<!-- Conductor&#45;&gt;Trumpator -->
<g id="edge39" class="edge">
<title>Conductor&#45;&gt;Trumpator</title>
<path fill="none" stroke="black" d="M323.85,-1581.61C330.8,-1573.04 338.26,-1563.84 345.46,-1554.96"/>
<polygon fill="black" stroke="black" points="348.01,-1557.37 351.59,-1547.39 342.57,-1552.96 348.01,-1557.37"/>
</g>
<!-- Brunette -->
<g id="node41" class="node">
<title>Brunette</title>
<polygon fill="lightcoral" stroke="lightcoral" points="426.62,-1659 349.62,-1659 349.62,-1582 426.62,-1582 426.62,-1659"/>
<image xlink:href="img/mob.png" width="77px" height="77px" preserveAspectRatio="xMinYMin meet" x="349.625" y="-1659"/>
<text text-anchor="middle" x="388.12" y="-1614.7" font-family="MS Gothic" font-size="14.00">Brunette</text>
</g>
<!-- Brunette&#45;&gt;Trumpator -->
<g id="edge40" class="edge">
<title>Brunette&#45;&gt;Trumpator</title>
<path fill="none" stroke="black" d="M386.42,-1581.61C386.07,-1573.84 385.7,-1565.56 385.33,-1557.46"/>
<polygon fill="black" stroke="black" points="388.84,-1557.56 384.89,-1547.73 381.85,-1557.88 388.84,-1557.56"/>
</g>
<!-- Diomed -->
<g id="node42" class="node">
<title>Diomed</title>
<polygon fill="lightblue" stroke="lightblue" points="529.62,-1659 452.62,-1659 452.62,-1582 529.62,-1582 529.62,-1659"/>
<image xlink:href="img/mob.png" width="77px" height="77px" preserveAspectRatio="xMinYMin meet" x="452.625" y="-1659"/>
<text text-anchor="middle" x="491.12" y="-1614.7" font-family="MS Gothic" font-size="14.00">Diomed</text>
</g>
<!-- Diomed&#45;&gt;Young Giantess -->
<g id="edge41" class="edge">
<title>Diomed&#45;&gt;Young Giantess</title>
<path fill="none" stroke="black" d="M492.49,-1581.61C492.77,-1573.84 493.07,-1565.56 493.36,-1557.46"/>
<polygon fill="black" stroke="black" points="496.85,-1557.85 493.71,-1547.73 489.85,-1557.6 496.85,-1557.85"/>
</g>
<!-- Giantess -->
<g id="node43" class="node">
<title>Giantess</title>
<polygon fill="lightcoral" stroke="lightcoral" points="624.62,-1659 547.62,-1659 547.62,-1582 624.62,-1582 624.62,-1659"/>
<image xlink:href="img/mob.png" width="77px" height="77px" preserveAspectRatio="xMinYMin meet" x="547.625" y="-1659"/>
<text text-anchor="middle" x="586.12" y="-1614.7" font-family="MS Gothic" font-size="14.00">Giantess</text>
</g>
<!-- Giantess&#45;&gt;Young Giantess -->
<g id="edge42" class="edge">
<title>Giantess&#45;&gt;Young Giantess</title>
<path fill="none" stroke="black" d="M555.06,-1581.61C548.03,-1573.04 540.49,-1563.84 533.21,-1554.96"/>
<polygon fill="black" stroke="black" points="536.05,-1552.9 527.01,-1547.39 530.64,-1557.34 536.05,-1552.9"/>
</g>
<!-- Matchem -->
<g id="node44" class="node">
<title>Matchem</title>
<polygon fill="lightblue" stroke="lightblue" points="279.62,-1772 202.62,-1772 202.62,-1695 279.62,-1695 279.62,-1772"/>
<image xlink:href="img/mob.png" width="77px" height="77px" preserveAspectRatio="xMinYMin meet" x="202.625" y="-1772"/>
<text text-anchor="middle" x="241.12" y="-1727.7" font-family="MS Gothic" font-size="14.00">Matchem</text>
</g>
<!-- Matchem&#45;&gt;Conductor -->
<g id="edge43" class="edge">
<title>Matchem&#45;&gt;Conductor</title>
<path fill="none" stroke="black" d="M258.88,-1694.61C262.64,-1686.57 266.66,-1677.99 270.58,-1669.63"/>
<polygon fill="black" stroke="black" points="273.74,-1671.13 274.81,-1660.59 267.4,-1668.16 273.74,-1671.13"/>
</g>
<!-- Snap Mare -->
<g id="node45" class="node">
<title>Snap Mare</title>
<polygon fill="lightcoral" stroke="lightcoral" points="384.62,-1772 307.62,-1772 307.62,-1695 384.62,-1695 384.62,-1772"/>
<image xlink:href="img/mob.png" width="77px" height="77px" preserveAspectRatio="xMinYMin meet" x="307.625" y="-1772"/>
<text text-anchor="middle" x="346.12" y="-1727.7" font-family="MS Gothic" font-size="14.00">Snap Mare</text>
</g>
<!-- Snap Mare&#45;&gt;Conductor -->
<g id="edge44" class="edge">
<title>Snap Mare&#45;&gt;Conductor</title>
<path fill="none" stroke="black" d="M328.03,-1694.61C324.15,-1686.48 320.01,-1677.8 315.97,-1669.35"/>
<polygon fill="black" stroke="black" points="319.25,-1668.1 311.79,-1660.58 312.94,-1671.12 319.25,-1668.1"/>
</g>
<!-- Cade -->
<g id="node46" class="node">
<title>Cade</title>
<polygon fill="lightblue" stroke="lightblue" points="174.62,-1885 97.62,-1885 97.62,-1808 174.62,-1808 174.62,-1885"/>
<image xlink:href="img/mob.png" width="77px" height="77px" preserveAspectRatio="xMinYMin meet" x="97.625" y="-1885"/>
<text text-anchor="middle" x="136.12" y="-1840.7" font-family="MS Gothic" font-size="14.00">Cade</text>
</g>
<!-- Cade&#45;&gt;Matchem -->
<g id="edge45" class="edge">
<title>Cade&#45;&gt;Matchem</title>
<path fill="none" stroke="black" d="M171.97,-1807.61C180.24,-1798.86 189.14,-1789.46 197.7,-1780.4"/>
<polygon fill="black" stroke="black" points="200.08,-1782.99 204.41,-1773.32 194.99,-1778.18 200.08,-1782.99"/>
</g>
<!-- Partner Mare -->
<g id="node47" class="node">
<title>Partner Mare</title>
<polygon fill="lightcoral" stroke="lightcoral" points="289.62,-1885 192.62,-1885 192.62,-1808 289.62,-1808 289.62,-1885"/>
<image xlink:href="img/mob.png" width="97px" height="77px" preserveAspectRatio="xMinYMin meet" x="192.625" y="-1885"/>
<text text-anchor="middle" x="241.12" y="-1840.7" font-family="MS Gothic" font-size="14.00">Partner Mare</text>
</g>
<!-- Partner Mare&#45;&gt;Matchem -->
<g id="edge46" class="edge">
<title>Partner Mare&#45;&gt;Matchem</title>
<path fill="none" stroke="black" d="M241.12,-1807.61C241.12,-1799.84 241.12,-1791.56 241.12,-1783.46"/>
<polygon fill="black" stroke="black" points="244.63,-1783.73 241.13,-1773.73 237.63,-1783.73 244.63,-1783.73"/>
</g>
<!-- Snap -->
<g id="node48" class="node">
<title>Snap</title>
<polygon fill="lightblue" stroke="lightblue" points="384.62,-1885 307.62,-1885 307.62,-1808 384.62,-1808 384.62,-1885"/>
<image xlink:href="img/mob.png" width="77px" height="77px" preserveAspectRatio="xMinYMin meet" x="307.625" y="-1885"/>
<text text-anchor="middle" x="346.12" y="-1840.7" font-family="MS Gothic" font-size="14.00">Snap</text>
</g>
<!-- Snap&#45;&gt;Snap Mare -->
<g id="edge47" class="edge">
<title>Snap&#45;&gt;Snap Mare</title>
<path fill="none" stroke="black" d="M346.12,-1807.61C346.12,-1799.84 346.12,-1791.56 346.12,-1783.46"/>
<polygon fill="black" stroke="black" points="349.63,-1783.73 346.13,-1773.73 342.63,-1783.73 349.63,-1783.73"/>
</g>
<!-- Diana -->
<g id="node49" class="node">
<title>Diana</title>
<polygon fill="lightcoral" stroke="lightcoral" points="479.62,-1885 402.62,-1885 402.62,-1808 479.62,-1808 479.62,-1885"/>
<image xlink:href="img/mob.png" width="77px" height="77px" preserveAspectRatio="xMinYMin meet" x="402.625" y="-1885"/>
<text text-anchor="middle" x="441.12" y="-1840.7" font-family="MS Gothic" font-size="14.00">Diana</text>
</g>
<!-- Diana&#45;&gt;Snap Mare -->
<g id="edge48" class="edge">
<title>Diana&#45;&gt;Snap Mare</title>
<path fill="none" stroke="black" d="M408.7,-1807.61C401.36,-1799.04 393.49,-1789.84 385.89,-1780.96"/>
<polygon fill="black" stroke="black" points="388.55,-1778.69 379.39,-1773.37 383.23,-1783.24 388.55,-1778.69"/>
</g>
<!-- ゴドルフィンバルブ -->
<g id="node50" class="node">
<title>ゴドルフィンバルブ</title>
<polygon fill="lightblue" stroke="lightblue" points="144.25,-1998 0,-1998 0,-1921 144.25,-1921 144.25,-1998"/>
<image xlink:href="img/mob.png" width="100px" height="77px" preserveAspectRatio="xMinYMin meet" x="22.125" y="-1998"/>
<text text-anchor="middle" x="72.12" y="-1953.7" font-family="MS Gothic" font-size="14.00">ゴドルフィンバルブ</text>
</g>
<!-- ゴドルフィンバルブ&#45;&gt;Cade -->
<g id="edge49" class="edge">
<title>ゴドルフィンバルブ&#45;&gt;Cade</title>
<path fill="none" stroke="black" d="M93.97,-1920.61C98.71,-1912.39 103.78,-1903.6 108.7,-1895.07"/>
<polygon fill="black" stroke="black" points="111.66,-1896.94 113.62,-1886.53 105.59,-1893.44 111.66,-1896.94"/>
</g>
<!-- Roxana -->
<g id="node51" class="node">
<title>Roxana</title>
<polygon fill="lightcoral" stroke="lightcoral" points="239.62,-1998 162.62,-1998 162.62,-1921 239.62,-1921 239.62,-1998"/>
<image xlink:href="img/mob.png" width="77px" height="77px" preserveAspectRatio="xMinYMin meet" x="162.625" y="-1998"/>
<text text-anchor="middle" x="201.12" y="-1953.7" font-family="MS Gothic" font-size="14.00">Roxana</text>
</g>
<!-- Roxana&#45;&gt;Cade -->
<g id="edge50" class="edge">
<title>Roxana&#45;&gt;Cade</title>
<path fill="none" stroke="black" d="M178.94,-1920.61C174.13,-1912.39 168.98,-1903.6 163.98,-1895.07"/>
<polygon fill="black" stroke="black" points="167.05,-1893.39 158.98,-1886.52 161.01,-1896.92 167.05,-1893.39"/>
</g>
<!-- Bald Galloway -->
<g id="node52" class="node">
<title>Bald Galloway</title>
<polygon fill="lightblue" stroke="lightblue" points="183,-2111 79.25,-2111 79.25,-2034 183,-2034 183,-2111"/>
<image xlink:href="img/mob.png" width="100px" height="77px" preserveAspectRatio="xMinYMin meet" x="81.125" y="-2111"/>
<text text-anchor="middle" x="131.12" y="-2066.7" font-family="MS Gothic" font-size="14.00">Bald Galloway</text>
</g>
<!-- Bald Galloway&#45;&gt;Roxana -->
<g id="edge51" class="edge">
<title>Bald Galloway&#45;&gt;Roxana</title>
<path fill="none" stroke="black" d="M155.02,-2033.61C160.26,-2025.31 165.86,-2016.41 171.3,-2007.79"/>
<polygon fill="black" stroke="black" points="174.16,-2009.82 176.53,-1999.5 168.24,-2006.09 174.16,-2009.82"/>
</g>
<!-- Sister to Chaunter -->
<g id="node53" class="node">
<title>Sister to Chaunter</title>
<polygon fill="lightcoral" stroke="lightcoral" points="338.88,-2111 201.38,-2111 201.38,-2034 338.88,-2034 338.88,-2111"/>
<image xlink:href="img/mob.png" width="100px" height="77px" preserveAspectRatio="xMinYMin meet" x="220.125" y="-2111"/>
<text text-anchor="middle" x="270.12" y="-2066.7" font-family="MS Gothic" font-size="14.00">Sister to Chaunter</text>
</g>
<!-- Sister to Chaunter&#45;&gt;Roxana -->
<g id="edge52" class="edge">
<title>Sister to Chaunter&#45;&gt;Roxana</title>
<path fill="none" stroke="black" d="M246.57,-2033.61C241.41,-2025.31 235.88,-2016.41 230.52,-2007.79"/>
<polygon fill="black" stroke="black" points="233.62,-2006.15 225.37,-1999.5 227.68,-2009.84 233.62,-2006.15"/>
</g>
</g>
</svg>
