<?xml version="1.0" encoding="UTF-8" standalone="no"?>
<!DOCTYPE svg PUBLIC "-//W3C//DTD SVG 1.1//EN"
 "http://www.w3.org/Graphics/SVG/1.1/DTD/svg11.dtd">
<!-- Generated by graphviz version 12.1.2 (20240928.0832)
 -->
<!-- Pages: 1 -->
<svg width="1796pt" height="2345pt"
 viewBox="0.00 0.00 1796.38 2345.00" xmlns="http://www.w3.org/2000/svg" xmlns:xlink="http://www.w3.org/1999/xlink">
<g id="graph0" class="graph" transform="scale(1 1) rotate(0) translate(4 2341)">
<polygon fill="white" stroke="none" points="-4,4 -4,-2341 1792.38,-2341 1792.38,4 -4,4"/>
<!-- Known Fact -->
<g id="node1" class="node">
<title>Known Fact</title>
<polygon fill="none" stroke="black" points="1609.5,-77 1526.75,-77 1526.75,0 1609.5,0 1609.5,-77"/>
<image xlink:href="img/mob.png" width="82.75px" height="77px" preserveAspectRatio="xMinYMin meet" x="1526.75" y="-77"/>
<text text-anchor="middle" x="1568.12" y="-33.45" font-family="Times New Roman,serif" font-size="14.00">Known Fact</text>
</g>
<!-- In Reality -->
<g id="node2" class="node">
<title>In Reality</title>
<polygon fill="lightblue" stroke="lightblue" points="1557.88,-190 1474.38,-190 1474.38,-113 1557.88,-113 1557.88,-190"/>
<image xlink:href="img/mob.png" width="83.5px" height="77px" preserveAspectRatio="xMinYMin meet" x="1474.38" y="-190"/>
<text text-anchor="middle" x="1516.12" y="-145.7" font-family="MS Gothic" font-size="14.00">In Reality</text>
</g>
<!-- In Reality&#45;&gt;Known Fact -->
<g id="edge1" class="edge">
<title>In Reality&#45;&gt;Known Fact</title>
<path fill="none" stroke="black" d="M1533.88,-112.61C1537.64,-104.57 1541.66,-95.99 1545.58,-87.63"/>
<polygon fill="black" stroke="black" points="1548.74,-89.13 1549.81,-78.59 1542.4,-86.16 1548.74,-89.13"/>
</g>
<!-- Tamerett -->
<g id="node3" class="node">
<title>Tamerett</title>
<polygon fill="lightcoral" stroke="lightcoral" points="1659.62,-190 1582.62,-190 1582.62,-113 1659.62,-113 1659.62,-190"/>
<image xlink:href="img/mob.png" width="77px" height="77px" preserveAspectRatio="xMinYMin meet" x="1582.62" y="-190"/>
<text text-anchor="middle" x="1621.12" y="-145.7" font-family="MS Gothic" font-size="14.00">Tamerett</text>
</g>
<!-- Tamerett&#45;&gt;Known Fact -->
<g id="edge2" class="edge">
<title>Tamerett&#45;&gt;Known Fact</title>
<path fill="none" stroke="black" d="M1603.03,-112.61C1599.15,-104.48 1595.01,-95.8 1590.97,-87.35"/>
<polygon fill="black" stroke="black" points="1594.25,-86.1 1586.79,-78.58 1587.94,-89.12 1594.25,-86.1"/>
</g>
<!-- Intentionally -->
<g id="node4" class="node">
<title>Intentionally</title>
<polygon fill="lightblue" stroke="lightblue" points="1450,-303 1346.25,-303 1346.25,-226 1450,-226 1450,-303"/>
<image xlink:href="img/mob.png" width="100px" height="77px" preserveAspectRatio="xMinYMin meet" x="1348.12" y="-303"/>
<text text-anchor="middle" x="1398.12" y="-258.7" font-family="MS Gothic" font-size="14.00">Intentionally</text>
</g>
<!-- Intentionally&#45;&gt;In Reality -->
<g id="edge3" class="edge">
<title>Intentionally&#45;&gt;In Reality</title>
<path fill="none" stroke="black" d="M1438.4,-225.61C1447.9,-216.68 1458.11,-207.07 1467.91,-197.85"/>
<polygon fill="black" stroke="black" points="1470.04,-200.66 1474.93,-191.26 1465.24,-195.56 1470.04,-200.66"/>
</g>
<!-- My Dear Girl -->
<g id="node5" class="node">
<title>My Dear Girl</title>
<polygon fill="lightcoral" stroke="lightcoral" points="1564.62,-303 1467.62,-303 1467.62,-226 1564.62,-226 1564.62,-303"/>
<image xlink:href="img/mob.png" width="97px" height="77px" preserveAspectRatio="xMinYMin meet" x="1467.62" y="-303"/>
<text text-anchor="middle" x="1516.12" y="-258.7" font-family="MS Gothic" font-size="14.00">My Dear Girl</text>
</g>
<!-- My Dear Girl&#45;&gt;In Reality -->
<g id="edge4" class="edge">
<title>My Dear Girl&#45;&gt;In Reality</title>
<path fill="none" stroke="black" d="M1516.12,-225.61C1516.12,-217.84 1516.12,-209.56 1516.12,-201.46"/>
<polygon fill="black" stroke="black" points="1519.63,-201.73 1516.13,-191.73 1512.63,-201.73 1519.63,-201.73"/>
</g>
<!-- Tim Tam -->
<g id="node6" class="node">
<title>Tim Tam</title>
<polygon fill="lightblue" stroke="lightblue" points="1659.62,-303 1582.62,-303 1582.62,-226 1659.62,-226 1659.62,-303"/>
<image xlink:href="img/mob.png" width="77px" height="77px" preserveAspectRatio="xMinYMin meet" x="1582.62" y="-303"/>
<text text-anchor="middle" x="1621.12" y="-258.7" font-family="MS Gothic" font-size="14.00">Tim Tam</text>
</g>
<!-- Tim Tam&#45;&gt;Tamerett -->
<g id="edge5" class="edge">
<title>Tim Tam&#45;&gt;Tamerett</title>
<path fill="none" stroke="black" d="M1621.12,-225.61C1621.12,-217.84 1621.12,-209.56 1621.12,-201.46"/>
<polygon fill="black" stroke="black" points="1624.63,-201.73 1621.13,-191.73 1617.63,-201.73 1624.63,-201.73"/>
</g>
<!-- Mixed Marriage -->
<g id="node7" class="node">
<title>Mixed Marriage</title>
<polygon fill="lightcoral" stroke="lightcoral" points="1788.38,-303 1677.88,-303 1677.88,-226 1788.38,-226 1788.38,-303"/>
<image xlink:href="img/mob.png" width="100px" height="77px" preserveAspectRatio="xMinYMin meet" x="1683.12" y="-303"/>
<text text-anchor="middle" x="1733.12" y="-258.7" font-family="MS Gothic" font-size="14.00">Mixed Marriage</text>
</g>
<!-- Mixed Marriage&#45;&gt;Tamerett -->
<g id="edge6" class="edge">
<title>Mixed Marriage&#45;&gt;Tamerett</title>
<path fill="none" stroke="black" d="M1694.89,-225.61C1685.97,-216.77 1676.38,-207.26 1667.16,-198.13"/>
<polygon fill="black" stroke="black" points="1669.83,-195.84 1660.26,-191.28 1664.9,-200.81 1669.83,-195.84"/>
</g>
<!-- Intent -->
<g id="node8" class="node">
<title>Intent</title>
<polygon fill="lightblue" stroke="lightblue" points="1389.62,-416 1312.62,-416 1312.62,-339 1389.62,-339 1389.62,-416"/>
<image xlink:href="img/mob.png" width="77px" height="77px" preserveAspectRatio="xMinYMin meet" x="1312.62" y="-416"/>
<text text-anchor="middle" x="1351.12" y="-371.7" font-family="MS Gothic" font-size="14.00">Intent</text>
</g>
<!-- Intent&#45;&gt;Intentionally -->
<g id="edge7" class="edge">
<title>Intent&#45;&gt;Intentionally</title>
<path fill="none" stroke="black" d="M1367.17,-338.61C1370.57,-330.57 1374.21,-321.99 1377.75,-313.63"/>
<polygon fill="black" stroke="black" points="1380.89,-315.19 1381.56,-304.61 1374.44,-312.46 1380.89,-315.19"/>
</g>
<!-- My Recipe -->
<g id="node9" class="node">
<title>My Recipe</title>
<polygon fill="lightcoral" stroke="lightcoral" points="1484.62,-416 1407.62,-416 1407.62,-339 1484.62,-339 1484.62,-416"/>
<image xlink:href="img/mob.png" width="77px" height="77px" preserveAspectRatio="xMinYMin meet" x="1407.62" y="-416"/>
<text text-anchor="middle" x="1446.12" y="-371.7" font-family="MS Gothic" font-size="14.00">My Recipe</text>
</g>
<!-- My Recipe&#45;&gt;Intentionally -->
<g id="edge8" class="edge">
<title>My Recipe&#45;&gt;Intentionally</title>
<path fill="none" stroke="black" d="M1429.74,-338.61C1426.26,-330.57 1422.55,-321.99 1418.94,-313.63"/>
<polygon fill="black" stroke="black" points="1422.22,-312.4 1415.04,-304.61 1415.79,-315.18 1422.22,-312.4"/>
</g>
<!-- War Relic -->
<g id="node10" class="node">
<title>War Relic</title>
<polygon fill="lightblue" stroke="lightblue" points="1294.62,-529 1217.62,-529 1217.62,-452 1294.62,-452 1294.62,-529"/>
<image xlink:href="img/mob.png" width="77px" height="77px" preserveAspectRatio="xMinYMin meet" x="1217.62" y="-529"/>
<text text-anchor="middle" x="1256.12" y="-484.7" font-family="MS Gothic" font-size="14.00">War Relic</text>
</g>
<!-- War Relic&#45;&gt;Intent -->
<g id="edge9" class="edge">
<title>War Relic&#45;&gt;Intent</title>
<path fill="none" stroke="black" d="M1288.55,-451.61C1295.89,-443.04 1303.76,-433.84 1311.36,-424.96"/>
<polygon fill="black" stroke="black" points="1314.02,-427.24 1317.86,-417.37 1308.7,-422.69 1314.02,-427.24"/>
</g>
<!-- Liz F. -->
<g id="node11" class="node">
<title>Liz F.</title>
<polygon fill="lightcoral" stroke="lightcoral" points="1389.62,-529 1312.62,-529 1312.62,-452 1389.62,-452 1389.62,-529"/>
<image xlink:href="img/mob.png" width="77px" height="77px" preserveAspectRatio="xMinYMin meet" x="1312.62" y="-529"/>
<text text-anchor="middle" x="1351.12" y="-484.7" font-family="MS Gothic" font-size="14.00">Liz F.</text>
</g>
<!-- Liz F.&#45;&gt;Intent -->
<g id="edge10" class="edge">
<title>Liz F.&#45;&gt;Intent</title>
<path fill="none" stroke="black" d="M1351.12,-451.61C1351.12,-443.84 1351.12,-435.56 1351.12,-427.46"/>
<polygon fill="black" stroke="black" points="1354.63,-427.73 1351.13,-417.73 1347.63,-427.73 1354.63,-427.73"/>
</g>
<!-- Discovery -->
<g id="node12" class="node">
<title>Discovery</title>
<polygon fill="lightblue" stroke="lightblue" points="1484.62,-529 1407.62,-529 1407.62,-452 1484.62,-452 1484.62,-529"/>
<image xlink:href="img/mob.png" width="77px" height="77px" preserveAspectRatio="xMinYMin meet" x="1407.62" y="-529"/>
<text text-anchor="middle" x="1446.12" y="-484.7" font-family="MS Gothic" font-size="14.00">Discovery</text>
</g>
<!-- Discovery&#45;&gt;My Recipe -->
<g id="edge11" class="edge">
<title>Discovery&#45;&gt;My Recipe</title>
<path fill="none" stroke="black" d="M1446.12,-451.61C1446.12,-443.84 1446.12,-435.56 1446.12,-427.46"/>
<polygon fill="black" stroke="black" points="1449.63,-427.73 1446.13,-417.73 1442.63,-427.73 1449.63,-427.73"/>
</g>
<!-- Perlette -->
<g id="node13" class="node">
<title>Perlette</title>
<polygon fill="lightcoral" stroke="lightcoral" points="1579.62,-529 1502.62,-529 1502.62,-452 1579.62,-452 1579.62,-529"/>
<image xlink:href="img/mob.png" width="77px" height="77px" preserveAspectRatio="xMinYMin meet" x="1502.62" y="-529"/>
<text text-anchor="middle" x="1541.12" y="-484.7" font-family="MS Gothic" font-size="14.00">Perlette</text>
</g>
<!-- Perlette&#45;&gt;My Recipe -->
<g id="edge12" class="edge">
<title>Perlette&#45;&gt;My Recipe</title>
<path fill="none" stroke="black" d="M1508.7,-451.61C1501.36,-443.04 1493.49,-433.84 1485.89,-424.96"/>
<polygon fill="black" stroke="black" points="1488.55,-422.69 1479.39,-417.37 1483.23,-427.24 1488.55,-422.69"/>
</g>
<!-- Man o&#39;War -->
<g id="node14" class="node">
<title>Man o&#39;War</title>
<polygon fill="lightblue" stroke="lightblue" points="1240.62,-642 1163.62,-642 1163.62,-565 1240.62,-565 1240.62,-642"/>
<image xlink:href="img/mob.png" width="77px" height="77px" preserveAspectRatio="xMinYMin meet" x="1163.62" y="-642"/>
<text text-anchor="middle" x="1202.12" y="-597.7" font-family="MS Gothic" font-size="14.00">Man o&#39;War</text>
</g>
<!-- Man o&#39;War&#45;&gt;War Relic -->
<g id="edge13" class="edge">
<title>Man o&#39;War&#45;&gt;War Relic</title>
<path fill="none" stroke="black" d="M1220.56,-564.61C1224.51,-556.48 1228.74,-547.8 1232.85,-539.35"/>
<polygon fill="black" stroke="black" points="1235.89,-541.1 1237.11,-530.58 1229.59,-538.04 1235.89,-541.1"/>
</g>
<!-- Friar&#39;s Carse -->
<g id="node15" class="node">
<title>Friar&#39;s Carse</title>
<polygon fill="lightcoral" stroke="lightcoral" points="1362,-642 1258.25,-642 1258.25,-565 1362,-565 1362,-642"/>
<image xlink:href="img/mob.png" width="100px" height="77px" preserveAspectRatio="xMinYMin meet" x="1260.12" y="-642"/>
<text text-anchor="middle" x="1310.12" y="-597.7" font-family="MS Gothic" font-size="14.00">Friar&#39;s Carse</text>
</g>
<!-- Friar&#39;s Carse&#45;&gt;War Relic -->
<g id="edge14" class="edge">
<title>Friar&#39;s Carse&#45;&gt;War Relic</title>
<path fill="none" stroke="black" d="M1291.69,-564.61C1287.74,-556.48 1283.51,-547.8 1279.4,-539.35"/>
<polygon fill="black" stroke="black" points="1282.66,-538.04 1275.14,-530.58 1276.36,-541.1 1282.66,-538.04"/>
</g>
<!-- Fair Play -->
<g id="node16" class="node">
<title>Fair Play</title>
<polygon fill="lightblue" stroke="lightblue" points="1148.62,-755 1071.62,-755 1071.62,-678 1148.62,-678 1148.62,-755"/>
<image xlink:href="img/mob.png" width="77px" height="77px" preserveAspectRatio="xMinYMin meet" x="1071.62" y="-755"/>
<text text-anchor="middle" x="1110.12" y="-710.7" font-family="MS Gothic" font-size="14.00">Fair Play</text>
</g>
<!-- Fair Play&#45;&gt;Man o&#39;War -->
<g id="edge15" class="edge">
<title>Fair Play&#45;&gt;Man o&#39;War</title>
<path fill="none" stroke="black" d="M1141.53,-677.61C1148.63,-669.04 1156.26,-659.84 1163.62,-650.96"/>
<polygon fill="black" stroke="black" points="1166.21,-653.32 1169.9,-643.38 1160.82,-648.85 1166.21,-653.32"/>
</g>
<!-- Mahubah -->
<g id="node17" class="node">
<title>Mahubah</title>
<polygon fill="lightcoral" stroke="lightcoral" points="1243.62,-755 1166.62,-755 1166.62,-678 1243.62,-678 1243.62,-755"/>
<image xlink:href="img/mob.png" width="77px" height="77px" preserveAspectRatio="xMinYMin meet" x="1166.62" y="-755"/>
<text text-anchor="middle" x="1205.12" y="-710.7" font-family="MS Gothic" font-size="14.00">Mahubah</text>
</g>
<!-- Mahubah&#45;&gt;Man o&#39;War -->
<g id="edge16" class="edge">
<title>Mahubah&#45;&gt;Man o&#39;War</title>
<path fill="none" stroke="black" d="M1204.1,-677.61C1203.89,-669.84 1203.67,-661.56 1203.45,-653.46"/>
<polygon fill="black" stroke="black" points="1206.95,-653.63 1203.19,-643.73 1199.96,-653.82 1206.95,-653.63"/>
</g>
<!-- Friar Rock -->
<g id="node18" class="node">
<title>Friar Rock</title>
<polygon fill="lightblue" stroke="lightblue" points="1349.88,-755 1266.38,-755 1266.38,-678 1349.88,-678 1349.88,-755"/>
<image xlink:href="img/mob.png" width="83.5px" height="77px" preserveAspectRatio="xMinYMin meet" x="1266.38" y="-755"/>
<text text-anchor="middle" x="1308.12" y="-710.7" font-family="MS Gothic" font-size="14.00">Friar Rock</text>
</g>
<!-- Friar Rock&#45;&gt;Friar&#39;s Carse -->
<g id="edge17" class="edge">
<title>Friar Rock&#45;&gt;Friar&#39;s Carse</title>
<path fill="none" stroke="black" d="M1308.81,-677.61C1308.95,-669.84 1309.1,-661.56 1309.24,-653.46"/>
<polygon fill="black" stroke="black" points="1312.74,-653.79 1309.42,-643.73 1305.74,-653.67 1312.74,-653.79"/>
</g>
<!-- Problem -->
<g id="node19" class="node">
<title>Problem</title>
<polygon fill="lightcoral" stroke="lightcoral" points="1444.62,-755 1367.62,-755 1367.62,-678 1444.62,-678 1444.62,-755"/>
<image xlink:href="img/mob.png" width="77px" height="77px" preserveAspectRatio="xMinYMin meet" x="1367.62" y="-755"/>
<text text-anchor="middle" x="1406.12" y="-710.7" font-family="MS Gothic" font-size="14.00">Problem</text>
</g>
<!-- Problem&#45;&gt;Friar&#39;s Carse -->
<g id="edge18" class="edge">
<title>Problem&#45;&gt;Friar&#39;s Carse</title>
<path fill="none" stroke="black" d="M1373.36,-677.61C1365.86,-668.95 1357.82,-659.65 1350.07,-650.68"/>
<polygon fill="black" stroke="black" points="1352.93,-648.64 1343.74,-643.36 1347.63,-653.22 1352.93,-648.64"/>
</g>
<!-- Hastings -->
<g id="node20" class="node">
<title>Hastings</title>
<polygon fill="lightblue" stroke="lightblue" points="1099.62,-868 1022.62,-868 1022.62,-791 1099.62,-791 1099.62,-868"/>
<image xlink:href="img/mob.png" width="77px" height="77px" preserveAspectRatio="xMinYMin meet" x="1022.62" y="-868"/>
<text text-anchor="middle" x="1061.12" y="-823.7" font-family="MS Gothic" font-size="14.00">Hastings</text>
</g>
<!-- Hastings&#45;&gt;Fair Play -->
<g id="edge19" class="edge">
<title>Hastings&#45;&gt;Fair Play</title>
<path fill="none" stroke="black" d="M1077.85,-790.61C1081.4,-782.57 1085.19,-773.99 1088.88,-765.63"/>
<polygon fill="black" stroke="black" points="1092.03,-767.17 1092.86,-756.6 1085.62,-764.34 1092.03,-767.17"/>
</g>
<!-- Fairy Gold -->
<g id="node21" class="node">
<title>Fairy Gold</title>
<polygon fill="lightcoral" stroke="lightcoral" points="1200.88,-868 1117.38,-868 1117.38,-791 1200.88,-791 1200.88,-868"/>
<image xlink:href="img/mob.png" width="83.5px" height="77px" preserveAspectRatio="xMinYMin meet" x="1117.38" y="-868"/>
<text text-anchor="middle" x="1159.12" y="-823.7" font-family="MS Gothic" font-size="14.00">Fairy Gold</text>
</g>
<!-- Fairy Gold&#45;&gt;Fair Play -->
<g id="edge20" class="edge">
<title>Fairy Gold&#45;&gt;Fair Play</title>
<path fill="none" stroke="black" d="M1142.4,-790.61C1138.85,-782.57 1135.06,-773.99 1131.37,-765.63"/>
<polygon fill="black" stroke="black" points="1134.63,-764.34 1127.39,-756.6 1128.22,-767.17 1134.63,-764.34"/>
</g>
<!-- Spendthrift -->
<g id="node22" class="node">
<title>Spendthrift</title>
<polygon fill="lightblue" stroke="lightblue" points="1001.25,-981 911,-981 911,-904 1001.25,-904 1001.25,-981"/>
<image xlink:href="img/mob.png" width="90.25px" height="77px" preserveAspectRatio="xMinYMin meet" x="911" y="-981"/>
<text text-anchor="middle" x="956.12" y="-936.7" font-family="MS Gothic" font-size="14.00">Spendthrift</text>
</g>
<!-- Spendthrift&#45;&gt;Hastings -->
<g id="edge21" class="edge">
<title>Spendthrift&#45;&gt;Hastings</title>
<path fill="none" stroke="black" d="M991.97,-903.61C1000.24,-894.86 1009.14,-885.46 1017.7,-876.4"/>
<polygon fill="black" stroke="black" points="1020.08,-878.99 1024.41,-869.32 1014.99,-874.18 1020.08,-878.99"/>
</g>
<!-- Cinderella -->
<g id="node23" class="node">
<title>Cinderella</title>
<polygon fill="lightcoral" stroke="lightcoral" points="1102.88,-981 1019.38,-981 1019.38,-904 1102.88,-904 1102.88,-981"/>
<image xlink:href="img/mob.png" width="83.5px" height="77px" preserveAspectRatio="xMinYMin meet" x="1019.38" y="-981"/>
<text text-anchor="middle" x="1061.12" y="-936.7" font-family="MS Gothic" font-size="14.00">Cinderella</text>
</g>
<!-- Cinderella&#45;&gt;Hastings -->
<g id="edge22" class="edge">
<title>Cinderella&#45;&gt;Hastings</title>
<path fill="none" stroke="black" d="M1061.12,-903.61C1061.12,-895.84 1061.12,-887.56 1061.12,-879.46"/>
<polygon fill="black" stroke="black" points="1064.63,-879.73 1061.13,-869.73 1057.63,-879.73 1064.63,-879.73"/>
</g>
<!-- Bend Or -->
<g id="node24" class="node">
<title>Bend Or</title>
<polygon fill="lightblue" stroke="lightblue" points="1197.62,-981 1120.62,-981 1120.62,-904 1197.62,-904 1197.62,-981"/>
<image xlink:href="img/mob.png" width="77px" height="77px" preserveAspectRatio="xMinYMin meet" x="1120.62" y="-981"/>
<text text-anchor="middle" x="1159.12" y="-936.7" font-family="MS Gothic" font-size="14.00">Bend Or</text>
</g>
<!-- Bend Or&#45;&gt;Fairy Gold -->
<g id="edge23" class="edge">
<title>Bend Or&#45;&gt;Fairy Gold</title>
<path fill="none" stroke="black" d="M1159.12,-903.61C1159.12,-895.84 1159.12,-887.56 1159.12,-879.46"/>
<polygon fill="black" stroke="black" points="1162.63,-879.73 1159.13,-869.73 1155.63,-879.73 1162.63,-879.73"/>
</g>
<!-- Dame Masham -->
<g id="node25" class="node">
<title>Dame Masham</title>
<polygon fill="lightcoral" stroke="lightcoral" points="1306.25,-981 1216,-981 1216,-904 1306.25,-904 1306.25,-981"/>
<image xlink:href="img/mob.png" width="90.25px" height="77px" preserveAspectRatio="xMinYMin meet" x="1216" y="-981"/>
<text text-anchor="middle" x="1261.12" y="-936.7" font-family="MS Gothic" font-size="14.00">Dame Masham</text>
</g>
<!-- Dame Masham&#45;&gt;Fairy Gold -->
<g id="edge24" class="edge">
<title>Dame Masham&#45;&gt;Fairy Gold</title>
<path fill="none" stroke="black" d="M1226.31,-903.61C1218.35,-894.95 1209.8,-885.65 1201.56,-876.68"/>
<polygon fill="black" stroke="black" points="1204.15,-874.33 1194.81,-869.33 1199,-879.06 1204.15,-874.33"/>
</g>
<!-- Australian -->
<g id="node26" class="node">
<title>Australian</title>
<polygon fill="lightblue" stroke="lightblue" points="948.88,-1094 865.38,-1094 865.38,-1017 948.88,-1017 948.88,-1094"/>
<image xlink:href="img/mob.png" width="83.5px" height="77px" preserveAspectRatio="xMinYMin meet" x="865.375" y="-1094"/>
<text text-anchor="middle" x="907.12" y="-1049.7" font-family="MS Gothic" font-size="14.00">Australian</text>
</g>
<!-- Australian&#45;&gt;Spendthrift -->
<g id="edge25" class="edge">
<title>Australian&#45;&gt;Spendthrift</title>
<path fill="none" stroke="black" d="M923.85,-1016.61C927.4,-1008.57 931.19,-999.99 934.88,-991.63"/>
<polygon fill="black" stroke="black" points="938.03,-993.17 938.86,-982.6 931.62,-990.34 938.03,-993.17"/>
</g>
<!-- Aerolite -->
<g id="node27" class="node">
<title>Aerolite</title>
<polygon fill="lightcoral" stroke="lightcoral" points="1043.62,-1094 966.62,-1094 966.62,-1017 1043.62,-1017 1043.62,-1094"/>
<image xlink:href="img/mob.png" width="77px" height="77px" preserveAspectRatio="xMinYMin meet" x="966.625" y="-1094"/>
<text text-anchor="middle" x="1005.12" y="-1049.7" font-family="MS Gothic" font-size="14.00">Aerolite</text>
</g>
<!-- Aerolite&#45;&gt;Spendthrift -->
<g id="edge26" class="edge">
<title>Aerolite&#45;&gt;Spendthrift</title>
<path fill="none" stroke="black" d="M988.4,-1016.61C984.85,-1008.57 981.06,-999.99 977.37,-991.63"/>
<polygon fill="black" stroke="black" points="980.63,-990.34 973.39,-982.6 974.22,-993.17 980.63,-990.34"/>
</g>
<!-- West Australian -->
<g id="node28" class="node">
<title>West Australian</title>
<polygon fill="lightblue" stroke="lightblue" points="851.75,-1207 734.5,-1207 734.5,-1130 851.75,-1130 851.75,-1207"/>
<image xlink:href="img/mob.png" width="100px" height="77px" preserveAspectRatio="xMinYMin meet" x="743.125" y="-1207"/>
<text text-anchor="middle" x="793.12" y="-1162.7" font-family="MS Gothic" font-size="14.00">West Australian</text>
</g>
<!-- West Australian&#45;&gt;Australian -->
<g id="edge27" class="edge">
<title>West Australian&#45;&gt;Australian</title>
<path fill="none" stroke="black" d="M832.04,-1129.61C841.12,-1120.77 850.88,-1111.26 860.26,-1102.13"/>
<polygon fill="black" stroke="black" points="862.58,-1104.76 867.3,-1095.27 857.7,-1099.74 862.58,-1104.76"/>
</g>
<!-- Emilia -->
<g id="node29" class="node">
<title>Emilia</title>
<polygon fill="lightcoral" stroke="lightcoral" points="946.62,-1207 869.62,-1207 869.62,-1130 946.62,-1130 946.62,-1207"/>
<image xlink:href="img/mob.png" width="77px" height="77px" preserveAspectRatio="xMinYMin meet" x="869.625" y="-1207"/>
<text text-anchor="middle" x="908.12" y="-1162.7" font-family="MS Gothic" font-size="14.00">Emilia</text>
</g>
<!-- Emilia&#45;&gt;Australian -->
<g id="edge28" class="edge">
<title>Emilia&#45;&gt;Australian</title>
<path fill="none" stroke="black" d="M907.78,-1129.61C907.71,-1121.84 907.64,-1113.56 907.57,-1105.46"/>
<polygon fill="black" stroke="black" points="911.07,-1105.7 907.48,-1095.73 904.07,-1105.76 911.07,-1105.7"/>
</g>
<!-- Lexington -->
<g id="node30" class="node">
<title>Lexington</title>
<polygon fill="lightblue" stroke="lightblue" points="1042.62,-1207 965.62,-1207 965.62,-1130 1042.62,-1130 1042.62,-1207"/>
<image xlink:href="img/mob.png" width="77px" height="77px" preserveAspectRatio="xMinYMin meet" x="965.625" y="-1207"/>
<text text-anchor="middle" x="1004.12" y="-1162.7" font-family="MS Gothic" font-size="14.00">Lexington</text>
</g>
<!-- Lexington&#45;&gt;Aerolite -->
<g id="edge29" class="edge">
<title>Lexington&#45;&gt;Aerolite</title>
<path fill="none" stroke="black" d="M1004.47,-1129.61C1004.54,-1121.84 1004.61,-1113.56 1004.68,-1105.46"/>
<polygon fill="black" stroke="black" points="1008.18,-1105.76 1004.77,-1095.73 1001.18,-1105.7 1008.18,-1105.76"/>
</g>
<!-- Florine -->
<g id="node31" class="node">
<title>Florine</title>
<polygon fill="lightcoral" stroke="lightcoral" points="1137.62,-1207 1060.62,-1207 1060.62,-1130 1137.62,-1130 1137.62,-1207"/>
<image xlink:href="img/mob.png" width="77px" height="77px" preserveAspectRatio="xMinYMin meet" x="1060.62" y="-1207"/>
<text text-anchor="middle" x="1099.12" y="-1162.7" font-family="MS Gothic" font-size="14.00">Florine</text>
</g>
<!-- Florine&#45;&gt;Aerolite -->
<g id="edge30" class="edge">
<title>Florine&#45;&gt;Aerolite</title>
<path fill="none" stroke="black" d="M1067.04,-1129.61C1059.78,-1121.04 1051.99,-1111.84 1044.47,-1102.96"/>
<polygon fill="black" stroke="black" points="1047.18,-1100.74 1038.05,-1095.37 1041.84,-1105.27 1047.18,-1100.74"/>
</g>
<!-- Melbourne -->
<g id="node32" class="node">
<title>Melbourne</title>
<polygon fill="lightblue" stroke="lightblue" points="774.62,-1320 697.62,-1320 697.62,-1243 774.62,-1243 774.62,-1320"/>
<image xlink:href="img/mob.png" width="77px" height="77px" preserveAspectRatio="xMinYMin meet" x="697.625" y="-1320"/>
<text text-anchor="middle" x="736.12" y="-1275.7" font-family="MS Gothic" font-size="14.00">Melbourne</text>
</g>
<!-- Melbourne&#45;&gt;West Australian -->
<g id="edge31" class="edge">
<title>Melbourne&#45;&gt;West Australian</title>
<path fill="none" stroke="black" d="M755.58,-1242.61C759.75,-1234.48 764.22,-1225.8 768.55,-1217.35"/>
<polygon fill="black" stroke="black" points="771.61,-1219.06 773.06,-1208.57 765.38,-1215.86 771.61,-1219.06"/>
</g>
<!-- Mowerina -->
<g id="node33" class="node">
<title>Mowerina</title>
<polygon fill="lightcoral" stroke="lightcoral" points="889.62,-1320 812.62,-1320 812.62,-1243 889.62,-1243 889.62,-1320"/>
<image xlink:href="img/mob.png" width="77px" height="77px" preserveAspectRatio="xMinYMin meet" x="812.625" y="-1320"/>
<text text-anchor="middle" x="851.12" y="-1275.7" font-family="MS Gothic" font-size="14.00">Mowerina</text>
</g>
<!-- Mowerina&#45;&gt;West Australian -->
<g id="edge32" class="edge">
<title>Mowerina&#45;&gt;West Australian</title>
<path fill="none" stroke="black" d="M831.33,-1242.61C827.08,-1234.48 822.54,-1225.8 818.13,-1217.35"/>
<polygon fill="black" stroke="black" points="821.27,-1215.8 813.53,-1208.56 815.06,-1219.04 821.27,-1215.8"/>
</g>
<!-- Humphrey Clinker -->
<g id="node34" class="node">
<title>Humphrey Clinker</title>
<polygon fill="lightblue" stroke="lightblue" points="663.12,-1433 539.12,-1433 539.12,-1356 663.12,-1356 663.12,-1433"/>
<image xlink:href="img/mob.png" width="100px" height="77px" preserveAspectRatio="xMinYMin meet" x="551.125" y="-1433"/>
<text text-anchor="middle" x="601.12" y="-1388.7" font-family="MS Gothic" font-size="14.00">Humphrey Clinker</text>
</g>
<!-- Humphrey Clinker&#45;&gt;Melbourne -->
<g id="edge33" class="edge">
<title>Humphrey Clinker&#45;&gt;Melbourne</title>
<path fill="none" stroke="black" d="M647.21,-1355.61C660.62,-1344.59 675.28,-1332.53 688.77,-1321.44"/>
<polygon fill="black" stroke="black" points="690.76,-1324.33 696.27,-1315.27 686.32,-1318.92 690.76,-1324.33"/>
</g>
<!-- Cervantes Mare -->
<g id="node35" class="node">
<title>Cervantes Mare</title>
<polygon fill="lightcoral" stroke="lightcoral" points="791.38,-1433 680.88,-1433 680.88,-1356 791.38,-1356 791.38,-1433"/>
<image xlink:href="img/mob.png" width="100px" height="77px" preserveAspectRatio="xMinYMin meet" x="686.125" y="-1433"/>
<text text-anchor="middle" x="736.12" y="-1388.7" font-family="MS Gothic" font-size="14.00">Cervantes Mare</text>
</g>
<!-- Cervantes Mare&#45;&gt;Melbourne -->
<g id="edge34" class="edge">
<title>Cervantes Mare&#45;&gt;Melbourne</title>
<path fill="none" stroke="black" d="M736.12,-1355.61C736.12,-1347.84 736.12,-1339.56 736.12,-1331.46"/>
<polygon fill="black" stroke="black" points="739.63,-1331.73 736.13,-1321.73 732.63,-1331.73 739.63,-1331.73"/>
</g>
<!-- Touchstone -->
<g id="node36" class="node">
<title>Touchstone</title>
<polygon fill="lightblue" stroke="lightblue" points="892.88,-1433 809.38,-1433 809.38,-1356 892.88,-1356 892.88,-1433"/>
<image xlink:href="img/mob.png" width="83.5px" height="77px" preserveAspectRatio="xMinYMin meet" x="809.375" y="-1433"/>
<text text-anchor="middle" x="851.12" y="-1388.7" font-family="MS Gothic" font-size="14.00">Touchstone</text>
</g>
<!-- Touchstone&#45;&gt;Mowerina -->
<g id="edge35" class="edge">
<title>Touchstone&#45;&gt;Mowerina</title>
<path fill="none" stroke="black" d="M851.12,-1355.61C851.12,-1347.84 851.12,-1339.56 851.12,-1331.46"/>
<polygon fill="black" stroke="black" points="854.63,-1331.73 851.13,-1321.73 847.63,-1331.73 854.63,-1331.73"/>
</g>
<!-- Emma -->
<g id="node37" class="node">
<title>Emma</title>
<polygon fill="lightcoral" stroke="lightcoral" points="987.62,-1433 910.62,-1433 910.62,-1356 987.62,-1356 987.62,-1433"/>
<image xlink:href="img/mob.png" width="77px" height="77px" preserveAspectRatio="xMinYMin meet" x="910.625" y="-1433"/>
<text text-anchor="middle" x="949.12" y="-1388.7" font-family="MS Gothic" font-size="14.00">Emma</text>
</g>
<!-- Emma&#45;&gt;Mowerina -->
<g id="edge36" class="edge">
<title>Emma&#45;&gt;Mowerina</title>
<path fill="none" stroke="black" d="M915.67,-1355.61C908.03,-1346.95 899.81,-1337.65 891.9,-1328.68"/>
<polygon fill="black" stroke="black" points="894.67,-1326.53 885.43,-1321.35 889.42,-1331.17 894.67,-1326.53"/>
</g>
<!-- Comus -->
<g id="node38" class="node">
<title>Comus</title>
<polygon fill="lightblue" stroke="lightblue" points="585.62,-1546 508.62,-1546 508.62,-1469 585.62,-1469 585.62,-1546"/>
<image xlink:href="img/mob.png" width="77px" height="77px" preserveAspectRatio="xMinYMin meet" x="508.625" y="-1546"/>
<text text-anchor="middle" x="547.12" y="-1501.7" font-family="MS Gothic" font-size="14.00">Comus</text>
</g>
<!-- Comus&#45;&gt;Humphrey Clinker -->
<g id="edge37" class="edge">
<title>Comus&#45;&gt;Humphrey Clinker</title>
<path fill="none" stroke="black" d="M565.56,-1468.61C569.51,-1460.48 573.74,-1451.8 577.85,-1443.35"/>
<polygon fill="black" stroke="black" points="580.89,-1445.1 582.11,-1434.58 574.59,-1442.04 580.89,-1445.1"/>
</g>
<!-- Clinkerina -->
<g id="node39" class="node">
<title>Clinkerina</title>
<polygon fill="lightcoral" stroke="lightcoral" points="696.88,-1546 613.38,-1546 613.38,-1469 696.88,-1469 696.88,-1546"/>
<image xlink:href="img/mob.png" width="83.5px" height="77px" preserveAspectRatio="xMinYMin meet" x="613.375" y="-1546"/>
<text text-anchor="middle" x="655.12" y="-1501.7" font-family="MS Gothic" font-size="14.00">Clinkerina</text>
</g>
<!-- Clinkerina&#45;&gt;Humphrey Clinker -->
<g id="edge38" class="edge">
<title>Clinkerina&#45;&gt;Humphrey Clinker</title>
<path fill="none" stroke="black" d="M636.69,-1468.61C632.74,-1460.48 628.51,-1451.8 624.4,-1443.35"/>
<polygon fill="black" stroke="black" points="627.66,-1442.04 620.14,-1434.58 621.36,-1445.1 627.66,-1442.04"/>
</g>
<!-- Sorcerer -->
<g id="node40" class="node">
<title>Sorcerer</title>
<polygon fill="lightblue" stroke="lightblue" points="477.62,-1659 400.62,-1659 400.62,-1582 477.62,-1582 477.62,-1659"/>
<image xlink:href="img/mob.png" width="77px" height="77px" preserveAspectRatio="xMinYMin meet" x="400.625" y="-1659"/>
<text text-anchor="middle" x="439.12" y="-1614.7" font-family="MS Gothic" font-size="14.00">Sorcerer</text>
</g>
<!-- Sorcerer&#45;&gt;Comus -->
<g id="edge39" class="edge">
<title>Sorcerer&#45;&gt;Comus</title>
<path fill="none" stroke="black" d="M475.99,-1581.61C484.51,-1572.86 493.65,-1563.46 502.46,-1554.4"/>
<polygon fill="black" stroke="black" points="504.91,-1556.91 509.37,-1547.3 499.89,-1552.03 504.91,-1556.91"/>
</g>
<!-- Houghton Lass -->
<g id="node41" class="node">
<title>Houghton Lass</title>
<polygon fill="lightcoral" stroke="lightcoral" points="599,-1659 495.25,-1659 495.25,-1582 599,-1582 599,-1659"/>
<image xlink:href="img/mob.png" width="100px" height="77px" preserveAspectRatio="xMinYMin meet" x="497.125" y="-1659"/>
<text text-anchor="middle" x="547.12" y="-1614.7" font-family="MS Gothic" font-size="14.00">Houghton Lass</text>
</g>
<!-- Houghton Lass&#45;&gt;Comus -->
<g id="edge40" class="edge">
<title>Houghton Lass&#45;&gt;Comus</title>
<path fill="none" stroke="black" d="M547.12,-1581.61C547.12,-1573.84 547.12,-1565.56 547.12,-1557.46"/>
<polygon fill="black" stroke="black" points="550.63,-1557.73 547.13,-1547.73 543.63,-1557.73 550.63,-1557.73"/>
</g>
<!-- Clinker -->
<g id="node42" class="node">
<title>Clinker</title>
<polygon fill="lightblue" stroke="lightblue" points="693.62,-1659 616.62,-1659 616.62,-1582 693.62,-1582 693.62,-1659"/>
<image xlink:href="img/mob.png" width="77px" height="77px" preserveAspectRatio="xMinYMin meet" x="616.625" y="-1659"/>
<text text-anchor="middle" x="655.12" y="-1614.7" font-family="MS Gothic" font-size="14.00">Clinker</text>
</g>
<!-- Clinker&#45;&gt;Clinkerina -->
<g id="edge41" class="edge">
<title>Clinker&#45;&gt;Clinkerina</title>
<path fill="none" stroke="black" d="M655.12,-1581.61C655.12,-1573.84 655.12,-1565.56 655.12,-1557.46"/>
<polygon fill="black" stroke="black" points="658.63,-1557.73 655.13,-1547.73 651.63,-1557.73 658.63,-1557.73"/>
</g>
<!-- Pewet -->
<g id="node43" class="node">
<title>Pewet</title>
<polygon fill="lightcoral" stroke="lightcoral" points="788.62,-1659 711.62,-1659 711.62,-1582 788.62,-1582 788.62,-1659"/>
<image xlink:href="img/mob.png" width="77px" height="77px" preserveAspectRatio="xMinYMin meet" x="711.625" y="-1659"/>
<text text-anchor="middle" x="750.12" y="-1614.7" font-family="MS Gothic" font-size="14.00">Pewet</text>
</g>
<!-- Pewet&#45;&gt;Clinkerina -->
<g id="edge42" class="edge">
<title>Pewet&#45;&gt;Clinkerina</title>
<path fill="none" stroke="black" d="M717.7,-1581.61C710.36,-1573.04 702.49,-1563.84 694.89,-1554.96"/>
<polygon fill="black" stroke="black" points="697.55,-1552.69 688.39,-1547.37 692.23,-1557.24 697.55,-1552.69"/>
</g>
<!-- Trumpator -->
<g id="node44" class="node">
<title>Trumpator</title>
<polygon fill="lightblue" stroke="lightblue" points="421.62,-1772 344.62,-1772 344.62,-1695 421.62,-1695 421.62,-1772"/>
<image xlink:href="img/mob.png" width="77px" height="77px" preserveAspectRatio="xMinYMin meet" x="344.625" y="-1772"/>
<text text-anchor="middle" x="383.12" y="-1727.7" font-family="MS Gothic" font-size="14.00">Trumpator</text>
</g>
<!-- Trumpator&#45;&gt;Sorcerer -->
<g id="edge43" class="edge">
<title>Trumpator&#45;&gt;Sorcerer</title>
<path fill="none" stroke="black" d="M402.24,-1694.61C406.34,-1686.48 410.72,-1677.8 414.99,-1669.35"/>
<polygon fill="black" stroke="black" points="418.03,-1671.07 419.41,-1660.57 411.78,-1667.92 418.03,-1671.07"/>
</g>
<!-- Young Giantess -->
<g id="node45" class="node">
<title>Young Giantess</title>
<polygon fill="lightcoral" stroke="lightcoral" points="550.38,-1772 439.88,-1772 439.88,-1695 550.38,-1695 550.38,-1772"/>
<image xlink:href="img/mob.png" width="100px" height="77px" preserveAspectRatio="xMinYMin meet" x="445.125" y="-1772"/>
<text text-anchor="middle" x="495.12" y="-1727.7" font-family="MS Gothic" font-size="14.00">Young Giantess</text>
</g>
<!-- Young Giantess&#45;&gt;Sorcerer -->
<g id="edge44" class="edge">
<title>Young Giantess&#45;&gt;Sorcerer</title>
<path fill="none" stroke="black" d="M476.01,-1694.61C471.91,-1686.48 467.53,-1677.8 463.26,-1669.35"/>
<polygon fill="black" stroke="black" points="466.47,-1667.92 458.84,-1660.57 460.22,-1671.07 466.47,-1667.92"/>
</g>
<!-- Conductor -->
<g id="node46" class="node">
<title>Conductor</title>
<polygon fill="lightblue" stroke="lightblue" points="331.62,-1885 254.62,-1885 254.62,-1808 331.62,-1808 331.62,-1885"/>
<image xlink:href="img/mob.png" width="77px" height="77px" preserveAspectRatio="xMinYMin meet" x="254.625" y="-1885"/>
<text text-anchor="middle" x="293.12" y="-1840.7" font-family="MS Gothic" font-size="14.00">Conductor</text>
</g>
<!-- Conductor&#45;&gt;Trumpator -->
<g id="edge45" class="edge">
<title>Conductor&#45;&gt;Trumpator</title>
<path fill="none" stroke="black" d="M323.85,-1807.61C330.8,-1799.04 338.26,-1789.84 345.46,-1780.96"/>
<polygon fill="black" stroke="black" points="348.01,-1783.37 351.59,-1773.39 342.57,-1778.96 348.01,-1783.37"/>
</g>
<!-- Brunette -->
<g id="node47" class="node">
<title>Brunette</title>
<polygon fill="lightcoral" stroke="lightcoral" points="426.62,-1885 349.62,-1885 349.62,-1808 426.62,-1808 426.62,-1885"/>
<image xlink:href="img/mob.png" width="77px" height="77px" preserveAspectRatio="xMinYMin meet" x="349.625" y="-1885"/>
<text text-anchor="middle" x="388.12" y="-1840.7" font-family="MS Gothic" font-size="14.00">Brunette</text>
</g>
<!-- Brunette&#45;&gt;Trumpator -->
<g id="edge46" class="edge">
<title>Brunette&#45;&gt;Trumpator</title>
<path fill="none" stroke="black" d="M386.42,-1807.61C386.07,-1799.84 385.7,-1791.56 385.33,-1783.46"/>
<polygon fill="black" stroke="black" points="388.84,-1783.56 384.89,-1773.73 381.85,-1783.88 388.84,-1783.56"/>
</g>
<!-- Diomed -->
<g id="node48" class="node">
<title>Diomed</title>
<polygon fill="lightblue" stroke="lightblue" points="529.62,-1885 452.62,-1885 452.62,-1808 529.62,-1808 529.62,-1885"/>
<image xlink:href="img/mob.png" width="77px" height="77px" preserveAspectRatio="xMinYMin meet" x="452.625" y="-1885"/>
<text text-anchor="middle" x="491.12" y="-1840.7" font-family="MS Gothic" font-size="14.00">Diomed</text>
</g>
<!-- Diomed&#45;&gt;Young Giantess -->
<g id="edge47" class="edge">
<title>Diomed&#45;&gt;Young Giantess</title>
<path fill="none" stroke="black" d="M492.49,-1807.61C492.77,-1799.84 493.07,-1791.56 493.36,-1783.46"/>
<polygon fill="black" stroke="black" points="496.85,-1783.85 493.71,-1773.73 489.85,-1783.6 496.85,-1783.85"/>
</g>
<!-- Giantess -->
<g id="node49" class="node">
<title>Giantess</title>
<polygon fill="lightcoral" stroke="lightcoral" points="624.62,-1885 547.62,-1885 547.62,-1808 624.62,-1808 624.62,-1885"/>
<image xlink:href="img/mob.png" width="77px" height="77px" preserveAspectRatio="xMinYMin meet" x="547.625" y="-1885"/>
<text text-anchor="middle" x="586.12" y="-1840.7" font-family="MS Gothic" font-size="14.00">Giantess</text>
</g>
<!-- Giantess&#45;&gt;Young Giantess -->
<g id="edge48" class="edge">
<title>Giantess&#45;&gt;Young Giantess</title>
<path fill="none" stroke="black" d="M555.06,-1807.61C548.03,-1799.04 540.49,-1789.84 533.21,-1780.96"/>
<polygon fill="black" stroke="black" points="536.05,-1778.9 527.01,-1773.39 530.64,-1783.34 536.05,-1778.9"/>
</g>
<!-- Matchem -->
<g id="node50" class="node">
<title>Matchem</title>
<polygon fill="lightblue" stroke="lightblue" points="279.62,-1998 202.62,-1998 202.62,-1921 279.62,-1921 279.62,-1998"/>
<image xlink:href="img/mob.png" width="77px" height="77px" preserveAspectRatio="xMinYMin meet" x="202.625" y="-1998"/>
<text text-anchor="middle" x="241.12" y="-1953.7" font-family="MS Gothic" font-size="14.00">Matchem</text>
</g>
<!-- Matchem&#45;&gt;Conductor -->
<g id="edge49" class="edge">
<title>Matchem&#45;&gt;Conductor</title>
<path fill="none" stroke="black" d="M258.88,-1920.61C262.64,-1912.57 266.66,-1903.99 270.58,-1895.63"/>
<polygon fill="black" stroke="black" points="273.74,-1897.13 274.81,-1886.59 267.4,-1894.16 273.74,-1897.13"/>
</g>
<!-- Snap Mare -->
<g id="node51" class="node">
<title>Snap Mare</title>
<polygon fill="lightcoral" stroke="lightcoral" points="384.62,-1998 307.62,-1998 307.62,-1921 384.62,-1921 384.62,-1998"/>
<image xlink:href="img/mob.png" width="77px" height="77px" preserveAspectRatio="xMinYMin meet" x="307.625" y="-1998"/>
<text text-anchor="middle" x="346.12" y="-1953.7" font-family="MS Gothic" font-size="14.00">Snap Mare</text>
</g>
<!-- Snap Mare&#45;&gt;Conductor -->
<g id="edge50" class="edge">
<title>Snap Mare&#45;&gt;Conductor</title>
<path fill="none" stroke="black" d="M328.03,-1920.61C324.15,-1912.48 320.01,-1903.8 315.97,-1895.35"/>
<polygon fill="black" stroke="black" points="319.25,-1894.1 311.79,-1886.58 312.94,-1897.12 319.25,-1894.1"/>
</g>
<!-- Cade -->
<g id="node52" class="node">
<title>Cade</title>
<polygon fill="lightblue" stroke="lightblue" points="174.62,-2111 97.62,-2111 97.62,-2034 174.62,-2034 174.62,-2111"/>
<image xlink:href="img/mob.png" width="77px" height="77px" preserveAspectRatio="xMinYMin meet" x="97.625" y="-2111"/>
<text text-anchor="middle" x="136.12" y="-2066.7" font-family="MS Gothic" font-size="14.00">Cade</text>
</g>
<!-- Cade&#45;&gt;Matchem -->
<g id="edge51" class="edge">
<title>Cade&#45;&gt;Matchem</title>
<path fill="none" stroke="black" d="M171.97,-2033.61C180.24,-2024.86 189.14,-2015.46 197.7,-2006.4"/>
<polygon fill="black" stroke="black" points="200.08,-2008.99 204.41,-1999.32 194.99,-2004.18 200.08,-2008.99"/>
</g>
<!-- Partner Mare -->
<g id="node53" class="node">
<title>Partner Mare</title>
<polygon fill="lightcoral" stroke="lightcoral" points="289.62,-2111 192.62,-2111 192.62,-2034 289.62,-2034 289.62,-2111"/>
<image xlink:href="img/mob.png" width="97px" height="77px" preserveAspectRatio="xMinYMin meet" x="192.625" y="-2111"/>
<text text-anchor="middle" x="241.12" y="-2066.7" font-family="MS Gothic" font-size="14.00">Partner Mare</text>
</g>
<!-- Partner Mare&#45;&gt;Matchem -->
<g id="edge52" class="edge">
<title>Partner Mare&#45;&gt;Matchem</title>
<path fill="none" stroke="black" d="M241.12,-2033.61C241.12,-2025.84 241.12,-2017.56 241.12,-2009.46"/>
<polygon fill="black" stroke="black" points="244.63,-2009.73 241.13,-1999.73 237.63,-2009.73 244.63,-2009.73"/>
</g>
<!-- Snap -->
<g id="node54" class="node">
<title>Snap</title>
<polygon fill="lightblue" stroke="lightblue" points="384.62,-2111 307.62,-2111 307.62,-2034 384.62,-2034 384.62,-2111"/>
<image xlink:href="img/mob.png" width="77px" height="77px" preserveAspectRatio="xMinYMin meet" x="307.625" y="-2111"/>
<text text-anchor="middle" x="346.12" y="-2066.7" font-family="MS Gothic" font-size="14.00">Snap</text>
</g>
<!-- Snap&#45;&gt;Snap Mare -->
<g id="edge53" class="edge">
<title>Snap&#45;&gt;Snap Mare</title>
<path fill="none" stroke="black" d="M346.12,-2033.61C346.12,-2025.84 346.12,-2017.56 346.12,-2009.46"/>
<polygon fill="black" stroke="black" points="349.63,-2009.73 346.13,-1999.73 342.63,-2009.73 349.63,-2009.73"/>
</g>
<!-- Diana -->
<g id="node55" class="node">
<title>Diana</title>
<polygon fill="lightcoral" stroke="lightcoral" points="479.62,-2111 402.62,-2111 402.62,-2034 479.62,-2034 479.62,-2111"/>
<image xlink:href="img/mob.png" width="77px" height="77px" preserveAspectRatio="xMinYMin meet" x="402.625" y="-2111"/>
<text text-anchor="middle" x="441.12" y="-2066.7" font-family="MS Gothic" font-size="14.00">Diana</text>
</g>
<!-- Diana&#45;&gt;Snap Mare -->
<g id="edge54" class="edge">
<title>Diana&#45;&gt;Snap Mare</title>
<path fill="none" stroke="black" d="M408.7,-2033.61C401.36,-2025.04 393.49,-2015.84 385.89,-2006.96"/>
<polygon fill="black" stroke="black" points="388.55,-2004.69 379.39,-1999.37 383.23,-2009.24 388.55,-2004.69"/>
</g>
<!-- ゴドルフィンバルブ -->
<g id="node56" class="node">
<title>ゴドルフィンバルブ</title>
<polygon fill="lightblue" stroke="lightblue" points="144.25,-2224 0,-2224 0,-2147 144.25,-2147 144.25,-2224"/>
<image xlink:href="img/mob.png" width="100px" height="77px" preserveAspectRatio="xMinYMin meet" x="22.125" y="-2224"/>
<text text-anchor="middle" x="72.12" y="-2179.7" font-family="MS Gothic" font-size="14.00">ゴドルフィンバルブ</text>
</g>
<!-- ゴドルフィンバルブ&#45;&gt;Cade -->
<g id="edge55" class="edge">
<title>ゴドルフィンバルブ&#45;&gt;Cade</title>
<path fill="none" stroke="black" d="M93.97,-2146.61C98.71,-2138.39 103.78,-2129.6 108.7,-2121.07"/>
<polygon fill="black" stroke="black" points="111.66,-2122.94 113.62,-2112.53 105.59,-2119.44 111.66,-2122.94"/>
</g>
<!-- Roxana -->
<g id="node57" class="node">
<title>Roxana</title>
<polygon fill="lightcoral" stroke="lightcoral" points="239.62,-2224 162.62,-2224 162.62,-2147 239.62,-2147 239.62,-2224"/>
<image xlink:href="img/mob.png" width="77px" height="77px" preserveAspectRatio="xMinYMin meet" x="162.625" y="-2224"/>
<text text-anchor="middle" x="201.12" y="-2179.7" font-family="MS Gothic" font-size="14.00">Roxana</text>
</g>
<!-- Roxana&#45;&gt;Cade -->
<g id="edge56" class="edge">
<title>Roxana&#45;&gt;Cade</title>
<path fill="none" stroke="black" d="M178.94,-2146.61C174.13,-2138.39 168.98,-2129.6 163.98,-2121.07"/>
<polygon fill="black" stroke="black" points="167.05,-2119.39 158.98,-2112.52 161.01,-2122.92 167.05,-2119.39"/>
</g>
<!-- Bald Galloway -->
<g id="node58" class="node">
<title>Bald Galloway</title>
<polygon fill="lightblue" stroke="lightblue" points="183,-2337 79.25,-2337 79.25,-2260 183,-2260 183,-2337"/>
<image xlink:href="img/mob.png" width="100px" height="77px" preserveAspectRatio="xMinYMin meet" x="81.125" y="-2337"/>
<text text-anchor="middle" x="131.12" y="-2292.7" font-family="MS Gothic" font-size="14.00">Bald Galloway</text>
</g>
<!-- Bald Galloway&#45;&gt;Roxana -->
<g id="edge57" class="edge">
<title>Bald Galloway&#45;&gt;Roxana</title>
<path fill="none" stroke="black" d="M155.02,-2259.61C160.26,-2251.31 165.86,-2242.41 171.3,-2233.79"/>
<polygon fill="black" stroke="black" points="174.16,-2235.82 176.53,-2225.5 168.24,-2232.09 174.16,-2235.82"/>
</g>
<!-- Sister to Chaunter -->
<g id="node59" class="node">
<title>Sister to Chaunter</title>
<polygon fill="lightcoral" stroke="lightcoral" points="338.88,-2337 201.38,-2337 201.38,-2260 338.88,-2260 338.88,-2337"/>
<image xlink:href="img/mob.png" width="100px" height="77px" preserveAspectRatio="xMinYMin meet" x="220.125" y="-2337"/>
<text text-anchor="middle" x="270.12" y="-2292.7" font-family="MS Gothic" font-size="14.00">Sister to Chaunter</text>
</g>
<!-- Sister to Chaunter&#45;&gt;Roxana -->
<g id="edge58" class="edge">
<title>Sister to Chaunter&#45;&gt;Roxana</title>
<path fill="none" stroke="black" d="M246.57,-2259.61C241.41,-2251.31 235.88,-2242.41 230.52,-2233.79"/>
<polygon fill="black" stroke="black" points="233.62,-2232.15 225.37,-2225.5 227.68,-2235.84 233.62,-2232.15"/>
</g>
</g>
</svg>
