<?xml version="1.0" encoding="UTF-8" standalone="no"?>
<!DOCTYPE svg PUBLIC "-//W3C//DTD SVG 1.1//EN"
 "http://www.w3.org/Graphics/SVG/1.1/DTD/svg11.dtd">
<!-- Generated by graphviz version 12.1.2 (20240928.0832)
 -->
<!-- Pages: 1 -->
<svg width="1113pt" height="1441pt"
 viewBox="0.00 0.00 1112.62 1441.00" xmlns="http://www.w3.org/2000/svg" xmlns:xlink="http://www.w3.org/1999/xlink">
<g id="graph0" class="graph" transform="scale(1 1) rotate(0) translate(4 1437)">
<polygon fill="white" stroke="none" points="-4,4 -4,-1437 1108.62,-1437 1108.62,4 -4,4"/>
<!-- Lord Clifden -->
<g id="node1" class="node">
<title>Lord Clifden</title>
<polygon fill="none" stroke="black" points="966.38,-77 879.88,-77 879.88,0 966.38,0 966.38,-77"/>
<image xlink:href="img/mob.png" width="86.5px" height="77px" preserveAspectRatio="xMinYMin meet" x="879.875" y="-77"/>
<text text-anchor="middle" x="923.12" y="-33.45" font-family="Times New Roman,serif" font-size="14.00">Lord Clifden</text>
</g>
<!-- Newminster -->
<g id="node2" class="node">
<title>Newminster</title>
<polygon fill="lightblue" stroke="lightblue" points="915.88,-190 832.38,-190 832.38,-113 915.88,-113 915.88,-190"/>
<image xlink:href="img/mob.png" width="83.5px" height="77px" preserveAspectRatio="xMinYMin meet" x="832.375" y="-190"/>
<text text-anchor="middle" x="874.12" y="-145.7" font-family="MS Gothic" font-size="14.00">Newminster</text>
</g>
<!-- Newminster&#45;&gt;Lord Clifden -->
<g id="edge1" class="edge">
<title>Newminster&#45;&gt;Lord Clifden</title>
<path fill="none" stroke="black" d="M890.85,-112.61C894.4,-104.57 898.19,-95.99 901.88,-87.63"/>
<polygon fill="black" stroke="black" points="905.03,-89.17 905.86,-78.6 898.62,-86.34 905.03,-89.17"/>
</g>
<!-- The Slave -->
<g id="node3" class="node">
<title>The Slave</title>
<polygon fill="lightcoral" stroke="lightcoral" points="1010.62,-190 933.62,-190 933.62,-113 1010.62,-113 1010.62,-190"/>
<image xlink:href="img/mob.png" width="77px" height="77px" preserveAspectRatio="xMinYMin meet" x="933.625" y="-190"/>
<text text-anchor="middle" x="972.12" y="-145.7" font-family="MS Gothic" font-size="14.00">The Slave</text>
</g>
<!-- The Slave&#45;&gt;Lord Clifden -->
<g id="edge2" class="edge">
<title>The Slave&#45;&gt;Lord Clifden</title>
<path fill="none" stroke="black" d="M955.4,-112.61C951.85,-104.57 948.06,-95.99 944.37,-87.63"/>
<polygon fill="black" stroke="black" points="947.63,-86.34 940.39,-78.6 941.22,-89.17 947.63,-86.34"/>
</g>
<!-- Touchstone -->
<g id="node4" class="node">
<title>Touchstone</title>
<polygon fill="lightblue" stroke="lightblue" points="818.88,-303 735.38,-303 735.38,-226 818.88,-226 818.88,-303"/>
<image xlink:href="img/mob.png" width="83.5px" height="77px" preserveAspectRatio="xMinYMin meet" x="735.375" y="-303"/>
<text text-anchor="middle" x="777.12" y="-258.7" font-family="MS Gothic" font-size="14.00">Touchstone</text>
</g>
<!-- Touchstone&#45;&gt;Newminster -->
<g id="edge3" class="edge">
<title>Touchstone&#45;&gt;Newminster</title>
<path fill="none" stroke="black" d="M810.24,-225.61C817.81,-216.95 825.93,-207.65 833.77,-198.68"/>
<polygon fill="black" stroke="black" points="836.22,-201.19 840.17,-191.36 830.95,-196.59 836.22,-201.19"/>
</g>
<!-- Beeswing -->
<g id="node5" class="node">
<title>Beeswing</title>
<polygon fill="lightcoral" stroke="lightcoral" points="913.62,-303 836.62,-303 836.62,-226 913.62,-226 913.62,-303"/>
<image xlink:href="img/mob.png" width="77px" height="77px" preserveAspectRatio="xMinYMin meet" x="836.625" y="-303"/>
<text text-anchor="middle" x="875.12" y="-258.7" font-family="MS Gothic" font-size="14.00">Beeswing</text>
</g>
<!-- Beeswing&#45;&gt;Newminster -->
<g id="edge4" class="edge">
<title>Beeswing&#45;&gt;Newminster</title>
<path fill="none" stroke="black" d="M874.78,-225.61C874.71,-217.84 874.64,-209.56 874.57,-201.46"/>
<polygon fill="black" stroke="black" points="878.07,-201.7 874.48,-191.73 871.07,-201.76 878.07,-201.7"/>
</g>
<!-- Melbourne -->
<g id="node6" class="node">
<title>Melbourne</title>
<polygon fill="lightblue" stroke="lightblue" points="1009.62,-303 932.62,-303 932.62,-226 1009.62,-226 1009.62,-303"/>
<image xlink:href="img/mob.png" width="77px" height="77px" preserveAspectRatio="xMinYMin meet" x="932.625" y="-303"/>
<text text-anchor="middle" x="971.12" y="-258.7" font-family="MS Gothic" font-size="14.00">Melbourne</text>
</g>
<!-- Melbourne&#45;&gt;The Slave -->
<g id="edge5" class="edge">
<title>Melbourne&#45;&gt;The Slave</title>
<path fill="none" stroke="black" d="M971.47,-225.61C971.54,-217.84 971.61,-209.56 971.68,-201.46"/>
<polygon fill="black" stroke="black" points="975.18,-201.76 971.77,-191.73 968.18,-201.7 975.18,-201.76"/>
</g>
<!-- Volley -->
<g id="node7" class="node">
<title>Volley</title>
<polygon fill="lightcoral" stroke="lightcoral" points="1104.62,-303 1027.62,-303 1027.62,-226 1104.62,-226 1104.62,-303"/>
<image xlink:href="img/mob.png" width="77px" height="77px" preserveAspectRatio="xMinYMin meet" x="1027.62" y="-303"/>
<text text-anchor="middle" x="1066.12" y="-258.7" font-family="MS Gothic" font-size="14.00">Volley</text>
</g>
<!-- Volley&#45;&gt;The Slave -->
<g id="edge6" class="edge">
<title>Volley&#45;&gt;The Slave</title>
<path fill="none" stroke="black" d="M1034.04,-225.61C1026.78,-217.04 1018.99,-207.84 1011.47,-198.96"/>
<polygon fill="black" stroke="black" points="1014.18,-196.74 1005.05,-191.37 1008.84,-201.27 1014.18,-196.74"/>
</g>
<!-- Camel -->
<g id="node8" class="node">
<title>Camel</title>
<polygon fill="lightblue" stroke="lightblue" points="761.62,-416 684.62,-416 684.62,-339 761.62,-339 761.62,-416"/>
<image xlink:href="img/mob.png" width="77px" height="77px" preserveAspectRatio="xMinYMin meet" x="684.625" y="-416"/>
<text text-anchor="middle" x="723.12" y="-371.7" font-family="MS Gothic" font-size="14.00">Camel</text>
</g>
<!-- Camel&#45;&gt;Touchstone -->
<g id="edge7" class="edge">
<title>Camel&#45;&gt;Touchstone</title>
<path fill="none" stroke="black" d="M741.56,-338.61C745.51,-330.48 749.74,-321.8 753.85,-313.35"/>
<polygon fill="black" stroke="black" points="756.89,-315.1 758.11,-304.58 750.59,-312.04 756.89,-315.1"/>
</g>
<!-- Banter -->
<g id="node9" class="node">
<title>Banter</title>
<polygon fill="lightcoral" stroke="lightcoral" points="869.62,-416 792.62,-416 792.62,-339 869.62,-339 869.62,-416"/>
<image xlink:href="img/mob.png" width="77px" height="77px" preserveAspectRatio="xMinYMin meet" x="792.625" y="-416"/>
<text text-anchor="middle" x="831.12" y="-371.7" font-family="MS Gothic" font-size="14.00">Banter</text>
</g>
<!-- Banter&#45;&gt;Touchstone -->
<g id="edge8" class="edge">
<title>Banter&#45;&gt;Touchstone</title>
<path fill="none" stroke="black" d="M812.69,-338.61C808.74,-330.48 804.51,-321.8 800.4,-313.35"/>
<polygon fill="black" stroke="black" points="803.66,-312.04 796.14,-304.58 797.36,-315.1 803.66,-312.04"/>
</g>
<!-- Whalebone -->
<g id="node10" class="node">
<title>Whalebone</title>
<polygon fill="lightblue" stroke="lightblue" points="663.62,-529 586.62,-529 586.62,-452 663.62,-452 663.62,-529"/>
<image xlink:href="img/mob.png" width="77px" height="77px" preserveAspectRatio="xMinYMin meet" x="586.625" y="-529"/>
<text text-anchor="middle" x="625.12" y="-484.7" font-family="MS Gothic" font-size="14.00">Whalebone</text>
</g>
<!-- Whalebone&#45;&gt;Camel -->
<g id="edge9" class="edge">
<title>Whalebone&#45;&gt;Camel</title>
<path fill="none" stroke="black" d="M658.58,-451.61C666.22,-442.95 674.44,-433.65 682.35,-424.68"/>
<polygon fill="black" stroke="black" points="684.83,-427.17 688.82,-417.35 679.58,-422.53 684.83,-427.17"/>
</g>
<!-- Selim Mare -->
<g id="node11" class="node">
<title>Selim Mare</title>
<polygon fill="lightcoral" stroke="lightcoral" points="764.88,-529 681.38,-529 681.38,-452 764.88,-452 764.88,-529"/>
<image xlink:href="img/mob.png" width="83.5px" height="77px" preserveAspectRatio="xMinYMin meet" x="681.375" y="-529"/>
<text text-anchor="middle" x="723.12" y="-484.7" font-family="MS Gothic" font-size="14.00">Selim Mare</text>
</g>
<!-- Selim Mare&#45;&gt;Camel -->
<g id="edge10" class="edge">
<title>Selim Mare&#45;&gt;Camel</title>
<path fill="none" stroke="black" d="M723.12,-451.61C723.12,-443.84 723.12,-435.56 723.12,-427.46"/>
<polygon fill="black" stroke="black" points="726.63,-427.73 723.13,-417.73 719.63,-427.73 726.63,-427.73"/>
</g>
<!-- Master Henry -->
<g id="node12" class="node">
<title>Master Henry</title>
<polygon fill="lightblue" stroke="lightblue" points="879.62,-529 782.62,-529 782.62,-452 879.62,-452 879.62,-529"/>
<image xlink:href="img/mob.png" width="97px" height="77px" preserveAspectRatio="xMinYMin meet" x="782.625" y="-529"/>
<text text-anchor="middle" x="831.12" y="-484.7" font-family="MS Gothic" font-size="14.00">Master Henry</text>
</g>
<!-- Master Henry&#45;&gt;Banter -->
<g id="edge11" class="edge">
<title>Master Henry&#45;&gt;Banter</title>
<path fill="none" stroke="black" d="M831.12,-451.61C831.12,-443.84 831.12,-435.56 831.12,-427.46"/>
<polygon fill="black" stroke="black" points="834.63,-427.73 831.13,-417.73 827.63,-427.73 834.63,-427.73"/>
</g>
<!-- Boadicea -->
<g id="node13" class="node">
<title>Boadicea</title>
<polygon fill="lightcoral" stroke="lightcoral" points="974.62,-529 897.62,-529 897.62,-452 974.62,-452 974.62,-529"/>
<image xlink:href="img/mob.png" width="77px" height="77px" preserveAspectRatio="xMinYMin meet" x="897.625" y="-529"/>
<text text-anchor="middle" x="936.12" y="-484.7" font-family="MS Gothic" font-size="14.00">Boadicea</text>
</g>
<!-- Boadicea&#45;&gt;Banter -->
<g id="edge12" class="edge">
<title>Boadicea&#45;&gt;Banter</title>
<path fill="none" stroke="black" d="M900.28,-451.61C892.01,-442.86 883.11,-433.46 874.55,-424.4"/>
<polygon fill="black" stroke="black" points="877.26,-422.18 867.84,-417.32 872.17,-426.99 877.26,-422.18"/>
</g>
<!-- Waxy -->
<g id="node14" class="node">
<title>Waxy</title>
<polygon fill="lightblue" stroke="lightblue" points="616.62,-642 539.62,-642 539.62,-565 616.62,-565 616.62,-642"/>
<image xlink:href="img/mob.png" width="77px" height="77px" preserveAspectRatio="xMinYMin meet" x="539.625" y="-642"/>
<text text-anchor="middle" x="578.12" y="-597.7" font-family="MS Gothic" font-size="14.00">Waxy</text>
</g>
<!-- Waxy&#45;&gt;Whalebone -->
<g id="edge13" class="edge">
<title>Waxy&#45;&gt;Whalebone</title>
<path fill="none" stroke="black" d="M594.17,-564.61C597.57,-556.57 601.21,-547.99 604.75,-539.63"/>
<polygon fill="black" stroke="black" points="607.89,-541.19 608.56,-530.61 601.44,-538.46 607.89,-541.19"/>
</g>
<!-- Penelope -->
<g id="node15" class="node">
<title>Penelope</title>
<polygon fill="lightcoral" stroke="lightcoral" points="711.62,-642 634.62,-642 634.62,-565 711.62,-565 711.62,-642"/>
<image xlink:href="img/mob.png" width="77px" height="77px" preserveAspectRatio="xMinYMin meet" x="634.625" y="-642"/>
<text text-anchor="middle" x="673.12" y="-597.7" font-family="MS Gothic" font-size="14.00">Penelope</text>
</g>
<!-- Penelope&#45;&gt;Whalebone -->
<g id="edge14" class="edge">
<title>Penelope&#45;&gt;Whalebone</title>
<path fill="none" stroke="black" d="M656.74,-564.61C653.26,-556.57 649.55,-547.99 645.94,-539.63"/>
<polygon fill="black" stroke="black" points="649.22,-538.4 642.04,-530.61 642.79,-541.18 649.22,-538.4"/>
</g>
<!-- Pot&#45;8&#45;Os -->
<g id="node16" class="node">
<title>Pot&#45;8&#45;Os</title>
<polygon fill="lightblue" stroke="lightblue" points="521.62,-755 444.62,-755 444.62,-678 521.62,-678 521.62,-755"/>
<image xlink:href="img/mob.png" width="77px" height="77px" preserveAspectRatio="xMinYMin meet" x="444.625" y="-755"/>
<text text-anchor="middle" x="483.12" y="-710.7" font-family="MS Gothic" font-size="14.00">Pot&#45;8&#45;Os</text>
</g>
<!-- Pot&#45;8&#45;Os&#45;&gt;Waxy -->
<g id="edge15" class="edge">
<title>Pot&#45;8&#45;Os&#45;&gt;Waxy</title>
<path fill="none" stroke="black" d="M515.55,-677.61C522.89,-669.04 530.76,-659.84 538.36,-650.96"/>
<polygon fill="black" stroke="black" points="541.02,-653.24 544.86,-643.37 535.7,-648.69 541.02,-653.24"/>
</g>
<!-- Maria III -->
<g id="node17" class="node">
<title>Maria III</title>
<polygon fill="lightcoral" stroke="lightcoral" points="616.62,-755 539.62,-755 539.62,-678 616.62,-678 616.62,-755"/>
<image xlink:href="img/mob.png" width="77px" height="77px" preserveAspectRatio="xMinYMin meet" x="539.625" y="-755"/>
<text text-anchor="middle" x="578.12" y="-710.7" font-family="MS Gothic" font-size="14.00">Maria III</text>
</g>
<!-- Maria III&#45;&gt;Waxy -->
<g id="edge16" class="edge">
<title>Maria III&#45;&gt;Waxy</title>
<path fill="none" stroke="black" d="M578.12,-677.61C578.12,-669.84 578.12,-661.56 578.12,-653.46"/>
<polygon fill="black" stroke="black" points="581.63,-653.73 578.13,-643.73 574.63,-653.73 581.63,-653.73"/>
</g>
<!-- Trumpator -->
<g id="node18" class="node">
<title>Trumpator</title>
<polygon fill="lightblue" stroke="lightblue" points="711.62,-755 634.62,-755 634.62,-678 711.62,-678 711.62,-755"/>
<image xlink:href="img/mob.png" width="77px" height="77px" preserveAspectRatio="xMinYMin meet" x="634.625" y="-755"/>
<text text-anchor="middle" x="673.12" y="-710.7" font-family="MS Gothic" font-size="14.00">Trumpator</text>
</g>
<!-- Trumpator&#45;&gt;Penelope -->
<g id="edge17" class="edge">
<title>Trumpator&#45;&gt;Penelope</title>
<path fill="none" stroke="black" d="M673.12,-677.61C673.12,-669.84 673.12,-661.56 673.12,-653.46"/>
<polygon fill="black" stroke="black" points="676.63,-653.73 673.13,-643.73 669.63,-653.73 676.63,-653.73"/>
</g>
<!-- Prunella -->
<g id="node19" class="node">
<title>Prunella</title>
<polygon fill="lightcoral" stroke="lightcoral" points="806.62,-755 729.62,-755 729.62,-678 806.62,-678 806.62,-755"/>
<image xlink:href="img/mob.png" width="77px" height="77px" preserveAspectRatio="xMinYMin meet" x="729.625" y="-755"/>
<text text-anchor="middle" x="768.12" y="-710.7" font-family="MS Gothic" font-size="14.00">Prunella</text>
</g>
<!-- Prunella&#45;&gt;Penelope -->
<g id="edge18" class="edge">
<title>Prunella&#45;&gt;Penelope</title>
<path fill="none" stroke="black" d="M735.7,-677.61C728.36,-669.04 720.49,-659.84 712.89,-650.96"/>
<polygon fill="black" stroke="black" points="715.55,-648.69 706.39,-643.37 710.23,-653.24 715.55,-648.69"/>
</g>
<!-- Eclipse -->
<g id="node20" class="node">
<title>Eclipse</title>
<polygon fill="lightblue" stroke="lightblue" points="465.62,-868 388.62,-868 388.62,-791 465.62,-791 465.62,-868"/>
<image xlink:href="img/mob.png" width="77px" height="77px" preserveAspectRatio="xMinYMin meet" x="388.625" y="-868"/>
<text text-anchor="middle" x="427.12" y="-823.7" font-family="MS Gothic" font-size="14.00">Eclipse</text>
</g>
<!-- Eclipse&#45;&gt;Pot&#45;8&#45;Os -->
<g id="edge19" class="edge">
<title>Eclipse&#45;&gt;Pot&#45;8&#45;Os</title>
<path fill="none" stroke="black" d="M446.24,-790.61C450.34,-782.48 454.72,-773.8 458.99,-765.35"/>
<polygon fill="black" stroke="black" points="462.03,-767.07 463.41,-756.57 455.78,-763.92 462.03,-767.07"/>
</g>
<!-- Sportsmistress -->
<g id="node21" class="node">
<title>Sportsmistress</title>
<polygon fill="lightcoral" stroke="lightcoral" points="594.38,-868 483.88,-868 483.88,-791 594.38,-791 594.38,-868"/>
<image xlink:href="img/mob.png" width="100px" height="77px" preserveAspectRatio="xMinYMin meet" x="489.125" y="-868"/>
<text text-anchor="middle" x="539.12" y="-823.7" font-family="MS Gothic" font-size="14.00">Sportsmistress</text>
</g>
<!-- Sportsmistress&#45;&gt;Pot&#45;8&#45;Os -->
<g id="edge20" class="edge">
<title>Sportsmistress&#45;&gt;Pot&#45;8&#45;Os</title>
<path fill="none" stroke="black" d="M520.01,-790.61C515.91,-782.48 511.53,-773.8 507.26,-765.35"/>
<polygon fill="black" stroke="black" points="510.47,-763.92 502.84,-756.57 504.22,-767.07 510.47,-763.92"/>
</g>
<!-- Marske -->
<g id="node22" class="node">
<title>Marske</title>
<polygon fill="lightblue" stroke="lightblue" points="375.62,-981 298.62,-981 298.62,-904 375.62,-904 375.62,-981"/>
<image xlink:href="img/mob.png" width="77px" height="77px" preserveAspectRatio="xMinYMin meet" x="298.625" y="-981"/>
<text text-anchor="middle" x="337.12" y="-936.7" font-family="MS Gothic" font-size="14.00">Marske</text>
</g>
<!-- Marske&#45;&gt;Eclipse -->
<g id="edge21" class="edge">
<title>Marske&#45;&gt;Eclipse</title>
<path fill="none" stroke="black" d="M367.85,-903.61C374.8,-895.04 382.26,-885.84 389.46,-876.96"/>
<polygon fill="black" stroke="black" points="392.01,-879.37 395.59,-869.39 386.57,-874.96 392.01,-879.37"/>
</g>
<!-- Spilletta -->
<g id="node23" class="node">
<title>Spilletta</title>
<polygon fill="lightcoral" stroke="lightcoral" points="470.62,-981 393.62,-981 393.62,-904 470.62,-904 470.62,-981"/>
<image xlink:href="img/mob.png" width="77px" height="77px" preserveAspectRatio="xMinYMin meet" x="393.625" y="-981"/>
<text text-anchor="middle" x="432.12" y="-936.7" font-family="MS Gothic" font-size="14.00">Spilletta</text>
</g>
<!-- Spilletta&#45;&gt;Eclipse -->
<g id="edge22" class="edge">
<title>Spilletta&#45;&gt;Eclipse</title>
<path fill="none" stroke="black" d="M430.42,-903.61C430.07,-895.84 429.7,-887.56 429.33,-879.46"/>
<polygon fill="black" stroke="black" points="432.84,-879.56 428.89,-869.73 425.85,-879.88 432.84,-879.56"/>
</g>
<!-- Sportsman -->
<g id="node24" class="node">
<title>Sportsman</title>
<polygon fill="lightblue" stroke="lightblue" points="573.62,-981 496.62,-981 496.62,-904 573.62,-904 573.62,-981"/>
<image xlink:href="img/mob.png" width="77px" height="77px" preserveAspectRatio="xMinYMin meet" x="496.625" y="-981"/>
<text text-anchor="middle" x="535.12" y="-936.7" font-family="MS Gothic" font-size="14.00">Sportsman</text>
</g>
<!-- Sportsman&#45;&gt;Sportsmistress -->
<g id="edge23" class="edge">
<title>Sportsman&#45;&gt;Sportsmistress</title>
<path fill="none" stroke="black" d="M536.49,-903.61C536.77,-895.84 537.07,-887.56 537.36,-879.46"/>
<polygon fill="black" stroke="black" points="540.85,-879.85 537.71,-869.73 533.85,-879.6 540.85,-879.85"/>
</g>
<!-- Golden Locks -->
<g id="node25" class="node">
<title>Golden Locks</title>
<polygon fill="lightcoral" stroke="lightcoral" points="688.62,-981 591.62,-981 591.62,-904 688.62,-904 688.62,-981"/>
<image xlink:href="img/mob.png" width="97px" height="77px" preserveAspectRatio="xMinYMin meet" x="591.625" y="-981"/>
<text text-anchor="middle" x="640.12" y="-936.7" font-family="MS Gothic" font-size="14.00">Golden Locks</text>
</g>
<!-- Golden Locks&#45;&gt;Sportsmistress -->
<g id="edge24" class="edge">
<title>Golden Locks&#45;&gt;Sportsmistress</title>
<path fill="none" stroke="black" d="M605.65,-903.61C597.77,-894.95 589.3,-885.65 581.15,-876.68"/>
<polygon fill="black" stroke="black" points="583.78,-874.38 574.46,-869.34 578.61,-879.09 583.78,-874.38"/>
</g>
<!-- Squirt -->
<g id="node26" class="node">
<title>Squirt</title>
<polygon fill="lightblue" stroke="lightblue" points="304.62,-1094 227.62,-1094 227.62,-1017 304.62,-1017 304.62,-1094"/>
<image xlink:href="img/mob.png" width="77px" height="77px" preserveAspectRatio="xMinYMin meet" x="227.625" y="-1094"/>
<text text-anchor="middle" x="266.12" y="-1049.7" font-family="MS Gothic" font-size="14.00">Squirt</text>
</g>
<!-- Squirt&#45;&gt;Marske -->
<g id="edge25" class="edge">
<title>Squirt&#45;&gt;Marske</title>
<path fill="none" stroke="black" d="M290.36,-1016.61C295.67,-1008.31 301.36,-999.41 306.88,-990.79"/>
<polygon fill="black" stroke="black" points="309.74,-992.8 312.18,-982.49 303.85,-989.03 309.74,-992.8"/>
</g>
<!-- Hutton&#39;s Blacklegs Mare -->
<g id="node27" class="node">
<title>Hutton&#39;s Blacklegs Mare</title>
<polygon fill="lightcoral" stroke="lightcoral" points="493.75,-1094 322.5,-1094 322.5,-1017 493.75,-1017 493.75,-1094"/>
<image xlink:href="img/mob.png" width="100px" height="77px" preserveAspectRatio="xMinYMin meet" x="358.125" y="-1094"/>
<text text-anchor="middle" x="408.12" y="-1049.7" font-family="MS Gothic" font-size="14.00">Hutton&#39;s Blacklegs Mare</text>
</g>
<!-- Hutton&#39;s Blacklegs Mare&#45;&gt;Marske -->
<g id="edge26" class="edge">
<title>Hutton&#39;s Blacklegs Mare&#45;&gt;Marske</title>
<path fill="none" stroke="black" d="M383.89,-1016.61C378.58,-1008.31 372.89,-999.41 367.37,-990.79"/>
<polygon fill="black" stroke="black" points="370.4,-989.03 362.07,-982.49 364.51,-992.8 370.4,-989.03"/>
</g>
<!-- Bartlet&#39;s Childers -->
<g id="node28" class="node">
<title>Bartlet&#39;s Childers</title>
<polygon fill="lightblue" stroke="lightblue" points="209.88,-1207 72.38,-1207 72.38,-1130 209.88,-1130 209.88,-1207"/>
<image xlink:href="img/mob.png" width="100px" height="77px" preserveAspectRatio="xMinYMin meet" x="91.125" y="-1207"/>
<text text-anchor="middle" x="141.12" y="-1162.7" font-family="MS Gothic" font-size="14.00">Bartlet&#39;s Childers</text>
</g>
<!-- Bartlet&#39;s Childers&#45;&gt;Squirt -->
<g id="edge27" class="edge">
<title>Bartlet&#39;s Childers&#45;&gt;Squirt</title>
<path fill="none" stroke="black" d="M183.79,-1129.61C195.18,-1119.5 207.54,-1108.53 219.14,-1098.22"/>
<polygon fill="black" stroke="black" points="221.14,-1101.13 226.29,-1091.87 216.49,-1095.89 221.14,-1101.13"/>
</g>
<!-- Snake Mare -->
<g id="node29" class="node">
<title>Snake Mare</title>
<polygon fill="lightcoral" stroke="lightcoral" points="311.88,-1207 228.38,-1207 228.38,-1130 311.88,-1130 311.88,-1207"/>
<image xlink:href="img/mob.png" width="83.5px" height="77px" preserveAspectRatio="xMinYMin meet" x="228.375" y="-1207"/>
<text text-anchor="middle" x="270.12" y="-1162.7" font-family="MS Gothic" font-size="14.00">Snake Mare</text>
</g>
<!-- Snake Mare&#45;&gt;Squirt -->
<g id="edge28" class="edge">
<title>Snake Mare&#45;&gt;Squirt</title>
<path fill="none" stroke="black" d="M268.76,-1129.61C268.48,-1121.84 268.18,-1113.56 267.89,-1105.46"/>
<polygon fill="black" stroke="black" points="271.4,-1105.6 267.54,-1095.73 264.4,-1105.85 271.4,-1105.6"/>
</g>
<!-- Hutton&#39;s Blacklegs -->
<g id="node30" class="node">
<title>Hutton&#39;s Blacklegs</title>
<polygon fill="lightblue" stroke="lightblue" points="473.88,-1207 336.38,-1207 336.38,-1130 473.88,-1130 473.88,-1207"/>
<image xlink:href="img/mob.png" width="100px" height="77px" preserveAspectRatio="xMinYMin meet" x="355.125" y="-1207"/>
<text text-anchor="middle" x="405.12" y="-1162.7" font-family="MS Gothic" font-size="14.00">Hutton&#39;s Blacklegs</text>
</g>
<!-- Hutton&#39;s Blacklegs&#45;&gt;Hutton&#39;s Blacklegs Mare -->
<g id="edge29" class="edge">
<title>Hutton&#39;s Blacklegs&#45;&gt;Hutton&#39;s Blacklegs Mare</title>
<path fill="none" stroke="black" d="M406.15,-1129.61C406.36,-1121.84 406.58,-1113.56 406.8,-1105.46"/>
<polygon fill="black" stroke="black" points="410.29,-1105.82 407.06,-1095.73 403.3,-1105.63 410.29,-1105.82"/>
</g>
<!-- Bay Bolton Mare -->
<g id="node31" class="node">
<title>Bay Bolton Mare</title>
<polygon fill="lightcoral" stroke="lightcoral" points="608.75,-1207 491.5,-1207 491.5,-1130 608.75,-1130 608.75,-1207"/>
<image xlink:href="img/mob.png" width="100px" height="77px" preserveAspectRatio="xMinYMin meet" x="500.125" y="-1207"/>
<text text-anchor="middle" x="550.12" y="-1162.7" font-family="MS Gothic" font-size="14.00">Bay Bolton Mare</text>
</g>
<!-- Bay Bolton Mare&#45;&gt;Hutton&#39;s Blacklegs Mare -->
<g id="edge30" class="edge">
<title>Bay Bolton Mare&#45;&gt;Hutton&#39;s Blacklegs Mare</title>
<path fill="none" stroke="black" d="M501.65,-1129.61C490,-1120.5 477.45,-1110.69 465.43,-1101.3"/>
<polygon fill="black" stroke="black" points="467.6,-1098.55 457.57,-1095.15 463.29,-1104.07 467.6,-1098.55"/>
</g>
<!-- ダーレーアラビアン -->
<g id="node32" class="node">
<title>ダーレーアラビアン</title>
<polygon fill="lightblue" stroke="lightblue" points="144.25,-1320 0,-1320 0,-1243 144.25,-1243 144.25,-1320"/>
<image xlink:href="img/darearabian.png" width="100px" height="77px" preserveAspectRatio="xMinYMin meet" x="22.125" y="-1320"/>
<text text-anchor="middle" x="72.12" y="-1275.7" font-family="MS Gothic" font-size="14.00">ダーレーアラビアン</text>
</g>
<!-- ダーレーアラビアン&#45;&gt;Bartlet&#39;s Childers -->
<g id="edge31" class="edge">
<title>ダーレーアラビアン&#45;&gt;Bartlet&#39;s Childers</title>
<path fill="none" stroke="black" d="M95.68,-1242.61C100.84,-1234.31 106.37,-1225.41 111.73,-1216.79"/>
<polygon fill="black" stroke="black" points="114.57,-1218.84 116.88,-1208.5 108.63,-1215.15 114.57,-1218.84"/>
</g>
<!-- Betty Leedes -->
<g id="node33" class="node">
<title>Betty Leedes</title>
<polygon fill="lightcoral" stroke="lightcoral" points="259.62,-1320 162.62,-1320 162.62,-1243 259.62,-1243 259.62,-1320"/>
<image xlink:href="img/mob.png" width="97px" height="77px" preserveAspectRatio="xMinYMin meet" x="162.625" y="-1320"/>
<text text-anchor="middle" x="211.12" y="-1275.7" font-family="MS Gothic" font-size="14.00">Betty Leedes</text>
</g>
<!-- Betty Leedes&#45;&gt;Bartlet&#39;s Childers -->
<g id="edge32" class="edge">
<title>Betty Leedes&#45;&gt;Bartlet&#39;s Childers</title>
<path fill="none" stroke="black" d="M187.23,-1242.61C181.99,-1234.31 176.39,-1225.41 170.95,-1216.79"/>
<polygon fill="black" stroke="black" points="174.01,-1215.09 165.72,-1208.5 168.09,-1218.82 174.01,-1215.09"/>
</g>
<!-- Old Careless -->
<g id="node34" class="node">
<title>Old Careless</title>
<polygon fill="lightblue" stroke="lightblue" points="201.62,-1433 104.62,-1433 104.62,-1356 201.62,-1356 201.62,-1433"/>
<image xlink:href="img/mob.png" width="97px" height="77px" preserveAspectRatio="xMinYMin meet" x="104.625" y="-1433"/>
<text text-anchor="middle" x="153.12" y="-1388.7" font-family="MS Gothic" font-size="14.00">Old Careless</text>
</g>
<!-- Old Careless&#45;&gt;Betty Leedes -->
<g id="edge33" class="edge">
<title>Old Careless&#45;&gt;Betty Leedes</title>
<path fill="none" stroke="black" d="M172.92,-1355.61C177.17,-1347.48 181.71,-1338.8 186.12,-1330.35"/>
<polygon fill="black" stroke="black" points="189.19,-1332.04 190.72,-1321.56 182.98,-1328.8 189.19,-1332.04"/>
</g>
<!-- Cream Cheeks -->
<g id="node35" class="node">
<title>Cream Cheeks</title>
<polygon fill="lightcoral" stroke="lightcoral" points="316.62,-1433 219.62,-1433 219.62,-1356 316.62,-1356 316.62,-1433"/>
<image xlink:href="img/mob.png" width="97px" height="77px" preserveAspectRatio="xMinYMin meet" x="219.625" y="-1433"/>
<text text-anchor="middle" x="268.12" y="-1388.7" font-family="MS Gothic" font-size="14.00">Cream Cheeks</text>
</g>
<!-- Cream Cheeks&#45;&gt;Betty Leedes -->
<g id="edge34" class="edge">
<title>Cream Cheeks&#45;&gt;Betty Leedes</title>
<path fill="none" stroke="black" d="M248.67,-1355.61C244.5,-1347.48 240.03,-1338.8 235.7,-1330.35"/>
<polygon fill="black" stroke="black" points="238.87,-1328.86 231.19,-1321.57 232.64,-1332.06 238.87,-1328.86"/>
</g>
</g>
</svg>
