<?xml version="1.0" encoding="UTF-8" standalone="no"?>
<!DOCTYPE svg PUBLIC "-//W3C//DTD SVG 1.1//EN"
 "http://www.w3.org/Graphics/SVG/1.1/DTD/svg11.dtd">
<!-- Generated by graphviz version 12.1.2 (20240928.0832)
 -->
<!-- Pages: 1 -->
<svg width="756pt" height="537pt"
 viewBox="0.00 0.00 755.62 537.00" xmlns="http://www.w3.org/2000/svg" xmlns:xlink="http://www.w3.org/1999/xlink">
<g id="graph0" class="graph" transform="scale(1 1) rotate(0) translate(4 533)">
<polygon fill="white" stroke="none" points="-4,4 -4,-533 751.62,-533 751.62,4 -4,4"/>
<!-- Marske -->
<g id="node1" class="node">
<title>Marske</title>
<polygon fill="none" stroke="black" points="492.62,-77 415.62,-77 415.62,0 492.62,0 492.62,-77"/>
<image xlink:href="img/mob.png" width="77px" height="77px" preserveAspectRatio="xMinYMin meet" x="415.625" y="-77"/>
<text text-anchor="middle" x="454.12" y="-33.45" font-family="Times New Roman,serif" font-size="14.00">Marske</text>
</g>
<!-- Squirt -->
<g id="node2" class="node">
<title>Squirt</title>
<polygon fill="lightblue" stroke="lightblue" points="421.62,-190 344.62,-190 344.62,-113 421.62,-113 421.62,-190"/>
<image xlink:href="img/mob.png" width="77px" height="77px" preserveAspectRatio="xMinYMin meet" x="344.625" y="-190"/>
<text text-anchor="middle" x="383.12" y="-145.7" font-family="MS Gothic" font-size="14.00">Squirt</text>
</g>
<!-- Squirt&#45;&gt;Marske -->
<g id="edge1" class="edge">
<title>Squirt&#45;&gt;Marske</title>
<path fill="none" stroke="black" d="M407.36,-112.61C412.67,-104.31 418.36,-95.41 423.88,-86.79"/>
<polygon fill="black" stroke="black" points="426.74,-88.8 429.18,-78.49 420.85,-85.03 426.74,-88.8"/>
</g>
<!-- Hutton&#39;s Blacklegs Mare -->
<g id="node3" class="node">
<title>Hutton&#39;s Blacklegs Mare</title>
<polygon fill="lightcoral" stroke="lightcoral" points="610.75,-190 439.5,-190 439.5,-113 610.75,-113 610.75,-190"/>
<image xlink:href="img/mob.png" width="100px" height="77px" preserveAspectRatio="xMinYMin meet" x="475.125" y="-190"/>
<text text-anchor="middle" x="525.12" y="-145.7" font-family="MS Gothic" font-size="14.00">Hutton&#39;s Blacklegs Mare</text>
</g>
<!-- Hutton&#39;s Blacklegs Mare&#45;&gt;Marske -->
<g id="edge2" class="edge">
<title>Hutton&#39;s Blacklegs Mare&#45;&gt;Marske</title>
<path fill="none" stroke="black" d="M500.89,-112.61C495.58,-104.31 489.89,-95.41 484.37,-86.79"/>
<polygon fill="black" stroke="black" points="487.4,-85.03 479.07,-78.49 481.51,-88.8 487.4,-85.03"/>
</g>
<!-- Bartlet&#39;s Childers -->
<g id="node4" class="node">
<title>Bartlet&#39;s Childers</title>
<polygon fill="lightblue" stroke="lightblue" points="279.88,-303 142.38,-303 142.38,-226 279.88,-226 279.88,-303"/>
<image xlink:href="img/mob.png" width="100px" height="77px" preserveAspectRatio="xMinYMin meet" x="161.125" y="-303"/>
<text text-anchor="middle" x="211.12" y="-258.7" font-family="MS Gothic" font-size="14.00">Bartlet&#39;s Childers</text>
</g>
<!-- Bartlet&#39;s Childers&#45;&gt;Squirt -->
<g id="edge3" class="edge">
<title>Bartlet&#39;s Childers&#45;&gt;Squirt</title>
<path fill="none" stroke="black" d="M269.84,-225.61C290.91,-212.01 314.43,-196.83 334.55,-183.85"/>
<polygon fill="black" stroke="black" points="336.35,-186.85 342.85,-178.49 332.55,-180.97 336.35,-186.85"/>
</g>
<!-- Snake Mare -->
<g id="node5" class="node">
<title>Snake Mare</title>
<polygon fill="lightcoral" stroke="lightcoral" points="428.88,-303 345.38,-303 345.38,-226 428.88,-226 428.88,-303"/>
<image xlink:href="img/mob.png" width="83.5px" height="77px" preserveAspectRatio="xMinYMin meet" x="345.375" y="-303"/>
<text text-anchor="middle" x="387.12" y="-258.7" font-family="MS Gothic" font-size="14.00">Snake Mare</text>
</g>
<!-- Snake Mare&#45;&gt;Squirt -->
<g id="edge4" class="edge">
<title>Snake Mare&#45;&gt;Squirt</title>
<path fill="none" stroke="black" d="M385.76,-225.61C385.48,-217.84 385.18,-209.56 384.89,-201.46"/>
<polygon fill="black" stroke="black" points="388.4,-201.6 384.54,-191.73 381.4,-201.85 388.4,-201.6"/>
</g>
<!-- Hutton&#39;s Blacklegs -->
<g id="node6" class="node">
<title>Hutton&#39;s Blacklegs</title>
<polygon fill="lightblue" stroke="lightblue" points="590.88,-303 453.38,-303 453.38,-226 590.88,-226 590.88,-303"/>
<image xlink:href="img/mob.png" width="100px" height="77px" preserveAspectRatio="xMinYMin meet" x="472.125" y="-303"/>
<text text-anchor="middle" x="522.12" y="-258.7" font-family="MS Gothic" font-size="14.00">Hutton&#39;s Blacklegs</text>
</g>
<!-- Hutton&#39;s Blacklegs&#45;&gt;Hutton&#39;s Blacklegs Mare -->
<g id="edge5" class="edge">
<title>Hutton&#39;s Blacklegs&#45;&gt;Hutton&#39;s Blacklegs Mare</title>
<path fill="none" stroke="black" d="M523.15,-225.61C523.36,-217.84 523.58,-209.56 523.8,-201.46"/>
<polygon fill="black" stroke="black" points="527.29,-201.82 524.06,-191.73 520.3,-201.63 527.29,-201.82"/>
</g>
<!-- Bay Bolton Mare -->
<g id="node7" class="node">
<title>Bay Bolton Mare</title>
<polygon fill="lightcoral" stroke="lightcoral" points="725.75,-303 608.5,-303 608.5,-226 725.75,-226 725.75,-303"/>
<image xlink:href="img/mob.png" width="100px" height="77px" preserveAspectRatio="xMinYMin meet" x="617.125" y="-303"/>
<text text-anchor="middle" x="667.12" y="-258.7" font-family="MS Gothic" font-size="14.00">Bay Bolton Mare</text>
</g>
<!-- Bay Bolton Mare&#45;&gt;Hutton&#39;s Blacklegs Mare -->
<g id="edge6" class="edge">
<title>Bay Bolton Mare&#45;&gt;Hutton&#39;s Blacklegs Mare</title>
<path fill="none" stroke="black" d="M618.65,-225.61C607,-216.5 594.45,-206.69 582.43,-197.3"/>
<polygon fill="black" stroke="black" points="584.6,-194.55 574.57,-191.15 580.29,-200.07 584.6,-194.55"/>
</g>
<!-- ダーレーアラビアン -->
<g id="node8" class="node">
<title>ダーレーアラビアン</title>
<polygon fill="lightblue" stroke="lightblue" points="144.25,-416 0,-416 0,-339 144.25,-339 144.25,-416"/>
<image xlink:href="img/darearabian.png" width="100px" height="77px" preserveAspectRatio="xMinYMin meet" x="22.125" y="-416"/>
<text text-anchor="middle" x="72.12" y="-371.7" font-family="MS Gothic" font-size="14.00">ダーレーアラビアン</text>
</g>
<!-- ダーレーアラビアン&#45;&gt;Bartlet&#39;s Childers -->
<g id="edge7" class="edge">
<title>ダーレーアラビアン&#45;&gt;Bartlet&#39;s Childers</title>
<path fill="none" stroke="black" d="M119.57,-338.61C130.98,-329.5 143.27,-319.69 155.03,-310.3"/>
<polygon fill="black" stroke="black" points="157.08,-313.14 162.71,-304.16 152.71,-307.67 157.08,-313.14"/>
</g>
<!-- Betty Leedes -->
<g id="node9" class="node">
<title>Betty Leedes</title>
<polygon fill="lightcoral" stroke="lightcoral" points="259.62,-416 162.62,-416 162.62,-339 259.62,-339 259.62,-416"/>
<image xlink:href="img/mob.png" width="97px" height="77px" preserveAspectRatio="xMinYMin meet" x="162.625" y="-416"/>
<text text-anchor="middle" x="211.12" y="-371.7" font-family="MS Gothic" font-size="14.00">Betty Leedes</text>
</g>
<!-- Betty Leedes&#45;&gt;Bartlet&#39;s Childers -->
<g id="edge8" class="edge">
<title>Betty Leedes&#45;&gt;Bartlet&#39;s Childers</title>
<path fill="none" stroke="black" d="M211.12,-338.61C211.12,-330.84 211.12,-322.56 211.12,-314.46"/>
<polygon fill="black" stroke="black" points="214.63,-314.73 211.13,-304.73 207.63,-314.73 214.63,-314.73"/>
</g>
<!-- Old Careless -->
<g id="node10" class="node">
<title>Old Careless</title>
<polygon fill="lightblue" stroke="lightblue" points="144.62,-529 47.62,-529 47.62,-452 144.62,-452 144.62,-529"/>
<image xlink:href="img/mob.png" width="97px" height="77px" preserveAspectRatio="xMinYMin meet" x="47.625" y="-529"/>
<text text-anchor="middle" x="96.12" y="-484.7" font-family="MS Gothic" font-size="14.00">Old Careless</text>
</g>
<!-- Old Careless&#45;&gt;Betty Leedes -->
<g id="edge9" class="edge">
<title>Old Careless&#45;&gt;Betty Leedes</title>
<path fill="none" stroke="black" d="M135.38,-451.61C144.54,-442.77 154.39,-433.26 163.85,-424.13"/>
<polygon fill="black" stroke="black" points="166.19,-426.73 170.96,-417.27 161.33,-421.7 166.19,-426.73"/>
</g>
<!-- Cream Cheeks -->
<g id="node11" class="node">
<title>Cream Cheeks</title>
<polygon fill="lightcoral" stroke="lightcoral" points="259.62,-529 162.62,-529 162.62,-452 259.62,-452 259.62,-529"/>
<image xlink:href="img/mob.png" width="97px" height="77px" preserveAspectRatio="xMinYMin meet" x="162.625" y="-529"/>
<text text-anchor="middle" x="211.12" y="-484.7" font-family="MS Gothic" font-size="14.00">Cream Cheeks</text>
</g>
<!-- Cream Cheeks&#45;&gt;Betty Leedes -->
<g id="edge10" class="edge">
<title>Cream Cheeks&#45;&gt;Betty Leedes</title>
<path fill="none" stroke="black" d="M211.12,-451.61C211.12,-443.84 211.12,-435.56 211.12,-427.46"/>
<polygon fill="black" stroke="black" points="214.63,-427.73 211.13,-417.73 207.63,-427.73 214.63,-427.73"/>
</g>
<!-- Snake -->
<g id="node12" class="node">
<title>Snake</title>
<polygon fill="lightblue" stroke="lightblue" points="425.62,-416 348.62,-416 348.62,-339 425.62,-339 425.62,-416"/>
<image xlink:href="img/mob.png" width="77px" height="77px" preserveAspectRatio="xMinYMin meet" x="348.625" y="-416"/>
<text text-anchor="middle" x="387.12" y="-371.7" font-family="MS Gothic" font-size="14.00">Snake</text>
</g>
<!-- Snake&#45;&gt;Snake Mare -->
<g id="edge11" class="edge">
<title>Snake&#45;&gt;Snake Mare</title>
<path fill="none" stroke="black" d="M387.12,-338.61C387.12,-330.84 387.12,-322.56 387.12,-314.46"/>
<polygon fill="black" stroke="black" points="390.63,-314.73 387.13,-304.73 383.63,-314.73 390.63,-314.73"/>
</g>
<!-- Grey Wilkes -->
<g id="node13" class="node">
<title>Grey Wilkes</title>
<polygon fill="lightcoral" stroke="lightcoral" points="585.25,-416 495,-416 495,-339 585.25,-339 585.25,-416"/>
<image xlink:href="img/mob.png" width="90.25px" height="77px" preserveAspectRatio="xMinYMin meet" x="495" y="-416"/>
<text text-anchor="middle" x="540.12" y="-371.7" font-family="MS Gothic" font-size="14.00">Grey Wilkes</text>
</g>
<!-- Grey Wilkes&#45;&gt;Snake Mare -->
<g id="edge12" class="edge">
<title>Grey Wilkes&#45;&gt;Snake Mare</title>
<path fill="none" stroke="black" d="M494.63,-343.5C477.01,-330.71 456.73,-316 438.58,-302.83"/>
<polygon fill="black" stroke="black" points="440.68,-300.03 430.53,-296.99 436.57,-305.69 440.68,-300.03"/>
</g>
<!-- Lister Turk -->
<g id="node14" class="node">
<title>Lister Turk</title>
<polygon fill="lightblue" stroke="lightblue" points="368.25,-529 278,-529 278,-452 368.25,-452 368.25,-529"/>
<image xlink:href="img/mob.png" width="90.25px" height="77px" preserveAspectRatio="xMinYMin meet" x="278" y="-529"/>
<text text-anchor="middle" x="323.12" y="-484.7" font-family="MS Gothic" font-size="14.00">Lister Turk</text>
</g>
<!-- Lister Turk&#45;&gt;Snake -->
<g id="edge13" class="edge">
<title>Lister Turk&#45;&gt;Snake</title>
<path fill="none" stroke="black" d="M344.97,-451.61C349.71,-443.39 354.78,-434.6 359.7,-426.07"/>
<polygon fill="black" stroke="black" points="362.66,-427.94 364.62,-417.53 356.59,-424.44 362.66,-427.94"/>
</g>
<!-- Hautboy Mare -->
<g id="node15" class="node">
<title>Hautboy Mare</title>
<polygon fill="lightcoral" stroke="lightcoral" points="483.62,-529 386.62,-529 386.62,-452 483.62,-452 483.62,-529"/>
<image xlink:href="img/mob.png" width="97px" height="77px" preserveAspectRatio="xMinYMin meet" x="386.625" y="-529"/>
<text text-anchor="middle" x="435.12" y="-484.7" font-family="MS Gothic" font-size="14.00">Hautboy Mare</text>
</g>
<!-- Hautboy Mare&#45;&gt;Snake -->
<g id="edge14" class="edge">
<title>Hautboy Mare&#45;&gt;Snake</title>
<path fill="none" stroke="black" d="M418.74,-451.61C415.26,-443.57 411.55,-434.99 407.94,-426.63"/>
<polygon fill="black" stroke="black" points="411.22,-425.4 404.04,-417.61 404.79,-428.18 411.22,-425.4"/>
</g>
<!-- Hautboy -->
<g id="node16" class="node">
<title>Hautboy</title>
<polygon fill="lightblue" stroke="lightblue" points="578.62,-529 501.62,-529 501.62,-452 578.62,-452 578.62,-529"/>
<image xlink:href="img/mob.png" width="77px" height="77px" preserveAspectRatio="xMinYMin meet" x="501.625" y="-529"/>
<text text-anchor="middle" x="540.12" y="-484.7" font-family="MS Gothic" font-size="14.00">Hautboy</text>
</g>
<!-- Hautboy&#45;&gt;Grey Wilkes -->
<g id="edge15" class="edge">
<title>Hautboy&#45;&gt;Grey Wilkes</title>
<path fill="none" stroke="black" d="M540.12,-451.61C540.12,-443.84 540.12,-435.56 540.12,-427.46"/>
<polygon fill="black" stroke="black" points="543.63,-427.73 540.13,-417.73 536.63,-427.73 543.63,-427.73"/>
</g>
<!-- Miss Darcys Pet Mare -->
<g id="node17" class="node">
<title>Miss Darcys Pet Mare</title>
<polygon fill="lightcoral" stroke="lightcoral" points="747.62,-529 596.62,-529 596.62,-452 747.62,-452 747.62,-529"/>
<image xlink:href="img/mob.png" width="100px" height="77px" preserveAspectRatio="xMinYMin meet" x="622.125" y="-529"/>
<text text-anchor="middle" x="672.12" y="-484.7" font-family="MS Gothic" font-size="14.00">Miss Darcys Pet Mare</text>
</g>
<!-- Miss Darcys Pet Mare&#45;&gt;Grey Wilkes -->
<g id="edge16" class="edge">
<title>Miss Darcys Pet Mare&#45;&gt;Grey Wilkes</title>
<path fill="none" stroke="black" d="M627.07,-451.61C616.34,-442.59 604.79,-432.88 593.73,-423.57"/>
<polygon fill="black" stroke="black" points="596.04,-420.95 586.14,-417.19 591.54,-426.31 596.04,-420.95"/>
</g>
</g>
</svg>
