<?xml version="1.0" encoding="UTF-8" standalone="no"?>
<!DOCTYPE svg PUBLIC "-//W3C//DTD SVG 1.1//EN"
 "http://www.w3.org/Graphics/SVG/1.1/DTD/svg11.dtd">
<!-- Generated by graphviz version 12.1.2 (20240928.0832)
 -->
<!-- Pages: 1 -->
<svg width="2215pt" height="1102pt"
 viewBox="0.00 0.00 2214.62 1101.50" xmlns="http://www.w3.org/2000/svg" xmlns:xlink="http://www.w3.org/1999/xlink">
<g id="graph0" class="graph" transform="scale(1 1) rotate(0) translate(4 1097.5)">
<!-- Marske_0_1 -->
<g id="node1" class="node">
<title>Marske_0_1</title>
<g id="a_node1"><a xlink:href="https://www.google.com/search?q=Marske%20%28netkeiba%20OR%20wikipedia%29" xlink:title="Marske">
<polygon fill="none" stroke="black" points="975.25,-24.5 918,-24.5 918,0 975.25,0 975.25,-24.5"/>
<text text-anchor="middle" x="946.62" y="-7.2" font-family="Times New Roman,serif" font-size="14.00">Marske</text>
</a>
</g>
</g>
<!-- Squirt_1_1 -->
<g id="node2" class="node">
<title>Squirt_1_1</title>
<g id="a_node2"><a xlink:href="https://www.google.com/search?q=Squirt%20%28netkeiba%20OR%20wikipedia%29" xlink:title="Squirt">
<polygon fill="lightblue" stroke="lightblue" points="738.88,-227.5 682.38,-227.5 682.38,-204.5 738.88,-204.5 738.88,-227.5"/>
<text text-anchor="middle" x="710.62" y="-210.2" font-family="MS Gothic" font-size="14.00">Squirt</text>
</a>
</g>
</g>
<!-- Squirt_1_1&#45;&gt;Marske_0_1 -->
<g id="edge1" class="edge">
<title>Squirt_1_1&#45;&gt;Marske_0_1</title>
<path fill="none" stroke="lightblue" stroke-width="5" d="M723.31,-204.15C760.59,-172.29 870.29,-78.51 920.72,-35.39"/>
<polygon fill="lightblue" stroke="lightblue" stroke-width="5" points="923.5,-38.78 928.26,-28.95 917.81,-32.13 923.5,-38.78"/>
</g>
<!-- Bartlet&#39;s Childers_2_1 -->
<g id="node3" class="node">
<title>Bartlet&#39;s Childers_2_1</title>
<g id="a_node3"><a xlink:href="https://www.google.com/search?q=Bartlet%27s%20Childers%20%28netkeiba%20OR%20wikipedia%29" xlink:title="Bartlet&#39;s Childers">
<polygon fill="lightblue" stroke="lightblue" points="308.38,-430.5 170.88,-430.5 170.88,-407.5 308.38,-407.5 308.38,-430.5"/>
<text text-anchor="middle" x="239.62" y="-413.2" font-family="MS Gothic" font-size="14.00">Bartlet&#39;s Childers</text>
</a>
</g>
</g>
<!-- Bartlet&#39;s Childers_2_1&#45;&gt;Squirt_1_1 -->
<g id="edge2" class="edge">
<title>Bartlet&#39;s Childers_2_1&#45;&gt;Squirt_1_1</title>
<path fill="none" stroke="lightblue" stroke-width="5" d="M265.28,-407.05C342.94,-373.91 575.9,-274.49 670.27,-234.22"/>
<polygon fill="lightblue" stroke="lightblue" stroke-width="5" points="671.73,-238.36 679.21,-230.41 668.29,-230.31 671.73,-238.36"/>
</g>
<!-- ダーレーアラビアン_3_1 -->
<g id="node4" class="node">
<title>ダーレーアラビアン_3_1</title>
<g id="a_node4"><a xlink:href="https://www.google.com/search?q=%E3%83%80%E3%83%BC%E3%83%AC%E3%83%BC%E3%82%A2%E3%83%A9%E3%83%93%E3%82%A2%E3%83%B3%20%28netkeiba%20OR%20wikipedia%29" xlink:title="ダーレーアラビアン">
<polygon fill="lightblue" stroke="lightblue" points="154.75,-687.5 10.5,-687.5 10.5,-610.5 154.75,-610.5 154.75,-687.5"/>
<image xlink:href="img/darearabian.png" width="100px" height="77px" preserveAspectRatio="xMinYMin meet" x="32.625" y="-687.5"/>
<text text-anchor="middle" x="82.62" y="-643.2" font-family="MS Gothic" font-size="14.00">ダーレーアラビアン</text>
</a>
</g>
</g>
<!-- ダーレーアラビアン_3_1&#45;&gt;Bartlet&#39;s Childers_2_1 -->
<g id="edge3" class="edge">
<title>ダーレーアラビアン_3_1&#45;&gt;Bartlet&#39;s Childers_2_1</title>
<path fill="none" stroke="lightblue" stroke-width="5" d="M108.73,-610.09C141.28,-562.82 195.97,-483.4 223.19,-443.86"/>
<polygon fill="lightblue" stroke="lightblue" stroke-width="5" points="226.72,-446.46 228.79,-435.74 219.51,-441.49 226.72,-446.46"/>
</g>
<!-- unknown_4_1 -->
<g id="node5" class="node">
<title>unknown_4_1</title>
<g id="a_node5"><a xlink:href="https://www.google.com/search?q=unknown%20%28netkeiba%20OR%20wikipedia%29" xlink:title="unknown">
<polygon fill="lightcoral" stroke="lightcoral" points="85.25,-890.5 22,-890.5 22,-867.5 85.25,-867.5 85.25,-890.5"/>
<text text-anchor="middle" x="53.62" y="-873.2" font-family="MS Gothic" font-size="14.00">unknown</text>
</a>
</g>
</g>
<!-- unknown_4_1&#45;&gt;ダーレーアラビアン_3_1 -->
<g id="edge4" class="edge">
<title>unknown_4_1&#45;&gt;ダーレーアラビアン_3_1</title>
<path fill="none" stroke="lightblue" stroke-width="5" d="M55.02,-867C58.7,-838.06 68.85,-758.28 75.76,-703.96"/>
<polygon fill="lightblue" stroke="lightblue" stroke-width="5" points="80.08,-704.66 77,-694.19 71.4,-703.55 80.08,-704.66"/>
</g>
<!-- unknown_5_2 -->
<g id="node6" class="node">
<title>unknown_5_2</title>
<g id="a_node6"><a xlink:href="https://www.google.com/search?q=unknown%20%28netkeiba%20OR%20wikipedia%29" xlink:title="unknown">
<polygon fill="lightcoral" stroke="lightcoral" points="63.25,-1093.5 0,-1093.5 0,-1070.5 63.25,-1070.5 63.25,-1093.5"/>
<text text-anchor="middle" x="31.62" y="-1076.2" font-family="MS Gothic" font-size="14.00">unknown</text>
</a>
</g>
</g>
<!-- unknown_5_2&#45;&gt;unknown_4_1 -->
<g id="edge5" class="edge">
<title>unknown_5_2&#45;&gt;unknown_4_1</title>
<path fill="none" stroke="lightblue" stroke-width="5" d="M32.81,-1070.19C36.16,-1039.59 45.78,-951.64 50.68,-906.88"/>
<polygon fill="lightblue" stroke="lightblue" stroke-width="5" points="55.02,-907.48 51.76,-897.06 46.32,-906.52 55.02,-907.48"/>
</g>
<!-- Betty Leedes_3_1 -->
<g id="node7" class="node">
<title>Betty Leedes_3_1</title>
<g id="a_node7"><a xlink:href="https://www.google.com/search?q=Betty%20Leedes%20%28netkeiba%20OR%20wikipedia%29" xlink:title="Betty Leedes">
<polygon fill="lightcoral" stroke="lightcoral" points="288.12,-660.5 191.12,-660.5 191.12,-637.5 288.12,-637.5 288.12,-660.5"/>
<text text-anchor="middle" x="239.62" y="-643.2" font-family="MS Gothic" font-size="14.00">Betty Leedes</text>
</a>
</g>
</g>
<!-- Betty Leedes_3_1&#45;&gt;Bartlet&#39;s Childers_2_1 -->
<g id="edge6" class="edge">
<title>Betty Leedes_3_1&#45;&gt;Bartlet&#39;s Childers_2_1</title>
<path fill="none" stroke="lightcoral" stroke-width="5" d="M239.62,-637C239.62,-602.7 239.62,-496.94 239.62,-446.84"/>
<polygon fill="lightcoral" stroke="lightcoral" stroke-width="5" points="244,-447.12 239.63,-437.12 235.25,-447.12 244,-447.12"/>
</g>
<!-- Old Careless_4_1 -->
<g id="node8" class="node">
<title>Old Careless_4_1</title>
<g id="a_node8"><a xlink:href="https://www.google.com/search?q=Old%20Careless%20%28netkeiba%20OR%20wikipedia%29" xlink:title="Old Careless">
<polygon fill="lightblue" stroke="lightblue" points="215.12,-890.5 118.12,-890.5 118.12,-867.5 215.12,-867.5 215.12,-890.5"/>
<text text-anchor="middle" x="166.62" y="-873.2" font-family="MS Gothic" font-size="14.00">Old Careless</text>
</a>
</g>
</g>
<!-- Old Careless_4_1&#45;&gt;Betty Leedes_3_1 -->
<g id="edge7" class="edge">
<title>Old Careless_4_1&#45;&gt;Betty Leedes_3_1</title>
<path fill="none" stroke="lightblue" stroke-width="5" d="M170.15,-867C181.18,-832.54 215.29,-726.01 231.24,-676.19"/>
<polygon fill="lightblue" stroke="lightblue" stroke-width="5" points="235.35,-677.68 234.24,-666.83 227.02,-675.02 235.35,-677.68"/>
</g>
<!-- Spanker_5_1 -->
<g id="node9" class="node">
<title>Spanker_5_1</title>
<g id="a_node9"><a xlink:href="https://www.google.com/search?q=Spanker%20%28netkeiba%20OR%20wikipedia%29" xlink:title="Spanker">
<polygon fill="lightblue" stroke="lightblue" points="133.25,-1093.5 70,-1093.5 70,-1070.5 133.25,-1070.5 133.25,-1093.5"/>
<text text-anchor="middle" x="101.62" y="-1076.2" font-family="MS Gothic" font-size="14.00">Spanker</text>
</a>
</g>
</g>
<!-- Spanker_5_1&#45;&gt;Old Careless_4_1 -->
<g id="edge8" class="edge">
<title>Spanker_5_1&#45;&gt;Old Careless_4_1</title>
<path fill="none" stroke="lightblue" stroke-width="5" d="M105.12,-1070.19C115.06,-1039.45 143.71,-950.86 158.13,-906.28"/>
<polygon fill="lightblue" stroke="lightblue" stroke-width="5" points="162.28,-907.66 161.19,-896.79 153.95,-904.96 162.28,-907.66"/>
</g>
<!-- unknown_5_3 -->
<g id="node10" class="node">
<title>unknown_5_3</title>
<g id="a_node10"><a xlink:href="https://www.google.com/search?q=unknown%20%28netkeiba%20OR%20wikipedia%29" xlink:title="unknown">
<polygon fill="lightcoral" stroke="lightcoral" points="203.25,-1093.5 140,-1093.5 140,-1070.5 203.25,-1070.5 203.25,-1093.5"/>
<text text-anchor="middle" x="171.62" y="-1076.2" font-family="MS Gothic" font-size="14.00">unknown</text>
</a>
</g>
</g>
<!-- unknown_5_3&#45;&gt;Old Careless_4_1 -->
<g id="edge9" class="edge">
<title>unknown_5_3&#45;&gt;Old Careless_4_1</title>
<path fill="none" stroke="lightcoral" stroke-width="5" d="M171.36,-1070.19C170.59,-1039.59 168.41,-951.64 167.29,-906.88"/>
<polygon fill="lightcoral" stroke="lightcoral" stroke-width="5" points="171.67,-906.98 167.05,-897.1 162.93,-907.2 171.67,-906.98"/>
</g>
<!-- Cream Cheeks_4_1 -->
<g id="node11" class="node">
<title>Cream Cheeks_4_1</title>
<g id="a_node11"><a xlink:href="https://www.google.com/search?q=Cream%20Cheeks%20%28netkeiba%20OR%20wikipedia%29" xlink:title="Cream Cheeks">
<polygon fill="lightcoral" stroke="lightcoral" points="319.12,-890.5 222.12,-890.5 222.12,-867.5 319.12,-867.5 319.12,-890.5"/>
<text text-anchor="middle" x="270.62" y="-873.2" font-family="MS Gothic" font-size="14.00">Cream Cheeks</text>
</a>
</g>
</g>
<!-- Cream Cheeks_4_1&#45;&gt;Betty Leedes_3_1 -->
<g id="edge10" class="edge">
<title>Cream Cheeks_4_1&#45;&gt;Betty Leedes_3_1</title>
<path fill="none" stroke="lightcoral" stroke-width="5" d="M269.13,-867C264.47,-832.7 250.09,-726.94 243.27,-676.84"/>
<polygon fill="lightcoral" stroke="lightcoral" stroke-width="5" points="247.63,-676.39 241.95,-667.07 238.96,-677.57 247.63,-676.39"/>
</g>
<!-- Leedes Arabian_5_1 -->
<g id="node12" class="node">
<title>Leedes Arabian_5_1</title>
<g id="a_node12"><a xlink:href="https://www.google.com/search?q=Leedes%20Arabian%20%28netkeiba%20OR%20wikipedia%29" xlink:title="Leedes Arabian">
<polygon fill="lightblue" stroke="lightblue" points="320.88,-1093.5 210.38,-1093.5 210.38,-1070.5 320.88,-1070.5 320.88,-1093.5"/>
<text text-anchor="middle" x="265.62" y="-1076.2" font-family="MS Gothic" font-size="14.00">Leedes Arabian</text>
</a>
</g>
</g>
<!-- Leedes Arabian_5_1&#45;&gt;Cream Cheeks_4_1 -->
<g id="edge11" class="edge">
<title>Leedes Arabian_5_1&#45;&gt;Cream Cheeks_4_1</title>
<path fill="none" stroke="lightblue" stroke-width="5" d="M265.89,-1070.19C266.66,-1039.59 268.84,-951.64 269.96,-906.88"/>
<polygon fill="lightblue" stroke="lightblue" stroke-width="5" points="274.32,-907.2 270.2,-897.1 265.58,-906.98 274.32,-907.2"/>
</g>
<!-- Spanker Mare_5_1 -->
<g id="node13" class="node">
<title>Spanker Mare_5_1</title>
<g id="a_node13"><a xlink:href="https://www.google.com/search?q=Spanker%20Mare%20%28netkeiba%20OR%20wikipedia%29" xlink:title="Spanker Mare">
<polygon fill="lightcoral" stroke="lightcoral" points="425.12,-1093.5 328.12,-1093.5 328.12,-1070.5 425.12,-1070.5 425.12,-1093.5"/>
<text text-anchor="middle" x="376.62" y="-1076.2" font-family="MS Gothic" font-size="14.00">Spanker Mare</text>
</a>
</g>
</g>
<!-- Spanker Mare_5_1&#45;&gt;Cream Cheeks_4_1 -->
<g id="edge12" class="edge">
<title>Spanker Mare_5_1&#45;&gt;Cream Cheeks_4_1</title>
<path fill="none" stroke="lightcoral" stroke-width="5" d="M370.93,-1070.19C354.57,-1039.18 307.16,-949.28 283.86,-905.11"/>
<polygon fill="lightcoral" stroke="lightcoral" stroke-width="5" points="287.8,-903.18 279.26,-896.38 280.06,-907.26 287.8,-903.18"/>
</g>
<!-- Snake Mare_2_1 -->
<g id="node14" class="node">
<title>Snake Mare_2_1</title>
<g id="a_node14"><a xlink:href="https://www.google.com/search?q=Snake%20Mare%20%28netkeiba%20OR%20wikipedia%29" xlink:title="Snake Mare">
<polygon fill="lightcoral" stroke="lightcoral" points="752.38,-430.5 668.88,-430.5 668.88,-407.5 752.38,-407.5 752.38,-430.5"/>
<text text-anchor="middle" x="710.62" y="-413.2" font-family="MS Gothic" font-size="14.00">Snake Mare</text>
</a>
</g>
</g>
<!-- Snake Mare_2_1&#45;&gt;Squirt_1_1 -->
<g id="edge13" class="edge">
<title>Snake Mare_2_1&#45;&gt;Squirt_1_1</title>
<path fill="none" stroke="lightcoral" stroke-width="5" d="M710.62,-407.19C710.62,-376.59 710.62,-288.64 710.62,-243.88"/>
<polygon fill="lightcoral" stroke="lightcoral" stroke-width="5" points="715,-244.1 710.63,-234.1 706.25,-244.1 715,-244.1"/>
</g>
<!-- Snake_3_1 -->
<g id="node15" class="node">
<title>Snake_3_1</title>
<g id="a_node15"><a xlink:href="https://www.google.com/search?q=Snake%20%28netkeiba%20OR%20wikipedia%29" xlink:title="Snake">
<polygon fill="lightblue" stroke="lightblue" points="631.5,-660.5 581.75,-660.5 581.75,-637.5 631.5,-637.5 631.5,-660.5"/>
<text text-anchor="middle" x="606.62" y="-643.2" font-family="MS Gothic" font-size="14.00">Snake</text>
</a>
</g>
</g>
<!-- Snake_3_1&#45;&gt;Snake Mare_2_1 -->
<g id="edge14" class="edge">
<title>Snake_3_1&#45;&gt;Snake Mare_2_1</title>
<path fill="none" stroke="lightblue" stroke-width="5" d="M611.64,-637C627.43,-602.39 676.38,-495.07 698.98,-445.53"/>
<polygon fill="lightblue" stroke="lightblue" stroke-width="5" points="702.9,-447.48 703.07,-436.56 694.94,-443.84 702.9,-447.48"/>
</g>
<!-- Lister Turk_4_1 -->
<g id="node16" class="node">
<title>Lister Turk_4_1</title>
<g id="a_node16"><a xlink:href="https://www.google.com/search?q=Lister%20Turk%20%28netkeiba%20OR%20wikipedia%29" xlink:title="Lister Turk">
<polygon fill="lightblue" stroke="lightblue" points="522.75,-890.5 432.5,-890.5 432.5,-867.5 522.75,-867.5 522.75,-890.5"/>
<text text-anchor="middle" x="477.62" y="-873.2" font-family="MS Gothic" font-size="14.00">Lister Turk</text>
</a>
</g>
</g>
<!-- Lister Turk_4_1&#45;&gt;Snake_3_1 -->
<g id="edge15" class="edge">
<title>Lister Turk_4_1&#45;&gt;Snake_3_1</title>
<path fill="none" stroke="lightblue" stroke-width="5" d="M483.85,-867C503.51,-832.24 564.68,-724.14 592.54,-674.89"/>
<polygon fill="lightblue" stroke="lightblue" stroke-width="5" points="596.28,-677.17 597.39,-666.32 588.66,-672.86 596.28,-677.17"/>
</g>
<!-- unknown_5_4 -->
<g id="node17" class="node">
<title>unknown_5_4</title>
<g id="a_node17"><a xlink:href="https://www.google.com/search?q=unknown%20%28netkeiba%20OR%20wikipedia%29" xlink:title="unknown">
<polygon fill="lightcoral" stroke="lightcoral" points="495.25,-1093.5 432,-1093.5 432,-1070.5 495.25,-1070.5 495.25,-1093.5"/>
<text text-anchor="middle" x="463.62" y="-1076.2" font-family="MS Gothic" font-size="14.00">unknown</text>
</a>
</g>
</g>
<!-- unknown_5_4&#45;&gt;Lister Turk_4_1 -->
<g id="edge16" class="edge">
<title>unknown_5_4&#45;&gt;Lister Turk_4_1</title>
<path fill="none" stroke="lightblue" stroke-width="5" d="M464.38,-1070.19C466.51,-1039.59 472.63,-951.64 475.75,-906.88"/>
<polygon fill="lightblue" stroke="lightblue" stroke-width="5" points="480.1,-907.36 476.44,-897.08 471.38,-906.75 480.1,-907.36"/>
</g>
<!-- Hautboy Mare_4_1 -->
<g id="node18" class="node">
<title>Hautboy Mare_4_1</title>
<g id="a_node18"><a xlink:href="https://www.google.com/search?q=Hautboy%20Mare%20%28netkeiba%20OR%20wikipedia%29" xlink:title="Hautboy Mare">
<polygon fill="lightcoral" stroke="lightcoral" points="655.12,-890.5 558.12,-890.5 558.12,-867.5 655.12,-867.5 655.12,-890.5"/>
<text text-anchor="middle" x="606.62" y="-873.2" font-family="MS Gothic" font-size="14.00">Hautboy Mare</text>
</a>
</g>
</g>
<!-- Hautboy Mare_4_1&#45;&gt;Snake_3_1 -->
<g id="edge17" class="edge">
<title>Hautboy Mare_4_1&#45;&gt;Snake_3_1</title>
<path fill="none" stroke="lightcoral" stroke-width="5" d="M606.62,-867C606.62,-832.7 606.62,-726.94 606.62,-676.84"/>
<polygon fill="lightcoral" stroke="lightcoral" stroke-width="5" points="611,-677.12 606.63,-667.12 602.25,-677.12 611,-677.12"/>
</g>
<!-- Hautboy_5_1 -->
<g id="node19" class="node">
<title>Hautboy_5_1</title>
<g id="a_node19"><a xlink:href="https://www.google.com/search?q=Hautboy%20%28netkeiba%20OR%20wikipedia%29" xlink:title="Hautboy">
<polygon fill="lightblue" stroke="lightblue" points="565.25,-1093.5 502,-1093.5 502,-1070.5 565.25,-1070.5 565.25,-1093.5"/>
<text text-anchor="middle" x="533.62" y="-1076.2" font-family="MS Gothic" font-size="14.00">Hautboy</text>
</a>
</g>
</g>
<!-- Hautboy_5_1&#45;&gt;Hautboy Mare_4_1 -->
<g id="edge18" class="edge">
<title>Hautboy_5_1&#45;&gt;Hautboy Mare_4_1</title>
<path fill="none" stroke="lightblue" stroke-width="5" d="M537.55,-1070.19C548.74,-1039.38 581.03,-950.47 597.19,-905.99"/>
<polygon fill="lightblue" stroke="lightblue" stroke-width="5" points="601.25,-907.62 600.55,-896.72 593.03,-904.63 601.25,-907.62"/>
</g>
<!-- Brimmer Mare_5_1 -->
<g id="node20" class="node">
<title>Brimmer Mare_5_1</title>
<g id="a_node20"><a xlink:href="https://www.google.com/search?q=Brimmer%20Mare%20%28netkeiba%20OR%20wikipedia%29" xlink:title="Brimmer Mare">
<polygon fill="lightcoral" stroke="lightcoral" points="669.12,-1093.5 572.12,-1093.5 572.12,-1070.5 669.12,-1070.5 669.12,-1093.5"/>
<text text-anchor="middle" x="620.62" y="-1076.2" font-family="MS Gothic" font-size="14.00">Brimmer Mare</text>
</a>
</g>
</g>
<!-- Brimmer Mare_5_1&#45;&gt;Hautboy Mare_4_1 -->
<g id="edge19" class="edge">
<title>Brimmer Mare_5_1&#45;&gt;Hautboy Mare_4_1</title>
<path fill="none" stroke="lightcoral" stroke-width="5" d="M619.87,-1070.19C617.74,-1039.59 611.62,-951.64 608.5,-906.88"/>
<polygon fill="lightcoral" stroke="lightcoral" stroke-width="5" points="612.87,-906.75 607.81,-897.08 604.15,-907.36 612.87,-906.75"/>
</g>
<!-- Grey Wilkes_3_1 -->
<g id="node21" class="node">
<title>Grey Wilkes_3_1</title>
<g id="a_node21"><a xlink:href="https://www.google.com/search?q=Grey%20Wilkes%20%28netkeiba%20OR%20wikipedia%29" xlink:title="Grey Wilkes">
<polygon fill="lightcoral" stroke="lightcoral" points="831.75,-660.5 741.5,-660.5 741.5,-637.5 831.75,-637.5 831.75,-660.5"/>
<text text-anchor="middle" x="786.62" y="-643.2" font-family="MS Gothic" font-size="14.00">Grey Wilkes</text>
</a>
</g>
</g>
<!-- Grey Wilkes_3_1&#45;&gt;Snake Mare_2_1 -->
<g id="edge20" class="edge">
<title>Grey Wilkes_3_1&#45;&gt;Snake Mare_2_1</title>
<path fill="none" stroke="lightcoral" stroke-width="5" d="M782.96,-637C771.47,-602.54 735.96,-496.01 719.35,-446.19"/>
<polygon fill="lightcoral" stroke="lightcoral" stroke-width="5" points="723.54,-444.91 716.23,-436.8 715.24,-447.67 723.54,-444.91"/>
</g>
<!-- Hautboy_4_2 -->
<g id="node22" class="node">
<title>Hautboy_4_2</title>
<g id="a_node22"><a xlink:href="https://www.google.com/search?q=Hautboy%20%28netkeiba%20OR%20wikipedia%29" xlink:title="Hautboy">
<polygon fill="lightblue" stroke="lightblue" points="818.25,-890.5 755,-890.5 755,-867.5 818.25,-867.5 818.25,-890.5"/>
<text text-anchor="middle" x="786.62" y="-873.2" font-family="MS Gothic" font-size="14.00">Hautboy</text>
</a>
</g>
</g>
<!-- Hautboy_4_2&#45;&gt;Grey Wilkes_3_1 -->
<g id="edge21" class="edge">
<title>Hautboy_4_2&#45;&gt;Grey Wilkes_3_1</title>
<path fill="none" stroke="lightblue" stroke-width="5" d="M786.62,-867C786.62,-832.7 786.62,-726.94 786.62,-676.84"/>
<polygon fill="lightblue" stroke="lightblue" stroke-width="5" points="791,-677.12 786.63,-667.12 782.25,-677.12 791,-677.12"/>
</g>
<!-- Darcy&#39;s White Turk_5_1 -->
<g id="node23" class="node">
<title>Darcy&#39;s White Turk_5_1</title>
<g id="a_node23"><a xlink:href="https://www.google.com/search?q=Darcy%27s%20White%20Turk%20%28netkeiba%20OR%20wikipedia%29" xlink:title="Darcy&#39;s White Turk">
<polygon fill="lightblue" stroke="lightblue" points="813.38,-1093.5 675.88,-1093.5 675.88,-1070.5 813.38,-1070.5 813.38,-1093.5"/>
<text text-anchor="middle" x="744.62" y="-1076.2" font-family="MS Gothic" font-size="14.00">Darcy&#39;s White Turk</text>
</a>
</g>
</g>
<!-- Darcy&#39;s White Turk_5_1&#45;&gt;Hautboy_4_2 -->
<g id="edge22" class="edge">
<title>Darcy&#39;s White Turk_5_1&#45;&gt;Hautboy_4_2</title>
<path fill="none" stroke="lightblue" stroke-width="5" d="M746.88,-1070.19C753.29,-1039.52 771.74,-951.25 781.07,-906.58"/>
<polygon fill="lightblue" stroke="lightblue" stroke-width="5" points="785.32,-907.65 783.08,-896.97 776.75,-905.86 785.32,-907.65"/>
</g>
<!-- Royal Mare_5_1 -->
<g id="node24" class="node">
<title>Royal Mare_5_1</title>
<g id="a_node24"><a xlink:href="https://www.google.com/search?q=Royal%20Mare%20%28netkeiba%20OR%20wikipedia%29" xlink:title="Royal Mare">
<polygon fill="lightcoral" stroke="lightcoral" points="904.38,-1093.5 820.88,-1093.5 820.88,-1070.5 904.38,-1070.5 904.38,-1093.5"/>
<text text-anchor="middle" x="862.62" y="-1076.2" font-family="MS Gothic" font-size="14.00">Royal Mare</text>
</a>
</g>
</g>
<!-- Royal Mare_5_1&#45;&gt;Hautboy_4_2 -->
<g id="edge23" class="edge">
<title>Royal Mare_5_1&#45;&gt;Hautboy_4_2</title>
<path fill="none" stroke="lightcoral" stroke-width="5" d="M858.54,-1070.19C846.89,-1039.38 813.27,-950.47 796.45,-905.99"/>
<polygon fill="lightcoral" stroke="lightcoral" stroke-width="5" points="800.57,-904.5 792.94,-896.69 792.38,-907.6 800.57,-904.5"/>
</g>
<!-- Miss Darcys Pet Mare_4_1 -->
<g id="node25" class="node">
<title>Miss Darcys Pet Mare_4_1</title>
<g id="a_node25"><a xlink:href="https://www.google.com/search?q=Miss%20Darcys%20Pet%20Mare%20%28netkeiba%20OR%20wikipedia%29" xlink:title="Miss Darcys Pet Mare">
<polygon fill="lightcoral" stroke="lightcoral" points="1018.12,-890.5 867.12,-890.5 867.12,-867.5 1018.12,-867.5 1018.12,-890.5"/>
<text text-anchor="middle" x="942.62" y="-873.2" font-family="MS Gothic" font-size="14.00">Miss Darcys Pet Mare</text>
</a>
</g>
</g>
<!-- Miss Darcys Pet Mare_4_1&#45;&gt;Grey Wilkes_3_1 -->
<g id="edge24" class="edge">
<title>Miss Darcys Pet Mare_4_1&#45;&gt;Grey Wilkes_3_1</title>
<path fill="none" stroke="lightcoral" stroke-width="5" d="M935.1,-867C911.21,-832.09 836.71,-723.2 803.22,-674.25"/>
<polygon fill="lightcoral" stroke="lightcoral" stroke-width="5" points="806.85,-671.82 797.6,-666.03 799.63,-676.76 806.85,-671.82"/>
</g>
<!-- unknown_5_5 -->
<g id="node26" class="node">
<title>unknown_5_5</title>
<g id="a_node26"><a xlink:href="https://www.google.com/search?q=unknown%20%28netkeiba%20OR%20wikipedia%29" xlink:title="unknown">
<polygon fill="lightblue" stroke="lightblue" points="974.25,-1093.5 911,-1093.5 911,-1070.5 974.25,-1070.5 974.25,-1093.5"/>
<text text-anchor="middle" x="942.62" y="-1076.2" font-family="MS Gothic" font-size="14.00">unknown</text>
</a>
</g>
</g>
<!-- unknown_5_5&#45;&gt;Miss Darcys Pet Mare_4_1 -->
<g id="edge25" class="edge">
<title>unknown_5_5&#45;&gt;Miss Darcys Pet Mare_4_1</title>
<path fill="none" stroke="lightblue" stroke-width="5" d="M942.62,-1070.19C942.62,-1039.59 942.62,-951.64 942.62,-906.88"/>
<polygon fill="lightblue" stroke="lightblue" stroke-width="5" points="947,-907.1 942.63,-897.1 938.25,-907.1 947,-907.1"/>
</g>
<!-- Sedbury Royal Mare_5_1 -->
<g id="node27" class="node">
<title>Sedbury Royal Mare_5_1</title>
<g id="a_node27"><a xlink:href="https://www.google.com/search?q=Sedbury%20Royal%20Mare%20%28netkeiba%20OR%20wikipedia%29" xlink:title="Sedbury Royal Mare">
<polygon fill="lightcoral" stroke="lightcoral" points="1118.38,-1093.5 980.88,-1093.5 980.88,-1070.5 1118.38,-1070.5 1118.38,-1093.5"/>
<text text-anchor="middle" x="1049.62" y="-1076.2" font-family="MS Gothic" font-size="14.00">Sedbury Royal Mare</text>
</a>
</g>
</g>
<!-- Sedbury Royal Mare_5_1&#45;&gt;Miss Darcys Pet Mare_4_1 -->
<g id="edge26" class="edge">
<title>Sedbury Royal Mare_5_1&#45;&gt;Miss Darcys Pet Mare_4_1</title>
<path fill="none" stroke="lightcoral" stroke-width="5" d="M1043.87,-1070.19C1027.36,-1039.18 979.51,-949.28 955.99,-905.11"/>
<polygon fill="lightcoral" stroke="lightcoral" stroke-width="5" points="959.9,-903.14 951.34,-896.37 952.17,-907.25 959.9,-903.14"/>
</g>
<!-- Hutton&#39;s Blacklegs Mare_1_1 -->
<g id="node28" class="node">
<title>Hutton&#39;s Blacklegs Mare_1_1</title>
<g id="a_node28"><a xlink:href="https://www.google.com/search?q=Hutton%27s%20Blacklegs%20Mare%20%28netkeiba%20OR%20wikipedia%29" xlink:title="Hutton&#39;s Blacklegs Mare">
<polygon fill="lightcoral" stroke="lightcoral" points="1337.25,-227.5 1166,-227.5 1166,-204.5 1337.25,-204.5 1337.25,-227.5"/>
<text text-anchor="middle" x="1251.62" y="-210.2" font-family="MS Gothic" font-size="14.00">Hutton&#39;s Blacklegs Mare</text>
</a>
</g>
</g>
<!-- Hutton&#39;s Blacklegs Mare_1_1&#45;&gt;Marske_0_1 -->
<g id="edge27" class="edge">
<title>Hutton&#39;s Blacklegs Mare_1_1&#45;&gt;Marske_0_1</title>
<path fill="none" stroke="lightcoral" stroke-width="5" d="M1235.23,-204.15C1186.44,-171.88 1041.64,-76.1 977.64,-33.76"/>
<polygon fill="lightcoral" stroke="lightcoral" stroke-width="5" points="980.19,-30.21 969.44,-28.34 975.37,-37.51 980.19,-30.21"/>
</g>
<!-- Hutton&#39;s Blacklegs_2_1 -->
<g id="node29" class="node">
<title>Hutton&#39;s Blacklegs_2_1</title>
<g id="a_node29"><a xlink:href="https://www.google.com/search?q=Hutton%27s%20Blacklegs%20%28netkeiba%20OR%20wikipedia%29" xlink:title="Hutton&#39;s Blacklegs">
<polygon fill="lightblue" stroke="lightblue" points="1320.38,-430.5 1182.88,-430.5 1182.88,-407.5 1320.38,-407.5 1320.38,-430.5"/>
<text text-anchor="middle" x="1251.62" y="-413.2" font-family="MS Gothic" font-size="14.00">Hutton&#39;s Blacklegs</text>
</a>
</g>
</g>
<!-- Hutton&#39;s Blacklegs_2_1&#45;&gt;Hutton&#39;s Blacklegs Mare_1_1 -->
<g id="edge28" class="edge">
<title>Hutton&#39;s Blacklegs_2_1&#45;&gt;Hutton&#39;s Blacklegs Mare_1_1</title>
<path fill="none" stroke="lightblue" stroke-width="5" d="M1251.62,-407.19C1251.62,-376.59 1251.62,-288.64 1251.62,-243.88"/>
<polygon fill="lightblue" stroke="lightblue" stroke-width="5" points="1256,-244.1 1251.63,-234.1 1247.25,-244.1 1256,-244.1"/>
</g>
<!-- Hutton&#39;s Bay Turk_3_1 -->
<g id="node30" class="node">
<title>Hutton&#39;s Bay Turk_3_1</title>
<g id="a_node30"><a xlink:href="https://www.google.com/search?q=Hutton%27s%20Bay%20Turk%20%28netkeiba%20OR%20wikipedia%29" xlink:title="Hutton&#39;s Bay Turk">
<polygon fill="lightblue" stroke="lightblue" points="1237,-660.5 1106.25,-660.5 1106.25,-637.5 1237,-637.5 1237,-660.5"/>
<text text-anchor="middle" x="1171.62" y="-643.2" font-family="MS Gothic" font-size="14.00">Hutton&#39;s Bay Turk</text>
</a>
</g>
</g>
<!-- Hutton&#39;s Bay Turk_3_1&#45;&gt;Hutton&#39;s Blacklegs_2_1 -->
<g id="edge29" class="edge">
<title>Hutton&#39;s Bay Turk_3_1&#45;&gt;Hutton&#39;s Blacklegs_2_1</title>
<path fill="none" stroke="lightblue" stroke-width="5" d="M1175.48,-637C1187.57,-602.54 1224.96,-496.01 1242.44,-446.19"/>
<polygon fill="lightblue" stroke="lightblue" stroke-width="5" points="1246.56,-447.66 1245.74,-436.77 1238.3,-444.76 1246.56,-447.66"/>
</g>
<!-- unknown_4_6 -->
<g id="node31" class="node">
<title>unknown_4_6</title>
<g id="a_node31"><a xlink:href="https://www.google.com/search?q=unknown%20%28netkeiba%20OR%20wikipedia%29" xlink:title="unknown">
<polygon fill="lightcoral" stroke="lightcoral" points="1195.25,-890.5 1132,-890.5 1132,-867.5 1195.25,-867.5 1195.25,-890.5"/>
<text text-anchor="middle" x="1163.62" y="-873.2" font-family="MS Gothic" font-size="14.00">unknown</text>
</a>
</g>
</g>
<!-- unknown_4_6&#45;&gt;Hutton&#39;s Bay Turk_3_1 -->
<g id="edge30" class="edge">
<title>unknown_4_6&#45;&gt;Hutton&#39;s Bay Turk_3_1</title>
<path fill="none" stroke="lightblue" stroke-width="5" d="M1164.01,-867C1165.21,-832.7 1168.93,-726.94 1170.68,-676.84"/>
<polygon fill="lightblue" stroke="lightblue" stroke-width="5" points="1175.05,-677.27 1171.02,-667.12 1166.3,-676.96 1175.05,-677.27"/>
</g>
<!-- unknown_5_7 -->
<g id="node32" class="node">
<title>unknown_5_7</title>
<g id="a_node32"><a xlink:href="https://www.google.com/search?q=unknown%20%28netkeiba%20OR%20wikipedia%29" xlink:title="unknown">
<polygon fill="lightcoral" stroke="lightcoral" points="1188.25,-1093.5 1125,-1093.5 1125,-1070.5 1188.25,-1070.5 1188.25,-1093.5"/>
<text text-anchor="middle" x="1156.62" y="-1076.2" font-family="MS Gothic" font-size="14.00">unknown</text>
</a>
</g>
</g>
<!-- unknown_5_7&#45;&gt;unknown_4_6 -->
<g id="edge31" class="edge">
<title>unknown_5_7&#45;&gt;unknown_4_6</title>
<path fill="none" stroke="lightblue" stroke-width="5" d="M1157,-1070.19C1158.07,-1039.59 1161.13,-951.64 1162.69,-906.88"/>
<polygon fill="lightblue" stroke="lightblue" stroke-width="5" points="1167.05,-907.24 1163.03,-897.09 1158.31,-906.94 1167.05,-907.24"/>
</g>
<!-- Coneyskins Mare_3_1 -->
<g id="node33" class="node">
<title>Coneyskins Mare_3_1</title>
<g id="a_node33"><a xlink:href="https://www.google.com/search?q=Coneyskins%20Mare%20%28netkeiba%20OR%20wikipedia%29" xlink:title="Coneyskins Mare">
<polygon fill="lightcoral" stroke="lightcoral" points="1391.25,-660.5 1274,-660.5 1274,-637.5 1391.25,-637.5 1391.25,-660.5"/>
<text text-anchor="middle" x="1332.62" y="-643.2" font-family="MS Gothic" font-size="14.00">Coneyskins Mare</text>
</a>
</g>
</g>
<!-- Coneyskins Mare_3_1&#45;&gt;Hutton&#39;s Blacklegs_2_1 -->
<g id="edge32" class="edge">
<title>Coneyskins Mare_3_1&#45;&gt;Hutton&#39;s Blacklegs_2_1</title>
<path fill="none" stroke="lightcoral" stroke-width="5" d="M1328.72,-637C1316.48,-602.54 1278.63,-496.01 1260.93,-446.19"/>
<polygon fill="lightcoral" stroke="lightcoral" stroke-width="5" points="1265.05,-444.72 1257.58,-436.76 1256.81,-447.65 1265.05,-444.72"/>
</g>
<!-- Coneyskins_4_1 -->
<g id="node34" class="node">
<title>Coneyskins_4_1</title>
<g id="a_node34"><a xlink:href="https://www.google.com/search?q=Coneyskins%20%28netkeiba%20OR%20wikipedia%29" xlink:title="Coneyskins">
<polygon fill="lightblue" stroke="lightblue" points="1374.38,-890.5 1290.88,-890.5 1290.88,-867.5 1374.38,-867.5 1374.38,-890.5"/>
<text text-anchor="middle" x="1332.62" y="-873.2" font-family="MS Gothic" font-size="14.00">Coneyskins</text>
</a>
</g>
</g>
<!-- Coneyskins_4_1&#45;&gt;Coneyskins Mare_3_1 -->
<g id="edge33" class="edge">
<title>Coneyskins_4_1&#45;&gt;Coneyskins Mare_3_1</title>
<path fill="none" stroke="lightblue" stroke-width="5" d="M1332.62,-867C1332.62,-832.7 1332.62,-726.94 1332.62,-676.84"/>
<polygon fill="lightblue" stroke="lightblue" stroke-width="5" points="1337,-677.12 1332.63,-667.12 1328.25,-677.12 1337,-677.12"/>
</g>
<!-- Lister Turk_5_2 -->
<g id="node35" class="node">
<title>Lister Turk_5_2</title>
<g id="a_node35"><a xlink:href="https://www.google.com/search?q=Lister%20Turk%20%28netkeiba%20OR%20wikipedia%29" xlink:title="Lister Turk">
<polygon fill="lightblue" stroke="lightblue" points="1285.75,-1093.5 1195.5,-1093.5 1195.5,-1070.5 1285.75,-1070.5 1285.75,-1093.5"/>
<text text-anchor="middle" x="1240.62" y="-1076.2" font-family="MS Gothic" font-size="14.00">Lister Turk</text>
</a>
</g>
</g>
<!-- Lister Turk_5_2&#45;&gt;Coneyskins_4_1 -->
<g id="edge34" class="edge">
<title>Lister Turk_5_2&#45;&gt;Coneyskins_4_1</title>
<path fill="none" stroke="lightblue" stroke-width="5" d="M1245.57,-1070.19C1259.74,-1039.25 1300.73,-949.68 1321,-905.4"/>
<polygon fill="lightblue" stroke="lightblue" stroke-width="5" points="1324.87,-907.45 1325.06,-896.53 1316.92,-903.8 1324.87,-907.45"/>
</g>
<!-- Coneyskins Dam_5_1 -->
<g id="node36" class="node">
<title>Coneyskins Dam_5_1</title>
<g id="a_node36"><a xlink:href="https://www.google.com/search?q=Coneyskins%20Dam%20%28netkeiba%20OR%20wikipedia%29" xlink:title="Coneyskins Dam">
<polygon fill="lightcoral" stroke="lightcoral" points="1402.88,-1093.5 1292.38,-1093.5 1292.38,-1070.5 1402.88,-1070.5 1402.88,-1093.5"/>
<text text-anchor="middle" x="1347.62" y="-1076.2" font-family="MS Gothic" font-size="14.00">Coneyskins Dam</text>
</a>
</g>
</g>
<!-- Coneyskins Dam_5_1&#45;&gt;Coneyskins_4_1 -->
<g id="edge35" class="edge">
<title>Coneyskins Dam_5_1&#45;&gt;Coneyskins_4_1</title>
<path fill="none" stroke="lightcoral" stroke-width="5" d="M1346.82,-1070.19C1344.53,-1039.59 1337.97,-951.64 1334.63,-906.88"/>
<polygon fill="lightcoral" stroke="lightcoral" stroke-width="5" points="1339.01,-906.73 1333.9,-897.08 1330.28,-907.38 1339.01,-906.73"/>
</g>
<!-- Clubfoot_4_1 -->
<g id="node37" class="node">
<title>Clubfoot_4_1</title>
<g id="a_node37"><a xlink:href="https://www.google.com/search?q=Clubfoot%20%28netkeiba%20OR%20wikipedia%29" xlink:title="Clubfoot">
<polygon fill="lightcoral" stroke="lightcoral" points="1476.62,-890.5 1406.62,-890.5 1406.62,-867.5 1476.62,-867.5 1476.62,-890.5"/>
<text text-anchor="middle" x="1441.62" y="-873.2" font-family="MS Gothic" font-size="14.00">Clubfoot</text>
</a>
</g>
</g>
<!-- Clubfoot_4_1&#45;&gt;Coneyskins Mare_3_1 -->
<g id="edge36" class="edge">
<title>Clubfoot_4_1&#45;&gt;Coneyskins Mare_3_1</title>
<path fill="none" stroke="lightcoral" stroke-width="5" d="M1436.37,-867C1419.82,-832.39 1368.52,-725.07 1344.83,-675.53"/>
<polygon fill="lightcoral" stroke="lightcoral" stroke-width="5" points="1348.78,-673.65 1340.52,-666.51 1340.89,-677.42 1348.78,-673.65"/>
</g>
<!-- Hautboy_5_3 -->
<g id="node38" class="node">
<title>Hautboy_5_3</title>
<g id="a_node38"><a xlink:href="https://www.google.com/search?q=Hautboy%20%28netkeiba%20OR%20wikipedia%29" xlink:title="Hautboy">
<polygon fill="lightblue" stroke="lightblue" points="1473.25,-1093.5 1410,-1093.5 1410,-1070.5 1473.25,-1070.5 1473.25,-1093.5"/>
<text text-anchor="middle" x="1441.62" y="-1076.2" font-family="MS Gothic" font-size="14.00">Hautboy</text>
</a>
</g>
</g>
<!-- Hautboy_5_3&#45;&gt;Clubfoot_4_1 -->
<g id="edge37" class="edge">
<title>Hautboy_5_3&#45;&gt;Clubfoot_4_1</title>
<path fill="none" stroke="lightblue" stroke-width="5" d="M1441.62,-1070.19C1441.62,-1039.59 1441.62,-951.64 1441.62,-906.88"/>
<polygon fill="lightblue" stroke="lightblue" stroke-width="5" points="1446,-907.1 1441.63,-897.1 1437.25,-907.1 1446,-907.1"/>
</g>
<!-- Old Clubfoot_5_1 -->
<g id="node39" class="node">
<title>Old Clubfoot_5_1</title>
<g id="a_node39"><a xlink:href="https://www.google.com/search?q=Old%20Clubfoot%20%28netkeiba%20OR%20wikipedia%29" xlink:title="Old Clubfoot">
<polygon fill="lightcoral" stroke="lightcoral" points="1577.12,-1093.5 1480.12,-1093.5 1480.12,-1070.5 1577.12,-1070.5 1577.12,-1093.5"/>
<text text-anchor="middle" x="1528.62" y="-1076.2" font-family="MS Gothic" font-size="14.00">Old Clubfoot</text>
</a>
</g>
</g>
<!-- Old Clubfoot_5_1&#45;&gt;Clubfoot_4_1 -->
<g id="edge38" class="edge">
<title>Old Clubfoot_5_1&#45;&gt;Clubfoot_4_1</title>
<path fill="none" stroke="lightcoral" stroke-width="5" d="M1523.95,-1070.19C1510.58,-1039.31 1471.95,-950.07 1452.74,-905.69"/>
<polygon fill="lightcoral" stroke="lightcoral" stroke-width="5" points="1456.79,-904.02 1448.8,-896.58 1448.76,-907.5 1456.79,-904.02"/>
</g>
<!-- Bay Bolton Mare_2_1 -->
<g id="node40" class="node">
<title>Bay Bolton Mare_2_1</title>
<g id="a_node40"><a xlink:href="https://www.google.com/search?q=Bay%20Bolton%20Mare%20%28netkeiba%20OR%20wikipedia%29" xlink:title="Bay Bolton Mare">
<polygon fill="lightcoral" stroke="lightcoral" points="1774.25,-430.5 1657,-430.5 1657,-407.5 1774.25,-407.5 1774.25,-430.5"/>
<text text-anchor="middle" x="1715.62" y="-413.2" font-family="MS Gothic" font-size="14.00">Bay Bolton Mare</text>
</a>
</g>
</g>
<!-- Bay Bolton Mare_2_1&#45;&gt;Hutton&#39;s Blacklegs Mare_1_1 -->
<g id="edge39" class="edge">
<title>Bay Bolton Mare_2_1&#45;&gt;Hutton&#39;s Blacklegs Mare_1_1</title>
<path fill="none" stroke="lightcoral" stroke-width="5" d="M1690.35,-407.05C1613.92,-373.94 1384.82,-274.7 1291.67,-234.35"/>
<polygon fill="lightcoral" stroke="lightcoral" stroke-width="5" points="1293.56,-230.4 1282.65,-230.44 1290.08,-238.43 1293.56,-230.4"/>
</g>
<!-- Bay Bolton_3_1 -->
<g id="node41" class="node">
<title>Bay Bolton_3_1</title>
<g id="a_node41"><a xlink:href="https://www.google.com/search?q=Bay%20Bolton%20%28netkeiba%20OR%20wikipedia%29" xlink:title="Bay Bolton">
<polygon fill="lightblue" stroke="lightblue" points="1757.38,-660.5 1673.88,-660.5 1673.88,-637.5 1757.38,-637.5 1757.38,-660.5"/>
<text text-anchor="middle" x="1715.62" y="-643.2" font-family="MS Gothic" font-size="14.00">Bay Bolton</text>
</a>
</g>
</g>
<!-- Bay Bolton_3_1&#45;&gt;Bay Bolton Mare_2_1 -->
<g id="edge40" class="edge">
<title>Bay Bolton_3_1&#45;&gt;Bay Bolton Mare_2_1</title>
<path fill="none" stroke="lightblue" stroke-width="5" d="M1715.62,-637C1715.62,-602.7 1715.62,-496.94 1715.62,-446.84"/>
<polygon fill="lightblue" stroke="lightblue" stroke-width="5" points="1720,-447.12 1715.63,-437.12 1711.25,-447.12 1720,-447.12"/>
</g>
<!-- Grey Hautboy_4_1 -->
<g id="node42" class="node">
<title>Grey Hautboy_4_1</title>
<g id="a_node42"><a xlink:href="https://www.google.com/search?q=Grey%20Hautboy%20%28netkeiba%20OR%20wikipedia%29" xlink:title="Grey Hautboy">
<polygon fill="lightblue" stroke="lightblue" points="1694.12,-890.5 1597.12,-890.5 1597.12,-867.5 1694.12,-867.5 1694.12,-890.5"/>
<text text-anchor="middle" x="1645.62" y="-873.2" font-family="MS Gothic" font-size="14.00">Grey Hautboy</text>
</a>
</g>
</g>
<!-- Grey Hautboy_4_1&#45;&gt;Bay Bolton_3_1 -->
<g id="edge41" class="edge">
<title>Grey Hautboy_4_1&#45;&gt;Bay Bolton_3_1</title>
<path fill="none" stroke="lightblue" stroke-width="5" d="M1649,-867C1659.58,-832.54 1692.29,-726.01 1707.59,-676.19"/>
<polygon fill="lightblue" stroke="lightblue" stroke-width="5" points="1711.7,-677.69 1710.45,-666.85 1703.33,-675.12 1711.7,-677.69"/>
</g>
<!-- Hautboy_5_4 -->
<g id="node43" class="node">
<title>Hautboy_5_4</title>
<g id="a_node43"><a xlink:href="https://www.google.com/search?q=Hautboy%20%28netkeiba%20OR%20wikipedia%29" xlink:title="Hautboy">
<polygon fill="lightblue" stroke="lightblue" points="1647.25,-1093.5 1584,-1093.5 1584,-1070.5 1647.25,-1070.5 1647.25,-1093.5"/>
<text text-anchor="middle" x="1615.62" y="-1076.2" font-family="MS Gothic" font-size="14.00">Hautboy</text>
</a>
</g>
</g>
<!-- Hautboy_5_4&#45;&gt;Grey Hautboy_4_1 -->
<g id="edge42" class="edge">
<title>Hautboy_5_4&#45;&gt;Grey Hautboy_4_1</title>
<path fill="none" stroke="lightblue" stroke-width="5" d="M1617.24,-1070.19C1621.81,-1039.59 1634.93,-951.64 1641.61,-906.88"/>
<polygon fill="lightblue" stroke="lightblue" stroke-width="5" points="1645.93,-907.57 1643.08,-897.03 1637.28,-906.27 1645.93,-907.57"/>
</g>
<!-- unknown_5_8 -->
<g id="node44" class="node">
<title>unknown_5_8</title>
<g id="a_node44"><a xlink:href="https://www.google.com/search?q=unknown%20%28netkeiba%20OR%20wikipedia%29" xlink:title="unknown">
<polygon fill="lightcoral" stroke="lightcoral" points="1717.25,-1093.5 1654,-1093.5 1654,-1070.5 1717.25,-1070.5 1717.25,-1093.5"/>
<text text-anchor="middle" x="1685.62" y="-1076.2" font-family="MS Gothic" font-size="14.00">unknown</text>
</a>
</g>
</g>
<!-- unknown_5_8&#45;&gt;Grey Hautboy_4_1 -->
<g id="edge43" class="edge">
<title>unknown_5_8&#45;&gt;Grey Hautboy_4_1</title>
<path fill="none" stroke="lightcoral" stroke-width="5" d="M1683.47,-1070.19C1677.37,-1039.52 1659.8,-951.25 1650.91,-906.58"/>
<polygon fill="lightcoral" stroke="lightcoral" stroke-width="5" points="1655.25,-905.93 1649,-896.98 1646.66,-907.64 1655.25,-905.93"/>
</g>
<!-- Pierson&#39;s Makeless Mare_4_1 -->
<g id="node45" class="node">
<title>Pierson&#39;s Makeless Mare_4_1</title>
<g id="a_node45"><a xlink:href="https://www.google.com/search?q=Pierson%27s%20Makeless%20Mare%20%28netkeiba%20OR%20wikipedia%29" xlink:title="Pierson&#39;s Makeless Mare">
<polygon fill="lightcoral" stroke="lightcoral" points="1872.25,-890.5 1701,-890.5 1701,-867.5 1872.25,-867.5 1872.25,-890.5"/>
<text text-anchor="middle" x="1786.62" y="-873.2" font-family="MS Gothic" font-size="14.00">Pierson&#39;s Makeless Mare</text>
</a>
</g>
</g>
<!-- Pierson&#39;s Makeless Mare_4_1&#45;&gt;Bay Bolton_3_1 -->
<g id="edge44" class="edge">
<title>Pierson&#39;s Makeless Mare_4_1&#45;&gt;Bay Bolton_3_1</title>
<path fill="none" stroke="lightcoral" stroke-width="5" d="M1783.2,-867C1772.47,-832.54 1739.29,-726.01 1723.78,-676.19"/>
<polygon fill="lightcoral" stroke="lightcoral" stroke-width="5" points="1728.02,-675.09 1720.87,-666.84 1719.67,-677.69 1728.02,-675.09"/>
</g>
<!-- Makeless_5_1 -->
<g id="node46" class="node">
<title>Makeless_5_1</title>
<g id="a_node46"><a xlink:href="https://www.google.com/search?q=Makeless%20%28netkeiba%20OR%20wikipedia%29" xlink:title="Makeless">
<polygon fill="lightblue" stroke="lightblue" points="1794.62,-1093.5 1724.62,-1093.5 1724.62,-1070.5 1794.62,-1070.5 1794.62,-1093.5"/>
<text text-anchor="middle" x="1759.62" y="-1076.2" font-family="MS Gothic" font-size="14.00">Makeless</text>
</a>
</g>
</g>
<!-- Makeless_5_1&#45;&gt;Pierson&#39;s Makeless Mare_4_1 -->
<g id="edge45" class="edge">
<title>Makeless_5_1&#45;&gt;Pierson&#39;s Makeless Mare_4_1</title>
<path fill="none" stroke="lightblue" stroke-width="5" d="M1761.08,-1070.19C1765.19,-1039.59 1777,-951.64 1783.01,-906.88"/>
<polygon fill="lightblue" stroke="lightblue" stroke-width="5" points="1787.34,-907.54 1784.34,-897.04 1778.67,-906.37 1787.34,-907.54"/>
</g>
<!-- Brimmer Mare_5_2 -->
<g id="node47" class="node">
<title>Brimmer Mare_5_2</title>
<g id="a_node47"><a xlink:href="https://www.google.com/search?q=Brimmer%20Mare%20%28netkeiba%20OR%20wikipedia%29" xlink:title="Brimmer Mare">
<polygon fill="lightcoral" stroke="lightcoral" points="1899.12,-1093.5 1802.12,-1093.5 1802.12,-1070.5 1899.12,-1070.5 1899.12,-1093.5"/>
<text text-anchor="middle" x="1850.62" y="-1076.2" font-family="MS Gothic" font-size="14.00">Brimmer Mare</text>
</a>
</g>
</g>
<!-- Brimmer Mare_5_2&#45;&gt;Pierson&#39;s Makeless Mare_4_1 -->
<g id="edge46" class="edge">
<title>Brimmer Mare_5_2&#45;&gt;Pierson&#39;s Makeless Mare_4_1</title>
<path fill="none" stroke="lightcoral" stroke-width="5" d="M1847.18,-1070.19C1837.4,-1039.45 1809.19,-950.86 1794.99,-906.28"/>
<polygon fill="lightcoral" stroke="lightcoral" stroke-width="5" points="1799.18,-905 1791.98,-896.8 1790.84,-907.66 1799.18,-905"/>
</g>
<!-- Fox Cub Mare_3_1 -->
<g id="node48" class="node">
<title>Fox Cub Mare_3_1</title>
<g id="a_node48"><a xlink:href="https://www.google.com/search?q=Fox%20Cub%20Mare%20%28netkeiba%20OR%20wikipedia%29" xlink:title="Fox Cub Mare">
<polygon fill="lightcoral" stroke="lightcoral" points="2012.12,-660.5 1915.12,-660.5 1915.12,-637.5 2012.12,-637.5 2012.12,-660.5"/>
<text text-anchor="middle" x="1963.62" y="-643.2" font-family="MS Gothic" font-size="14.00">Fox Cub Mare</text>
</a>
</g>
</g>
<!-- Fox Cub Mare_3_1&#45;&gt;Bay Bolton Mare_2_1 -->
<g id="edge47" class="edge">
<title>Fox Cub Mare_3_1&#45;&gt;Bay Bolton Mare_2_1</title>
<path fill="none" stroke="lightcoral" stroke-width="5" d="M1951.66,-637C1913.03,-601.49 1791.13,-489.41 1739.3,-441.77"/>
<polygon fill="lightcoral" stroke="lightcoral" stroke-width="5" points="1742.38,-438.66 1732.06,-435.11 1736.46,-445.1 1742.38,-438.66"/>
</g>
<!-- Fox Cub_4_1 -->
<g id="node49" class="node">
<title>Fox Cub_4_1</title>
<g id="a_node49"><a xlink:href="https://www.google.com/search?q=Fox%20Cub%20%28netkeiba%20OR%20wikipedia%29" xlink:title="Fox Cub">
<polygon fill="lightblue" stroke="lightblue" points="1995.25,-890.5 1932,-890.5 1932,-867.5 1995.25,-867.5 1995.25,-890.5"/>
<text text-anchor="middle" x="1963.62" y="-873.2" font-family="MS Gothic" font-size="14.00">Fox Cub</text>
</a>
</g>
</g>
<!-- Fox Cub_4_1&#45;&gt;Fox Cub Mare_3_1 -->
<g id="edge48" class="edge">
<title>Fox Cub_4_1&#45;&gt;Fox Cub Mare_3_1</title>
<path fill="none" stroke="lightblue" stroke-width="5" d="M1963.62,-867C1963.62,-832.7 1963.62,-726.94 1963.62,-676.84"/>
<polygon fill="lightblue" stroke="lightblue" stroke-width="5" points="1968,-677.12 1963.63,-667.12 1959.25,-677.12 1968,-677.12"/>
</g>
<!-- Clumsey_5_1 -->
<g id="node50" class="node">
<title>Clumsey_5_1</title>
<g id="a_node50"><a xlink:href="https://www.google.com/search?q=Clumsey%20%28netkeiba%20OR%20wikipedia%29" xlink:title="Clumsey">
<polygon fill="lightblue" stroke="lightblue" points="1969.25,-1093.5 1906,-1093.5 1906,-1070.5 1969.25,-1070.5 1969.25,-1093.5"/>
<text text-anchor="middle" x="1937.62" y="-1076.2" font-family="MS Gothic" font-size="14.00">Clumsey</text>
</a>
</g>
</g>
<!-- Clumsey_5_1&#45;&gt;Fox Cub_4_1 -->
<g id="edge49" class="edge">
<title>Clumsey_5_1&#45;&gt;Fox Cub_4_1</title>
<path fill="none" stroke="lightblue" stroke-width="5" d="M1939.02,-1070.19C1942.98,-1039.59 1954.36,-951.64 1960.15,-906.88"/>
<polygon fill="lightblue" stroke="lightblue" stroke-width="5" points="1964.48,-907.52 1961.42,-897.05 1955.8,-906.4 1964.48,-907.52"/>
</g>
<!-- unknown_5_9 -->
<g id="node51" class="node">
<title>unknown_5_9</title>
<g id="a_node51"><a xlink:href="https://www.google.com/search?q=unknown%20%28netkeiba%20OR%20wikipedia%29" xlink:title="unknown">
<polygon fill="lightcoral" stroke="lightcoral" points="2039.25,-1093.5 1976,-1093.5 1976,-1070.5 2039.25,-1070.5 2039.25,-1093.5"/>
<text text-anchor="middle" x="2007.62" y="-1076.2" font-family="MS Gothic" font-size="14.00">unknown</text>
</a>
</g>
</g>
<!-- unknown_5_9&#45;&gt;Fox Cub_4_1 -->
<g id="edge50" class="edge">
<title>unknown_5_9&#45;&gt;Fox Cub_4_1</title>
<path fill="none" stroke="lightcoral" stroke-width="5" d="M2005.26,-1070.19C1998.54,-1039.52 1979.22,-951.25 1969.44,-906.58"/>
<polygon fill="lightcoral" stroke="lightcoral" stroke-width="5" points="1973.75,-905.79 1967.34,-896.95 1965.2,-907.66 1973.75,-905.79"/>
</g>
<!-- Coneyskins Mare_4_2 -->
<g id="node52" class="node">
<title>Coneyskins Mare_4_2</title>
<g id="a_node52"><a xlink:href="https://www.google.com/search?q=Coneyskins%20Mare%20%28netkeiba%20OR%20wikipedia%29" xlink:title="Coneyskins Mare">
<polygon fill="lightcoral" stroke="lightcoral" points="2146.25,-890.5 2029,-890.5 2029,-867.5 2146.25,-867.5 2146.25,-890.5"/>
<text text-anchor="middle" x="2087.62" y="-873.2" font-family="MS Gothic" font-size="14.00">Coneyskins Mare</text>
</a>
</g>
</g>
<!-- Coneyskins Mare_4_2&#45;&gt;Fox Cub Mare_3_1 -->
<g id="edge51" class="edge">
<title>Coneyskins Mare_4_2&#45;&gt;Fox Cub Mare_3_1</title>
<path fill="none" stroke="lightcoral" stroke-width="5" d="M2081.64,-867C2062.74,-832.24 2003.94,-724.14 1977.16,-674.89"/>
<polygon fill="lightcoral" stroke="lightcoral" stroke-width="5" points="1981.15,-673.06 1972.53,-666.37 1973.46,-677.24 1981.15,-673.06"/>
</g>
<!-- Coneyskins_5_2 -->
<g id="node53" class="node">
<title>Coneyskins_5_2</title>
<g id="a_node53"><a xlink:href="https://www.google.com/search?q=Coneyskins%20%28netkeiba%20OR%20wikipedia%29" xlink:title="Coneyskins">
<polygon fill="lightblue" stroke="lightblue" points="2129.38,-1093.5 2045.88,-1093.5 2045.88,-1070.5 2129.38,-1070.5 2129.38,-1093.5"/>
<text text-anchor="middle" x="2087.62" y="-1076.2" font-family="MS Gothic" font-size="14.00">Coneyskins</text>
</a>
</g>
</g>
<!-- Coneyskins_5_2&#45;&gt;Coneyskins Mare_4_2 -->
<g id="edge52" class="edge">
<title>Coneyskins_5_2&#45;&gt;Coneyskins Mare_4_2</title>
<path fill="none" stroke="lightblue" stroke-width="5" d="M2087.62,-1070.19C2087.62,-1039.59 2087.62,-951.64 2087.62,-906.88"/>
<polygon fill="lightblue" stroke="lightblue" stroke-width="5" points="2092,-907.1 2087.63,-897.1 2083.25,-907.1 2092,-907.1"/>
</g>
<!-- Clubfoot_5_2 -->
<g id="node54" class="node">
<title>Clubfoot_5_2</title>
<g id="a_node54"><a xlink:href="https://www.google.com/search?q=Clubfoot%20%28netkeiba%20OR%20wikipedia%29" xlink:title="Clubfoot">
<polygon fill="lightcoral" stroke="lightcoral" points="2206.62,-1093.5 2136.62,-1093.5 2136.62,-1070.5 2206.62,-1070.5 2206.62,-1093.5"/>
<text text-anchor="middle" x="2171.62" y="-1076.2" font-family="MS Gothic" font-size="14.00">Clubfoot</text>
</a>
</g>
</g>
<!-- Clubfoot_5_2&#45;&gt;Coneyskins Mare_4_2 -->
<g id="edge53" class="edge">
<title>Clubfoot_5_2&#45;&gt;Coneyskins Mare_4_2</title>
<path fill="none" stroke="lightcoral" stroke-width="5" d="M2167.11,-1070.19C2154.2,-1039.31 2116.91,-950.07 2098.36,-905.69"/>
<polygon fill="lightcoral" stroke="lightcoral" stroke-width="5" points="2102.46,-904.15 2094.57,-896.61 2094.39,-907.53 2102.46,-904.15"/>
</g>
</g>
</svg>
