<?xml version="1.0" encoding="UTF-8" standalone="no"?>
<!DOCTYPE svg PUBLIC "-//W3C//DTD SVG 1.1//EN"
 "http://www.w3.org/Graphics/SVG/1.1/DTD/svg11.dtd">
<!-- Generated by graphviz version 12.1.2 (20240928.0832)
 -->
<!-- Pages: 1 -->
<svg width="617pt" height="537pt"
 viewBox="0.00 0.00 616.75 537.00" xmlns="http://www.w3.org/2000/svg" xmlns:xlink="http://www.w3.org/1999/xlink">
<g id="graph0" class="graph" transform="scale(1 1) rotate(0) translate(4 533)">
<polygon fill="white" stroke="none" points="-4,4 -4,-533 612.75,-533 612.75,4 -4,4"/>
<!-- Marske -->
<g id="node1" class="node">
<title>Marske</title>
<polygon fill="none" stroke="black" points="375.62,-77 298.62,-77 298.62,0 375.62,0 375.62,-77"/>
<image xlink:href="img/mob.png" width="77px" height="77px" preserveAspectRatio="xMinYMin meet" x="298.625" y="-77"/>
<text text-anchor="middle" x="337.12" y="-33.45" font-family="Times New Roman,serif" font-size="14.00">Marske</text>
</g>
<!-- Squirt -->
<g id="node2" class="node">
<title>Squirt</title>
<polygon fill="lightblue" stroke="lightblue" points="304.62,-190 227.62,-190 227.62,-113 304.62,-113 304.62,-190"/>
<image xlink:href="img/mob.png" width="77px" height="77px" preserveAspectRatio="xMinYMin meet" x="227.625" y="-190"/>
<text text-anchor="middle" x="266.12" y="-145.7" font-family="MS Gothic" font-size="14.00">Squirt</text>
</g>
<!-- Squirt&#45;&gt;Marske -->
<g id="edge1" class="edge">
<title>Squirt&#45;&gt;Marske</title>
<path fill="none" stroke="black" d="M290.36,-112.61C295.67,-104.31 301.36,-95.41 306.88,-86.79"/>
<polygon fill="black" stroke="black" points="309.74,-88.8 312.18,-78.49 303.85,-85.03 309.74,-88.8"/>
</g>
<!-- Hutton&#39;s Blacklegs Mare -->
<g id="node3" class="node">
<title>Hutton&#39;s Blacklegs Mare</title>
<polygon fill="lightcoral" stroke="lightcoral" points="493.75,-190 322.5,-190 322.5,-113 493.75,-113 493.75,-190"/>
<image xlink:href="img/mob.png" width="100px" height="77px" preserveAspectRatio="xMinYMin meet" x="358.125" y="-190"/>
<text text-anchor="middle" x="408.12" y="-145.7" font-family="MS Gothic" font-size="14.00">Hutton&#39;s Blacklegs Mare</text>
</g>
<!-- Hutton&#39;s Blacklegs Mare&#45;&gt;Marske -->
<g id="edge2" class="edge">
<title>Hutton&#39;s Blacklegs Mare&#45;&gt;Marske</title>
<path fill="none" stroke="black" d="M383.89,-112.61C378.58,-104.31 372.89,-95.41 367.37,-86.79"/>
<polygon fill="black" stroke="black" points="370.4,-85.03 362.07,-78.49 364.51,-88.8 370.4,-85.03"/>
</g>
<!-- Bartlet&#39;s Childers -->
<g id="node4" class="node">
<title>Bartlet&#39;s Childers</title>
<polygon fill="lightblue" stroke="lightblue" points="209.88,-303 72.38,-303 72.38,-226 209.88,-226 209.88,-303"/>
<image xlink:href="img/mob.png" width="100px" height="77px" preserveAspectRatio="xMinYMin meet" x="91.125" y="-303"/>
<text text-anchor="middle" x="141.12" y="-258.7" font-family="MS Gothic" font-size="14.00">Bartlet&#39;s Childers</text>
</g>
<!-- Bartlet&#39;s Childers&#45;&gt;Squirt -->
<g id="edge3" class="edge">
<title>Bartlet&#39;s Childers&#45;&gt;Squirt</title>
<path fill="none" stroke="black" d="M183.79,-225.61C195.18,-215.5 207.54,-204.53 219.14,-194.22"/>
<polygon fill="black" stroke="black" points="221.14,-197.13 226.29,-187.87 216.49,-191.89 221.14,-197.13"/>
</g>
<!-- Snake Mare -->
<g id="node5" class="node">
<title>Snake Mare</title>
<polygon fill="lightcoral" stroke="lightcoral" points="311.88,-303 228.38,-303 228.38,-226 311.88,-226 311.88,-303"/>
<image xlink:href="img/mob.png" width="83.5px" height="77px" preserveAspectRatio="xMinYMin meet" x="228.375" y="-303"/>
<text text-anchor="middle" x="270.12" y="-258.7" font-family="MS Gothic" font-size="14.00">Snake Mare</text>
</g>
<!-- Snake Mare&#45;&gt;Squirt -->
<g id="edge4" class="edge">
<title>Snake Mare&#45;&gt;Squirt</title>
<path fill="none" stroke="black" d="M268.76,-225.61C268.48,-217.84 268.18,-209.56 267.89,-201.46"/>
<polygon fill="black" stroke="black" points="271.4,-201.6 267.54,-191.73 264.4,-201.85 271.4,-201.6"/>
</g>
<!-- Hutton&#39;s Blacklegs -->
<g id="node6" class="node">
<title>Hutton&#39;s Blacklegs</title>
<polygon fill="lightblue" stroke="lightblue" points="473.88,-303 336.38,-303 336.38,-226 473.88,-226 473.88,-303"/>
<image xlink:href="img/mob.png" width="100px" height="77px" preserveAspectRatio="xMinYMin meet" x="355.125" y="-303"/>
<text text-anchor="middle" x="405.12" y="-258.7" font-family="MS Gothic" font-size="14.00">Hutton&#39;s Blacklegs</text>
</g>
<!-- Hutton&#39;s Blacklegs&#45;&gt;Hutton&#39;s Blacklegs Mare -->
<g id="edge5" class="edge">
<title>Hutton&#39;s Blacklegs&#45;&gt;Hutton&#39;s Blacklegs Mare</title>
<path fill="none" stroke="black" d="M406.15,-225.61C406.36,-217.84 406.58,-209.56 406.8,-201.46"/>
<polygon fill="black" stroke="black" points="410.29,-201.82 407.06,-191.73 403.3,-201.63 410.29,-201.82"/>
</g>
<!-- Bay Bolton Mare -->
<g id="node7" class="node">
<title>Bay Bolton Mare</title>
<polygon fill="lightcoral" stroke="lightcoral" points="608.75,-303 491.5,-303 491.5,-226 608.75,-226 608.75,-303"/>
<image xlink:href="img/mob.png" width="100px" height="77px" preserveAspectRatio="xMinYMin meet" x="500.125" y="-303"/>
<text text-anchor="middle" x="550.12" y="-258.7" font-family="MS Gothic" font-size="14.00">Bay Bolton Mare</text>
</g>
<!-- Bay Bolton Mare&#45;&gt;Hutton&#39;s Blacklegs Mare -->
<g id="edge6" class="edge">
<title>Bay Bolton Mare&#45;&gt;Hutton&#39;s Blacklegs Mare</title>
<path fill="none" stroke="black" d="M501.65,-225.61C490,-216.5 477.45,-206.69 465.43,-197.3"/>
<polygon fill="black" stroke="black" points="467.6,-194.55 457.57,-191.15 463.29,-200.07 467.6,-194.55"/>
</g>
<!-- ダーレーアラビアン -->
<g id="node8" class="node">
<title>ダーレーアラビアン</title>
<polygon fill="lightblue" stroke="lightblue" points="144.25,-416 0,-416 0,-339 144.25,-339 144.25,-416"/>
<image xlink:href="img/darearabian.png" width="100px" height="77px" preserveAspectRatio="xMinYMin meet" x="22.125" y="-416"/>
<text text-anchor="middle" x="72.12" y="-371.7" font-family="MS Gothic" font-size="14.00">ダーレーアラビアン</text>
</g>
<!-- ダーレーアラビアン&#45;&gt;Bartlet&#39;s Childers -->
<g id="edge7" class="edge">
<title>ダーレーアラビアン&#45;&gt;Bartlet&#39;s Childers</title>
<path fill="none" stroke="black" d="M95.68,-338.61C100.84,-330.31 106.37,-321.41 111.73,-312.79"/>
<polygon fill="black" stroke="black" points="114.57,-314.84 116.88,-304.5 108.63,-311.15 114.57,-314.84"/>
</g>
<!-- Betty Leedes -->
<g id="node9" class="node">
<title>Betty Leedes</title>
<polygon fill="lightcoral" stroke="lightcoral" points="259.62,-416 162.62,-416 162.62,-339 259.62,-339 259.62,-416"/>
<image xlink:href="img/mob.png" width="97px" height="77px" preserveAspectRatio="xMinYMin meet" x="162.625" y="-416"/>
<text text-anchor="middle" x="211.12" y="-371.7" font-family="MS Gothic" font-size="14.00">Betty Leedes</text>
</g>
<!-- Betty Leedes&#45;&gt;Bartlet&#39;s Childers -->
<g id="edge8" class="edge">
<title>Betty Leedes&#45;&gt;Bartlet&#39;s Childers</title>
<path fill="none" stroke="black" d="M187.23,-338.61C181.99,-330.31 176.39,-321.41 170.95,-312.79"/>
<polygon fill="black" stroke="black" points="174.01,-311.09 165.72,-304.5 168.09,-314.82 174.01,-311.09"/>
</g>
<!-- Old Careless -->
<g id="node10" class="node">
<title>Old Careless</title>
<polygon fill="lightblue" stroke="lightblue" points="201.62,-529 104.62,-529 104.62,-452 201.62,-452 201.62,-529"/>
<image xlink:href="img/mob.png" width="97px" height="77px" preserveAspectRatio="xMinYMin meet" x="104.625" y="-529"/>
<text text-anchor="middle" x="153.12" y="-484.7" font-family="MS Gothic" font-size="14.00">Old Careless</text>
</g>
<!-- Old Careless&#45;&gt;Betty Leedes -->
<g id="edge9" class="edge">
<title>Old Careless&#45;&gt;Betty Leedes</title>
<path fill="none" stroke="black" d="M172.92,-451.61C177.17,-443.48 181.71,-434.8 186.12,-426.35"/>
<polygon fill="black" stroke="black" points="189.19,-428.04 190.72,-417.56 182.98,-424.8 189.19,-428.04"/>
</g>
<!-- Cream Cheeks -->
<g id="node11" class="node">
<title>Cream Cheeks</title>
<polygon fill="lightcoral" stroke="lightcoral" points="316.62,-529 219.62,-529 219.62,-452 316.62,-452 316.62,-529"/>
<image xlink:href="img/mob.png" width="97px" height="77px" preserveAspectRatio="xMinYMin meet" x="219.625" y="-529"/>
<text text-anchor="middle" x="268.12" y="-484.7" font-family="MS Gothic" font-size="14.00">Cream Cheeks</text>
</g>
<!-- Cream Cheeks&#45;&gt;Betty Leedes -->
<g id="edge10" class="edge">
<title>Cream Cheeks&#45;&gt;Betty Leedes</title>
<path fill="none" stroke="black" d="M248.67,-451.61C244.5,-443.48 240.03,-434.8 235.7,-426.35"/>
<polygon fill="black" stroke="black" points="238.87,-424.86 231.19,-417.57 232.64,-428.06 238.87,-424.86"/>
</g>
</g>
</svg>
