<?xml version="1.0" encoding="UTF-8" standalone="no"?>
<!DOCTYPE svg PUBLIC "-//W3C//DTD SVG 1.1//EN"
 "http://www.w3.org/Graphics/SVG/1.1/DTD/svg11.dtd">
<!-- Generated by graphviz version 12.1.2 (20240928.0832)
 -->
<!-- Pages: 1 -->
<svg width="1867pt" height="2345pt"
 viewBox="0.00 0.00 1866.50 2345.00" xmlns="http://www.w3.org/2000/svg" xmlns:xlink="http://www.w3.org/1999/xlink">
<g id="graph0" class="graph" transform="scale(1 1) rotate(0) translate(4 2341)">
<polygon fill="white" stroke="none" points="-4,4 -4,-2341 1862.5,-2341 1862.5,4 -4,4"/>
<!-- My Babu -->
<g id="node1" class="node">
<title>My Babu</title>
<polygon fill="none" stroke="black" points="1715.5,-77 1638.5,-77 1638.5,0 1715.5,0 1715.5,-77"/>
<image xlink:href="img/mob.png" width="77px" height="77px" preserveAspectRatio="xMinYMin meet" x="1638.5" y="-77"/>
<text text-anchor="middle" x="1677" y="-33.45" font-family="Times New Roman,serif" font-size="14.00">My Babu</text>
</g>
<!-- Djebel -->
<g id="node2" class="node">
<title>Djebel</title>
<polygon fill="lightblue" stroke="lightblue" points="1668.5,-190 1591.5,-190 1591.5,-113 1668.5,-113 1668.5,-190"/>
<image xlink:href="img/mob.png" width="77px" height="77px" preserveAspectRatio="xMinYMin meet" x="1591.5" y="-190"/>
<text text-anchor="middle" x="1630" y="-145.7" font-family="MS Gothic" font-size="14.00">Djebel</text>
</g>
<!-- Djebel&#45;&gt;My Babu -->
<g id="edge1" class="edge">
<title>Djebel&#45;&gt;My Babu</title>
<path fill="none" stroke="black" d="M1646.04,-112.61C1649.45,-104.57 1653.08,-95.99 1656.62,-87.63"/>
<polygon fill="black" stroke="black" points="1659.76,-89.19 1660.44,-78.61 1653.32,-86.46 1659.76,-89.19"/>
</g>
<!-- Perfume -->
<g id="node3" class="node">
<title>Perfume</title>
<polygon fill="lightcoral" stroke="lightcoral" points="1763.5,-190 1686.5,-190 1686.5,-113 1763.5,-113 1763.5,-190"/>
<image xlink:href="img/mob.png" width="77px" height="77px" preserveAspectRatio="xMinYMin meet" x="1686.5" y="-190"/>
<text text-anchor="middle" x="1725" y="-145.7" font-family="MS Gothic" font-size="14.00">Perfume</text>
</g>
<!-- Perfume&#45;&gt;My Babu -->
<g id="edge2" class="edge">
<title>Perfume&#45;&gt;My Babu</title>
<path fill="none" stroke="black" d="M1708.62,-112.61C1705.14,-104.57 1701.43,-95.99 1697.81,-87.63"/>
<polygon fill="black" stroke="black" points="1701.09,-86.4 1693.91,-78.61 1694.67,-89.18 1701.09,-86.4"/>
</g>
<!-- Tourbillon -->
<g id="node4" class="node">
<title>Tourbillon</title>
<polygon fill="lightblue" stroke="lightblue" points="1573.75,-303 1490.25,-303 1490.25,-226 1573.75,-226 1573.75,-303"/>
<image xlink:href="img/mob.png" width="83.5px" height="77px" preserveAspectRatio="xMinYMin meet" x="1490.25" y="-303"/>
<text text-anchor="middle" x="1532" y="-258.7" font-family="MS Gothic" font-size="14.00">Tourbillon</text>
</g>
<!-- Tourbillon&#45;&gt;Djebel -->
<g id="edge3" class="edge">
<title>Tourbillon&#45;&gt;Djebel</title>
<path fill="none" stroke="black" d="M1565.45,-225.61C1573.1,-216.95 1581.31,-207.65 1589.23,-198.68"/>
<polygon fill="black" stroke="black" points="1591.7,-201.17 1595.7,-191.35 1586.45,-196.53 1591.7,-201.17"/>
</g>
<!-- Loika -->
<g id="node5" class="node">
<title>Loika</title>
<polygon fill="lightcoral" stroke="lightcoral" points="1668.5,-303 1591.5,-303 1591.5,-226 1668.5,-226 1668.5,-303"/>
<image xlink:href="img/mob.png" width="77px" height="77px" preserveAspectRatio="xMinYMin meet" x="1591.5" y="-303"/>
<text text-anchor="middle" x="1630" y="-258.7" font-family="MS Gothic" font-size="14.00">Loika</text>
</g>
<!-- Loika&#45;&gt;Djebel -->
<g id="edge4" class="edge">
<title>Loika&#45;&gt;Djebel</title>
<path fill="none" stroke="black" d="M1630,-225.61C1630,-217.84 1630,-209.56 1630,-201.46"/>
<polygon fill="black" stroke="black" points="1633.5,-201.73 1630,-191.73 1626.5,-201.73 1633.5,-201.73"/>
</g>
<!-- Badruddin -->
<g id="node6" class="node">
<title>Badruddin</title>
<polygon fill="lightblue" stroke="lightblue" points="1763.5,-303 1686.5,-303 1686.5,-226 1763.5,-226 1763.5,-303"/>
<image xlink:href="img/mob.png" width="77px" height="77px" preserveAspectRatio="xMinYMin meet" x="1686.5" y="-303"/>
<text text-anchor="middle" x="1725" y="-258.7" font-family="MS Gothic" font-size="14.00">Badruddin</text>
</g>
<!-- Badruddin&#45;&gt;Perfume -->
<g id="edge5" class="edge">
<title>Badruddin&#45;&gt;Perfume</title>
<path fill="none" stroke="black" d="M1725,-225.61C1725,-217.84 1725,-209.56 1725,-201.46"/>
<polygon fill="black" stroke="black" points="1728.5,-201.73 1725,-191.73 1721.5,-201.73 1728.5,-201.73"/>
</g>
<!-- Lavendula -->
<g id="node7" class="node">
<title>Lavendula</title>
<polygon fill="lightcoral" stroke="lightcoral" points="1858.5,-303 1781.5,-303 1781.5,-226 1858.5,-226 1858.5,-303"/>
<image xlink:href="img/mob.png" width="77px" height="77px" preserveAspectRatio="xMinYMin meet" x="1781.5" y="-303"/>
<text text-anchor="middle" x="1820" y="-258.7" font-family="MS Gothic" font-size="14.00">Lavendula</text>
</g>
<!-- Lavendula&#45;&gt;Perfume -->
<g id="edge6" class="edge">
<title>Lavendula&#45;&gt;Perfume</title>
<path fill="none" stroke="black" d="M1787.57,-225.61C1780.24,-217.04 1772.36,-207.84 1764.76,-198.96"/>
<polygon fill="black" stroke="black" points="1767.43,-196.69 1758.27,-191.37 1762.11,-201.24 1767.43,-196.69"/>
</g>
<!-- Ksar -->
<g id="node8" class="node">
<title>Ksar</title>
<polygon fill="lightblue" stroke="lightblue" points="1516.5,-416 1439.5,-416 1439.5,-339 1516.5,-339 1516.5,-416"/>
<image xlink:href="img/mob.png" width="77px" height="77px" preserveAspectRatio="xMinYMin meet" x="1439.5" y="-416"/>
<text text-anchor="middle" x="1478" y="-371.7" font-family="MS Gothic" font-size="14.00">Ksar</text>
</g>
<!-- Ksar&#45;&gt;Tourbillon -->
<g id="edge7" class="edge">
<title>Ksar&#45;&gt;Tourbillon</title>
<path fill="none" stroke="black" d="M1496.43,-338.61C1500.39,-330.48 1504.61,-321.8 1508.72,-313.35"/>
<polygon fill="black" stroke="black" points="1511.76,-315.1 1512.99,-304.58 1505.47,-312.04 1511.76,-315.1"/>
</g>
<!-- Durban -->
<g id="node9" class="node">
<title>Durban</title>
<polygon fill="lightcoral" stroke="lightcoral" points="1624.5,-416 1547.5,-416 1547.5,-339 1624.5,-339 1624.5,-416"/>
<image xlink:href="img/mob.png" width="77px" height="77px" preserveAspectRatio="xMinYMin meet" x="1547.5" y="-416"/>
<text text-anchor="middle" x="1586" y="-371.7" font-family="MS Gothic" font-size="14.00">Durban</text>
</g>
<!-- Durban&#45;&gt;Tourbillon -->
<g id="edge8" class="edge">
<title>Durban&#45;&gt;Tourbillon</title>
<path fill="none" stroke="black" d="M1567.57,-338.61C1563.61,-330.48 1559.39,-321.8 1555.28,-313.35"/>
<polygon fill="black" stroke="black" points="1558.53,-312.04 1551.01,-304.58 1552.24,-315.1 1558.53,-312.04"/>
</g>
<!-- Bruleur -->
<g id="node10" class="node">
<title>Bruleur</title>
<polygon fill="lightblue" stroke="lightblue" points="1408.5,-529 1331.5,-529 1331.5,-452 1408.5,-452 1408.5,-529"/>
<image xlink:href="img/mob.png" width="77px" height="77px" preserveAspectRatio="xMinYMin meet" x="1331.5" y="-529"/>
<text text-anchor="middle" x="1370" y="-484.7" font-family="MS Gothic" font-size="14.00">Bruleur</text>
</g>
<!-- Bruleur&#45;&gt;Ksar -->
<g id="edge9" class="edge">
<title>Bruleur&#45;&gt;Ksar</title>
<path fill="none" stroke="black" d="M1406.87,-451.61C1415.38,-442.86 1424.53,-433.46 1433.34,-424.4"/>
<polygon fill="black" stroke="black" points="1435.78,-426.91 1440.25,-417.3 1430.76,-422.03 1435.78,-426.91"/>
</g>
<!-- Kizil Kourgan -->
<g id="node11" class="node">
<title>Kizil Kourgan</title>
<polygon fill="lightcoral" stroke="lightcoral" points="1529.88,-529 1426.12,-529 1426.12,-452 1529.88,-452 1529.88,-529"/>
<image xlink:href="img/mob.png" width="100px" height="77px" preserveAspectRatio="xMinYMin meet" x="1428" y="-529"/>
<text text-anchor="middle" x="1478" y="-484.7" font-family="MS Gothic" font-size="14.00">Kizil Kourgan</text>
</g>
<!-- Kizil Kourgan&#45;&gt;Ksar -->
<g id="edge10" class="edge">
<title>Kizil Kourgan&#45;&gt;Ksar</title>
<path fill="none" stroke="black" d="M1478,-451.61C1478,-443.84 1478,-435.56 1478,-427.46"/>
<polygon fill="black" stroke="black" points="1481.5,-427.73 1478,-417.73 1474.5,-427.73 1481.5,-427.73"/>
</g>
<!-- Durbar -->
<g id="node12" class="node">
<title>Durbar</title>
<polygon fill="lightblue" stroke="lightblue" points="1624.5,-529 1547.5,-529 1547.5,-452 1624.5,-452 1624.5,-529"/>
<image xlink:href="img/mob.png" width="77px" height="77px" preserveAspectRatio="xMinYMin meet" x="1547.5" y="-529"/>
<text text-anchor="middle" x="1586" y="-484.7" font-family="MS Gothic" font-size="14.00">Durbar</text>
</g>
<!-- Durbar&#45;&gt;Durban -->
<g id="edge11" class="edge">
<title>Durbar&#45;&gt;Durban</title>
<path fill="none" stroke="black" d="M1586,-451.61C1586,-443.84 1586,-435.56 1586,-427.46"/>
<polygon fill="black" stroke="black" points="1589.5,-427.73 1586,-417.73 1582.5,-427.73 1589.5,-427.73"/>
</g>
<!-- Banshee -->
<g id="node13" class="node">
<title>Banshee</title>
<polygon fill="lightcoral" stroke="lightcoral" points="1719.5,-529 1642.5,-529 1642.5,-452 1719.5,-452 1719.5,-529"/>
<image xlink:href="img/mob.png" width="77px" height="77px" preserveAspectRatio="xMinYMin meet" x="1642.5" y="-529"/>
<text text-anchor="middle" x="1681" y="-484.7" font-family="MS Gothic" font-size="14.00">Banshee</text>
</g>
<!-- Banshee&#45;&gt;Durban -->
<g id="edge12" class="edge">
<title>Banshee&#45;&gt;Durban</title>
<path fill="none" stroke="black" d="M1648.57,-451.61C1641.24,-443.04 1633.36,-433.84 1625.76,-424.96"/>
<polygon fill="black" stroke="black" points="1628.43,-422.69 1619.27,-417.37 1623.11,-427.24 1628.43,-422.69"/>
</g>
<!-- Chouberski -->
<g id="node14" class="node">
<title>Chouberski</title>
<polygon fill="lightblue" stroke="lightblue" points="1359.75,-642 1276.25,-642 1276.25,-565 1359.75,-565 1359.75,-642"/>
<image xlink:href="img/mob.png" width="83.5px" height="77px" preserveAspectRatio="xMinYMin meet" x="1276.25" y="-642"/>
<text text-anchor="middle" x="1318" y="-597.7" font-family="MS Gothic" font-size="14.00">Chouberski</text>
</g>
<!-- Chouberski&#45;&gt;Bruleur -->
<g id="edge13" class="edge">
<title>Chouberski&#45;&gt;Bruleur</title>
<path fill="none" stroke="black" d="M1335.75,-564.61C1339.52,-556.57 1343.54,-547.99 1347.45,-539.63"/>
<polygon fill="black" stroke="black" points="1350.62,-541.13 1351.69,-530.59 1344.28,-538.16 1350.62,-541.13"/>
</g>
<!-- Basse Terre -->
<g id="node15" class="node">
<title>Basse Terre</title>
<polygon fill="lightcoral" stroke="lightcoral" points="1468.12,-642 1377.88,-642 1377.88,-565 1468.12,-565 1468.12,-642"/>
<image xlink:href="img/mob.png" width="90.25px" height="77px" preserveAspectRatio="xMinYMin meet" x="1377.88" y="-642"/>
<text text-anchor="middle" x="1423" y="-597.7" font-family="MS Gothic" font-size="14.00">Basse Terre</text>
</g>
<!-- Basse Terre&#45;&gt;Bruleur -->
<g id="edge14" class="edge">
<title>Basse Terre&#45;&gt;Bruleur</title>
<path fill="none" stroke="black" d="M1404.91,-564.61C1401.03,-556.48 1396.88,-547.8 1392.85,-539.35"/>
<polygon fill="black" stroke="black" points="1396.13,-538.1 1388.66,-530.58 1389.81,-541.12 1396.13,-538.1"/>
</g>
<!-- Gardefeu -->
<g id="node16" class="node">
<title>Gardefeu</title>
<polygon fill="lightblue" stroke="lightblue" points="1264.5,-755 1187.5,-755 1187.5,-678 1264.5,-678 1264.5,-755"/>
<image xlink:href="img/mob.png" width="77px" height="77px" preserveAspectRatio="xMinYMin meet" x="1187.5" y="-755"/>
<text text-anchor="middle" x="1226" y="-710.7" font-family="MS Gothic" font-size="14.00">Gardefeu</text>
</g>
<!-- Gardefeu&#45;&gt;Chouberski -->
<g id="edge15" class="edge">
<title>Gardefeu&#45;&gt;Chouberski</title>
<path fill="none" stroke="black" d="M1257.4,-677.61C1264.51,-669.04 1272.13,-659.84 1279.49,-650.96"/>
<polygon fill="black" stroke="black" points="1282.09,-653.32 1285.77,-643.38 1276.7,-648.85 1282.09,-653.32"/>
</g>
<!-- Campanule -->
<g id="node17" class="node">
<title>Campanule</title>
<polygon fill="lightcoral" stroke="lightcoral" points="1359.5,-755 1282.5,-755 1282.5,-678 1359.5,-678 1359.5,-755"/>
<image xlink:href="img/mob.png" width="77px" height="77px" preserveAspectRatio="xMinYMin meet" x="1282.5" y="-755"/>
<text text-anchor="middle" x="1321" y="-710.7" font-family="MS Gothic" font-size="14.00">Campanule</text>
</g>
<!-- Campanule&#45;&gt;Chouberski -->
<g id="edge16" class="edge">
<title>Campanule&#45;&gt;Chouberski</title>
<path fill="none" stroke="black" d="M1319.98,-677.61C1319.77,-669.84 1319.54,-661.56 1319.32,-653.46"/>
<polygon fill="black" stroke="black" points="1322.83,-653.63 1319.06,-643.73 1315.83,-653.82 1322.83,-653.63"/>
</g>
<!-- Omnium -->
<g id="node18" class="node">
<title>Omnium</title>
<polygon fill="lightblue" stroke="lightblue" points="1459.5,-755 1382.5,-755 1382.5,-678 1459.5,-678 1459.5,-755"/>
<image xlink:href="img/mob.png" width="77px" height="77px" preserveAspectRatio="xMinYMin meet" x="1382.5" y="-755"/>
<text text-anchor="middle" x="1421" y="-710.7" font-family="MS Gothic" font-size="14.00">Omnium</text>
</g>
<!-- Omnium&#45;&gt;Basse Terre -->
<g id="edge17" class="edge">
<title>Omnium&#45;&gt;Basse Terre</title>
<path fill="none" stroke="black" d="M1421.68,-677.61C1421.82,-669.84 1421.97,-661.56 1422.12,-653.46"/>
<polygon fill="black" stroke="black" points="1425.61,-653.79 1422.29,-643.73 1418.61,-653.67 1425.61,-653.79"/>
</g>
<!-- Bijou -->
<g id="node19" class="node">
<title>Bijou</title>
<polygon fill="lightcoral" stroke="lightcoral" points="1554.5,-755 1477.5,-755 1477.5,-678 1554.5,-678 1554.5,-755"/>
<image xlink:href="img/mob.png" width="77px" height="77px" preserveAspectRatio="xMinYMin meet" x="1477.5" y="-755"/>
<text text-anchor="middle" x="1516" y="-710.7" font-family="MS Gothic" font-size="14.00">Bijou</text>
</g>
<!-- Bijou&#45;&gt;Basse Terre -->
<g id="edge18" class="edge">
<title>Bijou&#45;&gt;Basse Terre</title>
<path fill="none" stroke="black" d="M1484.25,-677.61C1477.07,-669.04 1469.37,-659.84 1461.92,-650.96"/>
<polygon fill="black" stroke="black" points="1464.68,-648.8 1455.57,-643.38 1459.31,-653.29 1464.68,-648.8"/>
</g>
<!-- Cambyse -->
<g id="node20" class="node">
<title>Cambyse</title>
<polygon fill="lightblue" stroke="lightblue" points="1217.5,-868 1140.5,-868 1140.5,-791 1217.5,-791 1217.5,-868"/>
<image xlink:href="img/mob.png" width="77px" height="77px" preserveAspectRatio="xMinYMin meet" x="1140.5" y="-868"/>
<text text-anchor="middle" x="1179" y="-823.7" font-family="MS Gothic" font-size="14.00">Cambyse</text>
</g>
<!-- Cambyse&#45;&gt;Gardefeu -->
<g id="edge19" class="edge">
<title>Cambyse&#45;&gt;Gardefeu</title>
<path fill="none" stroke="black" d="M1195.04,-790.61C1198.45,-782.57 1202.08,-773.99 1205.62,-765.63"/>
<polygon fill="black" stroke="black" points="1208.76,-767.19 1209.44,-756.61 1202.32,-764.46 1208.76,-767.19"/>
</g>
<!-- Bougie -->
<g id="node21" class="node">
<title>Bougie</title>
<polygon fill="lightcoral" stroke="lightcoral" points="1312.5,-868 1235.5,-868 1235.5,-791 1312.5,-791 1312.5,-868"/>
<image xlink:href="img/mob.png" width="77px" height="77px" preserveAspectRatio="xMinYMin meet" x="1235.5" y="-868"/>
<text text-anchor="middle" x="1274" y="-823.7" font-family="MS Gothic" font-size="14.00">Bougie</text>
</g>
<!-- Bougie&#45;&gt;Gardefeu -->
<g id="edge20" class="edge">
<title>Bougie&#45;&gt;Gardefeu</title>
<path fill="none" stroke="black" d="M1257.62,-790.61C1254.14,-782.57 1250.43,-773.99 1246.81,-765.63"/>
<polygon fill="black" stroke="black" points="1250.09,-764.4 1242.91,-756.61 1243.67,-767.18 1250.09,-764.4"/>
</g>
<!-- Androcles -->
<g id="node22" class="node">
<title>Androcles</title>
<polygon fill="lightblue" stroke="lightblue" points="1122.5,-981 1045.5,-981 1045.5,-904 1122.5,-904 1122.5,-981"/>
<image xlink:href="img/mob.png" width="77px" height="77px" preserveAspectRatio="xMinYMin meet" x="1045.5" y="-981"/>
<text text-anchor="middle" x="1084" y="-936.7" font-family="MS Gothic" font-size="14.00">Androcles</text>
</g>
<!-- Androcles&#45;&gt;Cambyse -->
<g id="edge21" class="edge">
<title>Androcles&#45;&gt;Cambyse</title>
<path fill="none" stroke="black" d="M1116.43,-903.61C1123.76,-895.04 1131.64,-885.84 1139.24,-876.96"/>
<polygon fill="black" stroke="black" points="1141.89,-879.24 1145.73,-869.37 1136.57,-874.69 1141.89,-879.24"/>
</g>
<!-- Cambuse -->
<g id="node23" class="node">
<title>Cambuse</title>
<polygon fill="lightcoral" stroke="lightcoral" points="1217.5,-981 1140.5,-981 1140.5,-904 1217.5,-904 1217.5,-981"/>
<image xlink:href="img/mob.png" width="77px" height="77px" preserveAspectRatio="xMinYMin meet" x="1140.5" y="-981"/>
<text text-anchor="middle" x="1179" y="-936.7" font-family="MS Gothic" font-size="14.00">Cambuse</text>
</g>
<!-- Cambuse&#45;&gt;Cambyse -->
<g id="edge22" class="edge">
<title>Cambuse&#45;&gt;Cambyse</title>
<path fill="none" stroke="black" d="M1179,-903.61C1179,-895.84 1179,-887.56 1179,-879.46"/>
<polygon fill="black" stroke="black" points="1182.5,-879.73 1179,-869.73 1175.5,-879.73 1182.5,-879.73"/>
</g>
<!-- Bruce -->
<g id="node24" class="node">
<title>Bruce</title>
<polygon fill="lightblue" stroke="lightblue" points="1312.5,-981 1235.5,-981 1235.5,-904 1312.5,-904 1312.5,-981"/>
<image xlink:href="img/mob.png" width="77px" height="77px" preserveAspectRatio="xMinYMin meet" x="1235.5" y="-981"/>
<text text-anchor="middle" x="1274" y="-936.7" font-family="MS Gothic" font-size="14.00">Bruce</text>
</g>
<!-- Bruce&#45;&gt;Bougie -->
<g id="edge23" class="edge">
<title>Bruce&#45;&gt;Bougie</title>
<path fill="none" stroke="black" d="M1274,-903.61C1274,-895.84 1274,-887.56 1274,-879.46"/>
<polygon fill="black" stroke="black" points="1277.5,-879.73 1274,-869.73 1270.5,-879.73 1277.5,-879.73"/>
</g>
<!-- La Lumiere -->
<g id="node25" class="node">
<title>La Lumiere</title>
<polygon fill="lightcoral" stroke="lightcoral" points="1413.75,-981 1330.25,-981 1330.25,-904 1413.75,-904 1413.75,-981"/>
<image xlink:href="img/mob.png" width="83.5px" height="77px" preserveAspectRatio="xMinYMin meet" x="1330.25" y="-981"/>
<text text-anchor="middle" x="1372" y="-936.7" font-family="MS Gothic" font-size="14.00">La Lumiere</text>
</g>
<!-- La Lumiere&#45;&gt;Bougie -->
<g id="edge24" class="edge">
<title>La Lumiere&#45;&gt;Bougie</title>
<path fill="none" stroke="black" d="M1338.55,-903.61C1330.9,-894.95 1322.69,-885.65 1314.77,-876.68"/>
<polygon fill="black" stroke="black" points="1317.55,-874.53 1308.3,-869.35 1312.3,-879.17 1317.55,-874.53"/>
</g>
<!-- Dollar -->
<g id="node26" class="node">
<title>Dollar</title>
<polygon fill="lightblue" stroke="lightblue" points="1075.5,-1094 998.5,-1094 998.5,-1017 1075.5,-1017 1075.5,-1094"/>
<image xlink:href="img/mob.png" width="77px" height="77px" preserveAspectRatio="xMinYMin meet" x="998.5" y="-1094"/>
<text text-anchor="middle" x="1037" y="-1049.7" font-family="MS Gothic" font-size="14.00">Dollar</text>
</g>
<!-- Dollar&#45;&gt;Androcles -->
<g id="edge25" class="edge">
<title>Dollar&#45;&gt;Androcles</title>
<path fill="none" stroke="black" d="M1053.04,-1016.61C1056.45,-1008.57 1060.08,-999.99 1063.62,-991.63"/>
<polygon fill="black" stroke="black" points="1066.76,-993.19 1067.44,-982.61 1060.32,-990.46 1066.76,-993.19"/>
</g>
<!-- Alabama -->
<g id="node27" class="node">
<title>Alabama</title>
<polygon fill="lightcoral" stroke="lightcoral" points="1170.5,-1094 1093.5,-1094 1093.5,-1017 1170.5,-1017 1170.5,-1094"/>
<image xlink:href="img/mob.png" width="77px" height="77px" preserveAspectRatio="xMinYMin meet" x="1093.5" y="-1094"/>
<text text-anchor="middle" x="1132" y="-1049.7" font-family="MS Gothic" font-size="14.00">Alabama</text>
</g>
<!-- Alabama&#45;&gt;Androcles -->
<g id="edge26" class="edge">
<title>Alabama&#45;&gt;Androcles</title>
<path fill="none" stroke="black" d="M1115.62,-1016.61C1112.14,-1008.57 1108.43,-999.99 1104.81,-991.63"/>
<polygon fill="black" stroke="black" points="1108.09,-990.4 1100.91,-982.61 1101.67,-993.18 1108.09,-990.4"/>
</g>
<!-- The Flying Dutchman -->
<g id="node28" class="node">
<title>The Flying Dutchman</title>
<polygon fill="lightblue" stroke="lightblue" points="980.12,-1207 835.88,-1207 835.88,-1130 980.12,-1130 980.12,-1207"/>
<image xlink:href="img/mob.png" width="100px" height="77px" preserveAspectRatio="xMinYMin meet" x="858" y="-1207"/>
<text text-anchor="middle" x="908" y="-1162.7" font-family="MS Gothic" font-size="14.00">The Flying Dutchman</text>
</g>
<!-- The Flying Dutchman&#45;&gt;Dollar -->
<g id="edge27" class="edge">
<title>The Flying Dutchman&#45;&gt;Dollar</title>
<path fill="none" stroke="black" d="M952.03,-1129.61C964.25,-1119.1 977.56,-1107.65 989.94,-1096.99"/>
<polygon fill="black" stroke="black" points="991.9,-1099.93 997.19,-1090.75 987.33,-1094.62 991.9,-1099.93"/>
</g>
<!-- Payment -->
<g id="node29" class="node">
<title>Payment</title>
<polygon fill="lightcoral" stroke="lightcoral" points="1075.5,-1207 998.5,-1207 998.5,-1130 1075.5,-1130 1075.5,-1207"/>
<image xlink:href="img/mob.png" width="77px" height="77px" preserveAspectRatio="xMinYMin meet" x="998.5" y="-1207"/>
<text text-anchor="middle" x="1037" y="-1162.7" font-family="MS Gothic" font-size="14.00">Payment</text>
</g>
<!-- Payment&#45;&gt;Dollar -->
<g id="edge28" class="edge">
<title>Payment&#45;&gt;Dollar</title>
<path fill="none" stroke="black" d="M1037,-1129.61C1037,-1121.84 1037,-1113.56 1037,-1105.46"/>
<polygon fill="black" stroke="black" points="1040.5,-1105.73 1037,-1095.73 1033.5,-1105.73 1040.5,-1105.73"/>
</g>
<!-- Serious -->
<g id="node30" class="node">
<title>Serious</title>
<polygon fill="lightblue" stroke="lightblue" points="1170.5,-1207 1093.5,-1207 1093.5,-1130 1170.5,-1130 1170.5,-1207"/>
<image xlink:href="img/mob.png" width="77px" height="77px" preserveAspectRatio="xMinYMin meet" x="1093.5" y="-1207"/>
<text text-anchor="middle" x="1132" y="-1162.7" font-family="MS Gothic" font-size="14.00">Serious</text>
</g>
<!-- Serious&#45;&gt;Alabama -->
<g id="edge29" class="edge">
<title>Serious&#45;&gt;Alabama</title>
<path fill="none" stroke="black" d="M1132,-1129.61C1132,-1121.84 1132,-1113.56 1132,-1105.46"/>
<polygon fill="black" stroke="black" points="1135.5,-1105.73 1132,-1095.73 1128.5,-1105.73 1135.5,-1105.73"/>
</g>
<!-- Admiralty -->
<g id="node31" class="node">
<title>Admiralty</title>
<polygon fill="lightcoral" stroke="lightcoral" points="1265.5,-1207 1188.5,-1207 1188.5,-1130 1265.5,-1130 1265.5,-1207"/>
<image xlink:href="img/mob.png" width="77px" height="77px" preserveAspectRatio="xMinYMin meet" x="1188.5" y="-1207"/>
<text text-anchor="middle" x="1227" y="-1162.7" font-family="MS Gothic" font-size="14.00">Admiralty</text>
</g>
<!-- Admiralty&#45;&gt;Alabama -->
<g id="edge30" class="edge">
<title>Admiralty&#45;&gt;Alabama</title>
<path fill="none" stroke="black" d="M1194.57,-1129.61C1187.24,-1121.04 1179.36,-1111.84 1171.76,-1102.96"/>
<polygon fill="black" stroke="black" points="1174.43,-1100.69 1165.27,-1095.37 1169.11,-1105.24 1174.43,-1100.69"/>
</g>
<!-- Bay Middleton -->
<g id="node32" class="node">
<title>Bay Middleton</title>
<polygon fill="lightblue" stroke="lightblue" points="905.88,-1320 802.12,-1320 802.12,-1243 905.88,-1243 905.88,-1320"/>
<image xlink:href="img/mob.png" width="100px" height="77px" preserveAspectRatio="xMinYMin meet" x="804" y="-1320"/>
<text text-anchor="middle" x="854" y="-1275.7" font-family="MS Gothic" font-size="14.00">Bay Middleton</text>
</g>
<!-- Bay Middleton&#45;&gt;The Flying Dutchman -->
<g id="edge31" class="edge">
<title>Bay Middleton&#45;&gt;The Flying Dutchman</title>
<path fill="none" stroke="black" d="M872.43,-1242.61C876.39,-1234.48 880.61,-1225.8 884.72,-1217.35"/>
<polygon fill="black" stroke="black" points="887.76,-1219.1 888.99,-1208.58 881.47,-1216.04 887.76,-1219.1"/>
</g>
<!-- Barbelle -->
<g id="node33" class="node">
<title>Barbelle</title>
<polygon fill="lightcoral" stroke="lightcoral" points="1000.5,-1320 923.5,-1320 923.5,-1243 1000.5,-1243 1000.5,-1320"/>
<image xlink:href="img/mob.png" width="77px" height="77px" preserveAspectRatio="xMinYMin meet" x="923.5" y="-1320"/>
<text text-anchor="middle" x="962" y="-1275.7" font-family="MS Gothic" font-size="14.00">Barbelle</text>
</g>
<!-- Barbelle&#45;&gt;The Flying Dutchman -->
<g id="edge32" class="edge">
<title>Barbelle&#45;&gt;The Flying Dutchman</title>
<path fill="none" stroke="black" d="M943.57,-1242.61C939.61,-1234.48 935.39,-1225.8 931.28,-1217.35"/>
<polygon fill="black" stroke="black" points="934.53,-1216.04 927.01,-1208.58 928.24,-1219.1 934.53,-1216.04"/>
</g>
<!-- Sultan -->
<g id="node34" class="node">
<title>Sultan</title>
<polygon fill="lightblue" stroke="lightblue" points="801.5,-1433 724.5,-1433 724.5,-1356 801.5,-1356 801.5,-1433"/>
<image xlink:href="img/mob.png" width="77px" height="77px" preserveAspectRatio="xMinYMin meet" x="724.5" y="-1433"/>
<text text-anchor="middle" x="763" y="-1388.7" font-family="MS Gothic" font-size="14.00">Sultan</text>
</g>
<!-- Sultan&#45;&gt;Bay Middleton -->
<g id="edge33" class="edge">
<title>Sultan&#45;&gt;Bay Middleton</title>
<path fill="none" stroke="black" d="M794.06,-1355.61C801.09,-1347.04 808.63,-1337.84 815.91,-1328.96"/>
<polygon fill="black" stroke="black" points="818.48,-1331.34 822.12,-1321.39 813.07,-1326.9 818.48,-1331.34"/>
</g>
<!-- Cobweb -->
<g id="node35" class="node">
<title>Cobweb</title>
<polygon fill="lightcoral" stroke="lightcoral" points="896.5,-1433 819.5,-1433 819.5,-1356 896.5,-1356 896.5,-1433"/>
<image xlink:href="img/mob.png" width="77px" height="77px" preserveAspectRatio="xMinYMin meet" x="819.5" y="-1433"/>
<text text-anchor="middle" x="858" y="-1388.7" font-family="MS Gothic" font-size="14.00">Cobweb</text>
</g>
<!-- Cobweb&#45;&gt;Bay Middleton -->
<g id="edge34" class="edge">
<title>Cobweb&#45;&gt;Bay Middleton</title>
<path fill="none" stroke="black" d="M856.63,-1355.61C856.35,-1347.84 856.06,-1339.56 855.76,-1331.46"/>
<polygon fill="black" stroke="black" points="859.27,-1331.6 855.41,-1321.73 852.28,-1331.85 859.27,-1331.6"/>
</g>
<!-- Sandbeck -->
<g id="node36" class="node">
<title>Sandbeck</title>
<polygon fill="lightblue" stroke="lightblue" points="997.5,-1433 920.5,-1433 920.5,-1356 997.5,-1356 997.5,-1433"/>
<image xlink:href="img/mob.png" width="77px" height="77px" preserveAspectRatio="xMinYMin meet" x="920.5" y="-1433"/>
<text text-anchor="middle" x="959" y="-1388.7" font-family="MS Gothic" font-size="14.00">Sandbeck</text>
</g>
<!-- Sandbeck&#45;&gt;Barbelle -->
<g id="edge35" class="edge">
<title>Sandbeck&#45;&gt;Barbelle</title>
<path fill="none" stroke="black" d="M960.02,-1355.61C960.23,-1347.84 960.46,-1339.56 960.68,-1331.46"/>
<polygon fill="black" stroke="black" points="964.17,-1331.82 960.94,-1321.73 957.17,-1331.63 964.17,-1331.82"/>
</g>
<!-- Darioletta -->
<g id="node37" class="node">
<title>Darioletta</title>
<polygon fill="lightcoral" stroke="lightcoral" points="1098.75,-1433 1015.25,-1433 1015.25,-1356 1098.75,-1356 1098.75,-1433"/>
<image xlink:href="img/mob.png" width="83.5px" height="77px" preserveAspectRatio="xMinYMin meet" x="1015.25" y="-1433"/>
<text text-anchor="middle" x="1057" y="-1388.7" font-family="MS Gothic" font-size="14.00">Darioletta</text>
</g>
<!-- Darioletta&#45;&gt;Barbelle -->
<g id="edge36" class="edge">
<title>Darioletta&#45;&gt;Barbelle</title>
<path fill="none" stroke="black" d="M1024.57,-1355.61C1017.24,-1347.04 1009.36,-1337.84 1001.76,-1328.96"/>
<polygon fill="black" stroke="black" points="1004.43,-1326.69 995.27,-1321.37 999.11,-1331.24 1004.43,-1326.69"/>
</g>
<!-- Selim -->
<g id="node38" class="node">
<title>Selim</title>
<polygon fill="lightblue" stroke="lightblue" points="730.5,-1546 653.5,-1546 653.5,-1469 730.5,-1469 730.5,-1546"/>
<image xlink:href="img/mob.png" width="77px" height="77px" preserveAspectRatio="xMinYMin meet" x="653.5" y="-1546"/>
<text text-anchor="middle" x="692" y="-1501.7" font-family="MS Gothic" font-size="14.00">Selim</text>
</g>
<!-- Selim&#45;&gt;Sultan -->
<g id="edge37" class="edge">
<title>Selim&#45;&gt;Sultan</title>
<path fill="none" stroke="black" d="M716.24,-1468.61C721.55,-1460.31 727.24,-1451.41 732.75,-1442.79"/>
<polygon fill="black" stroke="black" points="735.62,-1444.8 738.06,-1434.49 729.72,-1441.03 735.62,-1444.8"/>
</g>
<!-- Bacchante -->
<g id="node39" class="node">
<title>Bacchante</title>
<polygon fill="lightcoral" stroke="lightcoral" points="872.5,-1546 795.5,-1546 795.5,-1469 872.5,-1469 872.5,-1546"/>
<image xlink:href="img/mob.png" width="77px" height="77px" preserveAspectRatio="xMinYMin meet" x="795.5" y="-1546"/>
<text text-anchor="middle" x="834" y="-1501.7" font-family="MS Gothic" font-size="14.00">Bacchante</text>
</g>
<!-- Bacchante&#45;&gt;Sultan -->
<g id="edge38" class="edge">
<title>Bacchante&#45;&gt;Sultan</title>
<path fill="none" stroke="black" d="M809.76,-1468.61C804.45,-1460.31 798.76,-1451.41 793.25,-1442.79"/>
<polygon fill="black" stroke="black" points="796.28,-1441.03 787.94,-1434.49 790.38,-1444.8 796.28,-1441.03"/>
</g>
<!-- Buzzard -->
<g id="node40" class="node">
<title>Buzzard</title>
<polygon fill="lightblue" stroke="lightblue" points="618.5,-1659 541.5,-1659 541.5,-1582 618.5,-1582 618.5,-1659"/>
<image xlink:href="img/mob.png" width="77px" height="77px" preserveAspectRatio="xMinYMin meet" x="541.5" y="-1659"/>
<text text-anchor="middle" x="580" y="-1614.7" font-family="MS Gothic" font-size="14.00">Buzzard</text>
</g>
<!-- Buzzard&#45;&gt;Selim -->
<g id="edge39" class="edge">
<title>Buzzard&#45;&gt;Selim</title>
<path fill="none" stroke="black" d="M618.23,-1581.61C627.15,-1572.77 636.74,-1563.26 645.96,-1554.13"/>
<polygon fill="black" stroke="black" points="648.23,-1556.81 652.87,-1547.28 643.3,-1551.84 648.23,-1556.81"/>
</g>
<!-- Alexander Mare -->
<g id="node41" class="node">
<title>Alexander Mare</title>
<polygon fill="lightcoral" stroke="lightcoral" points="747.25,-1659 636.75,-1659 636.75,-1582 747.25,-1582 747.25,-1659"/>
<image xlink:href="img/mob.png" width="100px" height="77px" preserveAspectRatio="xMinYMin meet" x="642" y="-1659"/>
<text text-anchor="middle" x="692" y="-1614.7" font-family="MS Gothic" font-size="14.00">Alexander Mare</text>
</g>
<!-- Alexander Mare&#45;&gt;Selim -->
<g id="edge40" class="edge">
<title>Alexander Mare&#45;&gt;Selim</title>
<path fill="none" stroke="black" d="M692,-1581.61C692,-1573.84 692,-1565.56 692,-1557.46"/>
<polygon fill="black" stroke="black" points="695.5,-1557.73 692,-1547.73 688.5,-1557.73 695.5,-1557.73"/>
</g>
<!-- Williamson&#39;s Ditto -->
<g id="node42" class="node">
<title>Williamson&#39;s Ditto</title>
<polygon fill="lightblue" stroke="lightblue" points="902.75,-1659 765.25,-1659 765.25,-1582 902.75,-1582 902.75,-1659"/>
<image xlink:href="img/mob.png" width="100px" height="77px" preserveAspectRatio="xMinYMin meet" x="784" y="-1659"/>
<text text-anchor="middle" x="834" y="-1614.7" font-family="MS Gothic" font-size="14.00">Williamson&#39;s Ditto</text>
</g>
<!-- Williamson&#39;s Ditto&#45;&gt;Bacchante -->
<g id="edge41" class="edge">
<title>Williamson&#39;s Ditto&#45;&gt;Bacchante</title>
<path fill="none" stroke="black" d="M834,-1581.61C834,-1573.84 834,-1565.56 834,-1557.46"/>
<polygon fill="black" stroke="black" points="837.5,-1557.73 834,-1547.73 830.5,-1557.73 837.5,-1557.73"/>
</g>
<!-- Mercury Mare -->
<g id="node43" class="node">
<title>Mercury Mare</title>
<polygon fill="lightcoral" stroke="lightcoral" points="1017.5,-1659 920.5,-1659 920.5,-1582 1017.5,-1582 1017.5,-1659"/>
<image xlink:href="img/mob.png" width="97px" height="77px" preserveAspectRatio="xMinYMin meet" x="920.5" y="-1659"/>
<text text-anchor="middle" x="969" y="-1614.7" font-family="MS Gothic" font-size="14.00">Mercury Mare</text>
</g>
<!-- Mercury Mare&#45;&gt;Bacchante -->
<g id="edge42" class="edge">
<title>Mercury Mare&#45;&gt;Bacchante</title>
<path fill="none" stroke="black" d="M922.92,-1581.61C909.51,-1570.59 894.84,-1558.53 881.36,-1547.44"/>
<polygon fill="black" stroke="black" points="883.81,-1544.92 873.86,-1541.27 879.36,-1550.33 883.81,-1544.92"/>
</g>
<!-- Woodpecker -->
<g id="node44" class="node">
<title>Woodpecker</title>
<polygon fill="lightblue" stroke="lightblue" points="569.75,-1772 486.25,-1772 486.25,-1695 569.75,-1695 569.75,-1772"/>
<image xlink:href="img/mob.png" width="83.5px" height="77px" preserveAspectRatio="xMinYMin meet" x="486.25" y="-1772"/>
<text text-anchor="middle" x="528" y="-1727.7" font-family="MS Gothic" font-size="14.00">Woodpecker</text>
</g>
<!-- Woodpecker&#45;&gt;Buzzard -->
<g id="edge43" class="edge">
<title>Woodpecker&#45;&gt;Buzzard</title>
<path fill="none" stroke="black" d="M545.75,-1694.61C549.52,-1686.57 553.54,-1677.99 557.45,-1669.63"/>
<polygon fill="black" stroke="black" points="560.62,-1671.13 561.69,-1660.59 554.28,-1668.16 560.62,-1671.13"/>
</g>
<!-- Misfortune -->
<g id="node45" class="node">
<title>Misfortune</title>
<polygon fill="lightcoral" stroke="lightcoral" points="674.75,-1772 591.25,-1772 591.25,-1695 674.75,-1695 674.75,-1772"/>
<image xlink:href="img/mob.png" width="83.5px" height="77px" preserveAspectRatio="xMinYMin meet" x="591.25" y="-1772"/>
<text text-anchor="middle" x="633" y="-1727.7" font-family="MS Gothic" font-size="14.00">Misfortune</text>
</g>
<!-- Misfortune&#45;&gt;Buzzard -->
<g id="edge44" class="edge">
<title>Misfortune&#45;&gt;Buzzard</title>
<path fill="none" stroke="black" d="M614.91,-1694.61C611.03,-1686.48 606.88,-1677.8 602.85,-1669.35"/>
<polygon fill="black" stroke="black" points="606.13,-1668.1 598.66,-1660.58 599.81,-1671.12 606.13,-1668.1"/>
</g>
<!-- Herod -->
<g id="node46" class="node">
<title>Herod</title>
<polygon fill="lightblue" stroke="lightblue" points="461.5,-1885 384.5,-1885 384.5,-1808 461.5,-1808 461.5,-1885"/>
<image xlink:href="img/mob.png" width="77px" height="77px" preserveAspectRatio="xMinYMin meet" x="384.5" y="-1885"/>
<text text-anchor="middle" x="423" y="-1840.7" font-family="MS Gothic" font-size="14.00">Herod</text>
</g>
<!-- Herod&#45;&gt;Woodpecker -->
<g id="edge45" class="edge">
<title>Herod&#45;&gt;Woodpecker</title>
<path fill="none" stroke="black" d="M458.84,-1807.61C467.12,-1798.86 476.01,-1789.46 484.58,-1780.4"/>
<polygon fill="black" stroke="black" points="486.95,-1782.99 491.28,-1773.32 481.87,-1778.18 486.95,-1782.99"/>
</g>
<!-- Miss Ramsden -->
<g id="node47" class="node">
<title>Miss Ramsden</title>
<polygon fill="lightcoral" stroke="lightcoral" points="576.5,-1885 479.5,-1885 479.5,-1808 576.5,-1808 576.5,-1885"/>
<image xlink:href="img/mob.png" width="97px" height="77px" preserveAspectRatio="xMinYMin meet" x="479.5" y="-1885"/>
<text text-anchor="middle" x="528" y="-1840.7" font-family="MS Gothic" font-size="14.00">Miss Ramsden</text>
</g>
<!-- Miss Ramsden&#45;&gt;Woodpecker -->
<g id="edge46" class="edge">
<title>Miss Ramsden&#45;&gt;Woodpecker</title>
<path fill="none" stroke="black" d="M528,-1807.61C528,-1799.84 528,-1791.56 528,-1783.46"/>
<polygon fill="black" stroke="black" points="531.5,-1783.73 528,-1773.73 524.5,-1783.73 531.5,-1783.73"/>
</g>
<!-- Dux -->
<g id="node48" class="node">
<title>Dux</title>
<polygon fill="lightblue" stroke="lightblue" points="671.5,-1885 594.5,-1885 594.5,-1808 671.5,-1808 671.5,-1885"/>
<image xlink:href="img/mob.png" width="77px" height="77px" preserveAspectRatio="xMinYMin meet" x="594.5" y="-1885"/>
<text text-anchor="middle" x="633" y="-1840.7" font-family="MS Gothic" font-size="14.00">Dux</text>
</g>
<!-- Dux&#45;&gt;Misfortune -->
<g id="edge47" class="edge">
<title>Dux&#45;&gt;Misfortune</title>
<path fill="none" stroke="black" d="M633,-1807.61C633,-1799.84 633,-1791.56 633,-1783.46"/>
<polygon fill="black" stroke="black" points="636.5,-1783.73 633,-1773.73 629.5,-1783.73 636.5,-1783.73"/>
</g>
<!-- Curiosity -->
<g id="node49" class="node">
<title>Curiosity</title>
<polygon fill="lightcoral" stroke="lightcoral" points="766.5,-1885 689.5,-1885 689.5,-1808 766.5,-1808 766.5,-1885"/>
<image xlink:href="img/mob.png" width="77px" height="77px" preserveAspectRatio="xMinYMin meet" x="689.5" y="-1885"/>
<text text-anchor="middle" x="728" y="-1840.7" font-family="MS Gothic" font-size="14.00">Curiosity</text>
</g>
<!-- Curiosity&#45;&gt;Misfortune -->
<g id="edge48" class="edge">
<title>Curiosity&#45;&gt;Misfortune</title>
<path fill="none" stroke="black" d="M695.57,-1807.61C688.24,-1799.04 680.36,-1789.84 672.76,-1780.96"/>
<polygon fill="black" stroke="black" points="675.43,-1778.69 666.27,-1773.37 670.11,-1783.24 675.43,-1778.69"/>
</g>
<!-- Tartar -->
<g id="node50" class="node">
<title>Tartar</title>
<polygon fill="lightblue" stroke="lightblue" points="414.5,-1998 337.5,-1998 337.5,-1921 414.5,-1921 414.5,-1998"/>
<image xlink:href="img/mob.png" width="77px" height="77px" preserveAspectRatio="xMinYMin meet" x="337.5" y="-1998"/>
<text text-anchor="middle" x="376" y="-1953.7" font-family="MS Gothic" font-size="14.00">Tartar</text>
</g>
<!-- Tartar&#45;&gt;Herod -->
<g id="edge49" class="edge">
<title>Tartar&#45;&gt;Herod</title>
<path fill="none" stroke="black" d="M392.04,-1920.61C395.45,-1912.57 399.08,-1903.99 402.62,-1895.63"/>
<polygon fill="black" stroke="black" points="405.76,-1897.19 406.44,-1886.61 399.32,-1894.46 405.76,-1897.19"/>
</g>
<!-- Cypron -->
<g id="node51" class="node">
<title>Cypron</title>
<polygon fill="lightcoral" stroke="lightcoral" points="509.5,-1998 432.5,-1998 432.5,-1921 509.5,-1921 509.5,-1998"/>
<image xlink:href="img/mob.png" width="77px" height="77px" preserveAspectRatio="xMinYMin meet" x="432.5" y="-1998"/>
<text text-anchor="middle" x="471" y="-1953.7" font-family="MS Gothic" font-size="14.00">Cypron</text>
</g>
<!-- Cypron&#45;&gt;Herod -->
<g id="edge50" class="edge">
<title>Cypron&#45;&gt;Herod</title>
<path fill="none" stroke="black" d="M454.62,-1920.61C451.14,-1912.57 447.43,-1903.99 443.81,-1895.63"/>
<polygon fill="black" stroke="black" points="447.09,-1894.4 439.91,-1886.61 440.67,-1897.18 447.09,-1894.4"/>
</g>
<!-- Croft&#39;s Partner -->
<g id="node52" class="node">
<title>Croft&#39;s Partner</title>
<polygon fill="lightblue" stroke="lightblue" points="319.62,-2111 202.38,-2111 202.38,-2034 319.62,-2034 319.62,-2111"/>
<image xlink:href="img/mob.png" width="100px" height="77px" preserveAspectRatio="xMinYMin meet" x="211" y="-2111"/>
<text text-anchor="middle" x="261" y="-2066.7" font-family="MS Gothic" font-size="14.00">Croft&#39;s Partner</text>
</g>
<!-- Croft&#39;s Partner&#45;&gt;Tartar -->
<g id="edge51" class="edge">
<title>Croft&#39;s Partner&#45;&gt;Tartar</title>
<path fill="none" stroke="black" d="M300.25,-2033.61C309.51,-2024.67 319.48,-2015.06 329.04,-2005.83"/>
<polygon fill="black" stroke="black" points="331.46,-2008.36 336.22,-1998.89 326.6,-2003.32 331.46,-2008.36"/>
</g>
<!-- Meliora -->
<g id="node53" class="node">
<title>Meliora</title>
<polygon fill="lightcoral" stroke="lightcoral" points="414.5,-2111 337.5,-2111 337.5,-2034 414.5,-2034 414.5,-2111"/>
<image xlink:href="img/mob.png" width="77px" height="77px" preserveAspectRatio="xMinYMin meet" x="337.5" y="-2111"/>
<text text-anchor="middle" x="376" y="-2066.7" font-family="MS Gothic" font-size="14.00">Meliora</text>
</g>
<!-- Meliora&#45;&gt;Tartar -->
<g id="edge52" class="edge">
<title>Meliora&#45;&gt;Tartar</title>
<path fill="none" stroke="black" d="M376,-2033.61C376,-2025.84 376,-2017.56 376,-2009.46"/>
<polygon fill="black" stroke="black" points="379.5,-2009.73 376,-1999.73 372.5,-2009.73 379.5,-2009.73"/>
</g>
<!-- Blaze -->
<g id="node54" class="node">
<title>Blaze</title>
<polygon fill="lightblue" stroke="lightblue" points="509.5,-2111 432.5,-2111 432.5,-2034 509.5,-2034 509.5,-2111"/>
<image xlink:href="img/mob.png" width="77px" height="77px" preserveAspectRatio="xMinYMin meet" x="432.5" y="-2111"/>
<text text-anchor="middle" x="471" y="-2066.7" font-family="MS Gothic" font-size="14.00">Blaze</text>
</g>
<!-- Blaze&#45;&gt;Cypron -->
<g id="edge53" class="edge">
<title>Blaze&#45;&gt;Cypron</title>
<path fill="none" stroke="black" d="M471,-2033.61C471,-2025.84 471,-2017.56 471,-2009.46"/>
<polygon fill="black" stroke="black" points="474.5,-2009.73 471,-1999.73 467.5,-2009.73 474.5,-2009.73"/>
</g>
<!-- Salome -->
<g id="node55" class="node">
<title>Salome</title>
<polygon fill="lightcoral" stroke="lightcoral" points="604.5,-2111 527.5,-2111 527.5,-2034 604.5,-2034 604.5,-2111"/>
<image xlink:href="img/mob.png" width="77px" height="77px" preserveAspectRatio="xMinYMin meet" x="527.5" y="-2111"/>
<text text-anchor="middle" x="566" y="-2066.7" font-family="MS Gothic" font-size="14.00">Salome</text>
</g>
<!-- Salome&#45;&gt;Cypron -->
<g id="edge54" class="edge">
<title>Salome&#45;&gt;Cypron</title>
<path fill="none" stroke="black" d="M533.57,-2033.61C526.24,-2025.04 518.36,-2015.84 510.76,-2006.96"/>
<polygon fill="black" stroke="black" points="513.43,-2004.69 504.27,-1999.37 508.11,-2009.24 513.43,-2004.69"/>
</g>
<!-- Jigg -->
<g id="node56" class="node">
<title>Jigg</title>
<polygon fill="lightblue" stroke="lightblue" points="232.5,-2224 155.5,-2224 155.5,-2147 232.5,-2147 232.5,-2224"/>
<image xlink:href="img/mob.png" width="77px" height="77px" preserveAspectRatio="xMinYMin meet" x="155.5" y="-2224"/>
<text text-anchor="middle" x="194" y="-2179.7" font-family="MS Gothic" font-size="14.00">Jigg</text>
</g>
<!-- Jigg&#45;&gt;Croft&#39;s Partner -->
<g id="edge55" class="edge">
<title>Jigg&#45;&gt;Croft&#39;s Partner</title>
<path fill="none" stroke="black" d="M216.87,-2146.61C221.83,-2138.39 227.13,-2129.6 232.29,-2121.07"/>
<polygon fill="black" stroke="black" points="235.28,-2122.88 237.45,-2112.51 229.29,-2119.27 235.28,-2122.88"/>
</g>
<!-- Sister One to Mixbury -->
<g id="node57" class="node">
<title>Sister One to Mixbury</title>
<polygon fill="lightcoral" stroke="lightcoral" points="407.88,-2224 250.12,-2224 250.12,-2147 407.88,-2147 407.88,-2224"/>
<image xlink:href="img/mob.png" width="100px" height="77px" preserveAspectRatio="xMinYMin meet" x="279" y="-2224"/>
<text text-anchor="middle" x="329" y="-2179.7" font-family="MS Gothic" font-size="14.00">Sister One to Mixbury</text>
</g>
<!-- Sister One to Mixbury&#45;&gt;Croft&#39;s Partner -->
<g id="edge56" class="edge">
<title>Sister One to Mixbury&#45;&gt;Croft&#39;s Partner</title>
<path fill="none" stroke="black" d="M305.79,-2146.61C300.7,-2138.31 295.25,-2129.41 289.97,-2120.79"/>
<polygon fill="black" stroke="black" points="293.11,-2119.21 284.9,-2112.51 287.14,-2122.86 293.11,-2119.21"/>
</g>
<!-- バイアリーターク -->
<g id="node58" class="node">
<title>バイアリーターク</title>
<polygon fill="lightblue" stroke="lightblue" points="130,-2337 0,-2337 0,-2260 130,-2260 130,-2337"/>
<image xlink:href="img/baiaritaku.png" width="100px" height="77px" preserveAspectRatio="xMinYMin meet" x="15" y="-2337"/>
<text text-anchor="middle" x="65" y="-2292.7" font-family="MS Gothic" font-size="14.00">バイアリーターク</text>
</g>
<!-- バイアリーターク&#45;&gt;Jigg -->
<g id="edge57" class="edge">
<title>バイアリーターク&#45;&gt;Jigg</title>
<path fill="none" stroke="black" d="M109.03,-2259.61C121.25,-2249.1 134.56,-2237.65 146.94,-2226.99"/>
<polygon fill="black" stroke="black" points="148.9,-2229.93 154.19,-2220.75 144.33,-2224.62 148.9,-2229.93"/>
</g>
<!-- Spanker Mare -->
<g id="node59" class="node">
<title>Spanker Mare</title>
<polygon fill="lightcoral" stroke="lightcoral" points="245.5,-2337 148.5,-2337 148.5,-2260 245.5,-2260 245.5,-2337"/>
<image xlink:href="img/mob.png" width="97px" height="77px" preserveAspectRatio="xMinYMin meet" x="148.5" y="-2337"/>
<text text-anchor="middle" x="197" y="-2292.7" font-family="MS Gothic" font-size="14.00">Spanker Mare</text>
</g>
<!-- Spanker Mare&#45;&gt;Jigg -->
<g id="edge58" class="edge">
<title>Spanker Mare&#45;&gt;Jigg</title>
<path fill="none" stroke="black" d="M195.98,-2259.61C195.77,-2251.84 195.54,-2243.56 195.32,-2235.46"/>
<polygon fill="black" stroke="black" points="198.83,-2235.63 195.06,-2225.73 191.83,-2235.82 198.83,-2235.63"/>
</g>
<!-- Curwen Bay Barb -->
<g id="node60" class="node">
<title>Curwen Bay Barb</title>
<polygon fill="lightblue" stroke="lightblue" points="385.62,-2337 268.38,-2337 268.38,-2260 385.62,-2260 385.62,-2337"/>
<image xlink:href="img/mob.png" width="100px" height="77px" preserveAspectRatio="xMinYMin meet" x="277" y="-2337"/>
<text text-anchor="middle" x="327" y="-2292.7" font-family="MS Gothic" font-size="14.00">Curwen Bay Barb</text>
</g>
<!-- Curwen Bay Barb&#45;&gt;Sister One to Mixbury -->
<g id="edge59" class="edge">
<title>Curwen Bay Barb&#45;&gt;Sister One to Mixbury</title>
<path fill="none" stroke="black" d="M327.68,-2259.61C327.82,-2251.84 327.97,-2243.56 328.12,-2235.46"/>
<polygon fill="black" stroke="black" points="331.61,-2235.79 328.29,-2225.73 324.61,-2235.67 331.61,-2235.79"/>
</g>
<!-- Curwen Spot Mare -->
<g id="node61" class="node">
<title>Curwen Spot Mare</title>
<polygon fill="lightcoral" stroke="lightcoral" points="528,-2337 404,-2337 404,-2260 528,-2260 528,-2337"/>
<image xlink:href="img/mob.png" width="100px" height="77px" preserveAspectRatio="xMinYMin meet" x="416" y="-2337"/>
<text text-anchor="middle" x="466" y="-2292.7" font-family="MS Gothic" font-size="14.00">Curwen Spot Mare</text>
</g>
<!-- Curwen Spot Mare&#45;&gt;Sister One to Mixbury -->
<g id="edge60" class="edge">
<title>Curwen Spot Mare&#45;&gt;Sister One to Mixbury</title>
<path fill="none" stroke="black" d="M419.24,-2259.61C407.99,-2250.5 395.88,-2240.69 384.29,-2231.3"/>
<polygon fill="black" stroke="black" points="386.7,-2228.75 376.73,-2225.17 382.3,-2234.19 386.7,-2228.75"/>
</g>
</g>
</svg>
