<?xml version="1.0" encoding="UTF-8" standalone="no"?>
<!DOCTYPE svg PUBLIC "-//W3C//DTD SVG 1.1//EN"
 "http://www.w3.org/Graphics/SVG/1.1/DTD/svg11.dtd">
<!-- Generated by graphviz version 12.1.2 (20240928.0832)
 -->
<!-- Pages: 1 -->
<svg width="1889pt" height="2345pt"
 viewBox="0.00 0.00 1888.62 2345.00" xmlns="http://www.w3.org/2000/svg" xmlns:xlink="http://www.w3.org/1999/xlink">
<g id="graph0" class="graph" transform="scale(1 1) rotate(0) translate(4 2341)">
<polygon fill="white" stroke="none" points="-4,4 -4,-2341 1884.62,-2341 1884.62,4 -4,4"/>
<!-- Nasrullah -->
<g id="node1" class="node">
<title>Nasrullah</title>
<polygon fill="none" stroke="black" points="1714.62,-77 1637.62,-77 1637.62,0 1714.62,0 1714.62,-77"/>
<image xlink:href="img/mob.png" width="77px" height="77px" preserveAspectRatio="xMinYMin meet" x="1637.62" y="-77"/>
<text text-anchor="middle" x="1676.12" y="-33.45" font-family="Times New Roman,serif" font-size="14.00">Nasrullah</text>
</g>
<!-- Nearco -->
<g id="node2" class="node">
<title>Nearco</title>
<polygon fill="lightblue" stroke="lightblue" points="1662.62,-190 1585.62,-190 1585.62,-113 1662.62,-113 1662.62,-190"/>
<image xlink:href="img/mob.png" width="77px" height="77px" preserveAspectRatio="xMinYMin meet" x="1585.62" y="-190"/>
<text text-anchor="middle" x="1624.12" y="-145.7" font-family="MS Gothic" font-size="14.00">Nearco</text>
</g>
<!-- Nearco&#45;&gt;Nasrullah -->
<g id="edge1" class="edge">
<title>Nearco&#45;&gt;Nasrullah</title>
<path fill="none" stroke="black" d="M1641.88,-112.61C1645.64,-104.57 1649.66,-95.99 1653.58,-87.63"/>
<polygon fill="black" stroke="black" points="1656.74,-89.13 1657.81,-78.59 1650.4,-86.16 1656.74,-89.13"/>
</g>
<!-- Mumtaz Begum -->
<g id="node3" class="node">
<title>Mumtaz Begum</title>
<polygon fill="lightcoral" stroke="lightcoral" points="1777.62,-190 1680.62,-190 1680.62,-113 1777.62,-113 1777.62,-190"/>
<image xlink:href="img/mob.png" width="97px" height="77px" preserveAspectRatio="xMinYMin meet" x="1680.62" y="-190"/>
<text text-anchor="middle" x="1729.12" y="-145.7" font-family="MS Gothic" font-size="14.00">Mumtaz Begum</text>
</g>
<!-- Mumtaz Begum&#45;&gt;Nasrullah -->
<g id="edge2" class="edge">
<title>Mumtaz Begum&#45;&gt;Nasrullah</title>
<path fill="none" stroke="black" d="M1711.03,-112.61C1707.15,-104.48 1703.01,-95.8 1698.97,-87.35"/>
<polygon fill="black" stroke="black" points="1702.25,-86.1 1694.79,-78.58 1695.94,-89.12 1702.25,-86.1"/>
</g>
<!-- Pharos -->
<g id="node4" class="node">
<title>Pharos</title>
<polygon fill="lightblue" stroke="lightblue" points="1570.62,-303 1493.62,-303 1493.62,-226 1570.62,-226 1570.62,-303"/>
<image xlink:href="img/mob.png" width="77px" height="77px" preserveAspectRatio="xMinYMin meet" x="1493.62" y="-303"/>
<text text-anchor="middle" x="1532.12" y="-258.7" font-family="MS Gothic" font-size="14.00">Pharos</text>
</g>
<!-- Pharos&#45;&gt;Nearco -->
<g id="edge3" class="edge">
<title>Pharos&#45;&gt;Nearco</title>
<path fill="none" stroke="black" d="M1563.53,-225.61C1570.63,-217.04 1578.26,-207.84 1585.62,-198.96"/>
<polygon fill="black" stroke="black" points="1588.21,-201.32 1591.9,-191.38 1582.82,-196.85 1588.21,-201.32"/>
</g>
<!-- Nogara -->
<g id="node5" class="node">
<title>Nogara</title>
<polygon fill="lightcoral" stroke="lightcoral" points="1665.62,-303 1588.62,-303 1588.62,-226 1665.62,-226 1665.62,-303"/>
<image xlink:href="img/mob.png" width="77px" height="77px" preserveAspectRatio="xMinYMin meet" x="1588.62" y="-303"/>
<text text-anchor="middle" x="1627.12" y="-258.7" font-family="MS Gothic" font-size="14.00">Nogara</text>
</g>
<!-- Nogara&#45;&gt;Nearco -->
<g id="edge4" class="edge">
<title>Nogara&#45;&gt;Nearco</title>
<path fill="none" stroke="black" d="M1626.1,-225.61C1625.89,-217.84 1625.67,-209.56 1625.45,-201.46"/>
<polygon fill="black" stroke="black" points="1628.95,-201.63 1625.19,-191.73 1621.96,-201.82 1628.95,-201.63"/>
</g>
<!-- Blenheim -->
<g id="node6" class="node">
<title>Blenheim</title>
<polygon fill="lightblue" stroke="lightblue" points="1765.62,-303 1688.62,-303 1688.62,-226 1765.62,-226 1765.62,-303"/>
<image xlink:href="img/mob.png" width="77px" height="77px" preserveAspectRatio="xMinYMin meet" x="1688.62" y="-303"/>
<text text-anchor="middle" x="1727.12" y="-258.7" font-family="MS Gothic" font-size="14.00">Blenheim</text>
</g>
<!-- Blenheim&#45;&gt;Mumtaz Begum -->
<g id="edge5" class="edge">
<title>Blenheim&#45;&gt;Mumtaz Begum</title>
<path fill="none" stroke="black" d="M1727.81,-225.61C1727.95,-217.84 1728.1,-209.56 1728.24,-201.46"/>
<polygon fill="black" stroke="black" points="1731.74,-201.79 1728.42,-191.73 1724.74,-201.67 1731.74,-201.79"/>
</g>
<!-- Mumtaz Mahal -->
<g id="node7" class="node">
<title>Mumtaz Mahal</title>
<polygon fill="lightcoral" stroke="lightcoral" points="1880.62,-303 1783.62,-303 1783.62,-226 1880.62,-226 1880.62,-303"/>
<image xlink:href="img/mob.png" width="97px" height="77px" preserveAspectRatio="xMinYMin meet" x="1783.62" y="-303"/>
<text text-anchor="middle" x="1832.12" y="-258.7" font-family="MS Gothic" font-size="14.00">Mumtaz Mahal</text>
</g>
<!-- Mumtaz Mahal&#45;&gt;Mumtaz Begum -->
<g id="edge6" class="edge">
<title>Mumtaz Mahal&#45;&gt;Mumtaz Begum</title>
<path fill="none" stroke="black" d="M1796.97,-225.61C1788.85,-216.86 1780.12,-207.46 1771.72,-198.4"/>
<polygon fill="black" stroke="black" points="1774.52,-196.28 1765.15,-191.33 1769.39,-201.04 1774.52,-196.28"/>
</g>
<!-- Phalaris -->
<g id="node8" class="node">
<title>Phalaris</title>
<polygon fill="lightblue" stroke="lightblue" points="1521.62,-416 1444.62,-416 1444.62,-339 1521.62,-339 1521.62,-416"/>
<image xlink:href="img/mob.png" width="77px" height="77px" preserveAspectRatio="xMinYMin meet" x="1444.62" y="-416"/>
<text text-anchor="middle" x="1483.12" y="-371.7" font-family="MS Gothic" font-size="14.00">Phalaris</text>
</g>
<!-- Phalaris&#45;&gt;Pharos -->
<g id="edge7" class="edge">
<title>Phalaris&#45;&gt;Pharos</title>
<path fill="none" stroke="black" d="M1499.85,-338.61C1503.4,-330.57 1507.19,-321.99 1510.88,-313.63"/>
<polygon fill="black" stroke="black" points="1514.03,-315.17 1514.86,-304.6 1507.62,-312.34 1514.03,-315.17"/>
</g>
<!-- Scapa Flow -->
<g id="node9" class="node">
<title>Scapa Flow</title>
<polygon fill="lightcoral" stroke="lightcoral" points="1622.88,-416 1539.38,-416 1539.38,-339 1622.88,-339 1622.88,-416"/>
<image xlink:href="img/mob.png" width="83.5px" height="77px" preserveAspectRatio="xMinYMin meet" x="1539.38" y="-416"/>
<text text-anchor="middle" x="1581.12" y="-371.7" font-family="MS Gothic" font-size="14.00">Scapa Flow</text>
</g>
<!-- Scapa Flow&#45;&gt;Pharos -->
<g id="edge8" class="edge">
<title>Scapa Flow&#45;&gt;Pharos</title>
<path fill="none" stroke="black" d="M1564.4,-338.61C1560.85,-330.57 1557.06,-321.99 1553.37,-313.63"/>
<polygon fill="black" stroke="black" points="1556.63,-312.34 1549.39,-304.6 1550.22,-315.17 1556.63,-312.34"/>
</g>
<!-- Polymelus -->
<g id="node10" class="node">
<title>Polymelus</title>
<polygon fill="lightblue" stroke="lightblue" points="1427.62,-529 1350.62,-529 1350.62,-452 1427.62,-452 1427.62,-529"/>
<image xlink:href="img/mob.png" width="77px" height="77px" preserveAspectRatio="xMinYMin meet" x="1350.62" y="-529"/>
<text text-anchor="middle" x="1389.12" y="-484.7" font-family="MS Gothic" font-size="14.00">Polymelus</text>
</g>
<!-- Polymelus&#45;&gt;Phalaris -->
<g id="edge9" class="edge">
<title>Polymelus&#45;&gt;Phalaris</title>
<path fill="none" stroke="black" d="M1421.21,-451.61C1428.47,-443.04 1436.26,-433.84 1443.78,-424.96"/>
<polygon fill="black" stroke="black" points="1446.41,-427.27 1450.2,-417.37 1441.07,-422.74 1446.41,-427.27"/>
</g>
<!-- Bromus -->
<g id="node11" class="node">
<title>Bromus</title>
<polygon fill="lightcoral" stroke="lightcoral" points="1522.62,-529 1445.62,-529 1445.62,-452 1522.62,-452 1522.62,-529"/>
<image xlink:href="img/mob.png" width="77px" height="77px" preserveAspectRatio="xMinYMin meet" x="1445.62" y="-529"/>
<text text-anchor="middle" x="1484.12" y="-484.7" font-family="MS Gothic" font-size="14.00">Bromus</text>
</g>
<!-- Bromus&#45;&gt;Phalaris -->
<g id="edge10" class="edge">
<title>Bromus&#45;&gt;Phalaris</title>
<path fill="none" stroke="black" d="M1483.78,-451.61C1483.71,-443.84 1483.64,-435.56 1483.57,-427.46"/>
<polygon fill="black" stroke="black" points="1487.07,-427.7 1483.48,-417.73 1480.07,-427.76 1487.07,-427.7"/>
</g>
<!-- Chaucer -->
<g id="node12" class="node">
<title>Chaucer</title>
<polygon fill="lightblue" stroke="lightblue" points="1618.62,-529 1541.62,-529 1541.62,-452 1618.62,-452 1618.62,-529"/>
<image xlink:href="img/mob.png" width="77px" height="77px" preserveAspectRatio="xMinYMin meet" x="1541.62" y="-529"/>
<text text-anchor="middle" x="1580.12" y="-484.7" font-family="MS Gothic" font-size="14.00">Chaucer</text>
</g>
<!-- Chaucer&#45;&gt;Scapa Flow -->
<g id="edge11" class="edge">
<title>Chaucer&#45;&gt;Scapa Flow</title>
<path fill="none" stroke="black" d="M1580.47,-451.61C1580.54,-443.84 1580.61,-435.56 1580.68,-427.46"/>
<polygon fill="black" stroke="black" points="1584.18,-427.76 1580.77,-417.73 1577.18,-427.7 1584.18,-427.76"/>
</g>
<!-- Anchora -->
<g id="node13" class="node">
<title>Anchora</title>
<polygon fill="lightcoral" stroke="lightcoral" points="1713.62,-529 1636.62,-529 1636.62,-452 1713.62,-452 1713.62,-529"/>
<image xlink:href="img/mob.png" width="77px" height="77px" preserveAspectRatio="xMinYMin meet" x="1636.62" y="-529"/>
<text text-anchor="middle" x="1675.12" y="-484.7" font-family="MS Gothic" font-size="14.00">Anchora</text>
</g>
<!-- Anchora&#45;&gt;Scapa Flow -->
<g id="edge12" class="edge">
<title>Anchora&#45;&gt;Scapa Flow</title>
<path fill="none" stroke="black" d="M1643.04,-451.61C1635.78,-443.04 1627.99,-433.84 1620.47,-424.96"/>
<polygon fill="black" stroke="black" points="1623.18,-422.74 1614.05,-417.37 1617.84,-427.27 1623.18,-422.74"/>
</g>
<!-- Cyllene -->
<g id="node14" class="node">
<title>Cyllene</title>
<polygon fill="lightblue" stroke="lightblue" points="1376.62,-642 1299.62,-642 1299.62,-565 1376.62,-565 1376.62,-642"/>
<image xlink:href="img/mob.png" width="77px" height="77px" preserveAspectRatio="xMinYMin meet" x="1299.62" y="-642"/>
<text text-anchor="middle" x="1338.12" y="-597.7" font-family="MS Gothic" font-size="14.00">Cyllene</text>
</g>
<!-- Cyllene&#45;&gt;Polymelus -->
<g id="edge13" class="edge">
<title>Cyllene&#45;&gt;Polymelus</title>
<path fill="none" stroke="black" d="M1355.53,-564.61C1359.23,-556.57 1363.17,-547.99 1367.01,-539.63"/>
<polygon fill="black" stroke="black" points="1370.17,-541.14 1371.16,-530.59 1363.81,-538.22 1370.17,-541.14"/>
</g>
<!-- Maid Marian -->
<g id="node15" class="node">
<title>Maid Marian</title>
<polygon fill="lightcoral" stroke="lightcoral" points="1485.25,-642 1395,-642 1395,-565 1485.25,-565 1485.25,-642"/>
<image xlink:href="img/mob.png" width="90.25px" height="77px" preserveAspectRatio="xMinYMin meet" x="1395" y="-642"/>
<text text-anchor="middle" x="1440.12" y="-597.7" font-family="MS Gothic" font-size="14.00">Maid Marian</text>
</g>
<!-- Maid Marian&#45;&gt;Polymelus -->
<g id="edge14" class="edge">
<title>Maid Marian&#45;&gt;Polymelus</title>
<path fill="none" stroke="black" d="M1422.72,-564.61C1419.02,-556.57 1415.08,-547.99 1411.24,-539.63"/>
<polygon fill="black" stroke="black" points="1414.44,-538.22 1407.09,-530.59 1408.08,-541.14 1414.44,-538.22"/>
</g>
<!-- Bona Vista -->
<g id="node16" class="node">
<title>Bona Vista</title>
<polygon fill="lightblue" stroke="lightblue" points="1283.88,-755 1200.38,-755 1200.38,-678 1283.88,-678 1283.88,-755"/>
<image xlink:href="img/mob.png" width="83.5px" height="77px" preserveAspectRatio="xMinYMin meet" x="1200.38" y="-755"/>
<text text-anchor="middle" x="1242.12" y="-710.7" font-family="MS Gothic" font-size="14.00">Bona Vista</text>
</g>
<!-- Bona Vista&#45;&gt;Cyllene -->
<g id="edge15" class="edge">
<title>Bona Vista&#45;&gt;Cyllene</title>
<path fill="none" stroke="black" d="M1274.89,-677.61C1282.39,-668.95 1290.43,-659.65 1298.18,-650.68"/>
<polygon fill="black" stroke="black" points="1300.62,-653.22 1304.51,-643.36 1295.32,-648.64 1300.62,-653.22"/>
</g>
<!-- Arcadia -->
<g id="node17" class="node">
<title>Arcadia</title>
<polygon fill="lightcoral" stroke="lightcoral" points="1378.62,-755 1301.62,-755 1301.62,-678 1378.62,-678 1378.62,-755"/>
<image xlink:href="img/mob.png" width="77px" height="77px" preserveAspectRatio="xMinYMin meet" x="1301.62" y="-755"/>
<text text-anchor="middle" x="1340.12" y="-710.7" font-family="MS Gothic" font-size="14.00">Arcadia</text>
</g>
<!-- Arcadia&#45;&gt;Cyllene -->
<g id="edge16" class="edge">
<title>Arcadia&#45;&gt;Cyllene</title>
<path fill="none" stroke="black" d="M1339.44,-677.61C1339.3,-669.84 1339.15,-661.56 1339.01,-653.46"/>
<polygon fill="black" stroke="black" points="1342.51,-653.67 1338.83,-643.73 1335.51,-653.79 1342.51,-653.67"/>
</g>
<!-- Hampton -->
<g id="node18" class="node">
<title>Hampton</title>
<polygon fill="lightblue" stroke="lightblue" points="1476.62,-755 1399.62,-755 1399.62,-678 1476.62,-678 1476.62,-755"/>
<image xlink:href="img/mob.png" width="77px" height="77px" preserveAspectRatio="xMinYMin meet" x="1399.62" y="-755"/>
<text text-anchor="middle" x="1438.12" y="-710.7" font-family="MS Gothic" font-size="14.00">Hampton</text>
</g>
<!-- Hampton&#45;&gt;Maid Marian -->
<g id="edge17" class="edge">
<title>Hampton&#45;&gt;Maid Marian</title>
<path fill="none" stroke="black" d="M1438.81,-677.61C1438.95,-669.84 1439.1,-661.56 1439.24,-653.46"/>
<polygon fill="black" stroke="black" points="1442.74,-653.79 1439.42,-643.73 1435.74,-653.67 1442.74,-653.79"/>
</g>
<!-- Quiver -->
<g id="node19" class="node">
<title>Quiver</title>
<polygon fill="lightcoral" stroke="lightcoral" points="1571.62,-755 1494.62,-755 1494.62,-678 1571.62,-678 1571.62,-755"/>
<image xlink:href="img/mob.png" width="77px" height="77px" preserveAspectRatio="xMinYMin meet" x="1494.62" y="-755"/>
<text text-anchor="middle" x="1533.12" y="-710.7" font-family="MS Gothic" font-size="14.00">Quiver</text>
</g>
<!-- Quiver&#45;&gt;Maid Marian -->
<g id="edge18" class="edge">
<title>Quiver&#45;&gt;Maid Marian</title>
<path fill="none" stroke="black" d="M1501.38,-677.61C1494.2,-669.04 1486.49,-659.84 1479.05,-650.96"/>
<polygon fill="black" stroke="black" points="1481.8,-648.8 1472.7,-643.38 1476.44,-653.29 1481.8,-648.8"/>
</g>
<!-- Bend Or -->
<g id="node20" class="node">
<title>Bend Or</title>
<polygon fill="lightblue" stroke="lightblue" points="1231.62,-868 1154.62,-868 1154.62,-791 1231.62,-791 1231.62,-868"/>
<image xlink:href="img/mob.png" width="77px" height="77px" preserveAspectRatio="xMinYMin meet" x="1154.62" y="-868"/>
<text text-anchor="middle" x="1193.12" y="-823.7" font-family="MS Gothic" font-size="14.00">Bend Or</text>
</g>
<!-- Bend Or&#45;&gt;Bona Vista -->
<g id="edge19" class="edge">
<title>Bend Or&#45;&gt;Bona Vista</title>
<path fill="none" stroke="black" d="M1209.85,-790.61C1213.4,-782.57 1217.19,-773.99 1220.88,-765.63"/>
<polygon fill="black" stroke="black" points="1224.03,-767.17 1224.86,-756.6 1217.62,-764.34 1224.03,-767.17"/>
</g>
<!-- Vista -->
<g id="node21" class="node">
<title>Vista</title>
<polygon fill="lightcoral" stroke="lightcoral" points="1329.62,-868 1252.62,-868 1252.62,-791 1329.62,-791 1329.62,-868"/>
<image xlink:href="img/mob.png" width="77px" height="77px" preserveAspectRatio="xMinYMin meet" x="1252.62" y="-868"/>
<text text-anchor="middle" x="1291.12" y="-823.7" font-family="MS Gothic" font-size="14.00">Vista</text>
</g>
<!-- Vista&#45;&gt;Bona Vista -->
<g id="edge20" class="edge">
<title>Vista&#45;&gt;Bona Vista</title>
<path fill="none" stroke="black" d="M1274.4,-790.61C1270.85,-782.57 1267.06,-773.99 1263.37,-765.63"/>
<polygon fill="black" stroke="black" points="1266.63,-764.34 1259.39,-756.6 1260.22,-767.17 1266.63,-764.34"/>
</g>
<!-- Doncaster -->
<g id="node22" class="node">
<title>Doncaster</title>
<polygon fill="lightblue" stroke="lightblue" points="1133.62,-981 1056.62,-981 1056.62,-904 1133.62,-904 1133.62,-981"/>
<image xlink:href="img/mob.png" width="77px" height="77px" preserveAspectRatio="xMinYMin meet" x="1056.62" y="-981"/>
<text text-anchor="middle" x="1095.12" y="-936.7" font-family="MS Gothic" font-size="14.00">Doncaster</text>
</g>
<!-- Doncaster&#45;&gt;Bend Or -->
<g id="edge21" class="edge">
<title>Doncaster&#45;&gt;Bend Or</title>
<path fill="none" stroke="black" d="M1128.58,-903.61C1136.22,-894.95 1144.44,-885.65 1152.35,-876.68"/>
<polygon fill="black" stroke="black" points="1154.83,-879.17 1158.82,-869.35 1149.58,-874.53 1154.83,-879.17"/>
</g>
<!-- Rouge Rose -->
<g id="node23" class="node">
<title>Rouge Rose</title>
<polygon fill="lightcoral" stroke="lightcoral" points="1234.88,-981 1151.38,-981 1151.38,-904 1234.88,-904 1234.88,-981"/>
<image xlink:href="img/mob.png" width="83.5px" height="77px" preserveAspectRatio="xMinYMin meet" x="1151.38" y="-981"/>
<text text-anchor="middle" x="1193.12" y="-936.7" font-family="MS Gothic" font-size="14.00">Rouge Rose</text>
</g>
<!-- Rouge Rose&#45;&gt;Bend Or -->
<g id="edge22" class="edge">
<title>Rouge Rose&#45;&gt;Bend Or</title>
<path fill="none" stroke="black" d="M1193.12,-903.61C1193.12,-895.84 1193.12,-887.56 1193.12,-879.46"/>
<polygon fill="black" stroke="black" points="1196.63,-879.73 1193.13,-869.73 1189.63,-879.73 1196.63,-879.73"/>
</g>
<!-- Macaroni -->
<g id="node24" class="node">
<title>Macaroni</title>
<polygon fill="lightblue" stroke="lightblue" points="1329.62,-981 1252.62,-981 1252.62,-904 1329.62,-904 1329.62,-981"/>
<image xlink:href="img/mob.png" width="77px" height="77px" preserveAspectRatio="xMinYMin meet" x="1252.62" y="-981"/>
<text text-anchor="middle" x="1291.12" y="-936.7" font-family="MS Gothic" font-size="14.00">Macaroni</text>
</g>
<!-- Macaroni&#45;&gt;Vista -->
<g id="edge23" class="edge">
<title>Macaroni&#45;&gt;Vista</title>
<path fill="none" stroke="black" d="M1291.12,-903.61C1291.12,-895.84 1291.12,-887.56 1291.12,-879.46"/>
<polygon fill="black" stroke="black" points="1294.63,-879.73 1291.13,-869.73 1287.63,-879.73 1294.63,-879.73"/>
</g>
<!-- Verdure -->
<g id="node25" class="node">
<title>Verdure</title>
<polygon fill="lightcoral" stroke="lightcoral" points="1424.62,-981 1347.62,-981 1347.62,-904 1424.62,-904 1424.62,-981"/>
<image xlink:href="img/mob.png" width="77px" height="77px" preserveAspectRatio="xMinYMin meet" x="1347.62" y="-981"/>
<text text-anchor="middle" x="1386.12" y="-936.7" font-family="MS Gothic" font-size="14.00">Verdure</text>
</g>
<!-- Verdure&#45;&gt;Vista -->
<g id="edge24" class="edge">
<title>Verdure&#45;&gt;Vista</title>
<path fill="none" stroke="black" d="M1353.7,-903.61C1346.36,-895.04 1338.49,-885.84 1330.89,-876.96"/>
<polygon fill="black" stroke="black" points="1333.55,-874.69 1324.39,-869.37 1328.23,-879.24 1333.55,-874.69"/>
</g>
<!-- Stockwell -->
<g id="node26" class="node">
<title>Stockwell</title>
<polygon fill="lightblue" stroke="lightblue" points="1082.62,-1094 1005.62,-1094 1005.62,-1017 1082.62,-1017 1082.62,-1094"/>
<image xlink:href="img/mob.png" width="77px" height="77px" preserveAspectRatio="xMinYMin meet" x="1005.62" y="-1094"/>
<text text-anchor="middle" x="1044.12" y="-1049.7" font-family="MS Gothic" font-size="14.00">Stockwell</text>
</g>
<!-- Stockwell&#45;&gt;Doncaster -->
<g id="edge25" class="edge">
<title>Stockwell&#45;&gt;Doncaster</title>
<path fill="none" stroke="black" d="M1061.53,-1016.61C1065.23,-1008.57 1069.17,-999.99 1073.01,-991.63"/>
<polygon fill="black" stroke="black" points="1076.17,-993.14 1077.16,-982.59 1069.81,-990.22 1076.17,-993.14"/>
</g>
<!-- Marigold -->
<g id="node27" class="node">
<title>Marigold</title>
<polygon fill="lightcoral" stroke="lightcoral" points="1184.62,-1094 1107.62,-1094 1107.62,-1017 1184.62,-1017 1184.62,-1094"/>
<image xlink:href="img/mob.png" width="77px" height="77px" preserveAspectRatio="xMinYMin meet" x="1107.62" y="-1094"/>
<text text-anchor="middle" x="1146.12" y="-1049.7" font-family="MS Gothic" font-size="14.00">Marigold</text>
</g>
<!-- Marigold&#45;&gt;Doncaster -->
<g id="edge26" class="edge">
<title>Marigold&#45;&gt;Doncaster</title>
<path fill="none" stroke="black" d="M1128.72,-1016.61C1125.02,-1008.57 1121.08,-999.99 1117.24,-991.63"/>
<polygon fill="black" stroke="black" points="1120.44,-990.22 1113.09,-982.59 1114.08,-993.14 1120.44,-990.22"/>
</g>
<!-- The Baron -->
<g id="node28" class="node">
<title>The Baron</title>
<polygon fill="lightblue" stroke="lightblue" points="984.62,-1207 907.62,-1207 907.62,-1130 984.62,-1130 984.62,-1207"/>
<image xlink:href="img/mob.png" width="77px" height="77px" preserveAspectRatio="xMinYMin meet" x="907.625" y="-1207"/>
<text text-anchor="middle" x="946.12" y="-1162.7" font-family="MS Gothic" font-size="14.00">The Baron</text>
</g>
<!-- The Baron&#45;&gt;Stockwell -->
<g id="edge27" class="edge">
<title>The Baron&#45;&gt;Stockwell</title>
<path fill="none" stroke="black" d="M979.58,-1129.61C987.22,-1120.95 995.44,-1111.65 1003.35,-1102.68"/>
<polygon fill="black" stroke="black" points="1005.83,-1105.17 1009.82,-1095.35 1000.58,-1100.53 1005.83,-1105.17"/>
</g>
<!-- Pocahontas -->
<g id="node29" class="node">
<title>Pocahontas</title>
<polygon fill="lightcoral" stroke="lightcoral" points="1085.88,-1207 1002.38,-1207 1002.38,-1130 1085.88,-1130 1085.88,-1207"/>
<image xlink:href="img/mob.png" width="83.5px" height="77px" preserveAspectRatio="xMinYMin meet" x="1002.38" y="-1207"/>
<text text-anchor="middle" x="1044.12" y="-1162.7" font-family="MS Gothic" font-size="14.00">Pocahontas</text>
</g>
<!-- Pocahontas&#45;&gt;Stockwell -->
<g id="edge28" class="edge">
<title>Pocahontas&#45;&gt;Stockwell</title>
<path fill="none" stroke="black" d="M1044.12,-1129.61C1044.12,-1121.84 1044.12,-1113.56 1044.12,-1105.46"/>
<polygon fill="black" stroke="black" points="1047.63,-1105.73 1044.13,-1095.73 1040.63,-1105.73 1047.63,-1105.73"/>
</g>
<!-- Teddington -->
<g id="node30" class="node">
<title>Teddington</title>
<polygon fill="lightblue" stroke="lightblue" points="1187.88,-1207 1104.38,-1207 1104.38,-1130 1187.88,-1130 1187.88,-1207"/>
<image xlink:href="img/mob.png" width="83.5px" height="77px" preserveAspectRatio="xMinYMin meet" x="1104.38" y="-1207"/>
<text text-anchor="middle" x="1146.12" y="-1162.7" font-family="MS Gothic" font-size="14.00">Teddington</text>
</g>
<!-- Teddington&#45;&gt;Marigold -->
<g id="edge29" class="edge">
<title>Teddington&#45;&gt;Marigold</title>
<path fill="none" stroke="black" d="M1146.12,-1129.61C1146.12,-1121.84 1146.12,-1113.56 1146.12,-1105.46"/>
<polygon fill="black" stroke="black" points="1149.63,-1105.73 1146.13,-1095.73 1142.63,-1105.73 1149.63,-1105.73"/>
</g>
<!-- Ratan Mare -->
<g id="node31" class="node">
<title>Ratan Mare</title>
<polygon fill="lightcoral" stroke="lightcoral" points="1289.88,-1207 1206.38,-1207 1206.38,-1130 1289.88,-1130 1289.88,-1207"/>
<image xlink:href="img/mob.png" width="83.5px" height="77px" preserveAspectRatio="xMinYMin meet" x="1206.38" y="-1207"/>
<text text-anchor="middle" x="1248.12" y="-1162.7" font-family="MS Gothic" font-size="14.00">Ratan Mare</text>
</g>
<!-- Ratan Mare&#45;&gt;Marigold -->
<g id="edge30" class="edge">
<title>Ratan Mare&#45;&gt;Marigold</title>
<path fill="none" stroke="black" d="M1213.31,-1129.61C1205.35,-1120.95 1196.8,-1111.65 1188.56,-1102.68"/>
<polygon fill="black" stroke="black" points="1191.15,-1100.33 1181.81,-1095.33 1186,-1105.06 1191.15,-1100.33"/>
</g>
<!-- Birdcatcher -->
<g id="node32" class="node">
<title>Birdcatcher</title>
<polygon fill="lightblue" stroke="lightblue" points="940.25,-1320 850,-1320 850,-1243 940.25,-1243 940.25,-1320"/>
<image xlink:href="img/mob.png" width="90.25px" height="77px" preserveAspectRatio="xMinYMin meet" x="850" y="-1320"/>
<text text-anchor="middle" x="895.12" y="-1275.7" font-family="MS Gothic" font-size="14.00">Birdcatcher</text>
</g>
<!-- Birdcatcher&#45;&gt;The Baron -->
<g id="edge31" class="edge">
<title>Birdcatcher&#45;&gt;The Baron</title>
<path fill="none" stroke="black" d="M912.53,-1242.61C916.23,-1234.57 920.17,-1225.99 924.01,-1217.63"/>
<polygon fill="black" stroke="black" points="927.17,-1219.14 928.16,-1208.59 920.81,-1216.22 927.17,-1219.14"/>
</g>
<!-- Echidna -->
<g id="node33" class="node">
<title>Echidna</title>
<polygon fill="lightcoral" stroke="lightcoral" points="1035.62,-1320 958.62,-1320 958.62,-1243 1035.62,-1243 1035.62,-1320"/>
<image xlink:href="img/mob.png" width="77px" height="77px" preserveAspectRatio="xMinYMin meet" x="958.625" y="-1320"/>
<text text-anchor="middle" x="997.12" y="-1275.7" font-family="MS Gothic" font-size="14.00">Echidna</text>
</g>
<!-- Echidna&#45;&gt;The Baron -->
<g id="edge32" class="edge">
<title>Echidna&#45;&gt;The Baron</title>
<path fill="none" stroke="black" d="M979.72,-1242.61C976.02,-1234.57 972.08,-1225.99 968.24,-1217.63"/>
<polygon fill="black" stroke="black" points="971.44,-1216.22 964.09,-1208.59 965.08,-1219.14 971.44,-1216.22"/>
</g>
<!-- Sir Hercules -->
<g id="node34" class="node">
<title>Sir Hercules</title>
<polygon fill="lightblue" stroke="lightblue" points="840.62,-1433 743.62,-1433 743.62,-1356 840.62,-1356 840.62,-1433"/>
<image xlink:href="img/mob.png" width="97px" height="77px" preserveAspectRatio="xMinYMin meet" x="743.625" y="-1433"/>
<text text-anchor="middle" x="792.12" y="-1388.7" font-family="MS Gothic" font-size="14.00">Sir Hercules</text>
</g>
<!-- Sir Hercules&#45;&gt;Birdcatcher -->
<g id="edge33" class="edge">
<title>Sir Hercules&#45;&gt;Birdcatcher</title>
<path fill="none" stroke="black" d="M827.28,-1355.61C835.4,-1346.86 844.13,-1337.46 852.53,-1328.4"/>
<polygon fill="black" stroke="black" points="854.86,-1331.04 859.1,-1321.33 849.73,-1326.28 854.86,-1331.04"/>
</g>
<!-- Guiccioli -->
<g id="node35" class="node">
<title>Guiccioli</title>
<polygon fill="lightcoral" stroke="lightcoral" points="935.62,-1433 858.62,-1433 858.62,-1356 935.62,-1356 935.62,-1433"/>
<image xlink:href="img/mob.png" width="77px" height="77px" preserveAspectRatio="xMinYMin meet" x="858.625" y="-1433"/>
<text text-anchor="middle" x="897.12" y="-1388.7" font-family="MS Gothic" font-size="14.00">Guiccioli</text>
</g>
<!-- Guiccioli&#45;&gt;Birdcatcher -->
<g id="edge34" class="edge">
<title>Guiccioli&#45;&gt;Birdcatcher</title>
<path fill="none" stroke="black" d="M896.44,-1355.61C896.3,-1347.84 896.15,-1339.56 896.01,-1331.46"/>
<polygon fill="black" stroke="black" points="899.51,-1331.67 895.83,-1321.73 892.51,-1331.79 899.51,-1331.67"/>
</g>
<!-- Economist -->
<g id="node36" class="node">
<title>Economist</title>
<polygon fill="lightblue" stroke="lightblue" points="1033.62,-1433 956.62,-1433 956.62,-1356 1033.62,-1356 1033.62,-1433"/>
<image xlink:href="img/mob.png" width="77px" height="77px" preserveAspectRatio="xMinYMin meet" x="956.625" y="-1433"/>
<text text-anchor="middle" x="995.12" y="-1388.7" font-family="MS Gothic" font-size="14.00">Economist</text>
</g>
<!-- Economist&#45;&gt;Echidna -->
<g id="edge35" class="edge">
<title>Economist&#45;&gt;Echidna</title>
<path fill="none" stroke="black" d="M995.81,-1355.61C995.95,-1347.84 996.1,-1339.56 996.24,-1331.46"/>
<polygon fill="black" stroke="black" points="999.74,-1331.79 996.42,-1321.73 992.74,-1331.67 999.74,-1331.79"/>
</g>
<!-- Miss Pratt -->
<g id="node37" class="node">
<title>Miss Pratt</title>
<polygon fill="lightcoral" stroke="lightcoral" points="1134.88,-1433 1051.38,-1433 1051.38,-1356 1134.88,-1356 1134.88,-1433"/>
<image xlink:href="img/mob.png" width="83.5px" height="77px" preserveAspectRatio="xMinYMin meet" x="1051.38" y="-1433"/>
<text text-anchor="middle" x="1093.12" y="-1388.7" font-family="MS Gothic" font-size="14.00">Miss Pratt</text>
</g>
<!-- Miss Pratt&#45;&gt;Echidna -->
<g id="edge36" class="edge">
<title>Miss Pratt&#45;&gt;Echidna</title>
<path fill="none" stroke="black" d="M1060.36,-1355.61C1052.86,-1346.95 1044.82,-1337.65 1037.07,-1328.68"/>
<polygon fill="black" stroke="black" points="1039.93,-1326.64 1030.74,-1321.36 1034.63,-1331.22 1039.93,-1326.64"/>
</g>
<!-- Whalebone -->
<g id="node38" class="node">
<title>Whalebone</title>
<polygon fill="lightblue" stroke="lightblue" points="783.62,-1546 706.62,-1546 706.62,-1469 783.62,-1469 783.62,-1546"/>
<image xlink:href="img/mob.png" width="77px" height="77px" preserveAspectRatio="xMinYMin meet" x="706.625" y="-1546"/>
<text text-anchor="middle" x="745.12" y="-1501.7" font-family="MS Gothic" font-size="14.00">Whalebone</text>
</g>
<!-- Whalebone&#45;&gt;Sir Hercules -->
<g id="edge37" class="edge">
<title>Whalebone&#45;&gt;Sir Hercules</title>
<path fill="none" stroke="black" d="M761.17,-1468.61C764.57,-1460.57 768.21,-1451.99 771.75,-1443.63"/>
<polygon fill="black" stroke="black" points="774.89,-1445.19 775.56,-1434.61 768.44,-1442.46 774.89,-1445.19"/>
</g>
<!-- Peri -->
<g id="node39" class="node">
<title>Peri</title>
<polygon fill="lightcoral" stroke="lightcoral" points="878.62,-1546 801.62,-1546 801.62,-1469 878.62,-1469 878.62,-1546"/>
<image xlink:href="img/mob.png" width="77px" height="77px" preserveAspectRatio="xMinYMin meet" x="801.625" y="-1546"/>
<text text-anchor="middle" x="840.12" y="-1501.7" font-family="MS Gothic" font-size="14.00">Peri</text>
</g>
<!-- Peri&#45;&gt;Sir Hercules -->
<g id="edge38" class="edge">
<title>Peri&#45;&gt;Sir Hercules</title>
<path fill="none" stroke="black" d="M823.74,-1468.61C820.26,-1460.57 816.55,-1451.99 812.94,-1443.63"/>
<polygon fill="black" stroke="black" points="816.22,-1442.4 809.04,-1434.61 809.79,-1445.18 816.22,-1442.4"/>
</g>
<!-- Waxy -->
<g id="node40" class="node">
<title>Waxy</title>
<polygon fill="lightblue" stroke="lightblue" points="688.62,-1659 611.62,-1659 611.62,-1582 688.62,-1582 688.62,-1659"/>
<image xlink:href="img/mob.png" width="77px" height="77px" preserveAspectRatio="xMinYMin meet" x="611.625" y="-1659"/>
<text text-anchor="middle" x="650.12" y="-1614.7" font-family="MS Gothic" font-size="14.00">Waxy</text>
</g>
<!-- Waxy&#45;&gt;Whalebone -->
<g id="edge39" class="edge">
<title>Waxy&#45;&gt;Whalebone</title>
<path fill="none" stroke="black" d="M682.55,-1581.61C689.89,-1573.04 697.76,-1563.84 705.36,-1554.96"/>
<polygon fill="black" stroke="black" points="708.02,-1557.24 711.86,-1547.37 702.7,-1552.69 708.02,-1557.24"/>
</g>
<!-- Penelope -->
<g id="node41" class="node">
<title>Penelope</title>
<polygon fill="lightcoral" stroke="lightcoral" points="783.62,-1659 706.62,-1659 706.62,-1582 783.62,-1582 783.62,-1659"/>
<image xlink:href="img/mob.png" width="77px" height="77px" preserveAspectRatio="xMinYMin meet" x="706.625" y="-1659"/>
<text text-anchor="middle" x="745.12" y="-1614.7" font-family="MS Gothic" font-size="14.00">Penelope</text>
</g>
<!-- Penelope&#45;&gt;Whalebone -->
<g id="edge40" class="edge">
<title>Penelope&#45;&gt;Whalebone</title>
<path fill="none" stroke="black" d="M745.12,-1581.61C745.12,-1573.84 745.12,-1565.56 745.12,-1557.46"/>
<polygon fill="black" stroke="black" points="748.63,-1557.73 745.13,-1547.73 741.63,-1557.73 748.63,-1557.73"/>
</g>
<!-- Wanderer -->
<g id="node42" class="node">
<title>Wanderer</title>
<polygon fill="lightblue" stroke="lightblue" points="878.62,-1659 801.62,-1659 801.62,-1582 878.62,-1582 878.62,-1659"/>
<image xlink:href="img/mob.png" width="77px" height="77px" preserveAspectRatio="xMinYMin meet" x="801.625" y="-1659"/>
<text text-anchor="middle" x="840.12" y="-1614.7" font-family="MS Gothic" font-size="14.00">Wanderer</text>
</g>
<!-- Wanderer&#45;&gt;Peri -->
<g id="edge41" class="edge">
<title>Wanderer&#45;&gt;Peri</title>
<path fill="none" stroke="black" d="M840.12,-1581.61C840.12,-1573.84 840.12,-1565.56 840.12,-1557.46"/>
<polygon fill="black" stroke="black" points="843.63,-1557.73 840.13,-1547.73 836.63,-1557.73 843.63,-1557.73"/>
</g>
<!-- Thalestris -->
<g id="node43" class="node">
<title>Thalestris</title>
<polygon fill="lightcoral" stroke="lightcoral" points="979.88,-1659 896.38,-1659 896.38,-1582 979.88,-1582 979.88,-1659"/>
<image xlink:href="img/mob.png" width="83.5px" height="77px" preserveAspectRatio="xMinYMin meet" x="896.375" y="-1659"/>
<text text-anchor="middle" x="938.12" y="-1614.7" font-family="MS Gothic" font-size="14.00">Thalestris</text>
</g>
<!-- Thalestris&#45;&gt;Peri -->
<g id="edge42" class="edge">
<title>Thalestris&#45;&gt;Peri</title>
<path fill="none" stroke="black" d="M904.67,-1581.61C897.03,-1572.95 888.81,-1563.65 880.9,-1554.68"/>
<polygon fill="black" stroke="black" points="883.67,-1552.53 874.43,-1547.35 878.42,-1557.17 883.67,-1552.53"/>
</g>
<!-- Pot&#45;8&#45;Os -->
<g id="node44" class="node">
<title>Pot&#45;8&#45;Os</title>
<polygon fill="lightblue" stroke="lightblue" points="632.62,-1772 555.62,-1772 555.62,-1695 632.62,-1695 632.62,-1772"/>
<image xlink:href="img/mob.png" width="77px" height="77px" preserveAspectRatio="xMinYMin meet" x="555.625" y="-1772"/>
<text text-anchor="middle" x="594.12" y="-1727.7" font-family="MS Gothic" font-size="14.00">Pot&#45;8&#45;Os</text>
</g>
<!-- Pot&#45;8&#45;Os&#45;&gt;Waxy -->
<g id="edge43" class="edge">
<title>Pot&#45;8&#45;Os&#45;&gt;Waxy</title>
<path fill="none" stroke="black" d="M613.24,-1694.61C617.34,-1686.48 621.72,-1677.8 625.99,-1669.35"/>
<polygon fill="black" stroke="black" points="629.03,-1671.07 630.41,-1660.57 622.78,-1667.92 629.03,-1671.07"/>
</g>
<!-- Maria III -->
<g id="node45" class="node">
<title>Maria III</title>
<polygon fill="lightcoral" stroke="lightcoral" points="744.62,-1772 667.62,-1772 667.62,-1695 744.62,-1695 744.62,-1772"/>
<image xlink:href="img/mob.png" width="77px" height="77px" preserveAspectRatio="xMinYMin meet" x="667.625" y="-1772"/>
<text text-anchor="middle" x="706.12" y="-1727.7" font-family="MS Gothic" font-size="14.00">Maria III</text>
</g>
<!-- Maria III&#45;&gt;Waxy -->
<g id="edge44" class="edge">
<title>Maria III&#45;&gt;Waxy</title>
<path fill="none" stroke="black" d="M687.01,-1694.61C682.91,-1686.48 678.53,-1677.8 674.26,-1669.35"/>
<polygon fill="black" stroke="black" points="677.47,-1667.92 669.84,-1660.57 671.22,-1671.07 677.47,-1667.92"/>
</g>
<!-- Eclipse -->
<g id="node46" class="node">
<title>Eclipse</title>
<polygon fill="lightblue" stroke="lightblue" points="520.62,-1885 443.62,-1885 443.62,-1808 520.62,-1808 520.62,-1885"/>
<image xlink:href="img/mob.png" width="77px" height="77px" preserveAspectRatio="xMinYMin meet" x="443.625" y="-1885"/>
<text text-anchor="middle" x="482.12" y="-1840.7" font-family="MS Gothic" font-size="14.00">Eclipse</text>
</g>
<!-- Eclipse&#45;&gt;Pot&#45;8&#45;Os -->
<g id="edge45" class="edge">
<title>Eclipse&#45;&gt;Pot&#45;8&#45;Os</title>
<path fill="none" stroke="black" d="M520.36,-1807.61C529.28,-1798.77 538.87,-1789.26 548.09,-1780.13"/>
<polygon fill="black" stroke="black" points="550.35,-1782.81 554.99,-1773.28 545.42,-1777.84 550.35,-1782.81"/>
</g>
<!-- Sportsmistress -->
<g id="node47" class="node">
<title>Sportsmistress</title>
<polygon fill="lightcoral" stroke="lightcoral" points="649.38,-1885 538.88,-1885 538.88,-1808 649.38,-1808 649.38,-1885"/>
<image xlink:href="img/mob.png" width="100px" height="77px" preserveAspectRatio="xMinYMin meet" x="544.125" y="-1885"/>
<text text-anchor="middle" x="594.12" y="-1840.7" font-family="MS Gothic" font-size="14.00">Sportsmistress</text>
</g>
<!-- Sportsmistress&#45;&gt;Pot&#45;8&#45;Os -->
<g id="edge46" class="edge">
<title>Sportsmistress&#45;&gt;Pot&#45;8&#45;Os</title>
<path fill="none" stroke="black" d="M594.12,-1807.61C594.12,-1799.84 594.12,-1791.56 594.12,-1783.46"/>
<polygon fill="black" stroke="black" points="597.63,-1783.73 594.13,-1773.73 590.63,-1783.73 597.63,-1783.73"/>
</g>
<!-- Herod -->
<g id="node48" class="node">
<title>Herod</title>
<polygon fill="lightblue" stroke="lightblue" points="744.62,-1885 667.62,-1885 667.62,-1808 744.62,-1808 744.62,-1885"/>
<image xlink:href="img/mob.png" width="77px" height="77px" preserveAspectRatio="xMinYMin meet" x="667.625" y="-1885"/>
<text text-anchor="middle" x="706.12" y="-1840.7" font-family="MS Gothic" font-size="14.00">Herod</text>
</g>
<!-- Herod&#45;&gt;Maria III -->
<g id="edge47" class="edge">
<title>Herod&#45;&gt;Maria III</title>
<path fill="none" stroke="black" d="M706.12,-1807.61C706.12,-1799.84 706.12,-1791.56 706.12,-1783.46"/>
<polygon fill="black" stroke="black" points="709.63,-1783.73 706.13,-1773.73 702.63,-1783.73 709.63,-1783.73"/>
</g>
<!-- Lisette -->
<g id="node49" class="node">
<title>Lisette</title>
<polygon fill="lightcoral" stroke="lightcoral" points="839.62,-1885 762.62,-1885 762.62,-1808 839.62,-1808 839.62,-1885"/>
<image xlink:href="img/mob.png" width="77px" height="77px" preserveAspectRatio="xMinYMin meet" x="762.625" y="-1885"/>
<text text-anchor="middle" x="801.12" y="-1840.7" font-family="MS Gothic" font-size="14.00">Lisette</text>
</g>
<!-- Lisette&#45;&gt;Maria III -->
<g id="edge48" class="edge">
<title>Lisette&#45;&gt;Maria III</title>
<path fill="none" stroke="black" d="M768.7,-1807.61C761.36,-1799.04 753.49,-1789.84 745.89,-1780.96"/>
<polygon fill="black" stroke="black" points="748.55,-1778.69 739.39,-1773.37 743.23,-1783.24 748.55,-1778.69"/>
</g>
<!-- Marske -->
<g id="node50" class="node">
<title>Marske</title>
<polygon fill="lightblue" stroke="lightblue" points="449.62,-1998 372.62,-1998 372.62,-1921 449.62,-1921 449.62,-1998"/>
<image xlink:href="img/mob.png" width="77px" height="77px" preserveAspectRatio="xMinYMin meet" x="372.625" y="-1998"/>
<text text-anchor="middle" x="411.12" y="-1953.7" font-family="MS Gothic" font-size="14.00">Marske</text>
</g>
<!-- Marske&#45;&gt;Eclipse -->
<g id="edge49" class="edge">
<title>Marske&#45;&gt;Eclipse</title>
<path fill="none" stroke="black" d="M435.36,-1920.61C440.67,-1912.31 446.36,-1903.41 451.88,-1894.79"/>
<polygon fill="black" stroke="black" points="454.74,-1896.8 457.18,-1886.49 448.85,-1893.03 454.74,-1896.8"/>
</g>
<!-- Spilletta -->
<g id="node51" class="node">
<title>Spilletta</title>
<polygon fill="lightcoral" stroke="lightcoral" points="591.62,-1998 514.62,-1998 514.62,-1921 591.62,-1921 591.62,-1998"/>
<image xlink:href="img/mob.png" width="77px" height="77px" preserveAspectRatio="xMinYMin meet" x="514.625" y="-1998"/>
<text text-anchor="middle" x="553.12" y="-1953.7" font-family="MS Gothic" font-size="14.00">Spilletta</text>
</g>
<!-- Spilletta&#45;&gt;Eclipse -->
<g id="edge50" class="edge">
<title>Spilletta&#45;&gt;Eclipse</title>
<path fill="none" stroke="black" d="M528.89,-1920.61C523.58,-1912.31 517.89,-1903.41 512.37,-1894.79"/>
<polygon fill="black" stroke="black" points="515.4,-1893.03 507.07,-1886.49 509.51,-1896.8 515.4,-1893.03"/>
</g>
<!-- Squirt -->
<g id="node52" class="node">
<title>Squirt</title>
<polygon fill="lightblue" stroke="lightblue" points="307.62,-2111 230.62,-2111 230.62,-2034 307.62,-2034 307.62,-2111"/>
<image xlink:href="img/mob.png" width="77px" height="77px" preserveAspectRatio="xMinYMin meet" x="230.625" y="-2111"/>
<text text-anchor="middle" x="269.12" y="-2066.7" font-family="MS Gothic" font-size="14.00">Squirt</text>
</g>
<!-- Squirt&#45;&gt;Marske -->
<g id="edge51" class="edge">
<title>Squirt&#45;&gt;Marske</title>
<path fill="none" stroke="black" d="M308.07,-2040.35C310.79,-2038.2 313.5,-2036.06 316.12,-2034 331.48,-2021.94 348.31,-2008.87 363.48,-1997.14"/>
<polygon fill="black" stroke="black" points="365.22,-2000.22 371,-1991.33 360.95,-1994.67 365.22,-2000.22"/>
</g>
<!-- Hutton&#39;s Blacklegs Mare -->
<g id="node53" class="node">
<title>Hutton&#39;s Blacklegs Mare</title>
<polygon fill="lightcoral" stroke="lightcoral" points="496.75,-2111 325.5,-2111 325.5,-2034 496.75,-2034 496.75,-2111"/>
<image xlink:href="img/mob.png" width="100px" height="77px" preserveAspectRatio="xMinYMin meet" x="361.125" y="-2111"/>
<text text-anchor="middle" x="411.12" y="-2066.7" font-family="MS Gothic" font-size="14.00">Hutton&#39;s Blacklegs Mare</text>
</g>
<!-- Hutton&#39;s Blacklegs Mare&#45;&gt;Marske -->
<g id="edge52" class="edge">
<title>Hutton&#39;s Blacklegs Mare&#45;&gt;Marske</title>
<path fill="none" stroke="black" d="M411.12,-2033.61C411.12,-2025.84 411.12,-2017.56 411.12,-2009.46"/>
<polygon fill="black" stroke="black" points="414.63,-2009.73 411.13,-1999.73 407.63,-2009.73 414.63,-2009.73"/>
</g>
<!-- Regulus -->
<g id="node54" class="node">
<title>Regulus</title>
<polygon fill="lightblue" stroke="lightblue" points="591.62,-2111 514.62,-2111 514.62,-2034 591.62,-2034 591.62,-2111"/>
<image xlink:href="img/mob.png" width="77px" height="77px" preserveAspectRatio="xMinYMin meet" x="514.625" y="-2111"/>
<text text-anchor="middle" x="553.12" y="-2066.7" font-family="MS Gothic" font-size="14.00">Regulus</text>
</g>
<!-- Regulus&#45;&gt;Spilletta -->
<g id="edge53" class="edge">
<title>Regulus&#45;&gt;Spilletta</title>
<path fill="none" stroke="black" d="M553.12,-2033.61C553.12,-2025.84 553.12,-2017.56 553.12,-2009.46"/>
<polygon fill="black" stroke="black" points="556.63,-2009.73 553.13,-1999.73 549.63,-2009.73 556.63,-2009.73"/>
</g>
<!-- Mother Western -->
<g id="node55" class="node">
<title>Mother Western</title>
<polygon fill="lightcoral" stroke="lightcoral" points="720.38,-2111 609.88,-2111 609.88,-2034 720.38,-2034 720.38,-2111"/>
<image xlink:href="img/mob.png" width="100px" height="77px" preserveAspectRatio="xMinYMin meet" x="615.125" y="-2111"/>
<text text-anchor="middle" x="665.12" y="-2066.7" font-family="MS Gothic" font-size="14.00">Mother Western</text>
</g>
<!-- Mother Western&#45;&gt;Spilletta -->
<g id="edge54" class="edge">
<title>Mother Western&#45;&gt;Spilletta</title>
<path fill="none" stroke="black" d="M626.89,-2033.61C617.97,-2024.77 608.38,-2015.26 599.16,-2006.13"/>
<polygon fill="black" stroke="black" points="601.83,-2003.84 592.26,-1999.28 596.9,-2008.81 601.83,-2003.84"/>
</g>
<!-- Bartlet&#39;s Childers -->
<g id="node56" class="node">
<title>Bartlet&#39;s Childers</title>
<polygon fill="lightblue" stroke="lightblue" points="273.88,-2224 136.38,-2224 136.38,-2147 273.88,-2147 273.88,-2224"/>
<image xlink:href="img/mob.png" width="100px" height="77px" preserveAspectRatio="xMinYMin meet" x="155.125" y="-2224"/>
<text text-anchor="middle" x="205.12" y="-2179.7" font-family="MS Gothic" font-size="14.00">Bartlet&#39;s Childers</text>
</g>
<!-- Bartlet&#39;s Childers&#45;&gt;Squirt -->
<g id="edge55" class="edge">
<title>Bartlet&#39;s Childers&#45;&gt;Squirt</title>
<path fill="none" stroke="black" d="M226.97,-2146.61C231.71,-2138.39 236.78,-2129.6 241.7,-2121.07"/>
<polygon fill="black" stroke="black" points="244.66,-2122.94 246.62,-2112.53 238.59,-2119.44 244.66,-2122.94"/>
</g>
<!-- Snake Mare -->
<g id="node57" class="node">
<title>Snake Mare</title>
<polygon fill="lightcoral" stroke="lightcoral" points="375.88,-2224 292.38,-2224 292.38,-2147 375.88,-2147 375.88,-2224"/>
<image xlink:href="img/mob.png" width="83.5px" height="77px" preserveAspectRatio="xMinYMin meet" x="292.375" y="-2224"/>
<text text-anchor="middle" x="334.12" y="-2179.7" font-family="MS Gothic" font-size="14.00">Snake Mare</text>
</g>
<!-- Snake Mare&#45;&gt;Squirt -->
<g id="edge56" class="edge">
<title>Snake Mare&#45;&gt;Squirt</title>
<path fill="none" stroke="black" d="M311.94,-2146.61C307.13,-2138.39 301.98,-2129.6 296.98,-2121.07"/>
<polygon fill="black" stroke="black" points="300.05,-2119.39 291.98,-2112.52 294.01,-2122.92 300.05,-2119.39"/>
</g>
<!-- ダーレーアラビアン -->
<g id="node58" class="node">
<title>ダーレーアラビアン</title>
<polygon fill="lightblue" stroke="lightblue" points="144.25,-2337 0,-2337 0,-2260 144.25,-2260 144.25,-2337"/>
<image xlink:href="img/darearabian.png" width="100px" height="77px" preserveAspectRatio="xMinYMin meet" x="22.125" y="-2337"/>
<text text-anchor="middle" x="72.12" y="-2292.7" font-family="MS Gothic" font-size="14.00">ダーレーアラビアン</text>
</g>
<!-- ダーレーアラビアン&#45;&gt;Bartlet&#39;s Childers -->
<g id="edge57" class="edge">
<title>ダーレーアラビアン&#45;&gt;Bartlet&#39;s Childers</title>
<path fill="none" stroke="black" d="M117.52,-2259.61C128.33,-2250.59 139.97,-2240.88 151.12,-2231.57"/>
<polygon fill="black" stroke="black" points="153.33,-2234.28 158.77,-2225.19 148.85,-2228.91 153.33,-2234.28"/>
</g>
<!-- Betty Leedes -->
<g id="node59" class="node">
<title>Betty Leedes</title>
<polygon fill="lightcoral" stroke="lightcoral" points="259.62,-2337 162.62,-2337 162.62,-2260 259.62,-2260 259.62,-2337"/>
<image xlink:href="img/mob.png" width="97px" height="77px" preserveAspectRatio="xMinYMin meet" x="162.625" y="-2337"/>
<text text-anchor="middle" x="211.12" y="-2292.7" font-family="MS Gothic" font-size="14.00">Betty Leedes</text>
</g>
<!-- Betty Leedes&#45;&gt;Bartlet&#39;s Childers -->
<g id="edge58" class="edge">
<title>Betty Leedes&#45;&gt;Bartlet&#39;s Childers</title>
<path fill="none" stroke="black" d="M209.08,-2259.61C208.66,-2251.84 208.21,-2243.56 207.77,-2235.46"/>
<polygon fill="black" stroke="black" points="211.28,-2235.53 207.25,-2225.73 204.29,-2235.9 211.28,-2235.53"/>
</g>
<!-- Snake -->
<g id="node60" class="node">
<title>Snake</title>
<polygon fill="lightblue" stroke="lightblue" points="366.62,-2337 289.62,-2337 289.62,-2260 366.62,-2260 366.62,-2337"/>
<image xlink:href="img/mob.png" width="77px" height="77px" preserveAspectRatio="xMinYMin meet" x="289.625" y="-2337"/>
<text text-anchor="middle" x="328.12" y="-2292.7" font-family="MS Gothic" font-size="14.00">Snake</text>
</g>
<!-- Snake&#45;&gt;Snake Mare -->
<g id="edge59" class="edge">
<title>Snake&#45;&gt;Snake Mare</title>
<path fill="none" stroke="black" d="M330.17,-2259.61C330.59,-2251.84 331.04,-2243.56 331.48,-2235.46"/>
<polygon fill="black" stroke="black" points="334.96,-2235.9 332,-2225.73 327.97,-2235.53 334.96,-2235.9"/>
</g>
<!-- Grey Wilkes -->
<g id="node61" class="node">
<title>Grey Wilkes</title>
<polygon fill="lightcoral" stroke="lightcoral" points="475.25,-2337 385,-2337 385,-2260 475.25,-2260 475.25,-2337"/>
<image xlink:href="img/mob.png" width="90.25px" height="77px" preserveAspectRatio="xMinYMin meet" x="385" y="-2337"/>
<text text-anchor="middle" x="430.12" y="-2292.7" font-family="MS Gothic" font-size="14.00">Grey Wilkes</text>
</g>
<!-- Grey Wilkes&#45;&gt;Snake Mare -->
<g id="edge60" class="edge">
<title>Grey Wilkes&#45;&gt;Snake Mare</title>
<path fill="none" stroke="black" d="M397.36,-2259.61C389.86,-2250.95 381.82,-2241.65 374.07,-2232.68"/>
<polygon fill="black" stroke="black" points="376.93,-2230.64 367.74,-2225.36 371.63,-2235.22 376.93,-2230.64"/>
</g>
</g>
</svg>
