<?xml version="1.0" encoding="UTF-8" standalone="no"?>
<!DOCTYPE svg PUBLIC "-//W3C//DTD SVG 1.1//EN"
 "http://www.w3.org/Graphics/SVG/1.1/DTD/svg11.dtd">
<!-- Generated by graphviz version 12.1.2 (20240928.0832)
 -->
<!-- Pages: 1 -->
<svg width="438pt" height="311pt"
 viewBox="0.00 0.00 438.38 311.00" xmlns="http://www.w3.org/2000/svg" xmlns:xlink="http://www.w3.org/1999/xlink">
<g id="graph0" class="graph" transform="scale(1 1) rotate(0) translate(4 307)">
<polygon fill="white" stroke="none" points="-4,4 -4,-307 434.38,-307 434.38,4 -4,4"/>
<!-- Our Page -->
<g id="node1" class="node">
<title>Our Page</title>
<polygon fill="none" stroke="black" points="144,-77 67,-77 67,0 144,0 144,-77"/>
<image xlink:href="img/mob.png" width="77px" height="77px" preserveAspectRatio="xMinYMin meet" x="67" y="-77"/>
<text text-anchor="middle" x="105.5" y="-33.45" font-family="Times New Roman,serif" font-size="14.00">Our Page</text>
</g>
<!-- Blossom Time -->
<g id="node2" class="node">
<title>Blossom Time</title>
<polygon fill="lightcoral" stroke="lightcoral" points="154,-190 57,-190 57,-113 154,-113 154,-190"/>
<image xlink:href="img/mob.png" width="97px" height="77px" preserveAspectRatio="xMinYMin meet" x="57" y="-190"/>
<text text-anchor="middle" x="105.5" y="-145.7" font-family="MS Gothic" font-size="14.00">Blossom Time</text>
</g>
<!-- Blossom Time&#45;&gt;Our Page -->
<g id="edge1" class="edge">
<title>Blossom Time&#45;&gt;Our Page</title>
<path fill="none" stroke="black" d="M105.5,-112.61C105.5,-104.84 105.5,-96.56 105.5,-88.46"/>
<polygon fill="black" stroke="black" points="109,-88.73 105.5,-78.73 102,-88.73 109,-88.73"/>
</g>
<!-- Blue Larkspur -->
<g id="node3" class="node">
<title>Blue Larkspur</title>
<polygon fill="lightblue" stroke="lightblue" points="308.38,-303 204.62,-303 204.62,-226 308.38,-226 308.38,-303"/>
<image xlink:href="img/mob.png" width="100px" height="77px" preserveAspectRatio="xMinYMin meet" x="206.5" y="-303"/>
<text text-anchor="middle" x="256.5" y="-258.7" font-family="MS Gothic" font-size="14.00">Blue Larkspur</text>
</g>
<!-- unknown_father -->
<g id="node4" class="node">
<title>unknown_father</title>
<ellipse fill="none" stroke="black" cx="283.5" cy="-151.5" rx="71.31" ry="18"/>
<text text-anchor="middle" x="283.5" y="-146.45" font-family="Times New Roman,serif" font-size="14.00">unknown_father</text>
</g>
<!-- Blue Larkspur&#45;&gt;unknown_father -->
<g id="edge2" class="edge">
<title>Blue Larkspur&#45;&gt;unknown_father</title>
<path fill="none" stroke="black" d="M265.72,-225.61C269.28,-210.94 273.3,-194.44 276.61,-180.83"/>
<polygon fill="black" stroke="black" points="279.99,-181.75 278.95,-171.21 273.19,-180.1 279.99,-181.75"/>
</g>
<!-- Black Servant -->
<g id="node5" class="node">
<title>Black Servant</title>
<polygon fill="lightcoral" stroke="lightcoral" points="430.38,-303 326.62,-303 326.62,-226 430.38,-226 430.38,-303"/>
<image xlink:href="img/mob.png" width="100px" height="77px" preserveAspectRatio="xMinYMin meet" x="328.5" y="-303"/>
<text text-anchor="middle" x="378.5" y="-258.7" font-family="MS Gothic" font-size="14.00">Black Servant</text>
</g>
<!-- Black Servant&#45;&gt;unknown_father -->
<g id="edge3" class="edge">
<title>Black Servant&#45;&gt;unknown_father</title>
<path fill="none" stroke="black" d="M346.07,-225.61C332.67,-209.95 317.48,-192.2 305.42,-178.11"/>
<polygon fill="black" stroke="black" points="308.15,-175.91 298.98,-170.59 302.83,-180.46 308.15,-175.91"/>
</g>
<!-- Occult -->
<g id="node6" class="node">
<title>Occult</title>
<polygon fill="lightblue" stroke="lightblue" points="77,-303 0,-303 0,-226 77,-226 77,-303"/>
<image xlink:href="img/mob.png" width="77px" height="77px" preserveAspectRatio="xMinYMin meet" x="0" y="-303"/>
<text text-anchor="middle" x="38.5" y="-258.7" font-family="MS Gothic" font-size="14.00">Occult</text>
</g>
<!-- Occult&#45;&gt;Blossom Time -->
<g id="edge4" class="edge">
<title>Occult&#45;&gt;Blossom Time</title>
<path fill="none" stroke="black" d="M61.37,-225.61C66.33,-217.39 71.63,-208.6 76.79,-200.07"/>
<polygon fill="black" stroke="black" points="79.78,-201.88 81.95,-191.51 73.79,-198.27 79.78,-201.88"/>
</g>
<!-- Dis Donc -->
<g id="node7" class="node">
<title>Dis Donc</title>
<polygon fill="lightcoral" stroke="lightcoral" points="172,-303 95,-303 95,-226 172,-226 172,-303"/>
<image xlink:href="img/mob.png" width="77px" height="77px" preserveAspectRatio="xMinYMin meet" x="95" y="-303"/>
<text text-anchor="middle" x="133.5" y="-258.7" font-family="MS Gothic" font-size="14.00">Dis Donc</text>
</g>
<!-- Dis Donc&#45;&gt;Blossom Time -->
<g id="edge5" class="edge">
<title>Dis Donc&#45;&gt;Blossom Time</title>
<path fill="none" stroke="black" d="M123.94,-225.61C121.96,-217.75 119.85,-209.37 117.78,-201.19"/>
<polygon fill="black" stroke="black" points="121.22,-200.53 115.38,-191.69 114.44,-202.24 121.22,-200.53"/>
</g>
</g>
</svg>
