<?xml version="1.0" encoding="UTF-8" standalone="no"?>
<!DOCTYPE svg PUBLIC "-//W3C//DTD SVG 1.1//EN"
 "http://www.w3.org/Graphics/SVG/1.1/DTD/svg11.dtd">
<!-- Generated by graphviz version 12.1.2 (20240928.0832)
 -->
<!-- Pages: 1 -->
<svg width="437pt" height="311pt"
 viewBox="0.00 0.00 437.38 311.00" xmlns="http://www.w3.org/2000/svg" xmlns:xlink="http://www.w3.org/1999/xlink">
<g id="graph0" class="graph" transform="scale(1 1) rotate(0) translate(4 307)">
<polygon fill="white" stroke="none" points="-4,4 -4,-307 433.38,-307 433.38,4 -4,4"/>
<!-- Our Page -->
<g id="node1" class="node">
<title>Our Page</title>
<polygon fill="none" stroke="black" points="261.38,-77 184.38,-77 184.38,0 261.38,0 261.38,-77"/>
<image xlink:href="img/mob.png" width="77px" height="77px" preserveAspectRatio="xMinYMin meet" x="184.375" y="-77"/>
<text text-anchor="middle" x="222.88" y="-33.45" font-family="Times New Roman,serif" font-size="14.00">Our Page</text>
</g>
<!-- Blue Larkspur -->
<g id="node2" class="node">
<title>Blue Larkspur</title>
<polygon fill="lightblue" stroke="lightblue" points="220.75,-190 117,-190 117,-113 220.75,-113 220.75,-190"/>
<image xlink:href="img/mob.png" width="100px" height="77px" preserveAspectRatio="xMinYMin meet" x="118.875" y="-190"/>
<text text-anchor="middle" x="168.88" y="-145.7" font-family="MS Gothic" font-size="14.00">Blue Larkspur</text>
</g>
<!-- Blue Larkspur&#45;&gt;Our Page -->
<g id="edge1" class="edge">
<title>Blue Larkspur&#45;&gt;Our Page</title>
<path fill="none" stroke="black" d="M187.31,-112.61C191.26,-104.48 195.49,-95.8 199.6,-87.35"/>
<polygon fill="black" stroke="black" points="202.64,-89.1 203.86,-78.58 196.34,-86.04 202.64,-89.1"/>
</g>
<!-- Occult -->
<g id="node3" class="node">
<title>Occult</title>
<polygon fill="lightcoral" stroke="lightcoral" points="315.38,-190 238.38,-190 238.38,-113 315.38,-113 315.38,-190"/>
<image xlink:href="img/mob.png" width="77px" height="77px" preserveAspectRatio="xMinYMin meet" x="238.375" y="-190"/>
<text text-anchor="middle" x="276.88" y="-145.7" font-family="MS Gothic" font-size="14.00">Occult</text>
</g>
<!-- Occult&#45;&gt;Our Page -->
<g id="edge2" class="edge">
<title>Occult&#45;&gt;Our Page</title>
<path fill="none" stroke="black" d="M258.44,-112.61C254.49,-104.48 250.26,-95.8 246.15,-87.35"/>
<polygon fill="black" stroke="black" points="249.41,-86.04 241.89,-78.58 243.11,-89.1 249.41,-86.04"/>
</g>
<!-- Black Servant -->
<g id="node4" class="node">
<title>Black Servant</title>
<polygon fill="lightblue" stroke="lightblue" points="103.75,-303 0,-303 0,-226 103.75,-226 103.75,-303"/>
<image xlink:href="img/mob.png" width="100px" height="77px" preserveAspectRatio="xMinYMin meet" x="1.875" y="-303"/>
<text text-anchor="middle" x="51.88" y="-258.7" font-family="MS Gothic" font-size="14.00">Black Servant</text>
</g>
<!-- Black Servant&#45;&gt;Blue Larkspur -->
<g id="edge3" class="edge">
<title>Black Servant&#45;&gt;Blue Larkspur</title>
<path fill="none" stroke="black" d="M91.81,-225.61C101.13,-216.77 111.15,-207.26 120.78,-198.13"/>
<polygon fill="black" stroke="black" points="123.17,-200.68 128.02,-191.26 118.36,-195.6 123.17,-200.68"/>
</g>
<!-- Blossom Time -->
<g id="node5" class="node">
<title>Blossom Time</title>
<polygon fill="lightcoral" stroke="lightcoral" points="218.38,-303 121.38,-303 121.38,-226 218.38,-226 218.38,-303"/>
<image xlink:href="img/mob.png" width="97px" height="77px" preserveAspectRatio="xMinYMin meet" x="121.375" y="-303"/>
<text text-anchor="middle" x="169.88" y="-258.7" font-family="MS Gothic" font-size="14.00">Blossom Time</text>
</g>
<!-- Blossom Time&#45;&gt;Blue Larkspur -->
<g id="edge4" class="edge">
<title>Blossom Time&#45;&gt;Blue Larkspur</title>
<path fill="none" stroke="black" d="M169.53,-225.61C169.46,-217.84 169.39,-209.56 169.32,-201.46"/>
<polygon fill="black" stroke="black" points="172.82,-201.7 169.23,-191.73 165.82,-201.76 172.82,-201.7"/>
</g>
<!-- Dis Donc -->
<g id="node6" class="node">
<title>Dis Donc</title>
<polygon fill="lightblue" stroke="lightblue" points="314.38,-303 237.38,-303 237.38,-226 314.38,-226 314.38,-303"/>
<image xlink:href="img/mob.png" width="77px" height="77px" preserveAspectRatio="xMinYMin meet" x="237.375" y="-303"/>
<text text-anchor="middle" x="275.88" y="-258.7" font-family="MS Gothic" font-size="14.00">Dis Donc</text>
</g>
<!-- Dis Donc&#45;&gt;Occult -->
<g id="edge5" class="edge">
<title>Dis Donc&#45;&gt;Occult</title>
<path fill="none" stroke="black" d="M276.22,-225.61C276.29,-217.84 276.36,-209.56 276.43,-201.46"/>
<polygon fill="black" stroke="black" points="279.93,-201.76 276.52,-191.73 272.93,-201.7 279.93,-201.76"/>
</g>
<!-- Bonnie Witch -->
<g id="node7" class="node">
<title>Bonnie Witch</title>
<polygon fill="lightcoral" stroke="lightcoral" points="429.38,-303 332.38,-303 332.38,-226 429.38,-226 429.38,-303"/>
<image xlink:href="img/mob.png" width="97px" height="77px" preserveAspectRatio="xMinYMin meet" x="332.375" y="-303"/>
<text text-anchor="middle" x="380.88" y="-258.7" font-family="MS Gothic" font-size="14.00">Bonnie Witch</text>
</g>
<!-- Bonnie Witch&#45;&gt;Occult -->
<g id="edge6" class="edge">
<title>Bonnie Witch&#45;&gt;Occult</title>
<path fill="none" stroke="black" d="M345.37,-225.61C337.18,-216.86 328.37,-207.46 319.88,-198.4"/>
<polygon fill="black" stroke="black" points="322.64,-196.23 313.25,-191.32 317.53,-201.01 322.64,-196.23"/>
</g>
</g>
</svg>
