<?xml version="1.0" encoding="UTF-8" standalone="no"?>
<!DOCTYPE svg PUBLIC "-//W3C//DTD SVG 1.1//EN"
 "http://www.w3.org/Graphics/SVG/1.1/DTD/svg11.dtd">
<!-- Generated by graphviz version 12.1.2 (20240928.0832)
 -->
<!-- Pages: 1 -->
<svg width="1551pt" height="2119pt"
 viewBox="0.00 0.00 1550.62 2119.00" xmlns="http://www.w3.org/2000/svg" xmlns:xlink="http://www.w3.org/1999/xlink">
<g id="graph0" class="graph" transform="scale(1 1) rotate(0) translate(4 2115)">
<polygon fill="white" stroke="none" points="-4,4 -4,-2115 1546.62,-2115 1546.62,4 -4,4"/>
<!-- Phalaris -->
<g id="node1" class="node">
<title>Phalaris</title>
<polygon fill="none" stroke="black" points="1396.62,-77 1319.62,-77 1319.62,0 1396.62,0 1396.62,-77"/>
<image xlink:href="img/mob.png" width="77px" height="77px" preserveAspectRatio="xMinYMin meet" x="1319.62" y="-77"/>
<text text-anchor="middle" x="1358.12" y="-33.45" font-family="Times New Roman,serif" font-size="14.00">Phalaris</text>
</g>
<!-- Polymelus -->
<g id="node2" class="node">
<title>Polymelus</title>
<polygon fill="lightblue" stroke="lightblue" points="1345.62,-190 1268.62,-190 1268.62,-113 1345.62,-113 1345.62,-190"/>
<image xlink:href="img/mob.png" width="77px" height="77px" preserveAspectRatio="xMinYMin meet" x="1268.62" y="-190"/>
<text text-anchor="middle" x="1307.12" y="-145.7" font-family="MS Gothic" font-size="14.00">Polymelus</text>
</g>
<!-- Polymelus&#45;&gt;Phalaris -->
<g id="edge1" class="edge">
<title>Polymelus&#45;&gt;Phalaris</title>
<path fill="none" stroke="black" d="M1324.53,-112.61C1328.23,-104.57 1332.17,-95.99 1336.01,-87.63"/>
<polygon fill="black" stroke="black" points="1339.17,-89.14 1340.16,-78.59 1332.81,-86.22 1339.17,-89.14"/>
</g>
<!-- Bromus -->
<g id="node3" class="node">
<title>Bromus</title>
<polygon fill="lightcoral" stroke="lightcoral" points="1447.62,-190 1370.62,-190 1370.62,-113 1447.62,-113 1447.62,-190"/>
<image xlink:href="img/mob.png" width="77px" height="77px" preserveAspectRatio="xMinYMin meet" x="1370.62" y="-190"/>
<text text-anchor="middle" x="1409.12" y="-145.7" font-family="MS Gothic" font-size="14.00">Bromus</text>
</g>
<!-- Bromus&#45;&gt;Phalaris -->
<g id="edge2" class="edge">
<title>Bromus&#45;&gt;Phalaris</title>
<path fill="none" stroke="black" d="M1391.72,-112.61C1388.02,-104.57 1384.08,-95.99 1380.24,-87.63"/>
<polygon fill="black" stroke="black" points="1383.44,-86.22 1376.09,-78.59 1377.08,-89.14 1383.44,-86.22"/>
</g>
<!-- Cyllene -->
<g id="node4" class="node">
<title>Cyllene</title>
<polygon fill="lightblue" stroke="lightblue" points="1243.62,-303 1166.62,-303 1166.62,-226 1243.62,-226 1243.62,-303"/>
<image xlink:href="img/mob.png" width="77px" height="77px" preserveAspectRatio="xMinYMin meet" x="1166.62" y="-303"/>
<text text-anchor="middle" x="1205.12" y="-258.7" font-family="MS Gothic" font-size="14.00">Cyllene</text>
</g>
<!-- Cyllene&#45;&gt;Polymelus -->
<g id="edge3" class="edge">
<title>Cyllene&#45;&gt;Polymelus</title>
<path fill="none" stroke="black" d="M1239.94,-225.61C1247.9,-216.95 1256.45,-207.65 1264.69,-198.68"/>
<polygon fill="black" stroke="black" points="1267.25,-201.06 1271.44,-191.33 1262.1,-196.33 1267.25,-201.06"/>
</g>
<!-- Maid Marian -->
<g id="node5" class="node">
<title>Maid Marian</title>
<polygon fill="lightcoral" stroke="lightcoral" points="1352.25,-303 1262,-303 1262,-226 1352.25,-226 1352.25,-303"/>
<image xlink:href="img/mob.png" width="90.25px" height="77px" preserveAspectRatio="xMinYMin meet" x="1262" y="-303"/>
<text text-anchor="middle" x="1307.12" y="-258.7" font-family="MS Gothic" font-size="14.00">Maid Marian</text>
</g>
<!-- Maid Marian&#45;&gt;Polymelus -->
<g id="edge4" class="edge">
<title>Maid Marian&#45;&gt;Polymelus</title>
<path fill="none" stroke="black" d="M1307.12,-225.61C1307.12,-217.84 1307.12,-209.56 1307.12,-201.46"/>
<polygon fill="black" stroke="black" points="1310.63,-201.73 1307.13,-191.73 1303.63,-201.73 1310.63,-201.73"/>
</g>
<!-- Sainfoin -->
<g id="node6" class="node">
<title>Sainfoin</title>
<polygon fill="lightblue" stroke="lightblue" points="1447.62,-303 1370.62,-303 1370.62,-226 1447.62,-226 1447.62,-303"/>
<image xlink:href="img/mob.png" width="77px" height="77px" preserveAspectRatio="xMinYMin meet" x="1370.62" y="-303"/>
<text text-anchor="middle" x="1409.12" y="-258.7" font-family="MS Gothic" font-size="14.00">Sainfoin</text>
</g>
<!-- Sainfoin&#45;&gt;Bromus -->
<g id="edge5" class="edge">
<title>Sainfoin&#45;&gt;Bromus</title>
<path fill="none" stroke="black" d="M1409.12,-225.61C1409.12,-217.84 1409.12,-209.56 1409.12,-201.46"/>
<polygon fill="black" stroke="black" points="1412.63,-201.73 1409.13,-191.73 1405.63,-201.73 1412.63,-201.73"/>
</g>
<!-- Cheery -->
<g id="node7" class="node">
<title>Cheery</title>
<polygon fill="lightcoral" stroke="lightcoral" points="1542.62,-303 1465.62,-303 1465.62,-226 1542.62,-226 1542.62,-303"/>
<image xlink:href="img/mob.png" width="77px" height="77px" preserveAspectRatio="xMinYMin meet" x="1465.62" y="-303"/>
<text text-anchor="middle" x="1504.12" y="-258.7" font-family="MS Gothic" font-size="14.00">Cheery</text>
</g>
<!-- Cheery&#45;&gt;Bromus -->
<g id="edge6" class="edge">
<title>Cheery&#45;&gt;Bromus</title>
<path fill="none" stroke="black" d="M1471.7,-225.61C1464.36,-217.04 1456.49,-207.84 1448.89,-198.96"/>
<polygon fill="black" stroke="black" points="1451.55,-196.69 1442.39,-191.37 1446.23,-201.24 1451.55,-196.69"/>
</g>
<!-- Bona Vista -->
<g id="node8" class="node">
<title>Bona Vista</title>
<polygon fill="lightblue" stroke="lightblue" points="1197.88,-416 1114.38,-416 1114.38,-339 1197.88,-339 1197.88,-416"/>
<image xlink:href="img/mob.png" width="83.5px" height="77px" preserveAspectRatio="xMinYMin meet" x="1114.38" y="-416"/>
<text text-anchor="middle" x="1156.12" y="-371.7" font-family="MS Gothic" font-size="14.00">Bona Vista</text>
</g>
<!-- Bona Vista&#45;&gt;Cyllene -->
<g id="edge7" class="edge">
<title>Bona Vista&#45;&gt;Cyllene</title>
<path fill="none" stroke="black" d="M1172.85,-338.61C1176.4,-330.57 1180.19,-321.99 1183.88,-313.63"/>
<polygon fill="black" stroke="black" points="1187.03,-315.17 1187.86,-304.6 1180.62,-312.34 1187.03,-315.17"/>
</g>
<!-- Arcadia -->
<g id="node9" class="node">
<title>Arcadia</title>
<polygon fill="lightcoral" stroke="lightcoral" points="1292.62,-416 1215.62,-416 1215.62,-339 1292.62,-339 1292.62,-416"/>
<image xlink:href="img/mob.png" width="77px" height="77px" preserveAspectRatio="xMinYMin meet" x="1215.62" y="-416"/>
<text text-anchor="middle" x="1254.12" y="-371.7" font-family="MS Gothic" font-size="14.00">Arcadia</text>
</g>
<!-- Arcadia&#45;&gt;Cyllene -->
<g id="edge8" class="edge">
<title>Arcadia&#45;&gt;Cyllene</title>
<path fill="none" stroke="black" d="M1237.4,-338.61C1233.85,-330.57 1230.06,-321.99 1226.37,-313.63"/>
<polygon fill="black" stroke="black" points="1229.63,-312.34 1222.39,-304.6 1223.22,-315.17 1229.63,-312.34"/>
</g>
<!-- Bend Or -->
<g id="node10" class="node">
<title>Bend Or</title>
<polygon fill="lightblue" stroke="lightblue" points="1100.62,-529 1023.62,-529 1023.62,-452 1100.62,-452 1100.62,-529"/>
<image xlink:href="img/mob.png" width="77px" height="77px" preserveAspectRatio="xMinYMin meet" x="1023.62" y="-529"/>
<text text-anchor="middle" x="1062.12" y="-484.7" font-family="MS Gothic" font-size="14.00">Bend Or</text>
</g>
<!-- Bend Or&#45;&gt;Bona Vista -->
<g id="edge9" class="edge">
<title>Bend Or&#45;&gt;Bona Vista</title>
<path fill="none" stroke="black" d="M1094.21,-451.61C1101.47,-443.04 1109.26,-433.84 1116.78,-424.96"/>
<polygon fill="black" stroke="black" points="1119.41,-427.27 1123.2,-417.37 1114.07,-422.74 1119.41,-427.27"/>
</g>
<!-- Vista -->
<g id="node11" class="node">
<title>Vista</title>
<polygon fill="lightcoral" stroke="lightcoral" points="1195.62,-529 1118.62,-529 1118.62,-452 1195.62,-452 1195.62,-529"/>
<image xlink:href="img/mob.png" width="77px" height="77px" preserveAspectRatio="xMinYMin meet" x="1118.62" y="-529"/>
<text text-anchor="middle" x="1157.12" y="-484.7" font-family="MS Gothic" font-size="14.00">Vista</text>
</g>
<!-- Vista&#45;&gt;Bona Vista -->
<g id="edge10" class="edge">
<title>Vista&#45;&gt;Bona Vista</title>
<path fill="none" stroke="black" d="M1156.78,-451.61C1156.71,-443.84 1156.64,-435.56 1156.57,-427.46"/>
<polygon fill="black" stroke="black" points="1160.07,-427.7 1156.48,-417.73 1153.07,-427.76 1160.07,-427.7"/>
</g>
<!-- Isonomy -->
<g id="node12" class="node">
<title>Isonomy</title>
<polygon fill="lightblue" stroke="lightblue" points="1291.62,-529 1214.62,-529 1214.62,-452 1291.62,-452 1291.62,-529"/>
<image xlink:href="img/mob.png" width="77px" height="77px" preserveAspectRatio="xMinYMin meet" x="1214.62" y="-529"/>
<text text-anchor="middle" x="1253.12" y="-484.7" font-family="MS Gothic" font-size="14.00">Isonomy</text>
</g>
<!-- Isonomy&#45;&gt;Arcadia -->
<g id="edge11" class="edge">
<title>Isonomy&#45;&gt;Arcadia</title>
<path fill="none" stroke="black" d="M1253.47,-451.61C1253.54,-443.84 1253.61,-435.56 1253.68,-427.46"/>
<polygon fill="black" stroke="black" points="1257.18,-427.76 1253.77,-417.73 1250.18,-427.7 1257.18,-427.76"/>
</g>
<!-- Distant Shore -->
<g id="node13" class="node">
<title>Distant Shore</title>
<polygon fill="lightcoral" stroke="lightcoral" points="1413,-529 1309.25,-529 1309.25,-452 1413,-452 1413,-529"/>
<image xlink:href="img/mob.png" width="100px" height="77px" preserveAspectRatio="xMinYMin meet" x="1311.12" y="-529"/>
<text text-anchor="middle" x="1361.12" y="-484.7" font-family="MS Gothic" font-size="14.00">Distant Shore</text>
</g>
<!-- Distant Shore&#45;&gt;Arcadia -->
<g id="edge12" class="edge">
<title>Distant Shore&#45;&gt;Arcadia</title>
<path fill="none" stroke="black" d="M1324.6,-451.61C1316.16,-442.86 1307.1,-433.46 1298.37,-424.4"/>
<polygon fill="black" stroke="black" points="1300.99,-422.08 1291.53,-417.31 1295.96,-426.94 1300.99,-422.08"/>
</g>
<!-- Doncaster -->
<g id="node14" class="node">
<title>Doncaster</title>
<polygon fill="lightblue" stroke="lightblue" points="1051.62,-642 974.62,-642 974.62,-565 1051.62,-565 1051.62,-642"/>
<image xlink:href="img/mob.png" width="77px" height="77px" preserveAspectRatio="xMinYMin meet" x="974.625" y="-642"/>
<text text-anchor="middle" x="1013.12" y="-597.7" font-family="MS Gothic" font-size="14.00">Doncaster</text>
</g>
<!-- Doncaster&#45;&gt;Bend Or -->
<g id="edge13" class="edge">
<title>Doncaster&#45;&gt;Bend Or</title>
<path fill="none" stroke="black" d="M1029.85,-564.61C1033.4,-556.57 1037.19,-547.99 1040.88,-539.63"/>
<polygon fill="black" stroke="black" points="1044.03,-541.17 1044.86,-530.6 1037.62,-538.34 1044.03,-541.17"/>
</g>
<!-- Rouge Rose -->
<g id="node15" class="node">
<title>Rouge Rose</title>
<polygon fill="lightcoral" stroke="lightcoral" points="1152.88,-642 1069.38,-642 1069.38,-565 1152.88,-565 1152.88,-642"/>
<image xlink:href="img/mob.png" width="83.5px" height="77px" preserveAspectRatio="xMinYMin meet" x="1069.38" y="-642"/>
<text text-anchor="middle" x="1111.12" y="-597.7" font-family="MS Gothic" font-size="14.00">Rouge Rose</text>
</g>
<!-- Rouge Rose&#45;&gt;Bend Or -->
<g id="edge14" class="edge">
<title>Rouge Rose&#45;&gt;Bend Or</title>
<path fill="none" stroke="black" d="M1094.4,-564.61C1090.85,-556.57 1087.06,-547.99 1083.37,-539.63"/>
<polygon fill="black" stroke="black" points="1086.63,-538.34 1079.39,-530.6 1080.22,-541.17 1086.63,-538.34"/>
</g>
<!-- Stockwell -->
<g id="node16" class="node">
<title>Stockwell</title>
<polygon fill="lightblue" stroke="lightblue" points="957.62,-755 880.62,-755 880.62,-678 957.62,-678 957.62,-755"/>
<image xlink:href="img/mob.png" width="77px" height="77px" preserveAspectRatio="xMinYMin meet" x="880.625" y="-755"/>
<text text-anchor="middle" x="919.12" y="-710.7" font-family="MS Gothic" font-size="14.00">Stockwell</text>
</g>
<!-- Stockwell&#45;&gt;Doncaster -->
<g id="edge15" class="edge">
<title>Stockwell&#45;&gt;Doncaster</title>
<path fill="none" stroke="black" d="M951.21,-677.61C958.47,-669.04 966.26,-659.84 973.78,-650.96"/>
<polygon fill="black" stroke="black" points="976.41,-653.27 980.2,-643.37 971.07,-648.74 976.41,-653.27"/>
</g>
<!-- Marigold -->
<g id="node17" class="node">
<title>Marigold</title>
<polygon fill="lightcoral" stroke="lightcoral" points="1052.62,-755 975.62,-755 975.62,-678 1052.62,-678 1052.62,-755"/>
<image xlink:href="img/mob.png" width="77px" height="77px" preserveAspectRatio="xMinYMin meet" x="975.625" y="-755"/>
<text text-anchor="middle" x="1014.12" y="-710.7" font-family="MS Gothic" font-size="14.00">Marigold</text>
</g>
<!-- Marigold&#45;&gt;Doncaster -->
<g id="edge16" class="edge">
<title>Marigold&#45;&gt;Doncaster</title>
<path fill="none" stroke="black" d="M1013.78,-677.61C1013.71,-669.84 1013.64,-661.56 1013.57,-653.46"/>
<polygon fill="black" stroke="black" points="1017.07,-653.7 1013.48,-643.73 1010.07,-653.76 1017.07,-653.7"/>
</g>
<!-- Thormanby -->
<g id="node18" class="node">
<title>Thormanby</title>
<polygon fill="lightblue" stroke="lightblue" points="1148.62,-755 1071.62,-755 1071.62,-678 1148.62,-678 1148.62,-755"/>
<image xlink:href="img/mob.png" width="77px" height="77px" preserveAspectRatio="xMinYMin meet" x="1071.62" y="-755"/>
<text text-anchor="middle" x="1110.12" y="-710.7" font-family="MS Gothic" font-size="14.00">Thormanby</text>
</g>
<!-- Thormanby&#45;&gt;Rouge Rose -->
<g id="edge17" class="edge">
<title>Thormanby&#45;&gt;Rouge Rose</title>
<path fill="none" stroke="black" d="M1110.47,-677.61C1110.54,-669.84 1110.61,-661.56 1110.68,-653.46"/>
<polygon fill="black" stroke="black" points="1114.18,-653.76 1110.77,-643.73 1107.18,-653.7 1114.18,-653.76"/>
</g>
<!-- Ellen Horne -->
<g id="node19" class="node">
<title>Ellen Horne</title>
<polygon fill="lightcoral" stroke="lightcoral" points="1257.25,-755 1167,-755 1167,-678 1257.25,-678 1257.25,-755"/>
<image xlink:href="img/mob.png" width="90.25px" height="77px" preserveAspectRatio="xMinYMin meet" x="1167" y="-755"/>
<text text-anchor="middle" x="1212.12" y="-710.7" font-family="MS Gothic" font-size="14.00">Ellen Horne</text>
</g>
<!-- Ellen Horne&#45;&gt;Rouge Rose -->
<g id="edge18" class="edge">
<title>Ellen Horne&#45;&gt;Rouge Rose</title>
<path fill="none" stroke="black" d="M1177.65,-677.61C1169.77,-668.95 1161.3,-659.65 1153.15,-650.68"/>
<polygon fill="black" stroke="black" points="1155.78,-648.38 1146.46,-643.34 1150.61,-653.09 1155.78,-648.38"/>
</g>
<!-- The Baron -->
<g id="node20" class="node">
<title>The Baron</title>
<polygon fill="lightblue" stroke="lightblue" points="908.62,-868 831.62,-868 831.62,-791 908.62,-791 908.62,-868"/>
<image xlink:href="img/mob.png" width="77px" height="77px" preserveAspectRatio="xMinYMin meet" x="831.625" y="-868"/>
<text text-anchor="middle" x="870.12" y="-823.7" font-family="MS Gothic" font-size="14.00">The Baron</text>
</g>
<!-- The Baron&#45;&gt;Stockwell -->
<g id="edge19" class="edge">
<title>The Baron&#45;&gt;Stockwell</title>
<path fill="none" stroke="black" d="M886.85,-790.61C890.4,-782.57 894.19,-773.99 897.88,-765.63"/>
<polygon fill="black" stroke="black" points="901.03,-767.17 901.86,-756.6 894.62,-764.34 901.03,-767.17"/>
</g>
<!-- Pocahontas -->
<g id="node21" class="node">
<title>Pocahontas</title>
<polygon fill="lightcoral" stroke="lightcoral" points="1009.88,-868 926.38,-868 926.38,-791 1009.88,-791 1009.88,-868"/>
<image xlink:href="img/mob.png" width="83.5px" height="77px" preserveAspectRatio="xMinYMin meet" x="926.375" y="-868"/>
<text text-anchor="middle" x="968.12" y="-823.7" font-family="MS Gothic" font-size="14.00">Pocahontas</text>
</g>
<!-- Pocahontas&#45;&gt;Stockwell -->
<g id="edge20" class="edge">
<title>Pocahontas&#45;&gt;Stockwell</title>
<path fill="none" stroke="black" d="M951.4,-790.61C947.85,-782.57 944.06,-773.99 940.37,-765.63"/>
<polygon fill="black" stroke="black" points="943.63,-764.34 936.39,-756.6 937.22,-767.17 943.63,-764.34"/>
</g>
<!-- Birdcatcher -->
<g id="node22" class="node">
<title>Birdcatcher</title>
<polygon fill="lightblue" stroke="lightblue" points="814.25,-981 724,-981 724,-904 814.25,-904 814.25,-981"/>
<image xlink:href="img/mob.png" width="90.25px" height="77px" preserveAspectRatio="xMinYMin meet" x="724" y="-981"/>
<text text-anchor="middle" x="769.12" y="-936.7" font-family="MS Gothic" font-size="14.00">Birdcatcher</text>
</g>
<!-- Birdcatcher&#45;&gt;The Baron -->
<g id="edge21" class="edge">
<title>Birdcatcher&#45;&gt;The Baron</title>
<path fill="none" stroke="black" d="M803.6,-903.61C811.48,-894.95 819.95,-885.65 828.1,-876.68"/>
<polygon fill="black" stroke="black" points="830.64,-879.09 834.79,-869.34 825.47,-874.38 830.64,-879.09"/>
</g>
<!-- Echidna -->
<g id="node23" class="node">
<title>Echidna</title>
<polygon fill="lightcoral" stroke="lightcoral" points="909.62,-981 832.62,-981 832.62,-904 909.62,-904 909.62,-981"/>
<image xlink:href="img/mob.png" width="77px" height="77px" preserveAspectRatio="xMinYMin meet" x="832.625" y="-981"/>
<text text-anchor="middle" x="871.12" y="-936.7" font-family="MS Gothic" font-size="14.00">Echidna</text>
</g>
<!-- Echidna&#45;&gt;The Baron -->
<g id="edge22" class="edge">
<title>Echidna&#45;&gt;The Baron</title>
<path fill="none" stroke="black" d="M870.78,-903.61C870.71,-895.84 870.64,-887.56 870.57,-879.46"/>
<polygon fill="black" stroke="black" points="874.07,-879.7 870.48,-869.73 867.07,-879.76 874.07,-879.7"/>
</g>
<!-- Glencoe -->
<g id="node24" class="node">
<title>Glencoe</title>
<polygon fill="lightblue" stroke="lightblue" points="1005.62,-981 928.62,-981 928.62,-904 1005.62,-904 1005.62,-981"/>
<image xlink:href="img/mob.png" width="77px" height="77px" preserveAspectRatio="xMinYMin meet" x="928.625" y="-981"/>
<text text-anchor="middle" x="967.12" y="-936.7" font-family="MS Gothic" font-size="14.00">Glencoe</text>
</g>
<!-- Glencoe&#45;&gt;Pocahontas -->
<g id="edge23" class="edge">
<title>Glencoe&#45;&gt;Pocahontas</title>
<path fill="none" stroke="black" d="M967.47,-903.61C967.54,-895.84 967.61,-887.56 967.68,-879.46"/>
<polygon fill="black" stroke="black" points="971.18,-879.76 967.77,-869.73 964.18,-879.7 971.18,-879.76"/>
</g>
<!-- Marpessa -->
<g id="node25" class="node">
<title>Marpessa</title>
<polygon fill="lightcoral" stroke="lightcoral" points="1100.62,-981 1023.62,-981 1023.62,-904 1100.62,-904 1100.62,-981"/>
<image xlink:href="img/mob.png" width="77px" height="77px" preserveAspectRatio="xMinYMin meet" x="1023.62" y="-981"/>
<text text-anchor="middle" x="1062.12" y="-936.7" font-family="MS Gothic" font-size="14.00">Marpessa</text>
</g>
<!-- Marpessa&#45;&gt;Pocahontas -->
<g id="edge24" class="edge">
<title>Marpessa&#45;&gt;Pocahontas</title>
<path fill="none" stroke="black" d="M1030.04,-903.61C1022.78,-895.04 1014.99,-885.84 1007.47,-876.96"/>
<polygon fill="black" stroke="black" points="1010.18,-874.74 1001.05,-869.37 1004.84,-879.27 1010.18,-874.74"/>
</g>
<!-- Sir Hercules -->
<g id="node26" class="node">
<title>Sir Hercules</title>
<polygon fill="lightblue" stroke="lightblue" points="765.62,-1094 668.62,-1094 668.62,-1017 765.62,-1017 765.62,-1094"/>
<image xlink:href="img/mob.png" width="97px" height="77px" preserveAspectRatio="xMinYMin meet" x="668.625" y="-1094"/>
<text text-anchor="middle" x="717.12" y="-1049.7" font-family="MS Gothic" font-size="14.00">Sir Hercules</text>
</g>
<!-- Sir Hercules&#45;&gt;Birdcatcher -->
<g id="edge25" class="edge">
<title>Sir Hercules&#45;&gt;Birdcatcher</title>
<path fill="none" stroke="black" d="M734.88,-1016.61C738.64,-1008.57 742.66,-999.99 746.58,-991.63"/>
<polygon fill="black" stroke="black" points="749.74,-993.13 750.81,-982.59 743.4,-990.16 749.74,-993.13"/>
</g>
<!-- Guiccioli -->
<g id="node27" class="node">
<title>Guiccioli</title>
<polygon fill="lightcoral" stroke="lightcoral" points="860.62,-1094 783.62,-1094 783.62,-1017 860.62,-1017 860.62,-1094"/>
<image xlink:href="img/mob.png" width="77px" height="77px" preserveAspectRatio="xMinYMin meet" x="783.625" y="-1094"/>
<text text-anchor="middle" x="822.12" y="-1049.7" font-family="MS Gothic" font-size="14.00">Guiccioli</text>
</g>
<!-- Guiccioli&#45;&gt;Birdcatcher -->
<g id="edge26" class="edge">
<title>Guiccioli&#45;&gt;Birdcatcher</title>
<path fill="none" stroke="black" d="M804.03,-1016.61C800.15,-1008.48 796.01,-999.8 791.97,-991.35"/>
<polygon fill="black" stroke="black" points="795.25,-990.1 787.79,-982.58 788.94,-993.12 795.25,-990.1"/>
</g>
<!-- Whalebone -->
<g id="node28" class="node">
<title>Whalebone</title>
<polygon fill="lightblue" stroke="lightblue" points="663.62,-1207 586.62,-1207 586.62,-1130 663.62,-1130 663.62,-1207"/>
<image xlink:href="img/mob.png" width="77px" height="77px" preserveAspectRatio="xMinYMin meet" x="586.625" y="-1207"/>
<text text-anchor="middle" x="625.12" y="-1162.7" font-family="MS Gothic" font-size="14.00">Whalebone</text>
</g>
<!-- Whalebone&#45;&gt;Sir Hercules -->
<g id="edge27" class="edge">
<title>Whalebone&#45;&gt;Sir Hercules</title>
<path fill="none" stroke="black" d="M656.53,-1129.61C663.63,-1121.04 671.26,-1111.84 678.62,-1102.96"/>
<polygon fill="black" stroke="black" points="681.21,-1105.32 684.9,-1095.38 675.82,-1100.85 681.21,-1105.32"/>
</g>
<!-- Peri -->
<g id="node29" class="node">
<title>Peri</title>
<polygon fill="lightcoral" stroke="lightcoral" points="758.62,-1207 681.62,-1207 681.62,-1130 758.62,-1130 758.62,-1207"/>
<image xlink:href="img/mob.png" width="77px" height="77px" preserveAspectRatio="xMinYMin meet" x="681.625" y="-1207"/>
<text text-anchor="middle" x="720.12" y="-1162.7" font-family="MS Gothic" font-size="14.00">Peri</text>
</g>
<!-- Peri&#45;&gt;Sir Hercules -->
<g id="edge28" class="edge">
<title>Peri&#45;&gt;Sir Hercules</title>
<path fill="none" stroke="black" d="M719.1,-1129.61C718.89,-1121.84 718.67,-1113.56 718.45,-1105.46"/>
<polygon fill="black" stroke="black" points="721.95,-1105.63 718.19,-1095.73 714.96,-1105.82 721.95,-1105.63"/>
</g>
<!-- Bob Booty -->
<g id="node30" class="node">
<title>Bob Booty</title>
<polygon fill="lightblue" stroke="lightblue" points="858.62,-1207 781.62,-1207 781.62,-1130 858.62,-1130 858.62,-1207"/>
<image xlink:href="img/mob.png" width="77px" height="77px" preserveAspectRatio="xMinYMin meet" x="781.625" y="-1207"/>
<text text-anchor="middle" x="820.12" y="-1162.7" font-family="MS Gothic" font-size="14.00">Bob Booty</text>
</g>
<!-- Bob Booty&#45;&gt;Guiccioli -->
<g id="edge29" class="edge">
<title>Bob Booty&#45;&gt;Guiccioli</title>
<path fill="none" stroke="black" d="M820.81,-1129.61C820.95,-1121.84 821.1,-1113.56 821.24,-1105.46"/>
<polygon fill="black" stroke="black" points="824.74,-1105.79 821.42,-1095.73 817.74,-1105.67 824.74,-1105.79"/>
</g>
<!-- Flight -->
<g id="node31" class="node">
<title>Flight</title>
<polygon fill="lightcoral" stroke="lightcoral" points="953.62,-1207 876.62,-1207 876.62,-1130 953.62,-1130 953.62,-1207"/>
<image xlink:href="img/mob.png" width="77px" height="77px" preserveAspectRatio="xMinYMin meet" x="876.625" y="-1207"/>
<text text-anchor="middle" x="915.12" y="-1162.7" font-family="MS Gothic" font-size="14.00">Flight</text>
</g>
<!-- Flight&#45;&gt;Guiccioli -->
<g id="edge30" class="edge">
<title>Flight&#45;&gt;Guiccioli</title>
<path fill="none" stroke="black" d="M883.38,-1129.61C876.2,-1121.04 868.49,-1111.84 861.05,-1102.96"/>
<polygon fill="black" stroke="black" points="863.8,-1100.8 854.7,-1095.38 858.44,-1105.29 863.8,-1100.8"/>
</g>
<!-- Waxy -->
<g id="node32" class="node">
<title>Waxy</title>
<polygon fill="lightblue" stroke="lightblue" points="616.62,-1320 539.62,-1320 539.62,-1243 616.62,-1243 616.62,-1320"/>
<image xlink:href="img/mob.png" width="77px" height="77px" preserveAspectRatio="xMinYMin meet" x="539.625" y="-1320"/>
<text text-anchor="middle" x="578.12" y="-1275.7" font-family="MS Gothic" font-size="14.00">Waxy</text>
</g>
<!-- Waxy&#45;&gt;Whalebone -->
<g id="edge31" class="edge">
<title>Waxy&#45;&gt;Whalebone</title>
<path fill="none" stroke="black" d="M594.17,-1242.61C597.57,-1234.57 601.21,-1225.99 604.75,-1217.63"/>
<polygon fill="black" stroke="black" points="607.89,-1219.19 608.56,-1208.61 601.44,-1216.46 607.89,-1219.19"/>
</g>
<!-- Penelope -->
<g id="node33" class="node">
<title>Penelope</title>
<polygon fill="lightcoral" stroke="lightcoral" points="711.62,-1320 634.62,-1320 634.62,-1243 711.62,-1243 711.62,-1320"/>
<image xlink:href="img/mob.png" width="77px" height="77px" preserveAspectRatio="xMinYMin meet" x="634.625" y="-1320"/>
<text text-anchor="middle" x="673.12" y="-1275.7" font-family="MS Gothic" font-size="14.00">Penelope</text>
</g>
<!-- Penelope&#45;&gt;Whalebone -->
<g id="edge32" class="edge">
<title>Penelope&#45;&gt;Whalebone</title>
<path fill="none" stroke="black" d="M656.74,-1242.61C653.26,-1234.57 649.55,-1225.99 645.94,-1217.63"/>
<polygon fill="black" stroke="black" points="649.22,-1216.4 642.04,-1208.61 642.79,-1219.18 649.22,-1216.4"/>
</g>
<!-- Pot&#45;8&#45;Os -->
<g id="node34" class="node">
<title>Pot&#45;8&#45;Os</title>
<polygon fill="lightblue" stroke="lightblue" points="521.62,-1433 444.62,-1433 444.62,-1356 521.62,-1356 521.62,-1433"/>
<image xlink:href="img/mob.png" width="77px" height="77px" preserveAspectRatio="xMinYMin meet" x="444.625" y="-1433"/>
<text text-anchor="middle" x="483.12" y="-1388.7" font-family="MS Gothic" font-size="14.00">Pot&#45;8&#45;Os</text>
</g>
<!-- Pot&#45;8&#45;Os&#45;&gt;Waxy -->
<g id="edge33" class="edge">
<title>Pot&#45;8&#45;Os&#45;&gt;Waxy</title>
<path fill="none" stroke="black" d="M515.55,-1355.61C522.89,-1347.04 530.76,-1337.84 538.36,-1328.96"/>
<polygon fill="black" stroke="black" points="541.02,-1331.24 544.86,-1321.37 535.7,-1326.69 541.02,-1331.24"/>
</g>
<!-- Maria III -->
<g id="node35" class="node">
<title>Maria III</title>
<polygon fill="lightcoral" stroke="lightcoral" points="616.62,-1433 539.62,-1433 539.62,-1356 616.62,-1356 616.62,-1433"/>
<image xlink:href="img/mob.png" width="77px" height="77px" preserveAspectRatio="xMinYMin meet" x="539.625" y="-1433"/>
<text text-anchor="middle" x="578.12" y="-1388.7" font-family="MS Gothic" font-size="14.00">Maria III</text>
</g>
<!-- Maria III&#45;&gt;Waxy -->
<g id="edge34" class="edge">
<title>Maria III&#45;&gt;Waxy</title>
<path fill="none" stroke="black" d="M578.12,-1355.61C578.12,-1347.84 578.12,-1339.56 578.12,-1331.46"/>
<polygon fill="black" stroke="black" points="581.63,-1331.73 578.13,-1321.73 574.63,-1331.73 581.63,-1331.73"/>
</g>
<!-- Trumpator -->
<g id="node36" class="node">
<title>Trumpator</title>
<polygon fill="lightblue" stroke="lightblue" points="711.62,-1433 634.62,-1433 634.62,-1356 711.62,-1356 711.62,-1433"/>
<image xlink:href="img/mob.png" width="77px" height="77px" preserveAspectRatio="xMinYMin meet" x="634.625" y="-1433"/>
<text text-anchor="middle" x="673.12" y="-1388.7" font-family="MS Gothic" font-size="14.00">Trumpator</text>
</g>
<!-- Trumpator&#45;&gt;Penelope -->
<g id="edge35" class="edge">
<title>Trumpator&#45;&gt;Penelope</title>
<path fill="none" stroke="black" d="M673.12,-1355.61C673.12,-1347.84 673.12,-1339.56 673.12,-1331.46"/>
<polygon fill="black" stroke="black" points="676.63,-1331.73 673.13,-1321.73 669.63,-1331.73 676.63,-1331.73"/>
</g>
<!-- Prunella -->
<g id="node37" class="node">
<title>Prunella</title>
<polygon fill="lightcoral" stroke="lightcoral" points="806.62,-1433 729.62,-1433 729.62,-1356 806.62,-1356 806.62,-1433"/>
<image xlink:href="img/mob.png" width="77px" height="77px" preserveAspectRatio="xMinYMin meet" x="729.625" y="-1433"/>
<text text-anchor="middle" x="768.12" y="-1388.7" font-family="MS Gothic" font-size="14.00">Prunella</text>
</g>
<!-- Prunella&#45;&gt;Penelope -->
<g id="edge36" class="edge">
<title>Prunella&#45;&gt;Penelope</title>
<path fill="none" stroke="black" d="M735.7,-1355.61C728.36,-1347.04 720.49,-1337.84 712.89,-1328.96"/>
<polygon fill="black" stroke="black" points="715.55,-1326.69 706.39,-1321.37 710.23,-1331.24 715.55,-1326.69"/>
</g>
<!-- Eclipse -->
<g id="node38" class="node">
<title>Eclipse</title>
<polygon fill="lightblue" stroke="lightblue" points="465.62,-1546 388.62,-1546 388.62,-1469 465.62,-1469 465.62,-1546"/>
<image xlink:href="img/mob.png" width="77px" height="77px" preserveAspectRatio="xMinYMin meet" x="388.625" y="-1546"/>
<text text-anchor="middle" x="427.12" y="-1501.7" font-family="MS Gothic" font-size="14.00">Eclipse</text>
</g>
<!-- Eclipse&#45;&gt;Pot&#45;8&#45;Os -->
<g id="edge37" class="edge">
<title>Eclipse&#45;&gt;Pot&#45;8&#45;Os</title>
<path fill="none" stroke="black" d="M446.24,-1468.61C450.34,-1460.48 454.72,-1451.8 458.99,-1443.35"/>
<polygon fill="black" stroke="black" points="462.03,-1445.07 463.41,-1434.57 455.78,-1441.92 462.03,-1445.07"/>
</g>
<!-- Sportsmistress -->
<g id="node39" class="node">
<title>Sportsmistress</title>
<polygon fill="lightcoral" stroke="lightcoral" points="594.38,-1546 483.88,-1546 483.88,-1469 594.38,-1469 594.38,-1546"/>
<image xlink:href="img/mob.png" width="100px" height="77px" preserveAspectRatio="xMinYMin meet" x="489.125" y="-1546"/>
<text text-anchor="middle" x="539.12" y="-1501.7" font-family="MS Gothic" font-size="14.00">Sportsmistress</text>
</g>
<!-- Sportsmistress&#45;&gt;Pot&#45;8&#45;Os -->
<g id="edge38" class="edge">
<title>Sportsmistress&#45;&gt;Pot&#45;8&#45;Os</title>
<path fill="none" stroke="black" d="M520.01,-1468.61C515.91,-1460.48 511.53,-1451.8 507.26,-1443.35"/>
<polygon fill="black" stroke="black" points="510.47,-1441.92 502.84,-1434.57 504.22,-1445.07 510.47,-1441.92"/>
</g>
<!-- Marske -->
<g id="node40" class="node">
<title>Marske</title>
<polygon fill="lightblue" stroke="lightblue" points="375.62,-1659 298.62,-1659 298.62,-1582 375.62,-1582 375.62,-1659"/>
<image xlink:href="img/mob.png" width="77px" height="77px" preserveAspectRatio="xMinYMin meet" x="298.625" y="-1659"/>
<text text-anchor="middle" x="337.12" y="-1614.7" font-family="MS Gothic" font-size="14.00">Marske</text>
</g>
<!-- Marske&#45;&gt;Eclipse -->
<g id="edge39" class="edge">
<title>Marske&#45;&gt;Eclipse</title>
<path fill="none" stroke="black" d="M367.85,-1581.61C374.8,-1573.04 382.26,-1563.84 389.46,-1554.96"/>
<polygon fill="black" stroke="black" points="392.01,-1557.37 395.59,-1547.39 386.57,-1552.96 392.01,-1557.37"/>
</g>
<!-- Spilletta -->
<g id="node41" class="node">
<title>Spilletta</title>
<polygon fill="lightcoral" stroke="lightcoral" points="470.62,-1659 393.62,-1659 393.62,-1582 470.62,-1582 470.62,-1659"/>
<image xlink:href="img/mob.png" width="77px" height="77px" preserveAspectRatio="xMinYMin meet" x="393.625" y="-1659"/>
<text text-anchor="middle" x="432.12" y="-1614.7" font-family="MS Gothic" font-size="14.00">Spilletta</text>
</g>
<!-- Spilletta&#45;&gt;Eclipse -->
<g id="edge40" class="edge">
<title>Spilletta&#45;&gt;Eclipse</title>
<path fill="none" stroke="black" d="M430.42,-1581.61C430.07,-1573.84 429.7,-1565.56 429.33,-1557.46"/>
<polygon fill="black" stroke="black" points="432.84,-1557.56 428.89,-1547.73 425.85,-1557.88 432.84,-1557.56"/>
</g>
<!-- Sportsman -->
<g id="node42" class="node">
<title>Sportsman</title>
<polygon fill="lightblue" stroke="lightblue" points="573.62,-1659 496.62,-1659 496.62,-1582 573.62,-1582 573.62,-1659"/>
<image xlink:href="img/mob.png" width="77px" height="77px" preserveAspectRatio="xMinYMin meet" x="496.625" y="-1659"/>
<text text-anchor="middle" x="535.12" y="-1614.7" font-family="MS Gothic" font-size="14.00">Sportsman</text>
</g>
<!-- Sportsman&#45;&gt;Sportsmistress -->
<g id="edge41" class="edge">
<title>Sportsman&#45;&gt;Sportsmistress</title>
<path fill="none" stroke="black" d="M536.49,-1581.61C536.77,-1573.84 537.07,-1565.56 537.36,-1557.46"/>
<polygon fill="black" stroke="black" points="540.85,-1557.85 537.71,-1547.73 533.85,-1557.6 540.85,-1557.85"/>
</g>
<!-- Golden Locks -->
<g id="node43" class="node">
<title>Golden Locks</title>
<polygon fill="lightcoral" stroke="lightcoral" points="688.62,-1659 591.62,-1659 591.62,-1582 688.62,-1582 688.62,-1659"/>
<image xlink:href="img/mob.png" width="97px" height="77px" preserveAspectRatio="xMinYMin meet" x="591.625" y="-1659"/>
<text text-anchor="middle" x="640.12" y="-1614.7" font-family="MS Gothic" font-size="14.00">Golden Locks</text>
</g>
<!-- Golden Locks&#45;&gt;Sportsmistress -->
<g id="edge42" class="edge">
<title>Golden Locks&#45;&gt;Sportsmistress</title>
<path fill="none" stroke="black" d="M605.65,-1581.61C597.77,-1572.95 589.3,-1563.65 581.15,-1554.68"/>
<polygon fill="black" stroke="black" points="583.78,-1552.38 574.46,-1547.34 578.61,-1557.09 583.78,-1552.38"/>
</g>
<!-- Squirt -->
<g id="node44" class="node">
<title>Squirt</title>
<polygon fill="lightblue" stroke="lightblue" points="304.62,-1772 227.62,-1772 227.62,-1695 304.62,-1695 304.62,-1772"/>
<image xlink:href="img/mob.png" width="77px" height="77px" preserveAspectRatio="xMinYMin meet" x="227.625" y="-1772"/>
<text text-anchor="middle" x="266.12" y="-1727.7" font-family="MS Gothic" font-size="14.00">Squirt</text>
</g>
<!-- Squirt&#45;&gt;Marske -->
<g id="edge43" class="edge">
<title>Squirt&#45;&gt;Marske</title>
<path fill="none" stroke="black" d="M290.36,-1694.61C295.67,-1686.31 301.36,-1677.41 306.88,-1668.79"/>
<polygon fill="black" stroke="black" points="309.74,-1670.8 312.18,-1660.49 303.85,-1667.03 309.74,-1670.8"/>
</g>
<!-- Hutton&#39;s Blacklegs Mare -->
<g id="node45" class="node">
<title>Hutton&#39;s Blacklegs Mare</title>
<polygon fill="lightcoral" stroke="lightcoral" points="493.75,-1772 322.5,-1772 322.5,-1695 493.75,-1695 493.75,-1772"/>
<image xlink:href="img/mob.png" width="100px" height="77px" preserveAspectRatio="xMinYMin meet" x="358.125" y="-1772"/>
<text text-anchor="middle" x="408.12" y="-1727.7" font-family="MS Gothic" font-size="14.00">Hutton&#39;s Blacklegs Mare</text>
</g>
<!-- Hutton&#39;s Blacklegs Mare&#45;&gt;Marske -->
<g id="edge44" class="edge">
<title>Hutton&#39;s Blacklegs Mare&#45;&gt;Marske</title>
<path fill="none" stroke="black" d="M383.89,-1694.61C378.58,-1686.31 372.89,-1677.41 367.37,-1668.79"/>
<polygon fill="black" stroke="black" points="370.4,-1667.03 362.07,-1660.49 364.51,-1670.8 370.4,-1667.03"/>
</g>
<!-- Bartlet&#39;s Childers -->
<g id="node46" class="node">
<title>Bartlet&#39;s Childers</title>
<polygon fill="lightblue" stroke="lightblue" points="209.88,-1885 72.38,-1885 72.38,-1808 209.88,-1808 209.88,-1885"/>
<image xlink:href="img/mob.png" width="100px" height="77px" preserveAspectRatio="xMinYMin meet" x="91.125" y="-1885"/>
<text text-anchor="middle" x="141.12" y="-1840.7" font-family="MS Gothic" font-size="14.00">Bartlet&#39;s Childers</text>
</g>
<!-- Bartlet&#39;s Childers&#45;&gt;Squirt -->
<g id="edge45" class="edge">
<title>Bartlet&#39;s Childers&#45;&gt;Squirt</title>
<path fill="none" stroke="black" d="M183.79,-1807.61C195.18,-1797.5 207.54,-1786.53 219.14,-1776.22"/>
<polygon fill="black" stroke="black" points="221.14,-1779.13 226.29,-1769.87 216.49,-1773.89 221.14,-1779.13"/>
</g>
<!-- Snake Mare -->
<g id="node47" class="node">
<title>Snake Mare</title>
<polygon fill="lightcoral" stroke="lightcoral" points="311.88,-1885 228.38,-1885 228.38,-1808 311.88,-1808 311.88,-1885"/>
<image xlink:href="img/mob.png" width="83.5px" height="77px" preserveAspectRatio="xMinYMin meet" x="228.375" y="-1885"/>
<text text-anchor="middle" x="270.12" y="-1840.7" font-family="MS Gothic" font-size="14.00">Snake Mare</text>
</g>
<!-- Snake Mare&#45;&gt;Squirt -->
<g id="edge46" class="edge">
<title>Snake Mare&#45;&gt;Squirt</title>
<path fill="none" stroke="black" d="M268.76,-1807.61C268.48,-1799.84 268.18,-1791.56 267.89,-1783.46"/>
<polygon fill="black" stroke="black" points="271.4,-1783.6 267.54,-1773.73 264.4,-1783.85 271.4,-1783.6"/>
</g>
<!-- Hutton&#39;s Blacklegs -->
<g id="node48" class="node">
<title>Hutton&#39;s Blacklegs</title>
<polygon fill="lightblue" stroke="lightblue" points="473.88,-1885 336.38,-1885 336.38,-1808 473.88,-1808 473.88,-1885"/>
<image xlink:href="img/mob.png" width="100px" height="77px" preserveAspectRatio="xMinYMin meet" x="355.125" y="-1885"/>
<text text-anchor="middle" x="405.12" y="-1840.7" font-family="MS Gothic" font-size="14.00">Hutton&#39;s Blacklegs</text>
</g>
<!-- Hutton&#39;s Blacklegs&#45;&gt;Hutton&#39;s Blacklegs Mare -->
<g id="edge47" class="edge">
<title>Hutton&#39;s Blacklegs&#45;&gt;Hutton&#39;s Blacklegs Mare</title>
<path fill="none" stroke="black" d="M406.15,-1807.61C406.36,-1799.84 406.58,-1791.56 406.8,-1783.46"/>
<polygon fill="black" stroke="black" points="410.29,-1783.82 407.06,-1773.73 403.3,-1783.63 410.29,-1783.82"/>
</g>
<!-- Bay Bolton Mare -->
<g id="node49" class="node">
<title>Bay Bolton Mare</title>
<polygon fill="lightcoral" stroke="lightcoral" points="608.75,-1885 491.5,-1885 491.5,-1808 608.75,-1808 608.75,-1885"/>
<image xlink:href="img/mob.png" width="100px" height="77px" preserveAspectRatio="xMinYMin meet" x="500.125" y="-1885"/>
<text text-anchor="middle" x="550.12" y="-1840.7" font-family="MS Gothic" font-size="14.00">Bay Bolton Mare</text>
</g>
<!-- Bay Bolton Mare&#45;&gt;Hutton&#39;s Blacklegs Mare -->
<g id="edge48" class="edge">
<title>Bay Bolton Mare&#45;&gt;Hutton&#39;s Blacklegs Mare</title>
<path fill="none" stroke="black" d="M501.65,-1807.61C490,-1798.5 477.45,-1788.69 465.43,-1779.3"/>
<polygon fill="black" stroke="black" points="467.6,-1776.55 457.57,-1773.15 463.29,-1782.07 467.6,-1776.55"/>
</g>
<!-- ダーレーアラビアン -->
<g id="node50" class="node">
<title>ダーレーアラビアン</title>
<polygon fill="lightblue" stroke="lightblue" points="144.25,-1998 0,-1998 0,-1921 144.25,-1921 144.25,-1998"/>
<image xlink:href="img/darearabian.png" width="100px" height="77px" preserveAspectRatio="xMinYMin meet" x="22.125" y="-1998"/>
<text text-anchor="middle" x="72.12" y="-1953.7" font-family="MS Gothic" font-size="14.00">ダーレーアラビアン</text>
</g>
<!-- ダーレーアラビアン&#45;&gt;Bartlet&#39;s Childers -->
<g id="edge49" class="edge">
<title>ダーレーアラビアン&#45;&gt;Bartlet&#39;s Childers</title>
<path fill="none" stroke="black" d="M95.68,-1920.61C100.84,-1912.31 106.37,-1903.41 111.73,-1894.79"/>
<polygon fill="black" stroke="black" points="114.57,-1896.84 116.88,-1886.5 108.63,-1893.15 114.57,-1896.84"/>
</g>
<!-- Betty Leedes -->
<g id="node51" class="node">
<title>Betty Leedes</title>
<polygon fill="lightcoral" stroke="lightcoral" points="259.62,-1998 162.62,-1998 162.62,-1921 259.62,-1921 259.62,-1998"/>
<image xlink:href="img/mob.png" width="97px" height="77px" preserveAspectRatio="xMinYMin meet" x="162.625" y="-1998"/>
<text text-anchor="middle" x="211.12" y="-1953.7" font-family="MS Gothic" font-size="14.00">Betty Leedes</text>
</g>
<!-- Betty Leedes&#45;&gt;Bartlet&#39;s Childers -->
<g id="edge50" class="edge">
<title>Betty Leedes&#45;&gt;Bartlet&#39;s Childers</title>
<path fill="none" stroke="black" d="M187.23,-1920.61C181.99,-1912.31 176.39,-1903.41 170.95,-1894.79"/>
<polygon fill="black" stroke="black" points="174.01,-1893.09 165.72,-1886.5 168.09,-1896.82 174.01,-1893.09"/>
</g>
<!-- Old Careless -->
<g id="node52" class="node">
<title>Old Careless</title>
<polygon fill="lightblue" stroke="lightblue" points="201.62,-2111 104.62,-2111 104.62,-2034 201.62,-2034 201.62,-2111"/>
<image xlink:href="img/mob.png" width="97px" height="77px" preserveAspectRatio="xMinYMin meet" x="104.625" y="-2111"/>
<text text-anchor="middle" x="153.12" y="-2066.7" font-family="MS Gothic" font-size="14.00">Old Careless</text>
</g>
<!-- Old Careless&#45;&gt;Betty Leedes -->
<g id="edge51" class="edge">
<title>Old Careless&#45;&gt;Betty Leedes</title>
<path fill="none" stroke="black" d="M172.92,-2033.61C177.17,-2025.48 181.71,-2016.8 186.12,-2008.35"/>
<polygon fill="black" stroke="black" points="189.19,-2010.04 190.72,-1999.56 182.98,-2006.8 189.19,-2010.04"/>
</g>
<!-- Cream Cheeks -->
<g id="node53" class="node">
<title>Cream Cheeks</title>
<polygon fill="lightcoral" stroke="lightcoral" points="316.62,-2111 219.62,-2111 219.62,-2034 316.62,-2034 316.62,-2111"/>
<image xlink:href="img/mob.png" width="97px" height="77px" preserveAspectRatio="xMinYMin meet" x="219.625" y="-2111"/>
<text text-anchor="middle" x="268.12" y="-2066.7" font-family="MS Gothic" font-size="14.00">Cream Cheeks</text>
</g>
<!-- Cream Cheeks&#45;&gt;Betty Leedes -->
<g id="edge52" class="edge">
<title>Cream Cheeks&#45;&gt;Betty Leedes</title>
<path fill="none" stroke="black" d="M248.67,-2033.61C244.5,-2025.48 240.03,-2016.8 235.7,-2008.35"/>
<polygon fill="black" stroke="black" points="238.87,-2006.86 231.19,-1999.57 232.64,-2010.06 238.87,-2006.86"/>
</g>
</g>
</svg>
