<?xml version="1.0" encoding="UTF-8" standalone="no"?>
<!DOCTYPE svg PUBLIC "-//W3C//DTD SVG 1.1//EN"
 "http://www.w3.org/Graphics/SVG/1.1/DTD/svg11.dtd">
<!-- Generated by graphviz version 12.1.2 (20240928.0832)
 -->
<!-- Pages: 1 -->
<svg width="1668pt" height="2119pt"
 viewBox="0.00 0.00 1667.62 2119.00" xmlns="http://www.w3.org/2000/svg" xmlns:xlink="http://www.w3.org/1999/xlink">
<g id="graph0" class="graph" transform="scale(1 1) rotate(0) translate(4 2115)">
<polygon fill="white" stroke="none" points="-4,4 -4,-2115 1663.62,-2115 1663.62,4 -4,4"/>
<!-- Phalaris -->
<g id="node1" class="node">
<title>Phalaris</title>
<polygon fill="none" stroke="black" points="1513.62,-77 1436.62,-77 1436.62,0 1513.62,0 1513.62,-77"/>
<image xlink:href="img/mob.png" width="77px" height="77px" preserveAspectRatio="xMinYMin meet" x="1436.62" y="-77"/>
<text text-anchor="middle" x="1475.12" y="-33.45" font-family="Times New Roman,serif" font-size="14.00">Phalaris</text>
</g>
<!-- Polymelus -->
<g id="node2" class="node">
<title>Polymelus</title>
<polygon fill="lightblue" stroke="lightblue" points="1462.62,-190 1385.62,-190 1385.62,-113 1462.62,-113 1462.62,-190"/>
<image xlink:href="img/mob.png" width="77px" height="77px" preserveAspectRatio="xMinYMin meet" x="1385.62" y="-190"/>
<text text-anchor="middle" x="1424.12" y="-145.7" font-family="MS Gothic" font-size="14.00">Polymelus</text>
</g>
<!-- Polymelus&#45;&gt;Phalaris -->
<g id="edge1" class="edge">
<title>Polymelus&#45;&gt;Phalaris</title>
<path fill="none" stroke="black" d="M1441.53,-112.61C1445.23,-104.57 1449.17,-95.99 1453.01,-87.63"/>
<polygon fill="black" stroke="black" points="1456.17,-89.14 1457.16,-78.59 1449.81,-86.22 1456.17,-89.14"/>
</g>
<!-- Bromus -->
<g id="node3" class="node">
<title>Bromus</title>
<polygon fill="lightcoral" stroke="lightcoral" points="1564.62,-190 1487.62,-190 1487.62,-113 1564.62,-113 1564.62,-190"/>
<image xlink:href="img/mob.png" width="77px" height="77px" preserveAspectRatio="xMinYMin meet" x="1487.62" y="-190"/>
<text text-anchor="middle" x="1526.12" y="-145.7" font-family="MS Gothic" font-size="14.00">Bromus</text>
</g>
<!-- Bromus&#45;&gt;Phalaris -->
<g id="edge2" class="edge">
<title>Bromus&#45;&gt;Phalaris</title>
<path fill="none" stroke="black" d="M1508.72,-112.61C1505.02,-104.57 1501.08,-95.99 1497.24,-87.63"/>
<polygon fill="black" stroke="black" points="1500.44,-86.22 1493.09,-78.59 1494.08,-89.14 1500.44,-86.22"/>
</g>
<!-- Cyllene -->
<g id="node4" class="node">
<title>Cyllene</title>
<polygon fill="lightblue" stroke="lightblue" points="1360.62,-303 1283.62,-303 1283.62,-226 1360.62,-226 1360.62,-303"/>
<image xlink:href="img/mob.png" width="77px" height="77px" preserveAspectRatio="xMinYMin meet" x="1283.62" y="-303"/>
<text text-anchor="middle" x="1322.12" y="-258.7" font-family="MS Gothic" font-size="14.00">Cyllene</text>
</g>
<!-- Cyllene&#45;&gt;Polymelus -->
<g id="edge3" class="edge">
<title>Cyllene&#45;&gt;Polymelus</title>
<path fill="none" stroke="black" d="M1356.94,-225.61C1364.9,-216.95 1373.45,-207.65 1381.69,-198.68"/>
<polygon fill="black" stroke="black" points="1384.25,-201.06 1388.44,-191.33 1379.1,-196.33 1384.25,-201.06"/>
</g>
<!-- Maid Marian -->
<g id="node5" class="node">
<title>Maid Marian</title>
<polygon fill="lightcoral" stroke="lightcoral" points="1469.25,-303 1379,-303 1379,-226 1469.25,-226 1469.25,-303"/>
<image xlink:href="img/mob.png" width="90.25px" height="77px" preserveAspectRatio="xMinYMin meet" x="1379" y="-303"/>
<text text-anchor="middle" x="1424.12" y="-258.7" font-family="MS Gothic" font-size="14.00">Maid Marian</text>
</g>
<!-- Maid Marian&#45;&gt;Polymelus -->
<g id="edge4" class="edge">
<title>Maid Marian&#45;&gt;Polymelus</title>
<path fill="none" stroke="black" d="M1424.12,-225.61C1424.12,-217.84 1424.12,-209.56 1424.12,-201.46"/>
<polygon fill="black" stroke="black" points="1427.63,-201.73 1424.13,-191.73 1420.63,-201.73 1427.63,-201.73"/>
</g>
<!-- Sainfoin -->
<g id="node6" class="node">
<title>Sainfoin</title>
<polygon fill="lightblue" stroke="lightblue" points="1564.62,-303 1487.62,-303 1487.62,-226 1564.62,-226 1564.62,-303"/>
<image xlink:href="img/mob.png" width="77px" height="77px" preserveAspectRatio="xMinYMin meet" x="1487.62" y="-303"/>
<text text-anchor="middle" x="1526.12" y="-258.7" font-family="MS Gothic" font-size="14.00">Sainfoin</text>
</g>
<!-- Sainfoin&#45;&gt;Bromus -->
<g id="edge5" class="edge">
<title>Sainfoin&#45;&gt;Bromus</title>
<path fill="none" stroke="black" d="M1526.12,-225.61C1526.12,-217.84 1526.12,-209.56 1526.12,-201.46"/>
<polygon fill="black" stroke="black" points="1529.63,-201.73 1526.13,-191.73 1522.63,-201.73 1529.63,-201.73"/>
</g>
<!-- Cheery -->
<g id="node7" class="node">
<title>Cheery</title>
<polygon fill="lightcoral" stroke="lightcoral" points="1659.62,-303 1582.62,-303 1582.62,-226 1659.62,-226 1659.62,-303"/>
<image xlink:href="img/mob.png" width="77px" height="77px" preserveAspectRatio="xMinYMin meet" x="1582.62" y="-303"/>
<text text-anchor="middle" x="1621.12" y="-258.7" font-family="MS Gothic" font-size="14.00">Cheery</text>
</g>
<!-- Cheery&#45;&gt;Bromus -->
<g id="edge6" class="edge">
<title>Cheery&#45;&gt;Bromus</title>
<path fill="none" stroke="black" d="M1588.7,-225.61C1581.36,-217.04 1573.49,-207.84 1565.89,-198.96"/>
<polygon fill="black" stroke="black" points="1568.55,-196.69 1559.39,-191.37 1563.23,-201.24 1568.55,-196.69"/>
</g>
<!-- Bona Vista -->
<g id="node8" class="node">
<title>Bona Vista</title>
<polygon fill="lightblue" stroke="lightblue" points="1314.88,-416 1231.38,-416 1231.38,-339 1314.88,-339 1314.88,-416"/>
<image xlink:href="img/mob.png" width="83.5px" height="77px" preserveAspectRatio="xMinYMin meet" x="1231.38" y="-416"/>
<text text-anchor="middle" x="1273.12" y="-371.7" font-family="MS Gothic" font-size="14.00">Bona Vista</text>
</g>
<!-- Bona Vista&#45;&gt;Cyllene -->
<g id="edge7" class="edge">
<title>Bona Vista&#45;&gt;Cyllene</title>
<path fill="none" stroke="black" d="M1289.85,-338.61C1293.4,-330.57 1297.19,-321.99 1300.88,-313.63"/>
<polygon fill="black" stroke="black" points="1304.03,-315.17 1304.86,-304.6 1297.62,-312.34 1304.03,-315.17"/>
</g>
<!-- Arcadia -->
<g id="node9" class="node">
<title>Arcadia</title>
<polygon fill="lightcoral" stroke="lightcoral" points="1409.62,-416 1332.62,-416 1332.62,-339 1409.62,-339 1409.62,-416"/>
<image xlink:href="img/mob.png" width="77px" height="77px" preserveAspectRatio="xMinYMin meet" x="1332.62" y="-416"/>
<text text-anchor="middle" x="1371.12" y="-371.7" font-family="MS Gothic" font-size="14.00">Arcadia</text>
</g>
<!-- Arcadia&#45;&gt;Cyllene -->
<g id="edge8" class="edge">
<title>Arcadia&#45;&gt;Cyllene</title>
<path fill="none" stroke="black" d="M1354.4,-338.61C1350.85,-330.57 1347.06,-321.99 1343.37,-313.63"/>
<polygon fill="black" stroke="black" points="1346.63,-312.34 1339.39,-304.6 1340.22,-315.17 1346.63,-312.34"/>
</g>
<!-- Bend Or -->
<g id="node10" class="node">
<title>Bend Or</title>
<polygon fill="lightblue" stroke="lightblue" points="1217.62,-529 1140.62,-529 1140.62,-452 1217.62,-452 1217.62,-529"/>
<image xlink:href="img/mob.png" width="77px" height="77px" preserveAspectRatio="xMinYMin meet" x="1140.62" y="-529"/>
<text text-anchor="middle" x="1179.12" y="-484.7" font-family="MS Gothic" font-size="14.00">Bend Or</text>
</g>
<!-- Bend Or&#45;&gt;Bona Vista -->
<g id="edge9" class="edge">
<title>Bend Or&#45;&gt;Bona Vista</title>
<path fill="none" stroke="black" d="M1211.21,-451.61C1218.47,-443.04 1226.26,-433.84 1233.78,-424.96"/>
<polygon fill="black" stroke="black" points="1236.41,-427.27 1240.2,-417.37 1231.07,-422.74 1236.41,-427.27"/>
</g>
<!-- Vista -->
<g id="node11" class="node">
<title>Vista</title>
<polygon fill="lightcoral" stroke="lightcoral" points="1312.62,-529 1235.62,-529 1235.62,-452 1312.62,-452 1312.62,-529"/>
<image xlink:href="img/mob.png" width="77px" height="77px" preserveAspectRatio="xMinYMin meet" x="1235.62" y="-529"/>
<text text-anchor="middle" x="1274.12" y="-484.7" font-family="MS Gothic" font-size="14.00">Vista</text>
</g>
<!-- Vista&#45;&gt;Bona Vista -->
<g id="edge10" class="edge">
<title>Vista&#45;&gt;Bona Vista</title>
<path fill="none" stroke="black" d="M1273.78,-451.61C1273.71,-443.84 1273.64,-435.56 1273.57,-427.46"/>
<polygon fill="black" stroke="black" points="1277.07,-427.7 1273.48,-417.73 1270.07,-427.76 1277.07,-427.7"/>
</g>
<!-- Isonomy -->
<g id="node12" class="node">
<title>Isonomy</title>
<polygon fill="lightblue" stroke="lightblue" points="1408.62,-529 1331.62,-529 1331.62,-452 1408.62,-452 1408.62,-529"/>
<image xlink:href="img/mob.png" width="77px" height="77px" preserveAspectRatio="xMinYMin meet" x="1331.62" y="-529"/>
<text text-anchor="middle" x="1370.12" y="-484.7" font-family="MS Gothic" font-size="14.00">Isonomy</text>
</g>
<!-- Isonomy&#45;&gt;Arcadia -->
<g id="edge11" class="edge">
<title>Isonomy&#45;&gt;Arcadia</title>
<path fill="none" stroke="black" d="M1370.47,-451.61C1370.54,-443.84 1370.61,-435.56 1370.68,-427.46"/>
<polygon fill="black" stroke="black" points="1374.18,-427.76 1370.77,-417.73 1367.18,-427.7 1374.18,-427.76"/>
</g>
<!-- Distant Shore -->
<g id="node13" class="node">
<title>Distant Shore</title>
<polygon fill="lightcoral" stroke="lightcoral" points="1530,-529 1426.25,-529 1426.25,-452 1530,-452 1530,-529"/>
<image xlink:href="img/mob.png" width="100px" height="77px" preserveAspectRatio="xMinYMin meet" x="1428.12" y="-529"/>
<text text-anchor="middle" x="1478.12" y="-484.7" font-family="MS Gothic" font-size="14.00">Distant Shore</text>
</g>
<!-- Distant Shore&#45;&gt;Arcadia -->
<g id="edge12" class="edge">
<title>Distant Shore&#45;&gt;Arcadia</title>
<path fill="none" stroke="black" d="M1441.6,-451.61C1433.16,-442.86 1424.1,-433.46 1415.37,-424.4"/>
<polygon fill="black" stroke="black" points="1417.99,-422.08 1408.53,-417.31 1412.96,-426.94 1417.99,-422.08"/>
</g>
<!-- Doncaster -->
<g id="node14" class="node">
<title>Doncaster</title>
<polygon fill="lightblue" stroke="lightblue" points="1168.62,-642 1091.62,-642 1091.62,-565 1168.62,-565 1168.62,-642"/>
<image xlink:href="img/mob.png" width="77px" height="77px" preserveAspectRatio="xMinYMin meet" x="1091.62" y="-642"/>
<text text-anchor="middle" x="1130.12" y="-597.7" font-family="MS Gothic" font-size="14.00">Doncaster</text>
</g>
<!-- Doncaster&#45;&gt;Bend Or -->
<g id="edge13" class="edge">
<title>Doncaster&#45;&gt;Bend Or</title>
<path fill="none" stroke="black" d="M1146.85,-564.61C1150.4,-556.57 1154.19,-547.99 1157.88,-539.63"/>
<polygon fill="black" stroke="black" points="1161.03,-541.17 1161.86,-530.6 1154.62,-538.34 1161.03,-541.17"/>
</g>
<!-- Rouge Rose -->
<g id="node15" class="node">
<title>Rouge Rose</title>
<polygon fill="lightcoral" stroke="lightcoral" points="1269.88,-642 1186.38,-642 1186.38,-565 1269.88,-565 1269.88,-642"/>
<image xlink:href="img/mob.png" width="83.5px" height="77px" preserveAspectRatio="xMinYMin meet" x="1186.38" y="-642"/>
<text text-anchor="middle" x="1228.12" y="-597.7" font-family="MS Gothic" font-size="14.00">Rouge Rose</text>
</g>
<!-- Rouge Rose&#45;&gt;Bend Or -->
<g id="edge14" class="edge">
<title>Rouge Rose&#45;&gt;Bend Or</title>
<path fill="none" stroke="black" d="M1211.4,-564.61C1207.85,-556.57 1204.06,-547.99 1200.37,-539.63"/>
<polygon fill="black" stroke="black" points="1203.63,-538.34 1196.39,-530.6 1197.22,-541.17 1203.63,-538.34"/>
</g>
<!-- Stockwell -->
<g id="node16" class="node">
<title>Stockwell</title>
<polygon fill="lightblue" stroke="lightblue" points="1074.62,-755 997.62,-755 997.62,-678 1074.62,-678 1074.62,-755"/>
<image xlink:href="img/mob.png" width="77px" height="77px" preserveAspectRatio="xMinYMin meet" x="997.625" y="-755"/>
<text text-anchor="middle" x="1036.12" y="-710.7" font-family="MS Gothic" font-size="14.00">Stockwell</text>
</g>
<!-- Stockwell&#45;&gt;Doncaster -->
<g id="edge15" class="edge">
<title>Stockwell&#45;&gt;Doncaster</title>
<path fill="none" stroke="black" d="M1068.21,-677.61C1075.47,-669.04 1083.26,-659.84 1090.78,-650.96"/>
<polygon fill="black" stroke="black" points="1093.41,-653.27 1097.2,-643.37 1088.07,-648.74 1093.41,-653.27"/>
</g>
<!-- Marigold -->
<g id="node17" class="node">
<title>Marigold</title>
<polygon fill="lightcoral" stroke="lightcoral" points="1169.62,-755 1092.62,-755 1092.62,-678 1169.62,-678 1169.62,-755"/>
<image xlink:href="img/mob.png" width="77px" height="77px" preserveAspectRatio="xMinYMin meet" x="1092.62" y="-755"/>
<text text-anchor="middle" x="1131.12" y="-710.7" font-family="MS Gothic" font-size="14.00">Marigold</text>
</g>
<!-- Marigold&#45;&gt;Doncaster -->
<g id="edge16" class="edge">
<title>Marigold&#45;&gt;Doncaster</title>
<path fill="none" stroke="black" d="M1130.78,-677.61C1130.71,-669.84 1130.64,-661.56 1130.57,-653.46"/>
<polygon fill="black" stroke="black" points="1134.07,-653.7 1130.48,-643.73 1127.07,-653.76 1134.07,-653.7"/>
</g>
<!-- Thormanby -->
<g id="node18" class="node">
<title>Thormanby</title>
<polygon fill="lightblue" stroke="lightblue" points="1265.62,-755 1188.62,-755 1188.62,-678 1265.62,-678 1265.62,-755"/>
<image xlink:href="img/mob.png" width="77px" height="77px" preserveAspectRatio="xMinYMin meet" x="1188.62" y="-755"/>
<text text-anchor="middle" x="1227.12" y="-710.7" font-family="MS Gothic" font-size="14.00">Thormanby</text>
</g>
<!-- Thormanby&#45;&gt;Rouge Rose -->
<g id="edge17" class="edge">
<title>Thormanby&#45;&gt;Rouge Rose</title>
<path fill="none" stroke="black" d="M1227.47,-677.61C1227.54,-669.84 1227.61,-661.56 1227.68,-653.46"/>
<polygon fill="black" stroke="black" points="1231.18,-653.76 1227.77,-643.73 1224.18,-653.7 1231.18,-653.76"/>
</g>
<!-- Ellen Horne -->
<g id="node19" class="node">
<title>Ellen Horne</title>
<polygon fill="lightcoral" stroke="lightcoral" points="1374.25,-755 1284,-755 1284,-678 1374.25,-678 1374.25,-755"/>
<image xlink:href="img/mob.png" width="90.25px" height="77px" preserveAspectRatio="xMinYMin meet" x="1284" y="-755"/>
<text text-anchor="middle" x="1329.12" y="-710.7" font-family="MS Gothic" font-size="14.00">Ellen Horne</text>
</g>
<!-- Ellen Horne&#45;&gt;Rouge Rose -->
<g id="edge18" class="edge">
<title>Ellen Horne&#45;&gt;Rouge Rose</title>
<path fill="none" stroke="black" d="M1294.65,-677.61C1286.77,-668.95 1278.3,-659.65 1270.15,-650.68"/>
<polygon fill="black" stroke="black" points="1272.78,-648.38 1263.46,-643.34 1267.61,-653.09 1272.78,-648.38"/>
</g>
<!-- The Baron -->
<g id="node20" class="node">
<title>The Baron</title>
<polygon fill="lightblue" stroke="lightblue" points="1025.62,-868 948.62,-868 948.62,-791 1025.62,-791 1025.62,-868"/>
<image xlink:href="img/mob.png" width="77px" height="77px" preserveAspectRatio="xMinYMin meet" x="948.625" y="-868"/>
<text text-anchor="middle" x="987.12" y="-823.7" font-family="MS Gothic" font-size="14.00">The Baron</text>
</g>
<!-- The Baron&#45;&gt;Stockwell -->
<g id="edge19" class="edge">
<title>The Baron&#45;&gt;Stockwell</title>
<path fill="none" stroke="black" d="M1003.85,-790.61C1007.4,-782.57 1011.19,-773.99 1014.88,-765.63"/>
<polygon fill="black" stroke="black" points="1018.03,-767.17 1018.86,-756.6 1011.62,-764.34 1018.03,-767.17"/>
</g>
<!-- Pocahontas -->
<g id="node21" class="node">
<title>Pocahontas</title>
<polygon fill="lightcoral" stroke="lightcoral" points="1126.88,-868 1043.38,-868 1043.38,-791 1126.88,-791 1126.88,-868"/>
<image xlink:href="img/mob.png" width="83.5px" height="77px" preserveAspectRatio="xMinYMin meet" x="1043.38" y="-868"/>
<text text-anchor="middle" x="1085.12" y="-823.7" font-family="MS Gothic" font-size="14.00">Pocahontas</text>
</g>
<!-- Pocahontas&#45;&gt;Stockwell -->
<g id="edge20" class="edge">
<title>Pocahontas&#45;&gt;Stockwell</title>
<path fill="none" stroke="black" d="M1068.4,-790.61C1064.85,-782.57 1061.06,-773.99 1057.37,-765.63"/>
<polygon fill="black" stroke="black" points="1060.63,-764.34 1053.39,-756.6 1054.22,-767.17 1060.63,-764.34"/>
</g>
<!-- Birdcatcher -->
<g id="node22" class="node">
<title>Birdcatcher</title>
<polygon fill="lightblue" stroke="lightblue" points="931.25,-981 841,-981 841,-904 931.25,-904 931.25,-981"/>
<image xlink:href="img/mob.png" width="90.25px" height="77px" preserveAspectRatio="xMinYMin meet" x="841" y="-981"/>
<text text-anchor="middle" x="886.12" y="-936.7" font-family="MS Gothic" font-size="14.00">Birdcatcher</text>
</g>
<!-- Birdcatcher&#45;&gt;The Baron -->
<g id="edge21" class="edge">
<title>Birdcatcher&#45;&gt;The Baron</title>
<path fill="none" stroke="black" d="M920.6,-903.61C928.48,-894.95 936.95,-885.65 945.1,-876.68"/>
<polygon fill="black" stroke="black" points="947.64,-879.09 951.79,-869.34 942.47,-874.38 947.64,-879.09"/>
</g>
<!-- Echidna -->
<g id="node23" class="node">
<title>Echidna</title>
<polygon fill="lightcoral" stroke="lightcoral" points="1026.62,-981 949.62,-981 949.62,-904 1026.62,-904 1026.62,-981"/>
<image xlink:href="img/mob.png" width="77px" height="77px" preserveAspectRatio="xMinYMin meet" x="949.625" y="-981"/>
<text text-anchor="middle" x="988.12" y="-936.7" font-family="MS Gothic" font-size="14.00">Echidna</text>
</g>
<!-- Echidna&#45;&gt;The Baron -->
<g id="edge22" class="edge">
<title>Echidna&#45;&gt;The Baron</title>
<path fill="none" stroke="black" d="M987.78,-903.61C987.71,-895.84 987.64,-887.56 987.57,-879.46"/>
<polygon fill="black" stroke="black" points="991.07,-879.7 987.48,-869.73 984.07,-879.76 991.07,-879.7"/>
</g>
<!-- Glencoe -->
<g id="node24" class="node">
<title>Glencoe</title>
<polygon fill="lightblue" stroke="lightblue" points="1122.62,-981 1045.62,-981 1045.62,-904 1122.62,-904 1122.62,-981"/>
<image xlink:href="img/mob.png" width="77px" height="77px" preserveAspectRatio="xMinYMin meet" x="1045.62" y="-981"/>
<text text-anchor="middle" x="1084.12" y="-936.7" font-family="MS Gothic" font-size="14.00">Glencoe</text>
</g>
<!-- Glencoe&#45;&gt;Pocahontas -->
<g id="edge23" class="edge">
<title>Glencoe&#45;&gt;Pocahontas</title>
<path fill="none" stroke="black" d="M1084.47,-903.61C1084.54,-895.84 1084.61,-887.56 1084.68,-879.46"/>
<polygon fill="black" stroke="black" points="1088.18,-879.76 1084.77,-869.73 1081.18,-879.7 1088.18,-879.76"/>
</g>
<!-- Marpessa -->
<g id="node25" class="node">
<title>Marpessa</title>
<polygon fill="lightcoral" stroke="lightcoral" points="1217.62,-981 1140.62,-981 1140.62,-904 1217.62,-904 1217.62,-981"/>
<image xlink:href="img/mob.png" width="77px" height="77px" preserveAspectRatio="xMinYMin meet" x="1140.62" y="-981"/>
<text text-anchor="middle" x="1179.12" y="-936.7" font-family="MS Gothic" font-size="14.00">Marpessa</text>
</g>
<!-- Marpessa&#45;&gt;Pocahontas -->
<g id="edge24" class="edge">
<title>Marpessa&#45;&gt;Pocahontas</title>
<path fill="none" stroke="black" d="M1147.04,-903.61C1139.78,-895.04 1131.99,-885.84 1124.47,-876.96"/>
<polygon fill="black" stroke="black" points="1127.18,-874.74 1118.05,-869.37 1121.84,-879.27 1127.18,-874.74"/>
</g>
<!-- Sir Hercules -->
<g id="node26" class="node">
<title>Sir Hercules</title>
<polygon fill="lightblue" stroke="lightblue" points="882.62,-1094 785.62,-1094 785.62,-1017 882.62,-1017 882.62,-1094"/>
<image xlink:href="img/mob.png" width="97px" height="77px" preserveAspectRatio="xMinYMin meet" x="785.625" y="-1094"/>
<text text-anchor="middle" x="834.12" y="-1049.7" font-family="MS Gothic" font-size="14.00">Sir Hercules</text>
</g>
<!-- Sir Hercules&#45;&gt;Birdcatcher -->
<g id="edge25" class="edge">
<title>Sir Hercules&#45;&gt;Birdcatcher</title>
<path fill="none" stroke="black" d="M851.88,-1016.61C855.64,-1008.57 859.66,-999.99 863.58,-991.63"/>
<polygon fill="black" stroke="black" points="866.74,-993.13 867.81,-982.59 860.4,-990.16 866.74,-993.13"/>
</g>
<!-- Guiccioli -->
<g id="node27" class="node">
<title>Guiccioli</title>
<polygon fill="lightcoral" stroke="lightcoral" points="977.62,-1094 900.62,-1094 900.62,-1017 977.62,-1017 977.62,-1094"/>
<image xlink:href="img/mob.png" width="77px" height="77px" preserveAspectRatio="xMinYMin meet" x="900.625" y="-1094"/>
<text text-anchor="middle" x="939.12" y="-1049.7" font-family="MS Gothic" font-size="14.00">Guiccioli</text>
</g>
<!-- Guiccioli&#45;&gt;Birdcatcher -->
<g id="edge26" class="edge">
<title>Guiccioli&#45;&gt;Birdcatcher</title>
<path fill="none" stroke="black" d="M921.03,-1016.61C917.15,-1008.48 913.01,-999.8 908.97,-991.35"/>
<polygon fill="black" stroke="black" points="912.25,-990.1 904.79,-982.58 905.94,-993.12 912.25,-990.1"/>
</g>
<!-- Whalebone -->
<g id="node28" class="node">
<title>Whalebone</title>
<polygon fill="lightblue" stroke="lightblue" points="780.62,-1207 703.62,-1207 703.62,-1130 780.62,-1130 780.62,-1207"/>
<image xlink:href="img/mob.png" width="77px" height="77px" preserveAspectRatio="xMinYMin meet" x="703.625" y="-1207"/>
<text text-anchor="middle" x="742.12" y="-1162.7" font-family="MS Gothic" font-size="14.00">Whalebone</text>
</g>
<!-- Whalebone&#45;&gt;Sir Hercules -->
<g id="edge27" class="edge">
<title>Whalebone&#45;&gt;Sir Hercules</title>
<path fill="none" stroke="black" d="M773.53,-1129.61C780.63,-1121.04 788.26,-1111.84 795.62,-1102.96"/>
<polygon fill="black" stroke="black" points="798.21,-1105.32 801.9,-1095.38 792.82,-1100.85 798.21,-1105.32"/>
</g>
<!-- Peri -->
<g id="node29" class="node">
<title>Peri</title>
<polygon fill="lightcoral" stroke="lightcoral" points="875.62,-1207 798.62,-1207 798.62,-1130 875.62,-1130 875.62,-1207"/>
<image xlink:href="img/mob.png" width="77px" height="77px" preserveAspectRatio="xMinYMin meet" x="798.625" y="-1207"/>
<text text-anchor="middle" x="837.12" y="-1162.7" font-family="MS Gothic" font-size="14.00">Peri</text>
</g>
<!-- Peri&#45;&gt;Sir Hercules -->
<g id="edge28" class="edge">
<title>Peri&#45;&gt;Sir Hercules</title>
<path fill="none" stroke="black" d="M836.1,-1129.61C835.89,-1121.84 835.67,-1113.56 835.45,-1105.46"/>
<polygon fill="black" stroke="black" points="838.95,-1105.63 835.19,-1095.73 831.96,-1105.82 838.95,-1105.63"/>
</g>
<!-- Bob Booty -->
<g id="node30" class="node">
<title>Bob Booty</title>
<polygon fill="lightblue" stroke="lightblue" points="975.62,-1207 898.62,-1207 898.62,-1130 975.62,-1130 975.62,-1207"/>
<image xlink:href="img/mob.png" width="77px" height="77px" preserveAspectRatio="xMinYMin meet" x="898.625" y="-1207"/>
<text text-anchor="middle" x="937.12" y="-1162.7" font-family="MS Gothic" font-size="14.00">Bob Booty</text>
</g>
<!-- Bob Booty&#45;&gt;Guiccioli -->
<g id="edge29" class="edge">
<title>Bob Booty&#45;&gt;Guiccioli</title>
<path fill="none" stroke="black" d="M937.81,-1129.61C937.95,-1121.84 938.1,-1113.56 938.24,-1105.46"/>
<polygon fill="black" stroke="black" points="941.74,-1105.79 938.42,-1095.73 934.74,-1105.67 941.74,-1105.79"/>
</g>
<!-- Flight -->
<g id="node31" class="node">
<title>Flight</title>
<polygon fill="lightcoral" stroke="lightcoral" points="1070.62,-1207 993.62,-1207 993.62,-1130 1070.62,-1130 1070.62,-1207"/>
<image xlink:href="img/mob.png" width="77px" height="77px" preserveAspectRatio="xMinYMin meet" x="993.625" y="-1207"/>
<text text-anchor="middle" x="1032.12" y="-1162.7" font-family="MS Gothic" font-size="14.00">Flight</text>
</g>
<!-- Flight&#45;&gt;Guiccioli -->
<g id="edge30" class="edge">
<title>Flight&#45;&gt;Guiccioli</title>
<path fill="none" stroke="black" d="M1000.38,-1129.61C993.2,-1121.04 985.49,-1111.84 978.05,-1102.96"/>
<polygon fill="black" stroke="black" points="980.8,-1100.8 971.7,-1095.38 975.44,-1105.29 980.8,-1100.8"/>
</g>
<!-- Waxy -->
<g id="node32" class="node">
<title>Waxy</title>
<polygon fill="lightblue" stroke="lightblue" points="733.62,-1320 656.62,-1320 656.62,-1243 733.62,-1243 733.62,-1320"/>
<image xlink:href="img/mob.png" width="77px" height="77px" preserveAspectRatio="xMinYMin meet" x="656.625" y="-1320"/>
<text text-anchor="middle" x="695.12" y="-1275.7" font-family="MS Gothic" font-size="14.00">Waxy</text>
</g>
<!-- Waxy&#45;&gt;Whalebone -->
<g id="edge31" class="edge">
<title>Waxy&#45;&gt;Whalebone</title>
<path fill="none" stroke="black" d="M711.17,-1242.61C714.57,-1234.57 718.21,-1225.99 721.75,-1217.63"/>
<polygon fill="black" stroke="black" points="724.89,-1219.19 725.56,-1208.61 718.44,-1216.46 724.89,-1219.19"/>
</g>
<!-- Penelope -->
<g id="node33" class="node">
<title>Penelope</title>
<polygon fill="lightcoral" stroke="lightcoral" points="828.62,-1320 751.62,-1320 751.62,-1243 828.62,-1243 828.62,-1320"/>
<image xlink:href="img/mob.png" width="77px" height="77px" preserveAspectRatio="xMinYMin meet" x="751.625" y="-1320"/>
<text text-anchor="middle" x="790.12" y="-1275.7" font-family="MS Gothic" font-size="14.00">Penelope</text>
</g>
<!-- Penelope&#45;&gt;Whalebone -->
<g id="edge32" class="edge">
<title>Penelope&#45;&gt;Whalebone</title>
<path fill="none" stroke="black" d="M773.74,-1242.61C770.26,-1234.57 766.55,-1225.99 762.94,-1217.63"/>
<polygon fill="black" stroke="black" points="766.22,-1216.4 759.04,-1208.61 759.79,-1219.18 766.22,-1216.4"/>
</g>
<!-- Pot&#45;8&#45;Os -->
<g id="node34" class="node">
<title>Pot&#45;8&#45;Os</title>
<polygon fill="lightblue" stroke="lightblue" points="638.62,-1433 561.62,-1433 561.62,-1356 638.62,-1356 638.62,-1433"/>
<image xlink:href="img/mob.png" width="77px" height="77px" preserveAspectRatio="xMinYMin meet" x="561.625" y="-1433"/>
<text text-anchor="middle" x="600.12" y="-1388.7" font-family="MS Gothic" font-size="14.00">Pot&#45;8&#45;Os</text>
</g>
<!-- Pot&#45;8&#45;Os&#45;&gt;Waxy -->
<g id="edge33" class="edge">
<title>Pot&#45;8&#45;Os&#45;&gt;Waxy</title>
<path fill="none" stroke="black" d="M632.55,-1355.61C639.89,-1347.04 647.76,-1337.84 655.36,-1328.96"/>
<polygon fill="black" stroke="black" points="658.02,-1331.24 661.86,-1321.37 652.7,-1326.69 658.02,-1331.24"/>
</g>
<!-- Maria III -->
<g id="node35" class="node">
<title>Maria III</title>
<polygon fill="lightcoral" stroke="lightcoral" points="733.62,-1433 656.62,-1433 656.62,-1356 733.62,-1356 733.62,-1433"/>
<image xlink:href="img/mob.png" width="77px" height="77px" preserveAspectRatio="xMinYMin meet" x="656.625" y="-1433"/>
<text text-anchor="middle" x="695.12" y="-1388.7" font-family="MS Gothic" font-size="14.00">Maria III</text>
</g>
<!-- Maria III&#45;&gt;Waxy -->
<g id="edge34" class="edge">
<title>Maria III&#45;&gt;Waxy</title>
<path fill="none" stroke="black" d="M695.12,-1355.61C695.12,-1347.84 695.12,-1339.56 695.12,-1331.46"/>
<polygon fill="black" stroke="black" points="698.63,-1331.73 695.13,-1321.73 691.63,-1331.73 698.63,-1331.73"/>
</g>
<!-- Trumpator -->
<g id="node36" class="node">
<title>Trumpator</title>
<polygon fill="lightblue" stroke="lightblue" points="828.62,-1433 751.62,-1433 751.62,-1356 828.62,-1356 828.62,-1433"/>
<image xlink:href="img/mob.png" width="77px" height="77px" preserveAspectRatio="xMinYMin meet" x="751.625" y="-1433"/>
<text text-anchor="middle" x="790.12" y="-1388.7" font-family="MS Gothic" font-size="14.00">Trumpator</text>
</g>
<!-- Trumpator&#45;&gt;Penelope -->
<g id="edge35" class="edge">
<title>Trumpator&#45;&gt;Penelope</title>
<path fill="none" stroke="black" d="M790.12,-1355.61C790.12,-1347.84 790.12,-1339.56 790.12,-1331.46"/>
<polygon fill="black" stroke="black" points="793.63,-1331.73 790.13,-1321.73 786.63,-1331.73 793.63,-1331.73"/>
</g>
<!-- Prunella -->
<g id="node37" class="node">
<title>Prunella</title>
<polygon fill="lightcoral" stroke="lightcoral" points="923.62,-1433 846.62,-1433 846.62,-1356 923.62,-1356 923.62,-1433"/>
<image xlink:href="img/mob.png" width="77px" height="77px" preserveAspectRatio="xMinYMin meet" x="846.625" y="-1433"/>
<text text-anchor="middle" x="885.12" y="-1388.7" font-family="MS Gothic" font-size="14.00">Prunella</text>
</g>
<!-- Prunella&#45;&gt;Penelope -->
<g id="edge36" class="edge">
<title>Prunella&#45;&gt;Penelope</title>
<path fill="none" stroke="black" d="M852.7,-1355.61C845.36,-1347.04 837.49,-1337.84 829.89,-1328.96"/>
<polygon fill="black" stroke="black" points="832.55,-1326.69 823.39,-1321.37 827.23,-1331.24 832.55,-1326.69"/>
</g>
<!-- Eclipse -->
<g id="node38" class="node">
<title>Eclipse</title>
<polygon fill="lightblue" stroke="lightblue" points="582.62,-1546 505.62,-1546 505.62,-1469 582.62,-1469 582.62,-1546"/>
<image xlink:href="img/mob.png" width="77px" height="77px" preserveAspectRatio="xMinYMin meet" x="505.625" y="-1546"/>
<text text-anchor="middle" x="544.12" y="-1501.7" font-family="MS Gothic" font-size="14.00">Eclipse</text>
</g>
<!-- Eclipse&#45;&gt;Pot&#45;8&#45;Os -->
<g id="edge37" class="edge">
<title>Eclipse&#45;&gt;Pot&#45;8&#45;Os</title>
<path fill="none" stroke="black" d="M563.24,-1468.61C567.34,-1460.48 571.72,-1451.8 575.99,-1443.35"/>
<polygon fill="black" stroke="black" points="579.03,-1445.07 580.41,-1434.57 572.78,-1441.92 579.03,-1445.07"/>
</g>
<!-- Sportsmistress -->
<g id="node39" class="node">
<title>Sportsmistress</title>
<polygon fill="lightcoral" stroke="lightcoral" points="711.38,-1546 600.88,-1546 600.88,-1469 711.38,-1469 711.38,-1546"/>
<image xlink:href="img/mob.png" width="100px" height="77px" preserveAspectRatio="xMinYMin meet" x="606.125" y="-1546"/>
<text text-anchor="middle" x="656.12" y="-1501.7" font-family="MS Gothic" font-size="14.00">Sportsmistress</text>
</g>
<!-- Sportsmistress&#45;&gt;Pot&#45;8&#45;Os -->
<g id="edge38" class="edge">
<title>Sportsmistress&#45;&gt;Pot&#45;8&#45;Os</title>
<path fill="none" stroke="black" d="M637.01,-1468.61C632.91,-1460.48 628.53,-1451.8 624.26,-1443.35"/>
<polygon fill="black" stroke="black" points="627.47,-1441.92 619.84,-1434.57 621.22,-1445.07 627.47,-1441.92"/>
</g>
<!-- Marske -->
<g id="node40" class="node">
<title>Marske</title>
<polygon fill="lightblue" stroke="lightblue" points="492.62,-1659 415.62,-1659 415.62,-1582 492.62,-1582 492.62,-1659"/>
<image xlink:href="img/mob.png" width="77px" height="77px" preserveAspectRatio="xMinYMin meet" x="415.625" y="-1659"/>
<text text-anchor="middle" x="454.12" y="-1614.7" font-family="MS Gothic" font-size="14.00">Marske</text>
</g>
<!-- Marske&#45;&gt;Eclipse -->
<g id="edge39" class="edge">
<title>Marske&#45;&gt;Eclipse</title>
<path fill="none" stroke="black" d="M484.85,-1581.61C491.8,-1573.04 499.26,-1563.84 506.46,-1554.96"/>
<polygon fill="black" stroke="black" points="509.01,-1557.37 512.59,-1547.39 503.57,-1552.96 509.01,-1557.37"/>
</g>
<!-- Spilletta -->
<g id="node41" class="node">
<title>Spilletta</title>
<polygon fill="lightcoral" stroke="lightcoral" points="587.62,-1659 510.62,-1659 510.62,-1582 587.62,-1582 587.62,-1659"/>
<image xlink:href="img/mob.png" width="77px" height="77px" preserveAspectRatio="xMinYMin meet" x="510.625" y="-1659"/>
<text text-anchor="middle" x="549.12" y="-1614.7" font-family="MS Gothic" font-size="14.00">Spilletta</text>
</g>
<!-- Spilletta&#45;&gt;Eclipse -->
<g id="edge40" class="edge">
<title>Spilletta&#45;&gt;Eclipse</title>
<path fill="none" stroke="black" d="M547.42,-1581.61C547.07,-1573.84 546.7,-1565.56 546.33,-1557.46"/>
<polygon fill="black" stroke="black" points="549.84,-1557.56 545.89,-1547.73 542.85,-1557.88 549.84,-1557.56"/>
</g>
<!-- Sportsman -->
<g id="node42" class="node">
<title>Sportsman</title>
<polygon fill="lightblue" stroke="lightblue" points="690.62,-1659 613.62,-1659 613.62,-1582 690.62,-1582 690.62,-1659"/>
<image xlink:href="img/mob.png" width="77px" height="77px" preserveAspectRatio="xMinYMin meet" x="613.625" y="-1659"/>
<text text-anchor="middle" x="652.12" y="-1614.7" font-family="MS Gothic" font-size="14.00">Sportsman</text>
</g>
<!-- Sportsman&#45;&gt;Sportsmistress -->
<g id="edge41" class="edge">
<title>Sportsman&#45;&gt;Sportsmistress</title>
<path fill="none" stroke="black" d="M653.49,-1581.61C653.77,-1573.84 654.07,-1565.56 654.36,-1557.46"/>
<polygon fill="black" stroke="black" points="657.85,-1557.85 654.71,-1547.73 650.85,-1557.6 657.85,-1557.85"/>
</g>
<!-- Golden Locks -->
<g id="node43" class="node">
<title>Golden Locks</title>
<polygon fill="lightcoral" stroke="lightcoral" points="805.62,-1659 708.62,-1659 708.62,-1582 805.62,-1582 805.62,-1659"/>
<image xlink:href="img/mob.png" width="97px" height="77px" preserveAspectRatio="xMinYMin meet" x="708.625" y="-1659"/>
<text text-anchor="middle" x="757.12" y="-1614.7" font-family="MS Gothic" font-size="14.00">Golden Locks</text>
</g>
<!-- Golden Locks&#45;&gt;Sportsmistress -->
<g id="edge42" class="edge">
<title>Golden Locks&#45;&gt;Sportsmistress</title>
<path fill="none" stroke="black" d="M722.65,-1581.61C714.77,-1572.95 706.3,-1563.65 698.15,-1554.68"/>
<polygon fill="black" stroke="black" points="700.78,-1552.38 691.46,-1547.34 695.61,-1557.09 700.78,-1552.38"/>
</g>
<!-- Squirt -->
<g id="node44" class="node">
<title>Squirt</title>
<polygon fill="lightblue" stroke="lightblue" points="421.62,-1772 344.62,-1772 344.62,-1695 421.62,-1695 421.62,-1772"/>
<image xlink:href="img/mob.png" width="77px" height="77px" preserveAspectRatio="xMinYMin meet" x="344.625" y="-1772"/>
<text text-anchor="middle" x="383.12" y="-1727.7" font-family="MS Gothic" font-size="14.00">Squirt</text>
</g>
<!-- Squirt&#45;&gt;Marske -->
<g id="edge43" class="edge">
<title>Squirt&#45;&gt;Marske</title>
<path fill="none" stroke="black" d="M407.36,-1694.61C412.67,-1686.31 418.36,-1677.41 423.88,-1668.79"/>
<polygon fill="black" stroke="black" points="426.74,-1670.8 429.18,-1660.49 420.85,-1667.03 426.74,-1670.8"/>
</g>
<!-- Hutton&#39;s Blacklegs Mare -->
<g id="node45" class="node">
<title>Hutton&#39;s Blacklegs Mare</title>
<polygon fill="lightcoral" stroke="lightcoral" points="610.75,-1772 439.5,-1772 439.5,-1695 610.75,-1695 610.75,-1772"/>
<image xlink:href="img/mob.png" width="100px" height="77px" preserveAspectRatio="xMinYMin meet" x="475.125" y="-1772"/>
<text text-anchor="middle" x="525.12" y="-1727.7" font-family="MS Gothic" font-size="14.00">Hutton&#39;s Blacklegs Mare</text>
</g>
<!-- Hutton&#39;s Blacklegs Mare&#45;&gt;Marske -->
<g id="edge44" class="edge">
<title>Hutton&#39;s Blacklegs Mare&#45;&gt;Marske</title>
<path fill="none" stroke="black" d="M500.89,-1694.61C495.58,-1686.31 489.89,-1677.41 484.37,-1668.79"/>
<polygon fill="black" stroke="black" points="487.4,-1667.03 479.07,-1660.49 481.51,-1670.8 487.4,-1667.03"/>
</g>
<!-- Bartlet&#39;s Childers -->
<g id="node46" class="node">
<title>Bartlet&#39;s Childers</title>
<polygon fill="lightblue" stroke="lightblue" points="279.88,-1885 142.38,-1885 142.38,-1808 279.88,-1808 279.88,-1885"/>
<image xlink:href="img/mob.png" width="100px" height="77px" preserveAspectRatio="xMinYMin meet" x="161.125" y="-1885"/>
<text text-anchor="middle" x="211.12" y="-1840.7" font-family="MS Gothic" font-size="14.00">Bartlet&#39;s Childers</text>
</g>
<!-- Bartlet&#39;s Childers&#45;&gt;Squirt -->
<g id="edge45" class="edge">
<title>Bartlet&#39;s Childers&#45;&gt;Squirt</title>
<path fill="none" stroke="black" d="M269.84,-1807.61C290.91,-1794.01 314.43,-1778.83 334.55,-1765.85"/>
<polygon fill="black" stroke="black" points="336.35,-1768.85 342.85,-1760.49 332.55,-1762.97 336.35,-1768.85"/>
</g>
<!-- Snake Mare -->
<g id="node47" class="node">
<title>Snake Mare</title>
<polygon fill="lightcoral" stroke="lightcoral" points="428.88,-1885 345.38,-1885 345.38,-1808 428.88,-1808 428.88,-1885"/>
<image xlink:href="img/mob.png" width="83.5px" height="77px" preserveAspectRatio="xMinYMin meet" x="345.375" y="-1885"/>
<text text-anchor="middle" x="387.12" y="-1840.7" font-family="MS Gothic" font-size="14.00">Snake Mare</text>
</g>
<!-- Snake Mare&#45;&gt;Squirt -->
<g id="edge46" class="edge">
<title>Snake Mare&#45;&gt;Squirt</title>
<path fill="none" stroke="black" d="M385.76,-1807.61C385.48,-1799.84 385.18,-1791.56 384.89,-1783.46"/>
<polygon fill="black" stroke="black" points="388.4,-1783.6 384.54,-1773.73 381.4,-1783.85 388.4,-1783.6"/>
</g>
<!-- Hutton&#39;s Blacklegs -->
<g id="node48" class="node">
<title>Hutton&#39;s Blacklegs</title>
<polygon fill="lightblue" stroke="lightblue" points="590.88,-1885 453.38,-1885 453.38,-1808 590.88,-1808 590.88,-1885"/>
<image xlink:href="img/mob.png" width="100px" height="77px" preserveAspectRatio="xMinYMin meet" x="472.125" y="-1885"/>
<text text-anchor="middle" x="522.12" y="-1840.7" font-family="MS Gothic" font-size="14.00">Hutton&#39;s Blacklegs</text>
</g>
<!-- Hutton&#39;s Blacklegs&#45;&gt;Hutton&#39;s Blacklegs Mare -->
<g id="edge47" class="edge">
<title>Hutton&#39;s Blacklegs&#45;&gt;Hutton&#39;s Blacklegs Mare</title>
<path fill="none" stroke="black" d="M523.15,-1807.61C523.36,-1799.84 523.58,-1791.56 523.8,-1783.46"/>
<polygon fill="black" stroke="black" points="527.29,-1783.82 524.06,-1773.73 520.3,-1783.63 527.29,-1783.82"/>
</g>
<!-- Bay Bolton Mare -->
<g id="node49" class="node">
<title>Bay Bolton Mare</title>
<polygon fill="lightcoral" stroke="lightcoral" points="725.75,-1885 608.5,-1885 608.5,-1808 725.75,-1808 725.75,-1885"/>
<image xlink:href="img/mob.png" width="100px" height="77px" preserveAspectRatio="xMinYMin meet" x="617.125" y="-1885"/>
<text text-anchor="middle" x="667.12" y="-1840.7" font-family="MS Gothic" font-size="14.00">Bay Bolton Mare</text>
</g>
<!-- Bay Bolton Mare&#45;&gt;Hutton&#39;s Blacklegs Mare -->
<g id="edge48" class="edge">
<title>Bay Bolton Mare&#45;&gt;Hutton&#39;s Blacklegs Mare</title>
<path fill="none" stroke="black" d="M618.65,-1807.61C607,-1798.5 594.45,-1788.69 582.43,-1779.3"/>
<polygon fill="black" stroke="black" points="584.6,-1776.55 574.57,-1773.15 580.29,-1782.07 584.6,-1776.55"/>
</g>
<!-- ダーレーアラビアン -->
<g id="node50" class="node">
<title>ダーレーアラビアン</title>
<polygon fill="lightblue" stroke="lightblue" points="144.25,-1998 0,-1998 0,-1921 144.25,-1921 144.25,-1998"/>
<image xlink:href="img/darearabian.png" width="100px" height="77px" preserveAspectRatio="xMinYMin meet" x="22.125" y="-1998"/>
<text text-anchor="middle" x="72.12" y="-1953.7" font-family="MS Gothic" font-size="14.00">ダーレーアラビアン</text>
</g>
<!-- ダーレーアラビアン&#45;&gt;Bartlet&#39;s Childers -->
<g id="edge49" class="edge">
<title>ダーレーアラビアン&#45;&gt;Bartlet&#39;s Childers</title>
<path fill="none" stroke="black" d="M119.57,-1920.61C130.98,-1911.5 143.27,-1901.69 155.03,-1892.3"/>
<polygon fill="black" stroke="black" points="157.08,-1895.14 162.71,-1886.16 152.71,-1889.67 157.08,-1895.14"/>
</g>
<!-- Betty Leedes -->
<g id="node51" class="node">
<title>Betty Leedes</title>
<polygon fill="lightcoral" stroke="lightcoral" points="259.62,-1998 162.62,-1998 162.62,-1921 259.62,-1921 259.62,-1998"/>
<image xlink:href="img/mob.png" width="97px" height="77px" preserveAspectRatio="xMinYMin meet" x="162.625" y="-1998"/>
<text text-anchor="middle" x="211.12" y="-1953.7" font-family="MS Gothic" font-size="14.00">Betty Leedes</text>
</g>
<!-- Betty Leedes&#45;&gt;Bartlet&#39;s Childers -->
<g id="edge50" class="edge">
<title>Betty Leedes&#45;&gt;Bartlet&#39;s Childers</title>
<path fill="none" stroke="black" d="M211.12,-1920.61C211.12,-1912.84 211.12,-1904.56 211.12,-1896.46"/>
<polygon fill="black" stroke="black" points="214.63,-1896.73 211.13,-1886.73 207.63,-1896.73 214.63,-1896.73"/>
</g>
<!-- Old Careless -->
<g id="node52" class="node">
<title>Old Careless</title>
<polygon fill="lightblue" stroke="lightblue" points="144.62,-2111 47.62,-2111 47.62,-2034 144.62,-2034 144.62,-2111"/>
<image xlink:href="img/mob.png" width="97px" height="77px" preserveAspectRatio="xMinYMin meet" x="47.625" y="-2111"/>
<text text-anchor="middle" x="96.12" y="-2066.7" font-family="MS Gothic" font-size="14.00">Old Careless</text>
</g>
<!-- Old Careless&#45;&gt;Betty Leedes -->
<g id="edge51" class="edge">
<title>Old Careless&#45;&gt;Betty Leedes</title>
<path fill="none" stroke="black" d="M135.38,-2033.61C144.54,-2024.77 154.39,-2015.26 163.85,-2006.13"/>
<polygon fill="black" stroke="black" points="166.19,-2008.73 170.96,-1999.27 161.33,-2003.7 166.19,-2008.73"/>
</g>
<!-- Cream Cheeks -->
<g id="node53" class="node">
<title>Cream Cheeks</title>
<polygon fill="lightcoral" stroke="lightcoral" points="259.62,-2111 162.62,-2111 162.62,-2034 259.62,-2034 259.62,-2111"/>
<image xlink:href="img/mob.png" width="97px" height="77px" preserveAspectRatio="xMinYMin meet" x="162.625" y="-2111"/>
<text text-anchor="middle" x="211.12" y="-2066.7" font-family="MS Gothic" font-size="14.00">Cream Cheeks</text>
</g>
<!-- Cream Cheeks&#45;&gt;Betty Leedes -->
<g id="edge52" class="edge">
<title>Cream Cheeks&#45;&gt;Betty Leedes</title>
<path fill="none" stroke="black" d="M211.12,-2033.61C211.12,-2025.84 211.12,-2017.56 211.12,-2009.46"/>
<polygon fill="black" stroke="black" points="214.63,-2009.73 211.13,-1999.73 207.63,-2009.73 214.63,-2009.73"/>
</g>
<!-- Snake -->
<g id="node54" class="node">
<title>Snake</title>
<polygon fill="lightblue" stroke="lightblue" points="425.62,-1998 348.62,-1998 348.62,-1921 425.62,-1921 425.62,-1998"/>
<image xlink:href="img/mob.png" width="77px" height="77px" preserveAspectRatio="xMinYMin meet" x="348.625" y="-1998"/>
<text text-anchor="middle" x="387.12" y="-1953.7" font-family="MS Gothic" font-size="14.00">Snake</text>
</g>
<!-- Snake&#45;&gt;Snake Mare -->
<g id="edge53" class="edge">
<title>Snake&#45;&gt;Snake Mare</title>
<path fill="none" stroke="black" d="M387.12,-1920.61C387.12,-1912.84 387.12,-1904.56 387.12,-1896.46"/>
<polygon fill="black" stroke="black" points="390.63,-1896.73 387.13,-1886.73 383.63,-1896.73 390.63,-1896.73"/>
</g>
<!-- Grey Wilkes -->
<g id="node55" class="node">
<title>Grey Wilkes</title>
<polygon fill="lightcoral" stroke="lightcoral" points="585.25,-1998 495,-1998 495,-1921 585.25,-1921 585.25,-1998"/>
<image xlink:href="img/mob.png" width="90.25px" height="77px" preserveAspectRatio="xMinYMin meet" x="495" y="-1998"/>
<text text-anchor="middle" x="540.12" y="-1953.7" font-family="MS Gothic" font-size="14.00">Grey Wilkes</text>
</g>
<!-- Grey Wilkes&#45;&gt;Snake Mare -->
<g id="edge54" class="edge">
<title>Grey Wilkes&#45;&gt;Snake Mare</title>
<path fill="none" stroke="black" d="M494.63,-1925.5C477.01,-1912.71 456.73,-1898 438.58,-1884.83"/>
<polygon fill="black" stroke="black" points="440.68,-1882.03 430.53,-1878.99 436.57,-1887.69 440.68,-1882.03"/>
</g>
<!-- Lister Turk -->
<g id="node56" class="node">
<title>Lister Turk</title>
<polygon fill="lightblue" stroke="lightblue" points="368.25,-2111 278,-2111 278,-2034 368.25,-2034 368.25,-2111"/>
<image xlink:href="img/mob.png" width="90.25px" height="77px" preserveAspectRatio="xMinYMin meet" x="278" y="-2111"/>
<text text-anchor="middle" x="323.12" y="-2066.7" font-family="MS Gothic" font-size="14.00">Lister Turk</text>
</g>
<!-- Lister Turk&#45;&gt;Snake -->
<g id="edge55" class="edge">
<title>Lister Turk&#45;&gt;Snake</title>
<path fill="none" stroke="black" d="M344.97,-2033.61C349.71,-2025.39 354.78,-2016.6 359.7,-2008.07"/>
<polygon fill="black" stroke="black" points="362.66,-2009.94 364.62,-1999.53 356.59,-2006.44 362.66,-2009.94"/>
</g>
<!-- Hautboy Mare -->
<g id="node57" class="node">
<title>Hautboy Mare</title>
<polygon fill="lightcoral" stroke="lightcoral" points="483.62,-2111 386.62,-2111 386.62,-2034 483.62,-2034 483.62,-2111"/>
<image xlink:href="img/mob.png" width="97px" height="77px" preserveAspectRatio="xMinYMin meet" x="386.625" y="-2111"/>
<text text-anchor="middle" x="435.12" y="-2066.7" font-family="MS Gothic" font-size="14.00">Hautboy Mare</text>
</g>
<!-- Hautboy Mare&#45;&gt;Snake -->
<g id="edge56" class="edge">
<title>Hautboy Mare&#45;&gt;Snake</title>
<path fill="none" stroke="black" d="M418.74,-2033.61C415.26,-2025.57 411.55,-2016.99 407.94,-2008.63"/>
<polygon fill="black" stroke="black" points="411.22,-2007.4 404.04,-1999.61 404.79,-2010.18 411.22,-2007.4"/>
</g>
<!-- Hautboy -->
<g id="node58" class="node">
<title>Hautboy</title>
<polygon fill="lightblue" stroke="lightblue" points="578.62,-2111 501.62,-2111 501.62,-2034 578.62,-2034 578.62,-2111"/>
<image xlink:href="img/mob.png" width="77px" height="77px" preserveAspectRatio="xMinYMin meet" x="501.625" y="-2111"/>
<text text-anchor="middle" x="540.12" y="-2066.7" font-family="MS Gothic" font-size="14.00">Hautboy</text>
</g>
<!-- Hautboy&#45;&gt;Grey Wilkes -->
<g id="edge57" class="edge">
<title>Hautboy&#45;&gt;Grey Wilkes</title>
<path fill="none" stroke="black" d="M540.12,-2033.61C540.12,-2025.84 540.12,-2017.56 540.12,-2009.46"/>
<polygon fill="black" stroke="black" points="543.63,-2009.73 540.13,-1999.73 536.63,-2009.73 543.63,-2009.73"/>
</g>
<!-- Miss Darcys Pet Mare -->
<g id="node59" class="node">
<title>Miss Darcys Pet Mare</title>
<polygon fill="lightcoral" stroke="lightcoral" points="747.62,-2111 596.62,-2111 596.62,-2034 747.62,-2034 747.62,-2111"/>
<image xlink:href="img/mob.png" width="100px" height="77px" preserveAspectRatio="xMinYMin meet" x="622.125" y="-2111"/>
<text text-anchor="middle" x="672.12" y="-2066.7" font-family="MS Gothic" font-size="14.00">Miss Darcys Pet Mare</text>
</g>
<!-- Miss Darcys Pet Mare&#45;&gt;Grey Wilkes -->
<g id="edge58" class="edge">
<title>Miss Darcys Pet Mare&#45;&gt;Grey Wilkes</title>
<path fill="none" stroke="black" d="M627.07,-2033.61C616.34,-2024.59 604.79,-2014.88 593.73,-2005.57"/>
<polygon fill="black" stroke="black" points="596.04,-2002.95 586.14,-1999.19 591.54,-2008.31 596.04,-2002.95"/>
</g>
</g>
</svg>
