<?xml version="1.0" encoding="UTF-8" standalone="no"?>
<!DOCTYPE svg PUBLIC "-//W3C//DTD SVG 1.1//EN"
 "http://www.w3.org/Graphics/SVG/1.1/DTD/svg11.dtd">
<!-- Generated by graphviz version 12.1.2 (20240928.0832)
 -->
<!-- Pages: 1 -->
<svg width="1610pt" height="2119pt"
 viewBox="0.00 0.00 1609.62 2119.00" xmlns="http://www.w3.org/2000/svg" xmlns:xlink="http://www.w3.org/1999/xlink">
<g id="graph0" class="graph" transform="scale(1 1) rotate(0) translate(4 2115)">
<polygon fill="white" stroke="none" points="-4,4 -4,-2115 1605.62,-2115 1605.62,4 -4,4"/>
<!-- Plassy -->
<g id="node1" class="node">
<title>Plassy</title>
<polygon fill="none" stroke="black" points="1435.62,-77 1358.62,-77 1358.62,0 1435.62,0 1435.62,-77"/>
<image xlink:href="img/mob.png" width="77px" height="77px" preserveAspectRatio="xMinYMin meet" x="1358.62" y="-77"/>
<text text-anchor="middle" x="1397.12" y="-33.45" font-family="Times New Roman,serif" font-size="14.00">Plassy</text>
</g>
<!-- Bosworth -->
<g id="node2" class="node">
<title>Bosworth</title>
<polygon fill="lightblue" stroke="lightblue" points="1384.62,-190 1307.62,-190 1307.62,-113 1384.62,-113 1384.62,-190"/>
<image xlink:href="img/mob.png" width="77px" height="77px" preserveAspectRatio="xMinYMin meet" x="1307.62" y="-190"/>
<text text-anchor="middle" x="1346.12" y="-145.7" font-family="MS Gothic" font-size="14.00">Bosworth</text>
</g>
<!-- Bosworth&#45;&gt;Plassy -->
<g id="edge1" class="edge">
<title>Bosworth&#45;&gt;Plassy</title>
<path fill="none" stroke="black" d="M1363.53,-112.61C1367.23,-104.57 1371.17,-95.99 1375.01,-87.63"/>
<polygon fill="black" stroke="black" points="1378.17,-89.14 1379.16,-78.59 1371.81,-86.22 1378.17,-89.14"/>
</g>
<!-- Pladda -->
<g id="node3" class="node">
<title>Pladda</title>
<polygon fill="lightcoral" stroke="lightcoral" points="1486.62,-190 1409.62,-190 1409.62,-113 1486.62,-113 1486.62,-190"/>
<image xlink:href="img/mob.png" width="77px" height="77px" preserveAspectRatio="xMinYMin meet" x="1409.62" y="-190"/>
<text text-anchor="middle" x="1448.12" y="-145.7" font-family="MS Gothic" font-size="14.00">Pladda</text>
</g>
<!-- Pladda&#45;&gt;Plassy -->
<g id="edge2" class="edge">
<title>Pladda&#45;&gt;Plassy</title>
<path fill="none" stroke="black" d="M1430.72,-112.61C1427.02,-104.57 1423.08,-95.99 1419.24,-87.63"/>
<polygon fill="black" stroke="black" points="1422.44,-86.22 1415.09,-78.59 1416.08,-89.14 1422.44,-86.22"/>
</g>
<!-- Son&#45;in&#45;Law -->
<g id="node4" class="node">
<title>Son&#45;in&#45;Law</title>
<polygon fill="lightblue" stroke="lightblue" points="1282.88,-303 1199.38,-303 1199.38,-226 1282.88,-226 1282.88,-303"/>
<image xlink:href="img/mob.png" width="83.5px" height="77px" preserveAspectRatio="xMinYMin meet" x="1199.38" y="-303"/>
<text text-anchor="middle" x="1241.12" y="-258.7" font-family="MS Gothic" font-size="14.00">Son&#45;in&#45;Law</text>
</g>
<!-- Son&#45;in&#45;Law&#45;&gt;Bosworth -->
<g id="edge3" class="edge">
<title>Son&#45;in&#45;Law&#45;&gt;Bosworth</title>
<path fill="none" stroke="black" d="M1276.97,-225.61C1285.24,-216.86 1294.14,-207.46 1302.7,-198.4"/>
<polygon fill="black" stroke="black" points="1305.08,-200.99 1309.41,-191.32 1299.99,-196.18 1305.08,-200.99"/>
</g>
<!-- Serenissima -->
<g id="node5" class="node">
<title>Serenissima</title>
<polygon fill="lightcoral" stroke="lightcoral" points="1391.25,-303 1301,-303 1301,-226 1391.25,-226 1391.25,-303"/>
<image xlink:href="img/mob.png" width="90.25px" height="77px" preserveAspectRatio="xMinYMin meet" x="1301" y="-303"/>
<text text-anchor="middle" x="1346.12" y="-258.7" font-family="MS Gothic" font-size="14.00">Serenissima</text>
</g>
<!-- Serenissima&#45;&gt;Bosworth -->
<g id="edge4" class="edge">
<title>Serenissima&#45;&gt;Bosworth</title>
<path fill="none" stroke="black" d="M1346.12,-225.61C1346.12,-217.84 1346.12,-209.56 1346.12,-201.46"/>
<polygon fill="black" stroke="black" points="1349.63,-201.73 1346.13,-191.73 1342.63,-201.73 1349.63,-201.73"/>
</g>
<!-- Phalaris -->
<g id="node6" class="node">
<title>Phalaris</title>
<polygon fill="lightblue" stroke="lightblue" points="1486.62,-303 1409.62,-303 1409.62,-226 1486.62,-226 1486.62,-303"/>
<image xlink:href="img/mob.png" width="77px" height="77px" preserveAspectRatio="xMinYMin meet" x="1409.62" y="-303"/>
<text text-anchor="middle" x="1448.12" y="-258.7" font-family="MS Gothic" font-size="14.00">Phalaris</text>
</g>
<!-- Phalaris&#45;&gt;Pladda -->
<g id="edge5" class="edge">
<title>Phalaris&#45;&gt;Pladda</title>
<path fill="none" stroke="black" d="M1448.12,-225.61C1448.12,-217.84 1448.12,-209.56 1448.12,-201.46"/>
<polygon fill="black" stroke="black" points="1451.63,-201.73 1448.13,-191.73 1444.63,-201.73 1451.63,-201.73"/>
</g>
<!-- Rothesay Bay -->
<g id="node7" class="node">
<title>Rothesay Bay</title>
<polygon fill="lightcoral" stroke="lightcoral" points="1601.62,-303 1504.62,-303 1504.62,-226 1601.62,-226 1601.62,-303"/>
<image xlink:href="img/mob.png" width="97px" height="77px" preserveAspectRatio="xMinYMin meet" x="1504.62" y="-303"/>
<text text-anchor="middle" x="1553.12" y="-258.7" font-family="MS Gothic" font-size="14.00">Rothesay Bay</text>
</g>
<!-- Rothesay Bay&#45;&gt;Pladda -->
<g id="edge6" class="edge">
<title>Rothesay Bay&#45;&gt;Pladda</title>
<path fill="none" stroke="black" d="M1517.28,-225.61C1509.01,-216.86 1500.11,-207.46 1491.55,-198.4"/>
<polygon fill="black" stroke="black" points="1494.26,-196.18 1484.84,-191.32 1489.17,-200.99 1494.26,-196.18"/>
</g>
<!-- Dark Ronald -->
<g id="node8" class="node">
<title>Dark Ronald</title>
<polygon fill="lightblue" stroke="lightblue" points="1229.25,-416 1139,-416 1139,-339 1229.25,-339 1229.25,-416"/>
<image xlink:href="img/mob.png" width="90.25px" height="77px" preserveAspectRatio="xMinYMin meet" x="1139" y="-416"/>
<text text-anchor="middle" x="1184.12" y="-371.7" font-family="MS Gothic" font-size="14.00">Dark Ronald</text>
</g>
<!-- Dark Ronald&#45;&gt;Son&#45;in&#45;Law -->
<g id="edge7" class="edge">
<title>Dark Ronald&#45;&gt;Son&#45;in&#45;Law</title>
<path fill="none" stroke="black" d="M1203.58,-338.61C1207.75,-330.48 1212.22,-321.8 1216.55,-313.35"/>
<polygon fill="black" stroke="black" points="1219.61,-315.06 1221.06,-304.57 1213.38,-311.86 1219.61,-315.06"/>
</g>
<!-- Mother in Law -->
<g id="node9" class="node">
<title>Mother in Law</title>
<polygon fill="lightcoral" stroke="lightcoral" points="1351,-416 1247.25,-416 1247.25,-339 1351,-339 1351,-416"/>
<image xlink:href="img/mob.png" width="100px" height="77px" preserveAspectRatio="xMinYMin meet" x="1249.12" y="-416"/>
<text text-anchor="middle" x="1299.12" y="-371.7" font-family="MS Gothic" font-size="14.00">Mother in Law</text>
</g>
<!-- Mother in Law&#45;&gt;Son&#45;in&#45;Law -->
<g id="edge8" class="edge">
<title>Mother in Law&#45;&gt;Son&#45;in&#45;Law</title>
<path fill="none" stroke="black" d="M1279.33,-338.61C1275.08,-330.48 1270.54,-321.8 1266.13,-313.35"/>
<polygon fill="black" stroke="black" points="1269.27,-311.8 1261.53,-304.56 1263.06,-315.04 1269.27,-311.8"/>
</g>
<!-- Bay Ronald -->
<g id="node10" class="node">
<title>Bay Ronald</title>
<polygon fill="lightblue" stroke="lightblue" points="1132.88,-529 1049.38,-529 1049.38,-452 1132.88,-452 1132.88,-529"/>
<image xlink:href="img/mob.png" width="83.5px" height="77px" preserveAspectRatio="xMinYMin meet" x="1049.38" y="-529"/>
<text text-anchor="middle" x="1091.12" y="-484.7" font-family="MS Gothic" font-size="14.00">Bay Ronald</text>
</g>
<!-- Bay Ronald&#45;&gt;Dark Ronald -->
<g id="edge9" class="edge">
<title>Bay Ronald&#45;&gt;Dark Ronald</title>
<path fill="none" stroke="black" d="M1122.87,-451.61C1130.05,-443.04 1137.76,-433.84 1145.2,-424.96"/>
<polygon fill="black" stroke="black" points="1147.81,-427.29 1151.55,-417.38 1142.45,-422.8 1147.81,-427.29"/>
</g>
<!-- Darkie -->
<g id="node11" class="node">
<title>Darkie</title>
<polygon fill="lightcoral" stroke="lightcoral" points="1227.62,-529 1150.62,-529 1150.62,-452 1227.62,-452 1227.62,-529"/>
<image xlink:href="img/mob.png" width="77px" height="77px" preserveAspectRatio="xMinYMin meet" x="1150.62" y="-529"/>
<text text-anchor="middle" x="1189.12" y="-484.7" font-family="MS Gothic" font-size="14.00">Darkie</text>
</g>
<!-- Darkie&#45;&gt;Dark Ronald -->
<g id="edge10" class="edge">
<title>Darkie&#45;&gt;Dark Ronald</title>
<path fill="none" stroke="black" d="M1187.42,-451.61C1187.07,-443.84 1186.7,-435.56 1186.33,-427.46"/>
<polygon fill="black" stroke="black" points="1189.84,-427.56 1185.89,-417.73 1182.85,-427.88 1189.84,-427.56"/>
</g>
<!-- Matchmaker -->
<g id="node12" class="node">
<title>Matchmaker</title>
<polygon fill="lightblue" stroke="lightblue" points="1336.88,-529 1253.38,-529 1253.38,-452 1336.88,-452 1336.88,-529"/>
<image xlink:href="img/mob.png" width="83.5px" height="77px" preserveAspectRatio="xMinYMin meet" x="1253.38" y="-529"/>
<text text-anchor="middle" x="1295.12" y="-484.7" font-family="MS Gothic" font-size="14.00">Matchmaker</text>
</g>
<!-- Matchmaker&#45;&gt;Mother in Law -->
<g id="edge11" class="edge">
<title>Matchmaker&#45;&gt;Mother in Law</title>
<path fill="none" stroke="black" d="M1296.49,-451.61C1296.77,-443.84 1297.07,-435.56 1297.36,-427.46"/>
<polygon fill="black" stroke="black" points="1300.85,-427.85 1297.71,-417.73 1293.85,-427.6 1300.85,-427.85"/>
</g>
<!-- Be Cannie -->
<g id="node13" class="node">
<title>Be Cannie</title>
<polygon fill="lightcoral" stroke="lightcoral" points="1431.62,-529 1354.62,-529 1354.62,-452 1431.62,-452 1431.62,-529"/>
<image xlink:href="img/mob.png" width="77px" height="77px" preserveAspectRatio="xMinYMin meet" x="1354.62" y="-529"/>
<text text-anchor="middle" x="1393.12" y="-484.7" font-family="MS Gothic" font-size="14.00">Be Cannie</text>
</g>
<!-- Be Cannie&#45;&gt;Mother in Law -->
<g id="edge12" class="edge">
<title>Be Cannie&#45;&gt;Mother in Law</title>
<path fill="none" stroke="black" d="M1361.04,-451.61C1353.78,-443.04 1345.99,-433.84 1338.47,-424.96"/>
<polygon fill="black" stroke="black" points="1341.18,-422.74 1332.05,-417.37 1335.84,-427.27 1341.18,-422.74"/>
</g>
<!-- Hampton -->
<g id="node14" class="node">
<title>Hampton</title>
<polygon fill="lightblue" stroke="lightblue" points="1075.62,-642 998.62,-642 998.62,-565 1075.62,-565 1075.62,-642"/>
<image xlink:href="img/mob.png" width="77px" height="77px" preserveAspectRatio="xMinYMin meet" x="998.625" y="-642"/>
<text text-anchor="middle" x="1037.12" y="-597.7" font-family="MS Gothic" font-size="14.00">Hampton</text>
</g>
<!-- Hampton&#45;&gt;Bay Ronald -->
<g id="edge13" class="edge">
<title>Hampton&#45;&gt;Bay Ronald</title>
<path fill="none" stroke="black" d="M1055.56,-564.61C1059.51,-556.48 1063.74,-547.8 1067.85,-539.35"/>
<polygon fill="black" stroke="black" points="1070.89,-541.1 1072.11,-530.58 1064.59,-538.04 1070.89,-541.1"/>
</g>
<!-- Black Duchess -->
<g id="node15" class="node">
<title>Black Duchess</title>
<polygon fill="lightcoral" stroke="lightcoral" points="1197,-642 1093.25,-642 1093.25,-565 1197,-565 1197,-642"/>
<image xlink:href="img/mob.png" width="100px" height="77px" preserveAspectRatio="xMinYMin meet" x="1095.12" y="-642"/>
<text text-anchor="middle" x="1145.12" y="-597.7" font-family="MS Gothic" font-size="14.00">Black Duchess</text>
</g>
<!-- Black Duchess&#45;&gt;Bay Ronald -->
<g id="edge14" class="edge">
<title>Black Duchess&#45;&gt;Bay Ronald</title>
<path fill="none" stroke="black" d="M1126.69,-564.61C1122.74,-556.48 1118.51,-547.8 1114.4,-539.35"/>
<polygon fill="black" stroke="black" points="1117.66,-538.04 1110.14,-530.58 1111.36,-541.1 1117.66,-538.04"/>
</g>
<!-- Lord Clifden -->
<g id="node16" class="node">
<title>Lord Clifden</title>
<polygon fill="lightblue" stroke="lightblue" points="971.62,-755 874.62,-755 874.62,-678 971.62,-678 971.62,-755"/>
<image xlink:href="img/mob.png" width="97px" height="77px" preserveAspectRatio="xMinYMin meet" x="874.625" y="-755"/>
<text text-anchor="middle" x="923.12" y="-710.7" font-family="MS Gothic" font-size="14.00">Lord Clifden</text>
</g>
<!-- Lord Clifden&#45;&gt;Hampton -->
<g id="edge15" class="edge">
<title>Lord Clifden&#45;&gt;Hampton</title>
<path fill="none" stroke="black" d="M962.04,-677.61C971.12,-668.77 980.88,-659.26 990.26,-650.13"/>
<polygon fill="black" stroke="black" points="992.58,-652.76 997.3,-643.27 987.7,-647.74 992.58,-652.76"/>
</g>
<!-- Lady Langden -->
<g id="node17" class="node">
<title>Lady Langden</title>
<polygon fill="lightcoral" stroke="lightcoral" points="1086.62,-755 989.62,-755 989.62,-678 1086.62,-678 1086.62,-755"/>
<image xlink:href="img/mob.png" width="97px" height="77px" preserveAspectRatio="xMinYMin meet" x="989.625" y="-755"/>
<text text-anchor="middle" x="1038.12" y="-710.7" font-family="MS Gothic" font-size="14.00">Lady Langden</text>
</g>
<!-- Lady Langden&#45;&gt;Hampton -->
<g id="edge16" class="edge">
<title>Lady Langden&#45;&gt;Hampton</title>
<path fill="none" stroke="black" d="M1037.78,-677.61C1037.71,-669.84 1037.64,-661.56 1037.57,-653.46"/>
<polygon fill="black" stroke="black" points="1041.07,-653.7 1037.48,-643.73 1034.07,-653.76 1041.07,-653.7"/>
</g>
<!-- Galliard -->
<g id="node18" class="node">
<title>Galliard</title>
<polygon fill="lightblue" stroke="lightblue" points="1182.62,-755 1105.62,-755 1105.62,-678 1182.62,-678 1182.62,-755"/>
<image xlink:href="img/mob.png" width="77px" height="77px" preserveAspectRatio="xMinYMin meet" x="1105.62" y="-755"/>
<text text-anchor="middle" x="1144.12" y="-710.7" font-family="MS Gothic" font-size="14.00">Galliard</text>
</g>
<!-- Galliard&#45;&gt;Black Duchess -->
<g id="edge17" class="edge">
<title>Galliard&#45;&gt;Black Duchess</title>
<path fill="none" stroke="black" d="M1144.47,-677.61C1144.54,-669.84 1144.61,-661.56 1144.68,-653.46"/>
<polygon fill="black" stroke="black" points="1148.18,-653.76 1144.77,-643.73 1141.18,-653.7 1148.18,-653.76"/>
</g>
<!-- Black Corrie -->
<g id="node19" class="node">
<title>Black Corrie</title>
<polygon fill="lightcoral" stroke="lightcoral" points="1297.62,-755 1200.62,-755 1200.62,-678 1297.62,-678 1297.62,-755"/>
<image xlink:href="img/mob.png" width="97px" height="77px" preserveAspectRatio="xMinYMin meet" x="1200.62" y="-755"/>
<text text-anchor="middle" x="1249.12" y="-710.7" font-family="MS Gothic" font-size="14.00">Black Corrie</text>
</g>
<!-- Black Corrie&#45;&gt;Black Duchess -->
<g id="edge18" class="edge">
<title>Black Corrie&#45;&gt;Black Duchess</title>
<path fill="none" stroke="black" d="M1213.62,-677.61C1205.43,-668.86 1196.62,-659.46 1188.13,-650.4"/>
<polygon fill="black" stroke="black" points="1190.89,-648.23 1181.5,-643.32 1185.78,-653.01 1190.89,-648.23"/>
</g>
<!-- Newminster -->
<g id="node20" class="node">
<title>Newminster</title>
<polygon fill="lightblue" stroke="lightblue" points="915.88,-868 832.38,-868 832.38,-791 915.88,-791 915.88,-868"/>
<image xlink:href="img/mob.png" width="83.5px" height="77px" preserveAspectRatio="xMinYMin meet" x="832.375" y="-868"/>
<text text-anchor="middle" x="874.12" y="-823.7" font-family="MS Gothic" font-size="14.00">Newminster</text>
</g>
<!-- Newminster&#45;&gt;Lord Clifden -->
<g id="edge19" class="edge">
<title>Newminster&#45;&gt;Lord Clifden</title>
<path fill="none" stroke="black" d="M890.85,-790.61C894.4,-782.57 898.19,-773.99 901.88,-765.63"/>
<polygon fill="black" stroke="black" points="905.03,-767.17 905.86,-756.6 898.62,-764.34 905.03,-767.17"/>
</g>
<!-- The Slave -->
<g id="node21" class="node">
<title>The Slave</title>
<polygon fill="lightcoral" stroke="lightcoral" points="1010.62,-868 933.62,-868 933.62,-791 1010.62,-791 1010.62,-868"/>
<image xlink:href="img/mob.png" width="77px" height="77px" preserveAspectRatio="xMinYMin meet" x="933.625" y="-868"/>
<text text-anchor="middle" x="972.12" y="-823.7" font-family="MS Gothic" font-size="14.00">The Slave</text>
</g>
<!-- The Slave&#45;&gt;Lord Clifden -->
<g id="edge20" class="edge">
<title>The Slave&#45;&gt;Lord Clifden</title>
<path fill="none" stroke="black" d="M955.4,-790.61C951.85,-782.57 948.06,-773.99 944.37,-765.63"/>
<polygon fill="black" stroke="black" points="947.63,-764.34 940.39,-756.6 941.22,-767.17 947.63,-764.34"/>
</g>
<!-- Touchstone -->
<g id="node22" class="node">
<title>Touchstone</title>
<polygon fill="lightblue" stroke="lightblue" points="818.88,-981 735.38,-981 735.38,-904 818.88,-904 818.88,-981"/>
<image xlink:href="img/mob.png" width="83.5px" height="77px" preserveAspectRatio="xMinYMin meet" x="735.375" y="-981"/>
<text text-anchor="middle" x="777.12" y="-936.7" font-family="MS Gothic" font-size="14.00">Touchstone</text>
</g>
<!-- Touchstone&#45;&gt;Newminster -->
<g id="edge21" class="edge">
<title>Touchstone&#45;&gt;Newminster</title>
<path fill="none" stroke="black" d="M810.24,-903.61C817.81,-894.95 825.93,-885.65 833.77,-876.68"/>
<polygon fill="black" stroke="black" points="836.22,-879.19 840.17,-869.36 830.95,-874.59 836.22,-879.19"/>
</g>
<!-- Beeswing -->
<g id="node23" class="node">
<title>Beeswing</title>
<polygon fill="lightcoral" stroke="lightcoral" points="913.62,-981 836.62,-981 836.62,-904 913.62,-904 913.62,-981"/>
<image xlink:href="img/mob.png" width="77px" height="77px" preserveAspectRatio="xMinYMin meet" x="836.625" y="-981"/>
<text text-anchor="middle" x="875.12" y="-936.7" font-family="MS Gothic" font-size="14.00">Beeswing</text>
</g>
<!-- Beeswing&#45;&gt;Newminster -->
<g id="edge22" class="edge">
<title>Beeswing&#45;&gt;Newminster</title>
<path fill="none" stroke="black" d="M874.78,-903.61C874.71,-895.84 874.64,-887.56 874.57,-879.46"/>
<polygon fill="black" stroke="black" points="878.07,-879.7 874.48,-869.73 871.07,-879.76 878.07,-879.7"/>
</g>
<!-- Melbourne -->
<g id="node24" class="node">
<title>Melbourne</title>
<polygon fill="lightblue" stroke="lightblue" points="1009.62,-981 932.62,-981 932.62,-904 1009.62,-904 1009.62,-981"/>
<image xlink:href="img/mob.png" width="77px" height="77px" preserveAspectRatio="xMinYMin meet" x="932.625" y="-981"/>
<text text-anchor="middle" x="971.12" y="-936.7" font-family="MS Gothic" font-size="14.00">Melbourne</text>
</g>
<!-- Melbourne&#45;&gt;The Slave -->
<g id="edge23" class="edge">
<title>Melbourne&#45;&gt;The Slave</title>
<path fill="none" stroke="black" d="M971.47,-903.61C971.54,-895.84 971.61,-887.56 971.68,-879.46"/>
<polygon fill="black" stroke="black" points="975.18,-879.76 971.77,-869.73 968.18,-879.7 975.18,-879.76"/>
</g>
<!-- Volley -->
<g id="node25" class="node">
<title>Volley</title>
<polygon fill="lightcoral" stroke="lightcoral" points="1104.62,-981 1027.62,-981 1027.62,-904 1104.62,-904 1104.62,-981"/>
<image xlink:href="img/mob.png" width="77px" height="77px" preserveAspectRatio="xMinYMin meet" x="1027.62" y="-981"/>
<text text-anchor="middle" x="1066.12" y="-936.7" font-family="MS Gothic" font-size="14.00">Volley</text>
</g>
<!-- Volley&#45;&gt;The Slave -->
<g id="edge24" class="edge">
<title>Volley&#45;&gt;The Slave</title>
<path fill="none" stroke="black" d="M1034.04,-903.61C1026.78,-895.04 1018.99,-885.84 1011.47,-876.96"/>
<polygon fill="black" stroke="black" points="1014.18,-874.74 1005.05,-869.37 1008.84,-879.27 1014.18,-874.74"/>
</g>
<!-- Camel -->
<g id="node26" class="node">
<title>Camel</title>
<polygon fill="lightblue" stroke="lightblue" points="761.62,-1094 684.62,-1094 684.62,-1017 761.62,-1017 761.62,-1094"/>
<image xlink:href="img/mob.png" width="77px" height="77px" preserveAspectRatio="xMinYMin meet" x="684.625" y="-1094"/>
<text text-anchor="middle" x="723.12" y="-1049.7" font-family="MS Gothic" font-size="14.00">Camel</text>
</g>
<!-- Camel&#45;&gt;Touchstone -->
<g id="edge25" class="edge">
<title>Camel&#45;&gt;Touchstone</title>
<path fill="none" stroke="black" d="M741.56,-1016.61C745.51,-1008.48 749.74,-999.8 753.85,-991.35"/>
<polygon fill="black" stroke="black" points="756.89,-993.1 758.11,-982.58 750.59,-990.04 756.89,-993.1"/>
</g>
<!-- Banter -->
<g id="node27" class="node">
<title>Banter</title>
<polygon fill="lightcoral" stroke="lightcoral" points="869.62,-1094 792.62,-1094 792.62,-1017 869.62,-1017 869.62,-1094"/>
<image xlink:href="img/mob.png" width="77px" height="77px" preserveAspectRatio="xMinYMin meet" x="792.625" y="-1094"/>
<text text-anchor="middle" x="831.12" y="-1049.7" font-family="MS Gothic" font-size="14.00">Banter</text>
</g>
<!-- Banter&#45;&gt;Touchstone -->
<g id="edge26" class="edge">
<title>Banter&#45;&gt;Touchstone</title>
<path fill="none" stroke="black" d="M812.69,-1016.61C808.74,-1008.48 804.51,-999.8 800.4,-991.35"/>
<polygon fill="black" stroke="black" points="803.66,-990.04 796.14,-982.58 797.36,-993.1 803.66,-990.04"/>
</g>
<!-- Whalebone -->
<g id="node28" class="node">
<title>Whalebone</title>
<polygon fill="lightblue" stroke="lightblue" points="663.62,-1207 586.62,-1207 586.62,-1130 663.62,-1130 663.62,-1207"/>
<image xlink:href="img/mob.png" width="77px" height="77px" preserveAspectRatio="xMinYMin meet" x="586.625" y="-1207"/>
<text text-anchor="middle" x="625.12" y="-1162.7" font-family="MS Gothic" font-size="14.00">Whalebone</text>
</g>
<!-- Whalebone&#45;&gt;Camel -->
<g id="edge27" class="edge">
<title>Whalebone&#45;&gt;Camel</title>
<path fill="none" stroke="black" d="M658.58,-1129.61C666.22,-1120.95 674.44,-1111.65 682.35,-1102.68"/>
<polygon fill="black" stroke="black" points="684.83,-1105.17 688.82,-1095.35 679.58,-1100.53 684.83,-1105.17"/>
</g>
<!-- Selim Mare -->
<g id="node29" class="node">
<title>Selim Mare</title>
<polygon fill="lightcoral" stroke="lightcoral" points="764.88,-1207 681.38,-1207 681.38,-1130 764.88,-1130 764.88,-1207"/>
<image xlink:href="img/mob.png" width="83.5px" height="77px" preserveAspectRatio="xMinYMin meet" x="681.375" y="-1207"/>
<text text-anchor="middle" x="723.12" y="-1162.7" font-family="MS Gothic" font-size="14.00">Selim Mare</text>
</g>
<!-- Selim Mare&#45;&gt;Camel -->
<g id="edge28" class="edge">
<title>Selim Mare&#45;&gt;Camel</title>
<path fill="none" stroke="black" d="M723.12,-1129.61C723.12,-1121.84 723.12,-1113.56 723.12,-1105.46"/>
<polygon fill="black" stroke="black" points="726.63,-1105.73 723.13,-1095.73 719.63,-1105.73 726.63,-1105.73"/>
</g>
<!-- Master Henry -->
<g id="node30" class="node">
<title>Master Henry</title>
<polygon fill="lightblue" stroke="lightblue" points="879.62,-1207 782.62,-1207 782.62,-1130 879.62,-1130 879.62,-1207"/>
<image xlink:href="img/mob.png" width="97px" height="77px" preserveAspectRatio="xMinYMin meet" x="782.625" y="-1207"/>
<text text-anchor="middle" x="831.12" y="-1162.7" font-family="MS Gothic" font-size="14.00">Master Henry</text>
</g>
<!-- Master Henry&#45;&gt;Banter -->
<g id="edge29" class="edge">
<title>Master Henry&#45;&gt;Banter</title>
<path fill="none" stroke="black" d="M831.12,-1129.61C831.12,-1121.84 831.12,-1113.56 831.12,-1105.46"/>
<polygon fill="black" stroke="black" points="834.63,-1105.73 831.13,-1095.73 827.63,-1105.73 834.63,-1105.73"/>
</g>
<!-- Boadicea -->
<g id="node31" class="node">
<title>Boadicea</title>
<polygon fill="lightcoral" stroke="lightcoral" points="974.62,-1207 897.62,-1207 897.62,-1130 974.62,-1130 974.62,-1207"/>
<image xlink:href="img/mob.png" width="77px" height="77px" preserveAspectRatio="xMinYMin meet" x="897.625" y="-1207"/>
<text text-anchor="middle" x="936.12" y="-1162.7" font-family="MS Gothic" font-size="14.00">Boadicea</text>
</g>
<!-- Boadicea&#45;&gt;Banter -->
<g id="edge30" class="edge">
<title>Boadicea&#45;&gt;Banter</title>
<path fill="none" stroke="black" d="M900.28,-1129.61C892.01,-1120.86 883.11,-1111.46 874.55,-1102.4"/>
<polygon fill="black" stroke="black" points="877.26,-1100.18 867.84,-1095.32 872.17,-1104.99 877.26,-1100.18"/>
</g>
<!-- Waxy -->
<g id="node32" class="node">
<title>Waxy</title>
<polygon fill="lightblue" stroke="lightblue" points="616.62,-1320 539.62,-1320 539.62,-1243 616.62,-1243 616.62,-1320"/>
<image xlink:href="img/mob.png" width="77px" height="77px" preserveAspectRatio="xMinYMin meet" x="539.625" y="-1320"/>
<text text-anchor="middle" x="578.12" y="-1275.7" font-family="MS Gothic" font-size="14.00">Waxy</text>
</g>
<!-- Waxy&#45;&gt;Whalebone -->
<g id="edge31" class="edge">
<title>Waxy&#45;&gt;Whalebone</title>
<path fill="none" stroke="black" d="M594.17,-1242.61C597.57,-1234.57 601.21,-1225.99 604.75,-1217.63"/>
<polygon fill="black" stroke="black" points="607.89,-1219.19 608.56,-1208.61 601.44,-1216.46 607.89,-1219.19"/>
</g>
<!-- Penelope -->
<g id="node33" class="node">
<title>Penelope</title>
<polygon fill="lightcoral" stroke="lightcoral" points="711.62,-1320 634.62,-1320 634.62,-1243 711.62,-1243 711.62,-1320"/>
<image xlink:href="img/mob.png" width="77px" height="77px" preserveAspectRatio="xMinYMin meet" x="634.625" y="-1320"/>
<text text-anchor="middle" x="673.12" y="-1275.7" font-family="MS Gothic" font-size="14.00">Penelope</text>
</g>
<!-- Penelope&#45;&gt;Whalebone -->
<g id="edge32" class="edge">
<title>Penelope&#45;&gt;Whalebone</title>
<path fill="none" stroke="black" d="M656.74,-1242.61C653.26,-1234.57 649.55,-1225.99 645.94,-1217.63"/>
<polygon fill="black" stroke="black" points="649.22,-1216.4 642.04,-1208.61 642.79,-1219.18 649.22,-1216.4"/>
</g>
<!-- Pot&#45;8&#45;Os -->
<g id="node34" class="node">
<title>Pot&#45;8&#45;Os</title>
<polygon fill="lightblue" stroke="lightblue" points="521.62,-1433 444.62,-1433 444.62,-1356 521.62,-1356 521.62,-1433"/>
<image xlink:href="img/mob.png" width="77px" height="77px" preserveAspectRatio="xMinYMin meet" x="444.625" y="-1433"/>
<text text-anchor="middle" x="483.12" y="-1388.7" font-family="MS Gothic" font-size="14.00">Pot&#45;8&#45;Os</text>
</g>
<!-- Pot&#45;8&#45;Os&#45;&gt;Waxy -->
<g id="edge33" class="edge">
<title>Pot&#45;8&#45;Os&#45;&gt;Waxy</title>
<path fill="none" stroke="black" d="M515.55,-1355.61C522.89,-1347.04 530.76,-1337.84 538.36,-1328.96"/>
<polygon fill="black" stroke="black" points="541.02,-1331.24 544.86,-1321.37 535.7,-1326.69 541.02,-1331.24"/>
</g>
<!-- Maria III -->
<g id="node35" class="node">
<title>Maria III</title>
<polygon fill="lightcoral" stroke="lightcoral" points="616.62,-1433 539.62,-1433 539.62,-1356 616.62,-1356 616.62,-1433"/>
<image xlink:href="img/mob.png" width="77px" height="77px" preserveAspectRatio="xMinYMin meet" x="539.625" y="-1433"/>
<text text-anchor="middle" x="578.12" y="-1388.7" font-family="MS Gothic" font-size="14.00">Maria III</text>
</g>
<!-- Maria III&#45;&gt;Waxy -->
<g id="edge34" class="edge">
<title>Maria III&#45;&gt;Waxy</title>
<path fill="none" stroke="black" d="M578.12,-1355.61C578.12,-1347.84 578.12,-1339.56 578.12,-1331.46"/>
<polygon fill="black" stroke="black" points="581.63,-1331.73 578.13,-1321.73 574.63,-1331.73 581.63,-1331.73"/>
</g>
<!-- Trumpator -->
<g id="node36" class="node">
<title>Trumpator</title>
<polygon fill="lightblue" stroke="lightblue" points="711.62,-1433 634.62,-1433 634.62,-1356 711.62,-1356 711.62,-1433"/>
<image xlink:href="img/mob.png" width="77px" height="77px" preserveAspectRatio="xMinYMin meet" x="634.625" y="-1433"/>
<text text-anchor="middle" x="673.12" y="-1388.7" font-family="MS Gothic" font-size="14.00">Trumpator</text>
</g>
<!-- Trumpator&#45;&gt;Penelope -->
<g id="edge35" class="edge">
<title>Trumpator&#45;&gt;Penelope</title>
<path fill="none" stroke="black" d="M673.12,-1355.61C673.12,-1347.84 673.12,-1339.56 673.12,-1331.46"/>
<polygon fill="black" stroke="black" points="676.63,-1331.73 673.13,-1321.73 669.63,-1331.73 676.63,-1331.73"/>
</g>
<!-- Prunella -->
<g id="node37" class="node">
<title>Prunella</title>
<polygon fill="lightcoral" stroke="lightcoral" points="806.62,-1433 729.62,-1433 729.62,-1356 806.62,-1356 806.62,-1433"/>
<image xlink:href="img/mob.png" width="77px" height="77px" preserveAspectRatio="xMinYMin meet" x="729.625" y="-1433"/>
<text text-anchor="middle" x="768.12" y="-1388.7" font-family="MS Gothic" font-size="14.00">Prunella</text>
</g>
<!-- Prunella&#45;&gt;Penelope -->
<g id="edge36" class="edge">
<title>Prunella&#45;&gt;Penelope</title>
<path fill="none" stroke="black" d="M735.7,-1355.61C728.36,-1347.04 720.49,-1337.84 712.89,-1328.96"/>
<polygon fill="black" stroke="black" points="715.55,-1326.69 706.39,-1321.37 710.23,-1331.24 715.55,-1326.69"/>
</g>
<!-- Eclipse -->
<g id="node38" class="node">
<title>Eclipse</title>
<polygon fill="lightblue" stroke="lightblue" points="465.62,-1546 388.62,-1546 388.62,-1469 465.62,-1469 465.62,-1546"/>
<image xlink:href="img/mob.png" width="77px" height="77px" preserveAspectRatio="xMinYMin meet" x="388.625" y="-1546"/>
<text text-anchor="middle" x="427.12" y="-1501.7" font-family="MS Gothic" font-size="14.00">Eclipse</text>
</g>
<!-- Eclipse&#45;&gt;Pot&#45;8&#45;Os -->
<g id="edge37" class="edge">
<title>Eclipse&#45;&gt;Pot&#45;8&#45;Os</title>
<path fill="none" stroke="black" d="M446.24,-1468.61C450.34,-1460.48 454.72,-1451.8 458.99,-1443.35"/>
<polygon fill="black" stroke="black" points="462.03,-1445.07 463.41,-1434.57 455.78,-1441.92 462.03,-1445.07"/>
</g>
<!-- Sportsmistress -->
<g id="node39" class="node">
<title>Sportsmistress</title>
<polygon fill="lightcoral" stroke="lightcoral" points="594.38,-1546 483.88,-1546 483.88,-1469 594.38,-1469 594.38,-1546"/>
<image xlink:href="img/mob.png" width="100px" height="77px" preserveAspectRatio="xMinYMin meet" x="489.125" y="-1546"/>
<text text-anchor="middle" x="539.12" y="-1501.7" font-family="MS Gothic" font-size="14.00">Sportsmistress</text>
</g>
<!-- Sportsmistress&#45;&gt;Pot&#45;8&#45;Os -->
<g id="edge38" class="edge">
<title>Sportsmistress&#45;&gt;Pot&#45;8&#45;Os</title>
<path fill="none" stroke="black" d="M520.01,-1468.61C515.91,-1460.48 511.53,-1451.8 507.26,-1443.35"/>
<polygon fill="black" stroke="black" points="510.47,-1441.92 502.84,-1434.57 504.22,-1445.07 510.47,-1441.92"/>
</g>
<!-- Marske -->
<g id="node40" class="node">
<title>Marske</title>
<polygon fill="lightblue" stroke="lightblue" points="375.62,-1659 298.62,-1659 298.62,-1582 375.62,-1582 375.62,-1659"/>
<image xlink:href="img/mob.png" width="77px" height="77px" preserveAspectRatio="xMinYMin meet" x="298.625" y="-1659"/>
<text text-anchor="middle" x="337.12" y="-1614.7" font-family="MS Gothic" font-size="14.00">Marske</text>
</g>
<!-- Marske&#45;&gt;Eclipse -->
<g id="edge39" class="edge">
<title>Marske&#45;&gt;Eclipse</title>
<path fill="none" stroke="black" d="M367.85,-1581.61C374.8,-1573.04 382.26,-1563.84 389.46,-1554.96"/>
<polygon fill="black" stroke="black" points="392.01,-1557.37 395.59,-1547.39 386.57,-1552.96 392.01,-1557.37"/>
</g>
<!-- Spilletta -->
<g id="node41" class="node">
<title>Spilletta</title>
<polygon fill="lightcoral" stroke="lightcoral" points="470.62,-1659 393.62,-1659 393.62,-1582 470.62,-1582 470.62,-1659"/>
<image xlink:href="img/mob.png" width="77px" height="77px" preserveAspectRatio="xMinYMin meet" x="393.625" y="-1659"/>
<text text-anchor="middle" x="432.12" y="-1614.7" font-family="MS Gothic" font-size="14.00">Spilletta</text>
</g>
<!-- Spilletta&#45;&gt;Eclipse -->
<g id="edge40" class="edge">
<title>Spilletta&#45;&gt;Eclipse</title>
<path fill="none" stroke="black" d="M430.42,-1581.61C430.07,-1573.84 429.7,-1565.56 429.33,-1557.46"/>
<polygon fill="black" stroke="black" points="432.84,-1557.56 428.89,-1547.73 425.85,-1557.88 432.84,-1557.56"/>
</g>
<!-- Sportsman -->
<g id="node42" class="node">
<title>Sportsman</title>
<polygon fill="lightblue" stroke="lightblue" points="573.62,-1659 496.62,-1659 496.62,-1582 573.62,-1582 573.62,-1659"/>
<image xlink:href="img/mob.png" width="77px" height="77px" preserveAspectRatio="xMinYMin meet" x="496.625" y="-1659"/>
<text text-anchor="middle" x="535.12" y="-1614.7" font-family="MS Gothic" font-size="14.00">Sportsman</text>
</g>
<!-- Sportsman&#45;&gt;Sportsmistress -->
<g id="edge41" class="edge">
<title>Sportsman&#45;&gt;Sportsmistress</title>
<path fill="none" stroke="black" d="M536.49,-1581.61C536.77,-1573.84 537.07,-1565.56 537.36,-1557.46"/>
<polygon fill="black" stroke="black" points="540.85,-1557.85 537.71,-1547.73 533.85,-1557.6 540.85,-1557.85"/>
</g>
<!-- Golden Locks -->
<g id="node43" class="node">
<title>Golden Locks</title>
<polygon fill="lightcoral" stroke="lightcoral" points="688.62,-1659 591.62,-1659 591.62,-1582 688.62,-1582 688.62,-1659"/>
<image xlink:href="img/mob.png" width="97px" height="77px" preserveAspectRatio="xMinYMin meet" x="591.625" y="-1659"/>
<text text-anchor="middle" x="640.12" y="-1614.7" font-family="MS Gothic" font-size="14.00">Golden Locks</text>
</g>
<!-- Golden Locks&#45;&gt;Sportsmistress -->
<g id="edge42" class="edge">
<title>Golden Locks&#45;&gt;Sportsmistress</title>
<path fill="none" stroke="black" d="M605.65,-1581.61C597.77,-1572.95 589.3,-1563.65 581.15,-1554.68"/>
<polygon fill="black" stroke="black" points="583.78,-1552.38 574.46,-1547.34 578.61,-1557.09 583.78,-1552.38"/>
</g>
<!-- Squirt -->
<g id="node44" class="node">
<title>Squirt</title>
<polygon fill="lightblue" stroke="lightblue" points="304.62,-1772 227.62,-1772 227.62,-1695 304.62,-1695 304.62,-1772"/>
<image xlink:href="img/mob.png" width="77px" height="77px" preserveAspectRatio="xMinYMin meet" x="227.625" y="-1772"/>
<text text-anchor="middle" x="266.12" y="-1727.7" font-family="MS Gothic" font-size="14.00">Squirt</text>
</g>
<!-- Squirt&#45;&gt;Marske -->
<g id="edge43" class="edge">
<title>Squirt&#45;&gt;Marske</title>
<path fill="none" stroke="black" d="M290.36,-1694.61C295.67,-1686.31 301.36,-1677.41 306.88,-1668.79"/>
<polygon fill="black" stroke="black" points="309.74,-1670.8 312.18,-1660.49 303.85,-1667.03 309.74,-1670.8"/>
</g>
<!-- Hutton&#39;s Blacklegs Mare -->
<g id="node45" class="node">
<title>Hutton&#39;s Blacklegs Mare</title>
<polygon fill="lightcoral" stroke="lightcoral" points="493.75,-1772 322.5,-1772 322.5,-1695 493.75,-1695 493.75,-1772"/>
<image xlink:href="img/mob.png" width="100px" height="77px" preserveAspectRatio="xMinYMin meet" x="358.125" y="-1772"/>
<text text-anchor="middle" x="408.12" y="-1727.7" font-family="MS Gothic" font-size="14.00">Hutton&#39;s Blacklegs Mare</text>
</g>
<!-- Hutton&#39;s Blacklegs Mare&#45;&gt;Marske -->
<g id="edge44" class="edge">
<title>Hutton&#39;s Blacklegs Mare&#45;&gt;Marske</title>
<path fill="none" stroke="black" d="M383.89,-1694.61C378.58,-1686.31 372.89,-1677.41 367.37,-1668.79"/>
<polygon fill="black" stroke="black" points="370.4,-1667.03 362.07,-1660.49 364.51,-1670.8 370.4,-1667.03"/>
</g>
<!-- Bartlet&#39;s Childers -->
<g id="node46" class="node">
<title>Bartlet&#39;s Childers</title>
<polygon fill="lightblue" stroke="lightblue" points="209.88,-1885 72.38,-1885 72.38,-1808 209.88,-1808 209.88,-1885"/>
<image xlink:href="img/mob.png" width="100px" height="77px" preserveAspectRatio="xMinYMin meet" x="91.125" y="-1885"/>
<text text-anchor="middle" x="141.12" y="-1840.7" font-family="MS Gothic" font-size="14.00">Bartlet&#39;s Childers</text>
</g>
<!-- Bartlet&#39;s Childers&#45;&gt;Squirt -->
<g id="edge45" class="edge">
<title>Bartlet&#39;s Childers&#45;&gt;Squirt</title>
<path fill="none" stroke="black" d="M183.79,-1807.61C195.18,-1797.5 207.54,-1786.53 219.14,-1776.22"/>
<polygon fill="black" stroke="black" points="221.14,-1779.13 226.29,-1769.87 216.49,-1773.89 221.14,-1779.13"/>
</g>
<!-- Snake Mare -->
<g id="node47" class="node">
<title>Snake Mare</title>
<polygon fill="lightcoral" stroke="lightcoral" points="311.88,-1885 228.38,-1885 228.38,-1808 311.88,-1808 311.88,-1885"/>
<image xlink:href="img/mob.png" width="83.5px" height="77px" preserveAspectRatio="xMinYMin meet" x="228.375" y="-1885"/>
<text text-anchor="middle" x="270.12" y="-1840.7" font-family="MS Gothic" font-size="14.00">Snake Mare</text>
</g>
<!-- Snake Mare&#45;&gt;Squirt -->
<g id="edge46" class="edge">
<title>Snake Mare&#45;&gt;Squirt</title>
<path fill="none" stroke="black" d="M268.76,-1807.61C268.48,-1799.84 268.18,-1791.56 267.89,-1783.46"/>
<polygon fill="black" stroke="black" points="271.4,-1783.6 267.54,-1773.73 264.4,-1783.85 271.4,-1783.6"/>
</g>
<!-- Hutton&#39;s Blacklegs -->
<g id="node48" class="node">
<title>Hutton&#39;s Blacklegs</title>
<polygon fill="lightblue" stroke="lightblue" points="473.88,-1885 336.38,-1885 336.38,-1808 473.88,-1808 473.88,-1885"/>
<image xlink:href="img/mob.png" width="100px" height="77px" preserveAspectRatio="xMinYMin meet" x="355.125" y="-1885"/>
<text text-anchor="middle" x="405.12" y="-1840.7" font-family="MS Gothic" font-size="14.00">Hutton&#39;s Blacklegs</text>
</g>
<!-- Hutton&#39;s Blacklegs&#45;&gt;Hutton&#39;s Blacklegs Mare -->
<g id="edge47" class="edge">
<title>Hutton&#39;s Blacklegs&#45;&gt;Hutton&#39;s Blacklegs Mare</title>
<path fill="none" stroke="black" d="M406.15,-1807.61C406.36,-1799.84 406.58,-1791.56 406.8,-1783.46"/>
<polygon fill="black" stroke="black" points="410.29,-1783.82 407.06,-1773.73 403.3,-1783.63 410.29,-1783.82"/>
</g>
<!-- Bay Bolton Mare -->
<g id="node49" class="node">
<title>Bay Bolton Mare</title>
<polygon fill="lightcoral" stroke="lightcoral" points="608.75,-1885 491.5,-1885 491.5,-1808 608.75,-1808 608.75,-1885"/>
<image xlink:href="img/mob.png" width="100px" height="77px" preserveAspectRatio="xMinYMin meet" x="500.125" y="-1885"/>
<text text-anchor="middle" x="550.12" y="-1840.7" font-family="MS Gothic" font-size="14.00">Bay Bolton Mare</text>
</g>
<!-- Bay Bolton Mare&#45;&gt;Hutton&#39;s Blacklegs Mare -->
<g id="edge48" class="edge">
<title>Bay Bolton Mare&#45;&gt;Hutton&#39;s Blacklegs Mare</title>
<path fill="none" stroke="black" d="M501.65,-1807.61C490,-1798.5 477.45,-1788.69 465.43,-1779.3"/>
<polygon fill="black" stroke="black" points="467.6,-1776.55 457.57,-1773.15 463.29,-1782.07 467.6,-1776.55"/>
</g>
<!-- ダーレーアラビアン -->
<g id="node50" class="node">
<title>ダーレーアラビアン</title>
<polygon fill="lightblue" stroke="lightblue" points="144.25,-1998 0,-1998 0,-1921 144.25,-1921 144.25,-1998"/>
<image xlink:href="img/darearabian.png" width="100px" height="77px" preserveAspectRatio="xMinYMin meet" x="22.125" y="-1998"/>
<text text-anchor="middle" x="72.12" y="-1953.7" font-family="MS Gothic" font-size="14.00">ダーレーアラビアン</text>
</g>
<!-- ダーレーアラビアン&#45;&gt;Bartlet&#39;s Childers -->
<g id="edge49" class="edge">
<title>ダーレーアラビアン&#45;&gt;Bartlet&#39;s Childers</title>
<path fill="none" stroke="black" d="M95.68,-1920.61C100.84,-1912.31 106.37,-1903.41 111.73,-1894.79"/>
<polygon fill="black" stroke="black" points="114.57,-1896.84 116.88,-1886.5 108.63,-1893.15 114.57,-1896.84"/>
</g>
<!-- Betty Leedes -->
<g id="node51" class="node">
<title>Betty Leedes</title>
<polygon fill="lightcoral" stroke="lightcoral" points="259.62,-1998 162.62,-1998 162.62,-1921 259.62,-1921 259.62,-1998"/>
<image xlink:href="img/mob.png" width="97px" height="77px" preserveAspectRatio="xMinYMin meet" x="162.625" y="-1998"/>
<text text-anchor="middle" x="211.12" y="-1953.7" font-family="MS Gothic" font-size="14.00">Betty Leedes</text>
</g>
<!-- Betty Leedes&#45;&gt;Bartlet&#39;s Childers -->
<g id="edge50" class="edge">
<title>Betty Leedes&#45;&gt;Bartlet&#39;s Childers</title>
<path fill="none" stroke="black" d="M187.23,-1920.61C181.99,-1912.31 176.39,-1903.41 170.95,-1894.79"/>
<polygon fill="black" stroke="black" points="174.01,-1893.09 165.72,-1886.5 168.09,-1896.82 174.01,-1893.09"/>
</g>
<!-- Old Careless -->
<g id="node52" class="node">
<title>Old Careless</title>
<polygon fill="lightblue" stroke="lightblue" points="201.62,-2111 104.62,-2111 104.62,-2034 201.62,-2034 201.62,-2111"/>
<image xlink:href="img/mob.png" width="97px" height="77px" preserveAspectRatio="xMinYMin meet" x="104.625" y="-2111"/>
<text text-anchor="middle" x="153.12" y="-2066.7" font-family="MS Gothic" font-size="14.00">Old Careless</text>
</g>
<!-- Old Careless&#45;&gt;Betty Leedes -->
<g id="edge51" class="edge">
<title>Old Careless&#45;&gt;Betty Leedes</title>
<path fill="none" stroke="black" d="M172.92,-2033.61C177.17,-2025.48 181.71,-2016.8 186.12,-2008.35"/>
<polygon fill="black" stroke="black" points="189.19,-2010.04 190.72,-1999.56 182.98,-2006.8 189.19,-2010.04"/>
</g>
<!-- Cream Cheeks -->
<g id="node53" class="node">
<title>Cream Cheeks</title>
<polygon fill="lightcoral" stroke="lightcoral" points="316.62,-2111 219.62,-2111 219.62,-2034 316.62,-2034 316.62,-2111"/>
<image xlink:href="img/mob.png" width="97px" height="77px" preserveAspectRatio="xMinYMin meet" x="219.625" y="-2111"/>
<text text-anchor="middle" x="268.12" y="-2066.7" font-family="MS Gothic" font-size="14.00">Cream Cheeks</text>
</g>
<!-- Cream Cheeks&#45;&gt;Betty Leedes -->
<g id="edge52" class="edge">
<title>Cream Cheeks&#45;&gt;Betty Leedes</title>
<path fill="none" stroke="black" d="M248.67,-2033.61C244.5,-2025.48 240.03,-2016.8 235.7,-2008.35"/>
<polygon fill="black" stroke="black" points="238.87,-2006.86 231.19,-1999.57 232.64,-2010.06 238.87,-2006.86"/>
</g>
</g>
</svg>
