<?xml version="1.0" encoding="UTF-8" standalone="no"?>
<!DOCTYPE svg PUBLIC "-//W3C//DTD SVG 1.1//EN"
 "http://www.w3.org/Graphics/SVG/1.1/DTD/svg11.dtd">
<!-- Generated by graphviz version 12.1.2 (20240928.0832)
 -->
<!-- Pages: 1 -->
<svg width="1580pt" height="1893pt"
 viewBox="0.00 0.00 1579.62 1893.00" xmlns="http://www.w3.org/2000/svg" xmlns:xlink="http://www.w3.org/1999/xlink">
<g id="graph0" class="graph" transform="scale(1 1) rotate(0) translate(4 1889)">
<polygon fill="white" stroke="none" points="-4,4 -4,-1889 1575.62,-1889 1575.62,4 -4,4"/>
<!-- Polymelus -->
<g id="node1" class="node">
<title>Polymelus</title>
<polygon fill="none" stroke="black" points="1427.62,-77 1350.62,-77 1350.62,0 1427.62,0 1427.62,-77"/>
<image xlink:href="img/mob.png" width="77px" height="77px" preserveAspectRatio="xMinYMin meet" x="1350.62" y="-77"/>
<text text-anchor="middle" x="1389.12" y="-33.45" font-family="Times New Roman,serif" font-size="14.00">Polymelus</text>
</g>
<!-- Cyllene -->
<g id="node2" class="node">
<title>Cyllene</title>
<polygon fill="lightblue" stroke="lightblue" points="1376.62,-190 1299.62,-190 1299.62,-113 1376.62,-113 1376.62,-190"/>
<image xlink:href="img/mob.png" width="77px" height="77px" preserveAspectRatio="xMinYMin meet" x="1299.62" y="-190"/>
<text text-anchor="middle" x="1338.12" y="-145.7" font-family="MS Gothic" font-size="14.00">Cyllene</text>
</g>
<!-- Cyllene&#45;&gt;Polymelus -->
<g id="edge1" class="edge">
<title>Cyllene&#45;&gt;Polymelus</title>
<path fill="none" stroke="black" d="M1355.53,-112.61C1359.23,-104.57 1363.17,-95.99 1367.01,-87.63"/>
<polygon fill="black" stroke="black" points="1370.17,-89.14 1371.16,-78.59 1363.81,-86.22 1370.17,-89.14"/>
</g>
<!-- Maid Marian -->
<g id="node3" class="node">
<title>Maid Marian</title>
<polygon fill="lightcoral" stroke="lightcoral" points="1485.25,-190 1395,-190 1395,-113 1485.25,-113 1485.25,-190"/>
<image xlink:href="img/mob.png" width="90.25px" height="77px" preserveAspectRatio="xMinYMin meet" x="1395" y="-190"/>
<text text-anchor="middle" x="1440.12" y="-145.7" font-family="MS Gothic" font-size="14.00">Maid Marian</text>
</g>
<!-- Maid Marian&#45;&gt;Polymelus -->
<g id="edge2" class="edge">
<title>Maid Marian&#45;&gt;Polymelus</title>
<path fill="none" stroke="black" d="M1422.72,-112.61C1419.02,-104.57 1415.08,-95.99 1411.24,-87.63"/>
<polygon fill="black" stroke="black" points="1414.44,-86.22 1407.09,-78.59 1408.08,-89.14 1414.44,-86.22"/>
</g>
<!-- Bona Vista -->
<g id="node4" class="node">
<title>Bona Vista</title>
<polygon fill="lightblue" stroke="lightblue" points="1283.88,-303 1200.38,-303 1200.38,-226 1283.88,-226 1283.88,-303"/>
<image xlink:href="img/mob.png" width="83.5px" height="77px" preserveAspectRatio="xMinYMin meet" x="1200.38" y="-303"/>
<text text-anchor="middle" x="1242.12" y="-258.7" font-family="MS Gothic" font-size="14.00">Bona Vista</text>
</g>
<!-- Bona Vista&#45;&gt;Cyllene -->
<g id="edge3" class="edge">
<title>Bona Vista&#45;&gt;Cyllene</title>
<path fill="none" stroke="black" d="M1274.89,-225.61C1282.39,-216.95 1290.43,-207.65 1298.18,-198.68"/>
<polygon fill="black" stroke="black" points="1300.62,-201.22 1304.51,-191.36 1295.32,-196.64 1300.62,-201.22"/>
</g>
<!-- Arcadia -->
<g id="node5" class="node">
<title>Arcadia</title>
<polygon fill="lightcoral" stroke="lightcoral" points="1378.62,-303 1301.62,-303 1301.62,-226 1378.62,-226 1378.62,-303"/>
<image xlink:href="img/mob.png" width="77px" height="77px" preserveAspectRatio="xMinYMin meet" x="1301.62" y="-303"/>
<text text-anchor="middle" x="1340.12" y="-258.7" font-family="MS Gothic" font-size="14.00">Arcadia</text>
</g>
<!-- Arcadia&#45;&gt;Cyllene -->
<g id="edge4" class="edge">
<title>Arcadia&#45;&gt;Cyllene</title>
<path fill="none" stroke="black" d="M1339.44,-225.61C1339.3,-217.84 1339.15,-209.56 1339.01,-201.46"/>
<polygon fill="black" stroke="black" points="1342.51,-201.67 1338.83,-191.73 1335.51,-201.79 1342.51,-201.67"/>
</g>
<!-- Hampton -->
<g id="node6" class="node">
<title>Hampton</title>
<polygon fill="lightblue" stroke="lightblue" points="1476.62,-303 1399.62,-303 1399.62,-226 1476.62,-226 1476.62,-303"/>
<image xlink:href="img/mob.png" width="77px" height="77px" preserveAspectRatio="xMinYMin meet" x="1399.62" y="-303"/>
<text text-anchor="middle" x="1438.12" y="-258.7" font-family="MS Gothic" font-size="14.00">Hampton</text>
</g>
<!-- Hampton&#45;&gt;Maid Marian -->
<g id="edge5" class="edge">
<title>Hampton&#45;&gt;Maid Marian</title>
<path fill="none" stroke="black" d="M1438.81,-225.61C1438.95,-217.84 1439.1,-209.56 1439.24,-201.46"/>
<polygon fill="black" stroke="black" points="1442.74,-201.79 1439.42,-191.73 1435.74,-201.67 1442.74,-201.79"/>
</g>
<!-- Quiver -->
<g id="node7" class="node">
<title>Quiver</title>
<polygon fill="lightcoral" stroke="lightcoral" points="1571.62,-303 1494.62,-303 1494.62,-226 1571.62,-226 1571.62,-303"/>
<image xlink:href="img/mob.png" width="77px" height="77px" preserveAspectRatio="xMinYMin meet" x="1494.62" y="-303"/>
<text text-anchor="middle" x="1533.12" y="-258.7" font-family="MS Gothic" font-size="14.00">Quiver</text>
</g>
<!-- Quiver&#45;&gt;Maid Marian -->
<g id="edge6" class="edge">
<title>Quiver&#45;&gt;Maid Marian</title>
<path fill="none" stroke="black" d="M1501.38,-225.61C1494.2,-217.04 1486.49,-207.84 1479.05,-198.96"/>
<polygon fill="black" stroke="black" points="1481.8,-196.8 1472.7,-191.38 1476.44,-201.29 1481.8,-196.8"/>
</g>
<!-- Bend Or -->
<g id="node8" class="node">
<title>Bend Or</title>
<polygon fill="lightblue" stroke="lightblue" points="1231.62,-416 1154.62,-416 1154.62,-339 1231.62,-339 1231.62,-416"/>
<image xlink:href="img/mob.png" width="77px" height="77px" preserveAspectRatio="xMinYMin meet" x="1154.62" y="-416"/>
<text text-anchor="middle" x="1193.12" y="-371.7" font-family="MS Gothic" font-size="14.00">Bend Or</text>
</g>
<!-- Bend Or&#45;&gt;Bona Vista -->
<g id="edge7" class="edge">
<title>Bend Or&#45;&gt;Bona Vista</title>
<path fill="none" stroke="black" d="M1209.85,-338.61C1213.4,-330.57 1217.19,-321.99 1220.88,-313.63"/>
<polygon fill="black" stroke="black" points="1224.03,-315.17 1224.86,-304.6 1217.62,-312.34 1224.03,-315.17"/>
</g>
<!-- Vista -->
<g id="node9" class="node">
<title>Vista</title>
<polygon fill="lightcoral" stroke="lightcoral" points="1329.62,-416 1252.62,-416 1252.62,-339 1329.62,-339 1329.62,-416"/>
<image xlink:href="img/mob.png" width="77px" height="77px" preserveAspectRatio="xMinYMin meet" x="1252.62" y="-416"/>
<text text-anchor="middle" x="1291.12" y="-371.7" font-family="MS Gothic" font-size="14.00">Vista</text>
</g>
<!-- Vista&#45;&gt;Bona Vista -->
<g id="edge8" class="edge">
<title>Vista&#45;&gt;Bona Vista</title>
<path fill="none" stroke="black" d="M1274.4,-338.61C1270.85,-330.57 1267.06,-321.99 1263.37,-313.63"/>
<polygon fill="black" stroke="black" points="1266.63,-312.34 1259.39,-304.6 1260.22,-315.17 1266.63,-312.34"/>
</g>
<!-- Doncaster -->
<g id="node10" class="node">
<title>Doncaster</title>
<polygon fill="lightblue" stroke="lightblue" points="1133.62,-529 1056.62,-529 1056.62,-452 1133.62,-452 1133.62,-529"/>
<image xlink:href="img/mob.png" width="77px" height="77px" preserveAspectRatio="xMinYMin meet" x="1056.62" y="-529"/>
<text text-anchor="middle" x="1095.12" y="-484.7" font-family="MS Gothic" font-size="14.00">Doncaster</text>
</g>
<!-- Doncaster&#45;&gt;Bend Or -->
<g id="edge9" class="edge">
<title>Doncaster&#45;&gt;Bend Or</title>
<path fill="none" stroke="black" d="M1128.58,-451.61C1136.22,-442.95 1144.44,-433.65 1152.35,-424.68"/>
<polygon fill="black" stroke="black" points="1154.83,-427.17 1158.82,-417.35 1149.58,-422.53 1154.83,-427.17"/>
</g>
<!-- Rouge Rose -->
<g id="node11" class="node">
<title>Rouge Rose</title>
<polygon fill="lightcoral" stroke="lightcoral" points="1234.88,-529 1151.38,-529 1151.38,-452 1234.88,-452 1234.88,-529"/>
<image xlink:href="img/mob.png" width="83.5px" height="77px" preserveAspectRatio="xMinYMin meet" x="1151.38" y="-529"/>
<text text-anchor="middle" x="1193.12" y="-484.7" font-family="MS Gothic" font-size="14.00">Rouge Rose</text>
</g>
<!-- Rouge Rose&#45;&gt;Bend Or -->
<g id="edge10" class="edge">
<title>Rouge Rose&#45;&gt;Bend Or</title>
<path fill="none" stroke="black" d="M1193.12,-451.61C1193.12,-443.84 1193.12,-435.56 1193.12,-427.46"/>
<polygon fill="black" stroke="black" points="1196.63,-427.73 1193.13,-417.73 1189.63,-427.73 1196.63,-427.73"/>
</g>
<!-- Macaroni -->
<g id="node12" class="node">
<title>Macaroni</title>
<polygon fill="lightblue" stroke="lightblue" points="1329.62,-529 1252.62,-529 1252.62,-452 1329.62,-452 1329.62,-529"/>
<image xlink:href="img/mob.png" width="77px" height="77px" preserveAspectRatio="xMinYMin meet" x="1252.62" y="-529"/>
<text text-anchor="middle" x="1291.12" y="-484.7" font-family="MS Gothic" font-size="14.00">Macaroni</text>
</g>
<!-- Macaroni&#45;&gt;Vista -->
<g id="edge11" class="edge">
<title>Macaroni&#45;&gt;Vista</title>
<path fill="none" stroke="black" d="M1291.12,-451.61C1291.12,-443.84 1291.12,-435.56 1291.12,-427.46"/>
<polygon fill="black" stroke="black" points="1294.63,-427.73 1291.13,-417.73 1287.63,-427.73 1294.63,-427.73"/>
</g>
<!-- Verdure -->
<g id="node13" class="node">
<title>Verdure</title>
<polygon fill="lightcoral" stroke="lightcoral" points="1424.62,-529 1347.62,-529 1347.62,-452 1424.62,-452 1424.62,-529"/>
<image xlink:href="img/mob.png" width="77px" height="77px" preserveAspectRatio="xMinYMin meet" x="1347.62" y="-529"/>
<text text-anchor="middle" x="1386.12" y="-484.7" font-family="MS Gothic" font-size="14.00">Verdure</text>
</g>
<!-- Verdure&#45;&gt;Vista -->
<g id="edge12" class="edge">
<title>Verdure&#45;&gt;Vista</title>
<path fill="none" stroke="black" d="M1353.7,-451.61C1346.36,-443.04 1338.49,-433.84 1330.89,-424.96"/>
<polygon fill="black" stroke="black" points="1333.55,-422.69 1324.39,-417.37 1328.23,-427.24 1333.55,-422.69"/>
</g>
<!-- Stockwell -->
<g id="node14" class="node">
<title>Stockwell</title>
<polygon fill="lightblue" stroke="lightblue" points="1082.62,-642 1005.62,-642 1005.62,-565 1082.62,-565 1082.62,-642"/>
<image xlink:href="img/mob.png" width="77px" height="77px" preserveAspectRatio="xMinYMin meet" x="1005.62" y="-642"/>
<text text-anchor="middle" x="1044.12" y="-597.7" font-family="MS Gothic" font-size="14.00">Stockwell</text>
</g>
<!-- Stockwell&#45;&gt;Doncaster -->
<g id="edge13" class="edge">
<title>Stockwell&#45;&gt;Doncaster</title>
<path fill="none" stroke="black" d="M1061.53,-564.61C1065.23,-556.57 1069.17,-547.99 1073.01,-539.63"/>
<polygon fill="black" stroke="black" points="1076.17,-541.14 1077.16,-530.59 1069.81,-538.22 1076.17,-541.14"/>
</g>
<!-- Marigold -->
<g id="node15" class="node">
<title>Marigold</title>
<polygon fill="lightcoral" stroke="lightcoral" points="1184.62,-642 1107.62,-642 1107.62,-565 1184.62,-565 1184.62,-642"/>
<image xlink:href="img/mob.png" width="77px" height="77px" preserveAspectRatio="xMinYMin meet" x="1107.62" y="-642"/>
<text text-anchor="middle" x="1146.12" y="-597.7" font-family="MS Gothic" font-size="14.00">Marigold</text>
</g>
<!-- Marigold&#45;&gt;Doncaster -->
<g id="edge14" class="edge">
<title>Marigold&#45;&gt;Doncaster</title>
<path fill="none" stroke="black" d="M1128.72,-564.61C1125.02,-556.57 1121.08,-547.99 1117.24,-539.63"/>
<polygon fill="black" stroke="black" points="1120.44,-538.22 1113.09,-530.59 1114.08,-541.14 1120.44,-538.22"/>
</g>
<!-- The Baron -->
<g id="node16" class="node">
<title>The Baron</title>
<polygon fill="lightblue" stroke="lightblue" points="984.62,-755 907.62,-755 907.62,-678 984.62,-678 984.62,-755"/>
<image xlink:href="img/mob.png" width="77px" height="77px" preserveAspectRatio="xMinYMin meet" x="907.625" y="-755"/>
<text text-anchor="middle" x="946.12" y="-710.7" font-family="MS Gothic" font-size="14.00">The Baron</text>
</g>
<!-- The Baron&#45;&gt;Stockwell -->
<g id="edge15" class="edge">
<title>The Baron&#45;&gt;Stockwell</title>
<path fill="none" stroke="black" d="M979.58,-677.61C987.22,-668.95 995.44,-659.65 1003.35,-650.68"/>
<polygon fill="black" stroke="black" points="1005.83,-653.17 1009.82,-643.35 1000.58,-648.53 1005.83,-653.17"/>
</g>
<!-- Pocahontas -->
<g id="node17" class="node">
<title>Pocahontas</title>
<polygon fill="lightcoral" stroke="lightcoral" points="1085.88,-755 1002.38,-755 1002.38,-678 1085.88,-678 1085.88,-755"/>
<image xlink:href="img/mob.png" width="83.5px" height="77px" preserveAspectRatio="xMinYMin meet" x="1002.38" y="-755"/>
<text text-anchor="middle" x="1044.12" y="-710.7" font-family="MS Gothic" font-size="14.00">Pocahontas</text>
</g>
<!-- Pocahontas&#45;&gt;Stockwell -->
<g id="edge16" class="edge">
<title>Pocahontas&#45;&gt;Stockwell</title>
<path fill="none" stroke="black" d="M1044.12,-677.61C1044.12,-669.84 1044.12,-661.56 1044.12,-653.46"/>
<polygon fill="black" stroke="black" points="1047.63,-653.73 1044.13,-643.73 1040.63,-653.73 1047.63,-653.73"/>
</g>
<!-- Teddington -->
<g id="node18" class="node">
<title>Teddington</title>
<polygon fill="lightblue" stroke="lightblue" points="1187.88,-755 1104.38,-755 1104.38,-678 1187.88,-678 1187.88,-755"/>
<image xlink:href="img/mob.png" width="83.5px" height="77px" preserveAspectRatio="xMinYMin meet" x="1104.38" y="-755"/>
<text text-anchor="middle" x="1146.12" y="-710.7" font-family="MS Gothic" font-size="14.00">Teddington</text>
</g>
<!-- Teddington&#45;&gt;Marigold -->
<g id="edge17" class="edge">
<title>Teddington&#45;&gt;Marigold</title>
<path fill="none" stroke="black" d="M1146.12,-677.61C1146.12,-669.84 1146.12,-661.56 1146.12,-653.46"/>
<polygon fill="black" stroke="black" points="1149.63,-653.73 1146.13,-643.73 1142.63,-653.73 1149.63,-653.73"/>
</g>
<!-- Ratan Mare -->
<g id="node19" class="node">
<title>Ratan Mare</title>
<polygon fill="lightcoral" stroke="lightcoral" points="1289.88,-755 1206.38,-755 1206.38,-678 1289.88,-678 1289.88,-755"/>
<image xlink:href="img/mob.png" width="83.5px" height="77px" preserveAspectRatio="xMinYMin meet" x="1206.38" y="-755"/>
<text text-anchor="middle" x="1248.12" y="-710.7" font-family="MS Gothic" font-size="14.00">Ratan Mare</text>
</g>
<!-- Ratan Mare&#45;&gt;Marigold -->
<g id="edge18" class="edge">
<title>Ratan Mare&#45;&gt;Marigold</title>
<path fill="none" stroke="black" d="M1213.31,-677.61C1205.35,-668.95 1196.8,-659.65 1188.56,-650.68"/>
<polygon fill="black" stroke="black" points="1191.15,-648.33 1181.81,-643.33 1186,-653.06 1191.15,-648.33"/>
</g>
<!-- Birdcatcher -->
<g id="node20" class="node">
<title>Birdcatcher</title>
<polygon fill="lightblue" stroke="lightblue" points="940.25,-868 850,-868 850,-791 940.25,-791 940.25,-868"/>
<image xlink:href="img/mob.png" width="90.25px" height="77px" preserveAspectRatio="xMinYMin meet" x="850" y="-868"/>
<text text-anchor="middle" x="895.12" y="-823.7" font-family="MS Gothic" font-size="14.00">Birdcatcher</text>
</g>
<!-- Birdcatcher&#45;&gt;The Baron -->
<g id="edge19" class="edge">
<title>Birdcatcher&#45;&gt;The Baron</title>
<path fill="none" stroke="black" d="M912.53,-790.61C916.23,-782.57 920.17,-773.99 924.01,-765.63"/>
<polygon fill="black" stroke="black" points="927.17,-767.14 928.16,-756.59 920.81,-764.22 927.17,-767.14"/>
</g>
<!-- Echidna -->
<g id="node21" class="node">
<title>Echidna</title>
<polygon fill="lightcoral" stroke="lightcoral" points="1035.62,-868 958.62,-868 958.62,-791 1035.62,-791 1035.62,-868"/>
<image xlink:href="img/mob.png" width="77px" height="77px" preserveAspectRatio="xMinYMin meet" x="958.625" y="-868"/>
<text text-anchor="middle" x="997.12" y="-823.7" font-family="MS Gothic" font-size="14.00">Echidna</text>
</g>
<!-- Echidna&#45;&gt;The Baron -->
<g id="edge20" class="edge">
<title>Echidna&#45;&gt;The Baron</title>
<path fill="none" stroke="black" d="M979.72,-790.61C976.02,-782.57 972.08,-773.99 968.24,-765.63"/>
<polygon fill="black" stroke="black" points="971.44,-764.22 964.09,-756.59 965.08,-767.14 971.44,-764.22"/>
</g>
<!-- Sir Hercules -->
<g id="node22" class="node">
<title>Sir Hercules</title>
<polygon fill="lightblue" stroke="lightblue" points="840.62,-981 743.62,-981 743.62,-904 840.62,-904 840.62,-981"/>
<image xlink:href="img/mob.png" width="97px" height="77px" preserveAspectRatio="xMinYMin meet" x="743.625" y="-981"/>
<text text-anchor="middle" x="792.12" y="-936.7" font-family="MS Gothic" font-size="14.00">Sir Hercules</text>
</g>
<!-- Sir Hercules&#45;&gt;Birdcatcher -->
<g id="edge21" class="edge">
<title>Sir Hercules&#45;&gt;Birdcatcher</title>
<path fill="none" stroke="black" d="M827.28,-903.61C835.4,-894.86 844.13,-885.46 852.53,-876.4"/>
<polygon fill="black" stroke="black" points="854.86,-879.04 859.1,-869.33 849.73,-874.28 854.86,-879.04"/>
</g>
<!-- Guiccioli -->
<g id="node23" class="node">
<title>Guiccioli</title>
<polygon fill="lightcoral" stroke="lightcoral" points="935.62,-981 858.62,-981 858.62,-904 935.62,-904 935.62,-981"/>
<image xlink:href="img/mob.png" width="77px" height="77px" preserveAspectRatio="xMinYMin meet" x="858.625" y="-981"/>
<text text-anchor="middle" x="897.12" y="-936.7" font-family="MS Gothic" font-size="14.00">Guiccioli</text>
</g>
<!-- Guiccioli&#45;&gt;Birdcatcher -->
<g id="edge22" class="edge">
<title>Guiccioli&#45;&gt;Birdcatcher</title>
<path fill="none" stroke="black" d="M896.44,-903.61C896.3,-895.84 896.15,-887.56 896.01,-879.46"/>
<polygon fill="black" stroke="black" points="899.51,-879.67 895.83,-869.73 892.51,-879.79 899.51,-879.67"/>
</g>
<!-- Economist -->
<g id="node24" class="node">
<title>Economist</title>
<polygon fill="lightblue" stroke="lightblue" points="1033.62,-981 956.62,-981 956.62,-904 1033.62,-904 1033.62,-981"/>
<image xlink:href="img/mob.png" width="77px" height="77px" preserveAspectRatio="xMinYMin meet" x="956.625" y="-981"/>
<text text-anchor="middle" x="995.12" y="-936.7" font-family="MS Gothic" font-size="14.00">Economist</text>
</g>
<!-- Economist&#45;&gt;Echidna -->
<g id="edge23" class="edge">
<title>Economist&#45;&gt;Echidna</title>
<path fill="none" stroke="black" d="M995.81,-903.61C995.95,-895.84 996.1,-887.56 996.24,-879.46"/>
<polygon fill="black" stroke="black" points="999.74,-879.79 996.42,-869.73 992.74,-879.67 999.74,-879.79"/>
</g>
<!-- Miss Pratt -->
<g id="node25" class="node">
<title>Miss Pratt</title>
<polygon fill="lightcoral" stroke="lightcoral" points="1134.88,-981 1051.38,-981 1051.38,-904 1134.88,-904 1134.88,-981"/>
<image xlink:href="img/mob.png" width="83.5px" height="77px" preserveAspectRatio="xMinYMin meet" x="1051.38" y="-981"/>
<text text-anchor="middle" x="1093.12" y="-936.7" font-family="MS Gothic" font-size="14.00">Miss Pratt</text>
</g>
<!-- Miss Pratt&#45;&gt;Echidna -->
<g id="edge24" class="edge">
<title>Miss Pratt&#45;&gt;Echidna</title>
<path fill="none" stroke="black" d="M1060.36,-903.61C1052.86,-894.95 1044.82,-885.65 1037.07,-876.68"/>
<polygon fill="black" stroke="black" points="1039.93,-874.64 1030.74,-869.36 1034.63,-879.22 1039.93,-874.64"/>
</g>
<!-- Whalebone -->
<g id="node26" class="node">
<title>Whalebone</title>
<polygon fill="lightblue" stroke="lightblue" points="783.62,-1094 706.62,-1094 706.62,-1017 783.62,-1017 783.62,-1094"/>
<image xlink:href="img/mob.png" width="77px" height="77px" preserveAspectRatio="xMinYMin meet" x="706.625" y="-1094"/>
<text text-anchor="middle" x="745.12" y="-1049.7" font-family="MS Gothic" font-size="14.00">Whalebone</text>
</g>
<!-- Whalebone&#45;&gt;Sir Hercules -->
<g id="edge25" class="edge">
<title>Whalebone&#45;&gt;Sir Hercules</title>
<path fill="none" stroke="black" d="M761.17,-1016.61C764.57,-1008.57 768.21,-999.99 771.75,-991.63"/>
<polygon fill="black" stroke="black" points="774.89,-993.19 775.56,-982.61 768.44,-990.46 774.89,-993.19"/>
</g>
<!-- Peri -->
<g id="node27" class="node">
<title>Peri</title>
<polygon fill="lightcoral" stroke="lightcoral" points="878.62,-1094 801.62,-1094 801.62,-1017 878.62,-1017 878.62,-1094"/>
<image xlink:href="img/mob.png" width="77px" height="77px" preserveAspectRatio="xMinYMin meet" x="801.625" y="-1094"/>
<text text-anchor="middle" x="840.12" y="-1049.7" font-family="MS Gothic" font-size="14.00">Peri</text>
</g>
<!-- Peri&#45;&gt;Sir Hercules -->
<g id="edge26" class="edge">
<title>Peri&#45;&gt;Sir Hercules</title>
<path fill="none" stroke="black" d="M823.74,-1016.61C820.26,-1008.57 816.55,-999.99 812.94,-991.63"/>
<polygon fill="black" stroke="black" points="816.22,-990.4 809.04,-982.61 809.79,-993.18 816.22,-990.4"/>
</g>
<!-- Waxy -->
<g id="node28" class="node">
<title>Waxy</title>
<polygon fill="lightblue" stroke="lightblue" points="688.62,-1207 611.62,-1207 611.62,-1130 688.62,-1130 688.62,-1207"/>
<image xlink:href="img/mob.png" width="77px" height="77px" preserveAspectRatio="xMinYMin meet" x="611.625" y="-1207"/>
<text text-anchor="middle" x="650.12" y="-1162.7" font-family="MS Gothic" font-size="14.00">Waxy</text>
</g>
<!-- Waxy&#45;&gt;Whalebone -->
<g id="edge27" class="edge">
<title>Waxy&#45;&gt;Whalebone</title>
<path fill="none" stroke="black" d="M682.55,-1129.61C689.89,-1121.04 697.76,-1111.84 705.36,-1102.96"/>
<polygon fill="black" stroke="black" points="708.02,-1105.24 711.86,-1095.37 702.7,-1100.69 708.02,-1105.24"/>
</g>
<!-- Penelope -->
<g id="node29" class="node">
<title>Penelope</title>
<polygon fill="lightcoral" stroke="lightcoral" points="783.62,-1207 706.62,-1207 706.62,-1130 783.62,-1130 783.62,-1207"/>
<image xlink:href="img/mob.png" width="77px" height="77px" preserveAspectRatio="xMinYMin meet" x="706.625" y="-1207"/>
<text text-anchor="middle" x="745.12" y="-1162.7" font-family="MS Gothic" font-size="14.00">Penelope</text>
</g>
<!-- Penelope&#45;&gt;Whalebone -->
<g id="edge28" class="edge">
<title>Penelope&#45;&gt;Whalebone</title>
<path fill="none" stroke="black" d="M745.12,-1129.61C745.12,-1121.84 745.12,-1113.56 745.12,-1105.46"/>
<polygon fill="black" stroke="black" points="748.63,-1105.73 745.13,-1095.73 741.63,-1105.73 748.63,-1105.73"/>
</g>
<!-- Wanderer -->
<g id="node30" class="node">
<title>Wanderer</title>
<polygon fill="lightblue" stroke="lightblue" points="878.62,-1207 801.62,-1207 801.62,-1130 878.62,-1130 878.62,-1207"/>
<image xlink:href="img/mob.png" width="77px" height="77px" preserveAspectRatio="xMinYMin meet" x="801.625" y="-1207"/>
<text text-anchor="middle" x="840.12" y="-1162.7" font-family="MS Gothic" font-size="14.00">Wanderer</text>
</g>
<!-- Wanderer&#45;&gt;Peri -->
<g id="edge29" class="edge">
<title>Wanderer&#45;&gt;Peri</title>
<path fill="none" stroke="black" d="M840.12,-1129.61C840.12,-1121.84 840.12,-1113.56 840.12,-1105.46"/>
<polygon fill="black" stroke="black" points="843.63,-1105.73 840.13,-1095.73 836.63,-1105.73 843.63,-1105.73"/>
</g>
<!-- Thalestris -->
<g id="node31" class="node">
<title>Thalestris</title>
<polygon fill="lightcoral" stroke="lightcoral" points="979.88,-1207 896.38,-1207 896.38,-1130 979.88,-1130 979.88,-1207"/>
<image xlink:href="img/mob.png" width="83.5px" height="77px" preserveAspectRatio="xMinYMin meet" x="896.375" y="-1207"/>
<text text-anchor="middle" x="938.12" y="-1162.7" font-family="MS Gothic" font-size="14.00">Thalestris</text>
</g>
<!-- Thalestris&#45;&gt;Peri -->
<g id="edge30" class="edge">
<title>Thalestris&#45;&gt;Peri</title>
<path fill="none" stroke="black" d="M904.67,-1129.61C897.03,-1120.95 888.81,-1111.65 880.9,-1102.68"/>
<polygon fill="black" stroke="black" points="883.67,-1100.53 874.43,-1095.35 878.42,-1105.17 883.67,-1100.53"/>
</g>
<!-- Pot&#45;8&#45;Os -->
<g id="node32" class="node">
<title>Pot&#45;8&#45;Os</title>
<polygon fill="lightblue" stroke="lightblue" points="632.62,-1320 555.62,-1320 555.62,-1243 632.62,-1243 632.62,-1320"/>
<image xlink:href="img/mob.png" width="77px" height="77px" preserveAspectRatio="xMinYMin meet" x="555.625" y="-1320"/>
<text text-anchor="middle" x="594.12" y="-1275.7" font-family="MS Gothic" font-size="14.00">Pot&#45;8&#45;Os</text>
</g>
<!-- Pot&#45;8&#45;Os&#45;&gt;Waxy -->
<g id="edge31" class="edge">
<title>Pot&#45;8&#45;Os&#45;&gt;Waxy</title>
<path fill="none" stroke="black" d="M613.24,-1242.61C617.34,-1234.48 621.72,-1225.8 625.99,-1217.35"/>
<polygon fill="black" stroke="black" points="629.03,-1219.07 630.41,-1208.57 622.78,-1215.92 629.03,-1219.07"/>
</g>
<!-- Maria III -->
<g id="node33" class="node">
<title>Maria III</title>
<polygon fill="lightcoral" stroke="lightcoral" points="744.62,-1320 667.62,-1320 667.62,-1243 744.62,-1243 744.62,-1320"/>
<image xlink:href="img/mob.png" width="77px" height="77px" preserveAspectRatio="xMinYMin meet" x="667.625" y="-1320"/>
<text text-anchor="middle" x="706.12" y="-1275.7" font-family="MS Gothic" font-size="14.00">Maria III</text>
</g>
<!-- Maria III&#45;&gt;Waxy -->
<g id="edge32" class="edge">
<title>Maria III&#45;&gt;Waxy</title>
<path fill="none" stroke="black" d="M687.01,-1242.61C682.91,-1234.48 678.53,-1225.8 674.26,-1217.35"/>
<polygon fill="black" stroke="black" points="677.47,-1215.92 669.84,-1208.57 671.22,-1219.07 677.47,-1215.92"/>
</g>
<!-- Eclipse -->
<g id="node34" class="node">
<title>Eclipse</title>
<polygon fill="lightblue" stroke="lightblue" points="520.62,-1433 443.62,-1433 443.62,-1356 520.62,-1356 520.62,-1433"/>
<image xlink:href="img/mob.png" width="77px" height="77px" preserveAspectRatio="xMinYMin meet" x="443.625" y="-1433"/>
<text text-anchor="middle" x="482.12" y="-1388.7" font-family="MS Gothic" font-size="14.00">Eclipse</text>
</g>
<!-- Eclipse&#45;&gt;Pot&#45;8&#45;Os -->
<g id="edge33" class="edge">
<title>Eclipse&#45;&gt;Pot&#45;8&#45;Os</title>
<path fill="none" stroke="black" d="M520.36,-1355.61C529.28,-1346.77 538.87,-1337.26 548.09,-1328.13"/>
<polygon fill="black" stroke="black" points="550.35,-1330.81 554.99,-1321.28 545.42,-1325.84 550.35,-1330.81"/>
</g>
<!-- Sportsmistress -->
<g id="node35" class="node">
<title>Sportsmistress</title>
<polygon fill="lightcoral" stroke="lightcoral" points="649.38,-1433 538.88,-1433 538.88,-1356 649.38,-1356 649.38,-1433"/>
<image xlink:href="img/mob.png" width="100px" height="77px" preserveAspectRatio="xMinYMin meet" x="544.125" y="-1433"/>
<text text-anchor="middle" x="594.12" y="-1388.7" font-family="MS Gothic" font-size="14.00">Sportsmistress</text>
</g>
<!-- Sportsmistress&#45;&gt;Pot&#45;8&#45;Os -->
<g id="edge34" class="edge">
<title>Sportsmistress&#45;&gt;Pot&#45;8&#45;Os</title>
<path fill="none" stroke="black" d="M594.12,-1355.61C594.12,-1347.84 594.12,-1339.56 594.12,-1331.46"/>
<polygon fill="black" stroke="black" points="597.63,-1331.73 594.13,-1321.73 590.63,-1331.73 597.63,-1331.73"/>
</g>
<!-- Herod -->
<g id="node36" class="node">
<title>Herod</title>
<polygon fill="lightblue" stroke="lightblue" points="744.62,-1433 667.62,-1433 667.62,-1356 744.62,-1356 744.62,-1433"/>
<image xlink:href="img/mob.png" width="77px" height="77px" preserveAspectRatio="xMinYMin meet" x="667.625" y="-1433"/>
<text text-anchor="middle" x="706.12" y="-1388.7" font-family="MS Gothic" font-size="14.00">Herod</text>
</g>
<!-- Herod&#45;&gt;Maria III -->
<g id="edge35" class="edge">
<title>Herod&#45;&gt;Maria III</title>
<path fill="none" stroke="black" d="M706.12,-1355.61C706.12,-1347.84 706.12,-1339.56 706.12,-1331.46"/>
<polygon fill="black" stroke="black" points="709.63,-1331.73 706.13,-1321.73 702.63,-1331.73 709.63,-1331.73"/>
</g>
<!-- Lisette -->
<g id="node37" class="node">
<title>Lisette</title>
<polygon fill="lightcoral" stroke="lightcoral" points="839.62,-1433 762.62,-1433 762.62,-1356 839.62,-1356 839.62,-1433"/>
<image xlink:href="img/mob.png" width="77px" height="77px" preserveAspectRatio="xMinYMin meet" x="762.625" y="-1433"/>
<text text-anchor="middle" x="801.12" y="-1388.7" font-family="MS Gothic" font-size="14.00">Lisette</text>
</g>
<!-- Lisette&#45;&gt;Maria III -->
<g id="edge36" class="edge">
<title>Lisette&#45;&gt;Maria III</title>
<path fill="none" stroke="black" d="M768.7,-1355.61C761.36,-1347.04 753.49,-1337.84 745.89,-1328.96"/>
<polygon fill="black" stroke="black" points="748.55,-1326.69 739.39,-1321.37 743.23,-1331.24 748.55,-1326.69"/>
</g>
<!-- Marske -->
<g id="node38" class="node">
<title>Marske</title>
<polygon fill="lightblue" stroke="lightblue" points="449.62,-1546 372.62,-1546 372.62,-1469 449.62,-1469 449.62,-1546"/>
<image xlink:href="img/mob.png" width="77px" height="77px" preserveAspectRatio="xMinYMin meet" x="372.625" y="-1546"/>
<text text-anchor="middle" x="411.12" y="-1501.7" font-family="MS Gothic" font-size="14.00">Marske</text>
</g>
<!-- Marske&#45;&gt;Eclipse -->
<g id="edge37" class="edge">
<title>Marske&#45;&gt;Eclipse</title>
<path fill="none" stroke="black" d="M435.36,-1468.61C440.67,-1460.31 446.36,-1451.41 451.88,-1442.79"/>
<polygon fill="black" stroke="black" points="454.74,-1444.8 457.18,-1434.49 448.85,-1441.03 454.74,-1444.8"/>
</g>
<!-- Spilletta -->
<g id="node39" class="node">
<title>Spilletta</title>
<polygon fill="lightcoral" stroke="lightcoral" points="591.62,-1546 514.62,-1546 514.62,-1469 591.62,-1469 591.62,-1546"/>
<image xlink:href="img/mob.png" width="77px" height="77px" preserveAspectRatio="xMinYMin meet" x="514.625" y="-1546"/>
<text text-anchor="middle" x="553.12" y="-1501.7" font-family="MS Gothic" font-size="14.00">Spilletta</text>
</g>
<!-- Spilletta&#45;&gt;Eclipse -->
<g id="edge38" class="edge">
<title>Spilletta&#45;&gt;Eclipse</title>
<path fill="none" stroke="black" d="M528.89,-1468.61C523.58,-1460.31 517.89,-1451.41 512.37,-1442.79"/>
<polygon fill="black" stroke="black" points="515.4,-1441.03 507.07,-1434.49 509.51,-1444.8 515.4,-1441.03"/>
</g>
<!-- Squirt -->
<g id="node40" class="node">
<title>Squirt</title>
<polygon fill="lightblue" stroke="lightblue" points="307.62,-1659 230.62,-1659 230.62,-1582 307.62,-1582 307.62,-1659"/>
<image xlink:href="img/mob.png" width="77px" height="77px" preserveAspectRatio="xMinYMin meet" x="230.625" y="-1659"/>
<text text-anchor="middle" x="269.12" y="-1614.7" font-family="MS Gothic" font-size="14.00">Squirt</text>
</g>
<!-- Squirt&#45;&gt;Marske -->
<g id="edge39" class="edge">
<title>Squirt&#45;&gt;Marske</title>
<path fill="none" stroke="black" d="M308.07,-1588.35C310.79,-1586.2 313.5,-1584.06 316.12,-1582 331.48,-1569.94 348.31,-1556.87 363.48,-1545.14"/>
<polygon fill="black" stroke="black" points="365.22,-1548.22 371,-1539.33 360.95,-1542.67 365.22,-1548.22"/>
</g>
<!-- Hutton&#39;s Blacklegs Mare -->
<g id="node41" class="node">
<title>Hutton&#39;s Blacklegs Mare</title>
<polygon fill="lightcoral" stroke="lightcoral" points="496.75,-1659 325.5,-1659 325.5,-1582 496.75,-1582 496.75,-1659"/>
<image xlink:href="img/mob.png" width="100px" height="77px" preserveAspectRatio="xMinYMin meet" x="361.125" y="-1659"/>
<text text-anchor="middle" x="411.12" y="-1614.7" font-family="MS Gothic" font-size="14.00">Hutton&#39;s Blacklegs Mare</text>
</g>
<!-- Hutton&#39;s Blacklegs Mare&#45;&gt;Marske -->
<g id="edge40" class="edge">
<title>Hutton&#39;s Blacklegs Mare&#45;&gt;Marske</title>
<path fill="none" stroke="black" d="M411.12,-1581.61C411.12,-1573.84 411.12,-1565.56 411.12,-1557.46"/>
<polygon fill="black" stroke="black" points="414.63,-1557.73 411.13,-1547.73 407.63,-1557.73 414.63,-1557.73"/>
</g>
<!-- Regulus -->
<g id="node42" class="node">
<title>Regulus</title>
<polygon fill="lightblue" stroke="lightblue" points="591.62,-1659 514.62,-1659 514.62,-1582 591.62,-1582 591.62,-1659"/>
<image xlink:href="img/mob.png" width="77px" height="77px" preserveAspectRatio="xMinYMin meet" x="514.625" y="-1659"/>
<text text-anchor="middle" x="553.12" y="-1614.7" font-family="MS Gothic" font-size="14.00">Regulus</text>
</g>
<!-- Regulus&#45;&gt;Spilletta -->
<g id="edge41" class="edge">
<title>Regulus&#45;&gt;Spilletta</title>
<path fill="none" stroke="black" d="M553.12,-1581.61C553.12,-1573.84 553.12,-1565.56 553.12,-1557.46"/>
<polygon fill="black" stroke="black" points="556.63,-1557.73 553.13,-1547.73 549.63,-1557.73 556.63,-1557.73"/>
</g>
<!-- Mother Western -->
<g id="node43" class="node">
<title>Mother Western</title>
<polygon fill="lightcoral" stroke="lightcoral" points="720.38,-1659 609.88,-1659 609.88,-1582 720.38,-1582 720.38,-1659"/>
<image xlink:href="img/mob.png" width="100px" height="77px" preserveAspectRatio="xMinYMin meet" x="615.125" y="-1659"/>
<text text-anchor="middle" x="665.12" y="-1614.7" font-family="MS Gothic" font-size="14.00">Mother Western</text>
</g>
<!-- Mother Western&#45;&gt;Spilletta -->
<g id="edge42" class="edge">
<title>Mother Western&#45;&gt;Spilletta</title>
<path fill="none" stroke="black" d="M626.89,-1581.61C617.97,-1572.77 608.38,-1563.26 599.16,-1554.13"/>
<polygon fill="black" stroke="black" points="601.83,-1551.84 592.26,-1547.28 596.9,-1556.81 601.83,-1551.84"/>
</g>
<!-- Bartlet&#39;s Childers -->
<g id="node44" class="node">
<title>Bartlet&#39;s Childers</title>
<polygon fill="lightblue" stroke="lightblue" points="273.88,-1772 136.38,-1772 136.38,-1695 273.88,-1695 273.88,-1772"/>
<image xlink:href="img/mob.png" width="100px" height="77px" preserveAspectRatio="xMinYMin meet" x="155.125" y="-1772"/>
<text text-anchor="middle" x="205.12" y="-1727.7" font-family="MS Gothic" font-size="14.00">Bartlet&#39;s Childers</text>
</g>
<!-- Bartlet&#39;s Childers&#45;&gt;Squirt -->
<g id="edge43" class="edge">
<title>Bartlet&#39;s Childers&#45;&gt;Squirt</title>
<path fill="none" stroke="black" d="M226.97,-1694.61C231.71,-1686.39 236.78,-1677.6 241.7,-1669.07"/>
<polygon fill="black" stroke="black" points="244.66,-1670.94 246.62,-1660.53 238.59,-1667.44 244.66,-1670.94"/>
</g>
<!-- Snake Mare -->
<g id="node45" class="node">
<title>Snake Mare</title>
<polygon fill="lightcoral" stroke="lightcoral" points="375.88,-1772 292.38,-1772 292.38,-1695 375.88,-1695 375.88,-1772"/>
<image xlink:href="img/mob.png" width="83.5px" height="77px" preserveAspectRatio="xMinYMin meet" x="292.375" y="-1772"/>
<text text-anchor="middle" x="334.12" y="-1727.7" font-family="MS Gothic" font-size="14.00">Snake Mare</text>
</g>
<!-- Snake Mare&#45;&gt;Squirt -->
<g id="edge44" class="edge">
<title>Snake Mare&#45;&gt;Squirt</title>
<path fill="none" stroke="black" d="M311.94,-1694.61C307.13,-1686.39 301.98,-1677.6 296.98,-1669.07"/>
<polygon fill="black" stroke="black" points="300.05,-1667.39 291.98,-1660.52 294.01,-1670.92 300.05,-1667.39"/>
</g>
<!-- ダーレーアラビアン -->
<g id="node46" class="node">
<title>ダーレーアラビアン</title>
<polygon fill="lightblue" stroke="lightblue" points="144.25,-1885 0,-1885 0,-1808 144.25,-1808 144.25,-1885"/>
<image xlink:href="img/darearabian.png" width="100px" height="77px" preserveAspectRatio="xMinYMin meet" x="22.125" y="-1885"/>
<text text-anchor="middle" x="72.12" y="-1840.7" font-family="MS Gothic" font-size="14.00">ダーレーアラビアン</text>
</g>
<!-- ダーレーアラビアン&#45;&gt;Bartlet&#39;s Childers -->
<g id="edge45" class="edge">
<title>ダーレーアラビアン&#45;&gt;Bartlet&#39;s Childers</title>
<path fill="none" stroke="black" d="M117.52,-1807.61C128.33,-1798.59 139.97,-1788.88 151.12,-1779.57"/>
<polygon fill="black" stroke="black" points="153.33,-1782.28 158.77,-1773.19 148.85,-1776.91 153.33,-1782.28"/>
</g>
<!-- Betty Leedes -->
<g id="node47" class="node">
<title>Betty Leedes</title>
<polygon fill="lightcoral" stroke="lightcoral" points="259.62,-1885 162.62,-1885 162.62,-1808 259.62,-1808 259.62,-1885"/>
<image xlink:href="img/mob.png" width="97px" height="77px" preserveAspectRatio="xMinYMin meet" x="162.625" y="-1885"/>
<text text-anchor="middle" x="211.12" y="-1840.7" font-family="MS Gothic" font-size="14.00">Betty Leedes</text>
</g>
<!-- Betty Leedes&#45;&gt;Bartlet&#39;s Childers -->
<g id="edge46" class="edge">
<title>Betty Leedes&#45;&gt;Bartlet&#39;s Childers</title>
<path fill="none" stroke="black" d="M209.08,-1807.61C208.66,-1799.84 208.21,-1791.56 207.77,-1783.46"/>
<polygon fill="black" stroke="black" points="211.28,-1783.53 207.25,-1773.73 204.29,-1783.9 211.28,-1783.53"/>
</g>
<!-- Snake -->
<g id="node48" class="node">
<title>Snake</title>
<polygon fill="lightblue" stroke="lightblue" points="366.62,-1885 289.62,-1885 289.62,-1808 366.62,-1808 366.62,-1885"/>
<image xlink:href="img/mob.png" width="77px" height="77px" preserveAspectRatio="xMinYMin meet" x="289.625" y="-1885"/>
<text text-anchor="middle" x="328.12" y="-1840.7" font-family="MS Gothic" font-size="14.00">Snake</text>
</g>
<!-- Snake&#45;&gt;Snake Mare -->
<g id="edge47" class="edge">
<title>Snake&#45;&gt;Snake Mare</title>
<path fill="none" stroke="black" d="M330.17,-1807.61C330.59,-1799.84 331.04,-1791.56 331.48,-1783.46"/>
<polygon fill="black" stroke="black" points="334.96,-1783.9 332,-1773.73 327.97,-1783.53 334.96,-1783.9"/>
</g>
<!-- Grey Wilkes -->
<g id="node49" class="node">
<title>Grey Wilkes</title>
<polygon fill="lightcoral" stroke="lightcoral" points="475.25,-1885 385,-1885 385,-1808 475.25,-1808 475.25,-1885"/>
<image xlink:href="img/mob.png" width="90.25px" height="77px" preserveAspectRatio="xMinYMin meet" x="385" y="-1885"/>
<text text-anchor="middle" x="430.12" y="-1840.7" font-family="MS Gothic" font-size="14.00">Grey Wilkes</text>
</g>
<!-- Grey Wilkes&#45;&gt;Snake Mare -->
<g id="edge48" class="edge">
<title>Grey Wilkes&#45;&gt;Snake Mare</title>
<path fill="none" stroke="black" d="M397.36,-1807.61C389.86,-1798.95 381.82,-1789.65 374.07,-1780.68"/>
<polygon fill="black" stroke="black" points="376.93,-1778.64 367.74,-1773.36 371.63,-1783.22 376.93,-1778.64"/>
</g>
</g>
</svg>
