<?xml version="1.0" encoding="UTF-8" standalone="no"?>
<!DOCTYPE svg PUBLIC "-//W3C//DTD SVG 1.1//EN"
 "http://www.w3.org/Graphics/SVG/1.1/DTD/svg11.dtd">
<!-- Generated by graphviz version 12.1.2 (20240928.0832)
 -->
<!-- Pages: 1 -->
<svg width="697pt" height="763pt"
 viewBox="0.00 0.00 696.62 763.00" xmlns="http://www.w3.org/2000/svg" xmlns:xlink="http://www.w3.org/1999/xlink">
<g id="graph0" class="graph" transform="scale(1 1) rotate(0) translate(4 759)">
<polygon fill="white" stroke="none" points="-4,4 -4,-759 692.62,-759 692.62,4 -4,4"/>
<!-- Pot&#45;8&#45;Os -->
<g id="node1" class="node">
<title>Pot&#45;8&#45;Os</title>
<polygon fill="none" stroke="black" points="521.62,-77 444.62,-77 444.62,0 521.62,0 521.62,-77"/>
<image xlink:href="img/mob.png" width="77px" height="77px" preserveAspectRatio="xMinYMin meet" x="444.625" y="-77"/>
<text text-anchor="middle" x="483.12" y="-33.45" font-family="Times New Roman,serif" font-size="14.00">Pot&#45;8&#45;Os</text>
</g>
<!-- Eclipse -->
<g id="node2" class="node">
<title>Eclipse</title>
<polygon fill="lightblue" stroke="lightblue" points="465.62,-190 388.62,-190 388.62,-113 465.62,-113 465.62,-190"/>
<image xlink:href="img/mob.png" width="77px" height="77px" preserveAspectRatio="xMinYMin meet" x="388.625" y="-190"/>
<text text-anchor="middle" x="427.12" y="-145.7" font-family="MS Gothic" font-size="14.00">Eclipse</text>
</g>
<!-- Eclipse&#45;&gt;Pot&#45;8&#45;Os -->
<g id="edge1" class="edge">
<title>Eclipse&#45;&gt;Pot&#45;8&#45;Os</title>
<path fill="none" stroke="black" d="M446.24,-112.61C450.34,-104.48 454.72,-95.8 458.99,-87.35"/>
<polygon fill="black" stroke="black" points="462.03,-89.07 463.41,-78.57 455.78,-85.92 462.03,-89.07"/>
</g>
<!-- Sportsmistress -->
<g id="node3" class="node">
<title>Sportsmistress</title>
<polygon fill="lightcoral" stroke="lightcoral" points="594.38,-190 483.88,-190 483.88,-113 594.38,-113 594.38,-190"/>
<image xlink:href="img/mob.png" width="100px" height="77px" preserveAspectRatio="xMinYMin meet" x="489.125" y="-190"/>
<text text-anchor="middle" x="539.12" y="-145.7" font-family="MS Gothic" font-size="14.00">Sportsmistress</text>
</g>
<!-- Sportsmistress&#45;&gt;Pot&#45;8&#45;Os -->
<g id="edge2" class="edge">
<title>Sportsmistress&#45;&gt;Pot&#45;8&#45;Os</title>
<path fill="none" stroke="black" d="M520.01,-112.61C515.91,-104.48 511.53,-95.8 507.26,-87.35"/>
<polygon fill="black" stroke="black" points="510.47,-85.92 502.84,-78.57 504.22,-89.07 510.47,-85.92"/>
</g>
<!-- Marske -->
<g id="node4" class="node">
<title>Marske</title>
<polygon fill="lightblue" stroke="lightblue" points="375.62,-303 298.62,-303 298.62,-226 375.62,-226 375.62,-303"/>
<image xlink:href="img/mob.png" width="77px" height="77px" preserveAspectRatio="xMinYMin meet" x="298.625" y="-303"/>
<text text-anchor="middle" x="337.12" y="-258.7" font-family="MS Gothic" font-size="14.00">Marske</text>
</g>
<!-- Marske&#45;&gt;Eclipse -->
<g id="edge3" class="edge">
<title>Marske&#45;&gt;Eclipse</title>
<path fill="none" stroke="black" d="M367.85,-225.61C374.8,-217.04 382.26,-207.84 389.46,-198.96"/>
<polygon fill="black" stroke="black" points="392.01,-201.37 395.59,-191.39 386.57,-196.96 392.01,-201.37"/>
</g>
<!-- Spilletta -->
<g id="node5" class="node">
<title>Spilletta</title>
<polygon fill="lightcoral" stroke="lightcoral" points="470.62,-303 393.62,-303 393.62,-226 470.62,-226 470.62,-303"/>
<image xlink:href="img/mob.png" width="77px" height="77px" preserveAspectRatio="xMinYMin meet" x="393.625" y="-303"/>
<text text-anchor="middle" x="432.12" y="-258.7" font-family="MS Gothic" font-size="14.00">Spilletta</text>
</g>
<!-- Spilletta&#45;&gt;Eclipse -->
<g id="edge4" class="edge">
<title>Spilletta&#45;&gt;Eclipse</title>
<path fill="none" stroke="black" d="M430.42,-225.61C430.07,-217.84 429.7,-209.56 429.33,-201.46"/>
<polygon fill="black" stroke="black" points="432.84,-201.56 428.89,-191.73 425.85,-201.88 432.84,-201.56"/>
</g>
<!-- Sportsman -->
<g id="node6" class="node">
<title>Sportsman</title>
<polygon fill="lightblue" stroke="lightblue" points="573.62,-303 496.62,-303 496.62,-226 573.62,-226 573.62,-303"/>
<image xlink:href="img/mob.png" width="77px" height="77px" preserveAspectRatio="xMinYMin meet" x="496.625" y="-303"/>
<text text-anchor="middle" x="535.12" y="-258.7" font-family="MS Gothic" font-size="14.00">Sportsman</text>
</g>
<!-- Sportsman&#45;&gt;Sportsmistress -->
<g id="edge5" class="edge">
<title>Sportsman&#45;&gt;Sportsmistress</title>
<path fill="none" stroke="black" d="M536.49,-225.61C536.77,-217.84 537.07,-209.56 537.36,-201.46"/>
<polygon fill="black" stroke="black" points="540.85,-201.85 537.71,-191.73 533.85,-201.6 540.85,-201.85"/>
</g>
<!-- Golden Locks -->
<g id="node7" class="node">
<title>Golden Locks</title>
<polygon fill="lightcoral" stroke="lightcoral" points="688.62,-303 591.62,-303 591.62,-226 688.62,-226 688.62,-303"/>
<image xlink:href="img/mob.png" width="97px" height="77px" preserveAspectRatio="xMinYMin meet" x="591.625" y="-303"/>
<text text-anchor="middle" x="640.12" y="-258.7" font-family="MS Gothic" font-size="14.00">Golden Locks</text>
</g>
<!-- Golden Locks&#45;&gt;Sportsmistress -->
<g id="edge6" class="edge">
<title>Golden Locks&#45;&gt;Sportsmistress</title>
<path fill="none" stroke="black" d="M605.65,-225.61C597.77,-216.95 589.3,-207.65 581.15,-198.68"/>
<polygon fill="black" stroke="black" points="583.78,-196.38 574.46,-191.34 578.61,-201.09 583.78,-196.38"/>
</g>
<!-- Squirt -->
<g id="node8" class="node">
<title>Squirt</title>
<polygon fill="lightblue" stroke="lightblue" points="304.62,-416 227.62,-416 227.62,-339 304.62,-339 304.62,-416"/>
<image xlink:href="img/mob.png" width="77px" height="77px" preserveAspectRatio="xMinYMin meet" x="227.625" y="-416"/>
<text text-anchor="middle" x="266.12" y="-371.7" font-family="MS Gothic" font-size="14.00">Squirt</text>
</g>
<!-- Squirt&#45;&gt;Marske -->
<g id="edge7" class="edge">
<title>Squirt&#45;&gt;Marske</title>
<path fill="none" stroke="black" d="M290.36,-338.61C295.67,-330.31 301.36,-321.41 306.88,-312.79"/>
<polygon fill="black" stroke="black" points="309.74,-314.8 312.18,-304.49 303.85,-311.03 309.74,-314.8"/>
</g>
<!-- Hutton&#39;s Blacklegs Mare -->
<g id="node9" class="node">
<title>Hutton&#39;s Blacklegs Mare</title>
<polygon fill="lightcoral" stroke="lightcoral" points="493.75,-416 322.5,-416 322.5,-339 493.75,-339 493.75,-416"/>
<image xlink:href="img/mob.png" width="100px" height="77px" preserveAspectRatio="xMinYMin meet" x="358.125" y="-416"/>
<text text-anchor="middle" x="408.12" y="-371.7" font-family="MS Gothic" font-size="14.00">Hutton&#39;s Blacklegs Mare</text>
</g>
<!-- Hutton&#39;s Blacklegs Mare&#45;&gt;Marske -->
<g id="edge8" class="edge">
<title>Hutton&#39;s Blacklegs Mare&#45;&gt;Marske</title>
<path fill="none" stroke="black" d="M383.89,-338.61C378.58,-330.31 372.89,-321.41 367.37,-312.79"/>
<polygon fill="black" stroke="black" points="370.4,-311.03 362.07,-304.49 364.51,-314.8 370.4,-311.03"/>
</g>
<!-- Bartlet&#39;s Childers -->
<g id="node10" class="node">
<title>Bartlet&#39;s Childers</title>
<polygon fill="lightblue" stroke="lightblue" points="209.88,-529 72.38,-529 72.38,-452 209.88,-452 209.88,-529"/>
<image xlink:href="img/mob.png" width="100px" height="77px" preserveAspectRatio="xMinYMin meet" x="91.125" y="-529"/>
<text text-anchor="middle" x="141.12" y="-484.7" font-family="MS Gothic" font-size="14.00">Bartlet&#39;s Childers</text>
</g>
<!-- Bartlet&#39;s Childers&#45;&gt;Squirt -->
<g id="edge9" class="edge">
<title>Bartlet&#39;s Childers&#45;&gt;Squirt</title>
<path fill="none" stroke="black" d="M183.79,-451.61C195.18,-441.5 207.54,-430.53 219.14,-420.22"/>
<polygon fill="black" stroke="black" points="221.14,-423.13 226.29,-413.87 216.49,-417.89 221.14,-423.13"/>
</g>
<!-- Snake Mare -->
<g id="node11" class="node">
<title>Snake Mare</title>
<polygon fill="lightcoral" stroke="lightcoral" points="311.88,-529 228.38,-529 228.38,-452 311.88,-452 311.88,-529"/>
<image xlink:href="img/mob.png" width="83.5px" height="77px" preserveAspectRatio="xMinYMin meet" x="228.375" y="-529"/>
<text text-anchor="middle" x="270.12" y="-484.7" font-family="MS Gothic" font-size="14.00">Snake Mare</text>
</g>
<!-- Snake Mare&#45;&gt;Squirt -->
<g id="edge10" class="edge">
<title>Snake Mare&#45;&gt;Squirt</title>
<path fill="none" stroke="black" d="M268.76,-451.61C268.48,-443.84 268.18,-435.56 267.89,-427.46"/>
<polygon fill="black" stroke="black" points="271.4,-427.6 267.54,-417.73 264.4,-427.85 271.4,-427.6"/>
</g>
<!-- Hutton&#39;s Blacklegs -->
<g id="node12" class="node">
<title>Hutton&#39;s Blacklegs</title>
<polygon fill="lightblue" stroke="lightblue" points="473.88,-529 336.38,-529 336.38,-452 473.88,-452 473.88,-529"/>
<image xlink:href="img/mob.png" width="100px" height="77px" preserveAspectRatio="xMinYMin meet" x="355.125" y="-529"/>
<text text-anchor="middle" x="405.12" y="-484.7" font-family="MS Gothic" font-size="14.00">Hutton&#39;s Blacklegs</text>
</g>
<!-- Hutton&#39;s Blacklegs&#45;&gt;Hutton&#39;s Blacklegs Mare -->
<g id="edge11" class="edge">
<title>Hutton&#39;s Blacklegs&#45;&gt;Hutton&#39;s Blacklegs Mare</title>
<path fill="none" stroke="black" d="M406.15,-451.61C406.36,-443.84 406.58,-435.56 406.8,-427.46"/>
<polygon fill="black" stroke="black" points="410.29,-427.82 407.06,-417.73 403.3,-427.63 410.29,-427.82"/>
</g>
<!-- Bay Bolton Mare -->
<g id="node13" class="node">
<title>Bay Bolton Mare</title>
<polygon fill="lightcoral" stroke="lightcoral" points="608.75,-529 491.5,-529 491.5,-452 608.75,-452 608.75,-529"/>
<image xlink:href="img/mob.png" width="100px" height="77px" preserveAspectRatio="xMinYMin meet" x="500.125" y="-529"/>
<text text-anchor="middle" x="550.12" y="-484.7" font-family="MS Gothic" font-size="14.00">Bay Bolton Mare</text>
</g>
<!-- Bay Bolton Mare&#45;&gt;Hutton&#39;s Blacklegs Mare -->
<g id="edge12" class="edge">
<title>Bay Bolton Mare&#45;&gt;Hutton&#39;s Blacklegs Mare</title>
<path fill="none" stroke="black" d="M501.65,-451.61C490,-442.5 477.45,-432.69 465.43,-423.3"/>
<polygon fill="black" stroke="black" points="467.6,-420.55 457.57,-417.15 463.29,-426.07 467.6,-420.55"/>
</g>
<!-- ダーレーアラビアン -->
<g id="node14" class="node">
<title>ダーレーアラビアン</title>
<polygon fill="lightblue" stroke="lightblue" points="144.25,-642 0,-642 0,-565 144.25,-565 144.25,-642"/>
<image xlink:href="img/darearabian.png" width="100px" height="77px" preserveAspectRatio="xMinYMin meet" x="22.125" y="-642"/>
<text text-anchor="middle" x="72.12" y="-597.7" font-family="MS Gothic" font-size="14.00">ダーレーアラビアン</text>
</g>
<!-- ダーレーアラビアン&#45;&gt;Bartlet&#39;s Childers -->
<g id="edge13" class="edge">
<title>ダーレーアラビアン&#45;&gt;Bartlet&#39;s Childers</title>
<path fill="none" stroke="black" d="M95.68,-564.61C100.84,-556.31 106.37,-547.41 111.73,-538.79"/>
<polygon fill="black" stroke="black" points="114.57,-540.84 116.88,-530.5 108.63,-537.15 114.57,-540.84"/>
</g>
<!-- Betty Leedes -->
<g id="node15" class="node">
<title>Betty Leedes</title>
<polygon fill="lightcoral" stroke="lightcoral" points="259.62,-642 162.62,-642 162.62,-565 259.62,-565 259.62,-642"/>
<image xlink:href="img/mob.png" width="97px" height="77px" preserveAspectRatio="xMinYMin meet" x="162.625" y="-642"/>
<text text-anchor="middle" x="211.12" y="-597.7" font-family="MS Gothic" font-size="14.00">Betty Leedes</text>
</g>
<!-- Betty Leedes&#45;&gt;Bartlet&#39;s Childers -->
<g id="edge14" class="edge">
<title>Betty Leedes&#45;&gt;Bartlet&#39;s Childers</title>
<path fill="none" stroke="black" d="M187.23,-564.61C181.99,-556.31 176.39,-547.41 170.95,-538.79"/>
<polygon fill="black" stroke="black" points="174.01,-537.09 165.72,-530.5 168.09,-540.82 174.01,-537.09"/>
</g>
<!-- Old Careless -->
<g id="node16" class="node">
<title>Old Careless</title>
<polygon fill="lightblue" stroke="lightblue" points="201.62,-755 104.62,-755 104.62,-678 201.62,-678 201.62,-755"/>
<image xlink:href="img/mob.png" width="97px" height="77px" preserveAspectRatio="xMinYMin meet" x="104.625" y="-755"/>
<text text-anchor="middle" x="153.12" y="-710.7" font-family="MS Gothic" font-size="14.00">Old Careless</text>
</g>
<!-- Old Careless&#45;&gt;Betty Leedes -->
<g id="edge15" class="edge">
<title>Old Careless&#45;&gt;Betty Leedes</title>
<path fill="none" stroke="black" d="M172.92,-677.61C177.17,-669.48 181.71,-660.8 186.12,-652.35"/>
<polygon fill="black" stroke="black" points="189.19,-654.04 190.72,-643.56 182.98,-650.8 189.19,-654.04"/>
</g>
<!-- Cream Cheeks -->
<g id="node17" class="node">
<title>Cream Cheeks</title>
<polygon fill="lightcoral" stroke="lightcoral" points="316.62,-755 219.62,-755 219.62,-678 316.62,-678 316.62,-755"/>
<image xlink:href="img/mob.png" width="97px" height="77px" preserveAspectRatio="xMinYMin meet" x="219.625" y="-755"/>
<text text-anchor="middle" x="268.12" y="-710.7" font-family="MS Gothic" font-size="14.00">Cream Cheeks</text>
</g>
<!-- Cream Cheeks&#45;&gt;Betty Leedes -->
<g id="edge16" class="edge">
<title>Cream Cheeks&#45;&gt;Betty Leedes</title>
<path fill="none" stroke="black" d="M248.67,-677.61C244.5,-669.48 240.03,-660.8 235.7,-652.35"/>
<polygon fill="black" stroke="black" points="238.87,-650.86 231.19,-643.57 232.64,-654.06 238.87,-650.86"/>
</g>
</g>
</svg>
