<?xml version="1.0" encoding="UTF-8" standalone="no"?>
<!DOCTYPE svg PUBLIC "-//W3C//DTD SVG 1.1//EN"
 "http://www.w3.org/Graphics/SVG/1.1/DTD/svg11.dtd">
<!-- Generated by graphviz version 12.1.2 (20240928.0832)
 -->
<!-- Pages: 1 -->
<svg width="814pt" height="763pt"
 viewBox="0.00 0.00 813.62 763.00" xmlns="http://www.w3.org/2000/svg" xmlns:xlink="http://www.w3.org/1999/xlink">
<g id="graph0" class="graph" transform="scale(1 1) rotate(0) translate(4 759)">
<polygon fill="white" stroke="none" points="-4,4 -4,-759 809.62,-759 809.62,4 -4,4"/>
<!-- Pot&#45;8&#45;Os -->
<g id="node1" class="node">
<title>Pot&#45;8&#45;Os</title>
<polygon fill="none" stroke="black" points="638.62,-77 561.62,-77 561.62,0 638.62,0 638.62,-77"/>
<image xlink:href="img/mob.png" width="77px" height="77px" preserveAspectRatio="xMinYMin meet" x="561.625" y="-77"/>
<text text-anchor="middle" x="600.12" y="-33.45" font-family="Times New Roman,serif" font-size="14.00">Pot&#45;8&#45;Os</text>
</g>
<!-- Eclipse -->
<g id="node2" class="node">
<title>Eclipse</title>
<polygon fill="lightblue" stroke="lightblue" points="582.62,-190 505.62,-190 505.62,-113 582.62,-113 582.62,-190"/>
<image xlink:href="img/mob.png" width="77px" height="77px" preserveAspectRatio="xMinYMin meet" x="505.625" y="-190"/>
<text text-anchor="middle" x="544.12" y="-145.7" font-family="MS Gothic" font-size="14.00">Eclipse</text>
</g>
<!-- Eclipse&#45;&gt;Pot&#45;8&#45;Os -->
<g id="edge1" class="edge">
<title>Eclipse&#45;&gt;Pot&#45;8&#45;Os</title>
<path fill="none" stroke="black" d="M563.24,-112.61C567.34,-104.48 571.72,-95.8 575.99,-87.35"/>
<polygon fill="black" stroke="black" points="579.03,-89.07 580.41,-78.57 572.78,-85.92 579.03,-89.07"/>
</g>
<!-- Sportsmistress -->
<g id="node3" class="node">
<title>Sportsmistress</title>
<polygon fill="lightcoral" stroke="lightcoral" points="711.38,-190 600.88,-190 600.88,-113 711.38,-113 711.38,-190"/>
<image xlink:href="img/mob.png" width="100px" height="77px" preserveAspectRatio="xMinYMin meet" x="606.125" y="-190"/>
<text text-anchor="middle" x="656.12" y="-145.7" font-family="MS Gothic" font-size="14.00">Sportsmistress</text>
</g>
<!-- Sportsmistress&#45;&gt;Pot&#45;8&#45;Os -->
<g id="edge2" class="edge">
<title>Sportsmistress&#45;&gt;Pot&#45;8&#45;Os</title>
<path fill="none" stroke="black" d="M637.01,-112.61C632.91,-104.48 628.53,-95.8 624.26,-87.35"/>
<polygon fill="black" stroke="black" points="627.47,-85.92 619.84,-78.57 621.22,-89.07 627.47,-85.92"/>
</g>
<!-- Marske -->
<g id="node4" class="node">
<title>Marske</title>
<polygon fill="lightblue" stroke="lightblue" points="492.62,-303 415.62,-303 415.62,-226 492.62,-226 492.62,-303"/>
<image xlink:href="img/mob.png" width="77px" height="77px" preserveAspectRatio="xMinYMin meet" x="415.625" y="-303"/>
<text text-anchor="middle" x="454.12" y="-258.7" font-family="MS Gothic" font-size="14.00">Marske</text>
</g>
<!-- Marske&#45;&gt;Eclipse -->
<g id="edge3" class="edge">
<title>Marske&#45;&gt;Eclipse</title>
<path fill="none" stroke="black" d="M484.85,-225.61C491.8,-217.04 499.26,-207.84 506.46,-198.96"/>
<polygon fill="black" stroke="black" points="509.01,-201.37 512.59,-191.39 503.57,-196.96 509.01,-201.37"/>
</g>
<!-- Spilletta -->
<g id="node5" class="node">
<title>Spilletta</title>
<polygon fill="lightcoral" stroke="lightcoral" points="587.62,-303 510.62,-303 510.62,-226 587.62,-226 587.62,-303"/>
<image xlink:href="img/mob.png" width="77px" height="77px" preserveAspectRatio="xMinYMin meet" x="510.625" y="-303"/>
<text text-anchor="middle" x="549.12" y="-258.7" font-family="MS Gothic" font-size="14.00">Spilletta</text>
</g>
<!-- Spilletta&#45;&gt;Eclipse -->
<g id="edge4" class="edge">
<title>Spilletta&#45;&gt;Eclipse</title>
<path fill="none" stroke="black" d="M547.42,-225.61C547.07,-217.84 546.7,-209.56 546.33,-201.46"/>
<polygon fill="black" stroke="black" points="549.84,-201.56 545.89,-191.73 542.85,-201.88 549.84,-201.56"/>
</g>
<!-- Sportsman -->
<g id="node6" class="node">
<title>Sportsman</title>
<polygon fill="lightblue" stroke="lightblue" points="690.62,-303 613.62,-303 613.62,-226 690.62,-226 690.62,-303"/>
<image xlink:href="img/mob.png" width="77px" height="77px" preserveAspectRatio="xMinYMin meet" x="613.625" y="-303"/>
<text text-anchor="middle" x="652.12" y="-258.7" font-family="MS Gothic" font-size="14.00">Sportsman</text>
</g>
<!-- Sportsman&#45;&gt;Sportsmistress -->
<g id="edge5" class="edge">
<title>Sportsman&#45;&gt;Sportsmistress</title>
<path fill="none" stroke="black" d="M653.49,-225.61C653.77,-217.84 654.07,-209.56 654.36,-201.46"/>
<polygon fill="black" stroke="black" points="657.85,-201.85 654.71,-191.73 650.85,-201.6 657.85,-201.85"/>
</g>
<!-- Golden Locks -->
<g id="node7" class="node">
<title>Golden Locks</title>
<polygon fill="lightcoral" stroke="lightcoral" points="805.62,-303 708.62,-303 708.62,-226 805.62,-226 805.62,-303"/>
<image xlink:href="img/mob.png" width="97px" height="77px" preserveAspectRatio="xMinYMin meet" x="708.625" y="-303"/>
<text text-anchor="middle" x="757.12" y="-258.7" font-family="MS Gothic" font-size="14.00">Golden Locks</text>
</g>
<!-- Golden Locks&#45;&gt;Sportsmistress -->
<g id="edge6" class="edge">
<title>Golden Locks&#45;&gt;Sportsmistress</title>
<path fill="none" stroke="black" d="M722.65,-225.61C714.77,-216.95 706.3,-207.65 698.15,-198.68"/>
<polygon fill="black" stroke="black" points="700.78,-196.38 691.46,-191.34 695.61,-201.09 700.78,-196.38"/>
</g>
<!-- Squirt -->
<g id="node8" class="node">
<title>Squirt</title>
<polygon fill="lightblue" stroke="lightblue" points="421.62,-416 344.62,-416 344.62,-339 421.62,-339 421.62,-416"/>
<image xlink:href="img/mob.png" width="77px" height="77px" preserveAspectRatio="xMinYMin meet" x="344.625" y="-416"/>
<text text-anchor="middle" x="383.12" y="-371.7" font-family="MS Gothic" font-size="14.00">Squirt</text>
</g>
<!-- Squirt&#45;&gt;Marske -->
<g id="edge7" class="edge">
<title>Squirt&#45;&gt;Marske</title>
<path fill="none" stroke="black" d="M407.36,-338.61C412.67,-330.31 418.36,-321.41 423.88,-312.79"/>
<polygon fill="black" stroke="black" points="426.74,-314.8 429.18,-304.49 420.85,-311.03 426.74,-314.8"/>
</g>
<!-- Hutton&#39;s Blacklegs Mare -->
<g id="node9" class="node">
<title>Hutton&#39;s Blacklegs Mare</title>
<polygon fill="lightcoral" stroke="lightcoral" points="610.75,-416 439.5,-416 439.5,-339 610.75,-339 610.75,-416"/>
<image xlink:href="img/mob.png" width="100px" height="77px" preserveAspectRatio="xMinYMin meet" x="475.125" y="-416"/>
<text text-anchor="middle" x="525.12" y="-371.7" font-family="MS Gothic" font-size="14.00">Hutton&#39;s Blacklegs Mare</text>
</g>
<!-- Hutton&#39;s Blacklegs Mare&#45;&gt;Marske -->
<g id="edge8" class="edge">
<title>Hutton&#39;s Blacklegs Mare&#45;&gt;Marske</title>
<path fill="none" stroke="black" d="M500.89,-338.61C495.58,-330.31 489.89,-321.41 484.37,-312.79"/>
<polygon fill="black" stroke="black" points="487.4,-311.03 479.07,-304.49 481.51,-314.8 487.4,-311.03"/>
</g>
<!-- Bartlet&#39;s Childers -->
<g id="node10" class="node">
<title>Bartlet&#39;s Childers</title>
<polygon fill="lightblue" stroke="lightblue" points="279.88,-529 142.38,-529 142.38,-452 279.88,-452 279.88,-529"/>
<image xlink:href="img/mob.png" width="100px" height="77px" preserveAspectRatio="xMinYMin meet" x="161.125" y="-529"/>
<text text-anchor="middle" x="211.12" y="-484.7" font-family="MS Gothic" font-size="14.00">Bartlet&#39;s Childers</text>
</g>
<!-- Bartlet&#39;s Childers&#45;&gt;Squirt -->
<g id="edge9" class="edge">
<title>Bartlet&#39;s Childers&#45;&gt;Squirt</title>
<path fill="none" stroke="black" d="M269.84,-451.61C290.91,-438.01 314.43,-422.83 334.55,-409.85"/>
<polygon fill="black" stroke="black" points="336.35,-412.85 342.85,-404.49 332.55,-406.97 336.35,-412.85"/>
</g>
<!-- Snake Mare -->
<g id="node11" class="node">
<title>Snake Mare</title>
<polygon fill="lightcoral" stroke="lightcoral" points="428.88,-529 345.38,-529 345.38,-452 428.88,-452 428.88,-529"/>
<image xlink:href="img/mob.png" width="83.5px" height="77px" preserveAspectRatio="xMinYMin meet" x="345.375" y="-529"/>
<text text-anchor="middle" x="387.12" y="-484.7" font-family="MS Gothic" font-size="14.00">Snake Mare</text>
</g>
<!-- Snake Mare&#45;&gt;Squirt -->
<g id="edge10" class="edge">
<title>Snake Mare&#45;&gt;Squirt</title>
<path fill="none" stroke="black" d="M385.76,-451.61C385.48,-443.84 385.18,-435.56 384.89,-427.46"/>
<polygon fill="black" stroke="black" points="388.4,-427.6 384.54,-417.73 381.4,-427.85 388.4,-427.6"/>
</g>
<!-- Hutton&#39;s Blacklegs -->
<g id="node12" class="node">
<title>Hutton&#39;s Blacklegs</title>
<polygon fill="lightblue" stroke="lightblue" points="590.88,-529 453.38,-529 453.38,-452 590.88,-452 590.88,-529"/>
<image xlink:href="img/mob.png" width="100px" height="77px" preserveAspectRatio="xMinYMin meet" x="472.125" y="-529"/>
<text text-anchor="middle" x="522.12" y="-484.7" font-family="MS Gothic" font-size="14.00">Hutton&#39;s Blacklegs</text>
</g>
<!-- Hutton&#39;s Blacklegs&#45;&gt;Hutton&#39;s Blacklegs Mare -->
<g id="edge11" class="edge">
<title>Hutton&#39;s Blacklegs&#45;&gt;Hutton&#39;s Blacklegs Mare</title>
<path fill="none" stroke="black" d="M523.15,-451.61C523.36,-443.84 523.58,-435.56 523.8,-427.46"/>
<polygon fill="black" stroke="black" points="527.29,-427.82 524.06,-417.73 520.3,-427.63 527.29,-427.82"/>
</g>
<!-- Bay Bolton Mare -->
<g id="node13" class="node">
<title>Bay Bolton Mare</title>
<polygon fill="lightcoral" stroke="lightcoral" points="725.75,-529 608.5,-529 608.5,-452 725.75,-452 725.75,-529"/>
<image xlink:href="img/mob.png" width="100px" height="77px" preserveAspectRatio="xMinYMin meet" x="617.125" y="-529"/>
<text text-anchor="middle" x="667.12" y="-484.7" font-family="MS Gothic" font-size="14.00">Bay Bolton Mare</text>
</g>
<!-- Bay Bolton Mare&#45;&gt;Hutton&#39;s Blacklegs Mare -->
<g id="edge12" class="edge">
<title>Bay Bolton Mare&#45;&gt;Hutton&#39;s Blacklegs Mare</title>
<path fill="none" stroke="black" d="M618.65,-451.61C607,-442.5 594.45,-432.69 582.43,-423.3"/>
<polygon fill="black" stroke="black" points="584.6,-420.55 574.57,-417.15 580.29,-426.07 584.6,-420.55"/>
</g>
<!-- ダーレーアラビアン -->
<g id="node14" class="node">
<title>ダーレーアラビアン</title>
<polygon fill="lightblue" stroke="lightblue" points="144.25,-642 0,-642 0,-565 144.25,-565 144.25,-642"/>
<image xlink:href="img/darearabian.png" width="100px" height="77px" preserveAspectRatio="xMinYMin meet" x="22.125" y="-642"/>
<text text-anchor="middle" x="72.12" y="-597.7" font-family="MS Gothic" font-size="14.00">ダーレーアラビアン</text>
</g>
<!-- ダーレーアラビアン&#45;&gt;Bartlet&#39;s Childers -->
<g id="edge13" class="edge">
<title>ダーレーアラビアン&#45;&gt;Bartlet&#39;s Childers</title>
<path fill="none" stroke="black" d="M119.57,-564.61C130.98,-555.5 143.27,-545.69 155.03,-536.3"/>
<polygon fill="black" stroke="black" points="157.08,-539.14 162.71,-530.16 152.71,-533.67 157.08,-539.14"/>
</g>
<!-- Betty Leedes -->
<g id="node15" class="node">
<title>Betty Leedes</title>
<polygon fill="lightcoral" stroke="lightcoral" points="259.62,-642 162.62,-642 162.62,-565 259.62,-565 259.62,-642"/>
<image xlink:href="img/mob.png" width="97px" height="77px" preserveAspectRatio="xMinYMin meet" x="162.625" y="-642"/>
<text text-anchor="middle" x="211.12" y="-597.7" font-family="MS Gothic" font-size="14.00">Betty Leedes</text>
</g>
<!-- Betty Leedes&#45;&gt;Bartlet&#39;s Childers -->
<g id="edge14" class="edge">
<title>Betty Leedes&#45;&gt;Bartlet&#39;s Childers</title>
<path fill="none" stroke="black" d="M211.12,-564.61C211.12,-556.84 211.12,-548.56 211.12,-540.46"/>
<polygon fill="black" stroke="black" points="214.63,-540.73 211.13,-530.73 207.63,-540.73 214.63,-540.73"/>
</g>
<!-- Old Careless -->
<g id="node16" class="node">
<title>Old Careless</title>
<polygon fill="lightblue" stroke="lightblue" points="144.62,-755 47.62,-755 47.62,-678 144.62,-678 144.62,-755"/>
<image xlink:href="img/mob.png" width="97px" height="77px" preserveAspectRatio="xMinYMin meet" x="47.625" y="-755"/>
<text text-anchor="middle" x="96.12" y="-710.7" font-family="MS Gothic" font-size="14.00">Old Careless</text>
</g>
<!-- Old Careless&#45;&gt;Betty Leedes -->
<g id="edge15" class="edge">
<title>Old Careless&#45;&gt;Betty Leedes</title>
<path fill="none" stroke="black" d="M135.38,-677.61C144.54,-668.77 154.39,-659.26 163.85,-650.13"/>
<polygon fill="black" stroke="black" points="166.19,-652.73 170.96,-643.27 161.33,-647.7 166.19,-652.73"/>
</g>
<!-- Cream Cheeks -->
<g id="node17" class="node">
<title>Cream Cheeks</title>
<polygon fill="lightcoral" stroke="lightcoral" points="259.62,-755 162.62,-755 162.62,-678 259.62,-678 259.62,-755"/>
<image xlink:href="img/mob.png" width="97px" height="77px" preserveAspectRatio="xMinYMin meet" x="162.625" y="-755"/>
<text text-anchor="middle" x="211.12" y="-710.7" font-family="MS Gothic" font-size="14.00">Cream Cheeks</text>
</g>
<!-- Cream Cheeks&#45;&gt;Betty Leedes -->
<g id="edge16" class="edge">
<title>Cream Cheeks&#45;&gt;Betty Leedes</title>
<path fill="none" stroke="black" d="M211.12,-677.61C211.12,-669.84 211.12,-661.56 211.12,-653.46"/>
<polygon fill="black" stroke="black" points="214.63,-653.73 211.13,-643.73 207.63,-653.73 214.63,-653.73"/>
</g>
<!-- Snake -->
<g id="node18" class="node">
<title>Snake</title>
<polygon fill="lightblue" stroke="lightblue" points="425.62,-642 348.62,-642 348.62,-565 425.62,-565 425.62,-642"/>
<image xlink:href="img/mob.png" width="77px" height="77px" preserveAspectRatio="xMinYMin meet" x="348.625" y="-642"/>
<text text-anchor="middle" x="387.12" y="-597.7" font-family="MS Gothic" font-size="14.00">Snake</text>
</g>
<!-- Snake&#45;&gt;Snake Mare -->
<g id="edge17" class="edge">
<title>Snake&#45;&gt;Snake Mare</title>
<path fill="none" stroke="black" d="M387.12,-564.61C387.12,-556.84 387.12,-548.56 387.12,-540.46"/>
<polygon fill="black" stroke="black" points="390.63,-540.73 387.13,-530.73 383.63,-540.73 390.63,-540.73"/>
</g>
<!-- Grey Wilkes -->
<g id="node19" class="node">
<title>Grey Wilkes</title>
<polygon fill="lightcoral" stroke="lightcoral" points="585.25,-642 495,-642 495,-565 585.25,-565 585.25,-642"/>
<image xlink:href="img/mob.png" width="90.25px" height="77px" preserveAspectRatio="xMinYMin meet" x="495" y="-642"/>
<text text-anchor="middle" x="540.12" y="-597.7" font-family="MS Gothic" font-size="14.00">Grey Wilkes</text>
</g>
<!-- Grey Wilkes&#45;&gt;Snake Mare -->
<g id="edge18" class="edge">
<title>Grey Wilkes&#45;&gt;Snake Mare</title>
<path fill="none" stroke="black" d="M494.63,-569.5C477.01,-556.71 456.73,-542 438.58,-528.83"/>
<polygon fill="black" stroke="black" points="440.68,-526.03 430.53,-522.99 436.57,-531.69 440.68,-526.03"/>
</g>
<!-- Lister Turk -->
<g id="node20" class="node">
<title>Lister Turk</title>
<polygon fill="lightblue" stroke="lightblue" points="368.25,-755 278,-755 278,-678 368.25,-678 368.25,-755"/>
<image xlink:href="img/mob.png" width="90.25px" height="77px" preserveAspectRatio="xMinYMin meet" x="278" y="-755"/>
<text text-anchor="middle" x="323.12" y="-710.7" font-family="MS Gothic" font-size="14.00">Lister Turk</text>
</g>
<!-- Lister Turk&#45;&gt;Snake -->
<g id="edge19" class="edge">
<title>Lister Turk&#45;&gt;Snake</title>
<path fill="none" stroke="black" d="M344.97,-677.61C349.71,-669.39 354.78,-660.6 359.7,-652.07"/>
<polygon fill="black" stroke="black" points="362.66,-653.94 364.62,-643.53 356.59,-650.44 362.66,-653.94"/>
</g>
<!-- Hautboy Mare -->
<g id="node21" class="node">
<title>Hautboy Mare</title>
<polygon fill="lightcoral" stroke="lightcoral" points="483.62,-755 386.62,-755 386.62,-678 483.62,-678 483.62,-755"/>
<image xlink:href="img/mob.png" width="97px" height="77px" preserveAspectRatio="xMinYMin meet" x="386.625" y="-755"/>
<text text-anchor="middle" x="435.12" y="-710.7" font-family="MS Gothic" font-size="14.00">Hautboy Mare</text>
</g>
<!-- Hautboy Mare&#45;&gt;Snake -->
<g id="edge20" class="edge">
<title>Hautboy Mare&#45;&gt;Snake</title>
<path fill="none" stroke="black" d="M418.74,-677.61C415.26,-669.57 411.55,-660.99 407.94,-652.63"/>
<polygon fill="black" stroke="black" points="411.22,-651.4 404.04,-643.61 404.79,-654.18 411.22,-651.4"/>
</g>
<!-- Hautboy -->
<g id="node22" class="node">
<title>Hautboy</title>
<polygon fill="lightblue" stroke="lightblue" points="578.62,-755 501.62,-755 501.62,-678 578.62,-678 578.62,-755"/>
<image xlink:href="img/mob.png" width="77px" height="77px" preserveAspectRatio="xMinYMin meet" x="501.625" y="-755"/>
<text text-anchor="middle" x="540.12" y="-710.7" font-family="MS Gothic" font-size="14.00">Hautboy</text>
</g>
<!-- Hautboy&#45;&gt;Grey Wilkes -->
<g id="edge21" class="edge">
<title>Hautboy&#45;&gt;Grey Wilkes</title>
<path fill="none" stroke="black" d="M540.12,-677.61C540.12,-669.84 540.12,-661.56 540.12,-653.46"/>
<polygon fill="black" stroke="black" points="543.63,-653.73 540.13,-643.73 536.63,-653.73 543.63,-653.73"/>
</g>
<!-- Miss Darcys Pet Mare -->
<g id="node23" class="node">
<title>Miss Darcys Pet Mare</title>
<polygon fill="lightcoral" stroke="lightcoral" points="747.62,-755 596.62,-755 596.62,-678 747.62,-678 747.62,-755"/>
<image xlink:href="img/mob.png" width="100px" height="77px" preserveAspectRatio="xMinYMin meet" x="622.125" y="-755"/>
<text text-anchor="middle" x="672.12" y="-710.7" font-family="MS Gothic" font-size="14.00">Miss Darcys Pet Mare</text>
</g>
<!-- Miss Darcys Pet Mare&#45;&gt;Grey Wilkes -->
<g id="edge22" class="edge">
<title>Miss Darcys Pet Mare&#45;&gt;Grey Wilkes</title>
<path fill="none" stroke="black" d="M627.07,-677.61C616.34,-668.59 604.79,-658.88 593.73,-649.57"/>
<polygon fill="black" stroke="black" points="596.04,-646.95 586.14,-643.19 591.54,-652.31 596.04,-646.95"/>
</g>
</g>
</svg>
