<?xml version="1.0" encoding="UTF-8" standalone="no"?>
<!DOCTYPE svg PUBLIC "-//W3C//DTD SVG 1.1//EN"
 "http://www.w3.org/Graphics/SVG/1.1/DTD/svg11.dtd">
<!-- Generated by graphviz version 12.1.2 (20240928.0832)
 -->
<!-- Pages: 1 -->
<svg width="988pt" height="989pt"
 viewBox="0.00 0.00 987.88 989.00" xmlns="http://www.w3.org/2000/svg" xmlns:xlink="http://www.w3.org/1999/xlink">
<g id="graph0" class="graph" transform="scale(1 1) rotate(0) translate(4 985)">
<polygon fill="white" stroke="none" points="-4,4 -4,-985 983.88,-985 983.88,4 -4,4"/>
<!-- Sir Hercules -->
<g id="node1" class="node">
<title>Sir Hercules</title>
<polygon fill="none" stroke="black" points="833.88,-77 750.38,-77 750.38,0 833.88,0 833.88,-77"/>
<image xlink:href="img/mob.png" width="83.5px" height="77px" preserveAspectRatio="xMinYMin meet" x="750.375" y="-77"/>
<text text-anchor="middle" x="792.12" y="-33.45" font-family="Times New Roman,serif" font-size="14.00">Sir Hercules</text>
</g>
<!-- Whalebone -->
<g id="node2" class="node">
<title>Whalebone</title>
<polygon fill="lightblue" stroke="lightblue" points="783.62,-190 706.62,-190 706.62,-113 783.62,-113 783.62,-190"/>
<image xlink:href="img/mob.png" width="77px" height="77px" preserveAspectRatio="xMinYMin meet" x="706.625" y="-190"/>
<text text-anchor="middle" x="745.12" y="-145.7" font-family="MS Gothic" font-size="14.00">Whalebone</text>
</g>
<!-- Whalebone&#45;&gt;Sir Hercules -->
<g id="edge1" class="edge">
<title>Whalebone&#45;&gt;Sir Hercules</title>
<path fill="none" stroke="black" d="M761.17,-112.61C764.57,-104.57 768.21,-95.99 771.75,-87.63"/>
<polygon fill="black" stroke="black" points="774.89,-89.19 775.56,-78.61 768.44,-86.46 774.89,-89.19"/>
</g>
<!-- Peri -->
<g id="node3" class="node">
<title>Peri</title>
<polygon fill="lightcoral" stroke="lightcoral" points="878.62,-190 801.62,-190 801.62,-113 878.62,-113 878.62,-190"/>
<image xlink:href="img/mob.png" width="77px" height="77px" preserveAspectRatio="xMinYMin meet" x="801.625" y="-190"/>
<text text-anchor="middle" x="840.12" y="-145.7" font-family="MS Gothic" font-size="14.00">Peri</text>
</g>
<!-- Peri&#45;&gt;Sir Hercules -->
<g id="edge2" class="edge">
<title>Peri&#45;&gt;Sir Hercules</title>
<path fill="none" stroke="black" d="M823.74,-112.61C820.26,-104.57 816.55,-95.99 812.94,-87.63"/>
<polygon fill="black" stroke="black" points="816.22,-86.4 809.04,-78.61 809.79,-89.18 816.22,-86.4"/>
</g>
<!-- Waxy -->
<g id="node4" class="node">
<title>Waxy</title>
<polygon fill="lightblue" stroke="lightblue" points="688.62,-303 611.62,-303 611.62,-226 688.62,-226 688.62,-303"/>
<image xlink:href="img/mob.png" width="77px" height="77px" preserveAspectRatio="xMinYMin meet" x="611.625" y="-303"/>
<text text-anchor="middle" x="650.12" y="-258.7" font-family="MS Gothic" font-size="14.00">Waxy</text>
</g>
<!-- Waxy&#45;&gt;Whalebone -->
<g id="edge3" class="edge">
<title>Waxy&#45;&gt;Whalebone</title>
<path fill="none" stroke="black" d="M682.55,-225.61C689.89,-217.04 697.76,-207.84 705.36,-198.96"/>
<polygon fill="black" stroke="black" points="708.02,-201.24 711.86,-191.37 702.7,-196.69 708.02,-201.24"/>
</g>
<!-- Penelope -->
<g id="node5" class="node">
<title>Penelope</title>
<polygon fill="lightcoral" stroke="lightcoral" points="783.62,-303 706.62,-303 706.62,-226 783.62,-226 783.62,-303"/>
<image xlink:href="img/mob.png" width="77px" height="77px" preserveAspectRatio="xMinYMin meet" x="706.625" y="-303"/>
<text text-anchor="middle" x="745.12" y="-258.7" font-family="MS Gothic" font-size="14.00">Penelope</text>
</g>
<!-- Penelope&#45;&gt;Whalebone -->
<g id="edge4" class="edge">
<title>Penelope&#45;&gt;Whalebone</title>
<path fill="none" stroke="black" d="M745.12,-225.61C745.12,-217.84 745.12,-209.56 745.12,-201.46"/>
<polygon fill="black" stroke="black" points="748.63,-201.73 745.13,-191.73 741.63,-201.73 748.63,-201.73"/>
</g>
<!-- Wanderer -->
<g id="node6" class="node">
<title>Wanderer</title>
<polygon fill="lightblue" stroke="lightblue" points="878.62,-303 801.62,-303 801.62,-226 878.62,-226 878.62,-303"/>
<image xlink:href="img/mob.png" width="77px" height="77px" preserveAspectRatio="xMinYMin meet" x="801.625" y="-303"/>
<text text-anchor="middle" x="840.12" y="-258.7" font-family="MS Gothic" font-size="14.00">Wanderer</text>
</g>
<!-- Wanderer&#45;&gt;Peri -->
<g id="edge5" class="edge">
<title>Wanderer&#45;&gt;Peri</title>
<path fill="none" stroke="black" d="M840.12,-225.61C840.12,-217.84 840.12,-209.56 840.12,-201.46"/>
<polygon fill="black" stroke="black" points="843.63,-201.73 840.13,-191.73 836.63,-201.73 843.63,-201.73"/>
</g>
<!-- Thalestris -->
<g id="node7" class="node">
<title>Thalestris</title>
<polygon fill="lightcoral" stroke="lightcoral" points="979.88,-303 896.38,-303 896.38,-226 979.88,-226 979.88,-303"/>
<image xlink:href="img/mob.png" width="83.5px" height="77px" preserveAspectRatio="xMinYMin meet" x="896.375" y="-303"/>
<text text-anchor="middle" x="938.12" y="-258.7" font-family="MS Gothic" font-size="14.00">Thalestris</text>
</g>
<!-- Thalestris&#45;&gt;Peri -->
<g id="edge6" class="edge">
<title>Thalestris&#45;&gt;Peri</title>
<path fill="none" stroke="black" d="M904.67,-225.61C897.03,-216.95 888.81,-207.65 880.9,-198.68"/>
<polygon fill="black" stroke="black" points="883.67,-196.53 874.43,-191.35 878.42,-201.17 883.67,-196.53"/>
</g>
<!-- Pot&#45;8&#45;Os -->
<g id="node8" class="node">
<title>Pot&#45;8&#45;Os</title>
<polygon fill="lightblue" stroke="lightblue" points="632.62,-416 555.62,-416 555.62,-339 632.62,-339 632.62,-416"/>
<image xlink:href="img/mob.png" width="77px" height="77px" preserveAspectRatio="xMinYMin meet" x="555.625" y="-416"/>
<text text-anchor="middle" x="594.12" y="-371.7" font-family="MS Gothic" font-size="14.00">Pot&#45;8&#45;Os</text>
</g>
<!-- Pot&#45;8&#45;Os&#45;&gt;Waxy -->
<g id="edge7" class="edge">
<title>Pot&#45;8&#45;Os&#45;&gt;Waxy</title>
<path fill="none" stroke="black" d="M613.24,-338.61C617.34,-330.48 621.72,-321.8 625.99,-313.35"/>
<polygon fill="black" stroke="black" points="629.03,-315.07 630.41,-304.57 622.78,-311.92 629.03,-315.07"/>
</g>
<!-- Maria III -->
<g id="node9" class="node">
<title>Maria III</title>
<polygon fill="lightcoral" stroke="lightcoral" points="744.62,-416 667.62,-416 667.62,-339 744.62,-339 744.62,-416"/>
<image xlink:href="img/mob.png" width="77px" height="77px" preserveAspectRatio="xMinYMin meet" x="667.625" y="-416"/>
<text text-anchor="middle" x="706.12" y="-371.7" font-family="MS Gothic" font-size="14.00">Maria III</text>
</g>
<!-- Maria III&#45;&gt;Waxy -->
<g id="edge8" class="edge">
<title>Maria III&#45;&gt;Waxy</title>
<path fill="none" stroke="black" d="M687.01,-338.61C682.91,-330.48 678.53,-321.8 674.26,-313.35"/>
<polygon fill="black" stroke="black" points="677.47,-311.92 669.84,-304.57 671.22,-315.07 677.47,-311.92"/>
</g>
<!-- Eclipse -->
<g id="node10" class="node">
<title>Eclipse</title>
<polygon fill="lightblue" stroke="lightblue" points="520.62,-529 443.62,-529 443.62,-452 520.62,-452 520.62,-529"/>
<image xlink:href="img/mob.png" width="77px" height="77px" preserveAspectRatio="xMinYMin meet" x="443.625" y="-529"/>
<text text-anchor="middle" x="482.12" y="-484.7" font-family="MS Gothic" font-size="14.00">Eclipse</text>
</g>
<!-- Eclipse&#45;&gt;Pot&#45;8&#45;Os -->
<g id="edge9" class="edge">
<title>Eclipse&#45;&gt;Pot&#45;8&#45;Os</title>
<path fill="none" stroke="black" d="M520.36,-451.61C529.28,-442.77 538.87,-433.26 548.09,-424.13"/>
<polygon fill="black" stroke="black" points="550.35,-426.81 554.99,-417.28 545.42,-421.84 550.35,-426.81"/>
</g>
<!-- Sportsmistress -->
<g id="node11" class="node">
<title>Sportsmistress</title>
<polygon fill="lightcoral" stroke="lightcoral" points="649.38,-529 538.88,-529 538.88,-452 649.38,-452 649.38,-529"/>
<image xlink:href="img/mob.png" width="100px" height="77px" preserveAspectRatio="xMinYMin meet" x="544.125" y="-529"/>
<text text-anchor="middle" x="594.12" y="-484.7" font-family="MS Gothic" font-size="14.00">Sportsmistress</text>
</g>
<!-- Sportsmistress&#45;&gt;Pot&#45;8&#45;Os -->
<g id="edge10" class="edge">
<title>Sportsmistress&#45;&gt;Pot&#45;8&#45;Os</title>
<path fill="none" stroke="black" d="M594.12,-451.61C594.12,-443.84 594.12,-435.56 594.12,-427.46"/>
<polygon fill="black" stroke="black" points="597.63,-427.73 594.13,-417.73 590.63,-427.73 597.63,-427.73"/>
</g>
<!-- Herod -->
<g id="node12" class="node">
<title>Herod</title>
<polygon fill="lightblue" stroke="lightblue" points="744.62,-529 667.62,-529 667.62,-452 744.62,-452 744.62,-529"/>
<image xlink:href="img/mob.png" width="77px" height="77px" preserveAspectRatio="xMinYMin meet" x="667.625" y="-529"/>
<text text-anchor="middle" x="706.12" y="-484.7" font-family="MS Gothic" font-size="14.00">Herod</text>
</g>
<!-- Herod&#45;&gt;Maria III -->
<g id="edge11" class="edge">
<title>Herod&#45;&gt;Maria III</title>
<path fill="none" stroke="black" d="M706.12,-451.61C706.12,-443.84 706.12,-435.56 706.12,-427.46"/>
<polygon fill="black" stroke="black" points="709.63,-427.73 706.13,-417.73 702.63,-427.73 709.63,-427.73"/>
</g>
<!-- Lisette -->
<g id="node13" class="node">
<title>Lisette</title>
<polygon fill="lightcoral" stroke="lightcoral" points="839.62,-529 762.62,-529 762.62,-452 839.62,-452 839.62,-529"/>
<image xlink:href="img/mob.png" width="77px" height="77px" preserveAspectRatio="xMinYMin meet" x="762.625" y="-529"/>
<text text-anchor="middle" x="801.12" y="-484.7" font-family="MS Gothic" font-size="14.00">Lisette</text>
</g>
<!-- Lisette&#45;&gt;Maria III -->
<g id="edge12" class="edge">
<title>Lisette&#45;&gt;Maria III</title>
<path fill="none" stroke="black" d="M768.7,-451.61C761.36,-443.04 753.49,-433.84 745.89,-424.96"/>
<polygon fill="black" stroke="black" points="748.55,-422.69 739.39,-417.37 743.23,-427.24 748.55,-422.69"/>
</g>
<!-- Marske -->
<g id="node14" class="node">
<title>Marske</title>
<polygon fill="lightblue" stroke="lightblue" points="449.62,-642 372.62,-642 372.62,-565 449.62,-565 449.62,-642"/>
<image xlink:href="img/mob.png" width="77px" height="77px" preserveAspectRatio="xMinYMin meet" x="372.625" y="-642"/>
<text text-anchor="middle" x="411.12" y="-597.7" font-family="MS Gothic" font-size="14.00">Marske</text>
</g>
<!-- Marske&#45;&gt;Eclipse -->
<g id="edge13" class="edge">
<title>Marske&#45;&gt;Eclipse</title>
<path fill="none" stroke="black" d="M435.36,-564.61C440.67,-556.31 446.36,-547.41 451.88,-538.79"/>
<polygon fill="black" stroke="black" points="454.74,-540.8 457.18,-530.49 448.85,-537.03 454.74,-540.8"/>
</g>
<!-- Spilletta -->
<g id="node15" class="node">
<title>Spilletta</title>
<polygon fill="lightcoral" stroke="lightcoral" points="591.62,-642 514.62,-642 514.62,-565 591.62,-565 591.62,-642"/>
<image xlink:href="img/mob.png" width="77px" height="77px" preserveAspectRatio="xMinYMin meet" x="514.625" y="-642"/>
<text text-anchor="middle" x="553.12" y="-597.7" font-family="MS Gothic" font-size="14.00">Spilletta</text>
</g>
<!-- Spilletta&#45;&gt;Eclipse -->
<g id="edge14" class="edge">
<title>Spilletta&#45;&gt;Eclipse</title>
<path fill="none" stroke="black" d="M528.89,-564.61C523.58,-556.31 517.89,-547.41 512.37,-538.79"/>
<polygon fill="black" stroke="black" points="515.4,-537.03 507.07,-530.49 509.51,-540.8 515.4,-537.03"/>
</g>
<!-- Squirt -->
<g id="node16" class="node">
<title>Squirt</title>
<polygon fill="lightblue" stroke="lightblue" points="307.62,-755 230.62,-755 230.62,-678 307.62,-678 307.62,-755"/>
<image xlink:href="img/mob.png" width="77px" height="77px" preserveAspectRatio="xMinYMin meet" x="230.625" y="-755"/>
<text text-anchor="middle" x="269.12" y="-710.7" font-family="MS Gothic" font-size="14.00">Squirt</text>
</g>
<!-- Squirt&#45;&gt;Marske -->
<g id="edge15" class="edge">
<title>Squirt&#45;&gt;Marske</title>
<path fill="none" stroke="black" d="M308.07,-684.35C310.79,-682.2 313.5,-680.06 316.12,-678 331.48,-665.94 348.31,-652.87 363.48,-641.14"/>
<polygon fill="black" stroke="black" points="365.22,-644.22 371,-635.33 360.95,-638.67 365.22,-644.22"/>
</g>
<!-- Hutton&#39;s Blacklegs Mare -->
<g id="node17" class="node">
<title>Hutton&#39;s Blacklegs Mare</title>
<polygon fill="lightcoral" stroke="lightcoral" points="496.75,-755 325.5,-755 325.5,-678 496.75,-678 496.75,-755"/>
<image xlink:href="img/mob.png" width="100px" height="77px" preserveAspectRatio="xMinYMin meet" x="361.125" y="-755"/>
<text text-anchor="middle" x="411.12" y="-710.7" font-family="MS Gothic" font-size="14.00">Hutton&#39;s Blacklegs Mare</text>
</g>
<!-- Hutton&#39;s Blacklegs Mare&#45;&gt;Marske -->
<g id="edge16" class="edge">
<title>Hutton&#39;s Blacklegs Mare&#45;&gt;Marske</title>
<path fill="none" stroke="black" d="M411.12,-677.61C411.12,-669.84 411.12,-661.56 411.12,-653.46"/>
<polygon fill="black" stroke="black" points="414.63,-653.73 411.13,-643.73 407.63,-653.73 414.63,-653.73"/>
</g>
<!-- Regulus -->
<g id="node18" class="node">
<title>Regulus</title>
<polygon fill="lightblue" stroke="lightblue" points="591.62,-755 514.62,-755 514.62,-678 591.62,-678 591.62,-755"/>
<image xlink:href="img/mob.png" width="77px" height="77px" preserveAspectRatio="xMinYMin meet" x="514.625" y="-755"/>
<text text-anchor="middle" x="553.12" y="-710.7" font-family="MS Gothic" font-size="14.00">Regulus</text>
</g>
<!-- Regulus&#45;&gt;Spilletta -->
<g id="edge17" class="edge">
<title>Regulus&#45;&gt;Spilletta</title>
<path fill="none" stroke="black" d="M553.12,-677.61C553.12,-669.84 553.12,-661.56 553.12,-653.46"/>
<polygon fill="black" stroke="black" points="556.63,-653.73 553.13,-643.73 549.63,-653.73 556.63,-653.73"/>
</g>
<!-- Mother Western -->
<g id="node19" class="node">
<title>Mother Western</title>
<polygon fill="lightcoral" stroke="lightcoral" points="720.38,-755 609.88,-755 609.88,-678 720.38,-678 720.38,-755"/>
<image xlink:href="img/mob.png" width="100px" height="77px" preserveAspectRatio="xMinYMin meet" x="615.125" y="-755"/>
<text text-anchor="middle" x="665.12" y="-710.7" font-family="MS Gothic" font-size="14.00">Mother Western</text>
</g>
<!-- Mother Western&#45;&gt;Spilletta -->
<g id="edge18" class="edge">
<title>Mother Western&#45;&gt;Spilletta</title>
<path fill="none" stroke="black" d="M626.89,-677.61C617.97,-668.77 608.38,-659.26 599.16,-650.13"/>
<polygon fill="black" stroke="black" points="601.83,-647.84 592.26,-643.28 596.9,-652.81 601.83,-647.84"/>
</g>
<!-- Bartlet&#39;s Childers -->
<g id="node20" class="node">
<title>Bartlet&#39;s Childers</title>
<polygon fill="lightblue" stroke="lightblue" points="273.88,-868 136.38,-868 136.38,-791 273.88,-791 273.88,-868"/>
<image xlink:href="img/mob.png" width="100px" height="77px" preserveAspectRatio="xMinYMin meet" x="155.125" y="-868"/>
<text text-anchor="middle" x="205.12" y="-823.7" font-family="MS Gothic" font-size="14.00">Bartlet&#39;s Childers</text>
</g>
<!-- Bartlet&#39;s Childers&#45;&gt;Squirt -->
<g id="edge19" class="edge">
<title>Bartlet&#39;s Childers&#45;&gt;Squirt</title>
<path fill="none" stroke="black" d="M226.97,-790.61C231.71,-782.39 236.78,-773.6 241.7,-765.07"/>
<polygon fill="black" stroke="black" points="244.66,-766.94 246.62,-756.53 238.59,-763.44 244.66,-766.94"/>
</g>
<!-- Snake Mare -->
<g id="node21" class="node">
<title>Snake Mare</title>
<polygon fill="lightcoral" stroke="lightcoral" points="375.88,-868 292.38,-868 292.38,-791 375.88,-791 375.88,-868"/>
<image xlink:href="img/mob.png" width="83.5px" height="77px" preserveAspectRatio="xMinYMin meet" x="292.375" y="-868"/>
<text text-anchor="middle" x="334.12" y="-823.7" font-family="MS Gothic" font-size="14.00">Snake Mare</text>
</g>
<!-- Snake Mare&#45;&gt;Squirt -->
<g id="edge20" class="edge">
<title>Snake Mare&#45;&gt;Squirt</title>
<path fill="none" stroke="black" d="M311.94,-790.61C307.13,-782.39 301.98,-773.6 296.98,-765.07"/>
<polygon fill="black" stroke="black" points="300.05,-763.39 291.98,-756.52 294.01,-766.92 300.05,-763.39"/>
</g>
<!-- ダーレーアラビアン -->
<g id="node22" class="node">
<title>ダーレーアラビアン</title>
<polygon fill="lightblue" stroke="lightblue" points="144.25,-981 0,-981 0,-904 144.25,-904 144.25,-981"/>
<image xlink:href="img/darearabian.png" width="100px" height="77px" preserveAspectRatio="xMinYMin meet" x="22.125" y="-981"/>
<text text-anchor="middle" x="72.12" y="-936.7" font-family="MS Gothic" font-size="14.00">ダーレーアラビアン</text>
</g>
<!-- ダーレーアラビアン&#45;&gt;Bartlet&#39;s Childers -->
<g id="edge21" class="edge">
<title>ダーレーアラビアン&#45;&gt;Bartlet&#39;s Childers</title>
<path fill="none" stroke="black" d="M117.52,-903.61C128.33,-894.59 139.97,-884.88 151.12,-875.57"/>
<polygon fill="black" stroke="black" points="153.33,-878.28 158.77,-869.19 148.85,-872.91 153.33,-878.28"/>
</g>
<!-- Betty Leedes -->
<g id="node23" class="node">
<title>Betty Leedes</title>
<polygon fill="lightcoral" stroke="lightcoral" points="259.62,-981 162.62,-981 162.62,-904 259.62,-904 259.62,-981"/>
<image xlink:href="img/mob.png" width="97px" height="77px" preserveAspectRatio="xMinYMin meet" x="162.625" y="-981"/>
<text text-anchor="middle" x="211.12" y="-936.7" font-family="MS Gothic" font-size="14.00">Betty Leedes</text>
</g>
<!-- Betty Leedes&#45;&gt;Bartlet&#39;s Childers -->
<g id="edge22" class="edge">
<title>Betty Leedes&#45;&gt;Bartlet&#39;s Childers</title>
<path fill="none" stroke="black" d="M209.08,-903.61C208.66,-895.84 208.21,-887.56 207.77,-879.46"/>
<polygon fill="black" stroke="black" points="211.28,-879.53 207.25,-869.73 204.29,-879.9 211.28,-879.53"/>
</g>
<!-- Snake -->
<g id="node24" class="node">
<title>Snake</title>
<polygon fill="lightblue" stroke="lightblue" points="366.62,-981 289.62,-981 289.62,-904 366.62,-904 366.62,-981"/>
<image xlink:href="img/mob.png" width="77px" height="77px" preserveAspectRatio="xMinYMin meet" x="289.625" y="-981"/>
<text text-anchor="middle" x="328.12" y="-936.7" font-family="MS Gothic" font-size="14.00">Snake</text>
</g>
<!-- Snake&#45;&gt;Snake Mare -->
<g id="edge23" class="edge">
<title>Snake&#45;&gt;Snake Mare</title>
<path fill="none" stroke="black" d="M330.17,-903.61C330.59,-895.84 331.04,-887.56 331.48,-879.46"/>
<polygon fill="black" stroke="black" points="334.96,-879.9 332,-869.73 327.97,-879.53 334.96,-879.9"/>
</g>
<!-- Grey Wilkes -->
<g id="node25" class="node">
<title>Grey Wilkes</title>
<polygon fill="lightcoral" stroke="lightcoral" points="475.25,-981 385,-981 385,-904 475.25,-904 475.25,-981"/>
<image xlink:href="img/mob.png" width="90.25px" height="77px" preserveAspectRatio="xMinYMin meet" x="385" y="-981"/>
<text text-anchor="middle" x="430.12" y="-936.7" font-family="MS Gothic" font-size="14.00">Grey Wilkes</text>
</g>
<!-- Grey Wilkes&#45;&gt;Snake Mare -->
<g id="edge24" class="edge">
<title>Grey Wilkes&#45;&gt;Snake Mare</title>
<path fill="none" stroke="black" d="M397.36,-903.61C389.86,-894.95 381.82,-885.65 374.07,-876.68"/>
<polygon fill="black" stroke="black" points="376.93,-874.64 367.74,-869.36 371.63,-879.22 376.93,-874.64"/>
</g>
</g>
</svg>
