<?xml version="1.0" encoding="UTF-8" standalone="no"?>
<!DOCTYPE svg PUBLIC "-//W3C//DTD SVG 1.1//EN"
 "http://www.w3.org/Graphics/SVG/1.1/DTD/svg11.dtd">
<!-- Generated by graphviz version 12.1.2 (20240928.0832)
 -->
<!-- Pages: 1 -->
<svg width="1440pt" height="1893pt"
 viewBox="0.00 0.00 1439.62 1893.00" xmlns="http://www.w3.org/2000/svg" xmlns:xlink="http://www.w3.org/1999/xlink">
<g id="graph0" class="graph" transform="scale(1 1) rotate(0) translate(4 1889)">
<polygon fill="white" stroke="none" points="-4,4 -4,-1889 1435.62,-1889 1435.62,4 -4,4"/>
<!-- Son&#45;in&#45;Law -->
<g id="node1" class="node">
<title>Son&#45;in&#45;Law</title>
<polygon fill="none" stroke="black" points="1281.38,-77 1200.88,-77 1200.88,0 1281.38,0 1281.38,-77"/>
<image xlink:href="img/mob.png" width="80.5px" height="77px" preserveAspectRatio="xMinYMin meet" x="1200.88" y="-77"/>
<text text-anchor="middle" x="1241.12" y="-33.45" font-family="Times New Roman,serif" font-size="14.00">Son&#45;in&#45;Law</text>
</g>
<!-- Dark Ronald -->
<g id="node2" class="node">
<title>Dark Ronald</title>
<polygon fill="lightblue" stroke="lightblue" points="1229.25,-190 1139,-190 1139,-113 1229.25,-113 1229.25,-190"/>
<image xlink:href="img/mob.png" width="90.25px" height="77px" preserveAspectRatio="xMinYMin meet" x="1139" y="-190"/>
<text text-anchor="middle" x="1184.12" y="-145.7" font-family="MS Gothic" font-size="14.00">Dark Ronald</text>
</g>
<!-- Dark Ronald&#45;&gt;Son&#45;in&#45;Law -->
<g id="edge1" class="edge">
<title>Dark Ronald&#45;&gt;Son&#45;in&#45;Law</title>
<path fill="none" stroke="black" d="M1203.58,-112.61C1207.75,-104.48 1212.22,-95.8 1216.55,-87.35"/>
<polygon fill="black" stroke="black" points="1219.61,-89.06 1221.06,-78.57 1213.38,-85.86 1219.61,-89.06"/>
</g>
<!-- Mother in Law -->
<g id="node3" class="node">
<title>Mother in Law</title>
<polygon fill="lightcoral" stroke="lightcoral" points="1351,-190 1247.25,-190 1247.25,-113 1351,-113 1351,-190"/>
<image xlink:href="img/mob.png" width="100px" height="77px" preserveAspectRatio="xMinYMin meet" x="1249.12" y="-190"/>
<text text-anchor="middle" x="1299.12" y="-145.7" font-family="MS Gothic" font-size="14.00">Mother in Law</text>
</g>
<!-- Mother in Law&#45;&gt;Son&#45;in&#45;Law -->
<g id="edge2" class="edge">
<title>Mother in Law&#45;&gt;Son&#45;in&#45;Law</title>
<path fill="none" stroke="black" d="M1279.33,-112.61C1275.08,-104.48 1270.54,-95.8 1266.13,-87.35"/>
<polygon fill="black" stroke="black" points="1269.27,-85.8 1261.53,-78.56 1263.06,-89.04 1269.27,-85.8"/>
</g>
<!-- Bay Ronald -->
<g id="node4" class="node">
<title>Bay Ronald</title>
<polygon fill="lightblue" stroke="lightblue" points="1132.88,-303 1049.38,-303 1049.38,-226 1132.88,-226 1132.88,-303"/>
<image xlink:href="img/mob.png" width="83.5px" height="77px" preserveAspectRatio="xMinYMin meet" x="1049.38" y="-303"/>
<text text-anchor="middle" x="1091.12" y="-258.7" font-family="MS Gothic" font-size="14.00">Bay Ronald</text>
</g>
<!-- Bay Ronald&#45;&gt;Dark Ronald -->
<g id="edge3" class="edge">
<title>Bay Ronald&#45;&gt;Dark Ronald</title>
<path fill="none" stroke="black" d="M1122.87,-225.61C1130.05,-217.04 1137.76,-207.84 1145.2,-198.96"/>
<polygon fill="black" stroke="black" points="1147.81,-201.29 1151.55,-191.38 1142.45,-196.8 1147.81,-201.29"/>
</g>
<!-- Darkie -->
<g id="node5" class="node">
<title>Darkie</title>
<polygon fill="lightcoral" stroke="lightcoral" points="1227.62,-303 1150.62,-303 1150.62,-226 1227.62,-226 1227.62,-303"/>
<image xlink:href="img/mob.png" width="77px" height="77px" preserveAspectRatio="xMinYMin meet" x="1150.62" y="-303"/>
<text text-anchor="middle" x="1189.12" y="-258.7" font-family="MS Gothic" font-size="14.00">Darkie</text>
</g>
<!-- Darkie&#45;&gt;Dark Ronald -->
<g id="edge4" class="edge">
<title>Darkie&#45;&gt;Dark Ronald</title>
<path fill="none" stroke="black" d="M1187.42,-225.61C1187.07,-217.84 1186.7,-209.56 1186.33,-201.46"/>
<polygon fill="black" stroke="black" points="1189.84,-201.56 1185.89,-191.73 1182.85,-201.88 1189.84,-201.56"/>
</g>
<!-- Matchmaker -->
<g id="node6" class="node">
<title>Matchmaker</title>
<polygon fill="lightblue" stroke="lightblue" points="1336.88,-303 1253.38,-303 1253.38,-226 1336.88,-226 1336.88,-303"/>
<image xlink:href="img/mob.png" width="83.5px" height="77px" preserveAspectRatio="xMinYMin meet" x="1253.38" y="-303"/>
<text text-anchor="middle" x="1295.12" y="-258.7" font-family="MS Gothic" font-size="14.00">Matchmaker</text>
</g>
<!-- Matchmaker&#45;&gt;Mother in Law -->
<g id="edge5" class="edge">
<title>Matchmaker&#45;&gt;Mother in Law</title>
<path fill="none" stroke="black" d="M1296.49,-225.61C1296.77,-217.84 1297.07,-209.56 1297.36,-201.46"/>
<polygon fill="black" stroke="black" points="1300.85,-201.85 1297.71,-191.73 1293.85,-201.6 1300.85,-201.85"/>
</g>
<!-- Be Cannie -->
<g id="node7" class="node">
<title>Be Cannie</title>
<polygon fill="lightcoral" stroke="lightcoral" points="1431.62,-303 1354.62,-303 1354.62,-226 1431.62,-226 1431.62,-303"/>
<image xlink:href="img/mob.png" width="77px" height="77px" preserveAspectRatio="xMinYMin meet" x="1354.62" y="-303"/>
<text text-anchor="middle" x="1393.12" y="-258.7" font-family="MS Gothic" font-size="14.00">Be Cannie</text>
</g>
<!-- Be Cannie&#45;&gt;Mother in Law -->
<g id="edge6" class="edge">
<title>Be Cannie&#45;&gt;Mother in Law</title>
<path fill="none" stroke="black" d="M1361.04,-225.61C1353.78,-217.04 1345.99,-207.84 1338.47,-198.96"/>
<polygon fill="black" stroke="black" points="1341.18,-196.74 1332.05,-191.37 1335.84,-201.27 1341.18,-196.74"/>
</g>
<!-- Hampton -->
<g id="node8" class="node">
<title>Hampton</title>
<polygon fill="lightblue" stroke="lightblue" points="1075.62,-416 998.62,-416 998.62,-339 1075.62,-339 1075.62,-416"/>
<image xlink:href="img/mob.png" width="77px" height="77px" preserveAspectRatio="xMinYMin meet" x="998.625" y="-416"/>
<text text-anchor="middle" x="1037.12" y="-371.7" font-family="MS Gothic" font-size="14.00">Hampton</text>
</g>
<!-- Hampton&#45;&gt;Bay Ronald -->
<g id="edge7" class="edge">
<title>Hampton&#45;&gt;Bay Ronald</title>
<path fill="none" stroke="black" d="M1055.56,-338.61C1059.51,-330.48 1063.74,-321.8 1067.85,-313.35"/>
<polygon fill="black" stroke="black" points="1070.89,-315.1 1072.11,-304.58 1064.59,-312.04 1070.89,-315.1"/>
</g>
<!-- Black Duchess -->
<g id="node9" class="node">
<title>Black Duchess</title>
<polygon fill="lightcoral" stroke="lightcoral" points="1197,-416 1093.25,-416 1093.25,-339 1197,-339 1197,-416"/>
<image xlink:href="img/mob.png" width="100px" height="77px" preserveAspectRatio="xMinYMin meet" x="1095.12" y="-416"/>
<text text-anchor="middle" x="1145.12" y="-371.7" font-family="MS Gothic" font-size="14.00">Black Duchess</text>
</g>
<!-- Black Duchess&#45;&gt;Bay Ronald -->
<g id="edge8" class="edge">
<title>Black Duchess&#45;&gt;Bay Ronald</title>
<path fill="none" stroke="black" d="M1126.69,-338.61C1122.74,-330.48 1118.51,-321.8 1114.4,-313.35"/>
<polygon fill="black" stroke="black" points="1117.66,-312.04 1110.14,-304.58 1111.36,-315.1 1117.66,-312.04"/>
</g>
<!-- Lord Clifden -->
<g id="node10" class="node">
<title>Lord Clifden</title>
<polygon fill="lightblue" stroke="lightblue" points="971.62,-529 874.62,-529 874.62,-452 971.62,-452 971.62,-529"/>
<image xlink:href="img/mob.png" width="97px" height="77px" preserveAspectRatio="xMinYMin meet" x="874.625" y="-529"/>
<text text-anchor="middle" x="923.12" y="-484.7" font-family="MS Gothic" font-size="14.00">Lord Clifden</text>
</g>
<!-- Lord Clifden&#45;&gt;Hampton -->
<g id="edge9" class="edge">
<title>Lord Clifden&#45;&gt;Hampton</title>
<path fill="none" stroke="black" d="M962.04,-451.61C971.12,-442.77 980.88,-433.26 990.26,-424.13"/>
<polygon fill="black" stroke="black" points="992.58,-426.76 997.3,-417.27 987.7,-421.74 992.58,-426.76"/>
</g>
<!-- Lady Langden -->
<g id="node11" class="node">
<title>Lady Langden</title>
<polygon fill="lightcoral" stroke="lightcoral" points="1086.62,-529 989.62,-529 989.62,-452 1086.62,-452 1086.62,-529"/>
<image xlink:href="img/mob.png" width="97px" height="77px" preserveAspectRatio="xMinYMin meet" x="989.625" y="-529"/>
<text text-anchor="middle" x="1038.12" y="-484.7" font-family="MS Gothic" font-size="14.00">Lady Langden</text>
</g>
<!-- Lady Langden&#45;&gt;Hampton -->
<g id="edge10" class="edge">
<title>Lady Langden&#45;&gt;Hampton</title>
<path fill="none" stroke="black" d="M1037.78,-451.61C1037.71,-443.84 1037.64,-435.56 1037.57,-427.46"/>
<polygon fill="black" stroke="black" points="1041.07,-427.7 1037.48,-417.73 1034.07,-427.76 1041.07,-427.7"/>
</g>
<!-- Galliard -->
<g id="node12" class="node">
<title>Galliard</title>
<polygon fill="lightblue" stroke="lightblue" points="1182.62,-529 1105.62,-529 1105.62,-452 1182.62,-452 1182.62,-529"/>
<image xlink:href="img/mob.png" width="77px" height="77px" preserveAspectRatio="xMinYMin meet" x="1105.62" y="-529"/>
<text text-anchor="middle" x="1144.12" y="-484.7" font-family="MS Gothic" font-size="14.00">Galliard</text>
</g>
<!-- Galliard&#45;&gt;Black Duchess -->
<g id="edge11" class="edge">
<title>Galliard&#45;&gt;Black Duchess</title>
<path fill="none" stroke="black" d="M1144.47,-451.61C1144.54,-443.84 1144.61,-435.56 1144.68,-427.46"/>
<polygon fill="black" stroke="black" points="1148.18,-427.76 1144.77,-417.73 1141.18,-427.7 1148.18,-427.76"/>
</g>
<!-- Black Corrie -->
<g id="node13" class="node">
<title>Black Corrie</title>
<polygon fill="lightcoral" stroke="lightcoral" points="1297.62,-529 1200.62,-529 1200.62,-452 1297.62,-452 1297.62,-529"/>
<image xlink:href="img/mob.png" width="97px" height="77px" preserveAspectRatio="xMinYMin meet" x="1200.62" y="-529"/>
<text text-anchor="middle" x="1249.12" y="-484.7" font-family="MS Gothic" font-size="14.00">Black Corrie</text>
</g>
<!-- Black Corrie&#45;&gt;Black Duchess -->
<g id="edge12" class="edge">
<title>Black Corrie&#45;&gt;Black Duchess</title>
<path fill="none" stroke="black" d="M1213.62,-451.61C1205.43,-442.86 1196.62,-433.46 1188.13,-424.4"/>
<polygon fill="black" stroke="black" points="1190.89,-422.23 1181.5,-417.32 1185.78,-427.01 1190.89,-422.23"/>
</g>
<!-- Newminster -->
<g id="node14" class="node">
<title>Newminster</title>
<polygon fill="lightblue" stroke="lightblue" points="915.88,-642 832.38,-642 832.38,-565 915.88,-565 915.88,-642"/>
<image xlink:href="img/mob.png" width="83.5px" height="77px" preserveAspectRatio="xMinYMin meet" x="832.375" y="-642"/>
<text text-anchor="middle" x="874.12" y="-597.7" font-family="MS Gothic" font-size="14.00">Newminster</text>
</g>
<!-- Newminster&#45;&gt;Lord Clifden -->
<g id="edge13" class="edge">
<title>Newminster&#45;&gt;Lord Clifden</title>
<path fill="none" stroke="black" d="M890.85,-564.61C894.4,-556.57 898.19,-547.99 901.88,-539.63"/>
<polygon fill="black" stroke="black" points="905.03,-541.17 905.86,-530.6 898.62,-538.34 905.03,-541.17"/>
</g>
<!-- The Slave -->
<g id="node15" class="node">
<title>The Slave</title>
<polygon fill="lightcoral" stroke="lightcoral" points="1010.62,-642 933.62,-642 933.62,-565 1010.62,-565 1010.62,-642"/>
<image xlink:href="img/mob.png" width="77px" height="77px" preserveAspectRatio="xMinYMin meet" x="933.625" y="-642"/>
<text text-anchor="middle" x="972.12" y="-597.7" font-family="MS Gothic" font-size="14.00">The Slave</text>
</g>
<!-- The Slave&#45;&gt;Lord Clifden -->
<g id="edge14" class="edge">
<title>The Slave&#45;&gt;Lord Clifden</title>
<path fill="none" stroke="black" d="M955.4,-564.61C951.85,-556.57 948.06,-547.99 944.37,-539.63"/>
<polygon fill="black" stroke="black" points="947.63,-538.34 940.39,-530.6 941.22,-541.17 947.63,-538.34"/>
</g>
<!-- Touchstone -->
<g id="node16" class="node">
<title>Touchstone</title>
<polygon fill="lightblue" stroke="lightblue" points="818.88,-755 735.38,-755 735.38,-678 818.88,-678 818.88,-755"/>
<image xlink:href="img/mob.png" width="83.5px" height="77px" preserveAspectRatio="xMinYMin meet" x="735.375" y="-755"/>
<text text-anchor="middle" x="777.12" y="-710.7" font-family="MS Gothic" font-size="14.00">Touchstone</text>
</g>
<!-- Touchstone&#45;&gt;Newminster -->
<g id="edge15" class="edge">
<title>Touchstone&#45;&gt;Newminster</title>
<path fill="none" stroke="black" d="M810.24,-677.61C817.81,-668.95 825.93,-659.65 833.77,-650.68"/>
<polygon fill="black" stroke="black" points="836.22,-653.19 840.17,-643.36 830.95,-648.59 836.22,-653.19"/>
</g>
<!-- Beeswing -->
<g id="node17" class="node">
<title>Beeswing</title>
<polygon fill="lightcoral" stroke="lightcoral" points="913.62,-755 836.62,-755 836.62,-678 913.62,-678 913.62,-755"/>
<image xlink:href="img/mob.png" width="77px" height="77px" preserveAspectRatio="xMinYMin meet" x="836.625" y="-755"/>
<text text-anchor="middle" x="875.12" y="-710.7" font-family="MS Gothic" font-size="14.00">Beeswing</text>
</g>
<!-- Beeswing&#45;&gt;Newminster -->
<g id="edge16" class="edge">
<title>Beeswing&#45;&gt;Newminster</title>
<path fill="none" stroke="black" d="M874.78,-677.61C874.71,-669.84 874.64,-661.56 874.57,-653.46"/>
<polygon fill="black" stroke="black" points="878.07,-653.7 874.48,-643.73 871.07,-653.76 878.07,-653.7"/>
</g>
<!-- Melbourne -->
<g id="node18" class="node">
<title>Melbourne</title>
<polygon fill="lightblue" stroke="lightblue" points="1009.62,-755 932.62,-755 932.62,-678 1009.62,-678 1009.62,-755"/>
<image xlink:href="img/mob.png" width="77px" height="77px" preserveAspectRatio="xMinYMin meet" x="932.625" y="-755"/>
<text text-anchor="middle" x="971.12" y="-710.7" font-family="MS Gothic" font-size="14.00">Melbourne</text>
</g>
<!-- Melbourne&#45;&gt;The Slave -->
<g id="edge17" class="edge">
<title>Melbourne&#45;&gt;The Slave</title>
<path fill="none" stroke="black" d="M971.47,-677.61C971.54,-669.84 971.61,-661.56 971.68,-653.46"/>
<polygon fill="black" stroke="black" points="975.18,-653.76 971.77,-643.73 968.18,-653.7 975.18,-653.76"/>
</g>
<!-- Volley -->
<g id="node19" class="node">
<title>Volley</title>
<polygon fill="lightcoral" stroke="lightcoral" points="1104.62,-755 1027.62,-755 1027.62,-678 1104.62,-678 1104.62,-755"/>
<image xlink:href="img/mob.png" width="77px" height="77px" preserveAspectRatio="xMinYMin meet" x="1027.62" y="-755"/>
<text text-anchor="middle" x="1066.12" y="-710.7" font-family="MS Gothic" font-size="14.00">Volley</text>
</g>
<!-- Volley&#45;&gt;The Slave -->
<g id="edge18" class="edge">
<title>Volley&#45;&gt;The Slave</title>
<path fill="none" stroke="black" d="M1034.04,-677.61C1026.78,-669.04 1018.99,-659.84 1011.47,-650.96"/>
<polygon fill="black" stroke="black" points="1014.18,-648.74 1005.05,-643.37 1008.84,-653.27 1014.18,-648.74"/>
</g>
<!-- Camel -->
<g id="node20" class="node">
<title>Camel</title>
<polygon fill="lightblue" stroke="lightblue" points="761.62,-868 684.62,-868 684.62,-791 761.62,-791 761.62,-868"/>
<image xlink:href="img/mob.png" width="77px" height="77px" preserveAspectRatio="xMinYMin meet" x="684.625" y="-868"/>
<text text-anchor="middle" x="723.12" y="-823.7" font-family="MS Gothic" font-size="14.00">Camel</text>
</g>
<!-- Camel&#45;&gt;Touchstone -->
<g id="edge19" class="edge">
<title>Camel&#45;&gt;Touchstone</title>
<path fill="none" stroke="black" d="M741.56,-790.61C745.51,-782.48 749.74,-773.8 753.85,-765.35"/>
<polygon fill="black" stroke="black" points="756.89,-767.1 758.11,-756.58 750.59,-764.04 756.89,-767.1"/>
</g>
<!-- Banter -->
<g id="node21" class="node">
<title>Banter</title>
<polygon fill="lightcoral" stroke="lightcoral" points="869.62,-868 792.62,-868 792.62,-791 869.62,-791 869.62,-868"/>
<image xlink:href="img/mob.png" width="77px" height="77px" preserveAspectRatio="xMinYMin meet" x="792.625" y="-868"/>
<text text-anchor="middle" x="831.12" y="-823.7" font-family="MS Gothic" font-size="14.00">Banter</text>
</g>
<!-- Banter&#45;&gt;Touchstone -->
<g id="edge20" class="edge">
<title>Banter&#45;&gt;Touchstone</title>
<path fill="none" stroke="black" d="M812.69,-790.61C808.74,-782.48 804.51,-773.8 800.4,-765.35"/>
<polygon fill="black" stroke="black" points="803.66,-764.04 796.14,-756.58 797.36,-767.1 803.66,-764.04"/>
</g>
<!-- Whalebone -->
<g id="node22" class="node">
<title>Whalebone</title>
<polygon fill="lightblue" stroke="lightblue" points="663.62,-981 586.62,-981 586.62,-904 663.62,-904 663.62,-981"/>
<image xlink:href="img/mob.png" width="77px" height="77px" preserveAspectRatio="xMinYMin meet" x="586.625" y="-981"/>
<text text-anchor="middle" x="625.12" y="-936.7" font-family="MS Gothic" font-size="14.00">Whalebone</text>
</g>
<!-- Whalebone&#45;&gt;Camel -->
<g id="edge21" class="edge">
<title>Whalebone&#45;&gt;Camel</title>
<path fill="none" stroke="black" d="M658.58,-903.61C666.22,-894.95 674.44,-885.65 682.35,-876.68"/>
<polygon fill="black" stroke="black" points="684.83,-879.17 688.82,-869.35 679.58,-874.53 684.83,-879.17"/>
</g>
<!-- Selim Mare -->
<g id="node23" class="node">
<title>Selim Mare</title>
<polygon fill="lightcoral" stroke="lightcoral" points="764.88,-981 681.38,-981 681.38,-904 764.88,-904 764.88,-981"/>
<image xlink:href="img/mob.png" width="83.5px" height="77px" preserveAspectRatio="xMinYMin meet" x="681.375" y="-981"/>
<text text-anchor="middle" x="723.12" y="-936.7" font-family="MS Gothic" font-size="14.00">Selim Mare</text>
</g>
<!-- Selim Mare&#45;&gt;Camel -->
<g id="edge22" class="edge">
<title>Selim Mare&#45;&gt;Camel</title>
<path fill="none" stroke="black" d="M723.12,-903.61C723.12,-895.84 723.12,-887.56 723.12,-879.46"/>
<polygon fill="black" stroke="black" points="726.63,-879.73 723.13,-869.73 719.63,-879.73 726.63,-879.73"/>
</g>
<!-- Master Henry -->
<g id="node24" class="node">
<title>Master Henry</title>
<polygon fill="lightblue" stroke="lightblue" points="879.62,-981 782.62,-981 782.62,-904 879.62,-904 879.62,-981"/>
<image xlink:href="img/mob.png" width="97px" height="77px" preserveAspectRatio="xMinYMin meet" x="782.625" y="-981"/>
<text text-anchor="middle" x="831.12" y="-936.7" font-family="MS Gothic" font-size="14.00">Master Henry</text>
</g>
<!-- Master Henry&#45;&gt;Banter -->
<g id="edge23" class="edge">
<title>Master Henry&#45;&gt;Banter</title>
<path fill="none" stroke="black" d="M831.12,-903.61C831.12,-895.84 831.12,-887.56 831.12,-879.46"/>
<polygon fill="black" stroke="black" points="834.63,-879.73 831.13,-869.73 827.63,-879.73 834.63,-879.73"/>
</g>
<!-- Boadicea -->
<g id="node25" class="node">
<title>Boadicea</title>
<polygon fill="lightcoral" stroke="lightcoral" points="974.62,-981 897.62,-981 897.62,-904 974.62,-904 974.62,-981"/>
<image xlink:href="img/mob.png" width="77px" height="77px" preserveAspectRatio="xMinYMin meet" x="897.625" y="-981"/>
<text text-anchor="middle" x="936.12" y="-936.7" font-family="MS Gothic" font-size="14.00">Boadicea</text>
</g>
<!-- Boadicea&#45;&gt;Banter -->
<g id="edge24" class="edge">
<title>Boadicea&#45;&gt;Banter</title>
<path fill="none" stroke="black" d="M900.28,-903.61C892.01,-894.86 883.11,-885.46 874.55,-876.4"/>
<polygon fill="black" stroke="black" points="877.26,-874.18 867.84,-869.32 872.17,-878.99 877.26,-874.18"/>
</g>
<!-- Waxy -->
<g id="node26" class="node">
<title>Waxy</title>
<polygon fill="lightblue" stroke="lightblue" points="616.62,-1094 539.62,-1094 539.62,-1017 616.62,-1017 616.62,-1094"/>
<image xlink:href="img/mob.png" width="77px" height="77px" preserveAspectRatio="xMinYMin meet" x="539.625" y="-1094"/>
<text text-anchor="middle" x="578.12" y="-1049.7" font-family="MS Gothic" font-size="14.00">Waxy</text>
</g>
<!-- Waxy&#45;&gt;Whalebone -->
<g id="edge25" class="edge">
<title>Waxy&#45;&gt;Whalebone</title>
<path fill="none" stroke="black" d="M594.17,-1016.61C597.57,-1008.57 601.21,-999.99 604.75,-991.63"/>
<polygon fill="black" stroke="black" points="607.89,-993.19 608.56,-982.61 601.44,-990.46 607.89,-993.19"/>
</g>
<!-- Penelope -->
<g id="node27" class="node">
<title>Penelope</title>
<polygon fill="lightcoral" stroke="lightcoral" points="711.62,-1094 634.62,-1094 634.62,-1017 711.62,-1017 711.62,-1094"/>
<image xlink:href="img/mob.png" width="77px" height="77px" preserveAspectRatio="xMinYMin meet" x="634.625" y="-1094"/>
<text text-anchor="middle" x="673.12" y="-1049.7" font-family="MS Gothic" font-size="14.00">Penelope</text>
</g>
<!-- Penelope&#45;&gt;Whalebone -->
<g id="edge26" class="edge">
<title>Penelope&#45;&gt;Whalebone</title>
<path fill="none" stroke="black" d="M656.74,-1016.61C653.26,-1008.57 649.55,-999.99 645.94,-991.63"/>
<polygon fill="black" stroke="black" points="649.22,-990.4 642.04,-982.61 642.79,-993.18 649.22,-990.4"/>
</g>
<!-- Pot&#45;8&#45;Os -->
<g id="node28" class="node">
<title>Pot&#45;8&#45;Os</title>
<polygon fill="lightblue" stroke="lightblue" points="521.62,-1207 444.62,-1207 444.62,-1130 521.62,-1130 521.62,-1207"/>
<image xlink:href="img/mob.png" width="77px" height="77px" preserveAspectRatio="xMinYMin meet" x="444.625" y="-1207"/>
<text text-anchor="middle" x="483.12" y="-1162.7" font-family="MS Gothic" font-size="14.00">Pot&#45;8&#45;Os</text>
</g>
<!-- Pot&#45;8&#45;Os&#45;&gt;Waxy -->
<g id="edge27" class="edge">
<title>Pot&#45;8&#45;Os&#45;&gt;Waxy</title>
<path fill="none" stroke="black" d="M515.55,-1129.61C522.89,-1121.04 530.76,-1111.84 538.36,-1102.96"/>
<polygon fill="black" stroke="black" points="541.02,-1105.24 544.86,-1095.37 535.7,-1100.69 541.02,-1105.24"/>
</g>
<!-- Maria III -->
<g id="node29" class="node">
<title>Maria III</title>
<polygon fill="lightcoral" stroke="lightcoral" points="616.62,-1207 539.62,-1207 539.62,-1130 616.62,-1130 616.62,-1207"/>
<image xlink:href="img/mob.png" width="77px" height="77px" preserveAspectRatio="xMinYMin meet" x="539.625" y="-1207"/>
<text text-anchor="middle" x="578.12" y="-1162.7" font-family="MS Gothic" font-size="14.00">Maria III</text>
</g>
<!-- Maria III&#45;&gt;Waxy -->
<g id="edge28" class="edge">
<title>Maria III&#45;&gt;Waxy</title>
<path fill="none" stroke="black" d="M578.12,-1129.61C578.12,-1121.84 578.12,-1113.56 578.12,-1105.46"/>
<polygon fill="black" stroke="black" points="581.63,-1105.73 578.13,-1095.73 574.63,-1105.73 581.63,-1105.73"/>
</g>
<!-- Trumpator -->
<g id="node30" class="node">
<title>Trumpator</title>
<polygon fill="lightblue" stroke="lightblue" points="711.62,-1207 634.62,-1207 634.62,-1130 711.62,-1130 711.62,-1207"/>
<image xlink:href="img/mob.png" width="77px" height="77px" preserveAspectRatio="xMinYMin meet" x="634.625" y="-1207"/>
<text text-anchor="middle" x="673.12" y="-1162.7" font-family="MS Gothic" font-size="14.00">Trumpator</text>
</g>
<!-- Trumpator&#45;&gt;Penelope -->
<g id="edge29" class="edge">
<title>Trumpator&#45;&gt;Penelope</title>
<path fill="none" stroke="black" d="M673.12,-1129.61C673.12,-1121.84 673.12,-1113.56 673.12,-1105.46"/>
<polygon fill="black" stroke="black" points="676.63,-1105.73 673.13,-1095.73 669.63,-1105.73 676.63,-1105.73"/>
</g>
<!-- Prunella -->
<g id="node31" class="node">
<title>Prunella</title>
<polygon fill="lightcoral" stroke="lightcoral" points="806.62,-1207 729.62,-1207 729.62,-1130 806.62,-1130 806.62,-1207"/>
<image xlink:href="img/mob.png" width="77px" height="77px" preserveAspectRatio="xMinYMin meet" x="729.625" y="-1207"/>
<text text-anchor="middle" x="768.12" y="-1162.7" font-family="MS Gothic" font-size="14.00">Prunella</text>
</g>
<!-- Prunella&#45;&gt;Penelope -->
<g id="edge30" class="edge">
<title>Prunella&#45;&gt;Penelope</title>
<path fill="none" stroke="black" d="M735.7,-1129.61C728.36,-1121.04 720.49,-1111.84 712.89,-1102.96"/>
<polygon fill="black" stroke="black" points="715.55,-1100.69 706.39,-1095.37 710.23,-1105.24 715.55,-1100.69"/>
</g>
<!-- Eclipse -->
<g id="node32" class="node">
<title>Eclipse</title>
<polygon fill="lightblue" stroke="lightblue" points="465.62,-1320 388.62,-1320 388.62,-1243 465.62,-1243 465.62,-1320"/>
<image xlink:href="img/mob.png" width="77px" height="77px" preserveAspectRatio="xMinYMin meet" x="388.625" y="-1320"/>
<text text-anchor="middle" x="427.12" y="-1275.7" font-family="MS Gothic" font-size="14.00">Eclipse</text>
</g>
<!-- Eclipse&#45;&gt;Pot&#45;8&#45;Os -->
<g id="edge31" class="edge">
<title>Eclipse&#45;&gt;Pot&#45;8&#45;Os</title>
<path fill="none" stroke="black" d="M446.24,-1242.61C450.34,-1234.48 454.72,-1225.8 458.99,-1217.35"/>
<polygon fill="black" stroke="black" points="462.03,-1219.07 463.41,-1208.57 455.78,-1215.92 462.03,-1219.07"/>
</g>
<!-- Sportsmistress -->
<g id="node33" class="node">
<title>Sportsmistress</title>
<polygon fill="lightcoral" stroke="lightcoral" points="594.38,-1320 483.88,-1320 483.88,-1243 594.38,-1243 594.38,-1320"/>
<image xlink:href="img/mob.png" width="100px" height="77px" preserveAspectRatio="xMinYMin meet" x="489.125" y="-1320"/>
<text text-anchor="middle" x="539.12" y="-1275.7" font-family="MS Gothic" font-size="14.00">Sportsmistress</text>
</g>
<!-- Sportsmistress&#45;&gt;Pot&#45;8&#45;Os -->
<g id="edge32" class="edge">
<title>Sportsmistress&#45;&gt;Pot&#45;8&#45;Os</title>
<path fill="none" stroke="black" d="M520.01,-1242.61C515.91,-1234.48 511.53,-1225.8 507.26,-1217.35"/>
<polygon fill="black" stroke="black" points="510.47,-1215.92 502.84,-1208.57 504.22,-1219.07 510.47,-1215.92"/>
</g>
<!-- Marske -->
<g id="node34" class="node">
<title>Marske</title>
<polygon fill="lightblue" stroke="lightblue" points="375.62,-1433 298.62,-1433 298.62,-1356 375.62,-1356 375.62,-1433"/>
<image xlink:href="img/mob.png" width="77px" height="77px" preserveAspectRatio="xMinYMin meet" x="298.625" y="-1433"/>
<text text-anchor="middle" x="337.12" y="-1388.7" font-family="MS Gothic" font-size="14.00">Marske</text>
</g>
<!-- Marske&#45;&gt;Eclipse -->
<g id="edge33" class="edge">
<title>Marske&#45;&gt;Eclipse</title>
<path fill="none" stroke="black" d="M367.85,-1355.61C374.8,-1347.04 382.26,-1337.84 389.46,-1328.96"/>
<polygon fill="black" stroke="black" points="392.01,-1331.37 395.59,-1321.39 386.57,-1326.96 392.01,-1331.37"/>
</g>
<!-- Spilletta -->
<g id="node35" class="node">
<title>Spilletta</title>
<polygon fill="lightcoral" stroke="lightcoral" points="470.62,-1433 393.62,-1433 393.62,-1356 470.62,-1356 470.62,-1433"/>
<image xlink:href="img/mob.png" width="77px" height="77px" preserveAspectRatio="xMinYMin meet" x="393.625" y="-1433"/>
<text text-anchor="middle" x="432.12" y="-1388.7" font-family="MS Gothic" font-size="14.00">Spilletta</text>
</g>
<!-- Spilletta&#45;&gt;Eclipse -->
<g id="edge34" class="edge">
<title>Spilletta&#45;&gt;Eclipse</title>
<path fill="none" stroke="black" d="M430.42,-1355.61C430.07,-1347.84 429.7,-1339.56 429.33,-1331.46"/>
<polygon fill="black" stroke="black" points="432.84,-1331.56 428.89,-1321.73 425.85,-1331.88 432.84,-1331.56"/>
</g>
<!-- Sportsman -->
<g id="node36" class="node">
<title>Sportsman</title>
<polygon fill="lightblue" stroke="lightblue" points="573.62,-1433 496.62,-1433 496.62,-1356 573.62,-1356 573.62,-1433"/>
<image xlink:href="img/mob.png" width="77px" height="77px" preserveAspectRatio="xMinYMin meet" x="496.625" y="-1433"/>
<text text-anchor="middle" x="535.12" y="-1388.7" font-family="MS Gothic" font-size="14.00">Sportsman</text>
</g>
<!-- Sportsman&#45;&gt;Sportsmistress -->
<g id="edge35" class="edge">
<title>Sportsman&#45;&gt;Sportsmistress</title>
<path fill="none" stroke="black" d="M536.49,-1355.61C536.77,-1347.84 537.07,-1339.56 537.36,-1331.46"/>
<polygon fill="black" stroke="black" points="540.85,-1331.85 537.71,-1321.73 533.85,-1331.6 540.85,-1331.85"/>
</g>
<!-- Golden Locks -->
<g id="node37" class="node">
<title>Golden Locks</title>
<polygon fill="lightcoral" stroke="lightcoral" points="688.62,-1433 591.62,-1433 591.62,-1356 688.62,-1356 688.62,-1433"/>
<image xlink:href="img/mob.png" width="97px" height="77px" preserveAspectRatio="xMinYMin meet" x="591.625" y="-1433"/>
<text text-anchor="middle" x="640.12" y="-1388.7" font-family="MS Gothic" font-size="14.00">Golden Locks</text>
</g>
<!-- Golden Locks&#45;&gt;Sportsmistress -->
<g id="edge36" class="edge">
<title>Golden Locks&#45;&gt;Sportsmistress</title>
<path fill="none" stroke="black" d="M605.65,-1355.61C597.77,-1346.95 589.3,-1337.65 581.15,-1328.68"/>
<polygon fill="black" stroke="black" points="583.78,-1326.38 574.46,-1321.34 578.61,-1331.09 583.78,-1326.38"/>
</g>
<!-- Squirt -->
<g id="node38" class="node">
<title>Squirt</title>
<polygon fill="lightblue" stroke="lightblue" points="304.62,-1546 227.62,-1546 227.62,-1469 304.62,-1469 304.62,-1546"/>
<image xlink:href="img/mob.png" width="77px" height="77px" preserveAspectRatio="xMinYMin meet" x="227.625" y="-1546"/>
<text text-anchor="middle" x="266.12" y="-1501.7" font-family="MS Gothic" font-size="14.00">Squirt</text>
</g>
<!-- Squirt&#45;&gt;Marske -->
<g id="edge37" class="edge">
<title>Squirt&#45;&gt;Marske</title>
<path fill="none" stroke="black" d="M290.36,-1468.61C295.67,-1460.31 301.36,-1451.41 306.88,-1442.79"/>
<polygon fill="black" stroke="black" points="309.74,-1444.8 312.18,-1434.49 303.85,-1441.03 309.74,-1444.8"/>
</g>
<!-- Hutton&#39;s Blacklegs Mare -->
<g id="node39" class="node">
<title>Hutton&#39;s Blacklegs Mare</title>
<polygon fill="lightcoral" stroke="lightcoral" points="493.75,-1546 322.5,-1546 322.5,-1469 493.75,-1469 493.75,-1546"/>
<image xlink:href="img/mob.png" width="100px" height="77px" preserveAspectRatio="xMinYMin meet" x="358.125" y="-1546"/>
<text text-anchor="middle" x="408.12" y="-1501.7" font-family="MS Gothic" font-size="14.00">Hutton&#39;s Blacklegs Mare</text>
</g>
<!-- Hutton&#39;s Blacklegs Mare&#45;&gt;Marske -->
<g id="edge38" class="edge">
<title>Hutton&#39;s Blacklegs Mare&#45;&gt;Marske</title>
<path fill="none" stroke="black" d="M383.89,-1468.61C378.58,-1460.31 372.89,-1451.41 367.37,-1442.79"/>
<polygon fill="black" stroke="black" points="370.4,-1441.03 362.07,-1434.49 364.51,-1444.8 370.4,-1441.03"/>
</g>
<!-- Bartlet&#39;s Childers -->
<g id="node40" class="node">
<title>Bartlet&#39;s Childers</title>
<polygon fill="lightblue" stroke="lightblue" points="209.88,-1659 72.38,-1659 72.38,-1582 209.88,-1582 209.88,-1659"/>
<image xlink:href="img/mob.png" width="100px" height="77px" preserveAspectRatio="xMinYMin meet" x="91.125" y="-1659"/>
<text text-anchor="middle" x="141.12" y="-1614.7" font-family="MS Gothic" font-size="14.00">Bartlet&#39;s Childers</text>
</g>
<!-- Bartlet&#39;s Childers&#45;&gt;Squirt -->
<g id="edge39" class="edge">
<title>Bartlet&#39;s Childers&#45;&gt;Squirt</title>
<path fill="none" stroke="black" d="M183.79,-1581.61C195.18,-1571.5 207.54,-1560.53 219.14,-1550.22"/>
<polygon fill="black" stroke="black" points="221.14,-1553.13 226.29,-1543.87 216.49,-1547.89 221.14,-1553.13"/>
</g>
<!-- Snake Mare -->
<g id="node41" class="node">
<title>Snake Mare</title>
<polygon fill="lightcoral" stroke="lightcoral" points="311.88,-1659 228.38,-1659 228.38,-1582 311.88,-1582 311.88,-1659"/>
<image xlink:href="img/mob.png" width="83.5px" height="77px" preserveAspectRatio="xMinYMin meet" x="228.375" y="-1659"/>
<text text-anchor="middle" x="270.12" y="-1614.7" font-family="MS Gothic" font-size="14.00">Snake Mare</text>
</g>
<!-- Snake Mare&#45;&gt;Squirt -->
<g id="edge40" class="edge">
<title>Snake Mare&#45;&gt;Squirt</title>
<path fill="none" stroke="black" d="M268.76,-1581.61C268.48,-1573.84 268.18,-1565.56 267.89,-1557.46"/>
<polygon fill="black" stroke="black" points="271.4,-1557.6 267.54,-1547.73 264.4,-1557.85 271.4,-1557.6"/>
</g>
<!-- Hutton&#39;s Blacklegs -->
<g id="node42" class="node">
<title>Hutton&#39;s Blacklegs</title>
<polygon fill="lightblue" stroke="lightblue" points="473.88,-1659 336.38,-1659 336.38,-1582 473.88,-1582 473.88,-1659"/>
<image xlink:href="img/mob.png" width="100px" height="77px" preserveAspectRatio="xMinYMin meet" x="355.125" y="-1659"/>
<text text-anchor="middle" x="405.12" y="-1614.7" font-family="MS Gothic" font-size="14.00">Hutton&#39;s Blacklegs</text>
</g>
<!-- Hutton&#39;s Blacklegs&#45;&gt;Hutton&#39;s Blacklegs Mare -->
<g id="edge41" class="edge">
<title>Hutton&#39;s Blacklegs&#45;&gt;Hutton&#39;s Blacklegs Mare</title>
<path fill="none" stroke="black" d="M406.15,-1581.61C406.36,-1573.84 406.58,-1565.56 406.8,-1557.46"/>
<polygon fill="black" stroke="black" points="410.29,-1557.82 407.06,-1547.73 403.3,-1557.63 410.29,-1557.82"/>
</g>
<!-- Bay Bolton Mare -->
<g id="node43" class="node">
<title>Bay Bolton Mare</title>
<polygon fill="lightcoral" stroke="lightcoral" points="608.75,-1659 491.5,-1659 491.5,-1582 608.75,-1582 608.75,-1659"/>
<image xlink:href="img/mob.png" width="100px" height="77px" preserveAspectRatio="xMinYMin meet" x="500.125" y="-1659"/>
<text text-anchor="middle" x="550.12" y="-1614.7" font-family="MS Gothic" font-size="14.00">Bay Bolton Mare</text>
</g>
<!-- Bay Bolton Mare&#45;&gt;Hutton&#39;s Blacklegs Mare -->
<g id="edge42" class="edge">
<title>Bay Bolton Mare&#45;&gt;Hutton&#39;s Blacklegs Mare</title>
<path fill="none" stroke="black" d="M501.65,-1581.61C490,-1572.5 477.45,-1562.69 465.43,-1553.3"/>
<polygon fill="black" stroke="black" points="467.6,-1550.55 457.57,-1547.15 463.29,-1556.07 467.6,-1550.55"/>
</g>
<!-- ダーレーアラビアン -->
<g id="node44" class="node">
<title>ダーレーアラビアン</title>
<polygon fill="lightblue" stroke="lightblue" points="144.25,-1772 0,-1772 0,-1695 144.25,-1695 144.25,-1772"/>
<image xlink:href="img/darearabian.png" width="100px" height="77px" preserveAspectRatio="xMinYMin meet" x="22.125" y="-1772"/>
<text text-anchor="middle" x="72.12" y="-1727.7" font-family="MS Gothic" font-size="14.00">ダーレーアラビアン</text>
</g>
<!-- ダーレーアラビアン&#45;&gt;Bartlet&#39;s Childers -->
<g id="edge43" class="edge">
<title>ダーレーアラビアン&#45;&gt;Bartlet&#39;s Childers</title>
<path fill="none" stroke="black" d="M95.68,-1694.61C100.84,-1686.31 106.37,-1677.41 111.73,-1668.79"/>
<polygon fill="black" stroke="black" points="114.57,-1670.84 116.88,-1660.5 108.63,-1667.15 114.57,-1670.84"/>
</g>
<!-- Betty Leedes -->
<g id="node45" class="node">
<title>Betty Leedes</title>
<polygon fill="lightcoral" stroke="lightcoral" points="259.62,-1772 162.62,-1772 162.62,-1695 259.62,-1695 259.62,-1772"/>
<image xlink:href="img/mob.png" width="97px" height="77px" preserveAspectRatio="xMinYMin meet" x="162.625" y="-1772"/>
<text text-anchor="middle" x="211.12" y="-1727.7" font-family="MS Gothic" font-size="14.00">Betty Leedes</text>
</g>
<!-- Betty Leedes&#45;&gt;Bartlet&#39;s Childers -->
<g id="edge44" class="edge">
<title>Betty Leedes&#45;&gt;Bartlet&#39;s Childers</title>
<path fill="none" stroke="black" d="M187.23,-1694.61C181.99,-1686.31 176.39,-1677.41 170.95,-1668.79"/>
<polygon fill="black" stroke="black" points="174.01,-1667.09 165.72,-1660.5 168.09,-1670.82 174.01,-1667.09"/>
</g>
<!-- Old Careless -->
<g id="node46" class="node">
<title>Old Careless</title>
<polygon fill="lightblue" stroke="lightblue" points="201.62,-1885 104.62,-1885 104.62,-1808 201.62,-1808 201.62,-1885"/>
<image xlink:href="img/mob.png" width="97px" height="77px" preserveAspectRatio="xMinYMin meet" x="104.625" y="-1885"/>
<text text-anchor="middle" x="153.12" y="-1840.7" font-family="MS Gothic" font-size="14.00">Old Careless</text>
</g>
<!-- Old Careless&#45;&gt;Betty Leedes -->
<g id="edge45" class="edge">
<title>Old Careless&#45;&gt;Betty Leedes</title>
<path fill="none" stroke="black" d="M172.92,-1807.61C177.17,-1799.48 181.71,-1790.8 186.12,-1782.35"/>
<polygon fill="black" stroke="black" points="189.19,-1784.04 190.72,-1773.56 182.98,-1780.8 189.19,-1784.04"/>
</g>
<!-- Cream Cheeks -->
<g id="node47" class="node">
<title>Cream Cheeks</title>
<polygon fill="lightcoral" stroke="lightcoral" points="316.62,-1885 219.62,-1885 219.62,-1808 316.62,-1808 316.62,-1885"/>
<image xlink:href="img/mob.png" width="97px" height="77px" preserveAspectRatio="xMinYMin meet" x="219.625" y="-1885"/>
<text text-anchor="middle" x="268.12" y="-1840.7" font-family="MS Gothic" font-size="14.00">Cream Cheeks</text>
</g>
<!-- Cream Cheeks&#45;&gt;Betty Leedes -->
<g id="edge46" class="edge">
<title>Cream Cheeks&#45;&gt;Betty Leedes</title>
<path fill="none" stroke="black" d="M248.67,-1807.61C244.5,-1799.48 240.03,-1790.8 235.7,-1782.35"/>
<polygon fill="black" stroke="black" points="238.87,-1780.86 231.19,-1773.57 232.64,-1784.06 238.87,-1780.86"/>
</g>
</g>
</svg>
