<?xml version="1.0" encoding="UTF-8" standalone="no"?>
<!DOCTYPE svg PUBLIC "-//W3C//DTD SVG 1.1//EN"
 "http://www.w3.org/Graphics/SVG/1.1/DTD/svg11.dtd">
<!-- Generated by graphviz version 12.1.2 (20240928.0832)
 -->
<!-- Pages: 1 -->
<svg width="633pt" height="763pt"
 viewBox="0.00 0.00 632.62 763.00" xmlns="http://www.w3.org/2000/svg" xmlns:xlink="http://www.w3.org/1999/xlink">
<g id="graph0" class="graph" transform="scale(1 1) rotate(0) translate(4 759)">
<polygon fill="white" stroke="none" points="-4,4 -4,-759 628.62,-759 628.62,4 -4,4"/>
<!-- Sorcerer -->
<g id="node1" class="node">
<title>Sorcerer</title>
<polygon fill="none" stroke="black" points="477.62,-77 400.62,-77 400.62,0 477.62,0 477.62,-77"/>
<image xlink:href="img/mob.png" width="77px" height="77px" preserveAspectRatio="xMinYMin meet" x="400.625" y="-77"/>
<text text-anchor="middle" x="439.12" y="-33.45" font-family="Times New Roman,serif" font-size="14.00">Sorcerer</text>
</g>
<!-- Trumpator -->
<g id="node2" class="node">
<title>Trumpator</title>
<polygon fill="lightblue" stroke="lightblue" points="421.62,-190 344.62,-190 344.62,-113 421.62,-113 421.62,-190"/>
<image xlink:href="img/mob.png" width="77px" height="77px" preserveAspectRatio="xMinYMin meet" x="344.625" y="-190"/>
<text text-anchor="middle" x="383.12" y="-145.7" font-family="MS Gothic" font-size="14.00">Trumpator</text>
</g>
<!-- Trumpator&#45;&gt;Sorcerer -->
<g id="edge1" class="edge">
<title>Trumpator&#45;&gt;Sorcerer</title>
<path fill="none" stroke="black" d="M402.24,-112.61C406.34,-104.48 410.72,-95.8 414.99,-87.35"/>
<polygon fill="black" stroke="black" points="418.03,-89.07 419.41,-78.57 411.78,-85.92 418.03,-89.07"/>
</g>
<!-- Young Giantess -->
<g id="node3" class="node">
<title>Young Giantess</title>
<polygon fill="lightcoral" stroke="lightcoral" points="550.38,-190 439.88,-190 439.88,-113 550.38,-113 550.38,-190"/>
<image xlink:href="img/mob.png" width="100px" height="77px" preserveAspectRatio="xMinYMin meet" x="445.125" y="-190"/>
<text text-anchor="middle" x="495.12" y="-145.7" font-family="MS Gothic" font-size="14.00">Young Giantess</text>
</g>
<!-- Young Giantess&#45;&gt;Sorcerer -->
<g id="edge2" class="edge">
<title>Young Giantess&#45;&gt;Sorcerer</title>
<path fill="none" stroke="black" d="M476.01,-112.61C471.91,-104.48 467.53,-95.8 463.26,-87.35"/>
<polygon fill="black" stroke="black" points="466.47,-85.92 458.84,-78.57 460.22,-89.07 466.47,-85.92"/>
</g>
<!-- Conductor -->
<g id="node4" class="node">
<title>Conductor</title>
<polygon fill="lightblue" stroke="lightblue" points="331.62,-303 254.62,-303 254.62,-226 331.62,-226 331.62,-303"/>
<image xlink:href="img/mob.png" width="77px" height="77px" preserveAspectRatio="xMinYMin meet" x="254.625" y="-303"/>
<text text-anchor="middle" x="293.12" y="-258.7" font-family="MS Gothic" font-size="14.00">Conductor</text>
</g>
<!-- Conductor&#45;&gt;Trumpator -->
<g id="edge3" class="edge">
<title>Conductor&#45;&gt;Trumpator</title>
<path fill="none" stroke="black" d="M323.85,-225.61C330.8,-217.04 338.26,-207.84 345.46,-198.96"/>
<polygon fill="black" stroke="black" points="348.01,-201.37 351.59,-191.39 342.57,-196.96 348.01,-201.37"/>
</g>
<!-- Brunette -->
<g id="node5" class="node">
<title>Brunette</title>
<polygon fill="lightcoral" stroke="lightcoral" points="426.62,-303 349.62,-303 349.62,-226 426.62,-226 426.62,-303"/>
<image xlink:href="img/mob.png" width="77px" height="77px" preserveAspectRatio="xMinYMin meet" x="349.625" y="-303"/>
<text text-anchor="middle" x="388.12" y="-258.7" font-family="MS Gothic" font-size="14.00">Brunette</text>
</g>
<!-- Brunette&#45;&gt;Trumpator -->
<g id="edge4" class="edge">
<title>Brunette&#45;&gt;Trumpator</title>
<path fill="none" stroke="black" d="M386.42,-225.61C386.07,-217.84 385.7,-209.56 385.33,-201.46"/>
<polygon fill="black" stroke="black" points="388.84,-201.56 384.89,-191.73 381.85,-201.88 388.84,-201.56"/>
</g>
<!-- Diomed -->
<g id="node6" class="node">
<title>Diomed</title>
<polygon fill="lightblue" stroke="lightblue" points="529.62,-303 452.62,-303 452.62,-226 529.62,-226 529.62,-303"/>
<image xlink:href="img/mob.png" width="77px" height="77px" preserveAspectRatio="xMinYMin meet" x="452.625" y="-303"/>
<text text-anchor="middle" x="491.12" y="-258.7" font-family="MS Gothic" font-size="14.00">Diomed</text>
</g>
<!-- Diomed&#45;&gt;Young Giantess -->
<g id="edge5" class="edge">
<title>Diomed&#45;&gt;Young Giantess</title>
<path fill="none" stroke="black" d="M492.49,-225.61C492.77,-217.84 493.07,-209.56 493.36,-201.46"/>
<polygon fill="black" stroke="black" points="496.85,-201.85 493.71,-191.73 489.85,-201.6 496.85,-201.85"/>
</g>
<!-- Giantess -->
<g id="node7" class="node">
<title>Giantess</title>
<polygon fill="lightcoral" stroke="lightcoral" points="624.62,-303 547.62,-303 547.62,-226 624.62,-226 624.62,-303"/>
<image xlink:href="img/mob.png" width="77px" height="77px" preserveAspectRatio="xMinYMin meet" x="547.625" y="-303"/>
<text text-anchor="middle" x="586.12" y="-258.7" font-family="MS Gothic" font-size="14.00">Giantess</text>
</g>
<!-- Giantess&#45;&gt;Young Giantess -->
<g id="edge6" class="edge">
<title>Giantess&#45;&gt;Young Giantess</title>
<path fill="none" stroke="black" d="M555.06,-225.61C548.03,-217.04 540.49,-207.84 533.21,-198.96"/>
<polygon fill="black" stroke="black" points="536.05,-196.9 527.01,-191.39 530.64,-201.34 536.05,-196.9"/>
</g>
<!-- Matchem -->
<g id="node8" class="node">
<title>Matchem</title>
<polygon fill="lightblue" stroke="lightblue" points="279.62,-416 202.62,-416 202.62,-339 279.62,-339 279.62,-416"/>
<image xlink:href="img/mob.png" width="77px" height="77px" preserveAspectRatio="xMinYMin meet" x="202.625" y="-416"/>
<text text-anchor="middle" x="241.12" y="-371.7" font-family="MS Gothic" font-size="14.00">Matchem</text>
</g>
<!-- Matchem&#45;&gt;Conductor -->
<g id="edge7" class="edge">
<title>Matchem&#45;&gt;Conductor</title>
<path fill="none" stroke="black" d="M258.88,-338.61C262.64,-330.57 266.66,-321.99 270.58,-313.63"/>
<polygon fill="black" stroke="black" points="273.74,-315.13 274.81,-304.59 267.4,-312.16 273.74,-315.13"/>
</g>
<!-- Snap Mare -->
<g id="node9" class="node">
<title>Snap Mare</title>
<polygon fill="lightcoral" stroke="lightcoral" points="384.62,-416 307.62,-416 307.62,-339 384.62,-339 384.62,-416"/>
<image xlink:href="img/mob.png" width="77px" height="77px" preserveAspectRatio="xMinYMin meet" x="307.625" y="-416"/>
<text text-anchor="middle" x="346.12" y="-371.7" font-family="MS Gothic" font-size="14.00">Snap Mare</text>
</g>
<!-- Snap Mare&#45;&gt;Conductor -->
<g id="edge8" class="edge">
<title>Snap Mare&#45;&gt;Conductor</title>
<path fill="none" stroke="black" d="M328.03,-338.61C324.15,-330.48 320.01,-321.8 315.97,-313.35"/>
<polygon fill="black" stroke="black" points="319.25,-312.1 311.79,-304.58 312.94,-315.12 319.25,-312.1"/>
</g>
<!-- Cade -->
<g id="node10" class="node">
<title>Cade</title>
<polygon fill="lightblue" stroke="lightblue" points="174.62,-529 97.62,-529 97.62,-452 174.62,-452 174.62,-529"/>
<image xlink:href="img/mob.png" width="77px" height="77px" preserveAspectRatio="xMinYMin meet" x="97.625" y="-529"/>
<text text-anchor="middle" x="136.12" y="-484.7" font-family="MS Gothic" font-size="14.00">Cade</text>
</g>
<!-- Cade&#45;&gt;Matchem -->
<g id="edge9" class="edge">
<title>Cade&#45;&gt;Matchem</title>
<path fill="none" stroke="black" d="M171.97,-451.61C180.24,-442.86 189.14,-433.46 197.7,-424.4"/>
<polygon fill="black" stroke="black" points="200.08,-426.99 204.41,-417.32 194.99,-422.18 200.08,-426.99"/>
</g>
<!-- Partner Mare -->
<g id="node11" class="node">
<title>Partner Mare</title>
<polygon fill="lightcoral" stroke="lightcoral" points="289.62,-529 192.62,-529 192.62,-452 289.62,-452 289.62,-529"/>
<image xlink:href="img/mob.png" width="97px" height="77px" preserveAspectRatio="xMinYMin meet" x="192.625" y="-529"/>
<text text-anchor="middle" x="241.12" y="-484.7" font-family="MS Gothic" font-size="14.00">Partner Mare</text>
</g>
<!-- Partner Mare&#45;&gt;Matchem -->
<g id="edge10" class="edge">
<title>Partner Mare&#45;&gt;Matchem</title>
<path fill="none" stroke="black" d="M241.12,-451.61C241.12,-443.84 241.12,-435.56 241.12,-427.46"/>
<polygon fill="black" stroke="black" points="244.63,-427.73 241.13,-417.73 237.63,-427.73 244.63,-427.73"/>
</g>
<!-- Snap -->
<g id="node12" class="node">
<title>Snap</title>
<polygon fill="lightblue" stroke="lightblue" points="384.62,-529 307.62,-529 307.62,-452 384.62,-452 384.62,-529"/>
<image xlink:href="img/mob.png" width="77px" height="77px" preserveAspectRatio="xMinYMin meet" x="307.625" y="-529"/>
<text text-anchor="middle" x="346.12" y="-484.7" font-family="MS Gothic" font-size="14.00">Snap</text>
</g>
<!-- Snap&#45;&gt;Snap Mare -->
<g id="edge11" class="edge">
<title>Snap&#45;&gt;Snap Mare</title>
<path fill="none" stroke="black" d="M346.12,-451.61C346.12,-443.84 346.12,-435.56 346.12,-427.46"/>
<polygon fill="black" stroke="black" points="349.63,-427.73 346.13,-417.73 342.63,-427.73 349.63,-427.73"/>
</g>
<!-- Diana -->
<g id="node13" class="node">
<title>Diana</title>
<polygon fill="lightcoral" stroke="lightcoral" points="479.62,-529 402.62,-529 402.62,-452 479.62,-452 479.62,-529"/>
<image xlink:href="img/mob.png" width="77px" height="77px" preserveAspectRatio="xMinYMin meet" x="402.625" y="-529"/>
<text text-anchor="middle" x="441.12" y="-484.7" font-family="MS Gothic" font-size="14.00">Diana</text>
</g>
<!-- Diana&#45;&gt;Snap Mare -->
<g id="edge12" class="edge">
<title>Diana&#45;&gt;Snap Mare</title>
<path fill="none" stroke="black" d="M408.7,-451.61C401.36,-443.04 393.49,-433.84 385.89,-424.96"/>
<polygon fill="black" stroke="black" points="388.55,-422.69 379.39,-417.37 383.23,-427.24 388.55,-422.69"/>
</g>
<!-- ゴドルフィンバルブ -->
<g id="node14" class="node">
<title>ゴドルフィンバルブ</title>
<polygon fill="lightblue" stroke="lightblue" points="144.25,-642 0,-642 0,-565 144.25,-565 144.25,-642"/>
<image xlink:href="img/mob.png" width="100px" height="77px" preserveAspectRatio="xMinYMin meet" x="22.125" y="-642"/>
<text text-anchor="middle" x="72.12" y="-597.7" font-family="MS Gothic" font-size="14.00">ゴドルフィンバルブ</text>
</g>
<!-- ゴドルフィンバルブ&#45;&gt;Cade -->
<g id="edge13" class="edge">
<title>ゴドルフィンバルブ&#45;&gt;Cade</title>
<path fill="none" stroke="black" d="M93.97,-564.61C98.71,-556.39 103.78,-547.6 108.7,-539.07"/>
<polygon fill="black" stroke="black" points="111.66,-540.94 113.62,-530.53 105.59,-537.44 111.66,-540.94"/>
</g>
<!-- Roxana -->
<g id="node15" class="node">
<title>Roxana</title>
<polygon fill="lightcoral" stroke="lightcoral" points="239.62,-642 162.62,-642 162.62,-565 239.62,-565 239.62,-642"/>
<image xlink:href="img/mob.png" width="77px" height="77px" preserveAspectRatio="xMinYMin meet" x="162.625" y="-642"/>
<text text-anchor="middle" x="201.12" y="-597.7" font-family="MS Gothic" font-size="14.00">Roxana</text>
</g>
<!-- Roxana&#45;&gt;Cade -->
<g id="edge14" class="edge">
<title>Roxana&#45;&gt;Cade</title>
<path fill="none" stroke="black" d="M178.94,-564.61C174.13,-556.39 168.98,-547.6 163.98,-539.07"/>
<polygon fill="black" stroke="black" points="167.05,-537.39 158.98,-530.52 161.01,-540.92 167.05,-537.39"/>
</g>
<!-- Bald Galloway -->
<g id="node16" class="node">
<title>Bald Galloway</title>
<polygon fill="lightblue" stroke="lightblue" points="183,-755 79.25,-755 79.25,-678 183,-678 183,-755"/>
<image xlink:href="img/mob.png" width="100px" height="77px" preserveAspectRatio="xMinYMin meet" x="81.125" y="-755"/>
<text text-anchor="middle" x="131.12" y="-710.7" font-family="MS Gothic" font-size="14.00">Bald Galloway</text>
</g>
<!-- Bald Galloway&#45;&gt;Roxana -->
<g id="edge15" class="edge">
<title>Bald Galloway&#45;&gt;Roxana</title>
<path fill="none" stroke="black" d="M155.02,-677.61C160.26,-669.31 165.86,-660.41 171.3,-651.79"/>
<polygon fill="black" stroke="black" points="174.16,-653.82 176.53,-643.5 168.24,-650.09 174.16,-653.82"/>
</g>
<!-- Sister to Chaunter -->
<g id="node17" class="node">
<title>Sister to Chaunter</title>
<polygon fill="lightcoral" stroke="lightcoral" points="338.88,-755 201.38,-755 201.38,-678 338.88,-678 338.88,-755"/>
<image xlink:href="img/mob.png" width="100px" height="77px" preserveAspectRatio="xMinYMin meet" x="220.125" y="-755"/>
<text text-anchor="middle" x="270.12" y="-710.7" font-family="MS Gothic" font-size="14.00">Sister to Chaunter</text>
</g>
<!-- Sister to Chaunter&#45;&gt;Roxana -->
<g id="edge16" class="edge">
<title>Sister to Chaunter&#45;&gt;Roxana</title>
<path fill="none" stroke="black" d="M246.57,-677.61C241.41,-669.31 235.88,-660.41 230.52,-651.79"/>
<polygon fill="black" stroke="black" points="233.62,-650.15 225.37,-643.5 227.68,-653.84 233.62,-650.15"/>
</g>
</g>
</svg>
