<?xml version="1.0" encoding="UTF-8" standalone="no"?>
<!DOCTYPE svg PUBLIC "-//W3C//DTD SVG 1.1//EN"
 "http://www.w3.org/Graphics/SVG/1.1/DTD/svg11.dtd">
<!-- Generated by graphviz version 12.1.2 (20240928.0832)
 -->
<!-- Pages: 1 -->
<svg width="1146pt" height="1441pt"
 viewBox="0.00 0.00 1145.62 1441.00" xmlns="http://www.w3.org/2000/svg" xmlns:xlink="http://www.w3.org/1999/xlink">
<g id="graph0" class="graph" transform="scale(1 1) rotate(0) translate(4 1437)">
<polygon fill="white" stroke="none" points="-4,4 -4,-1437 1141.62,-1437 1141.62,4 -4,4"/>
<!-- Spendthrift -->
<g id="node1" class="node">
<title>Spendthrift</title>
<polygon fill="none" stroke="black" points="994.62,-77 917.62,-77 917.62,0 994.62,0 994.62,-77"/>
<image xlink:href="img/mob.png" width="77px" height="77px" preserveAspectRatio="xMinYMin meet" x="917.625" y="-77"/>
<text text-anchor="middle" x="956.12" y="-33.45" font-family="Times New Roman,serif" font-size="14.00">Spendthrift</text>
</g>
<!-- Australian -->
<g id="node2" class="node">
<title>Australian</title>
<polygon fill="lightblue" stroke="lightblue" points="948.88,-190 865.38,-190 865.38,-113 948.88,-113 948.88,-190"/>
<image xlink:href="img/mob.png" width="83.5px" height="77px" preserveAspectRatio="xMinYMin meet" x="865.375" y="-190"/>
<text text-anchor="middle" x="907.12" y="-145.7" font-family="MS Gothic" font-size="14.00">Australian</text>
</g>
<!-- Australian&#45;&gt;Spendthrift -->
<g id="edge1" class="edge">
<title>Australian&#45;&gt;Spendthrift</title>
<path fill="none" stroke="black" d="M923.85,-112.61C927.4,-104.57 931.19,-95.99 934.88,-87.63"/>
<polygon fill="black" stroke="black" points="938.03,-89.17 938.86,-78.6 931.62,-86.34 938.03,-89.17"/>
</g>
<!-- Aerolite -->
<g id="node3" class="node">
<title>Aerolite</title>
<polygon fill="lightcoral" stroke="lightcoral" points="1043.62,-190 966.62,-190 966.62,-113 1043.62,-113 1043.62,-190"/>
<image xlink:href="img/mob.png" width="77px" height="77px" preserveAspectRatio="xMinYMin meet" x="966.625" y="-190"/>
<text text-anchor="middle" x="1005.12" y="-145.7" font-family="MS Gothic" font-size="14.00">Aerolite</text>
</g>
<!-- Aerolite&#45;&gt;Spendthrift -->
<g id="edge2" class="edge">
<title>Aerolite&#45;&gt;Spendthrift</title>
<path fill="none" stroke="black" d="M988.4,-112.61C984.85,-104.57 981.06,-95.99 977.37,-87.63"/>
<polygon fill="black" stroke="black" points="980.63,-86.34 973.39,-78.6 974.22,-89.17 980.63,-86.34"/>
</g>
<!-- West Australian -->
<g id="node4" class="node">
<title>West Australian</title>
<polygon fill="lightblue" stroke="lightblue" points="851.75,-303 734.5,-303 734.5,-226 851.75,-226 851.75,-303"/>
<image xlink:href="img/mob.png" width="100px" height="77px" preserveAspectRatio="xMinYMin meet" x="743.125" y="-303"/>
<text text-anchor="middle" x="793.12" y="-258.7" font-family="MS Gothic" font-size="14.00">West Australian</text>
</g>
<!-- West Australian&#45;&gt;Australian -->
<g id="edge3" class="edge">
<title>West Australian&#45;&gt;Australian</title>
<path fill="none" stroke="black" d="M832.04,-225.61C841.12,-216.77 850.88,-207.26 860.26,-198.13"/>
<polygon fill="black" stroke="black" points="862.58,-200.76 867.3,-191.27 857.7,-195.74 862.58,-200.76"/>
</g>
<!-- Emilia -->
<g id="node5" class="node">
<title>Emilia</title>
<polygon fill="lightcoral" stroke="lightcoral" points="946.62,-303 869.62,-303 869.62,-226 946.62,-226 946.62,-303"/>
<image xlink:href="img/mob.png" width="77px" height="77px" preserveAspectRatio="xMinYMin meet" x="869.625" y="-303"/>
<text text-anchor="middle" x="908.12" y="-258.7" font-family="MS Gothic" font-size="14.00">Emilia</text>
</g>
<!-- Emilia&#45;&gt;Australian -->
<g id="edge4" class="edge">
<title>Emilia&#45;&gt;Australian</title>
<path fill="none" stroke="black" d="M907.78,-225.61C907.71,-217.84 907.64,-209.56 907.57,-201.46"/>
<polygon fill="black" stroke="black" points="911.07,-201.7 907.48,-191.73 904.07,-201.76 911.07,-201.7"/>
</g>
<!-- Lexington -->
<g id="node6" class="node">
<title>Lexington</title>
<polygon fill="lightblue" stroke="lightblue" points="1042.62,-303 965.62,-303 965.62,-226 1042.62,-226 1042.62,-303"/>
<image xlink:href="img/mob.png" width="77px" height="77px" preserveAspectRatio="xMinYMin meet" x="965.625" y="-303"/>
<text text-anchor="middle" x="1004.12" y="-258.7" font-family="MS Gothic" font-size="14.00">Lexington</text>
</g>
<!-- Lexington&#45;&gt;Aerolite -->
<g id="edge5" class="edge">
<title>Lexington&#45;&gt;Aerolite</title>
<path fill="none" stroke="black" d="M1004.47,-225.61C1004.54,-217.84 1004.61,-209.56 1004.68,-201.46"/>
<polygon fill="black" stroke="black" points="1008.18,-201.76 1004.77,-191.73 1001.18,-201.7 1008.18,-201.76"/>
</g>
<!-- Florine -->
<g id="node7" class="node">
<title>Florine</title>
<polygon fill="lightcoral" stroke="lightcoral" points="1137.62,-303 1060.62,-303 1060.62,-226 1137.62,-226 1137.62,-303"/>
<image xlink:href="img/mob.png" width="77px" height="77px" preserveAspectRatio="xMinYMin meet" x="1060.62" y="-303"/>
<text text-anchor="middle" x="1099.12" y="-258.7" font-family="MS Gothic" font-size="14.00">Florine</text>
</g>
<!-- Florine&#45;&gt;Aerolite -->
<g id="edge6" class="edge">
<title>Florine&#45;&gt;Aerolite</title>
<path fill="none" stroke="black" d="M1067.04,-225.61C1059.78,-217.04 1051.99,-207.84 1044.47,-198.96"/>
<polygon fill="black" stroke="black" points="1047.18,-196.74 1038.05,-191.37 1041.84,-201.27 1047.18,-196.74"/>
</g>
<!-- Melbourne -->
<g id="node8" class="node">
<title>Melbourne</title>
<polygon fill="lightblue" stroke="lightblue" points="774.62,-416 697.62,-416 697.62,-339 774.62,-339 774.62,-416"/>
<image xlink:href="img/mob.png" width="77px" height="77px" preserveAspectRatio="xMinYMin meet" x="697.625" y="-416"/>
<text text-anchor="middle" x="736.12" y="-371.7" font-family="MS Gothic" font-size="14.00">Melbourne</text>
</g>
<!-- Melbourne&#45;&gt;West Australian -->
<g id="edge7" class="edge">
<title>Melbourne&#45;&gt;West Australian</title>
<path fill="none" stroke="black" d="M755.58,-338.61C759.75,-330.48 764.22,-321.8 768.55,-313.35"/>
<polygon fill="black" stroke="black" points="771.61,-315.06 773.06,-304.57 765.38,-311.86 771.61,-315.06"/>
</g>
<!-- Mowerina -->
<g id="node9" class="node">
<title>Mowerina</title>
<polygon fill="lightcoral" stroke="lightcoral" points="889.62,-416 812.62,-416 812.62,-339 889.62,-339 889.62,-416"/>
<image xlink:href="img/mob.png" width="77px" height="77px" preserveAspectRatio="xMinYMin meet" x="812.625" y="-416"/>
<text text-anchor="middle" x="851.12" y="-371.7" font-family="MS Gothic" font-size="14.00">Mowerina</text>
</g>
<!-- Mowerina&#45;&gt;West Australian -->
<g id="edge8" class="edge">
<title>Mowerina&#45;&gt;West Australian</title>
<path fill="none" stroke="black" d="M831.33,-338.61C827.08,-330.48 822.54,-321.8 818.13,-313.35"/>
<polygon fill="black" stroke="black" points="821.27,-311.8 813.53,-304.56 815.06,-315.04 821.27,-311.8"/>
</g>
<!-- Humphrey Clinker -->
<g id="node10" class="node">
<title>Humphrey Clinker</title>
<polygon fill="lightblue" stroke="lightblue" points="663.12,-529 539.12,-529 539.12,-452 663.12,-452 663.12,-529"/>
<image xlink:href="img/mob.png" width="100px" height="77px" preserveAspectRatio="xMinYMin meet" x="551.125" y="-529"/>
<text text-anchor="middle" x="601.12" y="-484.7" font-family="MS Gothic" font-size="14.00">Humphrey Clinker</text>
</g>
<!-- Humphrey Clinker&#45;&gt;Melbourne -->
<g id="edge9" class="edge">
<title>Humphrey Clinker&#45;&gt;Melbourne</title>
<path fill="none" stroke="black" d="M647.21,-451.61C660.62,-440.59 675.28,-428.53 688.77,-417.44"/>
<polygon fill="black" stroke="black" points="690.76,-420.33 696.27,-411.27 686.32,-414.92 690.76,-420.33"/>
</g>
<!-- Cervantes Mare -->
<g id="node11" class="node">
<title>Cervantes Mare</title>
<polygon fill="lightcoral" stroke="lightcoral" points="791.38,-529 680.88,-529 680.88,-452 791.38,-452 791.38,-529"/>
<image xlink:href="img/mob.png" width="100px" height="77px" preserveAspectRatio="xMinYMin meet" x="686.125" y="-529"/>
<text text-anchor="middle" x="736.12" y="-484.7" font-family="MS Gothic" font-size="14.00">Cervantes Mare</text>
</g>
<!-- Cervantes Mare&#45;&gt;Melbourne -->
<g id="edge10" class="edge">
<title>Cervantes Mare&#45;&gt;Melbourne</title>
<path fill="none" stroke="black" d="M736.12,-451.61C736.12,-443.84 736.12,-435.56 736.12,-427.46"/>
<polygon fill="black" stroke="black" points="739.63,-427.73 736.13,-417.73 732.63,-427.73 739.63,-427.73"/>
</g>
<!-- Touchstone -->
<g id="node12" class="node">
<title>Touchstone</title>
<polygon fill="lightblue" stroke="lightblue" points="892.88,-529 809.38,-529 809.38,-452 892.88,-452 892.88,-529"/>
<image xlink:href="img/mob.png" width="83.5px" height="77px" preserveAspectRatio="xMinYMin meet" x="809.375" y="-529"/>
<text text-anchor="middle" x="851.12" y="-484.7" font-family="MS Gothic" font-size="14.00">Touchstone</text>
</g>
<!-- Touchstone&#45;&gt;Mowerina -->
<g id="edge11" class="edge">
<title>Touchstone&#45;&gt;Mowerina</title>
<path fill="none" stroke="black" d="M851.12,-451.61C851.12,-443.84 851.12,-435.56 851.12,-427.46"/>
<polygon fill="black" stroke="black" points="854.63,-427.73 851.13,-417.73 847.63,-427.73 854.63,-427.73"/>
</g>
<!-- Emma -->
<g id="node13" class="node">
<title>Emma</title>
<polygon fill="lightcoral" stroke="lightcoral" points="987.62,-529 910.62,-529 910.62,-452 987.62,-452 987.62,-529"/>
<image xlink:href="img/mob.png" width="77px" height="77px" preserveAspectRatio="xMinYMin meet" x="910.625" y="-529"/>
<text text-anchor="middle" x="949.12" y="-484.7" font-family="MS Gothic" font-size="14.00">Emma</text>
</g>
<!-- Emma&#45;&gt;Mowerina -->
<g id="edge12" class="edge">
<title>Emma&#45;&gt;Mowerina</title>
<path fill="none" stroke="black" d="M915.67,-451.61C908.03,-442.95 899.81,-433.65 891.9,-424.68"/>
<polygon fill="black" stroke="black" points="894.67,-422.53 885.43,-417.35 889.42,-427.17 894.67,-422.53"/>
</g>
<!-- Comus -->
<g id="node14" class="node">
<title>Comus</title>
<polygon fill="lightblue" stroke="lightblue" points="585.62,-642 508.62,-642 508.62,-565 585.62,-565 585.62,-642"/>
<image xlink:href="img/mob.png" width="77px" height="77px" preserveAspectRatio="xMinYMin meet" x="508.625" y="-642"/>
<text text-anchor="middle" x="547.12" y="-597.7" font-family="MS Gothic" font-size="14.00">Comus</text>
</g>
<!-- Comus&#45;&gt;Humphrey Clinker -->
<g id="edge13" class="edge">
<title>Comus&#45;&gt;Humphrey Clinker</title>
<path fill="none" stroke="black" d="M565.56,-564.61C569.51,-556.48 573.74,-547.8 577.85,-539.35"/>
<polygon fill="black" stroke="black" points="580.89,-541.1 582.11,-530.58 574.59,-538.04 580.89,-541.1"/>
</g>
<!-- Clinkerina -->
<g id="node15" class="node">
<title>Clinkerina</title>
<polygon fill="lightcoral" stroke="lightcoral" points="696.88,-642 613.38,-642 613.38,-565 696.88,-565 696.88,-642"/>
<image xlink:href="img/mob.png" width="83.5px" height="77px" preserveAspectRatio="xMinYMin meet" x="613.375" y="-642"/>
<text text-anchor="middle" x="655.12" y="-597.7" font-family="MS Gothic" font-size="14.00">Clinkerina</text>
</g>
<!-- Clinkerina&#45;&gt;Humphrey Clinker -->
<g id="edge14" class="edge">
<title>Clinkerina&#45;&gt;Humphrey Clinker</title>
<path fill="none" stroke="black" d="M636.69,-564.61C632.74,-556.48 628.51,-547.8 624.4,-539.35"/>
<polygon fill="black" stroke="black" points="627.66,-538.04 620.14,-530.58 621.36,-541.1 627.66,-538.04"/>
</g>
<!-- Sorcerer -->
<g id="node16" class="node">
<title>Sorcerer</title>
<polygon fill="lightblue" stroke="lightblue" points="477.62,-755 400.62,-755 400.62,-678 477.62,-678 477.62,-755"/>
<image xlink:href="img/mob.png" width="77px" height="77px" preserveAspectRatio="xMinYMin meet" x="400.625" y="-755"/>
<text text-anchor="middle" x="439.12" y="-710.7" font-family="MS Gothic" font-size="14.00">Sorcerer</text>
</g>
<!-- Sorcerer&#45;&gt;Comus -->
<g id="edge15" class="edge">
<title>Sorcerer&#45;&gt;Comus</title>
<path fill="none" stroke="black" d="M475.99,-677.61C484.51,-668.86 493.65,-659.46 502.46,-650.4"/>
<polygon fill="black" stroke="black" points="504.91,-652.91 509.37,-643.3 499.89,-648.03 504.91,-652.91"/>
</g>
<!-- Houghton Lass -->
<g id="node17" class="node">
<title>Houghton Lass</title>
<polygon fill="lightcoral" stroke="lightcoral" points="599,-755 495.25,-755 495.25,-678 599,-678 599,-755"/>
<image xlink:href="img/mob.png" width="100px" height="77px" preserveAspectRatio="xMinYMin meet" x="497.125" y="-755"/>
<text text-anchor="middle" x="547.12" y="-710.7" font-family="MS Gothic" font-size="14.00">Houghton Lass</text>
</g>
<!-- Houghton Lass&#45;&gt;Comus -->
<g id="edge16" class="edge">
<title>Houghton Lass&#45;&gt;Comus</title>
<path fill="none" stroke="black" d="M547.12,-677.61C547.12,-669.84 547.12,-661.56 547.12,-653.46"/>
<polygon fill="black" stroke="black" points="550.63,-653.73 547.13,-643.73 543.63,-653.73 550.63,-653.73"/>
</g>
<!-- Clinker -->
<g id="node18" class="node">
<title>Clinker</title>
<polygon fill="lightblue" stroke="lightblue" points="693.62,-755 616.62,-755 616.62,-678 693.62,-678 693.62,-755"/>
<image xlink:href="img/mob.png" width="77px" height="77px" preserveAspectRatio="xMinYMin meet" x="616.625" y="-755"/>
<text text-anchor="middle" x="655.12" y="-710.7" font-family="MS Gothic" font-size="14.00">Clinker</text>
</g>
<!-- Clinker&#45;&gt;Clinkerina -->
<g id="edge17" class="edge">
<title>Clinker&#45;&gt;Clinkerina</title>
<path fill="none" stroke="black" d="M655.12,-677.61C655.12,-669.84 655.12,-661.56 655.12,-653.46"/>
<polygon fill="black" stroke="black" points="658.63,-653.73 655.13,-643.73 651.63,-653.73 658.63,-653.73"/>
</g>
<!-- Pewet -->
<g id="node19" class="node">
<title>Pewet</title>
<polygon fill="lightcoral" stroke="lightcoral" points="788.62,-755 711.62,-755 711.62,-678 788.62,-678 788.62,-755"/>
<image xlink:href="img/mob.png" width="77px" height="77px" preserveAspectRatio="xMinYMin meet" x="711.625" y="-755"/>
<text text-anchor="middle" x="750.12" y="-710.7" font-family="MS Gothic" font-size="14.00">Pewet</text>
</g>
<!-- Pewet&#45;&gt;Clinkerina -->
<g id="edge18" class="edge">
<title>Pewet&#45;&gt;Clinkerina</title>
<path fill="none" stroke="black" d="M717.7,-677.61C710.36,-669.04 702.49,-659.84 694.89,-650.96"/>
<polygon fill="black" stroke="black" points="697.55,-648.69 688.39,-643.37 692.23,-653.24 697.55,-648.69"/>
</g>
<!-- Trumpator -->
<g id="node20" class="node">
<title>Trumpator</title>
<polygon fill="lightblue" stroke="lightblue" points="421.62,-868 344.62,-868 344.62,-791 421.62,-791 421.62,-868"/>
<image xlink:href="img/mob.png" width="77px" height="77px" preserveAspectRatio="xMinYMin meet" x="344.625" y="-868"/>
<text text-anchor="middle" x="383.12" y="-823.7" font-family="MS Gothic" font-size="14.00">Trumpator</text>
</g>
<!-- Trumpator&#45;&gt;Sorcerer -->
<g id="edge19" class="edge">
<title>Trumpator&#45;&gt;Sorcerer</title>
<path fill="none" stroke="black" d="M402.24,-790.61C406.34,-782.48 410.72,-773.8 414.99,-765.35"/>
<polygon fill="black" stroke="black" points="418.03,-767.07 419.41,-756.57 411.78,-763.92 418.03,-767.07"/>
</g>
<!-- Young Giantess -->
<g id="node21" class="node">
<title>Young Giantess</title>
<polygon fill="lightcoral" stroke="lightcoral" points="550.38,-868 439.88,-868 439.88,-791 550.38,-791 550.38,-868"/>
<image xlink:href="img/mob.png" width="100px" height="77px" preserveAspectRatio="xMinYMin meet" x="445.125" y="-868"/>
<text text-anchor="middle" x="495.12" y="-823.7" font-family="MS Gothic" font-size="14.00">Young Giantess</text>
</g>
<!-- Young Giantess&#45;&gt;Sorcerer -->
<g id="edge20" class="edge">
<title>Young Giantess&#45;&gt;Sorcerer</title>
<path fill="none" stroke="black" d="M476.01,-790.61C471.91,-782.48 467.53,-773.8 463.26,-765.35"/>
<polygon fill="black" stroke="black" points="466.47,-763.92 458.84,-756.57 460.22,-767.07 466.47,-763.92"/>
</g>
<!-- Conductor -->
<g id="node22" class="node">
<title>Conductor</title>
<polygon fill="lightblue" stroke="lightblue" points="331.62,-981 254.62,-981 254.62,-904 331.62,-904 331.62,-981"/>
<image xlink:href="img/mob.png" width="77px" height="77px" preserveAspectRatio="xMinYMin meet" x="254.625" y="-981"/>
<text text-anchor="middle" x="293.12" y="-936.7" font-family="MS Gothic" font-size="14.00">Conductor</text>
</g>
<!-- Conductor&#45;&gt;Trumpator -->
<g id="edge21" class="edge">
<title>Conductor&#45;&gt;Trumpator</title>
<path fill="none" stroke="black" d="M323.85,-903.61C330.8,-895.04 338.26,-885.84 345.46,-876.96"/>
<polygon fill="black" stroke="black" points="348.01,-879.37 351.59,-869.39 342.57,-874.96 348.01,-879.37"/>
</g>
<!-- Brunette -->
<g id="node23" class="node">
<title>Brunette</title>
<polygon fill="lightcoral" stroke="lightcoral" points="426.62,-981 349.62,-981 349.62,-904 426.62,-904 426.62,-981"/>
<image xlink:href="img/mob.png" width="77px" height="77px" preserveAspectRatio="xMinYMin meet" x="349.625" y="-981"/>
<text text-anchor="middle" x="388.12" y="-936.7" font-family="MS Gothic" font-size="14.00">Brunette</text>
</g>
<!-- Brunette&#45;&gt;Trumpator -->
<g id="edge22" class="edge">
<title>Brunette&#45;&gt;Trumpator</title>
<path fill="none" stroke="black" d="M386.42,-903.61C386.07,-895.84 385.7,-887.56 385.33,-879.46"/>
<polygon fill="black" stroke="black" points="388.84,-879.56 384.89,-869.73 381.85,-879.88 388.84,-879.56"/>
</g>
<!-- Diomed -->
<g id="node24" class="node">
<title>Diomed</title>
<polygon fill="lightblue" stroke="lightblue" points="529.62,-981 452.62,-981 452.62,-904 529.62,-904 529.62,-981"/>
<image xlink:href="img/mob.png" width="77px" height="77px" preserveAspectRatio="xMinYMin meet" x="452.625" y="-981"/>
<text text-anchor="middle" x="491.12" y="-936.7" font-family="MS Gothic" font-size="14.00">Diomed</text>
</g>
<!-- Diomed&#45;&gt;Young Giantess -->
<g id="edge23" class="edge">
<title>Diomed&#45;&gt;Young Giantess</title>
<path fill="none" stroke="black" d="M492.49,-903.61C492.77,-895.84 493.07,-887.56 493.36,-879.46"/>
<polygon fill="black" stroke="black" points="496.85,-879.85 493.71,-869.73 489.85,-879.6 496.85,-879.85"/>
</g>
<!-- Giantess -->
<g id="node25" class="node">
<title>Giantess</title>
<polygon fill="lightcoral" stroke="lightcoral" points="624.62,-981 547.62,-981 547.62,-904 624.62,-904 624.62,-981"/>
<image xlink:href="img/mob.png" width="77px" height="77px" preserveAspectRatio="xMinYMin meet" x="547.625" y="-981"/>
<text text-anchor="middle" x="586.12" y="-936.7" font-family="MS Gothic" font-size="14.00">Giantess</text>
</g>
<!-- Giantess&#45;&gt;Young Giantess -->
<g id="edge24" class="edge">
<title>Giantess&#45;&gt;Young Giantess</title>
<path fill="none" stroke="black" d="M555.06,-903.61C548.03,-895.04 540.49,-885.84 533.21,-876.96"/>
<polygon fill="black" stroke="black" points="536.05,-874.9 527.01,-869.39 530.64,-879.34 536.05,-874.9"/>
</g>
<!-- Matchem -->
<g id="node26" class="node">
<title>Matchem</title>
<polygon fill="lightblue" stroke="lightblue" points="279.62,-1094 202.62,-1094 202.62,-1017 279.62,-1017 279.62,-1094"/>
<image xlink:href="img/mob.png" width="77px" height="77px" preserveAspectRatio="xMinYMin meet" x="202.625" y="-1094"/>
<text text-anchor="middle" x="241.12" y="-1049.7" font-family="MS Gothic" font-size="14.00">Matchem</text>
</g>
<!-- Matchem&#45;&gt;Conductor -->
<g id="edge25" class="edge">
<title>Matchem&#45;&gt;Conductor</title>
<path fill="none" stroke="black" d="M258.88,-1016.61C262.64,-1008.57 266.66,-999.99 270.58,-991.63"/>
<polygon fill="black" stroke="black" points="273.74,-993.13 274.81,-982.59 267.4,-990.16 273.74,-993.13"/>
</g>
<!-- Snap Mare -->
<g id="node27" class="node">
<title>Snap Mare</title>
<polygon fill="lightcoral" stroke="lightcoral" points="384.62,-1094 307.62,-1094 307.62,-1017 384.62,-1017 384.62,-1094"/>
<image xlink:href="img/mob.png" width="77px" height="77px" preserveAspectRatio="xMinYMin meet" x="307.625" y="-1094"/>
<text text-anchor="middle" x="346.12" y="-1049.7" font-family="MS Gothic" font-size="14.00">Snap Mare</text>
</g>
<!-- Snap Mare&#45;&gt;Conductor -->
<g id="edge26" class="edge">
<title>Snap Mare&#45;&gt;Conductor</title>
<path fill="none" stroke="black" d="M328.03,-1016.61C324.15,-1008.48 320.01,-999.8 315.97,-991.35"/>
<polygon fill="black" stroke="black" points="319.25,-990.1 311.79,-982.58 312.94,-993.12 319.25,-990.1"/>
</g>
<!-- Cade -->
<g id="node28" class="node">
<title>Cade</title>
<polygon fill="lightblue" stroke="lightblue" points="174.62,-1207 97.62,-1207 97.62,-1130 174.62,-1130 174.62,-1207"/>
<image xlink:href="img/mob.png" width="77px" height="77px" preserveAspectRatio="xMinYMin meet" x="97.625" y="-1207"/>
<text text-anchor="middle" x="136.12" y="-1162.7" font-family="MS Gothic" font-size="14.00">Cade</text>
</g>
<!-- Cade&#45;&gt;Matchem -->
<g id="edge27" class="edge">
<title>Cade&#45;&gt;Matchem</title>
<path fill="none" stroke="black" d="M171.97,-1129.61C180.24,-1120.86 189.14,-1111.46 197.7,-1102.4"/>
<polygon fill="black" stroke="black" points="200.08,-1104.99 204.41,-1095.32 194.99,-1100.18 200.08,-1104.99"/>
</g>
<!-- Partner Mare -->
<g id="node29" class="node">
<title>Partner Mare</title>
<polygon fill="lightcoral" stroke="lightcoral" points="289.62,-1207 192.62,-1207 192.62,-1130 289.62,-1130 289.62,-1207"/>
<image xlink:href="img/mob.png" width="97px" height="77px" preserveAspectRatio="xMinYMin meet" x="192.625" y="-1207"/>
<text text-anchor="middle" x="241.12" y="-1162.7" font-family="MS Gothic" font-size="14.00">Partner Mare</text>
</g>
<!-- Partner Mare&#45;&gt;Matchem -->
<g id="edge28" class="edge">
<title>Partner Mare&#45;&gt;Matchem</title>
<path fill="none" stroke="black" d="M241.12,-1129.61C241.12,-1121.84 241.12,-1113.56 241.12,-1105.46"/>
<polygon fill="black" stroke="black" points="244.63,-1105.73 241.13,-1095.73 237.63,-1105.73 244.63,-1105.73"/>
</g>
<!-- Snap -->
<g id="node30" class="node">
<title>Snap</title>
<polygon fill="lightblue" stroke="lightblue" points="384.62,-1207 307.62,-1207 307.62,-1130 384.62,-1130 384.62,-1207"/>
<image xlink:href="img/mob.png" width="77px" height="77px" preserveAspectRatio="xMinYMin meet" x="307.625" y="-1207"/>
<text text-anchor="middle" x="346.12" y="-1162.7" font-family="MS Gothic" font-size="14.00">Snap</text>
</g>
<!-- Snap&#45;&gt;Snap Mare -->
<g id="edge29" class="edge">
<title>Snap&#45;&gt;Snap Mare</title>
<path fill="none" stroke="black" d="M346.12,-1129.61C346.12,-1121.84 346.12,-1113.56 346.12,-1105.46"/>
<polygon fill="black" stroke="black" points="349.63,-1105.73 346.13,-1095.73 342.63,-1105.73 349.63,-1105.73"/>
</g>
<!-- Diana -->
<g id="node31" class="node">
<title>Diana</title>
<polygon fill="lightcoral" stroke="lightcoral" points="479.62,-1207 402.62,-1207 402.62,-1130 479.62,-1130 479.62,-1207"/>
<image xlink:href="img/mob.png" width="77px" height="77px" preserveAspectRatio="xMinYMin meet" x="402.625" y="-1207"/>
<text text-anchor="middle" x="441.12" y="-1162.7" font-family="MS Gothic" font-size="14.00">Diana</text>
</g>
<!-- Diana&#45;&gt;Snap Mare -->
<g id="edge30" class="edge">
<title>Diana&#45;&gt;Snap Mare</title>
<path fill="none" stroke="black" d="M408.7,-1129.61C401.36,-1121.04 393.49,-1111.84 385.89,-1102.96"/>
<polygon fill="black" stroke="black" points="388.55,-1100.69 379.39,-1095.37 383.23,-1105.24 388.55,-1100.69"/>
</g>
<!-- ゴドルフィンバルブ -->
<g id="node32" class="node">
<title>ゴドルフィンバルブ</title>
<polygon fill="lightblue" stroke="lightblue" points="144.25,-1320 0,-1320 0,-1243 144.25,-1243 144.25,-1320"/>
<image xlink:href="img/mob.png" width="100px" height="77px" preserveAspectRatio="xMinYMin meet" x="22.125" y="-1320"/>
<text text-anchor="middle" x="72.12" y="-1275.7" font-family="MS Gothic" font-size="14.00">ゴドルフィンバルブ</text>
</g>
<!-- ゴドルフィンバルブ&#45;&gt;Cade -->
<g id="edge31" class="edge">
<title>ゴドルフィンバルブ&#45;&gt;Cade</title>
<path fill="none" stroke="black" d="M93.97,-1242.61C98.71,-1234.39 103.78,-1225.6 108.7,-1217.07"/>
<polygon fill="black" stroke="black" points="111.66,-1218.94 113.62,-1208.53 105.59,-1215.44 111.66,-1218.94"/>
</g>
<!-- Roxana -->
<g id="node33" class="node">
<title>Roxana</title>
<polygon fill="lightcoral" stroke="lightcoral" points="239.62,-1320 162.62,-1320 162.62,-1243 239.62,-1243 239.62,-1320"/>
<image xlink:href="img/mob.png" width="77px" height="77px" preserveAspectRatio="xMinYMin meet" x="162.625" y="-1320"/>
<text text-anchor="middle" x="201.12" y="-1275.7" font-family="MS Gothic" font-size="14.00">Roxana</text>
</g>
<!-- Roxana&#45;&gt;Cade -->
<g id="edge32" class="edge">
<title>Roxana&#45;&gt;Cade</title>
<path fill="none" stroke="black" d="M178.94,-1242.61C174.13,-1234.39 168.98,-1225.6 163.98,-1217.07"/>
<polygon fill="black" stroke="black" points="167.05,-1215.39 158.98,-1208.52 161.01,-1218.92 167.05,-1215.39"/>
</g>
<!-- Bald Galloway -->
<g id="node34" class="node">
<title>Bald Galloway</title>
<polygon fill="lightblue" stroke="lightblue" points="183,-1433 79.25,-1433 79.25,-1356 183,-1356 183,-1433"/>
<image xlink:href="img/mob.png" width="100px" height="77px" preserveAspectRatio="xMinYMin meet" x="81.125" y="-1433"/>
<text text-anchor="middle" x="131.12" y="-1388.7" font-family="MS Gothic" font-size="14.00">Bald Galloway</text>
</g>
<!-- Bald Galloway&#45;&gt;Roxana -->
<g id="edge33" class="edge">
<title>Bald Galloway&#45;&gt;Roxana</title>
<path fill="none" stroke="black" d="M155.02,-1355.61C160.26,-1347.31 165.86,-1338.41 171.3,-1329.79"/>
<polygon fill="black" stroke="black" points="174.16,-1331.82 176.53,-1321.5 168.24,-1328.09 174.16,-1331.82"/>
</g>
<!-- Sister to Chaunter -->
<g id="node35" class="node">
<title>Sister to Chaunter</title>
<polygon fill="lightcoral" stroke="lightcoral" points="338.88,-1433 201.38,-1433 201.38,-1356 338.88,-1356 338.88,-1433"/>
<image xlink:href="img/mob.png" width="100px" height="77px" preserveAspectRatio="xMinYMin meet" x="220.125" y="-1433"/>
<text text-anchor="middle" x="270.12" y="-1388.7" font-family="MS Gothic" font-size="14.00">Sister to Chaunter</text>
</g>
<!-- Sister to Chaunter&#45;&gt;Roxana -->
<g id="edge34" class="edge">
<title>Sister to Chaunter&#45;&gt;Roxana</title>
<path fill="none" stroke="black" d="M246.57,-1355.61C241.41,-1347.31 235.88,-1338.41 230.52,-1329.79"/>
<polygon fill="black" stroke="black" points="233.62,-1328.15 225.37,-1321.5 227.68,-1331.84 233.62,-1328.15"/>
</g>
</g>
</svg>
