<?xml version="1.0" encoding="UTF-8" standalone="no"?>
<!DOCTYPE svg PUBLIC "-//W3C//DTD SVG 1.1//EN"
 "http://www.w3.org/Graphics/SVG/1.1/DTD/svg11.dtd">
<!-- Generated by graphviz version 12.1.2 (20240928.0832)
 -->
<!-- Pages: 1 -->
<svg width="483pt" height="311pt"
 viewBox="0.00 0.00 483.25 311.00" xmlns="http://www.w3.org/2000/svg" xmlns:xlink="http://www.w3.org/1999/xlink">
<g id="graph0" class="graph" transform="scale(1 1) rotate(0) translate(4 307)">
<polygon fill="white" stroke="none" points="-4,4 -4,-307 479.25,-307 479.25,4 -4,4"/>
<!-- Squirt -->
<g id="node1" class="node">
<title>Squirt</title>
<polygon fill="none" stroke="black" points="307.62,-77 230.62,-77 230.62,0 307.62,0 307.62,-77"/>
<image xlink:href="img/mob.png" width="77px" height="77px" preserveAspectRatio="xMinYMin meet" x="230.625" y="-77"/>
<text text-anchor="middle" x="269.12" y="-33.45" font-family="Times New Roman,serif" font-size="14.00">Squirt</text>
</g>
<!-- Bartlet&#39;s Childers -->
<g id="node2" class="node">
<title>Bartlet&#39;s Childers</title>
<polygon fill="lightblue" stroke="lightblue" points="273.88,-190 136.38,-190 136.38,-113 273.88,-113 273.88,-190"/>
<image xlink:href="img/mob.png" width="100px" height="77px" preserveAspectRatio="xMinYMin meet" x="155.125" y="-190"/>
<text text-anchor="middle" x="205.12" y="-145.7" font-family="MS Gothic" font-size="14.00">Bartlet&#39;s Childers</text>
</g>
<!-- Bartlet&#39;s Childers&#45;&gt;Squirt -->
<g id="edge1" class="edge">
<title>Bartlet&#39;s Childers&#45;&gt;Squirt</title>
<path fill="none" stroke="black" d="M226.97,-112.61C231.71,-104.39 236.78,-95.6 241.7,-87.07"/>
<polygon fill="black" stroke="black" points="244.66,-88.94 246.62,-78.53 238.59,-85.44 244.66,-88.94"/>
</g>
<!-- Snake Mare -->
<g id="node3" class="node">
<title>Snake Mare</title>
<polygon fill="lightcoral" stroke="lightcoral" points="375.88,-190 292.38,-190 292.38,-113 375.88,-113 375.88,-190"/>
<image xlink:href="img/mob.png" width="83.5px" height="77px" preserveAspectRatio="xMinYMin meet" x="292.375" y="-190"/>
<text text-anchor="middle" x="334.12" y="-145.7" font-family="MS Gothic" font-size="14.00">Snake Mare</text>
</g>
<!-- Snake Mare&#45;&gt;Squirt -->
<g id="edge2" class="edge">
<title>Snake Mare&#45;&gt;Squirt</title>
<path fill="none" stroke="black" d="M311.94,-112.61C307.13,-104.39 301.98,-95.6 296.98,-87.07"/>
<polygon fill="black" stroke="black" points="300.05,-85.39 291.98,-78.52 294.01,-88.92 300.05,-85.39"/>
</g>
<!-- ダーレーアラビアン -->
<g id="node4" class="node">
<title>ダーレーアラビアン</title>
<polygon fill="lightblue" stroke="lightblue" points="144.25,-303 0,-303 0,-226 144.25,-226 144.25,-303"/>
<image xlink:href="img/darearabian.png" width="100px" height="77px" preserveAspectRatio="xMinYMin meet" x="22.125" y="-303"/>
<text text-anchor="middle" x="72.12" y="-258.7" font-family="MS Gothic" font-size="14.00">ダーレーアラビアン</text>
</g>
<!-- ダーレーアラビアン&#45;&gt;Bartlet&#39;s Childers -->
<g id="edge3" class="edge">
<title>ダーレーアラビアン&#45;&gt;Bartlet&#39;s Childers</title>
<path fill="none" stroke="black" d="M117.52,-225.61C128.33,-216.59 139.97,-206.88 151.12,-197.57"/>
<polygon fill="black" stroke="black" points="153.33,-200.28 158.77,-191.19 148.85,-194.91 153.33,-200.28"/>
</g>
<!-- Betty Leedes -->
<g id="node5" class="node">
<title>Betty Leedes</title>
<polygon fill="lightcoral" stroke="lightcoral" points="259.62,-303 162.62,-303 162.62,-226 259.62,-226 259.62,-303"/>
<image xlink:href="img/mob.png" width="97px" height="77px" preserveAspectRatio="xMinYMin meet" x="162.625" y="-303"/>
<text text-anchor="middle" x="211.12" y="-258.7" font-family="MS Gothic" font-size="14.00">Betty Leedes</text>
</g>
<!-- Betty Leedes&#45;&gt;Bartlet&#39;s Childers -->
<g id="edge4" class="edge">
<title>Betty Leedes&#45;&gt;Bartlet&#39;s Childers</title>
<path fill="none" stroke="black" d="M209.08,-225.61C208.66,-217.84 208.21,-209.56 207.77,-201.46"/>
<polygon fill="black" stroke="black" points="211.28,-201.53 207.25,-191.73 204.29,-201.9 211.28,-201.53"/>
</g>
<!-- Snake -->
<g id="node6" class="node">
<title>Snake</title>
<polygon fill="lightblue" stroke="lightblue" points="366.62,-303 289.62,-303 289.62,-226 366.62,-226 366.62,-303"/>
<image xlink:href="img/mob.png" width="77px" height="77px" preserveAspectRatio="xMinYMin meet" x="289.625" y="-303"/>
<text text-anchor="middle" x="328.12" y="-258.7" font-family="MS Gothic" font-size="14.00">Snake</text>
</g>
<!-- Snake&#45;&gt;Snake Mare -->
<g id="edge5" class="edge">
<title>Snake&#45;&gt;Snake Mare</title>
<path fill="none" stroke="black" d="M330.17,-225.61C330.59,-217.84 331.04,-209.56 331.48,-201.46"/>
<polygon fill="black" stroke="black" points="334.96,-201.9 332,-191.73 327.97,-201.53 334.96,-201.9"/>
</g>
<!-- Grey Wilkes -->
<g id="node7" class="node">
<title>Grey Wilkes</title>
<polygon fill="lightcoral" stroke="lightcoral" points="475.25,-303 385,-303 385,-226 475.25,-226 475.25,-303"/>
<image xlink:href="img/mob.png" width="90.25px" height="77px" preserveAspectRatio="xMinYMin meet" x="385" y="-303"/>
<text text-anchor="middle" x="430.12" y="-258.7" font-family="MS Gothic" font-size="14.00">Grey Wilkes</text>
</g>
<!-- Grey Wilkes&#45;&gt;Snake Mare -->
<g id="edge6" class="edge">
<title>Grey Wilkes&#45;&gt;Snake Mare</title>
<path fill="none" stroke="black" d="M397.36,-225.61C389.86,-216.95 381.82,-207.65 374.07,-198.68"/>
<polygon fill="black" stroke="black" points="376.93,-196.64 367.74,-191.36 371.63,-201.22 376.93,-196.64"/>
</g>
</g>
</svg>
