<?xml version="1.0" encoding="UTF-8" standalone="no"?>
<!DOCTYPE svg PUBLIC "-//W3C//DTD SVG 1.1//EN"
 "http://www.w3.org/Graphics/SVG/1.1/DTD/svg11.dtd">
<!-- Generated by graphviz version 12.1.2 (20240928.0832)
 -->
<!-- Pages: 1 -->
<svg width="1668pt" height="1370pt"
 viewBox="0.00 0.00 1668.25 1370.00" xmlns="http://www.w3.org/2000/svg" xmlns:xlink="http://www.w3.org/1999/xlink">
<g id="graph0" class="graph" transform="scale(1 1) rotate(0) translate(4 1366)">
<!-- Squirt_0_1 -->
<g id="node1" class="node">
<title>Squirt_0_1</title>
<g id="a_node1"><a xlink:href="https://www.google.com/search?q=Squirt%20%28netkeiba%20OR%20wikipedia%29" xlink:title="Squirt">
<polygon fill="none" stroke="black" points="641,-77 564,-77 564,0 641,0 641,-77"/>
<image xlink:href="img/mob.png" width="77px" height="77px" preserveAspectRatio="xMinYMin meet" x="564" y="-77"/>
<text text-anchor="middle" x="602.5" y="-33.45" font-family="Times New Roman,serif" font-size="14.00">Squirt</text>
</a>
</g>
</g>
<!-- Bartlet&#39;s Childers_1_1 -->
<g id="node2" class="node">
<title>Bartlet&#39;s Childers_1_1</title>
<g id="a_node2"><a xlink:href="https://www.google.com/search?q=Bartlet%27s%20Childers%20%28netkeiba%20OR%20wikipedia%29" xlink:title="Bartlet&#39;s Childers">
<polygon fill="lightblue" stroke="lightblue" points="523.25,-334 385.75,-334 385.75,-257 523.25,-257 523.25,-334"/>
<image xlink:href="img/mob.png" width="100px" height="77px" preserveAspectRatio="xMinYMin meet" x="404.5" y="-334"/>
<text text-anchor="middle" x="454.5" y="-289.7" font-family="MS Gothic" font-size="14.00">Bartlet&#39;s Childers</text>
</a>
</g>
</g>
<!-- Bartlet&#39;s Childers_1_1&#45;&gt;Squirt_0_1 -->
<g id="edge1" class="edge">
<title>Bartlet&#39;s Childers_1_1&#45;&gt;Squirt_0_1</title>
<path fill="none" stroke="lightblue" stroke-width="5" d="M476.5,-256.6C502,-212.66 544.17,-140 572.63,-90.97"/>
<polygon fill="lightblue" stroke="lightblue" stroke-width="5" points="576.26,-93.43 577.49,-82.59 568.69,-89.04 576.26,-93.43"/>
</g>
<!-- Darley Arabian_2_1 -->
<g id="node3" class="node">
<title>Darley Arabian_2_1</title>
<g id="a_node3"><a xlink:href="https://www.google.com/search?q=Darley%20Arabian%20%28netkeiba%20OR%20wikipedia%29" xlink:title="Darley Arabian">
<polygon fill="lightblue" stroke="lightblue" points="334.75,-591 224.25,-591 224.25,-514 334.75,-514 334.75,-591"/>
<image xlink:href="img/mob.png" width="100px" height="77px" preserveAspectRatio="xMinYMin meet" x="229.5" y="-591"/>
<text text-anchor="middle" x="279.5" y="-546.7" font-family="MS Gothic" font-size="14.00">Darley Arabian</text>
</a>
</g>
</g>
<!-- Darley Arabian_2_1&#45;&gt;Bartlet&#39;s Childers_1_1 -->
<g id="edge2" class="edge">
<title>Darley Arabian_2_1&#45;&gt;Bartlet&#39;s Childers_1_1</title>
<path fill="none" stroke="lightblue" stroke-width="5" d="M305.51,-513.6C335.8,-469.47 385.96,-396.37 419.61,-347.34"/>
<polygon fill="lightblue" stroke="lightblue" stroke-width="5" points="423.05,-350.06 425.1,-339.34 415.84,-345.1 423.05,-350.06"/>
</g>
<!-- unknown_3_1 -->
<g id="node4" class="node">
<title>unknown_3_1</title>
<g id="a_node4"><a xlink:href="https://www.google.com/search?q=unknown%20%28netkeiba%20OR%20wikipedia%29" xlink:title="unknown">
<polygon fill="lightcoral" stroke="lightcoral" points="253,-848 176,-848 176,-771 253,-771 253,-848"/>
<image xlink:href="img/mob.png" width="77px" height="77px" preserveAspectRatio="xMinYMin meet" x="176" y="-848"/>
<text text-anchor="middle" x="214.5" y="-803.7" font-family="MS Gothic" font-size="14.00">unknown</text>
</a>
</g>
</g>
<!-- unknown_3_1&#45;&gt;Darley Arabian_2_1 -->
<g id="edge3" class="edge">
<title>unknown_3_1&#45;&gt;Darley Arabian_2_1</title>
<path fill="none" stroke="lightblue" stroke-width="5" d="M224.16,-770.6C235.22,-727.22 253.41,-655.86 265.89,-606.88"/>
<polygon fill="lightblue" stroke="lightblue" stroke-width="5" points="270.12,-608.01 268.35,-597.24 261.64,-605.85 270.12,-608.01"/>
</g>
<!-- unknown_4_2 -->
<g id="node5" class="node">
<title>unknown_4_2</title>
<g id="a_node5"><a xlink:href="https://www.google.com/search?q=unknown%20%28netkeiba%20OR%20wikipedia%29" xlink:title="unknown">
<polygon fill="lightcoral" stroke="lightcoral" points="168,-1105 91,-1105 91,-1028 168,-1028 168,-1105"/>
<image xlink:href="img/mob.png" width="77px" height="77px" preserveAspectRatio="xMinYMin meet" x="91" y="-1105"/>
<text text-anchor="middle" x="129.5" y="-1060.7" font-family="MS Gothic" font-size="14.00">unknown</text>
</a>
</g>
</g>
<!-- unknown_4_2&#45;&gt;unknown_3_1 -->
<g id="edge4" class="edge">
<title>unknown_4_2&#45;&gt;unknown_3_1</title>
<path fill="none" stroke="lightblue" stroke-width="5" d="M142.13,-1027.6C156.62,-984.13 180.48,-912.55 196.81,-863.56"/>
<polygon fill="lightblue" stroke="lightblue" stroke-width="5" points="200.95,-864.98 199.96,-854.11 192.65,-862.21 200.95,-864.98"/>
</g>
<!-- unknown_5_3 -->
<g id="node6" class="node">
<title>unknown_5_3</title>
<g id="a_node6"><a xlink:href="https://www.google.com/search?q=unknown%20%28netkeiba%20OR%20wikipedia%29" xlink:title="unknown">
<polygon fill="lightcoral" stroke="lightcoral" points="77,-1362 0,-1362 0,-1285 77,-1285 77,-1362"/>
<image xlink:href="img/mob.png" width="77px" height="77px" preserveAspectRatio="xMinYMin meet" x="0" y="-1362"/>
<text text-anchor="middle" x="38.5" y="-1317.7" font-family="MS Gothic" font-size="14.00">unknown</text>
</a>
</g>
</g>
<!-- unknown_5_3&#45;&gt;unknown_4_2 -->
<g id="edge5" class="edge">
<title>unknown_5_3&#45;&gt;unknown_4_2</title>
<path fill="none" stroke="lightblue" stroke-width="5" d="M52.03,-1284.6C67.57,-1241.03 93.19,-1169.24 110.68,-1120.24"/>
<polygon fill="lightblue" stroke="lightblue" stroke-width="5" points="114.71,-1121.96 113.95,-1111.07 106.47,-1119.01 114.71,-1121.96"/>
</g>
<!-- Betty Leedes_2_1 -->
<g id="node7" class="node">
<title>Betty Leedes_2_1</title>
<g id="a_node7"><a xlink:href="https://www.google.com/search?q=Betty%20Leedes%20%28netkeiba%20OR%20wikipedia%29" xlink:title="Betty Leedes">
<polygon fill="lightcoral" stroke="lightcoral" points="503,-591 406,-591 406,-514 503,-514 503,-591"/>
<image xlink:href="img/mob.png" width="97px" height="77px" preserveAspectRatio="xMinYMin meet" x="406" y="-591"/>
<text text-anchor="middle" x="454.5" y="-546.7" font-family="MS Gothic" font-size="14.00">Betty Leedes</text>
</a>
</g>
</g>
<!-- Betty Leedes_2_1&#45;&gt;Bartlet&#39;s Childers_1_1 -->
<g id="edge6" class="edge">
<title>Betty Leedes_2_1&#45;&gt;Bartlet&#39;s Childers_1_1</title>
<path fill="none" stroke="lightcoral" stroke-width="5" d="M454.5,-513.6C454.5,-470.32 454.5,-399.17 454.5,-350.2"/>
<polygon fill="lightcoral" stroke="lightcoral" stroke-width="5" points="458.88,-350.43 454.5,-340.43 450.13,-350.43 458.88,-350.43"/>
</g>
<!-- Old Careless_3_1 -->
<g id="node8" class="node">
<title>Old Careless_3_1</title>
<g id="a_node8"><a xlink:href="https://www.google.com/search?q=Old%20Careless%20%28netkeiba%20OR%20wikipedia%29" xlink:title="Old Careless">
<polygon fill="lightblue" stroke="lightblue" points="442,-848 345,-848 345,-771 442,-771 442,-848"/>
<image xlink:href="img/mob.png" width="97px" height="77px" preserveAspectRatio="xMinYMin meet" x="345" y="-848"/>
<text text-anchor="middle" x="393.5" y="-803.7" font-family="MS Gothic" font-size="14.00">Old Careless</text>
</a>
</g>
</g>
<!-- Old Careless_3_1&#45;&gt;Betty Leedes_2_1 -->
<g id="edge7" class="edge">
<title>Old Careless_3_1&#45;&gt;Betty Leedes_2_1</title>
<path fill="none" stroke="lightblue" stroke-width="5" d="M402.57,-770.6C412.94,-727.22 430.01,-655.86 441.73,-606.88"/>
<polygon fill="lightblue" stroke="lightblue" stroke-width="5" points="445.96,-608 444.03,-597.26 437.45,-605.97 445.96,-608"/>
</g>
<!-- Spanker_4_1 -->
<g id="node9" class="node">
<title>Spanker_4_1</title>
<g id="a_node9"><a xlink:href="https://www.google.com/search?q=Spanker%20%28netkeiba%20OR%20wikipedia%29" xlink:title="Spanker">
<polygon fill="lightblue" stroke="lightblue" points="343,-1105 266,-1105 266,-1028 343,-1028 343,-1105"/>
<image xlink:href="img/mob.png" width="77px" height="77px" preserveAspectRatio="xMinYMin meet" x="266" y="-1105"/>
<text text-anchor="middle" x="304.5" y="-1060.7" font-family="MS Gothic" font-size="14.00">Spanker</text>
</a>
</g>
</g>
<!-- Spanker_4_1&#45;&gt;Old Careless_3_1 -->
<g id="edge8" class="edge">
<title>Spanker_4_1&#45;&gt;Old Careless_3_1</title>
<path fill="none" stroke="lightblue" stroke-width="5" d="M317.73,-1027.6C332.93,-984.03 357.99,-912.24 375.09,-863.24"/>
<polygon fill="lightblue" stroke="lightblue" stroke-width="5" points="379.12,-864.96 378.29,-854.08 370.86,-862.08 379.12,-864.96"/>
</g>
<!-- D&#39;Arcy&#39;s Yellow Turk_5_1 -->
<g id="node10" class="node">
<title>D&#39;Arcy&#39;s Yellow Turk_5_1</title>
<g id="a_node10"><a xlink:href="https://www.google.com/search?q=D%27Arcy%27s%20Yellow%20Turk%20%28netkeiba%20OR%20wikipedia%29" xlink:title="D&#39;Arcy&#39;s Yellow Turk">
<polygon fill="lightblue" stroke="lightblue" points="235,-1362 84,-1362 84,-1285 235,-1285 235,-1362"/>
<image xlink:href="img/mob.png" width="100px" height="77px" preserveAspectRatio="xMinYMin meet" x="109.5" y="-1362"/>
<text text-anchor="middle" x="159.5" y="-1317.7" font-family="MS Gothic" font-size="14.00">D&#39;Arcy&#39;s Yellow Turk</text>
</a>
</g>
</g>
<!-- D&#39;Arcy&#39;s Yellow Turk_5_1&#45;&gt;Spanker_4_1 -->
<g id="edge9" class="edge">
<title>D&#39;Arcy&#39;s Yellow Turk_5_1&#45;&gt;Spanker_4_1</title>
<path fill="none" stroke="lightblue" stroke-width="5" d="M181.05,-1284.6C205.99,-1240.75 247.18,-1168.31 275.05,-1119.29"/>
<polygon fill="lightblue" stroke="lightblue" stroke-width="5" points="278.84,-1121.47 279.98,-1110.61 271.24,-1117.14 278.84,-1121.47"/>
</g>
<!-- Old Morocco Mare_5_1 -->
<g id="node11" class="node">
<title>Old Morocco Mare_5_1</title>
<g id="a_node11"><a xlink:href="https://www.google.com/search?q=Old%20Morocco%20Mare%20%28netkeiba%20OR%20wikipedia%29" xlink:title="Old Morocco Mare">
<polygon fill="lightcoral" stroke="lightcoral" points="366.5,-1362 242.5,-1362 242.5,-1285 366.5,-1285 366.5,-1362"/>
<image xlink:href="img/mob.png" width="100px" height="77px" preserveAspectRatio="xMinYMin meet" x="254.5" y="-1362"/>
<text text-anchor="middle" x="304.5" y="-1317.7" font-family="MS Gothic" font-size="14.00">Old Morocco Mare</text>
</a>
</g>
</g>
<!-- Old Morocco Mare_5_1&#45;&gt;Spanker_4_1 -->
<g id="edge10" class="edge">
<title>Old Morocco Mare_5_1&#45;&gt;Spanker_4_1</title>
<path fill="none" stroke="lightcoral" stroke-width="5" d="M304.5,-1284.6C304.5,-1241.32 304.5,-1170.17 304.5,-1121.2"/>
<polygon fill="lightcoral" stroke="lightcoral" stroke-width="5" points="308.88,-1121.43 304.5,-1111.43 300.13,-1121.43 308.88,-1121.43"/>
</g>
<!-- unknown_4_4 -->
<g id="node12" class="node">
<title>unknown_4_4</title>
<g id="a_node12"><a xlink:href="https://www.google.com/search?q=unknown%20%28netkeiba%20OR%20wikipedia%29" xlink:title="unknown">
<polygon fill="lightcoral" stroke="lightcoral" points="433,-1105 356,-1105 356,-1028 433,-1028 433,-1105"/>
<image xlink:href="img/mob.png" width="77px" height="77px" preserveAspectRatio="xMinYMin meet" x="356" y="-1105"/>
<text text-anchor="middle" x="394.5" y="-1060.7" font-family="MS Gothic" font-size="14.00">unknown</text>
</a>
</g>
</g>
<!-- unknown_4_4&#45;&gt;Old Careless_3_1 -->
<g id="edge11" class="edge">
<title>unknown_4_4&#45;&gt;Old Careless_3_1</title>
<path fill="none" stroke="lightcoral" stroke-width="5" d="M394.35,-1027.6C394.18,-984.32 393.9,-913.17 393.71,-864.2"/>
<polygon fill="lightcoral" stroke="lightcoral" stroke-width="5" points="398.09,-864.41 393.67,-854.43 389.34,-864.45 398.09,-864.41"/>
</g>
<!-- unknown_5_5 -->
<g id="node13" class="node">
<title>unknown_5_5</title>
<g id="a_node13"><a xlink:href="https://www.google.com/search?q=unknown%20%28netkeiba%20OR%20wikipedia%29" xlink:title="unknown">
<polygon fill="lightcoral" stroke="lightcoral" points="451,-1362 374,-1362 374,-1285 451,-1285 451,-1362"/>
<image xlink:href="img/mob.png" width="77px" height="77px" preserveAspectRatio="xMinYMin meet" x="374" y="-1362"/>
<text text-anchor="middle" x="412.5" y="-1317.7" font-family="MS Gothic" font-size="14.00">unknown</text>
</a>
</g>
</g>
<!-- unknown_5_5&#45;&gt;unknown_4_4 -->
<g id="edge12" class="edge">
<title>unknown_5_5&#45;&gt;unknown_4_4</title>
<path fill="none" stroke="lightblue" stroke-width="5" d="M409.82,-1284.6C406.77,-1241.32 401.75,-1170.17 398.29,-1121.2"/>
<polygon fill="lightblue" stroke="lightblue" stroke-width="5" points="402.67,-1121.08 397.6,-1111.41 393.94,-1121.7 402.67,-1121.08"/>
</g>
<!-- Cream Cheeks_3_1 -->
<g id="node14" class="node">
<title>Cream Cheeks_3_1</title>
<g id="a_node14"><a xlink:href="https://www.google.com/search?q=Cream%20Cheeks%20%28netkeiba%20OR%20wikipedia%29" xlink:title="Cream Cheeks">
<polygon fill="lightcoral" stroke="lightcoral" points="546,-848 449,-848 449,-771 546,-771 546,-848"/>
<image xlink:href="img/mob.png" width="97px" height="77px" preserveAspectRatio="xMinYMin meet" x="449" y="-848"/>
<text text-anchor="middle" x="497.5" y="-803.7" font-family="MS Gothic" font-size="14.00">Cream Cheeks</text>
</a>
</g>
</g>
<!-- Cream Cheeks_3_1&#45;&gt;Betty Leedes_2_1 -->
<g id="edge13" class="edge">
<title>Cream Cheeks_3_1&#45;&gt;Betty Leedes_2_1</title>
<path fill="none" stroke="lightcoral" stroke-width="5" d="M491.11,-770.6C483.81,-727.32 471.81,-656.17 463.55,-607.2"/>
<polygon fill="lightcoral" stroke="lightcoral" stroke-width="5" points="467.87,-606.48 461.89,-597.34 459.24,-607.93 467.87,-606.48"/>
</g>
<!-- Leedes Arabian_4_1 -->
<g id="node15" class="node">
<title>Leedes Arabian_4_1</title>
<g id="a_node15"><a xlink:href="https://www.google.com/search?q=Leedes%20Arabian%20%28netkeiba%20OR%20wikipedia%29" xlink:title="Leedes Arabian">
<polygon fill="lightblue" stroke="lightblue" points="551.75,-1105 441.25,-1105 441.25,-1028 551.75,-1028 551.75,-1105"/>
<image xlink:href="img/mob.png" width="100px" height="77px" preserveAspectRatio="xMinYMin meet" x="446.5" y="-1105"/>
<text text-anchor="middle" x="496.5" y="-1060.7" font-family="MS Gothic" font-size="14.00">Leedes Arabian</text>
</a>
</g>
</g>
<!-- Leedes Arabian_4_1&#45;&gt;Cream Cheeks_3_1 -->
<g id="edge14" class="edge">
<title>Leedes Arabian_4_1&#45;&gt;Cream Cheeks_3_1</title>
<path fill="none" stroke="lightblue" stroke-width="5" d="M496.65,-1027.6C496.82,-984.32 497.1,-913.17 497.29,-864.2"/>
<polygon fill="lightblue" stroke="lightblue" stroke-width="5" points="501.66,-864.45 497.33,-854.43 492.91,-864.41 501.66,-864.45"/>
</g>
<!-- unknown_5_6 -->
<g id="node16" class="node">
<title>unknown_5_6</title>
<g id="a_node16"><a xlink:href="https://www.google.com/search?q=unknown%20%28netkeiba%20OR%20wikipedia%29" xlink:title="unknown">
<polygon fill="lightcoral" stroke="lightcoral" points="535,-1362 458,-1362 458,-1285 535,-1285 535,-1362"/>
<image xlink:href="img/mob.png" width="77px" height="77px" preserveAspectRatio="xMinYMin meet" x="458" y="-1362"/>
<text text-anchor="middle" x="496.5" y="-1317.7" font-family="MS Gothic" font-size="14.00">unknown</text>
</a>
</g>
</g>
<!-- unknown_5_6&#45;&gt;Leedes Arabian_4_1 -->
<g id="edge15" class="edge">
<title>unknown_5_6&#45;&gt;Leedes Arabian_4_1</title>
<path fill="none" stroke="lightblue" stroke-width="5" d="M496.5,-1284.6C496.5,-1241.32 496.5,-1170.17 496.5,-1121.2"/>
<polygon fill="lightblue" stroke="lightblue" stroke-width="5" points="500.88,-1121.43 496.5,-1111.43 492.13,-1121.43 500.88,-1121.43"/>
</g>
<!-- Spanker Mare_4_1 -->
<g id="node17" class="node">
<title>Spanker Mare_4_1</title>
<g id="a_node17"><a xlink:href="https://www.google.com/search?q=Spanker%20Mare%20%28netkeiba%20OR%20wikipedia%29" xlink:title="Spanker Mare">
<polygon fill="lightcoral" stroke="lightcoral" points="656,-1105 559,-1105 559,-1028 656,-1028 656,-1105"/>
<image xlink:href="img/mob.png" width="97px" height="77px" preserveAspectRatio="xMinYMin meet" x="559" y="-1105"/>
<text text-anchor="middle" x="607.5" y="-1060.7" font-family="MS Gothic" font-size="14.00">Spanker Mare</text>
</a>
</g>
</g>
<!-- Spanker Mare_4_1&#45;&gt;Cream Cheeks_3_1 -->
<g id="edge16" class="edge">
<title>Spanker Mare_4_1&#45;&gt;Cream Cheeks_3_1</title>
<path fill="none" stroke="lightcoral" stroke-width="5" d="M591.15,-1027.6C572.32,-983.94 541.26,-911.93 520.11,-862.92"/>
<polygon fill="lightcoral" stroke="lightcoral" stroke-width="5" points="524.21,-861.37 516.23,-853.92 516.17,-864.83 524.21,-861.37"/>
</g>
<!-- Spanker_5_2 -->
<g id="node18" class="node">
<title>Spanker_5_2</title>
<g id="a_node18"><a xlink:href="https://www.google.com/search?q=Spanker%20%28netkeiba%20OR%20wikipedia%29" xlink:title="Spanker">
<polygon fill="lightblue" stroke="lightblue" points="619,-1362 542,-1362 542,-1285 619,-1285 619,-1362"/>
<image xlink:href="img/mob.png" width="77px" height="77px" preserveAspectRatio="xMinYMin meet" x="542" y="-1362"/>
<text text-anchor="middle" x="580.5" y="-1317.7" font-family="MS Gothic" font-size="14.00">Spanker</text>
</a>
</g>
</g>
<!-- Spanker_5_2&#45;&gt;Spanker Mare_4_1 -->
<g id="edge17" class="edge">
<title>Spanker_5_2&#45;&gt;Spanker Mare_4_1</title>
<path fill="none" stroke="lightblue" stroke-width="5" d="M584.51,-1284.6C589.1,-1241.32 596.63,-1170.17 601.81,-1121.2"/>
<polygon fill="lightblue" stroke="lightblue" stroke-width="5" points="606.15,-1121.8 602.85,-1111.4 597.45,-1120.88 606.15,-1121.8"/>
</g>
<!-- Old Morocco Mare_5_2 -->
<g id="node19" class="node">
<title>Old Morocco Mare_5_2</title>
<g id="a_node19"><a xlink:href="https://www.google.com/search?q=Old%20Morocco%20Mare%20%28netkeiba%20OR%20wikipedia%29" xlink:title="Old Morocco Mare">
<polygon fill="lightcoral" stroke="lightcoral" points="750.5,-1362 626.5,-1362 626.5,-1285 750.5,-1285 750.5,-1362"/>
<image xlink:href="img/mob.png" width="100px" height="77px" preserveAspectRatio="xMinYMin meet" x="638.5" y="-1362"/>
<text text-anchor="middle" x="688.5" y="-1317.7" font-family="MS Gothic" font-size="14.00">Old Morocco Mare</text>
</a>
</g>
</g>
<!-- Old Morocco Mare_5_2&#45;&gt;Spanker Mare_4_1 -->
<g id="edge18" class="edge">
<title>Old Morocco Mare_5_2&#45;&gt;Spanker Mare_4_1</title>
<path fill="none" stroke="lightcoral" stroke-width="5" d="M676.46,-1284.6C662.65,-1241.13 639.92,-1169.55 624.35,-1120.56"/>
<polygon fill="lightcoral" stroke="lightcoral" stroke-width="5" points="628.56,-1119.34 621.36,-1111.14 620.22,-1121.99 628.56,-1119.34"/>
</g>
<!-- Snake Mare_1_1 -->
<g id="node20" class="node">
<title>Snake Mare_1_1</title>
<g id="a_node20"><a xlink:href="https://www.google.com/search?q=Snake%20Mare%20%28netkeiba%20OR%20wikipedia%29" xlink:title="Snake Mare">
<polygon fill="lightcoral" stroke="lightcoral" points="974.25,-334 890.75,-334 890.75,-257 974.25,-257 974.25,-334"/>
<image xlink:href="img/mob.png" width="83.5px" height="77px" preserveAspectRatio="xMinYMin meet" x="890.75" y="-334"/>
<text text-anchor="middle" x="932.5" y="-289.7" font-family="MS Gothic" font-size="14.00">Snake Mare</text>
</a>
</g>
</g>
<!-- Snake Mare_1_1&#45;&gt;Squirt_0_1 -->
<g id="edge19" class="edge">
<title>Snake Mare_1_1&#45;&gt;Squirt_0_1</title>
<path fill="none" stroke="lightcoral" stroke-width="5" d="M890.37,-261.95C830.06,-215.34 719.23,-129.7 654.09,-79.36"/>
<polygon fill="lightcoral" stroke="lightcoral" stroke-width="5" points="656.83,-75.95 646.24,-73.3 651.48,-82.88 656.83,-75.95"/>
</g>
<!-- Snake_2_1 -->
<g id="node21" class="node">
<title>Snake_2_1</title>
<g id="a_node21"><a xlink:href="https://www.google.com/search?q=Snake%20%28netkeiba%20OR%20wikipedia%29" xlink:title="Snake">
<polygon fill="lightblue" stroke="lightblue" points="971,-591 894,-591 894,-514 971,-514 971,-591"/>
<image xlink:href="img/mob.png" width="77px" height="77px" preserveAspectRatio="xMinYMin meet" x="894" y="-591"/>
<text text-anchor="middle" x="932.5" y="-546.7" font-family="MS Gothic" font-size="14.00">Snake</text>
</a>
</g>
</g>
<!-- Snake_2_1&#45;&gt;Snake Mare_1_1 -->
<g id="edge20" class="edge">
<title>Snake_2_1&#45;&gt;Snake Mare_1_1</title>
<path fill="none" stroke="lightblue" stroke-width="5" d="M932.5,-513.6C932.5,-470.32 932.5,-399.17 932.5,-350.2"/>
<polygon fill="lightblue" stroke="lightblue" stroke-width="5" points="936.88,-350.43 932.5,-340.43 928.13,-350.43 936.88,-350.43"/>
</g>
<!-- Lister Turk_3_1 -->
<g id="node22" class="node">
<title>Lister Turk_3_1</title>
<g id="a_node22"><a xlink:href="https://www.google.com/search?q=Lister%20Turk%20%28netkeiba%20OR%20wikipedia%29" xlink:title="Lister Turk">
<polygon fill="lightblue" stroke="lightblue" points="892.62,-848 802.38,-848 802.38,-771 892.62,-771 892.62,-848"/>
<image xlink:href="img/mob.png" width="90.25px" height="77px" preserveAspectRatio="xMinYMin meet" x="802.375" y="-848"/>
<text text-anchor="middle" x="847.5" y="-803.7" font-family="MS Gothic" font-size="14.00">Lister Turk</text>
</a>
</g>
</g>
<!-- Lister Turk_3_1&#45;&gt;Snake_2_1 -->
<g id="edge21" class="edge">
<title>Lister Turk_3_1&#45;&gt;Snake_2_1</title>
<path fill="none" stroke="lightblue" stroke-width="5" d="M860.13,-770.6C874.62,-727.13 898.48,-655.55 914.81,-606.56"/>
<polygon fill="lightblue" stroke="lightblue" stroke-width="5" points="918.95,-607.98 917.96,-597.11 910.65,-605.21 918.95,-607.98"/>
</g>
<!-- unknown_4_7 -->
<g id="node23" class="node">
<title>unknown_4_7</title>
<g id="a_node23"><a xlink:href="https://www.google.com/search?q=unknown%20%28netkeiba%20OR%20wikipedia%29" xlink:title="unknown">
<polygon fill="lightcoral" stroke="lightcoral" points="852,-1105 775,-1105 775,-1028 852,-1028 852,-1105"/>
<image xlink:href="img/mob.png" width="77px" height="77px" preserveAspectRatio="xMinYMin meet" x="775" y="-1105"/>
<text text-anchor="middle" x="813.5" y="-1060.7" font-family="MS Gothic" font-size="14.00">unknown</text>
</a>
</g>
</g>
<!-- unknown_4_7&#45;&gt;Lister Turk_3_1 -->
<g id="edge22" class="edge">
<title>unknown_4_7&#45;&gt;Lister Turk_3_1</title>
<path fill="none" stroke="lightblue" stroke-width="5" d="M818.55,-1027.6C824.32,-984.32 833.81,-913.17 840.34,-864.2"/>
<polygon fill="lightblue" stroke="lightblue" stroke-width="5" points="844.66,-864.87 841.65,-854.38 835.99,-863.71 844.66,-864.87"/>
</g>
<!-- unknown_5_8 -->
<g id="node24" class="node">
<title>unknown_5_8</title>
<g id="a_node24"><a xlink:href="https://www.google.com/search?q=unknown%20%28netkeiba%20OR%20wikipedia%29" xlink:title="unknown">
<polygon fill="lightcoral" stroke="lightcoral" points="835,-1362 758,-1362 758,-1285 835,-1285 835,-1362"/>
<image xlink:href="img/mob.png" width="77px" height="77px" preserveAspectRatio="xMinYMin meet" x="758" y="-1362"/>
<text text-anchor="middle" x="796.5" y="-1317.7" font-family="MS Gothic" font-size="14.00">unknown</text>
</a>
</g>
</g>
<!-- unknown_5_8&#45;&gt;unknown_4_7 -->
<g id="edge23" class="edge">
<title>unknown_5_8&#45;&gt;unknown_4_7</title>
<path fill="none" stroke="lightblue" stroke-width="5" d="M799.03,-1284.6C801.91,-1241.32 806.66,-1170.17 809.92,-1121.2"/>
<polygon fill="lightblue" stroke="lightblue" stroke-width="5" points="814.27,-1121.68 810.57,-1111.42 805.54,-1121.1 814.27,-1121.68"/>
</g>
<!-- Hautboy Mare_3_1 -->
<g id="node25" class="node">
<title>Hautboy Mare_3_1</title>
<g id="a_node25"><a xlink:href="https://www.google.com/search?q=Hautboy%20Mare%20%28netkeiba%20OR%20wikipedia%29" xlink:title="Hautboy Mare">
<polygon fill="lightcoral" stroke="lightcoral" points="1015,-848 918,-848 918,-771 1015,-771 1015,-848"/>
<image xlink:href="img/mob.png" width="97px" height="77px" preserveAspectRatio="xMinYMin meet" x="918" y="-848"/>
<text text-anchor="middle" x="966.5" y="-803.7" font-family="MS Gothic" font-size="14.00">Hautboy Mare</text>
</a>
</g>
</g>
<!-- Hautboy Mare_3_1&#45;&gt;Snake_2_1 -->
<g id="edge24" class="edge">
<title>Hautboy Mare_3_1&#45;&gt;Snake_2_1</title>
<path fill="none" stroke="lightcoral" stroke-width="5" d="M961.45,-770.6C955.68,-727.32 946.19,-656.17 939.66,-607.2"/>
<polygon fill="lightcoral" stroke="lightcoral" stroke-width="5" points="944.01,-606.71 938.35,-597.38 935.34,-607.87 944.01,-606.71"/>
</g>
<!-- Hautboy_4_1 -->
<g id="node26" class="node">
<title>Hautboy_4_1</title>
<g id="a_node26"><a xlink:href="https://www.google.com/search?q=Hautboy%20%28netkeiba%20OR%20wikipedia%29" xlink:title="Hautboy">
<polygon fill="lightblue" stroke="lightblue" points="1005,-1105 928,-1105 928,-1028 1005,-1028 1005,-1105"/>
<image xlink:href="img/mob.png" width="77px" height="77px" preserveAspectRatio="xMinYMin meet" x="928" y="-1105"/>
<text text-anchor="middle" x="966.5" y="-1060.7" font-family="MS Gothic" font-size="14.00">Hautboy</text>
</a>
</g>
</g>
<!-- Hautboy_4_1&#45;&gt;Hautboy Mare_3_1 -->
<g id="edge25" class="edge">
<title>Hautboy_4_1&#45;&gt;Hautboy Mare_3_1</title>
<path fill="none" stroke="lightblue" stroke-width="5" d="M966.5,-1027.6C966.5,-984.32 966.5,-913.17 966.5,-864.2"/>
<polygon fill="lightblue" stroke="lightblue" stroke-width="5" points="970.88,-864.43 966.5,-854.43 962.13,-864.43 970.88,-864.43"/>
</g>
<!-- Darcy&#39;s White Turk_5_1 -->
<g id="node27" class="node">
<title>Darcy&#39;s White Turk_5_1</title>
<g id="a_node27"><a xlink:href="https://www.google.com/search?q=Darcy%27s%20White%20Turk%20%28netkeiba%20OR%20wikipedia%29" xlink:title="Darcy&#39;s White Turk">
<polygon fill="lightblue" stroke="lightblue" points="979.25,-1362 841.75,-1362 841.75,-1285 979.25,-1285 979.25,-1362"/>
<image xlink:href="img/mob.png" width="100px" height="77px" preserveAspectRatio="xMinYMin meet" x="860.5" y="-1362"/>
<text text-anchor="middle" x="910.5" y="-1317.7" font-family="MS Gothic" font-size="14.00">Darcy&#39;s White Turk</text>
</a>
</g>
</g>
<!-- Darcy&#39;s White Turk_5_1&#45;&gt;Hautboy_4_1 -->
<g id="edge26" class="edge">
<title>Darcy&#39;s White Turk_5_1&#45;&gt;Hautboy_4_1</title>
<path fill="none" stroke="lightblue" stroke-width="5" d="M918.82,-1284.6C928.35,-1241.22 944.02,-1169.86 954.78,-1120.88"/>
<polygon fill="lightblue" stroke="lightblue" stroke-width="5" points="959.01,-1121.99 956.88,-1111.28 950.47,-1120.11 959.01,-1121.99"/>
</g>
<!-- Royal Mare_5_1 -->
<g id="node28" class="node">
<title>Royal Mare_5_1</title>
<g id="a_node28"><a xlink:href="https://www.google.com/search?q=Royal%20Mare%20%28netkeiba%20OR%20wikipedia%29" xlink:title="Royal Mare">
<polygon fill="lightcoral" stroke="lightcoral" points="1070.25,-1362 986.75,-1362 986.75,-1285 1070.25,-1285 1070.25,-1362"/>
<image xlink:href="img/mob.png" width="83.5px" height="77px" preserveAspectRatio="xMinYMin meet" x="986.75" y="-1362"/>
<text text-anchor="middle" x="1028.5" y="-1317.7" font-family="MS Gothic" font-size="14.00">Royal Mare</text>
</a>
</g>
</g>
<!-- Royal Mare_5_1&#45;&gt;Hautboy_4_1 -->
<g id="edge27" class="edge">
<title>Royal Mare_5_1&#45;&gt;Hautboy_4_1</title>
<path fill="none" stroke="lightcoral" stroke-width="5" d="M1019.28,-1284.6C1008.74,-1241.22 991.39,-1169.86 979.48,-1120.88"/>
<polygon fill="lightcoral" stroke="lightcoral" stroke-width="5" points="983.75,-1119.94 977.14,-1111.25 975.25,-1122 983.75,-1119.94"/>
</g>
<!-- Brimmer Mare_4_1 -->
<g id="node29" class="node">
<title>Brimmer Mare_4_1</title>
<g id="a_node29"><a xlink:href="https://www.google.com/search?q=Brimmer%20Mare%20%28netkeiba%20OR%20wikipedia%29" xlink:title="Brimmer Mare">
<polygon fill="lightcoral" stroke="lightcoral" points="1164,-1105 1067,-1105 1067,-1028 1164,-1028 1164,-1105"/>
<image xlink:href="img/mob.png" width="97px" height="77px" preserveAspectRatio="xMinYMin meet" x="1067" y="-1105"/>
<text text-anchor="middle" x="1115.5" y="-1060.7" font-family="MS Gothic" font-size="14.00">Brimmer Mare</text>
</a>
</g>
</g>
<!-- Brimmer Mare_4_1&#45;&gt;Hautboy Mare_3_1 -->
<g id="edge28" class="edge">
<title>Brimmer Mare_4_1&#45;&gt;Hautboy Mare_3_1</title>
<path fill="none" stroke="lightcoral" stroke-width="5" d="M1093.35,-1027.6C1067.68,-983.66 1025.22,-911 996.57,-861.97"/>
<polygon fill="lightcoral" stroke="lightcoral" stroke-width="5" points="1000.49,-860 991.67,-853.58 992.94,-864.42 1000.49,-860"/>
</g>
<!-- Brimmer_5_1 -->
<g id="node30" class="node">
<title>Brimmer_5_1</title>
<g id="a_node30"><a xlink:href="https://www.google.com/search?q=Brimmer%20%28netkeiba%20OR%20wikipedia%29" xlink:title="Brimmer">
<polygon fill="lightblue" stroke="lightblue" points="1154,-1362 1077,-1362 1077,-1285 1154,-1285 1154,-1362"/>
<image xlink:href="img/mob.png" width="77px" height="77px" preserveAspectRatio="xMinYMin meet" x="1077" y="-1362"/>
<text text-anchor="middle" x="1115.5" y="-1317.7" font-family="MS Gothic" font-size="14.00">Brimmer</text>
</a>
</g>
</g>
<!-- Brimmer_5_1&#45;&gt;Brimmer Mare_4_1 -->
<g id="edge29" class="edge">
<title>Brimmer_5_1&#45;&gt;Brimmer Mare_4_1</title>
<path fill="none" stroke="lightblue" stroke-width="5" d="M1115.5,-1284.6C1115.5,-1241.32 1115.5,-1170.17 1115.5,-1121.2"/>
<polygon fill="lightblue" stroke="lightblue" stroke-width="5" points="1119.88,-1121.43 1115.5,-1111.43 1111.13,-1121.43 1119.88,-1121.43"/>
</g>
<!-- Royal Mare_5_2 -->
<g id="node31" class="node">
<title>Royal Mare_5_2</title>
<g id="a_node31"><a xlink:href="https://www.google.com/search?q=Royal%20Mare%20%28netkeiba%20OR%20wikipedia%29" xlink:title="Royal Mare">
<polygon fill="lightcoral" stroke="lightcoral" points="1244.25,-1362 1160.75,-1362 1160.75,-1285 1244.25,-1285 1244.25,-1362"/>
<image xlink:href="img/mob.png" width="83.5px" height="77px" preserveAspectRatio="xMinYMin meet" x="1160.75" y="-1362"/>
<text text-anchor="middle" x="1202.5" y="-1317.7" font-family="MS Gothic" font-size="14.00">Royal Mare</text>
</a>
</g>
</g>
<!-- Royal Mare_5_2&#45;&gt;Brimmer Mare_4_1 -->
<g id="edge30" class="edge">
<title>Royal Mare_5_2&#45;&gt;Brimmer Mare_4_1</title>
<path fill="none" stroke="lightcoral" stroke-width="5" d="M1189.57,-1284.6C1174.74,-1241.13 1150.32,-1169.55 1133.6,-1120.56"/>
<polygon fill="lightcoral" stroke="lightcoral" stroke-width="5" points="1137.74,-1119.15 1130.37,-1111.1 1129.46,-1121.97 1137.74,-1119.15"/>
</g>
<!-- Grey Wilkes_2_1 -->
<g id="node32" class="node">
<title>Grey Wilkes_2_1</title>
<g id="a_node32"><a xlink:href="https://www.google.com/search?q=Grey%20Wilkes%20%28netkeiba%20OR%20wikipedia%29" xlink:title="Grey Wilkes">
<polygon fill="lightcoral" stroke="lightcoral" points="1359.62,-591 1269.38,-591 1269.38,-514 1359.62,-514 1359.62,-591"/>
<image xlink:href="img/mob.png" width="90.25px" height="77px" preserveAspectRatio="xMinYMin meet" x="1269.38" y="-591"/>
<text text-anchor="middle" x="1314.5" y="-546.7" font-family="MS Gothic" font-size="14.00">Grey Wilkes</text>
</a>
</g>
</g>
<!-- Grey Wilkes_2_1&#45;&gt;Snake Mare_1_1 -->
<g id="edge31" class="edge">
<title>Grey Wilkes_2_1&#45;&gt;Snake Mare_1_1</title>
<path fill="none" stroke="lightcoral" stroke-width="5" d="M1269.18,-521.25C1198.94,-474.36 1064.01,-384.28 988.02,-333.56"/>
<polygon fill="lightcoral" stroke="lightcoral" stroke-width="5" points="990.48,-329.95 979.74,-328.03 985.62,-337.22 990.48,-329.95"/>
</g>
<!-- Hautboy_3_2 -->
<g id="node33" class="node">
<title>Hautboy_3_2</title>
<g id="a_node33"><a xlink:href="https://www.google.com/search?q=Hautboy%20%28netkeiba%20OR%20wikipedia%29" xlink:title="Hautboy">
<polygon fill="lightblue" stroke="lightblue" points="1353,-848 1276,-848 1276,-771 1353,-771 1353,-848"/>
<image xlink:href="img/mob.png" width="77px" height="77px" preserveAspectRatio="xMinYMin meet" x="1276" y="-848"/>
<text text-anchor="middle" x="1314.5" y="-803.7" font-family="MS Gothic" font-size="14.00">Hautboy</text>
</a>
</g>
</g>
<!-- Hautboy_3_2&#45;&gt;Grey Wilkes_2_1 -->
<g id="edge32" class="edge">
<title>Hautboy_3_2&#45;&gt;Grey Wilkes_2_1</title>
<path fill="none" stroke="lightblue" stroke-width="5" d="M1314.5,-770.6C1314.5,-727.32 1314.5,-656.17 1314.5,-607.2"/>
<polygon fill="lightblue" stroke="lightblue" stroke-width="5" points="1318.88,-607.43 1314.5,-597.43 1310.13,-607.43 1318.88,-607.43"/>
</g>
<!-- Darcy&#39;s White Turk_4_2 -->
<g id="node34" class="node">
<title>Darcy&#39;s White Turk_4_2</title>
<g id="a_node34"><a xlink:href="https://www.google.com/search?q=Darcy%27s%20White%20Turk%20%28netkeiba%20OR%20wikipedia%29" xlink:title="Darcy&#39;s White Turk">
<polygon fill="lightblue" stroke="lightblue" points="1341.25,-1105 1203.75,-1105 1203.75,-1028 1341.25,-1028 1341.25,-1105"/>
<image xlink:href="img/mob.png" width="100px" height="77px" preserveAspectRatio="xMinYMin meet" x="1222.5" y="-1105"/>
<text text-anchor="middle" x="1272.5" y="-1060.7" font-family="MS Gothic" font-size="14.00">Darcy&#39;s White Turk</text>
</a>
</g>
</g>
<!-- Darcy&#39;s White Turk_4_2&#45;&gt;Hautboy_3_2 -->
<g id="edge33" class="edge">
<title>Darcy&#39;s White Turk_4_2&#45;&gt;Hautboy_3_2</title>
<path fill="none" stroke="lightblue" stroke-width="5" d="M1278.74,-1027.6C1285.87,-984.32 1297.59,-913.17 1305.66,-864.2"/>
<polygon fill="lightblue" stroke="lightblue" stroke-width="5" points="1309.97,-864.92 1307.28,-854.35 1301.34,-863.5 1309.97,-864.92"/>
</g>
<!-- unknown_5_9 -->
<g id="node35" class="node">
<title>unknown_5_9</title>
<g id="a_node35"><a xlink:href="https://www.google.com/search?q=unknown%20%28netkeiba%20OR%20wikipedia%29" xlink:title="unknown">
<polygon fill="lightcoral" stroke="lightcoral" points="1328,-1362 1251,-1362 1251,-1285 1328,-1285 1328,-1362"/>
<image xlink:href="img/mob.png" width="77px" height="77px" preserveAspectRatio="xMinYMin meet" x="1251" y="-1362"/>
<text text-anchor="middle" x="1289.5" y="-1317.7" font-family="MS Gothic" font-size="14.00">unknown</text>
</a>
</g>
</g>
<!-- unknown_5_9&#45;&gt;Darcy&#39;s White Turk_4_2 -->
<g id="edge34" class="edge">
<title>unknown_5_9&#45;&gt;Darcy&#39;s White Turk_4_2</title>
<path fill="none" stroke="lightblue" stroke-width="5" d="M1286.97,-1284.6C1284.09,-1241.32 1279.34,-1170.17 1276.08,-1121.2"/>
<polygon fill="lightblue" stroke="lightblue" stroke-width="5" points="1280.46,-1121.1 1275.43,-1111.42 1271.73,-1121.68 1280.46,-1121.1"/>
</g>
<!-- Royal Mare_4_3 -->
<g id="node36" class="node">
<title>Royal Mare_4_3</title>
<g id="a_node36"><a xlink:href="https://www.google.com/search?q=Royal%20Mare%20%28netkeiba%20OR%20wikipedia%29" xlink:title="Royal Mare">
<polygon fill="lightcoral" stroke="lightcoral" points="1432.25,-1105 1348.75,-1105 1348.75,-1028 1432.25,-1028 1432.25,-1105"/>
<image xlink:href="img/mob.png" width="83.5px" height="77px" preserveAspectRatio="xMinYMin meet" x="1348.75" y="-1105"/>
<text text-anchor="middle" x="1390.5" y="-1060.7" font-family="MS Gothic" font-size="14.00">Royal Mare</text>
</a>
</g>
</g>
<!-- Royal Mare_4_3&#45;&gt;Hautboy_3_2 -->
<g id="edge35" class="edge">
<title>Royal Mare_4_3&#45;&gt;Hautboy_3_2</title>
<path fill="none" stroke="lightcoral" stroke-width="5" d="M1379.2,-1027.6C1366.25,-984.13 1344.92,-912.55 1330.31,-863.56"/>
<polygon fill="lightcoral" stroke="lightcoral" stroke-width="5" points="1334.56,-862.5 1327.52,-854.17 1326.18,-865 1334.56,-862.5"/>
</g>
<!-- unknown_5_10 -->
<g id="node37" class="node">
<title>unknown_5_10</title>
<g id="a_node37"><a xlink:href="https://www.google.com/search?q=unknown%20%28netkeiba%20OR%20wikipedia%29" xlink:title="unknown">
<polygon fill="lightcoral" stroke="lightcoral" points="1429,-1362 1352,-1362 1352,-1285 1429,-1285 1429,-1362"/>
<image xlink:href="img/mob.png" width="77px" height="77px" preserveAspectRatio="xMinYMin meet" x="1352" y="-1362"/>
<text text-anchor="middle" x="1390.5" y="-1317.7" font-family="MS Gothic" font-size="14.00">unknown</text>
</a>
</g>
</g>
<!-- unknown_5_10&#45;&gt;Royal Mare_4_3 -->
<g id="edge36" class="edge">
<title>unknown_5_10&#45;&gt;Royal Mare_4_3</title>
<path fill="none" stroke="lightblue" stroke-width="5" d="M1390.5,-1284.6C1390.5,-1241.32 1390.5,-1170.17 1390.5,-1121.2"/>
<polygon fill="lightblue" stroke="lightblue" stroke-width="5" points="1394.88,-1121.43 1390.5,-1111.43 1386.13,-1121.43 1394.88,-1121.43"/>
</g>
<!-- Miss Darcys Pet Mare_3_1 -->
<g id="node38" class="node">
<title>Miss Darcys Pet Mare_3_1</title>
<g id="a_node38"><a xlink:href="https://www.google.com/search?q=Miss%20Darcys%20Pet%20Mare%20%28netkeiba%20OR%20wikipedia%29" xlink:title="Miss Darcys Pet Mare">
<polygon fill="lightcoral" stroke="lightcoral" points="1553,-848 1402,-848 1402,-771 1553,-771 1553,-848"/>
<image xlink:href="img/mob.png" width="100px" height="77px" preserveAspectRatio="xMinYMin meet" x="1427.5" y="-848"/>
<text text-anchor="middle" x="1477.5" y="-803.7" font-family="MS Gothic" font-size="14.00">Miss Darcys Pet Mare</text>
</a>
</g>
</g>
<!-- Miss Darcys Pet Mare_3_1&#45;&gt;Grey Wilkes_2_1 -->
<g id="edge37" class="edge">
<title>Miss Darcys Pet Mare_3_1&#45;&gt;Grey Wilkes_2_1</title>
<path fill="none" stroke="lightcoral" stroke-width="5" d="M1453.27,-770.6C1425.12,-726.56 1378.54,-653.69 1347.2,-604.66"/>
<polygon fill="lightcoral" stroke="lightcoral" stroke-width="5" points="1351.03,-602.52 1341.95,-596.45 1343.65,-607.23 1351.03,-602.52"/>
</g>
<!-- unknown_4_11 -->
<g id="node39" class="node">
<title>unknown_4_11</title>
<g id="a_node39"><a xlink:href="https://www.google.com/search?q=unknown%20%28netkeiba%20OR%20wikipedia%29" xlink:title="unknown">
<polygon fill="lightblue" stroke="lightblue" points="1516,-1105 1439,-1105 1439,-1028 1516,-1028 1516,-1105"/>
<image xlink:href="img/mob.png" width="77px" height="77px" preserveAspectRatio="xMinYMin meet" x="1439" y="-1105"/>
<text text-anchor="middle" x="1477.5" y="-1060.7" font-family="MS Gothic" font-size="14.00">unknown</text>
</a>
</g>
</g>
<!-- unknown_4_11&#45;&gt;Miss Darcys Pet Mare_3_1 -->
<g id="edge38" class="edge">
<title>unknown_4_11&#45;&gt;Miss Darcys Pet Mare_3_1</title>
<path fill="none" stroke="lightblue" stroke-width="5" d="M1477.5,-1027.6C1477.5,-984.32 1477.5,-913.17 1477.5,-864.2"/>
<polygon fill="lightblue" stroke="lightblue" stroke-width="5" points="1481.88,-864.43 1477.5,-854.43 1473.13,-864.43 1481.88,-864.43"/>
</g>
<!-- unknown_5_12 -->
<g id="node40" class="node">
<title>unknown_5_12</title>
<g id="a_node40"><a xlink:href="https://www.google.com/search?q=unknown%20%28netkeiba%20OR%20wikipedia%29" xlink:title="unknown">
<polygon fill="lightcoral" stroke="lightcoral" points="1516,-1362 1439,-1362 1439,-1285 1516,-1285 1516,-1362"/>
<image xlink:href="img/mob.png" width="77px" height="77px" preserveAspectRatio="xMinYMin meet" x="1439" y="-1362"/>
<text text-anchor="middle" x="1477.5" y="-1317.7" font-family="MS Gothic" font-size="14.00">unknown</text>
</a>
</g>
</g>
<!-- unknown_5_12&#45;&gt;unknown_4_11 -->
<g id="edge39" class="edge">
<title>unknown_5_12&#45;&gt;unknown_4_11</title>
<path fill="none" stroke="lightblue" stroke-width="5" d="M1477.5,-1284.6C1477.5,-1241.32 1477.5,-1170.17 1477.5,-1121.2"/>
<polygon fill="lightblue" stroke="lightblue" stroke-width="5" points="1481.88,-1121.43 1477.5,-1111.43 1473.13,-1121.43 1481.88,-1121.43"/>
</g>
<!-- Sedbury Royal Mare_4_1 -->
<g id="node41" class="node">
<title>Sedbury Royal Mare_4_1</title>
<g id="a_node41"><a xlink:href="https://www.google.com/search?q=Sedbury%20Royal%20Mare%20%28netkeiba%20OR%20wikipedia%29" xlink:title="Sedbury Royal Mare">
<polygon fill="lightcoral" stroke="lightcoral" points="1660.25,-1105 1522.75,-1105 1522.75,-1028 1660.25,-1028 1660.25,-1105"/>
<image xlink:href="img/mob.png" width="100px" height="77px" preserveAspectRatio="xMinYMin meet" x="1541.5" y="-1105"/>
<text text-anchor="middle" x="1591.5" y="-1060.7" font-family="MS Gothic" font-size="14.00">Sedbury Royal Mare</text>
</a>
</g>
</g>
<!-- Sedbury Royal Mare_4_1&#45;&gt;Miss Darcys Pet Mare_3_1 -->
<g id="edge40" class="edge">
<title>Sedbury Royal Mare_4_1&#45;&gt;Miss Darcys Pet Mare_3_1</title>
<path fill="none" stroke="lightcoral" stroke-width="5" d="M1574.56,-1027.6C1555.04,-983.94 1522.85,-911.93 1500.93,-862.92"/>
<polygon fill="lightcoral" stroke="lightcoral" stroke-width="5" points="1504.97,-861.23 1496.9,-853.89 1496.98,-864.8 1504.97,-861.23"/>
</g>
<!-- unknown_5_13 -->
<g id="node42" class="node">
<title>unknown_5_13</title>
<g id="a_node42"><a xlink:href="https://www.google.com/search?q=unknown%20%28netkeiba%20OR%20wikipedia%29" xlink:title="unknown">
<polygon fill="lightcoral" stroke="lightcoral" points="1630,-1362 1553,-1362 1553,-1285 1630,-1285 1630,-1362"/>
<image xlink:href="img/mob.png" width="77px" height="77px" preserveAspectRatio="xMinYMin meet" x="1553" y="-1362"/>
<text text-anchor="middle" x="1591.5" y="-1317.7" font-family="MS Gothic" font-size="14.00">unknown</text>
</a>
</g>
</g>
<!-- unknown_5_13&#45;&gt;Sedbury Royal Mare_4_1 -->
<g id="edge41" class="edge">
<title>unknown_5_13&#45;&gt;Sedbury Royal Mare_4_1</title>
<path fill="none" stroke="lightblue" stroke-width="5" d="M1591.5,-1284.6C1591.5,-1241.32 1591.5,-1170.17 1591.5,-1121.2"/>
<polygon fill="lightblue" stroke="lightblue" stroke-width="5" points="1595.88,-1121.43 1591.5,-1111.43 1587.13,-1121.43 1595.88,-1121.43"/>
</g>
</g>
</svg>
