<?xml version="1.0" encoding="UTF-8" standalone="no"?>
<!DOCTYPE svg PUBLIC "-//W3C//DTD SVG 1.1//EN"
 "http://www.w3.org/Graphics/SVG/1.1/DTD/svg11.dtd">
<!-- Generated by graphviz version 12.1.2 (20240928.0832)
 -->
<!-- Pages: 1 -->
<svg width="1562pt" height="1102pt"
 viewBox="0.00 0.00 1562.38 1101.50" xmlns="http://www.w3.org/2000/svg" xmlns:xlink="http://www.w3.org/1999/xlink">
<g id="graph0" class="graph" transform="scale(1 1) rotate(0) translate(4 1097.5)">
<!-- Squirt_0_1 -->
<g id="node1" class="node">
<title>Squirt_0_1</title>
<g id="a_node1"><a xlink:href="https://www.google.com/search?q=Squirt%20%28netkeiba%20OR%20wikipedia%29" xlink:title="Squirt">
<polygon fill="none" stroke="black" points="594.12,-24.5 545.12,-24.5 545.12,0 594.12,0 594.12,-24.5"/>
<text text-anchor="middle" x="569.62" y="-7.2" font-family="Times New Roman,serif" font-size="14.00">Squirt</text>
</a>
</g>
</g>
<!-- Bartlet&#39;s Childers_1_1 -->
<g id="node2" class="node">
<title>Bartlet&#39;s Childers_1_1</title>
<g id="a_node2"><a xlink:href="https://www.google.com/search?q=Bartlet%27s%20Childers%20%28netkeiba%20OR%20wikipedia%29" xlink:title="Bartlet&#39;s Childers">
<polygon fill="lightblue" stroke="lightblue" points="502.38,-227.5 364.88,-227.5 364.88,-204.5 502.38,-204.5 502.38,-227.5"/>
<text text-anchor="middle" x="433.62" y="-210.2" font-family="MS Gothic" font-size="14.00">Bartlet&#39;s Childers</text>
</a>
</g>
</g>
<!-- Bartlet&#39;s Childers_1_1&#45;&gt;Squirt_0_1 -->
<g id="edge1" class="edge">
<title>Bartlet&#39;s Childers_1_1&#45;&gt;Squirt_0_1</title>
<path fill="none" stroke="lightblue" stroke-width="5" d="M440.94,-204.15C462.01,-172.9 523.24,-82.06 553,-37.91"/>
<polygon fill="lightblue" stroke="lightblue" stroke-width="5" points="556.49,-40.56 558.46,-29.82 549.24,-35.67 556.49,-40.56"/>
</g>
<!-- ダーレーアラビアン_2_1 -->
<g id="node3" class="node">
<title>ダーレーアラビアン_2_1</title>
<g id="a_node3"><a xlink:href="https://www.google.com/search?q=%E3%83%80%E3%83%BC%E3%83%AC%E3%83%BC%E3%82%A2%E3%83%A9%E3%83%93%E3%82%A2%E3%83%B3%20%28netkeiba%20OR%20wikipedia%29" xlink:title="ダーレーアラビアン">
<polygon fill="lightblue" stroke="lightblue" points="325.75,-484.5 181.5,-484.5 181.5,-407.5 325.75,-407.5 325.75,-484.5"/>
<image xlink:href="img/darearabian.png" width="100px" height="77px" preserveAspectRatio="xMinYMin meet" x="203.625" y="-484.5"/>
<text text-anchor="middle" x="253.62" y="-440.2" font-family="MS Gothic" font-size="14.00">ダーレーアラビアン</text>
</a>
</g>
</g>
<!-- ダーレーアラビアン_2_1&#45;&gt;Bartlet&#39;s Childers_1_1 -->
<g id="edge2" class="edge">
<title>ダーレーアラビアン_2_1&#45;&gt;Bartlet&#39;s Childers_1_1</title>
<path fill="none" stroke="lightblue" stroke-width="5" d="M283.55,-407.09C321.04,-359.61 384.13,-279.7 415.2,-240.34"/>
<polygon fill="lightblue" stroke="lightblue" stroke-width="5" points="418.63,-243.06 421.39,-232.5 411.76,-237.64 418.63,-243.06"/>
</g>
<!-- unknown_3_1 -->
<g id="node4" class="node">
<title>unknown_3_1</title>
<g id="a_node4"><a xlink:href="https://www.google.com/search?q=unknown%20%28netkeiba%20OR%20wikipedia%29" xlink:title="unknown">
<polygon fill="lightcoral" stroke="lightcoral" points="233.25,-687.5 170,-687.5 170,-664.5 233.25,-664.5 233.25,-687.5"/>
<text text-anchor="middle" x="201.62" y="-670.2" font-family="MS Gothic" font-size="14.00">unknown</text>
</a>
</g>
</g>
<!-- unknown_3_1&#45;&gt;ダーレーアラビアン_2_1 -->
<g id="edge3" class="edge">
<title>unknown_3_1&#45;&gt;ダーレーアラビアン_2_1</title>
<path fill="none" stroke="lightblue" stroke-width="5" d="M204.13,-664C210.75,-635 229.01,-554.94 241.4,-500.6"/>
<polygon fill="lightblue" stroke="lightblue" stroke-width="5" points="245.61,-501.8 243.57,-491.08 237.08,-499.86 245.61,-501.8"/>
</g>
<!-- unknown_4_2 -->
<g id="node5" class="node">
<title>unknown_4_2</title>
<g id="a_node5"><a xlink:href="https://www.google.com/search?q=unknown%20%28netkeiba%20OR%20wikipedia%29" xlink:title="unknown">
<polygon fill="lightcoral" stroke="lightcoral" points="158.25,-890.5 95,-890.5 95,-867.5 158.25,-867.5 158.25,-890.5"/>
<text text-anchor="middle" x="126.62" y="-873.2" font-family="MS Gothic" font-size="14.00">unknown</text>
</a>
</g>
</g>
<!-- unknown_4_2&#45;&gt;unknown_3_1 -->
<g id="edge4" class="edge">
<title>unknown_4_2&#45;&gt;unknown_3_1</title>
<path fill="none" stroke="lightblue" stroke-width="5" d="M130.66,-867.19C142.15,-836.38 175.33,-747.47 191.93,-702.99"/>
<polygon fill="lightblue" stroke="lightblue" stroke-width="5" points="196,-704.6 195.39,-693.7 187.8,-701.54 196,-704.6"/>
</g>
<!-- unknown_5_3 -->
<g id="node6" class="node">
<title>unknown_5_3</title>
<g id="a_node6"><a xlink:href="https://www.google.com/search?q=unknown%20%28netkeiba%20OR%20wikipedia%29" xlink:title="unknown">
<polygon fill="lightcoral" stroke="lightcoral" points="63.25,-1093.5 0,-1093.5 0,-1070.5 63.25,-1070.5 63.25,-1093.5"/>
<text text-anchor="middle" x="31.62" y="-1076.2" font-family="MS Gothic" font-size="14.00">unknown</text>
</a>
</g>
</g>
<!-- unknown_5_3&#45;&gt;unknown_4_2 -->
<g id="edge5" class="edge">
<title>unknown_5_3&#45;&gt;unknown_4_2</title>
<path fill="none" stroke="lightblue" stroke-width="5" d="M36.73,-1070.19C51.36,-1039.25 93.69,-949.68 114.62,-905.4"/>
<polygon fill="lightblue" stroke="lightblue" stroke-width="5" points="118.51,-907.41 118.83,-896.5 110.6,-903.67 118.51,-907.41"/>
</g>
<!-- Betty Leedes_2_1 -->
<g id="node7" class="node">
<title>Betty Leedes_2_1</title>
<g id="a_node7"><a xlink:href="https://www.google.com/search?q=Betty%20Leedes%20%28netkeiba%20OR%20wikipedia%29" xlink:title="Betty Leedes">
<polygon fill="lightcoral" stroke="lightcoral" points="482.12,-457.5 385.12,-457.5 385.12,-434.5 482.12,-434.5 482.12,-457.5"/>
<text text-anchor="middle" x="433.62" y="-440.2" font-family="MS Gothic" font-size="14.00">Betty Leedes</text>
</a>
</g>
</g>
<!-- Betty Leedes_2_1&#45;&gt;Bartlet&#39;s Childers_1_1 -->
<g id="edge6" class="edge">
<title>Betty Leedes_2_1&#45;&gt;Bartlet&#39;s Childers_1_1</title>
<path fill="none" stroke="lightcoral" stroke-width="5" d="M433.62,-434C433.62,-399.7 433.62,-293.94 433.62,-243.84"/>
<polygon fill="lightcoral" stroke="lightcoral" stroke-width="5" points="438,-244.12 433.63,-234.12 429.25,-244.12 438,-244.12"/>
</g>
<!-- Old Careless_3_1 -->
<g id="node8" class="node">
<title>Old Careless_3_1</title>
<g id="a_node8"><a xlink:href="https://www.google.com/search?q=Old%20Careless%20%28netkeiba%20OR%20wikipedia%29" xlink:title="Old Careless">
<polygon fill="lightblue" stroke="lightblue" points="409.12,-687.5 312.12,-687.5 312.12,-664.5 409.12,-664.5 409.12,-687.5"/>
<text text-anchor="middle" x="360.62" y="-670.2" font-family="MS Gothic" font-size="14.00">Old Careless</text>
</a>
</g>
</g>
<!-- Old Careless_3_1&#45;&gt;Betty Leedes_2_1 -->
<g id="edge7" class="edge">
<title>Old Careless_3_1&#45;&gt;Betty Leedes_2_1</title>
<path fill="none" stroke="lightblue" stroke-width="5" d="M364.15,-664C375.18,-629.54 409.29,-523.01 425.24,-473.19"/>
<polygon fill="lightblue" stroke="lightblue" stroke-width="5" points="429.35,-474.68 428.24,-463.83 421.02,-472.02 429.35,-474.68"/>
</g>
<!-- Spanker_4_1 -->
<g id="node9" class="node">
<title>Spanker_4_1</title>
<g id="a_node9"><a xlink:href="https://www.google.com/search?q=Spanker%20%28netkeiba%20OR%20wikipedia%29" xlink:title="Spanker">
<polygon fill="lightblue" stroke="lightblue" points="322.25,-890.5 259,-890.5 259,-867.5 322.25,-867.5 322.25,-890.5"/>
<text text-anchor="middle" x="290.62" y="-873.2" font-family="MS Gothic" font-size="14.00">Spanker</text>
</a>
</g>
</g>
<!-- Spanker_4_1&#45;&gt;Old Careless_3_1 -->
<g id="edge8" class="edge">
<title>Spanker_4_1&#45;&gt;Old Careless_3_1</title>
<path fill="none" stroke="lightblue" stroke-width="5" d="M294.39,-867.19C305.12,-836.38 336.08,-747.47 351.58,-702.99"/>
<polygon fill="lightblue" stroke="lightblue" stroke-width="5" points="355.63,-704.63 354.79,-693.75 347.37,-701.76 355.63,-704.63"/>
</g>
<!-- D&#39;Arcy&#39;s Yellow Turk_5_1 -->
<g id="node10" class="node">
<title>D&#39;Arcy&#39;s Yellow Turk_5_1</title>
<g id="a_node10"><a xlink:href="https://www.google.com/search?q=D%27Arcy%27s%20Yellow%20Turk%20%28netkeiba%20OR%20wikipedia%29" xlink:title="D&#39;Arcy&#39;s Yellow Turk">
<polygon fill="lightblue" stroke="lightblue" points="221.12,-1093.5 70.12,-1093.5 70.12,-1070.5 221.12,-1070.5 221.12,-1093.5"/>
<text text-anchor="middle" x="145.62" y="-1076.2" font-family="MS Gothic" font-size="14.00">D&#39;Arcy&#39;s Yellow Turk</text>
</a>
</g>
</g>
<!-- D&#39;Arcy&#39;s Yellow Turk_5_1&#45;&gt;Spanker_4_1 -->
<g id="edge9" class="edge">
<title>D&#39;Arcy&#39;s Yellow Turk_5_1&#45;&gt;Spanker_4_1</title>
<path fill="none" stroke="lightblue" stroke-width="5" d="M153.42,-1070.19C175.99,-1038.91 241.79,-947.7 273.35,-903.95"/>
<polygon fill="lightblue" stroke="lightblue" stroke-width="5" points="276.84,-906.59 279.14,-895.92 269.74,-901.47 276.84,-906.59"/>
</g>
<!-- Old Morocco Mare_5_1 -->
<g id="node11" class="node">
<title>Old Morocco Mare_5_1</title>
<g id="a_node11"><a xlink:href="https://www.google.com/search?q=Old%20Morocco%20Mare%20%28netkeiba%20OR%20wikipedia%29" xlink:title="Old Morocco Mare">
<polygon fill="lightcoral" stroke="lightcoral" points="352.62,-1093.5 228.62,-1093.5 228.62,-1070.5 352.62,-1070.5 352.62,-1093.5"/>
<text text-anchor="middle" x="290.62" y="-1076.2" font-family="MS Gothic" font-size="14.00">Old Morocco Mare</text>
</a>
</g>
</g>
<!-- Old Morocco Mare_5_1&#45;&gt;Spanker_4_1 -->
<g id="edge10" class="edge">
<title>Old Morocco Mare_5_1&#45;&gt;Spanker_4_1</title>
<path fill="none" stroke="lightcoral" stroke-width="5" d="M290.62,-1070.19C290.62,-1039.59 290.62,-951.64 290.62,-906.88"/>
<polygon fill="lightcoral" stroke="lightcoral" stroke-width="5" points="295,-907.1 290.63,-897.1 286.25,-907.1 295,-907.1"/>
</g>
<!-- unknown_4_4 -->
<g id="node12" class="node">
<title>unknown_4_4</title>
<g id="a_node12"><a xlink:href="https://www.google.com/search?q=unknown%20%28netkeiba%20OR%20wikipedia%29" xlink:title="unknown">
<polygon fill="lightcoral" stroke="lightcoral" points="396.25,-890.5 333,-890.5 333,-867.5 396.25,-867.5 396.25,-890.5"/>
<text text-anchor="middle" x="364.62" y="-873.2" font-family="MS Gothic" font-size="14.00">unknown</text>
</a>
</g>
</g>
<!-- unknown_4_4&#45;&gt;Old Careless_3_1 -->
<g id="edge11" class="edge">
<title>unknown_4_4&#45;&gt;Old Careless_3_1</title>
<path fill="none" stroke="lightcoral" stroke-width="5" d="M364.41,-867.19C363.8,-836.59 362.05,-748.64 361.16,-703.88"/>
<polygon fill="lightcoral" stroke="lightcoral" stroke-width="5" points="365.54,-704.01 360.97,-694.1 356.79,-704.18 365.54,-704.01"/>
</g>
<!-- unknown_5_5 -->
<g id="node13" class="node">
<title>unknown_5_5</title>
<g id="a_node13"><a xlink:href="https://www.google.com/search?q=unknown%20%28netkeiba%20OR%20wikipedia%29" xlink:title="unknown">
<polygon fill="lightcoral" stroke="lightcoral" points="423.25,-1093.5 360,-1093.5 360,-1070.5 423.25,-1070.5 423.25,-1093.5"/>
<text text-anchor="middle" x="391.62" y="-1076.2" font-family="MS Gothic" font-size="14.00">unknown</text>
</a>
</g>
</g>
<!-- unknown_5_5&#45;&gt;unknown_4_4 -->
<g id="edge12" class="edge">
<title>unknown_5_5&#45;&gt;unknown_4_4</title>
<path fill="none" stroke="lightblue" stroke-width="5" d="M390.17,-1070.19C386.06,-1039.59 374.25,-951.64 368.24,-906.88"/>
<polygon fill="lightblue" stroke="lightblue" stroke-width="5" points="372.58,-906.37 366.91,-897.04 363.91,-907.54 372.58,-906.37"/>
</g>
<!-- Cream Cheeks_3_1 -->
<g id="node14" class="node">
<title>Cream Cheeks_3_1</title>
<g id="a_node14"><a xlink:href="https://www.google.com/search?q=Cream%20Cheeks%20%28netkeiba%20OR%20wikipedia%29" xlink:title="Cream Cheeks">
<polygon fill="lightcoral" stroke="lightcoral" points="513.12,-687.5 416.12,-687.5 416.12,-664.5 513.12,-664.5 513.12,-687.5"/>
<text text-anchor="middle" x="464.62" y="-670.2" font-family="MS Gothic" font-size="14.00">Cream Cheeks</text>
</a>
</g>
</g>
<!-- Cream Cheeks_3_1&#45;&gt;Betty Leedes_2_1 -->
<g id="edge13" class="edge">
<title>Cream Cheeks_3_1&#45;&gt;Betty Leedes_2_1</title>
<path fill="none" stroke="lightcoral" stroke-width="5" d="M463.13,-664C458.47,-629.7 444.09,-523.94 437.27,-473.84"/>
<polygon fill="lightcoral" stroke="lightcoral" stroke-width="5" points="441.63,-473.39 435.95,-464.07 432.96,-474.57 441.63,-473.39"/>
</g>
<!-- Leedes Arabian_4_1 -->
<g id="node15" class="node">
<title>Leedes Arabian_4_1</title>
<g id="a_node15"><a xlink:href="https://www.google.com/search?q=Leedes%20Arabian%20%28netkeiba%20OR%20wikipedia%29" xlink:title="Leedes Arabian">
<polygon fill="lightblue" stroke="lightblue" points="516.88,-890.5 406.38,-890.5 406.38,-867.5 516.88,-867.5 516.88,-890.5"/>
<text text-anchor="middle" x="461.62" y="-873.2" font-family="MS Gothic" font-size="14.00">Leedes Arabian</text>
</a>
</g>
</g>
<!-- Leedes Arabian_4_1&#45;&gt;Cream Cheeks_3_1 -->
<g id="edge14" class="edge">
<title>Leedes Arabian_4_1&#45;&gt;Cream Cheeks_3_1</title>
<path fill="none" stroke="lightblue" stroke-width="5" d="M461.79,-867.19C462.24,-836.59 463.56,-748.64 464.22,-703.88"/>
<polygon fill="lightblue" stroke="lightblue" stroke-width="5" points="468.6,-704.16 464.37,-694.1 459.85,-704.03 468.6,-704.16"/>
</g>
<!-- unknown_5_6 -->
<g id="node16" class="node">
<title>unknown_5_6</title>
<g id="a_node16"><a xlink:href="https://www.google.com/search?q=unknown%20%28netkeiba%20OR%20wikipedia%29" xlink:title="unknown">
<polygon fill="lightcoral" stroke="lightcoral" points="493.25,-1093.5 430,-1093.5 430,-1070.5 493.25,-1070.5 493.25,-1093.5"/>
<text text-anchor="middle" x="461.62" y="-1076.2" font-family="MS Gothic" font-size="14.00">unknown</text>
</a>
</g>
</g>
<!-- unknown_5_6&#45;&gt;Leedes Arabian_4_1 -->
<g id="edge15" class="edge">
<title>unknown_5_6&#45;&gt;Leedes Arabian_4_1</title>
<path fill="none" stroke="lightblue" stroke-width="5" d="M461.62,-1070.19C461.62,-1039.59 461.62,-951.64 461.62,-906.88"/>
<polygon fill="lightblue" stroke="lightblue" stroke-width="5" points="466,-907.1 461.63,-897.1 457.25,-907.1 466,-907.1"/>
</g>
<!-- Spanker Mare_4_1 -->
<g id="node17" class="node">
<title>Spanker Mare_4_1</title>
<g id="a_node17"><a xlink:href="https://www.google.com/search?q=Spanker%20Mare%20%28netkeiba%20OR%20wikipedia%29" xlink:title="Spanker Mare">
<polygon fill="lightcoral" stroke="lightcoral" points="621.12,-890.5 524.12,-890.5 524.12,-867.5 621.12,-867.5 621.12,-890.5"/>
<text text-anchor="middle" x="572.62" y="-873.2" font-family="MS Gothic" font-size="14.00">Spanker Mare</text>
</a>
</g>
</g>
<!-- Spanker Mare_4_1&#45;&gt;Cream Cheeks_3_1 -->
<g id="edge16" class="edge">
<title>Spanker Mare_4_1&#45;&gt;Cream Cheeks_3_1</title>
<path fill="none" stroke="lightcoral" stroke-width="5" d="M566.82,-867.19C550.15,-836.18 501.85,-746.28 478.11,-702.11"/>
<polygon fill="lightcoral" stroke="lightcoral" stroke-width="5" points="482,-700.09 473.41,-693.35 474.29,-704.23 482,-700.09"/>
</g>
<!-- Spanker_5_2 -->
<g id="node18" class="node">
<title>Spanker_5_2</title>
<g id="a_node18"><a xlink:href="https://www.google.com/search?q=Spanker%20%28netkeiba%20OR%20wikipedia%29" xlink:title="Spanker">
<polygon fill="lightblue" stroke="lightblue" points="563.25,-1093.5 500,-1093.5 500,-1070.5 563.25,-1070.5 563.25,-1093.5"/>
<text text-anchor="middle" x="531.62" y="-1076.2" font-family="MS Gothic" font-size="14.00">Spanker</text>
</a>
</g>
</g>
<!-- Spanker_5_2&#45;&gt;Spanker Mare_4_1 -->
<g id="edge17" class="edge">
<title>Spanker_5_2&#45;&gt;Spanker Mare_4_1</title>
<path fill="none" stroke="lightblue" stroke-width="5" d="M533.83,-1070.19C540.09,-1039.52 558.09,-951.25 567.2,-906.58"/>
<polygon fill="lightblue" stroke="lightblue" stroke-width="5" points="571.45,-907.64 569.16,-896.97 562.88,-905.9 571.45,-907.64"/>
</g>
<!-- Old Morocco Mare_5_2 -->
<g id="node19" class="node">
<title>Old Morocco Mare_5_2</title>
<g id="a_node19"><a xlink:href="https://www.google.com/search?q=Old%20Morocco%20Mare%20%28netkeiba%20OR%20wikipedia%29" xlink:title="Old Morocco Mare">
<polygon fill="lightcoral" stroke="lightcoral" points="694.62,-1093.5 570.62,-1093.5 570.62,-1070.5 694.62,-1070.5 694.62,-1093.5"/>
<text text-anchor="middle" x="632.62" y="-1076.2" font-family="MS Gothic" font-size="14.00">Old Morocco Mare</text>
</a>
</g>
</g>
<!-- Old Morocco Mare_5_2&#45;&gt;Spanker Mare_4_1 -->
<g id="edge18" class="edge">
<title>Old Morocco Mare_5_2&#45;&gt;Spanker Mare_4_1</title>
<path fill="none" stroke="lightcoral" stroke-width="5" d="M629.4,-1070.19C620.22,-1039.45 593.78,-950.86 580.47,-906.28"/>
<polygon fill="lightcoral" stroke="lightcoral" stroke-width="5" points="584.7,-905.17 577.65,-896.84 576.32,-907.67 584.7,-905.17"/>
</g>
<!-- Snake Mare_1_1 -->
<g id="node20" class="node">
<title>Snake Mare_1_1</title>
<g id="a_node20"><a xlink:href="https://www.google.com/search?q=Snake%20Mare%20%28netkeiba%20OR%20wikipedia%29" xlink:title="Snake Mare">
<polygon fill="lightcoral" stroke="lightcoral" points="902.38,-227.5 818.88,-227.5 818.88,-204.5 902.38,-204.5 902.38,-227.5"/>
<text text-anchor="middle" x="860.62" y="-210.2" font-family="MS Gothic" font-size="14.00">Snake Mare</text>
</a>
</g>
</g>
<!-- Snake Mare_1_1&#45;&gt;Squirt_0_1 -->
<g id="edge19" class="edge">
<title>Snake Mare_1_1&#45;&gt;Squirt_0_1</title>
<path fill="none" stroke="lightcoral" stroke-width="5" d="M844.98,-204.15C798.53,-171.95 660.86,-76.5 599.6,-34.03"/>
<polygon fill="lightcoral" stroke="lightcoral" stroke-width="5" points="602.27,-30.56 591.55,-28.45 597.28,-37.75 602.27,-30.56"/>
</g>
<!-- Snake_2_1 -->
<g id="node21" class="node">
<title>Snake_2_1</title>
<g id="a_node21"><a xlink:href="https://www.google.com/search?q=Snake%20%28netkeiba%20OR%20wikipedia%29" xlink:title="Snake">
<polygon fill="lightblue" stroke="lightblue" points="885.5,-457.5 835.75,-457.5 835.75,-434.5 885.5,-434.5 885.5,-457.5"/>
<text text-anchor="middle" x="860.62" y="-440.2" font-family="MS Gothic" font-size="14.00">Snake</text>
</a>
</g>
</g>
<!-- Snake_2_1&#45;&gt;Snake Mare_1_1 -->
<g id="edge20" class="edge">
<title>Snake_2_1&#45;&gt;Snake Mare_1_1</title>
<path fill="none" stroke="lightblue" stroke-width="5" d="M860.62,-434C860.62,-399.7 860.62,-293.94 860.62,-243.84"/>
<polygon fill="lightblue" stroke="lightblue" stroke-width="5" points="865,-244.12 860.63,-234.12 856.25,-244.12 865,-244.12"/>
</g>
<!-- Lister Turk_3_1 -->
<g id="node22" class="node">
<title>Lister Turk_3_1</title>
<g id="a_node22"><a xlink:href="https://www.google.com/search?q=Lister%20Turk%20%28netkeiba%20OR%20wikipedia%29" xlink:title="Lister Turk">
<polygon fill="lightblue" stroke="lightblue" points="824.75,-687.5 734.5,-687.5 734.5,-664.5 824.75,-664.5 824.75,-687.5"/>
<text text-anchor="middle" x="779.62" y="-670.2" font-family="MS Gothic" font-size="14.00">Lister Turk</text>
</a>
</g>
</g>
<!-- Lister Turk_3_1&#45;&gt;Snake_2_1 -->
<g id="edge21" class="edge">
<title>Lister Turk_3_1&#45;&gt;Snake_2_1</title>
<path fill="none" stroke="lightblue" stroke-width="5" d="M783.53,-664C795.77,-629.54 833.62,-523.01 851.32,-473.19"/>
<polygon fill="lightblue" stroke="lightblue" stroke-width="5" points="855.44,-474.65 854.67,-463.76 847.2,-471.72 855.44,-474.65"/>
</g>
<!-- unknown_4_7 -->
<g id="node23" class="node">
<title>unknown_4_7</title>
<g id="a_node23"><a xlink:href="https://www.google.com/search?q=unknown%20%28netkeiba%20OR%20wikipedia%29" xlink:title="unknown">
<polygon fill="lightcoral" stroke="lightcoral" points="780.25,-890.5 717,-890.5 717,-867.5 780.25,-867.5 780.25,-890.5"/>
<text text-anchor="middle" x="748.62" y="-873.2" font-family="MS Gothic" font-size="14.00">unknown</text>
</a>
</g>
</g>
<!-- unknown_4_7&#45;&gt;Lister Turk_3_1 -->
<g id="edge22" class="edge">
<title>unknown_4_7&#45;&gt;Lister Turk_3_1</title>
<path fill="none" stroke="lightblue" stroke-width="5" d="M750.29,-867.19C755.01,-836.59 768.58,-748.64 775.48,-703.88"/>
<polygon fill="lightblue" stroke="lightblue" stroke-width="5" points="779.8,-704.57 777,-694.02 771.15,-703.24 779.8,-704.57"/>
</g>
<!-- unknown_5_8 -->
<g id="node24" class="node">
<title>unknown_5_8</title>
<g id="a_node24"><a xlink:href="https://www.google.com/search?q=unknown%20%28netkeiba%20OR%20wikipedia%29" xlink:title="unknown">
<polygon fill="lightcoral" stroke="lightcoral" points="765.25,-1093.5 702,-1093.5 702,-1070.5 765.25,-1070.5 765.25,-1093.5"/>
<text text-anchor="middle" x="733.62" y="-1076.2" font-family="MS Gothic" font-size="14.00">unknown</text>
</a>
</g>
</g>
<!-- unknown_5_8&#45;&gt;unknown_4_7 -->
<g id="edge23" class="edge">
<title>unknown_5_8&#45;&gt;unknown_4_7</title>
<path fill="none" stroke="lightblue" stroke-width="5" d="M734.43,-1070.19C736.72,-1039.59 743.28,-951.64 746.62,-906.88"/>
<polygon fill="lightblue" stroke="lightblue" stroke-width="5" points="750.97,-907.38 747.35,-897.08 742.24,-906.73 750.97,-907.38"/>
</g>
<!-- Hautboy Mare_3_1 -->
<g id="node25" class="node">
<title>Hautboy Mare_3_1</title>
<g id="a_node25"><a xlink:href="https://www.google.com/search?q=Hautboy%20Mare%20%28netkeiba%20OR%20wikipedia%29" xlink:title="Hautboy Mare">
<polygon fill="lightcoral" stroke="lightcoral" points="945.12,-687.5 848.12,-687.5 848.12,-664.5 945.12,-664.5 945.12,-687.5"/>
<text text-anchor="middle" x="896.62" y="-670.2" font-family="MS Gothic" font-size="14.00">Hautboy Mare</text>
</a>
</g>
</g>
<!-- Hautboy Mare_3_1&#45;&gt;Snake_2_1 -->
<g id="edge24" class="edge">
<title>Hautboy Mare_3_1&#45;&gt;Snake_2_1</title>
<path fill="none" stroke="lightcoral" stroke-width="5" d="M894.89,-664C889.47,-629.7 872.77,-523.94 864.86,-473.84"/>
<polygon fill="lightcoral" stroke="lightcoral" stroke-width="5" points="869.2,-473.24 863.32,-464.05 860.55,-474.61 869.2,-473.24"/>
</g>
<!-- Hautboy_4_1 -->
<g id="node26" class="node">
<title>Hautboy_4_1</title>
<g id="a_node26"><a xlink:href="https://www.google.com/search?q=Hautboy%20%28netkeiba%20OR%20wikipedia%29" xlink:title="Hautboy">
<polygon fill="lightblue" stroke="lightblue" points="928.25,-890.5 865,-890.5 865,-867.5 928.25,-867.5 928.25,-890.5"/>
<text text-anchor="middle" x="896.62" y="-873.2" font-family="MS Gothic" font-size="14.00">Hautboy</text>
</a>
</g>
</g>
<!-- Hautboy_4_1&#45;&gt;Hautboy Mare_3_1 -->
<g id="edge25" class="edge">
<title>Hautboy_4_1&#45;&gt;Hautboy Mare_3_1</title>
<path fill="none" stroke="lightblue" stroke-width="5" d="M896.62,-867.19C896.62,-836.59 896.62,-748.64 896.62,-703.88"/>
<polygon fill="lightblue" stroke="lightblue" stroke-width="5" points="901,-704.1 896.63,-694.1 892.25,-704.1 901,-704.1"/>
</g>
<!-- Darcy&#39;s White Turk_5_1 -->
<g id="node27" class="node">
<title>Darcy&#39;s White Turk_5_1</title>
<g id="a_node27"><a xlink:href="https://www.google.com/search?q=Darcy%27s%20White%20Turk%20%28netkeiba%20OR%20wikipedia%29" xlink:title="Darcy&#39;s White Turk">
<polygon fill="lightblue" stroke="lightblue" points="909.38,-1093.5 771.88,-1093.5 771.88,-1070.5 909.38,-1070.5 909.38,-1093.5"/>
<text text-anchor="middle" x="840.62" y="-1076.2" font-family="MS Gothic" font-size="14.00">Darcy&#39;s White Turk</text>
</a>
</g>
</g>
<!-- Darcy&#39;s White Turk_5_1&#45;&gt;Hautboy_4_1 -->
<g id="edge26" class="edge">
<title>Darcy&#39;s White Turk_5_1&#45;&gt;Hautboy_4_1</title>
<path fill="none" stroke="lightblue" stroke-width="5" d="M843.64,-1070.19C852.2,-1039.45 876.88,-950.86 889.3,-906.28"/>
<polygon fill="lightblue" stroke="lightblue" stroke-width="5" points="893.46,-907.68 891.93,-896.87 885.03,-905.33 893.46,-907.68"/>
</g>
<!-- Royal Mare_5_1 -->
<g id="node28" class="node">
<title>Royal Mare_5_1</title>
<g id="a_node28"><a xlink:href="https://www.google.com/search?q=Royal%20Mare%20%28netkeiba%20OR%20wikipedia%29" xlink:title="Royal Mare">
<polygon fill="lightcoral" stroke="lightcoral" points="1000.38,-1093.5 916.88,-1093.5 916.88,-1070.5 1000.38,-1070.5 1000.38,-1093.5"/>
<text text-anchor="middle" x="958.62" y="-1076.2" font-family="MS Gothic" font-size="14.00">Royal Mare</text>
</a>
</g>
</g>
<!-- Royal Mare_5_1&#45;&gt;Hautboy_4_1 -->
<g id="edge27" class="edge">
<title>Royal Mare_5_1&#45;&gt;Hautboy_4_1</title>
<path fill="none" stroke="lightcoral" stroke-width="5" d="M955.29,-1070.19C945.81,-1039.45 918.48,-950.86 904.73,-906.28"/>
<polygon fill="lightcoral" stroke="lightcoral" stroke-width="5" points="908.94,-905.09 901.81,-896.82 900.58,-907.67 908.94,-905.09"/>
</g>
<!-- Brimmer Mare_4_1 -->
<g id="node29" class="node">
<title>Brimmer Mare_4_1</title>
<g id="a_node29"><a xlink:href="https://www.google.com/search?q=Brimmer%20Mare%20%28netkeiba%20OR%20wikipedia%29" xlink:title="Brimmer Mare">
<polygon fill="lightcoral" stroke="lightcoral" points="1087.12,-890.5 990.12,-890.5 990.12,-867.5 1087.12,-867.5 1087.12,-890.5"/>
<text text-anchor="middle" x="1038.62" y="-873.2" font-family="MS Gothic" font-size="14.00">Brimmer Mare</text>
</a>
</g>
</g>
<!-- Brimmer Mare_4_1&#45;&gt;Hautboy Mare_3_1 -->
<g id="edge28" class="edge">
<title>Brimmer Mare_4_1&#45;&gt;Hautboy Mare_3_1</title>
<path fill="none" stroke="lightcoral" stroke-width="5" d="M1030.99,-867.19C1008.89,-835.91 944.45,-744.7 913.55,-700.95"/>
<polygon fill="lightcoral" stroke="lightcoral" stroke-width="5" points="917.24,-698.6 907.9,-692.95 910.09,-703.65 917.24,-698.6"/>
</g>
<!-- Brimmer_5_1 -->
<g id="node30" class="node">
<title>Brimmer_5_1</title>
<g id="a_node30"><a xlink:href="https://www.google.com/search?q=Brimmer%20%28netkeiba%20OR%20wikipedia%29" xlink:title="Brimmer">
<polygon fill="lightblue" stroke="lightblue" points="1070.25,-1093.5 1007,-1093.5 1007,-1070.5 1070.25,-1070.5 1070.25,-1093.5"/>
<text text-anchor="middle" x="1038.62" y="-1076.2" font-family="MS Gothic" font-size="14.00">Brimmer</text>
</a>
</g>
</g>
<!-- Brimmer_5_1&#45;&gt;Brimmer Mare_4_1 -->
<g id="edge29" class="edge">
<title>Brimmer_5_1&#45;&gt;Brimmer Mare_4_1</title>
<path fill="none" stroke="lightblue" stroke-width="5" d="M1038.62,-1070.19C1038.62,-1039.59 1038.62,-951.64 1038.62,-906.88"/>
<polygon fill="lightblue" stroke="lightblue" stroke-width="5" points="1043,-907.1 1038.63,-897.1 1034.25,-907.1 1043,-907.1"/>
</g>
<!-- Royal Mare_5_2 -->
<g id="node31" class="node">
<title>Royal Mare_5_2</title>
<g id="a_node31"><a xlink:href="https://www.google.com/search?q=Royal%20Mare%20%28netkeiba%20OR%20wikipedia%29" xlink:title="Royal Mare">
<polygon fill="lightcoral" stroke="lightcoral" points="1160.38,-1093.5 1076.88,-1093.5 1076.88,-1070.5 1160.38,-1070.5 1160.38,-1093.5"/>
<text text-anchor="middle" x="1118.62" y="-1076.2" font-family="MS Gothic" font-size="14.00">Royal Mare</text>
</a>
</g>
</g>
<!-- Royal Mare_5_2&#45;&gt;Brimmer Mare_4_1 -->
<g id="edge30" class="edge">
<title>Royal Mare_5_2&#45;&gt;Brimmer Mare_4_1</title>
<path fill="none" stroke="lightcoral" stroke-width="5" d="M1114.32,-1070.19C1102.03,-1039.31 1066.51,-950.07 1048.85,-905.69"/>
<polygon fill="lightcoral" stroke="lightcoral" stroke-width="5" points="1053.02,-904.33 1045.25,-896.66 1044.89,-907.56 1053.02,-904.33"/>
</g>
<!-- Grey Wilkes_2_1 -->
<g id="node32" class="node">
<title>Grey Wilkes_2_1</title>
<g id="a_node32"><a xlink:href="https://www.google.com/search?q=Grey%20Wilkes%20%28netkeiba%20OR%20wikipedia%29" xlink:title="Grey Wilkes">
<polygon fill="lightcoral" stroke="lightcoral" points="1267.75,-457.5 1177.5,-457.5 1177.5,-434.5 1267.75,-434.5 1267.75,-457.5"/>
<text text-anchor="middle" x="1222.62" y="-440.2" font-family="MS Gothic" font-size="14.00">Grey Wilkes</text>
</a>
</g>
</g>
<!-- Grey Wilkes_2_1&#45;&gt;Snake Mare_1_1 -->
<g id="edge31" class="edge">
<title>Grey Wilkes_2_1&#45;&gt;Snake Mare_1_1</title>
<path fill="none" stroke="lightcoral" stroke-width="5" d="M1205.16,-434C1147.82,-397.89 964.75,-282.58 891.43,-236.4"/>
<polygon fill="lightcoral" stroke="lightcoral" stroke-width="5" points="893.98,-232.84 883.19,-231.21 889.32,-240.24 893.98,-232.84"/>
</g>
<!-- Hautboy_3_2 -->
<g id="node33" class="node">
<title>Hautboy_3_2</title>
<g id="a_node33"><a xlink:href="https://www.google.com/search?q=Hautboy%20%28netkeiba%20OR%20wikipedia%29" xlink:title="Hautboy">
<polygon fill="lightblue" stroke="lightblue" points="1254.25,-687.5 1191,-687.5 1191,-664.5 1254.25,-664.5 1254.25,-687.5"/>
<text text-anchor="middle" x="1222.62" y="-670.2" font-family="MS Gothic" font-size="14.00">Hautboy</text>
</a>
</g>
</g>
<!-- Hautboy_3_2&#45;&gt;Grey Wilkes_2_1 -->
<g id="edge32" class="edge">
<title>Hautboy_3_2&#45;&gt;Grey Wilkes_2_1</title>
<path fill="none" stroke="lightblue" stroke-width="5" d="M1222.62,-664C1222.62,-629.7 1222.62,-523.94 1222.62,-473.84"/>
<polygon fill="lightblue" stroke="lightblue" stroke-width="5" points="1227,-474.12 1222.63,-464.12 1218.25,-474.12 1227,-474.12"/>
</g>
<!-- Darcy&#39;s White Turk_4_2 -->
<g id="node34" class="node">
<title>Darcy&#39;s White Turk_4_2</title>
<g id="a_node34"><a xlink:href="https://www.google.com/search?q=Darcy%27s%20White%20Turk%20%28netkeiba%20OR%20wikipedia%29" xlink:title="Darcy&#39;s White Turk">
<polygon fill="lightblue" stroke="lightblue" points="1249.38,-890.5 1111.88,-890.5 1111.88,-867.5 1249.38,-867.5 1249.38,-890.5"/>
<text text-anchor="middle" x="1180.62" y="-873.2" font-family="MS Gothic" font-size="14.00">Darcy&#39;s White Turk</text>
</a>
</g>
</g>
<!-- Darcy&#39;s White Turk_4_2&#45;&gt;Hautboy_3_2 -->
<g id="edge33" class="edge">
<title>Darcy&#39;s White Turk_4_2&#45;&gt;Hautboy_3_2</title>
<path fill="none" stroke="lightblue" stroke-width="5" d="M1182.88,-867.19C1189.29,-836.52 1207.74,-748.25 1217.07,-703.58"/>
<polygon fill="lightblue" stroke="lightblue" stroke-width="5" points="1221.32,-704.65 1219.08,-693.97 1212.75,-702.86 1221.32,-704.65"/>
</g>
<!-- unknown_5_9 -->
<g id="node35" class="node">
<title>unknown_5_9</title>
<g id="a_node35"><a xlink:href="https://www.google.com/search?q=unknown%20%28netkeiba%20OR%20wikipedia%29" xlink:title="unknown">
<polygon fill="lightcoral" stroke="lightcoral" points="1230.25,-1093.5 1167,-1093.5 1167,-1070.5 1230.25,-1070.5 1230.25,-1093.5"/>
<text text-anchor="middle" x="1198.62" y="-1076.2" font-family="MS Gothic" font-size="14.00">unknown</text>
</a>
</g>
</g>
<!-- unknown_5_9&#45;&gt;Darcy&#39;s White Turk_4_2 -->
<g id="edge34" class="edge">
<title>unknown_5_9&#45;&gt;Darcy&#39;s White Turk_4_2</title>
<path fill="none" stroke="lightblue" stroke-width="5" d="M1197.66,-1070.19C1194.92,-1039.59 1187.04,-951.64 1183.03,-906.88"/>
<polygon fill="lightblue" stroke="lightblue" stroke-width="5" points="1187.4,-906.64 1182.15,-897.07 1178.69,-907.42 1187.4,-906.64"/>
</g>
<!-- Royal Mare_4_3 -->
<g id="node36" class="node">
<title>Royal Mare_4_3</title>
<g id="a_node36"><a xlink:href="https://www.google.com/search?q=Royal%20Mare%20%28netkeiba%20OR%20wikipedia%29" xlink:title="Royal Mare">
<polygon fill="lightcoral" stroke="lightcoral" points="1340.38,-890.5 1256.88,-890.5 1256.88,-867.5 1340.38,-867.5 1340.38,-890.5"/>
<text text-anchor="middle" x="1298.62" y="-873.2" font-family="MS Gothic" font-size="14.00">Royal Mare</text>
</a>
</g>
</g>
<!-- Royal Mare_4_3&#45;&gt;Hautboy_3_2 -->
<g id="edge35" class="edge">
<title>Royal Mare_4_3&#45;&gt;Hautboy_3_2</title>
<path fill="none" stroke="lightcoral" stroke-width="5" d="M1294.54,-867.19C1282.89,-836.38 1249.27,-747.47 1232.45,-702.99"/>
<polygon fill="lightcoral" stroke="lightcoral" stroke-width="5" points="1236.57,-701.5 1228.94,-693.69 1228.38,-704.6 1236.57,-701.5"/>
</g>
<!-- unknown_5_10 -->
<g id="node37" class="node">
<title>unknown_5_10</title>
<g id="a_node37"><a xlink:href="https://www.google.com/search?q=unknown%20%28netkeiba%20OR%20wikipedia%29" xlink:title="unknown">
<polygon fill="lightcoral" stroke="lightcoral" points="1330.25,-1093.5 1267,-1093.5 1267,-1070.5 1330.25,-1070.5 1330.25,-1093.5"/>
<text text-anchor="middle" x="1298.62" y="-1076.2" font-family="MS Gothic" font-size="14.00">unknown</text>
</a>
</g>
</g>
<!-- unknown_5_10&#45;&gt;Royal Mare_4_3 -->
<g id="edge36" class="edge">
<title>unknown_5_10&#45;&gt;Royal Mare_4_3</title>
<path fill="none" stroke="lightblue" stroke-width="5" d="M1298.62,-1070.19C1298.62,-1039.59 1298.62,-951.64 1298.62,-906.88"/>
<polygon fill="lightblue" stroke="lightblue" stroke-width="5" points="1303,-907.1 1298.63,-897.1 1294.25,-907.1 1303,-907.1"/>
</g>
<!-- Miss Darcys Pet Mare_3_1 -->
<g id="node38" class="node">
<title>Miss Darcys Pet Mare_3_1</title>
<g id="a_node38"><a xlink:href="https://www.google.com/search?q=Miss%20Darcys%20Pet%20Mare%20%28netkeiba%20OR%20wikipedia%29" xlink:title="Miss Darcys Pet Mare">
<polygon fill="lightcoral" stroke="lightcoral" points="1454.12,-687.5 1303.12,-687.5 1303.12,-664.5 1454.12,-664.5 1454.12,-687.5"/>
<text text-anchor="middle" x="1378.62" y="-670.2" font-family="MS Gothic" font-size="14.00">Miss Darcys Pet Mare</text>
</a>
</g>
</g>
<!-- Miss Darcys Pet Mare_3_1&#45;&gt;Grey Wilkes_2_1 -->
<g id="edge37" class="edge">
<title>Miss Darcys Pet Mare_3_1&#45;&gt;Grey Wilkes_2_1</title>
<path fill="none" stroke="lightcoral" stroke-width="5" d="M1371.1,-664C1347.21,-629.09 1272.71,-520.2 1239.22,-471.25"/>
<polygon fill="lightcoral" stroke="lightcoral" stroke-width="5" points="1242.85,-468.82 1233.6,-463.03 1235.63,-473.76 1242.85,-468.82"/>
</g>
<!-- unknown_4_11 -->
<g id="node39" class="node">
<title>unknown_4_11</title>
<g id="a_node39"><a xlink:href="https://www.google.com/search?q=unknown%20%28netkeiba%20OR%20wikipedia%29" xlink:title="unknown">
<polygon fill="lightblue" stroke="lightblue" points="1410.25,-890.5 1347,-890.5 1347,-867.5 1410.25,-867.5 1410.25,-890.5"/>
<text text-anchor="middle" x="1378.62" y="-873.2" font-family="MS Gothic" font-size="14.00">unknown</text>
</a>
</g>
</g>
<!-- unknown_4_11&#45;&gt;Miss Darcys Pet Mare_3_1 -->
<g id="edge38" class="edge">
<title>unknown_4_11&#45;&gt;Miss Darcys Pet Mare_3_1</title>
<path fill="none" stroke="lightblue" stroke-width="5" d="M1378.62,-867.19C1378.62,-836.59 1378.62,-748.64 1378.62,-703.88"/>
<polygon fill="lightblue" stroke="lightblue" stroke-width="5" points="1383,-704.1 1378.63,-694.1 1374.25,-704.1 1383,-704.1"/>
</g>
<!-- unknown_5_12 -->
<g id="node40" class="node">
<title>unknown_5_12</title>
<g id="a_node40"><a xlink:href="https://www.google.com/search?q=unknown%20%28netkeiba%20OR%20wikipedia%29" xlink:title="unknown">
<polygon fill="lightcoral" stroke="lightcoral" points="1410.25,-1093.5 1347,-1093.5 1347,-1070.5 1410.25,-1070.5 1410.25,-1093.5"/>
<text text-anchor="middle" x="1378.62" y="-1076.2" font-family="MS Gothic" font-size="14.00">unknown</text>
</a>
</g>
</g>
<!-- unknown_5_12&#45;&gt;unknown_4_11 -->
<g id="edge39" class="edge">
<title>unknown_5_12&#45;&gt;unknown_4_11</title>
<path fill="none" stroke="lightblue" stroke-width="5" d="M1378.62,-1070.19C1378.62,-1039.59 1378.62,-951.64 1378.62,-906.88"/>
<polygon fill="lightblue" stroke="lightblue" stroke-width="5" points="1383,-907.1 1378.63,-897.1 1374.25,-907.1 1383,-907.1"/>
</g>
<!-- Sedbury Royal Mare_4_1 -->
<g id="node41" class="node">
<title>Sedbury Royal Mare_4_1</title>
<g id="a_node41"><a xlink:href="https://www.google.com/search?q=Sedbury%20Royal%20Mare%20%28netkeiba%20OR%20wikipedia%29" xlink:title="Sedbury Royal Mare">
<polygon fill="lightcoral" stroke="lightcoral" points="1554.38,-890.5 1416.88,-890.5 1416.88,-867.5 1554.38,-867.5 1554.38,-890.5"/>
<text text-anchor="middle" x="1485.62" y="-873.2" font-family="MS Gothic" font-size="14.00">Sedbury Royal Mare</text>
</a>
</g>
</g>
<!-- Sedbury Royal Mare_4_1&#45;&gt;Miss Darcys Pet Mare_3_1 -->
<g id="edge40" class="edge">
<title>Sedbury Royal Mare_4_1&#45;&gt;Miss Darcys Pet Mare_3_1</title>
<path fill="none" stroke="lightcoral" stroke-width="5" d="M1479.87,-867.19C1463.36,-836.18 1415.51,-746.28 1391.99,-702.11"/>
<polygon fill="lightcoral" stroke="lightcoral" stroke-width="5" points="1395.9,-700.14 1387.34,-693.37 1388.17,-704.25 1395.9,-700.14"/>
</g>
<!-- unknown_5_13 -->
<g id="node42" class="node">
<title>unknown_5_13</title>
<g id="a_node42"><a xlink:href="https://www.google.com/search?q=unknown%20%28netkeiba%20OR%20wikipedia%29" xlink:title="unknown">
<polygon fill="lightcoral" stroke="lightcoral" points="1517.25,-1093.5 1454,-1093.5 1454,-1070.5 1517.25,-1070.5 1517.25,-1093.5"/>
<text text-anchor="middle" x="1485.62" y="-1076.2" font-family="MS Gothic" font-size="14.00">unknown</text>
</a>
</g>
</g>
<!-- unknown_5_13&#45;&gt;Sedbury Royal Mare_4_1 -->
<g id="edge41" class="edge">
<title>unknown_5_13&#45;&gt;Sedbury Royal Mare_4_1</title>
<path fill="none" stroke="lightblue" stroke-width="5" d="M1485.62,-1070.19C1485.62,-1039.59 1485.62,-951.64 1485.62,-906.88"/>
<polygon fill="lightblue" stroke="lightblue" stroke-width="5" points="1490,-907.1 1485.63,-897.1 1481.25,-907.1 1490,-907.1"/>
</g>
</g>
</svg>
