<?xml version="1.0" encoding="UTF-8" standalone="no"?>
<!DOCTYPE svg PUBLIC "-//W3C//DTD SVG 1.1//EN"
 "http://www.w3.org/Graphics/SVG/1.1/DTD/svg11.dtd">
<!-- Generated by graphviz version 12.1.2 (20240928.0832)
 -->
<!-- Pages: 1 -->
<svg width="1226pt" height="1441pt"
 viewBox="0.00 0.00 1225.62 1441.00" xmlns="http://www.w3.org/2000/svg" xmlns:xlink="http://www.w3.org/1999/xlink">
<g id="graph0" class="graph" transform="scale(1 1) rotate(0) translate(4 1437)">
<polygon fill="white" stroke="none" points="-4,4 -4,-1437 1221.62,-1437 1221.62,4 -4,4"/>
<!-- Stockwell -->
<g id="node1" class="node">
<title>Stockwell</title>
<polygon fill="none" stroke="black" points="1074.62,-77 997.62,-77 997.62,0 1074.62,0 1074.62,-77"/>
<image xlink:href="img/mob.png" width="77px" height="77px" preserveAspectRatio="xMinYMin meet" x="997.625" y="-77"/>
<text text-anchor="middle" x="1036.12" y="-33.45" font-family="Times New Roman,serif" font-size="14.00">Stockwell</text>
</g>
<!-- The Baron -->
<g id="node2" class="node">
<title>The Baron</title>
<polygon fill="lightblue" stroke="lightblue" points="1025.62,-190 948.62,-190 948.62,-113 1025.62,-113 1025.62,-190"/>
<image xlink:href="img/mob.png" width="77px" height="77px" preserveAspectRatio="xMinYMin meet" x="948.625" y="-190"/>
<text text-anchor="middle" x="987.12" y="-145.7" font-family="MS Gothic" font-size="14.00">The Baron</text>
</g>
<!-- The Baron&#45;&gt;Stockwell -->
<g id="edge1" class="edge">
<title>The Baron&#45;&gt;Stockwell</title>
<path fill="none" stroke="black" d="M1003.85,-112.61C1007.4,-104.57 1011.19,-95.99 1014.88,-87.63"/>
<polygon fill="black" stroke="black" points="1018.03,-89.17 1018.86,-78.6 1011.62,-86.34 1018.03,-89.17"/>
</g>
<!-- Pocahontas -->
<g id="node3" class="node">
<title>Pocahontas</title>
<polygon fill="lightcoral" stroke="lightcoral" points="1126.88,-190 1043.38,-190 1043.38,-113 1126.88,-113 1126.88,-190"/>
<image xlink:href="img/mob.png" width="83.5px" height="77px" preserveAspectRatio="xMinYMin meet" x="1043.38" y="-190"/>
<text text-anchor="middle" x="1085.12" y="-145.7" font-family="MS Gothic" font-size="14.00">Pocahontas</text>
</g>
<!-- Pocahontas&#45;&gt;Stockwell -->
<g id="edge2" class="edge">
<title>Pocahontas&#45;&gt;Stockwell</title>
<path fill="none" stroke="black" d="M1068.4,-112.61C1064.85,-104.57 1061.06,-95.99 1057.37,-87.63"/>
<polygon fill="black" stroke="black" points="1060.63,-86.34 1053.39,-78.6 1054.22,-89.17 1060.63,-86.34"/>
</g>
<!-- Birdcatcher -->
<g id="node4" class="node">
<title>Birdcatcher</title>
<polygon fill="lightblue" stroke="lightblue" points="931.25,-303 841,-303 841,-226 931.25,-226 931.25,-303"/>
<image xlink:href="img/mob.png" width="90.25px" height="77px" preserveAspectRatio="xMinYMin meet" x="841" y="-303"/>
<text text-anchor="middle" x="886.12" y="-258.7" font-family="MS Gothic" font-size="14.00">Birdcatcher</text>
</g>
<!-- Birdcatcher&#45;&gt;The Baron -->
<g id="edge3" class="edge">
<title>Birdcatcher&#45;&gt;The Baron</title>
<path fill="none" stroke="black" d="M920.6,-225.61C928.48,-216.95 936.95,-207.65 945.1,-198.68"/>
<polygon fill="black" stroke="black" points="947.64,-201.09 951.79,-191.34 942.47,-196.38 947.64,-201.09"/>
</g>
<!-- Echidna -->
<g id="node5" class="node">
<title>Echidna</title>
<polygon fill="lightcoral" stroke="lightcoral" points="1026.62,-303 949.62,-303 949.62,-226 1026.62,-226 1026.62,-303"/>
<image xlink:href="img/mob.png" width="77px" height="77px" preserveAspectRatio="xMinYMin meet" x="949.625" y="-303"/>
<text text-anchor="middle" x="988.12" y="-258.7" font-family="MS Gothic" font-size="14.00">Echidna</text>
</g>
<!-- Echidna&#45;&gt;The Baron -->
<g id="edge4" class="edge">
<title>Echidna&#45;&gt;The Baron</title>
<path fill="none" stroke="black" d="M987.78,-225.61C987.71,-217.84 987.64,-209.56 987.57,-201.46"/>
<polygon fill="black" stroke="black" points="991.07,-201.7 987.48,-191.73 984.07,-201.76 991.07,-201.7"/>
</g>
<!-- Glencoe -->
<g id="node6" class="node">
<title>Glencoe</title>
<polygon fill="lightblue" stroke="lightblue" points="1122.62,-303 1045.62,-303 1045.62,-226 1122.62,-226 1122.62,-303"/>
<image xlink:href="img/mob.png" width="77px" height="77px" preserveAspectRatio="xMinYMin meet" x="1045.62" y="-303"/>
<text text-anchor="middle" x="1084.12" y="-258.7" font-family="MS Gothic" font-size="14.00">Glencoe</text>
</g>
<!-- Glencoe&#45;&gt;Pocahontas -->
<g id="edge5" class="edge">
<title>Glencoe&#45;&gt;Pocahontas</title>
<path fill="none" stroke="black" d="M1084.47,-225.61C1084.54,-217.84 1084.61,-209.56 1084.68,-201.46"/>
<polygon fill="black" stroke="black" points="1088.18,-201.76 1084.77,-191.73 1081.18,-201.7 1088.18,-201.76"/>
</g>
<!-- Marpessa -->
<g id="node7" class="node">
<title>Marpessa</title>
<polygon fill="lightcoral" stroke="lightcoral" points="1217.62,-303 1140.62,-303 1140.62,-226 1217.62,-226 1217.62,-303"/>
<image xlink:href="img/mob.png" width="77px" height="77px" preserveAspectRatio="xMinYMin meet" x="1140.62" y="-303"/>
<text text-anchor="middle" x="1179.12" y="-258.7" font-family="MS Gothic" font-size="14.00">Marpessa</text>
</g>
<!-- Marpessa&#45;&gt;Pocahontas -->
<g id="edge6" class="edge">
<title>Marpessa&#45;&gt;Pocahontas</title>
<path fill="none" stroke="black" d="M1147.04,-225.61C1139.78,-217.04 1131.99,-207.84 1124.47,-198.96"/>
<polygon fill="black" stroke="black" points="1127.18,-196.74 1118.05,-191.37 1121.84,-201.27 1127.18,-196.74"/>
</g>
<!-- Sir Hercules -->
<g id="node8" class="node">
<title>Sir Hercules</title>
<polygon fill="lightblue" stroke="lightblue" points="882.62,-416 785.62,-416 785.62,-339 882.62,-339 882.62,-416"/>
<image xlink:href="img/mob.png" width="97px" height="77px" preserveAspectRatio="xMinYMin meet" x="785.625" y="-416"/>
<text text-anchor="middle" x="834.12" y="-371.7" font-family="MS Gothic" font-size="14.00">Sir Hercules</text>
</g>
<!-- Sir Hercules&#45;&gt;Birdcatcher -->
<g id="edge7" class="edge">
<title>Sir Hercules&#45;&gt;Birdcatcher</title>
<path fill="none" stroke="black" d="M851.88,-338.61C855.64,-330.57 859.66,-321.99 863.58,-313.63"/>
<polygon fill="black" stroke="black" points="866.74,-315.13 867.81,-304.59 860.4,-312.16 866.74,-315.13"/>
</g>
<!-- Guiccioli -->
<g id="node9" class="node">
<title>Guiccioli</title>
<polygon fill="lightcoral" stroke="lightcoral" points="977.62,-416 900.62,-416 900.62,-339 977.62,-339 977.62,-416"/>
<image xlink:href="img/mob.png" width="77px" height="77px" preserveAspectRatio="xMinYMin meet" x="900.625" y="-416"/>
<text text-anchor="middle" x="939.12" y="-371.7" font-family="MS Gothic" font-size="14.00">Guiccioli</text>
</g>
<!-- Guiccioli&#45;&gt;Birdcatcher -->
<g id="edge8" class="edge">
<title>Guiccioli&#45;&gt;Birdcatcher</title>
<path fill="none" stroke="black" d="M921.03,-338.61C917.15,-330.48 913.01,-321.8 908.97,-313.35"/>
<polygon fill="black" stroke="black" points="912.25,-312.1 904.79,-304.58 905.94,-315.12 912.25,-312.1"/>
</g>
<!-- Whalebone -->
<g id="node10" class="node">
<title>Whalebone</title>
<polygon fill="lightblue" stroke="lightblue" points="780.62,-529 703.62,-529 703.62,-452 780.62,-452 780.62,-529"/>
<image xlink:href="img/mob.png" width="77px" height="77px" preserveAspectRatio="xMinYMin meet" x="703.625" y="-529"/>
<text text-anchor="middle" x="742.12" y="-484.7" font-family="MS Gothic" font-size="14.00">Whalebone</text>
</g>
<!-- Whalebone&#45;&gt;Sir Hercules -->
<g id="edge9" class="edge">
<title>Whalebone&#45;&gt;Sir Hercules</title>
<path fill="none" stroke="black" d="M773.53,-451.61C780.63,-443.04 788.26,-433.84 795.62,-424.96"/>
<polygon fill="black" stroke="black" points="798.21,-427.32 801.9,-417.38 792.82,-422.85 798.21,-427.32"/>
</g>
<!-- Peri -->
<g id="node11" class="node">
<title>Peri</title>
<polygon fill="lightcoral" stroke="lightcoral" points="875.62,-529 798.62,-529 798.62,-452 875.62,-452 875.62,-529"/>
<image xlink:href="img/mob.png" width="77px" height="77px" preserveAspectRatio="xMinYMin meet" x="798.625" y="-529"/>
<text text-anchor="middle" x="837.12" y="-484.7" font-family="MS Gothic" font-size="14.00">Peri</text>
</g>
<!-- Peri&#45;&gt;Sir Hercules -->
<g id="edge10" class="edge">
<title>Peri&#45;&gt;Sir Hercules</title>
<path fill="none" stroke="black" d="M836.1,-451.61C835.89,-443.84 835.67,-435.56 835.45,-427.46"/>
<polygon fill="black" stroke="black" points="838.95,-427.63 835.19,-417.73 831.96,-427.82 838.95,-427.63"/>
</g>
<!-- Bob Booty -->
<g id="node12" class="node">
<title>Bob Booty</title>
<polygon fill="lightblue" stroke="lightblue" points="975.62,-529 898.62,-529 898.62,-452 975.62,-452 975.62,-529"/>
<image xlink:href="img/mob.png" width="77px" height="77px" preserveAspectRatio="xMinYMin meet" x="898.625" y="-529"/>
<text text-anchor="middle" x="937.12" y="-484.7" font-family="MS Gothic" font-size="14.00">Bob Booty</text>
</g>
<!-- Bob Booty&#45;&gt;Guiccioli -->
<g id="edge11" class="edge">
<title>Bob Booty&#45;&gt;Guiccioli</title>
<path fill="none" stroke="black" d="M937.81,-451.61C937.95,-443.84 938.1,-435.56 938.24,-427.46"/>
<polygon fill="black" stroke="black" points="941.74,-427.79 938.42,-417.73 934.74,-427.67 941.74,-427.79"/>
</g>
<!-- Flight -->
<g id="node13" class="node">
<title>Flight</title>
<polygon fill="lightcoral" stroke="lightcoral" points="1070.62,-529 993.62,-529 993.62,-452 1070.62,-452 1070.62,-529"/>
<image xlink:href="img/mob.png" width="77px" height="77px" preserveAspectRatio="xMinYMin meet" x="993.625" y="-529"/>
<text text-anchor="middle" x="1032.12" y="-484.7" font-family="MS Gothic" font-size="14.00">Flight</text>
</g>
<!-- Flight&#45;&gt;Guiccioli -->
<g id="edge12" class="edge">
<title>Flight&#45;&gt;Guiccioli</title>
<path fill="none" stroke="black" d="M1000.38,-451.61C993.2,-443.04 985.49,-433.84 978.05,-424.96"/>
<polygon fill="black" stroke="black" points="980.8,-422.8 971.7,-417.38 975.44,-427.29 980.8,-422.8"/>
</g>
<!-- Waxy -->
<g id="node14" class="node">
<title>Waxy</title>
<polygon fill="lightblue" stroke="lightblue" points="733.62,-642 656.62,-642 656.62,-565 733.62,-565 733.62,-642"/>
<image xlink:href="img/mob.png" width="77px" height="77px" preserveAspectRatio="xMinYMin meet" x="656.625" y="-642"/>
<text text-anchor="middle" x="695.12" y="-597.7" font-family="MS Gothic" font-size="14.00">Waxy</text>
</g>
<!-- Waxy&#45;&gt;Whalebone -->
<g id="edge13" class="edge">
<title>Waxy&#45;&gt;Whalebone</title>
<path fill="none" stroke="black" d="M711.17,-564.61C714.57,-556.57 718.21,-547.99 721.75,-539.63"/>
<polygon fill="black" stroke="black" points="724.89,-541.19 725.56,-530.61 718.44,-538.46 724.89,-541.19"/>
</g>
<!-- Penelope -->
<g id="node15" class="node">
<title>Penelope</title>
<polygon fill="lightcoral" stroke="lightcoral" points="828.62,-642 751.62,-642 751.62,-565 828.62,-565 828.62,-642"/>
<image xlink:href="img/mob.png" width="77px" height="77px" preserveAspectRatio="xMinYMin meet" x="751.625" y="-642"/>
<text text-anchor="middle" x="790.12" y="-597.7" font-family="MS Gothic" font-size="14.00">Penelope</text>
</g>
<!-- Penelope&#45;&gt;Whalebone -->
<g id="edge14" class="edge">
<title>Penelope&#45;&gt;Whalebone</title>
<path fill="none" stroke="black" d="M773.74,-564.61C770.26,-556.57 766.55,-547.99 762.94,-539.63"/>
<polygon fill="black" stroke="black" points="766.22,-538.4 759.04,-530.61 759.79,-541.18 766.22,-538.4"/>
</g>
<!-- Pot&#45;8&#45;Os -->
<g id="node16" class="node">
<title>Pot&#45;8&#45;Os</title>
<polygon fill="lightblue" stroke="lightblue" points="638.62,-755 561.62,-755 561.62,-678 638.62,-678 638.62,-755"/>
<image xlink:href="img/mob.png" width="77px" height="77px" preserveAspectRatio="xMinYMin meet" x="561.625" y="-755"/>
<text text-anchor="middle" x="600.12" y="-710.7" font-family="MS Gothic" font-size="14.00">Pot&#45;8&#45;Os</text>
</g>
<!-- Pot&#45;8&#45;Os&#45;&gt;Waxy -->
<g id="edge15" class="edge">
<title>Pot&#45;8&#45;Os&#45;&gt;Waxy</title>
<path fill="none" stroke="black" d="M632.55,-677.61C639.89,-669.04 647.76,-659.84 655.36,-650.96"/>
<polygon fill="black" stroke="black" points="658.02,-653.24 661.86,-643.37 652.7,-648.69 658.02,-653.24"/>
</g>
<!-- Maria III -->
<g id="node17" class="node">
<title>Maria III</title>
<polygon fill="lightcoral" stroke="lightcoral" points="733.62,-755 656.62,-755 656.62,-678 733.62,-678 733.62,-755"/>
<image xlink:href="img/mob.png" width="77px" height="77px" preserveAspectRatio="xMinYMin meet" x="656.625" y="-755"/>
<text text-anchor="middle" x="695.12" y="-710.7" font-family="MS Gothic" font-size="14.00">Maria III</text>
</g>
<!-- Maria III&#45;&gt;Waxy -->
<g id="edge16" class="edge">
<title>Maria III&#45;&gt;Waxy</title>
<path fill="none" stroke="black" d="M695.12,-677.61C695.12,-669.84 695.12,-661.56 695.12,-653.46"/>
<polygon fill="black" stroke="black" points="698.63,-653.73 695.13,-643.73 691.63,-653.73 698.63,-653.73"/>
</g>
<!-- Trumpator -->
<g id="node18" class="node">
<title>Trumpator</title>
<polygon fill="lightblue" stroke="lightblue" points="828.62,-755 751.62,-755 751.62,-678 828.62,-678 828.62,-755"/>
<image xlink:href="img/mob.png" width="77px" height="77px" preserveAspectRatio="xMinYMin meet" x="751.625" y="-755"/>
<text text-anchor="middle" x="790.12" y="-710.7" font-family="MS Gothic" font-size="14.00">Trumpator</text>
</g>
<!-- Trumpator&#45;&gt;Penelope -->
<g id="edge17" class="edge">
<title>Trumpator&#45;&gt;Penelope</title>
<path fill="none" stroke="black" d="M790.12,-677.61C790.12,-669.84 790.12,-661.56 790.12,-653.46"/>
<polygon fill="black" stroke="black" points="793.63,-653.73 790.13,-643.73 786.63,-653.73 793.63,-653.73"/>
</g>
<!-- Prunella -->
<g id="node19" class="node">
<title>Prunella</title>
<polygon fill="lightcoral" stroke="lightcoral" points="923.62,-755 846.62,-755 846.62,-678 923.62,-678 923.62,-755"/>
<image xlink:href="img/mob.png" width="77px" height="77px" preserveAspectRatio="xMinYMin meet" x="846.625" y="-755"/>
<text text-anchor="middle" x="885.12" y="-710.7" font-family="MS Gothic" font-size="14.00">Prunella</text>
</g>
<!-- Prunella&#45;&gt;Penelope -->
<g id="edge18" class="edge">
<title>Prunella&#45;&gt;Penelope</title>
<path fill="none" stroke="black" d="M852.7,-677.61C845.36,-669.04 837.49,-659.84 829.89,-650.96"/>
<polygon fill="black" stroke="black" points="832.55,-648.69 823.39,-643.37 827.23,-653.24 832.55,-648.69"/>
</g>
<!-- Eclipse -->
<g id="node20" class="node">
<title>Eclipse</title>
<polygon fill="lightblue" stroke="lightblue" points="582.62,-868 505.62,-868 505.62,-791 582.62,-791 582.62,-868"/>
<image xlink:href="img/mob.png" width="77px" height="77px" preserveAspectRatio="xMinYMin meet" x="505.625" y="-868"/>
<text text-anchor="middle" x="544.12" y="-823.7" font-family="MS Gothic" font-size="14.00">Eclipse</text>
</g>
<!-- Eclipse&#45;&gt;Pot&#45;8&#45;Os -->
<g id="edge19" class="edge">
<title>Eclipse&#45;&gt;Pot&#45;8&#45;Os</title>
<path fill="none" stroke="black" d="M563.24,-790.61C567.34,-782.48 571.72,-773.8 575.99,-765.35"/>
<polygon fill="black" stroke="black" points="579.03,-767.07 580.41,-756.57 572.78,-763.92 579.03,-767.07"/>
</g>
<!-- Sportsmistress -->
<g id="node21" class="node">
<title>Sportsmistress</title>
<polygon fill="lightcoral" stroke="lightcoral" points="711.38,-868 600.88,-868 600.88,-791 711.38,-791 711.38,-868"/>
<image xlink:href="img/mob.png" width="100px" height="77px" preserveAspectRatio="xMinYMin meet" x="606.125" y="-868"/>
<text text-anchor="middle" x="656.12" y="-823.7" font-family="MS Gothic" font-size="14.00">Sportsmistress</text>
</g>
<!-- Sportsmistress&#45;&gt;Pot&#45;8&#45;Os -->
<g id="edge20" class="edge">
<title>Sportsmistress&#45;&gt;Pot&#45;8&#45;Os</title>
<path fill="none" stroke="black" d="M637.01,-790.61C632.91,-782.48 628.53,-773.8 624.26,-765.35"/>
<polygon fill="black" stroke="black" points="627.47,-763.92 619.84,-756.57 621.22,-767.07 627.47,-763.92"/>
</g>
<!-- Marske -->
<g id="node22" class="node">
<title>Marske</title>
<polygon fill="lightblue" stroke="lightblue" points="492.62,-981 415.62,-981 415.62,-904 492.62,-904 492.62,-981"/>
<image xlink:href="img/mob.png" width="77px" height="77px" preserveAspectRatio="xMinYMin meet" x="415.625" y="-981"/>
<text text-anchor="middle" x="454.12" y="-936.7" font-family="MS Gothic" font-size="14.00">Marske</text>
</g>
<!-- Marske&#45;&gt;Eclipse -->
<g id="edge21" class="edge">
<title>Marske&#45;&gt;Eclipse</title>
<path fill="none" stroke="black" d="M484.85,-903.61C491.8,-895.04 499.26,-885.84 506.46,-876.96"/>
<polygon fill="black" stroke="black" points="509.01,-879.37 512.59,-869.39 503.57,-874.96 509.01,-879.37"/>
</g>
<!-- Spilletta -->
<g id="node23" class="node">
<title>Spilletta</title>
<polygon fill="lightcoral" stroke="lightcoral" points="587.62,-981 510.62,-981 510.62,-904 587.62,-904 587.62,-981"/>
<image xlink:href="img/mob.png" width="77px" height="77px" preserveAspectRatio="xMinYMin meet" x="510.625" y="-981"/>
<text text-anchor="middle" x="549.12" y="-936.7" font-family="MS Gothic" font-size="14.00">Spilletta</text>
</g>
<!-- Spilletta&#45;&gt;Eclipse -->
<g id="edge22" class="edge">
<title>Spilletta&#45;&gt;Eclipse</title>
<path fill="none" stroke="black" d="M547.42,-903.61C547.07,-895.84 546.7,-887.56 546.33,-879.46"/>
<polygon fill="black" stroke="black" points="549.84,-879.56 545.89,-869.73 542.85,-879.88 549.84,-879.56"/>
</g>
<!-- Sportsman -->
<g id="node24" class="node">
<title>Sportsman</title>
<polygon fill="lightblue" stroke="lightblue" points="690.62,-981 613.62,-981 613.62,-904 690.62,-904 690.62,-981"/>
<image xlink:href="img/mob.png" width="77px" height="77px" preserveAspectRatio="xMinYMin meet" x="613.625" y="-981"/>
<text text-anchor="middle" x="652.12" y="-936.7" font-family="MS Gothic" font-size="14.00">Sportsman</text>
</g>
<!-- Sportsman&#45;&gt;Sportsmistress -->
<g id="edge23" class="edge">
<title>Sportsman&#45;&gt;Sportsmistress</title>
<path fill="none" stroke="black" d="M653.49,-903.61C653.77,-895.84 654.07,-887.56 654.36,-879.46"/>
<polygon fill="black" stroke="black" points="657.85,-879.85 654.71,-869.73 650.85,-879.6 657.85,-879.85"/>
</g>
<!-- Golden Locks -->
<g id="node25" class="node">
<title>Golden Locks</title>
<polygon fill="lightcoral" stroke="lightcoral" points="805.62,-981 708.62,-981 708.62,-904 805.62,-904 805.62,-981"/>
<image xlink:href="img/mob.png" width="97px" height="77px" preserveAspectRatio="xMinYMin meet" x="708.625" y="-981"/>
<text text-anchor="middle" x="757.12" y="-936.7" font-family="MS Gothic" font-size="14.00">Golden Locks</text>
</g>
<!-- Golden Locks&#45;&gt;Sportsmistress -->
<g id="edge24" class="edge">
<title>Golden Locks&#45;&gt;Sportsmistress</title>
<path fill="none" stroke="black" d="M722.65,-903.61C714.77,-894.95 706.3,-885.65 698.15,-876.68"/>
<polygon fill="black" stroke="black" points="700.78,-874.38 691.46,-869.34 695.61,-879.09 700.78,-874.38"/>
</g>
<!-- Squirt -->
<g id="node26" class="node">
<title>Squirt</title>
<polygon fill="lightblue" stroke="lightblue" points="421.62,-1094 344.62,-1094 344.62,-1017 421.62,-1017 421.62,-1094"/>
<image xlink:href="img/mob.png" width="77px" height="77px" preserveAspectRatio="xMinYMin meet" x="344.625" y="-1094"/>
<text text-anchor="middle" x="383.12" y="-1049.7" font-family="MS Gothic" font-size="14.00">Squirt</text>
</g>
<!-- Squirt&#45;&gt;Marske -->
<g id="edge25" class="edge">
<title>Squirt&#45;&gt;Marske</title>
<path fill="none" stroke="black" d="M407.36,-1016.61C412.67,-1008.31 418.36,-999.41 423.88,-990.79"/>
<polygon fill="black" stroke="black" points="426.74,-992.8 429.18,-982.49 420.85,-989.03 426.74,-992.8"/>
</g>
<!-- Hutton&#39;s Blacklegs Mare -->
<g id="node27" class="node">
<title>Hutton&#39;s Blacklegs Mare</title>
<polygon fill="lightcoral" stroke="lightcoral" points="610.75,-1094 439.5,-1094 439.5,-1017 610.75,-1017 610.75,-1094"/>
<image xlink:href="img/mob.png" width="100px" height="77px" preserveAspectRatio="xMinYMin meet" x="475.125" y="-1094"/>
<text text-anchor="middle" x="525.12" y="-1049.7" font-family="MS Gothic" font-size="14.00">Hutton&#39;s Blacklegs Mare</text>
</g>
<!-- Hutton&#39;s Blacklegs Mare&#45;&gt;Marske -->
<g id="edge26" class="edge">
<title>Hutton&#39;s Blacklegs Mare&#45;&gt;Marske</title>
<path fill="none" stroke="black" d="M500.89,-1016.61C495.58,-1008.31 489.89,-999.41 484.37,-990.79"/>
<polygon fill="black" stroke="black" points="487.4,-989.03 479.07,-982.49 481.51,-992.8 487.4,-989.03"/>
</g>
<!-- Bartlet&#39;s Childers -->
<g id="node28" class="node">
<title>Bartlet&#39;s Childers</title>
<polygon fill="lightblue" stroke="lightblue" points="279.88,-1207 142.38,-1207 142.38,-1130 279.88,-1130 279.88,-1207"/>
<image xlink:href="img/mob.png" width="100px" height="77px" preserveAspectRatio="xMinYMin meet" x="161.125" y="-1207"/>
<text text-anchor="middle" x="211.12" y="-1162.7" font-family="MS Gothic" font-size="14.00">Bartlet&#39;s Childers</text>
</g>
<!-- Bartlet&#39;s Childers&#45;&gt;Squirt -->
<g id="edge27" class="edge">
<title>Bartlet&#39;s Childers&#45;&gt;Squirt</title>
<path fill="none" stroke="black" d="M269.84,-1129.61C290.91,-1116.01 314.43,-1100.83 334.55,-1087.85"/>
<polygon fill="black" stroke="black" points="336.35,-1090.85 342.85,-1082.49 332.55,-1084.97 336.35,-1090.85"/>
</g>
<!-- Snake Mare -->
<g id="node29" class="node">
<title>Snake Mare</title>
<polygon fill="lightcoral" stroke="lightcoral" points="428.88,-1207 345.38,-1207 345.38,-1130 428.88,-1130 428.88,-1207"/>
<image xlink:href="img/mob.png" width="83.5px" height="77px" preserveAspectRatio="xMinYMin meet" x="345.375" y="-1207"/>
<text text-anchor="middle" x="387.12" y="-1162.7" font-family="MS Gothic" font-size="14.00">Snake Mare</text>
</g>
<!-- Snake Mare&#45;&gt;Squirt -->
<g id="edge28" class="edge">
<title>Snake Mare&#45;&gt;Squirt</title>
<path fill="none" stroke="black" d="M385.76,-1129.61C385.48,-1121.84 385.18,-1113.56 384.89,-1105.46"/>
<polygon fill="black" stroke="black" points="388.4,-1105.6 384.54,-1095.73 381.4,-1105.85 388.4,-1105.6"/>
</g>
<!-- Hutton&#39;s Blacklegs -->
<g id="node30" class="node">
<title>Hutton&#39;s Blacklegs</title>
<polygon fill="lightblue" stroke="lightblue" points="590.88,-1207 453.38,-1207 453.38,-1130 590.88,-1130 590.88,-1207"/>
<image xlink:href="img/mob.png" width="100px" height="77px" preserveAspectRatio="xMinYMin meet" x="472.125" y="-1207"/>
<text text-anchor="middle" x="522.12" y="-1162.7" font-family="MS Gothic" font-size="14.00">Hutton&#39;s Blacklegs</text>
</g>
<!-- Hutton&#39;s Blacklegs&#45;&gt;Hutton&#39;s Blacklegs Mare -->
<g id="edge29" class="edge">
<title>Hutton&#39;s Blacklegs&#45;&gt;Hutton&#39;s Blacklegs Mare</title>
<path fill="none" stroke="black" d="M523.15,-1129.61C523.36,-1121.84 523.58,-1113.56 523.8,-1105.46"/>
<polygon fill="black" stroke="black" points="527.29,-1105.82 524.06,-1095.73 520.3,-1105.63 527.29,-1105.82"/>
</g>
<!-- Bay Bolton Mare -->
<g id="node31" class="node">
<title>Bay Bolton Mare</title>
<polygon fill="lightcoral" stroke="lightcoral" points="725.75,-1207 608.5,-1207 608.5,-1130 725.75,-1130 725.75,-1207"/>
<image xlink:href="img/mob.png" width="100px" height="77px" preserveAspectRatio="xMinYMin meet" x="617.125" y="-1207"/>
<text text-anchor="middle" x="667.12" y="-1162.7" font-family="MS Gothic" font-size="14.00">Bay Bolton Mare</text>
</g>
<!-- Bay Bolton Mare&#45;&gt;Hutton&#39;s Blacklegs Mare -->
<g id="edge30" class="edge">
<title>Bay Bolton Mare&#45;&gt;Hutton&#39;s Blacklegs Mare</title>
<path fill="none" stroke="black" d="M618.65,-1129.61C607,-1120.5 594.45,-1110.69 582.43,-1101.3"/>
<polygon fill="black" stroke="black" points="584.6,-1098.55 574.57,-1095.15 580.29,-1104.07 584.6,-1098.55"/>
</g>
<!-- ダーレーアラビアン -->
<g id="node32" class="node">
<title>ダーレーアラビアン</title>
<polygon fill="lightblue" stroke="lightblue" points="144.25,-1320 0,-1320 0,-1243 144.25,-1243 144.25,-1320"/>
<image xlink:href="img/darearabian.png" width="100px" height="77px" preserveAspectRatio="xMinYMin meet" x="22.125" y="-1320"/>
<text text-anchor="middle" x="72.12" y="-1275.7" font-family="MS Gothic" font-size="14.00">ダーレーアラビアン</text>
</g>
<!-- ダーレーアラビアン&#45;&gt;Bartlet&#39;s Childers -->
<g id="edge31" class="edge">
<title>ダーレーアラビアン&#45;&gt;Bartlet&#39;s Childers</title>
<path fill="none" stroke="black" d="M119.57,-1242.61C130.98,-1233.5 143.27,-1223.69 155.03,-1214.3"/>
<polygon fill="black" stroke="black" points="157.08,-1217.14 162.71,-1208.16 152.71,-1211.67 157.08,-1217.14"/>
</g>
<!-- Betty Leedes -->
<g id="node33" class="node">
<title>Betty Leedes</title>
<polygon fill="lightcoral" stroke="lightcoral" points="259.62,-1320 162.62,-1320 162.62,-1243 259.62,-1243 259.62,-1320"/>
<image xlink:href="img/mob.png" width="97px" height="77px" preserveAspectRatio="xMinYMin meet" x="162.625" y="-1320"/>
<text text-anchor="middle" x="211.12" y="-1275.7" font-family="MS Gothic" font-size="14.00">Betty Leedes</text>
</g>
<!-- Betty Leedes&#45;&gt;Bartlet&#39;s Childers -->
<g id="edge32" class="edge">
<title>Betty Leedes&#45;&gt;Bartlet&#39;s Childers</title>
<path fill="none" stroke="black" d="M211.12,-1242.61C211.12,-1234.84 211.12,-1226.56 211.12,-1218.46"/>
<polygon fill="black" stroke="black" points="214.63,-1218.73 211.13,-1208.73 207.63,-1218.73 214.63,-1218.73"/>
</g>
<!-- Old Careless -->
<g id="node34" class="node">
<title>Old Careless</title>
<polygon fill="lightblue" stroke="lightblue" points="144.62,-1433 47.62,-1433 47.62,-1356 144.62,-1356 144.62,-1433"/>
<image xlink:href="img/mob.png" width="97px" height="77px" preserveAspectRatio="xMinYMin meet" x="47.625" y="-1433"/>
<text text-anchor="middle" x="96.12" y="-1388.7" font-family="MS Gothic" font-size="14.00">Old Careless</text>
</g>
<!-- Old Careless&#45;&gt;Betty Leedes -->
<g id="edge33" class="edge">
<title>Old Careless&#45;&gt;Betty Leedes</title>
<path fill="none" stroke="black" d="M135.38,-1355.61C144.54,-1346.77 154.39,-1337.26 163.85,-1328.13"/>
<polygon fill="black" stroke="black" points="166.19,-1330.73 170.96,-1321.27 161.33,-1325.7 166.19,-1330.73"/>
</g>
<!-- Cream Cheeks -->
<g id="node35" class="node">
<title>Cream Cheeks</title>
<polygon fill="lightcoral" stroke="lightcoral" points="259.62,-1433 162.62,-1433 162.62,-1356 259.62,-1356 259.62,-1433"/>
<image xlink:href="img/mob.png" width="97px" height="77px" preserveAspectRatio="xMinYMin meet" x="162.625" y="-1433"/>
<text text-anchor="middle" x="211.12" y="-1388.7" font-family="MS Gothic" font-size="14.00">Cream Cheeks</text>
</g>
<!-- Cream Cheeks&#45;&gt;Betty Leedes -->
<g id="edge34" class="edge">
<title>Cream Cheeks&#45;&gt;Betty Leedes</title>
<path fill="none" stroke="black" d="M211.12,-1355.61C211.12,-1347.84 211.12,-1339.56 211.12,-1331.46"/>
<polygon fill="black" stroke="black" points="214.63,-1331.73 211.13,-1321.73 207.63,-1331.73 214.63,-1331.73"/>
</g>
<!-- Snake -->
<g id="node36" class="node">
<title>Snake</title>
<polygon fill="lightblue" stroke="lightblue" points="425.62,-1320 348.62,-1320 348.62,-1243 425.62,-1243 425.62,-1320"/>
<image xlink:href="img/mob.png" width="77px" height="77px" preserveAspectRatio="xMinYMin meet" x="348.625" y="-1320"/>
<text text-anchor="middle" x="387.12" y="-1275.7" font-family="MS Gothic" font-size="14.00">Snake</text>
</g>
<!-- Snake&#45;&gt;Snake Mare -->
<g id="edge35" class="edge">
<title>Snake&#45;&gt;Snake Mare</title>
<path fill="none" stroke="black" d="M387.12,-1242.61C387.12,-1234.84 387.12,-1226.56 387.12,-1218.46"/>
<polygon fill="black" stroke="black" points="390.63,-1218.73 387.13,-1208.73 383.63,-1218.73 390.63,-1218.73"/>
</g>
<!-- Grey Wilkes -->
<g id="node37" class="node">
<title>Grey Wilkes</title>
<polygon fill="lightcoral" stroke="lightcoral" points="585.25,-1320 495,-1320 495,-1243 585.25,-1243 585.25,-1320"/>
<image xlink:href="img/mob.png" width="90.25px" height="77px" preserveAspectRatio="xMinYMin meet" x="495" y="-1320"/>
<text text-anchor="middle" x="540.12" y="-1275.7" font-family="MS Gothic" font-size="14.00">Grey Wilkes</text>
</g>
<!-- Grey Wilkes&#45;&gt;Snake Mare -->
<g id="edge36" class="edge">
<title>Grey Wilkes&#45;&gt;Snake Mare</title>
<path fill="none" stroke="black" d="M494.63,-1247.5C477.01,-1234.71 456.73,-1220 438.58,-1206.83"/>
<polygon fill="black" stroke="black" points="440.68,-1204.03 430.53,-1200.99 436.57,-1209.69 440.68,-1204.03"/>
</g>
<!-- Lister Turk -->
<g id="node38" class="node">
<title>Lister Turk</title>
<polygon fill="lightblue" stroke="lightblue" points="368.25,-1433 278,-1433 278,-1356 368.25,-1356 368.25,-1433"/>
<image xlink:href="img/mob.png" width="90.25px" height="77px" preserveAspectRatio="xMinYMin meet" x="278" y="-1433"/>
<text text-anchor="middle" x="323.12" y="-1388.7" font-family="MS Gothic" font-size="14.00">Lister Turk</text>
</g>
<!-- Lister Turk&#45;&gt;Snake -->
<g id="edge37" class="edge">
<title>Lister Turk&#45;&gt;Snake</title>
<path fill="none" stroke="black" d="M344.97,-1355.61C349.71,-1347.39 354.78,-1338.6 359.7,-1330.07"/>
<polygon fill="black" stroke="black" points="362.66,-1331.94 364.62,-1321.53 356.59,-1328.44 362.66,-1331.94"/>
</g>
<!-- Hautboy Mare -->
<g id="node39" class="node">
<title>Hautboy Mare</title>
<polygon fill="lightcoral" stroke="lightcoral" points="483.62,-1433 386.62,-1433 386.62,-1356 483.62,-1356 483.62,-1433"/>
<image xlink:href="img/mob.png" width="97px" height="77px" preserveAspectRatio="xMinYMin meet" x="386.625" y="-1433"/>
<text text-anchor="middle" x="435.12" y="-1388.7" font-family="MS Gothic" font-size="14.00">Hautboy Mare</text>
</g>
<!-- Hautboy Mare&#45;&gt;Snake -->
<g id="edge38" class="edge">
<title>Hautboy Mare&#45;&gt;Snake</title>
<path fill="none" stroke="black" d="M418.74,-1355.61C415.26,-1347.57 411.55,-1338.99 407.94,-1330.63"/>
<polygon fill="black" stroke="black" points="411.22,-1329.4 404.04,-1321.61 404.79,-1332.18 411.22,-1329.4"/>
</g>
<!-- Hautboy -->
<g id="node40" class="node">
<title>Hautboy</title>
<polygon fill="lightblue" stroke="lightblue" points="578.62,-1433 501.62,-1433 501.62,-1356 578.62,-1356 578.62,-1433"/>
<image xlink:href="img/mob.png" width="77px" height="77px" preserveAspectRatio="xMinYMin meet" x="501.625" y="-1433"/>
<text text-anchor="middle" x="540.12" y="-1388.7" font-family="MS Gothic" font-size="14.00">Hautboy</text>
</g>
<!-- Hautboy&#45;&gt;Grey Wilkes -->
<g id="edge39" class="edge">
<title>Hautboy&#45;&gt;Grey Wilkes</title>
<path fill="none" stroke="black" d="M540.12,-1355.61C540.12,-1347.84 540.12,-1339.56 540.12,-1331.46"/>
<polygon fill="black" stroke="black" points="543.63,-1331.73 540.13,-1321.73 536.63,-1331.73 543.63,-1331.73"/>
</g>
<!-- Miss Darcys Pet Mare -->
<g id="node41" class="node">
<title>Miss Darcys Pet Mare</title>
<polygon fill="lightcoral" stroke="lightcoral" points="747.62,-1433 596.62,-1433 596.62,-1356 747.62,-1356 747.62,-1433"/>
<image xlink:href="img/mob.png" width="100px" height="77px" preserveAspectRatio="xMinYMin meet" x="622.125" y="-1433"/>
<text text-anchor="middle" x="672.12" y="-1388.7" font-family="MS Gothic" font-size="14.00">Miss Darcys Pet Mare</text>
</g>
<!-- Miss Darcys Pet Mare&#45;&gt;Grey Wilkes -->
<g id="edge40" class="edge">
<title>Miss Darcys Pet Mare&#45;&gt;Grey Wilkes</title>
<path fill="none" stroke="black" d="M627.07,-1355.61C616.34,-1346.59 604.79,-1336.88 593.73,-1327.57"/>
<polygon fill="black" stroke="black" points="596.04,-1324.95 586.14,-1321.19 591.54,-1330.31 596.04,-1324.95"/>
</g>
</g>
</svg>
