<?xml version="1.0" encoding="UTF-8" standalone="no"?>
<!DOCTYPE svg PUBLIC "-//W3C//DTD SVG 1.1//EN"
 "http://www.w3.org/Graphics/SVG/1.1/DTD/svg11.dtd">
<!-- Generated by graphviz version 12.1.2 (20240928.0832)
 -->
<!-- Pages: 1 -->
<svg width="1026pt" height="989pt"
 viewBox="0.00 0.00 1025.50 989.00" xmlns="http://www.w3.org/2000/svg" xmlns:xlink="http://www.w3.org/1999/xlink">
<g id="graph0" class="graph" transform="scale(1 1) rotate(0) translate(4 985)">
<polygon fill="white" stroke="none" points="-4,4 -4,-985 1021.5,-985 1021.5,4 -4,4"/>
<!-- Sultan -->
<g id="node1" class="node">
<title>Sultan</title>
<polygon fill="none" stroke="black" points="801.5,-77 724.5,-77 724.5,0 801.5,0 801.5,-77"/>
<image xlink:href="img/mob.png" width="77px" height="77px" preserveAspectRatio="xMinYMin meet" x="724.5" y="-77"/>
<text text-anchor="middle" x="763" y="-33.45" font-family="Times New Roman,serif" font-size="14.00">Sultan</text>
</g>
<!-- Selim -->
<g id="node2" class="node">
<title>Selim</title>
<polygon fill="lightblue" stroke="lightblue" points="730.5,-190 653.5,-190 653.5,-113 730.5,-113 730.5,-190"/>
<image xlink:href="img/mob.png" width="77px" height="77px" preserveAspectRatio="xMinYMin meet" x="653.5" y="-190"/>
<text text-anchor="middle" x="692" y="-145.7" font-family="MS Gothic" font-size="14.00">Selim</text>
</g>
<!-- Selim&#45;&gt;Sultan -->
<g id="edge1" class="edge">
<title>Selim&#45;&gt;Sultan</title>
<path fill="none" stroke="black" d="M716.24,-112.61C721.55,-104.31 727.24,-95.41 732.75,-86.79"/>
<polygon fill="black" stroke="black" points="735.62,-88.8 738.06,-78.49 729.72,-85.03 735.62,-88.8"/>
</g>
<!-- Bacchante -->
<g id="node3" class="node">
<title>Bacchante</title>
<polygon fill="lightcoral" stroke="lightcoral" points="872.5,-190 795.5,-190 795.5,-113 872.5,-113 872.5,-190"/>
<image xlink:href="img/mob.png" width="77px" height="77px" preserveAspectRatio="xMinYMin meet" x="795.5" y="-190"/>
<text text-anchor="middle" x="834" y="-145.7" font-family="MS Gothic" font-size="14.00">Bacchante</text>
</g>
<!-- Bacchante&#45;&gt;Sultan -->
<g id="edge2" class="edge">
<title>Bacchante&#45;&gt;Sultan</title>
<path fill="none" stroke="black" d="M809.76,-112.61C804.45,-104.31 798.76,-95.41 793.25,-86.79"/>
<polygon fill="black" stroke="black" points="796.28,-85.03 787.94,-78.49 790.38,-88.8 796.28,-85.03"/>
</g>
<!-- Buzzard -->
<g id="node4" class="node">
<title>Buzzard</title>
<polygon fill="lightblue" stroke="lightblue" points="618.5,-303 541.5,-303 541.5,-226 618.5,-226 618.5,-303"/>
<image xlink:href="img/mob.png" width="77px" height="77px" preserveAspectRatio="xMinYMin meet" x="541.5" y="-303"/>
<text text-anchor="middle" x="580" y="-258.7" font-family="MS Gothic" font-size="14.00">Buzzard</text>
</g>
<!-- Buzzard&#45;&gt;Selim -->
<g id="edge3" class="edge">
<title>Buzzard&#45;&gt;Selim</title>
<path fill="none" stroke="black" d="M618.23,-225.61C627.15,-216.77 636.74,-207.26 645.96,-198.13"/>
<polygon fill="black" stroke="black" points="648.23,-200.81 652.87,-191.28 643.3,-195.84 648.23,-200.81"/>
</g>
<!-- Alexander Mare -->
<g id="node5" class="node">
<title>Alexander Mare</title>
<polygon fill="lightcoral" stroke="lightcoral" points="747.25,-303 636.75,-303 636.75,-226 747.25,-226 747.25,-303"/>
<image xlink:href="img/mob.png" width="100px" height="77px" preserveAspectRatio="xMinYMin meet" x="642" y="-303"/>
<text text-anchor="middle" x="692" y="-258.7" font-family="MS Gothic" font-size="14.00">Alexander Mare</text>
</g>
<!-- Alexander Mare&#45;&gt;Selim -->
<g id="edge4" class="edge">
<title>Alexander Mare&#45;&gt;Selim</title>
<path fill="none" stroke="black" d="M692,-225.61C692,-217.84 692,-209.56 692,-201.46"/>
<polygon fill="black" stroke="black" points="695.5,-201.73 692,-191.73 688.5,-201.73 695.5,-201.73"/>
</g>
<!-- Williamson&#39;s Ditto -->
<g id="node6" class="node">
<title>Williamson&#39;s Ditto</title>
<polygon fill="lightblue" stroke="lightblue" points="902.75,-303 765.25,-303 765.25,-226 902.75,-226 902.75,-303"/>
<image xlink:href="img/mob.png" width="100px" height="77px" preserveAspectRatio="xMinYMin meet" x="784" y="-303"/>
<text text-anchor="middle" x="834" y="-258.7" font-family="MS Gothic" font-size="14.00">Williamson&#39;s Ditto</text>
</g>
<!-- Williamson&#39;s Ditto&#45;&gt;Bacchante -->
<g id="edge5" class="edge">
<title>Williamson&#39;s Ditto&#45;&gt;Bacchante</title>
<path fill="none" stroke="black" d="M834,-225.61C834,-217.84 834,-209.56 834,-201.46"/>
<polygon fill="black" stroke="black" points="837.5,-201.73 834,-191.73 830.5,-201.73 837.5,-201.73"/>
</g>
<!-- Mercury Mare -->
<g id="node7" class="node">
<title>Mercury Mare</title>
<polygon fill="lightcoral" stroke="lightcoral" points="1017.5,-303 920.5,-303 920.5,-226 1017.5,-226 1017.5,-303"/>
<image xlink:href="img/mob.png" width="97px" height="77px" preserveAspectRatio="xMinYMin meet" x="920.5" y="-303"/>
<text text-anchor="middle" x="969" y="-258.7" font-family="MS Gothic" font-size="14.00">Mercury Mare</text>
</g>
<!-- Mercury Mare&#45;&gt;Bacchante -->
<g id="edge6" class="edge">
<title>Mercury Mare&#45;&gt;Bacchante</title>
<path fill="none" stroke="black" d="M922.92,-225.61C909.51,-214.59 894.84,-202.53 881.36,-191.44"/>
<polygon fill="black" stroke="black" points="883.81,-188.92 873.86,-185.27 879.36,-194.33 883.81,-188.92"/>
</g>
<!-- Woodpecker -->
<g id="node8" class="node">
<title>Woodpecker</title>
<polygon fill="lightblue" stroke="lightblue" points="569.75,-416 486.25,-416 486.25,-339 569.75,-339 569.75,-416"/>
<image xlink:href="img/mob.png" width="83.5px" height="77px" preserveAspectRatio="xMinYMin meet" x="486.25" y="-416"/>
<text text-anchor="middle" x="528" y="-371.7" font-family="MS Gothic" font-size="14.00">Woodpecker</text>
</g>
<!-- Woodpecker&#45;&gt;Buzzard -->
<g id="edge7" class="edge">
<title>Woodpecker&#45;&gt;Buzzard</title>
<path fill="none" stroke="black" d="M545.75,-338.61C549.52,-330.57 553.54,-321.99 557.45,-313.63"/>
<polygon fill="black" stroke="black" points="560.62,-315.13 561.69,-304.59 554.28,-312.16 560.62,-315.13"/>
</g>
<!-- Misfortune -->
<g id="node9" class="node">
<title>Misfortune</title>
<polygon fill="lightcoral" stroke="lightcoral" points="674.75,-416 591.25,-416 591.25,-339 674.75,-339 674.75,-416"/>
<image xlink:href="img/mob.png" width="83.5px" height="77px" preserveAspectRatio="xMinYMin meet" x="591.25" y="-416"/>
<text text-anchor="middle" x="633" y="-371.7" font-family="MS Gothic" font-size="14.00">Misfortune</text>
</g>
<!-- Misfortune&#45;&gt;Buzzard -->
<g id="edge8" class="edge">
<title>Misfortune&#45;&gt;Buzzard</title>
<path fill="none" stroke="black" d="M614.91,-338.61C611.03,-330.48 606.88,-321.8 602.85,-313.35"/>
<polygon fill="black" stroke="black" points="606.13,-312.1 598.66,-304.58 599.81,-315.12 606.13,-312.1"/>
</g>
<!-- Herod -->
<g id="node10" class="node">
<title>Herod</title>
<polygon fill="lightblue" stroke="lightblue" points="461.5,-529 384.5,-529 384.5,-452 461.5,-452 461.5,-529"/>
<image xlink:href="img/mob.png" width="77px" height="77px" preserveAspectRatio="xMinYMin meet" x="384.5" y="-529"/>
<text text-anchor="middle" x="423" y="-484.7" font-family="MS Gothic" font-size="14.00">Herod</text>
</g>
<!-- Herod&#45;&gt;Woodpecker -->
<g id="edge9" class="edge">
<title>Herod&#45;&gt;Woodpecker</title>
<path fill="none" stroke="black" d="M458.84,-451.61C467.12,-442.86 476.01,-433.46 484.58,-424.4"/>
<polygon fill="black" stroke="black" points="486.95,-426.99 491.28,-417.32 481.87,-422.18 486.95,-426.99"/>
</g>
<!-- Miss Ramsden -->
<g id="node11" class="node">
<title>Miss Ramsden</title>
<polygon fill="lightcoral" stroke="lightcoral" points="576.5,-529 479.5,-529 479.5,-452 576.5,-452 576.5,-529"/>
<image xlink:href="img/mob.png" width="97px" height="77px" preserveAspectRatio="xMinYMin meet" x="479.5" y="-529"/>
<text text-anchor="middle" x="528" y="-484.7" font-family="MS Gothic" font-size="14.00">Miss Ramsden</text>
</g>
<!-- Miss Ramsden&#45;&gt;Woodpecker -->
<g id="edge10" class="edge">
<title>Miss Ramsden&#45;&gt;Woodpecker</title>
<path fill="none" stroke="black" d="M528,-451.61C528,-443.84 528,-435.56 528,-427.46"/>
<polygon fill="black" stroke="black" points="531.5,-427.73 528,-417.73 524.5,-427.73 531.5,-427.73"/>
</g>
<!-- Dux -->
<g id="node12" class="node">
<title>Dux</title>
<polygon fill="lightblue" stroke="lightblue" points="671.5,-529 594.5,-529 594.5,-452 671.5,-452 671.5,-529"/>
<image xlink:href="img/mob.png" width="77px" height="77px" preserveAspectRatio="xMinYMin meet" x="594.5" y="-529"/>
<text text-anchor="middle" x="633" y="-484.7" font-family="MS Gothic" font-size="14.00">Dux</text>
</g>
<!-- Dux&#45;&gt;Misfortune -->
<g id="edge11" class="edge">
<title>Dux&#45;&gt;Misfortune</title>
<path fill="none" stroke="black" d="M633,-451.61C633,-443.84 633,-435.56 633,-427.46"/>
<polygon fill="black" stroke="black" points="636.5,-427.73 633,-417.73 629.5,-427.73 636.5,-427.73"/>
</g>
<!-- Curiosity -->
<g id="node13" class="node">
<title>Curiosity</title>
<polygon fill="lightcoral" stroke="lightcoral" points="766.5,-529 689.5,-529 689.5,-452 766.5,-452 766.5,-529"/>
<image xlink:href="img/mob.png" width="77px" height="77px" preserveAspectRatio="xMinYMin meet" x="689.5" y="-529"/>
<text text-anchor="middle" x="728" y="-484.7" font-family="MS Gothic" font-size="14.00">Curiosity</text>
</g>
<!-- Curiosity&#45;&gt;Misfortune -->
<g id="edge12" class="edge">
<title>Curiosity&#45;&gt;Misfortune</title>
<path fill="none" stroke="black" d="M695.57,-451.61C688.24,-443.04 680.36,-433.84 672.76,-424.96"/>
<polygon fill="black" stroke="black" points="675.43,-422.69 666.27,-417.37 670.11,-427.24 675.43,-422.69"/>
</g>
<!-- Tartar -->
<g id="node14" class="node">
<title>Tartar</title>
<polygon fill="lightblue" stroke="lightblue" points="414.5,-642 337.5,-642 337.5,-565 414.5,-565 414.5,-642"/>
<image xlink:href="img/mob.png" width="77px" height="77px" preserveAspectRatio="xMinYMin meet" x="337.5" y="-642"/>
<text text-anchor="middle" x="376" y="-597.7" font-family="MS Gothic" font-size="14.00">Tartar</text>
</g>
<!-- Tartar&#45;&gt;Herod -->
<g id="edge13" class="edge">
<title>Tartar&#45;&gt;Herod</title>
<path fill="none" stroke="black" d="M392.04,-564.61C395.45,-556.57 399.08,-547.99 402.62,-539.63"/>
<polygon fill="black" stroke="black" points="405.76,-541.19 406.44,-530.61 399.32,-538.46 405.76,-541.19"/>
</g>
<!-- Cypron -->
<g id="node15" class="node">
<title>Cypron</title>
<polygon fill="lightcoral" stroke="lightcoral" points="509.5,-642 432.5,-642 432.5,-565 509.5,-565 509.5,-642"/>
<image xlink:href="img/mob.png" width="77px" height="77px" preserveAspectRatio="xMinYMin meet" x="432.5" y="-642"/>
<text text-anchor="middle" x="471" y="-597.7" font-family="MS Gothic" font-size="14.00">Cypron</text>
</g>
<!-- Cypron&#45;&gt;Herod -->
<g id="edge14" class="edge">
<title>Cypron&#45;&gt;Herod</title>
<path fill="none" stroke="black" d="M454.62,-564.61C451.14,-556.57 447.43,-547.99 443.81,-539.63"/>
<polygon fill="black" stroke="black" points="447.09,-538.4 439.91,-530.61 440.67,-541.18 447.09,-538.4"/>
</g>
<!-- Croft&#39;s Partner -->
<g id="node16" class="node">
<title>Croft&#39;s Partner</title>
<polygon fill="lightblue" stroke="lightblue" points="319.62,-755 202.38,-755 202.38,-678 319.62,-678 319.62,-755"/>
<image xlink:href="img/mob.png" width="100px" height="77px" preserveAspectRatio="xMinYMin meet" x="211" y="-755"/>
<text text-anchor="middle" x="261" y="-710.7" font-family="MS Gothic" font-size="14.00">Croft&#39;s Partner</text>
</g>
<!-- Croft&#39;s Partner&#45;&gt;Tartar -->
<g id="edge15" class="edge">
<title>Croft&#39;s Partner&#45;&gt;Tartar</title>
<path fill="none" stroke="black" d="M300.25,-677.61C309.51,-668.67 319.48,-659.06 329.04,-649.83"/>
<polygon fill="black" stroke="black" points="331.46,-652.36 336.22,-642.89 326.6,-647.32 331.46,-652.36"/>
</g>
<!-- Meliora -->
<g id="node17" class="node">
<title>Meliora</title>
<polygon fill="lightcoral" stroke="lightcoral" points="414.5,-755 337.5,-755 337.5,-678 414.5,-678 414.5,-755"/>
<image xlink:href="img/mob.png" width="77px" height="77px" preserveAspectRatio="xMinYMin meet" x="337.5" y="-755"/>
<text text-anchor="middle" x="376" y="-710.7" font-family="MS Gothic" font-size="14.00">Meliora</text>
</g>
<!-- Meliora&#45;&gt;Tartar -->
<g id="edge16" class="edge">
<title>Meliora&#45;&gt;Tartar</title>
<path fill="none" stroke="black" d="M376,-677.61C376,-669.84 376,-661.56 376,-653.46"/>
<polygon fill="black" stroke="black" points="379.5,-653.73 376,-643.73 372.5,-653.73 379.5,-653.73"/>
</g>
<!-- Blaze -->
<g id="node18" class="node">
<title>Blaze</title>
<polygon fill="lightblue" stroke="lightblue" points="509.5,-755 432.5,-755 432.5,-678 509.5,-678 509.5,-755"/>
<image xlink:href="img/mob.png" width="77px" height="77px" preserveAspectRatio="xMinYMin meet" x="432.5" y="-755"/>
<text text-anchor="middle" x="471" y="-710.7" font-family="MS Gothic" font-size="14.00">Blaze</text>
</g>
<!-- Blaze&#45;&gt;Cypron -->
<g id="edge17" class="edge">
<title>Blaze&#45;&gt;Cypron</title>
<path fill="none" stroke="black" d="M471,-677.61C471,-669.84 471,-661.56 471,-653.46"/>
<polygon fill="black" stroke="black" points="474.5,-653.73 471,-643.73 467.5,-653.73 474.5,-653.73"/>
</g>
<!-- Salome -->
<g id="node19" class="node">
<title>Salome</title>
<polygon fill="lightcoral" stroke="lightcoral" points="604.5,-755 527.5,-755 527.5,-678 604.5,-678 604.5,-755"/>
<image xlink:href="img/mob.png" width="77px" height="77px" preserveAspectRatio="xMinYMin meet" x="527.5" y="-755"/>
<text text-anchor="middle" x="566" y="-710.7" font-family="MS Gothic" font-size="14.00">Salome</text>
</g>
<!-- Salome&#45;&gt;Cypron -->
<g id="edge18" class="edge">
<title>Salome&#45;&gt;Cypron</title>
<path fill="none" stroke="black" d="M533.57,-677.61C526.24,-669.04 518.36,-659.84 510.76,-650.96"/>
<polygon fill="black" stroke="black" points="513.43,-648.69 504.27,-643.37 508.11,-653.24 513.43,-648.69"/>
</g>
<!-- Jigg -->
<g id="node20" class="node">
<title>Jigg</title>
<polygon fill="lightblue" stroke="lightblue" points="232.5,-868 155.5,-868 155.5,-791 232.5,-791 232.5,-868"/>
<image xlink:href="img/mob.png" width="77px" height="77px" preserveAspectRatio="xMinYMin meet" x="155.5" y="-868"/>
<text text-anchor="middle" x="194" y="-823.7" font-family="MS Gothic" font-size="14.00">Jigg</text>
</g>
<!-- Jigg&#45;&gt;Croft&#39;s Partner -->
<g id="edge19" class="edge">
<title>Jigg&#45;&gt;Croft&#39;s Partner</title>
<path fill="none" stroke="black" d="M216.87,-790.61C221.83,-782.39 227.13,-773.6 232.29,-765.07"/>
<polygon fill="black" stroke="black" points="235.28,-766.88 237.45,-756.51 229.29,-763.27 235.28,-766.88"/>
</g>
<!-- Sister One to Mixbury -->
<g id="node21" class="node">
<title>Sister One to Mixbury</title>
<polygon fill="lightcoral" stroke="lightcoral" points="407.88,-868 250.12,-868 250.12,-791 407.88,-791 407.88,-868"/>
<image xlink:href="img/mob.png" width="100px" height="77px" preserveAspectRatio="xMinYMin meet" x="279" y="-868"/>
<text text-anchor="middle" x="329" y="-823.7" font-family="MS Gothic" font-size="14.00">Sister One to Mixbury</text>
</g>
<!-- Sister One to Mixbury&#45;&gt;Croft&#39;s Partner -->
<g id="edge20" class="edge">
<title>Sister One to Mixbury&#45;&gt;Croft&#39;s Partner</title>
<path fill="none" stroke="black" d="M305.79,-790.61C300.7,-782.31 295.25,-773.41 289.97,-764.79"/>
<polygon fill="black" stroke="black" points="293.11,-763.21 284.9,-756.51 287.14,-766.86 293.11,-763.21"/>
</g>
<!-- バイアリーターク -->
<g id="node22" class="node">
<title>バイアリーターク</title>
<polygon fill="lightblue" stroke="lightblue" points="130,-981 0,-981 0,-904 130,-904 130,-981"/>
<image xlink:href="img/baiaritaku.png" width="100px" height="77px" preserveAspectRatio="xMinYMin meet" x="15" y="-981"/>
<text text-anchor="middle" x="65" y="-936.7" font-family="MS Gothic" font-size="14.00">バイアリーターク</text>
</g>
<!-- バイアリーターク&#45;&gt;Jigg -->
<g id="edge21" class="edge">
<title>バイアリーターク&#45;&gt;Jigg</title>
<path fill="none" stroke="black" d="M109.03,-903.61C121.25,-893.1 134.56,-881.65 146.94,-870.99"/>
<polygon fill="black" stroke="black" points="148.9,-873.93 154.19,-864.75 144.33,-868.62 148.9,-873.93"/>
</g>
<!-- Spanker Mare -->
<g id="node23" class="node">
<title>Spanker Mare</title>
<polygon fill="lightcoral" stroke="lightcoral" points="245.5,-981 148.5,-981 148.5,-904 245.5,-904 245.5,-981"/>
<image xlink:href="img/mob.png" width="97px" height="77px" preserveAspectRatio="xMinYMin meet" x="148.5" y="-981"/>
<text text-anchor="middle" x="197" y="-936.7" font-family="MS Gothic" font-size="14.00">Spanker Mare</text>
</g>
<!-- Spanker Mare&#45;&gt;Jigg -->
<g id="edge22" class="edge">
<title>Spanker Mare&#45;&gt;Jigg</title>
<path fill="none" stroke="black" d="M195.98,-903.61C195.77,-895.84 195.54,-887.56 195.32,-879.46"/>
<polygon fill="black" stroke="black" points="198.83,-879.63 195.06,-869.73 191.83,-879.82 198.83,-879.63"/>
</g>
<!-- Curwen Bay Barb -->
<g id="node24" class="node">
<title>Curwen Bay Barb</title>
<polygon fill="lightblue" stroke="lightblue" points="385.62,-981 268.38,-981 268.38,-904 385.62,-904 385.62,-981"/>
<image xlink:href="img/mob.png" width="100px" height="77px" preserveAspectRatio="xMinYMin meet" x="277" y="-981"/>
<text text-anchor="middle" x="327" y="-936.7" font-family="MS Gothic" font-size="14.00">Curwen Bay Barb</text>
</g>
<!-- Curwen Bay Barb&#45;&gt;Sister One to Mixbury -->
<g id="edge23" class="edge">
<title>Curwen Bay Barb&#45;&gt;Sister One to Mixbury</title>
<path fill="none" stroke="black" d="M327.68,-903.61C327.82,-895.84 327.97,-887.56 328.12,-879.46"/>
<polygon fill="black" stroke="black" points="331.61,-879.79 328.29,-869.73 324.61,-879.67 331.61,-879.79"/>
</g>
<!-- Curwen Spot Mare -->
<g id="node25" class="node">
<title>Curwen Spot Mare</title>
<polygon fill="lightcoral" stroke="lightcoral" points="528,-981 404,-981 404,-904 528,-904 528,-981"/>
<image xlink:href="img/mob.png" width="100px" height="77px" preserveAspectRatio="xMinYMin meet" x="416" y="-981"/>
<text text-anchor="middle" x="466" y="-936.7" font-family="MS Gothic" font-size="14.00">Curwen Spot Mare</text>
</g>
<!-- Curwen Spot Mare&#45;&gt;Sister One to Mixbury -->
<g id="edge24" class="edge">
<title>Curwen Spot Mare&#45;&gt;Sister One to Mixbury</title>
<path fill="none" stroke="black" d="M419.24,-903.61C407.99,-894.5 395.88,-884.69 384.29,-875.3"/>
<polygon fill="black" stroke="black" points="386.7,-872.75 376.73,-869.17 382.3,-878.19 386.7,-872.75"/>
</g>
</g>
</svg>
