<?xml version="1.0" encoding="UTF-8" standalone="no"?>
<!DOCTYPE svg PUBLIC "-//W3C//DTD SVG 1.1//EN"
 "http://www.w3.org/Graphics/SVG/1.1/DTD/svg11.dtd">
<!-- Generated by graphviz version 12.1.2 (20240928.0832)
 -->
<!-- Pages: 1 -->
<svg width="1107pt" height="1215pt"
 viewBox="0.00 0.00 1106.75 1215.00" xmlns="http://www.w3.org/2000/svg" xmlns:xlink="http://www.w3.org/1999/xlink">
<g id="graph0" class="graph" transform="scale(1 1) rotate(0) translate(4 1211)">
<polygon fill="white" stroke="none" points="-4,4 -4,-1211 1102.75,-1211 1102.75,4 -4,4"/>
<!-- The Flying Dutchman -->
<g id="node1" class="node">
<title>The Flying Dutchman</title>
<polygon fill="none" stroke="black" points="976.38,-77 839.62,-77 839.62,0 976.38,0 976.38,-77"/>
<image xlink:href="img/mob.png" width="100px" height="77px" preserveAspectRatio="xMinYMin meet" x="858" y="-77"/>
<text text-anchor="middle" x="908" y="-33.45" font-family="Times New Roman,serif" font-size="14.00">The Flying Dutchman</text>
</g>
<!-- Bay Middleton -->
<g id="node2" class="node">
<title>Bay Middleton</title>
<polygon fill="lightblue" stroke="lightblue" points="905.88,-190 802.12,-190 802.12,-113 905.88,-113 905.88,-190"/>
<image xlink:href="img/mob.png" width="100px" height="77px" preserveAspectRatio="xMinYMin meet" x="804" y="-190"/>
<text text-anchor="middle" x="854" y="-145.7" font-family="MS Gothic" font-size="14.00">Bay Middleton</text>
</g>
<!-- Bay Middleton&#45;&gt;The Flying Dutchman -->
<g id="edge1" class="edge">
<title>Bay Middleton&#45;&gt;The Flying Dutchman</title>
<path fill="none" stroke="black" d="M872.43,-112.61C876.39,-104.48 880.61,-95.8 884.72,-87.35"/>
<polygon fill="black" stroke="black" points="887.76,-89.1 888.99,-78.58 881.47,-86.04 887.76,-89.1"/>
</g>
<!-- Barbelle -->
<g id="node3" class="node">
<title>Barbelle</title>
<polygon fill="lightcoral" stroke="lightcoral" points="1000.5,-190 923.5,-190 923.5,-113 1000.5,-113 1000.5,-190"/>
<image xlink:href="img/mob.png" width="77px" height="77px" preserveAspectRatio="xMinYMin meet" x="923.5" y="-190"/>
<text text-anchor="middle" x="962" y="-145.7" font-family="MS Gothic" font-size="14.00">Barbelle</text>
</g>
<!-- Barbelle&#45;&gt;The Flying Dutchman -->
<g id="edge2" class="edge">
<title>Barbelle&#45;&gt;The Flying Dutchman</title>
<path fill="none" stroke="black" d="M943.57,-112.61C939.61,-104.48 935.39,-95.8 931.28,-87.35"/>
<polygon fill="black" stroke="black" points="934.53,-86.04 927.01,-78.58 928.24,-89.1 934.53,-86.04"/>
</g>
<!-- Sultan -->
<g id="node4" class="node">
<title>Sultan</title>
<polygon fill="lightblue" stroke="lightblue" points="801.5,-303 724.5,-303 724.5,-226 801.5,-226 801.5,-303"/>
<image xlink:href="img/mob.png" width="77px" height="77px" preserveAspectRatio="xMinYMin meet" x="724.5" y="-303"/>
<text text-anchor="middle" x="763" y="-258.7" font-family="MS Gothic" font-size="14.00">Sultan</text>
</g>
<!-- Sultan&#45;&gt;Bay Middleton -->
<g id="edge3" class="edge">
<title>Sultan&#45;&gt;Bay Middleton</title>
<path fill="none" stroke="black" d="M794.06,-225.61C801.09,-217.04 808.63,-207.84 815.91,-198.96"/>
<polygon fill="black" stroke="black" points="818.48,-201.34 822.12,-191.39 813.07,-196.9 818.48,-201.34"/>
</g>
<!-- Cobweb -->
<g id="node5" class="node">
<title>Cobweb</title>
<polygon fill="lightcoral" stroke="lightcoral" points="896.5,-303 819.5,-303 819.5,-226 896.5,-226 896.5,-303"/>
<image xlink:href="img/mob.png" width="77px" height="77px" preserveAspectRatio="xMinYMin meet" x="819.5" y="-303"/>
<text text-anchor="middle" x="858" y="-258.7" font-family="MS Gothic" font-size="14.00">Cobweb</text>
</g>
<!-- Cobweb&#45;&gt;Bay Middleton -->
<g id="edge4" class="edge">
<title>Cobweb&#45;&gt;Bay Middleton</title>
<path fill="none" stroke="black" d="M856.63,-225.61C856.35,-217.84 856.06,-209.56 855.76,-201.46"/>
<polygon fill="black" stroke="black" points="859.27,-201.6 855.41,-191.73 852.28,-201.85 859.27,-201.6"/>
</g>
<!-- Sandbeck -->
<g id="node6" class="node">
<title>Sandbeck</title>
<polygon fill="lightblue" stroke="lightblue" points="997.5,-303 920.5,-303 920.5,-226 997.5,-226 997.5,-303"/>
<image xlink:href="img/mob.png" width="77px" height="77px" preserveAspectRatio="xMinYMin meet" x="920.5" y="-303"/>
<text text-anchor="middle" x="959" y="-258.7" font-family="MS Gothic" font-size="14.00">Sandbeck</text>
</g>
<!-- Sandbeck&#45;&gt;Barbelle -->
<g id="edge5" class="edge">
<title>Sandbeck&#45;&gt;Barbelle</title>
<path fill="none" stroke="black" d="M960.02,-225.61C960.23,-217.84 960.46,-209.56 960.68,-201.46"/>
<polygon fill="black" stroke="black" points="964.17,-201.82 960.94,-191.73 957.17,-201.63 964.17,-201.82"/>
</g>
<!-- Darioletta -->
<g id="node7" class="node">
<title>Darioletta</title>
<polygon fill="lightcoral" stroke="lightcoral" points="1098.75,-303 1015.25,-303 1015.25,-226 1098.75,-226 1098.75,-303"/>
<image xlink:href="img/mob.png" width="83.5px" height="77px" preserveAspectRatio="xMinYMin meet" x="1015.25" y="-303"/>
<text text-anchor="middle" x="1057" y="-258.7" font-family="MS Gothic" font-size="14.00">Darioletta</text>
</g>
<!-- Darioletta&#45;&gt;Barbelle -->
<g id="edge6" class="edge">
<title>Darioletta&#45;&gt;Barbelle</title>
<path fill="none" stroke="black" d="M1024.57,-225.61C1017.24,-217.04 1009.36,-207.84 1001.76,-198.96"/>
<polygon fill="black" stroke="black" points="1004.43,-196.69 995.27,-191.37 999.11,-201.24 1004.43,-196.69"/>
</g>
<!-- Selim -->
<g id="node8" class="node">
<title>Selim</title>
<polygon fill="lightblue" stroke="lightblue" points="730.5,-416 653.5,-416 653.5,-339 730.5,-339 730.5,-416"/>
<image xlink:href="img/mob.png" width="77px" height="77px" preserveAspectRatio="xMinYMin meet" x="653.5" y="-416"/>
<text text-anchor="middle" x="692" y="-371.7" font-family="MS Gothic" font-size="14.00">Selim</text>
</g>
<!-- Selim&#45;&gt;Sultan -->
<g id="edge7" class="edge">
<title>Selim&#45;&gt;Sultan</title>
<path fill="none" stroke="black" d="M716.24,-338.61C721.55,-330.31 727.24,-321.41 732.75,-312.79"/>
<polygon fill="black" stroke="black" points="735.62,-314.8 738.06,-304.49 729.72,-311.03 735.62,-314.8"/>
</g>
<!-- Bacchante -->
<g id="node9" class="node">
<title>Bacchante</title>
<polygon fill="lightcoral" stroke="lightcoral" points="872.5,-416 795.5,-416 795.5,-339 872.5,-339 872.5,-416"/>
<image xlink:href="img/mob.png" width="77px" height="77px" preserveAspectRatio="xMinYMin meet" x="795.5" y="-416"/>
<text text-anchor="middle" x="834" y="-371.7" font-family="MS Gothic" font-size="14.00">Bacchante</text>
</g>
<!-- Bacchante&#45;&gt;Sultan -->
<g id="edge8" class="edge">
<title>Bacchante&#45;&gt;Sultan</title>
<path fill="none" stroke="black" d="M809.76,-338.61C804.45,-330.31 798.76,-321.41 793.25,-312.79"/>
<polygon fill="black" stroke="black" points="796.28,-311.03 787.94,-304.49 790.38,-314.8 796.28,-311.03"/>
</g>
<!-- Buzzard -->
<g id="node10" class="node">
<title>Buzzard</title>
<polygon fill="lightblue" stroke="lightblue" points="618.5,-529 541.5,-529 541.5,-452 618.5,-452 618.5,-529"/>
<image xlink:href="img/mob.png" width="77px" height="77px" preserveAspectRatio="xMinYMin meet" x="541.5" y="-529"/>
<text text-anchor="middle" x="580" y="-484.7" font-family="MS Gothic" font-size="14.00">Buzzard</text>
</g>
<!-- Buzzard&#45;&gt;Selim -->
<g id="edge9" class="edge">
<title>Buzzard&#45;&gt;Selim</title>
<path fill="none" stroke="black" d="M618.23,-451.61C627.15,-442.77 636.74,-433.26 645.96,-424.13"/>
<polygon fill="black" stroke="black" points="648.23,-426.81 652.87,-417.28 643.3,-421.84 648.23,-426.81"/>
</g>
<!-- Alexander Mare -->
<g id="node11" class="node">
<title>Alexander Mare</title>
<polygon fill="lightcoral" stroke="lightcoral" points="747.25,-529 636.75,-529 636.75,-452 747.25,-452 747.25,-529"/>
<image xlink:href="img/mob.png" width="100px" height="77px" preserveAspectRatio="xMinYMin meet" x="642" y="-529"/>
<text text-anchor="middle" x="692" y="-484.7" font-family="MS Gothic" font-size="14.00">Alexander Mare</text>
</g>
<!-- Alexander Mare&#45;&gt;Selim -->
<g id="edge10" class="edge">
<title>Alexander Mare&#45;&gt;Selim</title>
<path fill="none" stroke="black" d="M692,-451.61C692,-443.84 692,-435.56 692,-427.46"/>
<polygon fill="black" stroke="black" points="695.5,-427.73 692,-417.73 688.5,-427.73 695.5,-427.73"/>
</g>
<!-- Williamson&#39;s Ditto -->
<g id="node12" class="node">
<title>Williamson&#39;s Ditto</title>
<polygon fill="lightblue" stroke="lightblue" points="902.75,-529 765.25,-529 765.25,-452 902.75,-452 902.75,-529"/>
<image xlink:href="img/mob.png" width="100px" height="77px" preserveAspectRatio="xMinYMin meet" x="784" y="-529"/>
<text text-anchor="middle" x="834" y="-484.7" font-family="MS Gothic" font-size="14.00">Williamson&#39;s Ditto</text>
</g>
<!-- Williamson&#39;s Ditto&#45;&gt;Bacchante -->
<g id="edge11" class="edge">
<title>Williamson&#39;s Ditto&#45;&gt;Bacchante</title>
<path fill="none" stroke="black" d="M834,-451.61C834,-443.84 834,-435.56 834,-427.46"/>
<polygon fill="black" stroke="black" points="837.5,-427.73 834,-417.73 830.5,-427.73 837.5,-427.73"/>
</g>
<!-- Mercury Mare -->
<g id="node13" class="node">
<title>Mercury Mare</title>
<polygon fill="lightcoral" stroke="lightcoral" points="1017.5,-529 920.5,-529 920.5,-452 1017.5,-452 1017.5,-529"/>
<image xlink:href="img/mob.png" width="97px" height="77px" preserveAspectRatio="xMinYMin meet" x="920.5" y="-529"/>
<text text-anchor="middle" x="969" y="-484.7" font-family="MS Gothic" font-size="14.00">Mercury Mare</text>
</g>
<!-- Mercury Mare&#45;&gt;Bacchante -->
<g id="edge12" class="edge">
<title>Mercury Mare&#45;&gt;Bacchante</title>
<path fill="none" stroke="black" d="M922.92,-451.61C909.51,-440.59 894.84,-428.53 881.36,-417.44"/>
<polygon fill="black" stroke="black" points="883.81,-414.92 873.86,-411.27 879.36,-420.33 883.81,-414.92"/>
</g>
<!-- Woodpecker -->
<g id="node14" class="node">
<title>Woodpecker</title>
<polygon fill="lightblue" stroke="lightblue" points="569.75,-642 486.25,-642 486.25,-565 569.75,-565 569.75,-642"/>
<image xlink:href="img/mob.png" width="83.5px" height="77px" preserveAspectRatio="xMinYMin meet" x="486.25" y="-642"/>
<text text-anchor="middle" x="528" y="-597.7" font-family="MS Gothic" font-size="14.00">Woodpecker</text>
</g>
<!-- Woodpecker&#45;&gt;Buzzard -->
<g id="edge13" class="edge">
<title>Woodpecker&#45;&gt;Buzzard</title>
<path fill="none" stroke="black" d="M545.75,-564.61C549.52,-556.57 553.54,-547.99 557.45,-539.63"/>
<polygon fill="black" stroke="black" points="560.62,-541.13 561.69,-530.59 554.28,-538.16 560.62,-541.13"/>
</g>
<!-- Misfortune -->
<g id="node15" class="node">
<title>Misfortune</title>
<polygon fill="lightcoral" stroke="lightcoral" points="674.75,-642 591.25,-642 591.25,-565 674.75,-565 674.75,-642"/>
<image xlink:href="img/mob.png" width="83.5px" height="77px" preserveAspectRatio="xMinYMin meet" x="591.25" y="-642"/>
<text text-anchor="middle" x="633" y="-597.7" font-family="MS Gothic" font-size="14.00">Misfortune</text>
</g>
<!-- Misfortune&#45;&gt;Buzzard -->
<g id="edge14" class="edge">
<title>Misfortune&#45;&gt;Buzzard</title>
<path fill="none" stroke="black" d="M614.91,-564.61C611.03,-556.48 606.88,-547.8 602.85,-539.35"/>
<polygon fill="black" stroke="black" points="606.13,-538.1 598.66,-530.58 599.81,-541.12 606.13,-538.1"/>
</g>
<!-- Herod -->
<g id="node16" class="node">
<title>Herod</title>
<polygon fill="lightblue" stroke="lightblue" points="461.5,-755 384.5,-755 384.5,-678 461.5,-678 461.5,-755"/>
<image xlink:href="img/mob.png" width="77px" height="77px" preserveAspectRatio="xMinYMin meet" x="384.5" y="-755"/>
<text text-anchor="middle" x="423" y="-710.7" font-family="MS Gothic" font-size="14.00">Herod</text>
</g>
<!-- Herod&#45;&gt;Woodpecker -->
<g id="edge15" class="edge">
<title>Herod&#45;&gt;Woodpecker</title>
<path fill="none" stroke="black" d="M458.84,-677.61C467.12,-668.86 476.01,-659.46 484.58,-650.4"/>
<polygon fill="black" stroke="black" points="486.95,-652.99 491.28,-643.32 481.87,-648.18 486.95,-652.99"/>
</g>
<!-- Miss Ramsden -->
<g id="node17" class="node">
<title>Miss Ramsden</title>
<polygon fill="lightcoral" stroke="lightcoral" points="576.5,-755 479.5,-755 479.5,-678 576.5,-678 576.5,-755"/>
<image xlink:href="img/mob.png" width="97px" height="77px" preserveAspectRatio="xMinYMin meet" x="479.5" y="-755"/>
<text text-anchor="middle" x="528" y="-710.7" font-family="MS Gothic" font-size="14.00">Miss Ramsden</text>
</g>
<!-- Miss Ramsden&#45;&gt;Woodpecker -->
<g id="edge16" class="edge">
<title>Miss Ramsden&#45;&gt;Woodpecker</title>
<path fill="none" stroke="black" d="M528,-677.61C528,-669.84 528,-661.56 528,-653.46"/>
<polygon fill="black" stroke="black" points="531.5,-653.73 528,-643.73 524.5,-653.73 531.5,-653.73"/>
</g>
<!-- Dux -->
<g id="node18" class="node">
<title>Dux</title>
<polygon fill="lightblue" stroke="lightblue" points="671.5,-755 594.5,-755 594.5,-678 671.5,-678 671.5,-755"/>
<image xlink:href="img/mob.png" width="77px" height="77px" preserveAspectRatio="xMinYMin meet" x="594.5" y="-755"/>
<text text-anchor="middle" x="633" y="-710.7" font-family="MS Gothic" font-size="14.00">Dux</text>
</g>
<!-- Dux&#45;&gt;Misfortune -->
<g id="edge17" class="edge">
<title>Dux&#45;&gt;Misfortune</title>
<path fill="none" stroke="black" d="M633,-677.61C633,-669.84 633,-661.56 633,-653.46"/>
<polygon fill="black" stroke="black" points="636.5,-653.73 633,-643.73 629.5,-653.73 636.5,-653.73"/>
</g>
<!-- Curiosity -->
<g id="node19" class="node">
<title>Curiosity</title>
<polygon fill="lightcoral" stroke="lightcoral" points="766.5,-755 689.5,-755 689.5,-678 766.5,-678 766.5,-755"/>
<image xlink:href="img/mob.png" width="77px" height="77px" preserveAspectRatio="xMinYMin meet" x="689.5" y="-755"/>
<text text-anchor="middle" x="728" y="-710.7" font-family="MS Gothic" font-size="14.00">Curiosity</text>
</g>
<!-- Curiosity&#45;&gt;Misfortune -->
<g id="edge18" class="edge">
<title>Curiosity&#45;&gt;Misfortune</title>
<path fill="none" stroke="black" d="M695.57,-677.61C688.24,-669.04 680.36,-659.84 672.76,-650.96"/>
<polygon fill="black" stroke="black" points="675.43,-648.69 666.27,-643.37 670.11,-653.24 675.43,-648.69"/>
</g>
<!-- Tartar -->
<g id="node20" class="node">
<title>Tartar</title>
<polygon fill="lightblue" stroke="lightblue" points="414.5,-868 337.5,-868 337.5,-791 414.5,-791 414.5,-868"/>
<image xlink:href="img/mob.png" width="77px" height="77px" preserveAspectRatio="xMinYMin meet" x="337.5" y="-868"/>
<text text-anchor="middle" x="376" y="-823.7" font-family="MS Gothic" font-size="14.00">Tartar</text>
</g>
<!-- Tartar&#45;&gt;Herod -->
<g id="edge19" class="edge">
<title>Tartar&#45;&gt;Herod</title>
<path fill="none" stroke="black" d="M392.04,-790.61C395.45,-782.57 399.08,-773.99 402.62,-765.63"/>
<polygon fill="black" stroke="black" points="405.76,-767.19 406.44,-756.61 399.32,-764.46 405.76,-767.19"/>
</g>
<!-- Cypron -->
<g id="node21" class="node">
<title>Cypron</title>
<polygon fill="lightcoral" stroke="lightcoral" points="509.5,-868 432.5,-868 432.5,-791 509.5,-791 509.5,-868"/>
<image xlink:href="img/mob.png" width="77px" height="77px" preserveAspectRatio="xMinYMin meet" x="432.5" y="-868"/>
<text text-anchor="middle" x="471" y="-823.7" font-family="MS Gothic" font-size="14.00">Cypron</text>
</g>
<!-- Cypron&#45;&gt;Herod -->
<g id="edge20" class="edge">
<title>Cypron&#45;&gt;Herod</title>
<path fill="none" stroke="black" d="M454.62,-790.61C451.14,-782.57 447.43,-773.99 443.81,-765.63"/>
<polygon fill="black" stroke="black" points="447.09,-764.4 439.91,-756.61 440.67,-767.18 447.09,-764.4"/>
</g>
<!-- Croft&#39;s Partner -->
<g id="node22" class="node">
<title>Croft&#39;s Partner</title>
<polygon fill="lightblue" stroke="lightblue" points="319.62,-981 202.38,-981 202.38,-904 319.62,-904 319.62,-981"/>
<image xlink:href="img/mob.png" width="100px" height="77px" preserveAspectRatio="xMinYMin meet" x="211" y="-981"/>
<text text-anchor="middle" x="261" y="-936.7" font-family="MS Gothic" font-size="14.00">Croft&#39;s Partner</text>
</g>
<!-- Croft&#39;s Partner&#45;&gt;Tartar -->
<g id="edge21" class="edge">
<title>Croft&#39;s Partner&#45;&gt;Tartar</title>
<path fill="none" stroke="black" d="M300.25,-903.61C309.51,-894.67 319.48,-885.06 329.04,-875.83"/>
<polygon fill="black" stroke="black" points="331.46,-878.36 336.22,-868.89 326.6,-873.32 331.46,-878.36"/>
</g>
<!-- Meliora -->
<g id="node23" class="node">
<title>Meliora</title>
<polygon fill="lightcoral" stroke="lightcoral" points="414.5,-981 337.5,-981 337.5,-904 414.5,-904 414.5,-981"/>
<image xlink:href="img/mob.png" width="77px" height="77px" preserveAspectRatio="xMinYMin meet" x="337.5" y="-981"/>
<text text-anchor="middle" x="376" y="-936.7" font-family="MS Gothic" font-size="14.00">Meliora</text>
</g>
<!-- Meliora&#45;&gt;Tartar -->
<g id="edge22" class="edge">
<title>Meliora&#45;&gt;Tartar</title>
<path fill="none" stroke="black" d="M376,-903.61C376,-895.84 376,-887.56 376,-879.46"/>
<polygon fill="black" stroke="black" points="379.5,-879.73 376,-869.73 372.5,-879.73 379.5,-879.73"/>
</g>
<!-- Blaze -->
<g id="node24" class="node">
<title>Blaze</title>
<polygon fill="lightblue" stroke="lightblue" points="509.5,-981 432.5,-981 432.5,-904 509.5,-904 509.5,-981"/>
<image xlink:href="img/mob.png" width="77px" height="77px" preserveAspectRatio="xMinYMin meet" x="432.5" y="-981"/>
<text text-anchor="middle" x="471" y="-936.7" font-family="MS Gothic" font-size="14.00">Blaze</text>
</g>
<!-- Blaze&#45;&gt;Cypron -->
<g id="edge23" class="edge">
<title>Blaze&#45;&gt;Cypron</title>
<path fill="none" stroke="black" d="M471,-903.61C471,-895.84 471,-887.56 471,-879.46"/>
<polygon fill="black" stroke="black" points="474.5,-879.73 471,-869.73 467.5,-879.73 474.5,-879.73"/>
</g>
<!-- Salome -->
<g id="node25" class="node">
<title>Salome</title>
<polygon fill="lightcoral" stroke="lightcoral" points="604.5,-981 527.5,-981 527.5,-904 604.5,-904 604.5,-981"/>
<image xlink:href="img/mob.png" width="77px" height="77px" preserveAspectRatio="xMinYMin meet" x="527.5" y="-981"/>
<text text-anchor="middle" x="566" y="-936.7" font-family="MS Gothic" font-size="14.00">Salome</text>
</g>
<!-- Salome&#45;&gt;Cypron -->
<g id="edge24" class="edge">
<title>Salome&#45;&gt;Cypron</title>
<path fill="none" stroke="black" d="M533.57,-903.61C526.24,-895.04 518.36,-885.84 510.76,-876.96"/>
<polygon fill="black" stroke="black" points="513.43,-874.69 504.27,-869.37 508.11,-879.24 513.43,-874.69"/>
</g>
<!-- Jigg -->
<g id="node26" class="node">
<title>Jigg</title>
<polygon fill="lightblue" stroke="lightblue" points="232.5,-1094 155.5,-1094 155.5,-1017 232.5,-1017 232.5,-1094"/>
<image xlink:href="img/mob.png" width="77px" height="77px" preserveAspectRatio="xMinYMin meet" x="155.5" y="-1094"/>
<text text-anchor="middle" x="194" y="-1049.7" font-family="MS Gothic" font-size="14.00">Jigg</text>
</g>
<!-- Jigg&#45;&gt;Croft&#39;s Partner -->
<g id="edge25" class="edge">
<title>Jigg&#45;&gt;Croft&#39;s Partner</title>
<path fill="none" stroke="black" d="M216.87,-1016.61C221.83,-1008.39 227.13,-999.6 232.29,-991.07"/>
<polygon fill="black" stroke="black" points="235.28,-992.88 237.45,-982.51 229.29,-989.27 235.28,-992.88"/>
</g>
<!-- Sister One to Mixbury -->
<g id="node27" class="node">
<title>Sister One to Mixbury</title>
<polygon fill="lightcoral" stroke="lightcoral" points="407.88,-1094 250.12,-1094 250.12,-1017 407.88,-1017 407.88,-1094"/>
<image xlink:href="img/mob.png" width="100px" height="77px" preserveAspectRatio="xMinYMin meet" x="279" y="-1094"/>
<text text-anchor="middle" x="329" y="-1049.7" font-family="MS Gothic" font-size="14.00">Sister One to Mixbury</text>
</g>
<!-- Sister One to Mixbury&#45;&gt;Croft&#39;s Partner -->
<g id="edge26" class="edge">
<title>Sister One to Mixbury&#45;&gt;Croft&#39;s Partner</title>
<path fill="none" stroke="black" d="M305.79,-1016.61C300.7,-1008.31 295.25,-999.41 289.97,-990.79"/>
<polygon fill="black" stroke="black" points="293.11,-989.21 284.9,-982.51 287.14,-992.86 293.11,-989.21"/>
</g>
<!-- バイアリーターク -->
<g id="node28" class="node">
<title>バイアリーターク</title>
<polygon fill="lightblue" stroke="lightblue" points="130,-1207 0,-1207 0,-1130 130,-1130 130,-1207"/>
<image xlink:href="img/baiaritaku.png" width="100px" height="77px" preserveAspectRatio="xMinYMin meet" x="15" y="-1207"/>
<text text-anchor="middle" x="65" y="-1162.7" font-family="MS Gothic" font-size="14.00">バイアリーターク</text>
</g>
<!-- バイアリーターク&#45;&gt;Jigg -->
<g id="edge27" class="edge">
<title>バイアリーターク&#45;&gt;Jigg</title>
<path fill="none" stroke="black" d="M109.03,-1129.61C121.25,-1119.1 134.56,-1107.65 146.94,-1096.99"/>
<polygon fill="black" stroke="black" points="148.9,-1099.93 154.19,-1090.75 144.33,-1094.62 148.9,-1099.93"/>
</g>
<!-- Spanker Mare -->
<g id="node29" class="node">
<title>Spanker Mare</title>
<polygon fill="lightcoral" stroke="lightcoral" points="245.5,-1207 148.5,-1207 148.5,-1130 245.5,-1130 245.5,-1207"/>
<image xlink:href="img/mob.png" width="97px" height="77px" preserveAspectRatio="xMinYMin meet" x="148.5" y="-1207"/>
<text text-anchor="middle" x="197" y="-1162.7" font-family="MS Gothic" font-size="14.00">Spanker Mare</text>
</g>
<!-- Spanker Mare&#45;&gt;Jigg -->
<g id="edge28" class="edge">
<title>Spanker Mare&#45;&gt;Jigg</title>
<path fill="none" stroke="black" d="M195.98,-1129.61C195.77,-1121.84 195.54,-1113.56 195.32,-1105.46"/>
<polygon fill="black" stroke="black" points="198.83,-1105.63 195.06,-1095.73 191.83,-1105.82 198.83,-1105.63"/>
</g>
<!-- Curwen Bay Barb -->
<g id="node30" class="node">
<title>Curwen Bay Barb</title>
<polygon fill="lightblue" stroke="lightblue" points="385.62,-1207 268.38,-1207 268.38,-1130 385.62,-1130 385.62,-1207"/>
<image xlink:href="img/mob.png" width="100px" height="77px" preserveAspectRatio="xMinYMin meet" x="277" y="-1207"/>
<text text-anchor="middle" x="327" y="-1162.7" font-family="MS Gothic" font-size="14.00">Curwen Bay Barb</text>
</g>
<!-- Curwen Bay Barb&#45;&gt;Sister One to Mixbury -->
<g id="edge29" class="edge">
<title>Curwen Bay Barb&#45;&gt;Sister One to Mixbury</title>
<path fill="none" stroke="black" d="M327.68,-1129.61C327.82,-1121.84 327.97,-1113.56 328.12,-1105.46"/>
<polygon fill="black" stroke="black" points="331.61,-1105.79 328.29,-1095.73 324.61,-1105.67 331.61,-1105.79"/>
</g>
<!-- Curwen Spot Mare -->
<g id="node31" class="node">
<title>Curwen Spot Mare</title>
<polygon fill="lightcoral" stroke="lightcoral" points="528,-1207 404,-1207 404,-1130 528,-1130 528,-1207"/>
<image xlink:href="img/mob.png" width="100px" height="77px" preserveAspectRatio="xMinYMin meet" x="416" y="-1207"/>
<text text-anchor="middle" x="466" y="-1162.7" font-family="MS Gothic" font-size="14.00">Curwen Spot Mare</text>
</g>
<!-- Curwen Spot Mare&#45;&gt;Sister One to Mixbury -->
<g id="edge30" class="edge">
<title>Curwen Spot Mare&#45;&gt;Sister One to Mixbury</title>
<path fill="none" stroke="black" d="M419.24,-1129.61C407.99,-1120.5 395.88,-1110.69 384.29,-1101.3"/>
<polygon fill="black" stroke="black" points="386.7,-1098.75 376.73,-1095.17 382.3,-1104.19 386.7,-1098.75"/>
</g>
</g>
</svg>
