<?xml version="1.0" encoding="UTF-8" standalone="no"?>
<!DOCTYPE svg PUBLIC "-//W3C//DTD SVG 1.1//EN"
 "http://www.w3.org/Graphics/SVG/1.1/DTD/svg11.dtd">
<!-- Generated by graphviz version 12.1.2 (20240928.0832)
 -->
<!-- Pages: 1 -->
<svg width="1143pt" height="1215pt"
 viewBox="0.00 0.00 1142.88 1215.00" xmlns="http://www.w3.org/2000/svg" xmlns:xlink="http://www.w3.org/1999/xlink">
<g id="graph0" class="graph" transform="scale(1 1) rotate(0) translate(4 1211)">
<polygon fill="white" stroke="none" points="-4,4 -4,-1211 1138.88,-1211 1138.88,4 -4,4"/>
<!-- The Baron -->
<g id="node1" class="node">
<title>The Baron</title>
<polygon fill="none" stroke="black" points="984.62,-77 907.62,-77 907.62,0 984.62,0 984.62,-77"/>
<image xlink:href="img/mob.png" width="77px" height="77px" preserveAspectRatio="xMinYMin meet" x="907.625" y="-77"/>
<text text-anchor="middle" x="946.12" y="-33.45" font-family="Times New Roman,serif" font-size="14.00">The Baron</text>
</g>
<!-- Birdcatcher -->
<g id="node2" class="node">
<title>Birdcatcher</title>
<polygon fill="lightblue" stroke="lightblue" points="940.25,-190 850,-190 850,-113 940.25,-113 940.25,-190"/>
<image xlink:href="img/mob.png" width="90.25px" height="77px" preserveAspectRatio="xMinYMin meet" x="850" y="-190"/>
<text text-anchor="middle" x="895.12" y="-145.7" font-family="MS Gothic" font-size="14.00">Birdcatcher</text>
</g>
<!-- Birdcatcher&#45;&gt;The Baron -->
<g id="edge1" class="edge">
<title>Birdcatcher&#45;&gt;The Baron</title>
<path fill="none" stroke="black" d="M912.53,-112.61C916.23,-104.57 920.17,-95.99 924.01,-87.63"/>
<polygon fill="black" stroke="black" points="927.17,-89.14 928.16,-78.59 920.81,-86.22 927.17,-89.14"/>
</g>
<!-- Echidna -->
<g id="node3" class="node">
<title>Echidna</title>
<polygon fill="lightcoral" stroke="lightcoral" points="1035.62,-190 958.62,-190 958.62,-113 1035.62,-113 1035.62,-190"/>
<image xlink:href="img/mob.png" width="77px" height="77px" preserveAspectRatio="xMinYMin meet" x="958.625" y="-190"/>
<text text-anchor="middle" x="997.12" y="-145.7" font-family="MS Gothic" font-size="14.00">Echidna</text>
</g>
<!-- Echidna&#45;&gt;The Baron -->
<g id="edge2" class="edge">
<title>Echidna&#45;&gt;The Baron</title>
<path fill="none" stroke="black" d="M979.72,-112.61C976.02,-104.57 972.08,-95.99 968.24,-87.63"/>
<polygon fill="black" stroke="black" points="971.44,-86.22 964.09,-78.59 965.08,-89.14 971.44,-86.22"/>
</g>
<!-- Sir Hercules -->
<g id="node4" class="node">
<title>Sir Hercules</title>
<polygon fill="lightblue" stroke="lightblue" points="840.62,-303 743.62,-303 743.62,-226 840.62,-226 840.62,-303"/>
<image xlink:href="img/mob.png" width="97px" height="77px" preserveAspectRatio="xMinYMin meet" x="743.625" y="-303"/>
<text text-anchor="middle" x="792.12" y="-258.7" font-family="MS Gothic" font-size="14.00">Sir Hercules</text>
</g>
<!-- Sir Hercules&#45;&gt;Birdcatcher -->
<g id="edge3" class="edge">
<title>Sir Hercules&#45;&gt;Birdcatcher</title>
<path fill="none" stroke="black" d="M827.28,-225.61C835.4,-216.86 844.13,-207.46 852.53,-198.4"/>
<polygon fill="black" stroke="black" points="854.86,-201.04 859.1,-191.33 849.73,-196.28 854.86,-201.04"/>
</g>
<!-- Guiccioli -->
<g id="node5" class="node">
<title>Guiccioli</title>
<polygon fill="lightcoral" stroke="lightcoral" points="935.62,-303 858.62,-303 858.62,-226 935.62,-226 935.62,-303"/>
<image xlink:href="img/mob.png" width="77px" height="77px" preserveAspectRatio="xMinYMin meet" x="858.625" y="-303"/>
<text text-anchor="middle" x="897.12" y="-258.7" font-family="MS Gothic" font-size="14.00">Guiccioli</text>
</g>
<!-- Guiccioli&#45;&gt;Birdcatcher -->
<g id="edge4" class="edge">
<title>Guiccioli&#45;&gt;Birdcatcher</title>
<path fill="none" stroke="black" d="M896.44,-225.61C896.3,-217.84 896.15,-209.56 896.01,-201.46"/>
<polygon fill="black" stroke="black" points="899.51,-201.67 895.83,-191.73 892.51,-201.79 899.51,-201.67"/>
</g>
<!-- Economist -->
<g id="node6" class="node">
<title>Economist</title>
<polygon fill="lightblue" stroke="lightblue" points="1033.62,-303 956.62,-303 956.62,-226 1033.62,-226 1033.62,-303"/>
<image xlink:href="img/mob.png" width="77px" height="77px" preserveAspectRatio="xMinYMin meet" x="956.625" y="-303"/>
<text text-anchor="middle" x="995.12" y="-258.7" font-family="MS Gothic" font-size="14.00">Economist</text>
</g>
<!-- Economist&#45;&gt;Echidna -->
<g id="edge5" class="edge">
<title>Economist&#45;&gt;Echidna</title>
<path fill="none" stroke="black" d="M995.81,-225.61C995.95,-217.84 996.1,-209.56 996.24,-201.46"/>
<polygon fill="black" stroke="black" points="999.74,-201.79 996.42,-191.73 992.74,-201.67 999.74,-201.79"/>
</g>
<!-- Miss Pratt -->
<g id="node7" class="node">
<title>Miss Pratt</title>
<polygon fill="lightcoral" stroke="lightcoral" points="1134.88,-303 1051.38,-303 1051.38,-226 1134.88,-226 1134.88,-303"/>
<image xlink:href="img/mob.png" width="83.5px" height="77px" preserveAspectRatio="xMinYMin meet" x="1051.38" y="-303"/>
<text text-anchor="middle" x="1093.12" y="-258.7" font-family="MS Gothic" font-size="14.00">Miss Pratt</text>
</g>
<!-- Miss Pratt&#45;&gt;Echidna -->
<g id="edge6" class="edge">
<title>Miss Pratt&#45;&gt;Echidna</title>
<path fill="none" stroke="black" d="M1060.36,-225.61C1052.86,-216.95 1044.82,-207.65 1037.07,-198.68"/>
<polygon fill="black" stroke="black" points="1039.93,-196.64 1030.74,-191.36 1034.63,-201.22 1039.93,-196.64"/>
</g>
<!-- Whalebone -->
<g id="node8" class="node">
<title>Whalebone</title>
<polygon fill="lightblue" stroke="lightblue" points="783.62,-416 706.62,-416 706.62,-339 783.62,-339 783.62,-416"/>
<image xlink:href="img/mob.png" width="77px" height="77px" preserveAspectRatio="xMinYMin meet" x="706.625" y="-416"/>
<text text-anchor="middle" x="745.12" y="-371.7" font-family="MS Gothic" font-size="14.00">Whalebone</text>
</g>
<!-- Whalebone&#45;&gt;Sir Hercules -->
<g id="edge7" class="edge">
<title>Whalebone&#45;&gt;Sir Hercules</title>
<path fill="none" stroke="black" d="M761.17,-338.61C764.57,-330.57 768.21,-321.99 771.75,-313.63"/>
<polygon fill="black" stroke="black" points="774.89,-315.19 775.56,-304.61 768.44,-312.46 774.89,-315.19"/>
</g>
<!-- Peri -->
<g id="node9" class="node">
<title>Peri</title>
<polygon fill="lightcoral" stroke="lightcoral" points="878.62,-416 801.62,-416 801.62,-339 878.62,-339 878.62,-416"/>
<image xlink:href="img/mob.png" width="77px" height="77px" preserveAspectRatio="xMinYMin meet" x="801.625" y="-416"/>
<text text-anchor="middle" x="840.12" y="-371.7" font-family="MS Gothic" font-size="14.00">Peri</text>
</g>
<!-- Peri&#45;&gt;Sir Hercules -->
<g id="edge8" class="edge">
<title>Peri&#45;&gt;Sir Hercules</title>
<path fill="none" stroke="black" d="M823.74,-338.61C820.26,-330.57 816.55,-321.99 812.94,-313.63"/>
<polygon fill="black" stroke="black" points="816.22,-312.4 809.04,-304.61 809.79,-315.18 816.22,-312.4"/>
</g>
<!-- Waxy -->
<g id="node10" class="node">
<title>Waxy</title>
<polygon fill="lightblue" stroke="lightblue" points="688.62,-529 611.62,-529 611.62,-452 688.62,-452 688.62,-529"/>
<image xlink:href="img/mob.png" width="77px" height="77px" preserveAspectRatio="xMinYMin meet" x="611.625" y="-529"/>
<text text-anchor="middle" x="650.12" y="-484.7" font-family="MS Gothic" font-size="14.00">Waxy</text>
</g>
<!-- Waxy&#45;&gt;Whalebone -->
<g id="edge9" class="edge">
<title>Waxy&#45;&gt;Whalebone</title>
<path fill="none" stroke="black" d="M682.55,-451.61C689.89,-443.04 697.76,-433.84 705.36,-424.96"/>
<polygon fill="black" stroke="black" points="708.02,-427.24 711.86,-417.37 702.7,-422.69 708.02,-427.24"/>
</g>
<!-- Penelope -->
<g id="node11" class="node">
<title>Penelope</title>
<polygon fill="lightcoral" stroke="lightcoral" points="783.62,-529 706.62,-529 706.62,-452 783.62,-452 783.62,-529"/>
<image xlink:href="img/mob.png" width="77px" height="77px" preserveAspectRatio="xMinYMin meet" x="706.625" y="-529"/>
<text text-anchor="middle" x="745.12" y="-484.7" font-family="MS Gothic" font-size="14.00">Penelope</text>
</g>
<!-- Penelope&#45;&gt;Whalebone -->
<g id="edge10" class="edge">
<title>Penelope&#45;&gt;Whalebone</title>
<path fill="none" stroke="black" d="M745.12,-451.61C745.12,-443.84 745.12,-435.56 745.12,-427.46"/>
<polygon fill="black" stroke="black" points="748.63,-427.73 745.13,-417.73 741.63,-427.73 748.63,-427.73"/>
</g>
<!-- Wanderer -->
<g id="node12" class="node">
<title>Wanderer</title>
<polygon fill="lightblue" stroke="lightblue" points="878.62,-529 801.62,-529 801.62,-452 878.62,-452 878.62,-529"/>
<image xlink:href="img/mob.png" width="77px" height="77px" preserveAspectRatio="xMinYMin meet" x="801.625" y="-529"/>
<text text-anchor="middle" x="840.12" y="-484.7" font-family="MS Gothic" font-size="14.00">Wanderer</text>
</g>
<!-- Wanderer&#45;&gt;Peri -->
<g id="edge11" class="edge">
<title>Wanderer&#45;&gt;Peri</title>
<path fill="none" stroke="black" d="M840.12,-451.61C840.12,-443.84 840.12,-435.56 840.12,-427.46"/>
<polygon fill="black" stroke="black" points="843.63,-427.73 840.13,-417.73 836.63,-427.73 843.63,-427.73"/>
</g>
<!-- Thalestris -->
<g id="node13" class="node">
<title>Thalestris</title>
<polygon fill="lightcoral" stroke="lightcoral" points="979.88,-529 896.38,-529 896.38,-452 979.88,-452 979.88,-529"/>
<image xlink:href="img/mob.png" width="83.5px" height="77px" preserveAspectRatio="xMinYMin meet" x="896.375" y="-529"/>
<text text-anchor="middle" x="938.12" y="-484.7" font-family="MS Gothic" font-size="14.00">Thalestris</text>
</g>
<!-- Thalestris&#45;&gt;Peri -->
<g id="edge12" class="edge">
<title>Thalestris&#45;&gt;Peri</title>
<path fill="none" stroke="black" d="M904.67,-451.61C897.03,-442.95 888.81,-433.65 880.9,-424.68"/>
<polygon fill="black" stroke="black" points="883.67,-422.53 874.43,-417.35 878.42,-427.17 883.67,-422.53"/>
</g>
<!-- Pot&#45;8&#45;Os -->
<g id="node14" class="node">
<title>Pot&#45;8&#45;Os</title>
<polygon fill="lightblue" stroke="lightblue" points="632.62,-642 555.62,-642 555.62,-565 632.62,-565 632.62,-642"/>
<image xlink:href="img/mob.png" width="77px" height="77px" preserveAspectRatio="xMinYMin meet" x="555.625" y="-642"/>
<text text-anchor="middle" x="594.12" y="-597.7" font-family="MS Gothic" font-size="14.00">Pot&#45;8&#45;Os</text>
</g>
<!-- Pot&#45;8&#45;Os&#45;&gt;Waxy -->
<g id="edge13" class="edge">
<title>Pot&#45;8&#45;Os&#45;&gt;Waxy</title>
<path fill="none" stroke="black" d="M613.24,-564.61C617.34,-556.48 621.72,-547.8 625.99,-539.35"/>
<polygon fill="black" stroke="black" points="629.03,-541.07 630.41,-530.57 622.78,-537.92 629.03,-541.07"/>
</g>
<!-- Maria III -->
<g id="node15" class="node">
<title>Maria III</title>
<polygon fill="lightcoral" stroke="lightcoral" points="744.62,-642 667.62,-642 667.62,-565 744.62,-565 744.62,-642"/>
<image xlink:href="img/mob.png" width="77px" height="77px" preserveAspectRatio="xMinYMin meet" x="667.625" y="-642"/>
<text text-anchor="middle" x="706.12" y="-597.7" font-family="MS Gothic" font-size="14.00">Maria III</text>
</g>
<!-- Maria III&#45;&gt;Waxy -->
<g id="edge14" class="edge">
<title>Maria III&#45;&gt;Waxy</title>
<path fill="none" stroke="black" d="M687.01,-564.61C682.91,-556.48 678.53,-547.8 674.26,-539.35"/>
<polygon fill="black" stroke="black" points="677.47,-537.92 669.84,-530.57 671.22,-541.07 677.47,-537.92"/>
</g>
<!-- Eclipse -->
<g id="node16" class="node">
<title>Eclipse</title>
<polygon fill="lightblue" stroke="lightblue" points="520.62,-755 443.62,-755 443.62,-678 520.62,-678 520.62,-755"/>
<image xlink:href="img/mob.png" width="77px" height="77px" preserveAspectRatio="xMinYMin meet" x="443.625" y="-755"/>
<text text-anchor="middle" x="482.12" y="-710.7" font-family="MS Gothic" font-size="14.00">Eclipse</text>
</g>
<!-- Eclipse&#45;&gt;Pot&#45;8&#45;Os -->
<g id="edge15" class="edge">
<title>Eclipse&#45;&gt;Pot&#45;8&#45;Os</title>
<path fill="none" stroke="black" d="M520.36,-677.61C529.28,-668.77 538.87,-659.26 548.09,-650.13"/>
<polygon fill="black" stroke="black" points="550.35,-652.81 554.99,-643.28 545.42,-647.84 550.35,-652.81"/>
</g>
<!-- Sportsmistress -->
<g id="node17" class="node">
<title>Sportsmistress</title>
<polygon fill="lightcoral" stroke="lightcoral" points="649.38,-755 538.88,-755 538.88,-678 649.38,-678 649.38,-755"/>
<image xlink:href="img/mob.png" width="100px" height="77px" preserveAspectRatio="xMinYMin meet" x="544.125" y="-755"/>
<text text-anchor="middle" x="594.12" y="-710.7" font-family="MS Gothic" font-size="14.00">Sportsmistress</text>
</g>
<!-- Sportsmistress&#45;&gt;Pot&#45;8&#45;Os -->
<g id="edge16" class="edge">
<title>Sportsmistress&#45;&gt;Pot&#45;8&#45;Os</title>
<path fill="none" stroke="black" d="M594.12,-677.61C594.12,-669.84 594.12,-661.56 594.12,-653.46"/>
<polygon fill="black" stroke="black" points="597.63,-653.73 594.13,-643.73 590.63,-653.73 597.63,-653.73"/>
</g>
<!-- Herod -->
<g id="node18" class="node">
<title>Herod</title>
<polygon fill="lightblue" stroke="lightblue" points="744.62,-755 667.62,-755 667.62,-678 744.62,-678 744.62,-755"/>
<image xlink:href="img/mob.png" width="77px" height="77px" preserveAspectRatio="xMinYMin meet" x="667.625" y="-755"/>
<text text-anchor="middle" x="706.12" y="-710.7" font-family="MS Gothic" font-size="14.00">Herod</text>
</g>
<!-- Herod&#45;&gt;Maria III -->
<g id="edge17" class="edge">
<title>Herod&#45;&gt;Maria III</title>
<path fill="none" stroke="black" d="M706.12,-677.61C706.12,-669.84 706.12,-661.56 706.12,-653.46"/>
<polygon fill="black" stroke="black" points="709.63,-653.73 706.13,-643.73 702.63,-653.73 709.63,-653.73"/>
</g>
<!-- Lisette -->
<g id="node19" class="node">
<title>Lisette</title>
<polygon fill="lightcoral" stroke="lightcoral" points="839.62,-755 762.62,-755 762.62,-678 839.62,-678 839.62,-755"/>
<image xlink:href="img/mob.png" width="77px" height="77px" preserveAspectRatio="xMinYMin meet" x="762.625" y="-755"/>
<text text-anchor="middle" x="801.12" y="-710.7" font-family="MS Gothic" font-size="14.00">Lisette</text>
</g>
<!-- Lisette&#45;&gt;Maria III -->
<g id="edge18" class="edge">
<title>Lisette&#45;&gt;Maria III</title>
<path fill="none" stroke="black" d="M768.7,-677.61C761.36,-669.04 753.49,-659.84 745.89,-650.96"/>
<polygon fill="black" stroke="black" points="748.55,-648.69 739.39,-643.37 743.23,-653.24 748.55,-648.69"/>
</g>
<!-- Marske -->
<g id="node20" class="node">
<title>Marske</title>
<polygon fill="lightblue" stroke="lightblue" points="449.62,-868 372.62,-868 372.62,-791 449.62,-791 449.62,-868"/>
<image xlink:href="img/mob.png" width="77px" height="77px" preserveAspectRatio="xMinYMin meet" x="372.625" y="-868"/>
<text text-anchor="middle" x="411.12" y="-823.7" font-family="MS Gothic" font-size="14.00">Marske</text>
</g>
<!-- Marske&#45;&gt;Eclipse -->
<g id="edge19" class="edge">
<title>Marske&#45;&gt;Eclipse</title>
<path fill="none" stroke="black" d="M435.36,-790.61C440.67,-782.31 446.36,-773.41 451.88,-764.79"/>
<polygon fill="black" stroke="black" points="454.74,-766.8 457.18,-756.49 448.85,-763.03 454.74,-766.8"/>
</g>
<!-- Spilletta -->
<g id="node21" class="node">
<title>Spilletta</title>
<polygon fill="lightcoral" stroke="lightcoral" points="591.62,-868 514.62,-868 514.62,-791 591.62,-791 591.62,-868"/>
<image xlink:href="img/mob.png" width="77px" height="77px" preserveAspectRatio="xMinYMin meet" x="514.625" y="-868"/>
<text text-anchor="middle" x="553.12" y="-823.7" font-family="MS Gothic" font-size="14.00">Spilletta</text>
</g>
<!-- Spilletta&#45;&gt;Eclipse -->
<g id="edge20" class="edge">
<title>Spilletta&#45;&gt;Eclipse</title>
<path fill="none" stroke="black" d="M528.89,-790.61C523.58,-782.31 517.89,-773.41 512.37,-764.79"/>
<polygon fill="black" stroke="black" points="515.4,-763.03 507.07,-756.49 509.51,-766.8 515.4,-763.03"/>
</g>
<!-- Squirt -->
<g id="node22" class="node">
<title>Squirt</title>
<polygon fill="lightblue" stroke="lightblue" points="307.62,-981 230.62,-981 230.62,-904 307.62,-904 307.62,-981"/>
<image xlink:href="img/mob.png" width="77px" height="77px" preserveAspectRatio="xMinYMin meet" x="230.625" y="-981"/>
<text text-anchor="middle" x="269.12" y="-936.7" font-family="MS Gothic" font-size="14.00">Squirt</text>
</g>
<!-- Squirt&#45;&gt;Marske -->
<g id="edge21" class="edge">
<title>Squirt&#45;&gt;Marske</title>
<path fill="none" stroke="black" d="M308.07,-910.35C310.79,-908.2 313.5,-906.06 316.12,-904 331.48,-891.94 348.31,-878.87 363.48,-867.14"/>
<polygon fill="black" stroke="black" points="365.22,-870.22 371,-861.33 360.95,-864.67 365.22,-870.22"/>
</g>
<!-- Hutton&#39;s Blacklegs Mare -->
<g id="node23" class="node">
<title>Hutton&#39;s Blacklegs Mare</title>
<polygon fill="lightcoral" stroke="lightcoral" points="496.75,-981 325.5,-981 325.5,-904 496.75,-904 496.75,-981"/>
<image xlink:href="img/mob.png" width="100px" height="77px" preserveAspectRatio="xMinYMin meet" x="361.125" y="-981"/>
<text text-anchor="middle" x="411.12" y="-936.7" font-family="MS Gothic" font-size="14.00">Hutton&#39;s Blacklegs Mare</text>
</g>
<!-- Hutton&#39;s Blacklegs Mare&#45;&gt;Marske -->
<g id="edge22" class="edge">
<title>Hutton&#39;s Blacklegs Mare&#45;&gt;Marske</title>
<path fill="none" stroke="black" d="M411.12,-903.61C411.12,-895.84 411.12,-887.56 411.12,-879.46"/>
<polygon fill="black" stroke="black" points="414.63,-879.73 411.13,-869.73 407.63,-879.73 414.63,-879.73"/>
</g>
<!-- Regulus -->
<g id="node24" class="node">
<title>Regulus</title>
<polygon fill="lightblue" stroke="lightblue" points="591.62,-981 514.62,-981 514.62,-904 591.62,-904 591.62,-981"/>
<image xlink:href="img/mob.png" width="77px" height="77px" preserveAspectRatio="xMinYMin meet" x="514.625" y="-981"/>
<text text-anchor="middle" x="553.12" y="-936.7" font-family="MS Gothic" font-size="14.00">Regulus</text>
</g>
<!-- Regulus&#45;&gt;Spilletta -->
<g id="edge23" class="edge">
<title>Regulus&#45;&gt;Spilletta</title>
<path fill="none" stroke="black" d="M553.12,-903.61C553.12,-895.84 553.12,-887.56 553.12,-879.46"/>
<polygon fill="black" stroke="black" points="556.63,-879.73 553.13,-869.73 549.63,-879.73 556.63,-879.73"/>
</g>
<!-- Mother Western -->
<g id="node25" class="node">
<title>Mother Western</title>
<polygon fill="lightcoral" stroke="lightcoral" points="720.38,-981 609.88,-981 609.88,-904 720.38,-904 720.38,-981"/>
<image xlink:href="img/mob.png" width="100px" height="77px" preserveAspectRatio="xMinYMin meet" x="615.125" y="-981"/>
<text text-anchor="middle" x="665.12" y="-936.7" font-family="MS Gothic" font-size="14.00">Mother Western</text>
</g>
<!-- Mother Western&#45;&gt;Spilletta -->
<g id="edge24" class="edge">
<title>Mother Western&#45;&gt;Spilletta</title>
<path fill="none" stroke="black" d="M626.89,-903.61C617.97,-894.77 608.38,-885.26 599.16,-876.13"/>
<polygon fill="black" stroke="black" points="601.83,-873.84 592.26,-869.28 596.9,-878.81 601.83,-873.84"/>
</g>
<!-- Bartlet&#39;s Childers -->
<g id="node26" class="node">
<title>Bartlet&#39;s Childers</title>
<polygon fill="lightblue" stroke="lightblue" points="273.88,-1094 136.38,-1094 136.38,-1017 273.88,-1017 273.88,-1094"/>
<image xlink:href="img/mob.png" width="100px" height="77px" preserveAspectRatio="xMinYMin meet" x="155.125" y="-1094"/>
<text text-anchor="middle" x="205.12" y="-1049.7" font-family="MS Gothic" font-size="14.00">Bartlet&#39;s Childers</text>
</g>
<!-- Bartlet&#39;s Childers&#45;&gt;Squirt -->
<g id="edge25" class="edge">
<title>Bartlet&#39;s Childers&#45;&gt;Squirt</title>
<path fill="none" stroke="black" d="M226.97,-1016.61C231.71,-1008.39 236.78,-999.6 241.7,-991.07"/>
<polygon fill="black" stroke="black" points="244.66,-992.94 246.62,-982.53 238.59,-989.44 244.66,-992.94"/>
</g>
<!-- Snake Mare -->
<g id="node27" class="node">
<title>Snake Mare</title>
<polygon fill="lightcoral" stroke="lightcoral" points="375.88,-1094 292.38,-1094 292.38,-1017 375.88,-1017 375.88,-1094"/>
<image xlink:href="img/mob.png" width="83.5px" height="77px" preserveAspectRatio="xMinYMin meet" x="292.375" y="-1094"/>
<text text-anchor="middle" x="334.12" y="-1049.7" font-family="MS Gothic" font-size="14.00">Snake Mare</text>
</g>
<!-- Snake Mare&#45;&gt;Squirt -->
<g id="edge26" class="edge">
<title>Snake Mare&#45;&gt;Squirt</title>
<path fill="none" stroke="black" d="M311.94,-1016.61C307.13,-1008.39 301.98,-999.6 296.98,-991.07"/>
<polygon fill="black" stroke="black" points="300.05,-989.39 291.98,-982.52 294.01,-992.92 300.05,-989.39"/>
</g>
<!-- ダーレーアラビアン -->
<g id="node28" class="node">
<title>ダーレーアラビアン</title>
<polygon fill="lightblue" stroke="lightblue" points="144.25,-1207 0,-1207 0,-1130 144.25,-1130 144.25,-1207"/>
<image xlink:href="img/darearabian.png" width="100px" height="77px" preserveAspectRatio="xMinYMin meet" x="22.125" y="-1207"/>
<text text-anchor="middle" x="72.12" y="-1162.7" font-family="MS Gothic" font-size="14.00">ダーレーアラビアン</text>
</g>
<!-- ダーレーアラビアン&#45;&gt;Bartlet&#39;s Childers -->
<g id="edge27" class="edge">
<title>ダーレーアラビアン&#45;&gt;Bartlet&#39;s Childers</title>
<path fill="none" stroke="black" d="M117.52,-1129.61C128.33,-1120.59 139.97,-1110.88 151.12,-1101.57"/>
<polygon fill="black" stroke="black" points="153.33,-1104.28 158.77,-1095.19 148.85,-1098.91 153.33,-1104.28"/>
</g>
<!-- Betty Leedes -->
<g id="node29" class="node">
<title>Betty Leedes</title>
<polygon fill="lightcoral" stroke="lightcoral" points="259.62,-1207 162.62,-1207 162.62,-1130 259.62,-1130 259.62,-1207"/>
<image xlink:href="img/mob.png" width="97px" height="77px" preserveAspectRatio="xMinYMin meet" x="162.625" y="-1207"/>
<text text-anchor="middle" x="211.12" y="-1162.7" font-family="MS Gothic" font-size="14.00">Betty Leedes</text>
</g>
<!-- Betty Leedes&#45;&gt;Bartlet&#39;s Childers -->
<g id="edge28" class="edge">
<title>Betty Leedes&#45;&gt;Bartlet&#39;s Childers</title>
<path fill="none" stroke="black" d="M209.08,-1129.61C208.66,-1121.84 208.21,-1113.56 207.77,-1105.46"/>
<polygon fill="black" stroke="black" points="211.28,-1105.53 207.25,-1095.73 204.29,-1105.9 211.28,-1105.53"/>
</g>
<!-- Snake -->
<g id="node30" class="node">
<title>Snake</title>
<polygon fill="lightblue" stroke="lightblue" points="366.62,-1207 289.62,-1207 289.62,-1130 366.62,-1130 366.62,-1207"/>
<image xlink:href="img/mob.png" width="77px" height="77px" preserveAspectRatio="xMinYMin meet" x="289.625" y="-1207"/>
<text text-anchor="middle" x="328.12" y="-1162.7" font-family="MS Gothic" font-size="14.00">Snake</text>
</g>
<!-- Snake&#45;&gt;Snake Mare -->
<g id="edge29" class="edge">
<title>Snake&#45;&gt;Snake Mare</title>
<path fill="none" stroke="black" d="M330.17,-1129.61C330.59,-1121.84 331.04,-1113.56 331.48,-1105.46"/>
<polygon fill="black" stroke="black" points="334.96,-1105.9 332,-1095.73 327.97,-1105.53 334.96,-1105.9"/>
</g>
<!-- Grey Wilkes -->
<g id="node31" class="node">
<title>Grey Wilkes</title>
<polygon fill="lightcoral" stroke="lightcoral" points="475.25,-1207 385,-1207 385,-1130 475.25,-1130 475.25,-1207"/>
<image xlink:href="img/mob.png" width="90.25px" height="77px" preserveAspectRatio="xMinYMin meet" x="385" y="-1207"/>
<text text-anchor="middle" x="430.12" y="-1162.7" font-family="MS Gothic" font-size="14.00">Grey Wilkes</text>
</g>
<!-- Grey Wilkes&#45;&gt;Snake Mare -->
<g id="edge30" class="edge">
<title>Grey Wilkes&#45;&gt;Snake Mare</title>
<path fill="none" stroke="black" d="M397.36,-1129.61C389.86,-1120.95 381.82,-1111.65 374.07,-1102.68"/>
<polygon fill="black" stroke="black" points="376.93,-1100.64 367.74,-1095.36 371.63,-1105.22 376.93,-1100.64"/>
</g>
</g>
</svg>
