<?xml version="1.0" encoding="UTF-8" standalone="no"?>
<!DOCTYPE svg PUBLIC "-//W3C//DTD SVG 1.1//EN"
 "http://www.w3.org/Graphics/SVG/1.1/DTD/svg11.dtd">
<!-- Generated by graphviz version 12.1.2 (20240928.0832)
 -->
<!-- Pages: 1 -->
<svg width="983pt" height="1215pt"
 viewBox="0.00 0.00 982.62 1215.00" xmlns="http://www.w3.org/2000/svg" xmlns:xlink="http://www.w3.org/1999/xlink">
<g id="graph0" class="graph" transform="scale(1 1) rotate(0) translate(4 1211)">
<polygon fill="white" stroke="none" points="-4,4 -4,-1211 978.62,-1211 978.62,4 -4,4"/>
<!-- Touchstone -->
<g id="node1" class="node">
<title>Touchstone</title>
<polygon fill="none" stroke="black" points="816.25,-77 738,-77 738,0 816.25,0 816.25,-77"/>
<image xlink:href="img/mob.png" width="78.25px" height="77px" preserveAspectRatio="xMinYMin meet" x="738" y="-77"/>
<text text-anchor="middle" x="777.12" y="-33.45" font-family="Times New Roman,serif" font-size="14.00">Touchstone</text>
</g>
<!-- Camel -->
<g id="node2" class="node">
<title>Camel</title>
<polygon fill="lightblue" stroke="lightblue" points="761.62,-190 684.62,-190 684.62,-113 761.62,-113 761.62,-190"/>
<image xlink:href="img/mob.png" width="77px" height="77px" preserveAspectRatio="xMinYMin meet" x="684.625" y="-190"/>
<text text-anchor="middle" x="723.12" y="-145.7" font-family="MS Gothic" font-size="14.00">Camel</text>
</g>
<!-- Camel&#45;&gt;Touchstone -->
<g id="edge1" class="edge">
<title>Camel&#45;&gt;Touchstone</title>
<path fill="none" stroke="black" d="M741.56,-112.61C745.51,-104.48 749.74,-95.8 753.85,-87.35"/>
<polygon fill="black" stroke="black" points="756.89,-89.1 758.11,-78.58 750.59,-86.04 756.89,-89.1"/>
</g>
<!-- Banter -->
<g id="node3" class="node">
<title>Banter</title>
<polygon fill="lightcoral" stroke="lightcoral" points="869.62,-190 792.62,-190 792.62,-113 869.62,-113 869.62,-190"/>
<image xlink:href="img/mob.png" width="77px" height="77px" preserveAspectRatio="xMinYMin meet" x="792.625" y="-190"/>
<text text-anchor="middle" x="831.12" y="-145.7" font-family="MS Gothic" font-size="14.00">Banter</text>
</g>
<!-- Banter&#45;&gt;Touchstone -->
<g id="edge2" class="edge">
<title>Banter&#45;&gt;Touchstone</title>
<path fill="none" stroke="black" d="M812.69,-112.61C808.74,-104.48 804.51,-95.8 800.4,-87.35"/>
<polygon fill="black" stroke="black" points="803.66,-86.04 796.14,-78.58 797.36,-89.1 803.66,-86.04"/>
</g>
<!-- Whalebone -->
<g id="node4" class="node">
<title>Whalebone</title>
<polygon fill="lightblue" stroke="lightblue" points="663.62,-303 586.62,-303 586.62,-226 663.62,-226 663.62,-303"/>
<image xlink:href="img/mob.png" width="77px" height="77px" preserveAspectRatio="xMinYMin meet" x="586.625" y="-303"/>
<text text-anchor="middle" x="625.12" y="-258.7" font-family="MS Gothic" font-size="14.00">Whalebone</text>
</g>
<!-- Whalebone&#45;&gt;Camel -->
<g id="edge3" class="edge">
<title>Whalebone&#45;&gt;Camel</title>
<path fill="none" stroke="black" d="M658.58,-225.61C666.22,-216.95 674.44,-207.65 682.35,-198.68"/>
<polygon fill="black" stroke="black" points="684.83,-201.17 688.82,-191.35 679.58,-196.53 684.83,-201.17"/>
</g>
<!-- Selim Mare -->
<g id="node5" class="node">
<title>Selim Mare</title>
<polygon fill="lightcoral" stroke="lightcoral" points="764.88,-303 681.38,-303 681.38,-226 764.88,-226 764.88,-303"/>
<image xlink:href="img/mob.png" width="83.5px" height="77px" preserveAspectRatio="xMinYMin meet" x="681.375" y="-303"/>
<text text-anchor="middle" x="723.12" y="-258.7" font-family="MS Gothic" font-size="14.00">Selim Mare</text>
</g>
<!-- Selim Mare&#45;&gt;Camel -->
<g id="edge4" class="edge">
<title>Selim Mare&#45;&gt;Camel</title>
<path fill="none" stroke="black" d="M723.12,-225.61C723.12,-217.84 723.12,-209.56 723.12,-201.46"/>
<polygon fill="black" stroke="black" points="726.63,-201.73 723.13,-191.73 719.63,-201.73 726.63,-201.73"/>
</g>
<!-- Master Henry -->
<g id="node6" class="node">
<title>Master Henry</title>
<polygon fill="lightblue" stroke="lightblue" points="879.62,-303 782.62,-303 782.62,-226 879.62,-226 879.62,-303"/>
<image xlink:href="img/mob.png" width="97px" height="77px" preserveAspectRatio="xMinYMin meet" x="782.625" y="-303"/>
<text text-anchor="middle" x="831.12" y="-258.7" font-family="MS Gothic" font-size="14.00">Master Henry</text>
</g>
<!-- Master Henry&#45;&gt;Banter -->
<g id="edge5" class="edge">
<title>Master Henry&#45;&gt;Banter</title>
<path fill="none" stroke="black" d="M831.12,-225.61C831.12,-217.84 831.12,-209.56 831.12,-201.46"/>
<polygon fill="black" stroke="black" points="834.63,-201.73 831.13,-191.73 827.63,-201.73 834.63,-201.73"/>
</g>
<!-- Boadicea -->
<g id="node7" class="node">
<title>Boadicea</title>
<polygon fill="lightcoral" stroke="lightcoral" points="974.62,-303 897.62,-303 897.62,-226 974.62,-226 974.62,-303"/>
<image xlink:href="img/mob.png" width="77px" height="77px" preserveAspectRatio="xMinYMin meet" x="897.625" y="-303"/>
<text text-anchor="middle" x="936.12" y="-258.7" font-family="MS Gothic" font-size="14.00">Boadicea</text>
</g>
<!-- Boadicea&#45;&gt;Banter -->
<g id="edge6" class="edge">
<title>Boadicea&#45;&gt;Banter</title>
<path fill="none" stroke="black" d="M900.28,-225.61C892.01,-216.86 883.11,-207.46 874.55,-198.4"/>
<polygon fill="black" stroke="black" points="877.26,-196.18 867.84,-191.32 872.17,-200.99 877.26,-196.18"/>
</g>
<!-- Waxy -->
<g id="node8" class="node">
<title>Waxy</title>
<polygon fill="lightblue" stroke="lightblue" points="616.62,-416 539.62,-416 539.62,-339 616.62,-339 616.62,-416"/>
<image xlink:href="img/mob.png" width="77px" height="77px" preserveAspectRatio="xMinYMin meet" x="539.625" y="-416"/>
<text text-anchor="middle" x="578.12" y="-371.7" font-family="MS Gothic" font-size="14.00">Waxy</text>
</g>
<!-- Waxy&#45;&gt;Whalebone -->
<g id="edge7" class="edge">
<title>Waxy&#45;&gt;Whalebone</title>
<path fill="none" stroke="black" d="M594.17,-338.61C597.57,-330.57 601.21,-321.99 604.75,-313.63"/>
<polygon fill="black" stroke="black" points="607.89,-315.19 608.56,-304.61 601.44,-312.46 607.89,-315.19"/>
</g>
<!-- Penelope -->
<g id="node9" class="node">
<title>Penelope</title>
<polygon fill="lightcoral" stroke="lightcoral" points="711.62,-416 634.62,-416 634.62,-339 711.62,-339 711.62,-416"/>
<image xlink:href="img/mob.png" width="77px" height="77px" preserveAspectRatio="xMinYMin meet" x="634.625" y="-416"/>
<text text-anchor="middle" x="673.12" y="-371.7" font-family="MS Gothic" font-size="14.00">Penelope</text>
</g>
<!-- Penelope&#45;&gt;Whalebone -->
<g id="edge8" class="edge">
<title>Penelope&#45;&gt;Whalebone</title>
<path fill="none" stroke="black" d="M656.74,-338.61C653.26,-330.57 649.55,-321.99 645.94,-313.63"/>
<polygon fill="black" stroke="black" points="649.22,-312.4 642.04,-304.61 642.79,-315.18 649.22,-312.4"/>
</g>
<!-- Pot&#45;8&#45;Os -->
<g id="node10" class="node">
<title>Pot&#45;8&#45;Os</title>
<polygon fill="lightblue" stroke="lightblue" points="521.62,-529 444.62,-529 444.62,-452 521.62,-452 521.62,-529"/>
<image xlink:href="img/mob.png" width="77px" height="77px" preserveAspectRatio="xMinYMin meet" x="444.625" y="-529"/>
<text text-anchor="middle" x="483.12" y="-484.7" font-family="MS Gothic" font-size="14.00">Pot&#45;8&#45;Os</text>
</g>
<!-- Pot&#45;8&#45;Os&#45;&gt;Waxy -->
<g id="edge9" class="edge">
<title>Pot&#45;8&#45;Os&#45;&gt;Waxy</title>
<path fill="none" stroke="black" d="M515.55,-451.61C522.89,-443.04 530.76,-433.84 538.36,-424.96"/>
<polygon fill="black" stroke="black" points="541.02,-427.24 544.86,-417.37 535.7,-422.69 541.02,-427.24"/>
</g>
<!-- Maria III -->
<g id="node11" class="node">
<title>Maria III</title>
<polygon fill="lightcoral" stroke="lightcoral" points="616.62,-529 539.62,-529 539.62,-452 616.62,-452 616.62,-529"/>
<image xlink:href="img/mob.png" width="77px" height="77px" preserveAspectRatio="xMinYMin meet" x="539.625" y="-529"/>
<text text-anchor="middle" x="578.12" y="-484.7" font-family="MS Gothic" font-size="14.00">Maria III</text>
</g>
<!-- Maria III&#45;&gt;Waxy -->
<g id="edge10" class="edge">
<title>Maria III&#45;&gt;Waxy</title>
<path fill="none" stroke="black" d="M578.12,-451.61C578.12,-443.84 578.12,-435.56 578.12,-427.46"/>
<polygon fill="black" stroke="black" points="581.63,-427.73 578.13,-417.73 574.63,-427.73 581.63,-427.73"/>
</g>
<!-- Trumpator -->
<g id="node12" class="node">
<title>Trumpator</title>
<polygon fill="lightblue" stroke="lightblue" points="711.62,-529 634.62,-529 634.62,-452 711.62,-452 711.62,-529"/>
<image xlink:href="img/mob.png" width="77px" height="77px" preserveAspectRatio="xMinYMin meet" x="634.625" y="-529"/>
<text text-anchor="middle" x="673.12" y="-484.7" font-family="MS Gothic" font-size="14.00">Trumpator</text>
</g>
<!-- Trumpator&#45;&gt;Penelope -->
<g id="edge11" class="edge">
<title>Trumpator&#45;&gt;Penelope</title>
<path fill="none" stroke="black" d="M673.12,-451.61C673.12,-443.84 673.12,-435.56 673.12,-427.46"/>
<polygon fill="black" stroke="black" points="676.63,-427.73 673.13,-417.73 669.63,-427.73 676.63,-427.73"/>
</g>
<!-- Prunella -->
<g id="node13" class="node">
<title>Prunella</title>
<polygon fill="lightcoral" stroke="lightcoral" points="806.62,-529 729.62,-529 729.62,-452 806.62,-452 806.62,-529"/>
<image xlink:href="img/mob.png" width="77px" height="77px" preserveAspectRatio="xMinYMin meet" x="729.625" y="-529"/>
<text text-anchor="middle" x="768.12" y="-484.7" font-family="MS Gothic" font-size="14.00">Prunella</text>
</g>
<!-- Prunella&#45;&gt;Penelope -->
<g id="edge12" class="edge">
<title>Prunella&#45;&gt;Penelope</title>
<path fill="none" stroke="black" d="M735.7,-451.61C728.36,-443.04 720.49,-433.84 712.89,-424.96"/>
<polygon fill="black" stroke="black" points="715.55,-422.69 706.39,-417.37 710.23,-427.24 715.55,-422.69"/>
</g>
<!-- Eclipse -->
<g id="node14" class="node">
<title>Eclipse</title>
<polygon fill="lightblue" stroke="lightblue" points="465.62,-642 388.62,-642 388.62,-565 465.62,-565 465.62,-642"/>
<image xlink:href="img/mob.png" width="77px" height="77px" preserveAspectRatio="xMinYMin meet" x="388.625" y="-642"/>
<text text-anchor="middle" x="427.12" y="-597.7" font-family="MS Gothic" font-size="14.00">Eclipse</text>
</g>
<!-- Eclipse&#45;&gt;Pot&#45;8&#45;Os -->
<g id="edge13" class="edge">
<title>Eclipse&#45;&gt;Pot&#45;8&#45;Os</title>
<path fill="none" stroke="black" d="M446.24,-564.61C450.34,-556.48 454.72,-547.8 458.99,-539.35"/>
<polygon fill="black" stroke="black" points="462.03,-541.07 463.41,-530.57 455.78,-537.92 462.03,-541.07"/>
</g>
<!-- Sportsmistress -->
<g id="node15" class="node">
<title>Sportsmistress</title>
<polygon fill="lightcoral" stroke="lightcoral" points="594.38,-642 483.88,-642 483.88,-565 594.38,-565 594.38,-642"/>
<image xlink:href="img/mob.png" width="100px" height="77px" preserveAspectRatio="xMinYMin meet" x="489.125" y="-642"/>
<text text-anchor="middle" x="539.12" y="-597.7" font-family="MS Gothic" font-size="14.00">Sportsmistress</text>
</g>
<!-- Sportsmistress&#45;&gt;Pot&#45;8&#45;Os -->
<g id="edge14" class="edge">
<title>Sportsmistress&#45;&gt;Pot&#45;8&#45;Os</title>
<path fill="none" stroke="black" d="M520.01,-564.61C515.91,-556.48 511.53,-547.8 507.26,-539.35"/>
<polygon fill="black" stroke="black" points="510.47,-537.92 502.84,-530.57 504.22,-541.07 510.47,-537.92"/>
</g>
<!-- Marske -->
<g id="node16" class="node">
<title>Marske</title>
<polygon fill="lightblue" stroke="lightblue" points="375.62,-755 298.62,-755 298.62,-678 375.62,-678 375.62,-755"/>
<image xlink:href="img/mob.png" width="77px" height="77px" preserveAspectRatio="xMinYMin meet" x="298.625" y="-755"/>
<text text-anchor="middle" x="337.12" y="-710.7" font-family="MS Gothic" font-size="14.00">Marske</text>
</g>
<!-- Marske&#45;&gt;Eclipse -->
<g id="edge15" class="edge">
<title>Marske&#45;&gt;Eclipse</title>
<path fill="none" stroke="black" d="M367.85,-677.61C374.8,-669.04 382.26,-659.84 389.46,-650.96"/>
<polygon fill="black" stroke="black" points="392.01,-653.37 395.59,-643.39 386.57,-648.96 392.01,-653.37"/>
</g>
<!-- Spilletta -->
<g id="node17" class="node">
<title>Spilletta</title>
<polygon fill="lightcoral" stroke="lightcoral" points="470.62,-755 393.62,-755 393.62,-678 470.62,-678 470.62,-755"/>
<image xlink:href="img/mob.png" width="77px" height="77px" preserveAspectRatio="xMinYMin meet" x="393.625" y="-755"/>
<text text-anchor="middle" x="432.12" y="-710.7" font-family="MS Gothic" font-size="14.00">Spilletta</text>
</g>
<!-- Spilletta&#45;&gt;Eclipse -->
<g id="edge16" class="edge">
<title>Spilletta&#45;&gt;Eclipse</title>
<path fill="none" stroke="black" d="M430.42,-677.61C430.07,-669.84 429.7,-661.56 429.33,-653.46"/>
<polygon fill="black" stroke="black" points="432.84,-653.56 428.89,-643.73 425.85,-653.88 432.84,-653.56"/>
</g>
<!-- Sportsman -->
<g id="node18" class="node">
<title>Sportsman</title>
<polygon fill="lightblue" stroke="lightblue" points="573.62,-755 496.62,-755 496.62,-678 573.62,-678 573.62,-755"/>
<image xlink:href="img/mob.png" width="77px" height="77px" preserveAspectRatio="xMinYMin meet" x="496.625" y="-755"/>
<text text-anchor="middle" x="535.12" y="-710.7" font-family="MS Gothic" font-size="14.00">Sportsman</text>
</g>
<!-- Sportsman&#45;&gt;Sportsmistress -->
<g id="edge17" class="edge">
<title>Sportsman&#45;&gt;Sportsmistress</title>
<path fill="none" stroke="black" d="M536.49,-677.61C536.77,-669.84 537.07,-661.56 537.36,-653.46"/>
<polygon fill="black" stroke="black" points="540.85,-653.85 537.71,-643.73 533.85,-653.6 540.85,-653.85"/>
</g>
<!-- Golden Locks -->
<g id="node19" class="node">
<title>Golden Locks</title>
<polygon fill="lightcoral" stroke="lightcoral" points="688.62,-755 591.62,-755 591.62,-678 688.62,-678 688.62,-755"/>
<image xlink:href="img/mob.png" width="97px" height="77px" preserveAspectRatio="xMinYMin meet" x="591.625" y="-755"/>
<text text-anchor="middle" x="640.12" y="-710.7" font-family="MS Gothic" font-size="14.00">Golden Locks</text>
</g>
<!-- Golden Locks&#45;&gt;Sportsmistress -->
<g id="edge18" class="edge">
<title>Golden Locks&#45;&gt;Sportsmistress</title>
<path fill="none" stroke="black" d="M605.65,-677.61C597.77,-668.95 589.3,-659.65 581.15,-650.68"/>
<polygon fill="black" stroke="black" points="583.78,-648.38 574.46,-643.34 578.61,-653.09 583.78,-648.38"/>
</g>
<!-- Squirt -->
<g id="node20" class="node">
<title>Squirt</title>
<polygon fill="lightblue" stroke="lightblue" points="304.62,-868 227.62,-868 227.62,-791 304.62,-791 304.62,-868"/>
<image xlink:href="img/mob.png" width="77px" height="77px" preserveAspectRatio="xMinYMin meet" x="227.625" y="-868"/>
<text text-anchor="middle" x="266.12" y="-823.7" font-family="MS Gothic" font-size="14.00">Squirt</text>
</g>
<!-- Squirt&#45;&gt;Marske -->
<g id="edge19" class="edge">
<title>Squirt&#45;&gt;Marske</title>
<path fill="none" stroke="black" d="M290.36,-790.61C295.67,-782.31 301.36,-773.41 306.88,-764.79"/>
<polygon fill="black" stroke="black" points="309.74,-766.8 312.18,-756.49 303.85,-763.03 309.74,-766.8"/>
</g>
<!-- Hutton&#39;s Blacklegs Mare -->
<g id="node21" class="node">
<title>Hutton&#39;s Blacklegs Mare</title>
<polygon fill="lightcoral" stroke="lightcoral" points="493.75,-868 322.5,-868 322.5,-791 493.75,-791 493.75,-868"/>
<image xlink:href="img/mob.png" width="100px" height="77px" preserveAspectRatio="xMinYMin meet" x="358.125" y="-868"/>
<text text-anchor="middle" x="408.12" y="-823.7" font-family="MS Gothic" font-size="14.00">Hutton&#39;s Blacklegs Mare</text>
</g>
<!-- Hutton&#39;s Blacklegs Mare&#45;&gt;Marske -->
<g id="edge20" class="edge">
<title>Hutton&#39;s Blacklegs Mare&#45;&gt;Marske</title>
<path fill="none" stroke="black" d="M383.89,-790.61C378.58,-782.31 372.89,-773.41 367.37,-764.79"/>
<polygon fill="black" stroke="black" points="370.4,-763.03 362.07,-756.49 364.51,-766.8 370.4,-763.03"/>
</g>
<!-- Bartlet&#39;s Childers -->
<g id="node22" class="node">
<title>Bartlet&#39;s Childers</title>
<polygon fill="lightblue" stroke="lightblue" points="209.88,-981 72.38,-981 72.38,-904 209.88,-904 209.88,-981"/>
<image xlink:href="img/mob.png" width="100px" height="77px" preserveAspectRatio="xMinYMin meet" x="91.125" y="-981"/>
<text text-anchor="middle" x="141.12" y="-936.7" font-family="MS Gothic" font-size="14.00">Bartlet&#39;s Childers</text>
</g>
<!-- Bartlet&#39;s Childers&#45;&gt;Squirt -->
<g id="edge21" class="edge">
<title>Bartlet&#39;s Childers&#45;&gt;Squirt</title>
<path fill="none" stroke="black" d="M183.79,-903.61C195.18,-893.5 207.54,-882.53 219.14,-872.22"/>
<polygon fill="black" stroke="black" points="221.14,-875.13 226.29,-865.87 216.49,-869.89 221.14,-875.13"/>
</g>
<!-- Snake Mare -->
<g id="node23" class="node">
<title>Snake Mare</title>
<polygon fill="lightcoral" stroke="lightcoral" points="311.88,-981 228.38,-981 228.38,-904 311.88,-904 311.88,-981"/>
<image xlink:href="img/mob.png" width="83.5px" height="77px" preserveAspectRatio="xMinYMin meet" x="228.375" y="-981"/>
<text text-anchor="middle" x="270.12" y="-936.7" font-family="MS Gothic" font-size="14.00">Snake Mare</text>
</g>
<!-- Snake Mare&#45;&gt;Squirt -->
<g id="edge22" class="edge">
<title>Snake Mare&#45;&gt;Squirt</title>
<path fill="none" stroke="black" d="M268.76,-903.61C268.48,-895.84 268.18,-887.56 267.89,-879.46"/>
<polygon fill="black" stroke="black" points="271.4,-879.6 267.54,-869.73 264.4,-879.85 271.4,-879.6"/>
</g>
<!-- Hutton&#39;s Blacklegs -->
<g id="node24" class="node">
<title>Hutton&#39;s Blacklegs</title>
<polygon fill="lightblue" stroke="lightblue" points="473.88,-981 336.38,-981 336.38,-904 473.88,-904 473.88,-981"/>
<image xlink:href="img/mob.png" width="100px" height="77px" preserveAspectRatio="xMinYMin meet" x="355.125" y="-981"/>
<text text-anchor="middle" x="405.12" y="-936.7" font-family="MS Gothic" font-size="14.00">Hutton&#39;s Blacklegs</text>
</g>
<!-- Hutton&#39;s Blacklegs&#45;&gt;Hutton&#39;s Blacklegs Mare -->
<g id="edge23" class="edge">
<title>Hutton&#39;s Blacklegs&#45;&gt;Hutton&#39;s Blacklegs Mare</title>
<path fill="none" stroke="black" d="M406.15,-903.61C406.36,-895.84 406.58,-887.56 406.8,-879.46"/>
<polygon fill="black" stroke="black" points="410.29,-879.82 407.06,-869.73 403.3,-879.63 410.29,-879.82"/>
</g>
<!-- Bay Bolton Mare -->
<g id="node25" class="node">
<title>Bay Bolton Mare</title>
<polygon fill="lightcoral" stroke="lightcoral" points="608.75,-981 491.5,-981 491.5,-904 608.75,-904 608.75,-981"/>
<image xlink:href="img/mob.png" width="100px" height="77px" preserveAspectRatio="xMinYMin meet" x="500.125" y="-981"/>
<text text-anchor="middle" x="550.12" y="-936.7" font-family="MS Gothic" font-size="14.00">Bay Bolton Mare</text>
</g>
<!-- Bay Bolton Mare&#45;&gt;Hutton&#39;s Blacklegs Mare -->
<g id="edge24" class="edge">
<title>Bay Bolton Mare&#45;&gt;Hutton&#39;s Blacklegs Mare</title>
<path fill="none" stroke="black" d="M501.65,-903.61C490,-894.5 477.45,-884.69 465.43,-875.3"/>
<polygon fill="black" stroke="black" points="467.6,-872.55 457.57,-869.15 463.29,-878.07 467.6,-872.55"/>
</g>
<!-- ダーレーアラビアン -->
<g id="node26" class="node">
<title>ダーレーアラビアン</title>
<polygon fill="lightblue" stroke="lightblue" points="144.25,-1094 0,-1094 0,-1017 144.25,-1017 144.25,-1094"/>
<image xlink:href="img/darearabian.png" width="100px" height="77px" preserveAspectRatio="xMinYMin meet" x="22.125" y="-1094"/>
<text text-anchor="middle" x="72.12" y="-1049.7" font-family="MS Gothic" font-size="14.00">ダーレーアラビアン</text>
</g>
<!-- ダーレーアラビアン&#45;&gt;Bartlet&#39;s Childers -->
<g id="edge25" class="edge">
<title>ダーレーアラビアン&#45;&gt;Bartlet&#39;s Childers</title>
<path fill="none" stroke="black" d="M95.68,-1016.61C100.84,-1008.31 106.37,-999.41 111.73,-990.79"/>
<polygon fill="black" stroke="black" points="114.57,-992.84 116.88,-982.5 108.63,-989.15 114.57,-992.84"/>
</g>
<!-- Betty Leedes -->
<g id="node27" class="node">
<title>Betty Leedes</title>
<polygon fill="lightcoral" stroke="lightcoral" points="259.62,-1094 162.62,-1094 162.62,-1017 259.62,-1017 259.62,-1094"/>
<image xlink:href="img/mob.png" width="97px" height="77px" preserveAspectRatio="xMinYMin meet" x="162.625" y="-1094"/>
<text text-anchor="middle" x="211.12" y="-1049.7" font-family="MS Gothic" font-size="14.00">Betty Leedes</text>
</g>
<!-- Betty Leedes&#45;&gt;Bartlet&#39;s Childers -->
<g id="edge26" class="edge">
<title>Betty Leedes&#45;&gt;Bartlet&#39;s Childers</title>
<path fill="none" stroke="black" d="M187.23,-1016.61C181.99,-1008.31 176.39,-999.41 170.95,-990.79"/>
<polygon fill="black" stroke="black" points="174.01,-989.09 165.72,-982.5 168.09,-992.82 174.01,-989.09"/>
</g>
<!-- Old Careless -->
<g id="node28" class="node">
<title>Old Careless</title>
<polygon fill="lightblue" stroke="lightblue" points="201.62,-1207 104.62,-1207 104.62,-1130 201.62,-1130 201.62,-1207"/>
<image xlink:href="img/mob.png" width="97px" height="77px" preserveAspectRatio="xMinYMin meet" x="104.625" y="-1207"/>
<text text-anchor="middle" x="153.12" y="-1162.7" font-family="MS Gothic" font-size="14.00">Old Careless</text>
</g>
<!-- Old Careless&#45;&gt;Betty Leedes -->
<g id="edge27" class="edge">
<title>Old Careless&#45;&gt;Betty Leedes</title>
<path fill="none" stroke="black" d="M172.92,-1129.61C177.17,-1121.48 181.71,-1112.8 186.12,-1104.35"/>
<polygon fill="black" stroke="black" points="189.19,-1106.04 190.72,-1095.56 182.98,-1102.8 189.19,-1106.04"/>
</g>
<!-- Cream Cheeks -->
<g id="node29" class="node">
<title>Cream Cheeks</title>
<polygon fill="lightcoral" stroke="lightcoral" points="316.62,-1207 219.62,-1207 219.62,-1130 316.62,-1130 316.62,-1207"/>
<image xlink:href="img/mob.png" width="97px" height="77px" preserveAspectRatio="xMinYMin meet" x="219.625" y="-1207"/>
<text text-anchor="middle" x="268.12" y="-1162.7" font-family="MS Gothic" font-size="14.00">Cream Cheeks</text>
</g>
<!-- Cream Cheeks&#45;&gt;Betty Leedes -->
<g id="edge28" class="edge">
<title>Cream Cheeks&#45;&gt;Betty Leedes</title>
<path fill="none" stroke="black" d="M248.67,-1129.61C244.5,-1121.48 240.03,-1112.8 235.7,-1104.35"/>
<polygon fill="black" stroke="black" points="238.87,-1102.86 231.19,-1095.57 232.64,-1106.06 238.87,-1102.86"/>
</g>
</g>
</svg>
