<?xml version="1.0" encoding="UTF-8" standalone="no"?>
<!DOCTYPE svg PUBLIC "-//W3C//DTD SVG 1.1//EN"
 "http://www.w3.org/Graphics/SVG/1.1/DTD/svg11.dtd">
<!-- Generated by graphviz version 12.1.2 (20240928.0832)
 -->
<!-- Pages: 1 -->
<svg width="1728pt" height="2119pt"
 viewBox="0.00 0.00 1727.50 2119.00" xmlns="http://www.w3.org/2000/svg" xmlns:xlink="http://www.w3.org/1999/xlink">
<g id="graph0" class="graph" transform="scale(1 1) rotate(0) translate(4 2115)">
<polygon fill="white" stroke="none" points="-4,4 -4,-2115 1723.5,-2115 1723.5,4 -4,4"/>
<!-- Tourbillon -->
<g id="node1" class="node">
<title>Tourbillon</title>
<polygon fill="none" stroke="black" points="1570.5,-77 1493.5,-77 1493.5,0 1570.5,0 1570.5,-77"/>
<image xlink:href="img/mob.png" width="77px" height="77px" preserveAspectRatio="xMinYMin meet" x="1493.5" y="-77"/>
<text text-anchor="middle" x="1532" y="-33.45" font-family="Times New Roman,serif" font-size="14.00">Tourbillon</text>
</g>
<!-- Ksar -->
<g id="node2" class="node">
<title>Ksar</title>
<polygon fill="lightblue" stroke="lightblue" points="1516.5,-190 1439.5,-190 1439.5,-113 1516.5,-113 1516.5,-190"/>
<image xlink:href="img/mob.png" width="77px" height="77px" preserveAspectRatio="xMinYMin meet" x="1439.5" y="-190"/>
<text text-anchor="middle" x="1478" y="-145.7" font-family="MS Gothic" font-size="14.00">Ksar</text>
</g>
<!-- Ksar&#45;&gt;Tourbillon -->
<g id="edge1" class="edge">
<title>Ksar&#45;&gt;Tourbillon</title>
<path fill="none" stroke="black" d="M1496.43,-112.61C1500.39,-104.48 1504.61,-95.8 1508.72,-87.35"/>
<polygon fill="black" stroke="black" points="1511.76,-89.1 1512.99,-78.58 1505.47,-86.04 1511.76,-89.1"/>
</g>
<!-- Durban -->
<g id="node3" class="node">
<title>Durban</title>
<polygon fill="lightcoral" stroke="lightcoral" points="1624.5,-190 1547.5,-190 1547.5,-113 1624.5,-113 1624.5,-190"/>
<image xlink:href="img/mob.png" width="77px" height="77px" preserveAspectRatio="xMinYMin meet" x="1547.5" y="-190"/>
<text text-anchor="middle" x="1586" y="-145.7" font-family="MS Gothic" font-size="14.00">Durban</text>
</g>
<!-- Durban&#45;&gt;Tourbillon -->
<g id="edge2" class="edge">
<title>Durban&#45;&gt;Tourbillon</title>
<path fill="none" stroke="black" d="M1567.57,-112.61C1563.61,-104.48 1559.39,-95.8 1555.28,-87.35"/>
<polygon fill="black" stroke="black" points="1558.53,-86.04 1551.01,-78.58 1552.24,-89.1 1558.53,-86.04"/>
</g>
<!-- Bruleur -->
<g id="node4" class="node">
<title>Bruleur</title>
<polygon fill="lightblue" stroke="lightblue" points="1408.5,-303 1331.5,-303 1331.5,-226 1408.5,-226 1408.5,-303"/>
<image xlink:href="img/mob.png" width="77px" height="77px" preserveAspectRatio="xMinYMin meet" x="1331.5" y="-303"/>
<text text-anchor="middle" x="1370" y="-258.7" font-family="MS Gothic" font-size="14.00">Bruleur</text>
</g>
<!-- Bruleur&#45;&gt;Ksar -->
<g id="edge3" class="edge">
<title>Bruleur&#45;&gt;Ksar</title>
<path fill="none" stroke="black" d="M1406.87,-225.61C1415.38,-216.86 1424.53,-207.46 1433.34,-198.4"/>
<polygon fill="black" stroke="black" points="1435.78,-200.91 1440.25,-191.3 1430.76,-196.03 1435.78,-200.91"/>
</g>
<!-- Kizil Kourgan -->
<g id="node5" class="node">
<title>Kizil Kourgan</title>
<polygon fill="lightcoral" stroke="lightcoral" points="1529.88,-303 1426.12,-303 1426.12,-226 1529.88,-226 1529.88,-303"/>
<image xlink:href="img/mob.png" width="100px" height="77px" preserveAspectRatio="xMinYMin meet" x="1428" y="-303"/>
<text text-anchor="middle" x="1478" y="-258.7" font-family="MS Gothic" font-size="14.00">Kizil Kourgan</text>
</g>
<!-- Kizil Kourgan&#45;&gt;Ksar -->
<g id="edge4" class="edge">
<title>Kizil Kourgan&#45;&gt;Ksar</title>
<path fill="none" stroke="black" d="M1478,-225.61C1478,-217.84 1478,-209.56 1478,-201.46"/>
<polygon fill="black" stroke="black" points="1481.5,-201.73 1478,-191.73 1474.5,-201.73 1481.5,-201.73"/>
</g>
<!-- Durbar -->
<g id="node6" class="node">
<title>Durbar</title>
<polygon fill="lightblue" stroke="lightblue" points="1624.5,-303 1547.5,-303 1547.5,-226 1624.5,-226 1624.5,-303"/>
<image xlink:href="img/mob.png" width="77px" height="77px" preserveAspectRatio="xMinYMin meet" x="1547.5" y="-303"/>
<text text-anchor="middle" x="1586" y="-258.7" font-family="MS Gothic" font-size="14.00">Durbar</text>
</g>
<!-- Durbar&#45;&gt;Durban -->
<g id="edge5" class="edge">
<title>Durbar&#45;&gt;Durban</title>
<path fill="none" stroke="black" d="M1586,-225.61C1586,-217.84 1586,-209.56 1586,-201.46"/>
<polygon fill="black" stroke="black" points="1589.5,-201.73 1586,-191.73 1582.5,-201.73 1589.5,-201.73"/>
</g>
<!-- Banshee -->
<g id="node7" class="node">
<title>Banshee</title>
<polygon fill="lightcoral" stroke="lightcoral" points="1719.5,-303 1642.5,-303 1642.5,-226 1719.5,-226 1719.5,-303"/>
<image xlink:href="img/mob.png" width="77px" height="77px" preserveAspectRatio="xMinYMin meet" x="1642.5" y="-303"/>
<text text-anchor="middle" x="1681" y="-258.7" font-family="MS Gothic" font-size="14.00">Banshee</text>
</g>
<!-- Banshee&#45;&gt;Durban -->
<g id="edge6" class="edge">
<title>Banshee&#45;&gt;Durban</title>
<path fill="none" stroke="black" d="M1648.57,-225.61C1641.24,-217.04 1633.36,-207.84 1625.76,-198.96"/>
<polygon fill="black" stroke="black" points="1628.43,-196.69 1619.27,-191.37 1623.11,-201.24 1628.43,-196.69"/>
</g>
<!-- Chouberski -->
<g id="node8" class="node">
<title>Chouberski</title>
<polygon fill="lightblue" stroke="lightblue" points="1359.75,-416 1276.25,-416 1276.25,-339 1359.75,-339 1359.75,-416"/>
<image xlink:href="img/mob.png" width="83.5px" height="77px" preserveAspectRatio="xMinYMin meet" x="1276.25" y="-416"/>
<text text-anchor="middle" x="1318" y="-371.7" font-family="MS Gothic" font-size="14.00">Chouberski</text>
</g>
<!-- Chouberski&#45;&gt;Bruleur -->
<g id="edge7" class="edge">
<title>Chouberski&#45;&gt;Bruleur</title>
<path fill="none" stroke="black" d="M1335.75,-338.61C1339.52,-330.57 1343.54,-321.99 1347.45,-313.63"/>
<polygon fill="black" stroke="black" points="1350.62,-315.13 1351.69,-304.59 1344.28,-312.16 1350.62,-315.13"/>
</g>
<!-- Basse Terre -->
<g id="node9" class="node">
<title>Basse Terre</title>
<polygon fill="lightcoral" stroke="lightcoral" points="1468.12,-416 1377.88,-416 1377.88,-339 1468.12,-339 1468.12,-416"/>
<image xlink:href="img/mob.png" width="90.25px" height="77px" preserveAspectRatio="xMinYMin meet" x="1377.88" y="-416"/>
<text text-anchor="middle" x="1423" y="-371.7" font-family="MS Gothic" font-size="14.00">Basse Terre</text>
</g>
<!-- Basse Terre&#45;&gt;Bruleur -->
<g id="edge8" class="edge">
<title>Basse Terre&#45;&gt;Bruleur</title>
<path fill="none" stroke="black" d="M1404.91,-338.61C1401.03,-330.48 1396.88,-321.8 1392.85,-313.35"/>
<polygon fill="black" stroke="black" points="1396.13,-312.1 1388.66,-304.58 1389.81,-315.12 1396.13,-312.1"/>
</g>
<!-- Gardefeu -->
<g id="node10" class="node">
<title>Gardefeu</title>
<polygon fill="lightblue" stroke="lightblue" points="1264.5,-529 1187.5,-529 1187.5,-452 1264.5,-452 1264.5,-529"/>
<image xlink:href="img/mob.png" width="77px" height="77px" preserveAspectRatio="xMinYMin meet" x="1187.5" y="-529"/>
<text text-anchor="middle" x="1226" y="-484.7" font-family="MS Gothic" font-size="14.00">Gardefeu</text>
</g>
<!-- Gardefeu&#45;&gt;Chouberski -->
<g id="edge9" class="edge">
<title>Gardefeu&#45;&gt;Chouberski</title>
<path fill="none" stroke="black" d="M1257.4,-451.61C1264.51,-443.04 1272.13,-433.84 1279.49,-424.96"/>
<polygon fill="black" stroke="black" points="1282.09,-427.32 1285.77,-417.38 1276.7,-422.85 1282.09,-427.32"/>
</g>
<!-- Campanule -->
<g id="node11" class="node">
<title>Campanule</title>
<polygon fill="lightcoral" stroke="lightcoral" points="1359.5,-529 1282.5,-529 1282.5,-452 1359.5,-452 1359.5,-529"/>
<image xlink:href="img/mob.png" width="77px" height="77px" preserveAspectRatio="xMinYMin meet" x="1282.5" y="-529"/>
<text text-anchor="middle" x="1321" y="-484.7" font-family="MS Gothic" font-size="14.00">Campanule</text>
</g>
<!-- Campanule&#45;&gt;Chouberski -->
<g id="edge10" class="edge">
<title>Campanule&#45;&gt;Chouberski</title>
<path fill="none" stroke="black" d="M1319.98,-451.61C1319.77,-443.84 1319.54,-435.56 1319.32,-427.46"/>
<polygon fill="black" stroke="black" points="1322.83,-427.63 1319.06,-417.73 1315.83,-427.82 1322.83,-427.63"/>
</g>
<!-- Omnium -->
<g id="node12" class="node">
<title>Omnium</title>
<polygon fill="lightblue" stroke="lightblue" points="1459.5,-529 1382.5,-529 1382.5,-452 1459.5,-452 1459.5,-529"/>
<image xlink:href="img/mob.png" width="77px" height="77px" preserveAspectRatio="xMinYMin meet" x="1382.5" y="-529"/>
<text text-anchor="middle" x="1421" y="-484.7" font-family="MS Gothic" font-size="14.00">Omnium</text>
</g>
<!-- Omnium&#45;&gt;Basse Terre -->
<g id="edge11" class="edge">
<title>Omnium&#45;&gt;Basse Terre</title>
<path fill="none" stroke="black" d="M1421.68,-451.61C1421.82,-443.84 1421.97,-435.56 1422.12,-427.46"/>
<polygon fill="black" stroke="black" points="1425.61,-427.79 1422.29,-417.73 1418.61,-427.67 1425.61,-427.79"/>
</g>
<!-- Bijou -->
<g id="node13" class="node">
<title>Bijou</title>
<polygon fill="lightcoral" stroke="lightcoral" points="1554.5,-529 1477.5,-529 1477.5,-452 1554.5,-452 1554.5,-529"/>
<image xlink:href="img/mob.png" width="77px" height="77px" preserveAspectRatio="xMinYMin meet" x="1477.5" y="-529"/>
<text text-anchor="middle" x="1516" y="-484.7" font-family="MS Gothic" font-size="14.00">Bijou</text>
</g>
<!-- Bijou&#45;&gt;Basse Terre -->
<g id="edge12" class="edge">
<title>Bijou&#45;&gt;Basse Terre</title>
<path fill="none" stroke="black" d="M1484.25,-451.61C1477.07,-443.04 1469.37,-433.84 1461.92,-424.96"/>
<polygon fill="black" stroke="black" points="1464.68,-422.8 1455.57,-417.38 1459.31,-427.29 1464.68,-422.8"/>
</g>
<!-- Cambyse -->
<g id="node14" class="node">
<title>Cambyse</title>
<polygon fill="lightblue" stroke="lightblue" points="1217.5,-642 1140.5,-642 1140.5,-565 1217.5,-565 1217.5,-642"/>
<image xlink:href="img/mob.png" width="77px" height="77px" preserveAspectRatio="xMinYMin meet" x="1140.5" y="-642"/>
<text text-anchor="middle" x="1179" y="-597.7" font-family="MS Gothic" font-size="14.00">Cambyse</text>
</g>
<!-- Cambyse&#45;&gt;Gardefeu -->
<g id="edge13" class="edge">
<title>Cambyse&#45;&gt;Gardefeu</title>
<path fill="none" stroke="black" d="M1195.04,-564.61C1198.45,-556.57 1202.08,-547.99 1205.62,-539.63"/>
<polygon fill="black" stroke="black" points="1208.76,-541.19 1209.44,-530.61 1202.32,-538.46 1208.76,-541.19"/>
</g>
<!-- Bougie -->
<g id="node15" class="node">
<title>Bougie</title>
<polygon fill="lightcoral" stroke="lightcoral" points="1312.5,-642 1235.5,-642 1235.5,-565 1312.5,-565 1312.5,-642"/>
<image xlink:href="img/mob.png" width="77px" height="77px" preserveAspectRatio="xMinYMin meet" x="1235.5" y="-642"/>
<text text-anchor="middle" x="1274" y="-597.7" font-family="MS Gothic" font-size="14.00">Bougie</text>
</g>
<!-- Bougie&#45;&gt;Gardefeu -->
<g id="edge14" class="edge">
<title>Bougie&#45;&gt;Gardefeu</title>
<path fill="none" stroke="black" d="M1257.62,-564.61C1254.14,-556.57 1250.43,-547.99 1246.81,-539.63"/>
<polygon fill="black" stroke="black" points="1250.09,-538.4 1242.91,-530.61 1243.67,-541.18 1250.09,-538.4"/>
</g>
<!-- Androcles -->
<g id="node16" class="node">
<title>Androcles</title>
<polygon fill="lightblue" stroke="lightblue" points="1122.5,-755 1045.5,-755 1045.5,-678 1122.5,-678 1122.5,-755"/>
<image xlink:href="img/mob.png" width="77px" height="77px" preserveAspectRatio="xMinYMin meet" x="1045.5" y="-755"/>
<text text-anchor="middle" x="1084" y="-710.7" font-family="MS Gothic" font-size="14.00">Androcles</text>
</g>
<!-- Androcles&#45;&gt;Cambyse -->
<g id="edge15" class="edge">
<title>Androcles&#45;&gt;Cambyse</title>
<path fill="none" stroke="black" d="M1116.43,-677.61C1123.76,-669.04 1131.64,-659.84 1139.24,-650.96"/>
<polygon fill="black" stroke="black" points="1141.89,-653.24 1145.73,-643.37 1136.57,-648.69 1141.89,-653.24"/>
</g>
<!-- Cambuse -->
<g id="node17" class="node">
<title>Cambuse</title>
<polygon fill="lightcoral" stroke="lightcoral" points="1217.5,-755 1140.5,-755 1140.5,-678 1217.5,-678 1217.5,-755"/>
<image xlink:href="img/mob.png" width="77px" height="77px" preserveAspectRatio="xMinYMin meet" x="1140.5" y="-755"/>
<text text-anchor="middle" x="1179" y="-710.7" font-family="MS Gothic" font-size="14.00">Cambuse</text>
</g>
<!-- Cambuse&#45;&gt;Cambyse -->
<g id="edge16" class="edge">
<title>Cambuse&#45;&gt;Cambyse</title>
<path fill="none" stroke="black" d="M1179,-677.61C1179,-669.84 1179,-661.56 1179,-653.46"/>
<polygon fill="black" stroke="black" points="1182.5,-653.73 1179,-643.73 1175.5,-653.73 1182.5,-653.73"/>
</g>
<!-- Bruce -->
<g id="node18" class="node">
<title>Bruce</title>
<polygon fill="lightblue" stroke="lightblue" points="1312.5,-755 1235.5,-755 1235.5,-678 1312.5,-678 1312.5,-755"/>
<image xlink:href="img/mob.png" width="77px" height="77px" preserveAspectRatio="xMinYMin meet" x="1235.5" y="-755"/>
<text text-anchor="middle" x="1274" y="-710.7" font-family="MS Gothic" font-size="14.00">Bruce</text>
</g>
<!-- Bruce&#45;&gt;Bougie -->
<g id="edge17" class="edge">
<title>Bruce&#45;&gt;Bougie</title>
<path fill="none" stroke="black" d="M1274,-677.61C1274,-669.84 1274,-661.56 1274,-653.46"/>
<polygon fill="black" stroke="black" points="1277.5,-653.73 1274,-643.73 1270.5,-653.73 1277.5,-653.73"/>
</g>
<!-- La Lumiere -->
<g id="node19" class="node">
<title>La Lumiere</title>
<polygon fill="lightcoral" stroke="lightcoral" points="1413.75,-755 1330.25,-755 1330.25,-678 1413.75,-678 1413.75,-755"/>
<image xlink:href="img/mob.png" width="83.5px" height="77px" preserveAspectRatio="xMinYMin meet" x="1330.25" y="-755"/>
<text text-anchor="middle" x="1372" y="-710.7" font-family="MS Gothic" font-size="14.00">La Lumiere</text>
</g>
<!-- La Lumiere&#45;&gt;Bougie -->
<g id="edge18" class="edge">
<title>La Lumiere&#45;&gt;Bougie</title>
<path fill="none" stroke="black" d="M1338.55,-677.61C1330.9,-668.95 1322.69,-659.65 1314.77,-650.68"/>
<polygon fill="black" stroke="black" points="1317.55,-648.53 1308.3,-643.35 1312.3,-653.17 1317.55,-648.53"/>
</g>
<!-- Dollar -->
<g id="node20" class="node">
<title>Dollar</title>
<polygon fill="lightblue" stroke="lightblue" points="1075.5,-868 998.5,-868 998.5,-791 1075.5,-791 1075.5,-868"/>
<image xlink:href="img/mob.png" width="77px" height="77px" preserveAspectRatio="xMinYMin meet" x="998.5" y="-868"/>
<text text-anchor="middle" x="1037" y="-823.7" font-family="MS Gothic" font-size="14.00">Dollar</text>
</g>
<!-- Dollar&#45;&gt;Androcles -->
<g id="edge19" class="edge">
<title>Dollar&#45;&gt;Androcles</title>
<path fill="none" stroke="black" d="M1053.04,-790.61C1056.45,-782.57 1060.08,-773.99 1063.62,-765.63"/>
<polygon fill="black" stroke="black" points="1066.76,-767.19 1067.44,-756.61 1060.32,-764.46 1066.76,-767.19"/>
</g>
<!-- Alabama -->
<g id="node21" class="node">
<title>Alabama</title>
<polygon fill="lightcoral" stroke="lightcoral" points="1170.5,-868 1093.5,-868 1093.5,-791 1170.5,-791 1170.5,-868"/>
<image xlink:href="img/mob.png" width="77px" height="77px" preserveAspectRatio="xMinYMin meet" x="1093.5" y="-868"/>
<text text-anchor="middle" x="1132" y="-823.7" font-family="MS Gothic" font-size="14.00">Alabama</text>
</g>
<!-- Alabama&#45;&gt;Androcles -->
<g id="edge20" class="edge">
<title>Alabama&#45;&gt;Androcles</title>
<path fill="none" stroke="black" d="M1115.62,-790.61C1112.14,-782.57 1108.43,-773.99 1104.81,-765.63"/>
<polygon fill="black" stroke="black" points="1108.09,-764.4 1100.91,-756.61 1101.67,-767.18 1108.09,-764.4"/>
</g>
<!-- The Flying Dutchman -->
<g id="node22" class="node">
<title>The Flying Dutchman</title>
<polygon fill="lightblue" stroke="lightblue" points="980.12,-981 835.88,-981 835.88,-904 980.12,-904 980.12,-981"/>
<image xlink:href="img/mob.png" width="100px" height="77px" preserveAspectRatio="xMinYMin meet" x="858" y="-981"/>
<text text-anchor="middle" x="908" y="-936.7" font-family="MS Gothic" font-size="14.00">The Flying Dutchman</text>
</g>
<!-- The Flying Dutchman&#45;&gt;Dollar -->
<g id="edge21" class="edge">
<title>The Flying Dutchman&#45;&gt;Dollar</title>
<path fill="none" stroke="black" d="M952.03,-903.61C964.25,-893.1 977.56,-881.65 989.94,-870.99"/>
<polygon fill="black" stroke="black" points="991.9,-873.93 997.19,-864.75 987.33,-868.62 991.9,-873.93"/>
</g>
<!-- Payment -->
<g id="node23" class="node">
<title>Payment</title>
<polygon fill="lightcoral" stroke="lightcoral" points="1075.5,-981 998.5,-981 998.5,-904 1075.5,-904 1075.5,-981"/>
<image xlink:href="img/mob.png" width="77px" height="77px" preserveAspectRatio="xMinYMin meet" x="998.5" y="-981"/>
<text text-anchor="middle" x="1037" y="-936.7" font-family="MS Gothic" font-size="14.00">Payment</text>
</g>
<!-- Payment&#45;&gt;Dollar -->
<g id="edge22" class="edge">
<title>Payment&#45;&gt;Dollar</title>
<path fill="none" stroke="black" d="M1037,-903.61C1037,-895.84 1037,-887.56 1037,-879.46"/>
<polygon fill="black" stroke="black" points="1040.5,-879.73 1037,-869.73 1033.5,-879.73 1040.5,-879.73"/>
</g>
<!-- Serious -->
<g id="node24" class="node">
<title>Serious</title>
<polygon fill="lightblue" stroke="lightblue" points="1170.5,-981 1093.5,-981 1093.5,-904 1170.5,-904 1170.5,-981"/>
<image xlink:href="img/mob.png" width="77px" height="77px" preserveAspectRatio="xMinYMin meet" x="1093.5" y="-981"/>
<text text-anchor="middle" x="1132" y="-936.7" font-family="MS Gothic" font-size="14.00">Serious</text>
</g>
<!-- Serious&#45;&gt;Alabama -->
<g id="edge23" class="edge">
<title>Serious&#45;&gt;Alabama</title>
<path fill="none" stroke="black" d="M1132,-903.61C1132,-895.84 1132,-887.56 1132,-879.46"/>
<polygon fill="black" stroke="black" points="1135.5,-879.73 1132,-869.73 1128.5,-879.73 1135.5,-879.73"/>
</g>
<!-- Admiralty -->
<g id="node25" class="node">
<title>Admiralty</title>
<polygon fill="lightcoral" stroke="lightcoral" points="1265.5,-981 1188.5,-981 1188.5,-904 1265.5,-904 1265.5,-981"/>
<image xlink:href="img/mob.png" width="77px" height="77px" preserveAspectRatio="xMinYMin meet" x="1188.5" y="-981"/>
<text text-anchor="middle" x="1227" y="-936.7" font-family="MS Gothic" font-size="14.00">Admiralty</text>
</g>
<!-- Admiralty&#45;&gt;Alabama -->
<g id="edge24" class="edge">
<title>Admiralty&#45;&gt;Alabama</title>
<path fill="none" stroke="black" d="M1194.57,-903.61C1187.24,-895.04 1179.36,-885.84 1171.76,-876.96"/>
<polygon fill="black" stroke="black" points="1174.43,-874.69 1165.27,-869.37 1169.11,-879.24 1174.43,-874.69"/>
</g>
<!-- Bay Middleton -->
<g id="node26" class="node">
<title>Bay Middleton</title>
<polygon fill="lightblue" stroke="lightblue" points="905.88,-1094 802.12,-1094 802.12,-1017 905.88,-1017 905.88,-1094"/>
<image xlink:href="img/mob.png" width="100px" height="77px" preserveAspectRatio="xMinYMin meet" x="804" y="-1094"/>
<text text-anchor="middle" x="854" y="-1049.7" font-family="MS Gothic" font-size="14.00">Bay Middleton</text>
</g>
<!-- Bay Middleton&#45;&gt;The Flying Dutchman -->
<g id="edge25" class="edge">
<title>Bay Middleton&#45;&gt;The Flying Dutchman</title>
<path fill="none" stroke="black" d="M872.43,-1016.61C876.39,-1008.48 880.61,-999.8 884.72,-991.35"/>
<polygon fill="black" stroke="black" points="887.76,-993.1 888.99,-982.58 881.47,-990.04 887.76,-993.1"/>
</g>
<!-- Barbelle -->
<g id="node27" class="node">
<title>Barbelle</title>
<polygon fill="lightcoral" stroke="lightcoral" points="1000.5,-1094 923.5,-1094 923.5,-1017 1000.5,-1017 1000.5,-1094"/>
<image xlink:href="img/mob.png" width="77px" height="77px" preserveAspectRatio="xMinYMin meet" x="923.5" y="-1094"/>
<text text-anchor="middle" x="962" y="-1049.7" font-family="MS Gothic" font-size="14.00">Barbelle</text>
</g>
<!-- Barbelle&#45;&gt;The Flying Dutchman -->
<g id="edge26" class="edge">
<title>Barbelle&#45;&gt;The Flying Dutchman</title>
<path fill="none" stroke="black" d="M943.57,-1016.61C939.61,-1008.48 935.39,-999.8 931.28,-991.35"/>
<polygon fill="black" stroke="black" points="934.53,-990.04 927.01,-982.58 928.24,-993.1 934.53,-990.04"/>
</g>
<!-- Sultan -->
<g id="node28" class="node">
<title>Sultan</title>
<polygon fill="lightblue" stroke="lightblue" points="801.5,-1207 724.5,-1207 724.5,-1130 801.5,-1130 801.5,-1207"/>
<image xlink:href="img/mob.png" width="77px" height="77px" preserveAspectRatio="xMinYMin meet" x="724.5" y="-1207"/>
<text text-anchor="middle" x="763" y="-1162.7" font-family="MS Gothic" font-size="14.00">Sultan</text>
</g>
<!-- Sultan&#45;&gt;Bay Middleton -->
<g id="edge27" class="edge">
<title>Sultan&#45;&gt;Bay Middleton</title>
<path fill="none" stroke="black" d="M794.06,-1129.61C801.09,-1121.04 808.63,-1111.84 815.91,-1102.96"/>
<polygon fill="black" stroke="black" points="818.48,-1105.34 822.12,-1095.39 813.07,-1100.9 818.48,-1105.34"/>
</g>
<!-- Cobweb -->
<g id="node29" class="node">
<title>Cobweb</title>
<polygon fill="lightcoral" stroke="lightcoral" points="896.5,-1207 819.5,-1207 819.5,-1130 896.5,-1130 896.5,-1207"/>
<image xlink:href="img/mob.png" width="77px" height="77px" preserveAspectRatio="xMinYMin meet" x="819.5" y="-1207"/>
<text text-anchor="middle" x="858" y="-1162.7" font-family="MS Gothic" font-size="14.00">Cobweb</text>
</g>
<!-- Cobweb&#45;&gt;Bay Middleton -->
<g id="edge28" class="edge">
<title>Cobweb&#45;&gt;Bay Middleton</title>
<path fill="none" stroke="black" d="M856.63,-1129.61C856.35,-1121.84 856.06,-1113.56 855.76,-1105.46"/>
<polygon fill="black" stroke="black" points="859.27,-1105.6 855.41,-1095.73 852.28,-1105.85 859.27,-1105.6"/>
</g>
<!-- Sandbeck -->
<g id="node30" class="node">
<title>Sandbeck</title>
<polygon fill="lightblue" stroke="lightblue" points="997.5,-1207 920.5,-1207 920.5,-1130 997.5,-1130 997.5,-1207"/>
<image xlink:href="img/mob.png" width="77px" height="77px" preserveAspectRatio="xMinYMin meet" x="920.5" y="-1207"/>
<text text-anchor="middle" x="959" y="-1162.7" font-family="MS Gothic" font-size="14.00">Sandbeck</text>
</g>
<!-- Sandbeck&#45;&gt;Barbelle -->
<g id="edge29" class="edge">
<title>Sandbeck&#45;&gt;Barbelle</title>
<path fill="none" stroke="black" d="M960.02,-1129.61C960.23,-1121.84 960.46,-1113.56 960.68,-1105.46"/>
<polygon fill="black" stroke="black" points="964.17,-1105.82 960.94,-1095.73 957.17,-1105.63 964.17,-1105.82"/>
</g>
<!-- Darioletta -->
<g id="node31" class="node">
<title>Darioletta</title>
<polygon fill="lightcoral" stroke="lightcoral" points="1098.75,-1207 1015.25,-1207 1015.25,-1130 1098.75,-1130 1098.75,-1207"/>
<image xlink:href="img/mob.png" width="83.5px" height="77px" preserveAspectRatio="xMinYMin meet" x="1015.25" y="-1207"/>
<text text-anchor="middle" x="1057" y="-1162.7" font-family="MS Gothic" font-size="14.00">Darioletta</text>
</g>
<!-- Darioletta&#45;&gt;Barbelle -->
<g id="edge30" class="edge">
<title>Darioletta&#45;&gt;Barbelle</title>
<path fill="none" stroke="black" d="M1024.57,-1129.61C1017.24,-1121.04 1009.36,-1111.84 1001.76,-1102.96"/>
<polygon fill="black" stroke="black" points="1004.43,-1100.69 995.27,-1095.37 999.11,-1105.24 1004.43,-1100.69"/>
</g>
<!-- Selim -->
<g id="node32" class="node">
<title>Selim</title>
<polygon fill="lightblue" stroke="lightblue" points="730.5,-1320 653.5,-1320 653.5,-1243 730.5,-1243 730.5,-1320"/>
<image xlink:href="img/mob.png" width="77px" height="77px" preserveAspectRatio="xMinYMin meet" x="653.5" y="-1320"/>
<text text-anchor="middle" x="692" y="-1275.7" font-family="MS Gothic" font-size="14.00">Selim</text>
</g>
<!-- Selim&#45;&gt;Sultan -->
<g id="edge31" class="edge">
<title>Selim&#45;&gt;Sultan</title>
<path fill="none" stroke="black" d="M716.24,-1242.61C721.55,-1234.31 727.24,-1225.41 732.75,-1216.79"/>
<polygon fill="black" stroke="black" points="735.62,-1218.8 738.06,-1208.49 729.72,-1215.03 735.62,-1218.8"/>
</g>
<!-- Bacchante -->
<g id="node33" class="node">
<title>Bacchante</title>
<polygon fill="lightcoral" stroke="lightcoral" points="872.5,-1320 795.5,-1320 795.5,-1243 872.5,-1243 872.5,-1320"/>
<image xlink:href="img/mob.png" width="77px" height="77px" preserveAspectRatio="xMinYMin meet" x="795.5" y="-1320"/>
<text text-anchor="middle" x="834" y="-1275.7" font-family="MS Gothic" font-size="14.00">Bacchante</text>
</g>
<!-- Bacchante&#45;&gt;Sultan -->
<g id="edge32" class="edge">
<title>Bacchante&#45;&gt;Sultan</title>
<path fill="none" stroke="black" d="M809.76,-1242.61C804.45,-1234.31 798.76,-1225.41 793.25,-1216.79"/>
<polygon fill="black" stroke="black" points="796.28,-1215.03 787.94,-1208.49 790.38,-1218.8 796.28,-1215.03"/>
</g>
<!-- Buzzard -->
<g id="node34" class="node">
<title>Buzzard</title>
<polygon fill="lightblue" stroke="lightblue" points="618.5,-1433 541.5,-1433 541.5,-1356 618.5,-1356 618.5,-1433"/>
<image xlink:href="img/mob.png" width="77px" height="77px" preserveAspectRatio="xMinYMin meet" x="541.5" y="-1433"/>
<text text-anchor="middle" x="580" y="-1388.7" font-family="MS Gothic" font-size="14.00">Buzzard</text>
</g>
<!-- Buzzard&#45;&gt;Selim -->
<g id="edge33" class="edge">
<title>Buzzard&#45;&gt;Selim</title>
<path fill="none" stroke="black" d="M618.23,-1355.61C627.15,-1346.77 636.74,-1337.26 645.96,-1328.13"/>
<polygon fill="black" stroke="black" points="648.23,-1330.81 652.87,-1321.28 643.3,-1325.84 648.23,-1330.81"/>
</g>
<!-- Alexander Mare -->
<g id="node35" class="node">
<title>Alexander Mare</title>
<polygon fill="lightcoral" stroke="lightcoral" points="747.25,-1433 636.75,-1433 636.75,-1356 747.25,-1356 747.25,-1433"/>
<image xlink:href="img/mob.png" width="100px" height="77px" preserveAspectRatio="xMinYMin meet" x="642" y="-1433"/>
<text text-anchor="middle" x="692" y="-1388.7" font-family="MS Gothic" font-size="14.00">Alexander Mare</text>
</g>
<!-- Alexander Mare&#45;&gt;Selim -->
<g id="edge34" class="edge">
<title>Alexander Mare&#45;&gt;Selim</title>
<path fill="none" stroke="black" d="M692,-1355.61C692,-1347.84 692,-1339.56 692,-1331.46"/>
<polygon fill="black" stroke="black" points="695.5,-1331.73 692,-1321.73 688.5,-1331.73 695.5,-1331.73"/>
</g>
<!-- Williamson&#39;s Ditto -->
<g id="node36" class="node">
<title>Williamson&#39;s Ditto</title>
<polygon fill="lightblue" stroke="lightblue" points="902.75,-1433 765.25,-1433 765.25,-1356 902.75,-1356 902.75,-1433"/>
<image xlink:href="img/mob.png" width="100px" height="77px" preserveAspectRatio="xMinYMin meet" x="784" y="-1433"/>
<text text-anchor="middle" x="834" y="-1388.7" font-family="MS Gothic" font-size="14.00">Williamson&#39;s Ditto</text>
</g>
<!-- Williamson&#39;s Ditto&#45;&gt;Bacchante -->
<g id="edge35" class="edge">
<title>Williamson&#39;s Ditto&#45;&gt;Bacchante</title>
<path fill="none" stroke="black" d="M834,-1355.61C834,-1347.84 834,-1339.56 834,-1331.46"/>
<polygon fill="black" stroke="black" points="837.5,-1331.73 834,-1321.73 830.5,-1331.73 837.5,-1331.73"/>
</g>
<!-- Mercury Mare -->
<g id="node37" class="node">
<title>Mercury Mare</title>
<polygon fill="lightcoral" stroke="lightcoral" points="1017.5,-1433 920.5,-1433 920.5,-1356 1017.5,-1356 1017.5,-1433"/>
<image xlink:href="img/mob.png" width="97px" height="77px" preserveAspectRatio="xMinYMin meet" x="920.5" y="-1433"/>
<text text-anchor="middle" x="969" y="-1388.7" font-family="MS Gothic" font-size="14.00">Mercury Mare</text>
</g>
<!-- Mercury Mare&#45;&gt;Bacchante -->
<g id="edge36" class="edge">
<title>Mercury Mare&#45;&gt;Bacchante</title>
<path fill="none" stroke="black" d="M922.92,-1355.61C909.51,-1344.59 894.84,-1332.53 881.36,-1321.44"/>
<polygon fill="black" stroke="black" points="883.81,-1318.92 873.86,-1315.27 879.36,-1324.33 883.81,-1318.92"/>
</g>
<!-- Woodpecker -->
<g id="node38" class="node">
<title>Woodpecker</title>
<polygon fill="lightblue" stroke="lightblue" points="569.75,-1546 486.25,-1546 486.25,-1469 569.75,-1469 569.75,-1546"/>
<image xlink:href="img/mob.png" width="83.5px" height="77px" preserveAspectRatio="xMinYMin meet" x="486.25" y="-1546"/>
<text text-anchor="middle" x="528" y="-1501.7" font-family="MS Gothic" font-size="14.00">Woodpecker</text>
</g>
<!-- Woodpecker&#45;&gt;Buzzard -->
<g id="edge37" class="edge">
<title>Woodpecker&#45;&gt;Buzzard</title>
<path fill="none" stroke="black" d="M545.75,-1468.61C549.52,-1460.57 553.54,-1451.99 557.45,-1443.63"/>
<polygon fill="black" stroke="black" points="560.62,-1445.13 561.69,-1434.59 554.28,-1442.16 560.62,-1445.13"/>
</g>
<!-- Misfortune -->
<g id="node39" class="node">
<title>Misfortune</title>
<polygon fill="lightcoral" stroke="lightcoral" points="674.75,-1546 591.25,-1546 591.25,-1469 674.75,-1469 674.75,-1546"/>
<image xlink:href="img/mob.png" width="83.5px" height="77px" preserveAspectRatio="xMinYMin meet" x="591.25" y="-1546"/>
<text text-anchor="middle" x="633" y="-1501.7" font-family="MS Gothic" font-size="14.00">Misfortune</text>
</g>
<!-- Misfortune&#45;&gt;Buzzard -->
<g id="edge38" class="edge">
<title>Misfortune&#45;&gt;Buzzard</title>
<path fill="none" stroke="black" d="M614.91,-1468.61C611.03,-1460.48 606.88,-1451.8 602.85,-1443.35"/>
<polygon fill="black" stroke="black" points="606.13,-1442.1 598.66,-1434.58 599.81,-1445.12 606.13,-1442.1"/>
</g>
<!-- Herod -->
<g id="node40" class="node">
<title>Herod</title>
<polygon fill="lightblue" stroke="lightblue" points="461.5,-1659 384.5,-1659 384.5,-1582 461.5,-1582 461.5,-1659"/>
<image xlink:href="img/mob.png" width="77px" height="77px" preserveAspectRatio="xMinYMin meet" x="384.5" y="-1659"/>
<text text-anchor="middle" x="423" y="-1614.7" font-family="MS Gothic" font-size="14.00">Herod</text>
</g>
<!-- Herod&#45;&gt;Woodpecker -->
<g id="edge39" class="edge">
<title>Herod&#45;&gt;Woodpecker</title>
<path fill="none" stroke="black" d="M458.84,-1581.61C467.12,-1572.86 476.01,-1563.46 484.58,-1554.4"/>
<polygon fill="black" stroke="black" points="486.95,-1556.99 491.28,-1547.32 481.87,-1552.18 486.95,-1556.99"/>
</g>
<!-- Miss Ramsden -->
<g id="node41" class="node">
<title>Miss Ramsden</title>
<polygon fill="lightcoral" stroke="lightcoral" points="576.5,-1659 479.5,-1659 479.5,-1582 576.5,-1582 576.5,-1659"/>
<image xlink:href="img/mob.png" width="97px" height="77px" preserveAspectRatio="xMinYMin meet" x="479.5" y="-1659"/>
<text text-anchor="middle" x="528" y="-1614.7" font-family="MS Gothic" font-size="14.00">Miss Ramsden</text>
</g>
<!-- Miss Ramsden&#45;&gt;Woodpecker -->
<g id="edge40" class="edge">
<title>Miss Ramsden&#45;&gt;Woodpecker</title>
<path fill="none" stroke="black" d="M528,-1581.61C528,-1573.84 528,-1565.56 528,-1557.46"/>
<polygon fill="black" stroke="black" points="531.5,-1557.73 528,-1547.73 524.5,-1557.73 531.5,-1557.73"/>
</g>
<!-- Dux -->
<g id="node42" class="node">
<title>Dux</title>
<polygon fill="lightblue" stroke="lightblue" points="671.5,-1659 594.5,-1659 594.5,-1582 671.5,-1582 671.5,-1659"/>
<image xlink:href="img/mob.png" width="77px" height="77px" preserveAspectRatio="xMinYMin meet" x="594.5" y="-1659"/>
<text text-anchor="middle" x="633" y="-1614.7" font-family="MS Gothic" font-size="14.00">Dux</text>
</g>
<!-- Dux&#45;&gt;Misfortune -->
<g id="edge41" class="edge">
<title>Dux&#45;&gt;Misfortune</title>
<path fill="none" stroke="black" d="M633,-1581.61C633,-1573.84 633,-1565.56 633,-1557.46"/>
<polygon fill="black" stroke="black" points="636.5,-1557.73 633,-1547.73 629.5,-1557.73 636.5,-1557.73"/>
</g>
<!-- Curiosity -->
<g id="node43" class="node">
<title>Curiosity</title>
<polygon fill="lightcoral" stroke="lightcoral" points="766.5,-1659 689.5,-1659 689.5,-1582 766.5,-1582 766.5,-1659"/>
<image xlink:href="img/mob.png" width="77px" height="77px" preserveAspectRatio="xMinYMin meet" x="689.5" y="-1659"/>
<text text-anchor="middle" x="728" y="-1614.7" font-family="MS Gothic" font-size="14.00">Curiosity</text>
</g>
<!-- Curiosity&#45;&gt;Misfortune -->
<g id="edge42" class="edge">
<title>Curiosity&#45;&gt;Misfortune</title>
<path fill="none" stroke="black" d="M695.57,-1581.61C688.24,-1573.04 680.36,-1563.84 672.76,-1554.96"/>
<polygon fill="black" stroke="black" points="675.43,-1552.69 666.27,-1547.37 670.11,-1557.24 675.43,-1552.69"/>
</g>
<!-- Tartar -->
<g id="node44" class="node">
<title>Tartar</title>
<polygon fill="lightblue" stroke="lightblue" points="414.5,-1772 337.5,-1772 337.5,-1695 414.5,-1695 414.5,-1772"/>
<image xlink:href="img/mob.png" width="77px" height="77px" preserveAspectRatio="xMinYMin meet" x="337.5" y="-1772"/>
<text text-anchor="middle" x="376" y="-1727.7" font-family="MS Gothic" font-size="14.00">Tartar</text>
</g>
<!-- Tartar&#45;&gt;Herod -->
<g id="edge43" class="edge">
<title>Tartar&#45;&gt;Herod</title>
<path fill="none" stroke="black" d="M392.04,-1694.61C395.45,-1686.57 399.08,-1677.99 402.62,-1669.63"/>
<polygon fill="black" stroke="black" points="405.76,-1671.19 406.44,-1660.61 399.32,-1668.46 405.76,-1671.19"/>
</g>
<!-- Cypron -->
<g id="node45" class="node">
<title>Cypron</title>
<polygon fill="lightcoral" stroke="lightcoral" points="509.5,-1772 432.5,-1772 432.5,-1695 509.5,-1695 509.5,-1772"/>
<image xlink:href="img/mob.png" width="77px" height="77px" preserveAspectRatio="xMinYMin meet" x="432.5" y="-1772"/>
<text text-anchor="middle" x="471" y="-1727.7" font-family="MS Gothic" font-size="14.00">Cypron</text>
</g>
<!-- Cypron&#45;&gt;Herod -->
<g id="edge44" class="edge">
<title>Cypron&#45;&gt;Herod</title>
<path fill="none" stroke="black" d="M454.62,-1694.61C451.14,-1686.57 447.43,-1677.99 443.81,-1669.63"/>
<polygon fill="black" stroke="black" points="447.09,-1668.4 439.91,-1660.61 440.67,-1671.18 447.09,-1668.4"/>
</g>
<!-- Croft&#39;s Partner -->
<g id="node46" class="node">
<title>Croft&#39;s Partner</title>
<polygon fill="lightblue" stroke="lightblue" points="319.62,-1885 202.38,-1885 202.38,-1808 319.62,-1808 319.62,-1885"/>
<image xlink:href="img/mob.png" width="100px" height="77px" preserveAspectRatio="xMinYMin meet" x="211" y="-1885"/>
<text text-anchor="middle" x="261" y="-1840.7" font-family="MS Gothic" font-size="14.00">Croft&#39;s Partner</text>
</g>
<!-- Croft&#39;s Partner&#45;&gt;Tartar -->
<g id="edge45" class="edge">
<title>Croft&#39;s Partner&#45;&gt;Tartar</title>
<path fill="none" stroke="black" d="M300.25,-1807.61C309.51,-1798.67 319.48,-1789.06 329.04,-1779.83"/>
<polygon fill="black" stroke="black" points="331.46,-1782.36 336.22,-1772.89 326.6,-1777.32 331.46,-1782.36"/>
</g>
<!-- Meliora -->
<g id="node47" class="node">
<title>Meliora</title>
<polygon fill="lightcoral" stroke="lightcoral" points="414.5,-1885 337.5,-1885 337.5,-1808 414.5,-1808 414.5,-1885"/>
<image xlink:href="img/mob.png" width="77px" height="77px" preserveAspectRatio="xMinYMin meet" x="337.5" y="-1885"/>
<text text-anchor="middle" x="376" y="-1840.7" font-family="MS Gothic" font-size="14.00">Meliora</text>
</g>
<!-- Meliora&#45;&gt;Tartar -->
<g id="edge46" class="edge">
<title>Meliora&#45;&gt;Tartar</title>
<path fill="none" stroke="black" d="M376,-1807.61C376,-1799.84 376,-1791.56 376,-1783.46"/>
<polygon fill="black" stroke="black" points="379.5,-1783.73 376,-1773.73 372.5,-1783.73 379.5,-1783.73"/>
</g>
<!-- Blaze -->
<g id="node48" class="node">
<title>Blaze</title>
<polygon fill="lightblue" stroke="lightblue" points="509.5,-1885 432.5,-1885 432.5,-1808 509.5,-1808 509.5,-1885"/>
<image xlink:href="img/mob.png" width="77px" height="77px" preserveAspectRatio="xMinYMin meet" x="432.5" y="-1885"/>
<text text-anchor="middle" x="471" y="-1840.7" font-family="MS Gothic" font-size="14.00">Blaze</text>
</g>
<!-- Blaze&#45;&gt;Cypron -->
<g id="edge47" class="edge">
<title>Blaze&#45;&gt;Cypron</title>
<path fill="none" stroke="black" d="M471,-1807.61C471,-1799.84 471,-1791.56 471,-1783.46"/>
<polygon fill="black" stroke="black" points="474.5,-1783.73 471,-1773.73 467.5,-1783.73 474.5,-1783.73"/>
</g>
<!-- Salome -->
<g id="node49" class="node">
<title>Salome</title>
<polygon fill="lightcoral" stroke="lightcoral" points="604.5,-1885 527.5,-1885 527.5,-1808 604.5,-1808 604.5,-1885"/>
<image xlink:href="img/mob.png" width="77px" height="77px" preserveAspectRatio="xMinYMin meet" x="527.5" y="-1885"/>
<text text-anchor="middle" x="566" y="-1840.7" font-family="MS Gothic" font-size="14.00">Salome</text>
</g>
<!-- Salome&#45;&gt;Cypron -->
<g id="edge48" class="edge">
<title>Salome&#45;&gt;Cypron</title>
<path fill="none" stroke="black" d="M533.57,-1807.61C526.24,-1799.04 518.36,-1789.84 510.76,-1780.96"/>
<polygon fill="black" stroke="black" points="513.43,-1778.69 504.27,-1773.37 508.11,-1783.24 513.43,-1778.69"/>
</g>
<!-- Jigg -->
<g id="node50" class="node">
<title>Jigg</title>
<polygon fill="lightblue" stroke="lightblue" points="232.5,-1998 155.5,-1998 155.5,-1921 232.5,-1921 232.5,-1998"/>
<image xlink:href="img/mob.png" width="77px" height="77px" preserveAspectRatio="xMinYMin meet" x="155.5" y="-1998"/>
<text text-anchor="middle" x="194" y="-1953.7" font-family="MS Gothic" font-size="14.00">Jigg</text>
</g>
<!-- Jigg&#45;&gt;Croft&#39;s Partner -->
<g id="edge49" class="edge">
<title>Jigg&#45;&gt;Croft&#39;s Partner</title>
<path fill="none" stroke="black" d="M216.87,-1920.61C221.83,-1912.39 227.13,-1903.6 232.29,-1895.07"/>
<polygon fill="black" stroke="black" points="235.28,-1896.88 237.45,-1886.51 229.29,-1893.27 235.28,-1896.88"/>
</g>
<!-- Sister One to Mixbury -->
<g id="node51" class="node">
<title>Sister One to Mixbury</title>
<polygon fill="lightcoral" stroke="lightcoral" points="407.88,-1998 250.12,-1998 250.12,-1921 407.88,-1921 407.88,-1998"/>
<image xlink:href="img/mob.png" width="100px" height="77px" preserveAspectRatio="xMinYMin meet" x="279" y="-1998"/>
<text text-anchor="middle" x="329" y="-1953.7" font-family="MS Gothic" font-size="14.00">Sister One to Mixbury</text>
</g>
<!-- Sister One to Mixbury&#45;&gt;Croft&#39;s Partner -->
<g id="edge50" class="edge">
<title>Sister One to Mixbury&#45;&gt;Croft&#39;s Partner</title>
<path fill="none" stroke="black" d="M305.79,-1920.61C300.7,-1912.31 295.25,-1903.41 289.97,-1894.79"/>
<polygon fill="black" stroke="black" points="293.11,-1893.21 284.9,-1886.51 287.14,-1896.86 293.11,-1893.21"/>
</g>
<!-- バイアリーターク -->
<g id="node52" class="node">
<title>バイアリーターク</title>
<polygon fill="lightblue" stroke="lightblue" points="130,-2111 0,-2111 0,-2034 130,-2034 130,-2111"/>
<image xlink:href="img/baiaritaku.png" width="100px" height="77px" preserveAspectRatio="xMinYMin meet" x="15" y="-2111"/>
<text text-anchor="middle" x="65" y="-2066.7" font-family="MS Gothic" font-size="14.00">バイアリーターク</text>
</g>
<!-- バイアリーターク&#45;&gt;Jigg -->
<g id="edge51" class="edge">
<title>バイアリーターク&#45;&gt;Jigg</title>
<path fill="none" stroke="black" d="M109.03,-2033.61C121.25,-2023.1 134.56,-2011.65 146.94,-2000.99"/>
<polygon fill="black" stroke="black" points="148.9,-2003.93 154.19,-1994.75 144.33,-1998.62 148.9,-2003.93"/>
</g>
<!-- Spanker Mare -->
<g id="node53" class="node">
<title>Spanker Mare</title>
<polygon fill="lightcoral" stroke="lightcoral" points="245.5,-2111 148.5,-2111 148.5,-2034 245.5,-2034 245.5,-2111"/>
<image xlink:href="img/mob.png" width="97px" height="77px" preserveAspectRatio="xMinYMin meet" x="148.5" y="-2111"/>
<text text-anchor="middle" x="197" y="-2066.7" font-family="MS Gothic" font-size="14.00">Spanker Mare</text>
</g>
<!-- Spanker Mare&#45;&gt;Jigg -->
<g id="edge52" class="edge">
<title>Spanker Mare&#45;&gt;Jigg</title>
<path fill="none" stroke="black" d="M195.98,-2033.61C195.77,-2025.84 195.54,-2017.56 195.32,-2009.46"/>
<polygon fill="black" stroke="black" points="198.83,-2009.63 195.06,-1999.73 191.83,-2009.82 198.83,-2009.63"/>
</g>
<!-- Curwen Bay Barb -->
<g id="node54" class="node">
<title>Curwen Bay Barb</title>
<polygon fill="lightblue" stroke="lightblue" points="385.62,-2111 268.38,-2111 268.38,-2034 385.62,-2034 385.62,-2111"/>
<image xlink:href="img/mob.png" width="100px" height="77px" preserveAspectRatio="xMinYMin meet" x="277" y="-2111"/>
<text text-anchor="middle" x="327" y="-2066.7" font-family="MS Gothic" font-size="14.00">Curwen Bay Barb</text>
</g>
<!-- Curwen Bay Barb&#45;&gt;Sister One to Mixbury -->
<g id="edge53" class="edge">
<title>Curwen Bay Barb&#45;&gt;Sister One to Mixbury</title>
<path fill="none" stroke="black" d="M327.68,-2033.61C327.82,-2025.84 327.97,-2017.56 328.12,-2009.46"/>
<polygon fill="black" stroke="black" points="331.61,-2009.79 328.29,-1999.73 324.61,-2009.67 331.61,-2009.79"/>
</g>
<!-- Curwen Spot Mare -->
<g id="node55" class="node">
<title>Curwen Spot Mare</title>
<polygon fill="lightcoral" stroke="lightcoral" points="528,-2111 404,-2111 404,-2034 528,-2034 528,-2111"/>
<image xlink:href="img/mob.png" width="100px" height="77px" preserveAspectRatio="xMinYMin meet" x="416" y="-2111"/>
<text text-anchor="middle" x="466" y="-2066.7" font-family="MS Gothic" font-size="14.00">Curwen Spot Mare</text>
</g>
<!-- Curwen Spot Mare&#45;&gt;Sister One to Mixbury -->
<g id="edge54" class="edge">
<title>Curwen Spot Mare&#45;&gt;Sister One to Mixbury</title>
<path fill="none" stroke="black" d="M419.24,-2033.61C407.99,-2024.5 395.88,-2014.69 384.29,-2005.3"/>
<polygon fill="black" stroke="black" points="386.7,-2002.75 376.73,-1999.17 382.3,-2008.19 386.7,-2002.75"/>
</g>
</g>
</svg>
