<?xml version="1.0" encoding="UTF-8" standalone="no"?>
<!DOCTYPE svg PUBLIC "-//W3C//DTD SVG 1.1//EN"
 "http://www.w3.org/Graphics/SVG/1.1/DTD/svg11.dtd">
<!-- Generated by graphviz version 12.1.2 (20240928.0832)
 -->
<!-- Pages: 1 -->
<svg width="179pt" height="2458pt"
 viewBox="0.00 0.00 179.25 2458.00" xmlns="http://www.w3.org/2000/svg" xmlns:xlink="http://www.w3.org/1999/xlink">
<g id="graph0" class="graph" transform="scale(1 1) rotate(0) translate(4 2454)">
<!-- カルストンライトオ -->
<g id="node1" class="node">
<title>カルストンライトオ</title>
<polygon fill="none" stroke="black" points="171.25,-77 0,-77 0,0 171.25,0 171.25,-77"/>
<image xlink:href="img/karusutonraitoo.png" width="100px" height="77px" preserveAspectRatio="xMinYMin meet" x="35.625" y="-77"/>
<text text-anchor="middle" x="85.62" y="-32.33" font-family="Times New Roman,serif" font-size="14.00">カルストンライトオ</text>
</g>
<!-- ウォーニング -->
<g id="node2" class="node">
<title>ウォーニング</title>
<polygon fill="lightblue" stroke="lightblue" points="136.38,-190 34.88,-190 34.88,-113 136.38,-113 136.38,-190"/>
<image xlink:href="img/mob.png" width="100px" height="77px" preserveAspectRatio="xMinYMin meet" x="35.625" y="-190"/>
<text text-anchor="middle" x="85.62" y="-145.7" font-family="MS Gothic" font-size="14.00">ウォーニング</text>
</g>
<!-- ウォーニング&#45;&gt;カルストンライトオ -->
<g id="edge1" class="edge">
<title>ウォーニング&#45;&gt;カルストンライトオ</title>
<path fill="none" stroke="lightblue" stroke-width="5" d="M85.62,-112.61C85.62,-106.36 85.62,-99.78 85.62,-93.23"/>
<polygon fill="lightblue" stroke="lightblue" stroke-width="5" points="90,-93.46 85.63,-83.46 81.25,-93.46 90,-93.46"/>
</g>
<!-- Known Fact -->
<g id="node3" class="node">
<title>Known Fact</title>
<polygon fill="lightblue" stroke="lightblue" points="127.38,-303 43.88,-303 43.88,-226 127.38,-226 127.38,-303"/>
<image xlink:href="img/mob.png" width="83.5px" height="77px" preserveAspectRatio="xMinYMin meet" x="43.875" y="-303"/>
<text text-anchor="middle" x="85.62" y="-258.7" font-family="MS Gothic" font-size="14.00">Known Fact</text>
</g>
<!-- Known Fact&#45;&gt;ウォーニング -->
<g id="edge2" class="edge">
<title>Known Fact&#45;&gt;ウォーニング</title>
<path fill="none" stroke="lightblue" stroke-width="5" d="M85.62,-225.61C85.62,-219.36 85.62,-212.78 85.62,-206.23"/>
<polygon fill="lightblue" stroke="lightblue" stroke-width="5" points="90,-206.46 85.63,-196.46 81.25,-206.46 90,-206.46"/>
</g>
<!-- In Reality -->
<g id="node4" class="node">
<title>In Reality</title>
<polygon fill="lightblue" stroke="lightblue" points="127.38,-416 43.88,-416 43.88,-339 127.38,-339 127.38,-416"/>
<image xlink:href="img/mob.png" width="83.5px" height="77px" preserveAspectRatio="xMinYMin meet" x="43.875" y="-416"/>
<text text-anchor="middle" x="85.62" y="-371.7" font-family="MS Gothic" font-size="14.00">In Reality</text>
</g>
<!-- In Reality&#45;&gt;Known Fact -->
<g id="edge3" class="edge">
<title>In Reality&#45;&gt;Known Fact</title>
<path fill="none" stroke="lightblue" stroke-width="5" d="M85.62,-338.61C85.62,-332.36 85.62,-325.78 85.62,-319.23"/>
<polygon fill="lightblue" stroke="lightblue" stroke-width="5" points="90,-319.46 85.63,-309.46 81.25,-319.46 90,-319.46"/>
</g>
<!-- Intentionally -->
<g id="node5" class="node">
<title>Intentionally</title>
<polygon fill="lightblue" stroke="lightblue" points="137.5,-529 33.75,-529 33.75,-452 137.5,-452 137.5,-529"/>
<image xlink:href="img/mob.png" width="100px" height="77px" preserveAspectRatio="xMinYMin meet" x="35.625" y="-529"/>
<text text-anchor="middle" x="85.62" y="-484.7" font-family="MS Gothic" font-size="14.00">Intentionally</text>
</g>
<!-- Intentionally&#45;&gt;In Reality -->
<g id="edge4" class="edge">
<title>Intentionally&#45;&gt;In Reality</title>
<path fill="none" stroke="lightblue" stroke-width="5" d="M85.62,-451.61C85.62,-445.36 85.62,-438.78 85.62,-432.23"/>
<polygon fill="lightblue" stroke="lightblue" stroke-width="5" points="90,-432.46 85.63,-422.46 81.25,-432.46 90,-432.46"/>
</g>
<!-- Intent -->
<g id="node6" class="node">
<title>Intent</title>
<polygon fill="lightblue" stroke="lightblue" points="124.12,-642 47.12,-642 47.12,-565 124.12,-565 124.12,-642"/>
<image xlink:href="img/mob.png" width="77px" height="77px" preserveAspectRatio="xMinYMin meet" x="47.125" y="-642"/>
<text text-anchor="middle" x="85.62" y="-597.7" font-family="MS Gothic" font-size="14.00">Intent</text>
</g>
<!-- Intent&#45;&gt;Intentionally -->
<g id="edge5" class="edge">
<title>Intent&#45;&gt;Intentionally</title>
<path fill="none" stroke="lightblue" stroke-width="5" d="M85.62,-564.61C85.62,-558.36 85.62,-551.78 85.62,-545.23"/>
<polygon fill="lightblue" stroke="lightblue" stroke-width="5" points="90,-545.46 85.63,-535.46 81.25,-545.46 90,-545.46"/>
</g>
<!-- War Relic -->
<g id="node7" class="node">
<title>War Relic</title>
<polygon fill="lightblue" stroke="lightblue" points="124.12,-755 47.12,-755 47.12,-678 124.12,-678 124.12,-755"/>
<image xlink:href="img/mob.png" width="77px" height="77px" preserveAspectRatio="xMinYMin meet" x="47.125" y="-755"/>
<text text-anchor="middle" x="85.62" y="-710.7" font-family="MS Gothic" font-size="14.00">War Relic</text>
</g>
<!-- War Relic&#45;&gt;Intent -->
<g id="edge6" class="edge">
<title>War Relic&#45;&gt;Intent</title>
<path fill="none" stroke="lightblue" stroke-width="5" d="M85.62,-677.61C85.62,-671.36 85.62,-664.78 85.62,-658.23"/>
<polygon fill="lightblue" stroke="lightblue" stroke-width="5" points="90,-658.46 85.63,-648.46 81.25,-658.46 90,-658.46"/>
</g>
<!-- Man o&#39;War -->
<g id="node8" class="node">
<title>Man o&#39;War</title>
<polygon fill="lightblue" stroke="lightblue" points="124.12,-868 47.12,-868 47.12,-791 124.12,-791 124.12,-868"/>
<image xlink:href="img/mob.png" width="77px" height="77px" preserveAspectRatio="xMinYMin meet" x="47.125" y="-868"/>
<text text-anchor="middle" x="85.62" y="-823.7" font-family="MS Gothic" font-size="14.00">Man o&#39;War</text>
</g>
<!-- Man o&#39;War&#45;&gt;War Relic -->
<g id="edge7" class="edge">
<title>Man o&#39;War&#45;&gt;War Relic</title>
<path fill="none" stroke="lightblue" stroke-width="5" d="M85.62,-790.61C85.62,-784.36 85.62,-777.78 85.62,-771.23"/>
<polygon fill="lightblue" stroke="lightblue" stroke-width="5" points="90,-771.46 85.63,-761.46 81.25,-771.46 90,-771.46"/>
</g>
<!-- Fair Play -->
<g id="node9" class="node">
<title>Fair Play</title>
<polygon fill="lightblue" stroke="lightblue" points="124.12,-981 47.12,-981 47.12,-904 124.12,-904 124.12,-981"/>
<image xlink:href="img/mob.png" width="77px" height="77px" preserveAspectRatio="xMinYMin meet" x="47.125" y="-981"/>
<text text-anchor="middle" x="85.62" y="-936.7" font-family="MS Gothic" font-size="14.00">Fair Play</text>
</g>
<!-- Fair Play&#45;&gt;Man o&#39;War -->
<g id="edge8" class="edge">
<title>Fair Play&#45;&gt;Man o&#39;War</title>
<path fill="none" stroke="lightblue" stroke-width="5" d="M85.62,-903.61C85.62,-897.36 85.62,-890.78 85.62,-884.23"/>
<polygon fill="lightblue" stroke="lightblue" stroke-width="5" points="90,-884.46 85.63,-874.46 81.25,-884.46 90,-884.46"/>
</g>
<!-- Hastings -->
<g id="node10" class="node">
<title>Hastings</title>
<polygon fill="lightblue" stroke="lightblue" points="124.12,-1094 47.12,-1094 47.12,-1017 124.12,-1017 124.12,-1094"/>
<image xlink:href="img/mob.png" width="77px" height="77px" preserveAspectRatio="xMinYMin meet" x="47.125" y="-1094"/>
<text text-anchor="middle" x="85.62" y="-1049.7" font-family="MS Gothic" font-size="14.00">Hastings</text>
</g>
<!-- Hastings&#45;&gt;Fair Play -->
<g id="edge9" class="edge">
<title>Hastings&#45;&gt;Fair Play</title>
<path fill="none" stroke="lightblue" stroke-width="5" d="M85.62,-1016.61C85.62,-1010.36 85.62,-1003.78 85.62,-997.23"/>
<polygon fill="lightblue" stroke="lightblue" stroke-width="5" points="90,-997.46 85.63,-987.46 81.25,-997.46 90,-997.46"/>
</g>
<!-- Spendthrift -->
<g id="node11" class="node">
<title>Spendthrift</title>
<polygon fill="lightblue" stroke="lightblue" points="130.75,-1207 40.5,-1207 40.5,-1130 130.75,-1130 130.75,-1207"/>
<image xlink:href="img/mob.png" width="90.25px" height="77px" preserveAspectRatio="xMinYMin meet" x="40.5" y="-1207"/>
<text text-anchor="middle" x="85.62" y="-1162.7" font-family="MS Gothic" font-size="14.00">Spendthrift</text>
</g>
<!-- Spendthrift&#45;&gt;Hastings -->
<g id="edge10" class="edge">
<title>Spendthrift&#45;&gt;Hastings</title>
<path fill="none" stroke="lightblue" stroke-width="5" d="M85.62,-1129.61C85.62,-1123.36 85.62,-1116.78 85.62,-1110.23"/>
<polygon fill="lightblue" stroke="lightblue" stroke-width="5" points="90,-1110.46 85.63,-1100.46 81.25,-1110.46 90,-1110.46"/>
</g>
<!-- Australian -->
<g id="node12" class="node">
<title>Australian</title>
<polygon fill="lightblue" stroke="lightblue" points="127.38,-1320 43.88,-1320 43.88,-1243 127.38,-1243 127.38,-1320"/>
<image xlink:href="img/mob.png" width="83.5px" height="77px" preserveAspectRatio="xMinYMin meet" x="43.875" y="-1320"/>
<text text-anchor="middle" x="85.62" y="-1275.7" font-family="MS Gothic" font-size="14.00">Australian</text>
</g>
<!-- Australian&#45;&gt;Spendthrift -->
<g id="edge11" class="edge">
<title>Australian&#45;&gt;Spendthrift</title>
<path fill="none" stroke="lightblue" stroke-width="5" d="M85.62,-1242.61C85.62,-1236.36 85.62,-1229.78 85.62,-1223.23"/>
<polygon fill="lightblue" stroke="lightblue" stroke-width="5" points="90,-1223.46 85.63,-1213.46 81.25,-1223.46 90,-1223.46"/>
</g>
<!-- West Australian -->
<g id="node13" class="node">
<title>West Australian</title>
<polygon fill="lightblue" stroke="lightblue" points="144.25,-1433 27,-1433 27,-1356 144.25,-1356 144.25,-1433"/>
<image xlink:href="img/mob.png" width="100px" height="77px" preserveAspectRatio="xMinYMin meet" x="35.625" y="-1433"/>
<text text-anchor="middle" x="85.62" y="-1388.7" font-family="MS Gothic" font-size="14.00">West Australian</text>
</g>
<!-- West Australian&#45;&gt;Australian -->
<g id="edge12" class="edge">
<title>West Australian&#45;&gt;Australian</title>
<path fill="none" stroke="lightblue" stroke-width="5" d="M85.62,-1355.61C85.62,-1349.36 85.62,-1342.78 85.62,-1336.23"/>
<polygon fill="lightblue" stroke="lightblue" stroke-width="5" points="90,-1336.46 85.63,-1326.46 81.25,-1336.46 90,-1336.46"/>
</g>
<!-- Melbourne -->
<g id="node14" class="node">
<title>Melbourne</title>
<polygon fill="lightblue" stroke="lightblue" points="124.12,-1546 47.12,-1546 47.12,-1469 124.12,-1469 124.12,-1546"/>
<image xlink:href="img/mob.png" width="77px" height="77px" preserveAspectRatio="xMinYMin meet" x="47.125" y="-1546"/>
<text text-anchor="middle" x="85.62" y="-1501.7" font-family="MS Gothic" font-size="14.00">Melbourne</text>
</g>
<!-- Melbourne&#45;&gt;West Australian -->
<g id="edge13" class="edge">
<title>Melbourne&#45;&gt;West Australian</title>
<path fill="none" stroke="lightblue" stroke-width="5" d="M85.62,-1468.61C85.62,-1462.36 85.62,-1455.78 85.62,-1449.23"/>
<polygon fill="lightblue" stroke="lightblue" stroke-width="5" points="90,-1449.46 85.63,-1439.46 81.25,-1449.46 90,-1449.46"/>
</g>
<!-- Humphrey Clinker -->
<g id="node15" class="node">
<title>Humphrey Clinker</title>
<polygon fill="lightblue" stroke="lightblue" points="147.62,-1659 23.62,-1659 23.62,-1582 147.62,-1582 147.62,-1659"/>
<image xlink:href="img/mob.png" width="100px" height="77px" preserveAspectRatio="xMinYMin meet" x="35.625" y="-1659"/>
<text text-anchor="middle" x="85.62" y="-1614.7" font-family="MS Gothic" font-size="14.00">Humphrey Clinker</text>
</g>
<!-- Humphrey Clinker&#45;&gt;Melbourne -->
<g id="edge14" class="edge">
<title>Humphrey Clinker&#45;&gt;Melbourne</title>
<path fill="none" stroke="lightblue" stroke-width="5" d="M85.62,-1581.61C85.62,-1575.36 85.62,-1568.78 85.62,-1562.23"/>
<polygon fill="lightblue" stroke="lightblue" stroke-width="5" points="90,-1562.46 85.63,-1552.46 81.25,-1562.46 90,-1562.46"/>
</g>
<!-- Comus -->
<g id="node16" class="node">
<title>Comus</title>
<polygon fill="lightblue" stroke="lightblue" points="124.12,-1772 47.12,-1772 47.12,-1695 124.12,-1695 124.12,-1772"/>
<image xlink:href="img/mob.png" width="77px" height="77px" preserveAspectRatio="xMinYMin meet" x="47.125" y="-1772"/>
<text text-anchor="middle" x="85.62" y="-1727.7" font-family="MS Gothic" font-size="14.00">Comus</text>
</g>
<!-- Comus&#45;&gt;Humphrey Clinker -->
<g id="edge15" class="edge">
<title>Comus&#45;&gt;Humphrey Clinker</title>
<path fill="none" stroke="lightblue" stroke-width="5" d="M85.62,-1694.61C85.62,-1688.36 85.62,-1681.78 85.62,-1675.23"/>
<polygon fill="lightblue" stroke="lightblue" stroke-width="5" points="90,-1675.46 85.63,-1665.46 81.25,-1675.46 90,-1675.46"/>
</g>
<!-- Sorcerer -->
<g id="node17" class="node">
<title>Sorcerer</title>
<polygon fill="lightblue" stroke="lightblue" points="124.12,-1885 47.12,-1885 47.12,-1808 124.12,-1808 124.12,-1885"/>
<image xlink:href="img/mob.png" width="77px" height="77px" preserveAspectRatio="xMinYMin meet" x="47.125" y="-1885"/>
<text text-anchor="middle" x="85.62" y="-1840.7" font-family="MS Gothic" font-size="14.00">Sorcerer</text>
</g>
<!-- Sorcerer&#45;&gt;Comus -->
<g id="edge16" class="edge">
<title>Sorcerer&#45;&gt;Comus</title>
<path fill="none" stroke="lightblue" stroke-width="5" d="M85.62,-1807.61C85.62,-1801.36 85.62,-1794.78 85.62,-1788.23"/>
<polygon fill="lightblue" stroke="lightblue" stroke-width="5" points="90,-1788.46 85.63,-1778.46 81.25,-1788.46 90,-1788.46"/>
</g>
<!-- Trumpator -->
<g id="node18" class="node">
<title>Trumpator</title>
<polygon fill="lightblue" stroke="lightblue" points="124.12,-1998 47.12,-1998 47.12,-1921 124.12,-1921 124.12,-1998"/>
<image xlink:href="img/mob.png" width="77px" height="77px" preserveAspectRatio="xMinYMin meet" x="47.125" y="-1998"/>
<text text-anchor="middle" x="85.62" y="-1953.7" font-family="MS Gothic" font-size="14.00">Trumpator</text>
</g>
<!-- Trumpator&#45;&gt;Sorcerer -->
<g id="edge17" class="edge">
<title>Trumpator&#45;&gt;Sorcerer</title>
<path fill="none" stroke="lightblue" stroke-width="5" d="M85.62,-1920.61C85.62,-1914.36 85.62,-1907.78 85.62,-1901.23"/>
<polygon fill="lightblue" stroke="lightblue" stroke-width="5" points="90,-1901.46 85.63,-1891.46 81.25,-1901.46 90,-1901.46"/>
</g>
<!-- Conductor -->
<g id="node19" class="node">
<title>Conductor</title>
<polygon fill="lightblue" stroke="lightblue" points="124.12,-2111 47.12,-2111 47.12,-2034 124.12,-2034 124.12,-2111"/>
<image xlink:href="img/mob.png" width="77px" height="77px" preserveAspectRatio="xMinYMin meet" x="47.125" y="-2111"/>
<text text-anchor="middle" x="85.62" y="-2066.7" font-family="MS Gothic" font-size="14.00">Conductor</text>
</g>
<!-- Conductor&#45;&gt;Trumpator -->
<g id="edge18" class="edge">
<title>Conductor&#45;&gt;Trumpator</title>
<path fill="none" stroke="lightblue" stroke-width="5" d="M85.62,-2033.61C85.62,-2027.36 85.62,-2020.78 85.62,-2014.23"/>
<polygon fill="lightblue" stroke="lightblue" stroke-width="5" points="90,-2014.46 85.63,-2004.46 81.25,-2014.46 90,-2014.46"/>
</g>
<!-- Matchem -->
<g id="node20" class="node">
<title>Matchem</title>
<polygon fill="lightblue" stroke="lightblue" points="124.12,-2224 47.12,-2224 47.12,-2147 124.12,-2147 124.12,-2224"/>
<image xlink:href="img/mob.png" width="77px" height="77px" preserveAspectRatio="xMinYMin meet" x="47.125" y="-2224"/>
<text text-anchor="middle" x="85.62" y="-2179.7" font-family="MS Gothic" font-size="14.00">Matchem</text>
</g>
<!-- Matchem&#45;&gt;Conductor -->
<g id="edge19" class="edge">
<title>Matchem&#45;&gt;Conductor</title>
<path fill="none" stroke="lightblue" stroke-width="5" d="M85.62,-2146.61C85.62,-2140.36 85.62,-2133.78 85.62,-2127.23"/>
<polygon fill="lightblue" stroke="lightblue" stroke-width="5" points="90,-2127.46 85.63,-2117.46 81.25,-2127.46 90,-2127.46"/>
</g>
<!-- Cade -->
<g id="node21" class="node">
<title>Cade</title>
<polygon fill="lightblue" stroke="lightblue" points="124.12,-2337 47.12,-2337 47.12,-2260 124.12,-2260 124.12,-2337"/>
<image xlink:href="img/mob.png" width="77px" height="77px" preserveAspectRatio="xMinYMin meet" x="47.125" y="-2337"/>
<text text-anchor="middle" x="85.62" y="-2292.7" font-family="MS Gothic" font-size="14.00">Cade</text>
</g>
<!-- Cade&#45;&gt;Matchem -->
<g id="edge20" class="edge">
<title>Cade&#45;&gt;Matchem</title>
<path fill="none" stroke="lightblue" stroke-width="5" d="M85.62,-2259.61C85.62,-2253.36 85.62,-2246.78 85.62,-2240.23"/>
<polygon fill="lightblue" stroke="lightblue" stroke-width="5" points="90,-2240.46 85.63,-2230.46 81.25,-2240.46 90,-2240.46"/>
</g>
<!-- ゴドルフィンバルブ -->
<g id="node22" class="node">
<title>ゴドルフィンバルブ</title>
<polygon fill="lightblue" stroke="lightblue" points="157.75,-2450 13.5,-2450 13.5,-2373 157.75,-2373 157.75,-2450"/>
<image xlink:href="img/godoruhuinbarubu.png" width="100px" height="77px" preserveAspectRatio="xMinYMin meet" x="35.625" y="-2450"/>
<text text-anchor="middle" x="85.62" y="-2405.7" font-family="MS Gothic" font-size="14.00">ゴドルフィンバルブ</text>
</g>
<!-- ゴドルフィンバルブ&#45;&gt;Cade -->
<g id="edge21" class="edge">
<title>ゴドルフィンバルブ&#45;&gt;Cade</title>
<path fill="none" stroke="lightblue" stroke-width="5" d="M85.62,-2372.61C85.62,-2366.36 85.62,-2359.78 85.62,-2353.23"/>
<polygon fill="lightblue" stroke="lightblue" stroke-width="5" points="90,-2353.46 85.63,-2343.46 81.25,-2353.46 90,-2353.46"/>
</g>
</g>
</svg>
