<?xml version="1.0" encoding="UTF-8" standalone="no"?>
<!DOCTYPE svg PUBLIC "-//W3C//DTD SVG 1.1//EN"
 "http://www.w3.org/Graphics/SVG/1.1/DTD/svg11.dtd">
<!-- Generated by graphviz version 12.1.2 (20240928.0832)
 -->
<!-- Pages: 1 -->
<svg width="1453pt" height="1893pt"
 viewBox="0.00 0.00 1452.62 1893.00" xmlns="http://www.w3.org/2000/svg" xmlns:xlink="http://www.w3.org/1999/xlink">
<g id="graph0" class="graph" transform="scale(1 1) rotate(0) translate(4 1889)">
<polygon fill="white" stroke="none" points="-4,4 -4,-1889 1448.62,-1889 1448.62,4 -4,4"/>
<!-- War Relic -->
<g id="node1" class="node">
<title>War Relic</title>
<polygon fill="none" stroke="black" points="1294.62,-77 1217.62,-77 1217.62,0 1294.62,0 1294.62,-77"/>
<image xlink:href="img/mob.png" width="77px" height="77px" preserveAspectRatio="xMinYMin meet" x="1217.62" y="-77"/>
<text text-anchor="middle" x="1256.12" y="-33.45" font-family="Times New Roman,serif" font-size="14.00">War Relic</text>
</g>
<!-- Man o&#39;War -->
<g id="node2" class="node">
<title>Man o&#39;War</title>
<polygon fill="lightblue" stroke="lightblue" points="1240.62,-190 1163.62,-190 1163.62,-113 1240.62,-113 1240.62,-190"/>
<image xlink:href="img/mob.png" width="77px" height="77px" preserveAspectRatio="xMinYMin meet" x="1163.62" y="-190"/>
<text text-anchor="middle" x="1202.12" y="-145.7" font-family="MS Gothic" font-size="14.00">Man o&#39;War</text>
</g>
<!-- Man o&#39;War&#45;&gt;War Relic -->
<g id="edge1" class="edge">
<title>Man o&#39;War&#45;&gt;War Relic</title>
<path fill="none" stroke="black" d="M1220.56,-112.61C1224.51,-104.48 1228.74,-95.8 1232.85,-87.35"/>
<polygon fill="black" stroke="black" points="1235.89,-89.1 1237.11,-78.58 1229.59,-86.04 1235.89,-89.1"/>
</g>
<!-- Friar&#39;s Carse -->
<g id="node3" class="node">
<title>Friar&#39;s Carse</title>
<polygon fill="lightcoral" stroke="lightcoral" points="1362,-190 1258.25,-190 1258.25,-113 1362,-113 1362,-190"/>
<image xlink:href="img/mob.png" width="100px" height="77px" preserveAspectRatio="xMinYMin meet" x="1260.12" y="-190"/>
<text text-anchor="middle" x="1310.12" y="-145.7" font-family="MS Gothic" font-size="14.00">Friar&#39;s Carse</text>
</g>
<!-- Friar&#39;s Carse&#45;&gt;War Relic -->
<g id="edge2" class="edge">
<title>Friar&#39;s Carse&#45;&gt;War Relic</title>
<path fill="none" stroke="black" d="M1291.69,-112.61C1287.74,-104.48 1283.51,-95.8 1279.4,-87.35"/>
<polygon fill="black" stroke="black" points="1282.66,-86.04 1275.14,-78.58 1276.36,-89.1 1282.66,-86.04"/>
</g>
<!-- Fair Play -->
<g id="node4" class="node">
<title>Fair Play</title>
<polygon fill="lightblue" stroke="lightblue" points="1148.62,-303 1071.62,-303 1071.62,-226 1148.62,-226 1148.62,-303"/>
<image xlink:href="img/mob.png" width="77px" height="77px" preserveAspectRatio="xMinYMin meet" x="1071.62" y="-303"/>
<text text-anchor="middle" x="1110.12" y="-258.7" font-family="MS Gothic" font-size="14.00">Fair Play</text>
</g>
<!-- Fair Play&#45;&gt;Man o&#39;War -->
<g id="edge3" class="edge">
<title>Fair Play&#45;&gt;Man o&#39;War</title>
<path fill="none" stroke="black" d="M1141.53,-225.61C1148.63,-217.04 1156.26,-207.84 1163.62,-198.96"/>
<polygon fill="black" stroke="black" points="1166.21,-201.32 1169.9,-191.38 1160.82,-196.85 1166.21,-201.32"/>
</g>
<!-- Mahubah -->
<g id="node5" class="node">
<title>Mahubah</title>
<polygon fill="lightcoral" stroke="lightcoral" points="1243.62,-303 1166.62,-303 1166.62,-226 1243.62,-226 1243.62,-303"/>
<image xlink:href="img/mob.png" width="77px" height="77px" preserveAspectRatio="xMinYMin meet" x="1166.62" y="-303"/>
<text text-anchor="middle" x="1205.12" y="-258.7" font-family="MS Gothic" font-size="14.00">Mahubah</text>
</g>
<!-- Mahubah&#45;&gt;Man o&#39;War -->
<g id="edge4" class="edge">
<title>Mahubah&#45;&gt;Man o&#39;War</title>
<path fill="none" stroke="black" d="M1204.1,-225.61C1203.89,-217.84 1203.67,-209.56 1203.45,-201.46"/>
<polygon fill="black" stroke="black" points="1206.95,-201.63 1203.19,-191.73 1199.96,-201.82 1206.95,-201.63"/>
</g>
<!-- Friar Rock -->
<g id="node6" class="node">
<title>Friar Rock</title>
<polygon fill="lightblue" stroke="lightblue" points="1349.88,-303 1266.38,-303 1266.38,-226 1349.88,-226 1349.88,-303"/>
<image xlink:href="img/mob.png" width="83.5px" height="77px" preserveAspectRatio="xMinYMin meet" x="1266.38" y="-303"/>
<text text-anchor="middle" x="1308.12" y="-258.7" font-family="MS Gothic" font-size="14.00">Friar Rock</text>
</g>
<!-- Friar Rock&#45;&gt;Friar&#39;s Carse -->
<g id="edge5" class="edge">
<title>Friar Rock&#45;&gt;Friar&#39;s Carse</title>
<path fill="none" stroke="black" d="M1308.81,-225.61C1308.95,-217.84 1309.1,-209.56 1309.24,-201.46"/>
<polygon fill="black" stroke="black" points="1312.74,-201.79 1309.42,-191.73 1305.74,-201.67 1312.74,-201.79"/>
</g>
<!-- Problem -->
<g id="node7" class="node">
<title>Problem</title>
<polygon fill="lightcoral" stroke="lightcoral" points="1444.62,-303 1367.62,-303 1367.62,-226 1444.62,-226 1444.62,-303"/>
<image xlink:href="img/mob.png" width="77px" height="77px" preserveAspectRatio="xMinYMin meet" x="1367.62" y="-303"/>
<text text-anchor="middle" x="1406.12" y="-258.7" font-family="MS Gothic" font-size="14.00">Problem</text>
</g>
<!-- Problem&#45;&gt;Friar&#39;s Carse -->
<g id="edge6" class="edge">
<title>Problem&#45;&gt;Friar&#39;s Carse</title>
<path fill="none" stroke="black" d="M1373.36,-225.61C1365.86,-216.95 1357.82,-207.65 1350.07,-198.68"/>
<polygon fill="black" stroke="black" points="1352.93,-196.64 1343.74,-191.36 1347.63,-201.22 1352.93,-196.64"/>
</g>
<!-- Hastings -->
<g id="node8" class="node">
<title>Hastings</title>
<polygon fill="lightblue" stroke="lightblue" points="1099.62,-416 1022.62,-416 1022.62,-339 1099.62,-339 1099.62,-416"/>
<image xlink:href="img/mob.png" width="77px" height="77px" preserveAspectRatio="xMinYMin meet" x="1022.62" y="-416"/>
<text text-anchor="middle" x="1061.12" y="-371.7" font-family="MS Gothic" font-size="14.00">Hastings</text>
</g>
<!-- Hastings&#45;&gt;Fair Play -->
<g id="edge7" class="edge">
<title>Hastings&#45;&gt;Fair Play</title>
<path fill="none" stroke="black" d="M1077.85,-338.61C1081.4,-330.57 1085.19,-321.99 1088.88,-313.63"/>
<polygon fill="black" stroke="black" points="1092.03,-315.17 1092.86,-304.6 1085.62,-312.34 1092.03,-315.17"/>
</g>
<!-- Fairy Gold -->
<g id="node9" class="node">
<title>Fairy Gold</title>
<polygon fill="lightcoral" stroke="lightcoral" points="1200.88,-416 1117.38,-416 1117.38,-339 1200.88,-339 1200.88,-416"/>
<image xlink:href="img/mob.png" width="83.5px" height="77px" preserveAspectRatio="xMinYMin meet" x="1117.38" y="-416"/>
<text text-anchor="middle" x="1159.12" y="-371.7" font-family="MS Gothic" font-size="14.00">Fairy Gold</text>
</g>
<!-- Fairy Gold&#45;&gt;Fair Play -->
<g id="edge8" class="edge">
<title>Fairy Gold&#45;&gt;Fair Play</title>
<path fill="none" stroke="black" d="M1142.4,-338.61C1138.85,-330.57 1135.06,-321.99 1131.37,-313.63"/>
<polygon fill="black" stroke="black" points="1134.63,-312.34 1127.39,-304.6 1128.22,-315.17 1134.63,-312.34"/>
</g>
<!-- Spendthrift -->
<g id="node10" class="node">
<title>Spendthrift</title>
<polygon fill="lightblue" stroke="lightblue" points="1001.25,-529 911,-529 911,-452 1001.25,-452 1001.25,-529"/>
<image xlink:href="img/mob.png" width="90.25px" height="77px" preserveAspectRatio="xMinYMin meet" x="911" y="-529"/>
<text text-anchor="middle" x="956.12" y="-484.7" font-family="MS Gothic" font-size="14.00">Spendthrift</text>
</g>
<!-- Spendthrift&#45;&gt;Hastings -->
<g id="edge9" class="edge">
<title>Spendthrift&#45;&gt;Hastings</title>
<path fill="none" stroke="black" d="M991.97,-451.61C1000.24,-442.86 1009.14,-433.46 1017.7,-424.4"/>
<polygon fill="black" stroke="black" points="1020.08,-426.99 1024.41,-417.32 1014.99,-422.18 1020.08,-426.99"/>
</g>
<!-- Cinderella -->
<g id="node11" class="node">
<title>Cinderella</title>
<polygon fill="lightcoral" stroke="lightcoral" points="1102.88,-529 1019.38,-529 1019.38,-452 1102.88,-452 1102.88,-529"/>
<image xlink:href="img/mob.png" width="83.5px" height="77px" preserveAspectRatio="xMinYMin meet" x="1019.38" y="-529"/>
<text text-anchor="middle" x="1061.12" y="-484.7" font-family="MS Gothic" font-size="14.00">Cinderella</text>
</g>
<!-- Cinderella&#45;&gt;Hastings -->
<g id="edge10" class="edge">
<title>Cinderella&#45;&gt;Hastings</title>
<path fill="none" stroke="black" d="M1061.12,-451.61C1061.12,-443.84 1061.12,-435.56 1061.12,-427.46"/>
<polygon fill="black" stroke="black" points="1064.63,-427.73 1061.13,-417.73 1057.63,-427.73 1064.63,-427.73"/>
</g>
<!-- Bend Or -->
<g id="node12" class="node">
<title>Bend Or</title>
<polygon fill="lightblue" stroke="lightblue" points="1197.62,-529 1120.62,-529 1120.62,-452 1197.62,-452 1197.62,-529"/>
<image xlink:href="img/mob.png" width="77px" height="77px" preserveAspectRatio="xMinYMin meet" x="1120.62" y="-529"/>
<text text-anchor="middle" x="1159.12" y="-484.7" font-family="MS Gothic" font-size="14.00">Bend Or</text>
</g>
<!-- Bend Or&#45;&gt;Fairy Gold -->
<g id="edge11" class="edge">
<title>Bend Or&#45;&gt;Fairy Gold</title>
<path fill="none" stroke="black" d="M1159.12,-451.61C1159.12,-443.84 1159.12,-435.56 1159.12,-427.46"/>
<polygon fill="black" stroke="black" points="1162.63,-427.73 1159.13,-417.73 1155.63,-427.73 1162.63,-427.73"/>
</g>
<!-- Dame Masham -->
<g id="node13" class="node">
<title>Dame Masham</title>
<polygon fill="lightcoral" stroke="lightcoral" points="1306.25,-529 1216,-529 1216,-452 1306.25,-452 1306.25,-529"/>
<image xlink:href="img/mob.png" width="90.25px" height="77px" preserveAspectRatio="xMinYMin meet" x="1216" y="-529"/>
<text text-anchor="middle" x="1261.12" y="-484.7" font-family="MS Gothic" font-size="14.00">Dame Masham</text>
</g>
<!-- Dame Masham&#45;&gt;Fairy Gold -->
<g id="edge12" class="edge">
<title>Dame Masham&#45;&gt;Fairy Gold</title>
<path fill="none" stroke="black" d="M1226.31,-451.61C1218.35,-442.95 1209.8,-433.65 1201.56,-424.68"/>
<polygon fill="black" stroke="black" points="1204.15,-422.33 1194.81,-417.33 1199,-427.06 1204.15,-422.33"/>
</g>
<!-- Australian -->
<g id="node14" class="node">
<title>Australian</title>
<polygon fill="lightblue" stroke="lightblue" points="948.88,-642 865.38,-642 865.38,-565 948.88,-565 948.88,-642"/>
<image xlink:href="img/mob.png" width="83.5px" height="77px" preserveAspectRatio="xMinYMin meet" x="865.375" y="-642"/>
<text text-anchor="middle" x="907.12" y="-597.7" font-family="MS Gothic" font-size="14.00">Australian</text>
</g>
<!-- Australian&#45;&gt;Spendthrift -->
<g id="edge13" class="edge">
<title>Australian&#45;&gt;Spendthrift</title>
<path fill="none" stroke="black" d="M923.85,-564.61C927.4,-556.57 931.19,-547.99 934.88,-539.63"/>
<polygon fill="black" stroke="black" points="938.03,-541.17 938.86,-530.6 931.62,-538.34 938.03,-541.17"/>
</g>
<!-- Aerolite -->
<g id="node15" class="node">
<title>Aerolite</title>
<polygon fill="lightcoral" stroke="lightcoral" points="1043.62,-642 966.62,-642 966.62,-565 1043.62,-565 1043.62,-642"/>
<image xlink:href="img/mob.png" width="77px" height="77px" preserveAspectRatio="xMinYMin meet" x="966.625" y="-642"/>
<text text-anchor="middle" x="1005.12" y="-597.7" font-family="MS Gothic" font-size="14.00">Aerolite</text>
</g>
<!-- Aerolite&#45;&gt;Spendthrift -->
<g id="edge14" class="edge">
<title>Aerolite&#45;&gt;Spendthrift</title>
<path fill="none" stroke="black" d="M988.4,-564.61C984.85,-556.57 981.06,-547.99 977.37,-539.63"/>
<polygon fill="black" stroke="black" points="980.63,-538.34 973.39,-530.6 974.22,-541.17 980.63,-538.34"/>
</g>
<!-- West Australian -->
<g id="node16" class="node">
<title>West Australian</title>
<polygon fill="lightblue" stroke="lightblue" points="851.75,-755 734.5,-755 734.5,-678 851.75,-678 851.75,-755"/>
<image xlink:href="img/mob.png" width="100px" height="77px" preserveAspectRatio="xMinYMin meet" x="743.125" y="-755"/>
<text text-anchor="middle" x="793.12" y="-710.7" font-family="MS Gothic" font-size="14.00">West Australian</text>
</g>
<!-- West Australian&#45;&gt;Australian -->
<g id="edge15" class="edge">
<title>West Australian&#45;&gt;Australian</title>
<path fill="none" stroke="black" d="M832.04,-677.61C841.12,-668.77 850.88,-659.26 860.26,-650.13"/>
<polygon fill="black" stroke="black" points="862.58,-652.76 867.3,-643.27 857.7,-647.74 862.58,-652.76"/>
</g>
<!-- Emilia -->
<g id="node17" class="node">
<title>Emilia</title>
<polygon fill="lightcoral" stroke="lightcoral" points="946.62,-755 869.62,-755 869.62,-678 946.62,-678 946.62,-755"/>
<image xlink:href="img/mob.png" width="77px" height="77px" preserveAspectRatio="xMinYMin meet" x="869.625" y="-755"/>
<text text-anchor="middle" x="908.12" y="-710.7" font-family="MS Gothic" font-size="14.00">Emilia</text>
</g>
<!-- Emilia&#45;&gt;Australian -->
<g id="edge16" class="edge">
<title>Emilia&#45;&gt;Australian</title>
<path fill="none" stroke="black" d="M907.78,-677.61C907.71,-669.84 907.64,-661.56 907.57,-653.46"/>
<polygon fill="black" stroke="black" points="911.07,-653.7 907.48,-643.73 904.07,-653.76 911.07,-653.7"/>
</g>
<!-- Lexington -->
<g id="node18" class="node">
<title>Lexington</title>
<polygon fill="lightblue" stroke="lightblue" points="1042.62,-755 965.62,-755 965.62,-678 1042.62,-678 1042.62,-755"/>
<image xlink:href="img/mob.png" width="77px" height="77px" preserveAspectRatio="xMinYMin meet" x="965.625" y="-755"/>
<text text-anchor="middle" x="1004.12" y="-710.7" font-family="MS Gothic" font-size="14.00">Lexington</text>
</g>
<!-- Lexington&#45;&gt;Aerolite -->
<g id="edge17" class="edge">
<title>Lexington&#45;&gt;Aerolite</title>
<path fill="none" stroke="black" d="M1004.47,-677.61C1004.54,-669.84 1004.61,-661.56 1004.68,-653.46"/>
<polygon fill="black" stroke="black" points="1008.18,-653.76 1004.77,-643.73 1001.18,-653.7 1008.18,-653.76"/>
</g>
<!-- Florine -->
<g id="node19" class="node">
<title>Florine</title>
<polygon fill="lightcoral" stroke="lightcoral" points="1137.62,-755 1060.62,-755 1060.62,-678 1137.62,-678 1137.62,-755"/>
<image xlink:href="img/mob.png" width="77px" height="77px" preserveAspectRatio="xMinYMin meet" x="1060.62" y="-755"/>
<text text-anchor="middle" x="1099.12" y="-710.7" font-family="MS Gothic" font-size="14.00">Florine</text>
</g>
<!-- Florine&#45;&gt;Aerolite -->
<g id="edge18" class="edge">
<title>Florine&#45;&gt;Aerolite</title>
<path fill="none" stroke="black" d="M1067.04,-677.61C1059.78,-669.04 1051.99,-659.84 1044.47,-650.96"/>
<polygon fill="black" stroke="black" points="1047.18,-648.74 1038.05,-643.37 1041.84,-653.27 1047.18,-648.74"/>
</g>
<!-- Melbourne -->
<g id="node20" class="node">
<title>Melbourne</title>
<polygon fill="lightblue" stroke="lightblue" points="774.62,-868 697.62,-868 697.62,-791 774.62,-791 774.62,-868"/>
<image xlink:href="img/mob.png" width="77px" height="77px" preserveAspectRatio="xMinYMin meet" x="697.625" y="-868"/>
<text text-anchor="middle" x="736.12" y="-823.7" font-family="MS Gothic" font-size="14.00">Melbourne</text>
</g>
<!-- Melbourne&#45;&gt;West Australian -->
<g id="edge19" class="edge">
<title>Melbourne&#45;&gt;West Australian</title>
<path fill="none" stroke="black" d="M755.58,-790.61C759.75,-782.48 764.22,-773.8 768.55,-765.35"/>
<polygon fill="black" stroke="black" points="771.61,-767.06 773.06,-756.57 765.38,-763.86 771.61,-767.06"/>
</g>
<!-- Mowerina -->
<g id="node21" class="node">
<title>Mowerina</title>
<polygon fill="lightcoral" stroke="lightcoral" points="889.62,-868 812.62,-868 812.62,-791 889.62,-791 889.62,-868"/>
<image xlink:href="img/mob.png" width="77px" height="77px" preserveAspectRatio="xMinYMin meet" x="812.625" y="-868"/>
<text text-anchor="middle" x="851.12" y="-823.7" font-family="MS Gothic" font-size="14.00">Mowerina</text>
</g>
<!-- Mowerina&#45;&gt;West Australian -->
<g id="edge20" class="edge">
<title>Mowerina&#45;&gt;West Australian</title>
<path fill="none" stroke="black" d="M831.33,-790.61C827.08,-782.48 822.54,-773.8 818.13,-765.35"/>
<polygon fill="black" stroke="black" points="821.27,-763.8 813.53,-756.56 815.06,-767.04 821.27,-763.8"/>
</g>
<!-- Humphrey Clinker -->
<g id="node22" class="node">
<title>Humphrey Clinker</title>
<polygon fill="lightblue" stroke="lightblue" points="663.12,-981 539.12,-981 539.12,-904 663.12,-904 663.12,-981"/>
<image xlink:href="img/mob.png" width="100px" height="77px" preserveAspectRatio="xMinYMin meet" x="551.125" y="-981"/>
<text text-anchor="middle" x="601.12" y="-936.7" font-family="MS Gothic" font-size="14.00">Humphrey Clinker</text>
</g>
<!-- Humphrey Clinker&#45;&gt;Melbourne -->
<g id="edge21" class="edge">
<title>Humphrey Clinker&#45;&gt;Melbourne</title>
<path fill="none" stroke="black" d="M647.21,-903.61C660.62,-892.59 675.28,-880.53 688.77,-869.44"/>
<polygon fill="black" stroke="black" points="690.76,-872.33 696.27,-863.27 686.32,-866.92 690.76,-872.33"/>
</g>
<!-- Cervantes Mare -->
<g id="node23" class="node">
<title>Cervantes Mare</title>
<polygon fill="lightcoral" stroke="lightcoral" points="791.38,-981 680.88,-981 680.88,-904 791.38,-904 791.38,-981"/>
<image xlink:href="img/mob.png" width="100px" height="77px" preserveAspectRatio="xMinYMin meet" x="686.125" y="-981"/>
<text text-anchor="middle" x="736.12" y="-936.7" font-family="MS Gothic" font-size="14.00">Cervantes Mare</text>
</g>
<!-- Cervantes Mare&#45;&gt;Melbourne -->
<g id="edge22" class="edge">
<title>Cervantes Mare&#45;&gt;Melbourne</title>
<path fill="none" stroke="black" d="M736.12,-903.61C736.12,-895.84 736.12,-887.56 736.12,-879.46"/>
<polygon fill="black" stroke="black" points="739.63,-879.73 736.13,-869.73 732.63,-879.73 739.63,-879.73"/>
</g>
<!-- Touchstone -->
<g id="node24" class="node">
<title>Touchstone</title>
<polygon fill="lightblue" stroke="lightblue" points="892.88,-981 809.38,-981 809.38,-904 892.88,-904 892.88,-981"/>
<image xlink:href="img/mob.png" width="83.5px" height="77px" preserveAspectRatio="xMinYMin meet" x="809.375" y="-981"/>
<text text-anchor="middle" x="851.12" y="-936.7" font-family="MS Gothic" font-size="14.00">Touchstone</text>
</g>
<!-- Touchstone&#45;&gt;Mowerina -->
<g id="edge23" class="edge">
<title>Touchstone&#45;&gt;Mowerina</title>
<path fill="none" stroke="black" d="M851.12,-903.61C851.12,-895.84 851.12,-887.56 851.12,-879.46"/>
<polygon fill="black" stroke="black" points="854.63,-879.73 851.13,-869.73 847.63,-879.73 854.63,-879.73"/>
</g>
<!-- Emma -->
<g id="node25" class="node">
<title>Emma</title>
<polygon fill="lightcoral" stroke="lightcoral" points="987.62,-981 910.62,-981 910.62,-904 987.62,-904 987.62,-981"/>
<image xlink:href="img/mob.png" width="77px" height="77px" preserveAspectRatio="xMinYMin meet" x="910.625" y="-981"/>
<text text-anchor="middle" x="949.12" y="-936.7" font-family="MS Gothic" font-size="14.00">Emma</text>
</g>
<!-- Emma&#45;&gt;Mowerina -->
<g id="edge24" class="edge">
<title>Emma&#45;&gt;Mowerina</title>
<path fill="none" stroke="black" d="M915.67,-903.61C908.03,-894.95 899.81,-885.65 891.9,-876.68"/>
<polygon fill="black" stroke="black" points="894.67,-874.53 885.43,-869.35 889.42,-879.17 894.67,-874.53"/>
</g>
<!-- Comus -->
<g id="node26" class="node">
<title>Comus</title>
<polygon fill="lightblue" stroke="lightblue" points="585.62,-1094 508.62,-1094 508.62,-1017 585.62,-1017 585.62,-1094"/>
<image xlink:href="img/mob.png" width="77px" height="77px" preserveAspectRatio="xMinYMin meet" x="508.625" y="-1094"/>
<text text-anchor="middle" x="547.12" y="-1049.7" font-family="MS Gothic" font-size="14.00">Comus</text>
</g>
<!-- Comus&#45;&gt;Humphrey Clinker -->
<g id="edge25" class="edge">
<title>Comus&#45;&gt;Humphrey Clinker</title>
<path fill="none" stroke="black" d="M565.56,-1016.61C569.51,-1008.48 573.74,-999.8 577.85,-991.35"/>
<polygon fill="black" stroke="black" points="580.89,-993.1 582.11,-982.58 574.59,-990.04 580.89,-993.1"/>
</g>
<!-- Clinkerina -->
<g id="node27" class="node">
<title>Clinkerina</title>
<polygon fill="lightcoral" stroke="lightcoral" points="696.88,-1094 613.38,-1094 613.38,-1017 696.88,-1017 696.88,-1094"/>
<image xlink:href="img/mob.png" width="83.5px" height="77px" preserveAspectRatio="xMinYMin meet" x="613.375" y="-1094"/>
<text text-anchor="middle" x="655.12" y="-1049.7" font-family="MS Gothic" font-size="14.00">Clinkerina</text>
</g>
<!-- Clinkerina&#45;&gt;Humphrey Clinker -->
<g id="edge26" class="edge">
<title>Clinkerina&#45;&gt;Humphrey Clinker</title>
<path fill="none" stroke="black" d="M636.69,-1016.61C632.74,-1008.48 628.51,-999.8 624.4,-991.35"/>
<polygon fill="black" stroke="black" points="627.66,-990.04 620.14,-982.58 621.36,-993.1 627.66,-990.04"/>
</g>
<!-- Sorcerer -->
<g id="node28" class="node">
<title>Sorcerer</title>
<polygon fill="lightblue" stroke="lightblue" points="477.62,-1207 400.62,-1207 400.62,-1130 477.62,-1130 477.62,-1207"/>
<image xlink:href="img/mob.png" width="77px" height="77px" preserveAspectRatio="xMinYMin meet" x="400.625" y="-1207"/>
<text text-anchor="middle" x="439.12" y="-1162.7" font-family="MS Gothic" font-size="14.00">Sorcerer</text>
</g>
<!-- Sorcerer&#45;&gt;Comus -->
<g id="edge27" class="edge">
<title>Sorcerer&#45;&gt;Comus</title>
<path fill="none" stroke="black" d="M475.99,-1129.61C484.51,-1120.86 493.65,-1111.46 502.46,-1102.4"/>
<polygon fill="black" stroke="black" points="504.91,-1104.91 509.37,-1095.3 499.89,-1100.03 504.91,-1104.91"/>
</g>
<!-- Houghton Lass -->
<g id="node29" class="node">
<title>Houghton Lass</title>
<polygon fill="lightcoral" stroke="lightcoral" points="599,-1207 495.25,-1207 495.25,-1130 599,-1130 599,-1207"/>
<image xlink:href="img/mob.png" width="100px" height="77px" preserveAspectRatio="xMinYMin meet" x="497.125" y="-1207"/>
<text text-anchor="middle" x="547.12" y="-1162.7" font-family="MS Gothic" font-size="14.00">Houghton Lass</text>
</g>
<!-- Houghton Lass&#45;&gt;Comus -->
<g id="edge28" class="edge">
<title>Houghton Lass&#45;&gt;Comus</title>
<path fill="none" stroke="black" d="M547.12,-1129.61C547.12,-1121.84 547.12,-1113.56 547.12,-1105.46"/>
<polygon fill="black" stroke="black" points="550.63,-1105.73 547.13,-1095.73 543.63,-1105.73 550.63,-1105.73"/>
</g>
<!-- Clinker -->
<g id="node30" class="node">
<title>Clinker</title>
<polygon fill="lightblue" stroke="lightblue" points="693.62,-1207 616.62,-1207 616.62,-1130 693.62,-1130 693.62,-1207"/>
<image xlink:href="img/mob.png" width="77px" height="77px" preserveAspectRatio="xMinYMin meet" x="616.625" y="-1207"/>
<text text-anchor="middle" x="655.12" y="-1162.7" font-family="MS Gothic" font-size="14.00">Clinker</text>
</g>
<!-- Clinker&#45;&gt;Clinkerina -->
<g id="edge29" class="edge">
<title>Clinker&#45;&gt;Clinkerina</title>
<path fill="none" stroke="black" d="M655.12,-1129.61C655.12,-1121.84 655.12,-1113.56 655.12,-1105.46"/>
<polygon fill="black" stroke="black" points="658.63,-1105.73 655.13,-1095.73 651.63,-1105.73 658.63,-1105.73"/>
</g>
<!-- Pewet -->
<g id="node31" class="node">
<title>Pewet</title>
<polygon fill="lightcoral" stroke="lightcoral" points="788.62,-1207 711.62,-1207 711.62,-1130 788.62,-1130 788.62,-1207"/>
<image xlink:href="img/mob.png" width="77px" height="77px" preserveAspectRatio="xMinYMin meet" x="711.625" y="-1207"/>
<text text-anchor="middle" x="750.12" y="-1162.7" font-family="MS Gothic" font-size="14.00">Pewet</text>
</g>
<!-- Pewet&#45;&gt;Clinkerina -->
<g id="edge30" class="edge">
<title>Pewet&#45;&gt;Clinkerina</title>
<path fill="none" stroke="black" d="M717.7,-1129.61C710.36,-1121.04 702.49,-1111.84 694.89,-1102.96"/>
<polygon fill="black" stroke="black" points="697.55,-1100.69 688.39,-1095.37 692.23,-1105.24 697.55,-1100.69"/>
</g>
<!-- Trumpator -->
<g id="node32" class="node">
<title>Trumpator</title>
<polygon fill="lightblue" stroke="lightblue" points="421.62,-1320 344.62,-1320 344.62,-1243 421.62,-1243 421.62,-1320"/>
<image xlink:href="img/mob.png" width="77px" height="77px" preserveAspectRatio="xMinYMin meet" x="344.625" y="-1320"/>
<text text-anchor="middle" x="383.12" y="-1275.7" font-family="MS Gothic" font-size="14.00">Trumpator</text>
</g>
<!-- Trumpator&#45;&gt;Sorcerer -->
<g id="edge31" class="edge">
<title>Trumpator&#45;&gt;Sorcerer</title>
<path fill="none" stroke="black" d="M402.24,-1242.61C406.34,-1234.48 410.72,-1225.8 414.99,-1217.35"/>
<polygon fill="black" stroke="black" points="418.03,-1219.07 419.41,-1208.57 411.78,-1215.92 418.03,-1219.07"/>
</g>
<!-- Young Giantess -->
<g id="node33" class="node">
<title>Young Giantess</title>
<polygon fill="lightcoral" stroke="lightcoral" points="550.38,-1320 439.88,-1320 439.88,-1243 550.38,-1243 550.38,-1320"/>
<image xlink:href="img/mob.png" width="100px" height="77px" preserveAspectRatio="xMinYMin meet" x="445.125" y="-1320"/>
<text text-anchor="middle" x="495.12" y="-1275.7" font-family="MS Gothic" font-size="14.00">Young Giantess</text>
</g>
<!-- Young Giantess&#45;&gt;Sorcerer -->
<g id="edge32" class="edge">
<title>Young Giantess&#45;&gt;Sorcerer</title>
<path fill="none" stroke="black" d="M476.01,-1242.61C471.91,-1234.48 467.53,-1225.8 463.26,-1217.35"/>
<polygon fill="black" stroke="black" points="466.47,-1215.92 458.84,-1208.57 460.22,-1219.07 466.47,-1215.92"/>
</g>
<!-- Conductor -->
<g id="node34" class="node">
<title>Conductor</title>
<polygon fill="lightblue" stroke="lightblue" points="331.62,-1433 254.62,-1433 254.62,-1356 331.62,-1356 331.62,-1433"/>
<image xlink:href="img/mob.png" width="77px" height="77px" preserveAspectRatio="xMinYMin meet" x="254.625" y="-1433"/>
<text text-anchor="middle" x="293.12" y="-1388.7" font-family="MS Gothic" font-size="14.00">Conductor</text>
</g>
<!-- Conductor&#45;&gt;Trumpator -->
<g id="edge33" class="edge">
<title>Conductor&#45;&gt;Trumpator</title>
<path fill="none" stroke="black" d="M323.85,-1355.61C330.8,-1347.04 338.26,-1337.84 345.46,-1328.96"/>
<polygon fill="black" stroke="black" points="348.01,-1331.37 351.59,-1321.39 342.57,-1326.96 348.01,-1331.37"/>
</g>
<!-- Brunette -->
<g id="node35" class="node">
<title>Brunette</title>
<polygon fill="lightcoral" stroke="lightcoral" points="426.62,-1433 349.62,-1433 349.62,-1356 426.62,-1356 426.62,-1433"/>
<image xlink:href="img/mob.png" width="77px" height="77px" preserveAspectRatio="xMinYMin meet" x="349.625" y="-1433"/>
<text text-anchor="middle" x="388.12" y="-1388.7" font-family="MS Gothic" font-size="14.00">Brunette</text>
</g>
<!-- Brunette&#45;&gt;Trumpator -->
<g id="edge34" class="edge">
<title>Brunette&#45;&gt;Trumpator</title>
<path fill="none" stroke="black" d="M386.42,-1355.61C386.07,-1347.84 385.7,-1339.56 385.33,-1331.46"/>
<polygon fill="black" stroke="black" points="388.84,-1331.56 384.89,-1321.73 381.85,-1331.88 388.84,-1331.56"/>
</g>
<!-- Diomed -->
<g id="node36" class="node">
<title>Diomed</title>
<polygon fill="lightblue" stroke="lightblue" points="529.62,-1433 452.62,-1433 452.62,-1356 529.62,-1356 529.62,-1433"/>
<image xlink:href="img/mob.png" width="77px" height="77px" preserveAspectRatio="xMinYMin meet" x="452.625" y="-1433"/>
<text text-anchor="middle" x="491.12" y="-1388.7" font-family="MS Gothic" font-size="14.00">Diomed</text>
</g>
<!-- Diomed&#45;&gt;Young Giantess -->
<g id="edge35" class="edge">
<title>Diomed&#45;&gt;Young Giantess</title>
<path fill="none" stroke="black" d="M492.49,-1355.61C492.77,-1347.84 493.07,-1339.56 493.36,-1331.46"/>
<polygon fill="black" stroke="black" points="496.85,-1331.85 493.71,-1321.73 489.85,-1331.6 496.85,-1331.85"/>
</g>
<!-- Giantess -->
<g id="node37" class="node">
<title>Giantess</title>
<polygon fill="lightcoral" stroke="lightcoral" points="624.62,-1433 547.62,-1433 547.62,-1356 624.62,-1356 624.62,-1433"/>
<image xlink:href="img/mob.png" width="77px" height="77px" preserveAspectRatio="xMinYMin meet" x="547.625" y="-1433"/>
<text text-anchor="middle" x="586.12" y="-1388.7" font-family="MS Gothic" font-size="14.00">Giantess</text>
</g>
<!-- Giantess&#45;&gt;Young Giantess -->
<g id="edge36" class="edge">
<title>Giantess&#45;&gt;Young Giantess</title>
<path fill="none" stroke="black" d="M555.06,-1355.61C548.03,-1347.04 540.49,-1337.84 533.21,-1328.96"/>
<polygon fill="black" stroke="black" points="536.05,-1326.9 527.01,-1321.39 530.64,-1331.34 536.05,-1326.9"/>
</g>
<!-- Matchem -->
<g id="node38" class="node">
<title>Matchem</title>
<polygon fill="lightblue" stroke="lightblue" points="279.62,-1546 202.62,-1546 202.62,-1469 279.62,-1469 279.62,-1546"/>
<image xlink:href="img/mob.png" width="77px" height="77px" preserveAspectRatio="xMinYMin meet" x="202.625" y="-1546"/>
<text text-anchor="middle" x="241.12" y="-1501.7" font-family="MS Gothic" font-size="14.00">Matchem</text>
</g>
<!-- Matchem&#45;&gt;Conductor -->
<g id="edge37" class="edge">
<title>Matchem&#45;&gt;Conductor</title>
<path fill="none" stroke="black" d="M258.88,-1468.61C262.64,-1460.57 266.66,-1451.99 270.58,-1443.63"/>
<polygon fill="black" stroke="black" points="273.74,-1445.13 274.81,-1434.59 267.4,-1442.16 273.74,-1445.13"/>
</g>
<!-- Snap Mare -->
<g id="node39" class="node">
<title>Snap Mare</title>
<polygon fill="lightcoral" stroke="lightcoral" points="384.62,-1546 307.62,-1546 307.62,-1469 384.62,-1469 384.62,-1546"/>
<image xlink:href="img/mob.png" width="77px" height="77px" preserveAspectRatio="xMinYMin meet" x="307.625" y="-1546"/>
<text text-anchor="middle" x="346.12" y="-1501.7" font-family="MS Gothic" font-size="14.00">Snap Mare</text>
</g>
<!-- Snap Mare&#45;&gt;Conductor -->
<g id="edge38" class="edge">
<title>Snap Mare&#45;&gt;Conductor</title>
<path fill="none" stroke="black" d="M328.03,-1468.61C324.15,-1460.48 320.01,-1451.8 315.97,-1443.35"/>
<polygon fill="black" stroke="black" points="319.25,-1442.1 311.79,-1434.58 312.94,-1445.12 319.25,-1442.1"/>
</g>
<!-- Cade -->
<g id="node40" class="node">
<title>Cade</title>
<polygon fill="lightblue" stroke="lightblue" points="174.62,-1659 97.62,-1659 97.62,-1582 174.62,-1582 174.62,-1659"/>
<image xlink:href="img/mob.png" width="77px" height="77px" preserveAspectRatio="xMinYMin meet" x="97.625" y="-1659"/>
<text text-anchor="middle" x="136.12" y="-1614.7" font-family="MS Gothic" font-size="14.00">Cade</text>
</g>
<!-- Cade&#45;&gt;Matchem -->
<g id="edge39" class="edge">
<title>Cade&#45;&gt;Matchem</title>
<path fill="none" stroke="black" d="M171.97,-1581.61C180.24,-1572.86 189.14,-1563.46 197.7,-1554.4"/>
<polygon fill="black" stroke="black" points="200.08,-1556.99 204.41,-1547.32 194.99,-1552.18 200.08,-1556.99"/>
</g>
<!-- Partner Mare -->
<g id="node41" class="node">
<title>Partner Mare</title>
<polygon fill="lightcoral" stroke="lightcoral" points="289.62,-1659 192.62,-1659 192.62,-1582 289.62,-1582 289.62,-1659"/>
<image xlink:href="img/mob.png" width="97px" height="77px" preserveAspectRatio="xMinYMin meet" x="192.625" y="-1659"/>
<text text-anchor="middle" x="241.12" y="-1614.7" font-family="MS Gothic" font-size="14.00">Partner Mare</text>
</g>
<!-- Partner Mare&#45;&gt;Matchem -->
<g id="edge40" class="edge">
<title>Partner Mare&#45;&gt;Matchem</title>
<path fill="none" stroke="black" d="M241.12,-1581.61C241.12,-1573.84 241.12,-1565.56 241.12,-1557.46"/>
<polygon fill="black" stroke="black" points="244.63,-1557.73 241.13,-1547.73 237.63,-1557.73 244.63,-1557.73"/>
</g>
<!-- Snap -->
<g id="node42" class="node">
<title>Snap</title>
<polygon fill="lightblue" stroke="lightblue" points="384.62,-1659 307.62,-1659 307.62,-1582 384.62,-1582 384.62,-1659"/>
<image xlink:href="img/mob.png" width="77px" height="77px" preserveAspectRatio="xMinYMin meet" x="307.625" y="-1659"/>
<text text-anchor="middle" x="346.12" y="-1614.7" font-family="MS Gothic" font-size="14.00">Snap</text>
</g>
<!-- Snap&#45;&gt;Snap Mare -->
<g id="edge41" class="edge">
<title>Snap&#45;&gt;Snap Mare</title>
<path fill="none" stroke="black" d="M346.12,-1581.61C346.12,-1573.84 346.12,-1565.56 346.12,-1557.46"/>
<polygon fill="black" stroke="black" points="349.63,-1557.73 346.13,-1547.73 342.63,-1557.73 349.63,-1557.73"/>
</g>
<!-- Diana -->
<g id="node43" class="node">
<title>Diana</title>
<polygon fill="lightcoral" stroke="lightcoral" points="479.62,-1659 402.62,-1659 402.62,-1582 479.62,-1582 479.62,-1659"/>
<image xlink:href="img/mob.png" width="77px" height="77px" preserveAspectRatio="xMinYMin meet" x="402.625" y="-1659"/>
<text text-anchor="middle" x="441.12" y="-1614.7" font-family="MS Gothic" font-size="14.00">Diana</text>
</g>
<!-- Diana&#45;&gt;Snap Mare -->
<g id="edge42" class="edge">
<title>Diana&#45;&gt;Snap Mare</title>
<path fill="none" stroke="black" d="M408.7,-1581.61C401.36,-1573.04 393.49,-1563.84 385.89,-1554.96"/>
<polygon fill="black" stroke="black" points="388.55,-1552.69 379.39,-1547.37 383.23,-1557.24 388.55,-1552.69"/>
</g>
<!-- ゴドルフィンバルブ -->
<g id="node44" class="node">
<title>ゴドルフィンバルブ</title>
<polygon fill="lightblue" stroke="lightblue" points="144.25,-1772 0,-1772 0,-1695 144.25,-1695 144.25,-1772"/>
<image xlink:href="img/mob.png" width="100px" height="77px" preserveAspectRatio="xMinYMin meet" x="22.125" y="-1772"/>
<text text-anchor="middle" x="72.12" y="-1727.7" font-family="MS Gothic" font-size="14.00">ゴドルフィンバルブ</text>
</g>
<!-- ゴドルフィンバルブ&#45;&gt;Cade -->
<g id="edge43" class="edge">
<title>ゴドルフィンバルブ&#45;&gt;Cade</title>
<path fill="none" stroke="black" d="M93.97,-1694.61C98.71,-1686.39 103.78,-1677.6 108.7,-1669.07"/>
<polygon fill="black" stroke="black" points="111.66,-1670.94 113.62,-1660.53 105.59,-1667.44 111.66,-1670.94"/>
</g>
<!-- Roxana -->
<g id="node45" class="node">
<title>Roxana</title>
<polygon fill="lightcoral" stroke="lightcoral" points="239.62,-1772 162.62,-1772 162.62,-1695 239.62,-1695 239.62,-1772"/>
<image xlink:href="img/mob.png" width="77px" height="77px" preserveAspectRatio="xMinYMin meet" x="162.625" y="-1772"/>
<text text-anchor="middle" x="201.12" y="-1727.7" font-family="MS Gothic" font-size="14.00">Roxana</text>
</g>
<!-- Roxana&#45;&gt;Cade -->
<g id="edge44" class="edge">
<title>Roxana&#45;&gt;Cade</title>
<path fill="none" stroke="black" d="M178.94,-1694.61C174.13,-1686.39 168.98,-1677.6 163.98,-1669.07"/>
<polygon fill="black" stroke="black" points="167.05,-1667.39 158.98,-1660.52 161.01,-1670.92 167.05,-1667.39"/>
</g>
<!-- Bald Galloway -->
<g id="node46" class="node">
<title>Bald Galloway</title>
<polygon fill="lightblue" stroke="lightblue" points="183,-1885 79.25,-1885 79.25,-1808 183,-1808 183,-1885"/>
<image xlink:href="img/mob.png" width="100px" height="77px" preserveAspectRatio="xMinYMin meet" x="81.125" y="-1885"/>
<text text-anchor="middle" x="131.12" y="-1840.7" font-family="MS Gothic" font-size="14.00">Bald Galloway</text>
</g>
<!-- Bald Galloway&#45;&gt;Roxana -->
<g id="edge45" class="edge">
<title>Bald Galloway&#45;&gt;Roxana</title>
<path fill="none" stroke="black" d="M155.02,-1807.61C160.26,-1799.31 165.86,-1790.41 171.3,-1781.79"/>
<polygon fill="black" stroke="black" points="174.16,-1783.82 176.53,-1773.5 168.24,-1780.09 174.16,-1783.82"/>
</g>
<!-- Sister to Chaunter -->
<g id="node47" class="node">
<title>Sister to Chaunter</title>
<polygon fill="lightcoral" stroke="lightcoral" points="338.88,-1885 201.38,-1885 201.38,-1808 338.88,-1808 338.88,-1885"/>
<image xlink:href="img/mob.png" width="100px" height="77px" preserveAspectRatio="xMinYMin meet" x="220.125" y="-1885"/>
<text text-anchor="middle" x="270.12" y="-1840.7" font-family="MS Gothic" font-size="14.00">Sister to Chaunter</text>
</g>
<!-- Sister to Chaunter&#45;&gt;Roxana -->
<g id="edge46" class="edge">
<title>Sister to Chaunter&#45;&gt;Roxana</title>
<path fill="none" stroke="black" d="M246.57,-1807.61C241.41,-1799.31 235.88,-1790.41 230.52,-1781.79"/>
<polygon fill="black" stroke="black" points="233.62,-1780.15 225.37,-1773.5 227.68,-1783.84 233.62,-1780.15"/>
</g>
</g>
</svg>
