<?xml version="1.0" encoding="UTF-8" standalone="no"?>
<!DOCTYPE svg PUBLIC "-//W3C//DTD SVG 1.1//EN"
 "http://www.w3.org/Graphics/SVG/1.1/DTD/svg11.dtd">
<!-- Generated by graphviz version 12.1.2 (20240928.0832)
 -->
<!-- Pages: 1 -->
<svg width="848pt" height="763pt"
 viewBox="0.00 0.00 847.62 763.00" xmlns="http://www.w3.org/2000/svg" xmlns:xlink="http://www.w3.org/1999/xlink">
<g id="graph0" class="graph" transform="scale(1 1) rotate(0) translate(4 759)">
<polygon fill="white" stroke="none" points="-4,4 -4,-759 843.62,-759 843.62,4 -4,4"/>
<!-- Waxy -->
<g id="node1" class="node">
<title>Waxy</title>
<polygon fill="none" stroke="black" points="688.62,-77 611.62,-77 611.62,0 688.62,0 688.62,-77"/>
<image xlink:href="img/mob.png" width="77px" height="77px" preserveAspectRatio="xMinYMin meet" x="611.625" y="-77"/>
<text text-anchor="middle" x="650.12" y="-33.45" font-family="Times New Roman,serif" font-size="14.00">Waxy</text>
</g>
<!-- Pot&#45;8&#45;Os -->
<g id="node2" class="node">
<title>Pot&#45;8&#45;Os</title>
<polygon fill="lightblue" stroke="lightblue" points="632.62,-190 555.62,-190 555.62,-113 632.62,-113 632.62,-190"/>
<image xlink:href="img/mob.png" width="77px" height="77px" preserveAspectRatio="xMinYMin meet" x="555.625" y="-190"/>
<text text-anchor="middle" x="594.12" y="-145.7" font-family="MS Gothic" font-size="14.00">Pot&#45;8&#45;Os</text>
</g>
<!-- Pot&#45;8&#45;Os&#45;&gt;Waxy -->
<g id="edge1" class="edge">
<title>Pot&#45;8&#45;Os&#45;&gt;Waxy</title>
<path fill="none" stroke="black" d="M613.24,-112.61C617.34,-104.48 621.72,-95.8 625.99,-87.35"/>
<polygon fill="black" stroke="black" points="629.03,-89.07 630.41,-78.57 622.78,-85.92 629.03,-89.07"/>
</g>
<!-- Maria III -->
<g id="node3" class="node">
<title>Maria III</title>
<polygon fill="lightcoral" stroke="lightcoral" points="744.62,-190 667.62,-190 667.62,-113 744.62,-113 744.62,-190"/>
<image xlink:href="img/mob.png" width="77px" height="77px" preserveAspectRatio="xMinYMin meet" x="667.625" y="-190"/>
<text text-anchor="middle" x="706.12" y="-145.7" font-family="MS Gothic" font-size="14.00">Maria III</text>
</g>
<!-- Maria III&#45;&gt;Waxy -->
<g id="edge2" class="edge">
<title>Maria III&#45;&gt;Waxy</title>
<path fill="none" stroke="black" d="M687.01,-112.61C682.91,-104.48 678.53,-95.8 674.26,-87.35"/>
<polygon fill="black" stroke="black" points="677.47,-85.92 669.84,-78.57 671.22,-89.07 677.47,-85.92"/>
</g>
<!-- Eclipse -->
<g id="node4" class="node">
<title>Eclipse</title>
<polygon fill="lightblue" stroke="lightblue" points="520.62,-303 443.62,-303 443.62,-226 520.62,-226 520.62,-303"/>
<image xlink:href="img/mob.png" width="77px" height="77px" preserveAspectRatio="xMinYMin meet" x="443.625" y="-303"/>
<text text-anchor="middle" x="482.12" y="-258.7" font-family="MS Gothic" font-size="14.00">Eclipse</text>
</g>
<!-- Eclipse&#45;&gt;Pot&#45;8&#45;Os -->
<g id="edge3" class="edge">
<title>Eclipse&#45;&gt;Pot&#45;8&#45;Os</title>
<path fill="none" stroke="black" d="M520.36,-225.61C529.28,-216.77 538.87,-207.26 548.09,-198.13"/>
<polygon fill="black" stroke="black" points="550.35,-200.81 554.99,-191.28 545.42,-195.84 550.35,-200.81"/>
</g>
<!-- Sportsmistress -->
<g id="node5" class="node">
<title>Sportsmistress</title>
<polygon fill="lightcoral" stroke="lightcoral" points="649.38,-303 538.88,-303 538.88,-226 649.38,-226 649.38,-303"/>
<image xlink:href="img/mob.png" width="100px" height="77px" preserveAspectRatio="xMinYMin meet" x="544.125" y="-303"/>
<text text-anchor="middle" x="594.12" y="-258.7" font-family="MS Gothic" font-size="14.00">Sportsmistress</text>
</g>
<!-- Sportsmistress&#45;&gt;Pot&#45;8&#45;Os -->
<g id="edge4" class="edge">
<title>Sportsmistress&#45;&gt;Pot&#45;8&#45;Os</title>
<path fill="none" stroke="black" d="M594.12,-225.61C594.12,-217.84 594.12,-209.56 594.12,-201.46"/>
<polygon fill="black" stroke="black" points="597.63,-201.73 594.13,-191.73 590.63,-201.73 597.63,-201.73"/>
</g>
<!-- Herod -->
<g id="node6" class="node">
<title>Herod</title>
<polygon fill="lightblue" stroke="lightblue" points="744.62,-303 667.62,-303 667.62,-226 744.62,-226 744.62,-303"/>
<image xlink:href="img/mob.png" width="77px" height="77px" preserveAspectRatio="xMinYMin meet" x="667.625" y="-303"/>
<text text-anchor="middle" x="706.12" y="-258.7" font-family="MS Gothic" font-size="14.00">Herod</text>
</g>
<!-- Herod&#45;&gt;Maria III -->
<g id="edge5" class="edge">
<title>Herod&#45;&gt;Maria III</title>
<path fill="none" stroke="black" d="M706.12,-225.61C706.12,-217.84 706.12,-209.56 706.12,-201.46"/>
<polygon fill="black" stroke="black" points="709.63,-201.73 706.13,-191.73 702.63,-201.73 709.63,-201.73"/>
</g>
<!-- Lisette -->
<g id="node7" class="node">
<title>Lisette</title>
<polygon fill="lightcoral" stroke="lightcoral" points="839.62,-303 762.62,-303 762.62,-226 839.62,-226 839.62,-303"/>
<image xlink:href="img/mob.png" width="77px" height="77px" preserveAspectRatio="xMinYMin meet" x="762.625" y="-303"/>
<text text-anchor="middle" x="801.12" y="-258.7" font-family="MS Gothic" font-size="14.00">Lisette</text>
</g>
<!-- Lisette&#45;&gt;Maria III -->
<g id="edge6" class="edge">
<title>Lisette&#45;&gt;Maria III</title>
<path fill="none" stroke="black" d="M768.7,-225.61C761.36,-217.04 753.49,-207.84 745.89,-198.96"/>
<polygon fill="black" stroke="black" points="748.55,-196.69 739.39,-191.37 743.23,-201.24 748.55,-196.69"/>
</g>
<!-- Marske -->
<g id="node8" class="node">
<title>Marske</title>
<polygon fill="lightblue" stroke="lightblue" points="449.62,-416 372.62,-416 372.62,-339 449.62,-339 449.62,-416"/>
<image xlink:href="img/mob.png" width="77px" height="77px" preserveAspectRatio="xMinYMin meet" x="372.625" y="-416"/>
<text text-anchor="middle" x="411.12" y="-371.7" font-family="MS Gothic" font-size="14.00">Marske</text>
</g>
<!-- Marske&#45;&gt;Eclipse -->
<g id="edge7" class="edge">
<title>Marske&#45;&gt;Eclipse</title>
<path fill="none" stroke="black" d="M435.36,-338.61C440.67,-330.31 446.36,-321.41 451.88,-312.79"/>
<polygon fill="black" stroke="black" points="454.74,-314.8 457.18,-304.49 448.85,-311.03 454.74,-314.8"/>
</g>
<!-- Spilletta -->
<g id="node9" class="node">
<title>Spilletta</title>
<polygon fill="lightcoral" stroke="lightcoral" points="591.62,-416 514.62,-416 514.62,-339 591.62,-339 591.62,-416"/>
<image xlink:href="img/mob.png" width="77px" height="77px" preserveAspectRatio="xMinYMin meet" x="514.625" y="-416"/>
<text text-anchor="middle" x="553.12" y="-371.7" font-family="MS Gothic" font-size="14.00">Spilletta</text>
</g>
<!-- Spilletta&#45;&gt;Eclipse -->
<g id="edge8" class="edge">
<title>Spilletta&#45;&gt;Eclipse</title>
<path fill="none" stroke="black" d="M528.89,-338.61C523.58,-330.31 517.89,-321.41 512.37,-312.79"/>
<polygon fill="black" stroke="black" points="515.4,-311.03 507.07,-304.49 509.51,-314.8 515.4,-311.03"/>
</g>
<!-- Squirt -->
<g id="node10" class="node">
<title>Squirt</title>
<polygon fill="lightblue" stroke="lightblue" points="307.62,-529 230.62,-529 230.62,-452 307.62,-452 307.62,-529"/>
<image xlink:href="img/mob.png" width="77px" height="77px" preserveAspectRatio="xMinYMin meet" x="230.625" y="-529"/>
<text text-anchor="middle" x="269.12" y="-484.7" font-family="MS Gothic" font-size="14.00">Squirt</text>
</g>
<!-- Squirt&#45;&gt;Marske -->
<g id="edge9" class="edge">
<title>Squirt&#45;&gt;Marske</title>
<path fill="none" stroke="black" d="M308.07,-458.35C310.79,-456.2 313.5,-454.06 316.12,-452 331.48,-439.94 348.31,-426.87 363.48,-415.14"/>
<polygon fill="black" stroke="black" points="365.22,-418.22 371,-409.33 360.95,-412.67 365.22,-418.22"/>
</g>
<!-- Hutton&#39;s Blacklegs Mare -->
<g id="node11" class="node">
<title>Hutton&#39;s Blacklegs Mare</title>
<polygon fill="lightcoral" stroke="lightcoral" points="496.75,-529 325.5,-529 325.5,-452 496.75,-452 496.75,-529"/>
<image xlink:href="img/mob.png" width="100px" height="77px" preserveAspectRatio="xMinYMin meet" x="361.125" y="-529"/>
<text text-anchor="middle" x="411.12" y="-484.7" font-family="MS Gothic" font-size="14.00">Hutton&#39;s Blacklegs Mare</text>
</g>
<!-- Hutton&#39;s Blacklegs Mare&#45;&gt;Marske -->
<g id="edge10" class="edge">
<title>Hutton&#39;s Blacklegs Mare&#45;&gt;Marske</title>
<path fill="none" stroke="black" d="M411.12,-451.61C411.12,-443.84 411.12,-435.56 411.12,-427.46"/>
<polygon fill="black" stroke="black" points="414.63,-427.73 411.13,-417.73 407.63,-427.73 414.63,-427.73"/>
</g>
<!-- Regulus -->
<g id="node12" class="node">
<title>Regulus</title>
<polygon fill="lightblue" stroke="lightblue" points="591.62,-529 514.62,-529 514.62,-452 591.62,-452 591.62,-529"/>
<image xlink:href="img/mob.png" width="77px" height="77px" preserveAspectRatio="xMinYMin meet" x="514.625" y="-529"/>
<text text-anchor="middle" x="553.12" y="-484.7" font-family="MS Gothic" font-size="14.00">Regulus</text>
</g>
<!-- Regulus&#45;&gt;Spilletta -->
<g id="edge11" class="edge">
<title>Regulus&#45;&gt;Spilletta</title>
<path fill="none" stroke="black" d="M553.12,-451.61C553.12,-443.84 553.12,-435.56 553.12,-427.46"/>
<polygon fill="black" stroke="black" points="556.63,-427.73 553.13,-417.73 549.63,-427.73 556.63,-427.73"/>
</g>
<!-- Mother Western -->
<g id="node13" class="node">
<title>Mother Western</title>
<polygon fill="lightcoral" stroke="lightcoral" points="720.38,-529 609.88,-529 609.88,-452 720.38,-452 720.38,-529"/>
<image xlink:href="img/mob.png" width="100px" height="77px" preserveAspectRatio="xMinYMin meet" x="615.125" y="-529"/>
<text text-anchor="middle" x="665.12" y="-484.7" font-family="MS Gothic" font-size="14.00">Mother Western</text>
</g>
<!-- Mother Western&#45;&gt;Spilletta -->
<g id="edge12" class="edge">
<title>Mother Western&#45;&gt;Spilletta</title>
<path fill="none" stroke="black" d="M626.89,-451.61C617.97,-442.77 608.38,-433.26 599.16,-424.13"/>
<polygon fill="black" stroke="black" points="601.83,-421.84 592.26,-417.28 596.9,-426.81 601.83,-421.84"/>
</g>
<!-- Bartlet&#39;s Childers -->
<g id="node14" class="node">
<title>Bartlet&#39;s Childers</title>
<polygon fill="lightblue" stroke="lightblue" points="273.88,-642 136.38,-642 136.38,-565 273.88,-565 273.88,-642"/>
<image xlink:href="img/mob.png" width="100px" height="77px" preserveAspectRatio="xMinYMin meet" x="155.125" y="-642"/>
<text text-anchor="middle" x="205.12" y="-597.7" font-family="MS Gothic" font-size="14.00">Bartlet&#39;s Childers</text>
</g>
<!-- Bartlet&#39;s Childers&#45;&gt;Squirt -->
<g id="edge13" class="edge">
<title>Bartlet&#39;s Childers&#45;&gt;Squirt</title>
<path fill="none" stroke="black" d="M226.97,-564.61C231.71,-556.39 236.78,-547.6 241.7,-539.07"/>
<polygon fill="black" stroke="black" points="244.66,-540.94 246.62,-530.53 238.59,-537.44 244.66,-540.94"/>
</g>
<!-- Snake Mare -->
<g id="node15" class="node">
<title>Snake Mare</title>
<polygon fill="lightcoral" stroke="lightcoral" points="375.88,-642 292.38,-642 292.38,-565 375.88,-565 375.88,-642"/>
<image xlink:href="img/mob.png" width="83.5px" height="77px" preserveAspectRatio="xMinYMin meet" x="292.375" y="-642"/>
<text text-anchor="middle" x="334.12" y="-597.7" font-family="MS Gothic" font-size="14.00">Snake Mare</text>
</g>
<!-- Snake Mare&#45;&gt;Squirt -->
<g id="edge14" class="edge">
<title>Snake Mare&#45;&gt;Squirt</title>
<path fill="none" stroke="black" d="M311.94,-564.61C307.13,-556.39 301.98,-547.6 296.98,-539.07"/>
<polygon fill="black" stroke="black" points="300.05,-537.39 291.98,-530.52 294.01,-540.92 300.05,-537.39"/>
</g>
<!-- ダーレーアラビアン -->
<g id="node16" class="node">
<title>ダーレーアラビアン</title>
<polygon fill="lightblue" stroke="lightblue" points="144.25,-755 0,-755 0,-678 144.25,-678 144.25,-755"/>
<image xlink:href="img/darearabian.png" width="100px" height="77px" preserveAspectRatio="xMinYMin meet" x="22.125" y="-755"/>
<text text-anchor="middle" x="72.12" y="-710.7" font-family="MS Gothic" font-size="14.00">ダーレーアラビアン</text>
</g>
<!-- ダーレーアラビアン&#45;&gt;Bartlet&#39;s Childers -->
<g id="edge15" class="edge">
<title>ダーレーアラビアン&#45;&gt;Bartlet&#39;s Childers</title>
<path fill="none" stroke="black" d="M117.52,-677.61C128.33,-668.59 139.97,-658.88 151.12,-649.57"/>
<polygon fill="black" stroke="black" points="153.33,-652.28 158.77,-643.19 148.85,-646.91 153.33,-652.28"/>
</g>
<!-- Betty Leedes -->
<g id="node17" class="node">
<title>Betty Leedes</title>
<polygon fill="lightcoral" stroke="lightcoral" points="259.62,-755 162.62,-755 162.62,-678 259.62,-678 259.62,-755"/>
<image xlink:href="img/mob.png" width="97px" height="77px" preserveAspectRatio="xMinYMin meet" x="162.625" y="-755"/>
<text text-anchor="middle" x="211.12" y="-710.7" font-family="MS Gothic" font-size="14.00">Betty Leedes</text>
</g>
<!-- Betty Leedes&#45;&gt;Bartlet&#39;s Childers -->
<g id="edge16" class="edge">
<title>Betty Leedes&#45;&gt;Bartlet&#39;s Childers</title>
<path fill="none" stroke="black" d="M209.08,-677.61C208.66,-669.84 208.21,-661.56 207.77,-653.46"/>
<polygon fill="black" stroke="black" points="211.28,-653.53 207.25,-643.73 204.29,-653.9 211.28,-653.53"/>
</g>
<!-- Snake -->
<g id="node18" class="node">
<title>Snake</title>
<polygon fill="lightblue" stroke="lightblue" points="366.62,-755 289.62,-755 289.62,-678 366.62,-678 366.62,-755"/>
<image xlink:href="img/mob.png" width="77px" height="77px" preserveAspectRatio="xMinYMin meet" x="289.625" y="-755"/>
<text text-anchor="middle" x="328.12" y="-710.7" font-family="MS Gothic" font-size="14.00">Snake</text>
</g>
<!-- Snake&#45;&gt;Snake Mare -->
<g id="edge17" class="edge">
<title>Snake&#45;&gt;Snake Mare</title>
<path fill="none" stroke="black" d="M330.17,-677.61C330.59,-669.84 331.04,-661.56 331.48,-653.46"/>
<polygon fill="black" stroke="black" points="334.96,-653.9 332,-643.73 327.97,-653.53 334.96,-653.9"/>
</g>
<!-- Grey Wilkes -->
<g id="node19" class="node">
<title>Grey Wilkes</title>
<polygon fill="lightcoral" stroke="lightcoral" points="475.25,-755 385,-755 385,-678 475.25,-678 475.25,-755"/>
<image xlink:href="img/mob.png" width="90.25px" height="77px" preserveAspectRatio="xMinYMin meet" x="385" y="-755"/>
<text text-anchor="middle" x="430.12" y="-710.7" font-family="MS Gothic" font-size="14.00">Grey Wilkes</text>
</g>
<!-- Grey Wilkes&#45;&gt;Snake Mare -->
<g id="edge18" class="edge">
<title>Grey Wilkes&#45;&gt;Snake Mare</title>
<path fill="none" stroke="black" d="M397.36,-677.61C389.86,-668.95 381.82,-659.65 374.07,-650.68"/>
<polygon fill="black" stroke="black" points="376.93,-648.64 367.74,-643.36 371.63,-653.22 376.93,-648.64"/>
</g>
</g>
</svg>
