<?xml version="1.0" encoding="UTF-8" standalone="no"?>
<!DOCTYPE svg PUBLIC "-//W3C//DTD SVG 1.1//EN"
 "http://www.w3.org/Graphics/SVG/1.1/DTD/svg11.dtd">
<!-- Generated by graphviz version 12.1.2 (20240928.0832)
 -->
<!-- Pages: 1 -->
<svg width="996pt" height="1215pt"
 viewBox="0.00 0.00 995.62 1215.00" xmlns="http://www.w3.org/2000/svg" xmlns:xlink="http://www.w3.org/1999/xlink">
<g id="graph0" class="graph" transform="scale(1 1) rotate(0) translate(4 1211)">
<polygon fill="white" stroke="none" points="-4,4 -4,-1211 991.62,-1211 991.62,4 -4,4"/>
<!-- West Australian -->
<g id="node1" class="node">
<title>West Australian</title>
<polygon fill="none" stroke="black" points="844.25,-77 742,-77 742,0 844.25,0 844.25,-77"/>
<image xlink:href="img/mob.png" width="100px" height="77px" preserveAspectRatio="xMinYMin meet" x="743.125" y="-77"/>
<text text-anchor="middle" x="793.12" y="-33.45" font-family="Times New Roman,serif" font-size="14.00">West Australian</text>
</g>
<!-- Melbourne -->
<g id="node2" class="node">
<title>Melbourne</title>
<polygon fill="lightblue" stroke="lightblue" points="774.62,-190 697.62,-190 697.62,-113 774.62,-113 774.62,-190"/>
<image xlink:href="img/mob.png" width="77px" height="77px" preserveAspectRatio="xMinYMin meet" x="697.625" y="-190"/>
<text text-anchor="middle" x="736.12" y="-145.7" font-family="MS Gothic" font-size="14.00">Melbourne</text>
</g>
<!-- Melbourne&#45;&gt;West Australian -->
<g id="edge1" class="edge">
<title>Melbourne&#45;&gt;West Australian</title>
<path fill="none" stroke="black" d="M755.58,-112.61C759.75,-104.48 764.22,-95.8 768.55,-87.35"/>
<polygon fill="black" stroke="black" points="771.61,-89.06 773.06,-78.57 765.38,-85.86 771.61,-89.06"/>
</g>
<!-- Mowerina -->
<g id="node3" class="node">
<title>Mowerina</title>
<polygon fill="lightcoral" stroke="lightcoral" points="889.62,-190 812.62,-190 812.62,-113 889.62,-113 889.62,-190"/>
<image xlink:href="img/mob.png" width="77px" height="77px" preserveAspectRatio="xMinYMin meet" x="812.625" y="-190"/>
<text text-anchor="middle" x="851.12" y="-145.7" font-family="MS Gothic" font-size="14.00">Mowerina</text>
</g>
<!-- Mowerina&#45;&gt;West Australian -->
<g id="edge2" class="edge">
<title>Mowerina&#45;&gt;West Australian</title>
<path fill="none" stroke="black" d="M831.33,-112.61C827.08,-104.48 822.54,-95.8 818.13,-87.35"/>
<polygon fill="black" stroke="black" points="821.27,-85.8 813.53,-78.56 815.06,-89.04 821.27,-85.8"/>
</g>
<!-- Humphrey Clinker -->
<g id="node4" class="node">
<title>Humphrey Clinker</title>
<polygon fill="lightblue" stroke="lightblue" points="663.12,-303 539.12,-303 539.12,-226 663.12,-226 663.12,-303"/>
<image xlink:href="img/mob.png" width="100px" height="77px" preserveAspectRatio="xMinYMin meet" x="551.125" y="-303"/>
<text text-anchor="middle" x="601.12" y="-258.7" font-family="MS Gothic" font-size="14.00">Humphrey Clinker</text>
</g>
<!-- Humphrey Clinker&#45;&gt;Melbourne -->
<g id="edge3" class="edge">
<title>Humphrey Clinker&#45;&gt;Melbourne</title>
<path fill="none" stroke="black" d="M647.21,-225.61C660.62,-214.59 675.28,-202.53 688.77,-191.44"/>
<polygon fill="black" stroke="black" points="690.76,-194.33 696.27,-185.27 686.32,-188.92 690.76,-194.33"/>
</g>
<!-- Cervantes Mare -->
<g id="node5" class="node">
<title>Cervantes Mare</title>
<polygon fill="lightcoral" stroke="lightcoral" points="791.38,-303 680.88,-303 680.88,-226 791.38,-226 791.38,-303"/>
<image xlink:href="img/mob.png" width="100px" height="77px" preserveAspectRatio="xMinYMin meet" x="686.125" y="-303"/>
<text text-anchor="middle" x="736.12" y="-258.7" font-family="MS Gothic" font-size="14.00">Cervantes Mare</text>
</g>
<!-- Cervantes Mare&#45;&gt;Melbourne -->
<g id="edge4" class="edge">
<title>Cervantes Mare&#45;&gt;Melbourne</title>
<path fill="none" stroke="black" d="M736.12,-225.61C736.12,-217.84 736.12,-209.56 736.12,-201.46"/>
<polygon fill="black" stroke="black" points="739.63,-201.73 736.13,-191.73 732.63,-201.73 739.63,-201.73"/>
</g>
<!-- Touchstone -->
<g id="node6" class="node">
<title>Touchstone</title>
<polygon fill="lightblue" stroke="lightblue" points="892.88,-303 809.38,-303 809.38,-226 892.88,-226 892.88,-303"/>
<image xlink:href="img/mob.png" width="83.5px" height="77px" preserveAspectRatio="xMinYMin meet" x="809.375" y="-303"/>
<text text-anchor="middle" x="851.12" y="-258.7" font-family="MS Gothic" font-size="14.00">Touchstone</text>
</g>
<!-- Touchstone&#45;&gt;Mowerina -->
<g id="edge5" class="edge">
<title>Touchstone&#45;&gt;Mowerina</title>
<path fill="none" stroke="black" d="M851.12,-225.61C851.12,-217.84 851.12,-209.56 851.12,-201.46"/>
<polygon fill="black" stroke="black" points="854.63,-201.73 851.13,-191.73 847.63,-201.73 854.63,-201.73"/>
</g>
<!-- Emma -->
<g id="node7" class="node">
<title>Emma</title>
<polygon fill="lightcoral" stroke="lightcoral" points="987.62,-303 910.62,-303 910.62,-226 987.62,-226 987.62,-303"/>
<image xlink:href="img/mob.png" width="77px" height="77px" preserveAspectRatio="xMinYMin meet" x="910.625" y="-303"/>
<text text-anchor="middle" x="949.12" y="-258.7" font-family="MS Gothic" font-size="14.00">Emma</text>
</g>
<!-- Emma&#45;&gt;Mowerina -->
<g id="edge6" class="edge">
<title>Emma&#45;&gt;Mowerina</title>
<path fill="none" stroke="black" d="M915.67,-225.61C908.03,-216.95 899.81,-207.65 891.9,-198.68"/>
<polygon fill="black" stroke="black" points="894.67,-196.53 885.43,-191.35 889.42,-201.17 894.67,-196.53"/>
</g>
<!-- Comus -->
<g id="node8" class="node">
<title>Comus</title>
<polygon fill="lightblue" stroke="lightblue" points="585.62,-416 508.62,-416 508.62,-339 585.62,-339 585.62,-416"/>
<image xlink:href="img/mob.png" width="77px" height="77px" preserveAspectRatio="xMinYMin meet" x="508.625" y="-416"/>
<text text-anchor="middle" x="547.12" y="-371.7" font-family="MS Gothic" font-size="14.00">Comus</text>
</g>
<!-- Comus&#45;&gt;Humphrey Clinker -->
<g id="edge7" class="edge">
<title>Comus&#45;&gt;Humphrey Clinker</title>
<path fill="none" stroke="black" d="M565.56,-338.61C569.51,-330.48 573.74,-321.8 577.85,-313.35"/>
<polygon fill="black" stroke="black" points="580.89,-315.1 582.11,-304.58 574.59,-312.04 580.89,-315.1"/>
</g>
<!-- Clinkerina -->
<g id="node9" class="node">
<title>Clinkerina</title>
<polygon fill="lightcoral" stroke="lightcoral" points="696.88,-416 613.38,-416 613.38,-339 696.88,-339 696.88,-416"/>
<image xlink:href="img/mob.png" width="83.5px" height="77px" preserveAspectRatio="xMinYMin meet" x="613.375" y="-416"/>
<text text-anchor="middle" x="655.12" y="-371.7" font-family="MS Gothic" font-size="14.00">Clinkerina</text>
</g>
<!-- Clinkerina&#45;&gt;Humphrey Clinker -->
<g id="edge8" class="edge">
<title>Clinkerina&#45;&gt;Humphrey Clinker</title>
<path fill="none" stroke="black" d="M636.69,-338.61C632.74,-330.48 628.51,-321.8 624.4,-313.35"/>
<polygon fill="black" stroke="black" points="627.66,-312.04 620.14,-304.58 621.36,-315.1 627.66,-312.04"/>
</g>
<!-- Sorcerer -->
<g id="node10" class="node">
<title>Sorcerer</title>
<polygon fill="lightblue" stroke="lightblue" points="477.62,-529 400.62,-529 400.62,-452 477.62,-452 477.62,-529"/>
<image xlink:href="img/mob.png" width="77px" height="77px" preserveAspectRatio="xMinYMin meet" x="400.625" y="-529"/>
<text text-anchor="middle" x="439.12" y="-484.7" font-family="MS Gothic" font-size="14.00">Sorcerer</text>
</g>
<!-- Sorcerer&#45;&gt;Comus -->
<g id="edge9" class="edge">
<title>Sorcerer&#45;&gt;Comus</title>
<path fill="none" stroke="black" d="M475.99,-451.61C484.51,-442.86 493.65,-433.46 502.46,-424.4"/>
<polygon fill="black" stroke="black" points="504.91,-426.91 509.37,-417.3 499.89,-422.03 504.91,-426.91"/>
</g>
<!-- Houghton Lass -->
<g id="node11" class="node">
<title>Houghton Lass</title>
<polygon fill="lightcoral" stroke="lightcoral" points="599,-529 495.25,-529 495.25,-452 599,-452 599,-529"/>
<image xlink:href="img/mob.png" width="100px" height="77px" preserveAspectRatio="xMinYMin meet" x="497.125" y="-529"/>
<text text-anchor="middle" x="547.12" y="-484.7" font-family="MS Gothic" font-size="14.00">Houghton Lass</text>
</g>
<!-- Houghton Lass&#45;&gt;Comus -->
<g id="edge10" class="edge">
<title>Houghton Lass&#45;&gt;Comus</title>
<path fill="none" stroke="black" d="M547.12,-451.61C547.12,-443.84 547.12,-435.56 547.12,-427.46"/>
<polygon fill="black" stroke="black" points="550.63,-427.73 547.13,-417.73 543.63,-427.73 550.63,-427.73"/>
</g>
<!-- Clinker -->
<g id="node12" class="node">
<title>Clinker</title>
<polygon fill="lightblue" stroke="lightblue" points="693.62,-529 616.62,-529 616.62,-452 693.62,-452 693.62,-529"/>
<image xlink:href="img/mob.png" width="77px" height="77px" preserveAspectRatio="xMinYMin meet" x="616.625" y="-529"/>
<text text-anchor="middle" x="655.12" y="-484.7" font-family="MS Gothic" font-size="14.00">Clinker</text>
</g>
<!-- Clinker&#45;&gt;Clinkerina -->
<g id="edge11" class="edge">
<title>Clinker&#45;&gt;Clinkerina</title>
<path fill="none" stroke="black" d="M655.12,-451.61C655.12,-443.84 655.12,-435.56 655.12,-427.46"/>
<polygon fill="black" stroke="black" points="658.63,-427.73 655.13,-417.73 651.63,-427.73 658.63,-427.73"/>
</g>
<!-- Pewet -->
<g id="node13" class="node">
<title>Pewet</title>
<polygon fill="lightcoral" stroke="lightcoral" points="788.62,-529 711.62,-529 711.62,-452 788.62,-452 788.62,-529"/>
<image xlink:href="img/mob.png" width="77px" height="77px" preserveAspectRatio="xMinYMin meet" x="711.625" y="-529"/>
<text text-anchor="middle" x="750.12" y="-484.7" font-family="MS Gothic" font-size="14.00">Pewet</text>
</g>
<!-- Pewet&#45;&gt;Clinkerina -->
<g id="edge12" class="edge">
<title>Pewet&#45;&gt;Clinkerina</title>
<path fill="none" stroke="black" d="M717.7,-451.61C710.36,-443.04 702.49,-433.84 694.89,-424.96"/>
<polygon fill="black" stroke="black" points="697.55,-422.69 688.39,-417.37 692.23,-427.24 697.55,-422.69"/>
</g>
<!-- Trumpator -->
<g id="node14" class="node">
<title>Trumpator</title>
<polygon fill="lightblue" stroke="lightblue" points="421.62,-642 344.62,-642 344.62,-565 421.62,-565 421.62,-642"/>
<image xlink:href="img/mob.png" width="77px" height="77px" preserveAspectRatio="xMinYMin meet" x="344.625" y="-642"/>
<text text-anchor="middle" x="383.12" y="-597.7" font-family="MS Gothic" font-size="14.00">Trumpator</text>
</g>
<!-- Trumpator&#45;&gt;Sorcerer -->
<g id="edge13" class="edge">
<title>Trumpator&#45;&gt;Sorcerer</title>
<path fill="none" stroke="black" d="M402.24,-564.61C406.34,-556.48 410.72,-547.8 414.99,-539.35"/>
<polygon fill="black" stroke="black" points="418.03,-541.07 419.41,-530.57 411.78,-537.92 418.03,-541.07"/>
</g>
<!-- Young Giantess -->
<g id="node15" class="node">
<title>Young Giantess</title>
<polygon fill="lightcoral" stroke="lightcoral" points="550.38,-642 439.88,-642 439.88,-565 550.38,-565 550.38,-642"/>
<image xlink:href="img/mob.png" width="100px" height="77px" preserveAspectRatio="xMinYMin meet" x="445.125" y="-642"/>
<text text-anchor="middle" x="495.12" y="-597.7" font-family="MS Gothic" font-size="14.00">Young Giantess</text>
</g>
<!-- Young Giantess&#45;&gt;Sorcerer -->
<g id="edge14" class="edge">
<title>Young Giantess&#45;&gt;Sorcerer</title>
<path fill="none" stroke="black" d="M476.01,-564.61C471.91,-556.48 467.53,-547.8 463.26,-539.35"/>
<polygon fill="black" stroke="black" points="466.47,-537.92 458.84,-530.57 460.22,-541.07 466.47,-537.92"/>
</g>
<!-- Conductor -->
<g id="node16" class="node">
<title>Conductor</title>
<polygon fill="lightblue" stroke="lightblue" points="331.62,-755 254.62,-755 254.62,-678 331.62,-678 331.62,-755"/>
<image xlink:href="img/mob.png" width="77px" height="77px" preserveAspectRatio="xMinYMin meet" x="254.625" y="-755"/>
<text text-anchor="middle" x="293.12" y="-710.7" font-family="MS Gothic" font-size="14.00">Conductor</text>
</g>
<!-- Conductor&#45;&gt;Trumpator -->
<g id="edge15" class="edge">
<title>Conductor&#45;&gt;Trumpator</title>
<path fill="none" stroke="black" d="M323.85,-677.61C330.8,-669.04 338.26,-659.84 345.46,-650.96"/>
<polygon fill="black" stroke="black" points="348.01,-653.37 351.59,-643.39 342.57,-648.96 348.01,-653.37"/>
</g>
<!-- Brunette -->
<g id="node17" class="node">
<title>Brunette</title>
<polygon fill="lightcoral" stroke="lightcoral" points="426.62,-755 349.62,-755 349.62,-678 426.62,-678 426.62,-755"/>
<image xlink:href="img/mob.png" width="77px" height="77px" preserveAspectRatio="xMinYMin meet" x="349.625" y="-755"/>
<text text-anchor="middle" x="388.12" y="-710.7" font-family="MS Gothic" font-size="14.00">Brunette</text>
</g>
<!-- Brunette&#45;&gt;Trumpator -->
<g id="edge16" class="edge">
<title>Brunette&#45;&gt;Trumpator</title>
<path fill="none" stroke="black" d="M386.42,-677.61C386.07,-669.84 385.7,-661.56 385.33,-653.46"/>
<polygon fill="black" stroke="black" points="388.84,-653.56 384.89,-643.73 381.85,-653.88 388.84,-653.56"/>
</g>
<!-- Diomed -->
<g id="node18" class="node">
<title>Diomed</title>
<polygon fill="lightblue" stroke="lightblue" points="529.62,-755 452.62,-755 452.62,-678 529.62,-678 529.62,-755"/>
<image xlink:href="img/mob.png" width="77px" height="77px" preserveAspectRatio="xMinYMin meet" x="452.625" y="-755"/>
<text text-anchor="middle" x="491.12" y="-710.7" font-family="MS Gothic" font-size="14.00">Diomed</text>
</g>
<!-- Diomed&#45;&gt;Young Giantess -->
<g id="edge17" class="edge">
<title>Diomed&#45;&gt;Young Giantess</title>
<path fill="none" stroke="black" d="M492.49,-677.61C492.77,-669.84 493.07,-661.56 493.36,-653.46"/>
<polygon fill="black" stroke="black" points="496.85,-653.85 493.71,-643.73 489.85,-653.6 496.85,-653.85"/>
</g>
<!-- Giantess -->
<g id="node19" class="node">
<title>Giantess</title>
<polygon fill="lightcoral" stroke="lightcoral" points="624.62,-755 547.62,-755 547.62,-678 624.62,-678 624.62,-755"/>
<image xlink:href="img/mob.png" width="77px" height="77px" preserveAspectRatio="xMinYMin meet" x="547.625" y="-755"/>
<text text-anchor="middle" x="586.12" y="-710.7" font-family="MS Gothic" font-size="14.00">Giantess</text>
</g>
<!-- Giantess&#45;&gt;Young Giantess -->
<g id="edge18" class="edge">
<title>Giantess&#45;&gt;Young Giantess</title>
<path fill="none" stroke="black" d="M555.06,-677.61C548.03,-669.04 540.49,-659.84 533.21,-650.96"/>
<polygon fill="black" stroke="black" points="536.05,-648.9 527.01,-643.39 530.64,-653.34 536.05,-648.9"/>
</g>
<!-- Matchem -->
<g id="node20" class="node">
<title>Matchem</title>
<polygon fill="lightblue" stroke="lightblue" points="279.62,-868 202.62,-868 202.62,-791 279.62,-791 279.62,-868"/>
<image xlink:href="img/mob.png" width="77px" height="77px" preserveAspectRatio="xMinYMin meet" x="202.625" y="-868"/>
<text text-anchor="middle" x="241.12" y="-823.7" font-family="MS Gothic" font-size="14.00">Matchem</text>
</g>
<!-- Matchem&#45;&gt;Conductor -->
<g id="edge19" class="edge">
<title>Matchem&#45;&gt;Conductor</title>
<path fill="none" stroke="black" d="M258.88,-790.61C262.64,-782.57 266.66,-773.99 270.58,-765.63"/>
<polygon fill="black" stroke="black" points="273.74,-767.13 274.81,-756.59 267.4,-764.16 273.74,-767.13"/>
</g>
<!-- Snap Mare -->
<g id="node21" class="node">
<title>Snap Mare</title>
<polygon fill="lightcoral" stroke="lightcoral" points="384.62,-868 307.62,-868 307.62,-791 384.62,-791 384.62,-868"/>
<image xlink:href="img/mob.png" width="77px" height="77px" preserveAspectRatio="xMinYMin meet" x="307.625" y="-868"/>
<text text-anchor="middle" x="346.12" y="-823.7" font-family="MS Gothic" font-size="14.00">Snap Mare</text>
</g>
<!-- Snap Mare&#45;&gt;Conductor -->
<g id="edge20" class="edge">
<title>Snap Mare&#45;&gt;Conductor</title>
<path fill="none" stroke="black" d="M328.03,-790.61C324.15,-782.48 320.01,-773.8 315.97,-765.35"/>
<polygon fill="black" stroke="black" points="319.25,-764.1 311.79,-756.58 312.94,-767.12 319.25,-764.1"/>
</g>
<!-- Cade -->
<g id="node22" class="node">
<title>Cade</title>
<polygon fill="lightblue" stroke="lightblue" points="174.62,-981 97.62,-981 97.62,-904 174.62,-904 174.62,-981"/>
<image xlink:href="img/mob.png" width="77px" height="77px" preserveAspectRatio="xMinYMin meet" x="97.625" y="-981"/>
<text text-anchor="middle" x="136.12" y="-936.7" font-family="MS Gothic" font-size="14.00">Cade</text>
</g>
<!-- Cade&#45;&gt;Matchem -->
<g id="edge21" class="edge">
<title>Cade&#45;&gt;Matchem</title>
<path fill="none" stroke="black" d="M171.97,-903.61C180.24,-894.86 189.14,-885.46 197.7,-876.4"/>
<polygon fill="black" stroke="black" points="200.08,-878.99 204.41,-869.32 194.99,-874.18 200.08,-878.99"/>
</g>
<!-- Partner Mare -->
<g id="node23" class="node">
<title>Partner Mare</title>
<polygon fill="lightcoral" stroke="lightcoral" points="289.62,-981 192.62,-981 192.62,-904 289.62,-904 289.62,-981"/>
<image xlink:href="img/mob.png" width="97px" height="77px" preserveAspectRatio="xMinYMin meet" x="192.625" y="-981"/>
<text text-anchor="middle" x="241.12" y="-936.7" font-family="MS Gothic" font-size="14.00">Partner Mare</text>
</g>
<!-- Partner Mare&#45;&gt;Matchem -->
<g id="edge22" class="edge">
<title>Partner Mare&#45;&gt;Matchem</title>
<path fill="none" stroke="black" d="M241.12,-903.61C241.12,-895.84 241.12,-887.56 241.12,-879.46"/>
<polygon fill="black" stroke="black" points="244.63,-879.73 241.13,-869.73 237.63,-879.73 244.63,-879.73"/>
</g>
<!-- Snap -->
<g id="node24" class="node">
<title>Snap</title>
<polygon fill="lightblue" stroke="lightblue" points="384.62,-981 307.62,-981 307.62,-904 384.62,-904 384.62,-981"/>
<image xlink:href="img/mob.png" width="77px" height="77px" preserveAspectRatio="xMinYMin meet" x="307.625" y="-981"/>
<text text-anchor="middle" x="346.12" y="-936.7" font-family="MS Gothic" font-size="14.00">Snap</text>
</g>
<!-- Snap&#45;&gt;Snap Mare -->
<g id="edge23" class="edge">
<title>Snap&#45;&gt;Snap Mare</title>
<path fill="none" stroke="black" d="M346.12,-903.61C346.12,-895.84 346.12,-887.56 346.12,-879.46"/>
<polygon fill="black" stroke="black" points="349.63,-879.73 346.13,-869.73 342.63,-879.73 349.63,-879.73"/>
</g>
<!-- Diana -->
<g id="node25" class="node">
<title>Diana</title>
<polygon fill="lightcoral" stroke="lightcoral" points="479.62,-981 402.62,-981 402.62,-904 479.62,-904 479.62,-981"/>
<image xlink:href="img/mob.png" width="77px" height="77px" preserveAspectRatio="xMinYMin meet" x="402.625" y="-981"/>
<text text-anchor="middle" x="441.12" y="-936.7" font-family="MS Gothic" font-size="14.00">Diana</text>
</g>
<!-- Diana&#45;&gt;Snap Mare -->
<g id="edge24" class="edge">
<title>Diana&#45;&gt;Snap Mare</title>
<path fill="none" stroke="black" d="M408.7,-903.61C401.36,-895.04 393.49,-885.84 385.89,-876.96"/>
<polygon fill="black" stroke="black" points="388.55,-874.69 379.39,-869.37 383.23,-879.24 388.55,-874.69"/>
</g>
<!-- ゴドルフィンバルブ -->
<g id="node26" class="node">
<title>ゴドルフィンバルブ</title>
<polygon fill="lightblue" stroke="lightblue" points="144.25,-1094 0,-1094 0,-1017 144.25,-1017 144.25,-1094"/>
<image xlink:href="img/mob.png" width="100px" height="77px" preserveAspectRatio="xMinYMin meet" x="22.125" y="-1094"/>
<text text-anchor="middle" x="72.12" y="-1049.7" font-family="MS Gothic" font-size="14.00">ゴドルフィンバルブ</text>
</g>
<!-- ゴドルフィンバルブ&#45;&gt;Cade -->
<g id="edge25" class="edge">
<title>ゴドルフィンバルブ&#45;&gt;Cade</title>
<path fill="none" stroke="black" d="M93.97,-1016.61C98.71,-1008.39 103.78,-999.6 108.7,-991.07"/>
<polygon fill="black" stroke="black" points="111.66,-992.94 113.62,-982.53 105.59,-989.44 111.66,-992.94"/>
</g>
<!-- Roxana -->
<g id="node27" class="node">
<title>Roxana</title>
<polygon fill="lightcoral" stroke="lightcoral" points="239.62,-1094 162.62,-1094 162.62,-1017 239.62,-1017 239.62,-1094"/>
<image xlink:href="img/mob.png" width="77px" height="77px" preserveAspectRatio="xMinYMin meet" x="162.625" y="-1094"/>
<text text-anchor="middle" x="201.12" y="-1049.7" font-family="MS Gothic" font-size="14.00">Roxana</text>
</g>
<!-- Roxana&#45;&gt;Cade -->
<g id="edge26" class="edge">
<title>Roxana&#45;&gt;Cade</title>
<path fill="none" stroke="black" d="M178.94,-1016.61C174.13,-1008.39 168.98,-999.6 163.98,-991.07"/>
<polygon fill="black" stroke="black" points="167.05,-989.39 158.98,-982.52 161.01,-992.92 167.05,-989.39"/>
</g>
<!-- Bald Galloway -->
<g id="node28" class="node">
<title>Bald Galloway</title>
<polygon fill="lightblue" stroke="lightblue" points="183,-1207 79.25,-1207 79.25,-1130 183,-1130 183,-1207"/>
<image xlink:href="img/mob.png" width="100px" height="77px" preserveAspectRatio="xMinYMin meet" x="81.125" y="-1207"/>
<text text-anchor="middle" x="131.12" y="-1162.7" font-family="MS Gothic" font-size="14.00">Bald Galloway</text>
</g>
<!-- Bald Galloway&#45;&gt;Roxana -->
<g id="edge27" class="edge">
<title>Bald Galloway&#45;&gt;Roxana</title>
<path fill="none" stroke="black" d="M155.02,-1129.61C160.26,-1121.31 165.86,-1112.41 171.3,-1103.79"/>
<polygon fill="black" stroke="black" points="174.16,-1105.82 176.53,-1095.5 168.24,-1102.09 174.16,-1105.82"/>
</g>
<!-- Sister to Chaunter -->
<g id="node29" class="node">
<title>Sister to Chaunter</title>
<polygon fill="lightcoral" stroke="lightcoral" points="338.88,-1207 201.38,-1207 201.38,-1130 338.88,-1130 338.88,-1207"/>
<image xlink:href="img/mob.png" width="100px" height="77px" preserveAspectRatio="xMinYMin meet" x="220.125" y="-1207"/>
<text text-anchor="middle" x="270.12" y="-1162.7" font-family="MS Gothic" font-size="14.00">Sister to Chaunter</text>
</g>
<!-- Sister to Chaunter&#45;&gt;Roxana -->
<g id="edge28" class="edge">
<title>Sister to Chaunter&#45;&gt;Roxana</title>
<path fill="none" stroke="black" d="M246.57,-1129.61C241.41,-1121.31 235.88,-1112.41 230.52,-1103.79"/>
<polygon fill="black" stroke="black" points="233.62,-1102.15 225.37,-1095.5 227.68,-1105.84 233.62,-1102.15"/>
</g>
</g>
</svg>
