<?xml version="1.0" encoding="UTF-8" standalone="no"?>
<!DOCTYPE svg PUBLIC "-//W3C//DTD SVG 1.1//EN"
 "http://www.w3.org/Graphics/SVG/1.1/DTD/svg11.dtd">
<!-- Generated by graphviz version 12.1.2 (20240928.0832)
 -->
<!-- Pages: 1 -->
<svg width="815pt" height="989pt"
 viewBox="0.00 0.00 814.62 989.00" xmlns="http://www.w3.org/2000/svg" xmlns:xlink="http://www.w3.org/1999/xlink">
<g id="graph0" class="graph" transform="scale(1 1) rotate(0) translate(4 985)">
<polygon fill="white" stroke="none" points="-4,4 -4,-985 810.62,-985 810.62,4 -4,4"/>
<!-- Whalebone -->
<g id="node1" class="node">
<title>Whalebone</title>
<polygon fill="none" stroke="black" points="664.25,-77 586,-77 586,0 664.25,0 664.25,-77"/>
<image xlink:href="img/mob.png" width="78.25px" height="77px" preserveAspectRatio="xMinYMin meet" x="586" y="-77"/>
<text text-anchor="middle" x="625.12" y="-33.45" font-family="Times New Roman,serif" font-size="14.00">Whalebone</text>
</g>
<!-- Waxy -->
<g id="node2" class="node">
<title>Waxy</title>
<polygon fill="lightblue" stroke="lightblue" points="616.62,-190 539.62,-190 539.62,-113 616.62,-113 616.62,-190"/>
<image xlink:href="img/mob.png" width="77px" height="77px" preserveAspectRatio="xMinYMin meet" x="539.625" y="-190"/>
<text text-anchor="middle" x="578.12" y="-145.7" font-family="MS Gothic" font-size="14.00">Waxy</text>
</g>
<!-- Waxy&#45;&gt;Whalebone -->
<g id="edge1" class="edge">
<title>Waxy&#45;&gt;Whalebone</title>
<path fill="none" stroke="black" d="M594.17,-112.61C597.57,-104.57 601.21,-95.99 604.75,-87.63"/>
<polygon fill="black" stroke="black" points="607.89,-89.19 608.56,-78.61 601.44,-86.46 607.89,-89.19"/>
</g>
<!-- Penelope -->
<g id="node3" class="node">
<title>Penelope</title>
<polygon fill="lightcoral" stroke="lightcoral" points="711.62,-190 634.62,-190 634.62,-113 711.62,-113 711.62,-190"/>
<image xlink:href="img/mob.png" width="77px" height="77px" preserveAspectRatio="xMinYMin meet" x="634.625" y="-190"/>
<text text-anchor="middle" x="673.12" y="-145.7" font-family="MS Gothic" font-size="14.00">Penelope</text>
</g>
<!-- Penelope&#45;&gt;Whalebone -->
<g id="edge2" class="edge">
<title>Penelope&#45;&gt;Whalebone</title>
<path fill="none" stroke="black" d="M656.74,-112.61C653.26,-104.57 649.55,-95.99 645.94,-87.63"/>
<polygon fill="black" stroke="black" points="649.22,-86.4 642.04,-78.61 642.79,-89.18 649.22,-86.4"/>
</g>
<!-- Pot&#45;8&#45;Os -->
<g id="node4" class="node">
<title>Pot&#45;8&#45;Os</title>
<polygon fill="lightblue" stroke="lightblue" points="521.62,-303 444.62,-303 444.62,-226 521.62,-226 521.62,-303"/>
<image xlink:href="img/mob.png" width="77px" height="77px" preserveAspectRatio="xMinYMin meet" x="444.625" y="-303"/>
<text text-anchor="middle" x="483.12" y="-258.7" font-family="MS Gothic" font-size="14.00">Pot&#45;8&#45;Os</text>
</g>
<!-- Pot&#45;8&#45;Os&#45;&gt;Waxy -->
<g id="edge3" class="edge">
<title>Pot&#45;8&#45;Os&#45;&gt;Waxy</title>
<path fill="none" stroke="black" d="M515.55,-225.61C522.89,-217.04 530.76,-207.84 538.36,-198.96"/>
<polygon fill="black" stroke="black" points="541.02,-201.24 544.86,-191.37 535.7,-196.69 541.02,-201.24"/>
</g>
<!-- Maria III -->
<g id="node5" class="node">
<title>Maria III</title>
<polygon fill="lightcoral" stroke="lightcoral" points="616.62,-303 539.62,-303 539.62,-226 616.62,-226 616.62,-303"/>
<image xlink:href="img/mob.png" width="77px" height="77px" preserveAspectRatio="xMinYMin meet" x="539.625" y="-303"/>
<text text-anchor="middle" x="578.12" y="-258.7" font-family="MS Gothic" font-size="14.00">Maria III</text>
</g>
<!-- Maria III&#45;&gt;Waxy -->
<g id="edge4" class="edge">
<title>Maria III&#45;&gt;Waxy</title>
<path fill="none" stroke="black" d="M578.12,-225.61C578.12,-217.84 578.12,-209.56 578.12,-201.46"/>
<polygon fill="black" stroke="black" points="581.63,-201.73 578.13,-191.73 574.63,-201.73 581.63,-201.73"/>
</g>
<!-- Trumpator -->
<g id="node6" class="node">
<title>Trumpator</title>
<polygon fill="lightblue" stroke="lightblue" points="711.62,-303 634.62,-303 634.62,-226 711.62,-226 711.62,-303"/>
<image xlink:href="img/mob.png" width="77px" height="77px" preserveAspectRatio="xMinYMin meet" x="634.625" y="-303"/>
<text text-anchor="middle" x="673.12" y="-258.7" font-family="MS Gothic" font-size="14.00">Trumpator</text>
</g>
<!-- Trumpator&#45;&gt;Penelope -->
<g id="edge5" class="edge">
<title>Trumpator&#45;&gt;Penelope</title>
<path fill="none" stroke="black" d="M673.12,-225.61C673.12,-217.84 673.12,-209.56 673.12,-201.46"/>
<polygon fill="black" stroke="black" points="676.63,-201.73 673.13,-191.73 669.63,-201.73 676.63,-201.73"/>
</g>
<!-- Prunella -->
<g id="node7" class="node">
<title>Prunella</title>
<polygon fill="lightcoral" stroke="lightcoral" points="806.62,-303 729.62,-303 729.62,-226 806.62,-226 806.62,-303"/>
<image xlink:href="img/mob.png" width="77px" height="77px" preserveAspectRatio="xMinYMin meet" x="729.625" y="-303"/>
<text text-anchor="middle" x="768.12" y="-258.7" font-family="MS Gothic" font-size="14.00">Prunella</text>
</g>
<!-- Prunella&#45;&gt;Penelope -->
<g id="edge6" class="edge">
<title>Prunella&#45;&gt;Penelope</title>
<path fill="none" stroke="black" d="M735.7,-225.61C728.36,-217.04 720.49,-207.84 712.89,-198.96"/>
<polygon fill="black" stroke="black" points="715.55,-196.69 706.39,-191.37 710.23,-201.24 715.55,-196.69"/>
</g>
<!-- Eclipse -->
<g id="node8" class="node">
<title>Eclipse</title>
<polygon fill="lightblue" stroke="lightblue" points="465.62,-416 388.62,-416 388.62,-339 465.62,-339 465.62,-416"/>
<image xlink:href="img/mob.png" width="77px" height="77px" preserveAspectRatio="xMinYMin meet" x="388.625" y="-416"/>
<text text-anchor="middle" x="427.12" y="-371.7" font-family="MS Gothic" font-size="14.00">Eclipse</text>
</g>
<!-- Eclipse&#45;&gt;Pot&#45;8&#45;Os -->
<g id="edge7" class="edge">
<title>Eclipse&#45;&gt;Pot&#45;8&#45;Os</title>
<path fill="none" stroke="black" d="M446.24,-338.61C450.34,-330.48 454.72,-321.8 458.99,-313.35"/>
<polygon fill="black" stroke="black" points="462.03,-315.07 463.41,-304.57 455.78,-311.92 462.03,-315.07"/>
</g>
<!-- Sportsmistress -->
<g id="node9" class="node">
<title>Sportsmistress</title>
<polygon fill="lightcoral" stroke="lightcoral" points="594.38,-416 483.88,-416 483.88,-339 594.38,-339 594.38,-416"/>
<image xlink:href="img/mob.png" width="100px" height="77px" preserveAspectRatio="xMinYMin meet" x="489.125" y="-416"/>
<text text-anchor="middle" x="539.12" y="-371.7" font-family="MS Gothic" font-size="14.00">Sportsmistress</text>
</g>
<!-- Sportsmistress&#45;&gt;Pot&#45;8&#45;Os -->
<g id="edge8" class="edge">
<title>Sportsmistress&#45;&gt;Pot&#45;8&#45;Os</title>
<path fill="none" stroke="black" d="M520.01,-338.61C515.91,-330.48 511.53,-321.8 507.26,-313.35"/>
<polygon fill="black" stroke="black" points="510.47,-311.92 502.84,-304.57 504.22,-315.07 510.47,-311.92"/>
</g>
<!-- Marske -->
<g id="node10" class="node">
<title>Marske</title>
<polygon fill="lightblue" stroke="lightblue" points="375.62,-529 298.62,-529 298.62,-452 375.62,-452 375.62,-529"/>
<image xlink:href="img/mob.png" width="77px" height="77px" preserveAspectRatio="xMinYMin meet" x="298.625" y="-529"/>
<text text-anchor="middle" x="337.12" y="-484.7" font-family="MS Gothic" font-size="14.00">Marske</text>
</g>
<!-- Marske&#45;&gt;Eclipse -->
<g id="edge9" class="edge">
<title>Marske&#45;&gt;Eclipse</title>
<path fill="none" stroke="black" d="M367.85,-451.61C374.8,-443.04 382.26,-433.84 389.46,-424.96"/>
<polygon fill="black" stroke="black" points="392.01,-427.37 395.59,-417.39 386.57,-422.96 392.01,-427.37"/>
</g>
<!-- Spilletta -->
<g id="node11" class="node">
<title>Spilletta</title>
<polygon fill="lightcoral" stroke="lightcoral" points="470.62,-529 393.62,-529 393.62,-452 470.62,-452 470.62,-529"/>
<image xlink:href="img/mob.png" width="77px" height="77px" preserveAspectRatio="xMinYMin meet" x="393.625" y="-529"/>
<text text-anchor="middle" x="432.12" y="-484.7" font-family="MS Gothic" font-size="14.00">Spilletta</text>
</g>
<!-- Spilletta&#45;&gt;Eclipse -->
<g id="edge10" class="edge">
<title>Spilletta&#45;&gt;Eclipse</title>
<path fill="none" stroke="black" d="M430.42,-451.61C430.07,-443.84 429.7,-435.56 429.33,-427.46"/>
<polygon fill="black" stroke="black" points="432.84,-427.56 428.89,-417.73 425.85,-427.88 432.84,-427.56"/>
</g>
<!-- Sportsman -->
<g id="node12" class="node">
<title>Sportsman</title>
<polygon fill="lightblue" stroke="lightblue" points="573.62,-529 496.62,-529 496.62,-452 573.62,-452 573.62,-529"/>
<image xlink:href="img/mob.png" width="77px" height="77px" preserveAspectRatio="xMinYMin meet" x="496.625" y="-529"/>
<text text-anchor="middle" x="535.12" y="-484.7" font-family="MS Gothic" font-size="14.00">Sportsman</text>
</g>
<!-- Sportsman&#45;&gt;Sportsmistress -->
<g id="edge11" class="edge">
<title>Sportsman&#45;&gt;Sportsmistress</title>
<path fill="none" stroke="black" d="M536.49,-451.61C536.77,-443.84 537.07,-435.56 537.36,-427.46"/>
<polygon fill="black" stroke="black" points="540.85,-427.85 537.71,-417.73 533.85,-427.6 540.85,-427.85"/>
</g>
<!-- Golden Locks -->
<g id="node13" class="node">
<title>Golden Locks</title>
<polygon fill="lightcoral" stroke="lightcoral" points="688.62,-529 591.62,-529 591.62,-452 688.62,-452 688.62,-529"/>
<image xlink:href="img/mob.png" width="97px" height="77px" preserveAspectRatio="xMinYMin meet" x="591.625" y="-529"/>
<text text-anchor="middle" x="640.12" y="-484.7" font-family="MS Gothic" font-size="14.00">Golden Locks</text>
</g>
<!-- Golden Locks&#45;&gt;Sportsmistress -->
<g id="edge12" class="edge">
<title>Golden Locks&#45;&gt;Sportsmistress</title>
<path fill="none" stroke="black" d="M605.65,-451.61C597.77,-442.95 589.3,-433.65 581.15,-424.68"/>
<polygon fill="black" stroke="black" points="583.78,-422.38 574.46,-417.34 578.61,-427.09 583.78,-422.38"/>
</g>
<!-- Squirt -->
<g id="node14" class="node">
<title>Squirt</title>
<polygon fill="lightblue" stroke="lightblue" points="304.62,-642 227.62,-642 227.62,-565 304.62,-565 304.62,-642"/>
<image xlink:href="img/mob.png" width="77px" height="77px" preserveAspectRatio="xMinYMin meet" x="227.625" y="-642"/>
<text text-anchor="middle" x="266.12" y="-597.7" font-family="MS Gothic" font-size="14.00">Squirt</text>
</g>
<!-- Squirt&#45;&gt;Marske -->
<g id="edge13" class="edge">
<title>Squirt&#45;&gt;Marske</title>
<path fill="none" stroke="black" d="M290.36,-564.61C295.67,-556.31 301.36,-547.41 306.88,-538.79"/>
<polygon fill="black" stroke="black" points="309.74,-540.8 312.18,-530.49 303.85,-537.03 309.74,-540.8"/>
</g>
<!-- Hutton&#39;s Blacklegs Mare -->
<g id="node15" class="node">
<title>Hutton&#39;s Blacklegs Mare</title>
<polygon fill="lightcoral" stroke="lightcoral" points="493.75,-642 322.5,-642 322.5,-565 493.75,-565 493.75,-642"/>
<image xlink:href="img/mob.png" width="100px" height="77px" preserveAspectRatio="xMinYMin meet" x="358.125" y="-642"/>
<text text-anchor="middle" x="408.12" y="-597.7" font-family="MS Gothic" font-size="14.00">Hutton&#39;s Blacklegs Mare</text>
</g>
<!-- Hutton&#39;s Blacklegs Mare&#45;&gt;Marske -->
<g id="edge14" class="edge">
<title>Hutton&#39;s Blacklegs Mare&#45;&gt;Marske</title>
<path fill="none" stroke="black" d="M383.89,-564.61C378.58,-556.31 372.89,-547.41 367.37,-538.79"/>
<polygon fill="black" stroke="black" points="370.4,-537.03 362.07,-530.49 364.51,-540.8 370.4,-537.03"/>
</g>
<!-- Bartlet&#39;s Childers -->
<g id="node16" class="node">
<title>Bartlet&#39;s Childers</title>
<polygon fill="lightblue" stroke="lightblue" points="209.88,-755 72.38,-755 72.38,-678 209.88,-678 209.88,-755"/>
<image xlink:href="img/mob.png" width="100px" height="77px" preserveAspectRatio="xMinYMin meet" x="91.125" y="-755"/>
<text text-anchor="middle" x="141.12" y="-710.7" font-family="MS Gothic" font-size="14.00">Bartlet&#39;s Childers</text>
</g>
<!-- Bartlet&#39;s Childers&#45;&gt;Squirt -->
<g id="edge15" class="edge">
<title>Bartlet&#39;s Childers&#45;&gt;Squirt</title>
<path fill="none" stroke="black" d="M183.79,-677.61C195.18,-667.5 207.54,-656.53 219.14,-646.22"/>
<polygon fill="black" stroke="black" points="221.14,-649.13 226.29,-639.87 216.49,-643.89 221.14,-649.13"/>
</g>
<!-- Snake Mare -->
<g id="node17" class="node">
<title>Snake Mare</title>
<polygon fill="lightcoral" stroke="lightcoral" points="311.88,-755 228.38,-755 228.38,-678 311.88,-678 311.88,-755"/>
<image xlink:href="img/mob.png" width="83.5px" height="77px" preserveAspectRatio="xMinYMin meet" x="228.375" y="-755"/>
<text text-anchor="middle" x="270.12" y="-710.7" font-family="MS Gothic" font-size="14.00">Snake Mare</text>
</g>
<!-- Snake Mare&#45;&gt;Squirt -->
<g id="edge16" class="edge">
<title>Snake Mare&#45;&gt;Squirt</title>
<path fill="none" stroke="black" d="M268.76,-677.61C268.48,-669.84 268.18,-661.56 267.89,-653.46"/>
<polygon fill="black" stroke="black" points="271.4,-653.6 267.54,-643.73 264.4,-653.85 271.4,-653.6"/>
</g>
<!-- Hutton&#39;s Blacklegs -->
<g id="node18" class="node">
<title>Hutton&#39;s Blacklegs</title>
<polygon fill="lightblue" stroke="lightblue" points="473.88,-755 336.38,-755 336.38,-678 473.88,-678 473.88,-755"/>
<image xlink:href="img/mob.png" width="100px" height="77px" preserveAspectRatio="xMinYMin meet" x="355.125" y="-755"/>
<text text-anchor="middle" x="405.12" y="-710.7" font-family="MS Gothic" font-size="14.00">Hutton&#39;s Blacklegs</text>
</g>
<!-- Hutton&#39;s Blacklegs&#45;&gt;Hutton&#39;s Blacklegs Mare -->
<g id="edge17" class="edge">
<title>Hutton&#39;s Blacklegs&#45;&gt;Hutton&#39;s Blacklegs Mare</title>
<path fill="none" stroke="black" d="M406.15,-677.61C406.36,-669.84 406.58,-661.56 406.8,-653.46"/>
<polygon fill="black" stroke="black" points="410.29,-653.82 407.06,-643.73 403.3,-653.63 410.29,-653.82"/>
</g>
<!-- Bay Bolton Mare -->
<g id="node19" class="node">
<title>Bay Bolton Mare</title>
<polygon fill="lightcoral" stroke="lightcoral" points="608.75,-755 491.5,-755 491.5,-678 608.75,-678 608.75,-755"/>
<image xlink:href="img/mob.png" width="100px" height="77px" preserveAspectRatio="xMinYMin meet" x="500.125" y="-755"/>
<text text-anchor="middle" x="550.12" y="-710.7" font-family="MS Gothic" font-size="14.00">Bay Bolton Mare</text>
</g>
<!-- Bay Bolton Mare&#45;&gt;Hutton&#39;s Blacklegs Mare -->
<g id="edge18" class="edge">
<title>Bay Bolton Mare&#45;&gt;Hutton&#39;s Blacklegs Mare</title>
<path fill="none" stroke="black" d="M501.65,-677.61C490,-668.5 477.45,-658.69 465.43,-649.3"/>
<polygon fill="black" stroke="black" points="467.6,-646.55 457.57,-643.15 463.29,-652.07 467.6,-646.55"/>
</g>
<!-- ダーレーアラビアン -->
<g id="node20" class="node">
<title>ダーレーアラビアン</title>
<polygon fill="lightblue" stroke="lightblue" points="144.25,-868 0,-868 0,-791 144.25,-791 144.25,-868"/>
<image xlink:href="img/darearabian.png" width="100px" height="77px" preserveAspectRatio="xMinYMin meet" x="22.125" y="-868"/>
<text text-anchor="middle" x="72.12" y="-823.7" font-family="MS Gothic" font-size="14.00">ダーレーアラビアン</text>
</g>
<!-- ダーレーアラビアン&#45;&gt;Bartlet&#39;s Childers -->
<g id="edge19" class="edge">
<title>ダーレーアラビアン&#45;&gt;Bartlet&#39;s Childers</title>
<path fill="none" stroke="black" d="M95.68,-790.61C100.84,-782.31 106.37,-773.41 111.73,-764.79"/>
<polygon fill="black" stroke="black" points="114.57,-766.84 116.88,-756.5 108.63,-763.15 114.57,-766.84"/>
</g>
<!-- Betty Leedes -->
<g id="node21" class="node">
<title>Betty Leedes</title>
<polygon fill="lightcoral" stroke="lightcoral" points="259.62,-868 162.62,-868 162.62,-791 259.62,-791 259.62,-868"/>
<image xlink:href="img/mob.png" width="97px" height="77px" preserveAspectRatio="xMinYMin meet" x="162.625" y="-868"/>
<text text-anchor="middle" x="211.12" y="-823.7" font-family="MS Gothic" font-size="14.00">Betty Leedes</text>
</g>
<!-- Betty Leedes&#45;&gt;Bartlet&#39;s Childers -->
<g id="edge20" class="edge">
<title>Betty Leedes&#45;&gt;Bartlet&#39;s Childers</title>
<path fill="none" stroke="black" d="M187.23,-790.61C181.99,-782.31 176.39,-773.41 170.95,-764.79"/>
<polygon fill="black" stroke="black" points="174.01,-763.09 165.72,-756.5 168.09,-766.82 174.01,-763.09"/>
</g>
<!-- Old Careless -->
<g id="node22" class="node">
<title>Old Careless</title>
<polygon fill="lightblue" stroke="lightblue" points="201.62,-981 104.62,-981 104.62,-904 201.62,-904 201.62,-981"/>
<image xlink:href="img/mob.png" width="97px" height="77px" preserveAspectRatio="xMinYMin meet" x="104.625" y="-981"/>
<text text-anchor="middle" x="153.12" y="-936.7" font-family="MS Gothic" font-size="14.00">Old Careless</text>
</g>
<!-- Old Careless&#45;&gt;Betty Leedes -->
<g id="edge21" class="edge">
<title>Old Careless&#45;&gt;Betty Leedes</title>
<path fill="none" stroke="black" d="M172.92,-903.61C177.17,-895.48 181.71,-886.8 186.12,-878.35"/>
<polygon fill="black" stroke="black" points="189.19,-880.04 190.72,-869.56 182.98,-876.8 189.19,-880.04"/>
</g>
<!-- Cream Cheeks -->
<g id="node23" class="node">
<title>Cream Cheeks</title>
<polygon fill="lightcoral" stroke="lightcoral" points="316.62,-981 219.62,-981 219.62,-904 316.62,-904 316.62,-981"/>
<image xlink:href="img/mob.png" width="97px" height="77px" preserveAspectRatio="xMinYMin meet" x="219.625" y="-981"/>
<text text-anchor="middle" x="268.12" y="-936.7" font-family="MS Gothic" font-size="14.00">Cream Cheeks</text>
</g>
<!-- Cream Cheeks&#45;&gt;Betty Leedes -->
<g id="edge22" class="edge">
<title>Cream Cheeks&#45;&gt;Betty Leedes</title>
<path fill="none" stroke="black" d="M248.67,-903.61C244.5,-895.48 240.03,-886.8 235.7,-878.35"/>
<polygon fill="black" stroke="black" points="238.87,-876.86 231.19,-869.57 232.64,-880.06 238.87,-876.86"/>
</g>
</g>
</svg>
