<?xml version="1.0" encoding="UTF-8" standalone="no"?>
<!DOCTYPE svg PUBLIC "-//W3C//DTD SVG 1.1//EN"
 "http://www.w3.org/Graphics/SVG/1.1/DTD/svg11.dtd">
<!-- Generated by graphviz version 12.1.2 (20240928.0832)
 -->
<!-- Pages: 1 -->
<svg width="932pt" height="989pt"
 viewBox="0.00 0.00 931.62 989.00" xmlns="http://www.w3.org/2000/svg" xmlns:xlink="http://www.w3.org/1999/xlink">
<g id="graph0" class="graph" transform="scale(1 1) rotate(0) translate(4 985)">
<polygon fill="white" stroke="none" points="-4,4 -4,-985 927.62,-985 927.62,4 -4,4"/>
<!-- Whalebone -->
<g id="node1" class="node">
<title>Whalebone</title>
<polygon fill="none" stroke="black" points="781.25,-77 703,-77 703,0 781.25,0 781.25,-77"/>
<image xlink:href="img/mob.png" width="78.25px" height="77px" preserveAspectRatio="xMinYMin meet" x="703" y="-77"/>
<text text-anchor="middle" x="742.12" y="-33.45" font-family="Times New Roman,serif" font-size="14.00">Whalebone</text>
</g>
<!-- Waxy -->
<g id="node2" class="node">
<title>Waxy</title>
<polygon fill="lightblue" stroke="lightblue" points="733.62,-190 656.62,-190 656.62,-113 733.62,-113 733.62,-190"/>
<image xlink:href="img/mob.png" width="77px" height="77px" preserveAspectRatio="xMinYMin meet" x="656.625" y="-190"/>
<text text-anchor="middle" x="695.12" y="-145.7" font-family="MS Gothic" font-size="14.00">Waxy</text>
</g>
<!-- Waxy&#45;&gt;Whalebone -->
<g id="edge1" class="edge">
<title>Waxy&#45;&gt;Whalebone</title>
<path fill="none" stroke="black" d="M711.17,-112.61C714.57,-104.57 718.21,-95.99 721.75,-87.63"/>
<polygon fill="black" stroke="black" points="724.89,-89.19 725.56,-78.61 718.44,-86.46 724.89,-89.19"/>
</g>
<!-- Penelope -->
<g id="node3" class="node">
<title>Penelope</title>
<polygon fill="lightcoral" stroke="lightcoral" points="828.62,-190 751.62,-190 751.62,-113 828.62,-113 828.62,-190"/>
<image xlink:href="img/mob.png" width="77px" height="77px" preserveAspectRatio="xMinYMin meet" x="751.625" y="-190"/>
<text text-anchor="middle" x="790.12" y="-145.7" font-family="MS Gothic" font-size="14.00">Penelope</text>
</g>
<!-- Penelope&#45;&gt;Whalebone -->
<g id="edge2" class="edge">
<title>Penelope&#45;&gt;Whalebone</title>
<path fill="none" stroke="black" d="M773.74,-112.61C770.26,-104.57 766.55,-95.99 762.94,-87.63"/>
<polygon fill="black" stroke="black" points="766.22,-86.4 759.04,-78.61 759.79,-89.18 766.22,-86.4"/>
</g>
<!-- Pot&#45;8&#45;Os -->
<g id="node4" class="node">
<title>Pot&#45;8&#45;Os</title>
<polygon fill="lightblue" stroke="lightblue" points="638.62,-303 561.62,-303 561.62,-226 638.62,-226 638.62,-303"/>
<image xlink:href="img/mob.png" width="77px" height="77px" preserveAspectRatio="xMinYMin meet" x="561.625" y="-303"/>
<text text-anchor="middle" x="600.12" y="-258.7" font-family="MS Gothic" font-size="14.00">Pot&#45;8&#45;Os</text>
</g>
<!-- Pot&#45;8&#45;Os&#45;&gt;Waxy -->
<g id="edge3" class="edge">
<title>Pot&#45;8&#45;Os&#45;&gt;Waxy</title>
<path fill="none" stroke="black" d="M632.55,-225.61C639.89,-217.04 647.76,-207.84 655.36,-198.96"/>
<polygon fill="black" stroke="black" points="658.02,-201.24 661.86,-191.37 652.7,-196.69 658.02,-201.24"/>
</g>
<!-- Maria III -->
<g id="node5" class="node">
<title>Maria III</title>
<polygon fill="lightcoral" stroke="lightcoral" points="733.62,-303 656.62,-303 656.62,-226 733.62,-226 733.62,-303"/>
<image xlink:href="img/mob.png" width="77px" height="77px" preserveAspectRatio="xMinYMin meet" x="656.625" y="-303"/>
<text text-anchor="middle" x="695.12" y="-258.7" font-family="MS Gothic" font-size="14.00">Maria III</text>
</g>
<!-- Maria III&#45;&gt;Waxy -->
<g id="edge4" class="edge">
<title>Maria III&#45;&gt;Waxy</title>
<path fill="none" stroke="black" d="M695.12,-225.61C695.12,-217.84 695.12,-209.56 695.12,-201.46"/>
<polygon fill="black" stroke="black" points="698.63,-201.73 695.13,-191.73 691.63,-201.73 698.63,-201.73"/>
</g>
<!-- Trumpator -->
<g id="node6" class="node">
<title>Trumpator</title>
<polygon fill="lightblue" stroke="lightblue" points="828.62,-303 751.62,-303 751.62,-226 828.62,-226 828.62,-303"/>
<image xlink:href="img/mob.png" width="77px" height="77px" preserveAspectRatio="xMinYMin meet" x="751.625" y="-303"/>
<text text-anchor="middle" x="790.12" y="-258.7" font-family="MS Gothic" font-size="14.00">Trumpator</text>
</g>
<!-- Trumpator&#45;&gt;Penelope -->
<g id="edge5" class="edge">
<title>Trumpator&#45;&gt;Penelope</title>
<path fill="none" stroke="black" d="M790.12,-225.61C790.12,-217.84 790.12,-209.56 790.12,-201.46"/>
<polygon fill="black" stroke="black" points="793.63,-201.73 790.13,-191.73 786.63,-201.73 793.63,-201.73"/>
</g>
<!-- Prunella -->
<g id="node7" class="node">
<title>Prunella</title>
<polygon fill="lightcoral" stroke="lightcoral" points="923.62,-303 846.62,-303 846.62,-226 923.62,-226 923.62,-303"/>
<image xlink:href="img/mob.png" width="77px" height="77px" preserveAspectRatio="xMinYMin meet" x="846.625" y="-303"/>
<text text-anchor="middle" x="885.12" y="-258.7" font-family="MS Gothic" font-size="14.00">Prunella</text>
</g>
<!-- Prunella&#45;&gt;Penelope -->
<g id="edge6" class="edge">
<title>Prunella&#45;&gt;Penelope</title>
<path fill="none" stroke="black" d="M852.7,-225.61C845.36,-217.04 837.49,-207.84 829.89,-198.96"/>
<polygon fill="black" stroke="black" points="832.55,-196.69 823.39,-191.37 827.23,-201.24 832.55,-196.69"/>
</g>
<!-- Eclipse -->
<g id="node8" class="node">
<title>Eclipse</title>
<polygon fill="lightblue" stroke="lightblue" points="582.62,-416 505.62,-416 505.62,-339 582.62,-339 582.62,-416"/>
<image xlink:href="img/mob.png" width="77px" height="77px" preserveAspectRatio="xMinYMin meet" x="505.625" y="-416"/>
<text text-anchor="middle" x="544.12" y="-371.7" font-family="MS Gothic" font-size="14.00">Eclipse</text>
</g>
<!-- Eclipse&#45;&gt;Pot&#45;8&#45;Os -->
<g id="edge7" class="edge">
<title>Eclipse&#45;&gt;Pot&#45;8&#45;Os</title>
<path fill="none" stroke="black" d="M563.24,-338.61C567.34,-330.48 571.72,-321.8 575.99,-313.35"/>
<polygon fill="black" stroke="black" points="579.03,-315.07 580.41,-304.57 572.78,-311.92 579.03,-315.07"/>
</g>
<!-- Sportsmistress -->
<g id="node9" class="node">
<title>Sportsmistress</title>
<polygon fill="lightcoral" stroke="lightcoral" points="711.38,-416 600.88,-416 600.88,-339 711.38,-339 711.38,-416"/>
<image xlink:href="img/mob.png" width="100px" height="77px" preserveAspectRatio="xMinYMin meet" x="606.125" y="-416"/>
<text text-anchor="middle" x="656.12" y="-371.7" font-family="MS Gothic" font-size="14.00">Sportsmistress</text>
</g>
<!-- Sportsmistress&#45;&gt;Pot&#45;8&#45;Os -->
<g id="edge8" class="edge">
<title>Sportsmistress&#45;&gt;Pot&#45;8&#45;Os</title>
<path fill="none" stroke="black" d="M637.01,-338.61C632.91,-330.48 628.53,-321.8 624.26,-313.35"/>
<polygon fill="black" stroke="black" points="627.47,-311.92 619.84,-304.57 621.22,-315.07 627.47,-311.92"/>
</g>
<!-- Marske -->
<g id="node10" class="node">
<title>Marske</title>
<polygon fill="lightblue" stroke="lightblue" points="492.62,-529 415.62,-529 415.62,-452 492.62,-452 492.62,-529"/>
<image xlink:href="img/mob.png" width="77px" height="77px" preserveAspectRatio="xMinYMin meet" x="415.625" y="-529"/>
<text text-anchor="middle" x="454.12" y="-484.7" font-family="MS Gothic" font-size="14.00">Marske</text>
</g>
<!-- Marske&#45;&gt;Eclipse -->
<g id="edge9" class="edge">
<title>Marske&#45;&gt;Eclipse</title>
<path fill="none" stroke="black" d="M484.85,-451.61C491.8,-443.04 499.26,-433.84 506.46,-424.96"/>
<polygon fill="black" stroke="black" points="509.01,-427.37 512.59,-417.39 503.57,-422.96 509.01,-427.37"/>
</g>
<!-- Spilletta -->
<g id="node11" class="node">
<title>Spilletta</title>
<polygon fill="lightcoral" stroke="lightcoral" points="587.62,-529 510.62,-529 510.62,-452 587.62,-452 587.62,-529"/>
<image xlink:href="img/mob.png" width="77px" height="77px" preserveAspectRatio="xMinYMin meet" x="510.625" y="-529"/>
<text text-anchor="middle" x="549.12" y="-484.7" font-family="MS Gothic" font-size="14.00">Spilletta</text>
</g>
<!-- Spilletta&#45;&gt;Eclipse -->
<g id="edge10" class="edge">
<title>Spilletta&#45;&gt;Eclipse</title>
<path fill="none" stroke="black" d="M547.42,-451.61C547.07,-443.84 546.7,-435.56 546.33,-427.46"/>
<polygon fill="black" stroke="black" points="549.84,-427.56 545.89,-417.73 542.85,-427.88 549.84,-427.56"/>
</g>
<!-- Sportsman -->
<g id="node12" class="node">
<title>Sportsman</title>
<polygon fill="lightblue" stroke="lightblue" points="690.62,-529 613.62,-529 613.62,-452 690.62,-452 690.62,-529"/>
<image xlink:href="img/mob.png" width="77px" height="77px" preserveAspectRatio="xMinYMin meet" x="613.625" y="-529"/>
<text text-anchor="middle" x="652.12" y="-484.7" font-family="MS Gothic" font-size="14.00">Sportsman</text>
</g>
<!-- Sportsman&#45;&gt;Sportsmistress -->
<g id="edge11" class="edge">
<title>Sportsman&#45;&gt;Sportsmistress</title>
<path fill="none" stroke="black" d="M653.49,-451.61C653.77,-443.84 654.07,-435.56 654.36,-427.46"/>
<polygon fill="black" stroke="black" points="657.85,-427.85 654.71,-417.73 650.85,-427.6 657.85,-427.85"/>
</g>
<!-- Golden Locks -->
<g id="node13" class="node">
<title>Golden Locks</title>
<polygon fill="lightcoral" stroke="lightcoral" points="805.62,-529 708.62,-529 708.62,-452 805.62,-452 805.62,-529"/>
<image xlink:href="img/mob.png" width="97px" height="77px" preserveAspectRatio="xMinYMin meet" x="708.625" y="-529"/>
<text text-anchor="middle" x="757.12" y="-484.7" font-family="MS Gothic" font-size="14.00">Golden Locks</text>
</g>
<!-- Golden Locks&#45;&gt;Sportsmistress -->
<g id="edge12" class="edge">
<title>Golden Locks&#45;&gt;Sportsmistress</title>
<path fill="none" stroke="black" d="M722.65,-451.61C714.77,-442.95 706.3,-433.65 698.15,-424.68"/>
<polygon fill="black" stroke="black" points="700.78,-422.38 691.46,-417.34 695.61,-427.09 700.78,-422.38"/>
</g>
<!-- Squirt -->
<g id="node14" class="node">
<title>Squirt</title>
<polygon fill="lightblue" stroke="lightblue" points="421.62,-642 344.62,-642 344.62,-565 421.62,-565 421.62,-642"/>
<image xlink:href="img/mob.png" width="77px" height="77px" preserveAspectRatio="xMinYMin meet" x="344.625" y="-642"/>
<text text-anchor="middle" x="383.12" y="-597.7" font-family="MS Gothic" font-size="14.00">Squirt</text>
</g>
<!-- Squirt&#45;&gt;Marske -->
<g id="edge13" class="edge">
<title>Squirt&#45;&gt;Marske</title>
<path fill="none" stroke="black" d="M407.36,-564.61C412.67,-556.31 418.36,-547.41 423.88,-538.79"/>
<polygon fill="black" stroke="black" points="426.74,-540.8 429.18,-530.49 420.85,-537.03 426.74,-540.8"/>
</g>
<!-- Hutton&#39;s Blacklegs Mare -->
<g id="node15" class="node">
<title>Hutton&#39;s Blacklegs Mare</title>
<polygon fill="lightcoral" stroke="lightcoral" points="610.75,-642 439.5,-642 439.5,-565 610.75,-565 610.75,-642"/>
<image xlink:href="img/mob.png" width="100px" height="77px" preserveAspectRatio="xMinYMin meet" x="475.125" y="-642"/>
<text text-anchor="middle" x="525.12" y="-597.7" font-family="MS Gothic" font-size="14.00">Hutton&#39;s Blacklegs Mare</text>
</g>
<!-- Hutton&#39;s Blacklegs Mare&#45;&gt;Marske -->
<g id="edge14" class="edge">
<title>Hutton&#39;s Blacklegs Mare&#45;&gt;Marske</title>
<path fill="none" stroke="black" d="M500.89,-564.61C495.58,-556.31 489.89,-547.41 484.37,-538.79"/>
<polygon fill="black" stroke="black" points="487.4,-537.03 479.07,-530.49 481.51,-540.8 487.4,-537.03"/>
</g>
<!-- Bartlet&#39;s Childers -->
<g id="node16" class="node">
<title>Bartlet&#39;s Childers</title>
<polygon fill="lightblue" stroke="lightblue" points="279.88,-755 142.38,-755 142.38,-678 279.88,-678 279.88,-755"/>
<image xlink:href="img/mob.png" width="100px" height="77px" preserveAspectRatio="xMinYMin meet" x="161.125" y="-755"/>
<text text-anchor="middle" x="211.12" y="-710.7" font-family="MS Gothic" font-size="14.00">Bartlet&#39;s Childers</text>
</g>
<!-- Bartlet&#39;s Childers&#45;&gt;Squirt -->
<g id="edge15" class="edge">
<title>Bartlet&#39;s Childers&#45;&gt;Squirt</title>
<path fill="none" stroke="black" d="M269.84,-677.61C290.91,-664.01 314.43,-648.83 334.55,-635.85"/>
<polygon fill="black" stroke="black" points="336.35,-638.85 342.85,-630.49 332.55,-632.97 336.35,-638.85"/>
</g>
<!-- Snake Mare -->
<g id="node17" class="node">
<title>Snake Mare</title>
<polygon fill="lightcoral" stroke="lightcoral" points="428.88,-755 345.38,-755 345.38,-678 428.88,-678 428.88,-755"/>
<image xlink:href="img/mob.png" width="83.5px" height="77px" preserveAspectRatio="xMinYMin meet" x="345.375" y="-755"/>
<text text-anchor="middle" x="387.12" y="-710.7" font-family="MS Gothic" font-size="14.00">Snake Mare</text>
</g>
<!-- Snake Mare&#45;&gt;Squirt -->
<g id="edge16" class="edge">
<title>Snake Mare&#45;&gt;Squirt</title>
<path fill="none" stroke="black" d="M385.76,-677.61C385.48,-669.84 385.18,-661.56 384.89,-653.46"/>
<polygon fill="black" stroke="black" points="388.4,-653.6 384.54,-643.73 381.4,-653.85 388.4,-653.6"/>
</g>
<!-- Hutton&#39;s Blacklegs -->
<g id="node18" class="node">
<title>Hutton&#39;s Blacklegs</title>
<polygon fill="lightblue" stroke="lightblue" points="590.88,-755 453.38,-755 453.38,-678 590.88,-678 590.88,-755"/>
<image xlink:href="img/mob.png" width="100px" height="77px" preserveAspectRatio="xMinYMin meet" x="472.125" y="-755"/>
<text text-anchor="middle" x="522.12" y="-710.7" font-family="MS Gothic" font-size="14.00">Hutton&#39;s Blacklegs</text>
</g>
<!-- Hutton&#39;s Blacklegs&#45;&gt;Hutton&#39;s Blacklegs Mare -->
<g id="edge17" class="edge">
<title>Hutton&#39;s Blacklegs&#45;&gt;Hutton&#39;s Blacklegs Mare</title>
<path fill="none" stroke="black" d="M523.15,-677.61C523.36,-669.84 523.58,-661.56 523.8,-653.46"/>
<polygon fill="black" stroke="black" points="527.29,-653.82 524.06,-643.73 520.3,-653.63 527.29,-653.82"/>
</g>
<!-- Bay Bolton Mare -->
<g id="node19" class="node">
<title>Bay Bolton Mare</title>
<polygon fill="lightcoral" stroke="lightcoral" points="725.75,-755 608.5,-755 608.5,-678 725.75,-678 725.75,-755"/>
<image xlink:href="img/mob.png" width="100px" height="77px" preserveAspectRatio="xMinYMin meet" x="617.125" y="-755"/>
<text text-anchor="middle" x="667.12" y="-710.7" font-family="MS Gothic" font-size="14.00">Bay Bolton Mare</text>
</g>
<!-- Bay Bolton Mare&#45;&gt;Hutton&#39;s Blacklegs Mare -->
<g id="edge18" class="edge">
<title>Bay Bolton Mare&#45;&gt;Hutton&#39;s Blacklegs Mare</title>
<path fill="none" stroke="black" d="M618.65,-677.61C607,-668.5 594.45,-658.69 582.43,-649.3"/>
<polygon fill="black" stroke="black" points="584.6,-646.55 574.57,-643.15 580.29,-652.07 584.6,-646.55"/>
</g>
<!-- ダーレーアラビアン -->
<g id="node20" class="node">
<title>ダーレーアラビアン</title>
<polygon fill="lightblue" stroke="lightblue" points="144.25,-868 0,-868 0,-791 144.25,-791 144.25,-868"/>
<image xlink:href="img/darearabian.png" width="100px" height="77px" preserveAspectRatio="xMinYMin meet" x="22.125" y="-868"/>
<text text-anchor="middle" x="72.12" y="-823.7" font-family="MS Gothic" font-size="14.00">ダーレーアラビアン</text>
</g>
<!-- ダーレーアラビアン&#45;&gt;Bartlet&#39;s Childers -->
<g id="edge19" class="edge">
<title>ダーレーアラビアン&#45;&gt;Bartlet&#39;s Childers</title>
<path fill="none" stroke="black" d="M119.57,-790.61C130.98,-781.5 143.27,-771.69 155.03,-762.3"/>
<polygon fill="black" stroke="black" points="157.08,-765.14 162.71,-756.16 152.71,-759.67 157.08,-765.14"/>
</g>
<!-- Betty Leedes -->
<g id="node21" class="node">
<title>Betty Leedes</title>
<polygon fill="lightcoral" stroke="lightcoral" points="259.62,-868 162.62,-868 162.62,-791 259.62,-791 259.62,-868"/>
<image xlink:href="img/mob.png" width="97px" height="77px" preserveAspectRatio="xMinYMin meet" x="162.625" y="-868"/>
<text text-anchor="middle" x="211.12" y="-823.7" font-family="MS Gothic" font-size="14.00">Betty Leedes</text>
</g>
<!-- Betty Leedes&#45;&gt;Bartlet&#39;s Childers -->
<g id="edge20" class="edge">
<title>Betty Leedes&#45;&gt;Bartlet&#39;s Childers</title>
<path fill="none" stroke="black" d="M211.12,-790.61C211.12,-782.84 211.12,-774.56 211.12,-766.46"/>
<polygon fill="black" stroke="black" points="214.63,-766.73 211.13,-756.73 207.63,-766.73 214.63,-766.73"/>
</g>
<!-- Old Careless -->
<g id="node22" class="node">
<title>Old Careless</title>
<polygon fill="lightblue" stroke="lightblue" points="144.62,-981 47.62,-981 47.62,-904 144.62,-904 144.62,-981"/>
<image xlink:href="img/mob.png" width="97px" height="77px" preserveAspectRatio="xMinYMin meet" x="47.625" y="-981"/>
<text text-anchor="middle" x="96.12" y="-936.7" font-family="MS Gothic" font-size="14.00">Old Careless</text>
</g>
<!-- Old Careless&#45;&gt;Betty Leedes -->
<g id="edge21" class="edge">
<title>Old Careless&#45;&gt;Betty Leedes</title>
<path fill="none" stroke="black" d="M135.38,-903.61C144.54,-894.77 154.39,-885.26 163.85,-876.13"/>
<polygon fill="black" stroke="black" points="166.19,-878.73 170.96,-869.27 161.33,-873.7 166.19,-878.73"/>
</g>
<!-- Cream Cheeks -->
<g id="node23" class="node">
<title>Cream Cheeks</title>
<polygon fill="lightcoral" stroke="lightcoral" points="259.62,-981 162.62,-981 162.62,-904 259.62,-904 259.62,-981"/>
<image xlink:href="img/mob.png" width="97px" height="77px" preserveAspectRatio="xMinYMin meet" x="162.625" y="-981"/>
<text text-anchor="middle" x="211.12" y="-936.7" font-family="MS Gothic" font-size="14.00">Cream Cheeks</text>
</g>
<!-- Cream Cheeks&#45;&gt;Betty Leedes -->
<g id="edge22" class="edge">
<title>Cream Cheeks&#45;&gt;Betty Leedes</title>
<path fill="none" stroke="black" d="M211.12,-903.61C211.12,-895.84 211.12,-887.56 211.12,-879.46"/>
<polygon fill="black" stroke="black" points="214.63,-879.73 211.13,-869.73 207.63,-879.73 214.63,-879.73"/>
</g>
<!-- Snake -->
<g id="node24" class="node">
<title>Snake</title>
<polygon fill="lightblue" stroke="lightblue" points="425.62,-868 348.62,-868 348.62,-791 425.62,-791 425.62,-868"/>
<image xlink:href="img/mob.png" width="77px" height="77px" preserveAspectRatio="xMinYMin meet" x="348.625" y="-868"/>
<text text-anchor="middle" x="387.12" y="-823.7" font-family="MS Gothic" font-size="14.00">Snake</text>
</g>
<!-- Snake&#45;&gt;Snake Mare -->
<g id="edge23" class="edge">
<title>Snake&#45;&gt;Snake Mare</title>
<path fill="none" stroke="black" d="M387.12,-790.61C387.12,-782.84 387.12,-774.56 387.12,-766.46"/>
<polygon fill="black" stroke="black" points="390.63,-766.73 387.13,-756.73 383.63,-766.73 390.63,-766.73"/>
</g>
<!-- Grey Wilkes -->
<g id="node25" class="node">
<title>Grey Wilkes</title>
<polygon fill="lightcoral" stroke="lightcoral" points="585.25,-868 495,-868 495,-791 585.25,-791 585.25,-868"/>
<image xlink:href="img/mob.png" width="90.25px" height="77px" preserveAspectRatio="xMinYMin meet" x="495" y="-868"/>
<text text-anchor="middle" x="540.12" y="-823.7" font-family="MS Gothic" font-size="14.00">Grey Wilkes</text>
</g>
<!-- Grey Wilkes&#45;&gt;Snake Mare -->
<g id="edge24" class="edge">
<title>Grey Wilkes&#45;&gt;Snake Mare</title>
<path fill="none" stroke="black" d="M494.63,-795.5C477.01,-782.71 456.73,-768 438.58,-754.83"/>
<polygon fill="black" stroke="black" points="440.68,-752.03 430.53,-748.99 436.57,-757.69 440.68,-752.03"/>
</g>
<!-- Lister Turk -->
<g id="node26" class="node">
<title>Lister Turk</title>
<polygon fill="lightblue" stroke="lightblue" points="368.25,-981 278,-981 278,-904 368.25,-904 368.25,-981"/>
<image xlink:href="img/mob.png" width="90.25px" height="77px" preserveAspectRatio="xMinYMin meet" x="278" y="-981"/>
<text text-anchor="middle" x="323.12" y="-936.7" font-family="MS Gothic" font-size="14.00">Lister Turk</text>
</g>
<!-- Lister Turk&#45;&gt;Snake -->
<g id="edge25" class="edge">
<title>Lister Turk&#45;&gt;Snake</title>
<path fill="none" stroke="black" d="M344.97,-903.61C349.71,-895.39 354.78,-886.6 359.7,-878.07"/>
<polygon fill="black" stroke="black" points="362.66,-879.94 364.62,-869.53 356.59,-876.44 362.66,-879.94"/>
</g>
<!-- Hautboy Mare -->
<g id="node27" class="node">
<title>Hautboy Mare</title>
<polygon fill="lightcoral" stroke="lightcoral" points="483.62,-981 386.62,-981 386.62,-904 483.62,-904 483.62,-981"/>
<image xlink:href="img/mob.png" width="97px" height="77px" preserveAspectRatio="xMinYMin meet" x="386.625" y="-981"/>
<text text-anchor="middle" x="435.12" y="-936.7" font-family="MS Gothic" font-size="14.00">Hautboy Mare</text>
</g>
<!-- Hautboy Mare&#45;&gt;Snake -->
<g id="edge26" class="edge">
<title>Hautboy Mare&#45;&gt;Snake</title>
<path fill="none" stroke="black" d="M418.74,-903.61C415.26,-895.57 411.55,-886.99 407.94,-878.63"/>
<polygon fill="black" stroke="black" points="411.22,-877.4 404.04,-869.61 404.79,-880.18 411.22,-877.4"/>
</g>
<!-- Hautboy -->
<g id="node28" class="node">
<title>Hautboy</title>
<polygon fill="lightblue" stroke="lightblue" points="578.62,-981 501.62,-981 501.62,-904 578.62,-904 578.62,-981"/>
<image xlink:href="img/mob.png" width="77px" height="77px" preserveAspectRatio="xMinYMin meet" x="501.625" y="-981"/>
<text text-anchor="middle" x="540.12" y="-936.7" font-family="MS Gothic" font-size="14.00">Hautboy</text>
</g>
<!-- Hautboy&#45;&gt;Grey Wilkes -->
<g id="edge27" class="edge">
<title>Hautboy&#45;&gt;Grey Wilkes</title>
<path fill="none" stroke="black" d="M540.12,-903.61C540.12,-895.84 540.12,-887.56 540.12,-879.46"/>
<polygon fill="black" stroke="black" points="543.63,-879.73 540.13,-869.73 536.63,-879.73 543.63,-879.73"/>
</g>
<!-- Miss Darcys Pet Mare -->
<g id="node29" class="node">
<title>Miss Darcys Pet Mare</title>
<polygon fill="lightcoral" stroke="lightcoral" points="747.62,-981 596.62,-981 596.62,-904 747.62,-904 747.62,-981"/>
<image xlink:href="img/mob.png" width="100px" height="77px" preserveAspectRatio="xMinYMin meet" x="622.125" y="-981"/>
<text text-anchor="middle" x="672.12" y="-936.7" font-family="MS Gothic" font-size="14.00">Miss Darcys Pet Mare</text>
</g>
<!-- Miss Darcys Pet Mare&#45;&gt;Grey Wilkes -->
<g id="edge28" class="edge">
<title>Miss Darcys Pet Mare&#45;&gt;Grey Wilkes</title>
<path fill="none" stroke="black" d="M627.07,-903.61C616.34,-894.59 604.79,-884.88 593.73,-875.57"/>
<polygon fill="black" stroke="black" points="596.04,-872.95 586.14,-869.19 591.54,-878.31 596.04,-872.95"/>
</g>
</g>
</svg>
