<?xml version="1.0" encoding="UTF-8" standalone="no"?>
<!DOCTYPE svg PUBLIC "-//W3C//DTD SVG 1.1//EN"
 "http://www.w3.org/Graphics/SVG/1.1/DTD/svg11.dtd">
<!-- Generated by graphviz version 12.1.2 (20240928.0832)
 -->
<!-- Pages: 1 -->
<svg width="2893pt" height="1156pt"
 viewBox="0.00 0.00 2893.38 1155.50" xmlns="http://www.w3.org/2000/svg" xmlns:xlink="http://www.w3.org/1999/xlink">
<g id="graph0" class="graph" transform="scale(1 1) rotate(0) translate(4 1151.5)">
<!-- Woodpecker_0_1 -->
<g id="node1" class="node">
<title>Woodpecker_0_1</title>
<g id="a_node1"><a xlink:href="https://www.google.com/search?q=Woodpecker%20%28netkeiba%20OR%20wikipedia%29" xlink:title="Woodpecker">
<polygon fill="none" stroke="black" points="1707.12,-24.5 1622.88,-24.5 1622.88,0 1707.12,0 1707.12,-24.5"/>
<text text-anchor="middle" x="1665" y="-7.2" font-family="Times New Roman,serif" font-size="14.00">Woodpecker</text>
</a>
</g>
</g>
<!-- Herod_1_1 -->
<g id="node2" class="node">
<title>Herod_1_1</title>
<g id="a_node2"><a xlink:href="https://www.google.com/search?q=Herod%20%28netkeiba%20OR%20wikipedia%29" xlink:title="Herod">
<polygon fill="lightblue" stroke="lightblue" points="1340.88,-227.5 1291.12,-227.5 1291.12,-204.5 1340.88,-204.5 1340.88,-227.5"/>
<text text-anchor="middle" x="1316" y="-210.2" font-family="MS Gothic" font-size="14.00">Herod</text>
</a>
</g>
</g>
<!-- Herod_1_1&#45;&gt;Woodpecker_0_1 -->
<g id="edge1" class="edge">
<title>Herod_1_1&#45;&gt;Woodpecker_0_1</title>
<path fill="none" stroke="lightblue" stroke-width="5" d="M1335.01,-204.01C1391.45,-171.38 1558.59,-74.76 1630.96,-32.93"/>
<polygon fill="lightblue" stroke="lightblue" stroke-width="5" points="1633.02,-36.79 1639.49,-28 1628.64,-29.21 1633.02,-36.79"/>
</g>
<!-- Tartar_2_1 -->
<g id="node3" class="node">
<title>Tartar_2_1</title>
<g id="a_node3"><a xlink:href="https://www.google.com/search?q=Tartar%20%28netkeiba%20OR%20wikipedia%29" xlink:title="Tartar">
<polygon fill="lightblue" stroke="lightblue" points="660.25,-430.5 603.75,-430.5 603.75,-407.5 660.25,-407.5 660.25,-430.5"/>
<text text-anchor="middle" x="632" y="-413.2" font-family="MS Gothic" font-size="14.00">Tartar</text>
</a>
</g>
</g>
<!-- Tartar_2_1&#45;&gt;Herod_1_1 -->
<g id="edge2" class="edge">
<title>Tartar_2_1&#45;&gt;Herod_1_1</title>
<path fill="none" stroke="lightblue" stroke-width="5" d="M660.52,-409.62C768.08,-378.01 1149.4,-265.96 1275.32,-228.95"/>
<polygon fill="lightblue" stroke="lightblue" stroke-width="5" points="1276.34,-233.21 1284.7,-226.2 1273.87,-224.82 1276.34,-233.21"/>
</g>
<!-- Croft&#39;s Partner_3_1 -->
<g id="node4" class="node">
<title>Croft&#39;s Partner_3_1</title>
<g id="a_node4"><a xlink:href="https://www.google.com/search?q=Croft%27s%20Partner%20%28netkeiba%20OR%20wikipedia%29" xlink:title="Croft&#39;s Partner">
<polygon fill="lightblue" stroke="lightblue" points="422.62,-660.5 305.38,-660.5 305.38,-637.5 422.62,-637.5 422.62,-660.5"/>
<text text-anchor="middle" x="364" y="-643.2" font-family="MS Gothic" font-size="14.00">Croft&#39;s Partner</text>
</a>
</g>
</g>
<!-- Croft&#39;s Partner_3_1&#45;&gt;Tartar_2_1 -->
<g id="edge3" class="edge">
<title>Croft&#39;s Partner_3_1&#45;&gt;Tartar_2_1</title>
<path fill="none" stroke="lightblue" stroke-width="5" d="M376.93,-637C418.85,-601.34 551.53,-488.46 607.12,-441.17"/>
<polygon fill="lightblue" stroke="lightblue" stroke-width="5" points="609.67,-444.74 614.45,-434.93 604,-438.08 609.67,-444.74"/>
</g>
<!-- Jigg_4_1 -->
<g id="node5" class="node">
<title>Jigg_4_1</title>
<g id="a_node5"><a xlink:href="https://www.google.com/search?q=Jigg%20%28netkeiba%20OR%20wikipedia%29" xlink:title="Jigg">
<polygon fill="lightblue" stroke="lightblue" points="207.5,-890.5 164.5,-890.5 164.5,-867.5 207.5,-867.5 207.5,-890.5"/>
<text text-anchor="middle" x="186" y="-873.2" font-family="MS Gothic" font-size="14.00">Jigg</text>
</a>
</g>
</g>
<!-- Jigg_4_1&#45;&gt;Croft&#39;s Partner_3_1 -->
<g id="edge4" class="edge">
<title>Jigg_4_1&#45;&gt;Croft&#39;s Partner_3_1</title>
<path fill="none" stroke="lightblue" stroke-width="5" d="M194.59,-867C221.96,-831.94 307.59,-722.25 345.56,-673.62"/>
<polygon fill="lightblue" stroke="lightblue" stroke-width="5" points="348.96,-676.38 351.66,-665.8 342.06,-670.99 348.96,-676.38"/>
</g>
<!-- バイアリーターク_5_1 -->
<g id="node6" class="node">
<title>バイアリーターク_5_1</title>
<g id="a_node6"><a xlink:href="https://www.google.com/search?q=%E3%83%90%E3%82%A4%E3%82%A2%E3%83%AA%E3%83%BC%E3%82%BF%E3%83%BC%E3%82%AF%20%28netkeiba%20OR%20wikipedia%29" xlink:title="バイアリーターク">
<polygon fill="lightblue" stroke="lightblue" points="130,-1147.5 0,-1147.5 0,-1070.5 130,-1070.5 130,-1147.5"/>
<image xlink:href="img/baiaritaku.png" width="100px" height="77px" preserveAspectRatio="xMinYMin meet" x="15" y="-1147.5"/>
<text text-anchor="middle" x="65" y="-1103.2" font-family="MS Gothic" font-size="14.00">バイアリーターク</text>
</a>
</g>
</g>
<!-- バイアリーターク_5_1&#45;&gt;Jigg_4_1 -->
<g id="edge5" class="edge">
<title>バイアリーターク_5_1&#45;&gt;Jigg_4_1</title>
<path fill="none" stroke="lightblue" stroke-width="5" d="M85.12,-1070.09C109.99,-1023.23 151.61,-944.8 172.77,-904.92"/>
<polygon fill="lightblue" stroke="lightblue" stroke-width="5" points="176.63,-907 177.45,-896.11 168.9,-902.89 176.63,-907"/>
</g>
<!-- Spanker Mare_5_1 -->
<g id="node7" class="node">
<title>Spanker Mare_5_1</title>
<g id="a_node7"><a xlink:href="https://www.google.com/search?q=Spanker%20Mare%20%28netkeiba%20OR%20wikipedia%29" xlink:title="Spanker Mare">
<polygon fill="lightcoral" stroke="lightcoral" points="234.5,-1120.5 137.5,-1120.5 137.5,-1097.5 234.5,-1097.5 234.5,-1120.5"/>
<text text-anchor="middle" x="186" y="-1103.2" font-family="MS Gothic" font-size="14.00">Spanker Mare</text>
</a>
</g>
</g>
<!-- Spanker Mare_5_1&#45;&gt;Jigg_4_1 -->
<g id="edge6" class="edge">
<title>Spanker Mare_5_1&#45;&gt;Jigg_4_1</title>
<path fill="none" stroke="lightcoral" stroke-width="5" d="M186,-1097C186,-1062.7 186,-956.94 186,-906.84"/>
<polygon fill="lightcoral" stroke="lightcoral" stroke-width="5" points="190.38,-907.12 186,-897.12 181.63,-907.12 190.38,-907.12"/>
</g>
<!-- Sister One to Mixbury_4_1 -->
<g id="node8" class="node">
<title>Sister One to Mixbury_4_1</title>
<g id="a_node8"><a xlink:href="https://www.google.com/search?q=Sister%20One%20to%20Mixbury%20%28netkeiba%20OR%20wikipedia%29" xlink:title="Sister One to Mixbury">
<polygon fill="lightcoral" stroke="lightcoral" points="442.88,-890.5 285.12,-890.5 285.12,-867.5 442.88,-867.5 442.88,-890.5"/>
<text text-anchor="middle" x="364" y="-873.2" font-family="MS Gothic" font-size="14.00">Sister One to Mixbury</text>
</a>
</g>
</g>
<!-- Sister One to Mixbury_4_1&#45;&gt;Croft&#39;s Partner_3_1 -->
<g id="edge7" class="edge">
<title>Sister One to Mixbury_4_1&#45;&gt;Croft&#39;s Partner_3_1</title>
<path fill="none" stroke="lightcoral" stroke-width="5" d="M364,-867C364,-832.7 364,-726.94 364,-676.84"/>
<polygon fill="lightcoral" stroke="lightcoral" stroke-width="5" points="368.38,-677.12 364,-667.12 359.63,-677.12 368.38,-677.12"/>
</g>
<!-- Curwen Bay Barb_5_1 -->
<g id="node9" class="node">
<title>Curwen Bay Barb_5_1</title>
<g id="a_node9"><a xlink:href="https://www.google.com/search?q=Curwen%20Bay%20Barb%20%28netkeiba%20OR%20wikipedia%29" xlink:title="Curwen Bay Barb">
<polygon fill="lightblue" stroke="lightblue" points="358.62,-1120.5 241.38,-1120.5 241.38,-1097.5 358.62,-1097.5 358.62,-1120.5"/>
<text text-anchor="middle" x="300" y="-1103.2" font-family="MS Gothic" font-size="14.00">Curwen Bay Barb</text>
</a>
</g>
</g>
<!-- Curwen Bay Barb_5_1&#45;&gt;Sister One to Mixbury_4_1 -->
<g id="edge8" class="edge">
<title>Curwen Bay Barb_5_1&#45;&gt;Sister One to Mixbury_4_1</title>
<path fill="none" stroke="lightblue" stroke-width="5" d="M303.09,-1097C312.74,-1062.62 342.53,-956.47 356.56,-906.51"/>
<polygon fill="lightblue" stroke="lightblue" stroke-width="5" points="360.77,-907.7 359.26,-896.89 352.34,-905.34 360.77,-907.7"/>
</g>
<!-- Curwen Spot Mare_5_1 -->
<g id="node10" class="node">
<title>Curwen Spot Mare_5_1</title>
<g id="a_node10"><a xlink:href="https://www.google.com/search?q=Curwen%20Spot%20Mare%20%28netkeiba%20OR%20wikipedia%29" xlink:title="Curwen Spot Mare">
<polygon fill="lightcoral" stroke="lightcoral" points="490,-1120.5 366,-1120.5 366,-1097.5 490,-1097.5 490,-1120.5"/>
<text text-anchor="middle" x="428" y="-1103.2" font-family="MS Gothic" font-size="14.00">Curwen Spot Mare</text>
</a>
</g>
</g>
<!-- Curwen Spot Mare_5_1&#45;&gt;Sister One to Mixbury_4_1 -->
<g id="edge9" class="edge">
<title>Curwen Spot Mare_5_1&#45;&gt;Sister One to Mixbury_4_1</title>
<path fill="none" stroke="lightcoral" stroke-width="5" d="M424.91,-1097C415.26,-1062.62 385.47,-956.47 371.44,-906.51"/>
<polygon fill="lightcoral" stroke="lightcoral" stroke-width="5" points="375.66,-905.34 368.74,-896.89 367.23,-907.7 375.66,-905.34"/>
</g>
<!-- Meliora_3_1 -->
<g id="node11" class="node">
<title>Meliora_3_1</title>
<g id="a_node11"><a xlink:href="https://www.google.com/search?q=Meliora%20%28netkeiba%20OR%20wikipedia%29" xlink:title="Meliora">
<polygon fill="lightcoral" stroke="lightcoral" points="663.62,-660.5 600.38,-660.5 600.38,-637.5 663.62,-637.5 663.62,-660.5"/>
<text text-anchor="middle" x="632" y="-643.2" font-family="MS Gothic" font-size="14.00">Meliora</text>
</a>
</g>
</g>
<!-- Meliora_3_1&#45;&gt;Tartar_2_1 -->
<g id="edge10" class="edge">
<title>Meliora_3_1&#45;&gt;Tartar_2_1</title>
<path fill="none" stroke="lightcoral" stroke-width="5" d="M632,-637C632,-602.7 632,-496.94 632,-446.84"/>
<polygon fill="lightcoral" stroke="lightcoral" stroke-width="5" points="636.38,-447.12 632,-437.12 627.63,-447.12 636.38,-447.12"/>
</g>
<!-- Fox_4_1 -->
<g id="node12" class="node">
<title>Fox_4_1</title>
<g id="a_node12"><a xlink:href="https://www.google.com/search?q=Fox%20%28netkeiba%20OR%20wikipedia%29" xlink:title="Fox">
<polygon fill="lightblue" stroke="lightblue" points="606.12,-890.5 569.88,-890.5 569.88,-867.5 606.12,-867.5 606.12,-890.5"/>
<text text-anchor="middle" x="588" y="-873.2" font-family="MS Gothic" font-size="14.00">Fox</text>
</a>
</g>
</g>
<!-- Fox_4_1&#45;&gt;Meliora_3_1 -->
<g id="edge11" class="edge">
<title>Fox_4_1&#45;&gt;Meliora_3_1</title>
<path fill="none" stroke="lightblue" stroke-width="5" d="M590.12,-867C596.76,-832.62 617.24,-726.47 626.88,-676.51"/>
<polygon fill="lightblue" stroke="lightblue" stroke-width="5" points="631.12,-677.66 628.72,-667.01 622.53,-676 631.12,-677.66"/>
</g>
<!-- Clumsey_5_1 -->
<g id="node13" class="node">
<title>Clumsey_5_1</title>
<g id="a_node13"><a xlink:href="https://www.google.com/search?q=Clumsey%20%28netkeiba%20OR%20wikipedia%29" xlink:title="Clumsey">
<polygon fill="lightblue" stroke="lightblue" points="560.62,-1120.5 497.38,-1120.5 497.38,-1097.5 560.62,-1097.5 560.62,-1120.5"/>
<text text-anchor="middle" x="529" y="-1103.2" font-family="MS Gothic" font-size="14.00">Clumsey</text>
</a>
</g>
</g>
<!-- Clumsey_5_1&#45;&gt;Fox_4_1 -->
<g id="edge12" class="edge">
<title>Clumsey_5_1&#45;&gt;Fox_4_1</title>
<path fill="none" stroke="lightblue" stroke-width="5" d="M531.85,-1097C540.74,-1062.62 568.21,-956.47 581.14,-906.51"/>
<polygon fill="lightblue" stroke="lightblue" stroke-width="5" points="585.35,-907.7 583.62,-896.92 576.88,-905.51 585.35,-907.7"/>
</g>
<!-- Bay Peg_5_1 -->
<g id="node14" class="node">
<title>Bay Peg_5_1</title>
<g id="a_node14"><a xlink:href="https://www.google.com/search?q=Bay%20Peg%20%28netkeiba%20OR%20wikipedia%29" xlink:title="Bay Peg">
<polygon fill="lightcoral" stroke="lightcoral" points="630.62,-1120.5 567.38,-1120.5 567.38,-1097.5 630.62,-1097.5 630.62,-1120.5"/>
<text text-anchor="middle" x="599" y="-1103.2" font-family="MS Gothic" font-size="14.00">Bay Peg</text>
</a>
</g>
</g>
<!-- Bay Peg_5_1&#45;&gt;Fox_4_1 -->
<g id="edge13" class="edge">
<title>Bay Peg_5_1&#45;&gt;Fox_4_1</title>
<path fill="none" stroke="lightcoral" stroke-width="5" d="M598.47,-1097C596.81,-1062.7 591.71,-956.94 589.3,-906.84"/>
<polygon fill="lightcoral" stroke="lightcoral" stroke-width="5" points="593.68,-906.89 588.83,-897.12 584.94,-907.32 593.68,-906.89"/>
</g>
<!-- Witty&#39;s Milkmaid_4_1 -->
<g id="node15" class="node">
<title>Witty&#39;s Milkmaid_4_1</title>
<g id="a_node15"><a xlink:href="https://www.google.com/search?q=Witty%27s%20Milkmaid%20%28netkeiba%20OR%20wikipedia%29" xlink:title="Witty&#39;s Milkmaid">
<polygon fill="lightcoral" stroke="lightcoral" points="737,-890.5 613,-890.5 613,-867.5 737,-867.5 737,-890.5"/>
<text text-anchor="middle" x="675" y="-873.2" font-family="MS Gothic" font-size="14.00">Witty&#39;s Milkmaid</text>
</a>
</g>
</g>
<!-- Witty&#39;s Milkmaid_4_1&#45;&gt;Meliora_3_1 -->
<g id="edge14" class="edge">
<title>Witty&#39;s Milkmaid_4_1&#45;&gt;Meliora_3_1</title>
<path fill="none" stroke="lightcoral" stroke-width="5" d="M672.93,-867C666.44,-832.62 646.42,-726.47 637,-676.51"/>
<polygon fill="lightcoral" stroke="lightcoral" stroke-width="5" points="641.36,-676.03 635.21,-667.02 632.76,-677.65 641.36,-676.03"/>
</g>
<!-- Snail_5_1 -->
<g id="node16" class="node">
<title>Snail_5_1</title>
<g id="a_node16"><a xlink:href="https://www.google.com/search?q=Snail%20%28netkeiba%20OR%20wikipedia%29" xlink:title="Snail">
<polygon fill="lightblue" stroke="lightblue" points="687.88,-1120.5 638.12,-1120.5 638.12,-1097.5 687.88,-1097.5 687.88,-1120.5"/>
<text text-anchor="middle" x="663" y="-1103.2" font-family="MS Gothic" font-size="14.00">Snail</text>
</a>
</g>
</g>
<!-- Snail_5_1&#45;&gt;Witty&#39;s Milkmaid_4_1 -->
<g id="edge15" class="edge">
<title>Snail_5_1&#45;&gt;Witty&#39;s Milkmaid_4_1</title>
<path fill="none" stroke="lightblue" stroke-width="5" d="M663.58,-1097C665.38,-1062.7 670.95,-956.94 673.59,-906.84"/>
<polygon fill="lightblue" stroke="lightblue" stroke-width="5" points="677.94,-907.33 674.1,-897.12 669.2,-906.87 677.94,-907.33"/>
</g>
<!-- Shields Galloway_5_1 -->
<g id="node17" class="node">
<title>Shields Galloway_5_1</title>
<g id="a_node17"><a xlink:href="https://www.google.com/search?q=Shields%20Galloway%20%28netkeiba%20OR%20wikipedia%29" xlink:title="Shields Galloway">
<polygon fill="lightcoral" stroke="lightcoral" points="819,-1120.5 695,-1120.5 695,-1097.5 819,-1097.5 819,-1120.5"/>
<text text-anchor="middle" x="757" y="-1103.2" font-family="MS Gothic" font-size="14.00">Shields Galloway</text>
</a>
</g>
</g>
<!-- Shields Galloway_5_1&#45;&gt;Witty&#39;s Milkmaid_4_1 -->
<g id="edge16" class="edge">
<title>Shields Galloway_5_1&#45;&gt;Witty&#39;s Milkmaid_4_1</title>
<path fill="none" stroke="lightcoral" stroke-width="5" d="M753.04,-1097C740.62,-1062.47 702.17,-955.54 684.3,-905.86"/>
<polygon fill="lightcoral" stroke="lightcoral" stroke-width="5" points="688.53,-904.69 681.03,-896.76 680.29,-907.65 688.53,-904.69"/>
</g>
<!-- Cypron_2_1 -->
<g id="node18" class="node">
<title>Cypron_2_1</title>
<g id="a_node18"><a xlink:href="https://www.google.com/search?q=Cypron%20%28netkeiba%20OR%20wikipedia%29" xlink:title="Cypron">
<polygon fill="lightcoral" stroke="lightcoral" points="1344.25,-430.5 1287.75,-430.5 1287.75,-407.5 1344.25,-407.5 1344.25,-430.5"/>
<text text-anchor="middle" x="1316" y="-413.2" font-family="MS Gothic" font-size="14.00">Cypron</text>
</a>
</g>
</g>
<!-- Cypron_2_1&#45;&gt;Herod_1_1 -->
<g id="edge17" class="edge">
<title>Cypron_2_1&#45;&gt;Herod_1_1</title>
<path fill="none" stroke="lightcoral" stroke-width="5" d="M1316,-407.19C1316,-376.59 1316,-288.64 1316,-243.88"/>
<polygon fill="lightcoral" stroke="lightcoral" stroke-width="5" points="1320.38,-244.1 1316,-234.1 1311.63,-244.1 1320.38,-244.1"/>
</g>
<!-- Blaze_3_1 -->
<g id="node19" class="node">
<title>Blaze_3_1</title>
<g id="a_node19"><a xlink:href="https://www.google.com/search?q=Blaze%20%28netkeiba%20OR%20wikipedia%29" xlink:title="Blaze">
<polygon fill="lightblue" stroke="lightblue" points="1241.88,-660.5 1192.12,-660.5 1192.12,-637.5 1241.88,-637.5 1241.88,-660.5"/>
<text text-anchor="middle" x="1217" y="-643.2" font-family="MS Gothic" font-size="14.00">Blaze</text>
</a>
</g>
</g>
<!-- Blaze_3_1&#45;&gt;Cypron_2_1 -->
<g id="edge18" class="edge">
<title>Blaze_3_1&#45;&gt;Cypron_2_1</title>
<path fill="none" stroke="lightblue" stroke-width="5" d="M1221.77,-637C1236.8,-602.39 1283.4,-495.07 1304.91,-445.53"/>
<polygon fill="lightblue" stroke="lightblue" stroke-width="5" points="1308.82,-447.52 1308.79,-436.61 1300.79,-444.04 1308.82,-447.52"/>
</g>
<!-- Flying Childers_4_1 -->
<g id="node20" class="node">
<title>Flying Childers_4_1</title>
<g id="a_node20"><a xlink:href="https://www.google.com/search?q=Flying%20Childers%20%28netkeiba%20OR%20wikipedia%29" xlink:title="Flying Childers">
<polygon fill="lightblue" stroke="lightblue" points="1084.62,-890.5 967.38,-890.5 967.38,-867.5 1084.62,-867.5 1084.62,-890.5"/>
<text text-anchor="middle" x="1026" y="-873.2" font-family="MS Gothic" font-size="14.00">Flying Childers</text>
</a>
</g>
</g>
<!-- Flying Childers_4_1&#45;&gt;Blaze_3_1 -->
<g id="edge19" class="edge">
<title>Flying Childers_4_1&#45;&gt;Blaze_3_1</title>
<path fill="none" stroke="lightblue" stroke-width="5" d="M1035.21,-867C1064.65,-831.87 1156.87,-721.78 1197.47,-673.31"/>
<polygon fill="lightblue" stroke="lightblue" stroke-width="5" points="1200.81,-676.14 1203.87,-665.67 1194.1,-670.52 1200.81,-676.14"/>
</g>
<!-- ダーレーアラビアン_5_1 -->
<g id="node21" class="node">
<title>ダーレーアラビアン_5_1</title>
<g id="a_node21"><a xlink:href="https://www.google.com/search?q=%E3%83%80%E3%83%BC%E3%83%AC%E3%83%BC%E3%82%A2%E3%83%A9%E3%83%93%E3%82%A2%E3%83%B3%20%28netkeiba%20OR%20wikipedia%29" xlink:title="ダーレーアラビアン">
<polygon fill="lightblue" stroke="lightblue" points="970.12,-1147.5 825.88,-1147.5 825.88,-1070.5 970.12,-1070.5 970.12,-1147.5"/>
<image xlink:href="img/darearabian.png" width="100px" height="77px" preserveAspectRatio="xMinYMin meet" x="848" y="-1147.5"/>
<text text-anchor="middle" x="898" y="-1103.2" font-family="MS Gothic" font-size="14.00">ダーレーアラビアン</text>
</a>
</g>
</g>
<!-- ダーレーアラビアン_5_1&#45;&gt;Flying Childers_4_1 -->
<g id="edge20" class="edge">
<title>ダーレーアラビアン_5_1&#45;&gt;Flying Childers_4_1</title>
<path fill="none" stroke="lightblue" stroke-width="5" d="M919.28,-1070.09C945.65,-1023.13 989.82,-944.45 1012.16,-904.65"/>
<polygon fill="lightblue" stroke="lightblue" stroke-width="5" points="1015.91,-906.9 1016.99,-896.04 1008.28,-902.62 1015.91,-906.9"/>
</g>
<!-- Betty Leedes_5_1 -->
<g id="node22" class="node">
<title>Betty Leedes_5_1</title>
<g id="a_node22"><a xlink:href="https://www.google.com/search?q=Betty%20Leedes%20%28netkeiba%20OR%20wikipedia%29" xlink:title="Betty Leedes">
<polygon fill="lightcoral" stroke="lightcoral" points="1074.5,-1120.5 977.5,-1120.5 977.5,-1097.5 1074.5,-1097.5 1074.5,-1120.5"/>
<text text-anchor="middle" x="1026" y="-1103.2" font-family="MS Gothic" font-size="14.00">Betty Leedes</text>
</a>
</g>
</g>
<!-- Betty Leedes_5_1&#45;&gt;Flying Childers_4_1 -->
<g id="edge21" class="edge">
<title>Betty Leedes_5_1&#45;&gt;Flying Childers_4_1</title>
<path fill="none" stroke="lightcoral" stroke-width="5" d="M1026,-1097C1026,-1062.7 1026,-956.94 1026,-906.84"/>
<polygon fill="lightcoral" stroke="lightcoral" stroke-width="5" points="1030.38,-907.12 1026,-897.12 1021.63,-907.12 1030.38,-907.12"/>
</g>
<!-- Confederate Filly_4_1 -->
<g id="node23" class="node">
<title>Confederate Filly_4_1</title>
<g id="a_node23"><a xlink:href="https://www.google.com/search?q=Confederate%20Filly%20%28netkeiba%20OR%20wikipedia%29" xlink:title="Confederate Filly">
<polygon fill="lightcoral" stroke="lightcoral" points="1282.38,-890.5 1151.62,-890.5 1151.62,-867.5 1282.38,-867.5 1282.38,-890.5"/>
<text text-anchor="middle" x="1217" y="-873.2" font-family="MS Gothic" font-size="14.00">Confederate Filly</text>
</a>
</g>
</g>
<!-- Confederate Filly_4_1&#45;&gt;Blaze_3_1 -->
<g id="edge22" class="edge">
<title>Confederate Filly_4_1&#45;&gt;Blaze_3_1</title>
<path fill="none" stroke="lightcoral" stroke-width="5" d="M1217,-867C1217,-832.7 1217,-726.94 1217,-676.84"/>
<polygon fill="lightcoral" stroke="lightcoral" stroke-width="5" points="1221.38,-677.12 1217,-667.12 1212.63,-677.12 1221.38,-677.12"/>
</g>
<!-- Grey Grantham_5_1 -->
<g id="node24" class="node">
<title>Grey Grantham_5_1</title>
<g id="a_node24"><a xlink:href="https://www.google.com/search?q=Grey%20Grantham%20%28netkeiba%20OR%20wikipedia%29" xlink:title="Grey Grantham">
<polygon fill="lightblue" stroke="lightblue" points="1184.88,-1120.5 1081.12,-1120.5 1081.12,-1097.5 1184.88,-1097.5 1184.88,-1120.5"/>
<text text-anchor="middle" x="1133" y="-1103.2" font-family="MS Gothic" font-size="14.00">Grey Grantham</text>
</a>
</g>
</g>
<!-- Grey Grantham_5_1&#45;&gt;Confederate Filly_4_1 -->
<g id="edge23" class="edge">
<title>Grey Grantham_5_1&#45;&gt;Confederate Filly_4_1</title>
<path fill="none" stroke="lightblue" stroke-width="5" d="M1137.05,-1097C1149.77,-1062.47 1189.17,-955.54 1207.47,-905.86"/>
<polygon fill="lightblue" stroke="lightblue" stroke-width="5" points="1211.48,-907.64 1210.83,-896.74 1203.27,-904.61 1211.48,-907.64"/>
</g>
<!-- Rutland&#39;s Black Barb Mare_5_1 -->
<g id="node25" class="node">
<title>Rutland&#39;s Black Barb Mare_5_1</title>
<g id="a_node25"><a xlink:href="https://www.google.com/search?q=Rutland%27s%20Black%20Barb%20Mare%20%28netkeiba%20OR%20wikipedia%29" xlink:title="Rutland&#39;s Black Barb Mare">
<polygon fill="lightcoral" stroke="lightcoral" points="1376.38,-1120.5 1191.62,-1120.5 1191.62,-1097.5 1376.38,-1097.5 1376.38,-1120.5"/>
<text text-anchor="middle" x="1284" y="-1103.2" font-family="MS Gothic" font-size="14.00">Rutland&#39;s Black Barb Mare</text>
</a>
</g>
</g>
<!-- Rutland&#39;s Black Barb Mare_5_1&#45;&gt;Confederate Filly_4_1 -->
<g id="edge24" class="edge">
<title>Rutland&#39;s Black Barb Mare_5_1&#45;&gt;Confederate Filly_4_1</title>
<path fill="none" stroke="lightcoral" stroke-width="5" d="M1280.77,-1097C1270.64,-1062.54 1239.34,-956.01 1224.69,-906.19"/>
<polygon fill="lightcoral" stroke="lightcoral" stroke-width="5" points="1228.97,-905.23 1221.96,-896.87 1220.58,-907.7 1228.97,-905.23"/>
</g>
<!-- Salome_3_1 -->
<g id="node26" class="node">
<title>Salome_3_1</title>
<g id="a_node26"><a xlink:href="https://www.google.com/search?q=Salome%20%28netkeiba%20OR%20wikipedia%29" xlink:title="Salome">
<polygon fill="lightcoral" stroke="lightcoral" points="1433.25,-660.5 1376.75,-660.5 1376.75,-637.5 1433.25,-637.5 1433.25,-660.5"/>
<text text-anchor="middle" x="1405" y="-643.2" font-family="MS Gothic" font-size="14.00">Salome</text>
</a>
</g>
</g>
<!-- Salome_3_1&#45;&gt;Cypron_2_1 -->
<g id="edge25" class="edge">
<title>Salome_3_1&#45;&gt;Cypron_2_1</title>
<path fill="none" stroke="lightcoral" stroke-width="5" d="M1400.71,-637C1387.23,-602.47 1345.49,-495.54 1326.09,-445.86"/>
<polygon fill="lightcoral" stroke="lightcoral" stroke-width="5" points="1330.23,-444.42 1322.52,-436.7 1322.08,-447.6 1330.23,-444.42"/>
</g>
<!-- Bethell&#39;s Arabian_4_1 -->
<g id="node27" class="node">
<title>Bethell&#39;s Arabian_4_1</title>
<g id="a_node27"><a xlink:href="https://www.google.com/search?q=Bethell%27s%20Arabian%20%28netkeiba%20OR%20wikipedia%29" xlink:title="Bethell&#39;s Arabian">
<polygon fill="lightblue" stroke="lightblue" points="1470.38,-890.5 1339.62,-890.5 1339.62,-867.5 1470.38,-867.5 1470.38,-890.5"/>
<text text-anchor="middle" x="1405" y="-873.2" font-family="MS Gothic" font-size="14.00">Bethell&#39;s Arabian</text>
</a>
</g>
</g>
<!-- Bethell&#39;s Arabian_4_1&#45;&gt;Salome_3_1 -->
<g id="edge26" class="edge">
<title>Bethell&#39;s Arabian_4_1&#45;&gt;Salome_3_1</title>
<path fill="none" stroke="lightblue" stroke-width="5" d="M1405,-867C1405,-832.7 1405,-726.94 1405,-676.84"/>
<polygon fill="lightblue" stroke="lightblue" stroke-width="5" points="1409.38,-677.12 1405,-667.12 1400.63,-677.12 1409.38,-677.12"/>
</g>
<!-- unknown_5_1 -->
<g id="node28" class="node">
<title>unknown_5_1</title>
<g id="a_node28"><a xlink:href="https://www.google.com/search?q=unknown%20%28netkeiba%20OR%20wikipedia%29" xlink:title="unknown">
<polygon fill="lightcoral" stroke="lightcoral" points="1446.62,-1120.5 1383.38,-1120.5 1383.38,-1097.5 1446.62,-1097.5 1446.62,-1120.5"/>
<text text-anchor="middle" x="1415" y="-1103.2" font-family="MS Gothic" font-size="14.00">unknown</text>
</a>
</g>
</g>
<!-- unknown_5_1&#45;&gt;Bethell&#39;s Arabian_4_1 -->
<g id="edge27" class="edge">
<title>unknown_5_1&#45;&gt;Bethell&#39;s Arabian_4_1</title>
<path fill="none" stroke="lightblue" stroke-width="5" d="M1414.52,-1097C1413.01,-1062.7 1408.37,-956.94 1406.18,-906.84"/>
<polygon fill="lightblue" stroke="lightblue" stroke-width="5" points="1410.56,-906.92 1405.75,-897.12 1401.82,-907.3 1410.56,-906.92"/>
</g>
<!-- Champion mare_4_1 -->
<g id="node29" class="node">
<title>Champion mare_4_1</title>
<g id="a_node29"><a xlink:href="https://www.google.com/search?q=Champion%20mare%20%28netkeiba%20OR%20wikipedia%29" xlink:title="Champion mare">
<polygon fill="lightcoral" stroke="lightcoral" points="1580.88,-890.5 1477.12,-890.5 1477.12,-867.5 1580.88,-867.5 1580.88,-890.5"/>
<text text-anchor="middle" x="1529" y="-873.2" font-family="MS Gothic" font-size="14.00">Champion mare</text>
</a>
</g>
</g>
<!-- Champion mare_4_1&#45;&gt;Salome_3_1 -->
<g id="edge28" class="edge">
<title>Champion mare_4_1&#45;&gt;Salome_3_1</title>
<path fill="none" stroke="lightcoral" stroke-width="5" d="M1523.02,-867C1504.11,-832.24 1445.32,-724.14 1418.54,-674.89"/>
<polygon fill="lightcoral" stroke="lightcoral" stroke-width="5" points="1422.52,-673.06 1413.9,-666.37 1414.84,-677.24 1422.52,-673.06"/>
</g>
<!-- Graham&#39;s Champion_5_1 -->
<g id="node30" class="node">
<title>Graham&#39;s Champion_5_1</title>
<g id="a_node30"><a xlink:href="https://www.google.com/search?q=Graham%27s%20Champion%20%28netkeiba%20OR%20wikipedia%29" xlink:title="Graham&#39;s Champion">
<polygon fill="lightblue" stroke="lightblue" points="1584.38,-1120.5 1453.62,-1120.5 1453.62,-1097.5 1584.38,-1097.5 1584.38,-1120.5"/>
<text text-anchor="middle" x="1519" y="-1103.2" font-family="MS Gothic" font-size="14.00">Graham&#39;s Champion</text>
</a>
</g>
</g>
<!-- Graham&#39;s Champion_5_1&#45;&gt;Champion mare_4_1 -->
<g id="edge29" class="edge">
<title>Graham&#39;s Champion_5_1&#45;&gt;Champion mare_4_1</title>
<path fill="none" stroke="lightblue" stroke-width="5" d="M1519.48,-1097C1520.99,-1062.7 1525.63,-956.94 1527.82,-906.84"/>
<polygon fill="lightblue" stroke="lightblue" stroke-width="5" points="1532.18,-907.3 1528.25,-897.12 1523.44,-906.92 1532.18,-907.3"/>
</g>
<!-- Darley Arabian Mare_5_1 -->
<g id="node31" class="node">
<title>Darley Arabian Mare_5_1</title>
<g id="a_node31"><a xlink:href="https://www.google.com/search?q=Darley%20Arabian%20Mare%20%28netkeiba%20OR%20wikipedia%29" xlink:title="Darley Arabian Mare">
<polygon fill="lightcoral" stroke="lightcoral" points="1736.12,-1120.5 1591.88,-1120.5 1591.88,-1097.5 1736.12,-1097.5 1736.12,-1120.5"/>
<text text-anchor="middle" x="1664" y="-1103.2" font-family="MS Gothic" font-size="14.00">Darley Arabian Mare</text>
</a>
</g>
</g>
<!-- Darley Arabian Mare_5_1&#45;&gt;Champion mare_4_1 -->
<g id="edge30" class="edge">
<title>Darley Arabian Mare_5_1&#45;&gt;Champion mare_4_1</title>
<path fill="none" stroke="lightcoral" stroke-width="5" d="M1657.49,-1097C1636.86,-1062.17 1572.62,-953.67 1543.55,-904.57"/>
<polygon fill="lightcoral" stroke="lightcoral" stroke-width="5" points="1547.48,-902.63 1538.62,-896.25 1539.95,-907.09 1547.48,-902.63"/>
</g>
<!-- Miss Ramsden_1_1 -->
<g id="node32" class="node">
<title>Miss Ramsden_1_1</title>
<g id="a_node32"><a xlink:href="https://www.google.com/search?q=Miss%20Ramsden%20%28netkeiba%20OR%20wikipedia%29" xlink:title="Miss Ramsden">
<polygon fill="lightcoral" stroke="lightcoral" points="1917.5,-227.5 1820.5,-227.5 1820.5,-204.5 1917.5,-204.5 1917.5,-227.5"/>
<text text-anchor="middle" x="1869" y="-210.2" font-family="MS Gothic" font-size="14.00">Miss Ramsden</text>
</a>
</g>
</g>
<!-- Miss Ramsden_1_1&#45;&gt;Woodpecker_0_1 -->
<g id="edge31" class="edge">
<title>Miss Ramsden_1_1&#45;&gt;Woodpecker_0_1</title>
<path fill="none" stroke="lightcoral" stroke-width="5" d="M1858.03,-204.15C1826.02,-172.49 1732.2,-79.71 1688.23,-36.23"/>
<polygon fill="lightcoral" stroke="lightcoral" stroke-width="5" points="1691.4,-33.21 1681.21,-29.29 1685.25,-39.43 1691.4,-33.21"/>
</g>
<!-- Cade_2_1 -->
<g id="node33" class="node">
<title>Cade_2_1</title>
<g id="a_node33"><a xlink:href="https://www.google.com/search?q=Cade%20%28netkeiba%20OR%20wikipedia%29" xlink:title="Cade">
<polygon fill="lightblue" stroke="lightblue" points="1890.5,-430.5 1847.5,-430.5 1847.5,-407.5 1890.5,-407.5 1890.5,-430.5"/>
<text text-anchor="middle" x="1869" y="-413.2" font-family="MS Gothic" font-size="14.00">Cade</text>
</a>
</g>
</g>
<!-- Cade_2_1&#45;&gt;Miss Ramsden_1_1 -->
<g id="edge32" class="edge">
<title>Cade_2_1&#45;&gt;Miss Ramsden_1_1</title>
<path fill="none" stroke="lightblue" stroke-width="5" d="M1869,-407.19C1869,-376.59 1869,-288.64 1869,-243.88"/>
<polygon fill="lightblue" stroke="lightblue" stroke-width="5" points="1873.38,-244.1 1869,-234.1 1864.63,-244.1 1873.38,-244.1"/>
</g>
<!-- ゴドルフィンバルブ_3_1 -->
<g id="node34" class="node">
<title>ゴドルフィンバルブ_3_1</title>
<g id="a_node34"><a xlink:href="https://www.google.com/search?q=%E3%82%B4%E3%83%89%E3%83%AB%E3%83%95%E3%82%A3%E3%83%B3%E3%83%90%E3%83%AB%E3%83%96%20%28netkeiba%20OR%20wikipedia%29" xlink:title="ゴドルフィンバルブ">
<polygon fill="lightblue" stroke="lightblue" points="1868.12,-687.5 1723.88,-687.5 1723.88,-610.5 1868.12,-610.5 1868.12,-687.5"/>
<image xlink:href="img/godoruhuinbarubu.png" width="100px" height="77px" preserveAspectRatio="xMinYMin meet" x="1746" y="-687.5"/>
<text text-anchor="middle" x="1796" y="-643.2" font-family="MS Gothic" font-size="14.00">ゴドルフィンバルブ</text>
</a>
</g>
</g>
<!-- ゴドルフィンバルブ_3_1&#45;&gt;Cade_2_1 -->
<g id="edge33" class="edge">
<title>ゴドルフィンバルブ_3_1&#45;&gt;Cade_2_1</title>
<path fill="none" stroke="lightblue" stroke-width="5" d="M1808.14,-610.09C1823.01,-563.65 1847.81,-486.2 1860.68,-445.99"/>
<polygon fill="lightblue" stroke="lightblue" stroke-width="5" points="1864.82,-447.4 1863.7,-436.54 1856.49,-444.73 1864.82,-447.4"/>
</g>
<!-- unknown_4_2 -->
<g id="node35" class="node">
<title>unknown_4_2</title>
<g id="a_node35"><a xlink:href="https://www.google.com/search?q=unknown%20%28netkeiba%20OR%20wikipedia%29" xlink:title="unknown">
<polygon fill="lightcoral" stroke="lightcoral" points="1816.62,-890.5 1753.38,-890.5 1753.38,-867.5 1816.62,-867.5 1816.62,-890.5"/>
<text text-anchor="middle" x="1785" y="-873.2" font-family="MS Gothic" font-size="14.00">unknown</text>
</a>
</g>
</g>
<!-- unknown_4_2&#45;&gt;ゴドルフィンバルブ_3_1 -->
<g id="edge34" class="edge">
<title>unknown_4_2&#45;&gt;ゴドルフィンバルブ_3_1</title>
<path fill="none" stroke="lightblue" stroke-width="5" d="M1785.53,-867C1786.93,-838.06 1790.78,-758.28 1793.4,-703.96"/>
<polygon fill="lightblue" stroke="lightblue" stroke-width="5" points="1797.75,-704.43 1793.87,-694.23 1789.01,-704.01 1797.75,-704.43"/>
</g>
<!-- unknown_5_3 -->
<g id="node36" class="node">
<title>unknown_5_3</title>
<g id="a_node36"><a xlink:href="https://www.google.com/search?q=unknown%20%28netkeiba%20OR%20wikipedia%29" xlink:title="unknown">
<polygon fill="lightcoral" stroke="lightcoral" points="1806.62,-1120.5 1743.38,-1120.5 1743.38,-1097.5 1806.62,-1097.5 1806.62,-1120.5"/>
<text text-anchor="middle" x="1775" y="-1103.2" font-family="MS Gothic" font-size="14.00">unknown</text>
</a>
</g>
</g>
<!-- unknown_5_3&#45;&gt;unknown_4_2 -->
<g id="edge35" class="edge">
<title>unknown_5_3&#45;&gt;unknown_4_2</title>
<path fill="none" stroke="lightblue" stroke-width="5" d="M1775.48,-1097C1776.99,-1062.7 1781.63,-956.94 1783.82,-906.84"/>
<polygon fill="lightblue" stroke="lightblue" stroke-width="5" points="1788.18,-907.3 1784.25,-897.12 1779.44,-906.92 1788.18,-907.3"/>
</g>
<!-- Roxana_3_1 -->
<g id="node37" class="node">
<title>Roxana_3_1</title>
<g id="a_node37"><a xlink:href="https://www.google.com/search?q=Roxana%20%28netkeiba%20OR%20wikipedia%29" xlink:title="Roxana">
<polygon fill="lightcoral" stroke="lightcoral" points="1971.25,-660.5 1914.75,-660.5 1914.75,-637.5 1971.25,-637.5 1971.25,-660.5"/>
<text text-anchor="middle" x="1943" y="-643.2" font-family="MS Gothic" font-size="14.00">Roxana</text>
</a>
</g>
</g>
<!-- Roxana_3_1&#45;&gt;Cade_2_1 -->
<g id="edge36" class="edge">
<title>Roxana_3_1&#45;&gt;Cade_2_1</title>
<path fill="none" stroke="lightcoral" stroke-width="5" d="M1939.43,-637C1928.25,-602.54 1893.67,-496.01 1877.5,-446.19"/>
<polygon fill="lightcoral" stroke="lightcoral" stroke-width="5" points="1881.71,-444.98 1874.46,-436.82 1873.38,-447.68 1881.71,-444.98"/>
</g>
<!-- Bald Galloway_4_1 -->
<g id="node38" class="node">
<title>Bald Galloway_4_1</title>
<g id="a_node38"><a xlink:href="https://www.google.com/search?q=Bald%20Galloway%20%28netkeiba%20OR%20wikipedia%29" xlink:title="Bald Galloway">
<polygon fill="lightblue" stroke="lightblue" points="1994.88,-890.5 1891.12,-890.5 1891.12,-867.5 1994.88,-867.5 1994.88,-890.5"/>
<text text-anchor="middle" x="1943" y="-873.2" font-family="MS Gothic" font-size="14.00">Bald Galloway</text>
</a>
</g>
</g>
<!-- Bald Galloway_4_1&#45;&gt;Roxana_3_1 -->
<g id="edge37" class="edge">
<title>Bald Galloway_4_1&#45;&gt;Roxana_3_1</title>
<path fill="none" stroke="lightblue" stroke-width="5" d="M1943,-867C1943,-832.7 1943,-726.94 1943,-676.84"/>
<polygon fill="lightblue" stroke="lightblue" stroke-width="5" points="1947.38,-677.12 1943,-667.12 1938.63,-677.12 1947.38,-677.12"/>
</g>
<!-- St.Victor&#39;s Barb_5_1 -->
<g id="node39" class="node">
<title>St.Victor&#39;s Barb_5_1</title>
<g id="a_node39"><a xlink:href="https://www.google.com/search?q=St.Victor%27s%20Barb%20%28netkeiba%20OR%20wikipedia%29" xlink:title="St.Victor&#39;s Barb">
<polygon fill="lightblue" stroke="lightblue" points="1938,-1120.5 1814,-1120.5 1814,-1097.5 1938,-1097.5 1938,-1120.5"/>
<text text-anchor="middle" x="1876" y="-1103.2" font-family="MS Gothic" font-size="14.00">St.Victor&#39;s Barb</text>
</a>
</g>
</g>
<!-- St.Victor&#39;s Barb_5_1&#45;&gt;Bald Galloway_4_1 -->
<g id="edge38" class="edge">
<title>St.Victor&#39;s Barb_5_1&#45;&gt;Bald Galloway_4_1</title>
<path fill="none" stroke="lightblue" stroke-width="5" d="M1879.23,-1097C1889.36,-1062.54 1920.66,-956.01 1935.31,-906.19"/>
<polygon fill="lightblue" stroke="lightblue" stroke-width="5" points="1939.42,-907.7 1938.04,-896.87 1931.03,-905.23 1939.42,-907.7"/>
</g>
<!-- Grey Whynot_5_1 -->
<g id="node40" class="node">
<title>Grey Whynot_5_1</title>
<g id="a_node40"><a xlink:href="https://www.google.com/search?q=Grey%20Whynot%20%28netkeiba%20OR%20wikipedia%29" xlink:title="Grey Whynot">
<polygon fill="lightcoral" stroke="lightcoral" points="2035.12,-1120.5 1944.88,-1120.5 1944.88,-1097.5 2035.12,-1097.5 2035.12,-1120.5"/>
<text text-anchor="middle" x="1990" y="-1103.2" font-family="MS Gothic" font-size="14.00">Grey Whynot</text>
</a>
</g>
</g>
<!-- Grey Whynot_5_1&#45;&gt;Bald Galloway_4_1 -->
<g id="edge39" class="edge">
<title>Grey Whynot_5_1&#45;&gt;Bald Galloway_4_1</title>
<path fill="none" stroke="lightcoral" stroke-width="5" d="M1987.73,-1097C1980.65,-1062.62 1958.76,-956.47 1948.47,-906.51"/>
<polygon fill="lightcoral" stroke="lightcoral" stroke-width="5" points="1952.81,-905.91 1946.5,-897 1944.24,-907.67 1952.81,-905.91"/>
</g>
<!-- Sister to Chaunter_4_1 -->
<g id="node41" class="node">
<title>Sister to Chaunter_4_1</title>
<g id="a_node41"><a xlink:href="https://www.google.com/search?q=Sister%20to%20Chaunter%20%28netkeiba%20OR%20wikipedia%29" xlink:title="Sister to Chaunter">
<polygon fill="lightcoral" stroke="lightcoral" points="2159.75,-890.5 2022.25,-890.5 2022.25,-867.5 2159.75,-867.5 2159.75,-890.5"/>
<text text-anchor="middle" x="2091" y="-873.2" font-family="MS Gothic" font-size="14.00">Sister to Chaunter</text>
</a>
</g>
</g>
<!-- Sister to Chaunter_4_1&#45;&gt;Roxana_3_1 -->
<g id="edge40" class="edge">
<title>Sister to Chaunter_4_1&#45;&gt;Roxana_3_1</title>
<path fill="none" stroke="lightcoral" stroke-width="5" d="M2083.86,-867C2061.2,-832.09 1990.51,-723.2 1958.74,-674.25"/>
<polygon fill="lightcoral" stroke="lightcoral" stroke-width="5" points="1962.58,-672.12 1953.46,-666.12 1955.24,-676.89 1962.58,-672.12"/>
</g>
<!-- Akaster Turk_5_1 -->
<g id="node42" class="node">
<title>Akaster Turk_5_1</title>
<g id="a_node42"><a xlink:href="https://www.google.com/search?q=Akaster%20Turk%20%28netkeiba%20OR%20wikipedia%29" xlink:title="Akaster Turk">
<polygon fill="lightblue" stroke="lightblue" points="2139.5,-1120.5 2042.5,-1120.5 2042.5,-1097.5 2139.5,-1097.5 2139.5,-1120.5"/>
<text text-anchor="middle" x="2091" y="-1103.2" font-family="MS Gothic" font-size="14.00">Akaster Turk</text>
</a>
</g>
</g>
<!-- Akaster Turk_5_1&#45;&gt;Sister to Chaunter_4_1 -->
<g id="edge41" class="edge">
<title>Akaster Turk_5_1&#45;&gt;Sister to Chaunter_4_1</title>
<path fill="none" stroke="lightblue" stroke-width="5" d="M2091,-1097C2091,-1062.7 2091,-956.94 2091,-906.84"/>
<polygon fill="lightblue" stroke="lightblue" stroke-width="5" points="2095.38,-907.12 2091,-897.12 2086.63,-907.12 2095.38,-907.12"/>
</g>
<!-- Cream Cheeks_5_1 -->
<g id="node43" class="node">
<title>Cream Cheeks_5_1</title>
<g id="a_node43"><a xlink:href="https://www.google.com/search?q=Cream%20Cheeks%20%28netkeiba%20OR%20wikipedia%29" xlink:title="Cream Cheeks">
<polygon fill="lightcoral" stroke="lightcoral" points="2243.5,-1120.5 2146.5,-1120.5 2146.5,-1097.5 2243.5,-1097.5 2243.5,-1120.5"/>
<text text-anchor="middle" x="2195" y="-1103.2" font-family="MS Gothic" font-size="14.00">Cream Cheeks</text>
</a>
</g>
</g>
<!-- Cream Cheeks_5_1&#45;&gt;Sister to Chaunter_4_1 -->
<g id="edge42" class="edge">
<title>Cream Cheeks_5_1&#45;&gt;Sister to Chaunter_4_1</title>
<path fill="none" stroke="lightcoral" stroke-width="5" d="M2189.98,-1097C2174.2,-1062.39 2125.24,-955.07 2102.65,-905.53"/>
<polygon fill="lightcoral" stroke="lightcoral" stroke-width="5" points="2106.68,-903.84 2098.55,-896.56 2098.72,-907.48 2106.68,-903.84"/>
</g>
<!-- Lonsdale Bay Arabian Mare_2_1 -->
<g id="node44" class="node">
<title>Lonsdale Bay Arabian Mare_2_1</title>
<g id="a_node44"><a xlink:href="https://www.google.com/search?q=Lonsdale%20Bay%20Arabian%20Mare%20%28netkeiba%20OR%20wikipedia%29" xlink:title="Lonsdale Bay Arabian Mare">
<polygon fill="lightcoral" stroke="lightcoral" points="2374.38,-430.5 2189.62,-430.5 2189.62,-407.5 2374.38,-407.5 2374.38,-430.5"/>
<text text-anchor="middle" x="2282" y="-413.2" font-family="MS Gothic" font-size="14.00">Lonsdale Bay Arabian Mare</text>
</a>
</g>
</g>
<!-- Lonsdale Bay Arabian Mare_2_1&#45;&gt;Miss Ramsden_1_1 -->
<g id="edge43" class="edge">
<title>Lonsdale Bay Arabian Mare_2_1&#45;&gt;Miss Ramsden_1_1</title>
<path fill="none" stroke="lightcoral" stroke-width="5" d="M2259.5,-407.05C2191.83,-374.12 1989.66,-275.72 1905.94,-234.98"/>
<polygon fill="lightcoral" stroke="lightcoral" stroke-width="5" points="1908.03,-231.13 1897.13,-230.69 1904.2,-239 1908.03,-231.13"/>
</g>
<!-- Lonsdale Bay Arabian_3_1 -->
<g id="node45" class="node">
<title>Lonsdale Bay Arabian_3_1</title>
<g id="a_node45"><a xlink:href="https://www.google.com/search?q=Lonsdale%20Bay%20Arabian%20%28netkeiba%20OR%20wikipedia%29" xlink:title="Lonsdale Bay Arabian">
<polygon fill="lightblue" stroke="lightblue" points="2357.5,-660.5 2206.5,-660.5 2206.5,-637.5 2357.5,-637.5 2357.5,-660.5"/>
<text text-anchor="middle" x="2282" y="-643.2" font-family="MS Gothic" font-size="14.00">Lonsdale Bay Arabian</text>
</a>
</g>
</g>
<!-- Lonsdale Bay Arabian_3_1&#45;&gt;Lonsdale Bay Arabian Mare_2_1 -->
<g id="edge44" class="edge">
<title>Lonsdale Bay Arabian_3_1&#45;&gt;Lonsdale Bay Arabian Mare_2_1</title>
<path fill="none" stroke="lightblue" stroke-width="5" d="M2282,-637C2282,-602.7 2282,-496.94 2282,-446.84"/>
<polygon fill="lightblue" stroke="lightblue" stroke-width="5" points="2286.38,-447.12 2282,-437.12 2277.63,-447.12 2286.38,-447.12"/>
</g>
<!-- unknown_4_4 -->
<g id="node46" class="node">
<title>unknown_4_4</title>
<g id="a_node46"><a xlink:href="https://www.google.com/search?q=unknown%20%28netkeiba%20OR%20wikipedia%29" xlink:title="unknown">
<polygon fill="lightcoral" stroke="lightcoral" points="2313.62,-890.5 2250.38,-890.5 2250.38,-867.5 2313.62,-867.5 2313.62,-890.5"/>
<text text-anchor="middle" x="2282" y="-873.2" font-family="MS Gothic" font-size="14.00">unknown</text>
</a>
</g>
</g>
<!-- unknown_4_4&#45;&gt;Lonsdale Bay Arabian_3_1 -->
<g id="edge45" class="edge">
<title>unknown_4_4&#45;&gt;Lonsdale Bay Arabian_3_1</title>
<path fill="none" stroke="lightblue" stroke-width="5" d="M2282,-867C2282,-832.7 2282,-726.94 2282,-676.84"/>
<polygon fill="lightblue" stroke="lightblue" stroke-width="5" points="2286.38,-677.12 2282,-667.12 2277.63,-677.12 2286.38,-677.12"/>
</g>
<!-- unknown_5_5 -->
<g id="node47" class="node">
<title>unknown_5_5</title>
<g id="a_node47"><a xlink:href="https://www.google.com/search?q=unknown%20%28netkeiba%20OR%20wikipedia%29" xlink:title="unknown">
<polygon fill="lightcoral" stroke="lightcoral" points="2313.62,-1120.5 2250.38,-1120.5 2250.38,-1097.5 2313.62,-1097.5 2313.62,-1120.5"/>
<text text-anchor="middle" x="2282" y="-1103.2" font-family="MS Gothic" font-size="14.00">unknown</text>
</a>
</g>
</g>
<!-- unknown_5_5&#45;&gt;unknown_4_4 -->
<g id="edge46" class="edge">
<title>unknown_5_5&#45;&gt;unknown_4_4</title>
<path fill="none" stroke="lightblue" stroke-width="5" d="M2282,-1097C2282,-1062.7 2282,-956.94 2282,-906.84"/>
<polygon fill="lightblue" stroke="lightblue" stroke-width="5" points="2286.38,-907.12 2282,-897.12 2277.63,-907.12 2286.38,-907.12"/>
</g>
<!-- Bay Bolton Mare_3_1 -->
<g id="node48" class="node">
<title>Bay Bolton Mare_3_1</title>
<g id="a_node48"><a xlink:href="https://www.google.com/search?q=Bay%20Bolton%20Mare%20%28netkeiba%20OR%20wikipedia%29" xlink:title="Bay Bolton Mare">
<polygon fill="lightcoral" stroke="lightcoral" points="2524.62,-660.5 2407.38,-660.5 2407.38,-637.5 2524.62,-637.5 2524.62,-660.5"/>
<text text-anchor="middle" x="2466" y="-643.2" font-family="MS Gothic" font-size="14.00">Bay Bolton Mare</text>
</a>
</g>
</g>
<!-- Bay Bolton Mare_3_1&#45;&gt;Lonsdale Bay Arabian Mare_2_1 -->
<g id="edge47" class="edge">
<title>Bay Bolton Mare_3_1&#45;&gt;Lonsdale Bay Arabian Mare_2_1</title>
<path fill="none" stroke="lightcoral" stroke-width="5" d="M2457.13,-637C2428.77,-601.87 2339.93,-491.78 2300.81,-443.31"/>
<polygon fill="lightcoral" stroke="lightcoral" stroke-width="5" points="2304.39,-440.77 2294.7,-435.74 2297.58,-446.27 2304.39,-440.77"/>
</g>
<!-- Bay Bolton_4_1 -->
<g id="node49" class="node">
<title>Bay Bolton_4_1</title>
<g id="a_node49"><a xlink:href="https://www.google.com/search?q=Bay%20Bolton%20%28netkeiba%20OR%20wikipedia%29" xlink:title="Bay Bolton">
<polygon fill="lightblue" stroke="lightblue" points="2507.75,-890.5 2424.25,-890.5 2424.25,-867.5 2507.75,-867.5 2507.75,-890.5"/>
<text text-anchor="middle" x="2466" y="-873.2" font-family="MS Gothic" font-size="14.00">Bay Bolton</text>
</a>
</g>
</g>
<!-- Bay Bolton_4_1&#45;&gt;Bay Bolton Mare_3_1 -->
<g id="edge48" class="edge">
<title>Bay Bolton_4_1&#45;&gt;Bay Bolton Mare_3_1</title>
<path fill="none" stroke="lightblue" stroke-width="5" d="M2466,-867C2466,-832.7 2466,-726.94 2466,-676.84"/>
<polygon fill="lightblue" stroke="lightblue" stroke-width="5" points="2470.38,-677.12 2466,-667.12 2461.63,-677.12 2470.38,-677.12"/>
</g>
<!-- Grey Hautboy_5_1 -->
<g id="node50" class="node">
<title>Grey Hautboy_5_1</title>
<g id="a_node50"><a xlink:href="https://www.google.com/search?q=Grey%20Hautboy%20%28netkeiba%20OR%20wikipedia%29" xlink:title="Grey Hautboy">
<polygon fill="lightblue" stroke="lightblue" points="2417.5,-1120.5 2320.5,-1120.5 2320.5,-1097.5 2417.5,-1097.5 2417.5,-1120.5"/>
<text text-anchor="middle" x="2369" y="-1103.2" font-family="MS Gothic" font-size="14.00">Grey Hautboy</text>
</a>
</g>
</g>
<!-- Grey Hautboy_5_1&#45;&gt;Bay Bolton_4_1 -->
<g id="edge49" class="edge">
<title>Grey Hautboy_5_1&#45;&gt;Bay Bolton_4_1</title>
<path fill="none" stroke="lightblue" stroke-width="5" d="M2373.68,-1097C2388.4,-1062.39 2434.06,-955.07 2455.14,-905.53"/>
<polygon fill="lightblue" stroke="lightblue" stroke-width="5" points="2459.04,-907.54 2458.93,-896.63 2450.99,-904.12 2459.04,-907.54"/>
</g>
<!-- Pierson&#39;s Makeless Mare_5_1 -->
<g id="node51" class="node">
<title>Pierson&#39;s Makeless Mare_5_1</title>
<g id="a_node51"><a xlink:href="https://www.google.com/search?q=Pierson%27s%20Makeless%20Mare%20%28netkeiba%20OR%20wikipedia%29" xlink:title="Pierson&#39;s Makeless Mare">
<polygon fill="lightcoral" stroke="lightcoral" points="2595.62,-1120.5 2424.38,-1120.5 2424.38,-1097.5 2595.62,-1097.5 2595.62,-1120.5"/>
<text text-anchor="middle" x="2510" y="-1103.2" font-family="MS Gothic" font-size="14.00">Pierson&#39;s Makeless Mare</text>
</a>
</g>
</g>
<!-- Pierson&#39;s Makeless Mare_5_1&#45;&gt;Bay Bolton_4_1 -->
<g id="edge50" class="edge">
<title>Pierson&#39;s Makeless Mare_5_1&#45;&gt;Bay Bolton_4_1</title>
<path fill="none" stroke="lightcoral" stroke-width="5" d="M2507.88,-1097C2501.24,-1062.62 2480.76,-956.47 2471.12,-906.51"/>
<polygon fill="lightcoral" stroke="lightcoral" stroke-width="5" points="2475.47,-906 2469.28,-897.01 2466.88,-907.66 2475.47,-906"/>
</g>
<!-- Darley Arabian Mare_4_2 -->
<g id="node52" class="node">
<title>Darley Arabian Mare_4_2</title>
<g id="a_node52"><a xlink:href="https://www.google.com/search?q=Darley%20Arabian%20Mare%20%28netkeiba%20OR%20wikipedia%29" xlink:title="Darley Arabian Mare">
<polygon fill="lightcoral" stroke="lightcoral" points="2747.12,-890.5 2602.88,-890.5 2602.88,-867.5 2747.12,-867.5 2747.12,-890.5"/>
<text text-anchor="middle" x="2675" y="-873.2" font-family="MS Gothic" font-size="14.00">Darley Arabian Mare</text>
</a>
</g>
</g>
<!-- Darley Arabian Mare_4_2&#45;&gt;Bay Bolton Mare_3_1 -->
<g id="edge51" class="edge">
<title>Darley Arabian Mare_4_2&#45;&gt;Bay Bolton Mare_3_1</title>
<path fill="none" stroke="lightcoral" stroke-width="5" d="M2664.92,-867C2632.57,-831.72 2530.93,-720.84 2486.8,-672.69"/>
<polygon fill="lightcoral" stroke="lightcoral" stroke-width="5" points="2490.18,-669.9 2480.19,-665.48 2483.73,-675.81 2490.18,-669.9"/>
</g>
<!-- ダーレーアラビアン_5_2 -->
<g id="node53" class="node">
<title>ダーレーアラビアン_5_2</title>
<g id="a_node53"><a xlink:href="https://www.google.com/search?q=%E3%83%80%E3%83%BC%E3%83%AC%E3%83%BC%E3%82%A2%E3%83%A9%E3%83%93%E3%82%A2%E3%83%B3%20%28netkeiba%20OR%20wikipedia%29" xlink:title="ダーレーアラビアン">
<polygon fill="lightblue" stroke="lightblue" points="2747.12,-1147.5 2602.88,-1147.5 2602.88,-1070.5 2747.12,-1070.5 2747.12,-1147.5"/>
<image xlink:href="img/darearabian.png" width="100px" height="77px" preserveAspectRatio="xMinYMin meet" x="2625" y="-1147.5"/>
<text text-anchor="middle" x="2675" y="-1103.2" font-family="MS Gothic" font-size="14.00">ダーレーアラビアン</text>
</a>
</g>
</g>
<!-- ダーレーアラビアン_5_2&#45;&gt;Darley Arabian Mare_4_2 -->
<g id="edge52" class="edge">
<title>ダーレーアラビアン_5_2&#45;&gt;Darley Arabian Mare_4_2</title>
<path fill="none" stroke="lightblue" stroke-width="5" d="M2675,-1070.09C2675,-1023.96 2675,-947.24 2675,-906.81"/>
<polygon fill="lightblue" stroke="lightblue" stroke-width="5" points="2679.38,-906.84 2675,-896.84 2670.63,-906.84 2679.38,-906.84"/>
</g>
<!-- Byerley Turk Mare_5_1 -->
<g id="node54" class="node">
<title>Byerley Turk Mare_5_1</title>
<g id="a_node54"><a xlink:href="https://www.google.com/search?q=Byerley%20Turk%20Mare%20%28netkeiba%20OR%20wikipedia%29" xlink:title="Byerley Turk Mare">
<polygon fill="lightcoral" stroke="lightcoral" points="2885.38,-1120.5 2754.62,-1120.5 2754.62,-1097.5 2885.38,-1097.5 2885.38,-1120.5"/>
<text text-anchor="middle" x="2820" y="-1103.2" font-family="MS Gothic" font-size="14.00">Byerley Turk Mare</text>
</a>
</g>
</g>
<!-- Byerley Turk Mare_5_1&#45;&gt;Darley Arabian Mare_4_2 -->
<g id="edge53" class="edge">
<title>Byerley Turk Mare_5_1&#45;&gt;Darley Arabian Mare_4_2</title>
<path fill="none" stroke="lightcoral" stroke-width="5" d="M2813.01,-1097C2790.85,-1062.17 2721.85,-953.67 2690.63,-904.57"/>
<polygon fill="lightcoral" stroke="lightcoral" stroke-width="5" points="2694.33,-902.24 2685.27,-896.15 2686.95,-906.94 2694.33,-902.24"/>
</g>
</g>
</svg>
