<?xml version="1.0" encoding="UTF-8" standalone="no"?>
<!DOCTYPE svg PUBLIC "-//W3C//DTD SVG 1.1//EN"
 "http://www.w3.org/Graphics/SVG/1.1/DTD/svg11.dtd">
<!-- Generated by graphviz version 12.1.2 (20240928.0832)
 -->
<!-- Pages: 1 -->
<svg width="475pt" height="311pt"
 viewBox="0.00 0.00 475.25 311.00" xmlns="http://www.w3.org/2000/svg" xmlns:xlink="http://www.w3.org/1999/xlink">
<g id="graph0" class="graph" transform="scale(1 1) rotate(0) translate(4 307)">
<polygon fill="white" stroke="none" points="-4,4 -4,-307 471.25,-307 471.25,4 -4,4"/>
<!-- アストンマーチャン -->
<g id="node1" class="node">
<title>アストンマーチャン</title>
<polygon fill="none" stroke="black" points="323.12,-77 151.88,-77 151.88,0 323.12,0 323.12,-77"/>
<image xlink:href="img/asutonmachiyan.png" width="100px" height="77px" preserveAspectRatio="xMinYMin meet" x="187.5" y="-77"/>
<text text-anchor="middle" x="237.5" y="-32.33" font-family="Times New Roman,serif" font-size="14.00">アストンマーチャン</text>
</g>
<!-- アドマイヤコジーン -->
<g id="node2" class="node">
<title>アドマイヤコジーン</title>
<polygon fill="lightblue" stroke="lightblue" points="232.62,-190 88.38,-190 88.38,-113 232.62,-113 232.62,-190"/>
<image xlink:href="img/mob.png" width="100px" height="77px" preserveAspectRatio="xMinYMin meet" x="110.5" y="-190"/>
<text text-anchor="middle" x="160.5" y="-145.7" font-family="MS Gothic" font-size="14.00">アドマイヤコジーン</text>
</g>
<!-- アドマイヤコジーン&#45;&gt;アストンマーチャン -->
<g id="edge1" class="edge">
<title>アドマイヤコジーン&#45;&gt;アストンマーチャン</title>
<path fill="none" stroke="black" d="M186.78,-112.61C192.61,-104.22 198.85,-95.22 204.89,-86.51"/>
<polygon fill="black" stroke="black" points="207.65,-88.67 210.47,-78.46 201.9,-84.68 207.65,-88.67"/>
</g>
<!-- ラスリングカプス -->
<g id="node3" class="node">
<title>ラスリングカプス</title>
<polygon fill="lightcoral" stroke="lightcoral" points="380.5,-190 250.5,-190 250.5,-113 380.5,-113 380.5,-190"/>
<image xlink:href="img/mob.png" width="100px" height="77px" preserveAspectRatio="xMinYMin meet" x="265.5" y="-190"/>
<text text-anchor="middle" x="315.5" y="-145.7" font-family="MS Gothic" font-size="14.00">ラスリングカプス</text>
</g>
<!-- ラスリングカプス&#45;&gt;アストンマーチャン -->
<g id="edge2" class="edge">
<title>ラスリングカプス&#45;&gt;アストンマーチャン</title>
<path fill="none" stroke="black" d="M288.87,-112.61C282.98,-104.22 276.66,-95.22 270.54,-86.51"/>
<polygon fill="black" stroke="black" points="273.49,-84.63 264.88,-78.46 267.76,-88.65 273.49,-84.63"/>
</g>
<!-- Cozzene -->
<g id="node4" class="node">
<title>Cozzene</title>
<polygon fill="lightblue" stroke="lightblue" points="77,-303 0,-303 0,-226 77,-226 77,-303"/>
<image xlink:href="img/mob.png" width="77px" height="77px" preserveAspectRatio="xMinYMin meet" x="0" y="-303"/>
<text text-anchor="middle" x="38.5" y="-258.7" font-family="MS Gothic" font-size="14.00">Cozzene</text>
</g>
<!-- Cozzene&#45;&gt;アドマイヤコジーン -->
<g id="edge3" class="edge">
<title>Cozzene&#45;&gt;アドマイヤコジーン</title>
<path fill="none" stroke="black" d="M77.44,-228.07C88,-218.47 99.57,-207.93 110.64,-197.86"/>
<polygon fill="black" stroke="black" points="112.82,-200.61 117.87,-191.29 108.11,-195.43 112.82,-200.61"/>
</g>
<!-- アドマイヤマカディ -->
<g id="node5" class="node">
<title>アドマイヤマカディ</title>
<polygon fill="lightcoral" stroke="lightcoral" points="239.62,-303 95.38,-303 95.38,-226 239.62,-226 239.62,-303"/>
<image xlink:href="img/mob.png" width="100px" height="77px" preserveAspectRatio="xMinYMin meet" x="117.5" y="-303"/>
<text text-anchor="middle" x="167.5" y="-258.7" font-family="MS Gothic" font-size="14.00">アドマイヤマカディ</text>
</g>
<!-- アドマイヤマカディ&#45;&gt;アドマイヤコジーン -->
<g id="edge4" class="edge">
<title>アドマイヤマカディ&#45;&gt;アドマイヤコジーン</title>
<path fill="none" stroke="black" d="M165.11,-225.61C164.62,-217.84 164.1,-209.56 163.59,-201.46"/>
<polygon fill="black" stroke="black" points="167.1,-201.49 162.97,-191.73 160.11,-201.93 167.1,-201.49"/>
</g>
<!-- Woodman -->
<g id="node6" class="node">
<title>Woodman</title>
<polygon fill="lightblue" stroke="lightblue" points="348,-303 271,-303 271,-226 348,-226 348,-303"/>
<image xlink:href="img/mob.png" width="77px" height="77px" preserveAspectRatio="xMinYMin meet" x="271" y="-303"/>
<text text-anchor="middle" x="309.5" y="-258.7" font-family="MS Gothic" font-size="14.00">Woodman</text>
</g>
<!-- Woodman&#45;&gt;ラスリングカプス -->
<g id="edge5" class="edge">
<title>Woodman&#45;&gt;ラスリングカプス</title>
<path fill="none" stroke="black" d="M311.55,-225.61C311.97,-217.84 312.42,-209.56 312.85,-201.46"/>
<polygon fill="black" stroke="black" points="316.33,-201.9 313.38,-191.73 309.34,-201.53 316.33,-201.9"/>
</g>
<!-- フィールディ -->
<g id="node7" class="node">
<title>フィールディ</title>
<polygon fill="lightcoral" stroke="lightcoral" points="467.25,-303 365.75,-303 365.75,-226 467.25,-226 467.25,-303"/>
<image xlink:href="img/mob.png" width="100px" height="77px" preserveAspectRatio="xMinYMin meet" x="366.5" y="-303"/>
<text text-anchor="middle" x="416.5" y="-258.7" font-family="MS Gothic" font-size="14.00">フィールディ</text>
</g>
<!-- フィールディ&#45;&gt;ラスリングカプス -->
<g id="edge6" class="edge">
<title>フィールディ&#45;&gt;ラスリングカプス</title>
<path fill="none" stroke="black" d="M382.02,-225.61C374.14,-216.95 365.68,-207.65 357.52,-198.68"/>
<polygon fill="black" stroke="black" points="360.16,-196.38 350.84,-191.34 354.98,-201.09 360.16,-196.38"/>
</g>
</g>
</svg>
