<?xml version="1.0" encoding="UTF-8" standalone="no"?>
<!DOCTYPE svg PUBLIC "-//W3C//DTD SVG 1.1//EN"
 "http://www.w3.org/Graphics/SVG/1.1/DTD/svg11.dtd">
<!-- Generated by graphviz version 12.1.2 (20240928.0832)
 -->
<!-- Pages: 1 -->
<svg width="421pt" height="311pt"
 viewBox="0.00 0.00 421.25 311.00" xmlns="http://www.w3.org/2000/svg" xmlns:xlink="http://www.w3.org/1999/xlink">
<g id="graph0" class="graph" transform="scale(1 1) rotate(0) translate(4 307)">
<polygon fill="white" stroke="none" points="-4,4 -4,-307 417.25,-307 417.25,4 -4,4"/>
<!-- アイネスフウジン -->
<g id="node1" class="node">
<title>アイネスフウジン</title>
<polygon fill="none" stroke="black" points="264.5,-77 110.5,-77 110.5,0 264.5,0 264.5,-77"/>
<image xlink:href="img/ainesuhuuzin.png" width="100px" height="77px" preserveAspectRatio="xMinYMin meet" x="137.5" y="-77"/>
<text text-anchor="middle" x="187.5" y="-32.33" font-family="Times New Roman,serif" font-size="14.00">アイネスフウジン</text>
</g>
<!-- シーホーク -->
<g id="node2" class="node">
<title>シーホーク</title>
<polygon fill="lightblue" stroke="lightblue" points="175.12,-190 87.88,-190 87.88,-113 175.12,-113 175.12,-190"/>
<image xlink:href="img/mob.png" width="87.25px" height="77px" preserveAspectRatio="xMinYMin meet" x="87.875" y="-190"/>
<text text-anchor="middle" x="131.5" y="-145.7" font-family="MS Gothic" font-size="14.00">シーホーク</text>
</g>
<!-- シーホーク&#45;&gt;アイネスフウジン -->
<g id="edge1" class="edge">
<title>シーホーク&#45;&gt;アイネスフウジン</title>
<path fill="none" stroke="black" d="M150.62,-112.61C154.72,-104.48 159.1,-95.8 163.36,-87.35"/>
<polygon fill="black" stroke="black" points="166.41,-89.07 167.79,-78.57 160.16,-85.92 166.41,-89.07"/>
</g>
<!-- テスコパール -->
<g id="node3" class="node">
<title>テスコパール</title>
<polygon fill="lightcoral" stroke="lightcoral" points="294.25,-190 192.75,-190 192.75,-113 294.25,-113 294.25,-190"/>
<image xlink:href="img/mob.png" width="100px" height="77px" preserveAspectRatio="xMinYMin meet" x="193.5" y="-190"/>
<text text-anchor="middle" x="243.5" y="-145.7" font-family="MS Gothic" font-size="14.00">テスコパール</text>
</g>
<!-- テスコパール&#45;&gt;アイネスフウジン -->
<g id="edge2" class="edge">
<title>テスコパール&#45;&gt;アイネスフウジン</title>
<path fill="none" stroke="black" d="M224.38,-112.61C220.28,-104.48 215.9,-95.8 211.64,-87.35"/>
<polygon fill="black" stroke="black" points="214.84,-85.92 207.21,-78.57 208.59,-89.07 214.84,-85.92"/>
</g>
<!-- Herbager -->
<g id="node4" class="node">
<title>Herbager</title>
<polygon fill="lightblue" stroke="lightblue" points="77,-303 0,-303 0,-226 77,-226 77,-303"/>
<image xlink:href="img/mob.png" width="77px" height="77px" preserveAspectRatio="xMinYMin meet" x="0" y="-303"/>
<text text-anchor="middle" x="38.5" y="-258.7" font-family="MS Gothic" font-size="14.00">Herbager</text>
</g>
<!-- Herbager&#45;&gt;シーホーク -->
<g id="edge3" class="edge">
<title>Herbager&#45;&gt;シーホーク</title>
<path fill="none" stroke="black" d="M70.25,-225.61C77.43,-217.04 85.13,-207.84 92.58,-198.96"/>
<polygon fill="black" stroke="black" points="95.19,-201.29 98.93,-191.38 89.82,-196.8 95.19,-201.29"/>
</g>
<!-- Sea Nymph -->
<g id="node5" class="node">
<title>Sea Nymph</title>
<polygon fill="lightcoral" stroke="lightcoral" points="172,-303 95,-303 95,-226 172,-226 172,-303"/>
<image xlink:href="img/mob.png" width="77px" height="77px" preserveAspectRatio="xMinYMin meet" x="95" y="-303"/>
<text text-anchor="middle" x="133.5" y="-258.7" font-family="MS Gothic" font-size="14.00">Sea Nymph</text>
</g>
<!-- Sea Nymph&#45;&gt;シーホーク -->
<g id="edge4" class="edge">
<title>Sea Nymph&#45;&gt;シーホーク</title>
<path fill="none" stroke="black" d="M132.82,-225.61C132.68,-217.84 132.53,-209.56 132.38,-201.46"/>
<polygon fill="black" stroke="black" points="135.89,-201.67 132.21,-191.73 128.89,-201.79 135.89,-201.67"/>
</g>
<!-- テスコボーイ -->
<g id="node6" class="node">
<title>テスコボーイ</title>
<polygon fill="lightblue" stroke="lightblue" points="293.25,-303 191.75,-303 191.75,-226 293.25,-226 293.25,-303"/>
<image xlink:href="img/mob.png" width="100px" height="77px" preserveAspectRatio="xMinYMin meet" x="192.5" y="-303"/>
<text text-anchor="middle" x="242.5" y="-258.7" font-family="MS Gothic" font-size="14.00">テスコボーイ</text>
</g>
<!-- テスコボーイ&#45;&gt;テスコパール -->
<g id="edge5" class="edge">
<title>テスコボーイ&#45;&gt;テスコパール</title>
<path fill="none" stroke="black" d="M242.84,-225.61C242.91,-217.84 242.99,-209.56 243.06,-201.46"/>
<polygon fill="black" stroke="black" points="246.56,-201.76 243.15,-191.73 239.56,-201.7 246.56,-201.76"/>
</g>
<!-- ムツミパール -->
<g id="node7" class="node">
<title>ムツミパール</title>
<polygon fill="lightcoral" stroke="lightcoral" points="413.25,-303 311.75,-303 311.75,-226 413.25,-226 413.25,-303"/>
<image xlink:href="img/mob.png" width="100px" height="77px" preserveAspectRatio="xMinYMin meet" x="312.5" y="-303"/>
<text text-anchor="middle" x="362.5" y="-258.7" font-family="MS Gothic" font-size="14.00">ムツミパール</text>
</g>
<!-- ムツミパール&#45;&gt;テスコパール -->
<g id="edge6" class="edge">
<title>ムツミパール&#45;&gt;テスコパール</title>
<path fill="none" stroke="black" d="M321.88,-225.61C312.31,-216.68 302.01,-207.07 292.12,-197.85"/>
<polygon fill="black" stroke="black" points="294.74,-195.51 285.04,-191.25 289.97,-200.63 294.74,-195.51"/>
</g>
</g>
</svg>
