<?xml version="1.0" encoding="UTF-8" standalone="no"?>
<!DOCTYPE svg PUBLIC "-//W3C//DTD SVG 1.1//EN"
 "http://www.w3.org/Graphics/SVG/1.1/DTD/svg11.dtd">
<!-- Generated by graphviz version 12.1.2 (20240928.0832)
 -->
<!-- Pages: 1 -->
<svg width="162pt" height="311pt"
 viewBox="0.00 0.00 162.00 311.00" xmlns="http://www.w3.org/2000/svg" xmlns:xlink="http://www.w3.org/1999/xlink">
<g id="graph0" class="graph" transform="scale(1 1) rotate(0) translate(4 307)">
<polygon fill="white" stroke="none" points="-4,4 -4,-307 158,-307 158,4 -4,4"/>
<!-- アグネスデジタル -->
<g id="node1" class="node">
<title>アグネスデジタル</title>
<polygon fill="none" stroke="black" points="154,-77 0,-77 0,0 154,0 154,-77"/>
<image xlink:href="img/agunesudezitaru.png" width="100px" height="77px" preserveAspectRatio="xMinYMin meet" x="27" y="-77"/>
<text text-anchor="middle" x="77" y="-32.33" font-family="Times New Roman,serif" font-size="14.00">アグネスデジタル</text>
</g>
<!-- Crafty Prospector -->
<g id="node2" class="node">
<title>Crafty Prospector</title>
<polygon fill="lightblue" stroke="lightblue" points="142.38,-190 11.62,-190 11.62,-113 142.38,-113 142.38,-190"/>
<image xlink:href="img/mob.png" width="100px" height="77px" preserveAspectRatio="xMinYMin meet" x="27" y="-190"/>
<text text-anchor="middle" x="77" y="-145.7" font-family="MS Gothic" font-size="14.00">Crafty Prospector</text>
</g>
<!-- Crafty Prospector&#45;&gt;アグネスデジタル -->
<g id="edge1" class="edge">
<title>Crafty Prospector&#45;&gt;アグネスデジタル</title>
<path fill="none" stroke="black" d="M77,-112.61C77,-104.84 77,-96.56 77,-88.46"/>
<polygon fill="black" stroke="black" points="80.5,-88.73 77,-78.73 73.5,-88.73 80.5,-88.73"/>
</g>
<!-- Chancey Squaw -->
<g id="node3" class="node">
<title>Chancey Squaw</title>
<polygon fill="lightblue" stroke="lightblue" points="128.88,-303 25.12,-303 25.12,-226 128.88,-226 128.88,-303"/>
<image xlink:href="img/mob.png" width="100px" height="77px" preserveAspectRatio="xMinYMin meet" x="27" y="-303"/>
<text text-anchor="middle" x="77" y="-258.7" font-family="MS Gothic" font-size="14.00">Chancey Squaw</text>
</g>
<!-- Chancey Squaw&#45;&gt;Crafty Prospector -->
<g id="edge2" class="edge">
<title>Chancey Squaw&#45;&gt;Crafty Prospector</title>
<path fill="none" stroke="black" d="M77,-225.61C77,-217.84 77,-209.56 77,-201.46"/>
<polygon fill="black" stroke="black" points="80.5,-201.73 77,-191.73 73.5,-201.73 80.5,-201.73"/>
</g>
</g>
</svg>
