<?xml version="1.0" encoding="UTF-8" standalone="no"?>
<!DOCTYPE svg PUBLIC "-//W3C//DTD SVG 1.1//EN"
 "http://www.w3.org/Graphics/SVG/1.1/DTD/svg11.dtd">
<!-- Generated by graphviz version 12.1.2 (20240928.0832)
 -->
<!-- Pages: 1 -->
<svg width="478pt" height="311pt"
 viewBox="0.00 0.00 477.75 311.00" xmlns="http://www.w3.org/2000/svg" xmlns:xlink="http://www.w3.org/1999/xlink">
<g id="graph0" class="graph" transform="scale(1 1) rotate(0) translate(4 307)">
<polygon fill="white" stroke="none" points="-4,4 -4,-307 473.75,-307 473.75,4 -4,4"/>
<!-- アグネスデジタル -->
<g id="node1" class="node">
<title>アグネスデジタル</title>
<polygon fill="none" stroke="black" points="333.25,-77 179.25,-77 179.25,0 333.25,0 333.25,-77"/>
<image xlink:href="img/agunesudezitaru.png" width="100px" height="77px" preserveAspectRatio="xMinYMin meet" x="206.25" y="-77"/>
<text text-anchor="middle" x="256.25" y="-32.33" font-family="Times New Roman,serif" font-size="14.00">アグネスデジタル</text>
</g>
<!-- Crafty Prospector -->
<g id="node2" class="node">
<title>Crafty Prospector</title>
<polygon fill="lightblue" stroke="lightblue" points="254.62,-190 123.88,-190 123.88,-113 254.62,-113 254.62,-190"/>
<image xlink:href="img/mob.png" width="100px" height="77px" preserveAspectRatio="xMinYMin meet" x="139.25" y="-190"/>
<text text-anchor="middle" x="189.25" y="-145.7" font-family="MS Gothic" font-size="14.00">Crafty Prospector</text>
</g>
<!-- Crafty Prospector&#45;&gt;アグネスデジタル -->
<g id="edge1" class="edge">
<title>Crafty Prospector&#45;&gt;アグネスデジタル</title>
<path fill="none" stroke="black" d="M212.12,-112.61C217.08,-104.39 222.38,-95.6 227.54,-87.07"/>
<polygon fill="black" stroke="black" points="230.53,-88.88 232.7,-78.51 224.54,-85.27 230.53,-88.88"/>
</g>
<!-- Chancey Squaw -->
<g id="node3" class="node">
<title>Chancey Squaw</title>
<polygon fill="lightcoral" stroke="lightcoral" points="376.12,-190 272.38,-190 272.38,-113 376.12,-113 376.12,-190"/>
<image xlink:href="img/mob.png" width="100px" height="77px" preserveAspectRatio="xMinYMin meet" x="274.25" y="-190"/>
<text text-anchor="middle" x="324.25" y="-145.7" font-family="MS Gothic" font-size="14.00">Chancey Squaw</text>
</g>
<!-- Chancey Squaw&#45;&gt;アグネスデジタル -->
<g id="edge2" class="edge">
<title>Chancey Squaw&#45;&gt;アグネスデジタル</title>
<path fill="none" stroke="black" d="M301.04,-112.61C295.95,-104.31 290.5,-95.41 285.22,-86.79"/>
<polygon fill="black" stroke="black" points="288.36,-85.21 280.15,-78.51 282.39,-88.86 288.36,-85.21"/>
</g>
<!-- Mr. Prospector -->
<g id="node4" class="node">
<title>Mr. Prospector</title>
<polygon fill="lightblue" stroke="lightblue" points="110.5,-303 0,-303 0,-226 110.5,-226 110.5,-303"/>
<image xlink:href="img/mob.png" width="100px" height="77px" preserveAspectRatio="xMinYMin meet" x="5.25" y="-303"/>
<text text-anchor="middle" x="55.25" y="-258.7" font-family="MS Gothic" font-size="14.00">Mr. Prospector</text>
</g>
<!-- Mr. Prospector&#45;&gt;Crafty Prospector -->
<g id="edge3" class="edge">
<title>Mr. Prospector&#45;&gt;Crafty Prospector</title>
<path fill="none" stroke="black" d="M100.99,-225.61C111.99,-216.5 123.83,-206.69 135.17,-197.3"/>
<polygon fill="black" stroke="black" points="137.08,-200.26 142.55,-191.18 132.62,-194.87 137.08,-200.26"/>
</g>
<!-- Real Crafty Lady -->
<g id="node5" class="node">
<title>Real Crafty Lady</title>
<polygon fill="lightcoral" stroke="lightcoral" points="252.25,-303 128.25,-303 128.25,-226 252.25,-226 252.25,-303"/>
<image xlink:href="img/mob.png" width="100px" height="77px" preserveAspectRatio="xMinYMin meet" x="140.25" y="-303"/>
<text text-anchor="middle" x="190.25" y="-258.7" font-family="MS Gothic" font-size="14.00">Real Crafty Lady</text>
</g>
<!-- Real Crafty Lady&#45;&gt;Crafty Prospector -->
<g id="edge4" class="edge">
<title>Real Crafty Lady&#45;&gt;Crafty Prospector</title>
<path fill="none" stroke="black" d="M189.91,-225.61C189.84,-217.84 189.76,-209.56 189.69,-201.46"/>
<polygon fill="black" stroke="black" points="193.19,-201.7 189.6,-191.73 186.19,-201.76 193.19,-201.7"/>
</g>
<!-- Chief&#39;s Crown -->
<g id="node6" class="node">
<title>Chief&#39;s Crown</title>
<polygon fill="lightblue" stroke="lightblue" points="375.12,-303 271.38,-303 271.38,-226 375.12,-226 375.12,-303"/>
<image xlink:href="img/mob.png" width="100px" height="77px" preserveAspectRatio="xMinYMin meet" x="273.25" y="-303"/>
<text text-anchor="middle" x="323.25" y="-258.7" font-family="MS Gothic" font-size="14.00">Chief&#39;s Crown</text>
</g>
<!-- Chief&#39;s Crown&#45;&gt;Chancey Squaw -->
<g id="edge5" class="edge">
<title>Chief&#39;s Crown&#45;&gt;Chancey Squaw</title>
<path fill="none" stroke="black" d="M323.59,-225.61C323.66,-217.84 323.74,-209.56 323.81,-201.46"/>
<polygon fill="black" stroke="black" points="327.31,-201.76 323.9,-191.73 320.31,-201.7 327.31,-201.76"/>
</g>
<!-- Allicance -->
<g id="node7" class="node">
<title>Allicance</title>
<polygon fill="lightcoral" stroke="lightcoral" points="469.75,-303 392.75,-303 392.75,-226 469.75,-226 469.75,-303"/>
<image xlink:href="img/mob.png" width="77px" height="77px" preserveAspectRatio="xMinYMin meet" x="392.75" y="-303"/>
<text text-anchor="middle" x="431.25" y="-258.7" font-family="MS Gothic" font-size="14.00">Allicance</text>
</g>
<!-- Allicance&#45;&gt;Chancey Squaw -->
<g id="edge6" class="edge">
<title>Allicance&#45;&gt;Chancey Squaw</title>
<path fill="none" stroke="black" d="M394.73,-225.61C386.29,-216.86 377.23,-207.46 368.5,-198.4"/>
<polygon fill="black" stroke="black" points="371.12,-196.08 361.66,-191.31 366.08,-200.94 371.12,-196.08"/>
</g>
</g>
</svg>
