<?xml version="1.0" encoding="UTF-8" standalone="no"?>
<!DOCTYPE svg PUBLIC "-//W3C//DTD SVG 1.1//EN"
 "http://www.w3.org/Graphics/SVG/1.1/DTD/svg11.dtd">
<!-- Generated by graphviz version 12.1.2 (20240928.0832)
 -->
<!-- Pages: 1 -->
<svg width="1922pt" height="2571pt"
 viewBox="0.00 0.00 1921.88 2571.00" xmlns="http://www.w3.org/2000/svg" xmlns:xlink="http://www.w3.org/1999/xlink">
<g id="graph0" class="graph" transform="scale(1 1) rotate(0) translate(4 2567)">
<polygon fill="white" stroke="none" points="-4,4 -4,-2567 1917.88,-2567 1917.88,4 -4,4"/>
<!-- アイネスフウジン -->
<g id="node1" class="node">
<title>アイネスフウジン</title>
<polygon fill="none" stroke="black" points="1765.12,-77 1611.12,-77 1611.12,0 1765.12,0 1765.12,-77"/>
<image xlink:href="img/ainesuhuuzin.png" width="100px" height="77px" preserveAspectRatio="xMinYMin meet" x="1638.12" y="-77"/>
<text text-anchor="middle" x="1688.12" y="-32.33" font-family="Times New Roman,serif" font-size="14.00">アイネスフウジン</text>
</g>
<!-- シーホーク -->
<g id="node2" class="node">
<title>シーホーク</title>
<polygon fill="lightblue" stroke="lightblue" points="1675.75,-190 1588.5,-190 1588.5,-113 1675.75,-113 1675.75,-190"/>
<image xlink:href="img/mob.png" width="87.25px" height="77px" preserveAspectRatio="xMinYMin meet" x="1588.5" y="-190"/>
<text text-anchor="middle" x="1632.12" y="-145.7" font-family="MS Gothic" font-size="14.00">シーホーク</text>
</g>
<!-- シーホーク&#45;&gt;アイネスフウジン -->
<g id="edge1" class="edge">
<title>シーホーク&#45;&gt;アイネスフウジン</title>
<path fill="none" stroke="black" d="M1651.24,-112.61C1655.34,-104.48 1659.72,-95.8 1663.99,-87.35"/>
<polygon fill="black" stroke="black" points="1667.03,-89.07 1668.41,-78.57 1660.78,-85.92 1667.03,-89.07"/>
</g>
<!-- テスコパール -->
<g id="node3" class="node">
<title>テスコパール</title>
<polygon fill="lightcoral" stroke="lightcoral" points="1794.88,-190 1693.38,-190 1693.38,-113 1794.88,-113 1794.88,-190"/>
<image xlink:href="img/mob.png" width="100px" height="77px" preserveAspectRatio="xMinYMin meet" x="1694.12" y="-190"/>
<text text-anchor="middle" x="1744.12" y="-145.7" font-family="MS Gothic" font-size="14.00">テスコパール</text>
</g>
<!-- テスコパール&#45;&gt;アイネスフウジン -->
<g id="edge2" class="edge">
<title>テスコパール&#45;&gt;アイネスフウジン</title>
<path fill="none" stroke="black" d="M1725.01,-112.61C1720.91,-104.48 1716.53,-95.8 1712.26,-87.35"/>
<polygon fill="black" stroke="black" points="1715.47,-85.92 1707.84,-78.57 1709.22,-89.07 1715.47,-85.92"/>
</g>
<!-- Herbager -->
<g id="node4" class="node">
<title>Herbager</title>
<polygon fill="lightblue" stroke="lightblue" points="1577.62,-303 1500.62,-303 1500.62,-226 1577.62,-226 1577.62,-303"/>
<image xlink:href="img/mob.png" width="77px" height="77px" preserveAspectRatio="xMinYMin meet" x="1500.62" y="-303"/>
<text text-anchor="middle" x="1539.12" y="-258.7" font-family="MS Gothic" font-size="14.00">Herbager</text>
</g>
<!-- Herbager&#45;&gt;シーホーク -->
<g id="edge3" class="edge">
<title>Herbager&#45;&gt;シーホーク</title>
<path fill="none" stroke="black" d="M1570.87,-225.61C1578.05,-217.04 1585.76,-207.84 1593.2,-198.96"/>
<polygon fill="black" stroke="black" points="1595.81,-201.29 1599.55,-191.38 1590.45,-196.8 1595.81,-201.29"/>
</g>
<!-- Sea Nymph -->
<g id="node5" class="node">
<title>Sea Nymph</title>
<polygon fill="lightcoral" stroke="lightcoral" points="1672.62,-303 1595.62,-303 1595.62,-226 1672.62,-226 1672.62,-303"/>
<image xlink:href="img/mob.png" width="77px" height="77px" preserveAspectRatio="xMinYMin meet" x="1595.62" y="-303"/>
<text text-anchor="middle" x="1634.12" y="-258.7" font-family="MS Gothic" font-size="14.00">Sea Nymph</text>
</g>
<!-- Sea Nymph&#45;&gt;シーホーク -->
<g id="edge4" class="edge">
<title>Sea Nymph&#45;&gt;シーホーク</title>
<path fill="none" stroke="black" d="M1633.44,-225.61C1633.3,-217.84 1633.15,-209.56 1633.01,-201.46"/>
<polygon fill="black" stroke="black" points="1636.51,-201.67 1632.83,-191.73 1629.51,-201.79 1636.51,-201.67"/>
</g>
<!-- テスコボーイ -->
<g id="node6" class="node">
<title>テスコボーイ</title>
<polygon fill="lightblue" stroke="lightblue" points="1793.88,-303 1692.38,-303 1692.38,-226 1793.88,-226 1793.88,-303"/>
<image xlink:href="img/mob.png" width="100px" height="77px" preserveAspectRatio="xMinYMin meet" x="1693.12" y="-303"/>
<text text-anchor="middle" x="1743.12" y="-258.7" font-family="MS Gothic" font-size="14.00">テスコボーイ</text>
</g>
<!-- テスコボーイ&#45;&gt;テスコパール -->
<g id="edge5" class="edge">
<title>テスコボーイ&#45;&gt;テスコパール</title>
<path fill="none" stroke="black" d="M1743.47,-225.61C1743.54,-217.84 1743.61,-209.56 1743.68,-201.46"/>
<polygon fill="black" stroke="black" points="1747.18,-201.76 1743.77,-191.73 1740.18,-201.7 1747.18,-201.76"/>
</g>
<!-- ムツミパール -->
<g id="node7" class="node">
<title>ムツミパール</title>
<polygon fill="lightcoral" stroke="lightcoral" points="1913.88,-303 1812.38,-303 1812.38,-226 1913.88,-226 1913.88,-303"/>
<image xlink:href="img/mob.png" width="100px" height="77px" preserveAspectRatio="xMinYMin meet" x="1813.12" y="-303"/>
<text text-anchor="middle" x="1863.12" y="-258.7" font-family="MS Gothic" font-size="14.00">ムツミパール</text>
</g>
<!-- ムツミパール&#45;&gt;テスコパール -->
<g id="edge6" class="edge">
<title>ムツミパール&#45;&gt;テスコパール</title>
<path fill="none" stroke="black" d="M1822.5,-225.61C1812.93,-216.68 1802.63,-207.07 1792.74,-197.85"/>
<polygon fill="black" stroke="black" points="1795.37,-195.51 1785.67,-191.25 1790.59,-200.63 1795.37,-195.51"/>
</g>
<!-- Vandale -->
<g id="node8" class="node">
<title>Vandale</title>
<polygon fill="lightblue" stroke="lightblue" points="1530.62,-416 1453.62,-416 1453.62,-339 1530.62,-339 1530.62,-416"/>
<image xlink:href="img/mob.png" width="77px" height="77px" preserveAspectRatio="xMinYMin meet" x="1453.62" y="-416"/>
<text text-anchor="middle" x="1492.12" y="-371.7" font-family="MS Gothic" font-size="14.00">Vandale</text>
</g>
<!-- Vandale&#45;&gt;Herbager -->
<g id="edge7" class="edge">
<title>Vandale&#45;&gt;Herbager</title>
<path fill="none" stroke="black" d="M1508.17,-338.61C1511.57,-330.57 1515.21,-321.99 1518.75,-313.63"/>
<polygon fill="black" stroke="black" points="1521.89,-315.19 1522.56,-304.61 1515.44,-312.46 1521.89,-315.19"/>
</g>
<!-- Flagette -->
<g id="node9" class="node">
<title>Flagette</title>
<polygon fill="lightcoral" stroke="lightcoral" points="1625.62,-416 1548.62,-416 1548.62,-339 1625.62,-339 1625.62,-416"/>
<image xlink:href="img/mob.png" width="77px" height="77px" preserveAspectRatio="xMinYMin meet" x="1548.62" y="-416"/>
<text text-anchor="middle" x="1587.12" y="-371.7" font-family="MS Gothic" font-size="14.00">Flagette</text>
</g>
<!-- Flagette&#45;&gt;Herbager -->
<g id="edge8" class="edge">
<title>Flagette&#45;&gt;Herbager</title>
<path fill="none" stroke="black" d="M1570.74,-338.61C1567.26,-330.57 1563.55,-321.99 1559.94,-313.63"/>
<polygon fill="black" stroke="black" points="1563.22,-312.4 1556.04,-304.61 1556.79,-315.18 1563.22,-312.4"/>
</g>
<!-- Plassy -->
<g id="node10" class="node">
<title>Plassy</title>
<polygon fill="lightblue" stroke="lightblue" points="1435.62,-529 1358.62,-529 1358.62,-452 1435.62,-452 1435.62,-529"/>
<image xlink:href="img/mob.png" width="77px" height="77px" preserveAspectRatio="xMinYMin meet" x="1358.62" y="-529"/>
<text text-anchor="middle" x="1397.12" y="-484.7" font-family="MS Gothic" font-size="14.00">Plassy</text>
</g>
<!-- Plassy&#45;&gt;Vandale -->
<g id="edge9" class="edge">
<title>Plassy&#45;&gt;Vandale</title>
<path fill="none" stroke="black" d="M1429.55,-451.61C1436.89,-443.04 1444.76,-433.84 1452.36,-424.96"/>
<polygon fill="black" stroke="black" points="1455.02,-427.24 1458.86,-417.37 1449.7,-422.69 1455.02,-427.24"/>
</g>
<!-- Vanille -->
<g id="node11" class="node">
<title>Vanille</title>
<polygon fill="lightcoral" stroke="lightcoral" points="1530.62,-529 1453.62,-529 1453.62,-452 1530.62,-452 1530.62,-529"/>
<image xlink:href="img/mob.png" width="77px" height="77px" preserveAspectRatio="xMinYMin meet" x="1453.62" y="-529"/>
<text text-anchor="middle" x="1492.12" y="-484.7" font-family="MS Gothic" font-size="14.00">Vanille</text>
</g>
<!-- Vanille&#45;&gt;Vandale -->
<g id="edge10" class="edge">
<title>Vanille&#45;&gt;Vandale</title>
<path fill="none" stroke="black" d="M1492.12,-451.61C1492.12,-443.84 1492.12,-435.56 1492.12,-427.46"/>
<polygon fill="black" stroke="black" points="1495.63,-427.73 1492.13,-417.73 1488.63,-427.73 1495.63,-427.73"/>
</g>
<!-- Escamillo -->
<g id="node12" class="node">
<title>Escamillo</title>
<polygon fill="lightblue" stroke="lightblue" points="1625.62,-529 1548.62,-529 1548.62,-452 1625.62,-452 1625.62,-529"/>
<image xlink:href="img/mob.png" width="77px" height="77px" preserveAspectRatio="xMinYMin meet" x="1548.62" y="-529"/>
<text text-anchor="middle" x="1587.12" y="-484.7" font-family="MS Gothic" font-size="14.00">Escamillo</text>
</g>
<!-- Escamillo&#45;&gt;Flagette -->
<g id="edge11" class="edge">
<title>Escamillo&#45;&gt;Flagette</title>
<path fill="none" stroke="black" d="M1587.12,-451.61C1587.12,-443.84 1587.12,-435.56 1587.12,-427.46"/>
<polygon fill="black" stroke="black" points="1590.63,-427.73 1587.13,-417.73 1583.63,-427.73 1590.63,-427.73"/>
</g>
<!-- Fidgette -->
<g id="node13" class="node">
<title>Fidgette</title>
<polygon fill="lightcoral" stroke="lightcoral" points="1720.62,-529 1643.62,-529 1643.62,-452 1720.62,-452 1720.62,-529"/>
<image xlink:href="img/mob.png" width="77px" height="77px" preserveAspectRatio="xMinYMin meet" x="1643.62" y="-529"/>
<text text-anchor="middle" x="1682.12" y="-484.7" font-family="MS Gothic" font-size="14.00">Fidgette</text>
</g>
<!-- Fidgette&#45;&gt;Flagette -->
<g id="edge12" class="edge">
<title>Fidgette&#45;&gt;Flagette</title>
<path fill="none" stroke="black" d="M1649.7,-451.61C1642.36,-443.04 1634.49,-433.84 1626.89,-424.96"/>
<polygon fill="black" stroke="black" points="1629.55,-422.69 1620.39,-417.37 1624.23,-427.24 1629.55,-422.69"/>
</g>
<!-- Bosworth -->
<g id="node14" class="node">
<title>Bosworth</title>
<polygon fill="lightblue" stroke="lightblue" points="1384.62,-642 1307.62,-642 1307.62,-565 1384.62,-565 1384.62,-642"/>
<image xlink:href="img/mob.png" width="77px" height="77px" preserveAspectRatio="xMinYMin meet" x="1307.62" y="-642"/>
<text text-anchor="middle" x="1346.12" y="-597.7" font-family="MS Gothic" font-size="14.00">Bosworth</text>
</g>
<!-- Bosworth&#45;&gt;Plassy -->
<g id="edge13" class="edge">
<title>Bosworth&#45;&gt;Plassy</title>
<path fill="none" stroke="black" d="M1363.53,-564.61C1367.23,-556.57 1371.17,-547.99 1375.01,-539.63"/>
<polygon fill="black" stroke="black" points="1378.17,-541.14 1379.16,-530.59 1371.81,-538.22 1378.17,-541.14"/>
</g>
<!-- Pladda -->
<g id="node15" class="node">
<title>Pladda</title>
<polygon fill="lightcoral" stroke="lightcoral" points="1486.62,-642 1409.62,-642 1409.62,-565 1486.62,-565 1486.62,-642"/>
<image xlink:href="img/mob.png" width="77px" height="77px" preserveAspectRatio="xMinYMin meet" x="1409.62" y="-642"/>
<text text-anchor="middle" x="1448.12" y="-597.7" font-family="MS Gothic" font-size="14.00">Pladda</text>
</g>
<!-- Pladda&#45;&gt;Plassy -->
<g id="edge14" class="edge">
<title>Pladda&#45;&gt;Plassy</title>
<path fill="none" stroke="black" d="M1430.72,-564.61C1427.02,-556.57 1423.08,-547.99 1419.24,-539.63"/>
<polygon fill="black" stroke="black" points="1422.44,-538.22 1415.09,-530.59 1416.08,-541.14 1422.44,-538.22"/>
</g>
<!-- Son&#45;in&#45;Law -->
<g id="node16" class="node">
<title>Son&#45;in&#45;Law</title>
<polygon fill="lightblue" stroke="lightblue" points="1282.88,-755 1199.38,-755 1199.38,-678 1282.88,-678 1282.88,-755"/>
<image xlink:href="img/mob.png" width="83.5px" height="77px" preserveAspectRatio="xMinYMin meet" x="1199.38" y="-755"/>
<text text-anchor="middle" x="1241.12" y="-710.7" font-family="MS Gothic" font-size="14.00">Son&#45;in&#45;Law</text>
</g>
<!-- Son&#45;in&#45;Law&#45;&gt;Bosworth -->
<g id="edge15" class="edge">
<title>Son&#45;in&#45;Law&#45;&gt;Bosworth</title>
<path fill="none" stroke="black" d="M1276.97,-677.61C1285.24,-668.86 1294.14,-659.46 1302.7,-650.4"/>
<polygon fill="black" stroke="black" points="1305.08,-652.99 1309.41,-643.32 1299.99,-648.18 1305.08,-652.99"/>
</g>
<!-- Serenissima -->
<g id="node17" class="node">
<title>Serenissima</title>
<polygon fill="lightcoral" stroke="lightcoral" points="1391.25,-755 1301,-755 1301,-678 1391.25,-678 1391.25,-755"/>
<image xlink:href="img/mob.png" width="90.25px" height="77px" preserveAspectRatio="xMinYMin meet" x="1301" y="-755"/>
<text text-anchor="middle" x="1346.12" y="-710.7" font-family="MS Gothic" font-size="14.00">Serenissima</text>
</g>
<!-- Serenissima&#45;&gt;Bosworth -->
<g id="edge16" class="edge">
<title>Serenissima&#45;&gt;Bosworth</title>
<path fill="none" stroke="black" d="M1346.12,-677.61C1346.12,-669.84 1346.12,-661.56 1346.12,-653.46"/>
<polygon fill="black" stroke="black" points="1349.63,-653.73 1346.13,-643.73 1342.63,-653.73 1349.63,-653.73"/>
</g>
<!-- Phalaris -->
<g id="node18" class="node">
<title>Phalaris</title>
<polygon fill="lightblue" stroke="lightblue" points="1486.62,-755 1409.62,-755 1409.62,-678 1486.62,-678 1486.62,-755"/>
<image xlink:href="img/mob.png" width="77px" height="77px" preserveAspectRatio="xMinYMin meet" x="1409.62" y="-755"/>
<text text-anchor="middle" x="1448.12" y="-710.7" font-family="MS Gothic" font-size="14.00">Phalaris</text>
</g>
<!-- Phalaris&#45;&gt;Pladda -->
<g id="edge17" class="edge">
<title>Phalaris&#45;&gt;Pladda</title>
<path fill="none" stroke="black" d="M1448.12,-677.61C1448.12,-669.84 1448.12,-661.56 1448.12,-653.46"/>
<polygon fill="black" stroke="black" points="1451.63,-653.73 1448.13,-643.73 1444.63,-653.73 1451.63,-653.73"/>
</g>
<!-- Rothesay Bay -->
<g id="node19" class="node">
<title>Rothesay Bay</title>
<polygon fill="lightcoral" stroke="lightcoral" points="1601.62,-755 1504.62,-755 1504.62,-678 1601.62,-678 1601.62,-755"/>
<image xlink:href="img/mob.png" width="97px" height="77px" preserveAspectRatio="xMinYMin meet" x="1504.62" y="-755"/>
<text text-anchor="middle" x="1553.12" y="-710.7" font-family="MS Gothic" font-size="14.00">Rothesay Bay</text>
</g>
<!-- Rothesay Bay&#45;&gt;Pladda -->
<g id="edge18" class="edge">
<title>Rothesay Bay&#45;&gt;Pladda</title>
<path fill="none" stroke="black" d="M1517.28,-677.61C1509.01,-668.86 1500.11,-659.46 1491.55,-650.4"/>
<polygon fill="black" stroke="black" points="1494.26,-648.18 1484.84,-643.32 1489.17,-652.99 1494.26,-648.18"/>
</g>
<!-- Dark Ronald -->
<g id="node20" class="node">
<title>Dark Ronald</title>
<polygon fill="lightblue" stroke="lightblue" points="1229.25,-868 1139,-868 1139,-791 1229.25,-791 1229.25,-868"/>
<image xlink:href="img/mob.png" width="90.25px" height="77px" preserveAspectRatio="xMinYMin meet" x="1139" y="-868"/>
<text text-anchor="middle" x="1184.12" y="-823.7" font-family="MS Gothic" font-size="14.00">Dark Ronald</text>
</g>
<!-- Dark Ronald&#45;&gt;Son&#45;in&#45;Law -->
<g id="edge19" class="edge">
<title>Dark Ronald&#45;&gt;Son&#45;in&#45;Law</title>
<path fill="none" stroke="black" d="M1203.58,-790.61C1207.75,-782.48 1212.22,-773.8 1216.55,-765.35"/>
<polygon fill="black" stroke="black" points="1219.61,-767.06 1221.06,-756.57 1213.38,-763.86 1219.61,-767.06"/>
</g>
<!-- Mother in Law -->
<g id="node21" class="node">
<title>Mother in Law</title>
<polygon fill="lightcoral" stroke="lightcoral" points="1351,-868 1247.25,-868 1247.25,-791 1351,-791 1351,-868"/>
<image xlink:href="img/mob.png" width="100px" height="77px" preserveAspectRatio="xMinYMin meet" x="1249.12" y="-868"/>
<text text-anchor="middle" x="1299.12" y="-823.7" font-family="MS Gothic" font-size="14.00">Mother in Law</text>
</g>
<!-- Mother in Law&#45;&gt;Son&#45;in&#45;Law -->
<g id="edge20" class="edge">
<title>Mother in Law&#45;&gt;Son&#45;in&#45;Law</title>
<path fill="none" stroke="black" d="M1279.33,-790.61C1275.08,-782.48 1270.54,-773.8 1266.13,-765.35"/>
<polygon fill="black" stroke="black" points="1269.27,-763.8 1261.53,-756.56 1263.06,-767.04 1269.27,-763.8"/>
</g>
<!-- Bay Ronald -->
<g id="node22" class="node">
<title>Bay Ronald</title>
<polygon fill="lightblue" stroke="lightblue" points="1132.88,-981 1049.38,-981 1049.38,-904 1132.88,-904 1132.88,-981"/>
<image xlink:href="img/mob.png" width="83.5px" height="77px" preserveAspectRatio="xMinYMin meet" x="1049.38" y="-981"/>
<text text-anchor="middle" x="1091.12" y="-936.7" font-family="MS Gothic" font-size="14.00">Bay Ronald</text>
</g>
<!-- Bay Ronald&#45;&gt;Dark Ronald -->
<g id="edge21" class="edge">
<title>Bay Ronald&#45;&gt;Dark Ronald</title>
<path fill="none" stroke="black" d="M1122.87,-903.61C1130.05,-895.04 1137.76,-885.84 1145.2,-876.96"/>
<polygon fill="black" stroke="black" points="1147.81,-879.29 1151.55,-869.38 1142.45,-874.8 1147.81,-879.29"/>
</g>
<!-- Darkie -->
<g id="node23" class="node">
<title>Darkie</title>
<polygon fill="lightcoral" stroke="lightcoral" points="1227.62,-981 1150.62,-981 1150.62,-904 1227.62,-904 1227.62,-981"/>
<image xlink:href="img/mob.png" width="77px" height="77px" preserveAspectRatio="xMinYMin meet" x="1150.62" y="-981"/>
<text text-anchor="middle" x="1189.12" y="-936.7" font-family="MS Gothic" font-size="14.00">Darkie</text>
</g>
<!-- Darkie&#45;&gt;Dark Ronald -->
<g id="edge22" class="edge">
<title>Darkie&#45;&gt;Dark Ronald</title>
<path fill="none" stroke="black" d="M1187.42,-903.61C1187.07,-895.84 1186.7,-887.56 1186.33,-879.46"/>
<polygon fill="black" stroke="black" points="1189.84,-879.56 1185.89,-869.73 1182.85,-879.88 1189.84,-879.56"/>
</g>
<!-- Matchmaker -->
<g id="node24" class="node">
<title>Matchmaker</title>
<polygon fill="lightblue" stroke="lightblue" points="1336.88,-981 1253.38,-981 1253.38,-904 1336.88,-904 1336.88,-981"/>
<image xlink:href="img/mob.png" width="83.5px" height="77px" preserveAspectRatio="xMinYMin meet" x="1253.38" y="-981"/>
<text text-anchor="middle" x="1295.12" y="-936.7" font-family="MS Gothic" font-size="14.00">Matchmaker</text>
</g>
<!-- Matchmaker&#45;&gt;Mother in Law -->
<g id="edge23" class="edge">
<title>Matchmaker&#45;&gt;Mother in Law</title>
<path fill="none" stroke="black" d="M1296.49,-903.61C1296.77,-895.84 1297.07,-887.56 1297.36,-879.46"/>
<polygon fill="black" stroke="black" points="1300.85,-879.85 1297.71,-869.73 1293.85,-879.6 1300.85,-879.85"/>
</g>
<!-- Be Cannie -->
<g id="node25" class="node">
<title>Be Cannie</title>
<polygon fill="lightcoral" stroke="lightcoral" points="1431.62,-981 1354.62,-981 1354.62,-904 1431.62,-904 1431.62,-981"/>
<image xlink:href="img/mob.png" width="77px" height="77px" preserveAspectRatio="xMinYMin meet" x="1354.62" y="-981"/>
<text text-anchor="middle" x="1393.12" y="-936.7" font-family="MS Gothic" font-size="14.00">Be Cannie</text>
</g>
<!-- Be Cannie&#45;&gt;Mother in Law -->
<g id="edge24" class="edge">
<title>Be Cannie&#45;&gt;Mother in Law</title>
<path fill="none" stroke="black" d="M1361.04,-903.61C1353.78,-895.04 1345.99,-885.84 1338.47,-876.96"/>
<polygon fill="black" stroke="black" points="1341.18,-874.74 1332.05,-869.37 1335.84,-879.27 1341.18,-874.74"/>
</g>
<!-- Hampton -->
<g id="node26" class="node">
<title>Hampton</title>
<polygon fill="lightblue" stroke="lightblue" points="1075.62,-1094 998.62,-1094 998.62,-1017 1075.62,-1017 1075.62,-1094"/>
<image xlink:href="img/mob.png" width="77px" height="77px" preserveAspectRatio="xMinYMin meet" x="998.625" y="-1094"/>
<text text-anchor="middle" x="1037.12" y="-1049.7" font-family="MS Gothic" font-size="14.00">Hampton</text>
</g>
<!-- Hampton&#45;&gt;Bay Ronald -->
<g id="edge25" class="edge">
<title>Hampton&#45;&gt;Bay Ronald</title>
<path fill="none" stroke="black" d="M1055.56,-1016.61C1059.51,-1008.48 1063.74,-999.8 1067.85,-991.35"/>
<polygon fill="black" stroke="black" points="1070.89,-993.1 1072.11,-982.58 1064.59,-990.04 1070.89,-993.1"/>
</g>
<!-- Black Duchess -->
<g id="node27" class="node">
<title>Black Duchess</title>
<polygon fill="lightcoral" stroke="lightcoral" points="1197,-1094 1093.25,-1094 1093.25,-1017 1197,-1017 1197,-1094"/>
<image xlink:href="img/mob.png" width="100px" height="77px" preserveAspectRatio="xMinYMin meet" x="1095.12" y="-1094"/>
<text text-anchor="middle" x="1145.12" y="-1049.7" font-family="MS Gothic" font-size="14.00">Black Duchess</text>
</g>
<!-- Black Duchess&#45;&gt;Bay Ronald -->
<g id="edge26" class="edge">
<title>Black Duchess&#45;&gt;Bay Ronald</title>
<path fill="none" stroke="black" d="M1126.69,-1016.61C1122.74,-1008.48 1118.51,-999.8 1114.4,-991.35"/>
<polygon fill="black" stroke="black" points="1117.66,-990.04 1110.14,-982.58 1111.36,-993.1 1117.66,-990.04"/>
</g>
<!-- Lord Clifden -->
<g id="node28" class="node">
<title>Lord Clifden</title>
<polygon fill="lightblue" stroke="lightblue" points="971.62,-1207 874.62,-1207 874.62,-1130 971.62,-1130 971.62,-1207"/>
<image xlink:href="img/mob.png" width="97px" height="77px" preserveAspectRatio="xMinYMin meet" x="874.625" y="-1207"/>
<text text-anchor="middle" x="923.12" y="-1162.7" font-family="MS Gothic" font-size="14.00">Lord Clifden</text>
</g>
<!-- Lord Clifden&#45;&gt;Hampton -->
<g id="edge27" class="edge">
<title>Lord Clifden&#45;&gt;Hampton</title>
<path fill="none" stroke="black" d="M962.04,-1129.61C971.12,-1120.77 980.88,-1111.26 990.26,-1102.13"/>
<polygon fill="black" stroke="black" points="992.58,-1104.76 997.3,-1095.27 987.7,-1099.74 992.58,-1104.76"/>
</g>
<!-- Lady Langden -->
<g id="node29" class="node">
<title>Lady Langden</title>
<polygon fill="lightcoral" stroke="lightcoral" points="1086.62,-1207 989.62,-1207 989.62,-1130 1086.62,-1130 1086.62,-1207"/>
<image xlink:href="img/mob.png" width="97px" height="77px" preserveAspectRatio="xMinYMin meet" x="989.625" y="-1207"/>
<text text-anchor="middle" x="1038.12" y="-1162.7" font-family="MS Gothic" font-size="14.00">Lady Langden</text>
</g>
<!-- Lady Langden&#45;&gt;Hampton -->
<g id="edge28" class="edge">
<title>Lady Langden&#45;&gt;Hampton</title>
<path fill="none" stroke="black" d="M1037.78,-1129.61C1037.71,-1121.84 1037.64,-1113.56 1037.57,-1105.46"/>
<polygon fill="black" stroke="black" points="1041.07,-1105.7 1037.48,-1095.73 1034.07,-1105.76 1041.07,-1105.7"/>
</g>
<!-- Galliard -->
<g id="node30" class="node">
<title>Galliard</title>
<polygon fill="lightblue" stroke="lightblue" points="1182.62,-1207 1105.62,-1207 1105.62,-1130 1182.62,-1130 1182.62,-1207"/>
<image xlink:href="img/mob.png" width="77px" height="77px" preserveAspectRatio="xMinYMin meet" x="1105.62" y="-1207"/>
<text text-anchor="middle" x="1144.12" y="-1162.7" font-family="MS Gothic" font-size="14.00">Galliard</text>
</g>
<!-- Galliard&#45;&gt;Black Duchess -->
<g id="edge29" class="edge">
<title>Galliard&#45;&gt;Black Duchess</title>
<path fill="none" stroke="black" d="M1144.47,-1129.61C1144.54,-1121.84 1144.61,-1113.56 1144.68,-1105.46"/>
<polygon fill="black" stroke="black" points="1148.18,-1105.76 1144.77,-1095.73 1141.18,-1105.7 1148.18,-1105.76"/>
</g>
<!-- Black Corrie -->
<g id="node31" class="node">
<title>Black Corrie</title>
<polygon fill="lightcoral" stroke="lightcoral" points="1297.62,-1207 1200.62,-1207 1200.62,-1130 1297.62,-1130 1297.62,-1207"/>
<image xlink:href="img/mob.png" width="97px" height="77px" preserveAspectRatio="xMinYMin meet" x="1200.62" y="-1207"/>
<text text-anchor="middle" x="1249.12" y="-1162.7" font-family="MS Gothic" font-size="14.00">Black Corrie</text>
</g>
<!-- Black Corrie&#45;&gt;Black Duchess -->
<g id="edge30" class="edge">
<title>Black Corrie&#45;&gt;Black Duchess</title>
<path fill="none" stroke="black" d="M1213.62,-1129.61C1205.43,-1120.86 1196.62,-1111.46 1188.13,-1102.4"/>
<polygon fill="black" stroke="black" points="1190.89,-1100.23 1181.5,-1095.32 1185.78,-1105.01 1190.89,-1100.23"/>
</g>
<!-- Newminster -->
<g id="node32" class="node">
<title>Newminster</title>
<polygon fill="lightblue" stroke="lightblue" points="915.88,-1320 832.38,-1320 832.38,-1243 915.88,-1243 915.88,-1320"/>
<image xlink:href="img/mob.png" width="83.5px" height="77px" preserveAspectRatio="xMinYMin meet" x="832.375" y="-1320"/>
<text text-anchor="middle" x="874.12" y="-1275.7" font-family="MS Gothic" font-size="14.00">Newminster</text>
</g>
<!-- Newminster&#45;&gt;Lord Clifden -->
<g id="edge31" class="edge">
<title>Newminster&#45;&gt;Lord Clifden</title>
<path fill="none" stroke="black" d="M890.85,-1242.61C894.4,-1234.57 898.19,-1225.99 901.88,-1217.63"/>
<polygon fill="black" stroke="black" points="905.03,-1219.17 905.86,-1208.6 898.62,-1216.34 905.03,-1219.17"/>
</g>
<!-- The Slave -->
<g id="node33" class="node">
<title>The Slave</title>
<polygon fill="lightcoral" stroke="lightcoral" points="1010.62,-1320 933.62,-1320 933.62,-1243 1010.62,-1243 1010.62,-1320"/>
<image xlink:href="img/mob.png" width="77px" height="77px" preserveAspectRatio="xMinYMin meet" x="933.625" y="-1320"/>
<text text-anchor="middle" x="972.12" y="-1275.7" font-family="MS Gothic" font-size="14.00">The Slave</text>
</g>
<!-- The Slave&#45;&gt;Lord Clifden -->
<g id="edge32" class="edge">
<title>The Slave&#45;&gt;Lord Clifden</title>
<path fill="none" stroke="black" d="M955.4,-1242.61C951.85,-1234.57 948.06,-1225.99 944.37,-1217.63"/>
<polygon fill="black" stroke="black" points="947.63,-1216.34 940.39,-1208.6 941.22,-1219.17 947.63,-1216.34"/>
</g>
<!-- Touchstone -->
<g id="node34" class="node">
<title>Touchstone</title>
<polygon fill="lightblue" stroke="lightblue" points="818.88,-1433 735.38,-1433 735.38,-1356 818.88,-1356 818.88,-1433"/>
<image xlink:href="img/mob.png" width="83.5px" height="77px" preserveAspectRatio="xMinYMin meet" x="735.375" y="-1433"/>
<text text-anchor="middle" x="777.12" y="-1388.7" font-family="MS Gothic" font-size="14.00">Touchstone</text>
</g>
<!-- Touchstone&#45;&gt;Newminster -->
<g id="edge33" class="edge">
<title>Touchstone&#45;&gt;Newminster</title>
<path fill="none" stroke="black" d="M810.24,-1355.61C817.81,-1346.95 825.93,-1337.65 833.77,-1328.68"/>
<polygon fill="black" stroke="black" points="836.22,-1331.19 840.17,-1321.36 830.95,-1326.59 836.22,-1331.19"/>
</g>
<!-- Beeswing -->
<g id="node35" class="node">
<title>Beeswing</title>
<polygon fill="lightcoral" stroke="lightcoral" points="913.62,-1433 836.62,-1433 836.62,-1356 913.62,-1356 913.62,-1433"/>
<image xlink:href="img/mob.png" width="77px" height="77px" preserveAspectRatio="xMinYMin meet" x="836.625" y="-1433"/>
<text text-anchor="middle" x="875.12" y="-1388.7" font-family="MS Gothic" font-size="14.00">Beeswing</text>
</g>
<!-- Beeswing&#45;&gt;Newminster -->
<g id="edge34" class="edge">
<title>Beeswing&#45;&gt;Newminster</title>
<path fill="none" stroke="black" d="M874.78,-1355.61C874.71,-1347.84 874.64,-1339.56 874.57,-1331.46"/>
<polygon fill="black" stroke="black" points="878.07,-1331.7 874.48,-1321.73 871.07,-1331.76 878.07,-1331.7"/>
</g>
<!-- Melbourne -->
<g id="node36" class="node">
<title>Melbourne</title>
<polygon fill="lightblue" stroke="lightblue" points="1009.62,-1433 932.62,-1433 932.62,-1356 1009.62,-1356 1009.62,-1433"/>
<image xlink:href="img/mob.png" width="77px" height="77px" preserveAspectRatio="xMinYMin meet" x="932.625" y="-1433"/>
<text text-anchor="middle" x="971.12" y="-1388.7" font-family="MS Gothic" font-size="14.00">Melbourne</text>
</g>
<!-- Melbourne&#45;&gt;The Slave -->
<g id="edge35" class="edge">
<title>Melbourne&#45;&gt;The Slave</title>
<path fill="none" stroke="black" d="M971.47,-1355.61C971.54,-1347.84 971.61,-1339.56 971.68,-1331.46"/>
<polygon fill="black" stroke="black" points="975.18,-1331.76 971.77,-1321.73 968.18,-1331.7 975.18,-1331.76"/>
</g>
<!-- Volley -->
<g id="node37" class="node">
<title>Volley</title>
<polygon fill="lightcoral" stroke="lightcoral" points="1104.62,-1433 1027.62,-1433 1027.62,-1356 1104.62,-1356 1104.62,-1433"/>
<image xlink:href="img/mob.png" width="77px" height="77px" preserveAspectRatio="xMinYMin meet" x="1027.62" y="-1433"/>
<text text-anchor="middle" x="1066.12" y="-1388.7" font-family="MS Gothic" font-size="14.00">Volley</text>
</g>
<!-- Volley&#45;&gt;The Slave -->
<g id="edge36" class="edge">
<title>Volley&#45;&gt;The Slave</title>
<path fill="none" stroke="black" d="M1034.04,-1355.61C1026.78,-1347.04 1018.99,-1337.84 1011.47,-1328.96"/>
<polygon fill="black" stroke="black" points="1014.18,-1326.74 1005.05,-1321.37 1008.84,-1331.27 1014.18,-1326.74"/>
</g>
<!-- Camel -->
<g id="node38" class="node">
<title>Camel</title>
<polygon fill="lightblue" stroke="lightblue" points="761.62,-1546 684.62,-1546 684.62,-1469 761.62,-1469 761.62,-1546"/>
<image xlink:href="img/mob.png" width="77px" height="77px" preserveAspectRatio="xMinYMin meet" x="684.625" y="-1546"/>
<text text-anchor="middle" x="723.12" y="-1501.7" font-family="MS Gothic" font-size="14.00">Camel</text>
</g>
<!-- Camel&#45;&gt;Touchstone -->
<g id="edge37" class="edge">
<title>Camel&#45;&gt;Touchstone</title>
<path fill="none" stroke="black" d="M741.56,-1468.61C745.51,-1460.48 749.74,-1451.8 753.85,-1443.35"/>
<polygon fill="black" stroke="black" points="756.89,-1445.1 758.11,-1434.58 750.59,-1442.04 756.89,-1445.1"/>
</g>
<!-- Banter -->
<g id="node39" class="node">
<title>Banter</title>
<polygon fill="lightcoral" stroke="lightcoral" points="869.62,-1546 792.62,-1546 792.62,-1469 869.62,-1469 869.62,-1546"/>
<image xlink:href="img/mob.png" width="77px" height="77px" preserveAspectRatio="xMinYMin meet" x="792.625" y="-1546"/>
<text text-anchor="middle" x="831.12" y="-1501.7" font-family="MS Gothic" font-size="14.00">Banter</text>
</g>
<!-- Banter&#45;&gt;Touchstone -->
<g id="edge38" class="edge">
<title>Banter&#45;&gt;Touchstone</title>
<path fill="none" stroke="black" d="M812.69,-1468.61C808.74,-1460.48 804.51,-1451.8 800.4,-1443.35"/>
<polygon fill="black" stroke="black" points="803.66,-1442.04 796.14,-1434.58 797.36,-1445.1 803.66,-1442.04"/>
</g>
<!-- Whalebone -->
<g id="node40" class="node">
<title>Whalebone</title>
<polygon fill="lightblue" stroke="lightblue" points="663.62,-1659 586.62,-1659 586.62,-1582 663.62,-1582 663.62,-1659"/>
<image xlink:href="img/mob.png" width="77px" height="77px" preserveAspectRatio="xMinYMin meet" x="586.625" y="-1659"/>
<text text-anchor="middle" x="625.12" y="-1614.7" font-family="MS Gothic" font-size="14.00">Whalebone</text>
</g>
<!-- Whalebone&#45;&gt;Camel -->
<g id="edge39" class="edge">
<title>Whalebone&#45;&gt;Camel</title>
<path fill="none" stroke="black" d="M658.58,-1581.61C666.22,-1572.95 674.44,-1563.65 682.35,-1554.68"/>
<polygon fill="black" stroke="black" points="684.83,-1557.17 688.82,-1547.35 679.58,-1552.53 684.83,-1557.17"/>
</g>
<!-- Selim Mare -->
<g id="node41" class="node">
<title>Selim Mare</title>
<polygon fill="lightcoral" stroke="lightcoral" points="764.88,-1659 681.38,-1659 681.38,-1582 764.88,-1582 764.88,-1659"/>
<image xlink:href="img/mob.png" width="83.5px" height="77px" preserveAspectRatio="xMinYMin meet" x="681.375" y="-1659"/>
<text text-anchor="middle" x="723.12" y="-1614.7" font-family="MS Gothic" font-size="14.00">Selim Mare</text>
</g>
<!-- Selim Mare&#45;&gt;Camel -->
<g id="edge40" class="edge">
<title>Selim Mare&#45;&gt;Camel</title>
<path fill="none" stroke="black" d="M723.12,-1581.61C723.12,-1573.84 723.12,-1565.56 723.12,-1557.46"/>
<polygon fill="black" stroke="black" points="726.63,-1557.73 723.13,-1547.73 719.63,-1557.73 726.63,-1557.73"/>
</g>
<!-- Master Henry -->
<g id="node42" class="node">
<title>Master Henry</title>
<polygon fill="lightblue" stroke="lightblue" points="879.62,-1659 782.62,-1659 782.62,-1582 879.62,-1582 879.62,-1659"/>
<image xlink:href="img/mob.png" width="97px" height="77px" preserveAspectRatio="xMinYMin meet" x="782.625" y="-1659"/>
<text text-anchor="middle" x="831.12" y="-1614.7" font-family="MS Gothic" font-size="14.00">Master Henry</text>
</g>
<!-- Master Henry&#45;&gt;Banter -->
<g id="edge41" class="edge">
<title>Master Henry&#45;&gt;Banter</title>
<path fill="none" stroke="black" d="M831.12,-1581.61C831.12,-1573.84 831.12,-1565.56 831.12,-1557.46"/>
<polygon fill="black" stroke="black" points="834.63,-1557.73 831.13,-1547.73 827.63,-1557.73 834.63,-1557.73"/>
</g>
<!-- Boadicea -->
<g id="node43" class="node">
<title>Boadicea</title>
<polygon fill="lightcoral" stroke="lightcoral" points="974.62,-1659 897.62,-1659 897.62,-1582 974.62,-1582 974.62,-1659"/>
<image xlink:href="img/mob.png" width="77px" height="77px" preserveAspectRatio="xMinYMin meet" x="897.625" y="-1659"/>
<text text-anchor="middle" x="936.12" y="-1614.7" font-family="MS Gothic" font-size="14.00">Boadicea</text>
</g>
<!-- Boadicea&#45;&gt;Banter -->
<g id="edge42" class="edge">
<title>Boadicea&#45;&gt;Banter</title>
<path fill="none" stroke="black" d="M900.28,-1581.61C892.01,-1572.86 883.11,-1563.46 874.55,-1554.4"/>
<polygon fill="black" stroke="black" points="877.26,-1552.18 867.84,-1547.32 872.17,-1556.99 877.26,-1552.18"/>
</g>
<!-- Waxy -->
<g id="node44" class="node">
<title>Waxy</title>
<polygon fill="lightblue" stroke="lightblue" points="616.62,-1772 539.62,-1772 539.62,-1695 616.62,-1695 616.62,-1772"/>
<image xlink:href="img/mob.png" width="77px" height="77px" preserveAspectRatio="xMinYMin meet" x="539.625" y="-1772"/>
<text text-anchor="middle" x="578.12" y="-1727.7" font-family="MS Gothic" font-size="14.00">Waxy</text>
</g>
<!-- Waxy&#45;&gt;Whalebone -->
<g id="edge43" class="edge">
<title>Waxy&#45;&gt;Whalebone</title>
<path fill="none" stroke="black" d="M594.17,-1694.61C597.57,-1686.57 601.21,-1677.99 604.75,-1669.63"/>
<polygon fill="black" stroke="black" points="607.89,-1671.19 608.56,-1660.61 601.44,-1668.46 607.89,-1671.19"/>
</g>
<!-- Penelope -->
<g id="node45" class="node">
<title>Penelope</title>
<polygon fill="lightcoral" stroke="lightcoral" points="711.62,-1772 634.62,-1772 634.62,-1695 711.62,-1695 711.62,-1772"/>
<image xlink:href="img/mob.png" width="77px" height="77px" preserveAspectRatio="xMinYMin meet" x="634.625" y="-1772"/>
<text text-anchor="middle" x="673.12" y="-1727.7" font-family="MS Gothic" font-size="14.00">Penelope</text>
</g>
<!-- Penelope&#45;&gt;Whalebone -->
<g id="edge44" class="edge">
<title>Penelope&#45;&gt;Whalebone</title>
<path fill="none" stroke="black" d="M656.74,-1694.61C653.26,-1686.57 649.55,-1677.99 645.94,-1669.63"/>
<polygon fill="black" stroke="black" points="649.22,-1668.4 642.04,-1660.61 642.79,-1671.18 649.22,-1668.4"/>
</g>
<!-- Pot&#45;8&#45;Os -->
<g id="node46" class="node">
<title>Pot&#45;8&#45;Os</title>
<polygon fill="lightblue" stroke="lightblue" points="521.62,-1885 444.62,-1885 444.62,-1808 521.62,-1808 521.62,-1885"/>
<image xlink:href="img/mob.png" width="77px" height="77px" preserveAspectRatio="xMinYMin meet" x="444.625" y="-1885"/>
<text text-anchor="middle" x="483.12" y="-1840.7" font-family="MS Gothic" font-size="14.00">Pot&#45;8&#45;Os</text>
</g>
<!-- Pot&#45;8&#45;Os&#45;&gt;Waxy -->
<g id="edge45" class="edge">
<title>Pot&#45;8&#45;Os&#45;&gt;Waxy</title>
<path fill="none" stroke="black" d="M515.55,-1807.61C522.89,-1799.04 530.76,-1789.84 538.36,-1780.96"/>
<polygon fill="black" stroke="black" points="541.02,-1783.24 544.86,-1773.37 535.7,-1778.69 541.02,-1783.24"/>
</g>
<!-- Maria III -->
<g id="node47" class="node">
<title>Maria III</title>
<polygon fill="lightcoral" stroke="lightcoral" points="616.62,-1885 539.62,-1885 539.62,-1808 616.62,-1808 616.62,-1885"/>
<image xlink:href="img/mob.png" width="77px" height="77px" preserveAspectRatio="xMinYMin meet" x="539.625" y="-1885"/>
<text text-anchor="middle" x="578.12" y="-1840.7" font-family="MS Gothic" font-size="14.00">Maria III</text>
</g>
<!-- Maria III&#45;&gt;Waxy -->
<g id="edge46" class="edge">
<title>Maria III&#45;&gt;Waxy</title>
<path fill="none" stroke="black" d="M578.12,-1807.61C578.12,-1799.84 578.12,-1791.56 578.12,-1783.46"/>
<polygon fill="black" stroke="black" points="581.63,-1783.73 578.13,-1773.73 574.63,-1783.73 581.63,-1783.73"/>
</g>
<!-- Trumpator -->
<g id="node48" class="node">
<title>Trumpator</title>
<polygon fill="lightblue" stroke="lightblue" points="711.62,-1885 634.62,-1885 634.62,-1808 711.62,-1808 711.62,-1885"/>
<image xlink:href="img/mob.png" width="77px" height="77px" preserveAspectRatio="xMinYMin meet" x="634.625" y="-1885"/>
<text text-anchor="middle" x="673.12" y="-1840.7" font-family="MS Gothic" font-size="14.00">Trumpator</text>
</g>
<!-- Trumpator&#45;&gt;Penelope -->
<g id="edge47" class="edge">
<title>Trumpator&#45;&gt;Penelope</title>
<path fill="none" stroke="black" d="M673.12,-1807.61C673.12,-1799.84 673.12,-1791.56 673.12,-1783.46"/>
<polygon fill="black" stroke="black" points="676.63,-1783.73 673.13,-1773.73 669.63,-1783.73 676.63,-1783.73"/>
</g>
<!-- Prunella -->
<g id="node49" class="node">
<title>Prunella</title>
<polygon fill="lightcoral" stroke="lightcoral" points="806.62,-1885 729.62,-1885 729.62,-1808 806.62,-1808 806.62,-1885"/>
<image xlink:href="img/mob.png" width="77px" height="77px" preserveAspectRatio="xMinYMin meet" x="729.625" y="-1885"/>
<text text-anchor="middle" x="768.12" y="-1840.7" font-family="MS Gothic" font-size="14.00">Prunella</text>
</g>
<!-- Prunella&#45;&gt;Penelope -->
<g id="edge48" class="edge">
<title>Prunella&#45;&gt;Penelope</title>
<path fill="none" stroke="black" d="M735.7,-1807.61C728.36,-1799.04 720.49,-1789.84 712.89,-1780.96"/>
<polygon fill="black" stroke="black" points="715.55,-1778.69 706.39,-1773.37 710.23,-1783.24 715.55,-1778.69"/>
</g>
<!-- Eclipse -->
<g id="node50" class="node">
<title>Eclipse</title>
<polygon fill="lightblue" stroke="lightblue" points="465.62,-1998 388.62,-1998 388.62,-1921 465.62,-1921 465.62,-1998"/>
<image xlink:href="img/mob.png" width="77px" height="77px" preserveAspectRatio="xMinYMin meet" x="388.625" y="-1998"/>
<text text-anchor="middle" x="427.12" y="-1953.7" font-family="MS Gothic" font-size="14.00">Eclipse</text>
</g>
<!-- Eclipse&#45;&gt;Pot&#45;8&#45;Os -->
<g id="edge49" class="edge">
<title>Eclipse&#45;&gt;Pot&#45;8&#45;Os</title>
<path fill="none" stroke="black" d="M446.24,-1920.61C450.34,-1912.48 454.72,-1903.8 458.99,-1895.35"/>
<polygon fill="black" stroke="black" points="462.03,-1897.07 463.41,-1886.57 455.78,-1893.92 462.03,-1897.07"/>
</g>
<!-- Sportsmistress -->
<g id="node51" class="node">
<title>Sportsmistress</title>
<polygon fill="lightcoral" stroke="lightcoral" points="594.38,-1998 483.88,-1998 483.88,-1921 594.38,-1921 594.38,-1998"/>
<image xlink:href="img/mob.png" width="100px" height="77px" preserveAspectRatio="xMinYMin meet" x="489.125" y="-1998"/>
<text text-anchor="middle" x="539.12" y="-1953.7" font-family="MS Gothic" font-size="14.00">Sportsmistress</text>
</g>
<!-- Sportsmistress&#45;&gt;Pot&#45;8&#45;Os -->
<g id="edge50" class="edge">
<title>Sportsmistress&#45;&gt;Pot&#45;8&#45;Os</title>
<path fill="none" stroke="black" d="M520.01,-1920.61C515.91,-1912.48 511.53,-1903.8 507.26,-1895.35"/>
<polygon fill="black" stroke="black" points="510.47,-1893.92 502.84,-1886.57 504.22,-1897.07 510.47,-1893.92"/>
</g>
<!-- Marske -->
<g id="node52" class="node">
<title>Marske</title>
<polygon fill="lightblue" stroke="lightblue" points="375.62,-2111 298.62,-2111 298.62,-2034 375.62,-2034 375.62,-2111"/>
<image xlink:href="img/mob.png" width="77px" height="77px" preserveAspectRatio="xMinYMin meet" x="298.625" y="-2111"/>
<text text-anchor="middle" x="337.12" y="-2066.7" font-family="MS Gothic" font-size="14.00">Marske</text>
</g>
<!-- Marske&#45;&gt;Eclipse -->
<g id="edge51" class="edge">
<title>Marske&#45;&gt;Eclipse</title>
<path fill="none" stroke="black" d="M367.85,-2033.61C374.8,-2025.04 382.26,-2015.84 389.46,-2006.96"/>
<polygon fill="black" stroke="black" points="392.01,-2009.37 395.59,-1999.39 386.57,-2004.96 392.01,-2009.37"/>
</g>
<!-- Spilletta -->
<g id="node53" class="node">
<title>Spilletta</title>
<polygon fill="lightcoral" stroke="lightcoral" points="470.62,-2111 393.62,-2111 393.62,-2034 470.62,-2034 470.62,-2111"/>
<image xlink:href="img/mob.png" width="77px" height="77px" preserveAspectRatio="xMinYMin meet" x="393.625" y="-2111"/>
<text text-anchor="middle" x="432.12" y="-2066.7" font-family="MS Gothic" font-size="14.00">Spilletta</text>
</g>
<!-- Spilletta&#45;&gt;Eclipse -->
<g id="edge52" class="edge">
<title>Spilletta&#45;&gt;Eclipse</title>
<path fill="none" stroke="black" d="M430.42,-2033.61C430.07,-2025.84 429.7,-2017.56 429.33,-2009.46"/>
<polygon fill="black" stroke="black" points="432.84,-2009.56 428.89,-1999.73 425.85,-2009.88 432.84,-2009.56"/>
</g>
<!-- Sportsman -->
<g id="node54" class="node">
<title>Sportsman</title>
<polygon fill="lightblue" stroke="lightblue" points="573.62,-2111 496.62,-2111 496.62,-2034 573.62,-2034 573.62,-2111"/>
<image xlink:href="img/mob.png" width="77px" height="77px" preserveAspectRatio="xMinYMin meet" x="496.625" y="-2111"/>
<text text-anchor="middle" x="535.12" y="-2066.7" font-family="MS Gothic" font-size="14.00">Sportsman</text>
</g>
<!-- Sportsman&#45;&gt;Sportsmistress -->
<g id="edge53" class="edge">
<title>Sportsman&#45;&gt;Sportsmistress</title>
<path fill="none" stroke="black" d="M536.49,-2033.61C536.77,-2025.84 537.07,-2017.56 537.36,-2009.46"/>
<polygon fill="black" stroke="black" points="540.85,-2009.85 537.71,-1999.73 533.85,-2009.6 540.85,-2009.85"/>
</g>
<!-- Golden Locks -->
<g id="node55" class="node">
<title>Golden Locks</title>
<polygon fill="lightcoral" stroke="lightcoral" points="688.62,-2111 591.62,-2111 591.62,-2034 688.62,-2034 688.62,-2111"/>
<image xlink:href="img/mob.png" width="97px" height="77px" preserveAspectRatio="xMinYMin meet" x="591.625" y="-2111"/>
<text text-anchor="middle" x="640.12" y="-2066.7" font-family="MS Gothic" font-size="14.00">Golden Locks</text>
</g>
<!-- Golden Locks&#45;&gt;Sportsmistress -->
<g id="edge54" class="edge">
<title>Golden Locks&#45;&gt;Sportsmistress</title>
<path fill="none" stroke="black" d="M605.65,-2033.61C597.77,-2024.95 589.3,-2015.65 581.15,-2006.68"/>
<polygon fill="black" stroke="black" points="583.78,-2004.38 574.46,-1999.34 578.61,-2009.09 583.78,-2004.38"/>
</g>
<!-- Squirt -->
<g id="node56" class="node">
<title>Squirt</title>
<polygon fill="lightblue" stroke="lightblue" points="304.62,-2224 227.62,-2224 227.62,-2147 304.62,-2147 304.62,-2224"/>
<image xlink:href="img/mob.png" width="77px" height="77px" preserveAspectRatio="xMinYMin meet" x="227.625" y="-2224"/>
<text text-anchor="middle" x="266.12" y="-2179.7" font-family="MS Gothic" font-size="14.00">Squirt</text>
</g>
<!-- Squirt&#45;&gt;Marske -->
<g id="edge55" class="edge">
<title>Squirt&#45;&gt;Marske</title>
<path fill="none" stroke="black" d="M290.36,-2146.61C295.67,-2138.31 301.36,-2129.41 306.88,-2120.79"/>
<polygon fill="black" stroke="black" points="309.74,-2122.8 312.18,-2112.49 303.85,-2119.03 309.74,-2122.8"/>
</g>
<!-- Hutton&#39;s Blacklegs Mare -->
<g id="node57" class="node">
<title>Hutton&#39;s Blacklegs Mare</title>
<polygon fill="lightcoral" stroke="lightcoral" points="493.75,-2224 322.5,-2224 322.5,-2147 493.75,-2147 493.75,-2224"/>
<image xlink:href="img/mob.png" width="100px" height="77px" preserveAspectRatio="xMinYMin meet" x="358.125" y="-2224"/>
<text text-anchor="middle" x="408.12" y="-2179.7" font-family="MS Gothic" font-size="14.00">Hutton&#39;s Blacklegs Mare</text>
</g>
<!-- Hutton&#39;s Blacklegs Mare&#45;&gt;Marske -->
<g id="edge56" class="edge">
<title>Hutton&#39;s Blacklegs Mare&#45;&gt;Marske</title>
<path fill="none" stroke="black" d="M383.89,-2146.61C378.58,-2138.31 372.89,-2129.41 367.37,-2120.79"/>
<polygon fill="black" stroke="black" points="370.4,-2119.03 362.07,-2112.49 364.51,-2122.8 370.4,-2119.03"/>
</g>
<!-- Bartlet&#39;s Childers -->
<g id="node58" class="node">
<title>Bartlet&#39;s Childers</title>
<polygon fill="lightblue" stroke="lightblue" points="209.88,-2337 72.38,-2337 72.38,-2260 209.88,-2260 209.88,-2337"/>
<image xlink:href="img/mob.png" width="100px" height="77px" preserveAspectRatio="xMinYMin meet" x="91.125" y="-2337"/>
<text text-anchor="middle" x="141.12" y="-2292.7" font-family="MS Gothic" font-size="14.00">Bartlet&#39;s Childers</text>
</g>
<!-- Bartlet&#39;s Childers&#45;&gt;Squirt -->
<g id="edge57" class="edge">
<title>Bartlet&#39;s Childers&#45;&gt;Squirt</title>
<path fill="none" stroke="black" d="M183.79,-2259.61C195.18,-2249.5 207.54,-2238.53 219.14,-2228.22"/>
<polygon fill="black" stroke="black" points="221.14,-2231.13 226.29,-2221.87 216.49,-2225.89 221.14,-2231.13"/>
</g>
<!-- Snake Mare -->
<g id="node59" class="node">
<title>Snake Mare</title>
<polygon fill="lightcoral" stroke="lightcoral" points="311.88,-2337 228.38,-2337 228.38,-2260 311.88,-2260 311.88,-2337"/>
<image xlink:href="img/mob.png" width="83.5px" height="77px" preserveAspectRatio="xMinYMin meet" x="228.375" y="-2337"/>
<text text-anchor="middle" x="270.12" y="-2292.7" font-family="MS Gothic" font-size="14.00">Snake Mare</text>
</g>
<!-- Snake Mare&#45;&gt;Squirt -->
<g id="edge58" class="edge">
<title>Snake Mare&#45;&gt;Squirt</title>
<path fill="none" stroke="black" d="M268.76,-2259.61C268.48,-2251.84 268.18,-2243.56 267.89,-2235.46"/>
<polygon fill="black" stroke="black" points="271.4,-2235.6 267.54,-2225.73 264.4,-2235.85 271.4,-2235.6"/>
</g>
<!-- Hutton&#39;s Blacklegs -->
<g id="node60" class="node">
<title>Hutton&#39;s Blacklegs</title>
<polygon fill="lightblue" stroke="lightblue" points="473.88,-2337 336.38,-2337 336.38,-2260 473.88,-2260 473.88,-2337"/>
<image xlink:href="img/mob.png" width="100px" height="77px" preserveAspectRatio="xMinYMin meet" x="355.125" y="-2337"/>
<text text-anchor="middle" x="405.12" y="-2292.7" font-family="MS Gothic" font-size="14.00">Hutton&#39;s Blacklegs</text>
</g>
<!-- Hutton&#39;s Blacklegs&#45;&gt;Hutton&#39;s Blacklegs Mare -->
<g id="edge59" class="edge">
<title>Hutton&#39;s Blacklegs&#45;&gt;Hutton&#39;s Blacklegs Mare</title>
<path fill="none" stroke="black" d="M406.15,-2259.61C406.36,-2251.84 406.58,-2243.56 406.8,-2235.46"/>
<polygon fill="black" stroke="black" points="410.29,-2235.82 407.06,-2225.73 403.3,-2235.63 410.29,-2235.82"/>
</g>
<!-- Bay Bolton Mare -->
<g id="node61" class="node">
<title>Bay Bolton Mare</title>
<polygon fill="lightcoral" stroke="lightcoral" points="608.75,-2337 491.5,-2337 491.5,-2260 608.75,-2260 608.75,-2337"/>
<image xlink:href="img/mob.png" width="100px" height="77px" preserveAspectRatio="xMinYMin meet" x="500.125" y="-2337"/>
<text text-anchor="middle" x="550.12" y="-2292.7" font-family="MS Gothic" font-size="14.00">Bay Bolton Mare</text>
</g>
<!-- Bay Bolton Mare&#45;&gt;Hutton&#39;s Blacklegs Mare -->
<g id="edge60" class="edge">
<title>Bay Bolton Mare&#45;&gt;Hutton&#39;s Blacklegs Mare</title>
<path fill="none" stroke="black" d="M501.65,-2259.61C490,-2250.5 477.45,-2240.69 465.43,-2231.3"/>
<polygon fill="black" stroke="black" points="467.6,-2228.55 457.57,-2225.15 463.29,-2234.07 467.6,-2228.55"/>
</g>
<!-- ダーレーアラビアン -->
<g id="node62" class="node">
<title>ダーレーアラビアン</title>
<polygon fill="lightblue" stroke="lightblue" points="144.25,-2450 0,-2450 0,-2373 144.25,-2373 144.25,-2450"/>
<image xlink:href="img/darearabian.png" width="100px" height="77px" preserveAspectRatio="xMinYMin meet" x="22.125" y="-2450"/>
<text text-anchor="middle" x="72.12" y="-2405.7" font-family="MS Gothic" font-size="14.00">ダーレーアラビアン</text>
</g>
<!-- ダーレーアラビアン&#45;&gt;Bartlet&#39;s Childers -->
<g id="edge61" class="edge">
<title>ダーレーアラビアン&#45;&gt;Bartlet&#39;s Childers</title>
<path fill="none" stroke="black" d="M95.68,-2372.61C100.84,-2364.31 106.37,-2355.41 111.73,-2346.79"/>
<polygon fill="black" stroke="black" points="114.57,-2348.84 116.88,-2338.5 108.63,-2345.15 114.57,-2348.84"/>
</g>
<!-- Betty Leedes -->
<g id="node63" class="node">
<title>Betty Leedes</title>
<polygon fill="lightcoral" stroke="lightcoral" points="259.62,-2450 162.62,-2450 162.62,-2373 259.62,-2373 259.62,-2450"/>
<image xlink:href="img/mob.png" width="97px" height="77px" preserveAspectRatio="xMinYMin meet" x="162.625" y="-2450"/>
<text text-anchor="middle" x="211.12" y="-2405.7" font-family="MS Gothic" font-size="14.00">Betty Leedes</text>
</g>
<!-- Betty Leedes&#45;&gt;Bartlet&#39;s Childers -->
<g id="edge62" class="edge">
<title>Betty Leedes&#45;&gt;Bartlet&#39;s Childers</title>
<path fill="none" stroke="black" d="M187.23,-2372.61C181.99,-2364.31 176.39,-2355.41 170.95,-2346.79"/>
<polygon fill="black" stroke="black" points="174.01,-2345.09 165.72,-2338.5 168.09,-2348.82 174.01,-2345.09"/>
</g>
<!-- Old Careless -->
<g id="node64" class="node">
<title>Old Careless</title>
<polygon fill="lightblue" stroke="lightblue" points="201.62,-2563 104.62,-2563 104.62,-2486 201.62,-2486 201.62,-2563"/>
<image xlink:href="img/mob.png" width="97px" height="77px" preserveAspectRatio="xMinYMin meet" x="104.625" y="-2563"/>
<text text-anchor="middle" x="153.12" y="-2518.7" font-family="MS Gothic" font-size="14.00">Old Careless</text>
</g>
<!-- Old Careless&#45;&gt;Betty Leedes -->
<g id="edge63" class="edge">
<title>Old Careless&#45;&gt;Betty Leedes</title>
<path fill="none" stroke="black" d="M172.92,-2485.61C177.17,-2477.48 181.71,-2468.8 186.12,-2460.35"/>
<polygon fill="black" stroke="black" points="189.19,-2462.04 190.72,-2451.56 182.98,-2458.8 189.19,-2462.04"/>
</g>
<!-- Cream Cheeks -->
<g id="node65" class="node">
<title>Cream Cheeks</title>
<polygon fill="lightcoral" stroke="lightcoral" points="316.62,-2563 219.62,-2563 219.62,-2486 316.62,-2486 316.62,-2563"/>
<image xlink:href="img/mob.png" width="97px" height="77px" preserveAspectRatio="xMinYMin meet" x="219.625" y="-2563"/>
<text text-anchor="middle" x="268.12" y="-2518.7" font-family="MS Gothic" font-size="14.00">Cream Cheeks</text>
</g>
<!-- Cream Cheeks&#45;&gt;Betty Leedes -->
<g id="edge64" class="edge">
<title>Cream Cheeks&#45;&gt;Betty Leedes</title>
<path fill="none" stroke="black" d="M248.67,-2485.61C244.5,-2477.48 240.03,-2468.8 235.7,-2460.35"/>
<polygon fill="black" stroke="black" points="238.87,-2458.86 231.19,-2451.57 232.64,-2462.06 238.87,-2458.86"/>
</g>
</g>
</svg>
