<?xml version="1.0" encoding="UTF-8" standalone="no"?>
<!DOCTYPE svg PUBLIC "-//W3C//DTD SVG 1.1//EN"
 "http://www.w3.org/Graphics/SVG/1.1/DTD/svg11.dtd">
<!-- Generated by graphviz version 12.1.2 (20240928.0832)
 -->
<!-- Pages: 1 -->
<svg width="110pt" height="311pt"
 viewBox="0.00 0.00 110.25 311.00" xmlns="http://www.w3.org/2000/svg" xmlns:xlink="http://www.w3.org/1999/xlink">
<g id="graph0" class="graph" transform="scale(1 1) rotate(0) translate(4 307)">
<polygon fill="white" stroke="none" points="-4,4 -4,-307 106.25,-307 106.25,4 -4,4"/>
<!-- イナリワン -->
<g id="node1" class="node">
<title>イナリワン</title>
<polygon fill="none" stroke="black" points="102.25,-77 0,-77 0,0 102.25,0 102.25,-77"/>
<image xlink:href="img/inariwan.png" width="100px" height="77px" preserveAspectRatio="xMinYMin meet" x="1.125" y="-77"/>
<text text-anchor="middle" x="51.12" y="-32.33" font-family="Times New Roman,serif" font-size="14.00">イナリワン</text>
</g>
<!-- ミルジョージ -->
<g id="node2" class="node">
<title>ミルジョージ</title>
<polygon fill="lightblue" stroke="lightblue" points="101.88,-190 0.38,-190 0.38,-113 101.88,-113 101.88,-190"/>
<image xlink:href="img/mob.png" width="100px" height="77px" preserveAspectRatio="xMinYMin meet" x="1.125" y="-190"/>
<text text-anchor="middle" x="51.12" y="-145.7" font-family="MS Gothic" font-size="14.00">ミルジョージ</text>
</g>
<!-- ミルジョージ&#45;&gt;イナリワン -->
<g id="edge1" class="edge">
<title>ミルジョージ&#45;&gt;イナリワン</title>
<path fill="none" stroke="black" d="M51.12,-112.61C51.12,-104.84 51.12,-96.56 51.12,-88.46"/>
<polygon fill="black" stroke="black" points="54.63,-88.73 51.13,-78.73 47.63,-88.73 54.63,-88.73"/>
</g>
<!-- テイトヤシマ -->
<g id="node3" class="node">
<title>テイトヤシマ</title>
<polygon fill="lightblue" stroke="lightblue" points="101.88,-303 0.38,-303 0.38,-226 101.88,-226 101.88,-303"/>
<image xlink:href="img/mob.png" width="100px" height="77px" preserveAspectRatio="xMinYMin meet" x="1.125" y="-303"/>
<text text-anchor="middle" x="51.12" y="-258.7" font-family="MS Gothic" font-size="14.00">テイトヤシマ</text>
</g>
<!-- テイトヤシマ&#45;&gt;ミルジョージ -->
<g id="edge2" class="edge">
<title>テイトヤシマ&#45;&gt;ミルジョージ</title>
<path fill="none" stroke="black" d="M51.12,-225.61C51.12,-217.84 51.12,-209.56 51.12,-201.46"/>
<polygon fill="black" stroke="black" points="54.63,-201.73 51.13,-191.73 47.63,-201.73 54.63,-201.73"/>
</g>
</g>
</svg>
