<?xml version="1.0" encoding="UTF-8" standalone="no"?>
<!DOCTYPE svg PUBLIC "-//W3C//DTD SVG 1.1//EN"
 "http://www.w3.org/Graphics/SVG/1.1/DTD/svg11.dtd">
<!-- Generated by graphviz version 12.1.2 (20240928.0832)
 -->
<!-- Pages: 1 -->
<svg width="497pt" height="311pt"
 viewBox="0.00 0.00 496.62 311.00" xmlns="http://www.w3.org/2000/svg" xmlns:xlink="http://www.w3.org/1999/xlink">
<g id="graph0" class="graph" transform="scale(1 1) rotate(0) translate(4 307)">
<polygon fill="white" stroke="none" points="-4,4 -4,-307 492.62,-307 492.62,4 -4,4"/>
<!-- イクノディクタス -->
<g id="node1" class="node">
<title>イクノディクタス</title>
<polygon fill="none" stroke="black" points="274.5,-77 120.5,-77 120.5,0 274.5,0 274.5,-77"/>
<image xlink:href="img/ikunodeikutasu.png" width="100px" height="77px" preserveAspectRatio="xMinYMin meet" x="147.5" y="-77"/>
<text text-anchor="middle" x="197.5" y="-32.33" font-family="Times New Roman,serif" font-size="14.00">イクノディクタス</text>
</g>
<!-- ディクタス -->
<g id="node2" class="node">
<title>ディクタス</title>
<polygon fill="lightblue" stroke="lightblue" points="174.12,-190 86.88,-190 86.88,-113 174.12,-113 174.12,-190"/>
<image xlink:href="img/mob.png" width="87.25px" height="77px" preserveAspectRatio="xMinYMin meet" x="86.875" y="-190"/>
<text text-anchor="middle" x="130.5" y="-145.7" font-family="MS Gothic" font-size="14.00">ディクタス</text>
</g>
<!-- ディクタス&#45;&gt;イクノディクタス -->
<g id="edge1" class="edge">
<title>ディクタス&#45;&gt;イクノディクタス</title>
<path fill="none" stroke="black" d="M153.37,-112.61C158.33,-104.39 163.63,-95.6 168.79,-87.07"/>
<polygon fill="black" stroke="black" points="171.78,-88.88 173.95,-78.51 165.79,-85.27 171.78,-88.88"/>
</g>
<!-- ダイナランディング -->
<g id="node3" class="node">
<title>ダイナランディング</title>
<polygon fill="lightcoral" stroke="lightcoral" points="336.62,-190 192.38,-190 192.38,-113 336.62,-113 336.62,-190"/>
<image xlink:href="img/mob.png" width="100px" height="77px" preserveAspectRatio="xMinYMin meet" x="214.5" y="-190"/>
<text text-anchor="middle" x="264.5" y="-145.7" font-family="MS Gothic" font-size="14.00">ダイナランディング</text>
</g>
<!-- ダイナランディング&#45;&gt;イクノディクタス -->
<g id="edge2" class="edge">
<title>ダイナランディング&#45;&gt;イクノディクタス</title>
<path fill="none" stroke="black" d="M241.63,-112.61C236.67,-104.39 231.37,-95.6 226.21,-87.07"/>
<polygon fill="black" stroke="black" points="229.21,-85.27 221.05,-78.51 223.22,-88.88 229.21,-85.27"/>
</g>
<!-- Sanctus -->
<g id="node4" class="node">
<title>Sanctus</title>
<polygon fill="lightblue" stroke="lightblue" points="77,-303 0,-303 0,-226 77,-226 77,-303"/>
<image xlink:href="img/mob.png" width="77px" height="77px" preserveAspectRatio="xMinYMin meet" x="0" y="-303"/>
<text text-anchor="middle" x="38.5" y="-258.7" font-family="MS Gothic" font-size="14.00">Sanctus</text>
</g>
<!-- Sanctus&#45;&gt;ディクタス -->
<g id="edge3" class="edge">
<title>Sanctus&#45;&gt;ディクタス</title>
<path fill="none" stroke="black" d="M69.9,-225.61C77.01,-217.04 84.63,-207.84 91.99,-198.96"/>
<polygon fill="black" stroke="black" points="94.59,-201.32 98.27,-191.38 89.2,-196.85 94.59,-201.32"/>
</g>
<!-- Doronic -->
<g id="node5" class="node">
<title>Doronic</title>
<polygon fill="lightcoral" stroke="lightcoral" points="172,-303 95,-303 95,-226 172,-226 172,-303"/>
<image xlink:href="img/mob.png" width="77px" height="77px" preserveAspectRatio="xMinYMin meet" x="95" y="-303"/>
<text text-anchor="middle" x="133.5" y="-258.7" font-family="MS Gothic" font-size="14.00">Doronic</text>
</g>
<!-- Doronic&#45;&gt;ディクタス -->
<g id="edge4" class="edge">
<title>Doronic&#45;&gt;ディクタス</title>
<path fill="none" stroke="black" d="M132.48,-225.61C132.27,-217.84 132.04,-209.56 131.82,-201.46"/>
<polygon fill="black" stroke="black" points="135.33,-201.63 131.56,-191.73 128.33,-201.82 135.33,-201.63"/>
</g>
<!-- ノーザンテースト -->
<g id="node6" class="node">
<title>ノーザンテースト</title>
<polygon fill="lightblue" stroke="lightblue" points="326.5,-303 196.5,-303 196.5,-226 326.5,-226 326.5,-303"/>
<image xlink:href="img/mob.png" width="100px" height="77px" preserveAspectRatio="xMinYMin meet" x="211.5" y="-303"/>
<text text-anchor="middle" x="261.5" y="-258.7" font-family="MS Gothic" font-size="14.00">ノーザンテースト</text>
</g>
<!-- ノーザンテースト&#45;&gt;ダイナランディング -->
<g id="edge5" class="edge">
<title>ノーザンテースト&#45;&gt;ダイナランディング</title>
<path fill="none" stroke="black" d="M262.52,-225.61C262.73,-217.84 262.96,-209.56 263.18,-201.46"/>
<polygon fill="black" stroke="black" points="266.67,-201.82 263.44,-191.73 259.67,-201.63 266.67,-201.82"/>
</g>
<!-- ナイスランディング -->
<g id="node7" class="node">
<title>ナイスランディング</title>
<polygon fill="lightcoral" stroke="lightcoral" points="488.62,-303 344.38,-303 344.38,-226 488.62,-226 488.62,-303"/>
<image xlink:href="img/mob.png" width="100px" height="77px" preserveAspectRatio="xMinYMin meet" x="366.5" y="-303"/>
<text text-anchor="middle" x="416.5" y="-258.7" font-family="MS Gothic" font-size="14.00">ナイスランディング</text>
</g>
<!-- ナイスランディング&#45;&gt;ダイナランディング -->
<g id="edge6" class="edge">
<title>ナイスランディング&#45;&gt;ダイナランディング</title>
<path fill="none" stroke="black" d="M364.62,-225.61C352.09,-216.46 338.59,-206.6 325.68,-197.18"/>
<polygon fill="black" stroke="black" points="327.77,-194.37 317.63,-191.3 323.64,-200.02 327.77,-194.37"/>
</g>
</g>
</svg>
