<?xml version="1.0" encoding="UTF-8" standalone="no"?>
<!DOCTYPE svg PUBLIC "-//W3C//DTD SVG 1.1//EN"
 "http://www.w3.org/Graphics/SVG/1.1/DTD/svg11.dtd">
<!-- Generated by graphviz version 12.1.2 (20240928.0832)
 -->
<!-- Pages: 1 -->
<svg width="460pt" height="311pt"
 viewBox="0.00 0.00 460.25 311.00" xmlns="http://www.w3.org/2000/svg" xmlns:xlink="http://www.w3.org/1999/xlink">
<g id="graph0" class="graph" transform="scale(1 1) rotate(0) translate(4 307)">
<polygon fill="white" stroke="none" points="-4,4 -4,-307 456.25,-307 456.25,4 -4,4"/>
<!-- ウイニングチケット -->
<g id="node1" class="node">
<title>ウイニングチケット</title>
<polygon fill="none" stroke="black" points="296.12,-77 124.88,-77 124.88,0 296.12,0 296.12,-77"/>
<image xlink:href="img/uininguchiketsuto.png" width="100px" height="77px" preserveAspectRatio="xMinYMin meet" x="160.5" y="-77"/>
<text text-anchor="middle" x="210.5" y="-32.33" font-family="Times New Roman,serif" font-size="14.00">ウイニングチケット</text>
</g>
<!-- トニービン -->
<g id="node2" class="node">
<title>トニービン</title>
<polygon fill="lightblue" stroke="lightblue" points="190.12,-190 102.88,-190 102.88,-113 190.12,-113 190.12,-190"/>
<image xlink:href="img/mob.png" width="87.25px" height="77px" preserveAspectRatio="xMinYMin meet" x="102.875" y="-190"/>
<text text-anchor="middle" x="146.5" y="-145.7" font-family="MS Gothic" font-size="14.00">トニービン</text>
</g>
<!-- トニービン&#45;&gt;ウイニングチケット -->
<g id="edge1" class="edge">
<title>トニービン&#45;&gt;ウイニングチケット</title>
<path fill="none" stroke="black" d="M168.35,-112.61C173.08,-104.39 178.15,-95.6 183.07,-87.07"/>
<polygon fill="black" stroke="black" points="186.03,-88.94 188,-78.53 179.97,-85.44 186.03,-88.94"/>
</g>
<!-- パワフルレディ -->
<g id="node3" class="node">
<title>パワフルレディ</title>
<polygon fill="lightcoral" stroke="lightcoral" points="332.38,-190 216.62,-190 216.62,-113 332.38,-113 332.38,-190"/>
<image xlink:href="img/mob.png" width="100px" height="77px" preserveAspectRatio="xMinYMin meet" x="224.5" y="-190"/>
<text text-anchor="middle" x="274.5" y="-145.7" font-family="MS Gothic" font-size="14.00">パワフルレディ</text>
</g>
<!-- パワフルレディ&#45;&gt;ウイニングチケット -->
<g id="edge2" class="edge">
<title>パワフルレディ&#45;&gt;ウイニングチケット</title>
<path fill="none" stroke="black" d="M252.65,-112.61C247.92,-104.39 242.85,-95.6 237.93,-87.07"/>
<polygon fill="black" stroke="black" points="241.03,-85.44 233,-78.53 234.97,-88.94 241.03,-85.44"/>
</g>
<!-- カンパラ -->
<g id="node4" class="node">
<title>カンパラ</title>
<polygon fill="lightblue" stroke="lightblue" points="77,-303 0,-303 0,-226 77,-226 77,-303"/>
<image xlink:href="img/mob.png" width="77px" height="77px" preserveAspectRatio="xMinYMin meet" x="0" y="-303"/>
<text text-anchor="middle" x="38.5" y="-258.7" font-family="MS Gothic" font-size="14.00">カンパラ</text>
</g>
<!-- カンパラ&#45;&gt;トニービン -->
<g id="edge3" class="edge">
<title>カンパラ&#45;&gt;トニービン</title>
<path fill="none" stroke="black" d="M75.37,-225.61C83.88,-216.86 93.03,-207.46 101.84,-198.4"/>
<polygon fill="black" stroke="black" points="104.28,-200.91 108.75,-191.3 99.26,-196.03 104.28,-200.91"/>
</g>
<!-- Severn Bridge -->
<g id="node5" class="node">
<title>Severn Bridge</title>
<polygon fill="lightcoral" stroke="lightcoral" points="198.38,-303 94.62,-303 94.62,-226 198.38,-226 198.38,-303"/>
<image xlink:href="img/mob.png" width="100px" height="77px" preserveAspectRatio="xMinYMin meet" x="96.5" y="-303"/>
<text text-anchor="middle" x="146.5" y="-258.7" font-family="MS Gothic" font-size="14.00">Severn Bridge</text>
</g>
<!-- Severn Bridge&#45;&gt;トニービン -->
<g id="edge4" class="edge">
<title>Severn Bridge&#45;&gt;トニービン</title>
<path fill="none" stroke="black" d="M146.5,-225.61C146.5,-217.84 146.5,-209.56 146.5,-201.46"/>
<polygon fill="black" stroke="black" points="150,-201.73 146.5,-191.73 143,-201.73 150,-201.73"/>
</g>
<!-- マルゼンスキー -->
<g id="node6" class="node">
<title>マルゼンスキー</title>
<polygon fill="lightblue" stroke="lightblue" points="332.38,-303 216.62,-303 216.62,-226 332.38,-226 332.38,-303"/>
<image xlink:href="img/maruzensuki.png" width="100px" height="77px" preserveAspectRatio="xMinYMin meet" x="224.5" y="-303"/>
<text text-anchor="middle" x="274.5" y="-258.7" font-family="MS Gothic" font-size="14.00">マルゼンスキー</text>
</g>
<!-- マルゼンスキー&#45;&gt;パワフルレディ -->
<g id="edge5" class="edge">
<title>マルゼンスキー&#45;&gt;パワフルレディ</title>
<path fill="none" stroke="black" d="M274.5,-225.61C274.5,-217.84 274.5,-209.56 274.5,-201.46"/>
<polygon fill="black" stroke="black" points="278,-201.73 274.5,-191.73 271,-201.73 278,-201.73"/>
</g>
<!-- ロッチテスコ -->
<g id="node7" class="node">
<title>ロッチテスコ</title>
<polygon fill="lightcoral" stroke="lightcoral" points="452.25,-303 350.75,-303 350.75,-226 452.25,-226 452.25,-303"/>
<image xlink:href="img/mob.png" width="100px" height="77px" preserveAspectRatio="xMinYMin meet" x="351.5" y="-303"/>
<text text-anchor="middle" x="401.5" y="-258.7" font-family="MS Gothic" font-size="14.00">ロッチテスコ</text>
</g>
<!-- ロッチテスコ&#45;&gt;パワフルレディ -->
<g id="edge6" class="edge">
<title>ロッチテスコ&#45;&gt;パワフルレディ</title>
<path fill="none" stroke="black" d="M358.15,-225.61C347.83,-216.59 336.72,-206.88 326.07,-197.57"/>
<polygon fill="black" stroke="black" points="328.63,-195.16 318.8,-191.21 324.02,-200.43 328.63,-195.16"/>
</g>
</g>
</svg>
