<?xml version="1.0" encoding="UTF-8" standalone="no"?>
<!DOCTYPE svg PUBLIC "-//W3C//DTD SVG 1.1//EN"
 "http://www.w3.org/Graphics/SVG/1.1/DTD/svg11.dtd">
<!-- Generated by graphviz version 12.1.2 (20240928.0832)
 -->
<!-- Pages: 1 -->
<svg width="443pt" height="311pt"
 viewBox="0.00 0.00 442.75 311.00" xmlns="http://www.w3.org/2000/svg" xmlns:xlink="http://www.w3.org/1999/xlink">
<g id="graph0" class="graph" transform="scale(1 1) rotate(0) translate(4 307)">
<polygon fill="white" stroke="none" points="-4,4 -4,-307 438.75,-307 438.75,4 -4,4"/>
<!-- エルコンドルパサー -->
<g id="node1" class="node">
<title>エルコンドルパサー</title>
<polygon fill="none" stroke="black" points="310.88,-77 139.62,-77 139.62,0 310.88,0 310.88,-77"/>
<image xlink:href="img/erukondorupasa.png" width="100px" height="77px" preserveAspectRatio="xMinYMin meet" x="175.25" y="-77"/>
<text text-anchor="middle" x="225.25" y="-32.33" font-family="Times New Roman,serif" font-size="14.00">エルコンドルパサー</text>
</g>
<!-- Kingmambo -->
<g id="node2" class="node">
<title>Kingmambo</title>
<polygon fill="lightblue" stroke="lightblue" points="202.75,-190 125.75,-190 125.75,-113 202.75,-113 202.75,-190"/>
<image xlink:href="img/mob.png" width="77px" height="77px" preserveAspectRatio="xMinYMin meet" x="125.75" y="-190"/>
<text text-anchor="middle" x="164.25" y="-145.7" font-family="MS Gothic" font-size="14.00">Kingmambo</text>
</g>
<!-- Kingmambo&#45;&gt;エルコンドルパサー -->
<g id="edge1" class="edge">
<title>Kingmambo&#45;&gt;エルコンドルパサー</title>
<path fill="none" stroke="black" d="M185.07,-112.61C189.59,-104.39 194.42,-95.6 199.11,-87.07"/>
<polygon fill="black" stroke="black" points="202.04,-88.99 203.79,-78.55 195.91,-85.62 202.04,-88.99"/>
</g>
<!-- サドラーズギャル -->
<g id="node3" class="node">
<title>サドラーズギャル</title>
<polygon fill="lightcoral" stroke="lightcoral" points="351.25,-190 221.25,-190 221.25,-113 351.25,-113 351.25,-190"/>
<image xlink:href="img/mob.png" width="100px" height="77px" preserveAspectRatio="xMinYMin meet" x="236.25" y="-190"/>
<text text-anchor="middle" x="286.25" y="-145.7" font-family="MS Gothic" font-size="14.00">サドラーズギャル</text>
</g>
<!-- サドラーズギャル&#45;&gt;エルコンドルパサー -->
<g id="edge2" class="edge">
<title>サドラーズギャル&#45;&gt;エルコンドルパサー</title>
<path fill="none" stroke="black" d="M265.43,-112.61C260.91,-104.39 256.08,-95.6 251.39,-87.07"/>
<polygon fill="black" stroke="black" points="254.59,-85.62 246.71,-78.55 248.46,-88.99 254.59,-85.62"/>
</g>
<!-- Mr. Prospector -->
<g id="node4" class="node">
<title>Mr. Prospector</title>
<polygon fill="lightblue" stroke="lightblue" points="110.5,-303 0,-303 0,-226 110.5,-226 110.5,-303"/>
<image xlink:href="img/mob.png" width="100px" height="77px" preserveAspectRatio="xMinYMin meet" x="5.25" y="-303"/>
<text text-anchor="middle" x="55.25" y="-258.7" font-family="MS Gothic" font-size="14.00">Mr. Prospector</text>
</g>
<!-- Mr. Prospector&#45;&gt;Kingmambo -->
<g id="edge3" class="edge">
<title>Mr. Prospector&#45;&gt;Kingmambo</title>
<path fill="none" stroke="black" d="M92.46,-225.61C101.05,-216.86 110.28,-207.46 119.17,-198.4"/>
<polygon fill="black" stroke="black" points="121.64,-200.89 126.15,-191.3 116.65,-195.98 121.64,-200.89"/>
</g>
<!-- Miesque -->
<g id="node5" class="node">
<title>Miesque</title>
<polygon fill="lightcoral" stroke="lightcoral" points="205.75,-303 128.75,-303 128.75,-226 205.75,-226 205.75,-303"/>
<image xlink:href="img/mob.png" width="77px" height="77px" preserveAspectRatio="xMinYMin meet" x="128.75" y="-303"/>
<text text-anchor="middle" x="167.25" y="-258.7" font-family="MS Gothic" font-size="14.00">Miesque</text>
</g>
<!-- Miesque&#45;&gt;Kingmambo -->
<g id="edge4" class="edge">
<title>Miesque&#45;&gt;Kingmambo</title>
<path fill="none" stroke="black" d="M166.23,-225.61C166.02,-217.84 165.79,-209.56 165.57,-201.46"/>
<polygon fill="black" stroke="black" points="169.08,-201.63 165.31,-191.73 162.08,-201.82 169.08,-201.63"/>
</g>
<!-- Sadler&#39;s Wells -->
<g id="node6" class="node">
<title>Sadler&#39;s Wells</title>
<polygon fill="lightblue" stroke="lightblue" points="339.5,-303 229,-303 229,-226 339.5,-226 339.5,-303"/>
<image xlink:href="img/mob.png" width="100px" height="77px" preserveAspectRatio="xMinYMin meet" x="234.25" y="-303"/>
<text text-anchor="middle" x="284.25" y="-258.7" font-family="MS Gothic" font-size="14.00">Sadler&#39;s Wells</text>
</g>
<!-- Sadler&#39;s Wells&#45;&gt;サドラーズギャル -->
<g id="edge5" class="edge">
<title>Sadler&#39;s Wells&#45;&gt;サドラーズギャル</title>
<path fill="none" stroke="black" d="M284.93,-225.61C285.07,-217.84 285.22,-209.56 285.37,-201.46"/>
<polygon fill="black" stroke="black" points="288.86,-201.79 285.54,-191.73 281.86,-201.67 288.86,-201.79"/>
</g>
<!-- Glenveagh -->
<g id="node7" class="node">
<title>Glenveagh</title>
<polygon fill="lightcoral" stroke="lightcoral" points="434.75,-303 357.75,-303 357.75,-226 434.75,-226 434.75,-303"/>
<image xlink:href="img/mob.png" width="77px" height="77px" preserveAspectRatio="xMinYMin meet" x="357.75" y="-303"/>
<text text-anchor="middle" x="396.25" y="-258.7" font-family="MS Gothic" font-size="14.00">Glenveagh</text>
</g>
<!-- Glenveagh&#45;&gt;サドラーズギャル -->
<g id="edge6" class="edge">
<title>Glenveagh&#45;&gt;サドラーズギャル</title>
<path fill="none" stroke="black" d="M358.7,-225.61C349.94,-216.77 340.52,-207.26 331.47,-198.13"/>
<polygon fill="black" stroke="black" points="334.22,-195.93 324.69,-191.29 329.25,-200.86 334.22,-195.93"/>
</g>
</g>
</svg>
