<?xml version="1.0" encoding="UTF-8" standalone="no"?>
<!DOCTYPE svg PUBLIC "-//W3C//DTD SVG 1.1//EN"
 "http://www.w3.org/Graphics/SVG/1.1/DTD/svg11.dtd">
<!-- Generated by graphviz version 12.1.2 (20240928.0832)
 -->
<!-- Pages: 1 -->
<svg width="432pt" height="311pt"
 viewBox="0.00 0.00 431.75 311.00" xmlns="http://www.w3.org/2000/svg" xmlns:xlink="http://www.w3.org/1999/xlink">
<g id="graph0" class="graph" transform="scale(1 1) rotate(0) translate(4 307)">
<polygon fill="white" stroke="none" points="-4,4 -4,-307 427.75,-307 427.75,4 -4,4"/>
<!-- エイシンフラッシュ -->
<g id="node1" class="node">
<title>エイシンフラッシュ</title>
<polygon fill="none" stroke="black" points="279.12,-77 107.88,-77 107.88,0 279.12,0 279.12,-77"/>
<image xlink:href="img/eishinhuratsushiyu.png" width="100px" height="77px" preserveAspectRatio="xMinYMin meet" x="143.5" y="-77"/>
<text text-anchor="middle" x="193.5" y="-32.33" font-family="Times New Roman,serif" font-size="14.00">エイシンフラッシュ</text>
</g>
<!-- キングズベスト -->
<g id="node2" class="node">
<title>キングズベスト</title>
<polygon fill="lightblue" stroke="lightblue" points="188.38,-190 72.62,-190 72.62,-113 188.38,-113 188.38,-190"/>
<image xlink:href="img/mob.png" width="100px" height="77px" preserveAspectRatio="xMinYMin meet" x="80.5" y="-190"/>
<text text-anchor="middle" x="130.5" y="-145.7" font-family="MS Gothic" font-size="14.00">キングズベスト</text>
</g>
<!-- キングズベスト&#45;&gt;エイシンフラッシュ -->
<g id="edge1" class="edge">
<title>キングズベスト&#45;&gt;エイシンフラッシュ</title>
<path fill="none" stroke="black" d="M152,-112.61C156.67,-104.39 161.66,-95.6 166.5,-87.07"/>
<polygon fill="black" stroke="black" points="169.45,-88.96 171.34,-78.53 163.36,-85.5 169.45,-88.96"/>
</g>
<!-- ムーンレディ -->
<g id="node3" class="node">
<title>ムーンレディ</title>
<polygon fill="lightcoral" stroke="lightcoral" points="308.25,-190 206.75,-190 206.75,-113 308.25,-113 308.25,-190"/>
<image xlink:href="img/mob.png" width="100px" height="77px" preserveAspectRatio="xMinYMin meet" x="207.5" y="-190"/>
<text text-anchor="middle" x="257.5" y="-145.7" font-family="MS Gothic" font-size="14.00">ムーンレディ</text>
</g>
<!-- ムーンレディ&#45;&gt;エイシンフラッシュ -->
<g id="edge2" class="edge">
<title>ムーンレディ&#45;&gt;エイシンフラッシュ</title>
<path fill="none" stroke="black" d="M235.65,-112.61C230.92,-104.39 225.85,-95.6 220.93,-87.07"/>
<polygon fill="black" stroke="black" points="224.03,-85.44 216,-78.53 217.97,-88.94 224.03,-85.44"/>
</g>
<!-- Kingmambo -->
<g id="node4" class="node">
<title>Kingmambo</title>
<polygon fill="lightblue" stroke="lightblue" points="77,-303 0,-303 0,-226 77,-226 77,-303"/>
<image xlink:href="img/mob.png" width="77px" height="77px" preserveAspectRatio="xMinYMin meet" x="0" y="-303"/>
<text text-anchor="middle" x="38.5" y="-258.7" font-family="MS Gothic" font-size="14.00">Kingmambo</text>
</g>
<!-- Kingmambo&#45;&gt;キングズベスト -->
<g id="edge3" class="edge">
<title>Kingmambo&#45;&gt;キングズベスト</title>
<path fill="none" stroke="black" d="M69.9,-225.61C77.01,-217.04 84.63,-207.84 91.99,-198.96"/>
<polygon fill="black" stroke="black" points="94.59,-201.32 98.27,-191.38 89.2,-196.85 94.59,-201.32"/>
</g>
<!-- Allegretta -->
<g id="node5" class="node">
<title>Allegretta</title>
<polygon fill="lightcoral" stroke="lightcoral" points="178.25,-303 94.75,-303 94.75,-226 178.25,-226 178.25,-303"/>
<image xlink:href="img/mob.png" width="83.5px" height="77px" preserveAspectRatio="xMinYMin meet" x="94.75" y="-303"/>
<text text-anchor="middle" x="136.5" y="-258.7" font-family="MS Gothic" font-size="14.00">Allegretta</text>
</g>
<!-- Allegretta&#45;&gt;キングズベスト -->
<g id="edge4" class="edge">
<title>Allegretta&#45;&gt;キングズベスト</title>
<path fill="none" stroke="black" d="M134.45,-225.61C134.03,-217.84 133.58,-209.56 133.15,-201.46"/>
<polygon fill="black" stroke="black" points="136.66,-201.53 132.62,-191.73 129.67,-201.9 136.66,-201.53"/>
</g>
<!-- プラティニ -->
<g id="node6" class="node">
<title>プラティニ</title>
<polygon fill="lightblue" stroke="lightblue" points="295.12,-303 207.88,-303 207.88,-226 295.12,-226 295.12,-303"/>
<image xlink:href="img/mob.png" width="87.25px" height="77px" preserveAspectRatio="xMinYMin meet" x="207.875" y="-303"/>
<text text-anchor="middle" x="251.5" y="-258.7" font-family="MS Gothic" font-size="14.00">プラティニ</text>
</g>
<!-- プラティニ&#45;&gt;ムーンレディ -->
<g id="edge5" class="edge">
<title>プラティニ&#45;&gt;ムーンレディ</title>
<path fill="none" stroke="black" d="M253.55,-225.61C253.97,-217.84 254.42,-209.56 254.85,-201.46"/>
<polygon fill="black" stroke="black" points="258.33,-201.9 255.38,-191.73 251.34,-201.53 258.33,-201.9"/>
</g>
<!-- Midnight Fever -->
<g id="node7" class="node">
<title>Midnight Fever</title>
<polygon fill="lightcoral" stroke="lightcoral" points="423.75,-303 313.25,-303 313.25,-226 423.75,-226 423.75,-303"/>
<image xlink:href="img/mob.png" width="100px" height="77px" preserveAspectRatio="xMinYMin meet" x="318.5" y="-303"/>
<text text-anchor="middle" x="368.5" y="-258.7" font-family="MS Gothic" font-size="14.00">Midnight Fever</text>
</g>
<!-- Midnight Fever&#45;&gt;ムーンレディ -->
<g id="edge6" class="edge">
<title>Midnight Fever&#45;&gt;ムーンレディ</title>
<path fill="none" stroke="black" d="M330.61,-225.61C321.77,-216.77 312.26,-207.26 303.13,-198.13"/>
<polygon fill="black" stroke="black" points="305.83,-195.89 296.29,-191.29 300.89,-200.83 305.83,-195.89"/>
</g>
</g>
</svg>
