<?xml version="1.0" encoding="UTF-8" standalone="no"?>
<!DOCTYPE svg PUBLIC "-//W3C//DTD SVG 1.1//EN"
 "http://www.w3.org/Graphics/SVG/1.1/DTD/svg11.dtd">
<!-- Generated by graphviz version 12.1.2 (20240928.0832)
 -->
<!-- Pages: 1 -->
<svg width="152pt" height="311pt"
 viewBox="0.00 0.00 152.25 311.00" xmlns="http://www.w3.org/2000/svg" xmlns:xlink="http://www.w3.org/1999/xlink">
<g id="graph0" class="graph" transform="scale(1 1) rotate(0) translate(4 307)">
<polygon fill="white" stroke="none" points="-4,4 -4,-307 148.25,-307 148.25,4 -4,4"/>
<!-- オルフェーヴル -->
<g id="node1" class="node">
<title>オルフェーヴル</title>
<polygon fill="none" stroke="black" points="140.5,-77 3.75,-77 3.75,0 140.5,0 140.5,-77"/>
<image xlink:href="img/oruhuevuru.png" width="100px" height="77px" preserveAspectRatio="xMinYMin meet" x="22.125" y="-77"/>
<text text-anchor="middle" x="72.12" y="-32.33" font-family="Times New Roman,serif" font-size="14.00">オルフェーヴル</text>
</g>
<!-- ステイゴールド -->
<g id="node2" class="node">
<title>ステイゴールド</title>
<polygon fill="lightblue" stroke="lightblue" points="130,-190 14.25,-190 14.25,-113 130,-113 130,-190"/>
<image xlink:href="img/mob.png" width="100px" height="77px" preserveAspectRatio="xMinYMin meet" x="22.125" y="-190"/>
<text text-anchor="middle" x="72.12" y="-145.7" font-family="MS Gothic" font-size="14.00">ステイゴールド</text>
</g>
<!-- ステイゴールド&#45;&gt;オルフェーヴル -->
<g id="edge1" class="edge">
<title>ステイゴールド&#45;&gt;オルフェーヴル</title>
<path fill="none" stroke="black" d="M72.12,-112.61C72.12,-104.84 72.12,-96.56 72.12,-88.46"/>
<polygon fill="black" stroke="black" points="75.63,-88.73 72.13,-78.73 68.63,-88.73 75.63,-88.73"/>
</g>
<!-- オリエンタルアート -->
<g id="node3" class="node">
<title>オリエンタルアート</title>
<polygon fill="lightblue" stroke="lightblue" points="144.25,-303 0,-303 0,-226 144.25,-226 144.25,-303"/>
<image xlink:href="img/mob.png" width="100px" height="77px" preserveAspectRatio="xMinYMin meet" x="22.125" y="-303"/>
<text text-anchor="middle" x="72.12" y="-258.7" font-family="MS Gothic" font-size="14.00">オリエンタルアート</text>
</g>
<!-- オリエンタルアート&#45;&gt;ステイゴールド -->
<g id="edge2" class="edge">
<title>オリエンタルアート&#45;&gt;ステイゴールド</title>
<path fill="none" stroke="black" d="M72.12,-225.61C72.12,-217.84 72.12,-209.56 72.12,-201.46"/>
<polygon fill="black" stroke="black" points="75.63,-201.73 72.13,-191.73 68.63,-201.73 75.63,-201.73"/>
</g>
</g>
</svg>
