<?xml version="1.0" encoding="UTF-8" standalone="no"?>
<!DOCTYPE svg PUBLIC "-//W3C//DTD SVG 1.1//EN"
 "http://www.w3.org/Graphics/SVG/1.1/DTD/svg11.dtd">
<!-- Generated by graphviz version 12.1.2 (20240928.0832)
 -->
<!-- Pages: 1 -->
<svg width="534pt" height="311pt"
 viewBox="0.00 0.00 533.88 311.00" xmlns="http://www.w3.org/2000/svg" xmlns:xlink="http://www.w3.org/1999/xlink">
<g id="graph0" class="graph" transform="scale(1 1) rotate(0) translate(4 307)">
<polygon fill="white" stroke="none" points="-4,4 -4,-307 529.88,-307 529.88,4 -4,4"/>
<!-- オグリキャップ -->
<g id="node1" class="node">
<title>オグリキャップ</title>
<polygon fill="none" stroke="black" points="309.25,-77 172.5,-77 172.5,0 309.25,0 309.25,-77"/>
<image xlink:href="img/ogurikiyatsupu.png" width="100px" height="77px" preserveAspectRatio="xMinYMin meet" x="190.875" y="-77"/>
<text text-anchor="middle" x="240.88" y="-32.33" font-family="Times New Roman,serif" font-size="14.00">オグリキャップ</text>
</g>
<!-- ダンシングキャップ -->
<g id="node2" class="node">
<title>ダンシングキャップ</title>
<polygon fill="lightblue" stroke="lightblue" points="236,-190 91.75,-190 91.75,-113 236,-113 236,-190"/>
<image xlink:href="img/mob.png" width="100px" height="77px" preserveAspectRatio="xMinYMin meet" x="113.875" y="-190"/>
<text text-anchor="middle" x="163.88" y="-145.7" font-family="MS Gothic" font-size="14.00">ダンシングキャップ</text>
</g>
<!-- ダンシングキャップ&#45;&gt;オグリキャップ -->
<g id="edge1" class="edge">
<title>ダンシングキャップ&#45;&gt;オグリキャップ</title>
<path fill="none" stroke="black" d="M190.16,-112.61C195.98,-104.22 202.22,-95.22 208.26,-86.51"/>
<polygon fill="black" stroke="black" points="211.02,-88.67 213.85,-78.46 205.27,-84.68 211.02,-88.67"/>
</g>
<!-- ホワイトナルビー -->
<g id="node3" class="node">
<title>ホワイトナルビー</title>
<polygon fill="lightcoral" stroke="lightcoral" points="383.88,-190 253.88,-190 253.88,-113 383.88,-113 383.88,-190"/>
<image xlink:href="img/mob.png" width="100px" height="77px" preserveAspectRatio="xMinYMin meet" x="268.875" y="-190"/>
<text text-anchor="middle" x="318.88" y="-145.7" font-family="MS Gothic" font-size="14.00">ホワイトナルビー</text>
</g>
<!-- ホワイトナルビー&#45;&gt;オグリキャップ -->
<g id="edge2" class="edge">
<title>ホワイトナルビー&#45;&gt;オグリキャップ</title>
<path fill="none" stroke="black" d="M292.25,-112.61C286.35,-104.22 280.03,-95.22 273.91,-86.51"/>
<polygon fill="black" stroke="black" points="276.86,-84.63 268.25,-78.46 271.14,-88.65 276.86,-84.63"/>
</g>
<!-- Native Dancer -->
<g id="node4" class="node">
<title>Native Dancer</title>
<polygon fill="lightblue" stroke="lightblue" points="103.75,-303 0,-303 0,-226 103.75,-226 103.75,-303"/>
<image xlink:href="img/mob.png" width="100px" height="77px" preserveAspectRatio="xMinYMin meet" x="1.875" y="-303"/>
<text text-anchor="middle" x="51.88" y="-258.7" font-family="MS Gothic" font-size="14.00">Native Dancer</text>
</g>
<!-- Native Dancer&#45;&gt;ダンシングキャップ -->
<g id="edge3" class="edge">
<title>Native Dancer&#45;&gt;ダンシングキャップ</title>
<path fill="none" stroke="black" d="M90.11,-225.61C99.03,-216.77 108.62,-207.26 117.84,-198.13"/>
<polygon fill="black" stroke="black" points="120.1,-200.81 124.74,-191.28 115.17,-195.84 120.1,-200.81"/>
</g>
<!-- Merry Madcap -->
<g id="node5" class="node">
<title>Merry Madcap</title>
<polygon fill="lightcoral" stroke="lightcoral" points="218.38,-303 121.38,-303 121.38,-226 218.38,-226 218.38,-303"/>
<image xlink:href="img/mob.png" width="97px" height="77px" preserveAspectRatio="xMinYMin meet" x="121.375" y="-303"/>
<text text-anchor="middle" x="169.88" y="-258.7" font-family="MS Gothic" font-size="14.00">Merry Madcap</text>
</g>
<!-- Merry Madcap&#45;&gt;ダンシングキャップ -->
<g id="edge4" class="edge">
<title>Merry Madcap&#45;&gt;ダンシングキャップ</title>
<path fill="none" stroke="black" d="M167.83,-225.61C167.41,-217.84 166.96,-209.56 166.52,-201.46"/>
<polygon fill="black" stroke="black" points="170.03,-201.53 166,-191.73 163.04,-201.9 170.03,-201.53"/>
</g>
<!-- シルバーシャーク -->
<g id="node6" class="node">
<title>シルバーシャーク</title>
<polygon fill="lightblue" stroke="lightblue" points="377.88,-303 247.88,-303 247.88,-226 377.88,-226 377.88,-303"/>
<image xlink:href="img/mob.png" width="100px" height="77px" preserveAspectRatio="xMinYMin meet" x="262.875" y="-303"/>
<text text-anchor="middle" x="312.88" y="-258.7" font-family="MS Gothic" font-size="14.00">シルバーシャーク</text>
</g>
<!-- シルバーシャーク&#45;&gt;ホワイトナルビー -->
<g id="edge5" class="edge">
<title>シルバーシャーク&#45;&gt;ホワイトナルビー</title>
<path fill="none" stroke="black" d="M314.92,-225.61C315.34,-217.84 315.79,-209.56 316.23,-201.46"/>
<polygon fill="black" stroke="black" points="319.71,-201.9 316.75,-191.73 312.72,-201.53 319.71,-201.9"/>
</g>
<!-- ネヴアーナルビー -->
<g id="node7" class="node">
<title>ネヴアーナルビー</title>
<polygon fill="lightcoral" stroke="lightcoral" points="525.88,-303 395.88,-303 395.88,-226 525.88,-226 525.88,-303"/>
<image xlink:href="img/mob.png" width="100px" height="77px" preserveAspectRatio="xMinYMin meet" x="410.875" y="-303"/>
<text text-anchor="middle" x="460.88" y="-258.7" font-family="MS Gothic" font-size="14.00">ネヴアーナルビー</text>
</g>
<!-- ネヴアーナルビー&#45;&gt;ホワイトナルビー -->
<g id="edge6" class="edge">
<title>ネヴアーナルビー&#45;&gt;ホワイトナルビー</title>
<path fill="none" stroke="black" d="M412.4,-225.61C400.75,-216.5 388.2,-206.69 376.18,-197.3"/>
<polygon fill="black" stroke="black" points="378.35,-194.55 368.32,-191.15 374.04,-200.07 378.35,-194.55"/>
</g>
</g>
</svg>
