<?xml version="1.0" encoding="UTF-8" standalone="no"?>
<!DOCTYPE svg PUBLIC "-//W3C//DTD SVG 1.1//EN"
 "http://www.w3.org/Graphics/SVG/1.1/DTD/svg11.dtd">
<!-- Generated by graphviz version 12.1.2 (20240928.0832)
 -->
<!-- Pages: 1 -->
<svg width="566pt" height="311pt"
 viewBox="0.00 0.00 566.12 311.00" xmlns="http://www.w3.org/2000/svg" xmlns:xlink="http://www.w3.org/1999/xlink">
<g id="graph0" class="graph" transform="scale(1 1) rotate(0) translate(4 307)">
<polygon fill="white" stroke="none" points="-4,4 -4,-307 562.12,-307 562.12,4 -4,4"/>
<!-- カワカミプリンセス -->
<g id="node1" class="node">
<title>カワカミプリンセス</title>
<polygon fill="none" stroke="black" points="382.75,-77 211.5,-77 211.5,0 382.75,0 382.75,-77"/>
<image xlink:href="img/kawakamipurinsesu.png" width="100px" height="77px" preserveAspectRatio="xMinYMin meet" x="247.125" y="-77"/>
<text text-anchor="middle" x="297.12" y="-32.33" font-family="Times New Roman,serif" font-size="14.00">カワカミプリンセス</text>
</g>
<!-- キングヘイロー -->
<g id="node2" class="node">
<title>キングヘイロー</title>
<polygon fill="lightblue" stroke="lightblue" points="281,-190 165.25,-190 165.25,-113 281,-113 281,-190"/>
<image xlink:href="img/kinguheiro.png" width="100px" height="77px" preserveAspectRatio="xMinYMin meet" x="173.125" y="-190"/>
<text text-anchor="middle" x="223.12" y="-145.7" font-family="MS Gothic" font-size="14.00">キングヘイロー</text>
</g>
<!-- キングヘイロー&#45;&gt;カワカミプリンセス -->
<g id="edge1" class="edge">
<title>キングヘイロー&#45;&gt;カワカミプリンセス</title>
<path fill="none" stroke="black" d="M248.38,-112.61C253.92,-104.31 259.85,-95.41 265.6,-86.79"/>
<polygon fill="black" stroke="black" points="268.5,-88.74 271.14,-78.48 262.68,-84.86 268.5,-88.74"/>
</g>
<!-- タカノセクレタリー -->
<g id="node3" class="node">
<title>タカノセクレタリー</title>
<polygon fill="lightcoral" stroke="lightcoral" points="443.25,-190 299,-190 299,-113 443.25,-113 443.25,-190"/>
<image xlink:href="img/mob.png" width="100px" height="77px" preserveAspectRatio="xMinYMin meet" x="321.125" y="-190"/>
<text text-anchor="middle" x="371.12" y="-145.7" font-family="MS Gothic" font-size="14.00">タカノセクレタリー</text>
</g>
<!-- タカノセクレタリー&#45;&gt;カワカミプリンセス -->
<g id="edge2" class="edge">
<title>タカノセクレタリー&#45;&gt;カワカミプリンセス</title>
<path fill="none" stroke="black" d="M345.87,-112.61C340.33,-104.31 334.4,-95.41 328.65,-86.79"/>
<polygon fill="black" stroke="black" points="331.57,-84.86 323.11,-78.48 325.75,-88.74 331.57,-84.86"/>
</g>
<!-- ダンシングブレーヴ -->
<g id="node4" class="node">
<title>ダンシングブレーヴ</title>
<polygon fill="lightblue" stroke="lightblue" points="144.25,-303 0,-303 0,-226 144.25,-226 144.25,-303"/>
<image xlink:href="img/mob.png" width="100px" height="77px" preserveAspectRatio="xMinYMin meet" x="22.125" y="-303"/>
<text text-anchor="middle" x="72.12" y="-258.7" font-family="MS Gothic" font-size="14.00">ダンシングブレーヴ</text>
</g>
<!-- ダンシングブレーヴ&#45;&gt;キングヘイロー -->
<g id="edge3" class="edge">
<title>ダンシングブレーヴ&#45;&gt;キングヘイロー</title>
<path fill="none" stroke="black" d="M123.67,-225.61C136.11,-216.46 149.52,-206.6 162.35,-197.18"/>
<polygon fill="black" stroke="black" points="164.35,-200.05 170.34,-191.3 160.21,-194.41 164.35,-200.05"/>
</g>
<!-- グッバイヘイロー -->
<g id="node5" class="node">
<title>グッバイヘイロー</title>
<polygon fill="lightcoral" stroke="lightcoral" points="292.12,-303 162.12,-303 162.12,-226 292.12,-226 292.12,-303"/>
<image xlink:href="img/mob.png" width="100px" height="77px" preserveAspectRatio="xMinYMin meet" x="177.125" y="-303"/>
<text text-anchor="middle" x="227.12" y="-258.7" font-family="MS Gothic" font-size="14.00">グッバイヘイロー</text>
</g>
<!-- グッバイヘイロー&#45;&gt;キングヘイロー -->
<g id="edge4" class="edge">
<title>グッバイヘイロー&#45;&gt;キングヘイロー</title>
<path fill="none" stroke="black" d="M225.76,-225.61C225.48,-217.84 225.18,-209.56 224.89,-201.46"/>
<polygon fill="black" stroke="black" points="228.4,-201.6 224.54,-191.73 221.4,-201.85 228.4,-201.6"/>
</g>
<!-- Seattle Slew -->
<g id="node6" class="node">
<title>Seattle Slew</title>
<polygon fill="lightblue" stroke="lightblue" points="415.62,-303 318.62,-303 318.62,-226 415.62,-226 415.62,-303"/>
<image xlink:href="img/mob.png" width="97px" height="77px" preserveAspectRatio="xMinYMin meet" x="318.625" y="-303"/>
<text text-anchor="middle" x="367.12" y="-258.7" font-family="MS Gothic" font-size="14.00">Seattle Slew</text>
</g>
<!-- Seattle Slew&#45;&gt;タカノセクレタリー -->
<g id="edge5" class="edge">
<title>Seattle Slew&#45;&gt;タカノセクレタリー</title>
<path fill="none" stroke="black" d="M368.49,-225.61C368.77,-217.84 369.07,-209.56 369.36,-201.46"/>
<polygon fill="black" stroke="black" points="372.85,-201.85 369.71,-191.73 365.85,-201.6 372.85,-201.85"/>
</g>
<!-- Summer Secretary -->
<g id="node7" class="node">
<title>Summer Secretary</title>
<polygon fill="lightcoral" stroke="lightcoral" points="558.12,-303 434.12,-303 434.12,-226 558.12,-226 558.12,-303"/>
<image xlink:href="img/mob.png" width="100px" height="77px" preserveAspectRatio="xMinYMin meet" x="446.125" y="-303"/>
<text text-anchor="middle" x="496.12" y="-258.7" font-family="MS Gothic" font-size="14.00">Summer Secretary</text>
</g>
<!-- Summer Secretary&#45;&gt;タカノセクレタリー -->
<g id="edge6" class="edge">
<title>Summer Secretary&#45;&gt;タカノセクレタリー</title>
<path fill="none" stroke="black" d="M453.46,-225.61C443.4,-216.68 432.58,-207.07 422.2,-197.85"/>
<polygon fill="black" stroke="black" points="424.53,-195.25 414.73,-191.22 419.89,-200.48 424.53,-195.25"/>
</g>
</g>
</svg>
