<?xml version="1.0" encoding="UTF-8" standalone="no"?>
<!DOCTYPE svg PUBLIC "-//W3C//DTD SVG 1.1//EN"
 "http://www.w3.org/Graphics/SVG/1.1/DTD/svg11.dtd">
<!-- Generated by graphviz version 12.1.2 (20240928.0832)
 -->
<!-- Pages: 1 -->
<svg width="2112pt" height="2571pt"
 viewBox="0.00 0.00 2112.12 2571.00" xmlns="http://www.w3.org/2000/svg" xmlns:xlink="http://www.w3.org/1999/xlink">
<g id="graph0" class="graph" transform="scale(1 1) rotate(0) translate(4 2567)">
<polygon fill="white" stroke="none" points="-4,4 -4,-2567 2108.12,-2567 2108.12,4 -4,4"/>
<!-- カルストンライトオ -->
<g id="node1" class="node">
<title>カルストンライトオ</title>
<polygon fill="none" stroke="black" points="1868.75,-77 1697.5,-77 1697.5,0 1868.75,0 1868.75,-77"/>
<image xlink:href="img/karusutonraitoo.png" width="100px" height="77px" preserveAspectRatio="xMinYMin meet" x="1733.12" y="-77"/>
<text text-anchor="middle" x="1783.12" y="-32.33" font-family="Times New Roman,serif" font-size="14.00">カルストンライトオ</text>
</g>
<!-- ウォーニング -->
<g id="node2" class="node">
<title>ウォーニング</title>
<polygon fill="lightblue" stroke="lightblue" points="1747.88,-190 1646.38,-190 1646.38,-113 1747.88,-113 1747.88,-190"/>
<image xlink:href="img/mob.png" width="100px" height="77px" preserveAspectRatio="xMinYMin meet" x="1647.12" y="-190"/>
<text text-anchor="middle" x="1697.12" y="-145.7" font-family="MS Gothic" font-size="14.00">ウォーニング</text>
</g>
<!-- ウォーニング&#45;&gt;カルストンライトオ -->
<g id="edge1" class="edge">
<title>ウォーニング&#45;&gt;カルストンライトオ</title>
<path fill="none" stroke="black" d="M1726.48,-112.61C1733.05,-104.13 1740.1,-95.03 1746.91,-86.24"/>
<polygon fill="black" stroke="black" points="1749.62,-88.46 1752.97,-78.42 1744.08,-84.18 1749.62,-88.46"/>
</g>
<!-- オオシマルチア -->
<g id="node3" class="node">
<title>オオシマルチア</title>
<polygon fill="lightcoral" stroke="lightcoral" points="1928,-190 1812.25,-190 1812.25,-113 1928,-113 1928,-190"/>
<image xlink:href="img/mob.png" width="100px" height="77px" preserveAspectRatio="xMinYMin meet" x="1820.12" y="-190"/>
<text text-anchor="middle" x="1870.12" y="-145.7" font-family="MS Gothic" font-size="14.00">オオシマルチア</text>
</g>
<!-- オオシマルチア&#45;&gt;カルストンライトオ -->
<g id="edge2" class="edge">
<title>オオシマルチア&#45;&gt;カルストンライトオ</title>
<path fill="none" stroke="black" d="M1840.43,-112.61C1833.78,-104.13 1826.65,-95.03 1819.76,-86.24"/>
<polygon fill="black" stroke="black" points="1822.55,-84.12 1813.62,-78.41 1817.04,-88.44 1822.55,-84.12"/>
</g>
<!-- Known Fact -->
<g id="node4" class="node">
<title>Known Fact</title>
<polygon fill="lightblue" stroke="lightblue" points="1609.88,-303 1526.38,-303 1526.38,-226 1609.88,-226 1609.88,-303"/>
<image xlink:href="img/mob.png" width="83.5px" height="77px" preserveAspectRatio="xMinYMin meet" x="1526.38" y="-303"/>
<text text-anchor="middle" x="1568.12" y="-258.7" font-family="MS Gothic" font-size="14.00">Known Fact</text>
</g>
<!-- Known Fact&#45;&gt;ウォーニング -->
<g id="edge3" class="edge">
<title>Known Fact&#45;&gt;ウォーニング</title>
<path fill="none" stroke="black" d="M1610.36,-227.15C1621.26,-217.78 1633.11,-207.58 1644.46,-197.81"/>
<polygon fill="black" stroke="black" points="1646.57,-200.62 1651.87,-191.44 1642.01,-195.31 1646.57,-200.62"/>
</g>
<!-- Slightly Dangerous -->
<g id="node5" class="node">
<title>Slightly Dangerous</title>
<polygon fill="lightcoral" stroke="lightcoral" points="1765.88,-303 1628.38,-303 1628.38,-226 1765.88,-226 1765.88,-303"/>
<image xlink:href="img/mob.png" width="100px" height="77px" preserveAspectRatio="xMinYMin meet" x="1647.12" y="-303"/>
<text text-anchor="middle" x="1697.12" y="-258.7" font-family="MS Gothic" font-size="14.00">Slightly Dangerous</text>
</g>
<!-- Slightly Dangerous&#45;&gt;ウォーニング -->
<g id="edge4" class="edge">
<title>Slightly Dangerous&#45;&gt;ウォーニング</title>
<path fill="none" stroke="black" d="M1697.12,-225.61C1697.12,-217.84 1697.12,-209.56 1697.12,-201.46"/>
<polygon fill="black" stroke="black" points="1700.63,-201.73 1697.13,-191.73 1693.63,-201.73 1700.63,-201.73"/>
</g>
<!-- クリスタルグリッターズ -->
<g id="node6" class="node">
<title>クリスタルグリッターズ</title>
<polygon fill="lightblue" stroke="lightblue" points="1956.5,-303 1783.75,-303 1783.75,-226 1956.5,-226 1956.5,-303"/>
<image xlink:href="img/mob.png" width="100px" height="77px" preserveAspectRatio="xMinYMin meet" x="1820.12" y="-303"/>
<text text-anchor="middle" x="1870.12" y="-258.7" font-family="MS Gothic" font-size="14.00">クリスタルグリッターズ</text>
</g>
<!-- クリスタルグリッターズ&#45;&gt;オオシマルチア -->
<g id="edge5" class="edge">
<title>クリスタルグリッターズ&#45;&gt;オオシマルチア</title>
<path fill="none" stroke="black" d="M1870.12,-225.61C1870.12,-217.84 1870.12,-209.56 1870.12,-201.46"/>
<polygon fill="black" stroke="black" points="1873.63,-201.73 1870.13,-191.73 1866.63,-201.73 1873.63,-201.73"/>
</g>
<!-- オオシマスズラン -->
<g id="node7" class="node">
<title>オオシマスズラン</title>
<polygon fill="lightcoral" stroke="lightcoral" points="2104.12,-303 1974.12,-303 1974.12,-226 2104.12,-226 2104.12,-303"/>
<image xlink:href="img/mob.png" width="100px" height="77px" preserveAspectRatio="xMinYMin meet" x="1989.12" y="-303"/>
<text text-anchor="middle" x="2039.12" y="-258.7" font-family="MS Gothic" font-size="14.00">オオシマスズラン</text>
</g>
<!-- オオシマスズラン&#45;&gt;オオシマルチア -->
<g id="edge6" class="edge">
<title>オオシマスズラン&#45;&gt;オオシマルチア</title>
<path fill="none" stroke="black" d="M1981.44,-225.61C1967.24,-216.29 1951.92,-206.22 1937.31,-196.63"/>
<polygon fill="black" stroke="black" points="1939.38,-193.8 1929.1,-191.24 1935.54,-199.65 1939.38,-193.8"/>
</g>
<!-- In Reality -->
<g id="node8" class="node">
<title>In Reality</title>
<polygon fill="lightblue" stroke="lightblue" points="1557.88,-416 1474.38,-416 1474.38,-339 1557.88,-339 1557.88,-416"/>
<image xlink:href="img/mob.png" width="83.5px" height="77px" preserveAspectRatio="xMinYMin meet" x="1474.38" y="-416"/>
<text text-anchor="middle" x="1516.12" y="-371.7" font-family="MS Gothic" font-size="14.00">In Reality</text>
</g>
<!-- In Reality&#45;&gt;Known Fact -->
<g id="edge7" class="edge">
<title>In Reality&#45;&gt;Known Fact</title>
<path fill="none" stroke="black" d="M1533.88,-338.61C1537.64,-330.57 1541.66,-321.99 1545.58,-313.63"/>
<polygon fill="black" stroke="black" points="1548.74,-315.13 1549.81,-304.59 1542.4,-312.16 1548.74,-315.13"/>
</g>
<!-- Tamerett -->
<g id="node9" class="node">
<title>Tamerett</title>
<polygon fill="lightcoral" stroke="lightcoral" points="1659.62,-416 1582.62,-416 1582.62,-339 1659.62,-339 1659.62,-416"/>
<image xlink:href="img/mob.png" width="77px" height="77px" preserveAspectRatio="xMinYMin meet" x="1582.62" y="-416"/>
<text text-anchor="middle" x="1621.12" y="-371.7" font-family="MS Gothic" font-size="14.00">Tamerett</text>
</g>
<!-- Tamerett&#45;&gt;Known Fact -->
<g id="edge8" class="edge">
<title>Tamerett&#45;&gt;Known Fact</title>
<path fill="none" stroke="black" d="M1603.03,-338.61C1599.15,-330.48 1595.01,-321.8 1590.97,-313.35"/>
<polygon fill="black" stroke="black" points="1594.25,-312.1 1586.79,-304.58 1587.94,-315.12 1594.25,-312.1"/>
</g>
<!-- Intentionally -->
<g id="node10" class="node">
<title>Intentionally</title>
<polygon fill="lightblue" stroke="lightblue" points="1450,-529 1346.25,-529 1346.25,-452 1450,-452 1450,-529"/>
<image xlink:href="img/mob.png" width="100px" height="77px" preserveAspectRatio="xMinYMin meet" x="1348.12" y="-529"/>
<text text-anchor="middle" x="1398.12" y="-484.7" font-family="MS Gothic" font-size="14.00">Intentionally</text>
</g>
<!-- Intentionally&#45;&gt;In Reality -->
<g id="edge9" class="edge">
<title>Intentionally&#45;&gt;In Reality</title>
<path fill="none" stroke="black" d="M1438.4,-451.61C1447.9,-442.68 1458.11,-433.07 1467.91,-423.85"/>
<polygon fill="black" stroke="black" points="1470.04,-426.66 1474.93,-417.26 1465.24,-421.56 1470.04,-426.66"/>
</g>
<!-- My Dear Girl -->
<g id="node11" class="node">
<title>My Dear Girl</title>
<polygon fill="lightcoral" stroke="lightcoral" points="1564.62,-529 1467.62,-529 1467.62,-452 1564.62,-452 1564.62,-529"/>
<image xlink:href="img/mob.png" width="97px" height="77px" preserveAspectRatio="xMinYMin meet" x="1467.62" y="-529"/>
<text text-anchor="middle" x="1516.12" y="-484.7" font-family="MS Gothic" font-size="14.00">My Dear Girl</text>
</g>
<!-- My Dear Girl&#45;&gt;In Reality -->
<g id="edge10" class="edge">
<title>My Dear Girl&#45;&gt;In Reality</title>
<path fill="none" stroke="black" d="M1516.12,-451.61C1516.12,-443.84 1516.12,-435.56 1516.12,-427.46"/>
<polygon fill="black" stroke="black" points="1519.63,-427.73 1516.13,-417.73 1512.63,-427.73 1519.63,-427.73"/>
</g>
<!-- Tim Tam -->
<g id="node12" class="node">
<title>Tim Tam</title>
<polygon fill="lightblue" stroke="lightblue" points="1659.62,-529 1582.62,-529 1582.62,-452 1659.62,-452 1659.62,-529"/>
<image xlink:href="img/mob.png" width="77px" height="77px" preserveAspectRatio="xMinYMin meet" x="1582.62" y="-529"/>
<text text-anchor="middle" x="1621.12" y="-484.7" font-family="MS Gothic" font-size="14.00">Tim Tam</text>
</g>
<!-- Tim Tam&#45;&gt;Tamerett -->
<g id="edge11" class="edge">
<title>Tim Tam&#45;&gt;Tamerett</title>
<path fill="none" stroke="black" d="M1621.12,-451.61C1621.12,-443.84 1621.12,-435.56 1621.12,-427.46"/>
<polygon fill="black" stroke="black" points="1624.63,-427.73 1621.13,-417.73 1617.63,-427.73 1624.63,-427.73"/>
</g>
<!-- Mixed Marriage -->
<g id="node13" class="node">
<title>Mixed Marriage</title>
<polygon fill="lightcoral" stroke="lightcoral" points="1788.38,-529 1677.88,-529 1677.88,-452 1788.38,-452 1788.38,-529"/>
<image xlink:href="img/mob.png" width="100px" height="77px" preserveAspectRatio="xMinYMin meet" x="1683.12" y="-529"/>
<text text-anchor="middle" x="1733.12" y="-484.7" font-family="MS Gothic" font-size="14.00">Mixed Marriage</text>
</g>
<!-- Mixed Marriage&#45;&gt;Tamerett -->
<g id="edge12" class="edge">
<title>Mixed Marriage&#45;&gt;Tamerett</title>
<path fill="none" stroke="black" d="M1694.89,-451.61C1685.97,-442.77 1676.38,-433.26 1667.16,-424.13"/>
<polygon fill="black" stroke="black" points="1669.83,-421.84 1660.26,-417.28 1664.9,-426.81 1669.83,-421.84"/>
</g>
<!-- Intent -->
<g id="node14" class="node">
<title>Intent</title>
<polygon fill="lightblue" stroke="lightblue" points="1389.62,-642 1312.62,-642 1312.62,-565 1389.62,-565 1389.62,-642"/>
<image xlink:href="img/mob.png" width="77px" height="77px" preserveAspectRatio="xMinYMin meet" x="1312.62" y="-642"/>
<text text-anchor="middle" x="1351.12" y="-597.7" font-family="MS Gothic" font-size="14.00">Intent</text>
</g>
<!-- Intent&#45;&gt;Intentionally -->
<g id="edge13" class="edge">
<title>Intent&#45;&gt;Intentionally</title>
<path fill="none" stroke="black" d="M1367.17,-564.61C1370.57,-556.57 1374.21,-547.99 1377.75,-539.63"/>
<polygon fill="black" stroke="black" points="1380.89,-541.19 1381.56,-530.61 1374.44,-538.46 1380.89,-541.19"/>
</g>
<!-- My Recipe -->
<g id="node15" class="node">
<title>My Recipe</title>
<polygon fill="lightcoral" stroke="lightcoral" points="1484.62,-642 1407.62,-642 1407.62,-565 1484.62,-565 1484.62,-642"/>
<image xlink:href="img/mob.png" width="77px" height="77px" preserveAspectRatio="xMinYMin meet" x="1407.62" y="-642"/>
<text text-anchor="middle" x="1446.12" y="-597.7" font-family="MS Gothic" font-size="14.00">My Recipe</text>
</g>
<!-- My Recipe&#45;&gt;Intentionally -->
<g id="edge14" class="edge">
<title>My Recipe&#45;&gt;Intentionally</title>
<path fill="none" stroke="black" d="M1429.74,-564.61C1426.26,-556.57 1422.55,-547.99 1418.94,-539.63"/>
<polygon fill="black" stroke="black" points="1422.22,-538.4 1415.04,-530.61 1415.79,-541.18 1422.22,-538.4"/>
</g>
<!-- War Relic -->
<g id="node16" class="node">
<title>War Relic</title>
<polygon fill="lightblue" stroke="lightblue" points="1294.62,-755 1217.62,-755 1217.62,-678 1294.62,-678 1294.62,-755"/>
<image xlink:href="img/mob.png" width="77px" height="77px" preserveAspectRatio="xMinYMin meet" x="1217.62" y="-755"/>
<text text-anchor="middle" x="1256.12" y="-710.7" font-family="MS Gothic" font-size="14.00">War Relic</text>
</g>
<!-- War Relic&#45;&gt;Intent -->
<g id="edge15" class="edge">
<title>War Relic&#45;&gt;Intent</title>
<path fill="none" stroke="black" d="M1288.55,-677.61C1295.89,-669.04 1303.76,-659.84 1311.36,-650.96"/>
<polygon fill="black" stroke="black" points="1314.02,-653.24 1317.86,-643.37 1308.7,-648.69 1314.02,-653.24"/>
</g>
<!-- Liz F. -->
<g id="node17" class="node">
<title>Liz F.</title>
<polygon fill="lightcoral" stroke="lightcoral" points="1389.62,-755 1312.62,-755 1312.62,-678 1389.62,-678 1389.62,-755"/>
<image xlink:href="img/mob.png" width="77px" height="77px" preserveAspectRatio="xMinYMin meet" x="1312.62" y="-755"/>
<text text-anchor="middle" x="1351.12" y="-710.7" font-family="MS Gothic" font-size="14.00">Liz F.</text>
</g>
<!-- Liz F.&#45;&gt;Intent -->
<g id="edge16" class="edge">
<title>Liz F.&#45;&gt;Intent</title>
<path fill="none" stroke="black" d="M1351.12,-677.61C1351.12,-669.84 1351.12,-661.56 1351.12,-653.46"/>
<polygon fill="black" stroke="black" points="1354.63,-653.73 1351.13,-643.73 1347.63,-653.73 1354.63,-653.73"/>
</g>
<!-- Discovery -->
<g id="node18" class="node">
<title>Discovery</title>
<polygon fill="lightblue" stroke="lightblue" points="1484.62,-755 1407.62,-755 1407.62,-678 1484.62,-678 1484.62,-755"/>
<image xlink:href="img/mob.png" width="77px" height="77px" preserveAspectRatio="xMinYMin meet" x="1407.62" y="-755"/>
<text text-anchor="middle" x="1446.12" y="-710.7" font-family="MS Gothic" font-size="14.00">Discovery</text>
</g>
<!-- Discovery&#45;&gt;My Recipe -->
<g id="edge17" class="edge">
<title>Discovery&#45;&gt;My Recipe</title>
<path fill="none" stroke="black" d="M1446.12,-677.61C1446.12,-669.84 1446.12,-661.56 1446.12,-653.46"/>
<polygon fill="black" stroke="black" points="1449.63,-653.73 1446.13,-643.73 1442.63,-653.73 1449.63,-653.73"/>
</g>
<!-- Perlette -->
<g id="node19" class="node">
<title>Perlette</title>
<polygon fill="lightcoral" stroke="lightcoral" points="1579.62,-755 1502.62,-755 1502.62,-678 1579.62,-678 1579.62,-755"/>
<image xlink:href="img/mob.png" width="77px" height="77px" preserveAspectRatio="xMinYMin meet" x="1502.62" y="-755"/>
<text text-anchor="middle" x="1541.12" y="-710.7" font-family="MS Gothic" font-size="14.00">Perlette</text>
</g>
<!-- Perlette&#45;&gt;My Recipe -->
<g id="edge18" class="edge">
<title>Perlette&#45;&gt;My Recipe</title>
<path fill="none" stroke="black" d="M1508.7,-677.61C1501.36,-669.04 1493.49,-659.84 1485.89,-650.96"/>
<polygon fill="black" stroke="black" points="1488.55,-648.69 1479.39,-643.37 1483.23,-653.24 1488.55,-648.69"/>
</g>
<!-- Man o&#39;War -->
<g id="node20" class="node">
<title>Man o&#39;War</title>
<polygon fill="lightblue" stroke="lightblue" points="1240.62,-868 1163.62,-868 1163.62,-791 1240.62,-791 1240.62,-868"/>
<image xlink:href="img/mob.png" width="77px" height="77px" preserveAspectRatio="xMinYMin meet" x="1163.62" y="-868"/>
<text text-anchor="middle" x="1202.12" y="-823.7" font-family="MS Gothic" font-size="14.00">Man o&#39;War</text>
</g>
<!-- Man o&#39;War&#45;&gt;War Relic -->
<g id="edge19" class="edge">
<title>Man o&#39;War&#45;&gt;War Relic</title>
<path fill="none" stroke="black" d="M1220.56,-790.61C1224.51,-782.48 1228.74,-773.8 1232.85,-765.35"/>
<polygon fill="black" stroke="black" points="1235.89,-767.1 1237.11,-756.58 1229.59,-764.04 1235.89,-767.1"/>
</g>
<!-- Friar&#39;s Carse -->
<g id="node21" class="node">
<title>Friar&#39;s Carse</title>
<polygon fill="lightcoral" stroke="lightcoral" points="1362,-868 1258.25,-868 1258.25,-791 1362,-791 1362,-868"/>
<image xlink:href="img/mob.png" width="100px" height="77px" preserveAspectRatio="xMinYMin meet" x="1260.12" y="-868"/>
<text text-anchor="middle" x="1310.12" y="-823.7" font-family="MS Gothic" font-size="14.00">Friar&#39;s Carse</text>
</g>
<!-- Friar&#39;s Carse&#45;&gt;War Relic -->
<g id="edge20" class="edge">
<title>Friar&#39;s Carse&#45;&gt;War Relic</title>
<path fill="none" stroke="black" d="M1291.69,-790.61C1287.74,-782.48 1283.51,-773.8 1279.4,-765.35"/>
<polygon fill="black" stroke="black" points="1282.66,-764.04 1275.14,-756.58 1276.36,-767.1 1282.66,-764.04"/>
</g>
<!-- Fair Play -->
<g id="node22" class="node">
<title>Fair Play</title>
<polygon fill="lightblue" stroke="lightblue" points="1148.62,-981 1071.62,-981 1071.62,-904 1148.62,-904 1148.62,-981"/>
<image xlink:href="img/mob.png" width="77px" height="77px" preserveAspectRatio="xMinYMin meet" x="1071.62" y="-981"/>
<text text-anchor="middle" x="1110.12" y="-936.7" font-family="MS Gothic" font-size="14.00">Fair Play</text>
</g>
<!-- Fair Play&#45;&gt;Man o&#39;War -->
<g id="edge21" class="edge">
<title>Fair Play&#45;&gt;Man o&#39;War</title>
<path fill="none" stroke="black" d="M1141.53,-903.61C1148.63,-895.04 1156.26,-885.84 1163.62,-876.96"/>
<polygon fill="black" stroke="black" points="1166.21,-879.32 1169.9,-869.38 1160.82,-874.85 1166.21,-879.32"/>
</g>
<!-- Mahubah -->
<g id="node23" class="node">
<title>Mahubah</title>
<polygon fill="lightcoral" stroke="lightcoral" points="1243.62,-981 1166.62,-981 1166.62,-904 1243.62,-904 1243.62,-981"/>
<image xlink:href="img/mob.png" width="77px" height="77px" preserveAspectRatio="xMinYMin meet" x="1166.62" y="-981"/>
<text text-anchor="middle" x="1205.12" y="-936.7" font-family="MS Gothic" font-size="14.00">Mahubah</text>
</g>
<!-- Mahubah&#45;&gt;Man o&#39;War -->
<g id="edge22" class="edge">
<title>Mahubah&#45;&gt;Man o&#39;War</title>
<path fill="none" stroke="black" d="M1204.1,-903.61C1203.89,-895.84 1203.67,-887.56 1203.45,-879.46"/>
<polygon fill="black" stroke="black" points="1206.95,-879.63 1203.19,-869.73 1199.96,-879.82 1206.95,-879.63"/>
</g>
<!-- Friar Rock -->
<g id="node24" class="node">
<title>Friar Rock</title>
<polygon fill="lightblue" stroke="lightblue" points="1349.88,-981 1266.38,-981 1266.38,-904 1349.88,-904 1349.88,-981"/>
<image xlink:href="img/mob.png" width="83.5px" height="77px" preserveAspectRatio="xMinYMin meet" x="1266.38" y="-981"/>
<text text-anchor="middle" x="1308.12" y="-936.7" font-family="MS Gothic" font-size="14.00">Friar Rock</text>
</g>
<!-- Friar Rock&#45;&gt;Friar&#39;s Carse -->
<g id="edge23" class="edge">
<title>Friar Rock&#45;&gt;Friar&#39;s Carse</title>
<path fill="none" stroke="black" d="M1308.81,-903.61C1308.95,-895.84 1309.1,-887.56 1309.24,-879.46"/>
<polygon fill="black" stroke="black" points="1312.74,-879.79 1309.42,-869.73 1305.74,-879.67 1312.74,-879.79"/>
</g>
<!-- Problem -->
<g id="node25" class="node">
<title>Problem</title>
<polygon fill="lightcoral" stroke="lightcoral" points="1444.62,-981 1367.62,-981 1367.62,-904 1444.62,-904 1444.62,-981"/>
<image xlink:href="img/mob.png" width="77px" height="77px" preserveAspectRatio="xMinYMin meet" x="1367.62" y="-981"/>
<text text-anchor="middle" x="1406.12" y="-936.7" font-family="MS Gothic" font-size="14.00">Problem</text>
</g>
<!-- Problem&#45;&gt;Friar&#39;s Carse -->
<g id="edge24" class="edge">
<title>Problem&#45;&gt;Friar&#39;s Carse</title>
<path fill="none" stroke="black" d="M1373.36,-903.61C1365.86,-894.95 1357.82,-885.65 1350.07,-876.68"/>
<polygon fill="black" stroke="black" points="1352.93,-874.64 1343.74,-869.36 1347.63,-879.22 1352.93,-874.64"/>
</g>
<!-- Hastings -->
<g id="node26" class="node">
<title>Hastings</title>
<polygon fill="lightblue" stroke="lightblue" points="1099.62,-1094 1022.62,-1094 1022.62,-1017 1099.62,-1017 1099.62,-1094"/>
<image xlink:href="img/mob.png" width="77px" height="77px" preserveAspectRatio="xMinYMin meet" x="1022.62" y="-1094"/>
<text text-anchor="middle" x="1061.12" y="-1049.7" font-family="MS Gothic" font-size="14.00">Hastings</text>
</g>
<!-- Hastings&#45;&gt;Fair Play -->
<g id="edge25" class="edge">
<title>Hastings&#45;&gt;Fair Play</title>
<path fill="none" stroke="black" d="M1077.85,-1016.61C1081.4,-1008.57 1085.19,-999.99 1088.88,-991.63"/>
<polygon fill="black" stroke="black" points="1092.03,-993.17 1092.86,-982.6 1085.62,-990.34 1092.03,-993.17"/>
</g>
<!-- Fairy Gold -->
<g id="node27" class="node">
<title>Fairy Gold</title>
<polygon fill="lightcoral" stroke="lightcoral" points="1200.88,-1094 1117.38,-1094 1117.38,-1017 1200.88,-1017 1200.88,-1094"/>
<image xlink:href="img/mob.png" width="83.5px" height="77px" preserveAspectRatio="xMinYMin meet" x="1117.38" y="-1094"/>
<text text-anchor="middle" x="1159.12" y="-1049.7" font-family="MS Gothic" font-size="14.00">Fairy Gold</text>
</g>
<!-- Fairy Gold&#45;&gt;Fair Play -->
<g id="edge26" class="edge">
<title>Fairy Gold&#45;&gt;Fair Play</title>
<path fill="none" stroke="black" d="M1142.4,-1016.61C1138.85,-1008.57 1135.06,-999.99 1131.37,-991.63"/>
<polygon fill="black" stroke="black" points="1134.63,-990.34 1127.39,-982.6 1128.22,-993.17 1134.63,-990.34"/>
</g>
<!-- Spendthrift -->
<g id="node28" class="node">
<title>Spendthrift</title>
<polygon fill="lightblue" stroke="lightblue" points="1001.25,-1207 911,-1207 911,-1130 1001.25,-1130 1001.25,-1207"/>
<image xlink:href="img/mob.png" width="90.25px" height="77px" preserveAspectRatio="xMinYMin meet" x="911" y="-1207"/>
<text text-anchor="middle" x="956.12" y="-1162.7" font-family="MS Gothic" font-size="14.00">Spendthrift</text>
</g>
<!-- Spendthrift&#45;&gt;Hastings -->
<g id="edge27" class="edge">
<title>Spendthrift&#45;&gt;Hastings</title>
<path fill="none" stroke="black" d="M991.97,-1129.61C1000.24,-1120.86 1009.14,-1111.46 1017.7,-1102.4"/>
<polygon fill="black" stroke="black" points="1020.08,-1104.99 1024.41,-1095.32 1014.99,-1100.18 1020.08,-1104.99"/>
</g>
<!-- Cinderella -->
<g id="node29" class="node">
<title>Cinderella</title>
<polygon fill="lightcoral" stroke="lightcoral" points="1102.88,-1207 1019.38,-1207 1019.38,-1130 1102.88,-1130 1102.88,-1207"/>
<image xlink:href="img/mob.png" width="83.5px" height="77px" preserveAspectRatio="xMinYMin meet" x="1019.38" y="-1207"/>
<text text-anchor="middle" x="1061.12" y="-1162.7" font-family="MS Gothic" font-size="14.00">Cinderella</text>
</g>
<!-- Cinderella&#45;&gt;Hastings -->
<g id="edge28" class="edge">
<title>Cinderella&#45;&gt;Hastings</title>
<path fill="none" stroke="black" d="M1061.12,-1129.61C1061.12,-1121.84 1061.12,-1113.56 1061.12,-1105.46"/>
<polygon fill="black" stroke="black" points="1064.63,-1105.73 1061.13,-1095.73 1057.63,-1105.73 1064.63,-1105.73"/>
</g>
<!-- Bend Or -->
<g id="node30" class="node">
<title>Bend Or</title>
<polygon fill="lightblue" stroke="lightblue" points="1197.62,-1207 1120.62,-1207 1120.62,-1130 1197.62,-1130 1197.62,-1207"/>
<image xlink:href="img/mob.png" width="77px" height="77px" preserveAspectRatio="xMinYMin meet" x="1120.62" y="-1207"/>
<text text-anchor="middle" x="1159.12" y="-1162.7" font-family="MS Gothic" font-size="14.00">Bend Or</text>
</g>
<!-- Bend Or&#45;&gt;Fairy Gold -->
<g id="edge29" class="edge">
<title>Bend Or&#45;&gt;Fairy Gold</title>
<path fill="none" stroke="black" d="M1159.12,-1129.61C1159.12,-1121.84 1159.12,-1113.56 1159.12,-1105.46"/>
<polygon fill="black" stroke="black" points="1162.63,-1105.73 1159.13,-1095.73 1155.63,-1105.73 1162.63,-1105.73"/>
</g>
<!-- Dame Masham -->
<g id="node31" class="node">
<title>Dame Masham</title>
<polygon fill="lightcoral" stroke="lightcoral" points="1306.25,-1207 1216,-1207 1216,-1130 1306.25,-1130 1306.25,-1207"/>
<image xlink:href="img/mob.png" width="90.25px" height="77px" preserveAspectRatio="xMinYMin meet" x="1216" y="-1207"/>
<text text-anchor="middle" x="1261.12" y="-1162.7" font-family="MS Gothic" font-size="14.00">Dame Masham</text>
</g>
<!-- Dame Masham&#45;&gt;Fairy Gold -->
<g id="edge30" class="edge">
<title>Dame Masham&#45;&gt;Fairy Gold</title>
<path fill="none" stroke="black" d="M1226.31,-1129.61C1218.35,-1120.95 1209.8,-1111.65 1201.56,-1102.68"/>
<polygon fill="black" stroke="black" points="1204.15,-1100.33 1194.81,-1095.33 1199,-1105.06 1204.15,-1100.33"/>
</g>
<!-- Australian -->
<g id="node32" class="node">
<title>Australian</title>
<polygon fill="lightblue" stroke="lightblue" points="948.88,-1320 865.38,-1320 865.38,-1243 948.88,-1243 948.88,-1320"/>
<image xlink:href="img/mob.png" width="83.5px" height="77px" preserveAspectRatio="xMinYMin meet" x="865.375" y="-1320"/>
<text text-anchor="middle" x="907.12" y="-1275.7" font-family="MS Gothic" font-size="14.00">Australian</text>
</g>
<!-- Australian&#45;&gt;Spendthrift -->
<g id="edge31" class="edge">
<title>Australian&#45;&gt;Spendthrift</title>
<path fill="none" stroke="black" d="M923.85,-1242.61C927.4,-1234.57 931.19,-1225.99 934.88,-1217.63"/>
<polygon fill="black" stroke="black" points="938.03,-1219.17 938.86,-1208.6 931.62,-1216.34 938.03,-1219.17"/>
</g>
<!-- Aerolite -->
<g id="node33" class="node">
<title>Aerolite</title>
<polygon fill="lightcoral" stroke="lightcoral" points="1043.62,-1320 966.62,-1320 966.62,-1243 1043.62,-1243 1043.62,-1320"/>
<image xlink:href="img/mob.png" width="77px" height="77px" preserveAspectRatio="xMinYMin meet" x="966.625" y="-1320"/>
<text text-anchor="middle" x="1005.12" y="-1275.7" font-family="MS Gothic" font-size="14.00">Aerolite</text>
</g>
<!-- Aerolite&#45;&gt;Spendthrift -->
<g id="edge32" class="edge">
<title>Aerolite&#45;&gt;Spendthrift</title>
<path fill="none" stroke="black" d="M988.4,-1242.61C984.85,-1234.57 981.06,-1225.99 977.37,-1217.63"/>
<polygon fill="black" stroke="black" points="980.63,-1216.34 973.39,-1208.6 974.22,-1219.17 980.63,-1216.34"/>
</g>
<!-- West Australian -->
<g id="node34" class="node">
<title>West Australian</title>
<polygon fill="lightblue" stroke="lightblue" points="851.75,-1433 734.5,-1433 734.5,-1356 851.75,-1356 851.75,-1433"/>
<image xlink:href="img/mob.png" width="100px" height="77px" preserveAspectRatio="xMinYMin meet" x="743.125" y="-1433"/>
<text text-anchor="middle" x="793.12" y="-1388.7" font-family="MS Gothic" font-size="14.00">West Australian</text>
</g>
<!-- West Australian&#45;&gt;Australian -->
<g id="edge33" class="edge">
<title>West Australian&#45;&gt;Australian</title>
<path fill="none" stroke="black" d="M832.04,-1355.61C841.12,-1346.77 850.88,-1337.26 860.26,-1328.13"/>
<polygon fill="black" stroke="black" points="862.58,-1330.76 867.3,-1321.27 857.7,-1325.74 862.58,-1330.76"/>
</g>
<!-- Emilia -->
<g id="node35" class="node">
<title>Emilia</title>
<polygon fill="lightcoral" stroke="lightcoral" points="946.62,-1433 869.62,-1433 869.62,-1356 946.62,-1356 946.62,-1433"/>
<image xlink:href="img/mob.png" width="77px" height="77px" preserveAspectRatio="xMinYMin meet" x="869.625" y="-1433"/>
<text text-anchor="middle" x="908.12" y="-1388.7" font-family="MS Gothic" font-size="14.00">Emilia</text>
</g>
<!-- Emilia&#45;&gt;Australian -->
<g id="edge34" class="edge">
<title>Emilia&#45;&gt;Australian</title>
<path fill="none" stroke="black" d="M907.78,-1355.61C907.71,-1347.84 907.64,-1339.56 907.57,-1331.46"/>
<polygon fill="black" stroke="black" points="911.07,-1331.7 907.48,-1321.73 904.07,-1331.76 911.07,-1331.7"/>
</g>
<!-- Lexington -->
<g id="node36" class="node">
<title>Lexington</title>
<polygon fill="lightblue" stroke="lightblue" points="1042.62,-1433 965.62,-1433 965.62,-1356 1042.62,-1356 1042.62,-1433"/>
<image xlink:href="img/mob.png" width="77px" height="77px" preserveAspectRatio="xMinYMin meet" x="965.625" y="-1433"/>
<text text-anchor="middle" x="1004.12" y="-1388.7" font-family="MS Gothic" font-size="14.00">Lexington</text>
</g>
<!-- Lexington&#45;&gt;Aerolite -->
<g id="edge35" class="edge">
<title>Lexington&#45;&gt;Aerolite</title>
<path fill="none" stroke="black" d="M1004.47,-1355.61C1004.54,-1347.84 1004.61,-1339.56 1004.68,-1331.46"/>
<polygon fill="black" stroke="black" points="1008.18,-1331.76 1004.77,-1321.73 1001.18,-1331.7 1008.18,-1331.76"/>
</g>
<!-- Florine -->
<g id="node37" class="node">
<title>Florine</title>
<polygon fill="lightcoral" stroke="lightcoral" points="1137.62,-1433 1060.62,-1433 1060.62,-1356 1137.62,-1356 1137.62,-1433"/>
<image xlink:href="img/mob.png" width="77px" height="77px" preserveAspectRatio="xMinYMin meet" x="1060.62" y="-1433"/>
<text text-anchor="middle" x="1099.12" y="-1388.7" font-family="MS Gothic" font-size="14.00">Florine</text>
</g>
<!-- Florine&#45;&gt;Aerolite -->
<g id="edge36" class="edge">
<title>Florine&#45;&gt;Aerolite</title>
<path fill="none" stroke="black" d="M1067.04,-1355.61C1059.78,-1347.04 1051.99,-1337.84 1044.47,-1328.96"/>
<polygon fill="black" stroke="black" points="1047.18,-1326.74 1038.05,-1321.37 1041.84,-1331.27 1047.18,-1326.74"/>
</g>
<!-- Melbourne -->
<g id="node38" class="node">
<title>Melbourne</title>
<polygon fill="lightblue" stroke="lightblue" points="774.62,-1546 697.62,-1546 697.62,-1469 774.62,-1469 774.62,-1546"/>
<image xlink:href="img/mob.png" width="77px" height="77px" preserveAspectRatio="xMinYMin meet" x="697.625" y="-1546"/>
<text text-anchor="middle" x="736.12" y="-1501.7" font-family="MS Gothic" font-size="14.00">Melbourne</text>
</g>
<!-- Melbourne&#45;&gt;West Australian -->
<g id="edge37" class="edge">
<title>Melbourne&#45;&gt;West Australian</title>
<path fill="none" stroke="black" d="M755.58,-1468.61C759.75,-1460.48 764.22,-1451.8 768.55,-1443.35"/>
<polygon fill="black" stroke="black" points="771.61,-1445.06 773.06,-1434.57 765.38,-1441.86 771.61,-1445.06"/>
</g>
<!-- Mowerina -->
<g id="node39" class="node">
<title>Mowerina</title>
<polygon fill="lightcoral" stroke="lightcoral" points="889.62,-1546 812.62,-1546 812.62,-1469 889.62,-1469 889.62,-1546"/>
<image xlink:href="img/mob.png" width="77px" height="77px" preserveAspectRatio="xMinYMin meet" x="812.625" y="-1546"/>
<text text-anchor="middle" x="851.12" y="-1501.7" font-family="MS Gothic" font-size="14.00">Mowerina</text>
</g>
<!-- Mowerina&#45;&gt;West Australian -->
<g id="edge38" class="edge">
<title>Mowerina&#45;&gt;West Australian</title>
<path fill="none" stroke="black" d="M831.33,-1468.61C827.08,-1460.48 822.54,-1451.8 818.13,-1443.35"/>
<polygon fill="black" stroke="black" points="821.27,-1441.8 813.53,-1434.56 815.06,-1445.04 821.27,-1441.8"/>
</g>
<!-- Humphrey Clinker -->
<g id="node40" class="node">
<title>Humphrey Clinker</title>
<polygon fill="lightblue" stroke="lightblue" points="663.12,-1659 539.12,-1659 539.12,-1582 663.12,-1582 663.12,-1659"/>
<image xlink:href="img/mob.png" width="100px" height="77px" preserveAspectRatio="xMinYMin meet" x="551.125" y="-1659"/>
<text text-anchor="middle" x="601.12" y="-1614.7" font-family="MS Gothic" font-size="14.00">Humphrey Clinker</text>
</g>
<!-- Humphrey Clinker&#45;&gt;Melbourne -->
<g id="edge39" class="edge">
<title>Humphrey Clinker&#45;&gt;Melbourne</title>
<path fill="none" stroke="black" d="M647.21,-1581.61C660.62,-1570.59 675.28,-1558.53 688.77,-1547.44"/>
<polygon fill="black" stroke="black" points="690.76,-1550.33 696.27,-1541.27 686.32,-1544.92 690.76,-1550.33"/>
</g>
<!-- Cervantes Mare -->
<g id="node41" class="node">
<title>Cervantes Mare</title>
<polygon fill="lightcoral" stroke="lightcoral" points="791.38,-1659 680.88,-1659 680.88,-1582 791.38,-1582 791.38,-1659"/>
<image xlink:href="img/mob.png" width="100px" height="77px" preserveAspectRatio="xMinYMin meet" x="686.125" y="-1659"/>
<text text-anchor="middle" x="736.12" y="-1614.7" font-family="MS Gothic" font-size="14.00">Cervantes Mare</text>
</g>
<!-- Cervantes Mare&#45;&gt;Melbourne -->
<g id="edge40" class="edge">
<title>Cervantes Mare&#45;&gt;Melbourne</title>
<path fill="none" stroke="black" d="M736.12,-1581.61C736.12,-1573.84 736.12,-1565.56 736.12,-1557.46"/>
<polygon fill="black" stroke="black" points="739.63,-1557.73 736.13,-1547.73 732.63,-1557.73 739.63,-1557.73"/>
</g>
<!-- Touchstone -->
<g id="node42" class="node">
<title>Touchstone</title>
<polygon fill="lightblue" stroke="lightblue" points="892.88,-1659 809.38,-1659 809.38,-1582 892.88,-1582 892.88,-1659"/>
<image xlink:href="img/mob.png" width="83.5px" height="77px" preserveAspectRatio="xMinYMin meet" x="809.375" y="-1659"/>
<text text-anchor="middle" x="851.12" y="-1614.7" font-family="MS Gothic" font-size="14.00">Touchstone</text>
</g>
<!-- Touchstone&#45;&gt;Mowerina -->
<g id="edge41" class="edge">
<title>Touchstone&#45;&gt;Mowerina</title>
<path fill="none" stroke="black" d="M851.12,-1581.61C851.12,-1573.84 851.12,-1565.56 851.12,-1557.46"/>
<polygon fill="black" stroke="black" points="854.63,-1557.73 851.13,-1547.73 847.63,-1557.73 854.63,-1557.73"/>
</g>
<!-- Emma -->
<g id="node43" class="node">
<title>Emma</title>
<polygon fill="lightcoral" stroke="lightcoral" points="987.62,-1659 910.62,-1659 910.62,-1582 987.62,-1582 987.62,-1659"/>
<image xlink:href="img/mob.png" width="77px" height="77px" preserveAspectRatio="xMinYMin meet" x="910.625" y="-1659"/>
<text text-anchor="middle" x="949.12" y="-1614.7" font-family="MS Gothic" font-size="14.00">Emma</text>
</g>
<!-- Emma&#45;&gt;Mowerina -->
<g id="edge42" class="edge">
<title>Emma&#45;&gt;Mowerina</title>
<path fill="none" stroke="black" d="M915.67,-1581.61C908.03,-1572.95 899.81,-1563.65 891.9,-1554.68"/>
<polygon fill="black" stroke="black" points="894.67,-1552.53 885.43,-1547.35 889.42,-1557.17 894.67,-1552.53"/>
</g>
<!-- Comus -->
<g id="node44" class="node">
<title>Comus</title>
<polygon fill="lightblue" stroke="lightblue" points="585.62,-1772 508.62,-1772 508.62,-1695 585.62,-1695 585.62,-1772"/>
<image xlink:href="img/mob.png" width="77px" height="77px" preserveAspectRatio="xMinYMin meet" x="508.625" y="-1772"/>
<text text-anchor="middle" x="547.12" y="-1727.7" font-family="MS Gothic" font-size="14.00">Comus</text>
</g>
<!-- Comus&#45;&gt;Humphrey Clinker -->
<g id="edge43" class="edge">
<title>Comus&#45;&gt;Humphrey Clinker</title>
<path fill="none" stroke="black" d="M565.56,-1694.61C569.51,-1686.48 573.74,-1677.8 577.85,-1669.35"/>
<polygon fill="black" stroke="black" points="580.89,-1671.1 582.11,-1660.58 574.59,-1668.04 580.89,-1671.1"/>
</g>
<!-- Clinkerina -->
<g id="node45" class="node">
<title>Clinkerina</title>
<polygon fill="lightcoral" stroke="lightcoral" points="696.88,-1772 613.38,-1772 613.38,-1695 696.88,-1695 696.88,-1772"/>
<image xlink:href="img/mob.png" width="83.5px" height="77px" preserveAspectRatio="xMinYMin meet" x="613.375" y="-1772"/>
<text text-anchor="middle" x="655.12" y="-1727.7" font-family="MS Gothic" font-size="14.00">Clinkerina</text>
</g>
<!-- Clinkerina&#45;&gt;Humphrey Clinker -->
<g id="edge44" class="edge">
<title>Clinkerina&#45;&gt;Humphrey Clinker</title>
<path fill="none" stroke="black" d="M636.69,-1694.61C632.74,-1686.48 628.51,-1677.8 624.4,-1669.35"/>
<polygon fill="black" stroke="black" points="627.66,-1668.04 620.14,-1660.58 621.36,-1671.1 627.66,-1668.04"/>
</g>
<!-- Sorcerer -->
<g id="node46" class="node">
<title>Sorcerer</title>
<polygon fill="lightblue" stroke="lightblue" points="477.62,-1885 400.62,-1885 400.62,-1808 477.62,-1808 477.62,-1885"/>
<image xlink:href="img/mob.png" width="77px" height="77px" preserveAspectRatio="xMinYMin meet" x="400.625" y="-1885"/>
<text text-anchor="middle" x="439.12" y="-1840.7" font-family="MS Gothic" font-size="14.00">Sorcerer</text>
</g>
<!-- Sorcerer&#45;&gt;Comus -->
<g id="edge45" class="edge">
<title>Sorcerer&#45;&gt;Comus</title>
<path fill="none" stroke="black" d="M475.99,-1807.61C484.51,-1798.86 493.65,-1789.46 502.46,-1780.4"/>
<polygon fill="black" stroke="black" points="504.91,-1782.91 509.37,-1773.3 499.89,-1778.03 504.91,-1782.91"/>
</g>
<!-- Houghton Lass -->
<g id="node47" class="node">
<title>Houghton Lass</title>
<polygon fill="lightcoral" stroke="lightcoral" points="599,-1885 495.25,-1885 495.25,-1808 599,-1808 599,-1885"/>
<image xlink:href="img/mob.png" width="100px" height="77px" preserveAspectRatio="xMinYMin meet" x="497.125" y="-1885"/>
<text text-anchor="middle" x="547.12" y="-1840.7" font-family="MS Gothic" font-size="14.00">Houghton Lass</text>
</g>
<!-- Houghton Lass&#45;&gt;Comus -->
<g id="edge46" class="edge">
<title>Houghton Lass&#45;&gt;Comus</title>
<path fill="none" stroke="black" d="M547.12,-1807.61C547.12,-1799.84 547.12,-1791.56 547.12,-1783.46"/>
<polygon fill="black" stroke="black" points="550.63,-1783.73 547.13,-1773.73 543.63,-1783.73 550.63,-1783.73"/>
</g>
<!-- Clinker -->
<g id="node48" class="node">
<title>Clinker</title>
<polygon fill="lightblue" stroke="lightblue" points="693.62,-1885 616.62,-1885 616.62,-1808 693.62,-1808 693.62,-1885"/>
<image xlink:href="img/mob.png" width="77px" height="77px" preserveAspectRatio="xMinYMin meet" x="616.625" y="-1885"/>
<text text-anchor="middle" x="655.12" y="-1840.7" font-family="MS Gothic" font-size="14.00">Clinker</text>
</g>
<!-- Clinker&#45;&gt;Clinkerina -->
<g id="edge47" class="edge">
<title>Clinker&#45;&gt;Clinkerina</title>
<path fill="none" stroke="black" d="M655.12,-1807.61C655.12,-1799.84 655.12,-1791.56 655.12,-1783.46"/>
<polygon fill="black" stroke="black" points="658.63,-1783.73 655.13,-1773.73 651.63,-1783.73 658.63,-1783.73"/>
</g>
<!-- Pewet -->
<g id="node49" class="node">
<title>Pewet</title>
<polygon fill="lightcoral" stroke="lightcoral" points="788.62,-1885 711.62,-1885 711.62,-1808 788.62,-1808 788.62,-1885"/>
<image xlink:href="img/mob.png" width="77px" height="77px" preserveAspectRatio="xMinYMin meet" x="711.625" y="-1885"/>
<text text-anchor="middle" x="750.12" y="-1840.7" font-family="MS Gothic" font-size="14.00">Pewet</text>
</g>
<!-- Pewet&#45;&gt;Clinkerina -->
<g id="edge48" class="edge">
<title>Pewet&#45;&gt;Clinkerina</title>
<path fill="none" stroke="black" d="M717.7,-1807.61C710.36,-1799.04 702.49,-1789.84 694.89,-1780.96"/>
<polygon fill="black" stroke="black" points="697.55,-1778.69 688.39,-1773.37 692.23,-1783.24 697.55,-1778.69"/>
</g>
<!-- Trumpator -->
<g id="node50" class="node">
<title>Trumpator</title>
<polygon fill="lightblue" stroke="lightblue" points="421.62,-1998 344.62,-1998 344.62,-1921 421.62,-1921 421.62,-1998"/>
<image xlink:href="img/mob.png" width="77px" height="77px" preserveAspectRatio="xMinYMin meet" x="344.625" y="-1998"/>
<text text-anchor="middle" x="383.12" y="-1953.7" font-family="MS Gothic" font-size="14.00">Trumpator</text>
</g>
<!-- Trumpator&#45;&gt;Sorcerer -->
<g id="edge49" class="edge">
<title>Trumpator&#45;&gt;Sorcerer</title>
<path fill="none" stroke="black" d="M402.24,-1920.61C406.34,-1912.48 410.72,-1903.8 414.99,-1895.35"/>
<polygon fill="black" stroke="black" points="418.03,-1897.07 419.41,-1886.57 411.78,-1893.92 418.03,-1897.07"/>
</g>
<!-- Young Giantess -->
<g id="node51" class="node">
<title>Young Giantess</title>
<polygon fill="lightcoral" stroke="lightcoral" points="550.38,-1998 439.88,-1998 439.88,-1921 550.38,-1921 550.38,-1998"/>
<image xlink:href="img/mob.png" width="100px" height="77px" preserveAspectRatio="xMinYMin meet" x="445.125" y="-1998"/>
<text text-anchor="middle" x="495.12" y="-1953.7" font-family="MS Gothic" font-size="14.00">Young Giantess</text>
</g>
<!-- Young Giantess&#45;&gt;Sorcerer -->
<g id="edge50" class="edge">
<title>Young Giantess&#45;&gt;Sorcerer</title>
<path fill="none" stroke="black" d="M476.01,-1920.61C471.91,-1912.48 467.53,-1903.8 463.26,-1895.35"/>
<polygon fill="black" stroke="black" points="466.47,-1893.92 458.84,-1886.57 460.22,-1897.07 466.47,-1893.92"/>
</g>
<!-- Conductor -->
<g id="node52" class="node">
<title>Conductor</title>
<polygon fill="lightblue" stroke="lightblue" points="331.62,-2111 254.62,-2111 254.62,-2034 331.62,-2034 331.62,-2111"/>
<image xlink:href="img/mob.png" width="77px" height="77px" preserveAspectRatio="xMinYMin meet" x="254.625" y="-2111"/>
<text text-anchor="middle" x="293.12" y="-2066.7" font-family="MS Gothic" font-size="14.00">Conductor</text>
</g>
<!-- Conductor&#45;&gt;Trumpator -->
<g id="edge51" class="edge">
<title>Conductor&#45;&gt;Trumpator</title>
<path fill="none" stroke="black" d="M323.85,-2033.61C330.8,-2025.04 338.26,-2015.84 345.46,-2006.96"/>
<polygon fill="black" stroke="black" points="348.01,-2009.37 351.59,-1999.39 342.57,-2004.96 348.01,-2009.37"/>
</g>
<!-- Brunette -->
<g id="node53" class="node">
<title>Brunette</title>
<polygon fill="lightcoral" stroke="lightcoral" points="426.62,-2111 349.62,-2111 349.62,-2034 426.62,-2034 426.62,-2111"/>
<image xlink:href="img/mob.png" width="77px" height="77px" preserveAspectRatio="xMinYMin meet" x="349.625" y="-2111"/>
<text text-anchor="middle" x="388.12" y="-2066.7" font-family="MS Gothic" font-size="14.00">Brunette</text>
</g>
<!-- Brunette&#45;&gt;Trumpator -->
<g id="edge52" class="edge">
<title>Brunette&#45;&gt;Trumpator</title>
<path fill="none" stroke="black" d="M386.42,-2033.61C386.07,-2025.84 385.7,-2017.56 385.33,-2009.46"/>
<polygon fill="black" stroke="black" points="388.84,-2009.56 384.89,-1999.73 381.85,-2009.88 388.84,-2009.56"/>
</g>
<!-- Diomed -->
<g id="node54" class="node">
<title>Diomed</title>
<polygon fill="lightblue" stroke="lightblue" points="529.62,-2111 452.62,-2111 452.62,-2034 529.62,-2034 529.62,-2111"/>
<image xlink:href="img/mob.png" width="77px" height="77px" preserveAspectRatio="xMinYMin meet" x="452.625" y="-2111"/>
<text text-anchor="middle" x="491.12" y="-2066.7" font-family="MS Gothic" font-size="14.00">Diomed</text>
</g>
<!-- Diomed&#45;&gt;Young Giantess -->
<g id="edge53" class="edge">
<title>Diomed&#45;&gt;Young Giantess</title>
<path fill="none" stroke="black" d="M492.49,-2033.61C492.77,-2025.84 493.07,-2017.56 493.36,-2009.46"/>
<polygon fill="black" stroke="black" points="496.85,-2009.85 493.71,-1999.73 489.85,-2009.6 496.85,-2009.85"/>
</g>
<!-- Giantess -->
<g id="node55" class="node">
<title>Giantess</title>
<polygon fill="lightcoral" stroke="lightcoral" points="624.62,-2111 547.62,-2111 547.62,-2034 624.62,-2034 624.62,-2111"/>
<image xlink:href="img/mob.png" width="77px" height="77px" preserveAspectRatio="xMinYMin meet" x="547.625" y="-2111"/>
<text text-anchor="middle" x="586.12" y="-2066.7" font-family="MS Gothic" font-size="14.00">Giantess</text>
</g>
<!-- Giantess&#45;&gt;Young Giantess -->
<g id="edge54" class="edge">
<title>Giantess&#45;&gt;Young Giantess</title>
<path fill="none" stroke="black" d="M555.06,-2033.61C548.03,-2025.04 540.49,-2015.84 533.21,-2006.96"/>
<polygon fill="black" stroke="black" points="536.05,-2004.9 527.01,-1999.39 530.64,-2009.34 536.05,-2004.9"/>
</g>
<!-- Matchem -->
<g id="node56" class="node">
<title>Matchem</title>
<polygon fill="lightblue" stroke="lightblue" points="279.62,-2224 202.62,-2224 202.62,-2147 279.62,-2147 279.62,-2224"/>
<image xlink:href="img/mob.png" width="77px" height="77px" preserveAspectRatio="xMinYMin meet" x="202.625" y="-2224"/>
<text text-anchor="middle" x="241.12" y="-2179.7" font-family="MS Gothic" font-size="14.00">Matchem</text>
</g>
<!-- Matchem&#45;&gt;Conductor -->
<g id="edge55" class="edge">
<title>Matchem&#45;&gt;Conductor</title>
<path fill="none" stroke="black" d="M258.88,-2146.61C262.64,-2138.57 266.66,-2129.99 270.58,-2121.63"/>
<polygon fill="black" stroke="black" points="273.74,-2123.13 274.81,-2112.59 267.4,-2120.16 273.74,-2123.13"/>
</g>
<!-- Snap Mare -->
<g id="node57" class="node">
<title>Snap Mare</title>
<polygon fill="lightcoral" stroke="lightcoral" points="384.62,-2224 307.62,-2224 307.62,-2147 384.62,-2147 384.62,-2224"/>
<image xlink:href="img/mob.png" width="77px" height="77px" preserveAspectRatio="xMinYMin meet" x="307.625" y="-2224"/>
<text text-anchor="middle" x="346.12" y="-2179.7" font-family="MS Gothic" font-size="14.00">Snap Mare</text>
</g>
<!-- Snap Mare&#45;&gt;Conductor -->
<g id="edge56" class="edge">
<title>Snap Mare&#45;&gt;Conductor</title>
<path fill="none" stroke="black" d="M328.03,-2146.61C324.15,-2138.48 320.01,-2129.8 315.97,-2121.35"/>
<polygon fill="black" stroke="black" points="319.25,-2120.1 311.79,-2112.58 312.94,-2123.12 319.25,-2120.1"/>
</g>
<!-- Cade -->
<g id="node58" class="node">
<title>Cade</title>
<polygon fill="lightblue" stroke="lightblue" points="174.62,-2337 97.62,-2337 97.62,-2260 174.62,-2260 174.62,-2337"/>
<image xlink:href="img/mob.png" width="77px" height="77px" preserveAspectRatio="xMinYMin meet" x="97.625" y="-2337"/>
<text text-anchor="middle" x="136.12" y="-2292.7" font-family="MS Gothic" font-size="14.00">Cade</text>
</g>
<!-- Cade&#45;&gt;Matchem -->
<g id="edge57" class="edge">
<title>Cade&#45;&gt;Matchem</title>
<path fill="none" stroke="black" d="M171.97,-2259.61C180.24,-2250.86 189.14,-2241.46 197.7,-2232.4"/>
<polygon fill="black" stroke="black" points="200.08,-2234.99 204.41,-2225.32 194.99,-2230.18 200.08,-2234.99"/>
</g>
<!-- Partner Mare -->
<g id="node59" class="node">
<title>Partner Mare</title>
<polygon fill="lightcoral" stroke="lightcoral" points="289.62,-2337 192.62,-2337 192.62,-2260 289.62,-2260 289.62,-2337"/>
<image xlink:href="img/mob.png" width="97px" height="77px" preserveAspectRatio="xMinYMin meet" x="192.625" y="-2337"/>
<text text-anchor="middle" x="241.12" y="-2292.7" font-family="MS Gothic" font-size="14.00">Partner Mare</text>
</g>
<!-- Partner Mare&#45;&gt;Matchem -->
<g id="edge58" class="edge">
<title>Partner Mare&#45;&gt;Matchem</title>
<path fill="none" stroke="black" d="M241.12,-2259.61C241.12,-2251.84 241.12,-2243.56 241.12,-2235.46"/>
<polygon fill="black" stroke="black" points="244.63,-2235.73 241.13,-2225.73 237.63,-2235.73 244.63,-2235.73"/>
</g>
<!-- Snap -->
<g id="node60" class="node">
<title>Snap</title>
<polygon fill="lightblue" stroke="lightblue" points="384.62,-2337 307.62,-2337 307.62,-2260 384.62,-2260 384.62,-2337"/>
<image xlink:href="img/mob.png" width="77px" height="77px" preserveAspectRatio="xMinYMin meet" x="307.625" y="-2337"/>
<text text-anchor="middle" x="346.12" y="-2292.7" font-family="MS Gothic" font-size="14.00">Snap</text>
</g>
<!-- Snap&#45;&gt;Snap Mare -->
<g id="edge59" class="edge">
<title>Snap&#45;&gt;Snap Mare</title>
<path fill="none" stroke="black" d="M346.12,-2259.61C346.12,-2251.84 346.12,-2243.56 346.12,-2235.46"/>
<polygon fill="black" stroke="black" points="349.63,-2235.73 346.13,-2225.73 342.63,-2235.73 349.63,-2235.73"/>
</g>
<!-- Diana -->
<g id="node61" class="node">
<title>Diana</title>
<polygon fill="lightcoral" stroke="lightcoral" points="479.62,-2337 402.62,-2337 402.62,-2260 479.62,-2260 479.62,-2337"/>
<image xlink:href="img/mob.png" width="77px" height="77px" preserveAspectRatio="xMinYMin meet" x="402.625" y="-2337"/>
<text text-anchor="middle" x="441.12" y="-2292.7" font-family="MS Gothic" font-size="14.00">Diana</text>
</g>
<!-- Diana&#45;&gt;Snap Mare -->
<g id="edge60" class="edge">
<title>Diana&#45;&gt;Snap Mare</title>
<path fill="none" stroke="black" d="M408.7,-2259.61C401.36,-2251.04 393.49,-2241.84 385.89,-2232.96"/>
<polygon fill="black" stroke="black" points="388.55,-2230.69 379.39,-2225.37 383.23,-2235.24 388.55,-2230.69"/>
</g>
<!-- ゴドルフィンバルブ -->
<g id="node62" class="node">
<title>ゴドルフィンバルブ</title>
<polygon fill="lightblue" stroke="lightblue" points="144.25,-2450 0,-2450 0,-2373 144.25,-2373 144.25,-2450"/>
<image xlink:href="img/mob.png" width="100px" height="77px" preserveAspectRatio="xMinYMin meet" x="22.125" y="-2450"/>
<text text-anchor="middle" x="72.12" y="-2405.7" font-family="MS Gothic" font-size="14.00">ゴドルフィンバルブ</text>
</g>
<!-- ゴドルフィンバルブ&#45;&gt;Cade -->
<g id="edge61" class="edge">
<title>ゴドルフィンバルブ&#45;&gt;Cade</title>
<path fill="none" stroke="black" d="M93.97,-2372.61C98.71,-2364.39 103.78,-2355.6 108.7,-2347.07"/>
<polygon fill="black" stroke="black" points="111.66,-2348.94 113.62,-2338.53 105.59,-2345.44 111.66,-2348.94"/>
</g>
<!-- Roxana -->
<g id="node63" class="node">
<title>Roxana</title>
<polygon fill="lightcoral" stroke="lightcoral" points="239.62,-2450 162.62,-2450 162.62,-2373 239.62,-2373 239.62,-2450"/>
<image xlink:href="img/mob.png" width="77px" height="77px" preserveAspectRatio="xMinYMin meet" x="162.625" y="-2450"/>
<text text-anchor="middle" x="201.12" y="-2405.7" font-family="MS Gothic" font-size="14.00">Roxana</text>
</g>
<!-- Roxana&#45;&gt;Cade -->
<g id="edge62" class="edge">
<title>Roxana&#45;&gt;Cade</title>
<path fill="none" stroke="black" d="M178.94,-2372.61C174.13,-2364.39 168.98,-2355.6 163.98,-2347.07"/>
<polygon fill="black" stroke="black" points="167.05,-2345.39 158.98,-2338.52 161.01,-2348.92 167.05,-2345.39"/>
</g>
<!-- Bald Galloway -->
<g id="node64" class="node">
<title>Bald Galloway</title>
<polygon fill="lightblue" stroke="lightblue" points="183,-2563 79.25,-2563 79.25,-2486 183,-2486 183,-2563"/>
<image xlink:href="img/mob.png" width="100px" height="77px" preserveAspectRatio="xMinYMin meet" x="81.125" y="-2563"/>
<text text-anchor="middle" x="131.12" y="-2518.7" font-family="MS Gothic" font-size="14.00">Bald Galloway</text>
</g>
<!-- Bald Galloway&#45;&gt;Roxana -->
<g id="edge63" class="edge">
<title>Bald Galloway&#45;&gt;Roxana</title>
<path fill="none" stroke="black" d="M155.02,-2485.61C160.26,-2477.31 165.86,-2468.41 171.3,-2459.79"/>
<polygon fill="black" stroke="black" points="174.16,-2461.82 176.53,-2451.5 168.24,-2458.09 174.16,-2461.82"/>
</g>
<!-- Sister to Chaunter -->
<g id="node65" class="node">
<title>Sister to Chaunter</title>
<polygon fill="lightcoral" stroke="lightcoral" points="338.88,-2563 201.38,-2563 201.38,-2486 338.88,-2486 338.88,-2563"/>
<image xlink:href="img/mob.png" width="100px" height="77px" preserveAspectRatio="xMinYMin meet" x="220.125" y="-2563"/>
<text text-anchor="middle" x="270.12" y="-2518.7" font-family="MS Gothic" font-size="14.00">Sister to Chaunter</text>
</g>
<!-- Sister to Chaunter&#45;&gt;Roxana -->
<g id="edge64" class="edge">
<title>Sister to Chaunter&#45;&gt;Roxana</title>
<path fill="none" stroke="black" d="M246.57,-2485.61C241.41,-2477.31 235.88,-2468.41 230.52,-2459.79"/>
<polygon fill="black" stroke="black" points="233.62,-2458.15 225.37,-2451.5 227.68,-2461.84 233.62,-2458.15"/>
</g>
</g>
</svg>
