<?xml version="1.0" encoding="UTF-8" standalone="no"?>
<!DOCTYPE svg PUBLIC "-//W3C//DTD SVG 1.1//EN"
 "http://www.w3.org/Graphics/SVG/1.1/DTD/svg11.dtd">
<!-- Generated by graphviz version 12.1.2 (20240928.0832)
 -->
<!-- Pages: 1 -->
<svg width="586pt" height="311pt"
 viewBox="0.00 0.00 585.75 311.00" xmlns="http://www.w3.org/2000/svg" xmlns:xlink="http://www.w3.org/1999/xlink">
<g id="graph0" class="graph" transform="scale(1 1) rotate(0) translate(4 307)">
<polygon fill="white" stroke="none" points="-4,4 -4,-307 581.75,-307 581.75,4 -4,4"/>
<!-- カルストンライトオ -->
<g id="node1" class="node">
<title>カルストンライトオ</title>
<polygon fill="none" stroke="black" points="342.38,-77 171.12,-77 171.12,0 342.38,0 342.38,-77"/>
<image xlink:href="img/karusutonraitoo.png" width="100px" height="77px" preserveAspectRatio="xMinYMin meet" x="206.75" y="-77"/>
<text text-anchor="middle" x="256.75" y="-32.33" font-family="Times New Roman,serif" font-size="14.00">カルストンライトオ</text>
</g>
<!-- ウォーニング -->
<g id="node2" class="node">
<title>ウォーニング</title>
<polygon fill="lightblue" stroke="lightblue" points="221.5,-190 120,-190 120,-113 221.5,-113 221.5,-190"/>
<image xlink:href="img/mob.png" width="100px" height="77px" preserveAspectRatio="xMinYMin meet" x="120.75" y="-190"/>
<text text-anchor="middle" x="170.75" y="-145.7" font-family="MS Gothic" font-size="14.00">ウォーニング</text>
</g>
<!-- ウォーニング&#45;&gt;カルストンライトオ -->
<g id="edge1" class="edge">
<title>ウォーニング&#45;&gt;カルストンライトオ</title>
<path fill="none" stroke="black" d="M200.11,-112.61C206.68,-104.13 213.73,-95.03 220.54,-86.24"/>
<polygon fill="black" stroke="black" points="223.24,-88.46 226.6,-78.42 217.71,-84.18 223.24,-88.46"/>
</g>
<!-- オオシマルチア -->
<g id="node3" class="node">
<title>オオシマルチア</title>
<polygon fill="lightcoral" stroke="lightcoral" points="401.62,-190 285.88,-190 285.88,-113 401.62,-113 401.62,-190"/>
<image xlink:href="img/mob.png" width="100px" height="77px" preserveAspectRatio="xMinYMin meet" x="293.75" y="-190"/>
<text text-anchor="middle" x="343.75" y="-145.7" font-family="MS Gothic" font-size="14.00">オオシマルチア</text>
</g>
<!-- オオシマルチア&#45;&gt;カルストンライトオ -->
<g id="edge2" class="edge">
<title>オオシマルチア&#45;&gt;カルストンライトオ</title>
<path fill="none" stroke="black" d="M314.05,-112.61C307.4,-104.13 300.27,-95.03 293.38,-86.24"/>
<polygon fill="black" stroke="black" points="296.17,-84.12 287.25,-78.41 290.66,-88.44 296.17,-84.12"/>
</g>
<!-- Known Fact -->
<g id="node4" class="node">
<title>Known Fact</title>
<polygon fill="lightblue" stroke="lightblue" points="83.5,-303 0,-303 0,-226 83.5,-226 83.5,-303"/>
<image xlink:href="img/mob.png" width="83.5px" height="77px" preserveAspectRatio="xMinYMin meet" x="0" y="-303"/>
<text text-anchor="middle" x="41.75" y="-258.7" font-family="MS Gothic" font-size="14.00">Known Fact</text>
</g>
<!-- Known Fact&#45;&gt;ウォーニング -->
<g id="edge3" class="edge">
<title>Known Fact&#45;&gt;ウォーニング</title>
<path fill="none" stroke="black" d="M83.99,-227.15C94.88,-217.78 106.74,-207.58 118.09,-197.81"/>
<polygon fill="black" stroke="black" points="120.2,-200.62 125.5,-191.44 115.63,-195.31 120.2,-200.62"/>
</g>
<!-- Slightly Dangerous -->
<g id="node5" class="node">
<title>Slightly Dangerous</title>
<polygon fill="lightcoral" stroke="lightcoral" points="239.5,-303 102,-303 102,-226 239.5,-226 239.5,-303"/>
<image xlink:href="img/mob.png" width="100px" height="77px" preserveAspectRatio="xMinYMin meet" x="120.75" y="-303"/>
<text text-anchor="middle" x="170.75" y="-258.7" font-family="MS Gothic" font-size="14.00">Slightly Dangerous</text>
</g>
<!-- Slightly Dangerous&#45;&gt;ウォーニング -->
<g id="edge4" class="edge">
<title>Slightly Dangerous&#45;&gt;ウォーニング</title>
<path fill="none" stroke="black" d="M170.75,-225.61C170.75,-217.84 170.75,-209.56 170.75,-201.46"/>
<polygon fill="black" stroke="black" points="174.25,-201.73 170.75,-191.73 167.25,-201.73 174.25,-201.73"/>
</g>
<!-- クリスタルグリッターズ -->
<g id="node6" class="node">
<title>クリスタルグリッターズ</title>
<polygon fill="lightblue" stroke="lightblue" points="430.12,-303 257.38,-303 257.38,-226 430.12,-226 430.12,-303"/>
<image xlink:href="img/mob.png" width="100px" height="77px" preserveAspectRatio="xMinYMin meet" x="293.75" y="-303"/>
<text text-anchor="middle" x="343.75" y="-258.7" font-family="MS Gothic" font-size="14.00">クリスタルグリッターズ</text>
</g>
<!-- クリスタルグリッターズ&#45;&gt;オオシマルチア -->
<g id="edge5" class="edge">
<title>クリスタルグリッターズ&#45;&gt;オオシマルチア</title>
<path fill="none" stroke="black" d="M343.75,-225.61C343.75,-217.84 343.75,-209.56 343.75,-201.46"/>
<polygon fill="black" stroke="black" points="347.25,-201.73 343.75,-191.73 340.25,-201.73 347.25,-201.73"/>
</g>
<!-- オオシマスズラン -->
<g id="node7" class="node">
<title>オオシマスズラン</title>
<polygon fill="lightcoral" stroke="lightcoral" points="577.75,-303 447.75,-303 447.75,-226 577.75,-226 577.75,-303"/>
<image xlink:href="img/mob.png" width="100px" height="77px" preserveAspectRatio="xMinYMin meet" x="462.75" y="-303"/>
<text text-anchor="middle" x="512.75" y="-258.7" font-family="MS Gothic" font-size="14.00">オオシマスズラン</text>
</g>
<!-- オオシマスズラン&#45;&gt;オオシマルチア -->
<g id="edge6" class="edge">
<title>オオシマスズラン&#45;&gt;オオシマルチア</title>
<path fill="none" stroke="black" d="M455.06,-225.61C440.86,-216.29 425.54,-206.22 410.94,-196.63"/>
<polygon fill="black" stroke="black" points="413.01,-193.8 402.73,-191.24 409.17,-199.65 413.01,-193.8"/>
</g>
</g>
</svg>
