<?xml version="1.0" encoding="UTF-8" standalone="no"?>
<!DOCTYPE svg PUBLIC "-//W3C//DTD SVG 1.1//EN"
 "http://www.w3.org/Graphics/SVG/1.1/DTD/svg11.dtd">
<!-- Generated by graphviz version 12.1.2 (20240928.0832)
 -->
<!-- Pages: 1 -->
<svg width="554pt" height="311pt"
 viewBox="0.00 0.00 554.00 311.00" xmlns="http://www.w3.org/2000/svg" xmlns:xlink="http://www.w3.org/1999/xlink">
<g id="graph0" class="graph" transform="scale(1 1) rotate(0) translate(4 307)">
<polygon fill="white" stroke="none" points="-4,4 -4,-307 550,-307 550,4 -4,4"/>
<!-- カレンチャン -->
<g id="node1" class="node">
<title>カレンチャン</title>
<polygon fill="none" stroke="black" points="360.88,-77 241.38,-77 241.38,0 360.88,0 360.88,-77"/>
<image xlink:href="img/karenchiyan.png" width="100px" height="77px" preserveAspectRatio="xMinYMin meet" x="251.125" y="-77"/>
<text text-anchor="middle" x="301.12" y="-32.33" font-family="Times New Roman,serif" font-size="14.00">カレンチャン</text>
</g>
<!-- クロフネ -->
<g id="node2" class="node">
<title>クロフネ</title>
<polygon fill="lightblue" stroke="lightblue" points="272.62,-190 195.62,-190 195.62,-113 272.62,-113 272.62,-190"/>
<image xlink:href="img/mob.png" width="77px" height="77px" preserveAspectRatio="xMinYMin meet" x="195.625" y="-190"/>
<text text-anchor="middle" x="234.12" y="-145.7" font-family="MS Gothic" font-size="14.00">クロフネ</text>
</g>
<!-- クロフネ&#45;&gt;カレンチャン -->
<g id="edge1" class="edge">
<title>クロフネ&#45;&gt;カレンチャン</title>
<path fill="none" stroke="black" d="M257,-112.61C261.95,-104.39 267.26,-95.6 272.41,-87.07"/>
<polygon fill="black" stroke="black" points="275.4,-88.88 277.58,-78.51 269.41,-85.27 275.4,-88.88"/>
</g>
<!-- スプリングチケット -->
<g id="node3" class="node">
<title>スプリングチケット</title>
<polygon fill="lightcoral" stroke="lightcoral" points="440.25,-190 296,-190 296,-113 440.25,-113 440.25,-190"/>
<image xlink:href="img/mob.png" width="100px" height="77px" preserveAspectRatio="xMinYMin meet" x="318.125" y="-190"/>
<text text-anchor="middle" x="368.12" y="-145.7" font-family="MS Gothic" font-size="14.00">スプリングチケット</text>
</g>
<!-- スプリングチケット&#45;&gt;カレンチャン -->
<g id="edge2" class="edge">
<title>スプリングチケット&#45;&gt;カレンチャン</title>
<path fill="none" stroke="black" d="M345.25,-112.61C340.3,-104.39 334.99,-95.6 329.84,-87.07"/>
<polygon fill="black" stroke="black" points="332.84,-85.27 324.67,-78.51 326.85,-88.88 332.84,-85.27"/>
</g>
<!-- フレンチデピュティ -->
<g id="node4" class="node">
<title>フレンチデピュティ</title>
<polygon fill="lightblue" stroke="lightblue" points="144.25,-303 0,-303 0,-226 144.25,-226 144.25,-303"/>
<image xlink:href="img/mob.png" width="100px" height="77px" preserveAspectRatio="xMinYMin meet" x="22.125" y="-303"/>
<text text-anchor="middle" x="72.12" y="-258.7" font-family="MS Gothic" font-size="14.00">フレンチデピュティ</text>
</g>
<!-- フレンチデピュティ&#45;&gt;クロフネ -->
<g id="edge3" class="edge">
<title>フレンチデピュティ&#45;&gt;クロフネ</title>
<path fill="none" stroke="black" d="M127.42,-225.61C146.39,-212.61 167.46,-198.18 185.82,-185.6"/>
<polygon fill="black" stroke="black" points="187.64,-188.59 193.91,-180.05 183.68,-182.82 187.64,-188.59"/>
</g>
<!-- ブルーアヴェニュー -->
<g id="node5" class="node">
<title>ブルーアヴェニュー</title>
<polygon fill="lightcoral" stroke="lightcoral" points="306.25,-303 162,-303 162,-226 306.25,-226 306.25,-303"/>
<image xlink:href="img/mob.png" width="100px" height="77px" preserveAspectRatio="xMinYMin meet" x="184.125" y="-303"/>
<text text-anchor="middle" x="234.12" y="-258.7" font-family="MS Gothic" font-size="14.00">ブルーアヴェニュー</text>
</g>
<!-- ブルーアヴェニュー&#45;&gt;クロフネ -->
<g id="edge4" class="edge">
<title>ブルーアヴェニュー&#45;&gt;クロフネ</title>
<path fill="none" stroke="black" d="M234.12,-225.61C234.12,-217.84 234.12,-209.56 234.12,-201.46"/>
<polygon fill="black" stroke="black" points="237.63,-201.73 234.13,-191.73 230.63,-201.73 237.63,-201.73"/>
</g>
<!-- トニービン -->
<g id="node6" class="node">
<title>トニービン</title>
<polygon fill="lightblue" stroke="lightblue" points="411.75,-303 324.5,-303 324.5,-226 411.75,-226 411.75,-303"/>
<image xlink:href="img/mob.png" width="87.25px" height="77px" preserveAspectRatio="xMinYMin meet" x="324.5" y="-303"/>
<text text-anchor="middle" x="368.12" y="-258.7" font-family="MS Gothic" font-size="14.00">トニービン</text>
</g>
<!-- トニービン&#45;&gt;スプリングチケット -->
<g id="edge5" class="edge">
<title>トニービン&#45;&gt;スプリングチケット</title>
<path fill="none" stroke="black" d="M368.12,-225.61C368.12,-217.84 368.12,-209.56 368.12,-201.46"/>
<polygon fill="black" stroke="black" points="371.63,-201.73 368.13,-191.73 364.63,-201.73 371.63,-201.73"/>
</g>
<!-- カズミハルコマ -->
<g id="node7" class="node">
<title>カズミハルコマ</title>
<polygon fill="lightcoral" stroke="lightcoral" points="546,-303 430.25,-303 430.25,-226 546,-226 546,-303"/>
<image xlink:href="img/mob.png" width="100px" height="77px" preserveAspectRatio="xMinYMin meet" x="438.125" y="-303"/>
<text text-anchor="middle" x="488.12" y="-258.7" font-family="MS Gothic" font-size="14.00">カズミハルコマ</text>
</g>
<!-- カズミハルコマ&#45;&gt;スプリングチケット -->
<g id="edge6" class="edge">
<title>カズミハルコマ&#45;&gt;スプリングチケット</title>
<path fill="none" stroke="black" d="M447.16,-225.61C437.51,-216.68 427.12,-207.07 417.15,-197.85"/>
<polygon fill="black" stroke="black" points="419.73,-195.47 410.01,-191.25 414.98,-200.61 419.73,-195.47"/>
</g>
</g>
</svg>
