<?xml version="1.0" encoding="UTF-8" standalone="no"?>
<!DOCTYPE svg PUBLIC "-//W3C//DTD SVG 1.1//EN"
 "http://www.w3.org/Graphics/SVG/1.1/DTD/svg11.dtd">
<!-- Generated by graphviz version 12.1.2 (20240928.0832)
 -->
<!-- Pages: 1 -->
<svg width="470pt" height="311pt"
 viewBox="0.00 0.00 470.38 311.00" xmlns="http://www.w3.org/2000/svg" xmlns:xlink="http://www.w3.org/1999/xlink">
<g id="graph0" class="graph" transform="scale(1 1) rotate(0) translate(4 307)">
<polygon fill="white" stroke="none" points="-4,4 -4,-307 466.38,-307 466.38,4 -4,4"/>
<!-- カツラギエース -->
<g id="node1" class="node">
<title>カツラギエース</title>
<polygon fill="none" stroke="black" points="289.88,-77 153.12,-77 153.12,0 289.88,0 289.88,-77"/>
<image xlink:href="img/katsuragiesu.png" width="100px" height="77px" preserveAspectRatio="xMinYMin meet" x="171.5" y="-77"/>
<text text-anchor="middle" x="221.5" y="-32.33" font-family="Times New Roman,serif" font-size="14.00">カツラギエース</text>
</g>
<!-- ボイズィーボーイ -->
<g id="node2" class="node">
<title>ボイズィーボーイ</title>
<polygon fill="lightblue" stroke="lightblue" points="216.5,-190 86.5,-190 86.5,-113 216.5,-113 216.5,-190"/>
<image xlink:href="img/mob.png" width="100px" height="77px" preserveAspectRatio="xMinYMin meet" x="101.5" y="-190"/>
<text text-anchor="middle" x="151.5" y="-145.7" font-family="MS Gothic" font-size="14.00">ボイズィーボーイ</text>
</g>
<!-- ボイズィーボーイ&#45;&gt;カツラギエース -->
<g id="edge1" class="edge">
<title>ボイズィーボーイ&#45;&gt;カツラギエース</title>
<path fill="none" stroke="black" d="M175.39,-112.61C180.63,-104.31 186.24,-95.41 191.68,-86.79"/>
<polygon fill="black" stroke="black" points="194.53,-88.82 196.91,-78.5 188.61,-85.09 194.53,-88.82"/>
</g>
<!-- タニノベンチヤ -->
<g id="node3" class="node">
<title>タニノベンチヤ</title>
<polygon fill="lightcoral" stroke="lightcoral" points="350.38,-190 234.62,-190 234.62,-113 350.38,-113 350.38,-190"/>
<image xlink:href="img/mob.png" width="100px" height="77px" preserveAspectRatio="xMinYMin meet" x="242.5" y="-190"/>
<text text-anchor="middle" x="292.5" y="-145.7" font-family="MS Gothic" font-size="14.00">タニノベンチヤ</text>
</g>
<!-- タニノベンチヤ&#45;&gt;カツラギエース -->
<g id="edge2" class="edge">
<title>タニノベンチヤ&#45;&gt;カツラギエース</title>
<path fill="none" stroke="black" d="M268.26,-112.61C262.95,-104.31 257.26,-95.41 251.75,-86.79"/>
<polygon fill="black" stroke="black" points="254.78,-85.03 246.44,-78.49 248.88,-88.8 254.78,-85.03"/>
</g>
<!-- King&#39;s Troop -->
<g id="node4" class="node">
<title>King&#39;s Troop</title>
<polygon fill="lightblue" stroke="lightblue" points="97,-303 0,-303 0,-226 97,-226 97,-303"/>
<image xlink:href="img/mob.png" width="97px" height="77px" preserveAspectRatio="xMinYMin meet" x="0" y="-303"/>
<text text-anchor="middle" x="48.5" y="-258.7" font-family="MS Gothic" font-size="14.00">King&#39;s Troop</text>
</g>
<!-- King&#39;s Troop&#45;&gt;ボイズィーボーイ -->
<g id="edge3" class="edge">
<title>King&#39;s Troop&#45;&gt;ボイズィーボーイ</title>
<path fill="none" stroke="black" d="M83.66,-225.61C91.78,-216.86 100.5,-207.46 108.9,-198.4"/>
<polygon fill="black" stroke="black" points="111.23,-201.04 115.47,-191.33 106.1,-196.28 111.23,-201.04"/>
</g>
<!-- Rising Hope -->
<g id="node5" class="node">
<title>Rising Hope</title>
<polygon fill="lightcoral" stroke="lightcoral" points="205.62,-303 115.38,-303 115.38,-226 205.62,-226 205.62,-303"/>
<image xlink:href="img/mob.png" width="90.25px" height="77px" preserveAspectRatio="xMinYMin meet" x="115.375" y="-303"/>
<text text-anchor="middle" x="160.5" y="-258.7" font-family="MS Gothic" font-size="14.00">Rising Hope</text>
</g>
<!-- Rising Hope&#45;&gt;ボイズィーボーイ -->
<g id="edge4" class="edge">
<title>Rising Hope&#45;&gt;ボイズィーボーイ</title>
<path fill="none" stroke="black" d="M157.43,-225.61C156.8,-217.84 156.13,-209.56 155.47,-201.46"/>
<polygon fill="black" stroke="black" points="158.98,-201.41 154.68,-191.73 152,-201.98 158.98,-201.41"/>
</g>
<!-- ヴェンチア -->
<g id="node6" class="node">
<title>ヴェンチア</title>
<polygon fill="lightblue" stroke="lightblue" points="328.12,-303 240.88,-303 240.88,-226 328.12,-226 328.12,-303"/>
<image xlink:href="img/mob.png" width="87.25px" height="77px" preserveAspectRatio="xMinYMin meet" x="240.875" y="-303"/>
<text text-anchor="middle" x="284.5" y="-258.7" font-family="MS Gothic" font-size="14.00">ヴェンチア</text>
</g>
<!-- ヴェンチア&#45;&gt;タニノベンチヤ -->
<g id="edge5" class="edge">
<title>ヴェンチア&#45;&gt;タニノベンチヤ</title>
<path fill="none" stroke="black" d="M287.23,-225.61C287.79,-217.84 288.39,-209.56 288.97,-201.46"/>
<polygon fill="black" stroke="black" points="292.44,-201.95 289.67,-191.73 285.46,-201.45 292.44,-201.95"/>
</g>
<!-- アベイブリッジ -->
<g id="node7" class="node">
<title>アベイブリッジ</title>
<polygon fill="lightcoral" stroke="lightcoral" points="462.38,-303 346.62,-303 346.62,-226 462.38,-226 462.38,-303"/>
<image xlink:href="img/mob.png" width="100px" height="77px" preserveAspectRatio="xMinYMin meet" x="354.5" y="-303"/>
<text text-anchor="middle" x="404.5" y="-258.7" font-family="MS Gothic" font-size="14.00">アベイブリッジ</text>
</g>
<!-- アベイブリッジ&#45;&gt;タニノベンチヤ -->
<g id="edge6" class="edge">
<title>アベイブリッジ&#45;&gt;タニノベンチヤ</title>
<path fill="none" stroke="black" d="M366.27,-225.61C357.35,-216.77 347.76,-207.26 338.54,-198.13"/>
<polygon fill="black" stroke="black" points="341.2,-195.84 331.63,-191.28 336.27,-200.81 341.2,-195.84"/>
</g>
</g>
</svg>
