<?xml version="1.0" encoding="UTF-8" standalone="no"?>
<!DOCTYPE svg PUBLIC "-//W3C//DTD SVG 1.1//EN"
 "http://www.w3.org/Graphics/SVG/1.1/DTD/svg11.dtd">
<!-- Generated by graphviz version 12.1.2 (20240928.0832)
 -->
<!-- Pages: 1 -->
<svg width="456pt" height="311pt"
 viewBox="0.00 0.00 456.38 311.00" xmlns="http://www.w3.org/2000/svg" xmlns:xlink="http://www.w3.org/1999/xlink">
<g id="graph0" class="graph" transform="scale(1 1) rotate(0) translate(4 307)">
<polygon fill="white" stroke="none" points="-4,4 -4,-307 452.38,-307 452.38,4 -4,4"/>
<!-- キングヘイロー -->
<g id="node1" class="node">
<title>キングヘイロー</title>
<polygon fill="none" stroke="black" points="288.88,-77 152.12,-77 152.12,0 288.88,0 288.88,-77"/>
<image xlink:href="img/kinguheiro.png" width="100px" height="77px" preserveAspectRatio="xMinYMin meet" x="170.5" y="-77"/>
<text text-anchor="middle" x="220.5" y="-32.33" font-family="Times New Roman,serif" font-size="14.00">キングヘイロー</text>
</g>
<!-- ダンシングブレーヴ -->
<g id="node2" class="node">
<title>ダンシングブレーヴ</title>
<polygon fill="lightblue" stroke="lightblue" points="215.62,-190 71.38,-190 71.38,-113 215.62,-113 215.62,-190"/>
<image xlink:href="img/mob.png" width="100px" height="77px" preserveAspectRatio="xMinYMin meet" x="93.5" y="-190"/>
<text text-anchor="middle" x="143.5" y="-145.7" font-family="MS Gothic" font-size="14.00">ダンシングブレーヴ</text>
</g>
<!-- ダンシングブレーヴ&#45;&gt;キングヘイロー -->
<g id="edge1" class="edge">
<title>ダンシングブレーヴ&#45;&gt;キングヘイロー</title>
<path fill="none" stroke="black" d="M169.78,-112.61C175.61,-104.22 181.85,-95.22 187.89,-86.51"/>
<polygon fill="black" stroke="black" points="190.65,-88.67 193.47,-78.46 184.9,-84.68 190.65,-88.67"/>
</g>
<!-- グッバイヘイロー -->
<g id="node3" class="node">
<title>グッバイヘイロー</title>
<polygon fill="lightcoral" stroke="lightcoral" points="363.5,-190 233.5,-190 233.5,-113 363.5,-113 363.5,-190"/>
<image xlink:href="img/mob.png" width="100px" height="77px" preserveAspectRatio="xMinYMin meet" x="248.5" y="-190"/>
<text text-anchor="middle" x="298.5" y="-145.7" font-family="MS Gothic" font-size="14.00">グッバイヘイロー</text>
</g>
<!-- グッバイヘイロー&#45;&gt;キングヘイロー -->
<g id="edge2" class="edge">
<title>グッバイヘイロー&#45;&gt;キングヘイロー</title>
<path fill="none" stroke="black" d="M271.87,-112.61C265.98,-104.22 259.66,-95.22 253.54,-86.51"/>
<polygon fill="black" stroke="black" points="256.49,-84.63 247.88,-78.46 250.76,-88.65 256.49,-84.63"/>
</g>
<!-- Lyphard -->
<g id="node4" class="node">
<title>Lyphard</title>
<polygon fill="lightblue" stroke="lightblue" points="77,-303 0,-303 0,-226 77,-226 77,-303"/>
<image xlink:href="img/mob.png" width="77px" height="77px" preserveAspectRatio="xMinYMin meet" x="0" y="-303"/>
<text text-anchor="middle" x="38.5" y="-258.7" font-family="MS Gothic" font-size="14.00">Lyphard</text>
</g>
<!-- Lyphard&#45;&gt;ダンシングブレーヴ -->
<g id="edge3" class="edge">
<title>Lyphard&#45;&gt;ダンシングブレーヴ</title>
<path fill="none" stroke="black" d="M74.34,-225.61C82.62,-216.86 91.51,-207.46 100.08,-198.4"/>
<polygon fill="black" stroke="black" points="102.45,-200.99 106.78,-191.32 97.37,-196.18 102.45,-200.99"/>
</g>
<!-- Navajo Princess -->
<g id="node5" class="node">
<title>Navajo Princess</title>
<polygon fill="lightcoral" stroke="lightcoral" points="212.12,-303 94.88,-303 94.88,-226 212.12,-226 212.12,-303"/>
<image xlink:href="img/mob.png" width="100px" height="77px" preserveAspectRatio="xMinYMin meet" x="103.5" y="-303"/>
<text text-anchor="middle" x="153.5" y="-258.7" font-family="MS Gothic" font-size="14.00">Navajo Princess</text>
</g>
<!-- Navajo Princess&#45;&gt;ダンシングブレーヴ -->
<g id="edge4" class="edge">
<title>Navajo Princess&#45;&gt;ダンシングブレーヴ</title>
<path fill="none" stroke="black" d="M150.09,-225.61C149.39,-217.84 148.64,-209.56 147.91,-201.46"/>
<polygon fill="black" stroke="black" points="151.42,-201.37 147.03,-191.73 144.45,-202 151.42,-201.37"/>
</g>
<!-- Halo -->
<g id="node6" class="node">
<title>Halo</title>
<polygon fill="lightblue" stroke="lightblue" points="327,-303 250,-303 250,-226 327,-226 327,-303"/>
<image xlink:href="img/mob.png" width="77px" height="77px" preserveAspectRatio="xMinYMin meet" x="250" y="-303"/>
<text text-anchor="middle" x="288.5" y="-258.7" font-family="MS Gothic" font-size="14.00">Halo</text>
</g>
<!-- Halo&#45;&gt;グッバイヘイロー -->
<g id="edge5" class="edge">
<title>Halo&#45;&gt;グッバイヘイロー</title>
<path fill="none" stroke="black" d="M291.91,-225.61C292.61,-217.84 293.36,-209.56 294.09,-201.46"/>
<polygon fill="black" stroke="black" points="297.55,-202 294.97,-191.73 290.58,-201.37 297.55,-202"/>
</g>
<!-- Pound Foolish -->
<g id="node7" class="node">
<title>Pound Foolish</title>
<polygon fill="lightcoral" stroke="lightcoral" points="448.38,-303 344.62,-303 344.62,-226 448.38,-226 448.38,-303"/>
<image xlink:href="img/mob.png" width="100px" height="77px" preserveAspectRatio="xMinYMin meet" x="346.5" y="-303"/>
<text text-anchor="middle" x="396.5" y="-258.7" font-family="MS Gothic" font-size="14.00">Pound Foolish</text>
</g>
<!-- Pound Foolish&#45;&gt;グッバイヘイロー -->
<g id="edge6" class="edge">
<title>Pound Foolish&#45;&gt;グッバイヘイロー</title>
<path fill="none" stroke="black" d="M363.05,-225.61C355.4,-216.95 347.19,-207.65 339.27,-198.68"/>
<polygon fill="black" stroke="black" points="342.05,-196.53 332.8,-191.35 336.8,-201.17 342.05,-196.53"/>
</g>
</g>
</svg>
