<?xml version="1.0" encoding="UTF-8" standalone="no"?>
<!DOCTYPE svg PUBLIC "-//W3C//DTD SVG 1.1//EN"
 "http://www.w3.org/Graphics/SVG/1.1/DTD/svg11.dtd">
<!-- Generated by graphviz version 12.1.2 (20240928.0832)
 -->
<!-- Pages: 1 -->
<svg width="424pt" height="311pt"
 viewBox="0.00 0.00 423.75 311.00" xmlns="http://www.w3.org/2000/svg" xmlns:xlink="http://www.w3.org/1999/xlink">
<g id="graph0" class="graph" transform="scale(1 1) rotate(0) translate(4 307)">
<polygon fill="white" stroke="none" points="-4,4 -4,-307 419.75,-307 419.75,4 -4,4"/>
<!-- グラスワンダー -->
<g id="node1" class="node">
<title>グラスワンダー</title>
<polygon fill="none" stroke="black" points="263.88,-77 127.12,-77 127.12,0 263.88,0 263.88,-77"/>
<image xlink:href="img/gurasuwanda.png" width="100px" height="77px" preserveAspectRatio="xMinYMin meet" x="145.5" y="-77"/>
<text text-anchor="middle" x="195.5" y="-32.33" font-family="Times New Roman,serif" font-size="14.00">グラスワンダー</text>
</g>
<!-- Silver Hawk -->
<g id="node2" class="node">
<title>Silver Hawk</title>
<polygon fill="lightblue" stroke="lightblue" points="188.62,-190 98.38,-190 98.38,-113 188.62,-113 188.62,-190"/>
<image xlink:href="img/mob.png" width="90.25px" height="77px" preserveAspectRatio="xMinYMin meet" x="98.375" y="-190"/>
<text text-anchor="middle" x="143.5" y="-145.7" font-family="MS Gothic" font-size="14.00">Silver Hawk</text>
</g>
<!-- Silver Hawk&#45;&gt;グラスワンダー -->
<g id="edge1" class="edge">
<title>Silver Hawk&#45;&gt;グラスワンダー</title>
<path fill="none" stroke="black" d="M161.25,-112.61C165.02,-104.57 169.04,-95.99 172.95,-87.63"/>
<polygon fill="black" stroke="black" points="176.12,-89.13 177.19,-78.59 169.78,-86.16 176.12,-89.13"/>
</g>
<!-- Ameriflora -->
<g id="node3" class="node">
<title>Ameriflora</title>
<polygon fill="lightcoral" stroke="lightcoral" points="290.25,-190 206.75,-190 206.75,-113 290.25,-113 290.25,-190"/>
<image xlink:href="img/mob.png" width="83.5px" height="77px" preserveAspectRatio="xMinYMin meet" x="206.75" y="-190"/>
<text text-anchor="middle" x="248.5" y="-145.7" font-family="MS Gothic" font-size="14.00">Ameriflora</text>
</g>
<!-- Ameriflora&#45;&gt;グラスワンダー -->
<g id="edge2" class="edge">
<title>Ameriflora&#45;&gt;グラスワンダー</title>
<path fill="none" stroke="black" d="M230.41,-112.61C226.53,-104.48 222.38,-95.8 218.35,-87.35"/>
<polygon fill="black" stroke="black" points="221.63,-86.1 214.16,-78.58 215.31,-89.12 221.63,-86.1"/>
</g>
<!-- Roberto -->
<g id="node4" class="node">
<title>Roberto</title>
<polygon fill="lightblue" stroke="lightblue" points="77,-303 0,-303 0,-226 77,-226 77,-303"/>
<image xlink:href="img/mob.png" width="77px" height="77px" preserveAspectRatio="xMinYMin meet" x="0" y="-303"/>
<text text-anchor="middle" x="38.5" y="-258.7" font-family="MS Gothic" font-size="14.00">Roberto</text>
</g>
<!-- Roberto&#45;&gt;Silver Hawk -->
<g id="edge3" class="edge">
<title>Roberto&#45;&gt;Silver Hawk</title>
<path fill="none" stroke="black" d="M74.34,-225.61C82.62,-216.86 91.51,-207.46 100.08,-198.4"/>
<polygon fill="black" stroke="black" points="102.45,-200.99 106.78,-191.32 97.37,-196.18 102.45,-200.99"/>
</g>
<!-- Gris Vitesse -->
<g id="node5" class="node">
<title>Gris Vitesse</title>
<polygon fill="lightcoral" stroke="lightcoral" points="192,-303 95,-303 95,-226 192,-226 192,-303"/>
<image xlink:href="img/mob.png" width="97px" height="77px" preserveAspectRatio="xMinYMin meet" x="95" y="-303"/>
<text text-anchor="middle" x="143.5" y="-258.7" font-family="MS Gothic" font-size="14.00">Gris Vitesse</text>
</g>
<!-- Gris Vitesse&#45;&gt;Silver Hawk -->
<g id="edge4" class="edge">
<title>Gris Vitesse&#45;&gt;Silver Hawk</title>
<path fill="none" stroke="black" d="M143.5,-225.61C143.5,-217.84 143.5,-209.56 143.5,-201.46"/>
<polygon fill="black" stroke="black" points="147,-201.73 143.5,-191.73 140,-201.73 147,-201.73"/>
</g>
<!-- Danzig -->
<g id="node6" class="node">
<title>Danzig</title>
<polygon fill="lightblue" stroke="lightblue" points="287,-303 210,-303 210,-226 287,-226 287,-303"/>
<image xlink:href="img/mob.png" width="77px" height="77px" preserveAspectRatio="xMinYMin meet" x="210" y="-303"/>
<text text-anchor="middle" x="248.5" y="-258.7" font-family="MS Gothic" font-size="14.00">Danzig</text>
</g>
<!-- Danzig&#45;&gt;Ameriflora -->
<g id="edge5" class="edge">
<title>Danzig&#45;&gt;Ameriflora</title>
<path fill="none" stroke="black" d="M248.5,-225.61C248.5,-217.84 248.5,-209.56 248.5,-201.46"/>
<polygon fill="black" stroke="black" points="252,-201.73 248.5,-191.73 245,-201.73 252,-201.73"/>
</g>
<!-- Graceful Touch -->
<g id="node7" class="node">
<title>Graceful Touch</title>
<polygon fill="lightcoral" stroke="lightcoral" points="415.75,-303 305.25,-303 305.25,-226 415.75,-226 415.75,-303"/>
<image xlink:href="img/mob.png" width="100px" height="77px" preserveAspectRatio="xMinYMin meet" x="310.5" y="-303"/>
<text text-anchor="middle" x="360.5" y="-258.7" font-family="MS Gothic" font-size="14.00">Graceful Touch</text>
</g>
<!-- Graceful Touch&#45;&gt;Ameriflora -->
<g id="edge6" class="edge">
<title>Graceful Touch&#45;&gt;Ameriflora</title>
<path fill="none" stroke="black" d="M322.27,-225.61C313.35,-216.77 303.76,-207.26 294.54,-198.13"/>
<polygon fill="black" stroke="black" points="297.2,-195.84 287.63,-191.28 292.27,-200.81 297.2,-195.84"/>
</g>
</g>
</svg>
