<?xml version="1.0" encoding="UTF-8" standalone="no"?>
<!DOCTYPE svg PUBLIC "-//W3C//DTD SVG 1.1//EN"
 "http://www.w3.org/Graphics/SVG/1.1/DTD/svg11.dtd">
<!-- Generated by graphviz version 12.1.2 (20240928.0832)
 -->
<!-- Pages: 1 -->
<svg width="500pt" height="311pt"
 viewBox="0.00 0.00 499.50 311.00" xmlns="http://www.w3.org/2000/svg" xmlns:xlink="http://www.w3.org/1999/xlink">
<g id="graph0" class="graph" transform="scale(1 1) rotate(0) translate(4 307)">
<polygon fill="white" stroke="none" points="-4,4 -4,-307 495.5,-307 495.5,4 -4,4"/>
<!-- ケイエスミラクル -->
<g id="node1" class="node">
<title>ケイエスミラクル</title>
<polygon fill="none" stroke="black" points="327.25,-77 173.25,-77 173.25,0 327.25,0 327.25,-77"/>
<image xlink:href="img/keiesumirakuru.png" width="100px" height="77px" preserveAspectRatio="xMinYMin meet" x="200.25" y="-77"/>
<text text-anchor="middle" x="250.25" y="-32.33" font-family="Times New Roman,serif" font-size="14.00">ケイエスミラクル</text>
</g>
<!-- Stutz Blackhawk -->
<g id="node2" class="node">
<title>Stutz Blackhawk</title>
<polygon fill="lightblue" stroke="lightblue" points="223.88,-190 106.62,-190 106.62,-113 223.88,-113 223.88,-190"/>
<image xlink:href="img/mob.png" width="100px" height="77px" preserveAspectRatio="xMinYMin meet" x="115.25" y="-190"/>
<text text-anchor="middle" x="165.25" y="-145.7" font-family="MS Gothic" font-size="14.00">Stutz Blackhawk</text>
</g>
<!-- Stutz Blackhawk&#45;&gt;ケイエスミラクル -->
<g id="edge1" class="edge">
<title>Stutz Blackhawk&#45;&gt;ケイエスミラクル</title>
<path fill="none" stroke="black" d="M194.26,-112.61C200.76,-104.13 207.73,-95.03 214.46,-86.24"/>
<polygon fill="black" stroke="black" points="217.15,-88.49 220.45,-78.42 211.59,-84.23 217.15,-88.49"/>
</g>
<!-- レディベンドフエイジヤー -->
<g id="node3" class="node">
<title>レディベンドフエイジヤー</title>
<polygon fill="lightcoral" stroke="lightcoral" points="428.75,-190 241.75,-190 241.75,-113 428.75,-113 428.75,-190"/>
<image xlink:href="img/mob.png" width="100px" height="77px" preserveAspectRatio="xMinYMin meet" x="285.25" y="-190"/>
<text text-anchor="middle" x="335.25" y="-145.7" font-family="MS Gothic" font-size="14.00">レディベンドフエイジヤー</text>
</g>
<!-- レディベンドフエイジヤー&#45;&gt;ケイエスミラクル -->
<g id="edge2" class="edge">
<title>レディベンドフエイジヤー&#45;&gt;ケイエスミラクル</title>
<path fill="none" stroke="black" d="M306.24,-112.61C299.74,-104.13 292.77,-95.03 286.04,-86.24"/>
<polygon fill="black" stroke="black" points="288.91,-84.23 280.05,-78.42 283.35,-88.49 288.91,-84.23"/>
</g>
<!-- Mr. Prospector -->
<g id="node4" class="node">
<title>Mr. Prospector</title>
<polygon fill="lightblue" stroke="lightblue" points="110.5,-303 0,-303 0,-226 110.5,-226 110.5,-303"/>
<image xlink:href="img/mob.png" width="100px" height="77px" preserveAspectRatio="xMinYMin meet" x="5.25" y="-303"/>
<text text-anchor="middle" x="55.25" y="-258.7" font-family="MS Gothic" font-size="14.00">Mr. Prospector</text>
</g>
<!-- Mr. Prospector&#45;&gt;Stutz Blackhawk -->
<g id="edge3" class="edge">
<title>Mr. Prospector&#45;&gt;Stutz Blackhawk</title>
<path fill="none" stroke="black" d="M92.8,-225.61C101.56,-216.77 110.98,-207.26 120.03,-198.13"/>
<polygon fill="black" stroke="black" points="122.25,-200.86 126.81,-191.29 117.28,-195.93 122.25,-200.86"/>
</g>
<!-- Sunny Morning -->
<g id="node5" class="node">
<title>Sunny Morning</title>
<polygon fill="lightcoral" stroke="lightcoral" points="232.12,-303 128.38,-303 128.38,-226 232.12,-226 232.12,-303"/>
<image xlink:href="img/mob.png" width="100px" height="77px" preserveAspectRatio="xMinYMin meet" x="130.25" y="-303"/>
<text text-anchor="middle" x="180.25" y="-258.7" font-family="MS Gothic" font-size="14.00">Sunny Morning</text>
</g>
<!-- Sunny Morning&#45;&gt;Stutz Blackhawk -->
<g id="edge4" class="edge">
<title>Sunny Morning&#45;&gt;Stutz Blackhawk</title>
<path fill="none" stroke="black" d="M175.13,-225.61C174.08,-217.84 172.96,-209.56 171.87,-201.46"/>
<polygon fill="black" stroke="black" points="175.36,-201.16 170.55,-191.72 168.42,-202.1 175.36,-201.16"/>
</g>
<!-- Never Bend -->
<g id="node6" class="node">
<title>Never Bend</title>
<polygon fill="lightblue" stroke="lightblue" points="363,-303 279.5,-303 279.5,-226 363,-226 363,-303"/>
<image xlink:href="img/mob.png" width="83.5px" height="77px" preserveAspectRatio="xMinYMin meet" x="279.5" y="-303"/>
<text text-anchor="middle" x="321.25" y="-258.7" font-family="MS Gothic" font-size="14.00">Never Bend</text>
</g>
<!-- Never Bend&#45;&gt;レディベンドフエイジヤー -->
<g id="edge5" class="edge">
<title>Never Bend&#45;&gt;レディベンドフエイジヤー</title>
<path fill="none" stroke="black" d="M326.03,-225.61C327.01,-217.84 328.05,-209.56 329.07,-201.46"/>
<polygon fill="black" stroke="black" points="332.52,-202.08 330.3,-191.72 325.58,-201.2 332.52,-202.08"/>
</g>
<!-- Princess Fager -->
<g id="node7" class="node">
<title>Princess Fager</title>
<polygon fill="lightcoral" stroke="lightcoral" points="491.5,-303 381,-303 381,-226 491.5,-226 491.5,-303"/>
<image xlink:href="img/mob.png" width="100px" height="77px" preserveAspectRatio="xMinYMin meet" x="386.25" y="-303"/>
<text text-anchor="middle" x="436.25" y="-258.7" font-family="MS Gothic" font-size="14.00">Princess Fager</text>
</g>
<!-- Princess Fager&#45;&gt;レディベンドフエイジヤー -->
<g id="edge6" class="edge">
<title>Princess Fager&#45;&gt;レディベンドフエイジヤー</title>
<path fill="none" stroke="black" d="M401.77,-225.61C393.89,-216.95 385.43,-207.65 377.27,-198.68"/>
<polygon fill="black" stroke="black" points="379.91,-196.38 370.59,-191.34 374.73,-201.09 379.91,-196.38"/>
</g>
</g>
</svg>
