<?xml version="1.0" encoding="UTF-8" standalone="no"?>
<!DOCTYPE svg PUBLIC "-//W3C//DTD SVG 1.1//EN"
 "http://www.w3.org/Graphics/SVG/1.1/DTD/svg11.dtd">
<!-- Generated by graphviz version 12.1.2 (20240928.0832)
 -->
<!-- Pages: 1 -->
<svg width="195pt" height="311pt"
 viewBox="0.00 0.00 195.00 311.00" xmlns="http://www.w3.org/2000/svg" xmlns:xlink="http://www.w3.org/1999/xlink">
<g id="graph0" class="graph" transform="scale(1 1) rotate(0) translate(4 307)">
<polygon fill="white" stroke="none" points="-4,4 -4,-307 191,-307 191,4 -4,4"/>
<!-- ケイエスミラクル -->
<g id="node1" class="node">
<title>ケイエスミラクル</title>
<polygon fill="none" stroke="black" points="170.5,-77 16.5,-77 16.5,0 170.5,0 170.5,-77"/>
<image xlink:href="img/keiesumirakuru.png" width="100px" height="77px" preserveAspectRatio="xMinYMin meet" x="43.5" y="-77"/>
<text text-anchor="middle" x="93.5" y="-32.33" font-family="Times New Roman,serif" font-size="14.00">ケイエスミラクル</text>
</g>
<!-- Stutz Blackhawk -->
<g id="node2" class="node">
<title>Stutz Blackhawk</title>
<polygon fill="lightblue" stroke="lightblue" points="152.12,-190 34.88,-190 34.88,-113 152.12,-113 152.12,-190"/>
<image xlink:href="img/mob.png" width="100px" height="77px" preserveAspectRatio="xMinYMin meet" x="43.5" y="-190"/>
<text text-anchor="middle" x="93.5" y="-145.7" font-family="MS Gothic" font-size="14.00">Stutz Blackhawk</text>
</g>
<!-- Stutz Blackhawk&#45;&gt;ケイエスミラクル -->
<g id="edge1" class="edge">
<title>Stutz Blackhawk&#45;&gt;ケイエスミラクル</title>
<path fill="none" stroke="black" d="M93.5,-112.61C93.5,-104.84 93.5,-96.56 93.5,-88.46"/>
<polygon fill="black" stroke="black" points="97,-88.73 93.5,-78.73 90,-88.73 97,-88.73"/>
</g>
<!-- レディベンドフエイジヤー -->
<g id="node3" class="node">
<title>レディベンドフエイジヤー</title>
<polygon fill="lightblue" stroke="lightblue" points="187,-303 0,-303 0,-226 187,-226 187,-303"/>
<image xlink:href="img/mob.png" width="100px" height="77px" preserveAspectRatio="xMinYMin meet" x="43.5" y="-303"/>
<text text-anchor="middle" x="93.5" y="-258.7" font-family="MS Gothic" font-size="14.00">レディベンドフエイジヤー</text>
</g>
<!-- レディベンドフエイジヤー&#45;&gt;Stutz Blackhawk -->
<g id="edge2" class="edge">
<title>レディベンドフエイジヤー&#45;&gt;Stutz Blackhawk</title>
<path fill="none" stroke="black" d="M93.5,-225.61C93.5,-217.84 93.5,-209.56 93.5,-201.46"/>
<polygon fill="black" stroke="black" points="97,-201.73 93.5,-191.73 90,-201.73 97,-201.73"/>
</g>
</g>
</svg>
