<?xml version="1.0" encoding="UTF-8" standalone="no"?>
<!DOCTYPE svg PUBLIC "-//W3C//DTD SVG 1.1//EN"
 "http://www.w3.org/Graphics/SVG/1.1/DTD/svg11.dtd">
<!-- Generated by graphviz version 12.1.2 (20240928.0832)
 -->
<!-- Pages: 1 -->
<svg width="2482pt" height="650pt"
 viewBox="0.00 0.00 2482.12 650.00" xmlns="http://www.w3.org/2000/svg" xmlns:xlink="http://www.w3.org/1999/xlink">
<g id="graph0" class="graph" transform="scale(1 1) rotate(0) translate(4 646)">
<polygon fill="white" stroke="none" points="-4,4 -4,-646 2478.12,-646 2478.12,4 -4,4"/>
<!-- ゴールドシップ -->
<g id="node1" class="node">
<title>ゴールドシップ</title>
<polygon fill="none" stroke="black" points="623.25,-77 486.5,-77 486.5,0 623.25,0 623.25,-77"/>
<image xlink:href="img/gorudoshitsupu.png" width="100px" height="77px" preserveAspectRatio="xMinYMin meet" x="504.875" y="-77"/>
<text text-anchor="middle" x="554.88" y="-32.33" font-family="Times New Roman,serif" font-size="14.00">ゴールドシップ</text>
</g>
<!-- ステイゴールド -->
<g id="node2" class="node">
<title>ステイゴールド</title>
<polygon fill="lightblue" stroke="lightblue" points="531.75,-190 416,-190 416,-113 531.75,-113 531.75,-190"/>
<image xlink:href="img/mob.png" width="100px" height="77px" preserveAspectRatio="xMinYMin meet" x="423.875" y="-190"/>
<text text-anchor="middle" x="473.88" y="-145.7" font-family="MS Gothic" font-size="14.00">ステイゴールド</text>
</g>
<!-- ステイゴールド&#45;&gt;ゴールドシップ -->
<g id="edge1" class="edge">
<title>ステイゴールド&#45;&gt;ゴールドシップ</title>
<path fill="none" stroke="black" d="M501.52,-112.61C507.65,-104.22 514.21,-95.22 520.57,-86.51"/>
<polygon fill="black" stroke="black" points="523.39,-88.58 526.46,-78.44 517.74,-84.46 523.39,-88.58"/>
</g>
<!-- ポイントフラッグ -->
<g id="node3" class="node">
<title>ポイントフラッグ</title>
<polygon fill="lightcoral" stroke="lightcoral" points="700.88,-190 570.88,-190 570.88,-113 700.88,-113 700.88,-190"/>
<image xlink:href="img/mob.png" width="100px" height="77px" preserveAspectRatio="xMinYMin meet" x="585.875" y="-190"/>
<text text-anchor="middle" x="635.88" y="-145.7" font-family="MS Gothic" font-size="14.00">ポイントフラッグ</text>
</g>
<!-- ポイントフラッグ&#45;&gt;ゴールドシップ -->
<g id="edge2" class="edge">
<title>ポイントフラッグ&#45;&gt;ゴールドシップ</title>
<path fill="none" stroke="black" d="M608.23,-112.61C602.1,-104.22 595.54,-95.22 589.18,-86.51"/>
<polygon fill="black" stroke="black" points="592.01,-84.46 583.29,-78.44 586.36,-88.58 592.01,-84.46"/>
</g>
<!-- サンデーサイレンス -->
<g id="node4" class="node">
<title>サンデーサイレンス</title>
<polygon fill="lightblue" stroke="lightblue" points="384,-303 239.75,-303 239.75,-226 384,-226 384,-303"/>
<image xlink:href="img/mob.png" width="100px" height="77px" preserveAspectRatio="xMinYMin meet" x="261.875" y="-303"/>
<text text-anchor="middle" x="311.88" y="-258.7" font-family="MS Gothic" font-size="14.00">サンデーサイレンス</text>
</g>
<!-- サンデーサイレンス&#45;&gt;ステイゴールド -->
<g id="edge3" class="edge">
<title>サンデーサイレンス&#45;&gt;ステイゴールド</title>
<path fill="none" stroke="black" d="M367.17,-225.61C380.65,-216.37 395.19,-206.41 409.07,-196.9"/>
<polygon fill="black" stroke="black" points="411.03,-199.8 417.3,-191.26 407.08,-194.03 411.03,-199.8"/>
</g>
<!-- ゴールデンサッシュ -->
<g id="node5" class="node">
<title>ゴールデンサッシュ</title>
<polygon fill="lightcoral" stroke="lightcoral" points="546,-303 401.75,-303 401.75,-226 546,-226 546,-303"/>
<image xlink:href="img/mob.png" width="100px" height="77px" preserveAspectRatio="xMinYMin meet" x="423.875" y="-303"/>
<text text-anchor="middle" x="473.88" y="-258.7" font-family="MS Gothic" font-size="14.00">ゴールデンサッシュ</text>
</g>
<!-- ゴールデンサッシュ&#45;&gt;ステイゴールド -->
<g id="edge4" class="edge">
<title>ゴールデンサッシュ&#45;&gt;ステイゴールド</title>
<path fill="none" stroke="black" d="M473.88,-225.61C473.88,-217.84 473.88,-209.56 473.88,-201.46"/>
<polygon fill="black" stroke="black" points="477.38,-201.73 473.88,-191.73 470.38,-201.73 477.38,-201.73"/>
</g>
<!-- メジロマックイーン -->
<g id="node6" class="node">
<title>メジロマックイーン</title>
<polygon fill="lightblue" stroke="lightblue" points="708,-303 563.75,-303 563.75,-226 708,-226 708,-303"/>
<image xlink:href="img/meziromatsukuin.png" width="100px" height="77px" preserveAspectRatio="xMinYMin meet" x="585.875" y="-303"/>
<text text-anchor="middle" x="635.88" y="-258.7" font-family="MS Gothic" font-size="14.00">メジロマックイーン</text>
</g>
<!-- メジロマックイーン&#45;&gt;ポイントフラッグ -->
<g id="edge5" class="edge">
<title>メジロマックイーン&#45;&gt;ポイントフラッグ</title>
<path fill="none" stroke="black" d="M635.88,-225.61C635.88,-217.84 635.88,-209.56 635.88,-201.46"/>
<polygon fill="black" stroke="black" points="639.38,-201.73 635.88,-191.73 632.38,-201.73 639.38,-201.73"/>
</g>
<!-- パストラリズム -->
<g id="node7" class="node">
<title>パストラリズム</title>
<polygon fill="lightcoral" stroke="lightcoral" points="841.75,-303 726,-303 726,-226 841.75,-226 841.75,-303"/>
<image xlink:href="img/mob.png" width="100px" height="77px" preserveAspectRatio="xMinYMin meet" x="733.875" y="-303"/>
<text text-anchor="middle" x="783.88" y="-258.7" font-family="MS Gothic" font-size="14.00">パストラリズム</text>
</g>
<!-- パストラリズム&#45;&gt;ポイントフラッグ -->
<g id="edge6" class="edge">
<title>パストラリズム&#45;&gt;ポイントフラッグ</title>
<path fill="none" stroke="black" d="M733.36,-225.61C721.16,-216.46 708.01,-206.6 695.45,-197.18"/>
<polygon fill="black" stroke="black" points="697.73,-194.52 687.63,-191.32 693.53,-200.12 697.73,-194.52"/>
</g>
<!-- Halo -->
<g id="node8" class="node">
<title>Halo</title>
<polygon fill="lightblue" stroke="lightblue" points="351.38,-416 274.38,-416 274.38,-339 351.38,-339 351.38,-416"/>
<image xlink:href="img/mob.png" width="77px" height="77px" preserveAspectRatio="xMinYMin meet" x="274.375" y="-416"/>
<text text-anchor="middle" x="312.88" y="-371.7" font-family="MS Gothic" font-size="14.00">Halo</text>
</g>
<!-- Halo&#45;&gt;サンデーサイレンス -->
<g id="edge7" class="edge">
<title>Halo&#45;&gt;サンデーサイレンス</title>
<path fill="none" stroke="black" d="M312.53,-338.61C312.46,-330.84 312.39,-322.56 312.32,-314.46"/>
<polygon fill="black" stroke="black" points="315.82,-314.7 312.23,-304.73 308.82,-314.76 315.82,-314.7"/>
</g>
<!-- Wishing Well -->
<g id="node9" class="node">
<title>Wishing Well</title>
<polygon fill="lightcoral" stroke="lightcoral" points="229.38,-416 132.38,-416 132.38,-339 229.38,-339 229.38,-416"/>
<image xlink:href="img/mob.png" width="97px" height="77px" preserveAspectRatio="xMinYMin meet" x="132.375" y="-416"/>
<text text-anchor="middle" x="180.88" y="-371.7" font-family="MS Gothic" font-size="14.00">Wishing Well</text>
</g>
<!-- Wishing Well&#45;&gt;サンデーサイレンス -->
<g id="edge8" class="edge">
<title>Wishing Well&#45;&gt;サンデーサイレンス</title>
<path fill="none" stroke="black" d="M225.59,-338.61C236.24,-329.59 247.7,-319.88 258.68,-310.57"/>
<polygon fill="black" stroke="black" points="260.84,-313.33 266.21,-304.2 256.31,-307.99 260.84,-313.33"/>
</g>
<!-- Hail to Reason -->
<g id="node10" class="node">
<title>Hail to Reason</title>
<polygon fill="lightblue" stroke="lightblue" points="368.12,-529 257.62,-529 257.62,-452 368.12,-452 368.12,-529"/>
<image xlink:href="img/mob.png" width="100px" height="77px" preserveAspectRatio="xMinYMin meet" x="262.875" y="-529"/>
<text text-anchor="middle" x="312.88" y="-484.7" font-family="MS Gothic" font-size="14.00">Hail to Reason</text>
</g>
<!-- Hail to Reason&#45;&gt;Halo -->
<g id="edge9" class="edge">
<title>Hail to Reason&#45;&gt;Halo</title>
<path fill="none" stroke="black" d="M312.88,-451.61C312.88,-443.84 312.88,-435.56 312.88,-427.46"/>
<polygon fill="black" stroke="black" points="316.38,-427.73 312.88,-417.73 309.38,-427.73 316.38,-427.73"/>
</g>
<!-- Cosmah -->
<g id="node11" class="node">
<title>Cosmah</title>
<polygon fill="lightcoral" stroke="lightcoral" points="463.38,-529 386.38,-529 386.38,-452 463.38,-452 463.38,-529"/>
<image xlink:href="img/mob.png" width="77px" height="77px" preserveAspectRatio="xMinYMin meet" x="386.375" y="-529"/>
<text text-anchor="middle" x="424.88" y="-484.7" font-family="MS Gothic" font-size="14.00">Cosmah</text>
</g>
<!-- Cosmah&#45;&gt;Halo -->
<g id="edge10" class="edge">
<title>Cosmah&#45;&gt;Halo</title>
<path fill="none" stroke="black" d="M386.64,-451.61C377.72,-442.77 368.13,-433.26 358.91,-424.13"/>
<polygon fill="black" stroke="black" points="361.58,-421.84 352.01,-417.28 356.65,-426.81 361.58,-421.84"/>
</g>
<!-- Understanding -->
<g id="node12" class="node">
<title>Understanding</title>
<polygon fill="lightblue" stroke="lightblue" points="103.75,-529 0,-529 0,-452 103.75,-452 103.75,-529"/>
<image xlink:href="img/mob.png" width="100px" height="77px" preserveAspectRatio="xMinYMin meet" x="1.875" y="-529"/>
<text text-anchor="middle" x="51.88" y="-484.7" font-family="MS Gothic" font-size="14.00">Understanding</text>
</g>
<!-- Understanding&#45;&gt;Wishing Well -->
<g id="edge11" class="edge">
<title>Understanding&#45;&gt;Wishing Well</title>
<path fill="none" stroke="black" d="M95.91,-451.61C106.39,-442.59 117.68,-432.88 128.49,-423.57"/>
<polygon fill="black" stroke="black" points="130.6,-426.38 135.89,-417.21 126.03,-421.08 130.6,-426.38"/>
</g>
<!-- Mountain Flower -->
<g id="node13" class="node">
<title>Mountain Flower</title>
<polygon fill="lightcoral" stroke="lightcoral" points="239.5,-529 122.25,-529 122.25,-452 239.5,-452 239.5,-529"/>
<image xlink:href="img/mob.png" width="100px" height="77px" preserveAspectRatio="xMinYMin meet" x="130.875" y="-529"/>
<text text-anchor="middle" x="180.88" y="-484.7" font-family="MS Gothic" font-size="14.00">Mountain Flower</text>
</g>
<!-- Mountain Flower&#45;&gt;Wishing Well -->
<g id="edge12" class="edge">
<title>Mountain Flower&#45;&gt;Wishing Well</title>
<path fill="none" stroke="black" d="M180.88,-451.61C180.88,-443.84 180.88,-435.56 180.88,-427.46"/>
<polygon fill="black" stroke="black" points="184.38,-427.73 180.88,-417.73 177.38,-427.73 184.38,-427.73"/>
</g>
<!-- メジロティターン -->
<g id="node14" class="node">
<title>メジロティターン</title>
<polygon fill="lightblue" stroke="lightblue" points="977.88,-416 847.88,-416 847.88,-339 977.88,-339 977.88,-416"/>
<image xlink:href="img/mob.png" width="100px" height="77px" preserveAspectRatio="xMinYMin meet" x="862.875" y="-416"/>
<text text-anchor="middle" x="912.88" y="-371.7" font-family="MS Gothic" font-size="14.00">メジロティターン</text>
</g>
<!-- メジロティターン&#45;&gt;メジロマックイーン -->
<g id="edge13" class="edge">
<title>メジロティターン&#45;&gt;メジロマックイーン</title>
<path fill="none" stroke="black" d="M847.39,-342.54C844.53,-341.3 841.69,-340.12 838.88,-339 789.51,-319.4 771.92,-322.44 718.8,-303.51"/>
<polygon fill="black" stroke="black" points="720.09,-300.25 709.5,-300.09 717.67,-306.82 720.09,-300.25"/>
</g>
<!-- メジロオーロラ -->
<g id="node15" class="node">
<title>メジロオーロラ</title>
<polygon fill="lightcoral" stroke="lightcoral" points="692.75,-416 577,-416 577,-339 692.75,-339 692.75,-416"/>
<image xlink:href="img/mob.png" width="100px" height="77px" preserveAspectRatio="xMinYMin meet" x="584.875" y="-416"/>
<text text-anchor="middle" x="634.88" y="-371.7" font-family="MS Gothic" font-size="14.00">メジロオーロラ</text>
</g>
<!-- メジロオーロラ&#45;&gt;メジロマックイーン -->
<g id="edge14" class="edge">
<title>メジロオーロラ&#45;&gt;メジロマックイーン</title>
<path fill="none" stroke="black" d="M635.22,-338.61C635.29,-330.84 635.36,-322.56 635.43,-314.46"/>
<polygon fill="black" stroke="black" points="638.93,-314.76 635.52,-304.73 631.93,-314.7 638.93,-314.76"/>
</g>
<!-- メジロアサマ -->
<g id="node16" class="node">
<title>メジロアサマ</title>
<polygon fill="lightblue" stroke="lightblue" points="1005.62,-529 904.12,-529 904.12,-452 1005.62,-452 1005.62,-529"/>
<image xlink:href="img/mob.png" width="100px" height="77px" preserveAspectRatio="xMinYMin meet" x="904.875" y="-529"/>
<text text-anchor="middle" x="954.88" y="-484.7" font-family="MS Gothic" font-size="14.00">メジロアサマ</text>
</g>
<!-- メジロアサマ&#45;&gt;メジロティターン -->
<g id="edge15" class="edge">
<title>メジロアサマ&#45;&gt;メジロティターン</title>
<path fill="none" stroke="black" d="M940.54,-451.61C937.53,-443.66 934.32,-435.18 931.19,-426.91"/>
<polygon fill="black" stroke="black" points="934.5,-425.75 927.68,-417.63 927.95,-428.23 934.5,-425.75"/>
</g>
<!-- シエリル -->
<g id="node17" class="node">
<title>シエリル</title>
<polygon fill="lightcoral" stroke="lightcoral" points="1103.38,-529 1026.38,-529 1026.38,-452 1103.38,-452 1103.38,-529"/>
<image xlink:href="img/mob.png" width="77px" height="77px" preserveAspectRatio="xMinYMin meet" x="1026.38" y="-529"/>
<text text-anchor="middle" x="1064.88" y="-484.7" font-family="MS Gothic" font-size="14.00">シエリル</text>
</g>
<!-- シエリル&#45;&gt;メジロティターン -->
<g id="edge16" class="edge">
<title>シエリル&#45;&gt;メジロティターン</title>
<path fill="none" stroke="black" d="M1025.9,-460.15C1022.18,-457.39 1018.46,-454.64 1014.88,-452 1002.02,-442.55 988.18,-432.5 974.98,-422.96"/>
<polygon fill="black" stroke="black" points="977.34,-420.35 967.18,-417.34 973.25,-426.03 977.34,-420.35"/>
</g>
<!-- メジロチェイサー -->
<g id="node31" class="node">
<title>メジロチェイサー</title>
<polygon fill="lightcoral" stroke="lightcoral" points="1231.88,-416 1101.88,-416 1101.88,-339 1231.88,-339 1231.88,-416"/>
<image xlink:href="img/mob.png" width="100px" height="77px" preserveAspectRatio="xMinYMin meet" x="1116.88" y="-416"/>
<text text-anchor="middle" x="1166.88" y="-371.7" font-family="MS Gothic" font-size="14.00">メジロチェイサー</text>
</g>
<!-- シエリル&#45;&gt;メジロチェイサー -->
<g id="edge44" class="edge">
<title>シエリル&#45;&gt;メジロチェイサー</title>
<path fill="none" stroke="black" d="M1099.69,-451.61C1107.65,-442.95 1116.2,-433.65 1124.44,-424.68"/>
<polygon fill="black" stroke="black" points="1127,-427.06 1131.19,-417.33 1121.85,-422.33 1127,-427.06"/>
</g>
<!-- リマンド -->
<g id="node18" class="node">
<title>リマンド</title>
<polygon fill="lightblue" stroke="lightblue" points="559.38,-529 482.38,-529 482.38,-452 559.38,-452 559.38,-529"/>
<image xlink:href="img/mob.png" width="77px" height="77px" preserveAspectRatio="xMinYMin meet" x="482.375" y="-529"/>
<text text-anchor="middle" x="520.88" y="-484.7" font-family="MS Gothic" font-size="14.00">リマンド</text>
</g>
<!-- リマンド&#45;&gt;メジロオーロラ -->
<g id="edge17" class="edge">
<title>リマンド&#45;&gt;メジロオーロラ</title>
<path fill="none" stroke="black" d="M559.79,-451.61C568.87,-442.77 578.63,-433.26 588.01,-424.13"/>
<polygon fill="black" stroke="black" points="590.33,-426.76 595.05,-417.27 585.45,-421.74 590.33,-426.76"/>
</g>
<!-- メジロアイリス -->
<g id="node19" class="node">
<title>メジロアイリス</title>
<polygon fill="lightcoral" stroke="lightcoral" points="692.75,-529 577,-529 577,-452 692.75,-452 692.75,-529"/>
<image xlink:href="img/mob.png" width="100px" height="77px" preserveAspectRatio="xMinYMin meet" x="584.875" y="-529"/>
<text text-anchor="middle" x="634.88" y="-484.7" font-family="MS Gothic" font-size="14.00">メジロアイリス</text>
</g>
<!-- メジロアイリス&#45;&gt;メジロオーロラ -->
<g id="edge18" class="edge">
<title>メジロアイリス&#45;&gt;メジロオーロラ</title>
<path fill="none" stroke="black" d="M634.88,-451.61C634.88,-443.84 634.88,-435.56 634.88,-427.46"/>
<polygon fill="black" stroke="black" points="638.38,-427.73 634.88,-417.73 631.38,-427.73 638.38,-427.73"/>
</g>
<!-- メジロアルダン -->
<g id="node20" class="node">
<title>メジロアルダン</title>
<polygon fill="none" stroke="black" points="1794.25,-303 1657.5,-303 1657.5,-226 1794.25,-226 1794.25,-303"/>
<image xlink:href="img/meziroarudan.png" width="100px" height="77px" preserveAspectRatio="xMinYMin meet" x="1675.88" y="-303"/>
<text text-anchor="middle" x="1725.88" y="-258.32" font-family="Times New Roman,serif" font-size="14.00">メジロアルダン</text>
</g>
<!-- アスワン -->
<g id="node21" class="node">
<title>アスワン</title>
<polygon fill="lightblue" stroke="lightblue" points="1714.38,-416 1637.38,-416 1637.38,-339 1714.38,-339 1714.38,-416"/>
<image xlink:href="img/mob.png" width="77px" height="77px" preserveAspectRatio="xMinYMin meet" x="1637.38" y="-416"/>
<text text-anchor="middle" x="1675.88" y="-371.7" font-family="MS Gothic" font-size="14.00">アスワン</text>
</g>
<!-- アスワン&#45;&gt;メジロアルダン -->
<g id="edge19" class="edge">
<title>アスワン&#45;&gt;メジロアルダン</title>
<path fill="none" stroke="black" d="M1692.94,-338.61C1696.56,-330.57 1700.43,-321.99 1704.2,-313.63"/>
<polygon fill="black" stroke="black" points="1707.35,-315.15 1708.26,-304.6 1700.96,-312.28 1707.35,-315.15"/>
</g>
<!-- メジロヒリュウ -->
<g id="node22" class="node">
<title>メジロヒリュウ</title>
<polygon fill="lightcoral" stroke="lightcoral" points="1988.75,-416 1873,-416 1873,-339 1988.75,-339 1988.75,-416"/>
<image xlink:href="img/mob.png" width="100px" height="77px" preserveAspectRatio="xMinYMin meet" x="1880.88" y="-416"/>
<text text-anchor="middle" x="1930.88" y="-371.7" font-family="MS Gothic" font-size="14.00">メジロヒリュウ</text>
</g>
<!-- メジロヒリュウ&#45;&gt;メジロアルダン -->
<g id="edge20" class="edge">
<title>メジロヒリュウ&#45;&gt;メジロアルダン</title>
<path fill="none" stroke="black" d="M1872.68,-344.99C1851.54,-333.54 1827.29,-320.41 1804.67,-308.16"/>
<polygon fill="black" stroke="black" points="1806.54,-305.2 1796.08,-303.51 1803.21,-311.35 1806.54,-305.2"/>
</g>
<!-- メジロラモーヌ -->
<g id="node46" class="node">
<title>メジロラモーヌ</title>
<polygon fill="none" stroke="black" points="2042.25,-303 1905.5,-303 1905.5,-226 2042.25,-226 2042.25,-303"/>
<image xlink:href="img/meziroramonu.png" width="100px" height="77px" preserveAspectRatio="xMinYMin meet" x="1923.88" y="-303"/>
<text text-anchor="middle" x="1973.88" y="-258.32" font-family="Times New Roman,serif" font-size="14.00">メジロラモーヌ</text>
</g>
<!-- メジロヒリュウ&#45;&gt;メジロラモーヌ -->
<g id="edge46" class="edge">
<title>メジロヒリュウ&#45;&gt;メジロラモーヌ</title>
<path fill="none" stroke="black" d="M1945.55,-338.61C1948.63,-330.66 1951.92,-322.18 1955.12,-313.91"/>
<polygon fill="black" stroke="black" points="1958.37,-315.22 1958.72,-304.63 1951.84,-312.69 1958.37,-315.22"/>
</g>
<!-- ノーザンテースト -->
<g id="node23" class="node">
<title>ノーザンテースト</title>
<polygon fill="lightblue" stroke="lightblue" points="1532.88,-529 1402.88,-529 1402.88,-452 1532.88,-452 1532.88,-529"/>
<image xlink:href="img/mob.png" width="100px" height="77px" preserveAspectRatio="xMinYMin meet" x="1417.88" y="-529"/>
<text text-anchor="middle" x="1467.88" y="-484.7" font-family="MS Gothic" font-size="14.00">ノーザンテースト</text>
</g>
<!-- ノーザンテースト&#45;&gt;アスワン -->
<g id="edge21" class="edge">
<title>ノーザンテースト&#45;&gt;アスワン</title>
<path fill="none" stroke="black" d="M1533.2,-456.52C1536.46,-454.97 1539.7,-453.46 1542.88,-452 1577.6,-436.07 1591.09,-436.87 1627.25,-416.5"/>
<polygon fill="black" stroke="black" points="1628.77,-419.66 1635.65,-411.61 1625.25,-413.62 1628.77,-419.66"/>
</g>
<!-- アンバーシャダイ -->
<g id="node30" class="node">
<title>アンバーシャダイ</title>
<polygon fill="lightblue" stroke="lightblue" points="1379.88,-416 1249.88,-416 1249.88,-339 1379.88,-339 1379.88,-416"/>
<image xlink:href="img/mob.png" width="100px" height="77px" preserveAspectRatio="xMinYMin meet" x="1264.88" y="-416"/>
<text text-anchor="middle" x="1314.88" y="-371.7" font-family="MS Gothic" font-size="14.00">アンバーシャダイ</text>
</g>
<!-- ノーザンテースト&#45;&gt;アンバーシャダイ -->
<g id="edge41" class="edge">
<title>ノーザンテースト&#45;&gt;アンバーシャダイ</title>
<path fill="none" stroke="black" d="M1415.65,-451.61C1402.92,-442.37 1389.19,-432.41 1376.08,-422.9"/>
<polygon fill="black" stroke="black" points="1378.5,-420.34 1368.35,-417.3 1374.39,-426 1378.5,-420.34"/>
</g>
<!-- リリーオブザナイル -->
<g id="node24" class="node">
<title>リリーオブザナイル</title>
<polygon fill="lightcoral" stroke="lightcoral" points="1696,-529 1551.75,-529 1551.75,-452 1696,-452 1696,-529"/>
<image xlink:href="img/mob.png" width="100px" height="77px" preserveAspectRatio="xMinYMin meet" x="1573.88" y="-529"/>
<text text-anchor="middle" x="1623.88" y="-484.7" font-family="MS Gothic" font-size="14.00">リリーオブザナイル</text>
</g>
<!-- リリーオブザナイル&#45;&gt;アスワン -->
<g id="edge22" class="edge">
<title>リリーオブザナイル&#45;&gt;アスワン</title>
<path fill="none" stroke="black" d="M1641.63,-451.61C1645.39,-443.57 1649.41,-434.99 1653.33,-426.63"/>
<polygon fill="black" stroke="black" points="1656.49,-428.13 1657.56,-417.59 1650.15,-425.16 1656.49,-428.13"/>
</g>
<!-- ネヴァービート -->
<g id="node25" class="node">
<title>ネヴァービート</title>
<polygon fill="lightblue" stroke="lightblue" points="1991.75,-529 1876,-529 1876,-452 1991.75,-452 1991.75,-529"/>
<image xlink:href="img/mob.png" width="100px" height="77px" preserveAspectRatio="xMinYMin meet" x="1883.88" y="-529"/>
<text text-anchor="middle" x="1933.88" y="-484.7" font-family="MS Gothic" font-size="14.00">ネヴァービート</text>
</g>
<!-- ネヴァービート&#45;&gt;メジロヒリュウ -->
<g id="edge23" class="edge">
<title>ネヴァービート&#45;&gt;メジロヒリュウ</title>
<path fill="none" stroke="black" d="M1932.85,-451.61C1932.64,-443.84 1932.42,-435.56 1932.2,-427.46"/>
<polygon fill="black" stroke="black" points="1935.7,-427.63 1931.94,-417.73 1928.71,-427.82 1935.7,-427.63"/>
</g>
<!-- アマゾンウォリアー -->
<g id="node26" class="node">
<title>アマゾンウォリアー</title>
<polygon fill="lightcoral" stroke="lightcoral" points="1858,-529 1713.75,-529 1713.75,-452 1858,-452 1858,-529"/>
<image xlink:href="img/mob.png" width="100px" height="77px" preserveAspectRatio="xMinYMin meet" x="1735.88" y="-529"/>
<text text-anchor="middle" x="1785.88" y="-484.7" font-family="MS Gothic" font-size="14.00">アマゾンウォリアー</text>
</g>
<!-- アマゾンウォリアー&#45;&gt;メジロヒリュウ -->
<g id="edge24" class="edge">
<title>アマゾンウォリアー&#45;&gt;メジロヒリュウ</title>
<path fill="none" stroke="black" d="M1835.37,-451.61C1847.39,-442.41 1860.34,-432.49 1872.72,-423.02"/>
<polygon fill="black" stroke="black" points="1874.59,-426 1880.4,-417.14 1870.33,-420.44 1874.59,-426"/>
</g>
<!-- メジロイーグル -->
<g id="node51" class="node">
<title>メジロイーグル</title>
<polygon fill="lightblue" stroke="lightblue" points="1847.75,-416 1732,-416 1732,-339 1847.75,-339 1847.75,-416"/>
<image xlink:href="img/mob.png" width="100px" height="77px" preserveAspectRatio="xMinYMin meet" x="1739.88" y="-416"/>
<text text-anchor="middle" x="1789.88" y="-371.7" font-family="MS Gothic" font-size="14.00">メジロイーグル</text>
</g>
<!-- アマゾンウォリアー&#45;&gt;メジロイーグル -->
<g id="edge52" class="edge">
<title>アマゾンウォリアー&#45;&gt;メジロイーグル</title>
<path fill="none" stroke="black" d="M1787.24,-451.61C1787.52,-443.84 1787.82,-435.56 1788.11,-427.46"/>
<polygon fill="black" stroke="black" points="1791.6,-427.85 1788.46,-417.73 1784.6,-427.6 1791.6,-427.85"/>
</g>
<!-- メジロブライト -->
<g id="node27" class="node">
<title>メジロブライト</title>
<polygon fill="none" stroke="black" points="1155.25,-190 1018.5,-190 1018.5,-113 1155.25,-113 1155.25,-190"/>
<image xlink:href="img/meziroburaito.png" width="100px" height="77px" preserveAspectRatio="xMinYMin meet" x="1036.88" y="-190"/>
<text text-anchor="middle" x="1086.88" y="-145.32" font-family="Times New Roman,serif" font-size="14.00">メジロブライト</text>
</g>
<!-- メジロライアン -->
<g id="node28" class="node">
<title>メジロライアン</title>
<polygon fill="lightblue" stroke="lightblue" points="1317.75,-303 1202,-303 1202,-226 1317.75,-226 1317.75,-303"/>
<image xlink:href="img/meziroraian.png" width="100px" height="77px" preserveAspectRatio="xMinYMin meet" x="1209.88" y="-303"/>
<text text-anchor="middle" x="1259.88" y="-258.7" font-family="MS Gothic" font-size="14.00">メジロライアン</text>
</g>
<!-- メジロライアン&#45;&gt;メジロブライト -->
<g id="edge25" class="edge">
<title>メジロライアン&#45;&gt;メジロブライト</title>
<path fill="none" stroke="black" d="M1201.79,-226.23C1186.91,-216.69 1170.77,-206.33 1155.43,-196.48"/>
<polygon fill="black" stroke="black" points="1157.57,-193.7 1147.26,-191.25 1153.79,-199.59 1157.57,-193.7"/>
</g>
<!-- メジロドーベル -->
<g id="node40" class="node">
<title>メジロドーベル</title>
<polygon fill="none" stroke="black" points="1366.25,-190 1229.5,-190 1229.5,-113 1366.25,-113 1366.25,-190"/>
<image xlink:href="img/mezirodoberu.png" width="100px" height="77px" preserveAspectRatio="xMinYMin meet" x="1247.88" y="-190"/>
<text text-anchor="middle" x="1297.88" y="-145.32" font-family="Times New Roman,serif" font-size="14.00">メジロドーベル</text>
</g>
<!-- メジロライアン&#45;&gt;メジロドーベル -->
<g id="edge37" class="edge">
<title>メジロライアン&#45;&gt;メジロドーベル</title>
<path fill="none" stroke="black" d="M1272.85,-225.61C1275.57,-217.66 1278.47,-209.18 1281.3,-200.91"/>
<polygon fill="black" stroke="black" points="1284.54,-202.25 1284.47,-191.65 1277.92,-199.98 1284.54,-202.25"/>
</g>
<!-- レールデュタン -->
<g id="node29" class="node">
<title>レールデュタン</title>
<polygon fill="lightcoral" stroke="lightcoral" points="1097.75,-303 982,-303 982,-226 1097.75,-226 1097.75,-303"/>
<image xlink:href="img/mob.png" width="100px" height="77px" preserveAspectRatio="xMinYMin meet" x="989.875" y="-303"/>
<text text-anchor="middle" x="1039.88" y="-258.7" font-family="MS Gothic" font-size="14.00">レールデュタン</text>
</g>
<!-- レールデュタン&#45;&gt;メジロブライト -->
<g id="edge26" class="edge">
<title>レールデュタン&#45;&gt;メジロブライト</title>
<path fill="none" stroke="black" d="M1055.92,-225.61C1059.32,-217.57 1062.96,-208.99 1066.5,-200.63"/>
<polygon fill="black" stroke="black" points="1069.64,-202.19 1070.31,-191.61 1063.19,-199.46 1069.64,-202.19"/>
</g>
<!-- アンバーシャダイ&#45;&gt;メジロライアン -->
<g id="edge27" class="edge">
<title>アンバーシャダイ&#45;&gt;メジロライアン</title>
<path fill="none" stroke="black" d="M1296.1,-338.61C1292.07,-330.48 1287.77,-321.8 1283.58,-313.35"/>
<polygon fill="black" stroke="black" points="1286.81,-311.98 1279.24,-304.57 1280.54,-315.09 1286.81,-311.98"/>
</g>
<!-- メジロチェイサー&#45;&gt;メジロライアン -->
<g id="edge28" class="edge">
<title>メジロチェイサー&#45;&gt;メジロライアン</title>
<path fill="none" stroke="black" d="M1198.62,-338.61C1205.8,-330.04 1213.51,-320.84 1220.95,-311.96"/>
<polygon fill="black" stroke="black" points="1223.56,-314.29 1227.3,-304.38 1218.2,-309.8 1223.56,-314.29"/>
</g>
<!-- マルゼンスキー -->
<g id="node32" class="node">
<title>マルゼンスキー</title>
<polygon fill="lightblue" stroke="lightblue" points="829.75,-416 714,-416 714,-339 829.75,-339 829.75,-416"/>
<image xlink:href="img/maruzensuki.png" width="100px" height="77px" preserveAspectRatio="xMinYMin meet" x="721.875" y="-416"/>
<text text-anchor="middle" x="771.88" y="-371.7" font-family="MS Gothic" font-size="14.00">マルゼンスキー</text>
</g>
<!-- マルゼンスキー&#45;&gt;レールデュタン -->
<g id="edge29" class="edge">
<title>マルゼンスキー&#45;&gt;レールデュタン</title>
<path fill="none" stroke="black" d="M830.06,-343.22C833.02,-341.75 835.97,-340.33 838.88,-339 881.78,-319.3 931.6,-301.05 970.92,-287.67"/>
<polygon fill="black" stroke="black" points="971.92,-291.02 980.28,-284.5 969.68,-284.39 971.92,-291.02"/>
</g>
<!-- ケイツナミ -->
<g id="node33" class="node">
<title>ケイツナミ</title>
<polygon fill="lightcoral" stroke="lightcoral" points="1083.5,-416 996.25,-416 996.25,-339 1083.5,-339 1083.5,-416"/>
<image xlink:href="img/mob.png" width="87.25px" height="77px" preserveAspectRatio="xMinYMin meet" x="996.25" y="-416"/>
<text text-anchor="middle" x="1039.88" y="-371.7" font-family="MS Gothic" font-size="14.00">ケイツナミ</text>
</g>
<!-- ケイツナミ&#45;&gt;レールデュタン -->
<g id="edge30" class="edge">
<title>ケイツナミ&#45;&gt;レールデュタン</title>
<path fill="none" stroke="black" d="M1039.88,-338.61C1039.88,-330.84 1039.88,-322.56 1039.88,-314.46"/>
<polygon fill="black" stroke="black" points="1043.38,-314.73 1039.88,-304.73 1036.38,-314.73 1043.38,-314.73"/>
</g>
<!-- Nijinsky -->
<g id="node34" class="node">
<title>Nijinsky</title>
<polygon fill="lightblue" stroke="lightblue" points="787.38,-529 710.38,-529 710.38,-452 787.38,-452 787.38,-529"/>
<image xlink:href="img/mob.png" width="77px" height="77px" preserveAspectRatio="xMinYMin meet" x="710.375" y="-529"/>
<text text-anchor="middle" x="748.88" y="-484.7" font-family="MS Gothic" font-size="14.00">Nijinsky</text>
</g>
<!-- Nijinsky&#45;&gt;マルゼンスキー -->
<g id="edge31" class="edge">
<title>Nijinsky&#45;&gt;マルゼンスキー</title>
<path fill="none" stroke="black" d="M756.73,-451.61C758.34,-443.84 760.05,-435.56 761.73,-427.46"/>
<polygon fill="black" stroke="black" points="765.15,-428.2 763.75,-417.7 758.3,-426.78 765.15,-428.2"/>
</g>
<!-- シル -->
<g id="node35" class="node">
<title>シル</title>
<polygon fill="lightcoral" stroke="lightcoral" points="886.38,-529 809.38,-529 809.38,-452 886.38,-452 886.38,-529"/>
<image xlink:href="img/mob.png" width="77px" height="77px" preserveAspectRatio="xMinYMin meet" x="809.375" y="-529"/>
<text text-anchor="middle" x="847.88" y="-484.7" font-family="MS Gothic" font-size="14.00">シル</text>
</g>
<!-- シル&#45;&gt;マルゼンスキー -->
<g id="edge32" class="edge">
<title>シル&#45;&gt;マルゼンスキー</title>
<path fill="none" stroke="black" d="M821.93,-451.61C816.19,-443.22 810.03,-434.22 804.06,-425.51"/>
<polygon fill="black" stroke="black" points="807.09,-423.74 798.56,-417.47 801.32,-427.7 807.09,-423.74"/>
</g>
<!-- Northern Dancer -->
<g id="node36" class="node">
<title>Northern Dancer</title>
<polygon fill="lightblue" stroke="lightblue" points="679.5,-642 562.25,-642 562.25,-565 679.5,-565 679.5,-642"/>
<image xlink:href="img/mob.png" width="100px" height="77px" preserveAspectRatio="xMinYMin meet" x="570.875" y="-642"/>
<text text-anchor="middle" x="620.88" y="-597.7" font-family="MS Gothic" font-size="14.00">Northern Dancer</text>
</g>
<!-- Northern Dancer&#45;&gt;Nijinsky -->
<g id="edge33" class="edge">
<title>Northern Dancer&#45;&gt;Nijinsky</title>
<path fill="none" stroke="black" d="M664.57,-564.61C676.46,-554.3 689.39,-543.09 701.47,-532.61"/>
<polygon fill="black" stroke="black" points="703.69,-535.32 708.95,-526.12 699.1,-530.03 703.69,-535.32"/>
</g>
<!-- Flaming Page -->
<g id="node37" class="node">
<title>Flaming Page</title>
<polygon fill="lightcoral" stroke="lightcoral" points="794.38,-642 697.38,-642 697.38,-565 794.38,-565 794.38,-642"/>
<image xlink:href="img/mob.png" width="97px" height="77px" preserveAspectRatio="xMinYMin meet" x="697.375" y="-642"/>
<text text-anchor="middle" x="745.88" y="-597.7" font-family="MS Gothic" font-size="14.00">Flaming Page</text>
</g>
<!-- Flaming Page&#45;&gt;Nijinsky -->
<g id="edge34" class="edge">
<title>Flaming Page&#45;&gt;Nijinsky</title>
<path fill="none" stroke="black" d="M746.9,-564.61C747.11,-556.84 747.33,-548.56 747.55,-540.46"/>
<polygon fill="black" stroke="black" points="751.04,-540.82 747.81,-530.73 744.05,-540.63 751.04,-540.82"/>
</g>
<!-- Buckpasser -->
<g id="node38" class="node">
<title>Buckpasser</title>
<polygon fill="lightblue" stroke="lightblue" points="895.62,-642 812.12,-642 812.12,-565 895.62,-565 895.62,-642"/>
<image xlink:href="img/mob.png" width="83.5px" height="77px" preserveAspectRatio="xMinYMin meet" x="812.125" y="-642"/>
<text text-anchor="middle" x="853.88" y="-597.7" font-family="MS Gothic" font-size="14.00">Buckpasser</text>
</g>
<!-- Buckpasser&#45;&gt;シル -->
<g id="edge35" class="edge">
<title>Buckpasser&#45;&gt;シル</title>
<path fill="none" stroke="black" d="M851.83,-564.61C851.41,-556.84 850.96,-548.56 850.52,-540.46"/>
<polygon fill="black" stroke="black" points="854.03,-540.53 850,-530.73 847.04,-540.9 854.03,-540.53"/>
</g>
<!-- Quill -->
<g id="node39" class="node">
<title>Quill</title>
<polygon fill="lightcoral" stroke="lightcoral" points="990.38,-642 913.38,-642 913.38,-565 990.38,-565 990.38,-642"/>
<image xlink:href="img/mob.png" width="77px" height="77px" preserveAspectRatio="xMinYMin meet" x="913.375" y="-642"/>
<text text-anchor="middle" x="951.88" y="-597.7" font-family="MS Gothic" font-size="14.00">Quill</text>
</g>
<!-- Quill&#45;&gt;シル -->
<g id="edge36" class="edge">
<title>Quill&#45;&gt;シル</title>
<path fill="none" stroke="black" d="M916.37,-564.61C908.18,-555.86 899.37,-546.46 890.88,-537.4"/>
<polygon fill="black" stroke="black" points="893.64,-535.23 884.25,-530.32 888.53,-540.01 893.64,-535.23"/>
</g>
<!-- メジロビューティー -->
<g id="node41" class="node">
<title>メジロビューティー</title>
<polygon fill="lightcoral" stroke="lightcoral" points="1528,-303 1383.75,-303 1383.75,-226 1528,-226 1528,-303"/>
<image xlink:href="img/mob.png" width="100px" height="77px" preserveAspectRatio="xMinYMin meet" x="1405.88" y="-303"/>
<text text-anchor="middle" x="1455.88" y="-258.7" font-family="MS Gothic" font-size="14.00">メジロビューティー</text>
</g>
<!-- メジロビューティー&#45;&gt;メジロドーベル -->
<g id="edge38" class="edge">
<title>メジロビューティー&#45;&gt;メジロドーベル</title>
<path fill="none" stroke="black" d="M1401.94,-225.61C1388.8,-216.37 1374.62,-206.41 1361.08,-196.9"/>
<polygon fill="black" stroke="black" points="1363.27,-194.16 1353.07,-191.28 1359.24,-199.89 1363.27,-194.16"/>
</g>
<!-- パーソロン -->
<g id="node42" class="node">
<title>パーソロン</title>
<polygon fill="lightblue" stroke="lightblue" points="1619.5,-416 1532.25,-416 1532.25,-339 1619.5,-339 1619.5,-416"/>
<image xlink:href="img/mob.png" width="87.25px" height="77px" preserveAspectRatio="xMinYMin meet" x="1532.25" y="-416"/>
<text text-anchor="middle" x="1575.88" y="-371.7" font-family="MS Gothic" font-size="14.00">パーソロン</text>
</g>
<!-- パーソロン&#45;&gt;メジロビューティー -->
<g id="edge39" class="edge">
<title>パーソロン&#45;&gt;メジロビューティー</title>
<path fill="none" stroke="black" d="M1534.91,-338.61C1525.26,-329.68 1514.87,-320.07 1504.9,-310.85"/>
<polygon fill="black" stroke="black" points="1507.48,-308.47 1497.76,-304.25 1502.73,-313.61 1507.48,-308.47"/>
</g>
<!-- メジロナガサキ -->
<g id="node43" class="node">
<title>メジロナガサキ</title>
<polygon fill="lightcoral" stroke="lightcoral" points="1513.75,-416 1398,-416 1398,-339 1513.75,-339 1513.75,-416"/>
<image xlink:href="img/mob.png" width="100px" height="77px" preserveAspectRatio="xMinYMin meet" x="1405.88" y="-416"/>
<text text-anchor="middle" x="1455.88" y="-371.7" font-family="MS Gothic" font-size="14.00">メジロナガサキ</text>
</g>
<!-- メジロナガサキ&#45;&gt;メジロビューティー -->
<g id="edge40" class="edge">
<title>メジロナガサキ&#45;&gt;メジロビューティー</title>
<path fill="none" stroke="black" d="M1455.88,-338.61C1455.88,-330.84 1455.88,-322.56 1455.88,-314.46"/>
<polygon fill="black" stroke="black" points="1459.38,-314.73 1455.88,-304.73 1452.38,-314.73 1459.38,-314.73"/>
</g>
<!-- クリアアンバー -->
<g id="node44" class="node">
<title>クリアアンバー</title>
<polygon fill="lightcoral" stroke="lightcoral" points="1372.75,-529 1257,-529 1257,-452 1372.75,-452 1372.75,-529"/>
<image xlink:href="img/mob.png" width="100px" height="77px" preserveAspectRatio="xMinYMin meet" x="1264.88" y="-529"/>
<text text-anchor="middle" x="1314.88" y="-484.7" font-family="MS Gothic" font-size="14.00">クリアアンバー</text>
</g>
<!-- クリアアンバー&#45;&gt;アンバーシャダイ -->
<g id="edge42" class="edge">
<title>クリアアンバー&#45;&gt;アンバーシャダイ</title>
<path fill="none" stroke="black" d="M1314.88,-451.61C1314.88,-443.84 1314.88,-435.56 1314.88,-427.46"/>
<polygon fill="black" stroke="black" points="1318.38,-427.73 1314.88,-417.73 1311.38,-427.73 1318.38,-427.73"/>
</g>
<!-- メジロサンマン -->
<g id="node45" class="node">
<title>メジロサンマン</title>
<polygon fill="lightblue" stroke="lightblue" points="1237.75,-529 1122,-529 1122,-452 1237.75,-452 1237.75,-529"/>
<image xlink:href="img/mob.png" width="100px" height="77px" preserveAspectRatio="xMinYMin meet" x="1129.88" y="-529"/>
<text text-anchor="middle" x="1179.88" y="-484.7" font-family="MS Gothic" font-size="14.00">メジロサンマン</text>
</g>
<!-- メジロサンマン&#45;&gt;メジロチェイサー -->
<g id="edge43" class="edge">
<title>メジロサンマン&#45;&gt;メジロチェイサー</title>
<path fill="none" stroke="black" d="M1175.44,-451.61C1174.53,-443.84 1173.56,-435.56 1172.61,-427.46"/>
<polygon fill="black" stroke="black" points="1176.11,-427.25 1171.47,-417.72 1169.16,-428.06 1176.11,-427.25"/>
</g>
<!-- メジロサンマン&#45;&gt;メジロイーグル -->
<g id="edge51" class="edge">
<title>メジロサンマン&#45;&gt;メジロイーグル</title>
<path fill="none" stroke="black" d="M1238.17,-455.36C1241.4,-454.1 1244.65,-452.96 1247.88,-452 1447.62,-392.45 1518.45,-474.91 1720.84,-416.51"/>
<polygon fill="black" stroke="black" points="1721.79,-419.88 1730.38,-413.67 1719.79,-413.17 1721.79,-419.88"/>
</g>
<!-- モガミ -->
<g id="node47" class="node">
<title>モガミ</title>
<polygon fill="lightblue" stroke="lightblue" points="2092.38,-416 2015.38,-416 2015.38,-339 2092.38,-339 2092.38,-416"/>
<image xlink:href="img/mob.png" width="77px" height="77px" preserveAspectRatio="xMinYMin meet" x="2015.38" y="-416"/>
<text text-anchor="middle" x="2053.88" y="-371.7" font-family="MS Gothic" font-size="14.00">モガミ</text>
</g>
<!-- モガミ&#45;&gt;メジロラモーヌ -->
<g id="edge45" class="edge">
<title>モガミ&#45;&gt;メジロラモーヌ</title>
<path fill="none" stroke="black" d="M2026.57,-338.61C2020.52,-330.22 2014.04,-321.22 2007.76,-312.51"/>
<polygon fill="black" stroke="black" points="2010.63,-310.51 2001.94,-304.45 2004.95,-314.61 2010.63,-310.51"/>
</g>
<!-- Lyphard -->
<g id="node48" class="node">
<title>Lyphard</title>
<polygon fill="lightblue" stroke="lightblue" points="2192.38,-529 2115.38,-529 2115.38,-452 2192.38,-452 2192.38,-529"/>
<image xlink:href="img/mob.png" width="77px" height="77px" preserveAspectRatio="xMinYMin meet" x="2115.38" y="-529"/>
<text text-anchor="middle" x="2153.88" y="-484.7" font-family="MS Gothic" font-size="14.00">Lyphard</text>
</g>
<!-- Lyphard&#45;&gt;モガミ -->
<g id="edge47" class="edge">
<title>Lyphard&#45;&gt;モガミ</title>
<path fill="none" stroke="black" d="M2119.74,-451.61C2111.94,-442.95 2103.56,-433.65 2095.48,-424.68"/>
<polygon fill="black" stroke="black" points="2098.16,-422.43 2088.87,-417.34 2092.96,-427.12 2098.16,-422.43"/>
</g>
<!-- ノーラック -->
<g id="node49" class="node">
<title>ノーラック</title>
<polygon fill="lightcoral" stroke="lightcoral" points="2097.5,-529 2010.25,-529 2010.25,-452 2097.5,-452 2097.5,-529"/>
<image xlink:href="img/mob.png" width="87.25px" height="77px" preserveAspectRatio="xMinYMin meet" x="2010.25" y="-529"/>
<text text-anchor="middle" x="2053.88" y="-484.7" font-family="MS Gothic" font-size="14.00">ノーラック</text>
</g>
<!-- ノーラック&#45;&gt;モガミ -->
<g id="edge48" class="edge">
<title>ノーラック&#45;&gt;モガミ</title>
<path fill="none" stroke="black" d="M2053.88,-451.61C2053.88,-443.84 2053.88,-435.56 2053.88,-427.46"/>
<polygon fill="black" stroke="black" points="2057.38,-427.73 2053.88,-417.73 2050.38,-427.73 2057.38,-427.73"/>
</g>
<!-- メジロパーマー -->
<g id="node50" class="node">
<title>メジロパーマー</title>
<polygon fill="none" stroke="black" points="2279.25,-303 2142.5,-303 2142.5,-226 2279.25,-226 2279.25,-303"/>
<image xlink:href="img/meziropama.png" width="100px" height="77px" preserveAspectRatio="xMinYMin meet" x="2160.88" y="-303"/>
<text text-anchor="middle" x="2210.88" y="-258.32" font-family="Times New Roman,serif" font-size="14.00">メジロパーマー</text>
</g>
<!-- メジロイーグル&#45;&gt;メジロパーマー -->
<g id="edge49" class="edge">
<title>メジロイーグル&#45;&gt;メジロパーマー</title>
<path fill="none" stroke="black" d="M1848.2,-345.09C1853.43,-342.84 1858.7,-340.77 1863.88,-339 1943.96,-311.6 1968.1,-320.66 2050.88,-303 2077,-297.43 2105.43,-290.91 2130.97,-284.89"/>
<polygon fill="black" stroke="black" points="2131.7,-288.31 2140.63,-282.6 2130.09,-281.5 2131.7,-288.31"/>
</g>
<!-- メジロファンタジー -->
<g id="node52" class="node">
<title>メジロファンタジー</title>
<polygon fill="lightcoral" stroke="lightcoral" points="2326,-416 2181.75,-416 2181.75,-339 2326,-339 2326,-416"/>
<image xlink:href="img/mob.png" width="100px" height="77px" preserveAspectRatio="xMinYMin meet" x="2203.88" y="-416"/>
<text text-anchor="middle" x="2253.88" y="-371.7" font-family="MS Gothic" font-size="14.00">メジロファンタジー</text>
</g>
<!-- メジロファンタジー&#45;&gt;メジロパーマー -->
<g id="edge50" class="edge">
<title>メジロファンタジー&#45;&gt;メジロパーマー</title>
<path fill="none" stroke="black" d="M2239.2,-338.61C2236.12,-330.66 2232.83,-322.18 2229.63,-313.91"/>
<polygon fill="black" stroke="black" points="2232.91,-312.69 2226.03,-304.63 2226.38,-315.22 2232.91,-312.69"/>
</g>
<!-- ゲイメセン -->
<g id="node53" class="node">
<title>ゲイメセン</title>
<polygon fill="lightblue" stroke="lightblue" points="2297.5,-529 2210.25,-529 2210.25,-452 2297.5,-452 2297.5,-529"/>
<image xlink:href="img/mob.png" width="87.25px" height="77px" preserveAspectRatio="xMinYMin meet" x="2210.25" y="-529"/>
<text text-anchor="middle" x="2253.88" y="-484.7" font-family="MS Gothic" font-size="14.00">ゲイメセン</text>
</g>
<!-- ゲイメセン&#45;&gt;メジロファンタジー -->
<g id="edge53" class="edge">
<title>ゲイメセン&#45;&gt;メジロファンタジー</title>
<path fill="none" stroke="black" d="M2253.88,-451.61C2253.88,-443.84 2253.88,-435.56 2253.88,-427.46"/>
<polygon fill="black" stroke="black" points="2257.38,-427.73 2253.88,-417.73 2250.38,-427.73 2257.38,-427.73"/>
</g>
<!-- プリンセスリファード -->
<g id="node54" class="node">
<title>プリンセスリファード</title>
<polygon fill="lightcoral" stroke="lightcoral" points="2474.12,-529 2315.62,-529 2315.62,-452 2474.12,-452 2474.12,-529"/>
<image xlink:href="img/mob.png" width="100px" height="77px" preserveAspectRatio="xMinYMin meet" x="2344.88" y="-529"/>
<text text-anchor="middle" x="2394.88" y="-484.7" font-family="MS Gothic" font-size="14.00">プリンセスリファード</text>
</g>
<!-- プリンセスリファード&#45;&gt;メジロファンタジー -->
<g id="edge54" class="edge">
<title>プリンセスリファード&#45;&gt;メジロファンタジー</title>
<path fill="none" stroke="black" d="M2346.75,-451.61C2335.17,-442.5 2322.71,-432.69 2310.78,-423.3"/>
<polygon fill="black" stroke="black" points="2313,-420.59 2302.98,-417.15 2308.67,-426.09 2313,-420.59"/>
</g>
</g>
</svg>
