<?xml version="1.0" encoding="UTF-8" standalone="no"?>
<!DOCTYPE svg PUBLIC "-//W3C//DTD SVG 1.1//EN"
 "http://www.w3.org/Graphics/SVG/1.1/DTD/svg11.dtd">
<!-- Generated by graphviz version 12.1.2 (20240928.0832)
 -->
<!-- Pages: 1 -->
<svg width="913pt" height="537pt"
 viewBox="0.00 0.00 913.38 537.00" xmlns="http://www.w3.org/2000/svg" xmlns:xlink="http://www.w3.org/1999/xlink">
<g id="graph0" class="graph" transform="scale(1 1) rotate(0) translate(4 533)">
<polygon fill="white" stroke="none" points="-4,4 -4,-533 909.38,-533 909.38,4 -4,4"/>
<!-- ゴールドシップ -->
<g id="node1" class="node">
<title>ゴールドシップ</title>
<polygon fill="none" stroke="black" points="442.12,-77 305.38,-77 305.38,0 442.12,0 442.12,-77"/>
<image xlink:href="img/gorudoshitsupu.png" width="100px" height="77px" preserveAspectRatio="xMinYMin meet" x="323.75" y="-77"/>
<text text-anchor="middle" x="373.75" y="-32.33" font-family="Times New Roman,serif" font-size="14.00">ゴールドシップ</text>
</g>
<!-- ステイゴールド -->
<g id="node2" class="node">
<title>ステイゴールド</title>
<polygon fill="lightblue" stroke="lightblue" points="663.62,-190 547.88,-190 547.88,-113 663.62,-113 663.62,-190"/>
<image xlink:href="img/mob.png" width="100px" height="77px" preserveAspectRatio="xMinYMin meet" x="555.75" y="-190"/>
<text text-anchor="middle" x="605.75" y="-145.7" font-family="MS Gothic" font-size="14.00">ステイゴールド</text>
</g>
<!-- ステイゴールド&#45;&gt;ゴールドシップ -->
<g id="edge1" class="edge">
<title>ステイゴールド&#45;&gt;ゴールドシップ</title>
<path fill="none" stroke="black" d="M547.46,-118.9C543.51,-116.88 539.58,-114.89 535.75,-113 508.98,-99.78 479.33,-86.06 452.79,-74.11"/>
<polygon fill="black" stroke="black" points="454.34,-70.96 443.78,-70.06 451.47,-77.35 454.34,-70.96"/>
</g>
<!-- オルフェーヴル -->
<g id="node20" class="node">
<title>オルフェーヴル</title>
<polygon fill="none" stroke="black" points="634.12,-77 497.38,-77 497.38,0 634.12,0 634.12,-77"/>
<image xlink:href="img/oruhuevuru.png" width="100px" height="77px" preserveAspectRatio="xMinYMin meet" x="515.75" y="-77"/>
<text text-anchor="middle" x="565.75" y="-32.33" font-family="Times New Roman,serif" font-size="14.00">オルフェーヴル</text>
</g>
<!-- ステイゴールド&#45;&gt;オルフェーヴル -->
<g id="edge19" class="edge">
<title>ステイゴールド&#45;&gt;オルフェーヴル</title>
<path fill="none" stroke="black" d="M592.1,-112.61C589.23,-104.66 586.17,-96.18 583.19,-87.91"/>
<polygon fill="black" stroke="black" points="586.54,-86.86 579.86,-78.64 579.95,-89.24 586.54,-86.86"/>
</g>
<!-- ポイントフラッグ -->
<g id="node3" class="node">
<title>ポイントフラッグ</title>
<polygon fill="lightcoral" stroke="lightcoral" points="364.75,-190 234.75,-190 234.75,-113 364.75,-113 364.75,-190"/>
<image xlink:href="img/mob.png" width="100px" height="77px" preserveAspectRatio="xMinYMin meet" x="249.75" y="-190"/>
<text text-anchor="middle" x="299.75" y="-145.7" font-family="MS Gothic" font-size="14.00">ポイントフラッグ</text>
</g>
<!-- ポイントフラッグ&#45;&gt;ゴールドシップ -->
<g id="edge2" class="edge">
<title>ポイントフラッグ&#45;&gt;ゴールドシップ</title>
<path fill="none" stroke="black" d="M325.01,-112.61C330.55,-104.31 336.47,-95.41 342.22,-86.79"/>
<polygon fill="black" stroke="black" points="345.13,-88.74 347.76,-78.48 339.31,-84.86 345.13,-88.74"/>
</g>
<!-- サンデーサイレンス -->
<g id="node4" class="node">
<title>サンデーサイレンス</title>
<polygon fill="lightblue" stroke="lightblue" points="681.88,-303 537.62,-303 537.62,-226 681.88,-226 681.88,-303"/>
<image xlink:href="img/mob.png" width="100px" height="77px" preserveAspectRatio="xMinYMin meet" x="559.75" y="-303"/>
<text text-anchor="middle" x="609.75" y="-258.7" font-family="MS Gothic" font-size="14.00">サンデーサイレンス</text>
</g>
<!-- サンデーサイレンス&#45;&gt;ステイゴールド -->
<g id="edge3" class="edge">
<title>サンデーサイレンス&#45;&gt;ステイゴールド</title>
<path fill="none" stroke="black" d="M608.38,-225.61C608.1,-217.84 607.81,-209.56 607.51,-201.46"/>
<polygon fill="black" stroke="black" points="611.02,-201.6 607.16,-191.73 604.03,-201.85 611.02,-201.6"/>
</g>
<!-- ゴールデンサッシュ -->
<g id="node5" class="node">
<title>ゴールデンサッシュ</title>
<polygon fill="lightcoral" stroke="lightcoral" points="843.88,-303 699.62,-303 699.62,-226 843.88,-226 843.88,-303"/>
<image xlink:href="img/mob.png" width="100px" height="77px" preserveAspectRatio="xMinYMin meet" x="721.75" y="-303"/>
<text text-anchor="middle" x="771.75" y="-258.7" font-family="MS Gothic" font-size="14.00">ゴールデンサッシュ</text>
</g>
<!-- ゴールデンサッシュ&#45;&gt;ステイゴールド -->
<g id="edge4" class="edge">
<title>ゴールデンサッシュ&#45;&gt;ステイゴールド</title>
<path fill="none" stroke="black" d="M715.09,-225.61C701.14,-216.29 686.09,-206.22 671.74,-196.63"/>
<polygon fill="black" stroke="black" points="673.96,-193.9 663.7,-191.25 670.07,-199.72 673.96,-193.9"/>
</g>
<!-- メジロマックイーン -->
<g id="node6" class="node">
<title>メジロマックイーン</title>
<polygon fill="lightblue" stroke="lightblue" points="371.88,-303 227.62,-303 227.62,-226 371.88,-226 371.88,-303"/>
<image xlink:href="img/meziromatsukuin.png" width="100px" height="77px" preserveAspectRatio="xMinYMin meet" x="249.75" y="-303"/>
<text text-anchor="middle" x="299.75" y="-258.7" font-family="MS Gothic" font-size="14.00">メジロマックイーン</text>
</g>
<!-- メジロマックイーン&#45;&gt;ポイントフラッグ -->
<g id="edge5" class="edge">
<title>メジロマックイーン&#45;&gt;ポイントフラッグ</title>
<path fill="none" stroke="black" d="M299.75,-225.61C299.75,-217.84 299.75,-209.56 299.75,-201.46"/>
<polygon fill="black" stroke="black" points="303.25,-201.73 299.75,-191.73 296.25,-201.73 303.25,-201.73"/>
</g>
<!-- オリエンタルアート -->
<g id="node21" class="node">
<title>オリエンタルアート</title>
<polygon fill="lightcoral" stroke="lightcoral" points="526.88,-190 382.62,-190 382.62,-113 526.88,-113 526.88,-190"/>
<image xlink:href="img/mob.png" width="100px" height="77px" preserveAspectRatio="xMinYMin meet" x="404.75" y="-190"/>
<text text-anchor="middle" x="454.75" y="-145.7" font-family="MS Gothic" font-size="14.00">オリエンタルアート</text>
</g>
<!-- メジロマックイーン&#45;&gt;オリエンタルアート -->
<g id="edge21" class="edge">
<title>メジロマックイーン&#45;&gt;オリエンタルアート</title>
<path fill="none" stroke="black" d="M352.66,-225.61C365.56,-216.37 379.47,-206.41 392.75,-196.9"/>
<polygon fill="black" stroke="black" points="394.49,-199.96 400.59,-191.29 390.42,-194.26 394.49,-199.96"/>
</g>
<!-- パストラリズム -->
<g id="node7" class="node">
<title>パストラリズム</title>
<polygon fill="lightcoral" stroke="lightcoral" points="209.62,-303 93.88,-303 93.88,-226 209.62,-226 209.62,-303"/>
<image xlink:href="img/mob.png" width="100px" height="77px" preserveAspectRatio="xMinYMin meet" x="101.75" y="-303"/>
<text text-anchor="middle" x="151.75" y="-258.7" font-family="MS Gothic" font-size="14.00">パストラリズム</text>
</g>
<!-- パストラリズム&#45;&gt;ポイントフラッグ -->
<g id="edge6" class="edge">
<title>パストラリズム&#45;&gt;ポイントフラッグ</title>
<path fill="none" stroke="black" d="M202.27,-225.61C214.47,-216.46 227.61,-206.6 240.18,-197.18"/>
<polygon fill="black" stroke="black" points="242.1,-200.12 248,-191.32 237.9,-194.52 242.1,-200.12"/>
</g>
<!-- Halo -->
<g id="node8" class="node">
<title>Halo</title>
<polygon fill="lightblue" stroke="lightblue" points="648.25,-416 571.25,-416 571.25,-339 648.25,-339 648.25,-416"/>
<image xlink:href="img/mob.png" width="77px" height="77px" preserveAspectRatio="xMinYMin meet" x="571.25" y="-416"/>
<text text-anchor="middle" x="609.75" y="-371.7" font-family="MS Gothic" font-size="14.00">Halo</text>
</g>
<!-- Halo&#45;&gt;サンデーサイレンス -->
<g id="edge7" class="edge">
<title>Halo&#45;&gt;サンデーサイレンス</title>
<path fill="none" stroke="black" d="M609.75,-338.61C609.75,-330.84 609.75,-322.56 609.75,-314.46"/>
<polygon fill="black" stroke="black" points="613.25,-314.73 609.75,-304.73 606.25,-314.73 613.25,-314.73"/>
</g>
<!-- Wishing Well -->
<g id="node9" class="node">
<title>Wishing Well</title>
<polygon fill="lightcoral" stroke="lightcoral" points="766.25,-416 669.25,-416 669.25,-339 766.25,-339 766.25,-416"/>
<image xlink:href="img/mob.png" width="97px" height="77px" preserveAspectRatio="xMinYMin meet" x="669.25" y="-416"/>
<text text-anchor="middle" x="717.75" y="-371.7" font-family="MS Gothic" font-size="14.00">Wishing Well</text>
</g>
<!-- Wishing Well&#45;&gt;サンデーサイレンス -->
<g id="edge8" class="edge">
<title>Wishing Well&#45;&gt;サンデーサイレンス</title>
<path fill="none" stroke="black" d="M680.88,-338.61C672.37,-329.86 663.22,-320.46 654.41,-311.4"/>
<polygon fill="black" stroke="black" points="656.99,-309.03 647.5,-304.3 651.97,-313.91 656.99,-309.03"/>
</g>
<!-- Hail to Reason -->
<g id="node10" class="node">
<title>Hail to Reason</title>
<polygon fill="lightblue" stroke="lightblue" points="553,-529 442.5,-529 442.5,-452 553,-452 553,-529"/>
<image xlink:href="img/mob.png" width="100px" height="77px" preserveAspectRatio="xMinYMin meet" x="447.75" y="-529"/>
<text text-anchor="middle" x="497.75" y="-484.7" font-family="MS Gothic" font-size="14.00">Hail to Reason</text>
</g>
<!-- Hail to Reason&#45;&gt;Halo -->
<g id="edge9" class="edge">
<title>Hail to Reason&#45;&gt;Halo</title>
<path fill="none" stroke="black" d="M535.98,-451.61C544.9,-442.77 554.49,-433.26 563.71,-424.13"/>
<polygon fill="black" stroke="black" points="565.98,-426.81 570.62,-417.28 561.05,-421.84 565.98,-426.81"/>
</g>
<!-- Cosmah -->
<g id="node11" class="node">
<title>Cosmah</title>
<polygon fill="lightcoral" stroke="lightcoral" points="648.25,-529 571.25,-529 571.25,-452 648.25,-452 648.25,-529"/>
<image xlink:href="img/mob.png" width="77px" height="77px" preserveAspectRatio="xMinYMin meet" x="571.25" y="-529"/>
<text text-anchor="middle" x="609.75" y="-484.7" font-family="MS Gothic" font-size="14.00">Cosmah</text>
</g>
<!-- Cosmah&#45;&gt;Halo -->
<g id="edge10" class="edge">
<title>Cosmah&#45;&gt;Halo</title>
<path fill="none" stroke="black" d="M609.75,-451.61C609.75,-443.84 609.75,-435.56 609.75,-427.46"/>
<polygon fill="black" stroke="black" points="613.25,-427.73 609.75,-417.73 606.25,-427.73 613.25,-427.73"/>
</g>
<!-- Understanding -->
<g id="node12" class="node">
<title>Understanding</title>
<polygon fill="lightblue" stroke="lightblue" points="769.62,-529 665.88,-529 665.88,-452 769.62,-452 769.62,-529"/>
<image xlink:href="img/mob.png" width="100px" height="77px" preserveAspectRatio="xMinYMin meet" x="667.75" y="-529"/>
<text text-anchor="middle" x="717.75" y="-484.7" font-family="MS Gothic" font-size="14.00">Understanding</text>
</g>
<!-- Understanding&#45;&gt;Wishing Well -->
<g id="edge11" class="edge">
<title>Understanding&#45;&gt;Wishing Well</title>
<path fill="none" stroke="black" d="M717.75,-451.61C717.75,-443.84 717.75,-435.56 717.75,-427.46"/>
<polygon fill="black" stroke="black" points="721.25,-427.73 717.75,-417.73 714.25,-427.73 721.25,-427.73"/>
</g>
<!-- Mountain Flower -->
<g id="node13" class="node">
<title>Mountain Flower</title>
<polygon fill="lightcoral" stroke="lightcoral" points="905.38,-529 788.12,-529 788.12,-452 905.38,-452 905.38,-529"/>
<image xlink:href="img/mob.png" width="100px" height="77px" preserveAspectRatio="xMinYMin meet" x="796.75" y="-529"/>
<text text-anchor="middle" x="846.75" y="-484.7" font-family="MS Gothic" font-size="14.00">Mountain Flower</text>
</g>
<!-- Mountain Flower&#45;&gt;Wishing Well -->
<g id="edge12" class="edge">
<title>Mountain Flower&#45;&gt;Wishing Well</title>
<path fill="none" stroke="black" d="M802.72,-451.61C792.23,-442.59 780.95,-432.88 770.13,-423.57"/>
<polygon fill="black" stroke="black" points="772.6,-421.08 762.73,-417.21 768.03,-426.38 772.6,-421.08"/>
</g>
<!-- メジロティターン -->
<g id="node14" class="node">
<title>メジロティターン</title>
<polygon fill="lightblue" stroke="lightblue" points="222.75,-416 92.75,-416 92.75,-339 222.75,-339 222.75,-416"/>
<image xlink:href="img/mob.png" width="100px" height="77px" preserveAspectRatio="xMinYMin meet" x="107.75" y="-416"/>
<text text-anchor="middle" x="157.75" y="-371.7" font-family="MS Gothic" font-size="14.00">メジロティターン</text>
</g>
<!-- メジロティターン&#45;&gt;メジロマックイーン -->
<g id="edge13" class="edge">
<title>メジロティターン&#45;&gt;メジロマックイーン</title>
<path fill="none" stroke="black" d="M206.22,-338.61C217.87,-329.5 230.43,-319.69 242.44,-310.3"/>
<polygon fill="black" stroke="black" points="244.58,-313.07 250.3,-304.15 240.27,-307.55 244.58,-313.07"/>
</g>
<!-- メジロオーロラ -->
<g id="node15" class="node">
<title>メジロオーロラ</title>
<polygon fill="lightcoral" stroke="lightcoral" points="357.62,-416 241.88,-416 241.88,-339 357.62,-339 357.62,-416"/>
<image xlink:href="img/mob.png" width="100px" height="77px" preserveAspectRatio="xMinYMin meet" x="249.75" y="-416"/>
<text text-anchor="middle" x="299.75" y="-371.7" font-family="MS Gothic" font-size="14.00">メジロオーロラ</text>
</g>
<!-- メジロオーロラ&#45;&gt;メジロマックイーン -->
<g id="edge14" class="edge">
<title>メジロオーロラ&#45;&gt;メジロマックイーン</title>
<path fill="none" stroke="black" d="M299.75,-338.61C299.75,-330.84 299.75,-322.56 299.75,-314.46"/>
<polygon fill="black" stroke="black" points="303.25,-314.73 299.75,-304.73 296.25,-314.73 303.25,-314.73"/>
</g>
<!-- メジロアサマ -->
<g id="node16" class="node">
<title>メジロアサマ</title>
<polygon fill="lightblue" stroke="lightblue" points="101.5,-529 0,-529 0,-452 101.5,-452 101.5,-529"/>
<image xlink:href="img/mob.png" width="100px" height="77px" preserveAspectRatio="xMinYMin meet" x="0.75" y="-529"/>
<text text-anchor="middle" x="50.75" y="-484.7" font-family="MS Gothic" font-size="14.00">メジロアサマ</text>
</g>
<!-- メジロアサマ&#45;&gt;メジロティターン -->
<g id="edge15" class="edge">
<title>メジロアサマ&#45;&gt;メジロティターン</title>
<path fill="none" stroke="black" d="M87.27,-451.61C95.71,-442.86 104.77,-433.46 113.5,-424.4"/>
<polygon fill="black" stroke="black" points="115.92,-426.94 120.34,-417.31 110.88,-422.08 115.92,-426.94"/>
</g>
<!-- シエリル -->
<g id="node17" class="node">
<title>シエリル</title>
<polygon fill="lightcoral" stroke="lightcoral" points="196.25,-529 119.25,-529 119.25,-452 196.25,-452 196.25,-529"/>
<image xlink:href="img/mob.png" width="77px" height="77px" preserveAspectRatio="xMinYMin meet" x="119.25" y="-529"/>
<text text-anchor="middle" x="157.75" y="-484.7" font-family="MS Gothic" font-size="14.00">シエリル</text>
</g>
<!-- シエリル&#45;&gt;メジロティターン -->
<g id="edge16" class="edge">
<title>シエリル&#45;&gt;メジロティターン</title>
<path fill="none" stroke="black" d="M157.75,-451.61C157.75,-443.84 157.75,-435.56 157.75,-427.46"/>
<polygon fill="black" stroke="black" points="161.25,-427.73 157.75,-417.73 154.25,-427.73 161.25,-427.73"/>
</g>
<!-- リマンド -->
<g id="node18" class="node">
<title>リマンド</title>
<polygon fill="lightblue" stroke="lightblue" points="291.25,-529 214.25,-529 214.25,-452 291.25,-452 291.25,-529"/>
<image xlink:href="img/mob.png" width="77px" height="77px" preserveAspectRatio="xMinYMin meet" x="214.25" y="-529"/>
<text text-anchor="middle" x="252.75" y="-484.7" font-family="MS Gothic" font-size="14.00">リマンド</text>
</g>
<!-- リマンド&#45;&gt;メジロオーロラ -->
<g id="edge17" class="edge">
<title>リマンド&#45;&gt;メジロオーロラ</title>
<path fill="none" stroke="black" d="M268.79,-451.61C272.2,-443.57 275.83,-434.99 279.37,-426.63"/>
<polygon fill="black" stroke="black" points="282.51,-428.19 283.19,-417.61 276.07,-425.46 282.51,-428.19"/>
</g>
<!-- メジロアイリス -->
<g id="node19" class="node">
<title>メジロアイリス</title>
<polygon fill="lightcoral" stroke="lightcoral" points="424.62,-529 308.88,-529 308.88,-452 424.62,-452 424.62,-529"/>
<image xlink:href="img/mob.png" width="100px" height="77px" preserveAspectRatio="xMinYMin meet" x="316.75" y="-529"/>
<text text-anchor="middle" x="366.75" y="-484.7" font-family="MS Gothic" font-size="14.00">メジロアイリス</text>
</g>
<!-- メジロアイリス&#45;&gt;メジロオーロラ -->
<g id="edge18" class="edge">
<title>メジロアイリス&#45;&gt;メジロオーロラ</title>
<path fill="none" stroke="black" d="M343.88,-451.61C338.92,-443.39 333.62,-434.6 328.46,-426.07"/>
<polygon fill="black" stroke="black" points="331.46,-424.27 323.3,-417.51 325.47,-427.88 331.46,-424.27"/>
</g>
<!-- オリエンタルアート&#45;&gt;オルフェーヴル -->
<g id="edge20" class="edge">
<title>オリエンタルアート&#45;&gt;オルフェーヴル</title>
<path fill="none" stroke="black" d="M492.64,-112.61C501.48,-103.77 510.99,-94.26 520.12,-85.13"/>
<polygon fill="black" stroke="black" points="522.36,-87.83 526.96,-78.29 517.42,-82.89 522.36,-87.83"/>
</g>
<!-- エレクトロアート -->
<g id="node22" class="node">
<title>エレクトロアート</title>
<polygon fill="lightcoral" stroke="lightcoral" points="519.75,-303 389.75,-303 389.75,-226 519.75,-226 519.75,-303"/>
<image xlink:href="img/mob.png" width="100px" height="77px" preserveAspectRatio="xMinYMin meet" x="404.75" y="-303"/>
<text text-anchor="middle" x="454.75" y="-258.7" font-family="MS Gothic" font-size="14.00">エレクトロアート</text>
</g>
<!-- エレクトロアート&#45;&gt;オリエンタルアート -->
<g id="edge22" class="edge">
<title>エレクトロアート&#45;&gt;オリエンタルアート</title>
<path fill="none" stroke="black" d="M454.75,-225.61C454.75,-217.84 454.75,-209.56 454.75,-201.46"/>
<polygon fill="black" stroke="black" points="458.25,-201.73 454.75,-191.73 451.25,-201.73 458.25,-201.73"/>
</g>
</g>
</svg>
