<?xml version="1.0" encoding="UTF-8" standalone="no"?>
<!DOCTYPE svg PUBLIC "-//W3C//DTD SVG 1.1//EN"
 "http://www.w3.org/Graphics/SVG/1.1/DTD/svg11.dtd">
<!-- Generated by graphviz version 12.1.2 (20240928.0832)
 -->
<!-- Pages: 1 -->
<svg width="451pt" height="311pt"
 viewBox="0.00 0.00 450.75 311.00" xmlns="http://www.w3.org/2000/svg" xmlns:xlink="http://www.w3.org/1999/xlink">
<g id="graph0" class="graph" transform="scale(1 1) rotate(0) translate(4 307)">
<polygon fill="white" stroke="none" points="-4,4 -4,-307 446.75,-307 446.75,4 -4,4"/>
<!-- サクラローレル -->
<g id="node1" class="node">
<title>サクラローレル</title>
<polygon fill="none" stroke="black" points="307.62,-77 170.88,-77 170.88,0 307.62,0 307.62,-77"/>
<image xlink:href="img/sakuraroreru.png" width="100px" height="77px" preserveAspectRatio="xMinYMin meet" x="189.25" y="-77"/>
<text text-anchor="middle" x="239.25" y="-32.33" font-family="Times New Roman,serif" font-size="14.00">サクラローレル</text>
</g>
<!-- Rainbow Quest -->
<g id="node2" class="node">
<title>Rainbow Quest</title>
<polygon fill="lightblue" stroke="lightblue" points="231.12,-190 127.38,-190 127.38,-113 231.12,-113 231.12,-190"/>
<image xlink:href="img/mob.png" width="100px" height="77px" preserveAspectRatio="xMinYMin meet" x="129.25" y="-190"/>
<text text-anchor="middle" x="179.25" y="-145.7" font-family="MS Gothic" font-size="14.00">Rainbow Quest</text>
</g>
<!-- Rainbow Quest&#45;&gt;サクラローレル -->
<g id="edge1" class="edge">
<title>Rainbow Quest&#45;&gt;サクラローレル</title>
<path fill="none" stroke="black" d="M199.73,-112.61C204.17,-104.39 208.92,-95.6 213.54,-87.07"/>
<polygon fill="black" stroke="black" points="216.47,-89.01 218.14,-78.55 210.31,-85.68 216.47,-89.01"/>
</g>
<!-- ローラローラ -->
<g id="node3" class="node">
<title>ローラローラ</title>
<polygon fill="lightcoral" stroke="lightcoral" points="351,-190 249.5,-190 249.5,-113 351,-113 351,-190"/>
<image xlink:href="img/mob.png" width="100px" height="77px" preserveAspectRatio="xMinYMin meet" x="250.25" y="-190"/>
<text text-anchor="middle" x="300.25" y="-145.7" font-family="MS Gothic" font-size="14.00">ローラローラ</text>
</g>
<!-- ローラローラ&#45;&gt;サクラローレル -->
<g id="edge2" class="edge">
<title>ローラローラ&#45;&gt;サクラローレル</title>
<path fill="none" stroke="black" d="M279.43,-112.61C274.91,-104.39 270.08,-95.6 265.39,-87.07"/>
<polygon fill="black" stroke="black" points="268.59,-85.62 260.71,-78.55 262.46,-88.99 268.59,-85.62"/>
</g>
<!-- Blushing Groom -->
<g id="node4" class="node">
<title>Blushing Groom</title>
<polygon fill="lightblue" stroke="lightblue" points="110.5,-303 0,-303 0,-226 110.5,-226 110.5,-303"/>
<image xlink:href="img/mob.png" width="100px" height="77px" preserveAspectRatio="xMinYMin meet" x="5.25" y="-303"/>
<text text-anchor="middle" x="55.25" y="-258.7" font-family="MS Gothic" font-size="14.00">Blushing Groom</text>
</g>
<!-- Blushing Groom&#45;&gt;Rainbow Quest -->
<g id="edge3" class="edge">
<title>Blushing Groom&#45;&gt;Rainbow Quest</title>
<path fill="none" stroke="black" d="M97.58,-225.61C107.55,-216.68 118.29,-207.07 128.59,-197.85"/>
<polygon fill="black" stroke="black" points="130.87,-200.51 135.99,-191.23 126.2,-195.29 130.87,-200.51"/>
</g>
<!-- I Will Follow -->
<g id="node5" class="node">
<title>I Will Follow</title>
<polygon fill="lightcoral" stroke="lightcoral" points="232.12,-303 128.38,-303 128.38,-226 232.12,-226 232.12,-303"/>
<image xlink:href="img/mob.png" width="100px" height="77px" preserveAspectRatio="xMinYMin meet" x="130.25" y="-303"/>
<text text-anchor="middle" x="180.25" y="-258.7" font-family="MS Gothic" font-size="14.00">I Will Follow</text>
</g>
<!-- I Will Follow&#45;&gt;Rainbow Quest -->
<g id="edge4" class="edge">
<title>I Will Follow&#45;&gt;Rainbow Quest</title>
<path fill="none" stroke="black" d="M179.91,-225.61C179.84,-217.84 179.76,-209.56 179.69,-201.46"/>
<polygon fill="black" stroke="black" points="183.19,-201.7 179.6,-191.73 176.19,-201.76 183.19,-201.7"/>
</g>
<!-- Saint Cyrien -->
<g id="node6" class="node">
<title>Saint Cyrien</title>
<polygon fill="lightblue" stroke="lightblue" points="347.75,-303 250.75,-303 250.75,-226 347.75,-226 347.75,-303"/>
<image xlink:href="img/mob.png" width="97px" height="77px" preserveAspectRatio="xMinYMin meet" x="250.75" y="-303"/>
<text text-anchor="middle" x="299.25" y="-258.7" font-family="MS Gothic" font-size="14.00">Saint Cyrien</text>
</g>
<!-- Saint Cyrien&#45;&gt;ローラローラ -->
<g id="edge5" class="edge">
<title>Saint Cyrien&#45;&gt;ローラローラ</title>
<path fill="none" stroke="black" d="M299.59,-225.61C299.66,-217.84 299.74,-209.56 299.81,-201.46"/>
<polygon fill="black" stroke="black" points="303.31,-201.76 299.9,-191.73 296.31,-201.7 303.31,-201.76"/>
</g>
<!-- Bold Lady -->
<g id="node7" class="node">
<title>Bold Lady</title>
<polygon fill="lightcoral" stroke="lightcoral" points="442.75,-303 365.75,-303 365.75,-226 442.75,-226 442.75,-303"/>
<image xlink:href="img/mob.png" width="77px" height="77px" preserveAspectRatio="xMinYMin meet" x="365.75" y="-303"/>
<text text-anchor="middle" x="404.25" y="-258.7" font-family="MS Gothic" font-size="14.00">Bold Lady</text>
</g>
<!-- Bold Lady&#45;&gt;ローラローラ -->
<g id="edge6" class="edge">
<title>Bold Lady&#45;&gt;ローラローラ</title>
<path fill="none" stroke="black" d="M368.75,-225.61C360.55,-216.86 351.74,-207.46 343.26,-198.4"/>
<polygon fill="black" stroke="black" points="346.02,-196.23 336.62,-191.32 340.91,-201.01 346.02,-196.23"/>
</g>
</g>
</svg>
