<?xml version="1.0" encoding="UTF-8" standalone="no"?>
<!DOCTYPE svg PUBLIC "-//W3C//DTD SVG 1.1//EN"
 "http://www.w3.org/Graphics/SVG/1.1/DTD/svg11.dtd">
<!-- Generated by graphviz version 12.1.2 (20240928.0832)
 -->
<!-- Pages: 1 -->
<svg width="515pt" height="311pt"
 viewBox="0.00 0.00 514.62 311.00" xmlns="http://www.w3.org/2000/svg" xmlns:xlink="http://www.w3.org/1999/xlink">
<g id="graph0" class="graph" transform="scale(1 1) rotate(0) translate(4 307)">
<polygon fill="white" stroke="none" points="-4,4 -4,-307 510.62,-307 510.62,4 -4,4"/>
<!-- サクラバクシンオー -->
<g id="node1" class="node">
<title>サクラバクシンオー</title>
<polygon fill="none" stroke="black" points="324.38,-77 153.12,-77 153.12,0 324.38,0 324.38,-77"/>
<image xlink:href="img/sakurabakushino.png" width="100px" height="77px" preserveAspectRatio="xMinYMin meet" x="188.75" y="-77"/>
<text text-anchor="middle" x="238.75" y="-32.33" font-family="Times New Roman,serif" font-size="14.00">サクラバクシンオー</text>
</g>
<!-- サクラユタカオー -->
<g id="node2" class="node">
<title>サクラユタカオー</title>
<polygon fill="lightblue" stroke="lightblue" points="233.75,-190 103.75,-190 103.75,-113 233.75,-113 233.75,-190"/>
<image xlink:href="img/mob.png" width="100px" height="77px" preserveAspectRatio="xMinYMin meet" x="118.75" y="-190"/>
<text text-anchor="middle" x="168.75" y="-145.7" font-family="MS Gothic" font-size="14.00">サクラユタカオー</text>
</g>
<!-- サクラユタカオー&#45;&gt;サクラバクシンオー -->
<g id="edge1" class="edge">
<title>サクラユタカオー&#45;&gt;サクラバクシンオー</title>
<path fill="none" stroke="black" d="M192.64,-112.61C197.88,-104.31 203.49,-95.41 208.93,-86.79"/>
<polygon fill="black" stroke="black" points="211.78,-88.82 214.16,-78.5 205.86,-85.09 211.78,-88.82"/>
</g>
<!-- サクラハゴロモ -->
<g id="node3" class="node">
<title>サクラハゴロモ</title>
<polygon fill="lightcoral" stroke="lightcoral" points="367.62,-190 251.88,-190 251.88,-113 367.62,-113 367.62,-190"/>
<image xlink:href="img/mob.png" width="100px" height="77px" preserveAspectRatio="xMinYMin meet" x="259.75" y="-190"/>
<text text-anchor="middle" x="309.75" y="-145.7" font-family="MS Gothic" font-size="14.00">サクラハゴロモ</text>
</g>
<!-- サクラハゴロモ&#45;&gt;サクラバクシンオー -->
<g id="edge2" class="edge">
<title>サクラハゴロモ&#45;&gt;サクラバクシンオー</title>
<path fill="none" stroke="black" d="M285.51,-112.61C280.2,-104.31 274.51,-95.41 269,-86.79"/>
<polygon fill="black" stroke="black" points="272.03,-85.03 263.69,-78.49 266.13,-88.8 272.03,-85.03"/>
</g>
<!-- テスコボーイ -->
<g id="node4" class="node">
<title>テスコボーイ</title>
<polygon fill="lightblue" stroke="lightblue" points="101.5,-303 0,-303 0,-226 101.5,-226 101.5,-303"/>
<image xlink:href="img/mob.png" width="100px" height="77px" preserveAspectRatio="xMinYMin meet" x="0.75" y="-303"/>
<text text-anchor="middle" x="50.75" y="-258.7" font-family="MS Gothic" font-size="14.00">テスコボーイ</text>
</g>
<!-- テスコボーイ&#45;&gt;サクラユタカオー -->
<g id="edge3" class="edge">
<title>テスコボーイ&#45;&gt;サクラユタカオー</title>
<path fill="none" stroke="black" d="M91.03,-225.61C100.52,-216.68 110.74,-207.07 120.54,-197.85"/>
<polygon fill="black" stroke="black" points="122.66,-200.66 127.55,-191.26 117.87,-195.56 122.66,-200.66"/>
</g>
<!-- アンジェリカ -->
<g id="node5" class="node">
<title>アンジェリカ</title>
<polygon fill="lightcoral" stroke="lightcoral" points="221.5,-303 120,-303 120,-226 221.5,-226 221.5,-303"/>
<image xlink:href="img/mob.png" width="100px" height="77px" preserveAspectRatio="xMinYMin meet" x="120.75" y="-303"/>
<text text-anchor="middle" x="170.75" y="-258.7" font-family="MS Gothic" font-size="14.00">アンジェリカ</text>
</g>
<!-- アンジェリカ&#45;&gt;サクラユタカオー -->
<g id="edge4" class="edge">
<title>アンジェリカ&#45;&gt;サクラユタカオー</title>
<path fill="none" stroke="black" d="M170.07,-225.61C169.93,-217.84 169.78,-209.56 169.63,-201.46"/>
<polygon fill="black" stroke="black" points="173.14,-201.67 169.46,-191.73 166.14,-201.79 173.14,-201.67"/>
</g>
<!-- ノーザンテースト -->
<g id="node6" class="node">
<title>ノーザンテースト</title>
<polygon fill="lightblue" stroke="lightblue" points="372.75,-303 242.75,-303 242.75,-226 372.75,-226 372.75,-303"/>
<image xlink:href="img/mob.png" width="100px" height="77px" preserveAspectRatio="xMinYMin meet" x="257.75" y="-303"/>
<text text-anchor="middle" x="307.75" y="-258.7" font-family="MS Gothic" font-size="14.00">ノーザンテースト</text>
</g>
<!-- ノーザンテースト&#45;&gt;サクラハゴロモ -->
<g id="edge5" class="edge">
<title>ノーザンテースト&#45;&gt;サクラハゴロモ</title>
<path fill="none" stroke="black" d="M308.43,-225.61C308.57,-217.84 308.72,-209.56 308.87,-201.46"/>
<polygon fill="black" stroke="black" points="312.36,-201.79 309.04,-191.73 305.36,-201.67 312.36,-201.79"/>
</g>
<!-- クリアアンバー -->
<g id="node7" class="node">
<title>クリアアンバー</title>
<polygon fill="lightcoral" stroke="lightcoral" points="506.62,-303 390.88,-303 390.88,-226 506.62,-226 506.62,-303"/>
<image xlink:href="img/mob.png" width="100px" height="77px" preserveAspectRatio="xMinYMin meet" x="398.75" y="-303"/>
<text text-anchor="middle" x="448.75" y="-258.7" font-family="MS Gothic" font-size="14.00">クリアアンバー</text>
</g>
<!-- クリアアンバー&#45;&gt;サクラハゴロモ -->
<g id="edge6" class="edge">
<title>クリアアンバー&#45;&gt;サクラハゴロモ</title>
<path fill="none" stroke="black" d="M401.3,-225.61C389.9,-216.5 377.61,-206.69 365.85,-197.3"/>
<polygon fill="black" stroke="black" points="368.16,-194.67 358.17,-191.16 363.8,-200.14 368.16,-194.67"/>
</g>
</g>
</svg>
