<?xml version="1.0" encoding="UTF-8" standalone="no"?>
<!DOCTYPE svg PUBLIC "-//W3C//DTD SVG 1.1//EN"
 "http://www.w3.org/Graphics/SVG/1.1/DTD/svg11.dtd">
<!-- Generated by graphviz version 12.1.2 (20240928.0832)
 -->
<!-- Pages: 1 -->
<svg width="456pt" height="311pt"
 viewBox="0.00 0.00 455.75 311.00" xmlns="http://www.w3.org/2000/svg" xmlns:xlink="http://www.w3.org/1999/xlink">
<g id="graph0" class="graph" transform="scale(1 1) rotate(0) translate(4 307)">
<polygon fill="white" stroke="none" points="-4,4 -4,-307 451.75,-307 451.75,4 -4,4"/>
<!-- サトノクラウン -->
<g id="node1" class="node">
<title>サトノクラウン</title>
<polygon fill="none" stroke="black" points="322.38,-77 185.62,-77 185.62,0 322.38,0 322.38,-77"/>
<image xlink:href="img/satonokuraun.png" width="100px" height="77px" preserveAspectRatio="xMinYMin meet" x="204" y="-77"/>
<text text-anchor="middle" x="254" y="-32.33" font-family="Times New Roman,serif" font-size="14.00">サトノクラウン</text>
</g>
<!-- Marju -->
<g id="node2" class="node">
<title>Marju</title>
<polygon fill="lightblue" stroke="lightblue" points="238.5,-190 161.5,-190 161.5,-113 238.5,-113 238.5,-190"/>
<image xlink:href="img/mob.png" width="77px" height="77px" preserveAspectRatio="xMinYMin meet" x="161.5" y="-190"/>
<text text-anchor="middle" x="200" y="-145.7" font-family="MS Gothic" font-size="14.00">Marju</text>
</g>
<!-- Marju&#45;&gt;サトノクラウン -->
<g id="edge1" class="edge">
<title>Marju&#45;&gt;サトノクラウン</title>
<path fill="none" stroke="black" d="M218.43,-112.61C222.39,-104.48 226.61,-95.8 230.72,-87.35"/>
<polygon fill="black" stroke="black" points="233.76,-89.1 234.99,-78.58 227.47,-86.04 233.76,-89.1"/>
</g>
<!-- ジョコンダII -->
<g id="node3" class="node">
<title>ジョコンダII</title>
<polygon fill="lightcoral" stroke="lightcoral" points="358.38,-190 257.62,-190 257.62,-113 358.38,-113 358.38,-190"/>
<image xlink:href="img/mob.png" width="100px" height="77px" preserveAspectRatio="xMinYMin meet" x="258" y="-190"/>
<text text-anchor="middle" x="308" y="-146.68" font-family="MS Gothic" font-size="14.00">ジョコンダII</text>
</g>
<!-- ジョコンダII&#45;&gt;サトノクラウン -->
<g id="edge2" class="edge">
<title>ジョコンダII&#45;&gt;サトノクラウン</title>
<path fill="none" stroke="black" d="M289.57,-112.61C285.61,-104.48 281.39,-95.8 277.28,-87.35"/>
<polygon fill="black" stroke="black" points="280.53,-86.04 273.01,-78.58 274.24,-89.1 280.53,-86.04"/>
</g>
<!-- ラストタイクーン -->
<g id="node4" class="node">
<title>ラストタイクーン</title>
<polygon fill="lightblue" stroke="lightblue" points="130,-303 0,-303 0,-226 130,-226 130,-303"/>
<image xlink:href="img/mob.png" width="100px" height="77px" preserveAspectRatio="xMinYMin meet" x="15" y="-303"/>
<text text-anchor="middle" x="65" y="-258.7" font-family="MS Gothic" font-size="14.00">ラストタイクーン</text>
</g>
<!-- ラストタイクーン&#45;&gt;Marju -->
<g id="edge3" class="edge">
<title>ラストタイクーン&#45;&gt;Marju</title>
<path fill="none" stroke="black" d="M111.08,-225.61C124.49,-214.59 139.16,-202.53 152.64,-191.44"/>
<polygon fill="black" stroke="black" points="154.64,-194.33 160.14,-185.27 150.19,-188.92 154.64,-194.33"/>
</g>
<!-- Flame of Tara -->
<g id="node5" class="node">
<title>Flame of Tara</title>
<polygon fill="lightcoral" stroke="lightcoral" points="251.88,-303 148.12,-303 148.12,-226 251.88,-226 251.88,-303"/>
<image xlink:href="img/mob.png" width="100px" height="77px" preserveAspectRatio="xMinYMin meet" x="150" y="-303"/>
<text text-anchor="middle" x="200" y="-258.7" font-family="MS Gothic" font-size="14.00">Flame of Tara</text>
</g>
<!-- Flame of Tara&#45;&gt;Marju -->
<g id="edge4" class="edge">
<title>Flame of Tara&#45;&gt;Marju</title>
<path fill="none" stroke="black" d="M200,-225.61C200,-217.84 200,-209.56 200,-201.46"/>
<polygon fill="black" stroke="black" points="203.5,-201.73 200,-191.73 196.5,-201.73 203.5,-201.73"/>
</g>
<!-- Rossini -->
<g id="node6" class="node">
<title>Rossini</title>
<polygon fill="lightblue" stroke="lightblue" points="346.5,-303 269.5,-303 269.5,-226 346.5,-226 346.5,-303"/>
<image xlink:href="img/mob.png" width="77px" height="77px" preserveAspectRatio="xMinYMin meet" x="269.5" y="-303"/>
<text text-anchor="middle" x="308" y="-258.7" font-family="MS Gothic" font-size="14.00">Rossini</text>
</g>
<!-- Rossini&#45;&gt;ジョコンダII -->
<g id="edge5" class="edge">
<title>Rossini&#45;&gt;ジョコンダII</title>
<path fill="none" stroke="black" d="M308,-225.61C308,-217.84 308,-209.56 308,-201.46"/>
<polygon fill="black" stroke="black" points="311.5,-201.73 308,-191.73 304.5,-201.73 311.5,-201.73"/>
</g>
<!-- La Joconde -->
<g id="node7" class="node">
<title>La Joconde</title>
<polygon fill="lightcoral" stroke="lightcoral" points="447.75,-303 364.25,-303 364.25,-226 447.75,-226 447.75,-303"/>
<image xlink:href="img/mob.png" width="83.5px" height="77px" preserveAspectRatio="xMinYMin meet" x="364.25" y="-303"/>
<text text-anchor="middle" x="406" y="-258.7" font-family="MS Gothic" font-size="14.00">La Joconde</text>
</g>
<!-- La Joconde&#45;&gt;ジョコンダII -->
<g id="edge6" class="edge">
<title>La Joconde&#45;&gt;ジョコンダII</title>
<path fill="none" stroke="black" d="M372.55,-225.61C364.9,-216.95 356.69,-207.65 348.77,-198.68"/>
<polygon fill="black" stroke="black" points="351.55,-196.53 342.3,-191.35 346.3,-201.17 351.55,-196.53"/>
</g>
</g>
</svg>
