<?xml version="1.0" encoding="UTF-8" standalone="no"?>
<!DOCTYPE svg PUBLIC "-//W3C//DTD SVG 1.1//EN"
 "http://www.w3.org/Graphics/SVG/1.1/DTD/svg11.dtd">
<!-- Generated by graphviz version 12.1.2 (20240928.0832)
 -->
<!-- Pages: 1 -->
<svg width="482pt" height="311pt"
 viewBox="0.00 0.00 481.88 311.00" xmlns="http://www.w3.org/2000/svg" xmlns:xlink="http://www.w3.org/1999/xlink">
<g id="graph0" class="graph" transform="scale(1 1) rotate(0) translate(4 307)">
<polygon fill="white" stroke="none" points="-4,4 -4,-307 477.88,-307 477.88,4 -4,4"/>
<!-- サクラチヨノオー -->
<g id="node1" class="node">
<title>サクラチヨノオー</title>
<polygon fill="none" stroke="black" points="265.5,-77 111.5,-77 111.5,0 265.5,0 265.5,-77"/>
<image xlink:href="img/sakurachiyonoo.png" width="100px" height="77px" preserveAspectRatio="xMinYMin meet" x="138.5" y="-77"/>
<text text-anchor="middle" x="188.5" y="-32.33" font-family="Times New Roman,serif" font-size="14.00">サクラチヨノオー</text>
</g>
<!-- マルゼンスキー -->
<g id="node2" class="node">
<title>マルゼンスキー</title>
<polygon fill="lightblue" stroke="lightblue" points="183.38,-190 67.62,-190 67.62,-113 183.38,-113 183.38,-190"/>
<image xlink:href="img/maruzensuki.png" width="100px" height="77px" preserveAspectRatio="xMinYMin meet" x="75.5" y="-190"/>
<text text-anchor="middle" x="125.5" y="-145.7" font-family="MS Gothic" font-size="14.00">マルゼンスキー</text>
</g>
<!-- マルゼンスキー&#45;&gt;サクラチヨノオー -->
<g id="edge1" class="edge">
<title>マルゼンスキー&#45;&gt;サクラチヨノオー</title>
<path fill="none" stroke="black" d="M147,-112.61C151.67,-104.39 156.66,-95.6 161.5,-87.07"/>
<polygon fill="black" stroke="black" points="164.45,-88.96 166.34,-78.53 158.36,-85.5 164.45,-88.96"/>
</g>
<!-- サクラセダン -->
<g id="node3" class="node">
<title>サクラセダン</title>
<polygon fill="lightcoral" stroke="lightcoral" points="303.25,-190 201.75,-190 201.75,-113 303.25,-113 303.25,-190"/>
<image xlink:href="img/mob.png" width="100px" height="77px" preserveAspectRatio="xMinYMin meet" x="202.5" y="-190"/>
<text text-anchor="middle" x="252.5" y="-145.7" font-family="MS Gothic" font-size="14.00">サクラセダン</text>
</g>
<!-- サクラセダン&#45;&gt;サクラチヨノオー -->
<g id="edge2" class="edge">
<title>サクラセダン&#45;&gt;サクラチヨノオー</title>
<path fill="none" stroke="black" d="M230.65,-112.61C225.92,-104.39 220.85,-95.6 215.93,-87.07"/>
<polygon fill="black" stroke="black" points="219.03,-85.44 211,-78.53 212.97,-88.94 219.03,-85.44"/>
</g>
<!-- Nijinsky -->
<g id="node4" class="node">
<title>Nijinsky</title>
<polygon fill="lightblue" stroke="lightblue" points="77,-303 0,-303 0,-226 77,-226 77,-303"/>
<image xlink:href="img/mob.png" width="77px" height="77px" preserveAspectRatio="xMinYMin meet" x="0" y="-303"/>
<text text-anchor="middle" x="38.5" y="-258.7" font-family="MS Gothic" font-size="14.00">Nijinsky</text>
</g>
<!-- Nijinsky&#45;&gt;マルゼンスキー -->
<g id="edge3" class="edge">
<title>Nijinsky&#45;&gt;マルゼンスキー</title>
<path fill="none" stroke="black" d="M68.2,-225.61C74.85,-217.13 81.98,-208.03 88.87,-199.24"/>
<polygon fill="black" stroke="black" points="91.59,-201.44 95,-191.41 86.08,-197.12 91.59,-201.44"/>
</g>
<!-- シル -->
<g id="node5" class="node">
<title>シル</title>
<polygon fill="lightcoral" stroke="lightcoral" points="172,-303 95,-303 95,-226 172,-226 172,-303"/>
<image xlink:href="img/mob.png" width="77px" height="77px" preserveAspectRatio="xMinYMin meet" x="95" y="-303"/>
<text text-anchor="middle" x="133.5" y="-258.7" font-family="MS Gothic" font-size="14.00">シル</text>
</g>
<!-- シル&#45;&gt;マルゼンスキー -->
<g id="edge4" class="edge">
<title>シル&#45;&gt;マルゼンスキー</title>
<path fill="none" stroke="black" d="M130.77,-225.61C130.21,-217.84 129.61,-209.56 129.03,-201.46"/>
<polygon fill="black" stroke="black" points="132.54,-201.45 128.33,-191.73 125.56,-201.95 132.54,-201.45"/>
</g>
<!-- セダン -->
<g id="node6" class="node">
<title>セダン</title>
<polygon fill="lightblue" stroke="lightblue" points="283,-303 206,-303 206,-226 283,-226 283,-303"/>
<image xlink:href="img/mob.png" width="77px" height="77px" preserveAspectRatio="xMinYMin meet" x="206" y="-303"/>
<text text-anchor="middle" x="244.5" y="-258.7" font-family="MS Gothic" font-size="14.00">セダン</text>
</g>
<!-- セダン&#45;&gt;サクラセダン -->
<g id="edge5" class="edge">
<title>セダン&#45;&gt;サクラセダン</title>
<path fill="none" stroke="black" d="M247.23,-225.61C247.79,-217.84 248.39,-209.56 248.97,-201.46"/>
<polygon fill="black" stroke="black" points="252.44,-201.95 249.67,-191.73 245.46,-201.45 252.44,-201.95"/>
</g>
<!-- スワンズウッドグローヴ -->
<g id="node7" class="node">
<title>スワンズウッドグローヴ</title>
<polygon fill="lightcoral" stroke="lightcoral" points="473.88,-303 301.12,-303 301.12,-226 473.88,-226 473.88,-303"/>
<image xlink:href="img/mob.png" width="100px" height="77px" preserveAspectRatio="xMinYMin meet" x="337.5" y="-303"/>
<text text-anchor="middle" x="387.5" y="-258.7" font-family="MS Gothic" font-size="14.00">スワンズウッドグローヴ</text>
</g>
<!-- スワンズウッドグローヴ&#45;&gt;サクラセダン -->
<g id="edge6" class="edge">
<title>スワンズウッドグローヴ&#45;&gt;サクラセダン</title>
<path fill="none" stroke="black" d="M341.42,-225.61C330.34,-216.5 318.4,-206.69 306.98,-197.3"/>
<polygon fill="black" stroke="black" points="309.49,-194.83 299.54,-191.18 305.04,-200.23 309.49,-194.83"/>
</g>
</g>
</svg>
