<?xml version="1.0" encoding="UTF-8" standalone="no"?>
<!DOCTYPE svg PUBLIC "-//W3C//DTD SVG 1.1//EN"
 "http://www.w3.org/Graphics/SVG/1.1/DTD/svg11.dtd">
<!-- Generated by graphviz version 12.1.2 (20240928.0832)
 -->
<!-- Pages: 1 -->
<svg width="503pt" height="311pt"
 viewBox="0.00 0.00 502.50 311.00" xmlns="http://www.w3.org/2000/svg" xmlns:xlink="http://www.w3.org/1999/xlink">
<g id="graph0" class="graph" transform="scale(1 1) rotate(0) translate(4 307)">
<polygon fill="white" stroke="none" points="-4,4 -4,-307 498.5,-307 498.5,4 -4,4"/>
<!-- サクラチトセオー -->
<g id="node1" class="node">
<title>サクラチトセオー</title>
<polygon fill="none" stroke="black" points="290.5,-77 136.5,-77 136.5,0 290.5,0 290.5,-77"/>
<image xlink:href="img/sakurachitoseo.png" width="100px" height="77px" preserveAspectRatio="xMinYMin meet" x="163.5" y="-77"/>
<text text-anchor="middle" x="213.5" y="-32.33" font-family="Times New Roman,serif" font-size="14.00">サクラチトセオー</text>
</g>
<!-- トニービン -->
<g id="node2" class="node">
<title>トニービン</title>
<polygon fill="lightblue" stroke="lightblue" points="190.12,-190 102.88,-190 102.88,-113 190.12,-113 190.12,-190"/>
<image xlink:href="img/mob.png" width="87.25px" height="77px" preserveAspectRatio="xMinYMin meet" x="102.875" y="-190"/>
<text text-anchor="middle" x="146.5" y="-145.7" font-family="MS Gothic" font-size="14.00">トニービン</text>
</g>
<!-- トニービン&#45;&gt;サクラチトセオー -->
<g id="edge1" class="edge">
<title>トニービン&#45;&gt;サクラチトセオー</title>
<path fill="none" stroke="black" d="M169.37,-112.61C174.33,-104.39 179.63,-95.6 184.79,-87.07"/>
<polygon fill="black" stroke="black" points="187.78,-88.88 189.95,-78.51 181.79,-85.27 187.78,-88.88"/>
</g>
<!-- サクラクレアー -->
<g id="node3" class="node">
<title>サクラクレアー</title>
<polygon fill="lightcoral" stroke="lightcoral" points="339.38,-190 223.62,-190 223.62,-113 339.38,-113 339.38,-190"/>
<image xlink:href="img/mob.png" width="100px" height="77px" preserveAspectRatio="xMinYMin meet" x="231.5" y="-190"/>
<text text-anchor="middle" x="281.5" y="-145.7" font-family="MS Gothic" font-size="14.00">サクラクレアー</text>
</g>
<!-- サクラクレアー&#45;&gt;サクラチトセオー -->
<g id="edge2" class="edge">
<title>サクラクレアー&#45;&gt;サクラチトセオー</title>
<path fill="none" stroke="black" d="M258.29,-112.61C253.2,-104.31 247.75,-95.41 242.47,-86.79"/>
<polygon fill="black" stroke="black" points="245.61,-85.21 237.4,-78.51 239.64,-88.86 245.61,-85.21"/>
</g>
<!-- カンパラ -->
<g id="node4" class="node">
<title>カンパラ</title>
<polygon fill="lightblue" stroke="lightblue" points="77,-303 0,-303 0,-226 77,-226 77,-303"/>
<image xlink:href="img/mob.png" width="77px" height="77px" preserveAspectRatio="xMinYMin meet" x="0" y="-303"/>
<text text-anchor="middle" x="38.5" y="-258.7" font-family="MS Gothic" font-size="14.00">カンパラ</text>
</g>
<!-- カンパラ&#45;&gt;トニービン -->
<g id="edge3" class="edge">
<title>カンパラ&#45;&gt;トニービン</title>
<path fill="none" stroke="black" d="M75.37,-225.61C83.88,-216.86 93.03,-207.46 101.84,-198.4"/>
<polygon fill="black" stroke="black" points="104.28,-200.91 108.75,-191.3 99.26,-196.03 104.28,-200.91"/>
</g>
<!-- Severn Bridge -->
<g id="node5" class="node">
<title>Severn Bridge</title>
<polygon fill="lightcoral" stroke="lightcoral" points="198.38,-303 94.62,-303 94.62,-226 198.38,-226 198.38,-303"/>
<image xlink:href="img/mob.png" width="100px" height="77px" preserveAspectRatio="xMinYMin meet" x="96.5" y="-303"/>
<text text-anchor="middle" x="146.5" y="-258.7" font-family="MS Gothic" font-size="14.00">Severn Bridge</text>
</g>
<!-- Severn Bridge&#45;&gt;トニービン -->
<g id="edge4" class="edge">
<title>Severn Bridge&#45;&gt;トニービン</title>
<path fill="none" stroke="black" d="M146.5,-225.61C146.5,-217.84 146.5,-209.56 146.5,-201.46"/>
<polygon fill="black" stroke="black" points="150,-201.73 146.5,-191.73 143,-201.73 150,-201.73"/>
</g>
<!-- ノーザンテースト -->
<g id="node6" class="node">
<title>ノーザンテースト</title>
<polygon fill="lightblue" stroke="lightblue" points="346.5,-303 216.5,-303 216.5,-226 346.5,-226 346.5,-303"/>
<image xlink:href="img/mob.png" width="100px" height="77px" preserveAspectRatio="xMinYMin meet" x="231.5" y="-303"/>
<text text-anchor="middle" x="281.5" y="-258.7" font-family="MS Gothic" font-size="14.00">ノーザンテースト</text>
</g>
<!-- ノーザンテースト&#45;&gt;サクラクレアー -->
<g id="edge5" class="edge">
<title>ノーザンテースト&#45;&gt;サクラクレアー</title>
<path fill="none" stroke="black" d="M281.5,-225.61C281.5,-217.84 281.5,-209.56 281.5,-201.46"/>
<polygon fill="black" stroke="black" points="285,-201.73 281.5,-191.73 278,-201.73 285,-201.73"/>
</g>
<!-- クレアーブリッジ -->
<g id="node7" class="node">
<title>クレアーブリッジ</title>
<polygon fill="lightcoral" stroke="lightcoral" points="494.5,-303 364.5,-303 364.5,-226 494.5,-226 494.5,-303"/>
<image xlink:href="img/mob.png" width="100px" height="77px" preserveAspectRatio="xMinYMin meet" x="379.5" y="-303"/>
<text text-anchor="middle" x="429.5" y="-258.7" font-family="MS Gothic" font-size="14.00">クレアーブリッジ</text>
</g>
<!-- クレアーブリッジ&#45;&gt;サクラクレアー -->
<g id="edge6" class="edge">
<title>クレアーブリッジ&#45;&gt;サクラクレアー</title>
<path fill="none" stroke="black" d="M378.98,-225.61C366.78,-216.46 353.64,-206.6 341.07,-197.18"/>
<polygon fill="black" stroke="black" points="343.35,-194.52 333.25,-191.32 339.15,-200.12 343.35,-194.52"/>
</g>
</g>
</svg>
