<?xml version="1.0" encoding="UTF-8" standalone="no"?>
<!DOCTYPE svg PUBLIC "-//W3C//DTD SVG 1.1//EN"
 "http://www.w3.org/Graphics/SVG/1.1/DTD/svg11.dtd">
<!-- Generated by graphviz version 12.1.2 (20240928.0832)
 -->
<!-- Pages: 1 -->
<svg width="272pt" height="116pt"
 viewBox="0.00 0.00 271.68 116.00" xmlns="http://www.w3.org/2000/svg" xmlns:xlink="http://www.w3.org/1999/xlink">
<g id="graph0" class="graph" transform="scale(1 1) rotate(0) translate(4 112)">
<polygon fill="white" stroke="none" points="-4,4 -4,-112 267.68,-112 267.68,4 -4,4"/>
<!-- パーソロン -->
<g id="node1" class="node">
<title>パーソロン</title>
<ellipse fill="none" stroke="black" cx="56.71" cy="-90" rx="56.71" ry="18"/>
<text text-anchor="middle" x="56.71" y="-84.2" font-family="MS Gothic" font-size="14.00">パーソロン</text>
</g>
<!-- シンボリルドルフ -->
<g id="node3" class="node">
<title>シンボリルドルフ</title>
<ellipse fill="none" stroke="black" cx="126.71" cy="-18" rx="84.49" ry="18"/>
<text text-anchor="middle" x="126.71" y="-12.2" font-family="MS Gothic" font-size="14.00">シンボリルドルフ</text>
</g>
<!-- パーソロン&#45;&gt;シンボリルドルフ -->
<g id="edge1" class="edge">
<title>パーソロン&#45;&gt;シンボリルドルフ</title>
<path fill="none" stroke="black" d="M73.3,-72.41C81.8,-63.91 92.34,-53.37 101.79,-43.91"/>
<polygon fill="black" stroke="black" points="104.08,-46.57 108.68,-37.03 99.14,-41.62 104.08,-46.57"/>
</g>
<!-- スイートルナ -->
<g id="node2" class="node">
<title>スイートルナ</title>
<ellipse fill="none" stroke="black" cx="197.71" cy="-90" rx="65.97" ry="18"/>
<text text-anchor="middle" x="197.71" y="-84.2" font-family="MS Gothic" font-size="14.00">スイートルナ</text>
</g>
<!-- スイートルナ&#45;&gt;シンボリルドルフ -->
<g id="edge2" class="edge">
<title>スイートルナ&#45;&gt;シンボリルドルフ</title>
<path fill="none" stroke="black" d="M180.88,-72.41C172.25,-63.91 161.57,-53.37 151.98,-43.91"/>
<polygon fill="black" stroke="black" points="154.56,-41.55 144.98,-37.02 149.65,-46.53 154.56,-41.55"/>
</g>
</g>
</svg>
