<?xml version="1.0" encoding="UTF-8" standalone="no"?>
<!DOCTYPE svg PUBLIC "-//W3C//DTD SVG 1.1//EN"
 "http://www.w3.org/Graphics/SVG/1.1/DTD/svg11.dtd">
<!-- Generated by graphviz version 12.1.2 (20240928.0832)
 -->
<!-- Pages: 1 -->
<svg width="493pt" height="311pt"
 viewBox="0.00 0.00 493.25 311.00" xmlns="http://www.w3.org/2000/svg" xmlns:xlink="http://www.w3.org/1999/xlink">
<g id="graph0" class="graph" transform="scale(1 1) rotate(0) translate(4 307)">
<polygon fill="white" stroke="none" points="-4,4 -4,-307 489.25,-307 489.25,4 -4,4"/>
<!-- シーキングザパール -->
<g id="node1" class="node">
<title>シーキングザパール</title>
<polygon fill="none" stroke="black" points="312.88,-77 141.62,-77 141.62,0 312.88,0 312.88,-77"/>
<image xlink:href="img/shikinguzaparu.png" width="100px" height="77px" preserveAspectRatio="xMinYMin meet" x="177.25" y="-77"/>
<text text-anchor="middle" x="227.25" y="-32.33" font-family="Times New Roman,serif" font-size="14.00">シーキングザパール</text>
</g>
<!-- Seeking the Gold -->
<g id="node2" class="node">
<title>Seeking the Gold</title>
<polygon fill="lightblue" stroke="lightblue" points="220.25,-190 96.25,-190 96.25,-113 220.25,-113 220.25,-190"/>
<image xlink:href="img/mob.png" width="100px" height="77px" preserveAspectRatio="xMinYMin meet" x="108.25" y="-190"/>
<text text-anchor="middle" x="158.25" y="-145.7" font-family="MS Gothic" font-size="14.00">Seeking the Gold</text>
</g>
<!-- Seeking the Gold&#45;&gt;シーキングザパール -->
<g id="edge1" class="edge">
<title>Seeking the Gold&#45;&gt;シーキングザパール</title>
<path fill="none" stroke="black" d="M181.8,-112.61C186.97,-104.31 192.49,-95.41 197.85,-86.79"/>
<polygon fill="black" stroke="black" points="200.7,-88.84 203,-78.5 194.75,-85.15 200.7,-88.84"/>
</g>
<!-- ページプルーフ -->
<g id="node3" class="node">
<title>ページプルーフ</title>
<polygon fill="lightcoral" stroke="lightcoral" points="354.12,-190 238.38,-190 238.38,-113 354.12,-113 354.12,-190"/>
<image xlink:href="img/mob.png" width="100px" height="77px" preserveAspectRatio="xMinYMin meet" x="246.25" y="-190"/>
<text text-anchor="middle" x="296.25" y="-145.7" font-family="MS Gothic" font-size="14.00">ページプルーフ</text>
</g>
<!-- ページプルーフ&#45;&gt;シーキングザパール -->
<g id="edge2" class="edge">
<title>ページプルーフ&#45;&gt;シーキングザパール</title>
<path fill="none" stroke="black" d="M272.7,-112.61C267.53,-104.31 262.01,-95.41 256.65,-86.79"/>
<polygon fill="black" stroke="black" points="259.75,-85.15 251.5,-78.5 253.8,-88.84 259.75,-85.15"/>
</g>
<!-- Mr. Prospector -->
<g id="node4" class="node">
<title>Mr. Prospector</title>
<polygon fill="lightblue" stroke="lightblue" points="110.5,-303 0,-303 0,-226 110.5,-226 110.5,-303"/>
<image xlink:href="img/mob.png" width="100px" height="77px" preserveAspectRatio="xMinYMin meet" x="5.25" y="-303"/>
<text text-anchor="middle" x="55.25" y="-258.7" font-family="MS Gothic" font-size="14.00">Mr. Prospector</text>
</g>
<!-- Mr. Prospector&#45;&gt;Seeking the Gold -->
<g id="edge3" class="edge">
<title>Mr. Prospector&#45;&gt;Seeking the Gold</title>
<path fill="none" stroke="black" d="M90.41,-225.61C98.53,-216.86 107.25,-207.46 115.65,-198.4"/>
<polygon fill="black" stroke="black" points="117.98,-201.04 122.22,-191.33 112.85,-196.28 117.98,-201.04"/>
</g>
<!-- Con Game -->
<g id="node5" class="node">
<title>Con Game</title>
<polygon fill="lightcoral" stroke="lightcoral" points="205.75,-303 128.75,-303 128.75,-226 205.75,-226 205.75,-303"/>
<image xlink:href="img/mob.png" width="77px" height="77px" preserveAspectRatio="xMinYMin meet" x="128.75" y="-303"/>
<text text-anchor="middle" x="167.25" y="-258.7" font-family="MS Gothic" font-size="14.00">Con Game</text>
</g>
<!-- Con Game&#45;&gt;Seeking the Gold -->
<g id="edge4" class="edge">
<title>Con Game&#45;&gt;Seeking the Gold</title>
<path fill="none" stroke="black" d="M164.18,-225.61C163.55,-217.84 162.88,-209.56 162.22,-201.46"/>
<polygon fill="black" stroke="black" points="165.73,-201.41 161.43,-191.73 158.75,-201.98 165.73,-201.41"/>
</g>
<!-- Seattle Slew -->
<g id="node6" class="node">
<title>Seattle Slew</title>
<polygon fill="lightblue" stroke="lightblue" points="336.75,-303 239.75,-303 239.75,-226 336.75,-226 336.75,-303"/>
<image xlink:href="img/mob.png" width="97px" height="77px" preserveAspectRatio="xMinYMin meet" x="239.75" y="-303"/>
<text text-anchor="middle" x="288.25" y="-258.7" font-family="MS Gothic" font-size="14.00">Seattle Slew</text>
</g>
<!-- Seattle Slew&#45;&gt;ページプルーフ -->
<g id="edge5" class="edge">
<title>Seattle Slew&#45;&gt;ページプルーフ</title>
<path fill="none" stroke="black" d="M290.98,-225.61C291.54,-217.84 292.14,-209.56 292.72,-201.46"/>
<polygon fill="black" stroke="black" points="296.19,-201.95 293.42,-191.73 289.21,-201.45 296.19,-201.95"/>
</g>
<!-- バーブスボールド -->
<g id="node7" class="node">
<title>バーブスボールド</title>
<polygon fill="lightcoral" stroke="lightcoral" points="485.25,-303 355.25,-303 355.25,-226 485.25,-226 485.25,-303"/>
<image xlink:href="img/mob.png" width="100px" height="77px" preserveAspectRatio="xMinYMin meet" x="370.25" y="-303"/>
<text text-anchor="middle" x="420.25" y="-258.7" font-family="MS Gothic" font-size="14.00">バーブスボールド</text>
</g>
<!-- バーブスボールド&#45;&gt;ページプルーフ -->
<g id="edge6" class="edge">
<title>バーブスボールド&#45;&gt;ページプルーフ</title>
<path fill="none" stroke="black" d="M377.92,-225.61C367.95,-216.68 357.21,-207.07 346.91,-197.85"/>
<polygon fill="black" stroke="black" points="349.3,-195.29 339.51,-191.23 344.63,-200.51 349.3,-195.29"/>
</g>
</g>
</svg>
