<?xml version="1.0" encoding="UTF-8" standalone="no"?>
<!DOCTYPE svg PUBLIC "-//W3C//DTD SVG 1.1//EN"
 "http://www.w3.org/Graphics/SVG/1.1/DTD/svg11.dtd">
<!-- Generated by graphviz version 12.1.2 (20240928.0832)
 -->
<!-- Pages: 1 -->
<svg width="448pt" height="311pt"
 viewBox="0.00 0.00 448.25 311.00" xmlns="http://www.w3.org/2000/svg" xmlns:xlink="http://www.w3.org/1999/xlink">
<g id="graph0" class="graph" transform="scale(1 1) rotate(0) translate(4 307)">
<polygon fill="white" stroke="none" points="-4,4 -4,-307 444.25,-307 444.25,4 -4,4"/>
<!-- シンコウウインディ -->
<g id="node1" class="node">
<title>シンコウウインディ</title>
<polygon fill="none" stroke="black" points="280.12,-77 108.88,-77 108.88,0 280.12,0 280.12,-77"/>
<image xlink:href="img/shinkouuindei.png" width="100px" height="77px" preserveAspectRatio="xMinYMin meet" x="144.5" y="-77"/>
<text text-anchor="middle" x="194.5" y="-32.33" font-family="Times New Roman,serif" font-size="14.00">シンコウウインディ</text>
</g>
<!-- デュラブ -->
<g id="node2" class="node">
<title>デュラブ</title>
<polygon fill="lightblue" stroke="lightblue" points="172,-190 95,-190 95,-113 172,-113 172,-190"/>
<image xlink:href="img/mob.png" width="77px" height="77px" preserveAspectRatio="xMinYMin meet" x="95" y="-190"/>
<text text-anchor="middle" x="133.5" y="-145.7" font-family="MS Gothic" font-size="14.00">デュラブ</text>
</g>
<!-- デュラブ&#45;&gt;シンコウウインディ -->
<g id="edge1" class="edge">
<title>デュラブ&#45;&gt;シンコウウインディ</title>
<path fill="none" stroke="black" d="M154.32,-112.61C158.84,-104.39 163.67,-95.6 168.36,-87.07"/>
<polygon fill="black" stroke="black" points="171.29,-88.99 173.04,-78.55 165.16,-85.62 171.29,-88.99"/>
</g>
<!-- ローズコマンダー -->
<g id="node3" class="node">
<title>ローズコマンダー</title>
<polygon fill="lightcoral" stroke="lightcoral" points="320.5,-190 190.5,-190 190.5,-113 320.5,-113 320.5,-190"/>
<image xlink:href="img/mob.png" width="100px" height="77px" preserveAspectRatio="xMinYMin meet" x="205.5" y="-190"/>
<text text-anchor="middle" x="255.5" y="-145.7" font-family="MS Gothic" font-size="14.00">ローズコマンダー</text>
</g>
<!-- ローズコマンダー&#45;&gt;シンコウウインディ -->
<g id="edge2" class="edge">
<title>ローズコマンダー&#45;&gt;シンコウウインディ</title>
<path fill="none" stroke="black" d="M234.68,-112.61C230.16,-104.39 225.33,-95.6 220.64,-87.07"/>
<polygon fill="black" stroke="black" points="223.84,-85.62 215.96,-78.55 217.71,-88.99 223.84,-85.62"/>
</g>
<!-- Topsider -->
<g id="node4" class="node">
<title>Topsider</title>
<polygon fill="lightblue" stroke="lightblue" points="77,-303 0,-303 0,-226 77,-226 77,-303"/>
<image xlink:href="img/mob.png" width="77px" height="77px" preserveAspectRatio="xMinYMin meet" x="0" y="-303"/>
<text text-anchor="middle" x="38.5" y="-258.7" font-family="MS Gothic" font-size="14.00">Topsider</text>
</g>
<!-- Topsider&#45;&gt;デュラブ -->
<g id="edge3" class="edge">
<title>Topsider&#45;&gt;デュラブ</title>
<path fill="none" stroke="black" d="M70.93,-225.61C78.26,-217.04 86.14,-207.84 93.74,-198.96"/>
<polygon fill="black" stroke="black" points="96.39,-201.24 100.23,-191.37 91.07,-196.69 96.39,-201.24"/>
</g>
<!-- Passerine -->
<g id="node5" class="node">
<title>Passerine</title>
<polygon fill="lightcoral" stroke="lightcoral" points="172,-303 95,-303 95,-226 172,-226 172,-303"/>
<image xlink:href="img/mob.png" width="77px" height="77px" preserveAspectRatio="xMinYMin meet" x="95" y="-303"/>
<text text-anchor="middle" x="133.5" y="-258.7" font-family="MS Gothic" font-size="14.00">Passerine</text>
</g>
<!-- Passerine&#45;&gt;デュラブ -->
<g id="edge4" class="edge">
<title>Passerine&#45;&gt;デュラブ</title>
<path fill="none" stroke="black" d="M133.5,-225.61C133.5,-217.84 133.5,-209.56 133.5,-201.46"/>
<polygon fill="black" stroke="black" points="137,-201.73 133.5,-191.73 130,-201.73 137,-201.73"/>
</g>
<!-- ダストコマンダー -->
<g id="node6" class="node">
<title>ダストコマンダー</title>
<polygon fill="lightblue" stroke="lightblue" points="320.5,-303 190.5,-303 190.5,-226 320.5,-226 320.5,-303"/>
<image xlink:href="img/mob.png" width="100px" height="77px" preserveAspectRatio="xMinYMin meet" x="205.5" y="-303"/>
<text text-anchor="middle" x="255.5" y="-258.7" font-family="MS Gothic" font-size="14.00">ダストコマンダー</text>
</g>
<!-- ダストコマンダー&#45;&gt;ローズコマンダー -->
<g id="edge5" class="edge">
<title>ダストコマンダー&#45;&gt;ローズコマンダー</title>
<path fill="none" stroke="black" d="M255.5,-225.61C255.5,-217.84 255.5,-209.56 255.5,-201.46"/>
<polygon fill="black" stroke="black" points="259,-201.73 255.5,-191.73 252,-201.73 259,-201.73"/>
</g>
<!-- ハマヒリュウ -->
<g id="node7" class="node">
<title>ハマヒリュウ</title>
<polygon fill="lightcoral" stroke="lightcoral" points="440.25,-303 338.75,-303 338.75,-226 440.25,-226 440.25,-303"/>
<image xlink:href="img/mob.png" width="100px" height="77px" preserveAspectRatio="xMinYMin meet" x="339.5" y="-303"/>
<text text-anchor="middle" x="389.5" y="-258.7" font-family="MS Gothic" font-size="14.00">ハマヒリュウ</text>
</g>
<!-- ハマヒリュウ&#45;&gt;ローズコマンダー -->
<g id="edge6" class="edge">
<title>ハマヒリュウ&#45;&gt;ローズコマンダー</title>
<path fill="none" stroke="black" d="M343.76,-225.61C332.76,-216.5 320.92,-206.69 309.58,-197.3"/>
<polygon fill="black" stroke="black" points="312.13,-194.87 302.2,-191.18 307.67,-200.26 312.13,-194.87"/>
</g>
</g>
</svg>
