<?xml version="1.0" encoding="UTF-8" standalone="no"?>
<!DOCTYPE svg PUBLIC "-//W3C//DTD SVG 1.1//EN"
 "http://www.w3.org/Graphics/SVG/1.1/DTD/svg11.dtd">
<!-- Generated by graphviz version 12.1.2 (20240928.0832)
 -->
<!-- Pages: 1 -->
<svg width="410pt" height="311pt"
 viewBox="0.00 0.00 410.00 311.00" xmlns="http://www.w3.org/2000/svg" xmlns:xlink="http://www.w3.org/1999/xlink">
<g id="graph0" class="graph" transform="scale(1 1) rotate(0) translate(4 307)">
<polygon fill="white" stroke="none" points="-4,4 -4,-307 406,-307 406,4 -4,4"/>
<!-- シンボリクリスエス -->
<g id="node1" class="node">
<title>シンボリクリスエス</title>
<polygon fill="none" stroke="black" points="283.12,-77 111.88,-77 111.88,0 283.12,0 283.12,-77"/>
<image xlink:href="img/shinborikurisuesu.png" width="100px" height="77px" preserveAspectRatio="xMinYMin meet" x="147.5" y="-77"/>
<text text-anchor="middle" x="197.5" y="-32.33" font-family="Times New Roman,serif" font-size="14.00">シンボリクリスエス</text>
</g>
<!-- Kris S. -->
<g id="node2" class="node">
<title>Kris S.</title>
<polygon fill="lightblue" stroke="lightblue" points="179,-190 102,-190 102,-113 179,-113 179,-190"/>
<image xlink:href="img/mob.png" width="77px" height="77px" preserveAspectRatio="xMinYMin meet" x="102" y="-190"/>
<text text-anchor="middle" x="140.5" y="-145.7" font-family="MS Gothic" font-size="14.00">Kris S.</text>
</g>
<!-- Kris S.&#45;&gt;シンボリクリスエス -->
<g id="edge1" class="edge">
<title>Kris S.&#45;&gt;シンボリクリスエス</title>
<path fill="none" stroke="black" d="M159.96,-112.61C164.13,-104.48 168.59,-95.8 172.93,-87.35"/>
<polygon fill="black" stroke="black" points="175.98,-89.06 177.44,-78.57 169.76,-85.86 175.98,-89.06"/>
</g>
<!-- Tee Kay -->
<g id="node3" class="node">
<title>Tee Kay</title>
<polygon fill="lightcoral" stroke="lightcoral" points="294,-190 217,-190 217,-113 294,-113 294,-190"/>
<image xlink:href="img/mob.png" width="77px" height="77px" preserveAspectRatio="xMinYMin meet" x="217" y="-190"/>
<text text-anchor="middle" x="255.5" y="-145.7" font-family="MS Gothic" font-size="14.00">Tee Kay</text>
</g>
<!-- Tee Kay&#45;&gt;シンボリクリスエス -->
<g id="edge2" class="edge">
<title>Tee Kay&#45;&gt;シンボリクリスエス</title>
<path fill="none" stroke="black" d="M235.7,-112.61C231.46,-104.48 226.92,-95.8 222.5,-87.35"/>
<polygon fill="black" stroke="black" points="225.64,-85.8 217.91,-78.56 219.44,-89.04 225.64,-85.8"/>
</g>
<!-- Roberto -->
<g id="node4" class="node">
<title>Roberto</title>
<polygon fill="lightblue" stroke="lightblue" points="77,-303 0,-303 0,-226 77,-226 77,-303"/>
<image xlink:href="img/mob.png" width="77px" height="77px" preserveAspectRatio="xMinYMin meet" x="0" y="-303"/>
<text text-anchor="middle" x="38.5" y="-258.7" font-family="MS Gothic" font-size="14.00">Roberto</text>
</g>
<!-- Roberto&#45;&gt;Kris S. -->
<g id="edge3" class="edge">
<title>Roberto&#45;&gt;Kris S.</title>
<path fill="none" stroke="black" d="M73.32,-225.61C81.28,-216.95 89.82,-207.65 98.06,-198.68"/>
<polygon fill="black" stroke="black" points="100.63,-201.06 104.82,-191.33 95.47,-196.33 100.63,-201.06"/>
</g>
<!-- Sharp Queen -->
<g id="node5" class="node">
<title>Sharp Queen</title>
<polygon fill="lightcoral" stroke="lightcoral" points="185.62,-303 95.38,-303 95.38,-226 185.62,-226 185.62,-303"/>
<image xlink:href="img/mob.png" width="90.25px" height="77px" preserveAspectRatio="xMinYMin meet" x="95.375" y="-303"/>
<text text-anchor="middle" x="140.5" y="-258.7" font-family="MS Gothic" font-size="14.00">Sharp Queen</text>
</g>
<!-- Sharp Queen&#45;&gt;Kris S. -->
<g id="edge4" class="edge">
<title>Sharp Queen&#45;&gt;Kris S.</title>
<path fill="none" stroke="black" d="M140.5,-225.61C140.5,-217.84 140.5,-209.56 140.5,-201.46"/>
<polygon fill="black" stroke="black" points="144,-201.73 140.5,-191.73 137,-201.73 144,-201.73"/>
</g>
<!-- Gold Meridian -->
<g id="node6" class="node">
<title>Gold Meridian</title>
<polygon fill="lightblue" stroke="lightblue" points="307.38,-303 203.62,-303 203.62,-226 307.38,-226 307.38,-303"/>
<image xlink:href="img/mob.png" width="100px" height="77px" preserveAspectRatio="xMinYMin meet" x="205.5" y="-303"/>
<text text-anchor="middle" x="255.5" y="-258.7" font-family="MS Gothic" font-size="14.00">Gold Meridian</text>
</g>
<!-- Gold Meridian&#45;&gt;Tee Kay -->
<g id="edge5" class="edge">
<title>Gold Meridian&#45;&gt;Tee Kay</title>
<path fill="none" stroke="black" d="M255.5,-225.61C255.5,-217.84 255.5,-209.56 255.5,-201.46"/>
<polygon fill="black" stroke="black" points="259,-201.73 255.5,-191.73 252,-201.73 259,-201.73"/>
</g>
<!-- Tri Argo -->
<g id="node7" class="node">
<title>Tri Argo</title>
<polygon fill="lightcoral" stroke="lightcoral" points="402,-303 325,-303 325,-226 402,-226 402,-303"/>
<image xlink:href="img/mob.png" width="77px" height="77px" preserveAspectRatio="xMinYMin meet" x="325" y="-303"/>
<text text-anchor="middle" x="363.5" y="-258.7" font-family="MS Gothic" font-size="14.00">Tri Argo</text>
</g>
<!-- Tri Argo&#45;&gt;Tee Kay -->
<g id="edge6" class="edge">
<title>Tri Argo&#45;&gt;Tee Kay</title>
<path fill="none" stroke="black" d="M326.63,-225.61C318.12,-216.86 308.97,-207.46 300.16,-198.4"/>
<polygon fill="black" stroke="black" points="302.74,-196.03 293.25,-191.3 297.72,-200.91 302.74,-196.03"/>
</g>
</g>
</svg>
