<?xml version="1.0" encoding="UTF-8" standalone="no"?>
<!DOCTYPE svg PUBLIC "-//W3C//DTD SVG 1.1//EN"
 "http://www.w3.org/Graphics/SVG/1.1/DTD/svg11.dtd">
<!-- Generated by graphviz version 12.1.2 (20240928.0832)
 -->
<!-- Pages: 1 -->
<svg width="398pt" height="311pt"
 viewBox="0.00 0.00 398.00 311.00" xmlns="http://www.w3.org/2000/svg" xmlns:xlink="http://www.w3.org/1999/xlink">
<g id="graph0" class="graph" transform="scale(1 1) rotate(0) translate(4 307)">
<polygon fill="white" stroke="none" points="-4,4 -4,-307 394,-307 394,4 -4,4"/>
<!-- シリウスシンボリ -->
<g id="node1" class="node">
<title>シリウスシンボリ</title>
<polygon fill="none" stroke="black" points="271.5,-77 117.5,-77 117.5,0 271.5,0 271.5,-77"/>
<image xlink:href="img/shiriusushinbori.png" width="100px" height="77px" preserveAspectRatio="xMinYMin meet" x="144.5" y="-77"/>
<text text-anchor="middle" x="194.5" y="-32.33" font-family="Times New Roman,serif" font-size="14.00">シリウスシンボリ</text>
</g>
<!-- モガミ -->
<g id="node2" class="node">
<title>モガミ</title>
<polygon fill="lightblue" stroke="lightblue" points="172,-190 95,-190 95,-113 172,-113 172,-190"/>
<image xlink:href="img/mob.png" width="77px" height="77px" preserveAspectRatio="xMinYMin meet" x="95" y="-190"/>
<text text-anchor="middle" x="133.5" y="-145.7" font-family="MS Gothic" font-size="14.00">モガミ</text>
</g>
<!-- モガミ&#45;&gt;シリウスシンボリ -->
<g id="edge1" class="edge">
<title>モガミ&#45;&gt;シリウスシンボリ</title>
<path fill="none" stroke="black" d="M154.32,-112.61C158.84,-104.39 163.67,-95.6 168.36,-87.07"/>
<polygon fill="black" stroke="black" points="171.29,-88.99 173.04,-78.55 165.16,-85.62 171.29,-88.99"/>
</g>
<!-- スイートエプソム -->
<g id="node3" class="node">
<title>スイートエプソム</title>
<polygon fill="lightcoral" stroke="lightcoral" points="320.5,-190 190.5,-190 190.5,-113 320.5,-113 320.5,-190"/>
<image xlink:href="img/mob.png" width="100px" height="77px" preserveAspectRatio="xMinYMin meet" x="205.5" y="-190"/>
<text text-anchor="middle" x="255.5" y="-145.7" font-family="MS Gothic" font-size="14.00">スイートエプソム</text>
</g>
<!-- スイートエプソム&#45;&gt;シリウスシンボリ -->
<g id="edge2" class="edge">
<title>スイートエプソム&#45;&gt;シリウスシンボリ</title>
<path fill="none" stroke="black" d="M234.68,-112.61C230.16,-104.39 225.33,-95.6 220.64,-87.07"/>
<polygon fill="black" stroke="black" points="223.84,-85.62 215.96,-78.55 217.71,-88.99 223.84,-85.62"/>
</g>
<!-- Lyphard -->
<g id="node4" class="node">
<title>Lyphard</title>
<polygon fill="lightblue" stroke="lightblue" points="77,-303 0,-303 0,-226 77,-226 77,-303"/>
<image xlink:href="img/mob.png" width="77px" height="77px" preserveAspectRatio="xMinYMin meet" x="0" y="-303"/>
<text text-anchor="middle" x="38.5" y="-258.7" font-family="MS Gothic" font-size="14.00">Lyphard</text>
</g>
<!-- Lyphard&#45;&gt;モガミ -->
<g id="edge3" class="edge">
<title>Lyphard&#45;&gt;モガミ</title>
<path fill="none" stroke="black" d="M70.93,-225.61C78.26,-217.04 86.14,-207.84 93.74,-198.96"/>
<polygon fill="black" stroke="black" points="96.39,-201.24 100.23,-191.37 91.07,-196.69 96.39,-201.24"/>
</g>
<!-- ノーラック -->
<g id="node5" class="node">
<title>ノーラック</title>
<polygon fill="lightcoral" stroke="lightcoral" points="182.12,-303 94.88,-303 94.88,-226 182.12,-226 182.12,-303"/>
<image xlink:href="img/mob.png" width="87.25px" height="77px" preserveAspectRatio="xMinYMin meet" x="94.875" y="-303"/>
<text text-anchor="middle" x="138.5" y="-258.7" font-family="MS Gothic" font-size="14.00">ノーラック</text>
</g>
<!-- ノーラック&#45;&gt;モガミ -->
<g id="edge4" class="edge">
<title>ノーラック&#45;&gt;モガミ</title>
<path fill="none" stroke="black" d="M136.79,-225.61C136.44,-217.84 136.07,-209.56 135.71,-201.46"/>
<polygon fill="black" stroke="black" points="139.21,-201.56 135.27,-191.73 132.22,-201.88 139.21,-201.56"/>
</g>
<!-- パーソロン -->
<g id="node6" class="node">
<title>パーソロン</title>
<polygon fill="lightblue" stroke="lightblue" points="295.12,-303 207.88,-303 207.88,-226 295.12,-226 295.12,-303"/>
<image xlink:href="img/mob.png" width="87.25px" height="77px" preserveAspectRatio="xMinYMin meet" x="207.875" y="-303"/>
<text text-anchor="middle" x="251.5" y="-258.7" font-family="MS Gothic" font-size="14.00">パーソロン</text>
</g>
<!-- パーソロン&#45;&gt;スイートエプソム -->
<g id="edge5" class="edge">
<title>パーソロン&#45;&gt;スイートエプソム</title>
<path fill="none" stroke="black" d="M252.87,-225.61C253.15,-217.84 253.44,-209.56 253.74,-201.46"/>
<polygon fill="black" stroke="black" points="257.22,-201.85 254.09,-191.73 250.23,-201.6 257.22,-201.85"/>
</g>
<!-- シレトコ -->
<g id="node7" class="node">
<title>シレトコ</title>
<polygon fill="lightcoral" stroke="lightcoral" points="390,-303 313,-303 313,-226 390,-226 390,-303"/>
<image xlink:href="img/mob.png" width="77px" height="77px" preserveAspectRatio="xMinYMin meet" x="313" y="-303"/>
<text text-anchor="middle" x="351.5" y="-258.7" font-family="MS Gothic" font-size="14.00">シレトコ</text>
</g>
<!-- シレトコ&#45;&gt;スイートエプソム -->
<g id="edge6" class="edge">
<title>シレトコ&#45;&gt;スイートエプソム</title>
<path fill="none" stroke="black" d="M318.73,-225.61C311.24,-216.95 303.2,-207.65 295.44,-198.68"/>
<polygon fill="black" stroke="black" points="298.3,-196.64 289.11,-191.36 293.01,-201.22 298.3,-196.64"/>
</g>
</g>
</svg>
