<?xml version="1.0" encoding="UTF-8" standalone="no"?>
<!DOCTYPE svg PUBLIC "-//W3C//DTD SVG 1.1//EN"
 "http://www.w3.org/Graphics/SVG/1.1/DTD/svg11.dtd">
<!-- Generated by graphviz version 12.1.2 (20240928.0832)
 -->
<!-- Pages: 1 -->
<svg width="425pt" height="311pt"
 viewBox="0.00 0.00 425.00 311.00" xmlns="http://www.w3.org/2000/svg" xmlns:xlink="http://www.w3.org/1999/xlink">
<g id="graph0" class="graph" transform="scale(1 1) rotate(0) translate(4 307)">
<polygon fill="white" stroke="none" points="-4,4 -4,-307 421,-307 421,4 -4,4"/>
<!-- ジャングルポケット -->
<g id="node1" class="node">
<title>ジャングルポケット</title>
<polygon fill="none" stroke="black" points="290.12,-77 118.88,-77 118.88,0 290.12,0 290.12,-77"/>
<image xlink:href="img/ziyangurupoketsuto.png" width="100px" height="77px" preserveAspectRatio="xMinYMin meet" x="154.5" y="-77"/>
<text text-anchor="middle" x="204.5" y="-32.33" font-family="Times New Roman,serif" font-size="14.00">ジャングルポケット</text>
</g>
<!-- トニービン -->
<g id="node2" class="node">
<title>トニービン</title>
<polygon fill="lightblue" stroke="lightblue" points="185.12,-190 97.88,-190 97.88,-113 185.12,-113 185.12,-190"/>
<image xlink:href="img/mob.png" width="87.25px" height="77px" preserveAspectRatio="xMinYMin meet" x="97.875" y="-190"/>
<text text-anchor="middle" x="141.5" y="-145.7" font-family="MS Gothic" font-size="14.00">トニービン</text>
</g>
<!-- トニービン&#45;&gt;ジャングルポケット -->
<g id="edge1" class="edge">
<title>トニービン&#45;&gt;ジャングルポケット</title>
<path fill="none" stroke="black" d="M163,-112.61C167.67,-104.39 172.66,-95.6 177.5,-87.07"/>
<polygon fill="black" stroke="black" points="180.45,-88.96 182.34,-78.53 174.36,-85.5 180.45,-88.96"/>
</g>
<!-- ダンスチャーマー -->
<g id="node3" class="node">
<title>ダンスチャーマー</title>
<polygon fill="lightcoral" stroke="lightcoral" points="333.5,-190 203.5,-190 203.5,-113 333.5,-113 333.5,-190"/>
<image xlink:href="img/mob.png" width="100px" height="77px" preserveAspectRatio="xMinYMin meet" x="218.5" y="-190"/>
<text text-anchor="middle" x="268.5" y="-145.7" font-family="MS Gothic" font-size="14.00">ダンスチャーマー</text>
</g>
<!-- ダンスチャーマー&#45;&gt;ジャングルポケット -->
<g id="edge2" class="edge">
<title>ダンスチャーマー&#45;&gt;ジャングルポケット</title>
<path fill="none" stroke="black" d="M246.65,-112.61C241.92,-104.39 236.85,-95.6 231.93,-87.07"/>
<polygon fill="black" stroke="black" points="235.03,-85.44 227,-78.53 228.97,-88.94 235.03,-85.44"/>
</g>
<!-- カンパラ -->
<g id="node4" class="node">
<title>カンパラ</title>
<polygon fill="lightblue" stroke="lightblue" points="77,-303 0,-303 0,-226 77,-226 77,-303"/>
<image xlink:href="img/mob.png" width="77px" height="77px" preserveAspectRatio="xMinYMin meet" x="0" y="-303"/>
<text text-anchor="middle" x="38.5" y="-258.7" font-family="MS Gothic" font-size="14.00">カンパラ</text>
</g>
<!-- カンパラ&#45;&gt;トニービン -->
<g id="edge3" class="edge">
<title>カンパラ&#45;&gt;トニービン</title>
<path fill="none" stroke="black" d="M73.66,-225.61C81.78,-216.86 90.5,-207.46 98.9,-198.4"/>
<polygon fill="black" stroke="black" points="101.23,-201.04 105.47,-191.33 96.1,-196.28 101.23,-201.04"/>
</g>
<!-- Severn Bridge -->
<g id="node5" class="node">
<title>Severn Bridge</title>
<polygon fill="lightcoral" stroke="lightcoral" points="198.38,-303 94.62,-303 94.62,-226 198.38,-226 198.38,-303"/>
<image xlink:href="img/mob.png" width="100px" height="77px" preserveAspectRatio="xMinYMin meet" x="96.5" y="-303"/>
<text text-anchor="middle" x="146.5" y="-258.7" font-family="MS Gothic" font-size="14.00">Severn Bridge</text>
</g>
<!-- Severn Bridge&#45;&gt;トニービン -->
<g id="edge4" class="edge">
<title>Severn Bridge&#45;&gt;トニービン</title>
<path fill="none" stroke="black" d="M144.79,-225.61C144.44,-217.84 144.07,-209.56 143.71,-201.46"/>
<polygon fill="black" stroke="black" points="147.21,-201.56 143.27,-191.73 140.22,-201.88 147.21,-201.56"/>
</g>
<!-- Nureyev -->
<g id="node6" class="node">
<title>Nureyev</title>
<polygon fill="lightblue" stroke="lightblue" points="302,-303 225,-303 225,-226 302,-226 302,-303"/>
<image xlink:href="img/mob.png" width="77px" height="77px" preserveAspectRatio="xMinYMin meet" x="225" y="-303"/>
<text text-anchor="middle" x="263.5" y="-258.7" font-family="MS Gothic" font-size="14.00">Nureyev</text>
</g>
<!-- Nureyev&#45;&gt;ダンスチャーマー -->
<g id="edge5" class="edge">
<title>Nureyev&#45;&gt;ダンスチャーマー</title>
<path fill="none" stroke="black" d="M265.21,-225.61C265.56,-217.84 265.93,-209.56 266.29,-201.46"/>
<polygon fill="black" stroke="black" points="269.78,-201.88 266.73,-191.73 262.79,-201.56 269.78,-201.88"/>
</g>
<!-- Skillful Joy -->
<g id="node7" class="node">
<title>Skillful Joy</title>
<polygon fill="lightcoral" stroke="lightcoral" points="417,-303 320,-303 320,-226 417,-226 417,-303"/>
<image xlink:href="img/mob.png" width="97px" height="77px" preserveAspectRatio="xMinYMin meet" x="320" y="-303"/>
<text text-anchor="middle" x="368.5" y="-258.7" font-family="MS Gothic" font-size="14.00">Skillful Joy</text>
</g>
<!-- Skillful Joy&#45;&gt;ダンスチャーマー -->
<g id="edge6" class="edge">
<title>Skillful Joy&#45;&gt;ダンスチャーマー</title>
<path fill="none" stroke="black" d="M334.37,-225.61C326.56,-216.95 318.18,-207.65 310.1,-198.68"/>
<polygon fill="black" stroke="black" points="312.79,-196.43 303.49,-191.34 307.59,-201.12 312.79,-196.43"/>
</g>
</g>
</svg>
