<?xml version="1.0" encoding="UTF-8" standalone="no"?>
<!DOCTYPE svg PUBLIC "-//W3C//DTD SVG 1.1//EN"
 "http://www.w3.org/Graphics/SVG/1.1/DTD/svg11.dtd">
<!-- Generated by graphviz version 12.1.2 (20240928.0832)
 -->
<!-- Pages: 1 -->
<svg width="454pt" height="311pt"
 viewBox="0.00 0.00 454.12 311.00" xmlns="http://www.w3.org/2000/svg" xmlns:xlink="http://www.w3.org/1999/xlink">
<g id="graph0" class="graph" transform="scale(1 1) rotate(0) translate(4 307)">
<polygon fill="white" stroke="none" points="-4,4 -4,-307 450.12,-307 450.12,4 -4,4"/>
<!-- スーパークリーク -->
<g id="node1" class="node">
<title>スーパークリーク</title>
<polygon fill="none" stroke="black" points="304.5,-77 150.5,-77 150.5,0 304.5,0 304.5,-77"/>
<image xlink:href="img/supakuriku.png" width="100px" height="77px" preserveAspectRatio="xMinYMin meet" x="177.5" y="-77"/>
<text text-anchor="middle" x="227.5" y="-32.33" font-family="Times New Roman,serif" font-size="14.00">スーパークリーク</text>
</g>
<!-- ノーアテンション -->
<g id="node2" class="node">
<title>ノーアテンション</title>
<polygon fill="lightblue" stroke="lightblue" points="229.5,-190 99.5,-190 99.5,-113 229.5,-113 229.5,-190"/>
<image xlink:href="img/mob.png" width="100px" height="77px" preserveAspectRatio="xMinYMin meet" x="114.5" y="-190"/>
<text text-anchor="middle" x="164.5" y="-145.7" font-family="MS Gothic" font-size="14.00">ノーアテンション</text>
</g>
<!-- ノーアテンション&#45;&gt;スーパークリーク -->
<g id="edge1" class="edge">
<title>ノーアテンション&#45;&gt;スーパークリーク</title>
<path fill="none" stroke="black" d="M186,-112.61C190.67,-104.39 195.66,-95.6 200.5,-87.07"/>
<polygon fill="black" stroke="black" points="203.45,-88.96 205.34,-78.53 197.36,-85.5 203.45,-88.96"/>
</g>
<!-- ナイスデイ -->
<g id="node3" class="node">
<title>ナイスデイ</title>
<polygon fill="lightcoral" stroke="lightcoral" points="335.12,-190 247.88,-190 247.88,-113 335.12,-113 335.12,-190"/>
<image xlink:href="img/mob.png" width="87.25px" height="77px" preserveAspectRatio="xMinYMin meet" x="247.875" y="-190"/>
<text text-anchor="middle" x="291.5" y="-145.7" font-family="MS Gothic" font-size="14.00">ナイスデイ</text>
</g>
<!-- ナイスデイ&#45;&gt;スーパークリーク -->
<g id="edge2" class="edge">
<title>ナイスデイ&#45;&gt;スーパークリーク</title>
<path fill="none" stroke="black" d="M269.65,-112.61C264.92,-104.39 259.85,-95.6 254.93,-87.07"/>
<polygon fill="black" stroke="black" points="258.03,-85.44 250,-78.53 251.97,-88.94 258.03,-85.44"/>
</g>
<!-- Green Dancer -->
<g id="node4" class="node">
<title>Green Dancer</title>
<polygon fill="lightblue" stroke="lightblue" points="97,-303 0,-303 0,-226 97,-226 97,-303"/>
<image xlink:href="img/mob.png" width="97px" height="77px" preserveAspectRatio="xMinYMin meet" x="0" y="-303"/>
<text text-anchor="middle" x="48.5" y="-258.7" font-family="MS Gothic" font-size="14.00">Green Dancer</text>
</g>
<!-- Green Dancer&#45;&gt;ノーアテンション -->
<g id="edge3" class="edge">
<title>Green Dancer&#45;&gt;ノーアテンション</title>
<path fill="none" stroke="black" d="M88.1,-225.61C97.34,-216.77 107.27,-207.26 116.82,-198.13"/>
<polygon fill="black" stroke="black" points="119.18,-200.71 123.99,-191.27 114.34,-195.65 119.18,-200.71"/>
</g>
<!-- No No Nanette -->
<g id="node5" class="node">
<title>No No Nanette</title>
<polygon fill="lightcoral" stroke="lightcoral" points="218.38,-303 114.62,-303 114.62,-226 218.38,-226 218.38,-303"/>
<image xlink:href="img/mob.png" width="100px" height="77px" preserveAspectRatio="xMinYMin meet" x="116.5" y="-303"/>
<text text-anchor="middle" x="166.5" y="-258.7" font-family="MS Gothic" font-size="14.00">No No Nanette</text>
</g>
<!-- No No Nanette&#45;&gt;ノーアテンション -->
<g id="edge4" class="edge">
<title>No No Nanette&#45;&gt;ノーアテンション</title>
<path fill="none" stroke="black" d="M165.82,-225.61C165.68,-217.84 165.53,-209.56 165.38,-201.46"/>
<polygon fill="black" stroke="black" points="168.89,-201.67 165.21,-191.73 161.89,-201.79 168.89,-201.67"/>
</g>
<!-- インターメゾ -->
<g id="node6" class="node">
<title>インターメゾ</title>
<polygon fill="lightblue" stroke="lightblue" points="341.25,-303 239.75,-303 239.75,-226 341.25,-226 341.25,-303"/>
<image xlink:href="img/mob.png" width="100px" height="77px" preserveAspectRatio="xMinYMin meet" x="240.5" y="-303"/>
<text text-anchor="middle" x="290.5" y="-258.7" font-family="MS Gothic" font-size="14.00">インターメゾ</text>
</g>
<!-- インターメゾ&#45;&gt;ナイスデイ -->
<g id="edge5" class="edge">
<title>インターメゾ&#45;&gt;ナイスデイ</title>
<path fill="none" stroke="black" d="M290.84,-225.61C290.91,-217.84 290.99,-209.56 291.06,-201.46"/>
<polygon fill="black" stroke="black" points="294.56,-201.76 291.15,-191.73 287.56,-201.7 294.56,-201.76"/>
</g>
<!-- サチノヒメ -->
<g id="node7" class="node">
<title>サチノヒメ</title>
<polygon fill="lightcoral" stroke="lightcoral" points="446.12,-303 358.88,-303 358.88,-226 446.12,-226 446.12,-303"/>
<image xlink:href="img/mob.png" width="87.25px" height="77px" preserveAspectRatio="xMinYMin meet" x="358.875" y="-303"/>
<text text-anchor="middle" x="402.5" y="-258.7" font-family="MS Gothic" font-size="14.00">サチノヒメ</text>
</g>
<!-- サチノヒメ&#45;&gt;ナイスデイ -->
<g id="edge6" class="edge">
<title>サチノヒメ&#45;&gt;ナイスデイ</title>
<path fill="none" stroke="black" d="M364.61,-225.61C355.77,-216.77 346.26,-207.26 337.13,-198.13"/>
<polygon fill="black" stroke="black" points="339.83,-195.89 330.29,-191.29 334.89,-200.83 339.83,-195.89"/>
</g>
</g>
</svg>
