<?xml version="1.0" encoding="UTF-8" standalone="no"?>
<!DOCTYPE svg PUBLIC "-//W3C//DTD SVG 1.1//EN"
 "http://www.w3.org/Graphics/SVG/1.1/DTD/svg11.dtd">
<!-- Generated by graphviz version 12.1.2 (20240928.0832)
 -->
<!-- Pages: 1 -->
<svg width="1323pt" height="537pt"
 viewBox="0.00 0.00 1323.00 537.00" xmlns="http://www.w3.org/2000/svg" xmlns:xlink="http://www.w3.org/1999/xlink">
<g id="graph0" class="graph" transform="scale(1 1) rotate(0) translate(4 533)">
<polygon fill="white" stroke="none" points="-4,4 -4,-533 1319,-533 1319,4 -4,4"/>
<!-- スペシャルウィーク -->
<g id="node1" class="node">
<title>スペシャルウィーク</title>
<polygon fill="none" stroke="black" points="368.12,-77 196.88,-77 196.88,0 368.12,0 368.12,-77"/>
<image xlink:href="img/supeshiyaruuiku.png" width="100px" height="77px" preserveAspectRatio="xMinYMin meet" x="232.5" y="-77"/>
<text text-anchor="middle" x="282.5" y="-32.33" font-family="Times New Roman,serif" font-size="14.00">スペシャルウィーク</text>
</g>
<!-- サンデーサイレンス -->
<g id="node2" class="node">
<title>サンデーサイレンス</title>
<polygon fill="lightblue" stroke="lightblue" points="276.62,-190 132.38,-190 132.38,-113 276.62,-113 276.62,-190"/>
<image xlink:href="img/mob.png" width="100px" height="77px" preserveAspectRatio="xMinYMin meet" x="154.5" y="-190"/>
<text text-anchor="middle" x="204.5" y="-145.7" font-family="MS Gothic" font-size="14.00">サンデーサイレンス</text>
</g>
<!-- サンデーサイレンス&#45;&gt;スペシャルウィーク -->
<g id="edge1" class="edge">
<title>サンデーサイレンス&#45;&gt;スペシャルウィーク</title>
<path fill="none" stroke="black" d="M231.13,-112.61C237.02,-104.22 243.34,-95.22 249.46,-86.51"/>
<polygon fill="black" stroke="black" points="252.24,-88.65 255.12,-78.46 246.51,-84.63 252.24,-88.65"/>
</g>
<!-- キャンペンガール -->
<g id="node3" class="node">
<title>キャンペンガール</title>
<polygon fill="lightcoral" stroke="lightcoral" points="607.5,-190 477.5,-190 477.5,-113 607.5,-113 607.5,-190"/>
<image xlink:href="img/mob.png" width="100px" height="77px" preserveAspectRatio="xMinYMin meet" x="492.5" y="-190"/>
<text text-anchor="middle" x="542.5" y="-145.7" font-family="MS Gothic" font-size="14.00">キャンペンガール</text>
</g>
<!-- キャンペンガール&#45;&gt;スペシャルウィーク -->
<g id="edge2" class="edge">
<title>キャンペンガール&#45;&gt;スペシャルウィーク</title>
<path fill="none" stroke="black" d="M477.29,-117.04C474.33,-115.65 471.39,-114.3 468.5,-113 439.73,-100.06 407.96,-87.05 378.94,-75.65"/>
<polygon fill="black" stroke="black" points="380.38,-72.45 369.79,-72.07 377.83,-78.97 380.38,-72.45"/>
</g>
<!-- Halo -->
<g id="node4" class="node">
<title>Halo</title>
<polygon fill="lightblue" stroke="lightblue" points="243,-303 166,-303 166,-226 243,-226 243,-303"/>
<image xlink:href="img/mob.png" width="77px" height="77px" preserveAspectRatio="xMinYMin meet" x="166" y="-303"/>
<text text-anchor="middle" x="204.5" y="-258.7" font-family="MS Gothic" font-size="14.00">Halo</text>
</g>
<!-- Halo&#45;&gt;サンデーサイレンス -->
<g id="edge3" class="edge">
<title>Halo&#45;&gt;サンデーサイレンス</title>
<path fill="none" stroke="black" d="M204.5,-225.61C204.5,-217.84 204.5,-209.56 204.5,-201.46"/>
<polygon fill="black" stroke="black" points="208,-201.73 204.5,-191.73 201,-201.73 208,-201.73"/>
</g>
<!-- Wishing Well -->
<g id="node5" class="node">
<title>Wishing Well</title>
<polygon fill="lightcoral" stroke="lightcoral" points="148,-303 51,-303 51,-226 148,-226 148,-303"/>
<image xlink:href="img/mob.png" width="97px" height="77px" preserveAspectRatio="xMinYMin meet" x="51" y="-303"/>
<text text-anchor="middle" x="99.5" y="-258.7" font-family="MS Gothic" font-size="14.00">Wishing Well</text>
</g>
<!-- Wishing Well&#45;&gt;サンデーサイレンス -->
<g id="edge4" class="edge">
<title>Wishing Well&#45;&gt;サンデーサイレンス</title>
<path fill="none" stroke="black" d="M135.34,-225.61C143.62,-216.86 152.51,-207.46 161.08,-198.4"/>
<polygon fill="black" stroke="black" points="163.45,-200.99 167.78,-191.32 158.37,-196.18 163.45,-200.99"/>
</g>
<!-- マルゼンスキー -->
<g id="node6" class="node">
<title>マルゼンスキー</title>
<polygon fill="lightblue" stroke="lightblue" points="861.38,-303 745.62,-303 745.62,-226 861.38,-226 861.38,-303"/>
<image xlink:href="img/maruzensuki.png" width="100px" height="77px" preserveAspectRatio="xMinYMin meet" x="753.5" y="-303"/>
<text text-anchor="middle" x="803.5" y="-258.7" font-family="MS Gothic" font-size="14.00">マルゼンスキー</text>
</g>
<!-- マルゼンスキー&#45;&gt;キャンペンガール -->
<g id="edge5" class="edge">
<title>マルゼンスキー&#45;&gt;キャンペンガール</title>
<path fill="none" stroke="black" d="M745.41,-230C742.43,-228.59 739.45,-227.25 736.5,-226 688.34,-205.59 670.39,-210 618.47,-190.52"/>
<polygon fill="black" stroke="black" points="619.99,-187.36 609.4,-187 617.45,-193.88 619.99,-187.36"/>
</g>
<!-- パワフルレディ -->
<g id="node22" class="node">
<title>パワフルレディ</title>
<polygon fill="lightcoral" stroke="lightcoral" points="741.38,-190 625.62,-190 625.62,-113 741.38,-113 741.38,-190"/>
<image xlink:href="img/mob.png" width="100px" height="77px" preserveAspectRatio="xMinYMin meet" x="633.5" y="-190"/>
<text text-anchor="middle" x="683.5" y="-145.7" font-family="MS Gothic" font-size="14.00">パワフルレディ</text>
</g>
<!-- マルゼンスキー&#45;&gt;パワフルレディ -->
<g id="edge23" class="edge">
<title>マルゼンスキー&#45;&gt;パワフルレディ</title>
<path fill="none" stroke="black" d="M762.54,-225.61C752.88,-216.68 742.5,-207.07 732.53,-197.85"/>
<polygon fill="black" stroke="black" points="735.11,-195.47 725.39,-191.25 730.35,-200.61 735.11,-195.47"/>
</g>
<!-- サクラチヨノオー -->
<g id="node26" class="node">
<title>サクラチヨノオー</title>
<polygon fill="none" stroke="black" points="932.5,-190 778.5,-190 778.5,-113 932.5,-113 932.5,-190"/>
<image xlink:href="img/sakurachiyonoo.png" width="100px" height="77px" preserveAspectRatio="xMinYMin meet" x="805.5" y="-190"/>
<text text-anchor="middle" x="855.5" y="-145.32" font-family="Times New Roman,serif" font-size="14.00">サクラチヨノオー</text>
</g>
<!-- マルゼンスキー&#45;&gt;サクラチヨノオー -->
<g id="edge25" class="edge">
<title>マルゼンスキー&#45;&gt;サクラチヨノオー</title>
<path fill="none" stroke="black" d="M821.25,-225.61C825.02,-217.57 829.04,-208.99 832.95,-200.63"/>
<polygon fill="black" stroke="black" points="836.12,-202.13 837.19,-191.59 829.78,-199.16 836.12,-202.13"/>
</g>
<!-- ライラックポイント -->
<g id="node32" class="node">
<title>ライラックポイント</title>
<polygon fill="lightcoral" stroke="lightcoral" points="1104.62,-190 960.38,-190 960.38,-113 1104.62,-113 1104.62,-190"/>
<image xlink:href="img/mob.png" width="100px" height="77px" preserveAspectRatio="xMinYMin meet" x="982.5" y="-190"/>
<text text-anchor="middle" x="1032.5" y="-145.7" font-family="MS Gothic" font-size="14.00">ライラックポイント</text>
</g>
<!-- マルゼンスキー&#45;&gt;ライラックポイント -->
<g id="edge33" class="edge">
<title>マルゼンスキー&#45;&gt;ライラックポイント</title>
<path fill="none" stroke="black" d="M861.81,-230.48C864.74,-228.95 867.64,-227.44 870.5,-226 895.94,-213.14 924.09,-200 949.69,-188.45"/>
<polygon fill="black" stroke="black" points="951.04,-191.68 958.73,-184.4 948.17,-185.3 951.04,-191.68"/>
</g>
<!-- レディーシラオキ -->
<g id="node7" class="node">
<title>レディーシラオキ</title>
<polygon fill="lightcoral" stroke="lightcoral" points="607.5,-303 477.5,-303 477.5,-226 607.5,-226 607.5,-303"/>
<image xlink:href="img/mob.png" width="100px" height="77px" preserveAspectRatio="xMinYMin meet" x="492.5" y="-303"/>
<text text-anchor="middle" x="542.5" y="-258.7" font-family="MS Gothic" font-size="14.00">レディーシラオキ</text>
</g>
<!-- レディーシラオキ&#45;&gt;キャンペンガール -->
<g id="edge6" class="edge">
<title>レディーシラオキ&#45;&gt;キャンペンガール</title>
<path fill="none" stroke="black" d="M542.5,-225.61C542.5,-217.84 542.5,-209.56 542.5,-201.46"/>
<polygon fill="black" stroke="black" points="546,-201.73 542.5,-191.73 539,-201.73 546,-201.73"/>
</g>
<!-- Hail to Reason -->
<g id="node8" class="node">
<title>Hail to Reason</title>
<polygon fill="lightblue" stroke="lightblue" points="201.75,-416 91.25,-416 91.25,-339 201.75,-339 201.75,-416"/>
<image xlink:href="img/mob.png" width="100px" height="77px" preserveAspectRatio="xMinYMin meet" x="96.5" y="-416"/>
<text text-anchor="middle" x="146.5" y="-371.7" font-family="MS Gothic" font-size="14.00">Hail to Reason</text>
</g>
<!-- Hail to Reason&#45;&gt;Halo -->
<g id="edge7" class="edge">
<title>Hail to Reason&#45;&gt;Halo</title>
<path fill="none" stroke="black" d="M166.3,-338.61C170.54,-330.48 175.08,-321.8 179.5,-313.35"/>
<polygon fill="black" stroke="black" points="182.56,-315.04 184.09,-304.56 176.36,-311.8 182.56,-315.04"/>
</g>
<!-- Cosmah -->
<g id="node9" class="node">
<title>Cosmah</title>
<polygon fill="lightcoral" stroke="lightcoral" points="300,-416 223,-416 223,-339 300,-339 300,-416"/>
<image xlink:href="img/mob.png" width="77px" height="77px" preserveAspectRatio="xMinYMin meet" x="223" y="-416"/>
<text text-anchor="middle" x="261.5" y="-371.7" font-family="MS Gothic" font-size="14.00">Cosmah</text>
</g>
<!-- Cosmah&#45;&gt;Halo -->
<g id="edge8" class="edge">
<title>Cosmah&#45;&gt;Halo</title>
<path fill="none" stroke="black" d="M242.04,-338.61C237.87,-330.48 233.41,-321.8 229.07,-313.35"/>
<polygon fill="black" stroke="black" points="232.24,-311.86 224.56,-304.57 226.02,-315.06 232.24,-311.86"/>
</g>
<!-- Turn&#45;to -->
<g id="node10" class="node">
<title>Turn&#45;to</title>
<polygon fill="lightblue" stroke="lightblue" points="77,-529 0,-529 0,-452 77,-452 77,-529"/>
<image xlink:href="img/mob.png" width="77px" height="77px" preserveAspectRatio="xMinYMin meet" x="0" y="-529"/>
<text text-anchor="middle" x="38.5" y="-484.7" font-family="MS Gothic" font-size="14.00">Turn&#45;to</text>
</g>
<!-- Turn&#45;to&#45;&gt;Hail to Reason -->
<g id="edge9" class="edge">
<title>Turn&#45;to&#45;&gt;Hail to Reason</title>
<path fill="none" stroke="black" d="M75.37,-451.61C83.88,-442.86 93.03,-433.46 101.84,-424.4"/>
<polygon fill="black" stroke="black" points="104.28,-426.91 108.75,-417.3 99.26,-422.03 104.28,-426.91"/>
</g>
<!-- Nothirdchance -->
<g id="node11" class="node">
<title>Nothirdchance</title>
<polygon fill="lightcoral" stroke="lightcoral" points="198.38,-529 94.62,-529 94.62,-452 198.38,-452 198.38,-529"/>
<image xlink:href="img/mob.png" width="100px" height="77px" preserveAspectRatio="xMinYMin meet" x="96.5" y="-529"/>
<text text-anchor="middle" x="146.5" y="-484.7" font-family="MS Gothic" font-size="14.00">Nothirdchance</text>
</g>
<!-- Nothirdchance&#45;&gt;Hail to Reason -->
<g id="edge10" class="edge">
<title>Nothirdchance&#45;&gt;Hail to Reason</title>
<path fill="none" stroke="black" d="M146.5,-451.61C146.5,-443.84 146.5,-435.56 146.5,-427.46"/>
<polygon fill="black" stroke="black" points="150,-427.73 146.5,-417.73 143,-427.73 150,-427.73"/>
</g>
<!-- Cosmic Bomb -->
<g id="node12" class="node">
<title>Cosmic Bomb</title>
<polygon fill="lightblue" stroke="lightblue" points="306.62,-529 216.38,-529 216.38,-452 306.62,-452 306.62,-529"/>
<image xlink:href="img/mob.png" width="90.25px" height="77px" preserveAspectRatio="xMinYMin meet" x="216.375" y="-529"/>
<text text-anchor="middle" x="261.5" y="-484.7" font-family="MS Gothic" font-size="14.00">Cosmic Bomb</text>
</g>
<!-- Cosmic Bomb&#45;&gt;Cosmah -->
<g id="edge11" class="edge">
<title>Cosmic Bomb&#45;&gt;Cosmah</title>
<path fill="none" stroke="black" d="M261.5,-451.61C261.5,-443.84 261.5,-435.56 261.5,-427.46"/>
<polygon fill="black" stroke="black" points="265,-427.73 261.5,-417.73 258,-427.73 265,-427.73"/>
</g>
<!-- Almahmoud -->
<g id="node13" class="node">
<title>Almahmoud</title>
<polygon fill="lightcoral" stroke="lightcoral" points="402,-529 325,-529 325,-452 402,-452 402,-529"/>
<image xlink:href="img/mob.png" width="77px" height="77px" preserveAspectRatio="xMinYMin meet" x="325" y="-529"/>
<text text-anchor="middle" x="363.5" y="-484.7" font-family="MS Gothic" font-size="14.00">Almahmoud</text>
</g>
<!-- Almahmoud&#45;&gt;Cosmah -->
<g id="edge12" class="edge">
<title>Almahmoud&#45;&gt;Cosmah</title>
<path fill="none" stroke="black" d="M328.68,-451.61C320.72,-442.95 312.18,-433.65 303.94,-424.68"/>
<polygon fill="black" stroke="black" points="306.53,-422.33 297.18,-417.33 301.37,-427.06 306.53,-422.33"/>
</g>
<!-- Nijinsky -->
<g id="node14" class="node">
<title>Nijinsky</title>
<polygon fill="lightblue" stroke="lightblue" points="742,-416 665,-416 665,-339 742,-339 742,-416"/>
<image xlink:href="img/mob.png" width="77px" height="77px" preserveAspectRatio="xMinYMin meet" x="665" y="-416"/>
<text text-anchor="middle" x="703.5" y="-371.7" font-family="MS Gothic" font-size="14.00">Nijinsky</text>
</g>
<!-- Nijinsky&#45;&gt;マルゼンスキー -->
<g id="edge13" class="edge">
<title>Nijinsky&#45;&gt;マルゼンスキー</title>
<path fill="none" stroke="black" d="M737.63,-338.61C745.44,-329.95 753.82,-320.65 761.9,-311.68"/>
<polygon fill="black" stroke="black" points="764.41,-314.12 768.51,-304.34 759.21,-309.43 764.41,-314.12"/>
</g>
<!-- シル -->
<g id="node15" class="node">
<title>シル</title>
<polygon fill="lightcoral" stroke="lightcoral" points="850,-416 773,-416 773,-339 850,-339 850,-416"/>
<image xlink:href="img/mob.png" width="77px" height="77px" preserveAspectRatio="xMinYMin meet" x="773" y="-416"/>
<text text-anchor="middle" x="811.5" y="-371.7" font-family="MS Gothic" font-size="14.00">シル</text>
</g>
<!-- シル&#45;&gt;マルゼンスキー -->
<g id="edge14" class="edge">
<title>シル&#45;&gt;マルゼンスキー</title>
<path fill="none" stroke="black" d="M808.77,-338.61C808.21,-330.84 807.61,-322.56 807.03,-314.46"/>
<polygon fill="black" stroke="black" points="810.54,-314.45 806.33,-304.73 803.56,-314.95 810.54,-314.45"/>
</g>
<!-- Northern Dancer -->
<g id="node16" class="node">
<title>Northern Dancer</title>
<polygon fill="lightblue" stroke="lightblue" points="637.12,-529 519.88,-529 519.88,-452 637.12,-452 637.12,-529"/>
<image xlink:href="img/mob.png" width="100px" height="77px" preserveAspectRatio="xMinYMin meet" x="528.5" y="-529"/>
<text text-anchor="middle" x="578.5" y="-484.7" font-family="MS Gothic" font-size="14.00">Northern Dancer</text>
</g>
<!-- Northern Dancer&#45;&gt;Nijinsky -->
<g id="edge15" class="edge">
<title>Northern Dancer&#45;&gt;Nijinsky</title>
<path fill="none" stroke="black" d="M621.17,-451.61C632.55,-441.5 644.91,-430.53 656.51,-420.22"/>
<polygon fill="black" stroke="black" points="658.51,-423.13 663.67,-413.87 653.87,-417.89 658.51,-423.13"/>
</g>
<!-- Flaming Page -->
<g id="node17" class="node">
<title>Flaming Page</title>
<polygon fill="lightcoral" stroke="lightcoral" points="752,-529 655,-529 655,-452 752,-452 752,-529"/>
<image xlink:href="img/mob.png" width="97px" height="77px" preserveAspectRatio="xMinYMin meet" x="655" y="-529"/>
<text text-anchor="middle" x="703.5" y="-484.7" font-family="MS Gothic" font-size="14.00">Flaming Page</text>
</g>
<!-- Flaming Page&#45;&gt;Nijinsky -->
<g id="edge16" class="edge">
<title>Flaming Page&#45;&gt;Nijinsky</title>
<path fill="none" stroke="black" d="M703.5,-451.61C703.5,-443.84 703.5,-435.56 703.5,-427.46"/>
<polygon fill="black" stroke="black" points="707,-427.73 703.5,-417.73 700,-427.73 707,-427.73"/>
</g>
<!-- Buckpasser -->
<g id="node18" class="node">
<title>Buckpasser</title>
<polygon fill="lightblue" stroke="lightblue" points="853.25,-529 769.75,-529 769.75,-452 853.25,-452 853.25,-529"/>
<image xlink:href="img/mob.png" width="83.5px" height="77px" preserveAspectRatio="xMinYMin meet" x="769.75" y="-529"/>
<text text-anchor="middle" x="811.5" y="-484.7" font-family="MS Gothic" font-size="14.00">Buckpasser</text>
</g>
<!-- Buckpasser&#45;&gt;シル -->
<g id="edge17" class="edge">
<title>Buckpasser&#45;&gt;シル</title>
<path fill="none" stroke="black" d="M811.5,-451.61C811.5,-443.84 811.5,-435.56 811.5,-427.46"/>
<polygon fill="black" stroke="black" points="815,-427.73 811.5,-417.73 808,-427.73 815,-427.73"/>
</g>
<!-- Quill -->
<g id="node19" class="node">
<title>Quill</title>
<polygon fill="lightcoral" stroke="lightcoral" points="948,-529 871,-529 871,-452 948,-452 948,-529"/>
<image xlink:href="img/mob.png" width="77px" height="77px" preserveAspectRatio="xMinYMin meet" x="871" y="-529"/>
<text text-anchor="middle" x="909.5" y="-484.7" font-family="MS Gothic" font-size="14.00">Quill</text>
</g>
<!-- Quill&#45;&gt;シル -->
<g id="edge18" class="edge">
<title>Quill&#45;&gt;シル</title>
<path fill="none" stroke="black" d="M876.05,-451.61C868.4,-442.95 860.19,-433.65 852.27,-424.68"/>
<polygon fill="black" stroke="black" points="855.05,-422.53 845.8,-417.35 849.8,-427.17 855.05,-422.53"/>
</g>
<!-- ウイニングチケット -->
<g id="node20" class="node">
<title>ウイニングチケット</title>
<polygon fill="none" stroke="black" points="635.12,-77 463.88,-77 463.88,0 635.12,0 635.12,-77"/>
<image xlink:href="img/uininguchiketsuto.png" width="100px" height="77px" preserveAspectRatio="xMinYMin meet" x="499.5" y="-77"/>
<text text-anchor="middle" x="549.5" y="-32.33" font-family="Times New Roman,serif" font-size="14.00">ウイニングチケット</text>
</g>
<!-- トニービン -->
<g id="node21" class="node">
<title>トニービン</title>
<polygon fill="lightblue" stroke="lightblue" points="459.12,-190 371.88,-190 371.88,-113 459.12,-113 459.12,-190"/>
<image xlink:href="img/mob.png" width="87.25px" height="77px" preserveAspectRatio="xMinYMin meet" x="371.875" y="-190"/>
<text text-anchor="middle" x="415.5" y="-145.7" font-family="MS Gothic" font-size="14.00">トニービン</text>
</g>
<!-- トニービン&#45;&gt;ウイニングチケット -->
<g id="edge19" class="edge">
<title>トニービン&#45;&gt;ウイニングチケット</title>
<path fill="none" stroke="black" d="M459.38,-114.15C470.8,-104.69 483.25,-94.38 495.14,-84.53"/>
<polygon fill="black" stroke="black" points="497.05,-87.49 502.52,-78.42 492.58,-82.1 497.05,-87.49"/>
</g>
<!-- パワフルレディ&#45;&gt;ウイニングチケット -->
<g id="edge20" class="edge">
<title>パワフルレディ&#45;&gt;ウイニングチケット</title>
<path fill="none" stroke="black" d="M637.76,-112.61C626.76,-103.5 614.92,-93.69 603.58,-84.3"/>
<polygon fill="black" stroke="black" points="606.13,-81.87 596.2,-78.18 601.67,-87.26 606.13,-81.87"/>
</g>
<!-- カンパラ -->
<g id="node23" class="node">
<title>カンパラ</title>
<polygon fill="lightblue" stroke="lightblue" points="459,-303 382,-303 382,-226 459,-226 459,-303"/>
<image xlink:href="img/mob.png" width="77px" height="77px" preserveAspectRatio="xMinYMin meet" x="382" y="-303"/>
<text text-anchor="middle" x="420.5" y="-258.7" font-family="MS Gothic" font-size="14.00">カンパラ</text>
</g>
<!-- カンパラ&#45;&gt;トニービン -->
<g id="edge21" class="edge">
<title>カンパラ&#45;&gt;トニービン</title>
<path fill="none" stroke="black" d="M418.79,-225.61C418.44,-217.84 418.07,-209.56 417.71,-201.46"/>
<polygon fill="black" stroke="black" points="421.21,-201.56 417.27,-191.73 414.22,-201.88 421.21,-201.56"/>
</g>
<!-- Severn Bridge -->
<g id="node24" class="node">
<title>Severn Bridge</title>
<polygon fill="lightcoral" stroke="lightcoral" points="364.38,-303 260.62,-303 260.62,-226 364.38,-226 364.38,-303"/>
<image xlink:href="img/mob.png" width="100px" height="77px" preserveAspectRatio="xMinYMin meet" x="262.5" y="-303"/>
<text text-anchor="middle" x="312.5" y="-258.7" font-family="MS Gothic" font-size="14.00">Severn Bridge</text>
</g>
<!-- Severn Bridge&#45;&gt;トニービン -->
<g id="edge22" class="edge">
<title>Severn Bridge&#45;&gt;トニービン</title>
<path fill="none" stroke="black" d="M347.66,-225.61C355.78,-216.86 364.5,-207.46 372.9,-198.4"/>
<polygon fill="black" stroke="black" points="375.23,-201.04 379.47,-191.33 370.1,-196.28 375.23,-201.04"/>
</g>
<!-- ロッチテスコ -->
<g id="node25" class="node">
<title>ロッチテスコ</title>
<polygon fill="lightcoral" stroke="lightcoral" points="727.25,-303 625.75,-303 625.75,-226 727.25,-226 727.25,-303"/>
<image xlink:href="img/mob.png" width="100px" height="77px" preserveAspectRatio="xMinYMin meet" x="626.5" y="-303"/>
<text text-anchor="middle" x="676.5" y="-258.7" font-family="MS Gothic" font-size="14.00">ロッチテスコ</text>
</g>
<!-- ロッチテスコ&#45;&gt;パワフルレディ -->
<g id="edge24" class="edge">
<title>ロッチテスコ&#45;&gt;パワフルレディ</title>
<path fill="none" stroke="black" d="M678.89,-225.61C679.38,-217.84 679.9,-209.56 680.41,-201.46"/>
<polygon fill="black" stroke="black" points="683.89,-201.93 681.03,-191.73 676.9,-201.49 683.89,-201.93"/>
</g>
<!-- サクラセダン -->
<g id="node27" class="node">
<title>サクラセダン</title>
<polygon fill="lightcoral" stroke="lightcoral" points="981.25,-303 879.75,-303 879.75,-226 981.25,-226 981.25,-303"/>
<image xlink:href="img/mob.png" width="100px" height="77px" preserveAspectRatio="xMinYMin meet" x="880.5" y="-303"/>
<text text-anchor="middle" x="930.5" y="-258.7" font-family="MS Gothic" font-size="14.00">サクラセダン</text>
</g>
<!-- サクラセダン&#45;&gt;サクラチヨノオー -->
<g id="edge26" class="edge">
<title>サクラセダン&#45;&gt;サクラチヨノオー</title>
<path fill="none" stroke="black" d="M904.9,-225.61C899.23,-217.22 893.15,-208.22 887.27,-199.51"/>
<polygon fill="black" stroke="black" points="890.33,-197.8 881.83,-191.47 884.53,-201.72 890.33,-197.8"/>
</g>
<!-- セダン -->
<g id="node28" class="node">
<title>セダン</title>
<polygon fill="lightblue" stroke="lightblue" points="961,-416 884,-416 884,-339 961,-339 961,-416"/>
<image xlink:href="img/mob.png" width="77px" height="77px" preserveAspectRatio="xMinYMin meet" x="884" y="-416"/>
<text text-anchor="middle" x="922.5" y="-371.7" font-family="MS Gothic" font-size="14.00">セダン</text>
</g>
<!-- セダン&#45;&gt;サクラセダン -->
<g id="edge27" class="edge">
<title>セダン&#45;&gt;サクラセダン</title>
<path fill="none" stroke="black" d="M925.23,-338.61C925.79,-330.84 926.39,-322.56 926.97,-314.46"/>
<polygon fill="black" stroke="black" points="930.44,-314.95 927.67,-304.73 923.46,-314.45 930.44,-314.95"/>
</g>
<!-- スワンズウッドグローヴ -->
<g id="node29" class="node">
<title>スワンズウッドグローヴ</title>
<polygon fill="lightcoral" stroke="lightcoral" points="1151.88,-416 979.12,-416 979.12,-339 1151.88,-339 1151.88,-416"/>
<image xlink:href="img/mob.png" width="100px" height="77px" preserveAspectRatio="xMinYMin meet" x="1015.5" y="-416"/>
<text text-anchor="middle" x="1065.5" y="-371.7" font-family="MS Gothic" font-size="14.00">スワンズウッドグローヴ</text>
</g>
<!-- スワンズウッドグローヴ&#45;&gt;サクラセダン -->
<g id="edge28" class="edge">
<title>スワンズウッドグローヴ&#45;&gt;サクラセダン</title>
<path fill="none" stroke="black" d="M1019.42,-338.61C1008.34,-329.5 996.4,-319.69 984.98,-310.3"/>
<polygon fill="black" stroke="black" points="987.49,-307.83 977.54,-304.18 983.04,-313.23 987.49,-307.83"/>
</g>
<!-- ライスシャワー -->
<g id="node30" class="node">
<title>ライスシャワー</title>
<polygon fill="none" stroke="black" points="1174.88,-77 1038.12,-77 1038.12,0 1174.88,0 1174.88,-77"/>
<image xlink:href="img/raisushiyawa.png" width="100px" height="77px" preserveAspectRatio="xMinYMin meet" x="1056.5" y="-77"/>
<text text-anchor="middle" x="1106.5" y="-32.33" font-family="Times New Roman,serif" font-size="14.00">ライスシャワー</text>
</g>
<!-- リアルシャダイ -->
<g id="node31" class="node">
<title>リアルシャダイ</title>
<polygon fill="lightblue" stroke="lightblue" points="1238.38,-190 1122.62,-190 1122.62,-113 1238.38,-113 1238.38,-190"/>
<image xlink:href="img/mob.png" width="100px" height="77px" preserveAspectRatio="xMinYMin meet" x="1130.5" y="-190"/>
<text text-anchor="middle" x="1180.5" y="-145.7" font-family="MS Gothic" font-size="14.00">リアルシャダイ</text>
</g>
<!-- リアルシャダイ&#45;&gt;ライスシャワー -->
<g id="edge29" class="edge">
<title>リアルシャダイ&#45;&gt;ライスシャワー</title>
<path fill="none" stroke="black" d="M1155.24,-112.61C1149.7,-104.31 1143.78,-95.41 1138.03,-86.79"/>
<polygon fill="black" stroke="black" points="1140.94,-84.86 1132.49,-78.48 1135.12,-88.74 1140.94,-84.86"/>
</g>
<!-- ライラックポイント&#45;&gt;ライスシャワー -->
<g id="edge30" class="edge">
<title>ライラックポイント&#45;&gt;ライスシャワー</title>
<path fill="none" stroke="black" d="M1057.76,-112.61C1063.3,-104.31 1069.22,-95.41 1074.97,-86.79"/>
<polygon fill="black" stroke="black" points="1077.88,-88.74 1080.51,-78.48 1072.06,-84.86 1077.88,-88.74"/>
</g>
<!-- Roberto -->
<g id="node33" class="node">
<title>Roberto</title>
<polygon fill="lightblue" stroke="lightblue" points="1200,-303 1123,-303 1123,-226 1200,-226 1200,-303"/>
<image xlink:href="img/mob.png" width="77px" height="77px" preserveAspectRatio="xMinYMin meet" x="1123" y="-303"/>
<text text-anchor="middle" x="1161.5" y="-258.7" font-family="MS Gothic" font-size="14.00">Roberto</text>
</g>
<!-- Roberto&#45;&gt;リアルシャダイ -->
<g id="edge31" class="edge">
<title>Roberto&#45;&gt;リアルシャダイ</title>
<path fill="none" stroke="black" d="M1167.99,-225.61C1169.32,-217.84 1170.73,-209.56 1172.12,-201.46"/>
<polygon fill="black" stroke="black" points="1175.55,-202.16 1173.79,-191.71 1168.65,-200.98 1175.55,-202.16"/>
</g>
<!-- Desert Vixen -->
<g id="node34" class="node">
<title>Desert Vixen</title>
<polygon fill="lightcoral" stroke="lightcoral" points="1315,-303 1218,-303 1218,-226 1315,-226 1315,-303"/>
<image xlink:href="img/mob.png" width="97px" height="77px" preserveAspectRatio="xMinYMin meet" x="1218" y="-303"/>
<text text-anchor="middle" x="1266.5" y="-258.7" font-family="MS Gothic" font-size="14.00">Desert Vixen</text>
</g>
<!-- Desert Vixen&#45;&gt;リアルシャダイ -->
<g id="edge32" class="edge">
<title>Desert Vixen&#45;&gt;リアルシャダイ</title>
<path fill="none" stroke="black" d="M1237.14,-225.61C1230.57,-217.13 1223.52,-208.03 1216.71,-199.24"/>
<polygon fill="black" stroke="black" points="1219.54,-197.18 1210.65,-191.42 1214.01,-201.46 1219.54,-197.18"/>
</g>
<!-- クリカツラ -->
<g id="node35" class="node">
<title>クリカツラ</title>
<polygon fill="lightcoral" stroke="lightcoral" points="1086.12,-303 998.88,-303 998.88,-226 1086.12,-226 1086.12,-303"/>
<image xlink:href="img/mob.png" width="87.25px" height="77px" preserveAspectRatio="xMinYMin meet" x="998.875" y="-303"/>
<text text-anchor="middle" x="1042.5" y="-258.7" font-family="MS Gothic" font-size="14.00">クリカツラ</text>
</g>
<!-- クリカツラ&#45;&gt;ライラックポイント -->
<g id="edge34" class="edge">
<title>クリカツラ&#45;&gt;ライラックポイント</title>
<path fill="none" stroke="black" d="M1039.09,-225.61C1038.39,-217.84 1037.64,-209.56 1036.91,-201.46"/>
<polygon fill="black" stroke="black" points="1040.42,-201.37 1036.03,-191.73 1033.45,-202 1040.42,-201.37"/>
</g>
</g>
</svg>
