<?xml version="1.0" encoding="UTF-8" standalone="no"?>
<!DOCTYPE svg PUBLIC "-//W3C//DTD SVG 1.1//EN"
 "http://www.w3.org/Graphics/SVG/1.1/DTD/svg11.dtd">
<!-- Generated by graphviz version 12.1.2 (20240928.0832)
 -->
<!-- Pages: 1 -->
<svg width="162pt" height="311pt"
 viewBox="0.00 0.00 162.00 311.00" xmlns="http://www.w3.org/2000/svg" xmlns:xlink="http://www.w3.org/1999/xlink">
<g id="graph0" class="graph" transform="scale(1 1) rotate(0) translate(4 307)">
<polygon fill="white" stroke="none" points="-4,4 -4,-307 158,-307 158,4 -4,4"/>
<!-- スーパークリーク -->
<g id="node1" class="node">
<title>スーパークリーク</title>
<polygon fill="none" stroke="black" points="154,-77 0,-77 0,0 154,0 154,-77"/>
<image xlink:href="img/supakuriku.png" width="100px" height="77px" preserveAspectRatio="xMinYMin meet" x="27" y="-77"/>
<text text-anchor="middle" x="77" y="-32.33" font-family="Times New Roman,serif" font-size="14.00">スーパークリーク</text>
</g>
<!-- ノーアテンション -->
<g id="node2" class="node">
<title>ノーアテンション</title>
<polygon fill="lightblue" stroke="lightblue" points="142,-190 12,-190 12,-113 142,-113 142,-190"/>
<image xlink:href="img/mob.png" width="100px" height="77px" preserveAspectRatio="xMinYMin meet" x="27" y="-190"/>
<text text-anchor="middle" x="77" y="-145.7" font-family="MS Gothic" font-size="14.00">ノーアテンション</text>
</g>
<!-- ノーアテンション&#45;&gt;スーパークリーク -->
<g id="edge1" class="edge">
<title>ノーアテンション&#45;&gt;スーパークリーク</title>
<path fill="none" stroke="black" d="M77,-112.61C77,-104.84 77,-96.56 77,-88.46"/>
<polygon fill="black" stroke="black" points="80.5,-88.73 77,-78.73 73.5,-88.73 80.5,-88.73"/>
</g>
<!-- ナイスデイ -->
<g id="node3" class="node">
<title>ナイスデイ</title>
<polygon fill="lightblue" stroke="lightblue" points="120.62,-303 33.38,-303 33.38,-226 120.62,-226 120.62,-303"/>
<image xlink:href="img/mob.png" width="87.25px" height="77px" preserveAspectRatio="xMinYMin meet" x="33.375" y="-303"/>
<text text-anchor="middle" x="77" y="-258.7" font-family="MS Gothic" font-size="14.00">ナイスデイ</text>
</g>
<!-- ナイスデイ&#45;&gt;ノーアテンション -->
<g id="edge2" class="edge">
<title>ナイスデイ&#45;&gt;ノーアテンション</title>
<path fill="none" stroke="black" d="M77,-225.61C77,-217.84 77,-209.56 77,-201.46"/>
<polygon fill="black" stroke="black" points="80.5,-201.73 77,-191.73 73.5,-201.73 80.5,-201.73"/>
</g>
</g>
</svg>
