<?xml version="1.0" encoding="UTF-8" standalone="no"?>
<!DOCTYPE svg PUBLIC "-//W3C//DTD SVG 1.1//EN"
 "http://www.w3.org/Graphics/SVG/1.1/DTD/svg11.dtd">
<!-- Generated by graphviz version 12.1.2 (20240928.0832)
 -->
<!-- Pages: 1 -->
<svg width="590pt" height="311pt"
 viewBox="0.00 0.00 590.25 311.00" xmlns="http://www.w3.org/2000/svg" xmlns:xlink="http://www.w3.org/1999/xlink">
<g id="graph0" class="graph" transform="scale(1 1) rotate(0) translate(4 307)">
<polygon fill="white" stroke="none" points="-4,4 -4,-307 586.25,-307 586.25,4 -4,4"/>
<!-- スイープトウショウ -->
<g id="node1" class="node">
<title>スイープトウショウ</title>
<polygon fill="none" stroke="black" points="362.75,-77 191.5,-77 191.5,0 362.75,0 362.75,-77"/>
<image xlink:href="img/suiputoushiyou.png" width="100px" height="77px" preserveAspectRatio="xMinYMin meet" x="227.125" y="-77"/>
<text text-anchor="middle" x="277.12" y="-32.33" font-family="Times New Roman,serif" font-size="14.00">スイープトウショウ</text>
</g>
<!-- エンドスウィープ -->
<g id="node2" class="node">
<title>エンドスウィープ</title>
<polygon fill="lightblue" stroke="lightblue" points="268.12,-190 138.12,-190 138.12,-113 268.12,-113 268.12,-190"/>
<image xlink:href="img/mob.png" width="100px" height="77px" preserveAspectRatio="xMinYMin meet" x="153.125" y="-190"/>
<text text-anchor="middle" x="203.12" y="-145.7" font-family="MS Gothic" font-size="14.00">エンドスウィープ</text>
</g>
<!-- エンドスウィープ&#45;&gt;スイープトウショウ -->
<g id="edge1" class="edge">
<title>エンドスウィープ&#45;&gt;スイープトウショウ</title>
<path fill="none" stroke="black" d="M228.38,-112.61C233.92,-104.31 239.85,-95.41 245.6,-86.79"/>
<polygon fill="black" stroke="black" points="248.5,-88.74 251.14,-78.48 242.68,-84.86 248.5,-88.74"/>
</g>
<!-- タバサトウショウ -->
<g id="node3" class="node">
<title>タバサトウショウ</title>
<polygon fill="lightcoral" stroke="lightcoral" points="416.12,-190 286.12,-190 286.12,-113 416.12,-113 416.12,-190"/>
<image xlink:href="img/mob.png" width="100px" height="77px" preserveAspectRatio="xMinYMin meet" x="301.125" y="-190"/>
<text text-anchor="middle" x="351.12" y="-145.7" font-family="MS Gothic" font-size="14.00">タバサトウショウ</text>
</g>
<!-- タバサトウショウ&#45;&gt;スイープトウショウ -->
<g id="edge2" class="edge">
<title>タバサトウショウ&#45;&gt;スイープトウショウ</title>
<path fill="none" stroke="black" d="M325.87,-112.61C320.33,-104.31 314.4,-95.41 308.65,-86.79"/>
<polygon fill="black" stroke="black" points="311.57,-84.86 303.11,-78.48 305.75,-88.74 311.57,-84.86"/>
</g>
<!-- フォーティナイナー -->
<g id="node4" class="node">
<title>フォーティナイナー</title>
<polygon fill="lightblue" stroke="lightblue" points="144.25,-303 0,-303 0,-226 144.25,-226 144.25,-303"/>
<image xlink:href="img/mob.png" width="100px" height="77px" preserveAspectRatio="xMinYMin meet" x="22.125" y="-303"/>
<text text-anchor="middle" x="72.12" y="-258.7" font-family="MS Gothic" font-size="14.00">フォーティナイナー</text>
</g>
<!-- フォーティナイナー&#45;&gt;エンドスウィープ -->
<g id="edge3" class="edge">
<title>フォーティナイナー&#45;&gt;エンドスウィープ</title>
<path fill="none" stroke="black" d="M116.84,-225.61C127.49,-216.59 138.95,-206.88 149.93,-197.57"/>
<polygon fill="black" stroke="black" points="152.09,-200.33 157.46,-191.2 147.56,-194.99 152.09,-200.33"/>
</g>
<!-- Broom Dance -->
<g id="node5" class="node">
<title>Broom Dance</title>
<polygon fill="lightcoral" stroke="lightcoral" points="252.25,-303 162,-303 162,-226 252.25,-226 252.25,-303"/>
<image xlink:href="img/mob.png" width="90.25px" height="77px" preserveAspectRatio="xMinYMin meet" x="162" y="-303"/>
<text text-anchor="middle" x="207.12" y="-258.7" font-family="MS Gothic" font-size="14.00">Broom Dance</text>
</g>
<!-- Broom Dance&#45;&gt;エンドスウィープ -->
<g id="edge4" class="edge">
<title>Broom Dance&#45;&gt;エンドスウィープ</title>
<path fill="none" stroke="black" d="M205.76,-225.61C205.48,-217.84 205.18,-209.56 204.89,-201.46"/>
<polygon fill="black" stroke="black" points="208.4,-201.6 204.54,-191.73 201.4,-201.85 208.4,-201.6"/>
</g>
<!-- ダンシングブレーヴ -->
<g id="node6" class="node">
<title>ダンシングブレーヴ</title>
<polygon fill="lightblue" stroke="lightblue" points="420.25,-303 276,-303 276,-226 420.25,-226 420.25,-303"/>
<image xlink:href="img/mob.png" width="100px" height="77px" preserveAspectRatio="xMinYMin meet" x="298.125" y="-303"/>
<text text-anchor="middle" x="348.12" y="-258.7" font-family="MS Gothic" font-size="14.00">ダンシングブレーヴ</text>
</g>
<!-- ダンシングブレーヴ&#45;&gt;タバサトウショウ -->
<g id="edge5" class="edge">
<title>ダンシングブレーヴ&#45;&gt;タバサトウショウ</title>
<path fill="none" stroke="black" d="M349.15,-225.61C349.36,-217.84 349.58,-209.56 349.8,-201.46"/>
<polygon fill="black" stroke="black" points="353.29,-201.82 350.06,-191.73 346.3,-201.63 353.29,-201.82"/>
</g>
<!-- サマンサトウショウ -->
<g id="node7" class="node">
<title>サマンサトウショウ</title>
<polygon fill="lightcoral" stroke="lightcoral" points="582.25,-303 438,-303 438,-226 582.25,-226 582.25,-303"/>
<image xlink:href="img/mob.png" width="100px" height="77px" preserveAspectRatio="xMinYMin meet" x="460.125" y="-303"/>
<text text-anchor="middle" x="510.12" y="-258.7" font-family="MS Gothic" font-size="14.00">サマンサトウショウ</text>
</g>
<!-- サマンサトウショウ&#45;&gt;タバサトウショウ -->
<g id="edge6" class="edge">
<title>サマンサトウショウ&#45;&gt;タバサトウショウ</title>
<path fill="none" stroke="black" d="M455.85,-225.61C442.62,-216.37 428.35,-206.41 414.73,-196.9"/>
<polygon fill="black" stroke="black" points="416.87,-194.13 406.67,-191.27 412.86,-199.87 416.87,-194.13"/>
</g>
</g>
</svg>
