<?xml version="1.0" encoding="UTF-8" standalone="no"?>
<!DOCTYPE svg PUBLIC "-//W3C//DTD SVG 1.1//EN"
 "http://www.w3.org/Graphics/SVG/1.1/DTD/svg11.dtd">
<!-- Generated by graphviz version 12.1.2 (20240928.0832)
 -->
<!-- Pages: 1 -->
<svg width="452pt" height="311pt"
 viewBox="0.00 0.00 452.38 311.00" xmlns="http://www.w3.org/2000/svg" xmlns:xlink="http://www.w3.org/1999/xlink">
<g id="graph0" class="graph" transform="scale(1 1) rotate(0) translate(4 307)">
<polygon fill="white" stroke="none" points="-4,4 -4,-307 448.38,-307 448.38,4 -4,4"/>
<!-- タマモクロス -->
<g id="node1" class="node">
<title>タマモクロス</title>
<polygon fill="none" stroke="black" points="284.5,-77 165,-77 165,0 284.5,0 284.5,-77"/>
<image xlink:href="img/tamamokurosu.png" width="100px" height="77px" preserveAspectRatio="xMinYMin meet" x="174.75" y="-77"/>
<text text-anchor="middle" x="224.75" y="-32.33" font-family="Times New Roman,serif" font-size="14.00">タマモクロス</text>
</g>
<!-- シービークロス -->
<g id="node2" class="node">
<title>シービークロス</title>
<polygon fill="lightblue" stroke="lightblue" points="212.62,-190 96.88,-190 96.88,-113 212.62,-113 212.62,-190"/>
<image xlink:href="img/mob.png" width="100px" height="77px" preserveAspectRatio="xMinYMin meet" x="104.75" y="-190"/>
<text text-anchor="middle" x="154.75" y="-145.7" font-family="MS Gothic" font-size="14.00">シービークロス</text>
</g>
<!-- シービークロス&#45;&gt;タマモクロス -->
<g id="edge1" class="edge">
<title>シービークロス&#45;&gt;タマモクロス</title>
<path fill="none" stroke="black" d="M178.64,-112.61C183.88,-104.31 189.49,-95.41 194.93,-86.79"/>
<polygon fill="black" stroke="black" points="197.78,-88.82 200.16,-78.5 191.86,-85.09 197.78,-88.82"/>
</g>
<!-- グリーンシャトー -->
<g id="node3" class="node">
<title>グリーンシャトー</title>
<polygon fill="lightcoral" stroke="lightcoral" points="360.75,-190 230.75,-190 230.75,-113 360.75,-113 360.75,-190"/>
<image xlink:href="img/mob.png" width="100px" height="77px" preserveAspectRatio="xMinYMin meet" x="245.75" y="-190"/>
<text text-anchor="middle" x="295.75" y="-145.7" font-family="MS Gothic" font-size="14.00">グリーンシャトー</text>
</g>
<!-- グリーンシャトー&#45;&gt;タマモクロス -->
<g id="edge2" class="edge">
<title>グリーンシャトー&#45;&gt;タマモクロス</title>
<path fill="none" stroke="black" d="M271.51,-112.61C266.2,-104.31 260.51,-95.41 255,-86.79"/>
<polygon fill="black" stroke="black" points="258.03,-85.03 249.69,-78.49 252.13,-88.8 258.03,-85.03"/>
</g>
<!-- フォルティノ -->
<g id="node4" class="node">
<title>フォルティノ</title>
<polygon fill="lightblue" stroke="lightblue" points="101.5,-303 0,-303 0,-226 101.5,-226 101.5,-303"/>
<image xlink:href="img/mob.png" width="100px" height="77px" preserveAspectRatio="xMinYMin meet" x="0.75" y="-303"/>
<text text-anchor="middle" x="50.75" y="-258.7" font-family="MS Gothic" font-size="14.00">フォルティノ</text>
</g>
<!-- フォルティノ&#45;&gt;シービークロス -->
<g id="edge3" class="edge">
<title>フォルティノ&#45;&gt;シービークロス</title>
<path fill="none" stroke="black" d="M86.25,-225.61C94.45,-216.86 103.26,-207.46 111.74,-198.4"/>
<polygon fill="black" stroke="black" points="114.09,-201.01 118.38,-191.32 108.98,-196.23 114.09,-201.01"/>
</g>
<!-- ズイシヨウ -->
<g id="node5" class="node">
<title>ズイシヨウ</title>
<polygon fill="lightcoral" stroke="lightcoral" points="206.38,-303 119.12,-303 119.12,-226 206.38,-226 206.38,-303"/>
<image xlink:href="img/mob.png" width="87.25px" height="77px" preserveAspectRatio="xMinYMin meet" x="119.125" y="-303"/>
<text text-anchor="middle" x="162.75" y="-258.7" font-family="MS Gothic" font-size="14.00">ズイシヨウ</text>
</g>
<!-- ズイシヨウ&#45;&gt;シービークロス -->
<g id="edge4" class="edge">
<title>ズイシヨウ&#45;&gt;シービークロス</title>
<path fill="none" stroke="black" d="M160.02,-225.61C159.46,-217.84 158.86,-209.56 158.28,-201.46"/>
<polygon fill="black" stroke="black" points="161.79,-201.45 157.58,-191.73 154.81,-201.95 161.79,-201.45"/>
</g>
<!-- シャトーゲイ -->
<g id="node6" class="node">
<title>シャトーゲイ</title>
<polygon fill="lightblue" stroke="lightblue" points="339.5,-303 238,-303 238,-226 339.5,-226 339.5,-303"/>
<image xlink:href="img/mob.png" width="100px" height="77px" preserveAspectRatio="xMinYMin meet" x="238.75" y="-303"/>
<text text-anchor="middle" x="288.75" y="-258.7" font-family="MS Gothic" font-size="14.00">シャトーゲイ</text>
</g>
<!-- シャトーゲイ&#45;&gt;グリーンシャトー -->
<g id="edge5" class="edge">
<title>シャトーゲイ&#45;&gt;グリーンシャトー</title>
<path fill="none" stroke="black" d="M291.14,-225.61C291.63,-217.84 292.15,-209.56 292.66,-201.46"/>
<polygon fill="black" stroke="black" points="296.14,-201.93 293.28,-191.73 289.15,-201.49 296.14,-201.93"/>
</g>
<!-- クインビー -->
<g id="node7" class="node">
<title>クインビー</title>
<polygon fill="lightcoral" stroke="lightcoral" points="444.38,-303 357.12,-303 357.12,-226 444.38,-226 444.38,-303"/>
<image xlink:href="img/mob.png" width="87.25px" height="77px" preserveAspectRatio="xMinYMin meet" x="357.125" y="-303"/>
<text text-anchor="middle" x="400.75" y="-258.7" font-family="MS Gothic" font-size="14.00">クインビー</text>
</g>
<!-- クインビー&#45;&gt;グリーンシャトー -->
<g id="edge6" class="edge">
<title>クインビー&#45;&gt;グリーンシャトー</title>
<path fill="none" stroke="black" d="M364.91,-225.61C356.63,-216.86 347.74,-207.46 339.17,-198.4"/>
<polygon fill="black" stroke="black" points="341.88,-196.18 332.47,-191.32 336.8,-200.99 341.88,-196.18"/>
</g>
</g>
</svg>
