<?xml version="1.0" encoding="UTF-8" standalone="no"?>
<!DOCTYPE svg PUBLIC "-//W3C//DTD SVG 1.1//EN"
 "http://www.w3.org/Graphics/SVG/1.1/DTD/svg11.dtd">
<!-- Generated by graphviz version 12.1.2 (20240928.0832)
 -->
<!-- Pages: 1 -->
<svg width="138pt" height="311pt"
 viewBox="0.00 0.00 138.00 311.00" xmlns="http://www.w3.org/2000/svg" xmlns:xlink="http://www.w3.org/1999/xlink">
<g id="graph0" class="graph" transform="scale(1 1) rotate(0) translate(4 307)">
<polygon fill="white" stroke="none" points="-4,4 -4,-307 134,-307 134,4 -4,4"/>
<!-- タマモクロス -->
<g id="node1" class="node">
<title>タマモクロス</title>
<polygon fill="none" stroke="black" points="124.75,-77 5.25,-77 5.25,0 124.75,0 124.75,-77"/>
<image xlink:href="img/tamamokurosu.png" width="100px" height="77px" preserveAspectRatio="xMinYMin meet" x="15" y="-77"/>
<text text-anchor="middle" x="65" y="-32.33" font-family="Times New Roman,serif" font-size="14.00">タマモクロス</text>
</g>
<!-- シービークロス -->
<g id="node2" class="node">
<title>シービークロス</title>
<polygon fill="lightblue" stroke="lightblue" points="122.88,-190 7.12,-190 7.12,-113 122.88,-113 122.88,-190"/>
<image xlink:href="img/mob.png" width="100px" height="77px" preserveAspectRatio="xMinYMin meet" x="15" y="-190"/>
<text text-anchor="middle" x="65" y="-145.7" font-family="MS Gothic" font-size="14.00">シービークロス</text>
</g>
<!-- シービークロス&#45;&gt;タマモクロス -->
<g id="edge1" class="edge">
<title>シービークロス&#45;&gt;タマモクロス</title>
<path fill="none" stroke="black" d="M65,-112.61C65,-104.84 65,-96.56 65,-88.46"/>
<polygon fill="black" stroke="black" points="68.5,-88.73 65,-78.73 61.5,-88.73 68.5,-88.73"/>
</g>
<!-- グリーンシャトー -->
<g id="node3" class="node">
<title>グリーンシャトー</title>
<polygon fill="lightblue" stroke="lightblue" points="130,-303 0,-303 0,-226 130,-226 130,-303"/>
<image xlink:href="img/mob.png" width="100px" height="77px" preserveAspectRatio="xMinYMin meet" x="15" y="-303"/>
<text text-anchor="middle" x="65" y="-258.7" font-family="MS Gothic" font-size="14.00">グリーンシャトー</text>
</g>
<!-- グリーンシャトー&#45;&gt;シービークロス -->
<g id="edge2" class="edge">
<title>グリーンシャトー&#45;&gt;シービークロス</title>
<path fill="none" stroke="black" d="M65,-225.61C65,-217.84 65,-209.56 65,-201.46"/>
<polygon fill="black" stroke="black" points="68.5,-201.73 65,-191.73 61.5,-201.73 68.5,-201.73"/>
</g>
</g>
</svg>
