<?xml version="1.0" encoding="UTF-8" standalone="no"?>
<!DOCTYPE svg PUBLIC "-//W3C//DTD SVG 1.1//EN"
 "http://www.w3.org/Graphics/SVG/1.1/DTD/svg11.dtd">
<!-- Generated by graphviz version 12.1.2 (20240928.0832)
 -->
<!-- Pages: 1 -->
<svg width="484pt" height="311pt"
 viewBox="0.00 0.00 484.12 311.00" xmlns="http://www.w3.org/2000/svg" xmlns:xlink="http://www.w3.org/1999/xlink">
<g id="graph0" class="graph" transform="scale(1 1) rotate(0) translate(4 307)">
<polygon fill="white" stroke="none" points="-4,4 -4,-307 480.12,-307 480.12,4 -4,4"/>
<!-- タップダンスシチー -->
<g id="node1" class="node">
<title>タップダンスシチー</title>
<polygon fill="none" stroke="black" points="327.25,-77 156,-77 156,0 327.25,0 327.25,-77"/>
<image xlink:href="img/tatsupudansushichi.png" width="100px" height="77px" preserveAspectRatio="xMinYMin meet" x="191.625" y="-77"/>
<text text-anchor="middle" x="241.62" y="-32.33" font-family="Times New Roman,serif" font-size="14.00">タップダンスシチー</text>
</g>
<!-- Pleasant Tap -->
<g id="node2" class="node">
<title>Pleasant Tap</title>
<polygon fill="lightblue" stroke="lightblue" points="229.12,-190 132.12,-190 132.12,-113 229.12,-113 229.12,-190"/>
<image xlink:href="img/mob.png" width="97px" height="77px" preserveAspectRatio="xMinYMin meet" x="132.125" y="-190"/>
<text text-anchor="middle" x="180.62" y="-145.7" font-family="MS Gothic" font-size="14.00">Pleasant Tap</text>
</g>
<!-- Pleasant Tap&#45;&gt;タップダンスシチー -->
<g id="edge1" class="edge">
<title>Pleasant Tap&#45;&gt;タップダンスシチー</title>
<path fill="none" stroke="black" d="M201.45,-112.61C205.96,-104.39 210.79,-95.6 215.48,-87.07"/>
<polygon fill="black" stroke="black" points="218.42,-88.99 220.17,-78.55 212.28,-85.62 218.42,-88.99"/>
</g>
<!-- All Dance -->
<g id="node3" class="node">
<title>All Dance</title>
<polygon fill="lightcoral" stroke="lightcoral" points="341.12,-190 264.12,-190 264.12,-113 341.12,-113 341.12,-190"/>
<image xlink:href="img/mob.png" width="77px" height="77px" preserveAspectRatio="xMinYMin meet" x="264.125" y="-190"/>
<text text-anchor="middle" x="302.62" y="-145.7" font-family="MS Gothic" font-size="14.00">All Dance</text>
</g>
<!-- All Dance&#45;&gt;タップダンスシチー -->
<g id="edge2" class="edge">
<title>All Dance&#45;&gt;タップダンスシチー</title>
<path fill="none" stroke="black" d="M281.8,-112.61C277.29,-104.39 272.46,-95.6 267.77,-87.07"/>
<polygon fill="black" stroke="black" points="270.97,-85.62 263.08,-78.55 264.83,-88.99 270.97,-85.62"/>
</g>
<!-- Pleasant Colony -->
<g id="node4" class="node">
<title>Pleasant Colony</title>
<polygon fill="lightblue" stroke="lightblue" points="117.25,-303 0,-303 0,-226 117.25,-226 117.25,-303"/>
<image xlink:href="img/mob.png" width="100px" height="77px" preserveAspectRatio="xMinYMin meet" x="8.625" y="-303"/>
<text text-anchor="middle" x="58.62" y="-258.7" font-family="MS Gothic" font-size="14.00">Pleasant Colony</text>
</g>
<!-- Pleasant Colony&#45;&gt;Pleasant Tap -->
<g id="edge3" class="edge">
<title>Pleasant Colony&#45;&gt;Pleasant Tap</title>
<path fill="none" stroke="black" d="M100.27,-225.61C110.08,-216.68 120.65,-207.07 130.78,-197.85"/>
<polygon fill="black" stroke="black" points="133.01,-200.56 138.05,-191.24 128.3,-195.38 133.01,-200.56"/>
</g>
<!-- Never Knock -->
<g id="node5" class="node">
<title>Never Knock</title>
<polygon fill="lightcoral" stroke="lightcoral" points="225.75,-303 135.5,-303 135.5,-226 225.75,-226 225.75,-303"/>
<image xlink:href="img/mob.png" width="90.25px" height="77px" preserveAspectRatio="xMinYMin meet" x="135.5" y="-303"/>
<text text-anchor="middle" x="180.62" y="-258.7" font-family="MS Gothic" font-size="14.00">Never Knock</text>
</g>
<!-- Never Knock&#45;&gt;Pleasant Tap -->
<g id="edge4" class="edge">
<title>Never Knock&#45;&gt;Pleasant Tap</title>
<path fill="none" stroke="black" d="M180.62,-225.61C180.62,-217.84 180.62,-209.56 180.62,-201.46"/>
<polygon fill="black" stroke="black" points="184.13,-201.73 180.63,-191.73 177.13,-201.73 184.13,-201.73"/>
</g>
<!-- Northern Dancer -->
<g id="node6" class="node">
<title>Northern Dancer</title>
<polygon fill="lightblue" stroke="lightblue" points="361.25,-303 244,-303 244,-226 361.25,-226 361.25,-303"/>
<image xlink:href="img/mob.png" width="100px" height="77px" preserveAspectRatio="xMinYMin meet" x="252.625" y="-303"/>
<text text-anchor="middle" x="302.62" y="-258.7" font-family="MS Gothic" font-size="14.00">Northern Dancer</text>
</g>
<!-- Northern Dancer&#45;&gt;All Dance -->
<g id="edge5" class="edge">
<title>Northern Dancer&#45;&gt;All Dance</title>
<path fill="none" stroke="black" d="M302.62,-225.61C302.62,-217.84 302.62,-209.56 302.62,-201.46"/>
<polygon fill="black" stroke="black" points="306.13,-201.73 302.63,-191.73 299.13,-201.73 306.13,-201.73"/>
</g>
<!-- All Rainbows -->
<g id="node7" class="node">
<title>All Rainbows</title>
<polygon fill="lightcoral" stroke="lightcoral" points="476.12,-303 379.12,-303 379.12,-226 476.12,-226 476.12,-303"/>
<image xlink:href="img/mob.png" width="97px" height="77px" preserveAspectRatio="xMinYMin meet" x="379.125" y="-303"/>
<text text-anchor="middle" x="427.62" y="-258.7" font-family="MS Gothic" font-size="14.00">All Rainbows</text>
</g>
<!-- All Rainbows&#45;&gt;All Dance -->
<g id="edge6" class="edge">
<title>All Rainbows&#45;&gt;All Dance</title>
<path fill="none" stroke="black" d="M384.96,-225.61C373.57,-215.5 361.21,-204.53 349.61,-194.22"/>
<polygon fill="black" stroke="black" points="352.26,-191.89 342.46,-187.87 347.61,-197.13 352.26,-191.89"/>
</g>
</g>
</svg>
