<?xml version="1.0" encoding="UTF-8" standalone="no"?>
<!DOCTYPE svg PUBLIC "-//W3C//DTD SVG 1.1//EN"
 "http://www.w3.org/Graphics/SVG/1.1/DTD/svg11.dtd">
<!-- Generated by graphviz version 12.1.2 (20240928.0832)
 -->
<!-- Pages: 1 -->
<svg width="452pt" height="311pt"
 viewBox="0.00 0.00 452.38 311.00" xmlns="http://www.w3.org/2000/svg" xmlns:xlink="http://www.w3.org/1999/xlink">
<g id="graph0" class="graph" transform="scale(1 1) rotate(0) translate(4 307)">
<polygon fill="white" stroke="none" points="-4,4 -4,-307 448.38,-307 448.38,4 -4,4"/>
<!-- タマモクロス -->
<g id="node1" class="node">
<title>タマモクロス</title>
<polygon fill="none" stroke="black" points="212.5,-77 93,-77 93,0 212.5,0 212.5,-77"/>
<image xlink:href="img/tamamokurosu.png" width="100px" height="77px" preserveAspectRatio="xMinYMin meet" x="102.75" y="-77"/>
<text text-anchor="middle" x="152.75" y="-32.33" font-family="Times New Roman,serif" font-size="14.00">タマモクロス</text>
</g>
<!-- シービークロス -->
<g id="node2" class="node">
<title>シービークロス</title>
<polygon fill="lightblue" stroke="lightblue" points="212.62,-190 96.88,-190 96.88,-113 212.62,-113 212.62,-190"/>
<image xlink:href="img/mob.png" width="100px" height="77px" preserveAspectRatio="xMinYMin meet" x="104.75" y="-190"/>
<text text-anchor="middle" x="154.75" y="-145.7" font-family="MS Gothic" font-size="14.00">シービークロス</text>
</g>
<!-- シービークロス&#45;&gt;タマモクロス -->
<g id="edge1" class="edge">
<title>シービークロス&#45;&gt;タマモクロス</title>
<path fill="none" stroke="black" d="M154.07,-112.61C153.93,-104.84 153.78,-96.56 153.63,-88.46"/>
<polygon fill="black" stroke="black" points="157.14,-88.67 153.46,-78.73 150.14,-88.79 157.14,-88.67"/>
</g>
<!-- セイウンスカイ -->
<g id="node8" class="node">
<title>セイウンスカイ</title>
<polygon fill="none" stroke="black" points="367.12,-77 230.38,-77 230.38,0 367.12,0 367.12,-77"/>
<image xlink:href="img/seiunsukai.png" width="100px" height="77px" preserveAspectRatio="xMinYMin meet" x="248.75" y="-77"/>
<text text-anchor="middle" x="298.75" y="-32.33" font-family="Times New Roman,serif" font-size="14.00">セイウンスカイ</text>
</g>
<!-- シービークロス&#45;&gt;セイウンスカイ -->
<g id="edge7" class="edge">
<title>シービークロス&#45;&gt;セイウンスカイ</title>
<path fill="none" stroke="black" d="M203.9,-112.61C215.84,-103.41 228.7,-93.49 240.99,-84.02"/>
<polygon fill="black" stroke="black" points="242.84,-87.02 248.62,-78.14 238.56,-81.48 242.84,-87.02"/>
</g>
<!-- グリーンシャトー -->
<g id="node3" class="node">
<title>グリーンシャトー</title>
<polygon fill="lightcoral" stroke="lightcoral" points="361.75,-190 231.75,-190 231.75,-113 361.75,-113 361.75,-190"/>
<image xlink:href="img/mob.png" width="100px" height="77px" preserveAspectRatio="xMinYMin meet" x="246.75" y="-190"/>
<text text-anchor="middle" x="296.75" y="-145.7" font-family="MS Gothic" font-size="14.00">グリーンシャトー</text>
</g>
<!-- グリーンシャトー&#45;&gt;タマモクロス -->
<g id="edge2" class="edge">
<title>グリーンシャトー&#45;&gt;タマモクロス</title>
<path fill="none" stroke="black" d="M247.6,-112.61C235.66,-103.41 222.8,-93.49 210.51,-84.02"/>
<polygon fill="black" stroke="black" points="212.94,-81.48 202.88,-78.14 208.66,-87.02 212.94,-81.48"/>
</g>
<!-- グリーンシャトー&#45;&gt;セイウンスカイ -->
<g id="edge8" class="edge">
<title>グリーンシャトー&#45;&gt;セイウンスカイ</title>
<path fill="none" stroke="black" d="M297.43,-112.61C297.57,-104.84 297.72,-96.56 297.87,-88.46"/>
<polygon fill="black" stroke="black" points="301.36,-88.79 298.04,-78.73 294.36,-88.67 301.36,-88.79"/>
</g>
<!-- フォルティノ -->
<g id="node4" class="node">
<title>フォルティノ</title>
<polygon fill="lightblue" stroke="lightblue" points="101.5,-303 0,-303 0,-226 101.5,-226 101.5,-303"/>
<image xlink:href="img/mob.png" width="100px" height="77px" preserveAspectRatio="xMinYMin meet" x="0.75" y="-303"/>
<text text-anchor="middle" x="50.75" y="-258.7" font-family="MS Gothic" font-size="14.00">フォルティノ</text>
</g>
<!-- フォルティノ&#45;&gt;シービークロス -->
<g id="edge3" class="edge">
<title>フォルティノ&#45;&gt;シービークロス</title>
<path fill="none" stroke="black" d="M86.25,-225.61C94.45,-216.86 103.26,-207.46 111.74,-198.4"/>
<polygon fill="black" stroke="black" points="114.09,-201.01 118.38,-191.32 108.98,-196.23 114.09,-201.01"/>
</g>
<!-- ズイシヨウ -->
<g id="node5" class="node">
<title>ズイシヨウ</title>
<polygon fill="lightcoral" stroke="lightcoral" points="206.38,-303 119.12,-303 119.12,-226 206.38,-226 206.38,-303"/>
<image xlink:href="img/mob.png" width="87.25px" height="77px" preserveAspectRatio="xMinYMin meet" x="119.125" y="-303"/>
<text text-anchor="middle" x="162.75" y="-258.7" font-family="MS Gothic" font-size="14.00">ズイシヨウ</text>
</g>
<!-- ズイシヨウ&#45;&gt;シービークロス -->
<g id="edge4" class="edge">
<title>ズイシヨウ&#45;&gt;シービークロス</title>
<path fill="none" stroke="black" d="M160.02,-225.61C159.46,-217.84 158.86,-209.56 158.28,-201.46"/>
<polygon fill="black" stroke="black" points="161.79,-201.45 157.58,-191.73 154.81,-201.95 161.79,-201.45"/>
</g>
<!-- シャトーゲイ -->
<g id="node6" class="node">
<title>シャトーゲイ</title>
<polygon fill="lightblue" stroke="lightblue" points="339.5,-303 238,-303 238,-226 339.5,-226 339.5,-303"/>
<image xlink:href="img/mob.png" width="100px" height="77px" preserveAspectRatio="xMinYMin meet" x="238.75" y="-303"/>
<text text-anchor="middle" x="288.75" y="-258.7" font-family="MS Gothic" font-size="14.00">シャトーゲイ</text>
</g>
<!-- シャトーゲイ&#45;&gt;グリーンシャトー -->
<g id="edge5" class="edge">
<title>シャトーゲイ&#45;&gt;グリーンシャトー</title>
<path fill="none" stroke="black" d="M291.48,-225.61C292.04,-217.84 292.64,-209.56 293.22,-201.46"/>
<polygon fill="black" stroke="black" points="296.69,-201.95 293.92,-191.73 289.71,-201.45 296.69,-201.95"/>
</g>
<!-- クインビー -->
<g id="node7" class="node">
<title>クインビー</title>
<polygon fill="lightcoral" stroke="lightcoral" points="444.38,-303 357.12,-303 357.12,-226 444.38,-226 444.38,-303"/>
<image xlink:href="img/mob.png" width="87.25px" height="77px" preserveAspectRatio="xMinYMin meet" x="357.125" y="-303"/>
<text text-anchor="middle" x="400.75" y="-258.7" font-family="MS Gothic" font-size="14.00">クインビー</text>
</g>
<!-- クインビー&#45;&gt;グリーンシャトー -->
<g id="edge6" class="edge">
<title>クインビー&#45;&gt;グリーンシャトー</title>
<path fill="none" stroke="black" d="M365.25,-225.61C357.05,-216.86 348.24,-207.46 339.76,-198.4"/>
<polygon fill="black" stroke="black" points="342.52,-196.23 333.12,-191.32 337.41,-201.01 342.52,-196.23"/>
</g>
</g>
</svg>
