<?xml version="1.0" encoding="UTF-8" standalone="no"?>
<!DOCTYPE svg PUBLIC "-//W3C//DTD SVG 1.1//EN"
 "http://www.w3.org/Graphics/SVG/1.1/DTD/svg11.dtd">
<!-- Generated by graphviz version 12.1.2 (20240928.0832)
 -->
<!-- Pages: 1 -->
<svg width="508pt" height="311pt"
 viewBox="0.00 0.00 507.50 311.00" xmlns="http://www.w3.org/2000/svg" xmlns:xlink="http://www.w3.org/1999/xlink">
<g id="graph0" class="graph" transform="scale(1 1) rotate(0) translate(4 307)">
<polygon fill="white" stroke="none" points="-4,4 -4,-307 503.5,-307 503.5,4 -4,4"/>
<!-- タニノギムレット -->
<g id="node1" class="node">
<title>タニノギムレット</title>
<polygon fill="none" stroke="black" points="291.5,-77 137.5,-77 137.5,0 291.5,0 291.5,-77"/>
<image xlink:href="img/taninogimuretsuto.png" width="100px" height="77px" preserveAspectRatio="xMinYMin meet" x="164.5" y="-77"/>
<text text-anchor="middle" x="214.5" y="-32.33" font-family="Times New Roman,serif" font-size="14.00">タニノギムレット</text>
</g>
<!-- ブライアンズタイム -->
<g id="node2" class="node">
<title>ブライアンズタイム</title>
<polygon fill="lightblue" stroke="lightblue" points="209.62,-190 65.38,-190 65.38,-113 209.62,-113 209.62,-190"/>
<image xlink:href="img/mob.png" width="100px" height="77px" preserveAspectRatio="xMinYMin meet" x="87.5" y="-190"/>
<text text-anchor="middle" x="137.5" y="-145.7" font-family="MS Gothic" font-size="14.00">ブライアンズタイム</text>
</g>
<!-- ブライアンズタイム&#45;&gt;タニノギムレット -->
<g id="edge1" class="edge">
<title>ブライアンズタイム&#45;&gt;タニノギムレット</title>
<path fill="none" stroke="black" d="M163.78,-112.61C169.61,-104.22 175.85,-95.22 181.89,-86.51"/>
<polygon fill="black" stroke="black" points="184.65,-88.67 187.47,-78.46 178.9,-84.68 184.65,-88.67"/>
</g>
<!-- タニノクリスタル -->
<g id="node3" class="node">
<title>タニノクリスタル</title>
<polygon fill="lightcoral" stroke="lightcoral" points="357.5,-190 227.5,-190 227.5,-113 357.5,-113 357.5,-190"/>
<image xlink:href="img/mob.png" width="100px" height="77px" preserveAspectRatio="xMinYMin meet" x="242.5" y="-190"/>
<text text-anchor="middle" x="292.5" y="-145.7" font-family="MS Gothic" font-size="14.00">タニノクリスタル</text>
</g>
<!-- タニノクリスタル&#45;&gt;タニノギムレット -->
<g id="edge2" class="edge">
<title>タニノクリスタル&#45;&gt;タニノギムレット</title>
<path fill="none" stroke="black" d="M265.87,-112.61C259.98,-104.22 253.66,-95.22 247.54,-86.51"/>
<polygon fill="black" stroke="black" points="250.49,-84.63 241.88,-78.46 244.76,-88.65 250.49,-84.63"/>
</g>
<!-- Roberto -->
<g id="node4" class="node">
<title>Roberto</title>
<polygon fill="lightblue" stroke="lightblue" points="77,-303 0,-303 0,-226 77,-226 77,-303"/>
<image xlink:href="img/mob.png" width="77px" height="77px" preserveAspectRatio="xMinYMin meet" x="0" y="-303"/>
<text text-anchor="middle" x="38.5" y="-258.7" font-family="MS Gothic" font-size="14.00">Roberto</text>
</g>
<!-- Roberto&#45;&gt;ブライアンズタイム -->
<g id="edge3" class="edge">
<title>Roberto&#45;&gt;ブライアンズタイム</title>
<path fill="none" stroke="black" d="M72.29,-225.61C80.02,-216.95 88.31,-207.65 96.31,-198.68"/>
<polygon fill="black" stroke="black" points="98.81,-201.14 102.85,-191.35 93.58,-196.48 98.81,-201.14"/>
</g>
<!-- Kelley&#39;s Day -->
<g id="node5" class="node">
<title>Kelley&#39;s Day</title>
<polygon fill="lightcoral" stroke="lightcoral" points="192,-303 95,-303 95,-226 192,-226 192,-303"/>
<image xlink:href="img/mob.png" width="97px" height="77px" preserveAspectRatio="xMinYMin meet" x="95" y="-303"/>
<text text-anchor="middle" x="143.5" y="-258.7" font-family="MS Gothic" font-size="14.00">Kelley&#39;s Day</text>
</g>
<!-- Kelley&#39;s Day&#45;&gt;ブライアンズタイム -->
<g id="edge4" class="edge">
<title>Kelley&#39;s Day&#45;&gt;ブライアンズタイム</title>
<path fill="none" stroke="black" d="M141.45,-225.61C141.03,-217.84 140.58,-209.56 140.15,-201.46"/>
<polygon fill="black" stroke="black" points="143.66,-201.53 139.62,-191.73 136.67,-201.9 143.66,-201.53"/>
</g>
<!-- クリスタルパレス -->
<g id="node6" class="node">
<title>クリスタルパレス</title>
<polygon fill="lightblue" stroke="lightblue" points="351.5,-303 221.5,-303 221.5,-226 351.5,-226 351.5,-303"/>
<image xlink:href="img/mob.png" width="100px" height="77px" preserveAspectRatio="xMinYMin meet" x="236.5" y="-303"/>
<text text-anchor="middle" x="286.5" y="-258.7" font-family="MS Gothic" font-size="14.00">クリスタルパレス</text>
</g>
<!-- クリスタルパレス&#45;&gt;タニノクリスタル -->
<g id="edge5" class="edge">
<title>クリスタルパレス&#45;&gt;タニノクリスタル</title>
<path fill="none" stroke="black" d="M288.55,-225.61C288.97,-217.84 289.42,-209.56 289.85,-201.46"/>
<polygon fill="black" stroke="black" points="293.33,-201.9 290.38,-191.73 286.34,-201.53 293.33,-201.9"/>
</g>
<!-- タニノシーバード -->
<g id="node7" class="node">
<title>タニノシーバード</title>
<polygon fill="lightcoral" stroke="lightcoral" points="499.5,-303 369.5,-303 369.5,-226 499.5,-226 499.5,-303"/>
<image xlink:href="img/mob.png" width="100px" height="77px" preserveAspectRatio="xMinYMin meet" x="384.5" y="-303"/>
<text text-anchor="middle" x="434.5" y="-258.7" font-family="MS Gothic" font-size="14.00">タニノシーバード</text>
</g>
<!-- タニノシーバード&#45;&gt;タニノクリスタル -->
<g id="edge6" class="edge">
<title>タニノシーバード&#45;&gt;タニノクリスタル</title>
<path fill="none" stroke="black" d="M386.03,-225.61C374.38,-216.5 361.82,-206.69 349.81,-197.3"/>
<polygon fill="black" stroke="black" points="351.98,-194.55 341.95,-191.15 347.67,-200.07 351.98,-194.55"/>
</g>
</g>
</svg>
