<?xml version="1.0" encoding="UTF-8" standalone="no"?>
<!DOCTYPE svg PUBLIC "-//W3C//DTD SVG 1.1//EN"
 "http://www.w3.org/Graphics/SVG/1.1/DTD/svg11.dtd">
<!-- Generated by graphviz version 12.1.2 (20240928.0832)
 -->
<!-- Pages: 1 -->
<svg width="485pt" height="311pt"
 viewBox="0.00 0.00 485.25 311.00" xmlns="http://www.w3.org/2000/svg" xmlns:xlink="http://www.w3.org/1999/xlink">
<g id="graph0" class="graph" transform="scale(1 1) rotate(0) translate(4 307)">
<polygon fill="white" stroke="none" points="-4,4 -4,-307 481.25,-307 481.25,4 -4,4"/>
<!-- ダイイチルビー -->
<g id="node1" class="node">
<title>ダイイチルビー</title>
<polygon fill="none" stroke="black" points="339.12,-77 202.38,-77 202.38,0 339.12,0 339.12,-77"/>
<image xlink:href="img/daiichirubi.png" width="100px" height="77px" preserveAspectRatio="xMinYMin meet" x="220.75" y="-77"/>
<text text-anchor="middle" x="270.75" y="-32.33" font-family="Times New Roman,serif" font-size="14.00">ダイイチルビー</text>
</g>
<!-- トウショウボーイ -->
<g id="node2" class="node">
<title>トウショウボーイ</title>
<polygon fill="lightblue" stroke="lightblue" points="258.75,-190 128.75,-190 128.75,-113 258.75,-113 258.75,-190"/>
<image xlink:href="img/mob.png" width="100px" height="77px" preserveAspectRatio="xMinYMin meet" x="143.75" y="-190"/>
<text text-anchor="middle" x="193.75" y="-145.7" font-family="MS Gothic" font-size="14.00">トウショウボーイ</text>
</g>
<!-- トウショウボーイ&#45;&gt;ダイイチルビー -->
<g id="edge1" class="edge">
<title>トウショウボーイ&#45;&gt;ダイイチルビー</title>
<path fill="none" stroke="black" d="M220.03,-112.61C225.86,-104.22 232.1,-95.22 238.14,-86.51"/>
<polygon fill="black" stroke="black" points="240.9,-88.67 243.72,-78.46 235.15,-84.68 240.9,-88.67"/>
</g>
<!-- ハギノトップレディ -->
<g id="node3" class="node">
<title>ハギノトップレディ</title>
<polygon fill="lightcoral" stroke="lightcoral" points="420.88,-190 276.62,-190 276.62,-113 420.88,-113 420.88,-190"/>
<image xlink:href="img/mob.png" width="100px" height="77px" preserveAspectRatio="xMinYMin meet" x="298.75" y="-190"/>
<text text-anchor="middle" x="348.75" y="-145.7" font-family="MS Gothic" font-size="14.00">ハギノトップレディ</text>
</g>
<!-- ハギノトップレディ&#45;&gt;ダイイチルビー -->
<g id="edge2" class="edge">
<title>ハギノトップレディ&#45;&gt;ダイイチルビー</title>
<path fill="none" stroke="black" d="M322.12,-112.61C316.23,-104.22 309.91,-95.22 303.79,-86.51"/>
<polygon fill="black" stroke="black" points="306.74,-84.63 298.13,-78.46 301.01,-88.65 306.74,-84.63"/>
</g>
<!-- テスコボーイ -->
<g id="node4" class="node">
<title>テスコボーイ</title>
<polygon fill="lightblue" stroke="lightblue" points="101.5,-303 0,-303 0,-226 101.5,-226 101.5,-303"/>
<image xlink:href="img/mob.png" width="100px" height="77px" preserveAspectRatio="xMinYMin meet" x="0.75" y="-303"/>
<text text-anchor="middle" x="50.75" y="-258.7" font-family="MS Gothic" font-size="14.00">テスコボーイ</text>
</g>
<!-- テスコボーイ&#45;&gt;トウショウボーイ -->
<g id="edge3" class="edge">
<title>テスコボーイ&#45;&gt;トウショウボーイ</title>
<path fill="none" stroke="black" d="M99.56,-225.61C111.41,-216.41 124.19,-206.49 136.39,-197.02"/>
<polygon fill="black" stroke="black" points="138.21,-200.04 143.96,-191.15 133.92,-194.51 138.21,-200.04"/>
</g>
<!-- ソシアルバターフライ -->
<g id="node5" class="node">
<title>ソシアルバターフライ</title>
<polygon fill="lightcoral" stroke="lightcoral" points="278,-303 119.5,-303 119.5,-226 278,-226 278,-303"/>
<image xlink:href="img/mob.png" width="100px" height="77px" preserveAspectRatio="xMinYMin meet" x="148.75" y="-303"/>
<text text-anchor="middle" x="198.75" y="-258.7" font-family="MS Gothic" font-size="14.00">ソシアルバターフライ</text>
</g>
<!-- ソシアルバターフライ&#45;&gt;トウショウボーイ -->
<g id="edge4" class="edge">
<title>ソシアルバターフライ&#45;&gt;トウショウボーイ</title>
<path fill="none" stroke="black" d="M197.04,-225.61C196.69,-217.84 196.32,-209.56 195.96,-201.46"/>
<polygon fill="black" stroke="black" points="199.46,-201.56 195.52,-191.73 192.47,-201.88 199.46,-201.56"/>
</g>
<!-- サンシー -->
<g id="node6" class="node">
<title>サンシー</title>
<polygon fill="lightblue" stroke="lightblue" points="382.25,-303 305.25,-303 305.25,-226 382.25,-226 382.25,-303"/>
<image xlink:href="img/mob.png" width="77px" height="77px" preserveAspectRatio="xMinYMin meet" x="305.25" y="-303"/>
<text text-anchor="middle" x="343.75" y="-258.7" font-family="MS Gothic" font-size="14.00">サンシー</text>
</g>
<!-- サンシー&#45;&gt;ハギノトップレディ -->
<g id="edge5" class="edge">
<title>サンシー&#45;&gt;ハギノトップレディ</title>
<path fill="none" stroke="black" d="M345.46,-225.61C345.81,-217.84 346.18,-209.56 346.54,-201.46"/>
<polygon fill="black" stroke="black" points="350.03,-201.88 346.98,-191.73 343.04,-201.56 350.03,-201.88"/>
</g>
<!-- イツトー -->
<g id="node7" class="node">
<title>イツトー</title>
<polygon fill="lightcoral" stroke="lightcoral" points="477.25,-303 400.25,-303 400.25,-226 477.25,-226 477.25,-303"/>
<image xlink:href="img/mob.png" width="77px" height="77px" preserveAspectRatio="xMinYMin meet" x="400.25" y="-303"/>
<text text-anchor="middle" x="438.75" y="-258.7" font-family="MS Gothic" font-size="14.00">イツトー</text>
</g>
<!-- イツトー&#45;&gt;ハギノトップレディ -->
<g id="edge6" class="edge">
<title>イツトー&#45;&gt;ハギノトップレディ</title>
<path fill="none" stroke="black" d="M408.03,-225.61C401.08,-217.04 393.62,-207.84 386.42,-198.96"/>
<polygon fill="black" stroke="black" points="389.3,-196.96 380.29,-191.39 383.87,-201.37 389.3,-196.96"/>
</g>
</g>
</svg>
