<?xml version="1.0" encoding="UTF-8" standalone="no"?>
<!DOCTYPE svg PUBLIC "-//W3C//DTD SVG 1.1//EN"
 "http://www.w3.org/Graphics/SVG/1.1/DTD/svg11.dtd">
<!-- Generated by graphviz version 12.1.2 (20240928.0832)
 -->
<!-- Pages: 1 -->
<svg width="554pt" height="311pt"
 viewBox="0.00 0.00 554.00 311.00" xmlns="http://www.w3.org/2000/svg" xmlns:xlink="http://www.w3.org/1999/xlink">
<g id="graph0" class="graph" transform="scale(1 1) rotate(0) translate(4 307)">
<polygon fill="white" stroke="none" points="-4,4 -4,-307 550,-307 550,4 -4,4"/>
<!-- ダイタクヘリオス -->
<g id="node1" class="node">
<title>ダイタクヘリオス</title>
<polygon fill="none" stroke="black" points="335.88,-77 181.88,-77 181.88,0 335.88,0 335.88,-77"/>
<image xlink:href="img/daitakuheriosu.png" width="100px" height="77px" preserveAspectRatio="xMinYMin meet" x="208.875" y="-77"/>
<text text-anchor="middle" x="258.88" y="-32.33" font-family="Times New Roman,serif" font-size="14.00">ダイタクヘリオス</text>
</g>
<!-- ビゼンニシキ -->
<g id="node2" class="node">
<title>ビゼンニシキ</title>
<polygon fill="lightblue" stroke="lightblue" points="242.62,-190 141.12,-190 141.12,-113 242.62,-113 242.62,-190"/>
<image xlink:href="img/mob.png" width="100px" height="77px" preserveAspectRatio="xMinYMin meet" x="141.875" y="-190"/>
<text text-anchor="middle" x="191.88" y="-145.7" font-family="MS Gothic" font-size="14.00">ビゼンニシキ</text>
</g>
<!-- ビゼンニシキ&#45;&gt;ダイタクヘリオス -->
<g id="edge1" class="edge">
<title>ビゼンニシキ&#45;&gt;ダイタクヘリオス</title>
<path fill="none" stroke="black" d="M214.75,-112.61C219.7,-104.39 225.01,-95.6 230.16,-87.07"/>
<polygon fill="black" stroke="black" points="233.15,-88.88 235.33,-78.51 227.16,-85.27 233.15,-88.88"/>
</g>
<!-- ネヴアーイチバン -->
<g id="node3" class="node">
<title>ネヴアーイチバン</title>
<polygon fill="lightcoral" stroke="lightcoral" points="390.88,-190 260.88,-190 260.88,-113 390.88,-113 390.88,-190"/>
<image xlink:href="img/mob.png" width="100px" height="77px" preserveAspectRatio="xMinYMin meet" x="275.875" y="-190"/>
<text text-anchor="middle" x="325.88" y="-145.7" font-family="MS Gothic" font-size="14.00">ネヴアーイチバン</text>
</g>
<!-- ネヴアーイチバン&#45;&gt;ダイタクヘリオス -->
<g id="edge2" class="edge">
<title>ネヴアーイチバン&#45;&gt;ダイタクヘリオス</title>
<path fill="none" stroke="black" d="M303,-112.61C298.05,-104.39 292.74,-95.6 287.59,-87.07"/>
<polygon fill="black" stroke="black" points="290.59,-85.27 282.42,-78.51 284.6,-88.88 290.59,-85.27"/>
</g>
<!-- ダンディルート -->
<g id="node4" class="node">
<title>ダンディルート</title>
<polygon fill="lightblue" stroke="lightblue" points="115.75,-303 0,-303 0,-226 115.75,-226 115.75,-303"/>
<image xlink:href="img/mob.png" width="100px" height="77px" preserveAspectRatio="xMinYMin meet" x="7.875" y="-303"/>
<text text-anchor="middle" x="57.88" y="-258.7" font-family="MS Gothic" font-size="14.00">ダンディルート</text>
</g>
<!-- ダンディルート&#45;&gt;ビゼンニシキ -->
<g id="edge3" class="edge">
<title>ダンディルート&#45;&gt;ビゼンニシキ</title>
<path fill="none" stroke="black" d="M103.62,-225.61C114.61,-216.5 126.46,-206.69 137.8,-197.3"/>
<polygon fill="black" stroke="black" points="139.71,-200.26 145.18,-191.18 135.24,-194.87 139.71,-200.26"/>
</g>
<!-- ベニバナビゼン -->
<g id="node5" class="node">
<title>ベニバナビゼン</title>
<polygon fill="lightcoral" stroke="lightcoral" points="249.75,-303 134,-303 134,-226 249.75,-226 249.75,-303"/>
<image xlink:href="img/mob.png" width="100px" height="77px" preserveAspectRatio="xMinYMin meet" x="141.875" y="-303"/>
<text text-anchor="middle" x="191.88" y="-258.7" font-family="MS Gothic" font-size="14.00">ベニバナビゼン</text>
</g>
<!-- ベニバナビゼン&#45;&gt;ビゼンニシキ -->
<g id="edge4" class="edge">
<title>ベニバナビゼン&#45;&gt;ビゼンニシキ</title>
<path fill="none" stroke="black" d="M191.88,-225.61C191.88,-217.84 191.88,-209.56 191.88,-201.46"/>
<polygon fill="black" stroke="black" points="195.38,-201.73 191.88,-191.73 188.38,-201.73 195.38,-201.73"/>
</g>
<!-- ネヴァービート -->
<g id="node6" class="node">
<title>ネヴァービート</title>
<polygon fill="lightblue" stroke="lightblue" points="383.75,-303 268,-303 268,-226 383.75,-226 383.75,-303"/>
<image xlink:href="img/mob.png" width="100px" height="77px" preserveAspectRatio="xMinYMin meet" x="275.875" y="-303"/>
<text text-anchor="middle" x="325.88" y="-258.7" font-family="MS Gothic" font-size="14.00">ネヴァービート</text>
</g>
<!-- ネヴァービート&#45;&gt;ネヴアーイチバン -->
<g id="edge5" class="edge">
<title>ネヴァービート&#45;&gt;ネヴアーイチバン</title>
<path fill="none" stroke="black" d="M325.88,-225.61C325.88,-217.84 325.88,-209.56 325.88,-201.46"/>
<polygon fill="black" stroke="black" points="329.38,-201.73 325.88,-191.73 322.38,-201.73 329.38,-201.73"/>
</g>
<!-- ミスナンバイチバン -->
<g id="node7" class="node">
<title>ミスナンバイチバン</title>
<polygon fill="lightcoral" stroke="lightcoral" points="546,-303 401.75,-303 401.75,-226 546,-226 546,-303"/>
<image xlink:href="img/mob.png" width="100px" height="77px" preserveAspectRatio="xMinYMin meet" x="423.875" y="-303"/>
<text text-anchor="middle" x="473.88" y="-258.7" font-family="MS Gothic" font-size="14.00">ミスナンバイチバン</text>
</g>
<!-- ミスナンバイチバン&#45;&gt;ネヴアーイチバン -->
<g id="edge6" class="edge">
<title>ミスナンバイチバン&#45;&gt;ネヴアーイチバン</title>
<path fill="none" stroke="black" d="M423.36,-225.61C411.16,-216.46 398.01,-206.6 385.45,-197.18"/>
<polygon fill="black" stroke="black" points="387.73,-194.52 377.63,-191.32 383.53,-200.12 387.73,-194.52"/>
</g>
</g>
</svg>
