<?xml version="1.0" encoding="UTF-8" standalone="no"?>
<!DOCTYPE svg PUBLIC "-//W3C//DTD SVG 1.1//EN"
 "http://www.w3.org/Graphics/SVG/1.1/DTD/svg11.dtd">
<!-- Generated by graphviz version 12.1.2 (20240928.0832)
 -->
<!-- Pages: 1 -->
<svg width="446pt" height="311pt"
 viewBox="0.00 0.00 446.25 311.00" xmlns="http://www.w3.org/2000/svg" xmlns:xlink="http://www.w3.org/1999/xlink">
<g id="graph0" class="graph" transform="scale(1 1) rotate(0) translate(4 307)">
<polygon fill="white" stroke="none" points="-4,4 -4,-307 442.25,-307 442.25,4 -4,4"/>
<!-- ダンツフレーム -->
<g id="node1" class="node">
<title>ダンツフレーム</title>
<polygon fill="none" stroke="black" points="276.88,-77 140.12,-77 140.12,0 276.88,0 276.88,-77"/>
<image xlink:href="img/dantsuhuremu.png" width="100px" height="77px" preserveAspectRatio="xMinYMin meet" x="158.5" y="-77"/>
<text text-anchor="middle" x="208.5" y="-32.33" font-family="Times New Roman,serif" font-size="14.00">ダンツフレーム</text>
</g>
<!-- ブライアンズタイム -->
<g id="node2" class="node">
<title>ブライアンズタイム</title>
<polygon fill="lightblue" stroke="lightblue" points="203.62,-190 59.38,-190 59.38,-113 203.62,-113 203.62,-190"/>
<image xlink:href="img/mob.png" width="100px" height="77px" preserveAspectRatio="xMinYMin meet" x="81.5" y="-190"/>
<text text-anchor="middle" x="131.5" y="-145.7" font-family="MS Gothic" font-size="14.00">ブライアンズタイム</text>
</g>
<!-- ブライアンズタイム&#45;&gt;ダンツフレーム -->
<g id="edge1" class="edge">
<title>ブライアンズタイム&#45;&gt;ダンツフレーム</title>
<path fill="none" stroke="black" d="M157.78,-112.61C163.61,-104.22 169.85,-95.22 175.89,-86.51"/>
<polygon fill="black" stroke="black" points="178.65,-88.67 181.47,-78.46 172.9,-84.68 178.65,-88.67"/>
</g>
<!-- インターピレネー -->
<g id="node3" class="node">
<title>インターピレネー</title>
<polygon fill="lightcoral" stroke="lightcoral" points="351.5,-190 221.5,-190 221.5,-113 351.5,-113 351.5,-190"/>
<image xlink:href="img/mob.png" width="100px" height="77px" preserveAspectRatio="xMinYMin meet" x="236.5" y="-190"/>
<text text-anchor="middle" x="286.5" y="-145.7" font-family="MS Gothic" font-size="14.00">インターピレネー</text>
</g>
<!-- インターピレネー&#45;&gt;ダンツフレーム -->
<g id="edge2" class="edge">
<title>インターピレネー&#45;&gt;ダンツフレーム</title>
<path fill="none" stroke="black" d="M259.87,-112.61C253.98,-104.22 247.66,-95.22 241.54,-86.51"/>
<polygon fill="black" stroke="black" points="244.49,-84.63 235.88,-78.46 238.76,-88.65 244.49,-84.63"/>
</g>
<!-- Roberto -->
<g id="node4" class="node">
<title>Roberto</title>
<polygon fill="lightblue" stroke="lightblue" points="77,-303 0,-303 0,-226 77,-226 77,-303"/>
<image xlink:href="img/mob.png" width="77px" height="77px" preserveAspectRatio="xMinYMin meet" x="0" y="-303"/>
<text text-anchor="middle" x="38.5" y="-258.7" font-family="MS Gothic" font-size="14.00">Roberto</text>
</g>
<!-- Roberto&#45;&gt;ブライアンズタイム -->
<g id="edge3" class="edge">
<title>Roberto&#45;&gt;ブライアンズタイム</title>
<path fill="none" stroke="black" d="M70.25,-225.61C77.43,-217.04 85.13,-207.84 92.58,-198.96"/>
<polygon fill="black" stroke="black" points="95.19,-201.29 98.93,-191.38 89.82,-196.8 95.19,-201.29"/>
</g>
<!-- Kelley&#39;s Day -->
<g id="node5" class="node">
<title>Kelley&#39;s Day</title>
<polygon fill="lightcoral" stroke="lightcoral" points="192,-303 95,-303 95,-226 192,-226 192,-303"/>
<image xlink:href="img/mob.png" width="97px" height="77px" preserveAspectRatio="xMinYMin meet" x="95" y="-303"/>
<text text-anchor="middle" x="143.5" y="-258.7" font-family="MS Gothic" font-size="14.00">Kelley&#39;s Day</text>
</g>
<!-- Kelley&#39;s Day&#45;&gt;ブライアンズタイム -->
<g id="edge4" class="edge">
<title>Kelley&#39;s Day&#45;&gt;ブライアンズタイム</title>
<path fill="none" stroke="black" d="M139.4,-225.61C138.56,-217.84 137.67,-209.56 136.79,-201.46"/>
<polygon fill="black" stroke="black" points="140.3,-201.29 135.74,-191.72 133.34,-202.04 140.3,-201.29"/>
</g>
<!-- サンキリコ -->
<g id="node6" class="node">
<title>サンキリコ</title>
<polygon fill="lightblue" stroke="lightblue" points="319.12,-303 231.88,-303 231.88,-226 319.12,-226 319.12,-303"/>
<image xlink:href="img/mob.png" width="87.25px" height="77px" preserveAspectRatio="xMinYMin meet" x="231.875" y="-303"/>
<text text-anchor="middle" x="275.5" y="-258.7" font-family="MS Gothic" font-size="14.00">サンキリコ</text>
</g>
<!-- サンキリコ&#45;&gt;インターピレネー -->
<g id="edge5" class="edge">
<title>サンキリコ&#45;&gt;インターピレネー</title>
<path fill="none" stroke="black" d="M279.25,-225.61C280.02,-217.84 280.85,-209.56 281.65,-201.46"/>
<polygon fill="black" stroke="black" points="285.11,-202.02 282.61,-191.72 278.14,-201.33 285.11,-202.02"/>
</g>
<!-- モンテマリア -->
<g id="node7" class="node">
<title>モンテマリア</title>
<polygon fill="lightcoral" stroke="lightcoral" points="438.25,-303 336.75,-303 336.75,-226 438.25,-226 438.25,-303"/>
<image xlink:href="img/mob.png" width="100px" height="77px" preserveAspectRatio="xMinYMin meet" x="337.5" y="-303"/>
<text text-anchor="middle" x="387.5" y="-258.7" font-family="MS Gothic" font-size="14.00">モンテマリア</text>
</g>
<!-- モンテマリア&#45;&gt;インターピレネー -->
<g id="edge6" class="edge">
<title>モンテマリア&#45;&gt;インターピレネー</title>
<path fill="none" stroke="black" d="M353.02,-225.61C345.14,-216.95 336.68,-207.65 328.52,-198.68"/>
<polygon fill="black" stroke="black" points="331.16,-196.38 321.84,-191.34 325.98,-201.09 331.16,-196.38"/>
</g>
</g>
</svg>
