<?xml version="1.0" encoding="UTF-8" standalone="no"?>
<!DOCTYPE svg PUBLIC "-//W3C//DTD SVG 1.1//EN"
 "http://www.w3.org/Graphics/SVG/1.1/DTD/svg11.dtd">
<!-- Generated by graphviz version 12.1.2 (20240928.0832)
 -->
<!-- Pages: 1 -->
<svg width="447pt" height="311pt"
 viewBox="0.00 0.00 446.50 311.00" xmlns="http://www.w3.org/2000/svg" xmlns:xlink="http://www.w3.org/1999/xlink">
<g id="graph0" class="graph" transform="scale(1 1) rotate(0) translate(4 307)">
<polygon fill="white" stroke="none" points="-4,4 -4,-307 442.5,-307 442.5,4 -4,4"/>
<!-- ツインターボ -->
<g id="node1" class="node">
<title>ツインターボ</title>
<polygon fill="none" stroke="black" points="251.25,-77 131.75,-77 131.75,0 251.25,0 251.25,-77"/>
<image xlink:href="img/tsuintabo.png" width="100px" height="77px" preserveAspectRatio="xMinYMin meet" x="141.5" y="-77"/>
<text text-anchor="middle" x="191.5" y="-32.33" font-family="Times New Roman,serif" font-size="14.00">ツインターボ</text>
</g>
<!-- ライラリッジ -->
<g id="node2" class="node">
<title>ライラリッジ</title>
<polygon fill="lightblue" stroke="lightblue" points="172.25,-190 70.75,-190 70.75,-113 172.25,-113 172.25,-190"/>
<image xlink:href="img/mob.png" width="100px" height="77px" preserveAspectRatio="xMinYMin meet" x="71.5" y="-190"/>
<text text-anchor="middle" x="121.5" y="-145.7" font-family="MS Gothic" font-size="14.00">ライラリッジ</text>
</g>
<!-- ライラリッジ&#45;&gt;ツインターボ -->
<g id="edge1" class="edge">
<title>ライラリッジ&#45;&gt;ツインターボ</title>
<path fill="none" stroke="black" d="M145.39,-112.61C150.63,-104.31 156.24,-95.41 161.68,-86.79"/>
<polygon fill="black" stroke="black" points="164.53,-88.82 166.91,-78.5 158.61,-85.09 164.53,-88.82"/>
</g>
<!-- レーシングジイーン -->
<g id="node3" class="node">
<title>レーシングジイーン</title>
<polygon fill="lightcoral" stroke="lightcoral" points="334.62,-190 190.38,-190 190.38,-113 334.62,-113 334.62,-190"/>
<image xlink:href="img/mob.png" width="100px" height="77px" preserveAspectRatio="xMinYMin meet" x="212.5" y="-190"/>
<text text-anchor="middle" x="262.5" y="-145.7" font-family="MS Gothic" font-size="14.00">レーシングジイーン</text>
</g>
<!-- レーシングジイーン&#45;&gt;ツインターボ -->
<g id="edge2" class="edge">
<title>レーシングジイーン&#45;&gt;ツインターボ</title>
<path fill="none" stroke="black" d="M238.26,-112.61C232.95,-104.31 227.26,-95.41 221.75,-86.79"/>
<polygon fill="black" stroke="black" points="224.78,-85.03 216.44,-78.49 218.88,-88.8 224.78,-85.03"/>
</g>
<!-- Lyphard -->
<g id="node4" class="node">
<title>Lyphard</title>
<polygon fill="lightblue" stroke="lightblue" points="77,-303 0,-303 0,-226 77,-226 77,-303"/>
<image xlink:href="img/mob.png" width="77px" height="77px" preserveAspectRatio="xMinYMin meet" x="0" y="-303"/>
<text text-anchor="middle" x="38.5" y="-258.7" font-family="MS Gothic" font-size="14.00">Lyphard</text>
</g>
<!-- Lyphard&#45;&gt;ライラリッジ -->
<g id="edge3" class="edge">
<title>Lyphard&#45;&gt;ライラリッジ</title>
<path fill="none" stroke="black" d="M66.83,-225.61C73.18,-217.13 79.98,-208.03 86.55,-199.24"/>
<polygon fill="black" stroke="black" points="89.2,-201.54 92.39,-191.43 83.6,-197.34 89.2,-201.54"/>
</g>
<!-- Riverside -->
<g id="node5" class="node">
<title>Riverside</title>
<polygon fill="lightcoral" stroke="lightcoral" points="172,-303 95,-303 95,-226 172,-226 172,-303"/>
<image xlink:href="img/mob.png" width="77px" height="77px" preserveAspectRatio="xMinYMin meet" x="95" y="-303"/>
<text text-anchor="middle" x="133.5" y="-258.7" font-family="MS Gothic" font-size="14.00">Riverside</text>
</g>
<!-- Riverside&#45;&gt;ライラリッジ -->
<g id="edge4" class="edge">
<title>Riverside&#45;&gt;ライラリッジ</title>
<path fill="none" stroke="black" d="M129.4,-225.61C128.56,-217.84 127.67,-209.56 126.79,-201.46"/>
<polygon fill="black" stroke="black" points="130.3,-201.29 125.74,-191.72 123.34,-202.04 130.3,-201.29"/>
</g>
<!-- サンシー -->
<g id="node6" class="node">
<title>サンシー</title>
<polygon fill="lightblue" stroke="lightblue" points="290,-303 213,-303 213,-226 290,-226 290,-303"/>
<image xlink:href="img/mob.png" width="77px" height="77px" preserveAspectRatio="xMinYMin meet" x="213" y="-303"/>
<text text-anchor="middle" x="251.5" y="-258.7" font-family="MS Gothic" font-size="14.00">サンシー</text>
</g>
<!-- サンシー&#45;&gt;レーシングジイーン -->
<g id="edge5" class="edge">
<title>サンシー&#45;&gt;レーシングジイーン</title>
<path fill="none" stroke="black" d="M255.25,-225.61C256.02,-217.84 256.85,-209.56 257.65,-201.46"/>
<polygon fill="black" stroke="black" points="261.11,-202.02 258.61,-191.72 254.14,-201.33 261.11,-202.02"/>
</g>
<!-- マウタジョウオー -->
<g id="node7" class="node">
<title>マウタジョウオー</title>
<polygon fill="lightcoral" stroke="lightcoral" points="438.5,-303 308.5,-303 308.5,-226 438.5,-226 438.5,-303"/>
<image xlink:href="img/mob.png" width="100px" height="77px" preserveAspectRatio="xMinYMin meet" x="323.5" y="-303"/>
<text text-anchor="middle" x="373.5" y="-258.7" font-family="MS Gothic" font-size="14.00">マウタジョウオー</text>
</g>
<!-- マウタジョウオー&#45;&gt;レーシングジイーン -->
<g id="edge6" class="edge">
<title>マウタジョウオー&#45;&gt;レーシングジイーン</title>
<path fill="none" stroke="black" d="M335.61,-225.61C326.77,-216.77 317.26,-207.26 308.13,-198.13"/>
<polygon fill="black" stroke="black" points="310.83,-195.89 301.29,-191.29 305.89,-200.83 310.83,-195.89"/>
</g>
</g>
</svg>
