<?xml version="1.0" encoding="UTF-8" standalone="no"?>
<!DOCTYPE svg PUBLIC "-//W3C//DTD SVG 1.1//EN"
 "http://www.w3.org/Graphics/SVG/1.1/DTD/svg11.dtd">
<!-- Generated by graphviz version 12.1.2 (20240928.0832)
 -->
<!-- Pages: 1 -->
<svg width="442pt" height="311pt"
 viewBox="0.00 0.00 441.75 311.00" xmlns="http://www.w3.org/2000/svg" xmlns:xlink="http://www.w3.org/1999/xlink">
<g id="graph0" class="graph" transform="scale(1 1) rotate(0) translate(4 307)">
<polygon fill="white" stroke="none" points="-4,4 -4,-307 437.75,-307 437.75,4 -4,4"/>
<!-- テイエムオペラオー -->
<g id="node1" class="node">
<title>テイエムオペラオー</title>
<polygon fill="none" stroke="black" points="310.88,-77 139.62,-77 139.62,0 310.88,0 310.88,-77"/>
<image xlink:href="img/teiemuoperao.png" width="100px" height="77px" preserveAspectRatio="xMinYMin meet" x="175.25" y="-77"/>
<text text-anchor="middle" x="225.25" y="-32.33" font-family="Times New Roman,serif" font-size="14.00">テイエムオペラオー</text>
</g>
<!-- オペラハウス -->
<g id="node2" class="node">
<title>オペラハウス</title>
<polygon fill="lightblue" stroke="lightblue" points="216,-190 114.5,-190 114.5,-113 216,-113 216,-190"/>
<image xlink:href="img/mob.png" width="100px" height="77px" preserveAspectRatio="xMinYMin meet" x="115.25" y="-190"/>
<text text-anchor="middle" x="165.25" y="-145.7" font-family="MS Gothic" font-size="14.00">オペラハウス</text>
</g>
<!-- オペラハウス&#45;&gt;テイエムオペラオー -->
<g id="edge1" class="edge">
<title>オペラハウス&#45;&gt;テイエムオペラオー</title>
<path fill="none" stroke="black" d="M185.73,-112.61C190.17,-104.39 194.92,-95.6 199.54,-87.07"/>
<polygon fill="black" stroke="black" points="202.47,-89.01 204.14,-78.55 196.31,-85.68 202.47,-89.01"/>
</g>
<!-- ワンスウエド -->
<g id="node3" class="node">
<title>ワンスウエド</title>
<polygon fill="lightcoral" stroke="lightcoral" points="336,-190 234.5,-190 234.5,-113 336,-113 336,-190"/>
<image xlink:href="img/mob.png" width="100px" height="77px" preserveAspectRatio="xMinYMin meet" x="235.25" y="-190"/>
<text text-anchor="middle" x="285.25" y="-145.7" font-family="MS Gothic" font-size="14.00">ワンスウエド</text>
</g>
<!-- ワンスウエド&#45;&gt;テイエムオペラオー -->
<g id="edge2" class="edge">
<title>ワンスウエド&#45;&gt;テイエムオペラオー</title>
<path fill="none" stroke="black" d="M264.77,-112.61C260.33,-104.39 255.58,-95.6 250.96,-87.07"/>
<polygon fill="black" stroke="black" points="254.19,-85.68 246.36,-78.55 248.03,-89.01 254.19,-85.68"/>
</g>
<!-- Sadler&#39;s Wells -->
<g id="node4" class="node">
<title>Sadler&#39;s Wells</title>
<polygon fill="lightblue" stroke="lightblue" points="110.5,-303 0,-303 0,-226 110.5,-226 110.5,-303"/>
<image xlink:href="img/mob.png" width="100px" height="77px" preserveAspectRatio="xMinYMin meet" x="5.25" y="-303"/>
<text text-anchor="middle" x="55.25" y="-258.7" font-family="MS Gothic" font-size="14.00">Sadler&#39;s Wells</text>
</g>
<!-- Sadler&#39;s Wells&#45;&gt;オペラハウス -->
<g id="edge3" class="edge">
<title>Sadler&#39;s Wells&#45;&gt;オペラハウス</title>
<path fill="none" stroke="black" d="M92.8,-225.61C101.56,-216.77 110.98,-207.26 120.03,-198.13"/>
<polygon fill="black" stroke="black" points="122.25,-200.86 126.81,-191.29 117.28,-195.93 122.25,-200.86"/>
</g>
<!-- Colorspin -->
<g id="node5" class="node">
<title>Colorspin</title>
<polygon fill="lightcoral" stroke="lightcoral" points="205.75,-303 128.75,-303 128.75,-226 205.75,-226 205.75,-303"/>
<image xlink:href="img/mob.png" width="77px" height="77px" preserveAspectRatio="xMinYMin meet" x="128.75" y="-303"/>
<text text-anchor="middle" x="167.25" y="-258.7" font-family="MS Gothic" font-size="14.00">Colorspin</text>
</g>
<!-- Colorspin&#45;&gt;オペラハウス -->
<g id="edge4" class="edge">
<title>Colorspin&#45;&gt;オペラハウス</title>
<path fill="none" stroke="black" d="M166.57,-225.61C166.43,-217.84 166.28,-209.56 166.13,-201.46"/>
<polygon fill="black" stroke="black" points="169.64,-201.67 165.96,-191.73 162.64,-201.79 169.64,-201.67"/>
</g>
<!-- Blushing Groom -->
<g id="node6" class="node">
<title>Blushing Groom</title>
<polygon fill="lightblue" stroke="lightblue" points="338.5,-303 228,-303 228,-226 338.5,-226 338.5,-303"/>
<image xlink:href="img/mob.png" width="100px" height="77px" preserveAspectRatio="xMinYMin meet" x="233.25" y="-303"/>
<text text-anchor="middle" x="283.25" y="-258.7" font-family="MS Gothic" font-size="14.00">Blushing Groom</text>
</g>
<!-- Blushing Groom&#45;&gt;ワンスウエド -->
<g id="edge5" class="edge">
<title>Blushing Groom&#45;&gt;ワンスウエド</title>
<path fill="none" stroke="black" d="M283.93,-225.61C284.07,-217.84 284.22,-209.56 284.37,-201.46"/>
<polygon fill="black" stroke="black" points="287.86,-201.79 284.54,-191.73 280.86,-201.67 287.86,-201.79"/>
</g>
<!-- Noura -->
<g id="node7" class="node">
<title>Noura</title>
<polygon fill="lightcoral" stroke="lightcoral" points="433.75,-303 356.75,-303 356.75,-226 433.75,-226 433.75,-303"/>
<image xlink:href="img/mob.png" width="77px" height="77px" preserveAspectRatio="xMinYMin meet" x="356.75" y="-303"/>
<text text-anchor="middle" x="395.25" y="-258.7" font-family="MS Gothic" font-size="14.00">Noura</text>
</g>
<!-- Noura&#45;&gt;ワンスウエド -->
<g id="edge6" class="edge">
<title>Noura&#45;&gt;ワンスウエド</title>
<path fill="none" stroke="black" d="M357.7,-225.61C348.94,-216.77 339.52,-207.26 330.47,-198.13"/>
<polygon fill="black" stroke="black" points="333.22,-195.93 323.69,-191.29 328.25,-200.86 333.22,-195.93"/>
</g>
</g>
</svg>
