<?xml version="1.0" encoding="UTF-8" standalone="no"?>
<!DOCTYPE svg PUBLIC "-//W3C//DTD SVG 1.1//EN"
 "http://www.w3.org/Graphics/SVG/1.1/DTD/svg11.dtd">
<!-- Generated by graphviz version 12.1.2 (20240928.0832)
 -->
<!-- Pages: 1 -->
<svg width="687pt" height="537pt"
 viewBox="0.00 0.00 686.50 537.00" xmlns="http://www.w3.org/2000/svg" xmlns:xlink="http://www.w3.org/1999/xlink">
<g id="graph0" class="graph" transform="scale(1 1) rotate(0) translate(4 533)">
<polygon fill="white" stroke="none" points="-4,4 -4,-533 682.5,-533 682.5,4 -4,4"/>
<!-- デアリングタクト -->
<g id="node1" class="node">
<title>デアリングタクト</title>
<polygon fill="none" stroke="black" points="474.5,-77 320.5,-77 320.5,0 474.5,0 474.5,-77"/>
<image xlink:href="img/dearingutakuto.png" width="100px" height="77px" preserveAspectRatio="xMinYMin meet" x="347.5" y="-77"/>
<text text-anchor="middle" x="397.5" y="-32.33" font-family="Times New Roman,serif" font-size="14.00">デアリングタクト</text>
</g>
<!-- エピファネイア -->
<g id="node2" class="node">
<title>エピファネイア</title>
<polygon fill="lightblue" stroke="lightblue" points="385.38,-190 269.62,-190 269.62,-113 385.38,-113 385.38,-190"/>
<image xlink:href="img/mob.png" width="100px" height="77px" preserveAspectRatio="xMinYMin meet" x="277.5" y="-190"/>
<text text-anchor="middle" x="327.5" y="-145.7" font-family="MS Gothic" font-size="14.00">エピファネイア</text>
</g>
<!-- エピファネイア&#45;&gt;デアリングタクト -->
<g id="edge1" class="edge">
<title>エピファネイア&#45;&gt;デアリングタクト</title>
<path fill="none" stroke="black" d="M351.39,-112.61C356.63,-104.31 362.24,-95.41 367.68,-86.79"/>
<polygon fill="black" stroke="black" points="370.53,-88.82 372.91,-78.5 364.61,-85.09 370.53,-88.82"/>
</g>
<!-- デアリングバード -->
<g id="node3" class="node">
<title>デアリングバード</title>
<polygon fill="lightcoral" stroke="lightcoral" points="533.5,-190 403.5,-190 403.5,-113 533.5,-113 533.5,-190"/>
<image xlink:href="img/mob.png" width="100px" height="77px" preserveAspectRatio="xMinYMin meet" x="418.5" y="-190"/>
<text text-anchor="middle" x="468.5" y="-145.7" font-family="MS Gothic" font-size="14.00">デアリングバード</text>
</g>
<!-- デアリングバード&#45;&gt;デアリングタクト -->
<g id="edge2" class="edge">
<title>デアリングバード&#45;&gt;デアリングタクト</title>
<path fill="none" stroke="black" d="M444.26,-112.61C438.95,-104.31 433.26,-95.41 427.75,-86.79"/>
<polygon fill="black" stroke="black" points="430.78,-85.03 422.44,-78.49 424.88,-88.8 430.78,-85.03"/>
</g>
<!-- シンボリクリスエス -->
<g id="node4" class="node">
<title>シンボリクリスエス</title>
<polygon fill="lightblue" stroke="lightblue" points="269.62,-303 125.38,-303 125.38,-226 269.62,-226 269.62,-303"/>
<image xlink:href="img/shinborikurisuesu.png" width="100px" height="77px" preserveAspectRatio="xMinYMin meet" x="147.5" y="-303"/>
<text text-anchor="middle" x="197.5" y="-258.7" font-family="MS Gothic" font-size="14.00">シンボリクリスエス</text>
</g>
<!-- シンボリクリスエス&#45;&gt;エピファネイア -->
<g id="edge3" class="edge">
<title>シンボリクリスエス&#45;&gt;エピファネイア</title>
<path fill="none" stroke="black" d="M241.88,-225.61C252.44,-216.59 263.81,-206.88 274.71,-197.57"/>
<polygon fill="black" stroke="black" points="276.84,-200.36 282.17,-191.2 272.3,-195.03 276.84,-200.36"/>
</g>
<!-- シーザリオ -->
<g id="node5" class="node">
<title>シーザリオ</title>
<polygon fill="lightcoral" stroke="lightcoral" points="375.12,-303 287.88,-303 287.88,-226 375.12,-226 375.12,-303"/>
<image xlink:href="img/shizario.png" width="87.25px" height="77px" preserveAspectRatio="xMinYMin meet" x="287.875" y="-303"/>
<text text-anchor="middle" x="331.5" y="-258.7" font-family="MS Gothic" font-size="14.00">シーザリオ</text>
</g>
<!-- シーザリオ&#45;&gt;エピファネイア -->
<g id="edge4" class="edge">
<title>シーザリオ&#45;&gt;エピファネイア</title>
<path fill="none" stroke="black" d="M330.13,-225.61C329.85,-217.84 329.56,-209.56 329.26,-201.46"/>
<polygon fill="black" stroke="black" points="332.77,-201.6 328.91,-191.73 325.78,-201.85 332.77,-201.6"/>
</g>
<!-- キングカメハメハ -->
<g id="node6" class="node">
<title>キングカメハメハ</title>
<polygon fill="lightblue" stroke="lightblue" points="530.5,-303 400.5,-303 400.5,-226 530.5,-226 530.5,-303"/>
<image xlink:href="img/mob.png" width="100px" height="77px" preserveAspectRatio="xMinYMin meet" x="415.5" y="-303"/>
<text text-anchor="middle" x="465.5" y="-258.7" font-family="MS Gothic" font-size="14.00">キングカメハメハ</text>
</g>
<!-- キングカメハメハ&#45;&gt;デアリングバード -->
<g id="edge5" class="edge">
<title>キングカメハメハ&#45;&gt;デアリングバード</title>
<path fill="none" stroke="black" d="M466.52,-225.61C466.73,-217.84 466.96,-209.56 467.18,-201.46"/>
<polygon fill="black" stroke="black" points="470.67,-201.82 467.44,-191.73 463.67,-201.63 470.67,-201.82"/>
</g>
<!-- デアリングハート -->
<g id="node7" class="node">
<title>デアリングハート</title>
<polygon fill="lightcoral" stroke="lightcoral" points="678.5,-303 548.5,-303 548.5,-226 678.5,-226 678.5,-303"/>
<image xlink:href="img/dearinguhato.png" width="100px" height="77px" preserveAspectRatio="xMinYMin meet" x="563.5" y="-303"/>
<text text-anchor="middle" x="613.5" y="-258.7" font-family="MS Gothic" font-size="14.00">デアリングハート</text>
</g>
<!-- デアリングハート&#45;&gt;デアリングバード -->
<g id="edge6" class="edge">
<title>デアリングハート&#45;&gt;デアリングバード</title>
<path fill="none" stroke="black" d="M564,-225.61C551.99,-216.41 539.03,-206.49 526.66,-197.02"/>
<polygon fill="black" stroke="black" points="529.04,-194.44 518.97,-191.14 524.79,-200 529.04,-194.44"/>
</g>
<!-- Kris S. -->
<g id="node8" class="node">
<title>Kris S.</title>
<polygon fill="lightblue" stroke="lightblue" points="179,-416 102,-416 102,-339 179,-339 179,-416"/>
<image xlink:href="img/mob.png" width="77px" height="77px" preserveAspectRatio="xMinYMin meet" x="102" y="-416"/>
<text text-anchor="middle" x="140.5" y="-371.7" font-family="MS Gothic" font-size="14.00">Kris S.</text>
</g>
<!-- Kris S.&#45;&gt;シンボリクリスエス -->
<g id="edge7" class="edge">
<title>Kris S.&#45;&gt;シンボリクリスエス</title>
<path fill="none" stroke="black" d="M159.96,-338.61C164.13,-330.48 168.59,-321.8 172.93,-313.35"/>
<polygon fill="black" stroke="black" points="175.98,-315.06 177.44,-304.57 169.76,-311.86 175.98,-315.06"/>
</g>
<!-- Tee Kay -->
<g id="node9" class="node">
<title>Tee Kay</title>
<polygon fill="lightcoral" stroke="lightcoral" points="294,-416 217,-416 217,-339 294,-339 294,-416"/>
<image xlink:href="img/mob.png" width="77px" height="77px" preserveAspectRatio="xMinYMin meet" x="217" y="-416"/>
<text text-anchor="middle" x="255.5" y="-371.7" font-family="MS Gothic" font-size="14.00">Tee Kay</text>
</g>
<!-- Tee Kay&#45;&gt;シンボリクリスエス -->
<g id="edge8" class="edge">
<title>Tee Kay&#45;&gt;シンボリクリスエス</title>
<path fill="none" stroke="black" d="M235.7,-338.61C231.46,-330.48 226.92,-321.8 222.5,-313.35"/>
<polygon fill="black" stroke="black" points="225.64,-311.8 217.91,-304.56 219.44,-315.04 225.64,-311.8"/>
</g>
<!-- Roberto -->
<g id="node10" class="node">
<title>Roberto</title>
<polygon fill="lightblue" stroke="lightblue" points="77,-529 0,-529 0,-452 77,-452 77,-529"/>
<image xlink:href="img/mob.png" width="77px" height="77px" preserveAspectRatio="xMinYMin meet" x="0" y="-529"/>
<text text-anchor="middle" x="38.5" y="-484.7" font-family="MS Gothic" font-size="14.00">Roberto</text>
</g>
<!-- Roberto&#45;&gt;Kris S. -->
<g id="edge9" class="edge">
<title>Roberto&#45;&gt;Kris S.</title>
<path fill="none" stroke="black" d="M73.32,-451.61C81.28,-442.95 89.82,-433.65 98.06,-424.68"/>
<polygon fill="black" stroke="black" points="100.63,-427.06 104.82,-417.33 95.47,-422.33 100.63,-427.06"/>
</g>
<!-- Sharp Queen -->
<g id="node11" class="node">
<title>Sharp Queen</title>
<polygon fill="lightcoral" stroke="lightcoral" points="185.62,-529 95.38,-529 95.38,-452 185.62,-452 185.62,-529"/>
<image xlink:href="img/mob.png" width="90.25px" height="77px" preserveAspectRatio="xMinYMin meet" x="95.375" y="-529"/>
<text text-anchor="middle" x="140.5" y="-484.7" font-family="MS Gothic" font-size="14.00">Sharp Queen</text>
</g>
<!-- Sharp Queen&#45;&gt;Kris S. -->
<g id="edge10" class="edge">
<title>Sharp Queen&#45;&gt;Kris S.</title>
<path fill="none" stroke="black" d="M140.5,-451.61C140.5,-443.84 140.5,-435.56 140.5,-427.46"/>
<polygon fill="black" stroke="black" points="144,-427.73 140.5,-417.73 137,-427.73 144,-427.73"/>
</g>
<!-- Gold Meridian -->
<g id="node12" class="node">
<title>Gold Meridian</title>
<polygon fill="lightblue" stroke="lightblue" points="307.38,-529 203.62,-529 203.62,-452 307.38,-452 307.38,-529"/>
<image xlink:href="img/mob.png" width="100px" height="77px" preserveAspectRatio="xMinYMin meet" x="205.5" y="-529"/>
<text text-anchor="middle" x="255.5" y="-484.7" font-family="MS Gothic" font-size="14.00">Gold Meridian</text>
</g>
<!-- Gold Meridian&#45;&gt;Tee Kay -->
<g id="edge11" class="edge">
<title>Gold Meridian&#45;&gt;Tee Kay</title>
<path fill="none" stroke="black" d="M255.5,-451.61C255.5,-443.84 255.5,-435.56 255.5,-427.46"/>
<polygon fill="black" stroke="black" points="259,-427.73 255.5,-417.73 252,-427.73 259,-427.73"/>
</g>
<!-- Tri Argo -->
<g id="node13" class="node">
<title>Tri Argo</title>
<polygon fill="lightcoral" stroke="lightcoral" points="402,-529 325,-529 325,-452 402,-452 402,-529"/>
<image xlink:href="img/mob.png" width="77px" height="77px" preserveAspectRatio="xMinYMin meet" x="325" y="-529"/>
<text text-anchor="middle" x="363.5" y="-484.7" font-family="MS Gothic" font-size="14.00">Tri Argo</text>
</g>
<!-- Tri Argo&#45;&gt;Tee Kay -->
<g id="edge12" class="edge">
<title>Tri Argo&#45;&gt;Tee Kay</title>
<path fill="none" stroke="black" d="M326.63,-451.61C318.12,-442.86 308.97,-433.46 300.16,-424.4"/>
<polygon fill="black" stroke="black" points="302.74,-422.03 293.25,-417.3 297.72,-426.91 302.74,-422.03"/>
</g>
</g>
</svg>
