<?xml version="1.0" encoding="UTF-8" standalone="no"?>
<!DOCTYPE svg PUBLIC "-//W3C//DTD SVG 1.1//EN"
 "http://www.w3.org/Graphics/SVG/1.1/DTD/svg11.dtd">
<!-- Generated by graphviz version 12.1.2 (20240928.0832)
 -->
<!-- Pages: 1 -->
<svg width="162pt" height="311pt"
 viewBox="0.00 0.00 162.00 311.00" xmlns="http://www.w3.org/2000/svg" xmlns:xlink="http://www.w3.org/1999/xlink">
<g id="graph0" class="graph" transform="scale(1 1) rotate(0) translate(4 307)">
<polygon fill="white" stroke="none" points="-4,4 -4,-307 158,-307 158,4 -4,4"/>
<!-- デアリングハート -->
<g id="node1" class="node">
<title>デアリングハート</title>
<polygon fill="none" stroke="black" points="154,-77 0,-77 0,0 154,0 154,-77"/>
<image xlink:href="img/dearinguhato.png" width="100px" height="77px" preserveAspectRatio="xMinYMin meet" x="27" y="-77"/>
<text text-anchor="middle" x="77" y="-32.33" font-family="Times New Roman,serif" font-size="14.00">デアリングハート</text>
</g>
<!-- サンデーサイレンス -->
<g id="node2" class="node">
<title>サンデーサイレンス</title>
<polygon fill="lightblue" stroke="lightblue" points="149.12,-190 4.88,-190 4.88,-113 149.12,-113 149.12,-190"/>
<image xlink:href="img/mob.png" width="100px" height="77px" preserveAspectRatio="xMinYMin meet" x="27" y="-190"/>
<text text-anchor="middle" x="77" y="-145.7" font-family="MS Gothic" font-size="14.00">サンデーサイレンス</text>
</g>
<!-- サンデーサイレンス&#45;&gt;デアリングハート -->
<g id="edge1" class="edge">
<title>サンデーサイレンス&#45;&gt;デアリングハート</title>
<path fill="none" stroke="black" d="M77,-112.61C77,-104.84 77,-96.56 77,-88.46"/>
<polygon fill="black" stroke="black" points="80.5,-88.73 77,-78.73 73.5,-88.73 80.5,-88.73"/>
</g>
<!-- デアリングダンジグ -->
<g id="node3" class="node">
<title>デアリングダンジグ</title>
<polygon fill="lightblue" stroke="lightblue" points="149.12,-303 4.88,-303 4.88,-226 149.12,-226 149.12,-303"/>
<image xlink:href="img/mob.png" width="100px" height="77px" preserveAspectRatio="xMinYMin meet" x="27" y="-303"/>
<text text-anchor="middle" x="77" y="-258.7" font-family="MS Gothic" font-size="14.00">デアリングダンジグ</text>
</g>
<!-- デアリングダンジグ&#45;&gt;サンデーサイレンス -->
<g id="edge2" class="edge">
<title>デアリングダンジグ&#45;&gt;サンデーサイレンス</title>
<path fill="none" stroke="black" d="M77,-225.61C77,-217.84 77,-209.56 77,-201.46"/>
<polygon fill="black" stroke="black" points="80.5,-201.73 77,-191.73 73.5,-201.73 80.5,-201.73"/>
</g>
</g>
</svg>
