<?xml version="1.0" encoding="UTF-8" standalone="no"?>
<!DOCTYPE svg PUBLIC "-//W3C//DTD SVG 1.1//EN"
 "http://www.w3.org/Graphics/SVG/1.1/DTD/svg11.dtd">
<!-- Generated by graphviz version 12.1.2 (20240928.0832)
 -->
<!-- Pages: 1 -->
<svg width="162pt" height="311pt"
 viewBox="0.00 0.00 162.00 311.00" xmlns="http://www.w3.org/2000/svg" xmlns:xlink="http://www.w3.org/1999/xlink">
<g id="graph0" class="graph" transform="scale(1 1) rotate(0) translate(4 307)">
<polygon fill="white" stroke="none" points="-4,4 -4,-307 158,-307 158,4 -4,4"/>
<!-- デアリングタクト -->
<g id="node1" class="node">
<title>デアリングタクト</title>
<polygon fill="none" stroke="black" points="154,-77 0,-77 0,0 154,0 154,-77"/>
<image xlink:href="img/dearingutakuto.png" width="100px" height="77px" preserveAspectRatio="xMinYMin meet" x="27" y="-77"/>
<text text-anchor="middle" x="77" y="-32.33" font-family="Times New Roman,serif" font-size="14.00">デアリングタクト</text>
</g>
<!-- エピファネイア -->
<g id="node2" class="node">
<title>エピファネイア</title>
<polygon fill="lightblue" stroke="lightblue" points="134.88,-190 19.12,-190 19.12,-113 134.88,-113 134.88,-190"/>
<image xlink:href="img/mob.png" width="100px" height="77px" preserveAspectRatio="xMinYMin meet" x="27" y="-190"/>
<text text-anchor="middle" x="77" y="-145.7" font-family="MS Gothic" font-size="14.00">エピファネイア</text>
</g>
<!-- エピファネイア&#45;&gt;デアリングタクト -->
<g id="edge1" class="edge">
<title>エピファネイア&#45;&gt;デアリングタクト</title>
<path fill="none" stroke="black" d="M77,-112.61C77,-104.84 77,-96.56 77,-88.46"/>
<polygon fill="black" stroke="black" points="80.5,-88.73 77,-78.73 73.5,-88.73 80.5,-88.73"/>
</g>
<!-- デアリングバード -->
<g id="node3" class="node">
<title>デアリングバード</title>
<polygon fill="lightblue" stroke="lightblue" points="142,-303 12,-303 12,-226 142,-226 142,-303"/>
<image xlink:href="img/mob.png" width="100px" height="77px" preserveAspectRatio="xMinYMin meet" x="27" y="-303"/>
<text text-anchor="middle" x="77" y="-258.7" font-family="MS Gothic" font-size="14.00">デアリングバード</text>
</g>
<!-- デアリングバード&#45;&gt;エピファネイア -->
<g id="edge2" class="edge">
<title>デアリングバード&#45;&gt;エピファネイア</title>
<path fill="none" stroke="black" d="M77,-225.61C77,-217.84 77,-209.56 77,-201.46"/>
<polygon fill="black" stroke="black" points="80.5,-201.73 77,-191.73 73.5,-201.73 80.5,-201.73"/>
</g>
</g>
</svg>
