<?xml version="1.0" encoding="UTF-8" standalone="no"?>
<!DOCTYPE svg PUBLIC "-//W3C//DTD SVG 1.1//EN"
 "http://www.w3.org/Graphics/SVG/1.1/DTD/svg11.dtd">
<!-- Generated by graphviz version 12.1.2 (20240928.0832)
 -->
<!-- Pages: 1 -->
<svg width="431pt" height="311pt"
 viewBox="0.00 0.00 430.50 311.00" xmlns="http://www.w3.org/2000/svg" xmlns:xlink="http://www.w3.org/1999/xlink">
<g id="graph0" class="graph" transform="scale(1 1) rotate(0) translate(4 307)">
<polygon fill="white" stroke="none" points="-4,4 -4,-307 426.5,-307 426.5,4 -4,4"/>
<!-- トランセンド -->
<g id="node1" class="node">
<title>トランセンド</title>
<polygon fill="none" stroke="black" points="258.5,-77 139,-77 139,0 258.5,0 258.5,-77"/>
<image xlink:href="img/toransendo.png" width="100px" height="77px" preserveAspectRatio="xMinYMin meet" x="148.75" y="-77"/>
<text text-anchor="middle" x="198.75" y="-32.33" font-family="Times New Roman,serif" font-size="14.00">トランセンド</text>
</g>
<!-- ワイルドラッシュ -->
<g id="node2" class="node">
<title>ワイルドラッシュ</title>
<polygon fill="lightblue" stroke="lightblue" points="193.75,-190 63.75,-190 63.75,-113 193.75,-113 193.75,-190"/>
<image xlink:href="img/mob.png" width="100px" height="77px" preserveAspectRatio="xMinYMin meet" x="78.75" y="-190"/>
<text text-anchor="middle" x="128.75" y="-145.7" font-family="MS Gothic" font-size="14.00">ワイルドラッシュ</text>
</g>
<!-- ワイルドラッシュ&#45;&gt;トランセンド -->
<g id="edge1" class="edge">
<title>ワイルドラッシュ&#45;&gt;トランセンド</title>
<path fill="none" stroke="black" d="M152.64,-112.61C157.88,-104.31 163.49,-95.41 168.93,-86.79"/>
<polygon fill="black" stroke="black" points="171.78,-88.82 174.16,-78.5 165.86,-85.09 171.78,-88.82"/>
</g>
<!-- シネマスコープ -->
<g id="node3" class="node">
<title>シネマスコープ</title>
<polygon fill="lightcoral" stroke="lightcoral" points="327.62,-190 211.88,-190 211.88,-113 327.62,-113 327.62,-190"/>
<image xlink:href="img/mob.png" width="100px" height="77px" preserveAspectRatio="xMinYMin meet" x="219.75" y="-190"/>
<text text-anchor="middle" x="269.75" y="-145.7" font-family="MS Gothic" font-size="14.00">シネマスコープ</text>
</g>
<!-- シネマスコープ&#45;&gt;トランセンド -->
<g id="edge2" class="edge">
<title>シネマスコープ&#45;&gt;トランセンド</title>
<path fill="none" stroke="black" d="M245.51,-112.61C240.2,-104.31 234.51,-95.41 229,-86.79"/>
<polygon fill="black" stroke="black" points="232.03,-85.03 223.69,-78.49 226.13,-88.8 232.03,-85.03"/>
</g>
<!-- Wild Again -->
<g id="node4" class="node">
<title>Wild Again</title>
<polygon fill="lightblue" stroke="lightblue" points="83.5,-303 0,-303 0,-226 83.5,-226 83.5,-303"/>
<image xlink:href="img/mob.png" width="83.5px" height="77px" preserveAspectRatio="xMinYMin meet" x="0" y="-303"/>
<text text-anchor="middle" x="41.75" y="-258.7" font-family="MS Gothic" font-size="14.00">Wild Again</text>
</g>
<!-- Wild Again&#45;&gt;ワイルドラッシュ -->
<g id="edge3" class="edge">
<title>Wild Again&#45;&gt;ワイルドラッシュ</title>
<path fill="none" stroke="black" d="M71.45,-225.61C78.1,-217.13 85.23,-208.03 92.12,-199.24"/>
<polygon fill="black" stroke="black" points="94.84,-201.44 98.25,-191.41 89.33,-197.12 94.84,-201.44"/>
</g>
<!-- Rose Park -->
<g id="node5" class="node">
<title>Rose Park</title>
<polygon fill="lightcoral" stroke="lightcoral" points="178.25,-303 101.25,-303 101.25,-226 178.25,-226 178.25,-303"/>
<image xlink:href="img/mob.png" width="77px" height="77px" preserveAspectRatio="xMinYMin meet" x="101.25" y="-303"/>
<text text-anchor="middle" x="139.75" y="-258.7" font-family="MS Gothic" font-size="14.00">Rose Park</text>
</g>
<!-- Rose Park&#45;&gt;ワイルドラッシュ -->
<g id="edge4" class="edge">
<title>Rose Park&#45;&gt;ワイルドラッシュ</title>
<path fill="none" stroke="black" d="M136,-225.61C135.23,-217.84 134.4,-209.56 133.6,-201.46"/>
<polygon fill="black" stroke="black" points="137.11,-201.33 132.64,-191.72 130.14,-202.02 137.11,-201.33"/>
</g>
<!-- トニービン -->
<g id="node6" class="node">
<title>トニービン</title>
<polygon fill="lightblue" stroke="lightblue" points="303.38,-303 216.12,-303 216.12,-226 303.38,-226 303.38,-303"/>
<image xlink:href="img/mob.png" width="87.25px" height="77px" preserveAspectRatio="xMinYMin meet" x="216.125" y="-303"/>
<text text-anchor="middle" x="259.75" y="-258.7" font-family="MS Gothic" font-size="14.00">トニービン</text>
</g>
<!-- トニービン&#45;&gt;シネマスコープ -->
<g id="edge5" class="edge">
<title>トニービン&#45;&gt;シネマスコープ</title>
<path fill="none" stroke="black" d="M263.16,-225.61C263.86,-217.84 264.61,-209.56 265.34,-201.46"/>
<polygon fill="black" stroke="black" points="268.8,-202 266.22,-191.73 261.83,-201.37 268.8,-202"/>
</g>
<!-- ブルーハワイ -->
<g id="node7" class="node">
<title>ブルーハワイ</title>
<polygon fill="lightcoral" stroke="lightcoral" points="422.5,-303 321,-303 321,-226 422.5,-226 422.5,-303"/>
<image xlink:href="img/mob.png" width="100px" height="77px" preserveAspectRatio="xMinYMin meet" x="321.75" y="-303"/>
<text text-anchor="middle" x="371.75" y="-258.7" font-family="MS Gothic" font-size="14.00">ブルーハワイ</text>
</g>
<!-- ブルーハワイ&#45;&gt;シネマスコープ -->
<g id="edge6" class="edge">
<title>ブルーハワイ&#45;&gt;シネマスコープ</title>
<path fill="none" stroke="black" d="M336.93,-225.61C328.97,-216.95 320.43,-207.65 312.19,-198.68"/>
<polygon fill="black" stroke="black" points="314.78,-196.33 305.43,-191.33 309.62,-201.06 314.78,-196.33"/>
</g>
</g>
</svg>
