<?xml version="1.0" encoding="UTF-8" standalone="no"?>
<!DOCTYPE svg PUBLIC "-//W3C//DTD SVG 1.1//EN"
 "http://www.w3.org/Graphics/SVG/1.1/DTD/svg11.dtd">
<!-- Generated by graphviz version 12.1.2 (20240928.0832)
 -->
<!-- Pages: 1 -->
<svg width="290pt" height="116pt"
 viewBox="0.00 0.00 289.94 116.00" xmlns="http://www.w3.org/2000/svg" xmlns:xlink="http://www.w3.org/1999/xlink">
<g id="graph0" class="graph" transform="scale(1 1) rotate(0) translate(4 112)">
<polygon fill="white" stroke="none" points="-4,4 -4,-112 285.94,-112 285.94,4 -4,4"/>
<!-- グリーングラス -->
<g id="node1" class="node">
<title>グリーングラス</title>
<ellipse fill="none" stroke="black" cx="75.23" cy="-90" rx="75.23" ry="18"/>
<text text-anchor="middle" x="75.23" y="-84.2" font-family="MS Gothic" font-size="14.00">グリーングラス</text>
</g>
<!-- トウカイナチュラル -->
<g id="node3" class="node">
<title>トウカイナチュラル</title>
<ellipse fill="none" stroke="black" cx="150.23" cy="-18" rx="93.75" ry="18"/>
<text text-anchor="middle" x="150.23" y="-12.2" font-family="MS Gothic" font-size="14.00">トウカイナチュラル</text>
</g>
<!-- グリーングラス&#45;&gt;トウカイナチュラル -->
<g id="edge1" class="edge">
<title>グリーングラス&#45;&gt;トウカイナチュラル</title>
<path fill="none" stroke="black" d="M93.39,-72.05C102.53,-63.52 113.79,-53.01 123.87,-43.61"/>
<polygon fill="black" stroke="black" points="125.95,-46.45 130.88,-37.06 121.18,-41.33 125.95,-46.45"/>
</g>
<!-- タケフブキ -->
<g id="node2" class="node">
<title>タケフブキ</title>
<ellipse fill="none" stroke="black" cx="225.23" cy="-90" rx="56.71" ry="18"/>
<text text-anchor="middle" x="225.23" y="-84.2" font-family="MS Gothic" font-size="14.00">タケフブキ</text>
</g>
<!-- タケフブキ&#45;&gt;トウカイナチュラル -->
<g id="edge2" class="edge">
<title>タケフブキ&#45;&gt;トウカイナチュラル</title>
<path fill="none" stroke="black" d="M207.84,-72.76C198.64,-64.18 187.15,-53.46 176.86,-43.86"/>
<polygon fill="black" stroke="black" points="179.38,-41.42 169.68,-37.16 174.61,-46.54 179.38,-41.42"/>
</g>
</g>
</svg>
