<?xml version="1.0" encoding="UTF-8" standalone="no"?>
<!DOCTYPE svg PUBLIC "-//W3C//DTD SVG 1.1//EN"
 "http://www.w3.org/Graphics/SVG/1.1/DTD/svg11.dtd">
<!-- Generated by graphviz version 12.1.2 (20240928.0832)
 -->
<!-- Pages: 1 -->
<svg width="497pt" height="311pt"
 viewBox="0.00 0.00 496.50 311.00" xmlns="http://www.w3.org/2000/svg" xmlns:xlink="http://www.w3.org/1999/xlink">
<g id="graph0" class="graph" transform="scale(1 1) rotate(0) translate(4 307)">
<polygon fill="white" stroke="none" points="-4,4 -4,-307 492.5,-307 492.5,4 -4,4"/>
<!-- トウカイテイオー -->
<g id="node1" class="node">
<title>トウカイテイオー</title>
<polygon fill="none" stroke="black" points="302.62,-77 148.62,-77 148.62,0 302.62,0 302.62,-77"/>
<image xlink:href="img/toukaiteio.png" width="100px" height="77px" preserveAspectRatio="xMinYMin meet" x="175.625" y="-77"/>
<text text-anchor="middle" x="225.62" y="-32.33" font-family="Times New Roman,serif" font-size="14.00">トウカイテイオー</text>
</g>
<!-- シンボリルドルフ -->
<g id="node2" class="node">
<title>シンボリルドルフ</title>
<polygon fill="lightblue" stroke="lightblue" points="213.62,-190 83.62,-190 83.62,-113 213.62,-113 213.62,-190"/>
<image xlink:href="img/shinborirudoruhu.png" width="100px" height="77px" preserveAspectRatio="xMinYMin meet" x="98.625" y="-190"/>
<text text-anchor="middle" x="148.62" y="-145.7" font-family="MS Gothic" font-size="14.00">シンボリルドルフ</text>
</g>
<!-- シンボリルドルフ&#45;&gt;トウカイテイオー -->
<g id="edge1" class="edge">
<title>シンボリルドルフ&#45;&gt;トウカイテイオー</title>
<path fill="none" stroke="black" d="M174.91,-112.61C180.73,-104.22 186.97,-95.22 193.01,-86.51"/>
<polygon fill="black" stroke="black" points="195.77,-88.67 198.6,-78.46 190.02,-84.68 195.77,-88.67"/>
</g>
<!-- トウカイナチュラル -->
<g id="node3" class="node">
<title>トウカイナチュラル</title>
<polygon fill="lightcoral" stroke="lightcoral" points="375.75,-190 231.5,-190 231.5,-113 375.75,-113 375.75,-190"/>
<image xlink:href="img/mob.png" width="100px" height="77px" preserveAspectRatio="xMinYMin meet" x="253.625" y="-190"/>
<text text-anchor="middle" x="303.62" y="-145.7" font-family="MS Gothic" font-size="14.00">トウカイナチュラル</text>
</g>
<!-- トウカイナチュラル&#45;&gt;トウカイテイオー -->
<g id="edge2" class="edge">
<title>トウカイナチュラル&#45;&gt;トウカイテイオー</title>
<path fill="none" stroke="black" d="M277,-112.61C271.1,-104.22 264.78,-95.22 258.66,-86.51"/>
<polygon fill="black" stroke="black" points="261.61,-84.63 253,-78.46 255.89,-88.65 261.61,-84.63"/>
</g>
<!-- パーソロン -->
<g id="node4" class="node">
<title>パーソロン</title>
<polygon fill="lightblue" stroke="lightblue" points="87.25,-303 0,-303 0,-226 87.25,-226 87.25,-303"/>
<image xlink:href="img/mob.png" width="87.25px" height="77px" preserveAspectRatio="xMinYMin meet" x="0" y="-303"/>
<text text-anchor="middle" x="43.62" y="-258.7" font-family="MS Gothic" font-size="14.00">パーソロン</text>
</g>
<!-- パーソロン&#45;&gt;シンボリルドルフ -->
<g id="edge3" class="edge">
<title>パーソロン&#45;&gt;シンボリルドルフ</title>
<path fill="none" stroke="black" d="M79.47,-225.61C87.74,-216.86 96.64,-207.46 105.2,-198.4"/>
<polygon fill="black" stroke="black" points="107.58,-200.99 111.91,-191.32 102.49,-196.18 107.58,-200.99"/>
</g>
<!-- スイートルナ -->
<g id="node5" class="node">
<title>スイートルナ</title>
<polygon fill="lightcoral" stroke="lightcoral" points="206.38,-303 104.88,-303 104.88,-226 206.38,-226 206.38,-303"/>
<image xlink:href="img/mob.png" width="100px" height="77px" preserveAspectRatio="xMinYMin meet" x="105.625" y="-303"/>
<text text-anchor="middle" x="155.62" y="-258.7" font-family="MS Gothic" font-size="14.00">スイートルナ</text>
</g>
<!-- スイートルナ&#45;&gt;シンボリルドルフ -->
<g id="edge4" class="edge">
<title>スイートルナ&#45;&gt;シンボリルドルフ</title>
<path fill="none" stroke="black" d="M153.24,-225.61C152.75,-217.84 152.22,-209.56 151.71,-201.46"/>
<polygon fill="black" stroke="black" points="155.22,-201.49 151.1,-191.73 148.24,-201.93 155.22,-201.49"/>
</g>
<!-- ナイスダンサー -->
<g id="node6" class="node">
<title>ナイスダンサー</title>
<polygon fill="lightblue" stroke="lightblue" points="354.5,-303 238.75,-303 238.75,-226 354.5,-226 354.5,-303"/>
<image xlink:href="img/mob.png" width="100px" height="77px" preserveAspectRatio="xMinYMin meet" x="246.625" y="-303"/>
<text text-anchor="middle" x="296.62" y="-258.7" font-family="MS Gothic" font-size="14.00">ナイスダンサー</text>
</g>
<!-- ナイスダンサー&#45;&gt;トウカイナチュラル -->
<g id="edge5" class="edge">
<title>ナイスダンサー&#45;&gt;トウカイナチュラル</title>
<path fill="none" stroke="black" d="M299.01,-225.61C299.5,-217.84 300.03,-209.56 300.54,-201.46"/>
<polygon fill="black" stroke="black" points="304.01,-201.93 301.15,-191.73 297.03,-201.49 304.01,-201.93"/>
</g>
<!-- トウカイミドリ -->
<g id="node7" class="node">
<title>トウカイミドリ</title>
<polygon fill="lightcoral" stroke="lightcoral" points="488.5,-303 372.75,-303 372.75,-226 488.5,-226 488.5,-303"/>
<image xlink:href="img/mob.png" width="100px" height="77px" preserveAspectRatio="xMinYMin meet" x="380.625" y="-303"/>
<text text-anchor="middle" x="430.62" y="-258.7" font-family="MS Gothic" font-size="14.00">トウカイミドリ</text>
</g>
<!-- トウカイミドリ&#45;&gt;トウカイナチュラル -->
<g id="edge6" class="edge">
<title>トウカイミドリ&#45;&gt;トウカイナチュラル</title>
<path fill="none" stroke="black" d="M387.27,-225.61C376.95,-216.59 365.84,-206.88 355.2,-197.57"/>
<polygon fill="black" stroke="black" points="357.75,-195.16 347.92,-191.21 353.15,-200.43 357.75,-195.16"/>
</g>
</g>
</svg>
