<?xml version="1.0" encoding="UTF-8" standalone="no"?>
<!DOCTYPE svg PUBLIC "-//W3C//DTD SVG 1.1//EN"
 "http://www.w3.org/Graphics/SVG/1.1/DTD/svg11.dtd">
<!-- Generated by graphviz version 12.1.2 (20240928.0832)
 -->
<!-- Pages: 1 -->
<svg width="543pt" height="311pt"
 viewBox="0.00 0.00 542.62 311.00" xmlns="http://www.w3.org/2000/svg" xmlns:xlink="http://www.w3.org/1999/xlink">
<g id="graph0" class="graph" transform="scale(1 1) rotate(0) translate(4 307)">
<polygon fill="white" stroke="none" points="-4,4 -4,-307 538.62,-307 538.62,4 -4,4"/>
<!-- トーセンジョーダン -->
<g id="node1" class="node">
<title>トーセンジョーダン</title>
<polygon fill="none" stroke="black" points="331.25,-77 160,-77 160,0 331.25,0 331.25,-77"/>
<image xlink:href="img/tosenziyodan.png" width="100px" height="77px" preserveAspectRatio="xMinYMin meet" x="195.625" y="-77"/>
<text text-anchor="middle" x="245.62" y="-32.33" font-family="Times New Roman,serif" font-size="14.00">トーセンジョーダン</text>
</g>
<!-- ジャングルポケット -->
<g id="node2" class="node">
<title>ジャングルポケット</title>
<polygon fill="lightblue" stroke="lightblue" points="240.75,-190 96.5,-190 96.5,-113 240.75,-113 240.75,-190"/>
<image xlink:href="img/ziyangurupoketsuto.png" width="100px" height="77px" preserveAspectRatio="xMinYMin meet" x="118.625" y="-190"/>
<text text-anchor="middle" x="168.62" y="-145.7" font-family="MS Gothic" font-size="14.00">ジャングルポケット</text>
</g>
<!-- ジャングルポケット&#45;&gt;トーセンジョーダン -->
<g id="edge1" class="edge">
<title>ジャングルポケット&#45;&gt;トーセンジョーダン</title>
<path fill="none" stroke="black" d="M194.91,-112.61C200.73,-104.22 206.97,-95.22 213.01,-86.51"/>
<polygon fill="black" stroke="black" points="215.77,-88.67 218.6,-78.46 210.02,-84.68 215.77,-88.67"/>
</g>
<!-- エヴリウィスパー -->
<g id="node3" class="node">
<title>エヴリウィスパー</title>
<polygon fill="lightcoral" stroke="lightcoral" points="388.62,-190 258.62,-190 258.62,-113 388.62,-113 388.62,-190"/>
<image xlink:href="img/mob.png" width="100px" height="77px" preserveAspectRatio="xMinYMin meet" x="273.625" y="-190"/>
<text text-anchor="middle" x="323.62" y="-145.7" font-family="MS Gothic" font-size="14.00">エヴリウィスパー</text>
</g>
<!-- エヴリウィスパー&#45;&gt;トーセンジョーダン -->
<g id="edge2" class="edge">
<title>エヴリウィスパー&#45;&gt;トーセンジョーダン</title>
<path fill="none" stroke="black" d="M297,-112.61C291.1,-104.22 284.78,-95.22 278.66,-86.51"/>
<polygon fill="black" stroke="black" points="281.61,-84.63 273,-78.46 275.89,-88.65 281.61,-84.63"/>
</g>
<!-- トニービン -->
<g id="node4" class="node">
<title>トニービン</title>
<polygon fill="lightblue" stroke="lightblue" points="87.25,-303 0,-303 0,-226 87.25,-226 87.25,-303"/>
<image xlink:href="img/mob.png" width="87.25px" height="77px" preserveAspectRatio="xMinYMin meet" x="0" y="-303"/>
<text text-anchor="middle" x="43.62" y="-258.7" font-family="MS Gothic" font-size="14.00">トニービン</text>
</g>
<!-- トニービン&#45;&gt;ジャングルポケット -->
<g id="edge3" class="edge">
<title>トニービン&#45;&gt;ジャングルポケット</title>
<path fill="none" stroke="black" d="M86.29,-225.61C96.35,-216.68 107.17,-207.07 117.55,-197.85"/>
<polygon fill="black" stroke="black" points="119.86,-200.48 125.02,-191.22 115.22,-195.25 119.86,-200.48"/>
</g>
<!-- ダンスチャーマー -->
<g id="node5" class="node">
<title>ダンスチャーマー</title>
<polygon fill="lightcoral" stroke="lightcoral" points="235.62,-303 105.62,-303 105.62,-226 235.62,-226 235.62,-303"/>
<image xlink:href="img/mob.png" width="100px" height="77px" preserveAspectRatio="xMinYMin meet" x="120.625" y="-303"/>
<text text-anchor="middle" x="170.62" y="-258.7" font-family="MS Gothic" font-size="14.00">ダンスチャーマー</text>
</g>
<!-- ダンスチャーマー&#45;&gt;ジャングルポケット -->
<g id="edge4" class="edge">
<title>ダンスチャーマー&#45;&gt;ジャングルポケット</title>
<path fill="none" stroke="black" d="M169.94,-225.61C169.8,-217.84 169.65,-209.56 169.51,-201.46"/>
<polygon fill="black" stroke="black" points="173.01,-201.67 169.33,-191.73 166.01,-201.79 173.01,-201.67"/>
</g>
<!-- ノーザンテースト -->
<g id="node6" class="node">
<title>ノーザンテースト</title>
<polygon fill="lightblue" stroke="lightblue" points="386.62,-303 256.62,-303 256.62,-226 386.62,-226 386.62,-303"/>
<image xlink:href="img/mob.png" width="100px" height="77px" preserveAspectRatio="xMinYMin meet" x="271.625" y="-303"/>
<text text-anchor="middle" x="321.62" y="-258.7" font-family="MS Gothic" font-size="14.00">ノーザンテースト</text>
</g>
<!-- ノーザンテースト&#45;&gt;エヴリウィスパー -->
<g id="edge5" class="edge">
<title>ノーザンテースト&#45;&gt;エヴリウィスパー</title>
<path fill="none" stroke="black" d="M322.31,-225.61C322.45,-217.84 322.6,-209.56 322.74,-201.46"/>
<polygon fill="black" stroke="black" points="326.24,-201.79 322.92,-191.73 319.24,-201.67 326.24,-201.79"/>
</g>
<!-- クラフテイワイフ -->
<g id="node7" class="node">
<title>クラフテイワイフ</title>
<polygon fill="lightcoral" stroke="lightcoral" points="534.62,-303 404.62,-303 404.62,-226 534.62,-226 534.62,-303"/>
<image xlink:href="img/mob.png" width="100px" height="77px" preserveAspectRatio="xMinYMin meet" x="419.625" y="-303"/>
<text text-anchor="middle" x="469.62" y="-258.7" font-family="MS Gothic" font-size="14.00">クラフテイワイフ</text>
</g>
<!-- クラフテイワイフ&#45;&gt;エヴリウィスパー -->
<g id="edge6" class="edge">
<title>クラフテイワイフ&#45;&gt;エヴリウィスパー</title>
<path fill="none" stroke="black" d="M419.79,-225.61C407.69,-216.41 394.65,-206.49 382.18,-197.02"/>
<polygon fill="black" stroke="black" points="384.52,-194.4 374.44,-191.13 380.28,-199.97 384.52,-194.4"/>
</g>
</g>
</svg>
