<?xml version="1.0" encoding="UTF-8" standalone="no"?>
<!DOCTYPE svg PUBLIC "-//W3C//DTD SVG 1.1//EN"
 "http://www.w3.org/Graphics/SVG/1.1/DTD/svg11.dtd">
<!-- Generated by graphviz version 12.1.2 (20240928.0832)
 -->
<!-- Pages: 1 -->
<svg width="382pt" height="116pt"
 viewBox="0.00 0.00 382.25 116.00" xmlns="http://www.w3.org/2000/svg" xmlns:xlink="http://www.w3.org/1999/xlink">
<g id="graph0" class="graph" transform="scale(1 1) rotate(0) translate(4 112)">
<polygon fill="white" stroke="none" points="-4,4 -4,-112 378.25,-112 378.25,4 -4,4"/>
<!-- シンボリルドルフ -->
<g id="node1" class="node">
<title>シンボリルドルフ</title>
<ellipse fill="none" stroke="black" cx="84.49" cy="-90" rx="84.49" ry="18"/>
<text text-anchor="middle" x="84.49" y="-84.2" font-family="MS Gothic" font-size="14.00">シンボリルドルフ</text>
</g>
<!-- トウカイテイオー -->
<g id="node3" class="node">
<title>トウカイテイオー</title>
<ellipse fill="none" stroke="black" cx="182.49" cy="-18" rx="84.49" ry="18"/>
<text text-anchor="middle" x="182.49" y="-12.2" font-family="MS Gothic" font-size="14.00">トウカイテイオー</text>
</g>
<!-- シンボリルドルフ&#45;&gt;トウカイテイオー -->
<g id="edge1" class="edge">
<title>シンボリルドルフ&#45;&gt;トウカイテイオー</title>
<path fill="none" stroke="black" d="M107.72,-72.41C120.32,-63.41 136.1,-52.14 149.91,-42.27"/>
<polygon fill="black" stroke="black" points="151.76,-45.25 157.86,-36.59 147.69,-39.56 151.76,-45.25"/>
</g>
<!-- トウカイナチュラル -->
<g id="node2" class="node">
<title>トウカイナチュラル</title>
<ellipse fill="none" stroke="black" cx="280.49" cy="-90" rx="93.75" ry="18"/>
<text text-anchor="middle" x="280.49" y="-84.2" font-family="MS Gothic" font-size="14.00">トウカイナチュラル</text>
</g>
<!-- トウカイナチュラル&#45;&gt;トウカイテイオー -->
<g id="edge2" class="edge">
<title>トウカイナチュラル&#45;&gt;トウカイテイオー</title>
<path fill="none" stroke="black" d="M257.27,-72.41C244.67,-63.41 228.89,-52.14 215.07,-42.27"/>
<polygon fill="black" stroke="black" points="217.29,-39.56 207.12,-36.59 213.22,-45.25 217.29,-39.56"/>
</g>
</g>
</svg>
