<?xml version="1.0" encoding="UTF-8" standalone="no"?>
<!DOCTYPE svg PUBLIC "-//W3C//DTD SVG 1.1//EN"
 "http://www.w3.org/Graphics/SVG/1.1/DTD/svg11.dtd">
<!-- Generated by graphviz version 12.1.2 (20240928.0832)
 -->
<!-- Pages: 1 -->
<svg width="630pt" height="648pt"
 viewBox="0.00 0.00 630.00 648.00" xmlns="http://www.w3.org/2000/svg" xmlns:xlink="http://www.w3.org/1999/xlink">
<g id="graph0" class="graph" transform="scale(1 1) rotate(0) translate(4 644)">
<polygon fill="white" stroke="none" points="-4,4 -4,-644 626,-644 626,4 -4,4"/>
<!-- シンボリルドルフ -->
<g id="node1" class="node">
<title>シンボリルドルフ</title>
<polygon fill="lightblue" stroke="lightblue" points="302,-640 0,-640 0,-338 302,-338 302,-640"/>
<image xlink:href="img/shinborirudoruhu.png" width="302px" height="302px" preserveAspectRatio="xMinYMin meet" x="0" y="-640"/>
<text text-anchor="middle" x="151" y="-483.2" font-family="MS Gothic" font-size="14.00">シンボリルドルフ</text>
</g>
<!-- トウカイテイオー -->
<g id="node3" class="node">
<title>トウカイテイオー</title>
<polygon fill="none" stroke="black" points="462,-302 160,-302 160,0 462,0 462,-302"/>
<image xlink:href="img/toukaiteio.png" width="302px" height="302px" preserveAspectRatio="xMinYMin meet" x="160" y="-302"/>
<text text-anchor="middle" x="311" y="-144.82" font-family="Times New Roman,serif" font-size="14.00">トウカイテイオー</text>
</g>
<!-- シンボリルドルフ&#45;&gt;トウカイテイオー -->
<g id="edge1" class="edge">
<title>シンボリルドルフ&#45;&gt;トウカイテイオー</title>
<path fill="none" stroke="black" d="M222.58,-337.69C226.54,-329.37 230.53,-320.99 234.51,-312.63"/>
<polygon fill="black" stroke="black" points="237.57,-314.35 238.71,-303.82 231.25,-311.34 237.57,-314.35"/>
</g>
<!-- トウカイナチュラル -->
<g id="node2" class="node">
<title>トウカイナチュラル</title>
<polygon fill="lightcoral" stroke="lightcoral" points="622,-640 320,-640 320,-338 622,-338 622,-640"/>
<image xlink:href="img/mob.png" width="302px" height="302px" preserveAspectRatio="xMinYMin meet" x="320" y="-640"/>
<text text-anchor="middle" x="471" y="-483.2" font-family="MS Gothic" font-size="14.00">トウカイナチュラル</text>
</g>
<!-- トウカイナチュラル&#45;&gt;トウカイテイオー -->
<g id="edge2" class="edge">
<title>トウカイナチュラル&#45;&gt;トウカイテイオー</title>
<path fill="none" stroke="black" d="M399.42,-337.69C395.46,-329.37 391.47,-320.99 387.49,-312.63"/>
<polygon fill="black" stroke="black" points="390.75,-311.34 383.29,-303.82 384.43,-314.35 390.75,-311.34"/>
</g>
</g>
</svg>
