<?xml version="1.0" encoding="UTF-8" standalone="no"?>
<!DOCTYPE svg PUBLIC "-//W3C//DTD SVG 1.1//EN"
 "http://www.w3.org/Graphics/SVG/1.1/DTD/svg11.dtd">
<!-- Generated by graphviz version 12.1.2 (20240928.0832)
 -->
<!-- Pages: 1 -->
<svg width="482pt" height="311pt"
 viewBox="0.00 0.00 482.25 311.00" xmlns="http://www.w3.org/2000/svg" xmlns:xlink="http://www.w3.org/1999/xlink">
<g id="graph0" class="graph" transform="scale(1 1) rotate(0) translate(4 307)">
<polygon fill="white" stroke="none" points="-4,4 -4,-307 478.25,-307 478.25,4 -4,4"/>
<!-- ドゥラメンテ -->
<g id="node1" class="node">
<title>ドゥラメンテ</title>
<polygon fill="none" stroke="black" points="269.25,-77 149.75,-77 149.75,0 269.25,0 269.25,-77"/>
<image xlink:href="img/douramente.png" width="100px" height="77px" preserveAspectRatio="xMinYMin meet" x="159.5" y="-77"/>
<text text-anchor="middle" x="209.5" y="-32.33" font-family="Times New Roman,serif" font-size="14.00">ドゥラメンテ</text>
</g>
<!-- キングカメハメハ -->
<g id="node2" class="node">
<title>キングカメハメハ</title>
<polygon fill="lightblue" stroke="lightblue" points="197.5,-190 67.5,-190 67.5,-113 197.5,-113 197.5,-190"/>
<image xlink:href="img/mob.png" width="100px" height="77px" preserveAspectRatio="xMinYMin meet" x="82.5" y="-190"/>
<text text-anchor="middle" x="132.5" y="-145.7" font-family="MS Gothic" font-size="14.00">キングカメハメハ</text>
</g>
<!-- キングカメハメハ&#45;&gt;ドゥラメンテ -->
<g id="edge1" class="edge">
<title>キングカメハメハ&#45;&gt;ドゥラメンテ</title>
<path fill="none" stroke="black" d="M158.78,-112.61C164.61,-104.22 170.85,-95.22 176.89,-86.51"/>
<polygon fill="black" stroke="black" points="179.65,-88.67 182.47,-78.46 173.9,-84.68 179.65,-88.67"/>
</g>
<!-- アドマイヤグルーヴ -->
<g id="node3" class="node">
<title>アドマイヤグルーヴ</title>
<polygon fill="lightcoral" stroke="lightcoral" points="359.62,-190 215.38,-190 215.38,-113 359.62,-113 359.62,-190"/>
<image xlink:href="img/mob.png" width="100px" height="77px" preserveAspectRatio="xMinYMin meet" x="237.5" y="-190"/>
<text text-anchor="middle" x="287.5" y="-145.7" font-family="MS Gothic" font-size="14.00">アドマイヤグルーヴ</text>
</g>
<!-- アドマイヤグルーヴ&#45;&gt;ドゥラメンテ -->
<g id="edge2" class="edge">
<title>アドマイヤグルーヴ&#45;&gt;ドゥラメンテ</title>
<path fill="none" stroke="black" d="M260.87,-112.61C254.98,-104.22 248.66,-95.22 242.54,-86.51"/>
<polygon fill="black" stroke="black" points="245.49,-84.63 236.88,-78.46 239.76,-88.65 245.49,-84.63"/>
</g>
<!-- Kingmambo -->
<g id="node4" class="node">
<title>Kingmambo</title>
<polygon fill="lightblue" stroke="lightblue" points="77,-303 0,-303 0,-226 77,-226 77,-303"/>
<image xlink:href="img/mob.png" width="77px" height="77px" preserveAspectRatio="xMinYMin meet" x="0" y="-303"/>
<text text-anchor="middle" x="38.5" y="-258.7" font-family="MS Gothic" font-size="14.00">Kingmambo</text>
</g>
<!-- Kingmambo&#45;&gt;キングカメハメハ -->
<g id="edge3" class="edge">
<title>Kingmambo&#45;&gt;キングカメハメハ</title>
<path fill="none" stroke="black" d="M70.59,-225.61C77.85,-217.04 85.64,-207.84 93.16,-198.96"/>
<polygon fill="black" stroke="black" points="95.79,-201.27 99.58,-191.37 90.45,-196.74 95.79,-201.27"/>
</g>
<!-- マンファス -->
<g id="node5" class="node">
<title>マンファス</title>
<polygon fill="lightcoral" stroke="lightcoral" points="182.12,-303 94.88,-303 94.88,-226 182.12,-226 182.12,-303"/>
<image xlink:href="img/mob.png" width="87.25px" height="77px" preserveAspectRatio="xMinYMin meet" x="94.875" y="-303"/>
<text text-anchor="middle" x="138.5" y="-258.7" font-family="MS Gothic" font-size="14.00">マンファス</text>
</g>
<!-- マンファス&#45;&gt;キングカメハメハ -->
<g id="edge4" class="edge">
<title>マンファス&#45;&gt;キングカメハメハ</title>
<path fill="none" stroke="black" d="M136.45,-225.61C136.03,-217.84 135.58,-209.56 135.15,-201.46"/>
<polygon fill="black" stroke="black" points="138.66,-201.53 134.62,-191.73 131.67,-201.9 138.66,-201.53"/>
</g>
<!-- サンデーサイレンス -->
<g id="node6" class="node">
<title>サンデーサイレンス</title>
<polygon fill="lightblue" stroke="lightblue" points="354.62,-303 210.38,-303 210.38,-226 354.62,-226 354.62,-303"/>
<image xlink:href="img/mob.png" width="100px" height="77px" preserveAspectRatio="xMinYMin meet" x="232.5" y="-303"/>
<text text-anchor="middle" x="282.5" y="-258.7" font-family="MS Gothic" font-size="14.00">サンデーサイレンス</text>
</g>
<!-- サンデーサイレンス&#45;&gt;アドマイヤグルーヴ -->
<g id="edge5" class="edge">
<title>サンデーサイレンス&#45;&gt;アドマイヤグルーヴ</title>
<path fill="none" stroke="black" d="M284.21,-225.61C284.56,-217.84 284.93,-209.56 285.29,-201.46"/>
<polygon fill="black" stroke="black" points="288.78,-201.88 285.73,-191.73 281.79,-201.56 288.78,-201.88"/>
</g>
<!-- エアグルーヴ -->
<g id="node7" class="node">
<title>エアグルーヴ</title>
<polygon fill="lightcoral" stroke="lightcoral" points="474.25,-303 372.75,-303 372.75,-226 474.25,-226 474.25,-303"/>
<image xlink:href="img/eaguruvu.png" width="100px" height="77px" preserveAspectRatio="xMinYMin meet" x="373.5" y="-303"/>
<text text-anchor="middle" x="423.5" y="-258.7" font-family="MS Gothic" font-size="14.00">エアグルーヴ</text>
</g>
<!-- エアグルーヴ&#45;&gt;アドマイヤグルーヴ -->
<g id="edge6" class="edge">
<title>エアグルーヴ&#45;&gt;アドマイヤグルーヴ</title>
<path fill="none" stroke="black" d="M377.08,-225.61C365.92,-216.5 353.89,-206.69 342.39,-197.3"/>
<polygon fill="black" stroke="black" points="344.85,-194.79 334.89,-191.18 340.42,-200.21 344.85,-194.79"/>
</g>
</g>
</svg>
