<?xml version="1.0" encoding="UTF-8" standalone="no"?>
<!DOCTYPE svg PUBLIC "-//W3C//DTD SVG 1.1//EN"
 "http://www.w3.org/Graphics/SVG/1.1/DTD/svg11.dtd">
<!-- Generated by graphviz version 12.1.2 (20240928.0832)
 -->
<!-- Pages: 1 -->
<svg width="436pt" height="311pt"
 viewBox="0.00 0.00 436.12 311.00" xmlns="http://www.w3.org/2000/svg" xmlns:xlink="http://www.w3.org/1999/xlink">
<g id="graph0" class="graph" transform="scale(1 1) rotate(0) translate(4 307)">
<polygon fill="white" stroke="none" points="-4,4 -4,-307 432.12,-307 432.12,4 -4,4"/>
<!-- ナリタトップロード -->
<g id="node1" class="node">
<title>ナリタトップロード</title>
<polygon fill="none" stroke="black" points="314.25,-77 143,-77 143,0 314.25,0 314.25,-77"/>
<image xlink:href="img/naritatotsupurodo.png" width="100px" height="77px" preserveAspectRatio="xMinYMin meet" x="178.625" y="-77"/>
<text text-anchor="middle" x="228.62" y="-32.33" font-family="Times New Roman,serif" font-size="14.00">ナリタトップロード</text>
</g>
<!-- サッカーボーイ -->
<g id="node2" class="node">
<title>サッカーボーイ</title>
<polygon fill="lightblue" stroke="lightblue" points="212.5,-190 96.75,-190 96.75,-113 212.5,-113 212.5,-190"/>
<image xlink:href="img/mob.png" width="100px" height="77px" preserveAspectRatio="xMinYMin meet" x="104.625" y="-190"/>
<text text-anchor="middle" x="154.62" y="-145.7" font-family="MS Gothic" font-size="14.00">サッカーボーイ</text>
</g>
<!-- サッカーボーイ&#45;&gt;ナリタトップロード -->
<g id="edge1" class="edge">
<title>サッカーボーイ&#45;&gt;ナリタトップロード</title>
<path fill="none" stroke="black" d="M179.88,-112.61C185.42,-104.31 191.35,-95.41 197.1,-86.79"/>
<polygon fill="black" stroke="black" points="200,-88.74 202.64,-78.48 194.18,-84.86 200,-88.74"/>
</g>
<!-- フローラルマジック -->
<g id="node3" class="node">
<title>フローラルマジック</title>
<polygon fill="lightcoral" stroke="lightcoral" points="374.75,-190 230.5,-190 230.5,-113 374.75,-113 374.75,-190"/>
<image xlink:href="img/mob.png" width="100px" height="77px" preserveAspectRatio="xMinYMin meet" x="252.625" y="-190"/>
<text text-anchor="middle" x="302.62" y="-145.7" font-family="MS Gothic" font-size="14.00">フローラルマジック</text>
</g>
<!-- フローラルマジック&#45;&gt;ナリタトップロード -->
<g id="edge2" class="edge">
<title>フローラルマジック&#45;&gt;ナリタトップロード</title>
<path fill="none" stroke="black" d="M277.37,-112.61C271.83,-104.31 265.9,-95.41 260.15,-86.79"/>
<polygon fill="black" stroke="black" points="263.07,-84.86 254.61,-78.48 257.25,-88.74 263.07,-84.86"/>
</g>
<!-- ディクタス -->
<g id="node4" class="node">
<title>ディクタス</title>
<polygon fill="lightblue" stroke="lightblue" points="87.25,-303 0,-303 0,-226 87.25,-226 87.25,-303"/>
<image xlink:href="img/mob.png" width="87.25px" height="77px" preserveAspectRatio="xMinYMin meet" x="0" y="-303"/>
<text text-anchor="middle" x="43.62" y="-258.7" font-family="MS Gothic" font-size="14.00">ディクタス</text>
</g>
<!-- ディクタス&#45;&gt;サッカーボーイ -->
<g id="edge3" class="edge">
<title>ディクタス&#45;&gt;サッカーボーイ</title>
<path fill="none" stroke="black" d="M81.51,-225.61C90.36,-216.77 99.86,-207.26 109,-198.13"/>
<polygon fill="black" stroke="black" points="111.24,-200.83 115.84,-191.29 106.29,-195.89 111.24,-200.83"/>
</g>
<!-- ダイナサッシュ -->
<g id="node5" class="node">
<title>ダイナサッシュ</title>
<polygon fill="lightcoral" stroke="lightcoral" points="221.5,-303 105.75,-303 105.75,-226 221.5,-226 221.5,-303"/>
<image xlink:href="img/mob.png" width="100px" height="77px" preserveAspectRatio="xMinYMin meet" x="113.625" y="-303"/>
<text text-anchor="middle" x="163.62" y="-258.7" font-family="MS Gothic" font-size="14.00">ダイナサッシュ</text>
</g>
<!-- ダイナサッシュ&#45;&gt;サッカーボーイ -->
<g id="edge4" class="edge">
<title>ダイナサッシュ&#45;&gt;サッカーボーイ</title>
<path fill="none" stroke="black" d="M160.55,-225.61C159.92,-217.84 159.25,-209.56 158.6,-201.46"/>
<polygon fill="black" stroke="black" points="162.1,-201.41 157.81,-191.73 155.13,-201.98 162.1,-201.41"/>
</g>
<!-- Affirmed -->
<g id="node6" class="node">
<title>Affirmed</title>
<polygon fill="lightblue" stroke="lightblue" points="333.12,-303 256.12,-303 256.12,-226 333.12,-226 333.12,-303"/>
<image xlink:href="img/mob.png" width="77px" height="77px" preserveAspectRatio="xMinYMin meet" x="256.125" y="-303"/>
<text text-anchor="middle" x="294.62" y="-258.7" font-family="MS Gothic" font-size="14.00">Affirmed</text>
</g>
<!-- Affirmed&#45;&gt;フローラルマジック -->
<g id="edge5" class="edge">
<title>Affirmed&#45;&gt;フローラルマジック</title>
<path fill="none" stroke="black" d="M297.36,-225.61C297.92,-217.84 298.51,-209.56 299.1,-201.46"/>
<polygon fill="black" stroke="black" points="302.57,-201.95 299.8,-191.73 295.59,-201.45 302.57,-201.95"/>
</g>
<!-- Rare Lady -->
<g id="node7" class="node">
<title>Rare Lady</title>
<polygon fill="lightcoral" stroke="lightcoral" points="428.12,-303 351.12,-303 351.12,-226 428.12,-226 428.12,-303"/>
<image xlink:href="img/mob.png" width="77px" height="77px" preserveAspectRatio="xMinYMin meet" x="351.125" y="-303"/>
<text text-anchor="middle" x="389.62" y="-258.7" font-family="MS Gothic" font-size="14.00">Rare Lady</text>
</g>
<!-- Rare Lady&#45;&gt;フローラルマジック -->
<g id="edge6" class="edge">
<title>Rare Lady&#45;&gt;フローラルマジック</title>
<path fill="none" stroke="black" d="M359.93,-225.61C353.28,-217.13 346.15,-208.03 339.26,-199.24"/>
<polygon fill="black" stroke="black" points="342.05,-197.12 333.12,-191.41 336.54,-201.44 342.05,-197.12"/>
</g>
</g>
</svg>
