<?xml version="1.0" encoding="UTF-8" standalone="no"?>
<!DOCTYPE svg PUBLIC "-//W3C//DTD SVG 1.1//EN"
 "http://www.w3.org/Graphics/SVG/1.1/DTD/svg11.dtd">
<!-- Generated by graphviz version 12.1.2 (20240928.0832)
 -->
<!-- Pages: 1 -->
<svg width="486pt" height="311pt"
 viewBox="0.00 0.00 485.50 311.00" xmlns="http://www.w3.org/2000/svg" xmlns:xlink="http://www.w3.org/1999/xlink">
<g id="graph0" class="graph" transform="scale(1 1) rotate(0) translate(4 307)">
<polygon fill="white" stroke="none" points="-4,4 -4,-307 481.5,-307 481.5,4 -4,4"/>
<!-- ナリタブライアン -->
<g id="node1" class="node">
<title>ナリタブライアン</title>
<polygon fill="none" stroke="black" points="286.5,-77 132.5,-77 132.5,0 286.5,0 286.5,-77"/>
<image xlink:href="img/naritaburaian.png" width="100px" height="77px" preserveAspectRatio="xMinYMin meet" x="159.5" y="-77"/>
<text text-anchor="middle" x="209.5" y="-32.33" font-family="Times New Roman,serif" font-size="14.00">ナリタブライアン</text>
</g>
<!-- ブライアンズタイム -->
<g id="node2" class="node">
<title>ブライアンズタイム</title>
<polygon fill="lightblue" stroke="lightblue" points="211.62,-190 67.38,-190 67.38,-113 211.62,-113 211.62,-190"/>
<image xlink:href="img/mob.png" width="100px" height="77px" preserveAspectRatio="xMinYMin meet" x="89.5" y="-190"/>
<text text-anchor="middle" x="139.5" y="-145.7" font-family="MS Gothic" font-size="14.00">ブライアンズタイム</text>
</g>
<!-- ブライアンズタイム&#45;&gt;ナリタブライアン -->
<g id="edge1" class="edge">
<title>ブライアンズタイム&#45;&gt;ナリタブライアン</title>
<path fill="none" stroke="black" d="M163.39,-112.61C168.63,-104.31 174.24,-95.41 179.68,-86.79"/>
<polygon fill="black" stroke="black" points="182.53,-88.82 184.91,-78.5 176.61,-85.09 182.53,-88.82"/>
</g>
<!-- パシフィカス -->
<g id="node3" class="node">
<title>パシフィカス</title>
<polygon fill="lightcoral" stroke="lightcoral" points="331.25,-190 229.75,-190 229.75,-113 331.25,-113 331.25,-190"/>
<image xlink:href="img/mob.png" width="100px" height="77px" preserveAspectRatio="xMinYMin meet" x="230.5" y="-190"/>
<text text-anchor="middle" x="280.5" y="-145.7" font-family="MS Gothic" font-size="14.00">パシフィカス</text>
</g>
<!-- パシフィカス&#45;&gt;ナリタブライアン -->
<g id="edge2" class="edge">
<title>パシフィカス&#45;&gt;ナリタブライアン</title>
<path fill="none" stroke="black" d="M256.26,-112.61C250.95,-104.31 245.26,-95.41 239.75,-86.79"/>
<polygon fill="black" stroke="black" points="242.78,-85.03 234.44,-78.49 236.88,-88.8 242.78,-85.03"/>
</g>
<!-- Roberto -->
<g id="node4" class="node">
<title>Roberto</title>
<polygon fill="lightblue" stroke="lightblue" points="77,-303 0,-303 0,-226 77,-226 77,-303"/>
<image xlink:href="img/mob.png" width="77px" height="77px" preserveAspectRatio="xMinYMin meet" x="0" y="-303"/>
<text text-anchor="middle" x="38.5" y="-258.7" font-family="MS Gothic" font-size="14.00">Roberto</text>
</g>
<!-- Roberto&#45;&gt;ブライアンズタイム -->
<g id="edge3" class="edge">
<title>Roberto&#45;&gt;ブライアンズタイム</title>
<path fill="none" stroke="black" d="M72.98,-225.61C80.86,-216.95 89.32,-207.65 97.48,-198.68"/>
<polygon fill="black" stroke="black" points="100.02,-201.09 104.16,-191.34 94.84,-196.38 100.02,-201.09"/>
</g>
<!-- Kelley&#39;s Day -->
<g id="node5" class="node">
<title>Kelley&#39;s Day</title>
<polygon fill="lightcoral" stroke="lightcoral" points="192,-303 95,-303 95,-226 192,-226 192,-303"/>
<image xlink:href="img/mob.png" width="97px" height="77px" preserveAspectRatio="xMinYMin meet" x="95" y="-303"/>
<text text-anchor="middle" x="143.5" y="-258.7" font-family="MS Gothic" font-size="14.00">Kelley&#39;s Day</text>
</g>
<!-- Kelley&#39;s Day&#45;&gt;ブライアンズタイム -->
<g id="edge4" class="edge">
<title>Kelley&#39;s Day&#45;&gt;ブライアンズタイム</title>
<path fill="none" stroke="black" d="M142.13,-225.61C141.85,-217.84 141.56,-209.56 141.26,-201.46"/>
<polygon fill="black" stroke="black" points="144.77,-201.6 140.91,-191.73 137.78,-201.85 144.77,-201.6"/>
</g>
<!-- Northern Dancer -->
<g id="node6" class="node">
<title>Northern Dancer</title>
<polygon fill="lightblue" stroke="lightblue" points="335.12,-303 217.88,-303 217.88,-226 335.12,-226 335.12,-303"/>
<image xlink:href="img/mob.png" width="100px" height="77px" preserveAspectRatio="xMinYMin meet" x="226.5" y="-303"/>
<text text-anchor="middle" x="276.5" y="-258.7" font-family="MS Gothic" font-size="14.00">Northern Dancer</text>
</g>
<!-- Northern Dancer&#45;&gt;パシフィカス -->
<g id="edge5" class="edge">
<title>Northern Dancer&#45;&gt;パシフィカス</title>
<path fill="none" stroke="black" d="M277.87,-225.61C278.15,-217.84 278.44,-209.56 278.74,-201.46"/>
<polygon fill="black" stroke="black" points="282.22,-201.85 279.09,-191.73 275.23,-201.6 282.22,-201.85"/>
</g>
<!-- Pacific Princess -->
<g id="node7" class="node">
<title>Pacific Princess</title>
<polygon fill="lightcoral" stroke="lightcoral" points="477.5,-303 353.5,-303 353.5,-226 477.5,-226 477.5,-303"/>
<image xlink:href="img/mob.png" width="100px" height="77px" preserveAspectRatio="xMinYMin meet" x="365.5" y="-303"/>
<text text-anchor="middle" x="415.5" y="-258.7" font-family="MS Gothic" font-size="14.00">Pacific Princess</text>
</g>
<!-- Pacific Princess&#45;&gt;パシフィカス -->
<g id="edge6" class="edge">
<title>Pacific Princess&#45;&gt;パシフィカス</title>
<path fill="none" stroke="black" d="M369.42,-225.61C358.34,-216.5 346.4,-206.69 334.98,-197.3"/>
<polygon fill="black" stroke="black" points="337.49,-194.83 327.54,-191.18 333.04,-200.23 337.49,-194.83"/>
</g>
</g>
</svg>
