<?xml version="1.0" encoding="UTF-8" standalone="no"?>
<!DOCTYPE svg PUBLIC "-//W3C//DTD SVG 1.1//EN"
 "http://www.w3.org/Graphics/SVG/1.1/DTD/svg11.dtd">
<!-- Generated by graphviz version 12.1.2 (20240928.0832)
 -->
<!-- Pages: 1 -->
<svg width="433pt" height="311pt"
 viewBox="0.00 0.00 432.50 311.00" xmlns="http://www.w3.org/2000/svg" xmlns:xlink="http://www.w3.org/1999/xlink">
<g id="graph0" class="graph" transform="scale(1 1) rotate(0) translate(4 307)">
<polygon fill="white" stroke="none" points="-4,4 -4,-307 428.5,-307 428.5,4 -4,4"/>
<!-- ナリタタイシン -->
<g id="node1" class="node">
<title>ナリタタイシン</title>
<polygon fill="none" stroke="black" points="253.88,-77 117.12,-77 117.12,0 253.88,0 253.88,-77"/>
<image xlink:href="img/naritataishin.png" width="100px" height="77px" preserveAspectRatio="xMinYMin meet" x="135.5" y="-77"/>
<text text-anchor="middle" x="185.5" y="-32.33" font-family="Times New Roman,serif" font-size="14.00">ナリタタイシン</text>
</g>
<!-- リヴリア -->
<g id="node2" class="node">
<title>リヴリア</title>
<polygon fill="lightblue" stroke="lightblue" points="167,-190 90,-190 90,-113 167,-113 167,-190"/>
<image xlink:href="img/mob.png" width="77px" height="77px" preserveAspectRatio="xMinYMin meet" x="90" y="-190"/>
<text text-anchor="middle" x="128.5" y="-145.7" font-family="MS Gothic" font-size="14.00">リヴリア</text>
</g>
<!-- リヴリア&#45;&gt;ナリタタイシン -->
<g id="edge1" class="edge">
<title>リヴリア&#45;&gt;ナリタタイシン</title>
<path fill="none" stroke="black" d="M147.96,-112.61C152.13,-104.48 156.59,-95.8 160.93,-87.35"/>
<polygon fill="black" stroke="black" points="163.98,-89.06 165.44,-78.57 157.76,-85.86 163.98,-89.06"/>
</g>
<!-- タイシンリリィ -->
<g id="node3" class="node">
<title>タイシンリリィ</title>
<polygon fill="lightcoral" stroke="lightcoral" points="300.38,-190 184.62,-190 184.62,-113 300.38,-113 300.38,-190"/>
<image xlink:href="img/mob.png" width="100px" height="77px" preserveAspectRatio="xMinYMin meet" x="192.5" y="-190"/>
<text text-anchor="middle" x="242.5" y="-145.7" font-family="MS Gothic" font-size="14.00">タイシンリリィ</text>
</g>
<!-- タイシンリリィ&#45;&gt;ナリタタイシン -->
<g id="edge2" class="edge">
<title>タイシンリリィ&#45;&gt;ナリタタイシン</title>
<path fill="none" stroke="black" d="M223.04,-112.61C218.87,-104.48 214.41,-95.8 210.07,-87.35"/>
<polygon fill="black" stroke="black" points="213.24,-85.86 205.56,-78.57 207.02,-89.06 213.24,-85.86"/>
</g>
<!-- Riverman -->
<g id="node4" class="node">
<title>Riverman</title>
<polygon fill="lightblue" stroke="lightblue" points="77,-303 0,-303 0,-226 77,-226 77,-303"/>
<image xlink:href="img/mob.png" width="77px" height="77px" preserveAspectRatio="xMinYMin meet" x="0" y="-303"/>
<text text-anchor="middle" x="38.5" y="-258.7" font-family="MS Gothic" font-size="14.00">Riverman</text>
</g>
<!-- Riverman&#45;&gt;リヴリア -->
<g id="edge3" class="edge">
<title>Riverman&#45;&gt;リヴリア</title>
<path fill="none" stroke="black" d="M69.22,-225.61C76.17,-217.04 83.63,-207.84 90.83,-198.96"/>
<polygon fill="black" stroke="black" points="93.38,-201.37 96.96,-191.39 87.95,-196.96 93.38,-201.37"/>
</g>
<!-- Dahlia -->
<g id="node5" class="node">
<title>Dahlia</title>
<polygon fill="lightcoral" stroke="lightcoral" points="172,-303 95,-303 95,-226 172,-226 172,-303"/>
<image xlink:href="img/mob.png" width="77px" height="77px" preserveAspectRatio="xMinYMin meet" x="95" y="-303"/>
<text text-anchor="middle" x="133.5" y="-258.7" font-family="MS Gothic" font-size="14.00">Dahlia</text>
</g>
<!-- Dahlia&#45;&gt;リヴリア -->
<g id="edge4" class="edge">
<title>Dahlia&#45;&gt;リヴリア</title>
<path fill="none" stroke="black" d="M131.79,-225.61C131.44,-217.84 131.07,-209.56 130.71,-201.46"/>
<polygon fill="black" stroke="black" points="134.21,-201.56 130.27,-191.73 127.22,-201.88 134.21,-201.56"/>
</g>
<!-- ラディガ -->
<g id="node6" class="node">
<title>ラディガ</title>
<polygon fill="lightblue" stroke="lightblue" points="276,-303 199,-303 199,-226 276,-226 276,-303"/>
<image xlink:href="img/mob.png" width="77px" height="77px" preserveAspectRatio="xMinYMin meet" x="199" y="-303"/>
<text text-anchor="middle" x="237.5" y="-258.7" font-family="MS Gothic" font-size="14.00">ラディガ</text>
</g>
<!-- ラディガ&#45;&gt;タイシンリリィ -->
<g id="edge5" class="edge">
<title>ラディガ&#45;&gt;タイシンリリィ</title>
<path fill="none" stroke="black" d="M239.21,-225.61C239.56,-217.84 239.93,-209.56 240.29,-201.46"/>
<polygon fill="black" stroke="black" points="243.78,-201.88 240.73,-191.73 236.79,-201.56 243.78,-201.88"/>
</g>
<!-- インターラーケン -->
<g id="node7" class="node">
<title>インターラーケン</title>
<polygon fill="lightcoral" stroke="lightcoral" points="424.5,-303 294.5,-303 294.5,-226 424.5,-226 424.5,-303"/>
<image xlink:href="img/mob.png" width="100px" height="77px" preserveAspectRatio="xMinYMin meet" x="309.5" y="-303"/>
<text text-anchor="middle" x="359.5" y="-258.7" font-family="MS Gothic" font-size="14.00">インターラーケン</text>
</g>
<!-- インターラーケン&#45;&gt;タイシンリリィ -->
<g id="edge6" class="edge">
<title>インターラーケン&#45;&gt;タイシンリリィ</title>
<path fill="none" stroke="black" d="M319.56,-225.61C310.24,-216.77 300.22,-207.26 290.59,-198.13"/>
<polygon fill="black" stroke="black" points="293.02,-195.6 283.36,-191.26 288.2,-200.68 293.02,-195.6"/>
</g>
</g>
</svg>
