<?xml version="1.0" encoding="UTF-8" standalone="no"?>
<!DOCTYPE svg PUBLIC "-//W3C//DTD SVG 1.1//EN"
 "http://www.w3.org/Graphics/SVG/1.1/DTD/svg11.dtd">
<!-- Generated by graphviz version 12.1.2 (20240928.0832)
 -->
<!-- Pages: 1 -->
<svg width="458pt" height="311pt"
 viewBox="0.00 0.00 457.88 311.00" xmlns="http://www.w3.org/2000/svg" xmlns:xlink="http://www.w3.org/1999/xlink">
<g id="graph0" class="graph" transform="scale(1 1) rotate(0) translate(4 307)">
<polygon fill="white" stroke="none" points="-4,4 -4,-307 453.88,-307 453.88,4 -4,4"/>
<!-- ニシノフラワー -->
<g id="node1" class="node">
<title>ニシノフラワー</title>
<polygon fill="none" stroke="black" points="296,-77 159.25,-77 159.25,0 296,0 296,-77"/>
<image xlink:href="img/nishinohurawa.png" width="100px" height="77px" preserveAspectRatio="xMinYMin meet" x="177.625" y="-77"/>
<text text-anchor="middle" x="227.62" y="-32.33" font-family="Times New Roman,serif" font-size="14.00">ニシノフラワー</text>
</g>
<!-- Majestic Light -->
<g id="node2" class="node">
<title>Majestic Light</title>
<polygon fill="lightblue" stroke="lightblue" points="220.88,-190 110.38,-190 110.38,-113 220.88,-113 220.88,-190"/>
<image xlink:href="img/mob.png" width="100px" height="77px" preserveAspectRatio="xMinYMin meet" x="115.625" y="-190"/>
<text text-anchor="middle" x="165.62" y="-145.7" font-family="MS Gothic" font-size="14.00">Majestic Light</text>
</g>
<!-- Majestic Light&#45;&gt;ニシノフラワー -->
<g id="edge1" class="edge">
<title>Majestic Light&#45;&gt;ニシノフラワー</title>
<path fill="none" stroke="black" d="M186.79,-112.61C191.38,-104.39 196.29,-95.6 201.05,-87.07"/>
<polygon fill="black" stroke="black" points="204,-88.98 205.82,-78.54 197.89,-85.56 204,-88.98"/>
</g>
<!-- デユプリシト -->
<g id="node3" class="node">
<title>デユプリシト</title>
<polygon fill="lightcoral" stroke="lightcoral" points="340.38,-190 238.88,-190 238.88,-113 340.38,-113 340.38,-190"/>
<image xlink:href="img/mob.png" width="100px" height="77px" preserveAspectRatio="xMinYMin meet" x="239.625" y="-190"/>
<text text-anchor="middle" x="289.62" y="-145.7" font-family="MS Gothic" font-size="14.00">デユプリシト</text>
</g>
<!-- デユプリシト&#45;&gt;ニシノフラワー -->
<g id="edge2" class="edge">
<title>デユプリシト&#45;&gt;ニシノフラワー</title>
<path fill="none" stroke="black" d="M268.46,-112.61C263.87,-104.39 258.96,-95.6 254.2,-87.07"/>
<polygon fill="black" stroke="black" points="257.36,-85.56 249.43,-78.54 251.25,-88.98 257.36,-85.56"/>
</g>
<!-- Majestic Prince -->
<g id="node4" class="node">
<title>Majestic Prince</title>
<polygon fill="lightblue" stroke="lightblue" points="117.25,-303 0,-303 0,-226 117.25,-226 117.25,-303"/>
<image xlink:href="img/mob.png" width="100px" height="77px" preserveAspectRatio="xMinYMin meet" x="8.625" y="-303"/>
<text text-anchor="middle" x="58.62" y="-258.7" font-family="MS Gothic" font-size="14.00">Majestic Prince</text>
</g>
<!-- Majestic Prince&#45;&gt;Majestic Light -->
<g id="edge3" class="edge">
<title>Majestic Prince&#45;&gt;Majestic Light</title>
<path fill="none" stroke="black" d="M95.15,-225.61C103.59,-216.86 112.65,-207.46 121.38,-198.4"/>
<polygon fill="black" stroke="black" points="123.79,-200.94 128.22,-191.31 118.76,-196.08 123.79,-200.94"/>
</g>
<!-- Irradiate -->
<g id="node5" class="node">
<title>Irradiate</title>
<polygon fill="lightcoral" stroke="lightcoral" points="212.12,-303 135.12,-303 135.12,-226 212.12,-226 212.12,-303"/>
<image xlink:href="img/mob.png" width="77px" height="77px" preserveAspectRatio="xMinYMin meet" x="135.125" y="-303"/>
<text text-anchor="middle" x="173.62" y="-258.7" font-family="MS Gothic" font-size="14.00">Irradiate</text>
</g>
<!-- Irradiate&#45;&gt;Majestic Light -->
<g id="edge4" class="edge">
<title>Irradiate&#45;&gt;Majestic Light</title>
<path fill="none" stroke="black" d="M170.89,-225.61C170.33,-217.84 169.74,-209.56 169.15,-201.46"/>
<polygon fill="black" stroke="black" points="172.66,-201.45 168.45,-191.73 165.68,-201.95 172.66,-201.45"/>
</g>
<!-- Danzig -->
<g id="node6" class="node">
<title>Danzig</title>
<polygon fill="lightblue" stroke="lightblue" points="321.12,-303 244.12,-303 244.12,-226 321.12,-226 321.12,-303"/>
<image xlink:href="img/mob.png" width="77px" height="77px" preserveAspectRatio="xMinYMin meet" x="244.125" y="-303"/>
<text text-anchor="middle" x="282.62" y="-258.7" font-family="MS Gothic" font-size="14.00">Danzig</text>
</g>
<!-- Danzig&#45;&gt;デユプリシト -->
<g id="edge5" class="edge">
<title>Danzig&#45;&gt;デユプリシト</title>
<path fill="none" stroke="black" d="M285.01,-225.61C285.5,-217.84 286.03,-209.56 286.54,-201.46"/>
<polygon fill="black" stroke="black" points="290.01,-201.93 287.15,-191.73 283.03,-201.49 290.01,-201.93"/>
</g>
<!-- Fabulous Fraud -->
<g id="node7" class="node">
<title>Fabulous Fraud</title>
<polygon fill="lightcoral" stroke="lightcoral" points="449.88,-303 339.38,-303 339.38,-226 449.88,-226 449.88,-303"/>
<image xlink:href="img/mob.png" width="100px" height="77px" preserveAspectRatio="xMinYMin meet" x="344.625" y="-303"/>
<text text-anchor="middle" x="394.62" y="-258.7" font-family="MS Gothic" font-size="14.00">Fabulous Fraud</text>
</g>
<!-- Fabulous Fraud&#45;&gt;デユプリシト -->
<g id="edge6" class="edge">
<title>Fabulous Fraud&#45;&gt;デユプリシト</title>
<path fill="none" stroke="black" d="M358.78,-225.61C350.51,-216.86 341.61,-207.46 333.05,-198.4"/>
<polygon fill="black" stroke="black" points="335.76,-196.18 326.34,-191.32 330.67,-200.99 335.76,-196.18"/>
</g>
</g>
</svg>
