<?xml version="1.0" encoding="UTF-8" standalone="no"?>
<!DOCTYPE svg PUBLIC "-//W3C//DTD SVG 1.1//EN"
 "http://www.w3.org/Graphics/SVG/1.1/DTD/svg11.dtd">
<!-- Generated by graphviz version 12.1.2 (20240928.0832)
 -->
<!-- Pages: 1 -->
<svg width="145pt" height="311pt"
 viewBox="0.00 0.00 144.75 311.00" xmlns="http://www.w3.org/2000/svg" xmlns:xlink="http://www.w3.org/1999/xlink">
<g id="graph0" class="graph" transform="scale(1 1) rotate(0) translate(4 307)">
<polygon fill="white" stroke="none" points="-4,4 -4,-307 140.75,-307 140.75,4 -4,4"/>
<!-- ニシノフラワー -->
<g id="node1" class="node">
<title>ニシノフラワー</title>
<polygon fill="none" stroke="black" points="136.75,-77 0,-77 0,0 136.75,0 136.75,-77"/>
<image xlink:href="img/nishinohurawa.png" width="100px" height="77px" preserveAspectRatio="xMinYMin meet" x="18.375" y="-77"/>
<text text-anchor="middle" x="68.38" y="-32.33" font-family="Times New Roman,serif" font-size="14.00">ニシノフラワー</text>
</g>
<!-- Majestic Light -->
<g id="node2" class="node">
<title>Majestic Light</title>
<polygon fill="lightblue" stroke="lightblue" points="123.62,-190 13.12,-190 13.12,-113 123.62,-113 123.62,-190"/>
<image xlink:href="img/mob.png" width="100px" height="77px" preserveAspectRatio="xMinYMin meet" x="18.375" y="-190"/>
<text text-anchor="middle" x="68.38" y="-145.7" font-family="MS Gothic" font-size="14.00">Majestic Light</text>
</g>
<!-- Majestic Light&#45;&gt;ニシノフラワー -->
<g id="edge1" class="edge">
<title>Majestic Light&#45;&gt;ニシノフラワー</title>
<path fill="none" stroke="black" d="M68.38,-112.61C68.38,-104.84 68.38,-96.56 68.38,-88.46"/>
<polygon fill="black" stroke="black" points="71.88,-88.73 68.38,-78.73 64.88,-88.73 71.88,-88.73"/>
</g>
<!-- デユプリシト -->
<g id="node3" class="node">
<title>デユプリシト</title>
<polygon fill="lightblue" stroke="lightblue" points="119.12,-303 17.62,-303 17.62,-226 119.12,-226 119.12,-303"/>
<image xlink:href="img/mob.png" width="100px" height="77px" preserveAspectRatio="xMinYMin meet" x="18.375" y="-303"/>
<text text-anchor="middle" x="68.38" y="-258.7" font-family="MS Gothic" font-size="14.00">デユプリシト</text>
</g>
<!-- デユプリシト&#45;&gt;Majestic Light -->
<g id="edge2" class="edge">
<title>デユプリシト&#45;&gt;Majestic Light</title>
<path fill="none" stroke="black" d="M68.38,-225.61C68.38,-217.84 68.38,-209.56 68.38,-201.46"/>
<polygon fill="black" stroke="black" points="71.88,-201.73 68.38,-191.73 64.88,-201.73 71.88,-201.73"/>
</g>
</g>
</svg>
