<?xml version="1.0" encoding="UTF-8" standalone="no"?>
<!DOCTYPE svg PUBLIC "-//W3C//DTD SVG 1.1//EN"
 "http://www.w3.org/Graphics/SVG/1.1/DTD/svg11.dtd">
<!-- Generated by graphviz version 12.1.2 (20240928.0832)
 -->
<!-- Pages: 1 -->
<svg width="433pt" height="311pt"
 viewBox="0.00 0.00 433.00 311.00" xmlns="http://www.w3.org/2000/svg" xmlns:xlink="http://www.w3.org/1999/xlink">
<g id="graph0" class="graph" transform="scale(1 1) rotate(0) translate(4 307)">
<polygon fill="white" stroke="none" points="-4,4 -4,-307 429,-307 429,4 -4,4"/>
<!-- ノーリーズン -->
<g id="node1" class="node">
<title>ノーリーズン</title>
<polygon fill="none" stroke="black" points="268.25,-77 148.75,-77 148.75,0 268.25,0 268.25,-77"/>
<image xlink:href="img/norizun.png" width="100px" height="77px" preserveAspectRatio="xMinYMin meet" x="158.5" y="-77"/>
<text text-anchor="middle" x="208.5" y="-32.33" font-family="Times New Roman,serif" font-size="14.00">ノーリーズン</text>
</g>
<!-- ブライアンズタイム -->
<g id="node2" class="node">
<title>ブライアンズタイム</title>
<polygon fill="lightblue" stroke="lightblue" points="210.62,-190 66.38,-190 66.38,-113 210.62,-113 210.62,-190"/>
<image xlink:href="img/mob.png" width="100px" height="77px" preserveAspectRatio="xMinYMin meet" x="88.5" y="-190"/>
<text text-anchor="middle" x="138.5" y="-145.7" font-family="MS Gothic" font-size="14.00">ブライアンズタイム</text>
</g>
<!-- ブライアンズタイム&#45;&gt;ノーリーズン -->
<g id="edge1" class="edge">
<title>ブライアンズタイム&#45;&gt;ノーリーズン</title>
<path fill="none" stroke="black" d="M162.39,-112.61C167.63,-104.31 173.24,-95.41 178.68,-86.79"/>
<polygon fill="black" stroke="black" points="181.53,-88.82 183.91,-78.5 175.61,-85.09 181.53,-88.82"/>
</g>
<!-- アンブロジン -->
<g id="node3" class="node">
<title>アンブロジン</title>
<polygon fill="lightcoral" stroke="lightcoral" points="330.25,-190 228.75,-190 228.75,-113 330.25,-113 330.25,-190"/>
<image xlink:href="img/mob.png" width="100px" height="77px" preserveAspectRatio="xMinYMin meet" x="229.5" y="-190"/>
<text text-anchor="middle" x="279.5" y="-145.7" font-family="MS Gothic" font-size="14.00">アンブロジン</text>
</g>
<!-- アンブロジン&#45;&gt;ノーリーズン -->
<g id="edge2" class="edge">
<title>アンブロジン&#45;&gt;ノーリーズン</title>
<path fill="none" stroke="black" d="M255.26,-112.61C249.95,-104.31 244.26,-95.41 238.75,-86.79"/>
<polygon fill="black" stroke="black" points="241.78,-85.03 233.44,-78.49 235.88,-88.8 241.78,-85.03"/>
</g>
<!-- Roberto -->
<g id="node4" class="node">
<title>Roberto</title>
<polygon fill="lightblue" stroke="lightblue" points="77,-303 0,-303 0,-226 77,-226 77,-303"/>
<image xlink:href="img/mob.png" width="77px" height="77px" preserveAspectRatio="xMinYMin meet" x="0" y="-303"/>
<text text-anchor="middle" x="38.5" y="-258.7" font-family="MS Gothic" font-size="14.00">Roberto</text>
</g>
<!-- Roberto&#45;&gt;ブライアンズタイム -->
<g id="edge3" class="edge">
<title>Roberto&#45;&gt;ブライアンズタイム</title>
<path fill="none" stroke="black" d="M72.63,-225.61C80.44,-216.95 88.82,-207.65 96.9,-198.68"/>
<polygon fill="black" stroke="black" points="99.41,-201.12 103.51,-191.34 94.21,-196.43 99.41,-201.12"/>
</g>
<!-- Kelley&#39;s Day -->
<g id="node5" class="node">
<title>Kelley&#39;s Day</title>
<polygon fill="lightcoral" stroke="lightcoral" points="192,-303 95,-303 95,-226 192,-226 192,-303"/>
<image xlink:href="img/mob.png" width="97px" height="77px" preserveAspectRatio="xMinYMin meet" x="95" y="-303"/>
<text text-anchor="middle" x="143.5" y="-258.7" font-family="MS Gothic" font-size="14.00">Kelley&#39;s Day</text>
</g>
<!-- Kelley&#39;s Day&#45;&gt;ブライアンズタイム -->
<g id="edge4" class="edge">
<title>Kelley&#39;s Day&#45;&gt;ブライアンズタイム</title>
<path fill="none" stroke="black" d="M141.79,-225.61C141.44,-217.84 141.07,-209.56 140.71,-201.46"/>
<polygon fill="black" stroke="black" points="144.21,-201.56 140.27,-191.73 137.22,-201.88 144.21,-201.56"/>
</g>
<!-- Mr. Prospector -->
<g id="node6" class="node">
<title>Mr. Prospector</title>
<polygon fill="lightblue" stroke="lightblue" points="329.75,-303 219.25,-303 219.25,-226 329.75,-226 329.75,-303"/>
<image xlink:href="img/mob.png" width="100px" height="77px" preserveAspectRatio="xMinYMin meet" x="224.5" y="-303"/>
<text text-anchor="middle" x="274.5" y="-258.7" font-family="MS Gothic" font-size="14.00">Mr. Prospector</text>
</g>
<!-- Mr. Prospector&#45;&gt;アンブロジン -->
<g id="edge5" class="edge">
<title>Mr. Prospector&#45;&gt;アンブロジン</title>
<path fill="none" stroke="black" d="M276.21,-225.61C276.56,-217.84 276.93,-209.56 277.29,-201.46"/>
<polygon fill="black" stroke="black" points="280.78,-201.88 277.73,-191.73 273.79,-201.56 280.78,-201.88"/>
</g>
<!-- バラダ -->
<g id="node7" class="node">
<title>バラダ</title>
<polygon fill="lightcoral" stroke="lightcoral" points="425,-303 348,-303 348,-226 425,-226 425,-303"/>
<image xlink:href="img/mob.png" width="77px" height="77px" preserveAspectRatio="xMinYMin meet" x="348" y="-303"/>
<text text-anchor="middle" x="386.5" y="-258.7" font-family="MS Gothic" font-size="14.00">バラダ</text>
</g>
<!-- バラダ&#45;&gt;アンブロジン -->
<g id="edge6" class="edge">
<title>バラダ&#45;&gt;アンブロジン</title>
<path fill="none" stroke="black" d="M349.98,-225.61C341.54,-216.86 332.48,-207.46 323.75,-198.4"/>
<polygon fill="black" stroke="black" points="326.37,-196.08 316.91,-191.31 321.33,-200.94 326.37,-196.08"/>
</g>
</g>
</svg>
