<?xml version="1.0" encoding="UTF-8" standalone="no"?>
<!DOCTYPE svg PUBLIC "-//W3C//DTD SVG 1.1//EN"
 "http://www.w3.org/Graphics/SVG/1.1/DTD/svg11.dtd">
<!-- Generated by graphviz version 12.1.2 (20240928.0832)
 -->
<!-- Pages: 1 -->
<svg width="560pt" height="311pt"
 viewBox="0.00 0.00 559.75 311.00" xmlns="http://www.w3.org/2000/svg" xmlns:xlink="http://www.w3.org/1999/xlink">
<g id="graph0" class="graph" transform="scale(1 1) rotate(0) translate(4 307)">
<polygon fill="white" stroke="none" points="-4,4 -4,-307 555.75,-307 555.75,4 -4,4"/>
<!-- ノースフライト -->
<g id="node1" class="node">
<title>ノースフライト</title>
<polygon fill="none" stroke="black" points="288.88,-77 152.12,-77 152.12,0 288.88,0 288.88,-77"/>
<image xlink:href="img/nosuhuraito.png" width="100px" height="77px" preserveAspectRatio="xMinYMin meet" x="170.5" y="-77"/>
<text text-anchor="middle" x="220.5" y="-32.33" font-family="Times New Roman,serif" font-size="14.00">ノースフライト</text>
</g>
<!-- トニービン -->
<g id="node2" class="node">
<title>トニービン</title>
<polygon fill="lightblue" stroke="lightblue" points="190.12,-190 102.88,-190 102.88,-113 190.12,-113 190.12,-190"/>
<image xlink:href="img/mob.png" width="87.25px" height="77px" preserveAspectRatio="xMinYMin meet" x="102.875" y="-190"/>
<text text-anchor="middle" x="146.5" y="-145.7" font-family="MS Gothic" font-size="14.00">トニービン</text>
</g>
<!-- トニービン&#45;&gt;ノースフライト -->
<g id="edge1" class="edge">
<title>トニービン&#45;&gt;ノースフライト</title>
<path fill="none" stroke="black" d="M171.76,-112.61C177.3,-104.31 183.22,-95.41 188.97,-86.79"/>
<polygon fill="black" stroke="black" points="191.88,-88.74 194.51,-78.48 186.06,-84.86 191.88,-88.74"/>
</g>
<!-- シヤダイフライト -->
<g id="node3" class="node">
<title>シヤダイフライト</title>
<polygon fill="lightcoral" stroke="lightcoral" points="360.5,-190 230.5,-190 230.5,-113 360.5,-113 360.5,-190"/>
<image xlink:href="img/mob.png" width="100px" height="77px" preserveAspectRatio="xMinYMin meet" x="245.5" y="-190"/>
<text text-anchor="middle" x="295.5" y="-145.7" font-family="MS Gothic" font-size="14.00">シヤダイフライト</text>
</g>
<!-- シヤダイフライト&#45;&gt;ノースフライト -->
<g id="edge2" class="edge">
<title>シヤダイフライト&#45;&gt;ノースフライト</title>
<path fill="none" stroke="black" d="M269.9,-112.61C264.23,-104.22 258.15,-95.22 252.27,-86.51"/>
<polygon fill="black" stroke="black" points="255.33,-84.8 246.83,-78.47 249.53,-88.72 255.33,-84.8"/>
</g>
<!-- カンパラ -->
<g id="node4" class="node">
<title>カンパラ</title>
<polygon fill="lightblue" stroke="lightblue" points="77,-303 0,-303 0,-226 77,-226 77,-303"/>
<image xlink:href="img/mob.png" width="77px" height="77px" preserveAspectRatio="xMinYMin meet" x="0" y="-303"/>
<text text-anchor="middle" x="38.5" y="-258.7" font-family="MS Gothic" font-size="14.00">カンパラ</text>
</g>
<!-- カンパラ&#45;&gt;トニービン -->
<g id="edge3" class="edge">
<title>カンパラ&#45;&gt;トニービン</title>
<path fill="none" stroke="black" d="M75.37,-225.61C83.88,-216.86 93.03,-207.46 101.84,-198.4"/>
<polygon fill="black" stroke="black" points="104.28,-200.91 108.75,-191.3 99.26,-196.03 104.28,-200.91"/>
</g>
<!-- Severn Bridge -->
<g id="node5" class="node">
<title>Severn Bridge</title>
<polygon fill="lightcoral" stroke="lightcoral" points="198.38,-303 94.62,-303 94.62,-226 198.38,-226 198.38,-303"/>
<image xlink:href="img/mob.png" width="100px" height="77px" preserveAspectRatio="xMinYMin meet" x="96.5" y="-303"/>
<text text-anchor="middle" x="146.5" y="-258.7" font-family="MS Gothic" font-size="14.00">Severn Bridge</text>
</g>
<!-- Severn Bridge&#45;&gt;トニービン -->
<g id="edge4" class="edge">
<title>Severn Bridge&#45;&gt;トニービン</title>
<path fill="none" stroke="black" d="M146.5,-225.61C146.5,-217.84 146.5,-209.56 146.5,-201.46"/>
<polygon fill="black" stroke="black" points="150,-201.73 146.5,-191.73 143,-201.73 150,-201.73"/>
</g>
<!-- ヒッティングアウェー -->
<g id="node6" class="node">
<title>ヒッティングアウェー</title>
<polygon fill="lightblue" stroke="lightblue" points="374.75,-303 216.25,-303 216.25,-226 374.75,-226 374.75,-303"/>
<image xlink:href="img/mob.png" width="100px" height="77px" preserveAspectRatio="xMinYMin meet" x="245.5" y="-303"/>
<text text-anchor="middle" x="295.5" y="-258.7" font-family="MS Gothic" font-size="14.00">ヒッティングアウェー</text>
</g>
<!-- ヒッティングアウェー&#45;&gt;シヤダイフライト -->
<g id="edge5" class="edge">
<title>ヒッティングアウェー&#45;&gt;シヤダイフライト</title>
<path fill="none" stroke="black" d="M295.5,-225.61C295.5,-217.84 295.5,-209.56 295.5,-201.46"/>
<polygon fill="black" stroke="black" points="299,-201.73 295.5,-191.73 292,-201.73 299,-201.73"/>
</g>
<!-- フォーワードフライト -->
<g id="node7" class="node">
<title>フォーワードフライト</title>
<polygon fill="lightcoral" stroke="lightcoral" points="551.75,-303 393.25,-303 393.25,-226 551.75,-226 551.75,-303"/>
<image xlink:href="img/mob.png" width="100px" height="77px" preserveAspectRatio="xMinYMin meet" x="422.5" y="-303"/>
<text text-anchor="middle" x="472.5" y="-258.7" font-family="MS Gothic" font-size="14.00">フォーワードフライト</text>
</g>
<!-- フォーワードフライト&#45;&gt;シヤダイフライト -->
<g id="edge6" class="edge">
<title>フォーワードフライト&#45;&gt;シヤダイフライト</title>
<path fill="none" stroke="black" d="M412.08,-225.61C397.07,-216.2 380.86,-206.03 365.43,-196.36"/>
<polygon fill="black" stroke="black" points="367.56,-193.56 357.23,-191.21 363.84,-199.49 367.56,-193.56"/>
</g>
</g>
</svg>
