<?xml version="1.0" encoding="UTF-8" standalone="no"?>
<!DOCTYPE svg PUBLIC "-//W3C//DTD SVG 1.1//EN"
 "http://www.w3.org/Graphics/SVG/1.1/DTD/svg11.dtd">
<!-- Generated by graphviz version 12.1.2 (20240928.0832)
 -->
<!-- Pages: 1 -->
<svg width="497pt" height="311pt"
 viewBox="0.00 0.00 496.50 311.00" xmlns="http://www.w3.org/2000/svg" xmlns:xlink="http://www.w3.org/1999/xlink">
<g id="graph0" class="graph" transform="scale(1 1) rotate(0) translate(4 307)">
<polygon fill="white" stroke="none" points="-4,4 -4,-307 492.5,-307 492.5,4 -4,4"/>
<!-- ハルウララ -->
<g id="node1" class="node">
<title>ハルウララ</title>
<polygon fill="none" stroke="black" points="273.75,-77 171.5,-77 171.5,0 273.75,0 273.75,-77"/>
<image xlink:href="img/haruurara.png" width="100px" height="77px" preserveAspectRatio="xMinYMin meet" x="172.625" y="-77"/>
<text text-anchor="middle" x="222.62" y="-32.33" font-family="Times New Roman,serif" font-size="14.00">ハルウララ</text>
</g>
<!-- ニッポーテイオー -->
<g id="node2" class="node">
<title>ニッポーテイオー</title>
<polygon fill="lightblue" stroke="lightblue" points="220.62,-190 90.62,-190 90.62,-113 220.62,-113 220.62,-190"/>
<image xlink:href="img/mob.png" width="100px" height="77px" preserveAspectRatio="xMinYMin meet" x="105.625" y="-190"/>
<text text-anchor="middle" x="155.62" y="-145.7" font-family="MS Gothic" font-size="14.00">ニッポーテイオー</text>
</g>
<!-- ニッポーテイオー&#45;&gt;ハルウララ -->
<g id="edge1" class="edge">
<title>ニッポーテイオー&#45;&gt;ハルウララ</title>
<path fill="none" stroke="black" d="M178.5,-112.61C183.45,-104.39 188.76,-95.6 193.91,-87.07"/>
<polygon fill="black" stroke="black" points="196.9,-88.88 199.08,-78.51 190.91,-85.27 196.9,-88.88"/>
</g>
<!-- ヒロイン -->
<g id="node3" class="node">
<title>ヒロイン</title>
<polygon fill="lightcoral" stroke="lightcoral" points="328.12,-190 251.12,-190 251.12,-113 328.12,-113 328.12,-190"/>
<image xlink:href="img/mob.png" width="77px" height="77px" preserveAspectRatio="xMinYMin meet" x="251.125" y="-190"/>
<text text-anchor="middle" x="289.62" y="-145.7" font-family="MS Gothic" font-size="14.00">ヒロイン</text>
</g>
<!-- ヒロイン&#45;&gt;ハルウララ -->
<g id="edge2" class="edge">
<title>ヒロイン&#45;&gt;ハルウララ</title>
<path fill="none" stroke="black" d="M266.75,-112.61C261.8,-104.39 256.49,-95.6 251.34,-87.07"/>
<polygon fill="black" stroke="black" points="254.34,-85.27 246.17,-78.51 248.35,-88.88 254.34,-85.27"/>
</g>
<!-- リィフォー -->
<g id="node4" class="node">
<title>リィフォー</title>
<polygon fill="lightblue" stroke="lightblue" points="87.25,-303 0,-303 0,-226 87.25,-226 87.25,-303"/>
<image xlink:href="img/mob.png" width="87.25px" height="77px" preserveAspectRatio="xMinYMin meet" x="0" y="-303"/>
<text text-anchor="middle" x="43.62" y="-258.7" font-family="MS Gothic" font-size="14.00">リィフォー</text>
</g>
<!-- リィフォー&#45;&gt;ニッポーテイオー -->
<g id="edge3" class="edge">
<title>リィフォー&#45;&gt;ニッポーテイオー</title>
<path fill="none" stroke="black" d="M81.86,-225.61C90.78,-216.77 100.37,-207.26 109.59,-198.13"/>
<polygon fill="black" stroke="black" points="111.85,-200.81 116.49,-191.28 106.92,-195.84 111.85,-200.81"/>
</g>
<!-- チヨダマサコ -->
<g id="node5" class="node">
<title>チヨダマサコ</title>
<polygon fill="lightcoral" stroke="lightcoral" points="206.38,-303 104.88,-303 104.88,-226 206.38,-226 206.38,-303"/>
<image xlink:href="img/mob.png" width="100px" height="77px" preserveAspectRatio="xMinYMin meet" x="105.625" y="-303"/>
<text text-anchor="middle" x="155.62" y="-258.7" font-family="MS Gothic" font-size="14.00">チヨダマサコ</text>
</g>
<!-- チヨダマサコ&#45;&gt;ニッポーテイオー -->
<g id="edge4" class="edge">
<title>チヨダマサコ&#45;&gt;ニッポーテイオー</title>
<path fill="none" stroke="black" d="M155.62,-225.61C155.62,-217.84 155.62,-209.56 155.62,-201.46"/>
<polygon fill="black" stroke="black" points="159.13,-201.73 155.63,-191.73 152.13,-201.73 159.13,-201.73"/>
</g>
<!-- ラッキーソブリン -->
<g id="node6" class="node">
<title>ラッキーソブリン</title>
<polygon fill="lightblue" stroke="lightblue" points="354.62,-303 224.62,-303 224.62,-226 354.62,-226 354.62,-303"/>
<image xlink:href="img/mob.png" width="100px" height="77px" preserveAspectRatio="xMinYMin meet" x="239.625" y="-303"/>
<text text-anchor="middle" x="289.62" y="-258.7" font-family="MS Gothic" font-size="14.00">ラッキーソブリン</text>
</g>
<!-- ラッキーソブリン&#45;&gt;ヒロイン -->
<g id="edge5" class="edge">
<title>ラッキーソブリン&#45;&gt;ヒロイン</title>
<path fill="none" stroke="black" d="M289.62,-225.61C289.62,-217.84 289.62,-209.56 289.62,-201.46"/>
<polygon fill="black" stroke="black" points="293.13,-201.73 289.63,-191.73 286.13,-201.73 293.13,-201.73"/>
</g>
<!-- ピアレスレデイ -->
<g id="node7" class="node">
<title>ピアレスレデイ</title>
<polygon fill="lightcoral" stroke="lightcoral" points="488.5,-303 372.75,-303 372.75,-226 488.5,-226 488.5,-303"/>
<image xlink:href="img/mob.png" width="100px" height="77px" preserveAspectRatio="xMinYMin meet" x="380.625" y="-303"/>
<text text-anchor="middle" x="430.62" y="-258.7" font-family="MS Gothic" font-size="14.00">ピアレスレデイ</text>
</g>
<!-- ピアレスレデイ&#45;&gt;ヒロイン -->
<g id="edge6" class="edge">
<title>ピアレスレデイ&#45;&gt;ヒロイン</title>
<path fill="none" stroke="black" d="M382.5,-225.61C367.83,-214.06 351.72,-201.38 337.1,-189.87"/>
<polygon fill="black" stroke="black" points="339.42,-187.25 329.4,-183.81 335.09,-192.75 339.42,-187.25"/>
</g>
</g>
</svg>
