<?xml version="1.0" encoding="UTF-8" standalone="no"?>
<!DOCTYPE svg PUBLIC "-//W3C//DTD SVG 1.1//EN"
 "http://www.w3.org/Graphics/SVG/1.1/DTD/svg11.dtd">
<!-- Generated by graphviz version 12.1.2 (20240928.0832)
 -->
<!-- Pages: 1 -->
<svg width="138pt" height="311pt"
 viewBox="0.00 0.00 138.00 311.00" xmlns="http://www.w3.org/2000/svg" xmlns:xlink="http://www.w3.org/1999/xlink">
<g id="graph0" class="graph" transform="scale(1 1) rotate(0) translate(4 307)">
<polygon fill="white" stroke="none" points="-4,4 -4,-307 134,-307 134,4 -4,4"/>
<!-- ハルウララ -->
<g id="node1" class="node">
<title>ハルウララ</title>
<polygon fill="none" stroke="black" points="116.12,-77 13.88,-77 13.88,0 116.12,0 116.12,-77"/>
<image xlink:href="img/haruurara.png" width="100px" height="77px" preserveAspectRatio="xMinYMin meet" x="15" y="-77"/>
<text text-anchor="middle" x="65" y="-32.33" font-family="Times New Roman,serif" font-size="14.00">ハルウララ</text>
</g>
<!-- ニッポーテイオー -->
<g id="node2" class="node">
<title>ニッポーテイオー</title>
<polygon fill="lightblue" stroke="lightblue" points="130,-190 0,-190 0,-113 130,-113 130,-190"/>
<image xlink:href="img/mob.png" width="100px" height="77px" preserveAspectRatio="xMinYMin meet" x="15" y="-190"/>
<text text-anchor="middle" x="65" y="-145.7" font-family="MS Gothic" font-size="14.00">ニッポーテイオー</text>
</g>
<!-- ニッポーテイオー&#45;&gt;ハルウララ -->
<g id="edge1" class="edge">
<title>ニッポーテイオー&#45;&gt;ハルウララ</title>
<path fill="none" stroke="black" d="M65,-112.61C65,-104.84 65,-96.56 65,-88.46"/>
<polygon fill="black" stroke="black" points="68.5,-88.73 65,-78.73 61.5,-88.73 68.5,-88.73"/>
</g>
<!-- ヒロイン -->
<g id="node3" class="node">
<title>ヒロイン</title>
<polygon fill="lightblue" stroke="lightblue" points="103.5,-303 26.5,-303 26.5,-226 103.5,-226 103.5,-303"/>
<image xlink:href="img/mob.png" width="77px" height="77px" preserveAspectRatio="xMinYMin meet" x="26.5" y="-303"/>
<text text-anchor="middle" x="65" y="-258.7" font-family="MS Gothic" font-size="14.00">ヒロイン</text>
</g>
<!-- ヒロイン&#45;&gt;ニッポーテイオー -->
<g id="edge2" class="edge">
<title>ヒロイン&#45;&gt;ニッポーテイオー</title>
<path fill="none" stroke="black" d="M65,-225.61C65,-217.84 65,-209.56 65,-201.46"/>
<polygon fill="black" stroke="black" points="68.5,-201.73 65,-191.73 61.5,-201.73 68.5,-201.73"/>
</g>
</g>
</svg>
