<?xml version="1.0" encoding="UTF-8" standalone="no"?>
<!DOCTYPE svg PUBLIC "-//W3C//DTD SVG 1.1//EN"
 "http://www.w3.org/Graphics/SVG/1.1/DTD/svg11.dtd">
<!-- Generated by graphviz version 12.1.2 (20240928.0832)
 -->
<!-- Pages: 1 -->
<svg width="488pt" height="311pt"
 viewBox="0.00 0.00 487.50 311.00" xmlns="http://www.w3.org/2000/svg" xmlns:xlink="http://www.w3.org/1999/xlink">
<g id="graph0" class="graph" transform="scale(1 1) rotate(0) translate(4 307)">
<polygon fill="white" stroke="none" points="-4,4 -4,-307 483.5,-307 483.5,4 -4,4"/>
<!-- バンブーメモリー -->
<g id="node1" class="node">
<title>バンブーメモリー</title>
<polygon fill="none" stroke="black" points="293.5,-77 139.5,-77 139.5,0 293.5,0 293.5,-77"/>
<image xlink:href="img/banbumemori.png" width="100px" height="77px" preserveAspectRatio="xMinYMin meet" x="166.5" y="-77"/>
<text text-anchor="middle" x="216.5" y="-32.33" font-family="Times New Roman,serif" font-size="14.00">バンブーメモリー</text>
</g>
<!-- モーニングフローリック -->
<g id="node2" class="node">
<title>モーニングフローリック</title>
<polygon fill="lightblue" stroke="lightblue" points="218.88,-190 46.12,-190 46.12,-113 218.88,-113 218.88,-190"/>
<image xlink:href="img/mob.png" width="100px" height="77px" preserveAspectRatio="xMinYMin meet" x="82.5" y="-190"/>
<text text-anchor="middle" x="132.5" y="-145.7" font-family="MS Gothic" font-size="14.00">モーニングフローリック</text>
</g>
<!-- モーニングフローリック&#45;&gt;バンブーメモリー -->
<g id="edge1" class="edge">
<title>モーニングフローリック&#45;&gt;バンブーメモリー</title>
<path fill="none" stroke="black" d="M161.17,-112.61C167.59,-104.13 174.48,-95.03 181.13,-86.24"/>
<polygon fill="black" stroke="black" points="183.8,-88.51 187.04,-78.43 178.22,-84.29 183.8,-88.51"/>
</g>
<!-- マドンナバンブー -->
<g id="node3" class="node">
<title>マドンナバンブー</title>
<polygon fill="lightcoral" stroke="lightcoral" points="366.5,-190 236.5,-190 236.5,-113 366.5,-113 366.5,-190"/>
<image xlink:href="img/mob.png" width="100px" height="77px" preserveAspectRatio="xMinYMin meet" x="251.5" y="-190"/>
<text text-anchor="middle" x="301.5" y="-145.7" font-family="MS Gothic" font-size="14.00">マドンナバンブー</text>
</g>
<!-- マドンナバンブー&#45;&gt;バンブーメモリー -->
<g id="edge2" class="edge">
<title>マドンナバンブー&#45;&gt;バンブーメモリー</title>
<path fill="none" stroke="black" d="M272.49,-112.61C265.99,-104.13 259.02,-95.03 252.29,-86.24"/>
<polygon fill="black" stroke="black" points="255.16,-84.23 246.3,-78.42 249.6,-88.49 255.16,-84.23"/>
</g>
<!-- Grey Dawn -->
<g id="node4" class="node">
<title>Grey Dawn</title>
<polygon fill="lightblue" stroke="lightblue" points="77,-303 0,-303 0,-226 77,-226 77,-303"/>
<image xlink:href="img/mob.png" width="77px" height="77px" preserveAspectRatio="xMinYMin meet" x="0" y="-303"/>
<text text-anchor="middle" x="38.5" y="-258.7" font-family="MS Gothic" font-size="14.00">Grey Dawn</text>
</g>
<!-- Grey Dawn&#45;&gt;モーニングフローリック -->
<g id="edge3" class="edge">
<title>Grey Dawn&#45;&gt;モーニングフローリック</title>
<path fill="none" stroke="black" d="M70.59,-225.61C77.85,-217.04 85.64,-207.84 93.16,-198.96"/>
<polygon fill="black" stroke="black" points="95.79,-201.27 99.58,-191.37 90.45,-196.74 95.79,-201.27"/>
</g>
<!-- Timely Affair -->
<g id="node5" class="node">
<title>Timely Affair</title>
<polygon fill="lightcoral" stroke="lightcoral" points="198.38,-303 94.62,-303 94.62,-226 198.38,-226 198.38,-303"/>
<image xlink:href="img/mob.png" width="100px" height="77px" preserveAspectRatio="xMinYMin meet" x="96.5" y="-303"/>
<text text-anchor="middle" x="146.5" y="-258.7" font-family="MS Gothic" font-size="14.00">Timely Affair</text>
</g>
<!-- Timely Affair&#45;&gt;モーニングフローリック -->
<g id="edge4" class="edge">
<title>Timely Affair&#45;&gt;モーニングフローリック</title>
<path fill="none" stroke="black" d="M141.72,-225.61C140.74,-217.84 139.7,-209.56 138.68,-201.46"/>
<polygon fill="black" stroke="black" points="142.17,-201.2 137.45,-191.72 135.23,-202.08 142.17,-201.2"/>
</g>
<!-- モバリッズ -->
<g id="node6" class="node">
<title>モバリッズ</title>
<polygon fill="lightblue" stroke="lightblue" points="331.12,-303 243.88,-303 243.88,-226 331.12,-226 331.12,-303"/>
<image xlink:href="img/mob.png" width="87.25px" height="77px" preserveAspectRatio="xMinYMin meet" x="243.875" y="-303"/>
<text text-anchor="middle" x="287.5" y="-258.7" font-family="MS Gothic" font-size="14.00">モバリッズ</text>
</g>
<!-- モバリッズ&#45;&gt;マドンナバンブー -->
<g id="edge5" class="edge">
<title>モバリッズ&#45;&gt;マドンナバンブー</title>
<path fill="none" stroke="black" d="M292.28,-225.61C293.26,-217.84 294.3,-209.56 295.32,-201.46"/>
<polygon fill="black" stroke="black" points="298.77,-202.08 296.55,-191.72 291.83,-201.2 298.77,-202.08"/>
</g>
<!-- ニンバスバンブー -->
<g id="node7" class="node">
<title>ニンバスバンブー</title>
<polygon fill="lightcoral" stroke="lightcoral" points="479.5,-303 349.5,-303 349.5,-226 479.5,-226 479.5,-303"/>
<image xlink:href="img/mob.png" width="100px" height="77px" preserveAspectRatio="xMinYMin meet" x="364.5" y="-303"/>
<text text-anchor="middle" x="414.5" y="-258.7" font-family="MS Gothic" font-size="14.00">ニンバスバンブー</text>
</g>
<!-- ニンバスバンブー&#45;&gt;マドンナバンブー -->
<g id="edge6" class="edge">
<title>ニンバスバンブー&#45;&gt;マドンナバンブー</title>
<path fill="none" stroke="black" d="M375.93,-225.61C366.93,-216.77 357.25,-207.26 347.95,-198.13"/>
<polygon fill="black" stroke="black" points="350.56,-195.79 340.98,-191.28 345.66,-200.78 350.56,-195.79"/>
</g>
</g>
</svg>
