<?xml version="1.0" encoding="UTF-8" standalone="no"?>
<!DOCTYPE svg PUBLIC "-//W3C//DTD SVG 1.1//EN"
 "http://www.w3.org/Graphics/SVG/1.1/DTD/svg11.dtd">
<!-- Generated by graphviz version 12.1.2 (20240928.0832)
 -->
<!-- Pages: 1 -->
<svg width="448pt" height="311pt"
 viewBox="0.00 0.00 447.75 311.00" xmlns="http://www.w3.org/2000/svg" xmlns:xlink="http://www.w3.org/1999/xlink">
<g id="graph0" class="graph" transform="scale(1 1) rotate(0) translate(4 307)">
<polygon fill="white" stroke="none" points="-4,4 -4,-307 443.75,-307 443.75,4 -4,4"/>
<!-- ヒシアケボノ -->
<g id="node1" class="node">
<title>ヒシアケボノ</title>
<polygon fill="none" stroke="black" points="297,-77 177.5,-77 177.5,0 297,0 297,-77"/>
<image xlink:href="img/hishiakebono.png" width="100px" height="77px" preserveAspectRatio="xMinYMin meet" x="187.25" y="-77"/>
<text text-anchor="middle" x="237.25" y="-32.33" font-family="Times New Roman,serif" font-size="14.00">ヒシアケボノ</text>
</g>
<!-- Woodman -->
<g id="node2" class="node">
<title>Woodman</title>
<polygon fill="lightblue" stroke="lightblue" points="217.75,-190 140.75,-190 140.75,-113 217.75,-113 217.75,-190"/>
<image xlink:href="img/mob.png" width="77px" height="77px" preserveAspectRatio="xMinYMin meet" x="140.75" y="-190"/>
<text text-anchor="middle" x="179.25" y="-145.7" font-family="MS Gothic" font-size="14.00">Woodman</text>
</g>
<!-- Woodman&#45;&gt;ヒシアケボノ -->
<g id="edge1" class="edge">
<title>Woodman&#45;&gt;ヒシアケボノ</title>
<path fill="none" stroke="black" d="M199.05,-112.61C203.29,-104.48 207.83,-95.8 212.25,-87.35"/>
<polygon fill="black" stroke="black" points="215.31,-89.04 216.84,-78.56 209.11,-85.8 215.31,-89.04"/>
</g>
<!-- Mysteries -->
<g id="node3" class="node">
<title>Mysteries</title>
<polygon fill="lightcoral" stroke="lightcoral" points="334.75,-190 257.75,-190 257.75,-113 334.75,-113 334.75,-190"/>
<image xlink:href="img/mob.png" width="77px" height="77px" preserveAspectRatio="xMinYMin meet" x="257.75" y="-190"/>
<text text-anchor="middle" x="296.25" y="-145.7" font-family="MS Gothic" font-size="14.00">Mysteries</text>
</g>
<!-- Mysteries&#45;&gt;ヒシアケボノ -->
<g id="edge2" class="edge">
<title>Mysteries&#45;&gt;ヒシアケボノ</title>
<path fill="none" stroke="black" d="M276.11,-112.61C271.79,-104.48 267.17,-95.8 262.68,-87.35"/>
<polygon fill="black" stroke="black" points="265.79,-85.74 258.01,-78.56 259.61,-89.03 265.79,-85.74"/>
</g>
<!-- Mr. Prospector -->
<g id="node4" class="node">
<title>Mr. Prospector</title>
<polygon fill="lightblue" stroke="lightblue" points="110.5,-303 0,-303 0,-226 110.5,-226 110.5,-303"/>
<image xlink:href="img/mob.png" width="100px" height="77px" preserveAspectRatio="xMinYMin meet" x="5.25" y="-303"/>
<text text-anchor="middle" x="55.25" y="-258.7" font-family="MS Gothic" font-size="14.00">Mr. Prospector</text>
</g>
<!-- Mr. Prospector&#45;&gt;Woodman -->
<g id="edge3" class="edge">
<title>Mr. Prospector&#45;&gt;Woodman</title>
<path fill="none" stroke="black" d="M97.58,-225.61C108.65,-215.7 120.65,-204.96 131.96,-194.83"/>
<polygon fill="black" stroke="black" points="134.2,-197.52 139.32,-188.24 129.53,-192.31 134.2,-197.52"/>
</g>
<!-- プレイメイト -->
<g id="node5" class="node">
<title>プレイメイト</title>
<polygon fill="lightcoral" stroke="lightcoral" points="230,-303 128.5,-303 128.5,-226 230,-226 230,-303"/>
<image xlink:href="img/mob.png" width="100px" height="77px" preserveAspectRatio="xMinYMin meet" x="129.25" y="-303"/>
<text text-anchor="middle" x="179.25" y="-258.7" font-family="MS Gothic" font-size="14.00">プレイメイト</text>
</g>
<!-- プレイメイト&#45;&gt;Woodman -->
<g id="edge4" class="edge">
<title>プレイメイト&#45;&gt;Woodman</title>
<path fill="none" stroke="black" d="M179.25,-225.61C179.25,-217.84 179.25,-209.56 179.25,-201.46"/>
<polygon fill="black" stroke="black" points="182.75,-201.73 179.25,-191.73 175.75,-201.73 182.75,-201.73"/>
</g>
<!-- Seattle Slew -->
<g id="node6" class="node">
<title>Seattle Slew</title>
<polygon fill="lightblue" stroke="lightblue" points="344.75,-303 247.75,-303 247.75,-226 344.75,-226 344.75,-303"/>
<image xlink:href="img/mob.png" width="97px" height="77px" preserveAspectRatio="xMinYMin meet" x="247.75" y="-303"/>
<text text-anchor="middle" x="296.25" y="-258.7" font-family="MS Gothic" font-size="14.00">Seattle Slew</text>
</g>
<!-- Seattle Slew&#45;&gt;Mysteries -->
<g id="edge5" class="edge">
<title>Seattle Slew&#45;&gt;Mysteries</title>
<path fill="none" stroke="black" d="M296.25,-225.61C296.25,-217.84 296.25,-209.56 296.25,-201.46"/>
<polygon fill="black" stroke="black" points="299.75,-201.73 296.25,-191.73 292.75,-201.73 299.75,-201.73"/>
</g>
<!-- Phydilla -->
<g id="node7" class="node">
<title>Phydilla</title>
<polygon fill="lightcoral" stroke="lightcoral" points="439.75,-303 362.75,-303 362.75,-226 439.75,-226 439.75,-303"/>
<image xlink:href="img/mob.png" width="77px" height="77px" preserveAspectRatio="xMinYMin meet" x="362.75" y="-303"/>
<text text-anchor="middle" x="401.25" y="-258.7" font-family="MS Gothic" font-size="14.00">Phydilla</text>
</g>
<!-- Phydilla&#45;&gt;Mysteries -->
<g id="edge6" class="edge">
<title>Phydilla&#45;&gt;Mysteries</title>
<path fill="none" stroke="black" d="M365.41,-225.61C357.13,-216.86 348.24,-207.46 339.67,-198.4"/>
<polygon fill="black" stroke="black" points="342.38,-196.18 332.97,-191.32 337.3,-200.99 342.38,-196.18"/>
</g>
</g>
</svg>
