<?xml version="1.0" encoding="UTF-8" standalone="no"?>
<!DOCTYPE svg PUBLIC "-//W3C//DTD SVG 1.1//EN"
 "http://www.w3.org/Graphics/SVG/1.1/DTD/svg11.dtd">
<!-- Generated by graphviz version 12.1.2 (20240928.0832)
 -->
<!-- Pages: 1 -->
<svg width="526pt" height="311pt"
 viewBox="0.00 0.00 525.62 311.00" xmlns="http://www.w3.org/2000/svg" xmlns:xlink="http://www.w3.org/1999/xlink">
<g id="graph0" class="graph" transform="scale(1 1) rotate(0) translate(4 307)">
<polygon fill="white" stroke="none" points="-4,4 -4,-307 521.62,-307 521.62,4 -4,4"/>
<!-- ヒシミラクル -->
<g id="node1" class="node">
<title>ヒシミラクル</title>
<polygon fill="none" stroke="black" points="293.38,-77 173.88,-77 173.88,0 293.38,0 293.38,-77"/>
<image xlink:href="img/hishimirakuru.png" width="100px" height="77px" preserveAspectRatio="xMinYMin meet" x="183.625" y="-77"/>
<text text-anchor="middle" x="233.62" y="-32.33" font-family="Times New Roman,serif" font-size="14.00">ヒシミラクル</text>
</g>
<!-- サッカーボーイ -->
<g id="node2" class="node">
<title>サッカーボーイ</title>
<polygon fill="lightblue" stroke="lightblue" points="221.5,-190 105.75,-190 105.75,-113 221.5,-113 221.5,-190"/>
<image xlink:href="img/mob.png" width="100px" height="77px" preserveAspectRatio="xMinYMin meet" x="113.625" y="-190"/>
<text text-anchor="middle" x="163.62" y="-145.7" font-family="MS Gothic" font-size="14.00">サッカーボーイ</text>
</g>
<!-- サッカーボーイ&#45;&gt;ヒシミラクル -->
<g id="edge1" class="edge">
<title>サッカーボーイ&#45;&gt;ヒシミラクル</title>
<path fill="none" stroke="black" d="M187.52,-112.61C192.76,-104.31 198.36,-95.41 203.8,-86.79"/>
<polygon fill="black" stroke="black" points="206.66,-88.82 209.03,-78.5 200.74,-85.09 206.66,-88.82"/>
</g>
<!-- シュンサクヨシコ -->
<g id="node3" class="node">
<title>シュンサクヨシコ</title>
<polygon fill="lightcoral" stroke="lightcoral" points="369.62,-190 239.62,-190 239.62,-113 369.62,-113 369.62,-190"/>
<image xlink:href="img/mob.png" width="100px" height="77px" preserveAspectRatio="xMinYMin meet" x="254.625" y="-190"/>
<text text-anchor="middle" x="304.62" y="-145.7" font-family="MS Gothic" font-size="14.00">シュンサクヨシコ</text>
</g>
<!-- シュンサクヨシコ&#45;&gt;ヒシミラクル -->
<g id="edge2" class="edge">
<title>シュンサクヨシコ&#45;&gt;ヒシミラクル</title>
<path fill="none" stroke="black" d="M280.39,-112.61C275.08,-104.31 269.39,-95.41 263.87,-86.79"/>
<polygon fill="black" stroke="black" points="266.9,-85.03 258.57,-78.49 261.01,-88.8 266.9,-85.03"/>
</g>
<!-- ディクタス -->
<g id="node4" class="node">
<title>ディクタス</title>
<polygon fill="lightblue" stroke="lightblue" points="87.25,-303 0,-303 0,-226 87.25,-226 87.25,-303"/>
<image xlink:href="img/mob.png" width="87.25px" height="77px" preserveAspectRatio="xMinYMin meet" x="0" y="-303"/>
<text text-anchor="middle" x="43.62" y="-258.7" font-family="MS Gothic" font-size="14.00">ディクタス</text>
</g>
<!-- ディクタス&#45;&gt;サッカーボーイ -->
<g id="edge3" class="edge">
<title>ディクタス&#45;&gt;サッカーボーイ</title>
<path fill="none" stroke="black" d="M84.59,-225.61C94.24,-216.68 104.63,-207.07 114.6,-197.85"/>
<polygon fill="black" stroke="black" points="116.77,-200.61 121.74,-191.25 112.02,-195.47 116.77,-200.61"/>
</g>
<!-- ダイナサッシュ -->
<g id="node5" class="node">
<title>ダイナサッシュ</title>
<polygon fill="lightcoral" stroke="lightcoral" points="221.5,-303 105.75,-303 105.75,-226 221.5,-226 221.5,-303"/>
<image xlink:href="img/mob.png" width="100px" height="77px" preserveAspectRatio="xMinYMin meet" x="113.625" y="-303"/>
<text text-anchor="middle" x="163.62" y="-258.7" font-family="MS Gothic" font-size="14.00">ダイナサッシュ</text>
</g>
<!-- ダイナサッシュ&#45;&gt;サッカーボーイ -->
<g id="edge4" class="edge">
<title>ダイナサッシュ&#45;&gt;サッカーボーイ</title>
<path fill="none" stroke="black" d="M163.62,-225.61C163.62,-217.84 163.62,-209.56 163.62,-201.46"/>
<polygon fill="black" stroke="black" points="167.13,-201.73 163.63,-191.73 160.13,-201.73 167.13,-201.73"/>
</g>
<!-- シェイディハイツ -->
<g id="node6" class="node">
<title>シェイディハイツ</title>
<polygon fill="lightblue" stroke="lightblue" points="369.62,-303 239.62,-303 239.62,-226 369.62,-226 369.62,-303"/>
<image xlink:href="img/mob.png" width="100px" height="77px" preserveAspectRatio="xMinYMin meet" x="254.625" y="-303"/>
<text text-anchor="middle" x="304.62" y="-258.7" font-family="MS Gothic" font-size="14.00">シェイディハイツ</text>
</g>
<!-- シェイディハイツ&#45;&gt;シュンサクヨシコ -->
<g id="edge5" class="edge">
<title>シェイディハイツ&#45;&gt;シュンサクヨシコ</title>
<path fill="none" stroke="black" d="M304.62,-225.61C304.62,-217.84 304.62,-209.56 304.62,-201.46"/>
<polygon fill="black" stroke="black" points="308.13,-201.73 304.63,-191.73 301.13,-201.73 308.13,-201.73"/>
</g>
<!-- シュンサクレディ -->
<g id="node7" class="node">
<title>シュンサクレディ</title>
<polygon fill="lightcoral" stroke="lightcoral" points="517.62,-303 387.62,-303 387.62,-226 517.62,-226 517.62,-303"/>
<image xlink:href="img/mob.png" width="100px" height="77px" preserveAspectRatio="xMinYMin meet" x="402.625" y="-303"/>
<text text-anchor="middle" x="452.62" y="-258.7" font-family="MS Gothic" font-size="14.00">シュンサクレディ</text>
</g>
<!-- シュンサクレディ&#45;&gt;シュンサクヨシコ -->
<g id="edge6" class="edge">
<title>シュンサクレディ&#45;&gt;シュンサクヨシコ</title>
<path fill="none" stroke="black" d="M402.11,-225.61C389.91,-216.46 376.76,-206.6 364.2,-197.18"/>
<polygon fill="black" stroke="black" points="366.48,-194.52 356.38,-191.32 362.28,-200.12 366.48,-194.52"/>
</g>
</g>
</svg>
