<?xml version="1.0" encoding="UTF-8" standalone="no"?>
<!DOCTYPE svg PUBLIC "-//W3C//DTD SVG 1.1//EN"
 "http://www.w3.org/Graphics/SVG/1.1/DTD/svg11.dtd">
<!-- Generated by graphviz version 12.1.2 (20240928.0832)
 -->
<!-- Pages: 1 -->
<svg width="475pt" height="311pt"
 viewBox="0.00 0.00 475.38 311.00" xmlns="http://www.w3.org/2000/svg" xmlns:xlink="http://www.w3.org/1999/xlink">
<g id="graph0" class="graph" transform="scale(1 1) rotate(0) translate(4 307)">
<polygon fill="white" stroke="none" points="-4,4 -4,-307 471.38,-307 471.38,4 -4,4"/>
<!-- ヒシアマゾン -->
<g id="node1" class="node">
<title>ヒシアマゾン</title>
<polygon fill="none" stroke="black" points="294.25,-77 174.75,-77 174.75,0 294.25,0 294.25,-77"/>
<image xlink:href="img/hishiamazon.png" width="100px" height="77px" preserveAspectRatio="xMinYMin meet" x="184.5" y="-77"/>
<text text-anchor="middle" x="234.5" y="-32.33" font-family="Times New Roman,serif" font-size="14.00">ヒシアマゾン</text>
</g>
<!-- Theatrical -->
<g id="node2" class="node">
<title>Theatrical</title>
<polygon fill="lightblue" stroke="lightblue" points="209.25,-190 125.75,-190 125.75,-113 209.25,-113 209.25,-190"/>
<image xlink:href="img/mob.png" width="83.5px" height="77px" preserveAspectRatio="xMinYMin meet" x="125.75" y="-190"/>
<text text-anchor="middle" x="167.5" y="-145.7" font-family="MS Gothic" font-size="14.00">Theatrical</text>
</g>
<!-- Theatrical&#45;&gt;ヒシアマゾン -->
<g id="edge1" class="edge">
<title>Theatrical&#45;&gt;ヒシアマゾン</title>
<path fill="none" stroke="black" d="M190.37,-112.61C195.33,-104.39 200.63,-95.6 205.79,-87.07"/>
<polygon fill="black" stroke="black" points="208.78,-88.88 210.95,-78.51 202.79,-85.27 208.78,-88.88"/>
</g>
<!-- Katies -->
<g id="node3" class="node">
<title>Katies</title>
<polygon fill="lightcoral" stroke="lightcoral" points="340,-190 263,-190 263,-113 340,-113 340,-190"/>
<image xlink:href="img/mob.png" width="77px" height="77px" preserveAspectRatio="xMinYMin meet" x="263" y="-190"/>
<text text-anchor="middle" x="301.5" y="-145.7" font-family="MS Gothic" font-size="14.00">Katies</text>
</g>
<!-- Katies&#45;&gt;ヒシアマゾン -->
<g id="edge2" class="edge">
<title>Katies&#45;&gt;ヒシアマゾン</title>
<path fill="none" stroke="black" d="M278.63,-112.61C273.67,-104.39 268.37,-95.6 263.21,-87.07"/>
<polygon fill="black" stroke="black" points="266.21,-85.27 258.05,-78.51 260.22,-88.88 266.21,-85.27"/>
</g>
<!-- Nureyev -->
<g id="node4" class="node">
<title>Nureyev</title>
<polygon fill="lightblue" stroke="lightblue" points="77,-303 0,-303 0,-226 77,-226 77,-303"/>
<image xlink:href="img/mob.png" width="77px" height="77px" preserveAspectRatio="xMinYMin meet" x="0" y="-303"/>
<text text-anchor="middle" x="38.5" y="-258.7" font-family="MS Gothic" font-size="14.00">Nureyev</text>
</g>
<!-- Nureyev&#45;&gt;Theatrical -->
<g id="edge3" class="edge">
<title>Nureyev&#45;&gt;Theatrical</title>
<path fill="none" stroke="black" d="M77.2,-230.2C89.75,-219.41 103.84,-207.27 117.11,-195.86"/>
<polygon fill="black" stroke="black" points="119.23,-198.65 124.53,-189.48 114.67,-193.34 119.23,-198.65"/>
</g>
<!-- ツリーオブノレッジ -->
<g id="node5" class="node">
<title>ツリーオブノレッジ</title>
<polygon fill="lightcoral" stroke="lightcoral" points="239.62,-303 95.38,-303 95.38,-226 239.62,-226 239.62,-303"/>
<image xlink:href="img/mob.png" width="100px" height="77px" preserveAspectRatio="xMinYMin meet" x="117.5" y="-303"/>
<text text-anchor="middle" x="167.5" y="-258.7" font-family="MS Gothic" font-size="14.00">ツリーオブノレッジ</text>
</g>
<!-- ツリーオブノレッジ&#45;&gt;Theatrical -->
<g id="edge4" class="edge">
<title>ツリーオブノレッジ&#45;&gt;Theatrical</title>
<path fill="none" stroke="black" d="M167.5,-225.61C167.5,-217.84 167.5,-209.56 167.5,-201.46"/>
<polygon fill="black" stroke="black" points="171,-201.73 167.5,-191.73 164,-201.73 171,-201.73"/>
</g>
<!-- ノノアルコ -->
<g id="node6" class="node">
<title>ノノアルコ</title>
<polygon fill="lightblue" stroke="lightblue" points="345.12,-303 257.88,-303 257.88,-226 345.12,-226 345.12,-303"/>
<image xlink:href="img/mob.png" width="87.25px" height="77px" preserveAspectRatio="xMinYMin meet" x="257.875" y="-303"/>
<text text-anchor="middle" x="301.5" y="-258.7" font-family="MS Gothic" font-size="14.00">ノノアルコ</text>
</g>
<!-- ノノアルコ&#45;&gt;Katies -->
<g id="edge5" class="edge">
<title>ノノアルコ&#45;&gt;Katies</title>
<path fill="none" stroke="black" d="M301.5,-225.61C301.5,-217.84 301.5,-209.56 301.5,-201.46"/>
<polygon fill="black" stroke="black" points="305,-201.73 301.5,-191.73 298,-201.73 305,-201.73"/>
</g>
<!-- Mortefontaine -->
<g id="node7" class="node">
<title>Mortefontaine</title>
<polygon fill="lightcoral" stroke="lightcoral" points="467.38,-303 363.62,-303 363.62,-226 467.38,-226 467.38,-303"/>
<image xlink:href="img/mob.png" width="100px" height="77px" preserveAspectRatio="xMinYMin meet" x="365.5" y="-303"/>
<text text-anchor="middle" x="415.5" y="-258.7" font-family="MS Gothic" font-size="14.00">Mortefontaine</text>
</g>
<!-- Mortefontaine&#45;&gt;Katies -->
<g id="edge6" class="edge">
<title>Mortefontaine&#45;&gt;Katies</title>
<path fill="none" stroke="black" d="M376.59,-225.61C367.51,-216.77 357.74,-207.26 348.36,-198.13"/>
<polygon fill="black" stroke="black" points="350.93,-195.74 341.32,-191.27 346.05,-200.76 350.93,-195.74"/>
</g>
</g>
</svg>
