<?xml version="1.0" encoding="UTF-8" standalone="no"?>
<!DOCTYPE svg PUBLIC "-//W3C//DTD SVG 1.1//EN"
 "http://www.w3.org/Graphics/SVG/1.1/DTD/svg11.dtd">
<!-- Generated by graphviz version 12.1.2 (20240928.0832)
 -->
<!-- Pages: 1 -->
<svg width="181pt" height="311pt"
 viewBox="0.00 0.00 180.75 311.00" xmlns="http://www.w3.org/2000/svg" xmlns:xlink="http://www.w3.org/1999/xlink">
<g id="graph0" class="graph" transform="scale(1 1) rotate(0) translate(4 307)">
<polygon fill="white" stroke="none" points="-4,4 -4,-307 176.75,-307 176.75,4 -4,4"/>
<!-- ビリーヴ -->
<g id="node1" class="node">
<title>ビリーヴ</title>
<polygon fill="none" stroke="black" points="128.88,-77 43.88,-77 43.88,0 128.88,0 128.88,-77"/>
<image xlink:href="img/birivu.png" width="85px" height="77px" preserveAspectRatio="xMinYMin meet" x="43.875" y="-77"/>
<text text-anchor="middle" x="86.38" y="-32.33" font-family="Times New Roman,serif" font-size="14.00">ビリーヴ</text>
</g>
<!-- サンデーサイレンス -->
<g id="node2" class="node">
<title>サンデーサイレンス</title>
<polygon fill="lightblue" stroke="lightblue" points="158.5,-190 14.25,-190 14.25,-113 158.5,-113 158.5,-190"/>
<image xlink:href="img/mob.png" width="100px" height="77px" preserveAspectRatio="xMinYMin meet" x="36.375" y="-190"/>
<text text-anchor="middle" x="86.38" y="-145.7" font-family="MS Gothic" font-size="14.00">サンデーサイレンス</text>
</g>
<!-- サンデーサイレンス&#45;&gt;ビリーヴ -->
<g id="edge1" class="edge">
<title>サンデーサイレンス&#45;&gt;ビリーヴ</title>
<path fill="none" stroke="black" d="M86.38,-112.61C86.38,-104.84 86.38,-96.56 86.38,-88.46"/>
<polygon fill="black" stroke="black" points="89.88,-88.73 86.38,-78.73 82.88,-88.73 89.88,-88.73"/>
</g>
<!-- グレートクリスティーヌ -->
<g id="node3" class="node">
<title>グレートクリスティーヌ</title>
<polygon fill="lightblue" stroke="lightblue" points="172.75,-303 0,-303 0,-226 172.75,-226 172.75,-303"/>
<image xlink:href="img/mob.png" width="100px" height="77px" preserveAspectRatio="xMinYMin meet" x="36.375" y="-303"/>
<text text-anchor="middle" x="86.38" y="-258.7" font-family="MS Gothic" font-size="14.00">グレートクリスティーヌ</text>
</g>
<!-- グレートクリスティーヌ&#45;&gt;サンデーサイレンス -->
<g id="edge2" class="edge">
<title>グレートクリスティーヌ&#45;&gt;サンデーサイレンス</title>
<path fill="none" stroke="black" d="M86.38,-225.61C86.38,-217.84 86.38,-209.56 86.38,-201.46"/>
<polygon fill="black" stroke="black" points="89.88,-201.73 86.38,-191.73 82.88,-201.73 89.88,-201.73"/>
</g>
</g>
</svg>
