<?xml version="1.0" encoding="UTF-8" standalone="no"?>
<!DOCTYPE svg PUBLIC "-//W3C//DTD SVG 1.1//EN"
 "http://www.w3.org/Graphics/SVG/1.1/DTD/svg11.dtd">
<!-- Generated by graphviz version 12.1.2 (20240928.0832)
 -->
<!-- Pages: 1 -->
<svg width="427pt" height="311pt"
 viewBox="0.00 0.00 427.00 311.00" xmlns="http://www.w3.org/2000/svg" xmlns:xlink="http://www.w3.org/1999/xlink">
<g id="graph0" class="graph" transform="scale(1 1) rotate(0) translate(4 307)">
<polygon fill="white" stroke="none" points="-4,4 -4,-307 423,-307 423,4 -4,4"/>
<!-- フリオーソ -->
<g id="node1" class="node">
<title>フリオーソ</title>
<polygon fill="none" stroke="black" points="256.62,-77 154.38,-77 154.38,0 256.62,0 256.62,-77"/>
<image xlink:href="img/hurioso.png" width="100px" height="77px" preserveAspectRatio="xMinYMin meet" x="155.5" y="-77"/>
<text text-anchor="middle" x="205.5" y="-32.33" font-family="Times New Roman,serif" font-size="14.00">フリオーソ</text>
</g>
<!-- ブライアンズタイム -->
<g id="node2" class="node">
<title>ブライアンズタイム</title>
<polygon fill="lightblue" stroke="lightblue" points="213.62,-190 69.38,-190 69.38,-113 213.62,-113 213.62,-190"/>
<image xlink:href="img/mob.png" width="100px" height="77px" preserveAspectRatio="xMinYMin meet" x="91.5" y="-190"/>
<text text-anchor="middle" x="141.5" y="-145.7" font-family="MS Gothic" font-size="14.00">ブライアンズタイム</text>
</g>
<!-- ブライアンズタイム&#45;&gt;フリオーソ -->
<g id="edge1" class="edge">
<title>ブライアンズタイム&#45;&gt;フリオーソ</title>
<path fill="none" stroke="black" d="M163.35,-112.61C168.08,-104.39 173.15,-95.6 178.07,-87.07"/>
<polygon fill="black" stroke="black" points="181.03,-88.94 183,-78.53 174.97,-85.44 181.03,-88.94"/>
</g>
<!-- ファーザ -->
<g id="node3" class="node">
<title>ファーザ</title>
<polygon fill="lightcoral" stroke="lightcoral" points="309,-190 232,-190 232,-113 309,-113 309,-190"/>
<image xlink:href="img/mob.png" width="77px" height="77px" preserveAspectRatio="xMinYMin meet" x="232" y="-190"/>
<text text-anchor="middle" x="270.5" y="-145.7" font-family="MS Gothic" font-size="14.00">ファーザ</text>
</g>
<!-- ファーザ&#45;&gt;フリオーソ -->
<g id="edge2" class="edge">
<title>ファーザ&#45;&gt;フリオーソ</title>
<path fill="none" stroke="black" d="M248.31,-112.61C243.5,-104.39 238.35,-95.6 233.36,-87.07"/>
<polygon fill="black" stroke="black" points="236.43,-85.39 228.35,-78.52 230.39,-88.92 236.43,-85.39"/>
</g>
<!-- Roberto -->
<g id="node4" class="node">
<title>Roberto</title>
<polygon fill="lightblue" stroke="lightblue" points="77,-303 0,-303 0,-226 77,-226 77,-303"/>
<image xlink:href="img/mob.png" width="77px" height="77px" preserveAspectRatio="xMinYMin meet" x="0" y="-303"/>
<text text-anchor="middle" x="38.5" y="-258.7" font-family="MS Gothic" font-size="14.00">Roberto</text>
</g>
<!-- Roberto&#45;&gt;ブライアンズタイム -->
<g id="edge3" class="edge">
<title>Roberto&#45;&gt;ブライアンズタイム</title>
<path fill="none" stroke="black" d="M73.66,-225.61C81.78,-216.86 90.5,-207.46 98.9,-198.4"/>
<polygon fill="black" stroke="black" points="101.23,-201.04 105.47,-191.33 96.1,-196.28 101.23,-201.04"/>
</g>
<!-- Kelley&#39;s Day -->
<g id="node5" class="node">
<title>Kelley&#39;s Day</title>
<polygon fill="lightcoral" stroke="lightcoral" points="192,-303 95,-303 95,-226 192,-226 192,-303"/>
<image xlink:href="img/mob.png" width="97px" height="77px" preserveAspectRatio="xMinYMin meet" x="95" y="-303"/>
<text text-anchor="middle" x="143.5" y="-258.7" font-family="MS Gothic" font-size="14.00">Kelley&#39;s Day</text>
</g>
<!-- Kelley&#39;s Day&#45;&gt;ブライアンズタイム -->
<g id="edge4" class="edge">
<title>Kelley&#39;s Day&#45;&gt;ブライアンズタイム</title>
<path fill="none" stroke="black" d="M142.82,-225.61C142.68,-217.84 142.53,-209.56 142.38,-201.46"/>
<polygon fill="black" stroke="black" points="145.89,-201.67 142.21,-191.73 138.89,-201.79 145.89,-201.67"/>
</g>
<!-- Mr. Prospector -->
<g id="node6" class="node">
<title>Mr. Prospector</title>
<polygon fill="lightblue" stroke="lightblue" points="323.75,-303 213.25,-303 213.25,-226 323.75,-226 323.75,-303"/>
<image xlink:href="img/mob.png" width="100px" height="77px" preserveAspectRatio="xMinYMin meet" x="218.5" y="-303"/>
<text text-anchor="middle" x="268.5" y="-258.7" font-family="MS Gothic" font-size="14.00">Mr. Prospector</text>
</g>
<!-- Mr. Prospector&#45;&gt;ファーザ -->
<g id="edge5" class="edge">
<title>Mr. Prospector&#45;&gt;ファーザ</title>
<path fill="none" stroke="black" d="M269.18,-225.61C269.32,-217.84 269.47,-209.56 269.62,-201.46"/>
<polygon fill="black" stroke="black" points="273.11,-201.79 269.79,-191.73 266.11,-201.67 273.11,-201.79"/>
</g>
<!-- Baya -->
<g id="node7" class="node">
<title>Baya</title>
<polygon fill="lightcoral" stroke="lightcoral" points="419,-303 342,-303 342,-226 419,-226 419,-303"/>
<image xlink:href="img/mob.png" width="77px" height="77px" preserveAspectRatio="xMinYMin meet" x="342" y="-303"/>
<text text-anchor="middle" x="380.5" y="-258.7" font-family="MS Gothic" font-size="14.00">Baya</text>
</g>
<!-- Baya&#45;&gt;ファーザ -->
<g id="edge6" class="edge">
<title>Baya&#45;&gt;ファーザ</title>
<path fill="none" stroke="black" d="M342.95,-225.61C334.19,-216.77 324.77,-207.26 315.72,-198.13"/>
<polygon fill="black" stroke="black" points="318.47,-195.93 308.94,-191.29 313.5,-200.86 318.47,-195.93"/>
</g>
</g>
</svg>
