<?xml version="1.0" encoding="UTF-8" standalone="no"?>
<!DOCTYPE svg PUBLIC "-//W3C//DTD SVG 1.1//EN"
 "http://www.w3.org/Graphics/SVG/1.1/DTD/svg11.dtd">
<!-- Generated by graphviz version 12.1.2 (20240928.0832)
 -->
<!-- Pages: 1 -->
<svg width="372pt" height="311pt"
 viewBox="0.00 0.00 372.00 311.00" xmlns="http://www.w3.org/2000/svg" xmlns:xlink="http://www.w3.org/1999/xlink">
<g id="graph0" class="graph" transform="scale(1 1) rotate(0) translate(4 307)">
<polygon fill="white" stroke="none" points="-4,4 -4,-307 368,-307 368,4 -4,4"/>
<!-- ファインモーション -->
<g id="node1" class="node">
<title>ファインモーション</title>
<polygon fill="none" stroke="black" points="267.12,-77 95.88,-77 95.88,0 267.12,0 267.12,-77"/>
<image xlink:href="img/huainmoshiyon.png" width="100px" height="77px" preserveAspectRatio="xMinYMin meet" x="131.5" y="-77"/>
<text text-anchor="middle" x="181.5" y="-32.33" font-family="Times New Roman,serif" font-size="14.00">ファインモーション</text>
</g>
<!-- デインヒル -->
<g id="node2" class="node">
<title>デインヒル</title>
<polygon fill="lightblue" stroke="lightblue" points="175.12,-190 87.88,-190 87.88,-113 175.12,-113 175.12,-190"/>
<image xlink:href="img/mob.png" width="87.25px" height="77px" preserveAspectRatio="xMinYMin meet" x="87.875" y="-190"/>
<text text-anchor="middle" x="131.5" y="-145.7" font-family="MS Gothic" font-size="14.00">デインヒル</text>
</g>
<!-- デインヒル&#45;&gt;ファインモーション -->
<g id="edge1" class="edge">
<title>デインヒル&#45;&gt;ファインモーション</title>
<path fill="none" stroke="black" d="M148.57,-112.61C152.19,-104.57 156.06,-95.99 159.82,-87.63"/>
<polygon fill="black" stroke="black" points="162.97,-89.15 163.89,-78.6 156.59,-86.28 162.97,-89.15"/>
</g>
<!-- Cocotte -->
<g id="node3" class="node">
<title>Cocotte</title>
<polygon fill="lightcoral" stroke="lightcoral" points="270,-190 193,-190 193,-113 270,-113 270,-190"/>
<image xlink:href="img/mob.png" width="77px" height="77px" preserveAspectRatio="xMinYMin meet" x="193" y="-190"/>
<text text-anchor="middle" x="231.5" y="-145.7" font-family="MS Gothic" font-size="14.00">Cocotte</text>
</g>
<!-- Cocotte&#45;&gt;ファインモーション -->
<g id="edge2" class="edge">
<title>Cocotte&#45;&gt;ファインモーション</title>
<path fill="none" stroke="black" d="M214.43,-112.61C210.81,-104.57 206.94,-95.99 203.18,-87.63"/>
<polygon fill="black" stroke="black" points="206.41,-86.28 199.11,-78.6 200.03,-89.15 206.41,-86.28"/>
</g>
<!-- Danzig -->
<g id="node4" class="node">
<title>Danzig</title>
<polygon fill="lightblue" stroke="lightblue" points="77,-303 0,-303 0,-226 77,-226 77,-303"/>
<image xlink:href="img/mob.png" width="77px" height="77px" preserveAspectRatio="xMinYMin meet" x="0" y="-303"/>
<text text-anchor="middle" x="38.5" y="-258.7" font-family="MS Gothic" font-size="14.00">Danzig</text>
</g>
<!-- Danzig&#45;&gt;デインヒル -->
<g id="edge3" class="edge">
<title>Danzig&#45;&gt;デインヒル</title>
<path fill="none" stroke="black" d="M70.25,-225.61C77.43,-217.04 85.13,-207.84 92.58,-198.96"/>
<polygon fill="black" stroke="black" points="95.19,-201.29 98.93,-191.38 89.82,-196.8 95.19,-201.29"/>
</g>
<!-- Razyana -->
<g id="node5" class="node">
<title>Razyana</title>
<polygon fill="lightcoral" stroke="lightcoral" points="172,-303 95,-303 95,-226 172,-226 172,-303"/>
<image xlink:href="img/mob.png" width="77px" height="77px" preserveAspectRatio="xMinYMin meet" x="95" y="-303"/>
<text text-anchor="middle" x="133.5" y="-258.7" font-family="MS Gothic" font-size="14.00">Razyana</text>
</g>
<!-- Razyana&#45;&gt;デインヒル -->
<g id="edge4" class="edge">
<title>Razyana&#45;&gt;デインヒル</title>
<path fill="none" stroke="black" d="M132.82,-225.61C132.68,-217.84 132.53,-209.56 132.38,-201.46"/>
<polygon fill="black" stroke="black" points="135.89,-201.67 132.21,-191.73 128.89,-201.79 135.89,-201.67"/>
</g>
<!-- Troy -->
<g id="node6" class="node">
<title>Troy</title>
<polygon fill="lightblue" stroke="lightblue" points="269,-303 192,-303 192,-226 269,-226 269,-303"/>
<image xlink:href="img/mob.png" width="77px" height="77px" preserveAspectRatio="xMinYMin meet" x="192" y="-303"/>
<text text-anchor="middle" x="230.5" y="-258.7" font-family="MS Gothic" font-size="14.00">Troy</text>
</g>
<!-- Troy&#45;&gt;Cocotte -->
<g id="edge5" class="edge">
<title>Troy&#45;&gt;Cocotte</title>
<path fill="none" stroke="black" d="M230.84,-225.61C230.91,-217.84 230.99,-209.56 231.06,-201.46"/>
<polygon fill="black" stroke="black" points="234.56,-201.76 231.15,-191.73 227.56,-201.7 234.56,-201.76"/>
</g>
<!-- Gay Milly -->
<g id="node7" class="node">
<title>Gay Milly</title>
<polygon fill="lightcoral" stroke="lightcoral" points="364,-303 287,-303 287,-226 364,-226 364,-303"/>
<image xlink:href="img/mob.png" width="77px" height="77px" preserveAspectRatio="xMinYMin meet" x="287" y="-303"/>
<text text-anchor="middle" x="325.5" y="-258.7" font-family="MS Gothic" font-size="14.00">Gay Milly</text>
</g>
<!-- Gay Milly&#45;&gt;Cocotte -->
<g id="edge6" class="edge">
<title>Gay Milly&#45;&gt;Cocotte</title>
<path fill="none" stroke="black" d="M293.41,-225.61C286.15,-217.04 278.36,-207.84 270.84,-198.96"/>
<polygon fill="black" stroke="black" points="273.55,-196.74 264.42,-191.37 268.21,-201.27 273.55,-196.74"/>
</g>
</g>
</svg>
