<?xml version="1.0" encoding="UTF-8" standalone="no"?>
<!DOCTYPE svg PUBLIC "-//W3C//DTD SVG 1.1//EN"
 "http://www.w3.org/Graphics/SVG/1.1/DTD/svg11.dtd">
<!-- Generated by graphviz version 12.1.2 (20240928.0832)
 -->
<!-- Pages: 1 -->
<svg width="505pt" height="311pt"
 viewBox="0.00 0.00 504.50 311.00" xmlns="http://www.w3.org/2000/svg" xmlns:xlink="http://www.w3.org/1999/xlink">
<g id="graph0" class="graph" transform="scale(1 1) rotate(0) translate(4 307)">
<polygon fill="white" stroke="none" points="-4,4 -4,-307 500.5,-307 500.5,4 -4,4"/>
<!-- ブラストワンピース -->
<g id="node1" class="node">
<title>ブラストワンピース</title>
<polygon fill="none" stroke="black" points="299.12,-77 127.88,-77 127.88,0 299.12,0 299.12,-77"/>
<image xlink:href="img/burasutowanpisu.png" width="100px" height="77px" preserveAspectRatio="xMinYMin meet" x="163.5" y="-77"/>
<text text-anchor="middle" x="213.5" y="-32.33" font-family="Times New Roman,serif" font-size="14.00">ブラストワンピース</text>
</g>
<!-- ハービンジャー -->
<g id="node2" class="node">
<title>ハービンジャー</title>
<polygon fill="lightblue" stroke="lightblue" points="197.38,-190 81.62,-190 81.62,-113 197.38,-113 197.38,-190"/>
<image xlink:href="img/mob.png" width="100px" height="77px" preserveAspectRatio="xMinYMin meet" x="89.5" y="-190"/>
<text text-anchor="middle" x="139.5" y="-145.7" font-family="MS Gothic" font-size="14.00">ハービンジャー</text>
</g>
<!-- ハービンジャー&#45;&gt;ブラストワンピース -->
<g id="edge1" class="edge">
<title>ハービンジャー&#45;&gt;ブラストワンピース</title>
<path fill="none" stroke="black" d="M164.76,-112.61C170.3,-104.31 176.22,-95.41 181.97,-86.79"/>
<polygon fill="black" stroke="black" points="184.88,-88.74 187.51,-78.48 179.06,-84.86 184.88,-88.74"/>
</g>
<!-- ツルマルワンピース -->
<g id="node3" class="node">
<title>ツルマルワンピース</title>
<polygon fill="lightcoral" stroke="lightcoral" points="359.62,-190 215.38,-190 215.38,-113 359.62,-113 359.62,-190"/>
<image xlink:href="img/mob.png" width="100px" height="77px" preserveAspectRatio="xMinYMin meet" x="237.5" y="-190"/>
<text text-anchor="middle" x="287.5" y="-145.7" font-family="MS Gothic" font-size="14.00">ツルマルワンピース</text>
</g>
<!-- ツルマルワンピース&#45;&gt;ブラストワンピース -->
<g id="edge2" class="edge">
<title>ツルマルワンピース&#45;&gt;ブラストワンピース</title>
<path fill="none" stroke="black" d="M262.24,-112.61C256.7,-104.31 250.78,-95.41 245.03,-86.79"/>
<polygon fill="black" stroke="black" points="247.94,-84.86 239.49,-78.48 242.12,-88.74 247.94,-84.86"/>
</g>
<!-- Dansili -->
<g id="node4" class="node">
<title>Dansili</title>
<polygon fill="lightblue" stroke="lightblue" points="77,-303 0,-303 0,-226 77,-226 77,-303"/>
<image xlink:href="img/mob.png" width="77px" height="77px" preserveAspectRatio="xMinYMin meet" x="0" y="-303"/>
<text text-anchor="middle" x="38.5" y="-258.7" font-family="MS Gothic" font-size="14.00">Dansili</text>
</g>
<!-- Dansili&#45;&gt;ハービンジャー -->
<g id="edge3" class="edge">
<title>Dansili&#45;&gt;ハービンジャー</title>
<path fill="none" stroke="black" d="M72.98,-225.61C80.86,-216.95 89.32,-207.65 97.48,-198.68"/>
<polygon fill="black" stroke="black" points="100.02,-201.09 104.16,-191.34 94.84,-196.38 100.02,-201.09"/>
</g>
<!-- Penang Pearl -->
<g id="node5" class="node">
<title>Penang Pearl</title>
<polygon fill="lightcoral" stroke="lightcoral" points="192,-303 95,-303 95,-226 192,-226 192,-303"/>
<image xlink:href="img/mob.png" width="97px" height="77px" preserveAspectRatio="xMinYMin meet" x="95" y="-303"/>
<text text-anchor="middle" x="143.5" y="-258.7" font-family="MS Gothic" font-size="14.00">Penang Pearl</text>
</g>
<!-- Penang Pearl&#45;&gt;ハービンジャー -->
<g id="edge4" class="edge">
<title>Penang Pearl&#45;&gt;ハービンジャー</title>
<path fill="none" stroke="black" d="M142.13,-225.61C141.85,-217.84 141.56,-209.56 141.26,-201.46"/>
<polygon fill="black" stroke="black" points="144.77,-201.6 140.91,-191.73 137.78,-201.85 144.77,-201.6"/>
</g>
<!-- キングカメハメハ -->
<g id="node6" class="node">
<title>キングカメハメハ</title>
<polygon fill="lightblue" stroke="lightblue" points="348.5,-303 218.5,-303 218.5,-226 348.5,-226 348.5,-303"/>
<image xlink:href="img/mob.png" width="100px" height="77px" preserveAspectRatio="xMinYMin meet" x="233.5" y="-303"/>
<text text-anchor="middle" x="283.5" y="-258.7" font-family="MS Gothic" font-size="14.00">キングカメハメハ</text>
</g>
<!-- キングカメハメハ&#45;&gt;ツルマルワンピース -->
<g id="edge5" class="edge">
<title>キングカメハメハ&#45;&gt;ツルマルワンピース</title>
<path fill="none" stroke="black" d="M284.87,-225.61C285.15,-217.84 285.44,-209.56 285.74,-201.46"/>
<polygon fill="black" stroke="black" points="289.22,-201.85 286.09,-191.73 282.23,-201.6 289.22,-201.85"/>
</g>
<!-- ツルマルグラマー -->
<g id="node7" class="node">
<title>ツルマルグラマー</title>
<polygon fill="lightcoral" stroke="lightcoral" points="496.5,-303 366.5,-303 366.5,-226 496.5,-226 496.5,-303"/>
<image xlink:href="img/mob.png" width="100px" height="77px" preserveAspectRatio="xMinYMin meet" x="381.5" y="-303"/>
<text text-anchor="middle" x="431.5" y="-258.7" font-family="MS Gothic" font-size="14.00">ツルマルグラマー</text>
</g>
<!-- ツルマルグラマー&#45;&gt;ツルマルワンピース -->
<g id="edge6" class="edge">
<title>ツルマルグラマー&#45;&gt;ツルマルワンピース</title>
<path fill="none" stroke="black" d="M382.35,-225.61C370.41,-216.41 357.55,-206.49 345.26,-197.02"/>
<polygon fill="black" stroke="black" points="347.69,-194.48 337.63,-191.14 343.41,-200.02 347.69,-194.48"/>
</g>
</g>
</svg>
