<?xml version="1.0" encoding="UTF-8" standalone="no"?>
<!DOCTYPE svg PUBLIC "-//W3C//DTD SVG 1.1//EN"
 "http://www.w3.org/Graphics/SVG/1.1/DTD/svg11.dtd">
<!-- Generated by graphviz version 12.1.2 (20240928.0832)
 -->
<!-- Pages: 1 -->
<svg width="457pt" height="311pt"
 viewBox="0.00 0.00 457.38 311.00" xmlns="http://www.w3.org/2000/svg" xmlns:xlink="http://www.w3.org/1999/xlink">
<g id="graph0" class="graph" transform="scale(1 1) rotate(0) translate(4 307)">
<polygon fill="white" stroke="none" points="-4,4 -4,-307 453.38,-307 453.38,4 -4,4"/>
<!-- ホッコータルマエ -->
<g id="node1" class="node">
<title>ホッコータルマエ</title>
<polygon fill="none" stroke="black" points="279.5,-77 125.5,-77 125.5,0 279.5,0 279.5,-77"/>
<image xlink:href="img/hotsukotarumae.png" width="100px" height="77px" preserveAspectRatio="xMinYMin meet" x="152.5" y="-77"/>
<text text-anchor="middle" x="202.5" y="-32.33" font-family="Times New Roman,serif" font-size="14.00">ホッコータルマエ</text>
</g>
<!-- キングカメハメハ -->
<g id="node2" class="node">
<title>キングカメハメハ</title>
<polygon fill="lightblue" stroke="lightblue" points="193.5,-190 63.5,-190 63.5,-113 193.5,-113 193.5,-190"/>
<image xlink:href="img/mob.png" width="100px" height="77px" preserveAspectRatio="xMinYMin meet" x="78.5" y="-190"/>
<text text-anchor="middle" x="128.5" y="-145.7" font-family="MS Gothic" font-size="14.00">キングカメハメハ</text>
</g>
<!-- キングカメハメハ&#45;&gt;ホッコータルマエ -->
<g id="edge1" class="edge">
<title>キングカメハメハ&#45;&gt;ホッコータルマエ</title>
<path fill="none" stroke="black" d="M153.76,-112.61C159.3,-104.31 165.22,-95.41 170.97,-86.79"/>
<polygon fill="black" stroke="black" points="173.88,-88.74 176.51,-78.48 168.06,-84.86 173.88,-88.74"/>
</g>
<!-- マダムチェロキー -->
<g id="node3" class="node">
<title>マダムチェロキー</title>
<polygon fill="lightcoral" stroke="lightcoral" points="341.5,-190 211.5,-190 211.5,-113 341.5,-113 341.5,-190"/>
<image xlink:href="img/mob.png" width="100px" height="77px" preserveAspectRatio="xMinYMin meet" x="226.5" y="-190"/>
<text text-anchor="middle" x="276.5" y="-145.7" font-family="MS Gothic" font-size="14.00">マダムチェロキー</text>
</g>
<!-- マダムチェロキー&#45;&gt;ホッコータルマエ -->
<g id="edge2" class="edge">
<title>マダムチェロキー&#45;&gt;ホッコータルマエ</title>
<path fill="none" stroke="black" d="M251.24,-112.61C245.7,-104.31 239.78,-95.41 234.03,-86.79"/>
<polygon fill="black" stroke="black" points="236.94,-84.86 228.49,-78.48 231.12,-88.74 236.94,-84.86"/>
</g>
<!-- Kingmambo -->
<g id="node4" class="node">
<title>Kingmambo</title>
<polygon fill="lightblue" stroke="lightblue" points="77,-303 0,-303 0,-226 77,-226 77,-303"/>
<image xlink:href="img/mob.png" width="77px" height="77px" preserveAspectRatio="xMinYMin meet" x="0" y="-303"/>
<text text-anchor="middle" x="38.5" y="-258.7" font-family="MS Gothic" font-size="14.00">Kingmambo</text>
</g>
<!-- Kingmambo&#45;&gt;キングカメハメハ -->
<g id="edge3" class="edge">
<title>Kingmambo&#45;&gt;キングカメハメハ</title>
<path fill="none" stroke="black" d="M69.22,-225.61C76.17,-217.04 83.63,-207.84 90.83,-198.96"/>
<polygon fill="black" stroke="black" points="93.38,-201.37 96.96,-191.39 87.95,-196.96 93.38,-201.37"/>
</g>
<!-- マンファス -->
<g id="node5" class="node">
<title>マンファス</title>
<polygon fill="lightcoral" stroke="lightcoral" points="182.12,-303 94.88,-303 94.88,-226 182.12,-226 182.12,-303"/>
<image xlink:href="img/mob.png" width="87.25px" height="77px" preserveAspectRatio="xMinYMin meet" x="94.875" y="-303"/>
<text text-anchor="middle" x="138.5" y="-258.7" font-family="MS Gothic" font-size="14.00">マンファス</text>
</g>
<!-- マンファス&#45;&gt;キングカメハメハ -->
<g id="edge4" class="edge">
<title>マンファス&#45;&gt;キングカメハメハ</title>
<path fill="none" stroke="black" d="M135.09,-225.61C134.39,-217.84 133.64,-209.56 132.91,-201.46"/>
<polygon fill="black" stroke="black" points="136.42,-201.37 132.03,-191.73 129.45,-202 136.42,-201.37"/>
</g>
<!-- Cherokee Run -->
<g id="node6" class="node">
<title>Cherokee Run</title>
<polygon fill="lightblue" stroke="lightblue" points="316,-303 219,-303 219,-226 316,-226 316,-303"/>
<image xlink:href="img/mob.png" width="97px" height="77px" preserveAspectRatio="xMinYMin meet" x="219" y="-303"/>
<text text-anchor="middle" x="267.5" y="-258.7" font-family="MS Gothic" font-size="14.00">Cherokee Run</text>
</g>
<!-- Cherokee Run&#45;&gt;マダムチェロキー -->
<g id="edge5" class="edge">
<title>Cherokee Run&#45;&gt;マダムチェロキー</title>
<path fill="none" stroke="black" d="M270.57,-225.61C271.2,-217.84 271.87,-209.56 272.53,-201.46"/>
<polygon fill="black" stroke="black" points="276,-201.98 273.32,-191.73 269.02,-201.41 276,-201.98"/>
</g>
<!-- アンフォイルド -->
<g id="node7" class="node">
<title>アンフォイルド</title>
<polygon fill="lightcoral" stroke="lightcoral" points="449.38,-303 333.62,-303 333.62,-226 449.38,-226 449.38,-303"/>
<image xlink:href="img/mob.png" width="100px" height="77px" preserveAspectRatio="xMinYMin meet" x="341.5" y="-303"/>
<text text-anchor="middle" x="391.5" y="-258.7" font-family="MS Gothic" font-size="14.00">アンフォイルド</text>
</g>
<!-- アンフォイルド&#45;&gt;マダムチェロキー -->
<g id="edge6" class="edge">
<title>アンフォイルド&#45;&gt;マダムチェロキー</title>
<path fill="none" stroke="black" d="M352.25,-225.61C343.09,-216.77 333.24,-207.26 323.77,-198.13"/>
<polygon fill="black" stroke="black" points="326.29,-195.7 316.67,-191.27 321.43,-200.73 326.29,-195.7"/>
</g>
</g>
</svg>
