<?xml version="1.0" encoding="UTF-8" standalone="no"?>
<!DOCTYPE svg PUBLIC "-//W3C//DTD SVG 1.1//EN"
 "http://www.w3.org/Graphics/SVG/1.1/DTD/svg11.dtd">
<!-- Generated by graphviz version 12.1.2 (20240928.0832)
 -->
<!-- Pages: 1 -->
<svg width="553pt" height="311pt"
 viewBox="0.00 0.00 553.25 311.00" xmlns="http://www.w3.org/2000/svg" xmlns:xlink="http://www.w3.org/1999/xlink">
<g id="graph0" class="graph" transform="scale(1 1) rotate(0) translate(4 307)">
<polygon fill="white" stroke="none" points="-4,4 -4,-307 549.25,-307 549.25,4 -4,4"/>
<!-- マチカネフクキタル -->
<g id="node1" class="node">
<title>マチカネフクキタル</title>
<polygon fill="none" stroke="black" points="340.88,-77 169.62,-77 169.62,0 340.88,0 340.88,-77"/>
<image xlink:href="img/machikanehukukitaru.png" width="100px" height="77px" preserveAspectRatio="xMinYMin meet" x="205.25" y="-77"/>
<text text-anchor="middle" x="255.25" y="-32.33" font-family="Times New Roman,serif" font-size="14.00">マチカネフクキタル</text>
</g>
<!-- クリスタルグリッターズ -->
<g id="node2" class="node">
<title>クリスタルグリッターズ</title>
<polygon fill="lightblue" stroke="lightblue" points="257.62,-190 84.88,-190 84.88,-113 257.62,-113 257.62,-190"/>
<image xlink:href="img/mob.png" width="100px" height="77px" preserveAspectRatio="xMinYMin meet" x="121.25" y="-190"/>
<text text-anchor="middle" x="171.25" y="-145.7" font-family="MS Gothic" font-size="14.00">クリスタルグリッターズ</text>
</g>
<!-- クリスタルグリッターズ&#45;&gt;マチカネフクキタル -->
<g id="edge1" class="edge">
<title>クリスタルグリッターズ&#45;&gt;マチカネフクキタル</title>
<path fill="none" stroke="black" d="M199.92,-112.61C206.34,-104.13 213.23,-95.03 219.88,-86.24"/>
<polygon fill="black" stroke="black" points="222.55,-88.51 225.79,-78.43 216.97,-84.29 222.55,-88.51"/>
</g>
<!-- アテナトウショウ -->
<g id="node3" class="node">
<title>アテナトウショウ</title>
<polygon fill="lightcoral" stroke="lightcoral" points="405.25,-190 275.25,-190 275.25,-113 405.25,-113 405.25,-190"/>
<image xlink:href="img/mob.png" width="100px" height="77px" preserveAspectRatio="xMinYMin meet" x="290.25" y="-190"/>
<text text-anchor="middle" x="340.25" y="-145.7" font-family="MS Gothic" font-size="14.00">アテナトウショウ</text>
</g>
<!-- アテナトウショウ&#45;&gt;マチカネフクキタル -->
<g id="edge2" class="edge">
<title>アテナトウショウ&#45;&gt;マチカネフクキタル</title>
<path fill="none" stroke="black" d="M311.24,-112.61C304.74,-104.13 297.77,-95.03 291.04,-86.24"/>
<polygon fill="black" stroke="black" points="293.91,-84.23 285.05,-78.42 288.35,-88.49 293.91,-84.23"/>
</g>
<!-- Blushing Groom -->
<g id="node4" class="node">
<title>Blushing Groom</title>
<polygon fill="lightblue" stroke="lightblue" points="110.5,-303 0,-303 0,-226 110.5,-226 110.5,-303"/>
<image xlink:href="img/mob.png" width="100px" height="77px" preserveAspectRatio="xMinYMin meet" x="5.25" y="-303"/>
<text text-anchor="middle" x="55.25" y="-258.7" font-family="MS Gothic" font-size="14.00">Blushing Groom</text>
</g>
<!-- Blushing Groom&#45;&gt;クリスタルグリッターズ -->
<g id="edge3" class="edge">
<title>Blushing Groom&#45;&gt;クリスタルグリッターズ</title>
<path fill="none" stroke="black" d="M94.85,-225.61C104.09,-216.77 114.02,-207.26 123.57,-198.13"/>
<polygon fill="black" stroke="black" points="125.93,-200.71 130.74,-191.27 121.09,-195.65 125.93,-200.71"/>
</g>
<!-- Tales to Tell -->
<g id="node5" class="node">
<title>Tales to Tell</title>
<polygon fill="lightcoral" stroke="lightcoral" points="232.12,-303 128.38,-303 128.38,-226 232.12,-226 232.12,-303"/>
<image xlink:href="img/mob.png" width="100px" height="77px" preserveAspectRatio="xMinYMin meet" x="130.25" y="-303"/>
<text text-anchor="middle" x="180.25" y="-258.7" font-family="MS Gothic" font-size="14.00">Tales to Tell</text>
</g>
<!-- Tales to Tell&#45;&gt;クリスタルグリッターズ -->
<g id="edge4" class="edge">
<title>Tales to Tell&#45;&gt;クリスタルグリッターズ</title>
<path fill="none" stroke="black" d="M177.18,-225.61C176.55,-217.84 175.88,-209.56 175.22,-201.46"/>
<polygon fill="black" stroke="black" points="178.73,-201.41 174.43,-191.73 171.75,-201.98 178.73,-201.41"/>
</g>
<!-- トウショウボーイ -->
<g id="node6" class="node">
<title>トウショウボーイ</title>
<polygon fill="lightblue" stroke="lightblue" points="397.25,-303 267.25,-303 267.25,-226 397.25,-226 397.25,-303"/>
<image xlink:href="img/mob.png" width="100px" height="77px" preserveAspectRatio="xMinYMin meet" x="282.25" y="-303"/>
<text text-anchor="middle" x="332.25" y="-258.7" font-family="MS Gothic" font-size="14.00">トウショウボーイ</text>
</g>
<!-- トウショウボーイ&#45;&gt;アテナトウショウ -->
<g id="edge5" class="edge">
<title>トウショウボーイ&#45;&gt;アテナトウショウ</title>
<path fill="none" stroke="black" d="M334.98,-225.61C335.54,-217.84 336.14,-209.56 336.72,-201.46"/>
<polygon fill="black" stroke="black" points="340.19,-201.95 337.42,-191.73 333.21,-201.45 340.19,-201.95"/>
</g>
<!-- グレイトウショウ -->
<g id="node7" class="node">
<title>グレイトウショウ</title>
<polygon fill="lightcoral" stroke="lightcoral" points="545.25,-303 415.25,-303 415.25,-226 545.25,-226 545.25,-303"/>
<image xlink:href="img/mob.png" width="100px" height="77px" preserveAspectRatio="xMinYMin meet" x="430.25" y="-303"/>
<text text-anchor="middle" x="480.25" y="-258.7" font-family="MS Gothic" font-size="14.00">グレイトウショウ</text>
</g>
<!-- グレイトウショウ&#45;&gt;アテナトウショウ -->
<g id="edge6" class="edge">
<title>グレイトウショウ&#45;&gt;アテナトウショウ</title>
<path fill="none" stroke="black" d="M432.46,-225.61C420.97,-216.5 408.59,-206.69 396.75,-197.3"/>
<polygon fill="black" stroke="black" points="399.02,-194.63 389.01,-191.16 394.67,-200.11 399.02,-194.63"/>
</g>
</g>
</svg>
