<?xml version="1.0" encoding="UTF-8" standalone="no"?>
<!DOCTYPE svg PUBLIC "-//W3C//DTD SVG 1.1//EN"
 "http://www.w3.org/Graphics/SVG/1.1/DTD/svg11.dtd">
<!-- Generated by graphviz version 12.1.2 (20240928.0832)
 -->
<!-- Pages: 1 -->
<svg width="444pt" height="311pt"
 viewBox="0.00 0.00 444.00 311.00" xmlns="http://www.w3.org/2000/svg" xmlns:xlink="http://www.w3.org/1999/xlink">
<g id="graph0" class="graph" transform="scale(1 1) rotate(0) translate(4 307)">
<polygon fill="white" stroke="none" points="-4,4 -4,-307 440,-307 440,4 -4,4"/>
<!-- マヤノトップガン -->
<g id="node1" class="node">
<title>マヤノトップガン</title>
<polygon fill="none" stroke="black" points="291.5,-77 137.5,-77 137.5,0 291.5,0 291.5,-77"/>
<image xlink:href="img/mayanototsupugan.png" width="100px" height="77px" preserveAspectRatio="xMinYMin meet" x="164.5" y="-77"/>
<text text-anchor="middle" x="214.5" y="-32.33" font-family="Times New Roman,serif" font-size="14.00">マヤノトップガン</text>
</g>
<!-- ブライアンズタイム -->
<g id="node2" class="node">
<title>ブライアンズタイム</title>
<polygon fill="lightblue" stroke="lightblue" points="205.62,-190 61.38,-190 61.38,-113 205.62,-113 205.62,-190"/>
<image xlink:href="img/mob.png" width="100px" height="77px" preserveAspectRatio="xMinYMin meet" x="83.5" y="-190"/>
<text text-anchor="middle" x="133.5" y="-145.7" font-family="MS Gothic" font-size="14.00">ブライアンズタイム</text>
</g>
<!-- ブライアンズタイム&#45;&gt;マヤノトップガン -->
<g id="edge1" class="edge">
<title>ブライアンズタイム&#45;&gt;マヤノトップガン</title>
<path fill="none" stroke="black" d="M161.15,-112.61C167.27,-104.22 173.84,-95.22 180.19,-86.51"/>
<polygon fill="black" stroke="black" points="183.02,-88.58 186.08,-78.44 177.36,-84.46 183.02,-88.58"/>
</g>
<!-- アルプミープリーズ -->
<g id="node3" class="node">
<title>アルプミープリーズ</title>
<polygon fill="lightcoral" stroke="lightcoral" points="367.62,-190 223.38,-190 223.38,-113 367.62,-113 367.62,-190"/>
<image xlink:href="img/mob.png" width="100px" height="77px" preserveAspectRatio="xMinYMin meet" x="245.5" y="-190"/>
<text text-anchor="middle" x="295.5" y="-145.7" font-family="MS Gothic" font-size="14.00">アルプミープリーズ</text>
</g>
<!-- アルプミープリーズ&#45;&gt;マヤノトップガン -->
<g id="edge2" class="edge">
<title>アルプミープリーズ&#45;&gt;マヤノトップガン</title>
<path fill="none" stroke="black" d="M267.85,-112.61C261.73,-104.22 255.16,-95.22 248.81,-86.51"/>
<polygon fill="black" stroke="black" points="251.64,-84.46 242.92,-78.44 245.98,-88.58 251.64,-84.46"/>
</g>
<!-- Roberto -->
<g id="node4" class="node">
<title>Roberto</title>
<polygon fill="lightblue" stroke="lightblue" points="77,-303 0,-303 0,-226 77,-226 77,-303"/>
<image xlink:href="img/mob.png" width="77px" height="77px" preserveAspectRatio="xMinYMin meet" x="0" y="-303"/>
<text text-anchor="middle" x="38.5" y="-258.7" font-family="MS Gothic" font-size="14.00">Roberto</text>
</g>
<!-- Roberto&#45;&gt;ブライアンズタイム -->
<g id="edge3" class="edge">
<title>Roberto&#45;&gt;ブライアンズタイム</title>
<path fill="none" stroke="black" d="M70.93,-225.61C78.26,-217.04 86.14,-207.84 93.74,-198.96"/>
<polygon fill="black" stroke="black" points="96.39,-201.24 100.23,-191.37 91.07,-196.69 96.39,-201.24"/>
</g>
<!-- Kelley&#39;s Day -->
<g id="node5" class="node">
<title>Kelley&#39;s Day</title>
<polygon fill="lightcoral" stroke="lightcoral" points="192,-303 95,-303 95,-226 192,-226 192,-303"/>
<image xlink:href="img/mob.png" width="97px" height="77px" preserveAspectRatio="xMinYMin meet" x="95" y="-303"/>
<text text-anchor="middle" x="143.5" y="-258.7" font-family="MS Gothic" font-size="14.00">Kelley&#39;s Day</text>
</g>
<!-- Kelley&#39;s Day&#45;&gt;ブライアンズタイム -->
<g id="edge4" class="edge">
<title>Kelley&#39;s Day&#45;&gt;ブライアンズタイム</title>
<path fill="none" stroke="black" d="M140.09,-225.61C139.39,-217.84 138.64,-209.56 137.91,-201.46"/>
<polygon fill="black" stroke="black" points="141.42,-201.37 137.03,-191.73 134.45,-202 141.42,-201.37"/>
</g>
<!-- Blushing Groom -->
<g id="node6" class="node">
<title>Blushing Groom</title>
<polygon fill="lightblue" stroke="lightblue" points="340.75,-303 230.25,-303 230.25,-226 340.75,-226 340.75,-303"/>
<image xlink:href="img/mob.png" width="100px" height="77px" preserveAspectRatio="xMinYMin meet" x="235.5" y="-303"/>
<text text-anchor="middle" x="285.5" y="-258.7" font-family="MS Gothic" font-size="14.00">Blushing Groom</text>
</g>
<!-- Blushing Groom&#45;&gt;アルプミープリーズ -->
<g id="edge5" class="edge">
<title>Blushing Groom&#45;&gt;アルプミープリーズ</title>
<path fill="none" stroke="black" d="M288.91,-225.61C289.61,-217.84 290.36,-209.56 291.09,-201.46"/>
<polygon fill="black" stroke="black" points="294.55,-202 291.97,-191.73 287.58,-201.37 294.55,-202"/>
</g>
<!-- Swiss -->
<g id="node7" class="node">
<title>Swiss</title>
<polygon fill="lightcoral" stroke="lightcoral" points="436,-303 359,-303 359,-226 436,-226 436,-303"/>
<image xlink:href="img/mob.png" width="77px" height="77px" preserveAspectRatio="xMinYMin meet" x="359" y="-303"/>
<text text-anchor="middle" x="397.5" y="-258.7" font-family="MS Gothic" font-size="14.00">Swiss</text>
</g>
<!-- Swiss&#45;&gt;アルプミープリーズ -->
<g id="edge6" class="edge">
<title>Swiss&#45;&gt;アルプミープリーズ</title>
<path fill="none" stroke="black" d="M362.68,-225.61C354.72,-216.95 346.18,-207.65 337.94,-198.68"/>
<polygon fill="black" stroke="black" points="340.53,-196.33 331.18,-191.33 335.37,-201.06 340.53,-196.33"/>
</g>
</g>
</svg>
