<?xml version="1.0" encoding="UTF-8" standalone="no"?>
<!DOCTYPE svg PUBLIC "-//W3C//DTD SVG 1.1//EN"
 "http://www.w3.org/Graphics/SVG/1.1/DTD/svg11.dtd">
<!-- Generated by graphviz version 12.1.2 (20240928.0832)
 -->
<!-- Pages: 1 -->
<svg width="179pt" height="311pt"
 viewBox="0.00 0.00 179.25 311.00" xmlns="http://www.w3.org/2000/svg" xmlns:xlink="http://www.w3.org/1999/xlink">
<g id="graph0" class="graph" transform="scale(1 1) rotate(0) translate(4 307)">
<polygon fill="white" stroke="none" points="-4,4 -4,-307 175.25,-307 175.25,4 -4,4"/>
<!-- マンハッタンカフェ -->
<g id="node1" class="node">
<title>マンハッタンカフェ</title>
<polygon fill="none" stroke="black" points="171.25,-77 0,-77 0,0 171.25,0 171.25,-77"/>
<image xlink:href="img/manhatsutankahue.png" width="100px" height="77px" preserveAspectRatio="xMinYMin meet" x="35.625" y="-77"/>
<text text-anchor="middle" x="85.62" y="-32.33" font-family="Times New Roman,serif" font-size="14.00">マンハッタンカフェ</text>
</g>
<!-- サンデーサイレンス -->
<g id="node2" class="node">
<title>サンデーサイレンス</title>
<polygon fill="lightblue" stroke="lightblue" points="157.75,-190 13.5,-190 13.5,-113 157.75,-113 157.75,-190"/>
<image xlink:href="img/mob.png" width="100px" height="77px" preserveAspectRatio="xMinYMin meet" x="35.625" y="-190"/>
<text text-anchor="middle" x="85.62" y="-145.7" font-family="MS Gothic" font-size="14.00">サンデーサイレンス</text>
</g>
<!-- サンデーサイレンス&#45;&gt;マンハッタンカフェ -->
<g id="edge1" class="edge">
<title>サンデーサイレンス&#45;&gt;マンハッタンカフェ</title>
<path fill="none" stroke="black" d="M85.62,-112.61C85.62,-104.84 85.62,-96.56 85.62,-88.46"/>
<polygon fill="black" stroke="black" points="89.13,-88.73 85.63,-78.73 82.13,-88.73 89.13,-88.73"/>
</g>
<!-- サトルチェンジ -->
<g id="node3" class="node">
<title>サトルチェンジ</title>
<polygon fill="lightblue" stroke="lightblue" points="143.5,-303 27.75,-303 27.75,-226 143.5,-226 143.5,-303"/>
<image xlink:href="img/mob.png" width="100px" height="77px" preserveAspectRatio="xMinYMin meet" x="35.625" y="-303"/>
<text text-anchor="middle" x="85.62" y="-258.7" font-family="MS Gothic" font-size="14.00">サトルチェンジ</text>
</g>
<!-- サトルチェンジ&#45;&gt;サンデーサイレンス -->
<g id="edge2" class="edge">
<title>サトルチェンジ&#45;&gt;サンデーサイレンス</title>
<path fill="none" stroke="black" d="M85.62,-225.61C85.62,-217.84 85.62,-209.56 85.62,-201.46"/>
<polygon fill="black" stroke="black" points="89.13,-201.73 85.63,-191.73 82.13,-201.73 89.13,-201.73"/>
</g>
</g>
</svg>
