<?xml version="1.0" encoding="UTF-8" standalone="no"?>
<!DOCTYPE svg PUBLIC "-//W3C//DTD SVG 1.1//EN"
 "http://www.w3.org/Graphics/SVG/1.1/DTD/svg11.dtd">
<!-- Generated by graphviz version 12.1.2 (20240928.0832)
 -->
<!-- Pages: 1 -->
<svg width="1270pt" height="986pt"
 viewBox="0.00 0.00 1270.00 986.00" xmlns="http://www.w3.org/2000/svg" xmlns:xlink="http://www.w3.org/1999/xlink">
<g id="graph0" class="graph" transform="scale(1 1) rotate(0) translate(4 982)">
<polygon fill="white" stroke="none" points="-4,4 -4,-982 1266,-982 1266,4 -4,4"/>
<!-- クリスタルグリッターズ -->
<g id="node1" class="node">
<title>クリスタルグリッターズ</title>
<polygon fill="lightblue" stroke="lightblue" points="942,-640 640,-640 640,-338 942,-338 942,-640"/>
<image xlink:href="img/mob.png" width="302px" height="302px" preserveAspectRatio="xMinYMin meet" x="640" y="-640"/>
<text text-anchor="middle" x="791" y="-483.2" font-family="MS Gothic" font-size="14.00">クリスタルグリッターズ</text>
</g>
<!-- マチカネフクキタル -->
<g id="node3" class="node">
<title>マチカネフクキタル</title>
<polygon fill="none" stroke="black" points="782,-302 480,-302 480,0 782,0 782,-302"/>
<image xlink:href="img/machikanehukukitaru.png" width="302px" height="302px" preserveAspectRatio="xMinYMin meet" x="480" y="-302"/>
<text text-anchor="middle" x="631" y="-144.82" font-family="Times New Roman,serif" font-size="14.00">マチカネフクキタル</text>
</g>
<!-- クリスタルグリッターズ&#45;&gt;マチカネフクキタル -->
<g id="edge1" class="edge">
<title>クリスタルグリッターズ&#45;&gt;マチカネフクキタル</title>
<path fill="none" stroke="black" d="M719.42,-337.69C715.46,-329.37 711.47,-320.99 707.49,-312.63"/>
<polygon fill="black" stroke="black" points="710.75,-311.34 703.29,-303.82 704.43,-314.35 710.75,-311.34"/>
</g>
<!-- アテナトウショウ -->
<g id="node2" class="node">
<title>アテナトウショウ</title>
<polygon fill="lightcoral" stroke="lightcoral" points="622,-640 320,-640 320,-338 622,-338 622,-640"/>
<image xlink:href="img/mob.png" width="302px" height="302px" preserveAspectRatio="xMinYMin meet" x="320" y="-640"/>
<text text-anchor="middle" x="471" y="-483.2" font-family="MS Gothic" font-size="14.00">アテナトウショウ</text>
</g>
<!-- アテナトウショウ&#45;&gt;マチカネフクキタル -->
<g id="edge2" class="edge">
<title>アテナトウショウ&#45;&gt;マチカネフクキタル</title>
<path fill="none" stroke="black" d="M542.58,-337.69C546.54,-329.37 550.53,-320.99 554.51,-312.63"/>
<polygon fill="black" stroke="black" points="557.57,-314.35 558.71,-303.82 551.25,-311.34 557.57,-314.35"/>
</g>
<!-- unknown_father_father -->
<g id="node4" class="node">
<title>unknown_father_father</title>
<polygon fill="lightblue" stroke="lightblue" points="942,-978 640,-978 640,-676 942,-676 942,-978"/>
<image xlink:href="img/mob.png" width="302px" height="302px" preserveAspectRatio="xMinYMin meet" x="640" y="-978"/>
<text text-anchor="middle" x="791" y="-821.2" font-family="MS Gothic" font-size="14.00">unknown_father_father</text>
</g>
<!-- unknown_father_father&#45;&gt;クリスタルグリッターズ -->
<g id="edge3" class="edge">
<title>unknown_father_father&#45;&gt;クリスタルグリッターズ</title>
<path fill="none" stroke="black" d="M791,-675.69C791,-667.73 791,-659.72 791,-651.73"/>
<polygon fill="black" stroke="black" points="794.5,-651.97 791,-641.97 787.5,-651.97 794.5,-651.97"/>
</g>
<!-- unknown_father_mother -->
<g id="node5" class="node">
<title>unknown_father_mother</title>
<polygon fill="lightcoral" stroke="lightcoral" points="1262,-978 960,-978 960,-676 1262,-676 1262,-978"/>
<image xlink:href="img/mob.png" width="302px" height="302px" preserveAspectRatio="xMinYMin meet" x="960" y="-978"/>
<text text-anchor="middle" x="1111" y="-821.2" font-family="MS Gothic" font-size="14.00">unknown_father_mother</text>
</g>
<!-- unknown_father_mother&#45;&gt;クリスタルグリッターズ -->
<g id="edge4" class="edge">
<title>unknown_father_mother&#45;&gt;クリスタルグリッターズ</title>
<path fill="none" stroke="black" d="M967.85,-675.69C959.31,-666.73 950.71,-657.7 942.14,-648.7"/>
<polygon fill="black" stroke="black" points="944.76,-646.38 935.33,-641.55 939.69,-651.2 944.76,-646.38"/>
</g>
<!-- unknown_mother_father -->
<g id="node6" class="node">
<title>unknown_mother_father</title>
<polygon fill="lightblue" stroke="lightblue" points="302,-978 0,-978 0,-676 302,-676 302,-978"/>
<image xlink:href="img/mob.png" width="302px" height="302px" preserveAspectRatio="xMinYMin meet" x="0" y="-978"/>
<text text-anchor="middle" x="151" y="-821.2" font-family="MS Gothic" font-size="14.00">unknown_mother_father</text>
</g>
<!-- unknown_mother_father&#45;&gt;アテナトウショウ -->
<g id="edge5" class="edge">
<title>unknown_mother_father&#45;&gt;アテナトウショウ</title>
<path fill="none" stroke="black" d="M294.15,-675.69C302.69,-666.73 311.29,-657.7 319.86,-648.7"/>
<polygon fill="black" stroke="black" points="322.31,-651.2 326.67,-641.55 317.24,-646.38 322.31,-651.2"/>
</g>
<!-- unknown_mother_mother -->
<g id="node7" class="node">
<title>unknown_mother_mother</title>
<polygon fill="lightcoral" stroke="lightcoral" points="622,-978 320,-978 320,-676 622,-676 622,-978"/>
<image xlink:href="img/mob.png" width="302px" height="302px" preserveAspectRatio="xMinYMin meet" x="320" y="-978"/>
<text text-anchor="middle" x="471" y="-821.2" font-family="MS Gothic" font-size="14.00">unknown_mother_mother</text>
</g>
<!-- unknown_mother_mother&#45;&gt;アテナトウショウ -->
<g id="edge6" class="edge">
<title>unknown_mother_mother&#45;&gt;アテナトウショウ</title>
<path fill="none" stroke="black" d="M471,-675.69C471,-667.73 471,-659.72 471,-651.73"/>
<polygon fill="black" stroke="black" points="474.5,-651.97 471,-641.97 467.5,-651.97 474.5,-651.97"/>
</g>
</g>
</svg>
