<?xml version="1.0" encoding="UTF-8" standalone="no"?>
<!DOCTYPE svg PUBLIC "-//W3C//DTD SVG 1.1//EN"
 "http://www.w3.org/Graphics/SVG/1.1/DTD/svg11.dtd">
<!-- Generated by graphviz version 12.1.2 (20240928.0832)
 -->
<!-- Pages: 1 -->
<svg width="181pt" height="311pt"
 viewBox="0.00 0.00 180.75 311.00" xmlns="http://www.w3.org/2000/svg" xmlns:xlink="http://www.w3.org/1999/xlink">
<g id="graph0" class="graph" transform="scale(1 1) rotate(0) translate(4 307)">
<polygon fill="white" stroke="none" points="-4,4 -4,-307 176.75,-307 176.75,4 -4,4"/>
<!-- マチカネフクキタル -->
<g id="node1" class="node">
<title>マチカネフクキタル</title>
<polygon fill="none" stroke="black" points="172,-77 0.75,-77 0.75,0 172,0 172,-77"/>
<image xlink:href="img/machikanehukukitaru.png" width="100px" height="77px" preserveAspectRatio="xMinYMin meet" x="36.375" y="-77"/>
<text text-anchor="middle" x="86.38" y="-32.33" font-family="Times New Roman,serif" font-size="14.00">マチカネフクキタル</text>
</g>
<!-- クリスタルグリッターズ -->
<g id="node2" class="node">
<title>クリスタルグリッターズ</title>
<polygon fill="lightblue" stroke="lightblue" points="172.75,-190 0,-190 0,-113 172.75,-113 172.75,-190"/>
<image xlink:href="img/mob.png" width="100px" height="77px" preserveAspectRatio="xMinYMin meet" x="36.375" y="-190"/>
<text text-anchor="middle" x="86.38" y="-145.7" font-family="MS Gothic" font-size="14.00">クリスタルグリッターズ</text>
</g>
<!-- クリスタルグリッターズ&#45;&gt;マチカネフクキタル -->
<g id="edge1" class="edge">
<title>クリスタルグリッターズ&#45;&gt;マチカネフクキタル</title>
<path fill="none" stroke="black" d="M86.38,-112.61C86.38,-104.84 86.38,-96.56 86.38,-88.46"/>
<polygon fill="black" stroke="black" points="89.88,-88.73 86.38,-78.73 82.88,-88.73 89.88,-88.73"/>
</g>
<!-- アテナトウショウ -->
<g id="node3" class="node">
<title>アテナトウショウ</title>
<polygon fill="lightblue" stroke="lightblue" points="151.38,-303 21.38,-303 21.38,-226 151.38,-226 151.38,-303"/>
<image xlink:href="img/mob.png" width="100px" height="77px" preserveAspectRatio="xMinYMin meet" x="36.375" y="-303"/>
<text text-anchor="middle" x="86.38" y="-258.7" font-family="MS Gothic" font-size="14.00">アテナトウショウ</text>
</g>
<!-- アテナトウショウ&#45;&gt;クリスタルグリッターズ -->
<g id="edge2" class="edge">
<title>アテナトウショウ&#45;&gt;クリスタルグリッターズ</title>
<path fill="none" stroke="black" d="M86.38,-225.61C86.38,-217.84 86.38,-209.56 86.38,-201.46"/>
<polygon fill="black" stroke="black" points="89.88,-201.73 86.38,-191.73 82.88,-201.73 89.88,-201.73"/>
</g>
</g>
</svg>
