<?xml version="1.0" encoding="UTF-8" standalone="no"?>
<!DOCTYPE svg PUBLIC "-//W3C//DTD SVG 1.1//EN"
 "http://www.w3.org/Graphics/SVG/1.1/DTD/svg11.dtd">
<!-- Generated by graphviz version 12.1.2 (20240928.0832)
 -->
<!-- Pages: 1 -->
<svg width="478pt" height="311pt"
 viewBox="0.00 0.00 478.25 311.00" xmlns="http://www.w3.org/2000/svg" xmlns:xlink="http://www.w3.org/1999/xlink">
<g id="graph0" class="graph" transform="scale(1 1) rotate(0) translate(4 307)">
<polygon fill="white" stroke="none" points="-4,4 -4,-307 474.25,-307 474.25,4 -4,4"/>
<!-- ミスターシービー -->
<g id="node1" class="node">
<title>ミスターシービー</title>
<polygon fill="none" stroke="black" points="343.75,-77 189.75,-77 189.75,0 343.75,0 343.75,-77"/>
<image xlink:href="img/misutashibi.png" width="100px" height="77px" preserveAspectRatio="xMinYMin meet" x="216.75" y="-77"/>
<text text-anchor="middle" x="266.75" y="-32.33" font-family="Times New Roman,serif" font-size="14.00">ミスターシービー</text>
</g>
<!-- トウショウボーイ -->
<g id="node2" class="node">
<title>トウショウボーイ</title>
<polygon fill="lightblue" stroke="lightblue" points="261.75,-190 131.75,-190 131.75,-113 261.75,-113 261.75,-190"/>
<image xlink:href="img/mob.png" width="100px" height="77px" preserveAspectRatio="xMinYMin meet" x="146.75" y="-190"/>
<text text-anchor="middle" x="196.75" y="-145.7" font-family="MS Gothic" font-size="14.00">トウショウボーイ</text>
</g>
<!-- トウショウボーイ&#45;&gt;ミスターシービー -->
<g id="edge1" class="edge">
<title>トウショウボーイ&#45;&gt;ミスターシービー</title>
<path fill="none" stroke="black" d="M220.64,-112.61C225.88,-104.31 231.49,-95.41 236.93,-86.79"/>
<polygon fill="black" stroke="black" points="239.78,-88.82 242.16,-78.5 233.86,-85.09 239.78,-88.82"/>
</g>
<!-- シービークイン -->
<g id="node3" class="node">
<title>シービークイン</title>
<polygon fill="lightcoral" stroke="lightcoral" points="395.62,-190 279.88,-190 279.88,-113 395.62,-113 395.62,-190"/>
<image xlink:href="img/mob.png" width="100px" height="77px" preserveAspectRatio="xMinYMin meet" x="287.75" y="-190"/>
<text text-anchor="middle" x="337.75" y="-145.7" font-family="MS Gothic" font-size="14.00">シービークイン</text>
</g>
<!-- シービークイン&#45;&gt;ミスターシービー -->
<g id="edge2" class="edge">
<title>シービークイン&#45;&gt;ミスターシービー</title>
<path fill="none" stroke="black" d="M313.51,-112.61C308.2,-104.31 302.51,-95.41 297,-86.79"/>
<polygon fill="black" stroke="black" points="300.03,-85.03 291.69,-78.49 294.13,-88.8 300.03,-85.03"/>
</g>
<!-- テスコボーイ -->
<g id="node4" class="node">
<title>テスコボーイ</title>
<polygon fill="lightblue" stroke="lightblue" points="101.5,-303 0,-303 0,-226 101.5,-226 101.5,-303"/>
<image xlink:href="img/mob.png" width="100px" height="77px" preserveAspectRatio="xMinYMin meet" x="0.75" y="-303"/>
<text text-anchor="middle" x="50.75" y="-258.7" font-family="MS Gothic" font-size="14.00">テスコボーイ</text>
</g>
<!-- テスコボーイ&#45;&gt;トウショウボーイ -->
<g id="edge3" class="edge">
<title>テスコボーイ&#45;&gt;トウショウボーイ</title>
<path fill="none" stroke="black" d="M100.59,-225.61C112.68,-216.41 125.73,-206.49 138.19,-197.02"/>
<polygon fill="black" stroke="black" points="140.09,-199.97 145.93,-191.13 135.85,-194.4 140.09,-199.97"/>
</g>
<!-- ソシアルバターフライ -->
<g id="node5" class="node">
<title>ソシアルバターフライ</title>
<polygon fill="lightcoral" stroke="lightcoral" points="278,-303 119.5,-303 119.5,-226 278,-226 278,-303"/>
<image xlink:href="img/mob.png" width="100px" height="77px" preserveAspectRatio="xMinYMin meet" x="148.75" y="-303"/>
<text text-anchor="middle" x="198.75" y="-258.7" font-family="MS Gothic" font-size="14.00">ソシアルバターフライ</text>
</g>
<!-- ソシアルバターフライ&#45;&gt;トウショウボーイ -->
<g id="edge4" class="edge">
<title>ソシアルバターフライ&#45;&gt;トウショウボーイ</title>
<path fill="none" stroke="black" d="M198.07,-225.61C197.93,-217.84 197.78,-209.56 197.63,-201.46"/>
<polygon fill="black" stroke="black" points="201.14,-201.67 197.46,-191.73 194.14,-201.79 201.14,-201.67"/>
</g>
<!-- トピオ -->
<g id="node6" class="node">
<title>トピオ</title>
<polygon fill="lightblue" stroke="lightblue" points="375.25,-303 298.25,-303 298.25,-226 375.25,-226 375.25,-303"/>
<image xlink:href="img/mob.png" width="77px" height="77px" preserveAspectRatio="xMinYMin meet" x="298.25" y="-303"/>
<text text-anchor="middle" x="336.75" y="-258.7" font-family="MS Gothic" font-size="14.00">トピオ</text>
</g>
<!-- トピオ&#45;&gt;シービークイン -->
<g id="edge5" class="edge">
<title>トピオ&#45;&gt;シービークイン</title>
<path fill="none" stroke="black" d="M337.09,-225.61C337.16,-217.84 337.24,-209.56 337.31,-201.46"/>
<polygon fill="black" stroke="black" points="340.81,-201.76 337.4,-191.73 333.81,-201.7 340.81,-201.76"/>
</g>
<!-- メイドウ -->
<g id="node7" class="node">
<title>メイドウ</title>
<polygon fill="lightcoral" stroke="lightcoral" points="470.25,-303 393.25,-303 393.25,-226 470.25,-226 470.25,-303"/>
<image xlink:href="img/mob.png" width="77px" height="77px" preserveAspectRatio="xMinYMin meet" x="393.25" y="-303"/>
<text text-anchor="middle" x="431.75" y="-258.7" font-family="MS Gothic" font-size="14.00">メイドウ</text>
</g>
<!-- メイドウ&#45;&gt;シービークイン -->
<g id="edge6" class="edge">
<title>メイドウ&#45;&gt;シービークイン</title>
<path fill="none" stroke="black" d="M399.66,-225.61C392.4,-217.04 384.61,-207.84 377.09,-198.96"/>
<polygon fill="black" stroke="black" points="379.8,-196.74 370.67,-191.37 374.46,-201.27 379.8,-196.74"/>
</g>
</g>
</svg>
