<?xml version="1.0" encoding="UTF-8" standalone="no"?>
<!DOCTYPE svg PUBLIC "-//W3C//DTD SVG 1.1//EN"
 "http://www.w3.org/Graphics/SVG/1.1/DTD/svg11.dtd">
<!-- Generated by graphviz version 12.1.2 (20240928.0832)
 -->
<!-- Pages: 1 -->
<svg width="424pt" height="311pt"
 viewBox="0.00 0.00 423.75 311.00" xmlns="http://www.w3.org/2000/svg" xmlns:xlink="http://www.w3.org/1999/xlink">
<g id="graph0" class="graph" transform="scale(1 1) rotate(0) translate(4 307)">
<polygon fill="white" stroke="none" points="-4,4 -4,-307 419.75,-307 419.75,4 -4,4"/>
<!-- メジロアサマ -->
<g id="node1" class="node">
<title>メジロアサマ</title>
<polygon fill="none" stroke="black" points="245.25,-77 125.75,-77 125.75,0 245.25,0 245.25,-77"/>
<image xlink:href="img/mob.png" width="100px" height="77px" preserveAspectRatio="xMinYMin meet" x="135.5" y="-77"/>
<text text-anchor="middle" x="185.5" y="-32.33" font-family="Times New Roman,serif" font-size="14.00">メジロアサマ</text>
</g>
<!-- パーソロン -->
<g id="node2" class="node">
<title>パーソロン</title>
<polygon fill="lightblue" stroke="lightblue" points="177.12,-190 89.88,-190 89.88,-113 177.12,-113 177.12,-190"/>
<image xlink:href="img/mob.png" width="87.25px" height="77px" preserveAspectRatio="xMinYMin meet" x="89.875" y="-190"/>
<text text-anchor="middle" x="133.5" y="-145.7" font-family="MS Gothic" font-size="14.00">パーソロン</text>
</g>
<!-- パーソロン&#45;&gt;メジロアサマ -->
<g id="edge1" class="edge">
<title>パーソロン&#45;&gt;メジロアサマ</title>
<path fill="none" stroke="black" d="M151.25,-112.61C155.02,-104.57 159.04,-95.99 162.95,-87.63"/>
<polygon fill="black" stroke="black" points="166.12,-89.13 167.19,-78.59 159.78,-86.16 166.12,-89.13"/>
</g>
<!-- スヰート -->
<g id="node3" class="node">
<title>スヰート</title>
<polygon fill="lightcoral" stroke="lightcoral" points="277,-190 200,-190 200,-113 277,-113 277,-190"/>
<image xlink:href="img/mob.png" width="77px" height="77px" preserveAspectRatio="xMinYMin meet" x="200" y="-190"/>
<text text-anchor="middle" x="238.5" y="-145.7" font-family="MS Gothic" font-size="14.00">スヰート</text>
</g>
<!-- スヰート&#45;&gt;メジロアサマ -->
<g id="edge2" class="edge">
<title>スヰート&#45;&gt;メジロアサマ</title>
<path fill="none" stroke="black" d="M220.41,-112.61C216.53,-104.48 212.38,-95.8 208.35,-87.35"/>
<polygon fill="black" stroke="black" points="211.63,-86.1 204.16,-78.58 205.31,-89.12 211.63,-86.1"/>
</g>
<!-- Milesian -->
<g id="node4" class="node">
<title>Milesian</title>
<polygon fill="lightblue" stroke="lightblue" points="77,-303 0,-303 0,-226 77,-226 77,-303"/>
<image xlink:href="img/mob.png" width="77px" height="77px" preserveAspectRatio="xMinYMin meet" x="0" y="-303"/>
<text text-anchor="middle" x="38.5" y="-258.7" font-family="MS Gothic" font-size="14.00">Milesian</text>
</g>
<!-- Milesian&#45;&gt;パーソロン -->
<g id="edge3" class="edge">
<title>Milesian&#45;&gt;パーソロン</title>
<path fill="none" stroke="black" d="M70.93,-225.61C78.26,-217.04 86.14,-207.84 93.74,-198.96"/>
<polygon fill="black" stroke="black" points="96.39,-201.24 100.23,-191.37 91.07,-196.69 96.39,-201.24"/>
</g>
<!-- Paleo -->
<g id="node5" class="node">
<title>Paleo</title>
<polygon fill="lightcoral" stroke="lightcoral" points="172,-303 95,-303 95,-226 172,-226 172,-303"/>
<image xlink:href="img/mob.png" width="77px" height="77px" preserveAspectRatio="xMinYMin meet" x="95" y="-303"/>
<text text-anchor="middle" x="133.5" y="-258.7" font-family="MS Gothic" font-size="14.00">Paleo</text>
</g>
<!-- Paleo&#45;&gt;パーソロン -->
<g id="edge4" class="edge">
<title>Paleo&#45;&gt;パーソロン</title>
<path fill="none" stroke="black" d="M133.5,-225.61C133.5,-217.84 133.5,-209.56 133.5,-201.46"/>
<polygon fill="black" stroke="black" points="137,-201.73 133.5,-191.73 130,-201.73 137,-201.73"/>
</g>
<!-- First Fiddle -->
<g id="node6" class="node">
<title>First Fiddle</title>
<polygon fill="lightblue" stroke="lightblue" points="287,-303 190,-303 190,-226 287,-226 287,-303"/>
<image xlink:href="img/mob.png" width="97px" height="77px" preserveAspectRatio="xMinYMin meet" x="190" y="-303"/>
<text text-anchor="middle" x="238.5" y="-258.7" font-family="MS Gothic" font-size="14.00">First Fiddle</text>
</g>
<!-- First Fiddle&#45;&gt;スヰート -->
<g id="edge5" class="edge">
<title>First Fiddle&#45;&gt;スヰート</title>
<path fill="none" stroke="black" d="M238.5,-225.61C238.5,-217.84 238.5,-209.56 238.5,-201.46"/>
<polygon fill="black" stroke="black" points="242,-201.73 238.5,-191.73 235,-201.73 242,-201.73"/>
</g>
<!-- Blue Eyed Momo -->
<g id="node7" class="node">
<title>Blue Eyed Momo</title>
<polygon fill="lightcoral" stroke="lightcoral" points="415.75,-303 305.25,-303 305.25,-226 415.75,-226 415.75,-303"/>
<image xlink:href="img/mob.png" width="100px" height="77px" preserveAspectRatio="xMinYMin meet" x="310.5" y="-303"/>
<text text-anchor="middle" x="360.5" y="-258.7" font-family="MS Gothic" font-size="14.00">Blue Eyed Momo</text>
</g>
<!-- Blue Eyed Momo&#45;&gt;スヰート -->
<g id="edge6" class="edge">
<title>Blue Eyed Momo&#45;&gt;スヰート</title>
<path fill="none" stroke="black" d="M318.86,-225.61C308.18,-215.9 296.63,-205.39 285.7,-195.45"/>
<polygon fill="black" stroke="black" points="288.36,-193.13 278.61,-188.99 283.65,-198.31 288.36,-193.13"/>
</g>
</g>
</svg>
