<?xml version="1.0" encoding="UTF-8" standalone="no"?>
<!DOCTYPE svg PUBLIC "-//W3C//DTD SVG 1.1//EN"
 "http://www.w3.org/Graphics/SVG/1.1/DTD/svg11.dtd">
<!-- Generated by graphviz version 12.1.2 (20240928.0832)
 -->
<!-- Pages: 1 -->
<svg width="526pt" height="311pt"
 viewBox="0.00 0.00 525.62 311.00" xmlns="http://www.w3.org/2000/svg" xmlns:xlink="http://www.w3.org/1999/xlink">
<g id="graph0" class="graph" transform="scale(1 1) rotate(0) translate(4 307)">
<polygon fill="white" stroke="none" points="-4,4 -4,-307 521.62,-307 521.62,4 -4,4"/>
<!-- メジロブライト -->
<g id="node1" class="node">
<title>メジロブライト</title>
<polygon fill="none" stroke="black" points="351.38,-77 214.62,-77 214.62,0 351.38,0 351.38,-77"/>
<image xlink:href="img/meziroburaito.png" width="100px" height="77px" preserveAspectRatio="xMinYMin meet" x="233" y="-77"/>
<text text-anchor="middle" x="283" y="-32.33" font-family="Times New Roman,serif" font-size="14.00">メジロブライト</text>
</g>
<!-- メジロライアン -->
<g id="node2" class="node">
<title>メジロライアン</title>
<polygon fill="lightblue" stroke="lightblue" points="270.88,-190 155.12,-190 155.12,-113 270.88,-113 270.88,-190"/>
<image xlink:href="img/meziroraian.png" width="100px" height="77px" preserveAspectRatio="xMinYMin meet" x="163" y="-190"/>
<text text-anchor="middle" x="213" y="-145.7" font-family="MS Gothic" font-size="14.00">メジロライアン</text>
</g>
<!-- メジロライアン&#45;&gt;メジロブライト -->
<g id="edge1" class="edge">
<title>メジロライアン&#45;&gt;メジロブライト</title>
<path fill="none" stroke="black" d="M236.89,-112.61C242.13,-104.31 247.74,-95.41 253.18,-86.79"/>
<polygon fill="black" stroke="black" points="256.03,-88.82 258.41,-78.5 250.11,-85.09 256.03,-88.82"/>
</g>
<!-- レールデュタン -->
<g id="node3" class="node">
<title>レールデュタン</title>
<polygon fill="lightcoral" stroke="lightcoral" points="411.88,-190 296.12,-190 296.12,-113 411.88,-113 411.88,-190"/>
<image xlink:href="img/mob.png" width="100px" height="77px" preserveAspectRatio="xMinYMin meet" x="304" y="-190"/>
<text text-anchor="middle" x="354" y="-145.7" font-family="MS Gothic" font-size="14.00">レールデュタン</text>
</g>
<!-- レールデュタン&#45;&gt;メジロブライト -->
<g id="edge2" class="edge">
<title>レールデュタン&#45;&gt;メジロブライト</title>
<path fill="none" stroke="black" d="M329.76,-112.61C324.45,-104.31 318.76,-95.41 313.25,-86.79"/>
<polygon fill="black" stroke="black" points="316.28,-85.03 307.94,-78.49 310.38,-88.8 316.28,-85.03"/>
</g>
<!-- アンバーシャダイ -->
<g id="node4" class="node">
<title>アンバーシャダイ</title>
<polygon fill="lightblue" stroke="lightblue" points="130,-303 0,-303 0,-226 130,-226 130,-303"/>
<image xlink:href="img/mob.png" width="100px" height="77px" preserveAspectRatio="xMinYMin meet" x="15" y="-303"/>
<text text-anchor="middle" x="65" y="-258.7" font-family="MS Gothic" font-size="14.00">アンバーシャダイ</text>
</g>
<!-- アンバーシャダイ&#45;&gt;メジロライアン -->
<g id="edge3" class="edge">
<title>アンバーシャダイ&#45;&gt;メジロライアン</title>
<path fill="none" stroke="black" d="M115.52,-225.61C127.72,-216.46 140.86,-206.6 153.43,-197.18"/>
<polygon fill="black" stroke="black" points="155.35,-200.12 161.25,-191.32 151.15,-194.52 155.35,-200.12"/>
</g>
<!-- メジロチェイサー -->
<g id="node5" class="node">
<title>メジロチェイサー</title>
<polygon fill="lightcoral" stroke="lightcoral" points="278,-303 148,-303 148,-226 278,-226 278,-303"/>
<image xlink:href="img/mob.png" width="100px" height="77px" preserveAspectRatio="xMinYMin meet" x="163" y="-303"/>
<text text-anchor="middle" x="213" y="-258.7" font-family="MS Gothic" font-size="14.00">メジロチェイサー</text>
</g>
<!-- メジロチェイサー&#45;&gt;メジロライアン -->
<g id="edge4" class="edge">
<title>メジロチェイサー&#45;&gt;メジロライアン</title>
<path fill="none" stroke="black" d="M213,-225.61C213,-217.84 213,-209.56 213,-201.46"/>
<polygon fill="black" stroke="black" points="216.5,-201.73 213,-191.73 209.5,-201.73 216.5,-201.73"/>
</g>
<!-- マルゼンスキー -->
<g id="node6" class="node">
<title>マルゼンスキー</title>
<polygon fill="lightblue" stroke="lightblue" points="411.88,-303 296.12,-303 296.12,-226 411.88,-226 411.88,-303"/>
<image xlink:href="img/maruzensuki.png" width="100px" height="77px" preserveAspectRatio="xMinYMin meet" x="304" y="-303"/>
<text text-anchor="middle" x="354" y="-258.7" font-family="MS Gothic" font-size="14.00">マルゼンスキー</text>
</g>
<!-- マルゼンスキー&#45;&gt;レールデュタン -->
<g id="edge5" class="edge">
<title>マルゼンスキー&#45;&gt;レールデュタン</title>
<path fill="none" stroke="black" d="M354,-225.61C354,-217.84 354,-209.56 354,-201.46"/>
<polygon fill="black" stroke="black" points="357.5,-201.73 354,-191.73 350.5,-201.73 357.5,-201.73"/>
</g>
<!-- ケイツナミ -->
<g id="node7" class="node">
<title>ケイツナミ</title>
<polygon fill="lightcoral" stroke="lightcoral" points="517.62,-303 430.38,-303 430.38,-226 517.62,-226 517.62,-303"/>
<image xlink:href="img/mob.png" width="87.25px" height="77px" preserveAspectRatio="xMinYMin meet" x="430.375" y="-303"/>
<text text-anchor="middle" x="474" y="-258.7" font-family="MS Gothic" font-size="14.00">ケイツナミ</text>
</g>
<!-- ケイツナミ&#45;&gt;レールデュタン -->
<g id="edge6" class="edge">
<title>ケイツナミ&#45;&gt;レールデュタン</title>
<path fill="none" stroke="black" d="M433.04,-225.61C423.38,-216.68 413,-207.07 403.03,-197.85"/>
<polygon fill="black" stroke="black" points="405.61,-195.47 395.89,-191.25 400.85,-200.61 405.61,-195.47"/>
</g>
</g>
</svg>
