<?xml version="1.0" encoding="UTF-8" standalone="no"?>
<!DOCTYPE svg PUBLIC "-//W3C//DTD SVG 1.1//EN"
 "http://www.w3.org/Graphics/SVG/1.1/DTD/svg11.dtd">
<!-- Generated by graphviz version 12.1.2 (20240928.0832)
 -->
<!-- Pages: 1 -->
<svg width="487pt" height="311pt"
 viewBox="0.00 0.00 486.62 311.00" xmlns="http://www.w3.org/2000/svg" xmlns:xlink="http://www.w3.org/1999/xlink">
<g id="graph0" class="graph" transform="scale(1 1) rotate(0) translate(4 307)">
<polygon fill="white" stroke="none" points="-4,4 -4,-307 482.62,-307 482.62,4 -4,4"/>
<!-- メジロラモーヌ -->
<g id="node1" class="node">
<title>メジロラモーヌ</title>
<polygon fill="none" stroke="black" points="266.88,-77 130.12,-77 130.12,0 266.88,0 266.88,-77"/>
<image xlink:href="img/meziroramonu.png" width="100px" height="77px" preserveAspectRatio="xMinYMin meet" x="148.5" y="-77"/>
<text text-anchor="middle" x="198.5" y="-32.33" font-family="Times New Roman,serif" font-size="14.00">メジロラモーヌ</text>
</g>
<!-- モガミ -->
<g id="node2" class="node">
<title>モガミ</title>
<polygon fill="lightblue" stroke="lightblue" points="177,-190 100,-190 100,-113 177,-113 177,-190"/>
<image xlink:href="img/mob.png" width="77px" height="77px" preserveAspectRatio="xMinYMin meet" x="100" y="-190"/>
<text text-anchor="middle" x="138.5" y="-145.7" font-family="MS Gothic" font-size="14.00">モガミ</text>
</g>
<!-- モガミ&#45;&gt;メジロラモーヌ -->
<g id="edge1" class="edge">
<title>モガミ&#45;&gt;メジロラモーヌ</title>
<path fill="none" stroke="black" d="M158.98,-112.61C163.42,-104.39 168.17,-95.6 172.79,-87.07"/>
<polygon fill="black" stroke="black" points="175.72,-89.01 177.39,-78.55 169.56,-85.68 175.72,-89.01"/>
</g>
<!-- メジロヒリュウ -->
<g id="node3" class="node">
<title>メジロヒリュウ</title>
<polygon fill="lightcoral" stroke="lightcoral" points="316.38,-190 200.62,-190 200.62,-113 316.38,-113 316.38,-190"/>
<image xlink:href="img/mob.png" width="100px" height="77px" preserveAspectRatio="xMinYMin meet" x="208.5" y="-190"/>
<text text-anchor="middle" x="258.5" y="-145.7" font-family="MS Gothic" font-size="14.00">メジロヒリュウ</text>
</g>
<!-- メジロヒリュウ&#45;&gt;メジロラモーヌ -->
<g id="edge2" class="edge">
<title>メジロヒリュウ&#45;&gt;メジロラモーヌ</title>
<path fill="none" stroke="black" d="M238.02,-112.61C233.58,-104.39 228.83,-95.6 224.21,-87.07"/>
<polygon fill="black" stroke="black" points="227.44,-85.68 219.61,-78.55 221.28,-89.01 227.44,-85.68"/>
</g>
<!-- Lyphard -->
<g id="node4" class="node">
<title>Lyphard</title>
<polygon fill="lightblue" stroke="lightblue" points="77,-303 0,-303 0,-226 77,-226 77,-303"/>
<image xlink:href="img/mob.png" width="77px" height="77px" preserveAspectRatio="xMinYMin meet" x="0" y="-303"/>
<text text-anchor="middle" x="38.5" y="-258.7" font-family="MS Gothic" font-size="14.00">Lyphard</text>
</g>
<!-- Lyphard&#45;&gt;モガミ -->
<g id="edge3" class="edge">
<title>Lyphard&#45;&gt;モガミ</title>
<path fill="none" stroke="black" d="M72.63,-225.61C80.44,-216.95 88.82,-207.65 96.9,-198.68"/>
<polygon fill="black" stroke="black" points="99.41,-201.12 103.51,-191.34 94.21,-196.43 99.41,-201.12"/>
</g>
<!-- ノーラック -->
<g id="node5" class="node">
<title>ノーラック</title>
<polygon fill="lightcoral" stroke="lightcoral" points="182.12,-303 94.88,-303 94.88,-226 182.12,-226 182.12,-303"/>
<image xlink:href="img/mob.png" width="87.25px" height="77px" preserveAspectRatio="xMinYMin meet" x="94.875" y="-303"/>
<text text-anchor="middle" x="138.5" y="-258.7" font-family="MS Gothic" font-size="14.00">ノーラック</text>
</g>
<!-- ノーラック&#45;&gt;モガミ -->
<g id="edge4" class="edge">
<title>ノーラック&#45;&gt;モガミ</title>
<path fill="none" stroke="black" d="M138.5,-225.61C138.5,-217.84 138.5,-209.56 138.5,-201.46"/>
<polygon fill="black" stroke="black" points="142,-201.73 138.5,-191.73 135,-201.73 142,-201.73"/>
</g>
<!-- ネヴァービート -->
<g id="node6" class="node">
<title>ネヴァービート</title>
<polygon fill="lightblue" stroke="lightblue" points="316.38,-303 200.62,-303 200.62,-226 316.38,-226 316.38,-303"/>
<image xlink:href="img/mob.png" width="100px" height="77px" preserveAspectRatio="xMinYMin meet" x="208.5" y="-303"/>
<text text-anchor="middle" x="258.5" y="-258.7" font-family="MS Gothic" font-size="14.00">ネヴァービート</text>
</g>
<!-- ネヴァービート&#45;&gt;メジロヒリュウ -->
<g id="edge5" class="edge">
<title>ネヴァービート&#45;&gt;メジロヒリュウ</title>
<path fill="none" stroke="black" d="M258.5,-225.61C258.5,-217.84 258.5,-209.56 258.5,-201.46"/>
<polygon fill="black" stroke="black" points="262,-201.73 258.5,-191.73 255,-201.73 262,-201.73"/>
</g>
<!-- アマゾンウォリアー -->
<g id="node7" class="node">
<title>アマゾンウォリアー</title>
<polygon fill="lightcoral" stroke="lightcoral" points="478.62,-303 334.38,-303 334.38,-226 478.62,-226 478.62,-303"/>
<image xlink:href="img/mob.png" width="100px" height="77px" preserveAspectRatio="xMinYMin meet" x="356.5" y="-303"/>
<text text-anchor="middle" x="406.5" y="-258.7" font-family="MS Gothic" font-size="14.00">アマゾンウォリアー</text>
</g>
<!-- アマゾンウォリアー&#45;&gt;メジロヒリュウ -->
<g id="edge6" class="edge">
<title>アマゾンウォリアー&#45;&gt;メジロヒリュウ</title>
<path fill="none" stroke="black" d="M355.98,-225.61C343.78,-216.46 330.64,-206.6 318.07,-197.18"/>
<polygon fill="black" stroke="black" points="320.35,-194.52 310.25,-191.32 316.15,-200.12 320.35,-194.52"/>
</g>
</g>
</svg>
