<?xml version="1.0" encoding="UTF-8" standalone="no"?>
<!DOCTYPE svg PUBLIC "-//W3C//DTD SVG 1.1//EN"
 "http://www.w3.org/Graphics/SVG/1.1/DTD/svg11.dtd">
<!-- Generated by graphviz version 12.1.2 (20240928.0832)
 -->
<!-- Pages: 1 -->
<svg width="575pt" height="311pt"
 viewBox="0.00 0.00 575.12 311.00" xmlns="http://www.w3.org/2000/svg" xmlns:xlink="http://www.w3.org/1999/xlink">
<g id="graph0" class="graph" transform="scale(1 1) rotate(0) translate(4 307)">
<polygon fill="white" stroke="none" points="-4,4 -4,-307 571.12,-307 571.12,4 -4,4"/>
<!-- メジロパーマー -->
<g id="node1" class="node">
<title>メジロパーマー</title>
<polygon fill="none" stroke="black" points="344.25,-77 207.5,-77 207.5,0 344.25,0 344.25,-77"/>
<image xlink:href="img/meziropama.png" width="100px" height="77px" preserveAspectRatio="xMinYMin meet" x="225.875" y="-77"/>
<text text-anchor="middle" x="275.88" y="-32.33" font-family="Times New Roman,serif" font-size="14.00">メジロパーマー</text>
</g>
<!-- メジロイーグル -->
<g id="node2" class="node">
<title>メジロイーグル</title>
<polygon fill="lightblue" stroke="lightblue" points="259.75,-190 144,-190 144,-113 259.75,-113 259.75,-190"/>
<image xlink:href="img/mob.png" width="100px" height="77px" preserveAspectRatio="xMinYMin meet" x="151.875" y="-190"/>
<text text-anchor="middle" x="201.88" y="-145.7" font-family="MS Gothic" font-size="14.00">メジロイーグル</text>
</g>
<!-- メジロイーグル&#45;&gt;メジロパーマー -->
<g id="edge1" class="edge">
<title>メジロイーグル&#45;&gt;メジロパーマー</title>
<path fill="none" stroke="black" d="M227.13,-112.61C232.67,-104.31 238.6,-95.41 244.35,-86.79"/>
<polygon fill="black" stroke="black" points="247.25,-88.74 249.89,-78.48 241.43,-84.86 247.25,-88.74"/>
</g>
<!-- メジロファンタジー -->
<g id="node3" class="node">
<title>メジロファンタジー</title>
<polygon fill="lightcoral" stroke="lightcoral" points="422,-190 277.75,-190 277.75,-113 422,-113 422,-190"/>
<image xlink:href="img/mob.png" width="100px" height="77px" preserveAspectRatio="xMinYMin meet" x="299.875" y="-190"/>
<text text-anchor="middle" x="349.88" y="-145.7" font-family="MS Gothic" font-size="14.00">メジロファンタジー</text>
</g>
<!-- メジロファンタジー&#45;&gt;メジロパーマー -->
<g id="edge2" class="edge">
<title>メジロファンタジー&#45;&gt;メジロパーマー</title>
<path fill="none" stroke="black" d="M324.62,-112.61C319.08,-104.31 313.15,-95.41 307.4,-86.79"/>
<polygon fill="black" stroke="black" points="310.32,-84.86 301.86,-78.48 304.5,-88.74 310.32,-84.86"/>
</g>
<!-- メジロサンマン -->
<g id="node4" class="node">
<title>メジロサンマン</title>
<polygon fill="lightblue" stroke="lightblue" points="115.75,-303 0,-303 0,-226 115.75,-226 115.75,-303"/>
<image xlink:href="img/mob.png" width="100px" height="77px" preserveAspectRatio="xMinYMin meet" x="7.875" y="-303"/>
<text text-anchor="middle" x="57.88" y="-258.7" font-family="MS Gothic" font-size="14.00">メジロサンマン</text>
</g>
<!-- メジロサンマン&#45;&gt;メジロイーグル -->
<g id="edge3" class="edge">
<title>メジロサンマン&#45;&gt;メジロイーグル</title>
<path fill="none" stroke="black" d="M107.03,-225.61C118.96,-216.41 131.83,-206.49 144.12,-197.02"/>
<polygon fill="black" stroke="black" points="145.96,-200.02 151.74,-191.14 141.69,-194.48 145.96,-200.02"/>
</g>
<!-- アマゾンウォリアー -->
<g id="node5" class="node">
<title>アマゾンウォリアー</title>
<polygon fill="lightcoral" stroke="lightcoral" points="278,-303 133.75,-303 133.75,-226 278,-226 278,-303"/>
<image xlink:href="img/mob.png" width="100px" height="77px" preserveAspectRatio="xMinYMin meet" x="155.875" y="-303"/>
<text text-anchor="middle" x="205.88" y="-258.7" font-family="MS Gothic" font-size="14.00">アマゾンウォリアー</text>
</g>
<!-- アマゾンウォリアー&#45;&gt;メジロイーグル -->
<g id="edge4" class="edge">
<title>アマゾンウォリアー&#45;&gt;メジロイーグル</title>
<path fill="none" stroke="black" d="M204.51,-225.61C204.23,-217.84 203.93,-209.56 203.64,-201.46"/>
<polygon fill="black" stroke="black" points="207.15,-201.6 203.29,-191.73 200.15,-201.85 207.15,-201.6"/>
</g>
<!-- ゲイメセン -->
<g id="node6" class="node">
<title>ゲイメセン</title>
<polygon fill="lightblue" stroke="lightblue" points="390.5,-303 303.25,-303 303.25,-226 390.5,-226 390.5,-303"/>
<image xlink:href="img/mob.png" width="87.25px" height="77px" preserveAspectRatio="xMinYMin meet" x="303.25" y="-303"/>
<text text-anchor="middle" x="346.88" y="-258.7" font-family="MS Gothic" font-size="14.00">ゲイメセン</text>
</g>
<!-- ゲイメセン&#45;&gt;メジロファンタジー -->
<g id="edge5" class="edge">
<title>ゲイメセン&#45;&gt;メジロファンタジー</title>
<path fill="none" stroke="black" d="M347.9,-225.61C348.11,-217.84 348.33,-209.56 348.55,-201.46"/>
<polygon fill="black" stroke="black" points="352.04,-201.82 348.81,-191.73 345.05,-201.63 352.04,-201.82"/>
</g>
<!-- プリンセスリファード -->
<g id="node7" class="node">
<title>プリンセスリファード</title>
<polygon fill="lightcoral" stroke="lightcoral" points="567.12,-303 408.62,-303 408.62,-226 567.12,-226 567.12,-303"/>
<image xlink:href="img/mob.png" width="100px" height="77px" preserveAspectRatio="xMinYMin meet" x="437.875" y="-303"/>
<text text-anchor="middle" x="487.88" y="-258.7" font-family="MS Gothic" font-size="14.00">プリンセスリファード</text>
</g>
<!-- プリンセスリファード&#45;&gt;メジロファンタジー -->
<g id="edge6" class="edge">
<title>プリンセスリファード&#45;&gt;メジロファンタジー</title>
<path fill="none" stroke="black" d="M440.77,-225.61C429.44,-216.5 417.24,-206.69 405.57,-197.3"/>
<polygon fill="black" stroke="black" points="407.93,-194.71 397.95,-191.17 403.55,-200.16 407.93,-194.71"/>
</g>
</g>
</svg>
