<?xml version="1.0" encoding="UTF-8" standalone="no"?>
<!DOCTYPE svg PUBLIC "-//W3C//DTD SVG 1.1//EN"
 "http://www.w3.org/Graphics/SVG/1.1/DTD/svg11.dtd">
<!-- Generated by graphviz version 12.1.2 (20240928.0832)
 -->
<!-- Pages: 1 -->
<svg width="596pt" height="311pt"
 viewBox="0.00 0.00 596.12 311.00" xmlns="http://www.w3.org/2000/svg" xmlns:xlink="http://www.w3.org/1999/xlink">
<g id="graph0" class="graph" transform="scale(1 1) rotate(0) translate(4 307)">
<polygon fill="white" stroke="none" points="-4,4 -4,-307 592.12,-307 592.12,4 -4,4"/>
<!-- メジロアルダン -->
<g id="node1" class="node">
<title>メジロアルダン</title>
<polygon fill="none" stroke="black" points="362.38,-77 225.62,-77 225.62,0 362.38,0 362.38,-77"/>
<image xlink:href="img/meziroarudan.png" width="100px" height="77px" preserveAspectRatio="xMinYMin meet" x="244" y="-77"/>
<text text-anchor="middle" x="294" y="-32.33" font-family="Times New Roman,serif" font-size="14.00">メジロアルダン</text>
</g>
<!-- アスワン -->
<g id="node2" class="node">
<title>アスワン</title>
<polygon fill="lightblue" stroke="lightblue" points="258.5,-190 181.5,-190 181.5,-113 258.5,-113 258.5,-190"/>
<image xlink:href="img/mob.png" width="77px" height="77px" preserveAspectRatio="xMinYMin meet" x="181.5" y="-190"/>
<text text-anchor="middle" x="220" y="-145.7" font-family="MS Gothic" font-size="14.00">アスワン</text>
</g>
<!-- アスワン&#45;&gt;メジロアルダン -->
<g id="edge1" class="edge">
<title>アスワン&#45;&gt;メジロアルダン</title>
<path fill="none" stroke="black" d="M245.26,-112.61C250.8,-104.31 256.72,-95.41 262.47,-86.79"/>
<polygon fill="black" stroke="black" points="265.38,-88.74 268.01,-78.48 259.56,-84.86 265.38,-88.74"/>
</g>
<!-- メジロヒリュウ -->
<g id="node3" class="node">
<title>メジロヒリュウ</title>
<polygon fill="lightcoral" stroke="lightcoral" points="425.88,-190 310.12,-190 310.12,-113 425.88,-113 425.88,-190"/>
<image xlink:href="img/mob.png" width="100px" height="77px" preserveAspectRatio="xMinYMin meet" x="318" y="-190"/>
<text text-anchor="middle" x="368" y="-145.7" font-family="MS Gothic" font-size="14.00">メジロヒリュウ</text>
</g>
<!-- メジロヒリュウ&#45;&gt;メジロアルダン -->
<g id="edge2" class="edge">
<title>メジロヒリュウ&#45;&gt;メジロアルダン</title>
<path fill="none" stroke="black" d="M342.74,-112.61C337.2,-104.31 331.28,-95.41 325.53,-86.79"/>
<polygon fill="black" stroke="black" points="328.44,-84.86 319.99,-78.48 322.62,-88.74 328.44,-84.86"/>
</g>
<!-- ノーザンテースト -->
<g id="node4" class="node">
<title>ノーザンテースト</title>
<polygon fill="lightblue" stroke="lightblue" points="130,-303 0,-303 0,-226 130,-226 130,-303"/>
<image xlink:href="img/mob.png" width="100px" height="77px" preserveAspectRatio="xMinYMin meet" x="15" y="-303"/>
<text text-anchor="middle" x="65" y="-258.7" font-family="MS Gothic" font-size="14.00">ノーザンテースト</text>
</g>
<!-- ノーザンテースト&#45;&gt;アスワン -->
<g id="edge3" class="edge">
<title>ノーザンテースト&#45;&gt;アスワン</title>
<path fill="none" stroke="black" d="M117.91,-225.61C135.37,-213.1 154.69,-199.27 171.79,-187.03"/>
<polygon fill="black" stroke="black" points="173.7,-189.96 179.8,-181.29 169.63,-184.27 173.7,-189.96"/>
</g>
<!-- リリーオブザナイル -->
<g id="node5" class="node">
<title>リリーオブザナイル</title>
<polygon fill="lightcoral" stroke="lightcoral" points="292.12,-303 147.88,-303 147.88,-226 292.12,-226 292.12,-303"/>
<image xlink:href="img/mob.png" width="100px" height="77px" preserveAspectRatio="xMinYMin meet" x="170" y="-303"/>
<text text-anchor="middle" x="220" y="-258.7" font-family="MS Gothic" font-size="14.00">リリーオブザナイル</text>
</g>
<!-- リリーオブザナイル&#45;&gt;アスワン -->
<g id="edge4" class="edge">
<title>リリーオブザナイル&#45;&gt;アスワン</title>
<path fill="none" stroke="black" d="M220,-225.61C220,-217.84 220,-209.56 220,-201.46"/>
<polygon fill="black" stroke="black" points="223.5,-201.73 220,-191.73 216.5,-201.73 223.5,-201.73"/>
</g>
<!-- ネヴァービート -->
<g id="node6" class="node">
<title>ネヴァービート</title>
<polygon fill="lightblue" stroke="lightblue" points="425.88,-303 310.12,-303 310.12,-226 425.88,-226 425.88,-303"/>
<image xlink:href="img/mob.png" width="100px" height="77px" preserveAspectRatio="xMinYMin meet" x="318" y="-303"/>
<text text-anchor="middle" x="368" y="-258.7" font-family="MS Gothic" font-size="14.00">ネヴァービート</text>
</g>
<!-- ネヴァービート&#45;&gt;メジロヒリュウ -->
<g id="edge5" class="edge">
<title>ネヴァービート&#45;&gt;メジロヒリュウ</title>
<path fill="none" stroke="black" d="M368,-225.61C368,-217.84 368,-209.56 368,-201.46"/>
<polygon fill="black" stroke="black" points="371.5,-201.73 368,-191.73 364.5,-201.73 371.5,-201.73"/>
</g>
<!-- アマゾンウォリアー -->
<g id="node7" class="node">
<title>アマゾンウォリアー</title>
<polygon fill="lightcoral" stroke="lightcoral" points="588.12,-303 443.88,-303 443.88,-226 588.12,-226 588.12,-303"/>
<image xlink:href="img/mob.png" width="100px" height="77px" preserveAspectRatio="xMinYMin meet" x="466" y="-303"/>
<text text-anchor="middle" x="516" y="-258.7" font-family="MS Gothic" font-size="14.00">アマゾンウォリアー</text>
</g>
<!-- アマゾンウォリアー&#45;&gt;メジロヒリュウ -->
<g id="edge6" class="edge">
<title>アマゾンウォリアー&#45;&gt;メジロヒリュウ</title>
<path fill="none" stroke="black" d="M465.48,-225.61C453.28,-216.46 440.14,-206.6 427.57,-197.18"/>
<polygon fill="black" stroke="black" points="429.85,-194.52 419.75,-191.32 425.65,-200.12 429.85,-194.52"/>
</g>
</g>
</svg>
