<?xml version="1.0" encoding="UTF-8" standalone="no"?>
<!DOCTYPE svg PUBLIC "-//W3C//DTD SVG 1.1//EN"
 "http://www.w3.org/Graphics/SVG/1.1/DTD/svg11.dtd">
<!-- Generated by graphviz version 12.1.2 (20240928.0832)
 -->
<!-- Pages: 1 -->
<svg width="536pt" height="311pt"
 viewBox="0.00 0.00 535.88 311.00" xmlns="http://www.w3.org/2000/svg" xmlns:xlink="http://www.w3.org/1999/xlink">
<g id="graph0" class="graph" transform="scale(1 1) rotate(0) translate(4 307)">
<polygon fill="white" stroke="none" points="-4,4 -4,-307 531.88,-307 531.88,4 -4,4"/>
<!-- メジロドーベル -->
<g id="node1" class="node">
<title>メジロドーベル</title>
<polygon fill="none" stroke="black" points="349.38,-77 212.62,-77 212.62,0 349.38,0 349.38,-77"/>
<image xlink:href="img/mezirodoberu.png" width="100px" height="77px" preserveAspectRatio="xMinYMin meet" x="231" y="-77"/>
<text text-anchor="middle" x="281" y="-32.33" font-family="Times New Roman,serif" font-size="14.00">メジロドーベル</text>
</g>
<!-- メジロライアン -->
<g id="node2" class="node">
<title>メジロライアン</title>
<polygon fill="lightblue" stroke="lightblue" points="264.88,-190 149.12,-190 149.12,-113 264.88,-113 264.88,-190"/>
<image xlink:href="img/meziroraian.png" width="100px" height="77px" preserveAspectRatio="xMinYMin meet" x="157" y="-190"/>
<text text-anchor="middle" x="207" y="-145.7" font-family="MS Gothic" font-size="14.00">メジロライアン</text>
</g>
<!-- メジロライアン&#45;&gt;メジロドーベル -->
<g id="edge1" class="edge">
<title>メジロライアン&#45;&gt;メジロドーベル</title>
<path fill="none" stroke="black" d="M232.26,-112.61C237.8,-104.31 243.72,-95.41 249.47,-86.79"/>
<polygon fill="black" stroke="black" points="252.38,-88.74 255.01,-78.48 246.56,-84.86 252.38,-88.74"/>
</g>
<!-- メジロビューティー -->
<g id="node3" class="node">
<title>メジロビューティー</title>
<polygon fill="lightcoral" stroke="lightcoral" points="427.12,-190 282.88,-190 282.88,-113 427.12,-113 427.12,-190"/>
<image xlink:href="img/mob.png" width="100px" height="77px" preserveAspectRatio="xMinYMin meet" x="305" y="-190"/>
<text text-anchor="middle" x="355" y="-145.7" font-family="MS Gothic" font-size="14.00">メジロビューティー</text>
</g>
<!-- メジロビューティー&#45;&gt;メジロドーベル -->
<g id="edge2" class="edge">
<title>メジロビューティー&#45;&gt;メジロドーベル</title>
<path fill="none" stroke="black" d="M329.74,-112.61C324.2,-104.31 318.28,-95.41 312.53,-86.79"/>
<polygon fill="black" stroke="black" points="315.44,-84.86 306.99,-78.48 309.62,-88.74 315.44,-84.86"/>
</g>
<!-- アンバーシャダイ -->
<g id="node4" class="node">
<title>アンバーシャダイ</title>
<polygon fill="lightblue" stroke="lightblue" points="130,-303 0,-303 0,-226 130,-226 130,-303"/>
<image xlink:href="img/mob.png" width="100px" height="77px" preserveAspectRatio="xMinYMin meet" x="15" y="-303"/>
<text text-anchor="middle" x="65" y="-258.7" font-family="MS Gothic" font-size="14.00">アンバーシャダイ</text>
</g>
<!-- アンバーシャダイ&#45;&gt;メジロライアン -->
<g id="edge3" class="edge">
<title>アンバーシャダイ&#45;&gt;メジロライアン</title>
<path fill="none" stroke="black" d="M113.47,-225.61C125.12,-216.5 137.68,-206.69 149.69,-197.3"/>
<polygon fill="black" stroke="black" points="151.83,-200.07 157.55,-191.15 147.52,-194.55 151.83,-200.07"/>
</g>
<!-- メジロチェイサー -->
<g id="node5" class="node">
<title>メジロチェイサー</title>
<polygon fill="lightcoral" stroke="lightcoral" points="278,-303 148,-303 148,-226 278,-226 278,-303"/>
<image xlink:href="img/mob.png" width="100px" height="77px" preserveAspectRatio="xMinYMin meet" x="163" y="-303"/>
<text text-anchor="middle" x="213" y="-258.7" font-family="MS Gothic" font-size="14.00">メジロチェイサー</text>
</g>
<!-- メジロチェイサー&#45;&gt;メジロライアン -->
<g id="edge4" class="edge">
<title>メジロチェイサー&#45;&gt;メジロライアン</title>
<path fill="none" stroke="black" d="M210.95,-225.61C210.53,-217.84 210.08,-209.56 209.65,-201.46"/>
<polygon fill="black" stroke="black" points="213.16,-201.53 209.12,-191.73 206.17,-201.9 213.16,-201.53"/>
</g>
<!-- パーソロン -->
<g id="node6" class="node">
<title>パーソロン</title>
<polygon fill="lightblue" stroke="lightblue" points="393.62,-303 306.38,-303 306.38,-226 393.62,-226 393.62,-303"/>
<image xlink:href="img/mob.png" width="87.25px" height="77px" preserveAspectRatio="xMinYMin meet" x="306.375" y="-303"/>
<text text-anchor="middle" x="350" y="-258.7" font-family="MS Gothic" font-size="14.00">パーソロン</text>
</g>
<!-- パーソロン&#45;&gt;メジロビューティー -->
<g id="edge5" class="edge">
<title>パーソロン&#45;&gt;メジロビューティー</title>
<path fill="none" stroke="black" d="M351.71,-225.61C352.06,-217.84 352.43,-209.56 352.79,-201.46"/>
<polygon fill="black" stroke="black" points="356.28,-201.88 353.23,-191.73 349.29,-201.56 356.28,-201.88"/>
</g>
<!-- メジロナガサキ -->
<g id="node7" class="node">
<title>メジロナガサキ</title>
<polygon fill="lightcoral" stroke="lightcoral" points="527.88,-303 412.12,-303 412.12,-226 527.88,-226 527.88,-303"/>
<image xlink:href="img/mob.png" width="100px" height="77px" preserveAspectRatio="xMinYMin meet" x="420" y="-303"/>
<text text-anchor="middle" x="470" y="-258.7" font-family="MS Gothic" font-size="14.00">メジロナガサキ</text>
</g>
<!-- メジロナガサキ&#45;&gt;メジロビューティー -->
<g id="edge6" class="edge">
<title>メジロナガサキ&#45;&gt;メジロビューティー</title>
<path fill="none" stroke="black" d="M430.75,-225.61C421.59,-216.77 411.74,-207.26 402.27,-198.13"/>
<polygon fill="black" stroke="black" points="404.79,-195.7 395.17,-191.27 399.93,-200.73 404.79,-195.7"/>
</g>
</g>
</svg>
