<?xml version="1.0" encoding="UTF-8" standalone="no"?>
<!DOCTYPE svg PUBLIC "-//W3C//DTD SVG 1.1//EN"
 "http://www.w3.org/Graphics/SVG/1.1/DTD/svg11.dtd">
<!-- Generated by graphviz version 12.1.2 (20240928.0832)
 -->
<!-- Pages: 1 -->
<svg width="590pt" height="537pt"
 viewBox="0.00 0.00 590.38 537.00" xmlns="http://www.w3.org/2000/svg" xmlns:xlink="http://www.w3.org/1999/xlink">
<g id="graph0" class="graph" transform="scale(1 1) rotate(0) translate(4 533)">
<polygon fill="white" stroke="none" points="-4,4 -4,-533 586.38,-533 586.38,4 -4,4"/>
<!-- メジロマックイーン -->
<g id="node1" class="node">
<title>メジロマックイーン</title>
<polygon fill="none" stroke="black" points="436.12,-77 264.88,-77 264.88,0 436.12,0 436.12,-77"/>
<image xlink:href="img/meziromatsukuin.png" width="100px" height="77px" preserveAspectRatio="xMinYMin meet" x="300.5" y="-77"/>
<text text-anchor="middle" x="350.5" y="-32.33" font-family="Times New Roman,serif" font-size="14.00">メジロマックイーン</text>
</g>
<!-- メジロティターン -->
<g id="node2" class="node">
<title>メジロティターン</title>
<polygon fill="lightblue" stroke="lightblue" points="345.5,-190 215.5,-190 215.5,-113 345.5,-113 345.5,-190"/>
<image xlink:href="img/mob.png" width="100px" height="77px" preserveAspectRatio="xMinYMin meet" x="230.5" y="-190"/>
<text text-anchor="middle" x="280.5" y="-145.7" font-family="MS Gothic" font-size="14.00">メジロティターン</text>
</g>
<!-- メジロティターン&#45;&gt;メジロマックイーン -->
<g id="edge1" class="edge">
<title>メジロティターン&#45;&gt;メジロマックイーン</title>
<path fill="none" stroke="black" d="M304.39,-112.61C309.63,-104.31 315.24,-95.41 320.68,-86.79"/>
<polygon fill="black" stroke="black" points="323.53,-88.82 325.91,-78.5 317.61,-85.09 323.53,-88.82"/>
</g>
<!-- メジロオーロラ -->
<g id="node3" class="node">
<title>メジロオーロラ</title>
<polygon fill="lightcoral" stroke="lightcoral" points="479.38,-190 363.62,-190 363.62,-113 479.38,-113 479.38,-190"/>
<image xlink:href="img/mob.png" width="100px" height="77px" preserveAspectRatio="xMinYMin meet" x="371.5" y="-190"/>
<text text-anchor="middle" x="421.5" y="-145.7" font-family="MS Gothic" font-size="14.00">メジロオーロラ</text>
</g>
<!-- メジロオーロラ&#45;&gt;メジロマックイーン -->
<g id="edge2" class="edge">
<title>メジロオーロラ&#45;&gt;メジロマックイーン</title>
<path fill="none" stroke="black" d="M397.26,-112.61C391.95,-104.31 386.26,-95.41 380.75,-86.79"/>
<polygon fill="black" stroke="black" points="383.78,-85.03 375.44,-78.49 377.88,-88.8 383.78,-85.03"/>
</g>
<!-- メジロアサマ -->
<g id="node4" class="node">
<title>メジロアサマ</title>
<polygon fill="lightblue" stroke="lightblue" points="236.25,-303 134.75,-303 134.75,-226 236.25,-226 236.25,-303"/>
<image xlink:href="img/mob.png" width="100px" height="77px" preserveAspectRatio="xMinYMin meet" x="135.5" y="-303"/>
<text text-anchor="middle" x="185.5" y="-258.7" font-family="MS Gothic" font-size="14.00">メジロアサマ</text>
</g>
<!-- メジロアサマ&#45;&gt;メジロティターン -->
<g id="edge3" class="edge">
<title>メジロアサマ&#45;&gt;メジロティターン</title>
<path fill="none" stroke="black" d="M217.93,-225.61C225.26,-217.04 233.14,-207.84 240.74,-198.96"/>
<polygon fill="black" stroke="black" points="243.39,-201.24 247.23,-191.37 238.07,-196.69 243.39,-201.24"/>
</g>
<!-- シエリル -->
<g id="node5" class="node">
<title>シエリル</title>
<polygon fill="lightcoral" stroke="lightcoral" points="331,-303 254,-303 254,-226 331,-226 331,-303"/>
<image xlink:href="img/mob.png" width="77px" height="77px" preserveAspectRatio="xMinYMin meet" x="254" y="-303"/>
<text text-anchor="middle" x="292.5" y="-258.7" font-family="MS Gothic" font-size="14.00">シエリル</text>
</g>
<!-- シエリル&#45;&gt;メジロティターン -->
<g id="edge4" class="edge">
<title>シエリル&#45;&gt;メジロティターン</title>
<path fill="none" stroke="black" d="M288.4,-225.61C287.56,-217.84 286.67,-209.56 285.79,-201.46"/>
<polygon fill="black" stroke="black" points="289.3,-201.29 284.74,-191.72 282.34,-202.04 289.3,-201.29"/>
</g>
<!-- リマンド -->
<g id="node6" class="node">
<title>リマンド</title>
<polygon fill="lightblue" stroke="lightblue" points="449,-303 372,-303 372,-226 449,-226 449,-303"/>
<image xlink:href="img/mob.png" width="77px" height="77px" preserveAspectRatio="xMinYMin meet" x="372" y="-303"/>
<text text-anchor="middle" x="410.5" y="-258.7" font-family="MS Gothic" font-size="14.00">リマンド</text>
</g>
<!-- リマンド&#45;&gt;メジロオーロラ -->
<g id="edge5" class="edge">
<title>リマンド&#45;&gt;メジロオーロラ</title>
<path fill="none" stroke="black" d="M414.25,-225.61C415.02,-217.84 415.85,-209.56 416.65,-201.46"/>
<polygon fill="black" stroke="black" points="420.11,-202.02 417.61,-191.72 413.14,-201.33 420.11,-202.02"/>
</g>
<!-- メジロアイリス -->
<g id="node7" class="node">
<title>メジロアイリス</title>
<polygon fill="lightcoral" stroke="lightcoral" points="582.38,-303 466.62,-303 466.62,-226 582.38,-226 582.38,-303"/>
<image xlink:href="img/mob.png" width="100px" height="77px" preserveAspectRatio="xMinYMin meet" x="474.5" y="-303"/>
<text text-anchor="middle" x="524.5" y="-258.7" font-family="MS Gothic" font-size="14.00">メジロアイリス</text>
</g>
<!-- メジロアイリス&#45;&gt;メジロオーロラ -->
<g id="edge6" class="edge">
<title>メジロアイリス&#45;&gt;メジロオーロラ</title>
<path fill="none" stroke="black" d="M489.34,-225.61C481.22,-216.86 472.5,-207.46 464.1,-198.4"/>
<polygon fill="black" stroke="black" points="466.9,-196.28 457.53,-191.33 461.77,-201.04 466.9,-196.28"/>
</g>
<!-- パーソロン -->
<g id="node8" class="node">
<title>パーソロン</title>
<polygon fill="lightblue" stroke="lightblue" points="177.12,-416 89.88,-416 89.88,-339 177.12,-339 177.12,-416"/>
<image xlink:href="img/mob.png" width="87.25px" height="77px" preserveAspectRatio="xMinYMin meet" x="89.875" y="-416"/>
<text text-anchor="middle" x="133.5" y="-371.7" font-family="MS Gothic" font-size="14.00">パーソロン</text>
</g>
<!-- パーソロン&#45;&gt;メジロアサマ -->
<g id="edge7" class="edge">
<title>パーソロン&#45;&gt;メジロアサマ</title>
<path fill="none" stroke="black" d="M151.25,-338.61C155.02,-330.57 159.04,-321.99 162.95,-313.63"/>
<polygon fill="black" stroke="black" points="166.12,-315.13 167.19,-304.59 159.78,-312.16 166.12,-315.13"/>
</g>
<!-- スヰート -->
<g id="node9" class="node">
<title>スヰート</title>
<polygon fill="lightcoral" stroke="lightcoral" points="277,-416 200,-416 200,-339 277,-339 277,-416"/>
<image xlink:href="img/mob.png" width="77px" height="77px" preserveAspectRatio="xMinYMin meet" x="200" y="-416"/>
<text text-anchor="middle" x="238.5" y="-371.7" font-family="MS Gothic" font-size="14.00">スヰート</text>
</g>
<!-- スヰート&#45;&gt;メジロアサマ -->
<g id="edge8" class="edge">
<title>スヰート&#45;&gt;メジロアサマ</title>
<path fill="none" stroke="black" d="M220.41,-338.61C216.53,-330.48 212.38,-321.8 208.35,-313.35"/>
<polygon fill="black" stroke="black" points="211.63,-312.1 204.16,-304.58 205.31,-315.12 211.63,-312.1"/>
</g>
<!-- Milesian -->
<g id="node10" class="node">
<title>Milesian</title>
<polygon fill="lightblue" stroke="lightblue" points="77,-529 0,-529 0,-452 77,-452 77,-529"/>
<image xlink:href="img/mob.png" width="77px" height="77px" preserveAspectRatio="xMinYMin meet" x="0" y="-529"/>
<text text-anchor="middle" x="38.5" y="-484.7" font-family="MS Gothic" font-size="14.00">Milesian</text>
</g>
<!-- Milesian&#45;&gt;パーソロン -->
<g id="edge9" class="edge">
<title>Milesian&#45;&gt;パーソロン</title>
<path fill="none" stroke="black" d="M70.93,-451.61C78.26,-443.04 86.14,-433.84 93.74,-424.96"/>
<polygon fill="black" stroke="black" points="96.39,-427.24 100.23,-417.37 91.07,-422.69 96.39,-427.24"/>
</g>
<!-- Paleo -->
<g id="node11" class="node">
<title>Paleo</title>
<polygon fill="lightcoral" stroke="lightcoral" points="172,-529 95,-529 95,-452 172,-452 172,-529"/>
<image xlink:href="img/mob.png" width="77px" height="77px" preserveAspectRatio="xMinYMin meet" x="95" y="-529"/>
<text text-anchor="middle" x="133.5" y="-484.7" font-family="MS Gothic" font-size="14.00">Paleo</text>
</g>
<!-- Paleo&#45;&gt;パーソロン -->
<g id="edge10" class="edge">
<title>Paleo&#45;&gt;パーソロン</title>
<path fill="none" stroke="black" d="M133.5,-451.61C133.5,-443.84 133.5,-435.56 133.5,-427.46"/>
<polygon fill="black" stroke="black" points="137,-427.73 133.5,-417.73 130,-427.73 137,-427.73"/>
</g>
<!-- First Fiddle -->
<g id="node12" class="node">
<title>First Fiddle</title>
<polygon fill="lightblue" stroke="lightblue" points="287,-529 190,-529 190,-452 287,-452 287,-529"/>
<image xlink:href="img/mob.png" width="97px" height="77px" preserveAspectRatio="xMinYMin meet" x="190" y="-529"/>
<text text-anchor="middle" x="238.5" y="-484.7" font-family="MS Gothic" font-size="14.00">First Fiddle</text>
</g>
<!-- First Fiddle&#45;&gt;スヰート -->
<g id="edge11" class="edge">
<title>First Fiddle&#45;&gt;スヰート</title>
<path fill="none" stroke="black" d="M238.5,-451.61C238.5,-443.84 238.5,-435.56 238.5,-427.46"/>
<polygon fill="black" stroke="black" points="242,-427.73 238.5,-417.73 235,-427.73 242,-427.73"/>
</g>
<!-- Blue Eyed Momo -->
<g id="node13" class="node">
<title>Blue Eyed Momo</title>
<polygon fill="lightcoral" stroke="lightcoral" points="415.75,-529 305.25,-529 305.25,-452 415.75,-452 415.75,-529"/>
<image xlink:href="img/mob.png" width="100px" height="77px" preserveAspectRatio="xMinYMin meet" x="310.5" y="-529"/>
<text text-anchor="middle" x="360.5" y="-484.7" font-family="MS Gothic" font-size="14.00">Blue Eyed Momo</text>
</g>
<!-- Blue Eyed Momo&#45;&gt;スヰート -->
<g id="edge12" class="edge">
<title>Blue Eyed Momo&#45;&gt;スヰート</title>
<path fill="none" stroke="black" d="M318.86,-451.61C308.18,-441.9 296.63,-431.39 285.7,-421.45"/>
<polygon fill="black" stroke="black" points="288.36,-419.13 278.61,-414.99 283.65,-424.31 288.36,-419.13"/>
</g>
</g>
</svg>
