<?xml version="1.0" encoding="UTF-8" standalone="no"?>
<!DOCTYPE svg PUBLIC "-//W3C//DTD SVG 1.1//EN"
 "http://www.w3.org/Graphics/SVG/1.1/DTD/svg11.dtd">
<!-- Generated by graphviz version 12.1.2 (20240928.0832)
 -->
<!-- Pages: 1 -->
<svg width="508pt" height="311pt"
 viewBox="0.00 0.00 507.50 311.00" xmlns="http://www.w3.org/2000/svg" xmlns:xlink="http://www.w3.org/1999/xlink">
<g id="graph0" class="graph" transform="scale(1 1) rotate(0) translate(4 307)">
<polygon fill="white" stroke="none" points="-4,4 -4,-307 503.5,-307 503.5,4 -4,4"/>
<!-- メジロライアン -->
<g id="node1" class="node">
<title>メジロライアン</title>
<polygon fill="none" stroke="black" points="344.38,-77 207.62,-77 207.62,0 344.38,0 344.38,-77"/>
<image xlink:href="img/meziroraian.png" width="100px" height="77px" preserveAspectRatio="xMinYMin meet" x="226" y="-77"/>
<text text-anchor="middle" x="276" y="-32.33" font-family="Times New Roman,serif" font-size="14.00">メジロライアン</text>
</g>
<!-- アンバーシャダイ -->
<g id="node2" class="node">
<title>アンバーシャダイ</title>
<polygon fill="lightblue" stroke="lightblue" points="267,-190 137,-190 137,-113 267,-113 267,-190"/>
<image xlink:href="img/mob.png" width="100px" height="77px" preserveAspectRatio="xMinYMin meet" x="152" y="-190"/>
<text text-anchor="middle" x="202" y="-145.7" font-family="MS Gothic" font-size="14.00">アンバーシャダイ</text>
</g>
<!-- アンバーシャダイ&#45;&gt;メジロライアン -->
<g id="edge1" class="edge">
<title>アンバーシャダイ&#45;&gt;メジロライアン</title>
<path fill="none" stroke="black" d="M227.26,-112.61C232.8,-104.31 238.72,-95.41 244.47,-86.79"/>
<polygon fill="black" stroke="black" points="247.38,-88.74 250.01,-78.48 241.56,-84.86 247.38,-88.74"/>
</g>
<!-- メジロチェイサー -->
<g id="node3" class="node">
<title>メジロチェイサー</title>
<polygon fill="lightcoral" stroke="lightcoral" points="415,-190 285,-190 285,-113 415,-113 415,-190"/>
<image xlink:href="img/mob.png" width="100px" height="77px" preserveAspectRatio="xMinYMin meet" x="300" y="-190"/>
<text text-anchor="middle" x="350" y="-145.7" font-family="MS Gothic" font-size="14.00">メジロチェイサー</text>
</g>
<!-- メジロチェイサー&#45;&gt;メジロライアン -->
<g id="edge2" class="edge">
<title>メジロチェイサー&#45;&gt;メジロライアン</title>
<path fill="none" stroke="black" d="M324.74,-112.61C319.2,-104.31 313.28,-95.41 307.53,-86.79"/>
<polygon fill="black" stroke="black" points="310.44,-84.86 301.99,-78.48 304.62,-88.74 310.44,-84.86"/>
</g>
<!-- ノーザンテースト -->
<g id="node4" class="node">
<title>ノーザンテースト</title>
<polygon fill="lightblue" stroke="lightblue" points="130,-303 0,-303 0,-226 130,-226 130,-303"/>
<image xlink:href="img/mob.png" width="100px" height="77px" preserveAspectRatio="xMinYMin meet" x="15" y="-303"/>
<text text-anchor="middle" x="65" y="-258.7" font-family="MS Gothic" font-size="14.00">ノーザンテースト</text>
</g>
<!-- ノーザンテースト&#45;&gt;アンバーシャダイ -->
<g id="edge3" class="edge">
<title>ノーザンテースト&#45;&gt;アンバーシャダイ</title>
<path fill="none" stroke="black" d="M111.76,-225.61C123.01,-216.5 135.12,-206.69 146.71,-197.3"/>
<polygon fill="black" stroke="black" points="148.7,-200.19 154.27,-191.17 144.3,-194.75 148.7,-200.19"/>
</g>
<!-- クリアアンバー -->
<g id="node5" class="node">
<title>クリアアンバー</title>
<polygon fill="lightcoral" stroke="lightcoral" points="263.88,-303 148.12,-303 148.12,-226 263.88,-226 263.88,-303"/>
<image xlink:href="img/mob.png" width="100px" height="77px" preserveAspectRatio="xMinYMin meet" x="156" y="-303"/>
<text text-anchor="middle" x="206" y="-258.7" font-family="MS Gothic" font-size="14.00">クリアアンバー</text>
</g>
<!-- クリアアンバー&#45;&gt;アンバーシャダイ -->
<g id="edge4" class="edge">
<title>クリアアンバー&#45;&gt;アンバーシャダイ</title>
<path fill="none" stroke="black" d="M204.63,-225.61C204.35,-217.84 204.06,-209.56 203.76,-201.46"/>
<polygon fill="black" stroke="black" points="207.27,-201.6 203.41,-191.73 200.28,-201.85 207.27,-201.6"/>
</g>
<!-- メジロサンマン -->
<g id="node6" class="node">
<title>メジロサンマン</title>
<polygon fill="lightblue" stroke="lightblue" points="404.88,-303 289.12,-303 289.12,-226 404.88,-226 404.88,-303"/>
<image xlink:href="img/mob.png" width="100px" height="77px" preserveAspectRatio="xMinYMin meet" x="297" y="-303"/>
<text text-anchor="middle" x="347" y="-258.7" font-family="MS Gothic" font-size="14.00">メジロサンマン</text>
</g>
<!-- メジロサンマン&#45;&gt;メジロチェイサー -->
<g id="edge5" class="edge">
<title>メジロサンマン&#45;&gt;メジロチェイサー</title>
<path fill="none" stroke="black" d="M348.02,-225.61C348.23,-217.84 348.46,-209.56 348.68,-201.46"/>
<polygon fill="black" stroke="black" points="352.17,-201.82 348.94,-191.73 345.17,-201.63 352.17,-201.82"/>
</g>
<!-- シエリル -->
<g id="node7" class="node">
<title>シエリル</title>
<polygon fill="lightcoral" stroke="lightcoral" points="499.5,-303 422.5,-303 422.5,-226 499.5,-226 499.5,-303"/>
<image xlink:href="img/mob.png" width="77px" height="77px" preserveAspectRatio="xMinYMin meet" x="422.5" y="-303"/>
<text text-anchor="middle" x="461" y="-258.7" font-family="MS Gothic" font-size="14.00">シエリル</text>
</g>
<!-- シエリル&#45;&gt;メジロチェイサー -->
<g id="edge6" class="edge">
<title>シエリル&#45;&gt;メジロチェイサー</title>
<path fill="none" stroke="black" d="M423.11,-225.61C414.27,-216.77 404.76,-207.26 395.63,-198.13"/>
<polygon fill="black" stroke="black" points="398.33,-195.89 388.79,-191.29 393.39,-200.83 398.33,-195.89"/>
</g>
</g>
</svg>
