<?xml version="1.0" encoding="UTF-8" standalone="no"?>
<!DOCTYPE svg PUBLIC "-//W3C//DTD SVG 1.1//EN"
 "http://www.w3.org/Graphics/SVG/1.1/DTD/svg11.dtd">
<!-- Generated by graphviz version 12.1.2 (20240928.0832)
 -->
<!-- Pages: 1 -->
<svg width="450pt" height="311pt"
 viewBox="0.00 0.00 450.12 311.00" xmlns="http://www.w3.org/2000/svg" xmlns:xlink="http://www.w3.org/1999/xlink">
<g id="graph0" class="graph" transform="scale(1 1) rotate(0) translate(4 307)">
<polygon fill="white" stroke="none" points="-4,4 -4,-307 446.12,-307 446.12,4 -4,4"/>
<!-- メイショウドトウ -->
<g id="node1" class="node">
<title>メイショウドトウ</title>
<polygon fill="none" stroke="black" points="318,-77 164,-77 164,0 318,0 318,-77"/>
<image xlink:href="img/meishiyoudotou.png" width="100px" height="77px" preserveAspectRatio="xMinYMin meet" x="191" y="-77"/>
<text text-anchor="middle" x="241" y="-32.33" font-family="Times New Roman,serif" font-size="14.00">メイショウドトウ</text>
</g>
<!-- Bigstone -->
<g id="node2" class="node">
<title>Bigstone</title>
<polygon fill="lightblue" stroke="lightblue" points="218.5,-190 141.5,-190 141.5,-113 218.5,-113 218.5,-190"/>
<image xlink:href="img/mob.png" width="77px" height="77px" preserveAspectRatio="xMinYMin meet" x="141.5" y="-190"/>
<text text-anchor="middle" x="180" y="-145.7" font-family="MS Gothic" font-size="14.00">Bigstone</text>
</g>
<!-- Bigstone&#45;&gt;メイショウドトウ -->
<g id="edge1" class="edge">
<title>Bigstone&#45;&gt;メイショウドトウ</title>
<path fill="none" stroke="black" d="M200.82,-112.61C205.34,-104.39 210.17,-95.6 214.86,-87.07"/>
<polygon fill="black" stroke="black" points="217.79,-88.99 219.54,-78.55 211.66,-85.62 217.79,-88.99"/>
</g>
<!-- プリンセスリーマ -->
<g id="node3" class="node">
<title>プリンセスリーマ</title>
<polygon fill="lightcoral" stroke="lightcoral" points="367,-190 237,-190 237,-113 367,-113 367,-190"/>
<image xlink:href="img/mob.png" width="100px" height="77px" preserveAspectRatio="xMinYMin meet" x="252" y="-190"/>
<text text-anchor="middle" x="302" y="-145.7" font-family="MS Gothic" font-size="14.00">プリンセスリーマ</text>
</g>
<!-- プリンセスリーマ&#45;&gt;メイショウドトウ -->
<g id="edge2" class="edge">
<title>プリンセスリーマ&#45;&gt;メイショウドトウ</title>
<path fill="none" stroke="black" d="M281.18,-112.61C276.66,-104.39 271.83,-95.6 267.14,-87.07"/>
<polygon fill="black" stroke="black" points="270.34,-85.62 262.46,-78.55 264.21,-88.99 270.34,-85.62"/>
</g>
<!-- ラストタイクーン -->
<g id="node4" class="node">
<title>ラストタイクーン</title>
<polygon fill="lightblue" stroke="lightblue" points="130,-303 0,-303 0,-226 130,-226 130,-303"/>
<image xlink:href="img/mob.png" width="100px" height="77px" preserveAspectRatio="xMinYMin meet" x="15" y="-303"/>
<text text-anchor="middle" x="65" y="-258.7" font-family="MS Gothic" font-size="14.00">ラストタイクーン</text>
</g>
<!-- ラストタイクーン&#45;&gt;Bigstone -->
<g id="edge3" class="edge">
<title>ラストタイクーン&#45;&gt;Bigstone</title>
<path fill="none" stroke="black" d="M104.25,-225.61C113.51,-216.67 123.48,-207.06 133.04,-197.83"/>
<polygon fill="black" stroke="black" points="135.46,-200.36 140.22,-190.89 130.6,-195.32 135.46,-200.36"/>
</g>
<!-- Batave -->
<g id="node5" class="node">
<title>Batave</title>
<polygon fill="lightcoral" stroke="lightcoral" points="225.5,-303 148.5,-303 148.5,-226 225.5,-226 225.5,-303"/>
<image xlink:href="img/mob.png" width="77px" height="77px" preserveAspectRatio="xMinYMin meet" x="148.5" y="-303"/>
<text text-anchor="middle" x="187" y="-258.7" font-family="MS Gothic" font-size="14.00">Batave</text>
</g>
<!-- Batave&#45;&gt;Bigstone -->
<g id="edge4" class="edge">
<title>Batave&#45;&gt;Bigstone</title>
<path fill="none" stroke="black" d="M184.61,-225.61C184.12,-217.84 183.6,-209.56 183.09,-201.46"/>
<polygon fill="black" stroke="black" points="186.6,-201.49 182.47,-191.73 179.61,-201.93 186.6,-201.49"/>
</g>
<!-- Affirmed -->
<g id="node6" class="node">
<title>Affirmed</title>
<polygon fill="lightblue" stroke="lightblue" points="333.5,-303 256.5,-303 256.5,-226 333.5,-226 333.5,-303"/>
<image xlink:href="img/mob.png" width="77px" height="77px" preserveAspectRatio="xMinYMin meet" x="256.5" y="-303"/>
<text text-anchor="middle" x="295" y="-258.7" font-family="MS Gothic" font-size="14.00">Affirmed</text>
</g>
<!-- Affirmed&#45;&gt;プリンセスリーマ -->
<g id="edge5" class="edge">
<title>Affirmed&#45;&gt;プリンセスリーマ</title>
<path fill="none" stroke="black" d="M297.39,-225.61C297.88,-217.84 298.4,-209.56 298.91,-201.46"/>
<polygon fill="black" stroke="black" points="302.39,-201.93 299.53,-191.73 295.4,-201.49 302.39,-201.93"/>
</g>
<!-- First Fling -->
<g id="node7" class="node">
<title>First Fling</title>
<polygon fill="lightcoral" stroke="lightcoral" points="442.12,-303 351.88,-303 351.88,-226 442.12,-226 442.12,-303"/>
<image xlink:href="img/mob.png" width="90.25px" height="77px" preserveAspectRatio="xMinYMin meet" x="351.875" y="-303"/>
<text text-anchor="middle" x="397" y="-258.7" font-family="MS Gothic" font-size="14.00">First Fling</text>
</g>
<!-- First Fling&#45;&gt;プリンセスリーマ -->
<g id="edge6" class="edge">
<title>First Fling&#45;&gt;プリンセスリーマ</title>
<path fill="none" stroke="black" d="M364.57,-225.61C357.24,-217.04 349.36,-207.84 341.76,-198.96"/>
<polygon fill="black" stroke="black" points="344.43,-196.69 335.27,-191.37 339.11,-201.24 344.43,-196.69"/>
</g>
</g>
</svg>
