<?xml version="1.0" encoding="UTF-8" standalone="no"?>
<!DOCTYPE svg PUBLIC "-//W3C//DTD SVG 1.1//EN"
 "http://www.w3.org/Graphics/SVG/1.1/DTD/svg11.dtd">
<!-- Generated by graphviz version 12.1.2 (20240928.0832)
 -->
<!-- Pages: 1 -->
<svg width="553pt" height="311pt"
 viewBox="0.00 0.00 552.75 311.00" xmlns="http://www.w3.org/2000/svg" xmlns:xlink="http://www.w3.org/1999/xlink">
<g id="graph0" class="graph" transform="scale(1 1) rotate(0) translate(4 307)">
<polygon fill="white" stroke="none" points="-4,4 -4,-307 548.75,-307 548.75,4 -4,4"/>
<!-- ヤマニンゼファー -->
<g id="node1" class="node">
<title>ヤマニンゼファー</title>
<polygon fill="none" stroke="black" points="371,-77 217,-77 217,0 371,0 371,-77"/>
<image xlink:href="img/yamaninzehua.png" width="100px" height="77px" preserveAspectRatio="xMinYMin meet" x="244" y="-77"/>
<text text-anchor="middle" x="294" y="-32.33" font-family="Times New Roman,serif" font-size="14.00">ヤマニンゼファー</text>
</g>
<!-- ニホンピロウイナー -->
<g id="node2" class="node">
<title>ニホンピロウイナー</title>
<polygon fill="lightblue" stroke="lightblue" points="289.12,-190 144.88,-190 144.88,-113 289.12,-113 289.12,-190"/>
<image xlink:href="img/mob.png" width="100px" height="77px" preserveAspectRatio="xMinYMin meet" x="167" y="-190"/>
<text text-anchor="middle" x="217" y="-145.7" font-family="MS Gothic" font-size="14.00">ニホンピロウイナー</text>
</g>
<!-- ニホンピロウイナー&#45;&gt;ヤマニンゼファー -->
<g id="edge1" class="edge">
<title>ニホンピロウイナー&#45;&gt;ヤマニンゼファー</title>
<path fill="none" stroke="black" d="M243.28,-112.61C249.11,-104.22 255.35,-95.22 261.39,-86.51"/>
<polygon fill="black" stroke="black" points="264.15,-88.67 266.97,-78.46 258.4,-84.68 264.15,-88.67"/>
</g>
<!-- ヤマニンポリシー -->
<g id="node3" class="node">
<title>ヤマニンポリシー</title>
<polygon fill="lightcoral" stroke="lightcoral" points="437,-190 307,-190 307,-113 437,-113 437,-190"/>
<image xlink:href="img/mob.png" width="100px" height="77px" preserveAspectRatio="xMinYMin meet" x="322" y="-190"/>
<text text-anchor="middle" x="372" y="-145.7" font-family="MS Gothic" font-size="14.00">ヤマニンポリシー</text>
</g>
<!-- ヤマニンポリシー&#45;&gt;ヤマニンゼファー -->
<g id="edge2" class="edge">
<title>ヤマニンポリシー&#45;&gt;ヤマニンゼファー</title>
<path fill="none" stroke="black" d="M345.37,-112.61C339.48,-104.22 333.16,-95.22 327.04,-86.51"/>
<polygon fill="black" stroke="black" points="329.99,-84.63 321.38,-78.46 324.26,-88.65 329.99,-84.63"/>
</g>
<!-- スティールハート -->
<g id="node4" class="node">
<title>スティールハート</title>
<polygon fill="lightblue" stroke="lightblue" points="130,-303 0,-303 0,-226 130,-226 130,-303"/>
<image xlink:href="img/mob.png" width="100px" height="77px" preserveAspectRatio="xMinYMin meet" x="15" y="-303"/>
<text text-anchor="middle" x="65" y="-258.7" font-family="MS Gothic" font-size="14.00">スティールハート</text>
</g>
<!-- スティールハート&#45;&gt;ニホンピロウイナー -->
<g id="edge3" class="edge">
<title>スティールハート&#45;&gt;ニホンピロウイナー</title>
<path fill="none" stroke="black" d="M116.88,-225.61C129.41,-216.46 142.91,-206.6 155.82,-197.18"/>
<polygon fill="black" stroke="black" points="157.86,-200.02 163.87,-191.3 153.73,-194.37 157.86,-200.02"/>
</g>
<!-- ニホンピロエバート -->
<g id="node5" class="node">
<title>ニホンピロエバート</title>
<polygon fill="lightcoral" stroke="lightcoral" points="292.12,-303 147.88,-303 147.88,-226 292.12,-226 292.12,-303"/>
<image xlink:href="img/mob.png" width="100px" height="77px" preserveAspectRatio="xMinYMin meet" x="170" y="-303"/>
<text text-anchor="middle" x="220" y="-258.7" font-family="MS Gothic" font-size="14.00">ニホンピロエバート</text>
</g>
<!-- ニホンピロエバート&#45;&gt;ニホンピロウイナー -->
<g id="edge4" class="edge">
<title>ニホンピロエバート&#45;&gt;ニホンピロウイナー</title>
<path fill="none" stroke="black" d="M218.98,-225.61C218.77,-217.84 218.54,-209.56 218.32,-201.46"/>
<polygon fill="black" stroke="black" points="221.83,-201.63 218.06,-191.73 214.83,-201.82 221.83,-201.63"/>
</g>
<!-- Blushing Groom -->
<g id="node6" class="node">
<title>Blushing Groom</title>
<polygon fill="lightblue" stroke="lightblue" points="425.25,-303 314.75,-303 314.75,-226 425.25,-226 425.25,-303"/>
<image xlink:href="img/mob.png" width="100px" height="77px" preserveAspectRatio="xMinYMin meet" x="320" y="-303"/>
<text text-anchor="middle" x="370" y="-258.7" font-family="MS Gothic" font-size="14.00">Blushing Groom</text>
</g>
<!-- Blushing Groom&#45;&gt;ヤマニンポリシー -->
<g id="edge5" class="edge">
<title>Blushing Groom&#45;&gt;ヤマニンポリシー</title>
<path fill="none" stroke="black" d="M370.68,-225.61C370.82,-217.84 370.97,-209.56 371.12,-201.46"/>
<polygon fill="black" stroke="black" points="374.61,-201.79 371.29,-191.73 367.61,-201.67 374.61,-201.79"/>
</g>
<!-- ヤマホウユウ -->
<g id="node7" class="node">
<title>ヤマホウユウ</title>
<polygon fill="lightcoral" stroke="lightcoral" points="544.75,-303 443.25,-303 443.25,-226 544.75,-226 544.75,-303"/>
<image xlink:href="img/mob.png" width="100px" height="77px" preserveAspectRatio="xMinYMin meet" x="444" y="-303"/>
<text text-anchor="middle" x="494" y="-258.7" font-family="MS Gothic" font-size="14.00">ヤマホウユウ</text>
</g>
<!-- ヤマホウユウ&#45;&gt;ヤマニンポリシー -->
<g id="edge6" class="edge">
<title>ヤマホウユウ&#45;&gt;ヤマニンポリシー</title>
<path fill="none" stroke="black" d="M452.36,-225.61C442.54,-216.68 431.98,-207.07 421.84,-197.85"/>
<polygon fill="black" stroke="black" points="424.33,-195.38 414.58,-191.24 419.62,-200.56 424.33,-195.38"/>
</g>
</g>
</svg>
