<?xml version="1.0" encoding="UTF-8" standalone="no"?>
<!DOCTYPE svg PUBLIC "-//W3C//DTD SVG 1.1//EN"
 "http://www.w3.org/Graphics/SVG/1.1/DTD/svg11.dtd">
<!-- Generated by graphviz version 12.1.2 (20240928.0832)
 -->
<!-- Pages: 1 -->
<svg width="476pt" height="311pt"
 viewBox="0.00 0.00 476.00 311.00" xmlns="http://www.w3.org/2000/svg" xmlns:xlink="http://www.w3.org/1999/xlink">
<g id="graph0" class="graph" transform="scale(1 1) rotate(0) translate(4 307)">
<polygon fill="white" stroke="none" points="-4,4 -4,-307 472,-307 472,4 -4,4"/>
<!-- ヤエノムテキ -->
<g id="node1" class="node">
<title>ヤエノムテキ</title>
<polygon fill="none" stroke="black" points="301.25,-77 181.75,-77 181.75,0 301.25,0 301.25,-77"/>
<image xlink:href="img/yaenomuteki.png" width="100px" height="77px" preserveAspectRatio="xMinYMin meet" x="191.5" y="-77"/>
<text text-anchor="middle" x="241.5" y="-32.33" font-family="Times New Roman,serif" font-size="14.00">ヤエノムテキ</text>
</g>
<!-- ヤマニンスキー -->
<g id="node2" class="node">
<title>ヤマニンスキー</title>
<polygon fill="lightblue" stroke="lightblue" points="225.38,-190 109.62,-190 109.62,-113 225.38,-113 225.38,-190"/>
<image xlink:href="img/mob.png" width="100px" height="77px" preserveAspectRatio="xMinYMin meet" x="117.5" y="-190"/>
<text text-anchor="middle" x="167.5" y="-145.7" font-family="MS Gothic" font-size="14.00">ヤマニンスキー</text>
</g>
<!-- ヤマニンスキー&#45;&gt;ヤエノムテキ -->
<g id="edge1" class="edge">
<title>ヤマニンスキー&#45;&gt;ヤエノムテキ</title>
<path fill="none" stroke="black" d="M192.76,-112.61C198.3,-104.31 204.22,-95.41 209.97,-86.79"/>
<polygon fill="black" stroke="black" points="212.88,-88.74 215.51,-78.48 207.06,-84.86 212.88,-88.74"/>
</g>
<!-- ツルミスター -->
<g id="node3" class="node">
<title>ツルミスター</title>
<polygon fill="lightcoral" stroke="lightcoral" points="366.25,-190 264.75,-190 264.75,-113 366.25,-113 366.25,-190"/>
<image xlink:href="img/mob.png" width="100px" height="77px" preserveAspectRatio="xMinYMin meet" x="265.5" y="-190"/>
<text text-anchor="middle" x="315.5" y="-145.7" font-family="MS Gothic" font-size="14.00">ツルミスター</text>
</g>
<!-- ツルミスター&#45;&gt;ヤエノムテキ -->
<g id="edge2" class="edge">
<title>ツルミスター&#45;&gt;ヤエノムテキ</title>
<path fill="none" stroke="black" d="M290.24,-112.61C284.7,-104.31 278.78,-95.41 273.03,-86.79"/>
<polygon fill="black" stroke="black" points="275.94,-84.86 267.49,-78.48 270.12,-88.74 275.94,-84.86"/>
</g>
<!-- Nijinsky -->
<g id="node4" class="node">
<title>Nijinsky</title>
<polygon fill="lightblue" stroke="lightblue" points="77,-303 0,-303 0,-226 77,-226 77,-303"/>
<image xlink:href="img/mob.png" width="77px" height="77px" preserveAspectRatio="xMinYMin meet" x="0" y="-303"/>
<text text-anchor="middle" x="38.5" y="-258.7" font-family="MS Gothic" font-size="14.00">Nijinsky</text>
</g>
<!-- Nijinsky&#45;&gt;ヤマニンスキー -->
<g id="edge3" class="edge">
<title>Nijinsky&#45;&gt;ヤマニンスキー</title>
<path fill="none" stroke="black" d="M77.2,-230.2C89.02,-220.03 102.22,-208.67 114.81,-197.84"/>
<polygon fill="black" stroke="black" points="116.95,-200.62 122.25,-191.44 112.38,-195.31 116.95,-200.62"/>
</g>
<!-- アンメンシヨナブル -->
<g id="node5" class="node">
<title>アンメンシヨナブル</title>
<polygon fill="lightcoral" stroke="lightcoral" points="239.62,-303 95.38,-303 95.38,-226 239.62,-226 239.62,-303"/>
<image xlink:href="img/mob.png" width="100px" height="77px" preserveAspectRatio="xMinYMin meet" x="117.5" y="-303"/>
<text text-anchor="middle" x="167.5" y="-258.7" font-family="MS Gothic" font-size="14.00">アンメンシヨナブル</text>
</g>
<!-- アンメンシヨナブル&#45;&gt;ヤマニンスキー -->
<g id="edge4" class="edge">
<title>アンメンシヨナブル&#45;&gt;ヤマニンスキー</title>
<path fill="none" stroke="black" d="M167.5,-225.61C167.5,-217.84 167.5,-209.56 167.5,-201.46"/>
<polygon fill="black" stroke="black" points="171,-201.73 167.5,-191.73 164,-201.73 171,-201.73"/>
</g>
<!-- イエローゴッド -->
<g id="node6" class="node">
<title>イエローゴッド</title>
<polygon fill="lightblue" stroke="lightblue" points="373.38,-303 257.62,-303 257.62,-226 373.38,-226 373.38,-303"/>
<image xlink:href="img/mob.png" width="100px" height="77px" preserveAspectRatio="xMinYMin meet" x="265.5" y="-303"/>
<text text-anchor="middle" x="315.5" y="-258.7" font-family="MS Gothic" font-size="14.00">イエローゴッド</text>
</g>
<!-- イエローゴッド&#45;&gt;ツルミスター -->
<g id="edge5" class="edge">
<title>イエローゴッド&#45;&gt;ツルミスター</title>
<path fill="none" stroke="black" d="M315.5,-225.61C315.5,-217.84 315.5,-209.56 315.5,-201.46"/>
<polygon fill="black" stroke="black" points="319,-201.73 315.5,-191.73 312,-201.73 319,-201.73"/>
</g>
<!-- フジコウ -->
<g id="node7" class="node">
<title>フジコウ</title>
<polygon fill="lightcoral" stroke="lightcoral" points="468,-303 391,-303 391,-226 468,-226 468,-303"/>
<image xlink:href="img/mob.png" width="77px" height="77px" preserveAspectRatio="xMinYMin meet" x="391" y="-303"/>
<text text-anchor="middle" x="429.5" y="-258.7" font-family="MS Gothic" font-size="14.00">フジコウ</text>
</g>
<!-- フジコウ&#45;&gt;ツルミスター -->
<g id="edge6" class="edge">
<title>フジコウ&#45;&gt;ツルミスター</title>
<path fill="none" stroke="black" d="M390.59,-225.61C381.51,-216.77 371.74,-207.26 362.36,-198.13"/>
<polygon fill="black" stroke="black" points="364.93,-195.74 355.32,-191.27 360.05,-200.76 364.93,-195.74"/>
</g>
</g>
</svg>
