<?xml version="1.0" encoding="UTF-8" standalone="no"?>
<!DOCTYPE svg PUBLIC "-//W3C//DTD SVG 1.1//EN"
 "http://www.w3.org/Graphics/SVG/1.1/DTD/svg11.dtd">
<!-- Generated by graphviz version 12.1.2 (20240928.0832)
 -->
<!-- Pages: 1 -->
<svg width="128pt" height="311pt"
 viewBox="0.00 0.00 127.50 311.00" xmlns="http://www.w3.org/2000/svg" xmlns:xlink="http://www.w3.org/1999/xlink">
<g id="graph0" class="graph" transform="scale(1 1) rotate(0) translate(4 307)">
<polygon fill="white" stroke="none" points="-4,4 -4,-307 123.5,-307 123.5,4 -4,4"/>
<!-- ヤエノムテキ -->
<g id="node1" class="node">
<title>ヤエノムテキ</title>
<polygon fill="none" stroke="black" points="119.5,-77 0,-77 0,0 119.5,0 119.5,-77"/>
<image xlink:href="img/yaenomuteki.png" width="100px" height="77px" preserveAspectRatio="xMinYMin meet" x="9.75" y="-77"/>
<text text-anchor="middle" x="59.75" y="-32.33" font-family="Times New Roman,serif" font-size="14.00">ヤエノムテキ</text>
</g>
<!-- ヤマニンスキー -->
<g id="node2" class="node">
<title>ヤマニンスキー</title>
<polygon fill="lightblue" stroke="lightblue" points="117.62,-190 1.88,-190 1.88,-113 117.62,-113 117.62,-190"/>
<image xlink:href="img/mob.png" width="100px" height="77px" preserveAspectRatio="xMinYMin meet" x="9.75" y="-190"/>
<text text-anchor="middle" x="59.75" y="-145.7" font-family="MS Gothic" font-size="14.00">ヤマニンスキー</text>
</g>
<!-- ヤマニンスキー&#45;&gt;ヤエノムテキ -->
<g id="edge1" class="edge">
<title>ヤマニンスキー&#45;&gt;ヤエノムテキ</title>
<path fill="none" stroke="black" d="M59.75,-112.61C59.75,-104.84 59.75,-96.56 59.75,-88.46"/>
<polygon fill="black" stroke="black" points="63.25,-88.73 59.75,-78.73 56.25,-88.73 63.25,-88.73"/>
</g>
<!-- ツルミスター -->
<g id="node3" class="node">
<title>ツルミスター</title>
<polygon fill="lightblue" stroke="lightblue" points="110.5,-303 9,-303 9,-226 110.5,-226 110.5,-303"/>
<image xlink:href="img/mob.png" width="100px" height="77px" preserveAspectRatio="xMinYMin meet" x="9.75" y="-303"/>
<text text-anchor="middle" x="59.75" y="-258.7" font-family="MS Gothic" font-size="14.00">ツルミスター</text>
</g>
<!-- ツルミスター&#45;&gt;ヤマニンスキー -->
<g id="edge2" class="edge">
<title>ツルミスター&#45;&gt;ヤマニンスキー</title>
<path fill="none" stroke="black" d="M59.75,-225.61C59.75,-217.84 59.75,-209.56 59.75,-201.46"/>
<polygon fill="black" stroke="black" points="63.25,-201.73 59.75,-191.73 56.25,-201.73 63.25,-201.73"/>
</g>
</g>
</svg>
