<?xml version="1.0" encoding="UTF-8" standalone="no"?>
<!DOCTYPE svg PUBLIC "-//W3C//DTD SVG 1.1//EN"
 "http://www.w3.org/Graphics/SVG/1.1/DTD/svg11.dtd">
<!-- Generated by graphviz version 12.1.2 (20240928.0832)
 -->
<!-- Pages: 1 -->
<svg width="498pt" height="311pt"
 viewBox="0.00 0.00 497.62 311.00" xmlns="http://www.w3.org/2000/svg" xmlns:xlink="http://www.w3.org/1999/xlink">
<g id="graph0" class="graph" transform="scale(1 1) rotate(0) translate(4 307)">
<polygon fill="white" stroke="none" points="-4,4 -4,-307 493.62,-307 493.62,4 -4,4"/>
<!-- ユキノビジン -->
<g id="node1" class="node">
<title>ユキノビジン</title>
<polygon fill="none" stroke="black" points="293.5,-77 174,-77 174,0 293.5,0 293.5,-77"/>
<image xlink:href="img/yukinobizin.png" width="100px" height="77px" preserveAspectRatio="xMinYMin meet" x="183.75" y="-77"/>
<text text-anchor="middle" x="233.75" y="-32.33" font-family="Times New Roman,serif" font-size="14.00">ユキノビジン</text>
</g>
<!-- サクラユタカオー -->
<g id="node2" class="node">
<title>サクラユタカオー</title>
<polygon fill="lightblue" stroke="lightblue" points="235.75,-190 105.75,-190 105.75,-113 235.75,-113 235.75,-190"/>
<image xlink:href="img/mob.png" width="100px" height="77px" preserveAspectRatio="xMinYMin meet" x="120.75" y="-190"/>
<text text-anchor="middle" x="170.75" y="-145.7" font-family="MS Gothic" font-size="14.00">サクラユタカオー</text>
</g>
<!-- サクラユタカオー&#45;&gt;ユキノビジン -->
<g id="edge1" class="edge">
<title>サクラユタカオー&#45;&gt;ユキノビジン</title>
<path fill="none" stroke="black" d="M192.25,-112.61C196.92,-104.39 201.91,-95.6 206.75,-87.07"/>
<polygon fill="black" stroke="black" points="209.7,-88.96 211.59,-78.53 203.61,-85.5 209.7,-88.96"/>
</g>
<!-- ファティマ -->
<g id="node3" class="node">
<title>ファティマ</title>
<polygon fill="lightcoral" stroke="lightcoral" points="341.38,-190 254.12,-190 254.12,-113 341.38,-113 341.38,-190"/>
<image xlink:href="img/mob.png" width="87.25px" height="77px" preserveAspectRatio="xMinYMin meet" x="254.125" y="-190"/>
<text text-anchor="middle" x="297.75" y="-145.7" font-family="MS Gothic" font-size="14.00">ファティマ</text>
</g>
<!-- ファティマ&#45;&gt;ユキノビジン -->
<g id="edge2" class="edge">
<title>ファティマ&#45;&gt;ユキノビジン</title>
<path fill="none" stroke="black" d="M275.9,-112.61C271.17,-104.39 266.1,-95.6 261.18,-87.07"/>
<polygon fill="black" stroke="black" points="264.28,-85.44 256.25,-78.53 258.22,-88.94 264.28,-85.44"/>
</g>
<!-- テスコボーイ -->
<g id="node4" class="node">
<title>テスコボーイ</title>
<polygon fill="lightblue" stroke="lightblue" points="101.5,-303 0,-303 0,-226 101.5,-226 101.5,-303"/>
<image xlink:href="img/mob.png" width="100px" height="77px" preserveAspectRatio="xMinYMin meet" x="0.75" y="-303"/>
<text text-anchor="middle" x="50.75" y="-258.7" font-family="MS Gothic" font-size="14.00">テスコボーイ</text>
</g>
<!-- テスコボーイ&#45;&gt;サクラユタカオー -->
<g id="edge3" class="edge">
<title>テスコボーイ&#45;&gt;サクラユタカオー</title>
<path fill="none" stroke="black" d="M91.71,-225.61C101.37,-216.68 111.75,-207.07 121.72,-197.85"/>
<polygon fill="black" stroke="black" points="123.9,-200.61 128.86,-191.25 119.14,-195.47 123.9,-200.61"/>
</g>
<!-- アンジェリカ -->
<g id="node5" class="node">
<title>アンジェリカ</title>
<polygon fill="lightcoral" stroke="lightcoral" points="221.5,-303 120,-303 120,-226 221.5,-226 221.5,-303"/>
<image xlink:href="img/mob.png" width="100px" height="77px" preserveAspectRatio="xMinYMin meet" x="120.75" y="-303"/>
<text text-anchor="middle" x="170.75" y="-258.7" font-family="MS Gothic" font-size="14.00">アンジェリカ</text>
</g>
<!-- アンジェリカ&#45;&gt;サクラユタカオー -->
<g id="edge4" class="edge">
<title>アンジェリカ&#45;&gt;サクラユタカオー</title>
<path fill="none" stroke="black" d="M170.75,-225.61C170.75,-217.84 170.75,-209.56 170.75,-201.46"/>
<polygon fill="black" stroke="black" points="174.25,-201.73 170.75,-191.73 167.25,-201.73 174.25,-201.73"/>
</g>
<!-- ロイヤルスキー -->
<g id="node6" class="node">
<title>ロイヤルスキー</title>
<polygon fill="lightblue" stroke="lightblue" points="355.62,-303 239.88,-303 239.88,-226 355.62,-226 355.62,-303"/>
<image xlink:href="img/mob.png" width="100px" height="77px" preserveAspectRatio="xMinYMin meet" x="247.75" y="-303"/>
<text text-anchor="middle" x="297.75" y="-258.7" font-family="MS Gothic" font-size="14.00">ロイヤルスキー</text>
</g>
<!-- ロイヤルスキー&#45;&gt;ファティマ -->
<g id="edge5" class="edge">
<title>ロイヤルスキー&#45;&gt;ファティマ</title>
<path fill="none" stroke="black" d="M297.75,-225.61C297.75,-217.84 297.75,-209.56 297.75,-201.46"/>
<polygon fill="black" stroke="black" points="301.25,-201.73 297.75,-191.73 294.25,-201.73 301.25,-201.73"/>
</g>
<!-- ビューティワン -->
<g id="node7" class="node">
<title>ビューティワン</title>
<polygon fill="lightcoral" stroke="lightcoral" points="489.62,-303 373.88,-303 373.88,-226 489.62,-226 489.62,-303"/>
<image xlink:href="img/mob.png" width="100px" height="77px" preserveAspectRatio="xMinYMin meet" x="381.75" y="-303"/>
<text text-anchor="middle" x="431.75" y="-258.7" font-family="MS Gothic" font-size="14.00">ビューティワン</text>
</g>
<!-- ビューティワン&#45;&gt;ファティマ -->
<g id="edge6" class="edge">
<title>ビューティワン&#45;&gt;ファティマ</title>
<path fill="none" stroke="black" d="M386.01,-225.61C374.53,-216.1 362.12,-205.82 350.34,-196.06"/>
<polygon fill="black" stroke="black" points="352.57,-193.37 342.64,-189.69 348.11,-198.76 352.57,-193.37"/>
</g>
</g>
</svg>
