<?xml version="1.0" encoding="UTF-8" standalone="no"?>
<!DOCTYPE svg PUBLIC "-//W3C//DTD SVG 1.1//EN"
 "http://www.w3.org/Graphics/SVG/1.1/DTD/svg11.dtd">
<!-- Generated by graphviz version 12.1.2 (20240928.0832)
 -->
<!-- Pages: 1 -->
<svg width="451pt" height="311pt"
 viewBox="0.00 0.00 451.12 311.00" xmlns="http://www.w3.org/2000/svg" xmlns:xlink="http://www.w3.org/1999/xlink">
<g id="graph0" class="graph" transform="scale(1 1) rotate(0) translate(4 307)">
<polygon fill="white" stroke="none" points="-4,4 -4,-307 447.12,-307 447.12,4 -4,4"/>
<!-- ライスシャワー -->
<g id="node1" class="node">
<title>ライスシャワー</title>
<polygon fill="none" stroke="black" points="279.88,-77 143.12,-77 143.12,0 279.88,0 279.88,-77"/>
<image xlink:href="img/raisushiyawa.png" width="100px" height="77px" preserveAspectRatio="xMinYMin meet" x="161.5" y="-77"/>
<text text-anchor="middle" x="211.5" y="-32.33" font-family="Times New Roman,serif" font-size="14.00">ライスシャワー</text>
</g>
<!-- リアルシャダイ -->
<g id="node2" class="node">
<title>リアルシャダイ</title>
<polygon fill="lightblue" stroke="lightblue" points="195.38,-190 79.62,-190 79.62,-113 195.38,-113 195.38,-190"/>
<image xlink:href="img/mob.png" width="100px" height="77px" preserveAspectRatio="xMinYMin meet" x="87.5" y="-190"/>
<text text-anchor="middle" x="137.5" y="-145.7" font-family="MS Gothic" font-size="14.00">リアルシャダイ</text>
</g>
<!-- リアルシャダイ&#45;&gt;ライスシャワー -->
<g id="edge1" class="edge">
<title>リアルシャダイ&#45;&gt;ライスシャワー</title>
<path fill="none" stroke="black" d="M162.76,-112.61C168.3,-104.31 174.22,-95.41 179.97,-86.79"/>
<polygon fill="black" stroke="black" points="182.88,-88.74 185.51,-78.48 177.06,-84.86 182.88,-88.74"/>
</g>
<!-- ライラックポイント -->
<g id="node3" class="node">
<title>ライラックポイント</title>
<polygon fill="lightcoral" stroke="lightcoral" points="357.62,-190 213.38,-190 213.38,-113 357.62,-113 357.62,-190"/>
<image xlink:href="img/mob.png" width="100px" height="77px" preserveAspectRatio="xMinYMin meet" x="235.5" y="-190"/>
<text text-anchor="middle" x="285.5" y="-145.7" font-family="MS Gothic" font-size="14.00">ライラックポイント</text>
</g>
<!-- ライラックポイント&#45;&gt;ライスシャワー -->
<g id="edge2" class="edge">
<title>ライラックポイント&#45;&gt;ライスシャワー</title>
<path fill="none" stroke="black" d="M260.24,-112.61C254.7,-104.31 248.78,-95.41 243.03,-86.79"/>
<polygon fill="black" stroke="black" points="245.94,-84.86 237.49,-78.48 240.12,-88.74 245.94,-84.86"/>
</g>
<!-- Roberto -->
<g id="node4" class="node">
<title>Roberto</title>
<polygon fill="lightblue" stroke="lightblue" points="77,-303 0,-303 0,-226 77,-226 77,-303"/>
<image xlink:href="img/mob.png" width="77px" height="77px" preserveAspectRatio="xMinYMin meet" x="0" y="-303"/>
<text text-anchor="middle" x="38.5" y="-258.7" font-family="MS Gothic" font-size="14.00">Roberto</text>
</g>
<!-- Roberto&#45;&gt;リアルシャダイ -->
<g id="edge3" class="edge">
<title>Roberto&#45;&gt;リアルシャダイ</title>
<path fill="none" stroke="black" d="M72.29,-225.61C80.02,-216.95 88.31,-207.65 96.31,-198.68"/>
<polygon fill="black" stroke="black" points="98.81,-201.14 102.85,-191.35 93.58,-196.48 98.81,-201.14"/>
</g>
<!-- Desert Vixen -->
<g id="node5" class="node">
<title>Desert Vixen</title>
<polygon fill="lightcoral" stroke="lightcoral" points="192,-303 95,-303 95,-226 192,-226 192,-303"/>
<image xlink:href="img/mob.png" width="97px" height="77px" preserveAspectRatio="xMinYMin meet" x="95" y="-303"/>
<text text-anchor="middle" x="143.5" y="-258.7" font-family="MS Gothic" font-size="14.00">Desert Vixen</text>
</g>
<!-- Desert Vixen&#45;&gt;リアルシャダイ -->
<g id="edge4" class="edge">
<title>Desert Vixen&#45;&gt;リアルシャダイ</title>
<path fill="none" stroke="black" d="M141.45,-225.61C141.03,-217.84 140.58,-209.56 140.15,-201.46"/>
<polygon fill="black" stroke="black" points="143.66,-201.53 139.62,-191.73 136.67,-201.9 143.66,-201.53"/>
</g>
<!-- マルゼンスキー -->
<g id="node6" class="node">
<title>マルゼンスキー</title>
<polygon fill="lightblue" stroke="lightblue" points="337.38,-303 221.62,-303 221.62,-226 337.38,-226 337.38,-303"/>
<image xlink:href="img/maruzensuki.png" width="100px" height="77px" preserveAspectRatio="xMinYMin meet" x="229.5" y="-303"/>
<text text-anchor="middle" x="279.5" y="-258.7" font-family="MS Gothic" font-size="14.00">マルゼンスキー</text>
</g>
<!-- マルゼンスキー&#45;&gt;ライラックポイント -->
<g id="edge5" class="edge">
<title>マルゼンスキー&#45;&gt;ライラックポイント</title>
<path fill="none" stroke="black" d="M281.55,-225.61C281.97,-217.84 282.42,-209.56 282.85,-201.46"/>
<polygon fill="black" stroke="black" points="286.33,-201.9 283.38,-191.73 279.34,-201.53 286.33,-201.9"/>
</g>
<!-- クリカツラ -->
<g id="node7" class="node">
<title>クリカツラ</title>
<polygon fill="lightcoral" stroke="lightcoral" points="443.12,-303 355.88,-303 355.88,-226 443.12,-226 443.12,-303"/>
<image xlink:href="img/mob.png" width="87.25px" height="77px" preserveAspectRatio="xMinYMin meet" x="355.875" y="-303"/>
<text text-anchor="middle" x="399.5" y="-258.7" font-family="MS Gothic" font-size="14.00">クリカツラ</text>
</g>
<!-- クリカツラ&#45;&gt;ライラックポイント -->
<g id="edge6" class="edge">
<title>クリカツラ&#45;&gt;ライラックポイント</title>
<path fill="none" stroke="black" d="M360.59,-225.61C351.51,-216.77 341.74,-207.26 332.36,-198.13"/>
<polygon fill="black" stroke="black" points="334.93,-195.74 325.32,-191.27 330.05,-200.76 334.93,-195.74"/>
</g>
</g>
</svg>
