<?xml version="1.0" encoding="UTF-8" standalone="no"?>
<!DOCTYPE svg PUBLIC "-//W3C//DTD SVG 1.1//EN"
 "http://www.w3.org/Graphics/SVG/1.1/DTD/svg11.dtd">
<!-- Generated by graphviz version 12.1.2 (20240928.0832)
 -->
<!-- Pages: 1 -->
<svg width="485pt" height="311pt"
 viewBox="0.00 0.00 484.50 311.00" xmlns="http://www.w3.org/2000/svg" xmlns:xlink="http://www.w3.org/1999/xlink">
<g id="graph0" class="graph" transform="scale(1 1) rotate(0) translate(4 307)">
<polygon fill="white" stroke="none" points="-4,4 -4,-307 480.5,-307 480.5,4 -4,4"/>
<!-- ロイスアンドロイス -->
<g id="node1" class="node">
<title>ロイスアンドロイス</title>
<polygon fill="none" stroke="black" points="296.12,-77 124.88,-77 124.88,0 296.12,0 296.12,-77"/>
<image xlink:href="img/roisuandoroisu.png" width="100px" height="77px" preserveAspectRatio="xMinYMin meet" x="160.5" y="-77"/>
<text text-anchor="middle" x="210.5" y="-32.33" font-family="Times New Roman,serif" font-size="14.00">ロイスアンドロイス</text>
</g>
<!-- トニービン -->
<g id="node2" class="node">
<title>トニービン</title>
<polygon fill="lightblue" stroke="lightblue" points="190.12,-190 102.88,-190 102.88,-113 190.12,-113 190.12,-190"/>
<image xlink:href="img/mob.png" width="87.25px" height="77px" preserveAspectRatio="xMinYMin meet" x="102.875" y="-190"/>
<text text-anchor="middle" x="146.5" y="-145.7" font-family="MS Gothic" font-size="14.00">トニービン</text>
</g>
<!-- トニービン&#45;&gt;ロイスアンドロイス -->
<g id="edge1" class="edge">
<title>トニービン&#45;&gt;ロイスアンドロイス</title>
<path fill="none" stroke="black" d="M168.35,-112.61C173.08,-104.39 178.15,-95.6 183.07,-87.07"/>
<polygon fill="black" stroke="black" points="186.03,-88.94 188,-78.53 179.97,-85.44 186.03,-88.94"/>
</g>
<!-- ザツツマイパル -->
<g id="node3" class="node">
<title>ザツツマイパル</title>
<polygon fill="lightcoral" stroke="lightcoral" points="333.38,-190 217.62,-190 217.62,-113 333.38,-113 333.38,-190"/>
<image xlink:href="img/mob.png" width="100px" height="77px" preserveAspectRatio="xMinYMin meet" x="225.5" y="-190"/>
<text text-anchor="middle" x="275.5" y="-145.7" font-family="MS Gothic" font-size="14.00">ザツツマイパル</text>
</g>
<!-- ザツツマイパル&#45;&gt;ロイスアンドロイス -->
<g id="edge2" class="edge">
<title>ザツツマイパル&#45;&gt;ロイスアンドロイス</title>
<path fill="none" stroke="black" d="M253.31,-112.61C248.5,-104.39 243.35,-95.6 238.36,-87.07"/>
<polygon fill="black" stroke="black" points="241.43,-85.39 233.35,-78.52 235.39,-88.92 241.43,-85.39"/>
</g>
<!-- カンパラ -->
<g id="node4" class="node">
<title>カンパラ</title>
<polygon fill="lightblue" stroke="lightblue" points="77,-303 0,-303 0,-226 77,-226 77,-303"/>
<image xlink:href="img/mob.png" width="77px" height="77px" preserveAspectRatio="xMinYMin meet" x="0" y="-303"/>
<text text-anchor="middle" x="38.5" y="-258.7" font-family="MS Gothic" font-size="14.00">カンパラ</text>
</g>
<!-- カンパラ&#45;&gt;トニービン -->
<g id="edge3" class="edge">
<title>カンパラ&#45;&gt;トニービン</title>
<path fill="none" stroke="black" d="M75.37,-225.61C83.88,-216.86 93.03,-207.46 101.84,-198.4"/>
<polygon fill="black" stroke="black" points="104.28,-200.91 108.75,-191.3 99.26,-196.03 104.28,-200.91"/>
</g>
<!-- Severn Bridge -->
<g id="node5" class="node">
<title>Severn Bridge</title>
<polygon fill="lightcoral" stroke="lightcoral" points="198.38,-303 94.62,-303 94.62,-226 198.38,-226 198.38,-303"/>
<image xlink:href="img/mob.png" width="100px" height="77px" preserveAspectRatio="xMinYMin meet" x="96.5" y="-303"/>
<text text-anchor="middle" x="146.5" y="-258.7" font-family="MS Gothic" font-size="14.00">Severn Bridge</text>
</g>
<!-- Severn Bridge&#45;&gt;トニービン -->
<g id="edge4" class="edge">
<title>Severn Bridge&#45;&gt;トニービン</title>
<path fill="none" stroke="black" d="M146.5,-225.61C146.5,-217.84 146.5,-209.56 146.5,-201.46"/>
<polygon fill="black" stroke="black" points="150,-201.73 146.5,-191.73 143,-201.73 150,-201.73"/>
</g>
<!-- Key to the Mint -->
<g id="node6" class="node">
<title>Key to the Mint</title>
<polygon fill="lightblue" stroke="lightblue" points="334.12,-303 216.88,-303 216.88,-226 334.12,-226 334.12,-303"/>
<image xlink:href="img/mob.png" width="100px" height="77px" preserveAspectRatio="xMinYMin meet" x="225.5" y="-303"/>
<text text-anchor="middle" x="275.5" y="-258.7" font-family="MS Gothic" font-size="14.00">Key to the Mint</text>
</g>
<!-- Key to the Mint&#45;&gt;ザツツマイパル -->
<g id="edge5" class="edge">
<title>Key to the Mint&#45;&gt;ザツツマイパル</title>
<path fill="none" stroke="black" d="M275.5,-225.61C275.5,-217.84 275.5,-209.56 275.5,-201.46"/>
<polygon fill="black" stroke="black" points="279,-201.73 275.5,-191.73 272,-201.73 279,-201.73"/>
</g>
<!-- Beautiful Memory -->
<g id="node7" class="node">
<title>Beautiful Memory</title>
<polygon fill="lightcoral" stroke="lightcoral" points="476.5,-303 352.5,-303 352.5,-226 476.5,-226 476.5,-303"/>
<image xlink:href="img/mob.png" width="100px" height="77px" preserveAspectRatio="xMinYMin meet" x="364.5" y="-303"/>
<text text-anchor="middle" x="414.5" y="-258.7" font-family="MS Gothic" font-size="14.00">Beautiful Memory</text>
</g>
<!-- Beautiful Memory&#45;&gt;ザツツマイパル -->
<g id="edge6" class="edge">
<title>Beautiful Memory&#45;&gt;ザツツマイパル</title>
<path fill="none" stroke="black" d="M367.05,-225.61C355.65,-216.5 343.36,-206.69 331.6,-197.3"/>
<polygon fill="black" stroke="black" points="333.91,-194.67 323.92,-191.16 329.55,-200.14 333.91,-194.67"/>
</g>
</g>
</svg>
