<?xml version="1.0" encoding="UTF-8" standalone="no"?>
<!DOCTYPE svg PUBLIC "-//W3C//DTD SVG 1.1//EN"
 "http://www.w3.org/Graphics/SVG/1.1/DTD/svg11.dtd">
<!-- Generated by graphviz version 12.1.2 (20240928.0832)
 -->
<!-- Pages: 1 -->
<svg width="461pt" height="311pt"
 viewBox="0.00 0.00 461.38 311.00" xmlns="http://www.w3.org/2000/svg" xmlns:xlink="http://www.w3.org/1999/xlink">
<g id="graph0" class="graph" transform="scale(1 1) rotate(0) translate(4 307)">
<polygon fill="white" stroke="none" points="-4,4 -4,-307 457.38,-307 457.38,4 -4,4"/>
<!-- ワンダーアキュート -->
<g id="node1" class="node">
<title>ワンダーアキュート</title>
<polygon fill="none" stroke="black" points="309.5,-77 138.25,-77 138.25,0 309.5,0 309.5,-77"/>
<image xlink:href="img/wandaakiyuto.png" width="100px" height="77px" preserveAspectRatio="xMinYMin meet" x="173.875" y="-77"/>
<text text-anchor="middle" x="223.88" y="-32.33" font-family="Times New Roman,serif" font-size="14.00">ワンダーアキュート</text>
</g>
<!-- カリズマティック -->
<g id="node2" class="node">
<title>カリズマティック</title>
<polygon fill="lightblue" stroke="lightblue" points="211.88,-190 81.88,-190 81.88,-113 211.88,-113 211.88,-190"/>
<image xlink:href="img/mob.png" width="100px" height="77px" preserveAspectRatio="xMinYMin meet" x="96.875" y="-190"/>
<text text-anchor="middle" x="146.88" y="-145.7" font-family="MS Gothic" font-size="14.00">カリズマティック</text>
</g>
<!-- カリズマティック&#45;&gt;ワンダーアキュート -->
<g id="edge1" class="edge">
<title>カリズマティック&#45;&gt;ワンダーアキュート</title>
<path fill="none" stroke="black" d="M173.16,-112.61C178.98,-104.22 185.22,-95.22 191.26,-86.51"/>
<polygon fill="black" stroke="black" points="194.02,-88.67 196.85,-78.46 188.27,-84.68 194.02,-88.67"/>
</g>
<!-- ワンダーヘリテージ -->
<g id="node3" class="node">
<title>ワンダーヘリテージ</title>
<polygon fill="lightcoral" stroke="lightcoral" points="374,-190 229.75,-190 229.75,-113 374,-113 374,-190"/>
<image xlink:href="img/mob.png" width="100px" height="77px" preserveAspectRatio="xMinYMin meet" x="251.875" y="-190"/>
<text text-anchor="middle" x="301.88" y="-145.7" font-family="MS Gothic" font-size="14.00">ワンダーヘリテージ</text>
</g>
<!-- ワンダーヘリテージ&#45;&gt;ワンダーアキュート -->
<g id="edge2" class="edge">
<title>ワンダーヘリテージ&#45;&gt;ワンダーアキュート</title>
<path fill="none" stroke="black" d="M275.25,-112.61C269.35,-104.22 263.03,-95.22 256.91,-86.51"/>
<polygon fill="black" stroke="black" points="259.86,-84.63 251.25,-78.46 254.14,-88.65 259.86,-84.63"/>
</g>
<!-- Summer Squall -->
<g id="node4" class="node">
<title>Summer Squall</title>
<polygon fill="lightblue" stroke="lightblue" points="103.75,-303 0,-303 0,-226 103.75,-226 103.75,-303"/>
<image xlink:href="img/mob.png" width="100px" height="77px" preserveAspectRatio="xMinYMin meet" x="1.875" y="-303"/>
<text text-anchor="middle" x="51.88" y="-258.7" font-family="MS Gothic" font-size="14.00">Summer Squall</text>
</g>
<!-- Summer Squall&#45;&gt;カリズマティック -->
<g id="edge3" class="edge">
<title>Summer Squall&#45;&gt;カリズマティック</title>
<path fill="none" stroke="black" d="M84.3,-225.61C91.64,-217.04 99.51,-207.84 107.11,-198.96"/>
<polygon fill="black" stroke="black" points="109.77,-201.24 113.61,-191.37 104.45,-196.69 109.77,-201.24"/>
</g>
<!-- Bali Babe -->
<g id="node5" class="node">
<title>Bali Babe</title>
<polygon fill="lightcoral" stroke="lightcoral" points="198.38,-303 121.38,-303 121.38,-226 198.38,-226 198.38,-303"/>
<image xlink:href="img/mob.png" width="77px" height="77px" preserveAspectRatio="xMinYMin meet" x="121.375" y="-303"/>
<text text-anchor="middle" x="159.88" y="-258.7" font-family="MS Gothic" font-size="14.00">Bali Babe</text>
</g>
<!-- Bali Babe&#45;&gt;カリズマティック -->
<g id="edge4" class="edge">
<title>Bali Babe&#45;&gt;カリズマティック</title>
<path fill="none" stroke="black" d="M155.44,-225.61C154.53,-217.84 153.56,-209.56 152.61,-201.46"/>
<polygon fill="black" stroke="black" points="156.11,-201.25 151.47,-191.72 149.16,-202.06 156.11,-201.25"/>
</g>
<!-- Pleasant Tap -->
<g id="node6" class="node">
<title>Pleasant Tap</title>
<polygon fill="lightblue" stroke="lightblue" points="338.38,-303 241.38,-303 241.38,-226 338.38,-226 338.38,-303"/>
<image xlink:href="img/mob.png" width="97px" height="77px" preserveAspectRatio="xMinYMin meet" x="241.375" y="-303"/>
<text text-anchor="middle" x="289.88" y="-258.7" font-family="MS Gothic" font-size="14.00">Pleasant Tap</text>
</g>
<!-- Pleasant Tap&#45;&gt;ワンダーヘリテージ -->
<g id="edge5" class="edge">
<title>Pleasant Tap&#45;&gt;ワンダーヘリテージ</title>
<path fill="none" stroke="black" d="M293.97,-225.61C294.81,-217.84 295.71,-209.56 296.58,-201.46"/>
<polygon fill="black" stroke="black" points="300.04,-202.04 297.63,-191.72 293.08,-201.29 300.04,-202.04"/>
</g>
<!-- Casa Petrone -->
<g id="node7" class="node">
<title>Casa Petrone</title>
<polygon fill="lightcoral" stroke="lightcoral" points="453.38,-303 356.38,-303 356.38,-226 453.38,-226 453.38,-303"/>
<image xlink:href="img/mob.png" width="97px" height="77px" preserveAspectRatio="xMinYMin meet" x="356.375" y="-303"/>
<text text-anchor="middle" x="404.88" y="-258.7" font-family="MS Gothic" font-size="14.00">Casa Petrone</text>
</g>
<!-- Casa Petrone&#45;&gt;ワンダーヘリテージ -->
<g id="edge6" class="edge">
<title>Casa Petrone&#45;&gt;ワンダーヘリテージ</title>
<path fill="none" stroke="black" d="M369.72,-225.61C361.6,-216.86 352.87,-207.46 344.47,-198.4"/>
<polygon fill="black" stroke="black" points="347.27,-196.28 337.9,-191.33 342.14,-201.04 347.27,-196.28"/>
</g>
</g>
</svg>
