<?xml version="1.0" encoding="UTF-8" standalone="no"?>
<!DOCTYPE svg PUBLIC "-//W3C//DTD SVG 1.1//EN"
 "http://www.w3.org/Graphics/SVG/1.1/DTD/svg11.dtd">
<!-- Generated by graphviz version 12.1.2 (20240928.0832)
 -->
<!-- Pages: 1 -->
<svg width="224pt" height="116pt"
 viewBox="0.00 0.00 224.12 116.00" xmlns="http://www.w3.org/2000/svg" xmlns:xlink="http://www.w3.org/1999/xlink">
<g id="graph0" class="graph" transform="scale(1 1) rotate(0) translate(4 112)">
<polygon fill="white" stroke="none" points="-4,4 -4,-112 220.12,-112 220.12,4 -4,4"/>
<!-- スペシャルウィーク -->
<g id="node1" class="node">
<title>スペシャルウィーク</title>
<polygon fill="lightblue" stroke="lightblue" stroke-width="3" points="202.25,-36 58,-36 58,0 202.25,0 202.25,-36"/>
<text text-anchor="middle" x="130.12" y="-12.2" font-family="MS Gothic" font-size="14.00">スペシャルウィーク</text>
</g>
<!-- サンデーサイレンス -->
<g id="node2" class="node">
<title>サンデーサイレンス</title>
<polygon fill="lightblue" stroke="lightblue" stroke-width="3" points="144.25,-108 0,-108 0,-72 144.25,-72 144.25,-108"/>
<text text-anchor="middle" x="72.12" y="-84.2" font-family="MS Gothic" font-size="14.00">サンデーサイレンス</text>
</g>
<!-- サンデーサイレンス&#45;&gt;スペシャルウィーク -->
<g id="edge1" class="edge">
<title>サンデーサイレンス&#45;&gt;スペシャルウィーク</title>
<path fill="none" stroke="black" d="M87.36,-70.61C93.67,-62.99 101.12,-54.01 108.01,-45.69"/>
<polygon fill="black" stroke="black" points="110.54,-48.13 114.22,-38.19 105.15,-43.66 110.54,-48.13"/>
</g>
<!-- Halo -->
<g id="node3" class="node">
<title>Halo</title>
<polygon fill="lightblue" stroke="lightblue" stroke-width="3" points="216.12,-108 162.12,-108 162.12,-72 216.12,-72 216.12,-108"/>
<text text-anchor="middle" x="189.12" y="-84.2" font-family="MS Gothic" font-size="14.00">Halo</text>
</g>
<!-- Halo&#45;&gt;スペシャルウィーク -->
<g id="edge2" class="edge">
<title>Halo&#45;&gt;スペシャルウィーク</title>
<path fill="none" stroke="black" d="M173.62,-70.61C167.2,-62.99 159.64,-54.01 152.62,-45.69"/>
<polygon fill="black" stroke="black" points="155.42,-43.57 146.29,-38.18 150.06,-48.09 155.42,-43.57"/>
</g>
</g>
</svg>
